<?xml version="1.0" encoding="utf-8"?>
<!-- Generator: Adobe Illustrator 24.2.1, SVG Export Plug-In . SVG Version: 6.00 Build 0)  -->
<svg version="1.1" id="Layer_1" xmlns="http://www.w3.org/2000/svg" xmlns:xlink="http://www.w3.org/1999/xlink" x="0px" y="0px"
	 viewBox="0 0 60 60" style="enable-background:new 0 0 60 60;" xml:space="preserve">
<style type="text/css">
	.st0{fill:#FFCC00;}
	.st1{fill:#D40511;}
</style>
<path class="st0" d="M56,60H4c-2.2,0-4-1.8-4-4V4c0-2.2,1.8-4,4-4h52c2.2,0,4,1.8,4,4v52C60,58.2,58.2,60,56,60z"/>
<g>
	<g>
		<g>
			<path class="st1" d="M16.2,32.3H6v2h8.7L16.2,32.3z M18.9,28.6H6v2h11.4L18.9,28.6z M36.1,27.9c-0.5,0.7-1.3,1.8-1.8,2.5
				c-0.3,0.3-0.7,1,0.8,1h7.8c0,0,1.3-1.8,2.4-3.2c1.5-2,0.1-6.2-5.2-6.2H19.2l-3.6,4.9h20C36.6,26.9,36.6,27.3,36.1,27.9z M6,38h6
				l1.5-2H6V38z M40.2,38H54v-2H41.6L40.2,38z M47.1,28.6l-1.5,2H54v-2H47.1z M41.6,33.1h-8.9l-3.4,0c-1.5,0-1.1-0.6-0.8-1
				c0.5-0.7,1.4-1.8,1.8-2.5c0.5-0.7,0.8-1-0.2-1h-9L14.2,38h17.7C37.1,38,40.3,34.8,41.6,33.1z M42.9,34.3H54v-2h-9.6L42.9,34.3z"
				/>
		</g>
	</g>
</g>
</svg>
