<?xml version="1.0" encoding="utf-8"?>
<!-- Generator: Adobe Illustrator 24.1.0, SVG Export Plug-In . SVG Version: 6.00 Build 0)  -->
<svg version="1.1" id="Ebene_1" xmlns="http://www.w3.org/2000/svg" xmlns:xlink="http://www.w3.org/1999/xlink" x="0px" y="0px"
	 viewBox="0 0 256 256" style="enable-background:new 0 0 256 256;" xml:space="preserve">
<style type="text/css">
	.st0{fill:#FFCC00;}
	.st1{fill:#D40511;}
</style>
<g id="Hintergrund_xA0_Bild_1_">
	<rect y="0.01" class="st0" width="256" height="256"/>
	<g>
		<g>
			<path class="st1" d="M54.36,140.33H0.04v10.64h46.52L54.36,140.33z M0.04,170.61h32.04l7.76-10.56H0.04V170.61z M68.88,120.61
				H0.04v10.6h61.04L68.88,120.61z M160.56,117.05c-2.64,3.56-7.04,9.76-9.72,13.4c-1.36,1.84-3.84,5.2,4.32,5.2h41.4
				c0,0,6.92-9.44,12.72-17.28c7.88-10.72,0.68-33-27.56-33H70.6l-19.28,26.2h106.6C163.24,111.49,163.16,113.53,160.56,117.05z
				 M219.08,120.61l-7.76,10.56h44.64v-10.56H219.08z M189.8,144.73h-47.72h-18.12c-8.16,0-5.68-3.36-4.32-5.2
				c2.68-3.64,7.2-9.84,9.84-13.4c2.6-3.52,4.2-5.52-1.12-5.52H80.32l-36.8,50h94.4C165.92,170.61,182.76,153.53,189.8,144.73z
				 M196.8,150.89h59.16v-10.64H204.6L196.8,150.89z M182.28,170.61h73.64v-10.6h-65.84L182.28,170.61z"/>
		</g>
	</g>
</g>
<g id="DHL_1_">
	<g id="Vektor-Smartobjekt_xA0_Bild_1_">
	</g>
</g>
</svg>
