<svg xmlns="http://www.w3.org/2000/svg" xml:space="preserve" viewBox="0 0 60 60"><path d="M56 60H4c-2.2 0-4-1.8-4-4V4c0-2.2 1.8-4 4-4h52c2.2 0 4 1.8 4 4v52c0 2.2-1.8 4-4 4" style="fill:#fc0"/><path d="M16.2 32.3H6v2h8.7zm2.7-3.7H6v2h11.4zm17.2-.7c-.5.7-1.3 1.8-1.8 2.5-.3.3-.7 1 .8 1h7.8s1.3-1.8 2.4-3.2c1.5-2 .1-6.2-5.2-6.2H19.2l-3.6 4.9h20c1 0 1 .4.5 1M6 38h6l1.5-2H6zm34.2 0H54v-2H41.6zm6.9-9.4-1.5 2H54v-2zm-5.5 4.5H29.3c-1.5 0-1.1-.6-.8-1 .5-.7 1.4-1.8 1.8-2.5.5-.7.8-1-.2-1h-9L14.2 38h17.7c5.2 0 8.4-3.2 9.7-4.9m1.3 1.2H54v-2h-9.6z" style="fill:#d40511"/></svg>