<svg xmlns="http://www.w3.org/2000/svg" fill="none" viewBox="0 0 80 80" height="80" width="80">
<rect fill="white" rx="16" height="80" width="80"></rect>
<rect fill="white" rx="16" height="80" width="80"></rect>
<path fill="#6B1C96" d="M38.6142 64.2729L37.0885 59.7809C36.9426 59.3493 36.6022 59.015 36.1706 58.8631L31.6786 57.3374C30.3535 56.8876 30.3535 55.0154 31.6786 54.5656L36.1706 53.0399C36.6022 52.894 36.9365 52.5536 37.0885 52.122L38.6142 47.6301C39.064 46.305 40.9361 46.305 41.386 47.6301L42.9116 52.122C43.0575 52.5536 43.3979 52.8879 43.8295 53.0399L48.3215 54.5656C49.6466 55.0154 49.6466 56.8876 48.3215 57.3374L43.8295 58.8631C43.3979 59.0089 43.0636 59.3493 42.9116 59.7809L41.386 64.2729C40.9361 65.598 39.064 65.598 38.6142 64.2729Z"></path>
<path fill="#6B1C96" d="M15.6705 59.6185H21.5381C22.3717 59.6185 23.1419 59.1757 23.5548 58.4562L44.9448 21.5453C45.842 19.9995 44.7185 18.0662 42.9241 18.0662H37.0803C36.2467 18.0662 35.4805 18.509 35.0636 19.2246L13.6498 56.1354C12.7526 57.6813 13.8721 59.6185 15.6665 59.6185H15.6705Z"></path>
<path fill="#6B1C96" d="M46.759 29.3186L43.8331 34.3673C43.4163 35.0869 43.4163 35.9685 43.8331 36.6881L56.4496 58.4606C56.8664 59.1801 57.6366 59.6229 58.4663 59.6229H64.3339C66.1283 59.6229 67.2478 57.6896 66.3506 56.1398L50.7924 29.3186C49.8952 27.7727 47.6522 27.7727 46.755 29.3186H46.759Z"></path>
</svg>
