<svg version="1.1" id="Layer_1" xmlns="http://www.w3.org/2000/svg" xmlns:xlink="http://www.w3.org/1999/xlink" x="0px" y="0px" width="512px" height="512px" viewBox="0 0 512 512" enable-background="new 0 0 512 512" xml:space="preserve">
<g>
	<path fill="#7574FF" d="M512,448c0,35.2-28.8,64-64,64H64c-35.2,0-64-28.8-64-64V64C0,28.8,28.8,0,64,0h384c35.2,0,64,28.8,64,64   V448z"/>
</g>
<g>
	<path fill="#FFFFFF" d="M150.483,371.684V141.15c0-15.167,9.534-25.133,23.833-25.133h162.5c13.866,0,20.8,6.933,20.8,18.633v2.6   c0,12.133-6.934,18.633-20.8,18.633h-141.7v78.434h109.634c14.3,0,20.8,6.066,20.8,17.767v1.3c0,12.133-6.934,18.633-20.8,18.633   H195.117v84.934h144.3c13.867,0,20.367,6.066,20.367,17.767v2.167c0,12.566-6.5,19.5-20.367,19.5h-165.1   C160.017,396.384,150.483,386.851,150.483,371.684z"/>
</g>
</svg>
