<svg width="40" height="40" viewBox="0 0 40 40" fill="none" xmlns="http://www.w3.org/2000/svg">
<path d="M19.5206 27.2873L9.29324 39.2473C8.88891 39.7695 8.36894 40 7.79043 40C6.7505 40 6 39.1905 6 38.2663C6 37.8616 6.11527 37.3983 6.51997 36.9373L17.2095 24.8608L6.92467 13.0739C6.51996 12.6105 6.28943 12.2059 6.28943 11.686C6.28943 10.7615 7.03994 9.95234 8.13841 9.95234C8.71474 9.95234 9.11944 10.185 9.58268 10.7051L19.5206 22.3755L29.4585 10.7051C29.9221 10.185 30.3268 9.95234 30.9031 9.95234C32.0016 9.95234 32.7521 10.7615 32.7521 11.686C32.7521 12.2059 32.5216 12.6105 32.1169 13.0739L21.8321 24.8608L32.5216 36.9373C32.9263 37.3983 33.0415 37.8616 33.0415 38.2663C33.0415 39.1905 32.291 40 31.2511 40C30.6722 40 30.1526 39.7694 29.7479 39.2473L19.5206 27.2873ZM22.472 2.95109C22.472 4.58094 21.1507 5.90231 19.5206 5.90231C17.8909 5.90231 16.5695 4.58094 16.5695 2.95109C16.5695 1.32137 17.8909 -3.9211e-07 19.5206 -3.9211e-07C21.1507 -3.9211e-07 22.472 1.32137 22.472 2.95109Z" fill="white"/>
</svg>
