<svg width="200" height="200" viewBox="0 0 200 200" fill="none" xmlns="http://www.w3.org/2000/svg">
  <path fill-rule="evenodd" clip-rule="evenodd"
    d="M69.6293 169.704L86.8202 160.449L101.723 152.707L78.0264 108.268H118L13 3V150.779L43.5985 121.057L69.6293 169.704Z"
    fill="white" />
  <path fill-rule="evenodd" clip-rule="evenodd"
    d="M72.2407 156.112L88.5273 147.429L62.9209 99.4276H96.1769L22.126 25.2107V128.448L45.4717 105.915L72.2407 156.112Z"
    fill="black" />
  <path fill-rule="evenodd" clip-rule="evenodd"
    d="M185.789 147.733L174.52 144.077C167.312 141.684 163.089 135.813 161.107 128.436L156.147 104.124C156.018 103.643 155.702 103 154.732 103C153.915 103 153.445 103.643 153.316 104.124L148.357 128.444C146.366 135.821 142.151 141.692 134.943 144.086L123.674 147.741C122.08 148.262 122.056 150.526 123.641 151.071L134.992 155.004C142.176 157.406 146.366 163.269 148.357 170.613L153.324 194.657C153.453 195.137 153.72 196 154.74 196C155.795 196 156.017 195.17 156.148 194.685L156.155 194.657L161.123 170.613C163.113 163.26 167.303 157.398 174.488 155.004L185.838 151.071C187.407 150.518 187.383 148.254 185.789 147.733ZM121.247 168.886C114.569 166.668 113.905 164.169 112.791 159.98L112.76 159.865L109.937 149.899C109.767 149.256 108.1 149.256 107.922 149.899L106.005 159.108C104.864 163.35 102.437 166.721 98.2953 168.097L91.6938 170.979C90.7796 171.28 90.7634 172.583 91.6776 172.893L98.3276 175.262C102.454 176.638 104.864 180.009 106.013 184.235L107.931 193.044C108.109 193.688 109.767 193.688 109.937 193.044L112.186 184.275C113.327 180.025 115.074 176.646 120.681 175.262L126.926 172.893C127.84 172.575 127.832 171.272 126.91 170.971L121.247 168.886ZM122.981 105.494C123.201 104.581 124.49 104.566 124.714 105.484L127.171 115.695C127.507 116.866 128.417 117.773 129.588 118.093L135.837 119.788C136.683 120.027 136.71 121.219 135.882 121.502L129.328 123.717C128.274 124.073 127.457 124.922 127.129 125.99L124.714 135.446L124.713 135.449C124.486 136.37 123.21 136.332 122.99 135.448L120.654 126.02C120.333 124.951 119.523 124.095 118.477 123.732L111.928 121.451C111.095 121.151 111.162 119.96 112.002 119.737L118.208 118.117C119.409 117.804 120.348 116.874 120.668 115.669L122.981 105.494Z"
    fill="url(#paint0_linear_1_2)" />
  <defs>
    <linearGradient id="paint0_linear_1_2" x1="91" y1="103" x2="203.908" y2="133.588"
      gradientUnits="userSpaceOnUse">
      <stop stop-color="#5B60E8" />
      <stop offset="0.5" stop-color="#AA7BEC" />
      <stop offset="1" stop-color="#EC7B8E" />
    </linearGradient>
  </defs>
</svg>
