<svg xmlns="http://www.w3.org/2000/svg" viewBox="0 0 80 80"><defs><linearGradient id="a" x1="0%" x2="100%" y1="100%" y2="0%"><stop offset="0%" style="stop-color:#c8511b;stop-opacity:1"/><stop offset="100%" style="stop-color:#f90;stop-opacity:1"/></linearGradient></defs><path fill="url(#a)" d="M0 0h80v80H0z"/><path fill="#FFF" d="M40 20c-11 0-20 9-20 20s9 20 20 20 20-9 20-20-9-20-20-20zm0 36c-8.8 0-16-7.2-16-16s7.2-16 16-16 16 7.2 16 16-7.2 16-16 16z"/><path fill="#FFF" d="M40 28c-6.6 0-12 5.4-12 12s5.4 12 12 12 12-5.4 12-12-5.4-12-12-12zm0 20c-4.4 0-8-3.6-8-8s3.6-8 8-8 8 3.6 8 8-3.6 8-8 8zm0-12c-2.2 0-4 1.8-4 4s1.8 4 4 4 4-1.8 4-4-1.8-4-4-4z"/></svg>
