<svg width="48" height="48" viewBox="0 0 48 48" fill="none" xmlns="http://www.w3.org/2000/svg">
<path d="M0 24C0 10.7452 10.7452 0 24 0C37.2548 0 48 10.7452 48 24C48 37.2548 37.2548 48 24 48C10.7452 48 0 37.2548 0 24Z" fill="white"/>
<path fill-rule="evenodd" clip-rule="evenodd" d="M15.4479 18.6532C19.4971 18.6532 22.7796 15.278 22.7796 11.1145H8.11609C8.11609 15.278 11.3986 18.6532 15.4479 18.6532ZM22.7796 35.8515V17.6483L8.11609 35.8515H22.7796ZM25.1953 35.8516C25.1953 31.6881 28.4779 28.3129 32.5271 28.3129C36.5763 28.3129 39.8588 31.6881 39.8588 35.8516H25.1953ZM25.1953 11.1145V29.3177L39.8604 11.1145H25.1953Z" fill="#03363D"/>
</svg>
