<svg xmlns="http://www.w3.org/2000/svg" width="32" height="32" viewBox="0 0 32 32" fill="none"><script xmlns="" src="chrome-extension://hoklmmgfnpapgjgcpechhaamimifchmp/frame_ant/frame_ant.js"/><script xmlns=""/>
  <path fill-rule="evenodd" clip-rule="evenodd" d="M22.2599 8.94615C22.5633 8.96582 22.8561 9.06648 23.1088 9.23794C23.3781 9.3773 23.6075 9.58464 23.775 9.84004C24.0495 10.3352 24.1537 10.9091 24.0711 11.471C23.9884 12.033 23.7237 12.5509 23.3187 12.9432C22.9488 13.2607 22.5391 13.5271 22.1002 13.7352C21.4192 14.0609 20.8177 14.5354 20.3386 15.1247C19.6851 15.9164 19.1724 16.8176 18.8235 17.7878C18.5593 18.5045 18.4548 19.2717 18.5177 20.0341C18.5654 20.448 18.5654 20.8661 18.5177 21.28C18.4451 21.8819 18.1536 22.4346 17.7002 22.8297C17.2468 23.2247 16.6643 23.4335 16.067 23.4152C15.4649 23.4371 14.8771 23.2258 14.4229 22.8242C13.9687 22.4225 13.682 21.8605 13.6209 21.2522C13.5732 20.8383 13.5732 20.4202 13.6209 20.0063C13.6815 19.2439 13.5772 18.4772 13.3152 17.76C13.1422 17.2782 12.9268 16.8132 12.6717 16.3706C12.4164 15.9251 12.1248 15.5022 11.8 15.1061C11.4618 14.6938 11.0649 14.3347 10.6226 14.0409C10.4202 13.9232 10.1995 13.8418 9.96999 13.8C9.72812 13.8407 9.49772 13.9339 9.29455 14.0733C8.87081 14.3648 8.48977 14.7156 8.16279 15.1154C7.83797 15.5114 7.5464 15.9344 7.29113 16.3798C7.03779 16.8234 6.82251 17.2883 6.64766 17.7693C6.38485 18.4863 6.28198 19.2535 6.34645 20.0156C6.4064 20.5649 6.36618 21.1207 6.2278 21.6552C6.08649 22.1774 5.77589 22.636 5.34613 22.9571C4.91638 23.278 4.39257 23.4427 3.85927 23.4244C3.55805 23.4117 3.26538 23.3191 3.01043 23.1558C2.74334 23.0126 2.51704 22.802 2.35326 22.5445C2.06804 22.0555 1.95052 21.4843 2.01905 20.9204C2.08758 20.3564 2.33831 19.8314 2.73204 19.4274C3.1273 19.1082 3.55947 18.8391 4.01899 18.6261C4.69967 18.3 5.30114 17.8256 5.78056 17.2367C6.10832 16.8418 6.40151 16.4188 6.65678 15.9722C6.90697 15.5276 7.12066 15.063 7.29569 14.5828C7.5596 13.866 7.66402 13.099 7.60146 12.3365C7.54883 11.9229 7.54883 11.5041 7.60146 11.0906C7.77032 10.2337 8.25406 8.95079 9.97915 8.95079C11.7042 8.95079 12.1606 10.192 12.3614 11.1184C12.4167 11.5318 12.4167 11.9508 12.3614 12.3642C12.2988 13.1267 12.4032 13.8938 12.6671 14.6106C12.8419 15.0916 13.0572 15.5565 13.3106 16C13.5656 16.4478 13.8604 16.8711 14.1913 17.2645C14.5475 17.6986 14.9697 18.0722 15.4418 18.3714C15.6394 18.4922 15.8577 18.5739 16.0853 18.6122C16.3343 18.5662 16.5716 18.4702 16.7835 18.3297C17.2274 18.036 17.6257 17.677 17.9655 17.2645C18.2884 16.8592 18.577 16.4269 18.8281 15.9722C19.0815 15.5287 19.2968 15.0638 19.4715 14.5828C19.7331 13.8655 19.8375 13.0989 19.7773 12.3365C19.7305 11.8736 19.7427 11.4066 19.8138 10.947C19.9781 10.1179 20.941 8.87668 22.2599 8.94615ZM30 21.085C30 22.3794 28.9661 23.4286 27.6908 23.4286C26.4154 23.4286 25.3816 22.3794 25.3816 21.085C25.3816 19.7907 26.4154 18.7414 27.6908 18.7414C28.9661 18.7414 30 19.7907 30 21.085Z" fill="url(#paint0_linear_1083_50505)"/>
  <defs>
    <linearGradient id="paint0_linear_1083_50505" x1="1.88333" y1="9.97803" x2="31.0498" y2="13.0814" gradientUnits="userSpaceOnUse">
      <stop stop-color="#F6384E"/>
      <stop offset="0.53125" stop-color="#FF9A06"/>
      <stop offset="0.979167" stop-color="#FFD706"/>
    </linearGradient>
  </defs>
<script xmlns=""/></svg>