<?xml version="1.0" encoding="UTF-8" standalone="no"?>
<svg
   id="Livello_2"
   data-name="Livello 2"
   viewBox="0 0 106 106"
   version="1.1"
   sodipodi:docname="Regolo_logo_black.svg"
   width="106"
   height="106"
   inkscape:version="1.4.2 (ebf0e940d0, 2025-05-08)"
   xmlns:inkscape="http://www.inkscape.org/namespaces/inkscape"
   xmlns:sodipodi="http://sodipodi.sourceforge.net/DTD/sodipodi-0.dtd"
   xmlns="http://www.w3.org/2000/svg"
   xmlns:svg="http://www.w3.org/2000/svg">
  <sodipodi:namedview
     id="namedview13"
     pagecolor="#505050"
     bordercolor="#ffffff"
     borderopacity="1"
     inkscape:showpageshadow="0"
     inkscape:pageopacity="0"
     inkscape:pagecheckerboard="1"
     inkscape:deskcolor="#505050"
     inkscape:zoom="5.6590909"
     inkscape:cx="63.967872"
     inkscape:cy="56.987952"
     inkscape:window-width="1920"
     inkscape:window-height="1011"
     inkscape:window-x="0"
     inkscape:window-y="0"
     inkscape:window-maximized="1"
     inkscape:current-layer="g13" />
  <defs
     id="defs1">
    <style
       id="style1">
      .cls-1 {
        fill: #303030;
      }
    </style>
  </defs>
  <g
     id="Grafica">
    <g
       id="g13">
      <path
         class="cls-1"
         d="m 105.27355,65.847554 v 36.180036 c 0,0.32 -0.05,0.62001 -0.14,0.91001 -0.39,1.27002 -1.58,2.20002 -2.99,2.20002 H 65.963535 c -1.73,0 -3.13,-1.41 -3.13,-3.13003 V 73.287554 c 0,-0.15 0,-0.29 0,-0.44 v -7 c 0,-1.73 1.4,-3.13 3.13,-3.13 h 36.190015 c 1.5,0 2.77,1.07 3.06,2.5 0.05,0.21 0.07,0.41 0.07,0.63 z"
         id="path1" />
      <path
         class="cls-1"
         d="m 105.27355,65.847554 v 36.180036 c 0,0.32 -0.05,0.62001 -0.14,0.91001 -0.39,1.27002 -1.58,2.20002 -2.99,2.20002 H 65.963535 c -1.73,0 -3.13,-1.41 -3.13,-3.13003 V 73.287554 c 0,-0.15 0,-0.29 0,-0.44 v -7 c 0,-1.73 1.4,-3.13 3.13,-3.13 h 36.190015 c 1.5,0 2.77,1.07 3.06,2.5 0.05,0.21 0.07,0.41 0.07,0.63 z"
         id="path2" />
      <path
         class="cls-1"
         d="M 102.15355,0.76754993 H 65.973535 c -1.73,0 -3.13,1.40000007 -3.13,3.12999987 V 32.607554 c 0,4.71 -1.88,9.23 -5.2,12.56 l -12.34,12.33 c -3.32,3.33 -7.85,5.2 -12.55,5.2 h -12.89 c -2.21,0 -3.99,-1.79 -3.99,-3.99 v -11.53 c 0,-2.21 1.79,-3.99 3.99,-3.99 h 20.34 c 1.41,0 2.59,-0.93 2.99,-2.2 0.09,-0.29 0.14,-0.59 0.14,-0.91 V 3.8875498 c 0,-0.22 -0.02,-0.4199999 -0.07,-0.6299999 -0.29,-1.4299999 -1.56,-2.5 -3.06,-2.5 H 4.013534 c -1.73,0 -3.12999983,1.4000001 -3.12999983,3.1299999 v 7.0000012 c 0,0.15 0,0.29 0,0.44 v 28.720003 c 0,1.72 1.40999983,3.13 3.12999983,3.13 h 3.16 c 2.21,0 3.990001,1.79 3.990001,3.99 v 11.53 c 0,2.21 -1.790001,3.99 -3.990001,3.99 h -3.14 c -1.73,0 -3.12999983,1.4 -3.12999983,3.13 v 36.190036 c 0,1.72003 1.40999983,3.13003 3.12999983,3.13003 h 36.190001 c 1.73,0 3.13,-1.41 3.13,-3.13003 V 73.287554 c 0,-4.7 1.87,-9.23 5.2,-12.55 l 12.33,-12.34 c 3.33,-3.32 7.85,-5.2 12.56,-5.2 h 28.710015 c 1.73,0 3.13,-1.4 3.13,-3.13 V 3.8875498 c 0,-1.7299998 -1.4,-3.1299999 -3.13,-3.1299999 z"
         id="path3" />
    </g>
  </g>
</svg>
