<svg xmlns="http://www.w3.org/2000/svg" viewBox="23.17 23.5 19.18 28.6"><style>.st79{fill:#64c0ff}</style><g id="Layer_4"><path d="M38.6 42.8v2.8c0 1.6-1.3 2.8-2.8 2.8h-6.1c-1.6 0-2.8-1.3-2.8-2.8V30c0-1.6 1.3-2.8 2.8-2.8h6.1c1.6 0 2.8 1.3 2.8 2.8v.4c.5-.2 1.1-.3 1.7-.3.7 0 1.4.1 2 .4V30c0-3.6-2.9-6.5-6.5-6.5h-6.1c-3.6 0-6.5 2.9-6.5 6.5v15.6c0 3.6 2.9 6.5 6.5 6.5h6.1c3.6 0 6.5-2.9 6.5-6.5v-7.1z" class="st79"/><path d="m35.6 41.9 6.6-7.6c.2-.2.2-.6-.1-.8-1.2-1-2.9-.9-3.9.3l-4.1 4.7c-.1.1-.3.1-.3 0l-1.5-1.9c-.3-.4-.8-.4-1.2 0-1 1-1 2.6-.1 3.7l1.2 1.5c.8 1.2 2.5 1.2 3.4.1" class="st79"/></g></svg>