<svg version="1.1" xmlns="http://www.w3.org/2000/svg" xmlns:xlink="http://www.w3.org/1999/xlink" x="0px" y="0px" style="enable-background:new 0 0 292.6 75.6;" xml:space="preserve" viewBox="23.17 23.5 19.18 28.6">
  <style type="text/css">
    .st79 {
      fill: #64C0FF;
    }
  </style>
  <g id="Layer_4">
    <g>
      <path class="st79" d="M38.6,42.8v2.8c0,1.6-1.3,2.8-2.8,2.8h-6.1c-1.6,0-2.8-1.3-2.8-2.8V30c0-1.6,1.3-2.8,2.8-2.8h6.1    c1.6,0,2.8,1.3,2.8,2.8v0.4c0.5-0.2,1.1-0.3,1.7-0.3c0.7,0,1.4,0.1,2,0.4V30c0-3.6-2.9-6.5-6.5-6.5h-6.1c-3.6,0-6.5,2.9-6.5,6.5    v15.6c0,3.6,2.9,6.5,6.5,6.5h6.1c3.6,0,6.5-2.9,6.5-6.5v-7.1L38.6,42.8z"/>
      <path class="st79" d="M35.6,41.9l6.6-7.6c0.2-0.2,0.2-0.6-0.1-0.8l0,0c-1.2-1-2.9-0.9-3.9,0.3l-4.1,4.7c-0.1,0.1-0.3,0.1-0.3,0    l-1.5-1.9c-0.3-0.4-0.8-0.4-1.2,0h0c-1,1-1,2.6-0.1,3.7l1.2,1.5C33,43,34.7,43,35.6,41.9z"/>
    </g>
  </g>
</svg>