<?xml version="1.0" encoding="UTF-8"?>
<svg width="256px" height="296px" viewBox="0 0 256 296" version="1.1" xmlns="http://www.w3.org/2000/svg" xmlns:xlink="http://www.w3.org/1999/xlink" preserveAspectRatio="xMidYMid">
    <title>qdrant</title>
    <defs>
        <linearGradient x1="81.5619048%" y1="44.8421053%" x2="-18.0857143%" y2="44.8421053%" id="linearGradient-1">
            <stop stop-color="#FF3364" offset="0%"></stop>
            <stop stop-color="#C91540" stop-opacity="0" offset="100%"></stop>
        </linearGradient>
    </defs>
    <g>
        <polygon fill="#24386C" points="201.31705 271.722427 195.422715 109.21267 184.747781 66.3682368 256 73.9112545 256 270.492509 212.474757 295.612626"></polygon>
        <polygon fill="#7589BE" points="255.995151 73.8998107 212.469908 99.037384 122.649634 79.3346471 17.5160008 122.140288 1.1370484e-14 73.8998107 63.9883137 36.9499053 127.996024 0 191.986277 36.9499053"></polygon>
        <polyline fill="#B2BFE8" points="0.00310340412 73.8998107 43.5283462 99.037384 68.7590217 174.073816 153.949405 242.236209 128.001067 295.599243 63.9933568 258.647398 0.00310340412 221.697492 0.00310340412 73.897871"></polyline>
        <polyline fill="#24386C" points="156.856906 202.807459 128.001067 245.347371 128.001067 295.603122 168.946605 271.978458 190.043934 240.475027"></polyline>
        <polygon fill="#7589BE" points="128.018523 195.107138 87.0555287 124.184656 95.8787005 100.678309 129.42068 84.4156955 168.946411 124.185819"></polygon>
        <polyline fill="#B2BFE8" points="87.0555287 124.178837 128.001067 147.803501 128.001067 195.091621 90.131778 196.720927 67.2247763 167.471344 87.0555287 124.178856"></polyline>
        <polygon fill="#24386C" points="128.001067 147.799621 168.946605 124.176897 196.813234 170.576668 163.090869 198.439418 128.001067 195.089293"></polygon>
        <path d="M168.946605,271.974579 L212.471848,295.601182 L212.471848,99.0393237 L170.226759,74.658205 L128.001067,50.2770864 L85.7559782,74.658205 L43.5302858,99.0393237 L43.5302858,196.581255 L85.7559782,220.962373 L128.001067,245.345432 L168.946605,221.699432 L168.946605,271.974579 Z M168.946605,171.443681 L128.001067,195.087742 L87.0555287,171.443681 L87.0555287,124.174957 L128.001067,100.530897 L168.946605,124.174957 L168.946605,171.443681" fill="#DC244C"></path>
        <polygon fill="url(#linearGradient-1)" points="128.018523 245.362888 128.018523 195.099379 87.2863443 171.657041 87.2863443 221.837146"></polygon>
    </g>
</svg>
