<svg width="60" height="40" viewBox="0 0 1292 330" fill="none" xmlns="http://www.w3.org/2000/svg">
<path d="M134.432 187.529V320.205C134.432 327.712 126.286 332.408 119.769 328.671L81.0491 306.308C78.0141 304.551 76.1612 301.324 76.1612 297.842V231.392C76.1612 223.821 67.9189 219.125 61.4018 222.99L14.7594 250.752C8.24228 254.618 0 249.922 0 242.35V121.176C0 113.668 8.14644 108.972 14.6636 112.71L129.576 179.064C132.579 180.821 134.432 184.047 134.432 187.529Z" fill="#1D1D1B"/>
<path d="M134.432 187.529V320.205C134.432 327.712 126.286 332.408 119.769 328.671L81.0491 306.308C78.0141 304.551 76.1612 301.324 76.1612 297.842V231.392C76.1612 223.821 67.9189 219.125 61.4018 222.99L14.7594 250.752C8.24228 254.618 0 249.922 0 242.35V121.176C0 113.668 8.14644 108.972 14.6636 112.71L129.576 179.064C132.579 180.821 134.432 184.047 134.432 187.529Z" fill="#1D1D1B"/>
<path d="M273.752 78.8784L158.839 145.264C155.804 147.021 152.099 147.021 149.064 145.264L34.1828 78.8784C27.6656 75.1087 27.6656 65.7163 34.1828 61.9786L71.8161 40.2867C74.7872 38.5615 78.4611 38.5296 81.4641 40.2228L139.416 72.7127C145.933 76.3546 153.951 71.6584 153.951 64.1829V9.77746C153.951 2.26996 162.098 -2.42622 168.583 1.31156L273.752 61.9786C280.269 65.7483 280.269 75.1407 273.752 78.8784Z" fill="#1D1D1B"/>
<path d="M273.752 78.8784L158.839 145.264C155.804 147.021 152.099 147.021 149.064 145.264L34.1828 78.8784C27.6656 75.1087 27.6656 65.7163 34.1828 61.9786L71.8161 40.2867C74.7872 38.5615 78.4611 38.5296 81.4641 40.2228L139.416 72.7127C145.933 76.3546 153.951 71.6584 153.951 64.1829V9.77746C153.951 2.26996 162.098 -2.42622 168.583 1.31156L273.752 61.9786C280.269 65.7483 280.269 75.1407 273.752 78.8784Z" fill="#1D1D1B"/>
<path d="M303.048 174.335L245.48 207.592C238.931 211.394 238.995 220.85 245.576 224.556L292.953 251.136C299.566 254.841 299.63 264.33 293.049 268.099L188.136 328.67C181.618 332.44 173.504 327.744 173.504 320.205V187.529C173.504 184.047 175.357 180.821 178.392 179.064L293.304 112.71C299.822 108.94 307.968 113.636 307.968 121.176V165.869C307.936 169.352 306.083 172.578 303.048 174.335Z" fill="#1D1D1B"/>
<path d="M303.048 174.335L245.48 207.592C238.931 211.394 238.995 220.85 245.576 224.556L292.953 251.136C299.566 254.841 299.63 264.33 293.049 268.099L188.136 328.67C181.618 332.44 173.504 327.744 173.504 320.205V187.529C173.504 184.047 175.357 180.821 178.392 179.064L293.304 112.71C299.822 108.94 307.968 113.636 307.968 121.176V165.869C307.936 169.352 306.083 172.578 303.048 174.335Z" fill="#1D1D1B"/>
<path d="M134.432 187.529V320.205C134.432 327.712 126.286 332.408 119.769 328.671L81.0491 306.308C78.0141 304.551 76.1612 301.324 76.1612 297.842V231.392C76.1612 223.821 67.9189 219.125 61.4018 222.99L14.7594 250.752C8.24228 254.618 0 249.922 0 242.35V121.176C0 113.668 8.14644 108.972 14.6636 112.71L129.576 179.064C132.579 180.821 134.432 184.047 134.432 187.529Z" fill="url(#paint0_linear_8977_1618)"/>
<path d="M134.432 187.529V320.205C134.432 327.712 126.286 332.408 119.769 328.671L81.0491 306.308C78.0141 304.551 76.1612 301.324 76.1612 297.842V231.392C76.1612 223.821 67.9189 219.125 61.4018 222.99L14.7594 250.752C8.24228 254.618 0 249.922 0 242.35V121.176C0 113.668 8.14644 108.972 14.6636 112.71L129.576 179.064C132.579 180.821 134.432 184.047 134.432 187.529Z" fill="url(#paint1_linear_8977_1618)"/>
<path d="M273.752 78.8784L158.839 145.264C155.804 147.021 152.099 147.021 149.064 145.264L34.1828 78.8784C27.6656 75.1087 27.6656 65.7163 34.1828 61.9786L71.8161 40.2867C74.7872 38.5615 78.4611 38.5296 81.4641 40.2228L139.416 72.7127C145.933 76.3546 153.951 71.6584 153.951 64.1829V9.77746C153.951 2.26996 162.098 -2.42622 168.583 1.31156L273.752 61.9786C280.269 65.7483 280.269 75.1407 273.752 78.8784Z" fill="url(#paint2_linear_8977_1618)"/>
<path d="M273.752 78.8784L158.839 145.264C155.804 147.021 152.099 147.021 149.064 145.264L34.1828 78.8784C27.6656 75.1087 27.6656 65.7163 34.1828 61.9786L71.8161 40.2867C74.7872 38.5615 78.4611 38.5296 81.4641 40.2228L139.416 72.7127C145.933 76.3546 153.951 71.6584 153.951 64.1829V9.77746C153.951 2.26996 162.098 -2.42622 168.583 1.31156L273.752 61.9786C280.269 65.7483 280.269 75.1407 273.752 78.8784Z" fill="url(#paint3_linear_8977_1618)"/>
<path d="M303.048 174.335L245.48 207.592C238.931 211.394 238.995 220.85 245.576 224.556L292.953 251.136C299.566 254.841 299.63 264.33 293.049 268.099L188.136 328.67C181.618 332.44 173.504 327.744 173.504 320.205V187.529C173.504 184.047 175.357 180.821 178.392 179.064L293.304 112.71C299.822 108.94 307.968 113.636 307.968 121.176V165.869C307.936 169.352 306.083 172.578 303.048 174.335Z" fill="url(#paint4_linear_8977_1618)"/>
<path d="M303.048 174.335L245.48 207.592C238.931 211.394 238.995 220.85 245.576 224.556L292.953 251.136C299.566 254.841 299.63 264.33 293.049 268.099L188.136 328.67C181.618 332.44 173.504 327.744 173.504 320.205V187.529C173.504 184.047 175.357 180.821 178.392 179.064L293.304 112.71C299.822 108.94 307.968 113.636 307.968 121.176V165.869C307.936 169.352 306.083 172.578 303.048 174.335Z" fill="url(#paint5_linear_8977_1618)"/>
<path d="M570.178 197.147C567.388 208.24 563.013 218.126 557.055 226.88C551.096 235.633 544.006 243.104 535.635 249.217C527.263 255.329 517.986 260.008 507.728 263.253C497.471 266.498 486.534 268.082 474.844 268.082C459.985 268.082 446.258 265.517 433.663 260.385C421.067 255.254 410.282 248.16 401.08 239.105C391.954 230.049 384.789 219.182 379.66 206.505C374.531 193.827 371.967 180.093 371.967 165.151C371.967 150.209 374.531 136.249 379.66 123.647C384.789 111.12 391.878 100.253 401.08 91.0466C410.206 81.9156 421.067 74.7466 433.663 69.6152C446.183 64.4837 459.91 61.918 474.844 61.918C486.308 61.918 497.018 63.5027 507.125 66.5967C517.156 69.6906 526.282 74.2184 534.579 80.029C542.8 85.8397 549.889 92.9332 555.848 101.159C561.806 109.384 566.256 118.741 569.273 129.231H548.758C542.951 113.987 533.523 101.989 520.55 93.3105C507.577 84.6323 492.342 80.3309 474.844 80.3309C462.776 80.3309 451.764 82.4438 441.658 86.6698C431.626 90.8957 422.877 96.7818 415.41 104.328C407.944 111.874 402.211 120.854 398.063 131.193C393.915 141.531 391.878 152.851 391.878 165.151C391.878 177.451 393.915 188.695 398.063 199.109C402.211 209.448 407.944 218.352 415.41 225.823C422.877 233.294 431.551 239.105 441.658 243.331C451.689 247.556 462.776 249.669 474.844 249.669C492.719 249.669 508.331 245.066 521.681 235.784C535.031 226.578 544.534 213.674 550.191 197.147H570.103H570.178Z" fill="#535353"/>
<path d="M596.699 88.6147C595.111 87.9362 593.674 86.9562 592.464 85.75C591.254 84.5437 590.271 83.1114 589.59 81.5282C588.909 79.945 588.531 78.1357 588.531 76.1002C588.531 74.0647 588.909 72.2554 589.59 70.6722C590.271 69.0891 591.254 67.6567 592.464 66.4505C593.674 65.2443 595.111 64.2642 596.851 63.5857C598.59 62.9072 600.405 62.5303 602.447 62.5303C604.489 62.5303 606.304 62.9072 607.893 63.5857C609.481 64.2642 610.918 65.2443 612.128 66.4505C613.338 67.6567 614.321 69.0891 615.002 70.823C615.682 72.557 616.061 74.2909 616.061 76.1002C616.061 78.1357 615.682 79.945 615.002 81.5282C614.321 83.1114 613.338 84.5437 612.128 85.75C610.918 86.9562 609.481 87.9362 607.741 88.6147C606.002 89.2932 604.187 89.6702 602.145 89.6702C600.103 89.6702 598.288 89.2932 596.699 88.6147ZM592.842 265.024V123.67H611.598V264.949H592.842V265.024Z" fill="#535353"/>
<path d="M766.784 237.807C760.967 246.889 752.96 254.231 742.762 259.756C732.564 265.281 721.006 268.082 707.862 268.082C697.814 268.082 688.372 266.19 679.609 262.33C670.846 258.47 663.292 253.323 656.795 246.738C650.374 240.153 645.313 232.357 641.687 223.274C638.061 214.192 636.248 204.352 636.248 193.604C636.248 182.857 638.061 173.396 641.687 164.389C645.313 155.382 650.374 147.586 656.795 140.925C663.216 134.265 670.846 129.118 679.609 125.485C688.372 121.852 697.739 120.035 707.862 120.035C720.704 120.035 732.262 122.684 742.46 128.058C752.582 133.432 760.741 140.698 766.784 150.008L767.388 123.063H785.518V264.903H767.388L766.784 237.655V237.807ZM732.639 246.586C739.665 243.559 745.783 239.472 750.92 234.325C756.057 229.178 760.061 223.123 762.856 216.16C765.651 209.196 767.086 201.703 767.086 193.604C767.086 185.506 765.651 178.391 762.856 171.503C760.061 164.616 756.057 158.636 750.92 153.489C745.783 148.343 739.665 144.331 732.639 141.379C725.614 138.427 718.06 136.989 709.977 136.989C701.894 136.989 694.566 138.427 687.767 141.228C681.044 144.028 675.303 148.04 670.544 153.187C665.785 158.334 662.008 164.313 659.213 171.201C656.418 178.088 654.982 185.506 654.982 193.604C654.982 201.703 656.418 209.499 659.213 216.462C662.008 223.426 665.785 229.481 670.544 234.628C675.303 239.774 680.969 243.786 687.767 246.738C694.491 249.69 701.894 251.128 709.977 251.128C718.06 251.128 725.538 249.614 732.639 246.586Z" fill="#535353"/>
<path d="M822.836 265.023V123.064H840.24L841.14 153.348C845.116 142.673 851.492 134.42 860.344 128.666C869.121 122.912 879.248 120.035 890.651 120.035C892.676 120.035 894.552 120.111 896.352 120.338C898.153 120.565 899.953 120.868 901.753 121.247V138.509C900.328 138.13 898.828 137.827 897.252 137.752C895.677 137.676 894.177 137.6 892.751 137.6C884.95 137.6 877.898 139.039 871.447 141.992C864.995 144.944 859.669 148.957 855.243 154.105C850.817 159.254 847.441 165.386 845.041 172.428C842.64 179.469 841.44 187.191 841.44 195.444V265.023H822.836Z" fill="#535353"/>
<path d="M1031.75 237.807C1025.96 246.889 1017.99 254.231 1007.83 259.756C997.675 265.281 986.164 268.082 973.074 268.082C963.068 268.082 953.664 266.19 944.937 262.33C936.21 258.47 928.687 253.323 922.217 246.738C915.822 240.153 910.782 232.357 907.171 223.274C903.559 214.192 901.754 204.352 901.754 193.604C901.754 182.857 903.559 173.396 907.171 164.389C910.782 155.382 915.822 147.586 922.217 140.925C928.612 134.265 936.21 129.118 944.937 125.485C953.664 121.852 962.993 120.035 973.074 120.035C985.863 120.035 997.374 122.684 1007.53 128.058C1017.61 133.432 1025.74 140.698 1031.75 150.008L1032.36 123.063H1050.41V264.903H1032.36L1031.75 237.655V237.807ZM997.75 246.586C1004.75 243.559 1010.84 239.472 1015.96 234.325C1021.07 229.178 1025.06 223.123 1027.84 216.16C1030.63 209.196 1032.06 201.703 1032.06 193.604C1032.06 185.506 1030.63 178.391 1027.84 171.503C1025.06 164.616 1021.07 158.636 1015.96 153.489C1010.84 148.343 1004.75 144.331 997.75 141.379C990.753 138.427 983.23 136.989 975.18 136.989C967.131 136.989 959.833 138.427 953.062 141.228C946.367 144.028 940.649 148.04 935.909 153.187C931.17 158.334 927.408 164.313 924.624 171.201C921.841 178.088 920.411 185.506 920.411 193.604C920.411 201.703 921.841 209.499 924.624 216.462C927.408 223.426 931.17 229.481 935.909 234.628C940.649 239.774 946.291 243.786 953.062 246.738C959.758 249.69 967.131 251.128 975.18 251.128C983.23 251.128 990.678 249.614 997.75 246.586Z" fill="#535353"/>
<path d="M1150.2 64.9766H1172.16L1257.8 265.023H1237.35L1215.39 213.162L1220.51 216.484H1101.48L1106.59 213.162L1084.94 265.023H1064.48L1150.2 64.9766ZM1108.17 199.8H1214.27L1212.16 203.122L1159.6 82.7166H1162.61L1110.35 203.122L1108.25 199.8H1108.17Z" fill="url(#paint6_linear_8977_1618)"/>
<path d="M1273.09 265.023L1273.24 64.9766H1291.45L1291.3 265.023H1273.09Z" fill="url(#paint7_linear_8977_1618)"/>
<defs>
<linearGradient id="paint0_linear_8977_1618" x1="228.422" y1="325.4" x2="79.4092" y2="37.9341" gradientUnits="userSpaceOnUse">
<stop stop-color="#7D51B7"/>
<stop offset="1" stop-color="#F29AA8"/>
</linearGradient>
<linearGradient id="paint1_linear_8977_1618" x1="228.422" y1="325.4" x2="79.4092" y2="37.9341" gradientUnits="userSpaceOnUse">
<stop stop-color="#7D51B7"/>
<stop offset="1" stop-color="#F29AA8"/>
</linearGradient>
<linearGradient id="paint2_linear_8977_1618" x1="228.422" y1="325.4" x2="79.4089" y2="37.9342" gradientUnits="userSpaceOnUse">
<stop stop-color="#7D51B7"/>
<stop offset="1" stop-color="#F29AA8"/>
</linearGradient>
<linearGradient id="paint3_linear_8977_1618" x1="228.422" y1="325.4" x2="79.4089" y2="37.9342" gradientUnits="userSpaceOnUse">
<stop stop-color="#7D51B7"/>
<stop offset="1" stop-color="#F29AA8"/>
</linearGradient>
<linearGradient id="paint4_linear_8977_1618" x1="228.423" y1="325.4" x2="79.4099" y2="37.9341" gradientUnits="userSpaceOnUse">
<stop stop-color="#7D51B7"/>
<stop offset="1" stop-color="#F29AA8"/>
</linearGradient>
<linearGradient id="paint5_linear_8977_1618" x1="228.423" y1="325.4" x2="79.4099" y2="37.9341" gradientUnits="userSpaceOnUse">
<stop stop-color="#7D51B7"/>
<stop offset="1" stop-color="#F29AA8"/>
</linearGradient>
<linearGradient id="paint6_linear_8977_1618" x1="1064.56" y1="165" x2="1257.8" y2="165" gradientUnits="userSpaceOnUse">
<stop stop-color="#F29AA8"/>
<stop offset="0.61" stop-color="#7D51B7"/>
<stop offset="1" stop-color="#F29AA8"/>
</linearGradient>
<linearGradient id="paint7_linear_8977_1618" x1="1326.61" y1="244.013" x2="1234.01" y2="88.2402" gradientUnits="userSpaceOnUse">
<stop stop-color="#F29AA8"/>
<stop offset="0.61" stop-color="#7D51B7"/>
</linearGradient>
</defs>
</svg>
