
        <svg xmlns="http://www.w3.org/2000/svg" xmlns:xlink="http://www.w3.org/1999/xlink" version="1.1" width="100"
        height="30" viewBox="0 0 3162.1621621621625 810.3081368111276">
			
			<g transform="scale(8.108108108108109) translate(10, 10)">
				<defs id="SvgjsDefs2828">
				</defs>
				<g id="SvgjsG2829" featureKey="7KWit6-0" transform="matrix(1,0,0,1,0,0.000003814697265625)" fill="#004aac">
				<path xmlns="http://www.w3.org/2000/svg" d="M80,40c-2.586,0-5.055,0.496-7.324,1.39l-8.038-8.038c3.178-3.541,5.113-8.22,5.113-13.352c0-11.046-8.954-20-20-20  s-20,8.954-20,20c0,5.068,1.889,9.693,4.997,13.218l-7.964,7.964C24.665,40.418,22.381,40,20,40C8.954,40,0,48.954,0,60  s8.954,19.938,20,19.938c10.155,0,18.537-7.438,19.823-17.438h20.354c1.286,10,9.668,17.438,19.823,17.438  c11.046,0,20-8.923,20-19.969S91.046,40,80,40z M49.75,5c8.271,0,15,6.729,15,15s-6.729,15-15,15s-15-6.729-15-15S41.479,5,49.75,5z   M38.5,36.536C41.705,38.721,45.578,40,49.75,40c4.108,0,7.925-1.24,11.101-3.364l7.273,7.21C63.797,47.046,60.81,52.5,60.145,57.5  h-20.29c-0.687-6-3.855-10.778-8.417-13.965L38.5,36.536z M20,75c-8.271,0-15-6.729-15-15s6.729-15,15-15s15,6.729,15,15  S28.271,75,20,75z M80,75c-8.271,0-15-6.729-15-15s6.729-15,15-15s15,6.729,15,15S88.271,75,80,75z"></path></g><g id="SvgjsG2830" featureKey="ewgXDI-0" transform="matrix(3.608544700836469,0,0,3.608544700836469,116.31928533431844,-7.146067266629803)" fill="#2d4059">
				<path d="M7.7 9.44 c0.28 0 0.56 0 0.82 0.06 l0 3.02 c-0.24 -0.06 -0.52 -0.06 -0.72 -0.06 c-1.92 0 -3.46 1.38 -3.62 3.3 l0 4.24 l-3.16 0 l0 -10.4 l3.16 0 l0 2.54 c0.48 -1.56 1.68 -2.7 3.52 -2.7 z M15.3 9.42 c2.36 0 5.66 1.78 5 6.48 l-7.26 0 c0.36 1.08 1.3 1.64 2.56 1.64 c1.28 0 1.68 -0.28 2.4 -0.58 l1.74 1.68 c-0.92 0.9 -2.16 1.56 -4.26 1.56 c-2.58 0 -5.66 -1.78 -5.66 -5.36 c0 -3.64 3.12 -5.42 5.48 -5.42 z M15.3 12.120000000000001 c-0.9 0 -1.82 0.52 -2.22 1.56 l4.42 0 c-0.32 -1.04 -1.3 -1.56 -2.2 -1.56 z M36 9.44 c2.22 0 4.18 1.44 4.18 4.96 l0 5.6 l-3.16 0 l0 -5.5 c0 -1.32 -0.56 -2.32 -2.02 -2.32 c-1.22 0 -2.04 1.08 -2.28 2.04 l0 5.78 l-3.16 0 l0 -5.5 c0 -1.32 -0.82 -2.32 -2.02 -2.32 c-1.3 0 -2.08 0.88 -2.28 2.04 l0 5.78 l-3.16 0 l0 -10.4 l3.16 0 l0 1.9 c0.04 -0.48 1.06 -2.06 3.1 -2.06 c1.5 0 2.94 0.8 3.8 2.26 c0.24 -0.56 1.44 -2.26 3.84 -2.26 z M47.26 9.42 c2.36 0 5.48 1.78 5.48 5.42 c0 3.66 -3.12 5.36 -5.48 5.36 s-5.48 -1.7 -5.48 -5.36 c0 -3.64 3.12 -5.42 5.48 -5.42 z M47.26 12.2 c-1.2 0 -2.42 0.92 -2.42 2.64 c0 1.66 1.22 2.58 2.42 2.58 s2.44 -0.92 2.44 -2.58 c0 -1.72 -1.24 -2.64 -2.44 -2.64 z M61.94 5.859999999999999 l3.16 0 l0 5.08 l0 9.06 l-3.16 0 l0 -1.04 c-0.14 0.36 -1.08 1.24 -2.68 1.24 c-2.38 0 -5.12 -1.7 -5.12 -5.42 c0 -3.58 2.74 -5.36 5.12 -5.36 c1.6 0 2.54 0.92 2.68 1.14 l0 -4.7 z M59.72 17.42 c1.3 0 2.36 -0.9 2.36 -2.64 c0 -1.68 -1.06 -2.58 -2.36 -2.58 c-1.36 0 -2.52 0.92 -2.52 2.58 c0 1.72 1.16 2.64 2.52 2.64 z M70.30000000000001 5.859999999999999 l0 14.14 l-3.16 0 l0 -14.14 l3.16 0 z"></path></g>
			</g>
		</svg>
	