<svg width="246" height="246" viewBox="0 0 246 246" fill="none" xmlns="http://www.w3.org/2000/svg">
<path d="M173.7 0H71.84C32.1639 0 0 32.1639 0 71.84V173.7C0 213.376 32.1639 245.54 71.84 245.54H173.7C213.376 245.54 245.54 213.376 245.54 173.7V71.84C245.54 32.1639 213.376 0 173.7 0Z" fill="url(#paint0_linear_673_1662)"/>
<path d="M122.87 135H66C63.2386 135 61 137.239 61 140V196.87C61 199.631 63.2386 201.87 66 201.87H122.87C125.631 201.87 127.87 199.631 127.87 196.87V140C127.87 137.239 125.631 135 122.87 135Z" fill="white"/>
<path d="M154.45 53.26H133.23C131.904 53.26 130.632 53.7869 129.694 54.7246C128.757 55.6623 128.23 56.9339 128.23 58.26V129.57C128.23 130.896 128.757 132.168 129.694 133.105C130.632 134.043 131.904 134.57 133.23 134.57H154.45C159.789 134.57 165.076 133.518 170.008 131.475C174.941 129.431 179.423 126.436 183.197 122.66C186.972 118.885 189.966 114.402 192.009 109.469C194.051 104.536 195.101 99.2492 195.1 93.9102C195.1 83.1291 190.817 72.7896 183.194 65.1663C175.571 57.5429 165.231 53.26 154.45 53.26Z" fill="white"/>
<path d="M61.37 62.1501V125.68C61.3712 126.566 61.6078 127.436 62.0556 128.2C62.5034 128.965 63.1462 129.596 63.9184 130.031C64.6906 130.465 65.5643 130.687 66.4501 130.673C67.336 130.658 68.2022 130.409 68.96 129.95L121.21 98.1898C121.945 97.7442 122.552 97.1166 122.974 96.3678C123.395 95.619 123.617 94.7743 123.617 93.9149C123.617 93.0556 123.395 92.2109 122.974 91.4621C122.552 90.7132 121.945 90.0857 121.21 89.64L68.96 57.88C68.2022 57.4211 67.336 57.1716 66.4501 57.1574C65.5643 57.1432 64.6906 57.3648 63.9184 57.7992C63.1462 58.2336 62.5034 58.8653 62.0556 59.6298C61.6078 60.3943 61.3712 61.2641 61.37 62.1501Z" fill="white"/>
<defs>
<linearGradient id="paint0_linear_673_1662" x1="8.22" y1="17.17" x2="225.02" y2="217.03" gradientUnits="userSpaceOnUse">
<stop offset="0.05" stop-color="#09EEFF"/>
<stop offset="0.88" stop-color="#8123FF"/>
</linearGradient>
</defs>
</svg>
