<svg width="72" height="77" viewBox="0 0 72 77" fill="none" xmlns="http://www.w3.org/2000/svg">
<path d="M72 18.7213C72 23.5 70.3018 27.6322 66.9056 31.1179C63.5095 34.5473 58.5564 37.0211 52.0471 38.5389C55.5567 39.4946 58.2167 41.0687 60.0284 43.2614C61.8398 45.3979 62.7453 47.8712 62.7453 50.6823C62.7453 55.1237 61.3303 58.9751 58.5 62.2356C55.7265 65.4963 51.6511 68.0261 46.2737 69.8253C40.8962 71.5681 34.415 72.4397 26.8302 72.4397C24 72.4397 21.7359 72.3553 20.0377 72.1866C19.9811 73.7605 19.3019 74.9412 18 75.7284C16.6981 76.5156 15.0283 76.9091 12.9906 76.9091C10.9528 76.9091 9.53774 76.4593 8.74529 75.5597C8.00945 74.6604 7.69809 73.339 7.81133 71.5964C8.32074 63.7254 9.31131 55.4892 10.783 46.8875C12.2547 38.2298 14.1227 29.8809 16.3868 21.8415C16.783 20.436 17.5755 19.4521 18.7641 18.89C19.9528 18.3278 21.5095 18.0466 23.434 18.0466C26.8868 18.0466 28.6133 19.0024 28.6133 20.9139C28.6133 21.701 28.4435 22.6005 28.1038 23.6124C26.6321 27.9976 25.1603 33.9569 23.6887 41.4905C22.217 48.9675 21.1698 56.1079 20.5472 62.9104C23.2641 63.1349 25.4716 63.2476 27.1698 63.2476C35.0943 63.2476 40.8962 62.1229 44.5754 59.8745C48.3113 57.5692 50.1793 54.6459 50.1793 51.1041C50.1793 48.6304 49.104 46.5503 46.9529 44.8636C44.8587 43.177 41.3208 42.2494 36.3396 42.0807C35.2075 42.0246 34.415 41.7435 33.9622 41.2374C33.5093 40.7316 33.2831 39.9163 33.2831 38.792C33.2831 37.1615 33.6228 35.8404 34.3018 34.8284C34.9811 33.8164 36.2264 33.2823 38.0378 33.226C42.0567 33.1136 45.6793 32.5234 48.9056 31.4551C52.1886 30.387 54.7642 28.8972 56.632 26.9857C58.5 25.018 59.434 22.741 59.434 20.1549C59.434 16.8941 57.8207 14.3361 54.5944 12.4809C51.368 10.5694 46.4149 9.61364 39.7358 9.61364C33.6791 9.61364 27.8208 10.4007 22.1604 11.9749C16.5 13.4928 11.6887 15.4324 7.72642 17.7937C5.91507 18.8618 4.38679 19.3959 3.14151 19.3959C2.12264 19.3959 1.33019 19.0586 0.764151 18.384C0.254716 17.6531 0 16.7536 0 15.6854C0 14.2799 0.28302 13.0712 0.849056 12.0592C1.4717 11.0472 2.91511 9.89475 5.17923 8.60169C9.93396 5.90312 15.5094 3.79487 21.9057 2.27691C28.302 0.758971 34.8396 0 41.5189 0C51.764 0 59.4055 1.71472 64.4435 5.14415C69.4812 8.57355 72 13.0993 72 18.7213Z" fill="url(#paint0_linear_662_30)"/>
<defs>
<linearGradient id="paint0_linear_662_30" x1="74.4224" y1="38.4545" x2="-26.4624" y2="77.6875" gradientUnits="userSpaceOnUse">
<stop stop-color="#C377FF"/>
<stop offset="1" stop-color="#0072DD"/>
</linearGradient>
</defs>
</svg>
