<svg width="29" height="31" viewBox="0 0 29 31" fill="none" xmlns="http://www.w3.org/2000/svg">
<path d="M29 7.54605C29 9.47222 28.316 11.1378 26.9481 12.5428C25.5802 13.9251 23.5852 14.9222 20.9634 15.534C22.377 15.9192 23.4484 16.5537 24.1781 17.4375C24.9077 18.2987 25.2724 19.2956 25.2724 20.4287C25.2724 22.2189 24.7025 23.7713 23.5625 25.0855C22.4454 26.3998 20.8039 27.4195 18.638 28.1447C16.4721 28.8472 13.8616 29.1985 10.8066 29.1985C9.66666 29.1985 8.75472 29.1645 8.07075 29.0965C8.04796 29.7309 7.77438 30.2068 7.25 30.5241C6.72562 30.8414 6.05307 31 5.23231 31C4.41156 31 3.84159 30.8187 3.52241 30.4561C3.22603 30.0936 3.10062 29.561 3.14623 28.8586C3.35141 25.686 3.75039 22.3662 4.34316 18.8991C4.93593 15.4094 5.68829 12.0442 6.60024 8.80373C6.75982 8.23721 7.07901 7.84064 7.55778 7.61404C8.03656 7.38743 8.66353 7.27412 9.43868 7.27412C10.8294 7.27412 11.5248 7.65936 11.5248 8.42983C11.5248 8.74708 11.4564 9.10965 11.3196 9.51754C10.7268 11.2851 10.134 13.6871 9.54127 16.7237C8.9485 19.7375 8.52674 22.6156 8.27594 25.3575C9.37028 25.448 10.2594 25.4934 10.9434 25.4934C14.1352 25.4934 16.4721 25.0401 17.954 24.1338C19.4587 23.2046 20.2111 22.0263 20.2111 20.5987C20.2111 19.6016 19.778 18.7632 18.9116 18.0833C18.0681 17.4035 16.6431 17.0296 14.6368 16.9616C14.1808 16.939 13.8616 16.8257 13.6792 16.6217C13.4968 16.4178 13.4057 16.0892 13.4057 15.636C13.4057 14.9788 13.5425 14.4463 13.816 14.0384C14.0896 13.6305 14.5912 13.4152 15.3208 13.3925C16.9395 13.3472 18.3986 13.1093 19.6981 12.6787C21.0204 12.2482 22.0578 11.6477 22.8101 10.8772C23.5625 10.0841 23.9387 9.1663 23.9387 8.1239C23.9387 6.80958 23.2889 5.77851 21.9894 5.0307C20.6899 4.26024 18.6949 3.875 16.0047 3.875C13.5652 3.875 11.2056 4.19226 8.92571 4.82676C6.64584 5.4386 4.70793 6.2204 3.11203 7.17215C2.38246 7.6027 1.7669 7.81798 1.26533 7.81798C0.854953 7.81798 0.53577 7.68202 0.307783 7.41009C0.102594 7.1155 0 6.75292 0 6.32237C0 5.75585 0.113994 5.26864 0.341981 4.86075C0.592768 4.45285 1.17414 3.98831 2.08608 3.46711C4.00118 2.37939 6.24685 1.52961 8.82311 0.917763C11.3994 0.305921 14.0326 0 16.7229 0C20.8494 0 23.9272 0.691156 25.9564 2.07347C27.9855 3.45577 29 5.27998 29 7.54605Z" fill="#ffffff"/>
</svg>
