<svg width="40" height="40" viewBox="0 0 40 40" fill="none" xmlns="http://www.w3.org/2000/svg">
<path d="M0.177723 15.809L39.7076 2.01121C39.763 1.993 39.8231 1.9971 39.8755 2.02264C39.9278 2.04818 39.968 2.09313 39.9876 2.1479C39.9958 2.1716 40 2.19649 40 2.22157V37.7045C40 37.7635 39.9766 37.8201 39.9347 37.8619C39.8928 37.9038 39.8362 37.9272 39.777 37.9272H39.7477L0.21149 36.0011C0.15436 35.9982 0.100553 35.9734 0.0611918 35.9319C0.0218302 35.8904 -7.65756e-05 35.8354 2.01129e-07 35.7783V16.0264C2.71122e-05 15.9754 0.0177435 15.9259 0.0501405 15.8865C0.0825374 15.847 0.127617 15.819 0.177723 15.809ZM4.49372 19.6088C4.29808 19.5714 4.09549 19.6082 3.92559 19.7121C3.7557 19.8159 3.63074 19.9794 3.57516 20.1705C3.51959 20.3616 3.5374 20.5666 3.62512 20.7452C3.71283 20.9238 3.86413 21.0633 4.04941 21.1364L18.492 25.3081L18.8146 25.0418L33.1968 13.1897C33.2898 13.1277 33.3686 13.047 33.4285 12.9527C33.4883 12.8584 33.5276 12.7526 33.544 12.6422C33.5603 12.5317 33.5533 12.4191 33.5234 12.3116C33.4935 12.204 33.4414 12.1039 33.3704 12.0177C33.2994 11.9314 33.211 11.8611 33.1111 11.8111C33.0113 11.7611 32.902 11.7325 32.7903 11.7273C32.6787 11.7221 32.5672 11.7402 32.463 11.7807C32.3588 11.8212 32.2643 11.8829 32.1856 11.9622L18.1277 23.5507L4.49372 19.6088Z" fill="#1E75BA"/>
</svg>
