<svg xmlns="http://www.w3.org/2000/svg" width="128" height="113" fill="none"><g clip-path="url(#a)"><path fill="#05BDBA" d="M34.593 94.05h-1.209l-6.033-6.032v-1.209l9.223-9.222h6.39l.852.852v6.39zm-7.242-68.234v-1.209l6.033-6.033h1.209l9.223 9.223v6.39l-.852.852h-6.39z"/><path fill="#014847" d="M80.46 74.605h-8.778l-.733-.733V53.326c0-3.656-1.436-6.489-5.844-6.588-2.269-.06-4.865 0-7.638.11l-.416.425v26.589l-.733.733H47.54l-.733-.733V38.764l.733-.733h19.753c7.677 0 13.898 6.22 13.898 13.898v21.943z"/><path fill="#05BDBA" d="M35.841 61.45H.733L0 60.715v-8.797l.733-.733h35.108l.733.733v8.797zm91.436 0H92.169l-.733-.734v-8.797l.733-.733h35.108l.733.733v8.797zM58.943 27.064V.734L59.676 0h8.797l.733.733v26.331l-.733.733h-8.797zm0 84.838v-26.33l.733-.734h8.797l.733.733v26.331l-.733.733h-8.797z"/></g><defs><clipPath id="a"><path fill="#fff" d="M0 0h128v112.635H0z"/></clipPath></defs></svg>