<?xml version="1.0" encoding="utf-8"?>
<!-- Generator: Adobe Illustrator 22.1.0, SVG Export Plug-In . SVG Version: 6.00 Build 0)  -->
<svg version="1.1" id="Слой_1" xmlns="http://www.w3.org/2000/svg" xmlns:xlink="http://www.w3.org/1999/xlink" x="0px" y="0px"
	 viewBox="0 0 2902.7 2902.7" style="enable-background:new 0 0 2902.7 2902.7;" xml:space="preserve">
<g>
	<path fill="#0080ca" d="M1280.1,2693.8c-78.7-16-155.6-28.7-230.9-47.5c-126.8-31.7-252.5-67.9-378.9-101c-33.7-8.8-58.4-26.2-76.3-56.1
		c-101.6-168.9-203.7-337.6-306.2-506c-16.7-27.5-20.6-54.9-14.7-86.8c37.7-203.1,85.7-403.5,151-599.6
		c4.9-14.8,16.2-30.2,28.8-39.3c167.9-120.5,344.5-226.7,528.3-321.2c28.6-14.7,55.6-18.2,87.5-12.4
		c196.7,35.5,390.5,82.2,579.8,146.3c24.6,8.3,49.8,27.5,65,48.6c119.3,166,224.3,340.8,314.9,524.1c8.3,16.9,12.9,39.2,9.8,57.5
		c-34.1,204.9-83.1,406.3-149.2,603.3c-7,20.8-22.5,42.7-40.3,55.3c-166.8,117.9-341.2,223.7-523.1,316.8
		C1310.9,2683.4,1294.6,2688.1,1280.1,2693.8z M792.5,1928.6c18,0,31.1,0,44.2,0c287.5,0,575,0,862.5,0c44.5,0,49.9-2.9,50.3-47.1
		c0.4-48.3,0.4-97.3-7.6-144.7c-56.7-335.6-376.9-563.7-710.8-508.1c-335.8,55.9-569.6,379.3-508,713.5
		c45.8,248.7,194.3,418.1,437.1,489.3c243.4,71.4,455.6,3.6,630.7-179c19.7-20.6,35.6-44.9,56.5-71.7
		c-72.3-36.6-139.2-68.7-204.2-104.3c-26.8-14.6-42.2-10.4-63.3,10.8c-120.3,121.2-306.8,138.5-445.9,42.4
		C864.4,2081.4,816.6,2016.9,792.5,1928.6z"/>
	<path fill="#0080ca" d="M2204.2,1022.5c-13.5-133-26.4-266.1-40.7-399c-4-37.7,1.3-48.7,39.5-48.9c145-1,288.6,9.8,423.2,70.1
		c154.6,69.2,257.5,207,240.1,409.5c-12.8,149.7-70.4,282.8-143.1,411.3c-14.6,25.9-28.8,15.7-46.3,4.2
		c-106.3-69.8-212.3-140.1-319.9-207.9c-42.8-27-88.7-49-134.1-71.6c-19.8-9.9-28.4-23-27.9-45c1-40.5,0.3-81.1,0.3-121.7
		C2198.4,1023.1,2201.3,1022.8,2204.2,1022.5z"/>
	<path fill="#0080ca" d="M997.2,227.6c75.4-82.4,151.9-154.9,241.5-212.6c8.7-5.6,21.5-6.6,32.4-6.7c161.2-0.4,322.4-0.8,483.6,0.6
		c15.9,0.1,35.2,9,46.8,20.1c84,80.4,137.1,180.7,177.6,288.1c16.7,44.2,28.6,90.2,44,134.9c8.3,24.1,2.2,35.9-23.5,39.1
		c-177.4,21.9-349.4,66.8-518.7,123c-26.2,8.7-42.3,2.4-61.5-17.9c-118.4-125.7-248.1-238.9-387.6-340.8
		C1021.2,247.6,1011.2,238.8,997.2,227.6z"/>
	<path fill="#0080ca" d="M842.2,252.8C720.4,409.9,623.4,572,538.3,741.7c-5.3,10.6-24.5,19.3-37.7,20c-46.1,2.4-92.6-1.4-138.6,1.5
		c-107.8,6.7-215.4,15.4-323,24.3c-19.5,1.6-34,1.9-33.6-23.5c2.4-141.3,10.1-281.6,75.4-411.4c49.9-99.1,123.7-176,214.5-238.8
		c40.6-28.1,84.4-23.5,127.2-18.9c119.2,12.8,230,53.4,334.8,110.9C784.4,220.7,811.5,235.8,842.2,252.8z"/>
	<path fill="#0080ca" d="M2905.7,2025.9c-11.9,129.6-23.6,259.3-36,388.8c-9.2,96.3-65.7,153-154.1,183.7c-64.8,22.5-128.6,48.2-193.6,70
		c-44.1,14.8-45.7,10.8-54.9-33.5c-26.1-125.6-52.6-251-81.4-376c-10.6-45.9-27.4-90.5-42.5-135.3c-6.6-19.7-3.1-33.8,12.5-48
		c127.9-116.3,240.3-246.4,342.5-385.5c34-46.2,34.7-47.6,74.2-7.3c34.7,35.3,69.5,70.8,100.8,109c12.4,15.1,20.6,37.7,21.5,57.4
		c2.8,58.5,1,117.1,1,175.7C2899.1,2025.3,2902.4,2025.6,2905.7,2025.9z"/>
	<path fill="#0080ca" d="M2895.8,739.5c-64.9-89-140.7-148.9-232.2-189.6c-97-43.2-199.1-64.8-304.3-70.9c-67.2-3.9-134.8-0.4-202-3.9
		c-10.8-0.6-25.2-18.9-30.1-31.9c-31.1-82-56.4-166.5-90.8-247c-22.8-53.3-57.6-101.6-87.4-151.9c-6-10.1-13.3-19.5-19.3-28.4
		c3.5-3.9,4.2-5.5,5-5.5c179.9-3.7,362.4-18.9,535.5,41.1c244.4,84.7,379.7,263.1,413,519.1c5.5,42.3,8.7,85,12.6,127.5
		C2896.6,708.2,2895.8,718.4,2895.8,739.5z"/>
	<path fill="#0080ca" d="M1833.9,2741.1c16-39.6,31.4-76.6,46-113.9c26.2-67.2,51.6-134.7,78.3-201.7c4.8-12.1,11.7-25.4,21.5-33.3
		c85.8-69.4,172.5-137.8,259-206.3c2.4-1.9,6.1-2.4,13.3-5c4.8,11,11.3,21.3,13.9,32.6c34.6,148,68.7,296.1,102.7,444.2
		c6.4,27.8,1.8,47.7-32.7,53c-158.4,24.4-317.5,37.3-477.8,34.7C1851.7,2745.3,1845.3,2743.2,1833.9,2741.1z"/>
	<path fill="#0080ca" d="M2194.7,1290.5c43.4,23.1,84.3,41.5,121.8,65.4c103.4,65.8,205.3,133.9,307.9,201c20.8,13.6,25.1,27.7,9.2,49.9
		c-94.4,130.9-199.5,252.2-316.3,363.6c-4.7,4.5-10.4,8.1-18.9,14.6c-5.6-10.4-10.8-18.5-14.6-27.2
		c-39.9-91.8-82.9-182.6-117.6-276.3c-12-32.3-6.5-72.4-3.6-108.5c7.1-87.3,17.5-174.3,26.7-261.5
		C2189.6,1307.2,2191.3,1303,2194.7,1290.5z"/>
	<path fill="#0080ca" d="M2086.6,1124.8c-34.3-14-67.2-27.9-100.4-40.9c-68.3-26.6-137.1-51.8-204.8-79.6c-16.7-6.8-33.1-19-44.6-32.9
		c-65.8-80-130-161.3-194.7-242.3c-4.1-5.1-7.6-10.7-15.4-21.7c30.5-10.1,57.1-21.4,85-27.6c136.3-30.2,272.9-58.9,409.2-88.5
		c19.7-4.3,33.8-1.8,37.6,20.7c28.3,165.9,40.8,332.9,33.3,501.3C2091.8,1115.4,2090.1,1117.3,2086.6,1124.8z"/>
	<path fill="#0080ca" d="M642.1,764.9c19.9-37.9,34.6-71.6,54.1-102.3c68.7-108.2,139.2-215.3,208.7-323.1c16.2-25.1,31.9-27.1,57.3-8.9
		c128.4,92.2,246.7,195.8,355.9,309.9c5.2,5.5,9.1,12.2,15.2,20.4c-7.7,5.2-13.5,10.3-20.2,13.2c-96.9,42.4-193.6,85.4-291.3,126
		c-16.2,6.7-37,5-55.3,3.2c-88.3-8.6-176.6-18.4-264.8-28.2C684.2,773.3,667,769.3,642.1,764.9z"/>
	<path fill="#0080ca" d="M54.2,1434.4c-17.2-68-42.1-130-46.7-193.5C-0.1,1136.8,6,1031.7,5,927c-0.2-23.3,5.5-35,31.2-36.5
		c135.7-7.9,271.2-17.1,406.9-25.7c25.9-1.6,34.5,6.2,23.1,33.7c-36.8,89.5-70.3,180.3-107.4,269.7c-9,21.7-23.2,44.1-41,59
		c-79.3,66.4-160.7,130.3-241.4,195C73.1,1424.7,68.9,1426.3,54.2,1434.4z"/>
	<path fill="#0080ca" d="M779,2902.7c-79.8-6.6-152.4-10.3-224.4-19c-112.8-13.6-215-55-305.7-124.4c-20.6-15.7-30.3-32.9-30.4-59.5
		c-0.2-60.7-4.3-121.4-5.2-182.1c-0.5-32.2,6.2-35.2,36.6-23.2c96.3,38,192.8,75.5,289,114c10.9,4.4,22.3,11.6,29.6,20.6
		c67.8,84,134.8,168.7,201.9,253.3C772.3,2884.9,773,2888.4,779,2902.7z"/>
	<path fill="#0080ca" d="M15.2,1628.1c4.7,9.6,9.8,19,14,28.7c39.3,89.6,80.7,178.4,116.2,269.5c10.6,27.1,7.6,61.1,5.1,91.5
		c-7.7,94-18.1,187.8-27.6,281.6c-0.4,4.2-2.6,8.3-3.9,12.2c-77-8.3-113.6-47.4-113.7-120.4c0-175.6,0-351.2,0.1-526.8
		c0-11.6,1.1-23.2,1.6-34.9C9.8,1629,12.5,1628.6,15.2,1628.1z"/>
	<path fill="#0080ca" d="M588.6,14.4c159.4,0,316.3,0,471.4,0c-46.6,48.1-95.2,98.8-145,148.4c-3.9,3.9-17.1,2.1-23.9-1.2
		C791.9,113.8,693,65.3,588.6,14.4z"/>
	<path fill="#0080ca" d="M1663.1,2842.1c-7.1,41.4-23.4,57.6-62.4,57.1c-152.2-2.2-304.4-0.9-456.6-0.9c-11,0-22.1,0-33.1,0
		c-0.6-1.8-1.2-3.7-1.8-5.5c7-3.9,13.7-8.2,20.9-11.6c16.3-7.7,34.6-12.5,48.9-22.8c93.9-67.9,196.5-53.1,300.7-36.2
		C1539.3,2831.9,1599.9,2835.5,1663.1,2842.1z"/>
	<path fill="#0080ca" d="M1765.4,2892.7c3.9-33.2,20.1-46.2,52-45.5c180.2,3.9,359.4-7.2,537.5-35.5c8.5-1.4,26.7,8,26.9,13
		c0.8,19.2,14.6,45.7-15.6,54.6c-22.4,6.6-46.3,11-69.7,11.4c-173.1,3.1-346.2,4.9-519.3,7
		C1774.4,2897.6,1771.3,2895.2,1765.4,2892.7z"/>
	<path fill="#0080ca" d="M1814.6,2519c-22.4,53.5-44.7,106.9-67.2,160.4c-2.2,5.2-5.8,10-7,15.3c-8.5,38.6-33.9,48.2-70.2,44.3
		c-55.7-6.1-111.7-9.9-167.6-15.2c-7.3-0.7-14.3-4.6-26.4-8.7c113.1-68.2,222-134,330.9-199.7
		C1809.7,2516.7,1812.1,2517.9,1814.6,2519z"/>
	<path fill="#0080ca" d="M283.5,1394.1c-30.3,122.4-60.6,244.8-91.8,371.1c-5.8-6.7-11.2-10.5-13.4-15.8c-25.4-61.2-50.8-122.5-74.7-184.3
		c-3.5-8.9-3.6-25.6,2-30.6c55.7-49.8,112.8-98,169.6-146.6C278,1390,280.8,1392,283.5,1394.1z"/>
	<path fill="#0080ca" d="M1568.8,933.9c-123.9-30.8-247.9-61.7-381.4-94.9c39.6-17.5,71.4-32.1,103.6-45.6c22.8-9.6,46.2-17.7,69.3-26.6
		c59.9-23.1,61.3-23,102.2,26.4c37.1,44.8,73.8,89.9,110.7,134.9C1571.7,930,1570.2,932,1568.8,933.9z"/>
	<path fill="#0080ca" d="M1115.8,2777c-67.8,26.9-135.3,54.4-203.6,79.9c-8.2,3.1-24.1-1-30.1-7.6c-49.7-54.5-97.8-110.4-146.5-165.8
		c1.7-2.5,3.4-4.9,5.1-7.4c124.5,30.7,249.1,61.5,373.6,92.2C1114.8,2771.2,1115.3,2774.1,1115.8,2777z"/>
	<path fill="#0080ca" d="M832.6,895.4c-114,69-221.5,134-329,199c-2.2-1.2-4.4-2.4-6.7-3.6c18-44,36-88,54.1-131.9c3.9-9.4,8.5-18.4,12.4-27.8
		c25.6-62.4,26.7-63.8,91.1-59.3c50.5,3.5,100.8,8.8,151.2,14C812.8,886.6,819.6,890.7,832.6,895.4z"/>
	<path fill="#0080ca" d="M1872.7,1149.9c19.4,7.3,39,14.3,58.3,22c25,10,50,20.1,74.7,31c85.9,37.9,86.6,38.1,80.3,130.6
		c-3.3,48.6-10.1,97-22.3,146.7c-65.1-107.7-130.2-215.3-195.3-323C1869.8,1154.7,1871.2,1152.3,1872.7,1149.9z"/>
	<path fill="#0080ca" d="M2127.7,1845.5c27.4,68.6,55.2,137,81.4,206c2.7,7.1-1.5,21.3-7.5,26.5c-53.4,46.3-107.8,91.4-162.1,136.6
		c-2,1.7-6.1,0.8-12.1,1.4c30.8-124,61.1-246.3,91.5-368.6C2121.8,1846.7,2124.8,1846.1,2127.7,1845.5z"/>
	<path fill="#0080ca" d="M436.2,2463.4c-67.4-29.8-135.2-58.9-201.6-90.6c-8.4-4-14.8-22.8-14-34.1c5.3-70.3,12.9-140.5,20.6-219.9
		c70.2,116.7,135.8,225.9,201.5,335.2C440.6,2457.1,438.4,2460.2,436.2,2463.4z"/>
	<path fill="#0080ca" d="M2894.9,1357.7c0,103.1,0,198.3,0,304.6c-36.4-37-67.6-67.7-97-100c-3.9-4.2-1.5-17.6,2.1-24.6
		C2829.7,1479.9,2860.5,1422.6,2894.9,1357.7z"/>
	<path fill="#0080ca" d="M26.5,2389.5c28.4,14.2,51.3,23.7,71.6,36.9c8.7,5.6,17.4,19.3,17.3,29.2c-0.7,45.5-4.5,90.9-7.6,145.1
		C65.7,2533,41.2,2467.6,26.5,2389.5z"/>
	<path fill="#0080ca" d="M2490.9,2843.7c-11.5-51.3-7.3-58.3,41-71.8c26-7.3,52-15,77.8-23.2c24.7-7.8,49.1-16.6,73.7-25
		C2663.4,2762.5,2546.4,2835.3,2490.9,2843.7z"/>
	<path fill="#0080ca" d="M1445.8,1685.9c-210.1,0-416.6,0-623.6,0c21.4-88.5,158.1-187.7,267.7-196C1247.5,1478.1,1391.6,1555.8,1445.8,1685.9z"/>
</g>
</svg>
