<svg xmlns="http://www.w3.org/2000/svg" viewBox="0 0 80 80"><defs><linearGradient id="a" x1="0%" x2="100%" y1="100%" y2="0%"><stop offset="0%" stop-color="#1B660F"/><stop offset="100%" stop-color="#6CAE3E"/></linearGradient></defs><g fill="none" fill-rule="evenodd"><path fill="url(#a)" d="M0 0h80v80H0z"/><path fill="#FFF" d="M40 20c-8.837 0-16 3.582-16 8v24c0 4.418 7.163 8 16 8s16-3.582 16-8V28c0-4.418-7.163-8-16-8zm0 38c-7.732 0-14-2.686-14-6v-4.764C29.14 49.665 34.336 51 40 51s10.86-1.335 14-3.764V52c0 3.314-6.268 6-14 6zm0-9c-7.732 0-14-2.686-14-6v-4.764C29.14 40.665 34.336 42 40 42s10.86-1.335 14-3.764V43c0 3.314-6.268 6-14 6zm0-9c-7.732 0-14-2.686-14-6v-4.764C29.14 31.665 34.336 33 40 33s10.86-1.335 14-3.764V34c0 3.314-6.268 6-14 6zm0-18c7.732 0 14 2.686 14 6s-6.268 6-14 6-14-2.686-14-6 6.268-6 14-6z"/><path stroke="#FFF" stroke-width="2" d="M45 35l-3 3-2-2"/></g></svg>
