<svg xmlns="http://www.w3.org/2000/svg" width="2500" height="2500" viewBox="8.399 8.4 51.2 51.2"><path fill="#21759B" d="M34 59.6C19.813 59.6 8.293 48.293 8.4 34 8.507 19.707 19.28 8.4 34 8.4c14.721 0 25.6 11.52 25.6 25.6S48.187 59.6 34 59.6zm7.573-3.947l-7.253-19.52-6.827 19.947c5.014 1.174 8.427 1.493 14.08-.427zm-17.706-1.066l-10.88-29.76c-1.494 3.2-1.813 5.867-2.027 9.173.107 8.746 5.013 16.746 12.907 20.587zM56.934 34c.106-5.653-2.453-10.133-2.667-10.773.214 4.374-.427 6.613-1.173 9.067l-7.467 21.44C55.014 48.08 56.826 39.653 57.04 34h-.106zm-23.68-.96l-3.627-9.92-2.667-.213c-1.066-.747-.427-1.92.32-1.92 4.8.32 7.466.32 12.267 0 1.174 0 1.493 1.707.106 1.92l-2.56.213 8.319 24.533 3.946-13.44c.214-5.866-1.387-6.506-3.52-10.773-1.707-3.307.107-6.507 3.414-6.613-2.668-2.56-8.107-5.76-15.254-5.867s-14.72 3.52-19.2 10.347l7.894-.213c.96.427.533 1.813 0 1.92l-2.773.213 8.32 24.96 5.015-15.147z"/></svg>