<svg width="40" height="40" viewBox="0 0 40 40" fill="none" xmlns="http://www.w3.org/2000/svg">
<mask id="mask0_1002_8324" style="mask-type:luminance" maskUnits="userSpaceOnUse" x="0" y="0" width="40" height="40">
<path d="M32.4632 23.7334L34.3904 25.6595C35.5228 26.8199 36.152 28.3799 36.1418 30.0012C36.1315 31.6225 35.4825 33.1744 34.3356 34.3204C33.1887 35.4664 31.6362 36.1141 30.0149 36.1231C28.3936 36.132 26.8341 35.5015 25.6746 34.3682L23.7308 32.4226C23.8337 32.0677 23.8864 31.7001 23.8875 31.3306C23.8873 31.005 23.8452 30.6807 23.7621 30.3658L30.3478 23.7813C31.043 23.9627 31.7751 23.9461 32.4614 23.7334M5.70165 34.296C4.55763 33.1545 3.90875 31.6086 3.89524 29.9925C3.88174 28.3765 4.5047 26.82 5.62949 25.6595L7.63246 23.6689C8.30009 23.9123 9.02155 23.9686 9.71884 23.8316L16.2128 30.322C16.124 30.6499 16.0791 30.988 16.0791 31.3277C16.0785 31.712 16.1347 32.0943 16.246 32.4622L14.3435 34.3658C13.1809 35.4886 11.6239 36.1101 10.0077 36.0965C8.3915 36.0828 6.84523 35.4353 5.70165 34.2931M20.8783 12.1628L27.5853 18.8656C27.3587 19.6074 27.3587 20.4 27.5853 21.1418V21.1377L21.1161 27.6009C20.3906 27.3803 19.6165 27.3758 18.8884 27.5879L12.6292 21.3341C12.944 20.4731 12.944 19.5284 12.6292 18.6674L19.1321 12.1734C19.7073 12.3038 20.3048 12.3002 20.8783 12.1628ZM16.2826 9.60611V9.60256V9.60848V9.60611ZM23.6971 9.56056C23.8241 9.17437 23.889 8.77043 23.8893 8.36387C23.8882 8.07789 23.856 7.79287 23.7935 7.51381L25.6705 5.63743C26.8335 4.52383 28.3862 3.90983 29.9963 3.92691C31.6064 3.94399 33.1458 4.59079 34.2849 5.72882C35.424 6.86685 36.0723 8.40564 36.0909 10.0157C36.1095 11.6258 35.497 13.1792 34.3845 14.3432L32.459 16.2699C32.0911 16.159 31.7088 16.1027 31.3244 16.1031C31.0019 16.1025 30.6807 16.1433 30.3685 16.2243L23.6971 9.56056ZM5.62949 14.3414C4.50287 13.1801 3.87837 11.6222 3.89091 10.0042C3.90346 8.38625 4.55204 6.83818 5.69654 5.69447C6.84103 4.55075 8.38954 3.90322 10.0075 3.89177C11.6255 3.88033 13.183 4.50588 14.3435 5.63329L16.1856 7.47655C16.0168 8.18138 16.0505 8.91955 16.2826 9.60611L9.72062 16.1723C9.0221 16.0358 8.29948 16.095 7.63246 16.3432L5.62949 14.3414ZM9.98859 2.34538e-06C8.01364 -0.0013512 6.08268 0.583186 4.44006 1.67964C2.79744 2.7761 1.51699 4.33519 0.760763 6.15962C0.00453271 7.98404 -0.193492 9.9918 0.191747 11.9288C0.576986 13.8658 1.52817 15.645 2.92494 17.0412L5.13022 19.2483C5.03143 19.7437 5.03143 20.2537 5.13022 20.7491L2.92257 22.9555C1.05059 24.8291 -0.000455671 27.3695 0.000653692 30.018C0.00176306 32.6665 1.05494 35.2061 2.92849 37.0781C4.80204 38.9501 7.3425 40.0011 9.99099 40C12.6395 39.9989 15.1791 38.9457 17.051 37.0722L19.0138 35.1082C19.6625 35.2804 20.345 35.2804 20.9937 35.1082L22.9689 37.0828C24.3351 38.4256 26.0587 39.3472 27.9342 39.7377C29.8096 40.1283 31.7578 39.9713 33.5465 39.2855C35.3352 38.5997 36.889 37.414 38.0227 35.8697C39.1563 34.3255 39.822 32.4878 39.9403 30.5758V29.3484C39.7956 26.9469 38.7846 24.6794 37.095 22.9668L35.1027 20.9638C35.1813 20.6508 35.221 20.3294 35.221 20.0067C35.221 19.6802 35.1789 19.3551 35.0956 19.0395L37.0944 17.0424C38.7765 15.3375 39.7863 13.0824 39.9379 10.6922V9.39552C39.813 7.48725 39.1429 5.65496 38.0072 4.11633C36.8716 2.5777 35.3181 1.3974 33.5314 0.715656C31.7447 0.033914 29.7999 -0.120614 27.9279 0.270429C26.056 0.661473 24.3356 1.58165 22.9712 2.92165L21.225 4.66671C20.4336 4.39806 19.5765 4.39287 18.7819 4.65192L17.0528 2.9252C15.1791 1.052 12.6381 -0.000209017 9.98859 2.34538e-06Z" fill="white"/>
</mask>
<g mask="url(#mask0_1002_8324)">
<rect x="-0.479492" y="-0.450134" width="40.8575" height="40.8575" fill="white"/>
</g>
</svg>
