<svg xmlns="http://www.w3.org/2000/svg" xmlns:xlink="http://www.w3.org/1999/xlink" width="385" height="385"><defs><linearGradient x1="-411.527" y1="-29.89" x2="-23.847" y2="-258.964" id="d" xlink:href="#a" gradientUnits="userSpaceOnUse" gradientTransform="translate(488.256 811.455) scale(.66978)"/><linearGradient id="a"><stop offset="0" stop-color="#909ca9"/><stop offset="1" stop-color="#ededee"/></linearGradient><linearGradient x1="-447.797" y1="-889.058" x2="-135.859" y2="-889.058" id="e" xlink:href="#b" gradientUnits="userSpaceOnUse" gradientTransform="translate(488.256 811.455) scale(.66978)"/><linearGradient id="b"><stop offset="0" stop-color="#939fab"/><stop offset="1" stop-color="#dcdee1"/></linearGradient><linearGradient id="c"><stop offset="0" stop-color="#ee352c"/><stop offset="1" stop-color="#a91d22"/></linearGradient><radialGradient cx="-1259.098" cy="-245.428" r="414.156" fx="-1259.098" fy="-245.428" id="f" xlink:href="#c" gradientUnits="userSpaceOnUse" gradientTransform="matrix(-.64353 -.09731 .19436 -1.28527 -377.154 -44.777)"/></defs><path d="M469.04 461.903l-132.345 43.16-115.056 50.819-32.233 8.518a801.402 801.402 0 01-26.08 23.694c-10.151 8.834-19.698 16.84-26.958 22.626-8.084 6.443-20.103 18.37-26.247 26.017-9.14 11.377-16.287 23.51-19.36 32.84-5.53 16.786-2.836 33.788 7.827 49.48 13.622 20.044 40.738 40.409 72.274 54.273 16.086 7.071 43.232 16.188 63.587 21.328 33.922 8.566 99.482 17.873 135.588 19.256 7.323.28 17.071.254 17.52-.042.792-.523 6.413-11.166 12.934-24.489 22.19-45.33 38.245-87.824 46.885-124.118 5.231-21.976 9.31-51.28 11.951-86.025.74-9.733 1.009-42.193.44-53.226-.926-17.954-2.507-32.587-5.044-46.948-.373-2.104-.51-3.955-.314-4.123.368-.316 1.618-.717 17.874-5.442l-3.244-7.598zm-30.246 17.75c1.203 0 4.401 30.67 5.233 50.128.177 4.135.141 6.782-.105 6.782-.79 0-16.948-9.489-28.402-16.682-10.003-6.282-28.985-18.896-32.003-21.265-.953-.748-.852-.785 7.325-3.6 13.914-4.792 46.901-15.364 47.952-15.364zm-67.417 22.123c.855-.002 3.183 1.283 8.686 4.73 20.642 12.932 48.595 28.49 60.573 33.72 3.714 1.621 4.138.993-4.416 6.802-18.234 12.382-40.904 24.557-68.736 36.922-4.851 2.154-8.96 3.914-9.126 3.914-.166 0 .376-2.461 1.193-5.484 6.743-24.941 10.547-50.116 10.654-70.306.053-9.985.055-10.038 1.004-10.277a.756.756 0 01.168-.02zm-13.877 5.296c.597.6.165 22.975-.565 29.072-1.751 14.627-4.613 28.155-9.189 43.536-1.093 3.675-2.118 6.843-2.281 7.032-.398.461-14.08-12.87-18.628-18.146-7.772-9.015-13.92-17.97-18.398-26.792-2.277-4.483-5.907-13.338-5.568-13.584 1.537-1.116 54.253-21.496 54.629-21.118zm-65.366 25.765c.123.012.218.046.272.105.197.217.894 1.842 1.549 3.62 3.187 8.657 10.353 21.517 16.577 29.743 6.794 8.981 15.653 18.551 23.065 24.908 2.38 2.04 4.6 3.945 4.919 4.227.635.563.848.468-15.468 6.656-18.91 7.173-39.503 14.355-63.147 21.998-9.01 2.913-16.637 5.374-16.933 5.484-.9.334-.625-.22 2.01-4.332 11.748-18.342 29.545-54.222 39.495-79.6 1.726-4.4 3.368-8.81 3.663-9.795.433-1.448.86-1.94 2.219-2.553.752-.34 1.41-.498 1.779-.46zm-20.03 8.268c.265.234-4.807 10.945-9.796 20.68-9.678 18.879-20.348 37.458-34.515 60.133-2.444 3.912-4.697 7.489-5.002 7.932-.504.73-.71.49-2.26-2.595-3.392-6.745-6.234-15.256-7.703-23.17-1.455-7.833-1.207-21.394.544-29.805 1.301-6.25 1.244-6.111 4.186-7.62 12.722-6.519 54.13-25.92 54.545-25.555zm172.53 7.011v4.25c-.021 22.316-2.404 52.868-5.86 75.161-.607 3.912-1.133 7.14-1.173 7.18-.04.039-2.86-.788-6.258-1.843-15.016-4.661-31.297-11.626-45.984-19.674-9.727-5.33-23.795-13.964-23.4-14.359.106-.107 4.25-2.303 9.209-4.877 19.64-10.194 38.402-21.185 54.712-32.086 6.12-4.09 15.277-10.71 17.31-12.496l1.444-1.256zm-248.07 29.575c.408-.02.305.755-.334 4.438-.445 2.561-.947 7.4-1.13 10.737-.805 14.628 1.567 25.42 8.832 40.187 2.02 4.105 3.6 7.528 3.516 7.598-.727.608-66.88 19.967-87.678 25.66-6.165 1.688-11.553 3.175-11.993 3.308-.722.217-.786.06-.523-1.633 2.278-14.676 13.473-33.938 29.114-50.108 10.4-10.75 18.725-17.118 32.882-25.2 10.16-5.8 25.94-14.506 27.105-14.945a.685.685 0 01.21-.042zm156.038 27.943c.063-.076 2.514 1.236 5.442 2.93 21.368 12.357 51.185 23.948 76.606 29.763l2.302.524-3.16 1.758c-13.28 7.369-57.013 25.565-101.68 42.321-6.522 2.447-12.884 4.845-14.129 5.338-1.245.492-2.26.83-2.26.732 0-.098 1.842-3.644 4.102-7.87 12.54-23.446 25.056-51.938 31.48-71.708.654-2.015 1.234-3.713 1.297-3.788zm-15.907 5.211c.069.069-.713 2.17-1.737 4.647-8.718 21.08-20.14 44.076-34.703 69.908-3.706 6.574-6.83 11.941-6.95 11.93-.118-.01-3.132-1.794-6.697-3.976-21.213-12.987-39.982-28.973-52.306-44.52l-1.758-2.197 9.147-2.512c32.625-8.938 60.293-18.496 87.804-30.35 3.895-1.678 7.131-2.998 7.2-2.93zm98.813 34.494c.047.01.063.043.063.084 0 2.223-5.047 22.802-9.251 37.696-3.527 12.493-6.488 22.265-11.973 39.58-2.422 7.647-4.501 13.888-4.625 13.856a34.898 34.898 0 00-1.298-.252c-29.72-5.378-56.338-12.878-81.273-22.898-6.977-2.803-17.05-7.265-17.582-7.786-.18-.176 5.844-3.014 13.375-6.3 45.541-19.87 92.727-42.498 108.86-52.2 1.94-1.168 3.376-1.848 3.704-1.78zm-228.101 7.807c.244.231-12.495 18.467-30.287 43.368-6.184 8.655-13.448 18.856-16.137 22.668a476.901 476.901 0 00-9.063 13.417l-4.207 6.488-4.48-3.767c-5.255-4.413-14.455-13.782-18.628-18.984-8.587-10.705-14.406-21.97-16.702-32.317-1.06-4.777-1.092-7.21-.084-7.514 1.456-.439 28.172-6.728 53.226-12.538 13.917-3.227 30.007-7.004 35.77-8.393 5.764-1.389 10.535-2.481 10.592-2.428zm12.81 4.898l3.222 3.6c14.411 16.053 29.067 28.032 46.948 38.366 3.157 1.824 5.563 3.41 5.358 3.537-.744.46-61.833 22.18-90.085 32.024-15.933 5.551-29.022 10.078-29.094 10.067-.072-.01-.975-.6-1.988-1.318l-1.842-1.32 2.888-4.165c9.374-13.578 21.152-28.51 46.927-59.527l17.665-21.265zm79.828 57.057c.071-.088 4.537 1.495 9.942 3.516 13.029 4.872 23.254 8.049 37.09 11.512 16.993 4.253 41.55 8.507 56.094 9.733 2.232.188 3.372.443 3.014.67-.676.427-15.4 5.345-26.226 8.748-17.185 5.402-69.702 20.917-112.523 33.238-7.944 2.286-14.736 4.217-15.091 4.291-.96.2-4.312-.68-4.312-1.13 0-.214 2.401-3.253 5.316-6.74 14.393-17.216 28.692-36.445 40.627-54.629 3.264-4.973 5.999-9.121 6.07-9.21zm-17.686.502c.129.129-6.966 11.49-19.444 31.145a9616.419 9616.419 0 00-13.291 20.993c-2.048 3.247-5.048 8.182-6.656 10.989l-2.93 5.107-1.487-.398c-3.585-.97-28.88-9.906-35.56-12.558-8.282-3.287-16.912-7.257-23.276-10.696-7.952-4.297-18.037-10.675-17.246-10.926.227-.072 13.911-3.817 30.39-8.309 43.84-11.95 68.09-18.815 83.995-23.777 2.972-.927 5.448-1.627 5.505-1.57zm124.516 29.198c.095-.02.138-.02.147 0 .414 1.037-15.815 45.989-21.747 60.239-1.329 3.191-1.82 3.965-2.512 3.934-1.679-.073-25.211-3.363-39.454-5.525-24.933-3.785-66.695-11.078-77.234-13.48l-2.449-.544 14.945-3.37c32.032-7.217 47.415-11.087 63.022-15.865 19.682-6.025 39.172-13.538 58.857-22.689 3.112-1.446 5.764-2.556 6.425-2.7z" transform="translate(-29.397 -82.923) scale(.5693)" fill="url(#d)"/><path d="M332.647 153.475c-2.213-.258-37.732 12.539-60.552 21.81-30.922 12.563-54.93 24.6-69.74 34.996-5.514 3.87-12.446 10.83-13.46 13.5-.378 1-.556 2.168-.564 3.37l13.437 12.684 31.877 10.172 75.937 13.563 86.799 14.924.879-7.452c-.263-.04-.511-.084-.775-.125l-11.428-1.8-2.323-4.082c-11.797-20.816-24.834-46.575-32.4-64.005-5.86-13.5-11.488-29.05-14.61-40.313-1.854-6.688-2.047-7.121-3.077-7.242zm-1.674 5.15c.088-.017.132-.017.146 0 .07.083.474 2.875.88 6.195 1.708 13.98 4.836 27.54 9.732 42.133 3.69 10.997 3.742 10.351-.649 9.126-10.207-2.849-55.937-10.699-89.018-15.28-5.33-.738-9.767-1.394-9.837-1.465-.42-.42 23.857-13.14 34.62-18.147 13.802-6.422 51.389-22.07 54.126-22.563zm-96.386 44.77l3.872 1.318c21.239 7.23 74.474 17.399 103.9 19.843 3.32.275 6.11.571 6.195.648.085.078-2.735 1.585-6.258 3.35-14.195 7.11-29.819 15.777-40.626 22.542-3.174 1.986-6.085 3.588-6.468 3.558-.383-.03-2.476-.367-4.667-.733l-3.998-.649-10.047-9.753c-17.637-17.07-31.407-30.277-36.733-35.268l-5.17-4.856zm-3.935 3.14l14.066 17.56c7.743 9.66 15.503 19.245 17.225 21.308 1.723 2.062 3.056 3.81 2.973 3.872-.4.292-20.386-3.6-30.978-6.028-10.873-2.494-15.37-3.687-22.102-5.84l-5.484-1.758.02-1.36c.07-6.746 8.573-16.696 23.003-26.876l1.277-.879zm119.786 23.923c.422.033.867.89 2.114 3.621 3.412 7.474 14.03 27.729 16.598 31.647.845 1.29 2.186 1.377-11.91-.9-33.874-5.472-44.833-7.303-44.833-7.514 0-.129 1.016-.794 2.26-1.486 10.49-5.834 21.075-13.176 30.497-21.119 2.252-1.9 4.417-3.708 4.814-4.04.163-.136.32-.22.46-.209z" transform="translate(-29.397 -82.923) scale(.5693)" fill="url(#e)"/><path d="M189.496 222.43s-2.198 3.485-.125 8.666c1.282 3.205 5.133 7.056 9.377 11.135 0 0 44.452 43.361 49.898 49.647 24.63 28.426 35.327 56.41 36.315 95.046.634 24.793-4.148 46.587-15.761 71.917-20.815 45.4-64.672 95.467-132.407 151.14l9.942-3.286c6.39-4.787 15.069-9.9 35.54-21.098 47.145-25.787 100.087-49.508 165.122-73.948 93.568-35.163 247.48-76.42 335.057-89.834l9.125-1.402-1.402-2.198c-8.008-12.447-13.474-20.122-20.051-28.256-19.209-23.754-42.463-43.136-70.955-59.087-39.153-21.92-89.936-38.956-154.133-51.72-12.137-2.413-38.715-6.969-60.343-10.34-45.814-7.14-75.363-11.96-108.002-17.644-11.702-2.03-29.174-4.965-40.773-7.472-6.043-1.307-17.53-4.023-26.456-7.096-7.37-2.901-17.748-5.706-19.968-14.17zm25.766 25.012c.062-.056 1.732.46 3.767 1.152 3.752 1.273 8.702 2.764 14.463 4.374a618.885 618.885 0 0013.187 3.516c6.014 1.538 10.987 2.86 11.051 2.93.666.75 10.767 32.988 14.212 45.357 1.315 4.721 2.313 8.655 2.219 8.75-.095.093-1.215-1.645-2.47-3.852-11.686-20.551-30.193-41.45-51.594-58.27-2.668-2.097-4.835-3.877-4.835-3.957zm49.25 13.605c.514-.035 2.733.336 5.379.921 17.042 3.769 47.471 9.644 67.04 12.935 3.26.549 5.945 1.14 5.945 1.319 0 .18-1.218.95-2.7 1.695-3.284 1.652-16.57 9.604-21.015 12.58-11.097 7.427-21.074 15.377-28.34 22.605-2.92 2.904-5.363 5.274-5.442 5.274-.078 0-.589-1.693-1.13-3.767-3.633-13.925-11.143-34.486-17.875-48.957-1.083-2.329-1.967-4.382-1.967-4.563 0-.023.03-.037.105-.041zm86.631 16.473c.57.19 1.648 3.554 3.558 11.114 3.658 14.476 5.36 30.734 4.794 45.775-.158 4.186-.423 8.073-.587 8.644l-.313 1.047-5.17-1.675c-10.658-3.406-28.07-8.533-42.992-12.663-8.477-2.346-15.426-4.44-15.426-4.646 0-.62 12.37-12.986 17.687-17.687 10.156-8.978 37.48-30.232 38.45-29.91zm6.886.983c.309-.287 41.399 6.828 60.071 10.403 13.918 2.664 34.055 6.881 35.268 7.388.586.245-1.498 1.38-8.184 4.396-26.445 11.926-46.037 22.57-65.512 35.603-5.13 3.433-9.393 6.237-9.482 6.237-.089 0-.165-2.865-.167-6.363-.014-18.992-3.805-38.161-10.759-54.357-.748-1.743-1.31-3.237-1.235-3.307zm106.244 21.015c.318.318-1.03 8.42-2.198 13.207-3.635 14.897-13.27 37.007-25.158 57.79-2.095 3.661-3.969 6.715-4.186 6.78-.218.067-2.925-1.357-6.007-3.16-11.626-6.8-24.79-13.232-39.245-19.193-4.031-1.662-7.464-3.142-7.64-3.307-.66-.619 31.465-21.887 48.496-32.108 13.623-8.174 35.556-20.392 35.938-20.01zm7.598 1.193c.925 0 19.148 4.968 28.57 7.786 23.47 7.02 50.545 16.91 68.108 24.886l7.305 3.307-5.149 1.193c-42.975 9.873-79.809 21.266-115.285 35.666-2.948 1.197-5.514 2.177-5.694 2.177-.18 0 .761-2.28 2.072-5.065 10.665-22.658 17.552-46.434 19.34-66.622.163-1.838.495-3.328.733-3.328zm-181.133 41.63c.29-.287 14.16 2.963 21.726 5.087 11.37 3.192 35.566 11.289 35.582 11.91 0 .12-2.667 2.445-5.924 5.17-13.081 10.943-25.7 22.386-40.815 36.984-4.48 4.327-8.288 7.849-8.476 7.849-.189 0-.272-.632-.168-1.403 2.276-16.803 1.787-38.38-1.381-60.343-.402-2.784-.645-5.154-.544-5.253zm292.065.273c.208.208-6.435 10.59-10.57 16.514-6.033 8.643-14.779 19.99-34.703 45.043a15399.201 15399.201 0 00-26.247 33.09c-3.976 5.04-7.313 9.169-7.41 9.169-.095 0-1.378-1.805-2.846-3.998-11.231-16.78-24.559-31.518-40.459-44.75-2.967-2.47-6.314-5.177-7.43-6.007-1.116-.83-2.025-1.598-2.03-1.716-.01-.274 16.97-7.557 29.93-12.83 22.564-9.182 53.403-20.177 76.48-27.252 12.17-3.731 25.1-7.448 25.285-7.263zm7.66 2.01c.365-.075 2.787 1.097 5.694 2.762 24.305 13.923 48.123 31.803 66.852 50.192 5.328 5.23 18.361 18.788 18.168 18.9-.05.029-4.551.385-10.005.795-42.119 3.168-95.968 12.128-147.812 24.594-3.52.846-6.565 1.549-6.76 1.549-.196 0 3.658-3.869 8.56-8.582 30.446-29.27 44.336-47.752 60.678-80.771 2.434-4.918 4.498-9.16 4.584-9.419.005-.016.017-.016.042-.02zm-222.617 22.813c1.39.313 14.375 6.354 24.175 11.261 8.961 4.487 22.535 11.714 23.212 12.35.085.079-4.697 2.576-10.633 5.546-18.794 9.402-34.891 18.282-51.699 28.55-4.792 2.927-8.81 5.336-8.937 5.336-.42 0-.254-.362 2.428-5.274 8.95-16.393 16.17-35.964 20.324-55.09.37-1.706.816-2.749 1.13-2.679zm-13.082 2.345c.271.27-3.098 12.647-5.232 19.256-4.094 12.676-11.015 28.611-17.666 40.605a313.089 313.089 0 01-5.316 9.168l-2.47 4.04-5.61-5.422c-6.518-6.319-11.827-10.243-18.607-13.73-2.664-1.37-4.831-2.64-4.835-2.826-.012-.824 17.053-16.344 30.224-27.482 9.428-7.972 29.271-23.85 29.512-23.61zm79.495 32.693l4.877 3.16c11.187 7.265 24.434 17.036 34.535 25.452 5.66 4.717 16.66 14.567 18.921 16.954l1.214 1.277-8.1 2.26c-45.813 12.711-81.208 24.027-122.507 39.203-4.583 1.685-8.54 3.077-8.812 3.077-.57 0-1.135.524 9.168-8.958 26.415-24.31 49.75-51.093 67.187-77.15l3.517-5.275zm-20.89 5.233c.24.24-13.538 19.536-21.725 30.433-9.795 13.037-27.241 34.831-39.245 49.02-5.015 5.927-9.312 10.846-9.544 10.925-.255.087-.414-1.365-.419-3.663-.023-12.106-3.086-25.044-8.498-36-2.285-4.628-2.668-5.748-2.197-6.175 1.883-1.707 31.025-18.324 49.396-28.172 12.619-6.765 31.993-16.608 32.233-16.368zm-126.336 30.956c.25 0 2.588 1.175 5.19 2.617 6.379 3.533 12.109 7.42 17.164 11.637.195.163-2.423 2.301-5.819 4.751-9.48 6.84-23.914 17.734-32.275 24.384-8.82 7.017-9.113 7.232-8.121 5.714 6.606-10.102 9.927-15.822 13.396-23.128 3.083-6.494 6.156-14.203 8.35-20.91.913-2.786 1.865-5.065 2.115-5.065zm33.656 26.415c.456-.057 1.104.791 3.81 4.835 5.702 8.52 10.07 19.884 11.197 29.135l.23 1.988-13.667 5.296c-24.534 9.52-47.118 18.905-62.373 25.891a651.678 651.678 0 00-16.724 8.016c-4.92 2.462-8.937 4.397-8.937 4.291 0-.106 3.09-2.429 6.865-5.17 29.94-21.736 55.755-45.532 75.204-69.322 2.08-2.544 3.969-4.75 4.207-4.897a.446.446 0 01.188-.063zm-15.53 3.85c.396.397-11.047 13.338-18.754 21.204-19.289 19.686-38.412 35.121-62.101 50.15-2.964 1.88-5.673 3.58-6.028 3.788-.65.38.21-.598 10.612-11.93 6.554-7.142 11.571-13.07 17.267-20.47 3.752-4.874 4.468-5.558 9.963-9.524 14.803-10.685 48.647-33.61 49.04-33.217z" transform="translate(-29.397 -82.923) scale(.5693)" fill="url(#f)"/></svg>