<svg xmlns="http://www.w3.org/2000/svg" width="512" height="512" fill="none"><g fill="#9B6DD5" clip-path="url(#a)"><path fill-rule="evenodd" d="M480 148c0-6.627-5.373-12-12-12H322c-6.627 0-12 5.373-12 12v24c0 6.627 5.373 12 12 12h146c6.627 0 12-5.373 12-12zm0 96c0-6.627-5.373-12-12-12H322c-6.627 0-12 5.373-12 12v24c0 6.627 5.373 12 12 12h146c6.627 0 12-5.373 12-12zm0 96c0-6.627-5.373-12-12-12H322c-6.627 0-12 5.373-12 12v24c0 6.627 5.373 12 12 12h146c6.627 0 12-5.373 12-12z" clip-rule="evenodd"/><path d="M438 76c0 6.627-5.373 12-12 12H309.783c-17.673 0-32 14.327-32 32v56c0 26.978-10.272 51.557-27.119 70.039-5.055 5.545-5.055 14.377 0 19.922 16.847 18.482 27.119 43.061 27.119 70.039v56c0 17.673 14.327 32 32 32H426c6.627 0 12 5.373 12 12v24c0 6.627-5.373 12-12 12H309.783c-44.183 0-80-35.817-80-80v-56c0-30.928-25.072-56-56-56a5.783 5.783 0 0 1-5.783-5.783v-36.434a5.783 5.783 0 0 1 5.783-5.783c30.928 0 56-25.072 56-56v-56c0-44.183 35.817-80 80-80H426c6.627 0 12 5.373 12 12z"/><path fill-rule="evenodd" d="M136 244c0-6.627-5.373-12-12-12H12c-6.627 0-12 5.373-12 12v24c0 6.627 5.373 12 12 12h112c6.627 0 12-5.373 12-12z" clip-rule="evenodd"/></g><defs><clipPath id="a"><path fill="#fff" d="M512 0H0v512h512z"/></clipPath></defs></svg>