<svg width="512" height="512" viewBox="0 0 512 512" fill="none" xmlns="http://www.w3.org/2000/svg">
<path fill-rule="evenodd" clip-rule="evenodd" d="M512 148C512 141.373 506.627 136 500 136L340 136C333.373 136 328 141.373 328 148L328 172C328 178.627 333.373 184 340 184L500 184C506.627 184 512 178.627 512 172L512 148Z" fill="#6E29C4" fill-opacity="0.666667"/>
<path fill-rule="evenodd" clip-rule="evenodd" d="M512 244C512 237.373 506.627 232 500 232L340 232C333.373 232 328 237.373 328 244L328 268C328 274.627 333.373 280 340 280L500 280C506.627 280 512 274.627 512 268L512 244Z" fill="#6E29C4" fill-opacity="0.666667"/>
<path fill-rule="evenodd" clip-rule="evenodd" d="M512 340C512 333.373 506.627 328 500 328L340 328C333.373 328 328 333.373 328 340L328 364C328 370.627 333.373 376 340 376L500 376C506.627 376 512 370.627 512 364L512 340Z" fill="#6E29C4" fill-opacity="0.666667"/>
<path d="M420 76C420 82.6274 414.627 88 408 88H311.783C294.11 88 279.783 102.327 279.783 120V176C279.783 202.978 269.511 227.557 252.664 246.039C247.609 251.584 247.609 260.416 252.664 265.961C269.511 284.443 279.783 309.022 279.783 336V392C279.783 409.673 294.11 424 311.783 424H408C414.627 424 420 429.373 420 436V460C420 466.627 414.627 472 408 472H311.783C267.6 472 231.783 436.183 231.783 392V336C231.783 305.072 206.711 280 175.783 280V280C172.589 280 170 277.411 170 274.217V237.783C170 234.589 172.589 232 175.783 232V232C206.711 232 231.783 206.928 231.783 176V120C231.783 75.8172 267.6 40 311.783 40H408C414.627 40 420 45.3726 420 52V76Z" fill="#6E29C4" fill-opacity="0.666667"/>
<path fill-rule="evenodd" clip-rule="evenodd" d="M122 244C122 237.373 116.627 232 110 232L12 232C5.3726 232 1.70965e-05 237.373 1.44384e-05 244L4.81281e-06 268C2.15477e-06 274.627 5.37258 280 12 280L110 280C116.627 280 122 274.627 122 268L122 244Z" fill="#6E29C4" fill-opacity="0.666667"/>
</svg>
