<svg width="200" height="200" viewBox="0 0 200 200" fill="none" xmlns="http://www.w3.org/2000/svg">
<g clip-path="url(#clip0_90_103)">
<rect width="200" height="200" fill="#009E5C"/>
<rect x="-5" y="52.085" width="91.4266" height="1.71855" fill="white"/>
<rect x="-5" y="66.1768" width="91.4266" height="3.43709" fill="white"/>
<rect x="-5" y="79.9238" width="91.4266" height="6.87418" fill="white"/>
<rect x="-5" y="94.0186" width="91.4266" height="10.3113" fill="white"/>
<rect x="-5" y="107.767" width="91.4266" height="14.0921" fill="white"/>
<rect x="-5" y="121.857" width="91.4266" height="10.3113" fill="white"/>
<rect x="-5" y="135.605" width="91.4266" height="10.3113" fill="white"/>
<path d="M84.5195 146V52H125.821C132.726 52 138.703 53.1474 143.749 55.4423C148.884 57.7371 152.824 61.0028 155.568 65.2394C158.313 69.3878 159.685 74.3305 159.685 80.0676C159.685 84.3925 158.756 88.2319 156.896 91.5859C155.126 94.9399 152.647 97.6761 149.459 99.7944C146.361 101.913 142.775 103.237 138.703 103.766L138.304 102.575C144.59 102.575 149.371 103.943 152.647 106.679C155.922 109.327 157.782 113.431 158.224 118.992L160.615 146H140.031L138.304 122.169C138.039 118.55 136.888 115.902 134.851 114.225C132.904 112.46 129.539 111.577 124.758 111.577H104.705V146H84.5195ZM104.705 94.7634H123.563C128.433 94.7634 132.195 93.6601 134.851 91.4535C137.596 89.1587 138.968 85.9371 138.968 81.7887C138.968 77.5521 137.596 74.3746 134.851 72.2563C132.107 70.0498 128.123 68.9465 122.899 68.9465H104.705V94.7634Z" fill="white"/>
</g>
<defs>
<clipPath id="clip0_90_103">
<rect width="200" height="200" fill="white"/>
</clipPath>
</defs>
</svg>
