<svg id="SvgjsSvg1001" width="112.90697479248047" height="112.90697479248047" xmlns="http://www.w3.org/2000/svg" version="1.1" xmlns:xlink="http://www.w3.org/1999/xlink" xmlns:svgjs="http://svgjs.com/svgjs" viewBox="0 0 112.90697479248047 112.90697479248047"><defs id="SvgjsDefs1002"></defs><rect id="SvgjsRect1008" width="112.90697479248047" height="112.90697479248047" fill="transparent"></rect><g id="SvgjsG1009" transform="matrix(1,0,0,1,-20.682205200195312,-26.04399299621582)"><title>0479_octopus_verti</title><path id="color_1" d="M97.24234,109.8245a2.57759,2.57759,0,0,1-2.57778,2.57778,9.80672,9.80672,0,0,1-9.79558-9.79557V91.58366a2.57779,2.57779,0,0,1,5.15557,0v11.02305a4.64509,4.64509,0,0,0,4.64,4.64A2.57759,2.57759,0,0,1,97.24234,109.8245ZM112.19348,93.223a2.57759,2.57759,0,0,0-2.57778,2.57779,4.64,4.64,0,1,1-9.28,0V73.73554a23.2,23.2,0,1,0-46.40009,0V95.80076a4.64,4.64,0,1,1-9.28,0,2.57779,2.57779,0,1,0-5.15557,0,9.79558,9.79558,0,0,0,19.59115,0V73.73554a18.04449,18.04449,0,0,1,36.089,0V95.80076a9.79558,9.79558,0,0,0,19.59115,0A2.57759,2.57759,0,0,0,112.19348,93.223ZM77.13563,91.78a2.57759,2.57759,0,0,0-2.57778,2.57778v17.52893a2.57779,2.57779,0,0,0,5.15557,0V94.3578A2.57759,2.57759,0,0,0,77.13563,91.78ZM66.8245,89.00588a2.57759,2.57759,0,0,0-2.57778,2.57778v11.02305a4.64509,4.64509,0,0,1-4.64,4.64,2.57778,2.57778,0,1,0,0,5.15556,9.80671,9.80671,0,0,0,9.79557-9.79557V91.58366A2.57759,2.57759,0,0,0,66.8245,89.00588ZM69.918,70.12639a3.6089,3.6089,0,1,0,3.6089,3.6089A3.60891,3.60891,0,0,0,69.918,70.12639Zm18.04448,3.6089a3.6089,3.6089,0,1,0-3.60889,3.60889A3.60891,3.60891,0,0,0,87.96251,73.73529Z" fill="#000000"></path></g></svg>