<?xml version="1.0" encoding="utf-8"?>
<!-- Generator: Adobe Illustrator 24.2.1, SVG Export Plug-In . SVG Version: 6.00 Build 0)  -->
<svg version="1.1" id="Capa_1" xmlns="http://www.w3.org/2000/svg" xmlns:xlink="http://www.w3.org/1999/xlink" x="0px" y="0px"
	 viewBox="0 0 55.4 55.4" style="enable-background:new 0 0 55.4 55.4;" xml:space="preserve">
<style type="text/css">
	.st0{fill:#EF7D00;}
	.st1{opacity:0.3;fill:url(#SVGID_1_);}
	.st2{fill:#FFFFFF;}
</style>
<g>
	<path class="st0" d="M37.5,55.4l-19.5,0c-9.8,0-17.9-8-17.9-17.9L0,18C0,8.1,8,0.1,17.9,0l19.5,0c9.8,0,17.9,8,17.9,17.9l0,19.5
		C55.4,47.3,47.4,55.3,37.5,55.4z"/>
	
		<linearGradient id="SVGID_1_" gradientUnits="userSpaceOnUse" x1="18.4053" y1="11.9737" x2="39.8015" y2="33.3699" gradientTransform="matrix(1 -2.099584e-03 2.099584e-03 1 -5.3642 1.1925)">
		<stop  offset="0" style="stop-color:#FFFFFF"/>
		<stop  offset="0.1436" style="stop-color:#FEE5CD"/>
		<stop  offset="0.3163" style="stop-color:#FBC895"/>
		<stop  offset="0.483" style="stop-color:#F7AE65"/>
		<stop  offset="0.6388" style="stop-color:#F4993F"/>
		<stop  offset="0.7815" style="stop-color:#F18923"/>
		<stop  offset="0.9064" style="stop-color:#F0800B"/>
		<stop  offset="1" style="stop-color:#EF7D00"/>
	</linearGradient>
	<path class="st1" d="M37.1,54.3l-18.8,0c-9.5,0-17.2-7.7-17.2-17.2l0-18.8c0-9.5,7.7-17.2,17.2-17.2l18.8,0
		c9.5,0,17.2,7.7,17.2,17.2l0,18.8C54.3,46.5,46.6,54.2,37.1,54.3z"/>
</g>
<g>
	<path class="st2" d="M35.9,41c-0.7,0-1.2-0.2-1.6-0.5c-0.4-0.3-0.6-0.8-0.6-1.4c0-0.3,0-0.6,0.1-0.8l3.4-15.6H36
		c-2.9,0-5.4,2-6,4.9l-2.3,10.9c-0.1,0.7-0.2,1.3-0.2,1.8c0,1.7,0.6,3,1.7,3.9c1.1,0.9,2.7,1.4,4.6,1.4c1.2,0,2.3-0.2,3.3-0.5
		l0.6-4.4C37.2,40.9,36.6,41,35.9,41z"/>
	<path class="st2" d="M27.8,22.9c0.4-1.9-0.9-3.7-3-3.7c0-1.6,0.8-2.8,1.4-3.4c2.2-1.9,6.4-0.4,6.5,2.6h4.8
		c-0.1-4.6-4.1-7.9-8.6-8.1c-2.3-0.1-8.3,0.1-9.9,7.7l-0.3,1.3h-3.1l-0.9,4.3h3.1l-3.5,16.8h6.2L24,23.6h3.6L27.8,22.9z"/>
</g>
</svg>
