<svg width="256" height="252" viewBox="0 0 256 252" fill="none" xmlns="http://www.w3.org/2000/svg">
<path fill-rule="evenodd" clip-rule="evenodd" d="M5.92229 66.5935C2.25585 68.7252 0 72.6464 0 76.8877V170.727C0 174.968 2.25585 178.889 5.92229 181.021L128 252V251.628L250.078 180.649C253.744 178.517 256 174.596 256 170.354V80.3852C256 75.794 251.023 72.9305 247.054 75.2381L133.922 141.016C130.256 143.148 128 147.069 128 151.31V168.647L9.92004 99.9919L128 31.3372V5.96275C128 1.37149 123.023 -1.49202 119.054 0.815636L5.92229 66.5935ZM165.946 152.529C165.029 153.062 164.465 154.043 164.465 155.103V162.711C164.465 163.858 165.709 164.574 166.702 163.997L226.985 128.947C227.901 128.414 228.465 127.434 228.465 126.374V118.766C228.465 117.618 227.221 116.902 226.229 117.479L165.946 152.529Z" fill="#335BF1"/>
<path d="M85.3333 126.503C85.3333 122.261 87.5891 118.34 91.2556 116.209L204.388 50.4307C208.357 48.123 213.333 50.9865 213.333 55.5778V80.9522L85.3333 155.375V126.503Z" fill="#335BF1"/>
<path d="M42.6666 101.695C42.6666 97.454 44.9225 93.5328 48.5889 91.401L161.721 25.6232C165.69 23.3155 170.667 26.1791 170.667 30.7703V56.1447L42.6666 130.567V101.695Z" fill="#335BF1"/>
</svg>
