<?xml version="1.0" encoding="UTF-8"?>
<svg version="1.1" xmlns="http://www.w3.org/2000/svg" width="2000" height="2000">
<path d="M0 0 C2.12099975 -0.00134878 4.24199925 -0.00313387 6.36299831 -0.00531223 C12.17760801 -0.01002179 17.99220198 -0.00854722 23.80681244 -0.00603446 C30.13811331 -0.00439686 36.46941087 -0.00854598 42.80071068 -0.01194364 C53.89289524 -0.01709173 64.98507534 -0.01855069 76.07726097 -0.01748753 C87.9744599 -0.01636158 99.87165569 -0.01740233 111.76885414 -0.02105999 C112.5213985 -0.02128964 113.27394287 -0.0215193 114.04929161 -0.02175591 C117.11450241 -0.02269759 120.17971321 -0.02365328 123.244924 -0.0246271 C155.19233776 -0.03476188 187.13974976 -0.03783273 219.08716494 -0.03841921 C222.5240498 -0.03848396 225.96093466 -0.0385519 229.39781952 -0.03862262 C230.25072711 -0.03863962 231.1036347 -0.03865663 231.98238797 -0.03867415 C250.89677613 -0.03908289 269.81116395 -0.04127375 288.72555194 -0.04377846 C296.51792802 -0.04480684 304.31030412 -0.04579689 312.10268021 -0.04679471 C312.96371471 -0.0469053 313.82474921 -0.04701589 314.71187566 -0.04712983 C364.04275489 -0.05345251 413.3736339 -0.0575791 462.70451355 -0.05712128 C464.55000511 -0.0571055 466.39549667 -0.05708976 468.24098822 -0.05707407 C476.5729182 -0.05700069 484.90484818 -0.05691252 493.23677815 -0.05682018 C496.95206957 -0.05677906 500.66736098 -0.05673891 504.38265239 -0.05669887 C506.242221 -0.05667848 508.1017896 -0.05665746 509.9613582 -0.05663581 C568.75575077 -0.05595565 627.55013732 -0.06327201 686.3445282 -0.07717609 C701.15738931 -0.08067724 715.97025042 -0.08414676 730.78311157 -0.08744049 C731.69525344 -0.08764336 732.60739532 -0.08784624 733.54717785 -0.08805526 C761.67038821 -0.09427243 789.79359807 -0.09803624 817.91680908 -0.09929848 C819.24168585 -0.0993584 819.24168585 -0.0993584 820.5933278 -0.09941954 C839.98496415 -0.10027291 859.37660048 -0.10053398 878.76823685 -0.10024916 C885.70731136 -0.10015268 892.64638587 -0.10010064 899.58546038 -0.10007043 C901.31165886 -0.10006252 903.03785735 -0.10005232 904.76405584 -0.10003981 C932.24163197 -0.09986366 959.71920293 -0.10555432 987.19677758 -0.11419363 C1014.88008965 -0.12285337 1042.56339457 -0.12502641 1070.24670742 -0.1184323 C1074.07750859 -0.11752009 1077.90830976 -0.11667679 1081.73911095 -0.11587429 C1082.49000371 -0.1157142 1083.24089646 -0.11555412 1084.01454355 -0.11538918 C1095.87294636 -0.11304215 1107.73133676 -0.11737988 1119.58973724 -0.12454548 C1131.26869674 -0.13146128 1142.94763421 -0.13099706 1154.62659379 -0.12335334 C1160.86612229 -0.11947361 1167.10560706 -0.11869115 1173.34513247 -0.12681069 C1179.03466646 -0.13414944 1184.72412073 -0.13208338 1190.41365131 -0.12288683 C1192.44628392 -0.12118218 1194.47892296 -0.12273845 1196.51154897 -0.12818803 C1207.19494805 -0.15488514 1217.78610443 0.15065001 1228.43831444 1.00747126 C1229.39939994 1.08340926 1230.36048545 1.15934727 1231.35069475 1.23758642 C1269.72691551 4.62295352 1307.6750227 20.99053308 1336.77958679 46.12863445 C1337.5594696 46.79894695 1338.33935242 47.46925945 1339.14286804 48.15988445 C1341.73217854 50.43946882 1344.26282423 52.76916956 1346.77958679 55.12863445 C1347.5201532 55.81820232 1347.5201532 55.81820232 1348.27568054 56.52170086 C1378.28645255 84.68954204 1397.2666202 122.90750197 1404.77958679 163.12863445 C1404.99357117 164.23465008 1405.20755554 165.3406657 1405.42802429 166.48019695 C1409.77861117 192.39456224 1407.93398013 219.81471324 1407.93679219 245.99428321 C1407.93853751 251.99446692 1407.9460317 257.99464407 1407.95276874 263.99482387 C1407.96377554 274.49096592 1407.97121012 284.98710625 1407.97616768 295.48325253 C1407.98150043 306.73324174 1407.98900114 317.98322649 1407.99909592 329.23321247 C1408.00005387 330.30290478 1408.00005387 330.30290478 1408.00103117 331.39420703 C1408.00429797 335.03107132 1408.00759956 338.66793556 1408.01091343 342.3047998 C1408.03476905 368.56343872 1408.0539089 394.82207935 1408.07051277 421.08072376 C1408.08696039 447.07020107 1408.10544785 473.05967563 1408.12664604 499.04914951 C1408.12730444 499.85748767 1408.12796283 500.66582582 1408.12864118 501.49865907 C1408.13465604 508.88202072 1408.14069588 516.26538234 1408.14676568 523.64874395 C1408.16185151 541.99964268 1408.1766242 560.35054166 1408.19118404 578.70144081 C1408.19217875 579.95467038 1408.19217875 579.95467038 1408.19319355 581.23321772 C1408.22539229 621.83482947 1408.25398242 662.43644365 1408.28227234 703.03805828 C1408.29208662 717.12059818 1408.30191689 731.20313807 1408.31181335 745.28567791 C1408.31242715 746.15912654 1408.31304095 747.03257516 1408.31367335 747.93249193 C1408.34225089 788.56779675 1408.3733987 829.20309949 1408.40520587 869.8384019 C1408.4072718 872.47779337 1408.40933662 875.11718483 1408.41140122 877.7565763 C1408.42508565 895.24855695 1408.4388143 912.74053756 1408.45257256 930.23251815 C1408.47994564 965.03461812 1408.50705897 999.83671828 1408.53399374 1034.63881859 C1408.53527633 1036.2960335 1408.5365591 1037.95324842 1408.53784205 1039.61046333 C1408.59556621 1114.17584477 1408.65026935 1188.74122831 1408.70365906 1263.30661297 C1408.7041588 1264.00453628 1408.70465854 1264.70245959 1408.70517342 1265.4215321 C1408.73016257 1300.32389942 1408.75497908 1335.22626686 1408.77958679 1370.12863445 C1409.87739471 1370.74134197 1410.97520264 1371.35404949 1412.10627747 1371.98532391 C1413.5613929 1372.79993636 1415.01645821 1373.61463836 1416.47148132 1374.4294157 C1417.19330093 1374.83196575 1417.91512054 1375.2345158 1418.65881348 1375.64926434 C1423.84827287 1378.55851514 1428.83375129 1381.63625571 1433.65458679 1385.12863445 C1434.36091248 1385.63354412 1435.06723816 1386.13845379 1435.79496765 1386.65866375 C1441.48251211 1390.78361716 1446.67373185 1395.30539141 1451.77958679 1400.12863445 C1453.08834699 1401.23723133 1454.40075038 1402.3415442 1455.71708679 1403.44113445 C1490.4807653 1433.94661138 1510.61542169 1482.02224907 1513.61943054 1527.57394695 C1516.173049 1584.25182011 1496.329795 1633.18986125 1458.44364929 1674.6872282 C1426.96163891 1707.51512378 1378.98461406 1728.35895189 1333.67411804 1729.33175945 C1282.04227633 1729.83654449 1233.79200891 1715.2435979 1195.77958679 1679.12863445 C1194.41027461 1677.95529722 1193.03566892 1676.78809479 1191.65458679 1675.62863445 C1174.77744334 1660.83551074 1162.6941999 1641.02229565 1152.77958679 1621.12863445 C1151.750106 1621.12839025 1150.7206252 1621.12814605 1149.65994802 1621.12789445 C1114.40873039 1621.1195021 1079.15751301 1621.11022245 1043.90629578 1621.10031414 C1042.84100223 1621.10001483 1042.84100223 1621.10001483 1041.75418759 1621.09970947 C965.63635312 1621.07829836 889.5185234 1621.05104506 813.4006958 1621.01199627 C811.70937018 1621.01113009 810.01804456 1621.01026392 808.32671894 1621.00939776 C772.82313559 1620.99119778 737.31955271 1620.97217711 701.81597031 1620.95220875 C683.98059308 1620.94217844 666.14521577 1620.93230578 648.30983837 1620.92258221 C645.61948662 1620.92111455 642.92913487 1620.9196424 640.23878313 1620.91817005 C598.82507838 1620.89554533 557.41137545 1620.87629586 515.99766541 1620.86685467 C515.10764765 1620.8666517 514.2176299 1620.86644874 513.30064191 1620.86623962 C498.95147982 1620.86298792 484.60231766 1620.86002022 470.2531555 1620.85709023 C428.90882579 1620.84864369 387.56450145 1620.83808724 346.22017765 1620.81365108 C345.36944791 1620.81314929 344.51871817 1620.8126475 343.64220874 1620.8121305 C324.96384195 1620.80107558 306.28547603 1620.78894129 287.6071106 1620.77578586 C280.09085766 1620.77051107 272.57460461 1620.76539157 265.05835152 1620.76032543 C264.23574515 1620.75976723 263.41313878 1620.75920903 262.56560494 1620.75863391 C236.08833756 1620.74074417 209.61108625 1620.73548074 183.13381342 1620.73688071 C156.44851306 1620.73823363 129.76324904 1620.72711994 103.07796274 1620.69883211 C99.38490235 1620.69492037 95.69184183 1620.69115063 91.9987812 1620.68746662 C91.27487713 1620.68673935 90.55097306 1620.68601209 89.8051325 1620.68526278 C78.37229967 1620.67414392 66.93951056 1620.67637948 55.50667669 1620.68427631 C44.24657112 1620.69177642 32.98654774 1620.68459961 21.72645352 1620.66314216 C15.7102906 1620.65208956 9.69430495 1620.64722613 3.67814165 1620.66012201 C-1.80779854 1620.67175627 -7.29340007 1620.66465207 -12.77930826 1620.64333376 C-14.73936089 1620.63887094 -16.69944357 1620.64091258 -18.65947678 1620.65071369 C-71.45274045 1620.89486068 -119.92362703 1598.06651043 -157.22041321 1561.50363445 C-207.05021206 1511.51937985 -213.55502945 1448.97263176 -213.47734832 1382.07709285 C-213.47223873 1375.7552119 -213.47880897 1369.4333407 -213.48383498 1363.11146116 C-213.49103478 1352.04974109 -213.49092173 1340.98804097 -213.48574066 1329.92632008 C-213.48022064 1318.06837454 -213.47909146 1306.21044047 -213.48321533 1294.35249424 C-213.48347368 1293.60101201 -213.48373202 1292.84952978 -213.4839982 1292.07527536 C-213.48506485 1289.0141514 -213.48616228 1285.95302746 -213.48729875 1282.89190353 C-213.49785471 1254.43878345 -213.49860488 1225.98567105 -213.49300385 1197.53254986 C-213.49283825 1196.69093898 -213.49267266 1195.84932811 -213.49250205 1194.98221388 C-213.4923362 1194.13924224 -213.49217034 1193.29627061 -213.49199945 1192.42775439 C-213.48694681 1166.71363133 -213.48565321 1140.99951144 -213.48804474 1115.28538799 C-213.4881997 1113.56135601 -213.48835401 1111.83732403 -213.48850768 1110.11329204 C-213.48912865 1103.184576 -213.48976599 1096.25585995 -213.49042721 1089.32714391 C-213.49226094 1069.96026662 -213.49340235 1050.59338932 -213.49399948 1031.22651196 C-213.49402677 1030.34469718 -213.49405406 1029.4628824 -213.49408218 1028.55434597 C-213.49490036 1000.46911025 -213.49264893 972.38387563 -213.48830032 944.29864025 C-213.48815983 943.38814174 -213.48801933 942.47764322 -213.48787457 941.53955385 C-213.48558486 926.75500835 -213.48314585 911.97046287 -213.48069422 897.18591739 C-213.47098206 838.55402705 -213.47143285 779.92214585 -213.4811554 721.29025555 C-213.48359791 706.51304659 -213.48602007 691.73583764 -213.48830032 676.95862865 C-213.48851167 675.59367344 -213.48851167 675.59367344 -213.48872728 674.20114338 C-213.49304167 646.14434776 -213.49486782 618.08755289 -213.49399948 590.03075695 C-213.49397231 589.14959525 -213.49394514 588.26843355 -213.49391715 587.36056999 C-213.49329211 568.01496512 -213.49202466 548.66936034 -213.49017848 529.32375556 C-213.48952023 522.4013505 -213.48889407 515.47894543 -213.48827705 508.55654037 C-213.48812228 506.83453312 -213.48796481 505.11252588 -213.48780466 503.39051864 C-213.48542053 477.68536276 -213.48744443 451.98021046 -213.49250205 426.27505503 C-213.49266765 425.43344416 -213.49283324 424.59183328 -213.49300385 423.72471905 C-213.49316921 422.88467072 -213.49333457 422.04462239 -213.49350495 421.17911806 C-213.49902923 392.80562414 -213.49697628 364.43213941 -213.48644236 336.0586468 C-213.48533772 333.0073561 -213.48426431 329.95606539 -213.48321533 326.90477467 C-213.48295492 326.15597045 -213.4826945 325.40716624 -213.4824262 324.63567099 C-213.4784925 312.81339222 -213.48121604 300.99112494 -213.48675334 289.16884721 C-213.49206412 277.52395008 -213.48998307 265.87907606 -213.48072517 254.23418087 C-213.47598061 248.01375681 -213.47431379 241.79337595 -213.48153713 235.57295328 C-213.54612288 175.28240685 -208.49285836 118.91333017 -167.22041321 71.12863445 C-166.55010071 70.34875164 -165.87978821 69.56886883 -165.18916321 68.7653532 C-162.90957884 66.1760427 -160.57987811 63.64539701 -158.22041321 61.12863445 C-157.76070129 60.63492352 -157.30098938 60.14121258 -156.8273468 59.6325407 C-115.37651069 15.46971033 -58.86997575 -0.0650879 0 0 Z " fill="#FEFEFE" transform="translate(350.2204132080078,135.87136554718018)"/>
<path d="M0 0 C2.12099975 -0.00134878 4.24199925 -0.00313387 6.36299831 -0.00531223 C12.17760801 -0.01002179 17.99220198 -0.00854722 23.80681244 -0.00603446 C30.13811331 -0.00439686 36.46941087 -0.00854598 42.80071068 -0.01194364 C53.89289524 -0.01709173 64.98507534 -0.01855069 76.07726097 -0.01748753 C87.9744599 -0.01636158 99.87165569 -0.01740233 111.76885414 -0.02105999 C112.5213985 -0.02128964 113.27394287 -0.0215193 114.04929161 -0.02175591 C117.11450241 -0.02269759 120.17971321 -0.02365328 123.244924 -0.0246271 C155.19233776 -0.03476188 187.13974976 -0.03783273 219.08716494 -0.03841921 C222.5240498 -0.03848396 225.96093466 -0.0385519 229.39781952 -0.03862262 C230.25072711 -0.03863962 231.1036347 -0.03865663 231.98238797 -0.03867415 C250.89677613 -0.03908289 269.81116395 -0.04127375 288.72555194 -0.04377846 C296.51792802 -0.04480684 304.31030412 -0.04579689 312.10268021 -0.04679471 C312.96371471 -0.0469053 313.82474921 -0.04701589 314.71187566 -0.04712983 C364.04275489 -0.05345251 413.3736339 -0.0575791 462.70451355 -0.05712128 C464.55000511 -0.0571055 466.39549667 -0.05708976 468.24098822 -0.05707407 C476.5729182 -0.05700069 484.90484818 -0.05691252 493.23677815 -0.05682018 C496.95206957 -0.05677906 500.66736098 -0.05673891 504.38265239 -0.05669887 C506.242221 -0.05667848 508.1017896 -0.05665746 509.9613582 -0.05663581 C568.75575077 -0.05595565 627.55013732 -0.06327201 686.3445282 -0.07717609 C701.15738931 -0.08067724 715.97025042 -0.08414676 730.78311157 -0.08744049 C731.69525344 -0.08764336 732.60739532 -0.08784624 733.54717785 -0.08805526 C761.67038821 -0.09427243 789.79359807 -0.09803624 817.91680908 -0.09929848 C819.24168585 -0.0993584 819.24168585 -0.0993584 820.5933278 -0.09941954 C839.98496415 -0.10027291 859.37660048 -0.10053398 878.76823685 -0.10024916 C885.70731136 -0.10015268 892.64638587 -0.10010064 899.58546038 -0.10007043 C901.31165886 -0.10006252 903.03785735 -0.10005232 904.76405584 -0.10003981 C932.24163197 -0.09986366 959.71920293 -0.10555432 987.19677758 -0.11419363 C1014.88008965 -0.12285337 1042.56339457 -0.12502641 1070.24670742 -0.1184323 C1074.07750859 -0.11752009 1077.90830976 -0.11667679 1081.73911095 -0.11587429 C1082.49000371 -0.1157142 1083.24089646 -0.11555412 1084.01454355 -0.11538918 C1095.87294636 -0.11304215 1107.73133676 -0.11737988 1119.58973724 -0.12454548 C1131.26869674 -0.13146128 1142.94763421 -0.13099706 1154.62659379 -0.12335334 C1160.86612229 -0.11947361 1167.10560706 -0.11869115 1173.34513247 -0.12681069 C1179.03466646 -0.13414944 1184.72412073 -0.13208338 1190.41365131 -0.12288683 C1192.44628392 -0.12118218 1194.47892296 -0.12273845 1196.51154897 -0.12818803 C1207.19494805 -0.15488514 1217.78610443 0.15065001 1228.43831444 1.00747126 C1229.39939994 1.08340926 1230.36048545 1.15934727 1231.35069475 1.23758642 C1269.72691551 4.62295352 1307.6750227 20.99053308 1336.77958679 46.12863445 C1337.5594696 46.79894695 1338.33935242 47.46925945 1339.14286804 48.15988445 C1341.73217854 50.43946882 1344.26282423 52.76916956 1346.77958679 55.12863445 C1347.5201532 55.81820232 1347.5201532 55.81820232 1348.27568054 56.52170086 C1378.10407244 84.51836171 1397.65948973 122.99016595 1404.77958679 163.12863445 C1404.94766843 164.07165853 1405.11575008 165.0146826 1405.2889251 165.98628316 C1406.88918367 175.9220651 1407.05794398 185.59951189 1407.02568245 195.63997746 C1407.02716429 197.48963038 1407.02952417 199.33928277 1407.03267545 201.18893361 C1407.03878544 206.25932097 1407.03248672 211.32962752 1407.02411918 216.40000883 C1407.0172283 221.92070277 1407.02199665 227.44138884 1407.02527416 232.96208441 C1407.02941595 242.63342511 1407.02614379 252.30474116 1407.01799774 261.97607899 C1407.00591859 276.35696045 1407.00532362 290.73782899 1407.00708172 305.11871424 C1407.0098939 329.31063818 1407.00304482 353.5025516 1406.99104691 377.69447231 C1406.97919605 401.64717314 1406.97149554 425.59986946 1406.96934128 449.5525732 C1406.96927245 450.29685885 1406.96920363 451.04114449 1406.96913272 451.80798424 C1406.96850631 458.60603495 1406.96793093 465.40408567 1406.96741677 472.20213639 C1406.96613809 489.10021082 1406.96421952 505.99828514 1406.96186638 522.89635944 C1406.96175974 523.66580201 1406.96165311 524.43524458 1406.96154324 525.22800359 C1406.95630207 562.64344994 1406.94368772 600.05889333 1406.9304657 637.47433758 C1406.92588232 650.45592528 1406.92133156 663.437513 1406.91691589 676.41910076 C1406.91650505 677.62680417 1406.91650505 677.62680417 1406.9160859 678.85890563 C1406.90339423 716.29809239 1406.89594543 753.73727966 1406.8898463 791.176468 C1406.88945018 793.60749435 1406.88905179 796.03852071 1406.88865294 798.46954706 C1406.88601335 814.58028729 1406.88346406 830.69102753 1406.88097523 846.80176778 C1406.87602241 878.85726208 1406.87053906 910.91275628 1406.86469113 942.96825043 C1406.86441265 944.49476524 1406.86413454 946.02128005 1406.86385681 947.54779487 C1406.84907606 1028.76668436 1406.82536395 1109.98557084 1406.77958679 1252.12863445 C1403.88385366 1251.48641862 1400.98819376 1250.84387567 1398.09257507 1250.20114422 C1397.27601944 1250.02008381 1396.45946381 1249.8390234 1395.61816406 1249.65247631 C1391.66524672 1248.77480738 1387.71466842 1247.89037548 1383.77177429 1246.9684782 C1344.09827929 1238.06112653 1298.72255949 1237.79428616 1259.33427429 1248.25363445 C1256.24456458 1249.01417838 1253.91525811 1249.20391745 1250.77958679 1249.12863445 C1250.77918661 1248.25227602 1250.77878643 1247.37591759 1250.77837412 1246.47300284 C1250.73829996 1158.92769227 1250.69698446 1071.38238038 1250.62060547 960.27856731 C1250.61959984 958.83945459 1250.61859422 957.40034187 1250.6175886 955.96122915 C1250.5964666 925.75322097 1250.57472933 895.54521325 1250.55228142 865.33720603 C1250.54100557 850.16250151 1250.52984795 834.98779692 1250.5188021 819.81309224 C1250.5171352 817.52405937 1250.51546493 815.23502651 1250.51379451 812.94599364 C1250.48810521 777.70222889 1250.46494969 742.45846472 1250.44914246 707.21469402 C1250.44880259 706.45704387 1250.44846273 705.69939371 1250.44811257 704.91878446 C1250.44264844 692.70338604 1250.43739716 680.48798753 1250.43217413 668.27258902 C1250.41712513 633.0842356 1250.40049972 597.89588611 1250.37346363 562.70753956 C1250.37263064 561.62187651 1250.37263064 561.62187651 1250.37178082 560.51428088 C1250.35956111 544.62481922 1250.34653216 528.73535834 1250.33273722 512.84589798 C1250.32720067 506.45230098 1250.32178059 500.0587039 1250.31640053 493.66510677 C1250.3158089 492.96535988 1250.31521727 492.26561299 1250.31460771 491.54466165 C1250.29561014 469.00691393 1250.28608959 446.46917445 1250.28155084 423.93141954 C1250.27680603 400.59220614 1250.26150007 377.25302498 1250.23392113 353.91382502 C1250.21835057 340.45717979 1250.21113131 327.0005901 1250.2158175 313.54393636 C1250.21812818 304.55623283 1250.20960433 295.56858182 1250.19226268 286.58089483 C1250.18269042 281.45898675 1250.17783663 276.33719471 1250.18619116 271.21528183 C1250.19370583 266.55132483 1250.18734799 261.88759595 1250.17014612 257.2236665 C1250.16636881 255.55106263 1250.16754779 253.8784379 1250.17443078 252.20584393 C1250.27125841 226.65531391 1242.05341054 203.49906503 1224.3391571 184.69699383 C1209.32592147 169.5991501 1186.65914549 158.07855322 1165.06848559 157.99445525 C1163.95553774 157.99768696 1163.95553774 157.99768696 1162.82010609 158.00098395 C1162.01894675 157.99933317 1161.21778741 157.9976824 1160.39235052 157.99598159 C1157.69165937 157.99164716 1154.9910225 157.99446089 1152.29032993 157.99720669 C1150.33261288 157.9955575 1148.37489615 157.99347144 1146.41717997 157.99098659 C1141.00471681 157.98540433 1135.59226942 157.9860952 1130.1798043 157.98776418 C1124.3037059 157.98849342 1118.42761201 157.9834767 1112.55151552 157.97918916 C1102.24180226 157.97248155 1091.93209272 157.96951107 1081.6223774 157.96905422 C1070.55748332 157.9685521 1059.49259291 157.96590787 1048.42770004 157.96064663 C1047.72936116 157.9603165 1047.03102229 157.95998636 1046.31152162 157.95964622 C1043.46737398 157.95829625 1040.62322635 157.95693358 1037.77907872 157.95555412 C1004.09169647 157.93924414 970.40431491 157.93286449 936.71692937 157.92810625 C919.94389838 157.9257237 903.17086778 157.92202036 886.39783708 157.91806915 C832.60311017 157.90540382 778.80838329 157.89462016 725.01365491 157.89122869 C722.44206733 157.89106645 719.87047975 157.89090089 717.29889216 157.89073431 C712.14147452 157.89040051 706.98405688 157.89007003 701.82663924 157.88973975 C695.78846973 157.88935285 689.75030023 157.88896324 683.71213072 157.88856869 C681.98395297 157.88845627 680.25577523 157.88834485 678.52759748 157.88823443 C623.02587596 157.88468508 567.52416738 157.86960752 512.0224508 157.84629669 C472.14562826 157.82955513 432.26880817 157.81408 392.39198208 157.80956173 C391.57189127 157.80946824 390.75180046 157.80937476 389.90685841 157.80927844 C371.90368958 157.80725938 353.90052079 157.80610335 335.89735186 157.80574985 C329.45536929 157.80561368 323.01338672 157.80540469 316.57140415 157.8051566 C314.96878413 157.80509504 313.36616411 157.80503672 311.76354409 157.80498165 C286.22632539 157.80406183 260.6891202 157.7940935 235.15190595 157.77952416 C209.42829284 157.76490722 183.70469631 157.75986691 157.98107979 157.76794371 C154.42541425 157.76905907 150.86974869 157.77006973 147.3140831 157.77101803 C146.61708263 157.771208 145.92008215 157.77139796 145.20196046 157.77159369 C134.17125567 157.77432599 123.14058156 157.7669897 112.10988345 157.75544466 C101.25976977 157.74429851 90.40970136 157.74412844 79.55958703 157.75481485 C73.75693347 157.76022055 67.95438647 157.76087294 62.15174163 157.74830613 C56.87017151 157.73696313 51.5887946 157.73949621 46.30723115 157.7529732 C44.41105392 157.75540357 42.51486178 157.75283601 40.61870098 157.74457672 C14.30799206 157.63753079 -9.18541604 165.22869345 -28.65205383 183.56906414 C-43.9550845 198.78633685 -55.26518092 221.31831793 -55.35617777 243.09937455 C-55.35425957 243.83573136 -55.35234137 244.57208816 -55.35036504 245.33075881 C-55.35226428 246.13385317 -55.35416352 246.93694752 -55.35612032 247.76437807 C-55.3612747 250.45960845 -55.35933034 253.15478645 -55.3574276 255.85002041 C-55.35968434 257.80855548 -55.36237593 259.76709009 -55.36546344 261.72562402 C-55.37270162 267.13106676 -55.37369271 272.5364956 -55.37368621 277.94194252 C-55.37475513 283.8139839 -55.38154518 289.6860191 -55.38759291 295.55805707 C-55.39738106 305.85769212 -55.40341699 316.15732454 -55.40690994 326.45696354 C-55.41066509 337.50973451 -55.41653972 348.56250124 -55.42498779 359.61526966 C-55.42551889 360.31316352 -55.42604998 361.01105738 -55.42659717 361.73009954 C-55.42876389 364.57249857 -55.43094052 367.41489758 -55.43313111 370.25729659 C-55.45963234 404.71491763 -55.47519805 439.17254093 -55.48829399 473.63016931 C-55.49254442 484.80482522 -55.49711206 495.97948096 -55.50187731 507.15413666 C-55.52678639 565.70325952 -55.54884698 624.25238287 -55.56106769 682.80150988 C-55.56196506 687.08723106 -55.56287976 691.37295224 -55.56379542 695.65867342 C-55.56397704 696.50881972 -55.56415865 697.35896603 -55.56434577 698.23487434 C-55.56618842 706.8479713 -55.56805429 715.46106825 -55.56994386 724.0741652 C-55.57032191 725.80110896 -55.5706982 727.52805273 -55.57107274 729.25499649 C-55.58310071 784.7086441 -55.61278574 840.16226031 -55.65448785 895.61589313 C-55.68444328 935.46120957 -55.71206886 975.30651957 -55.72176552 1015.15184689 C-55.72196607 1015.97153578 -55.72216663 1016.79122468 -55.72237326 1017.63575263 C-55.72672418 1035.63137754 -55.72966972 1053.62700242 -55.73129977 1071.62262777 C-55.73197611 1078.86367675 -55.73283163 1086.1047257 -55.73373795 1093.34577465 C-55.73383204 1094.13825124 -55.73392614 1094.93072782 -55.73402308 1095.74721885 C-55.73713347 1121.25997455 -55.7556314 1146.77269027 -55.78208791 1172.28543158 C-55.80865531 1197.98985132 -55.81937009 1223.69422649 -55.80835193 1249.39865908 C-55.80683049 1252.95416817 -55.80548503 1256.5096773 -55.804245 1260.0651865 C-55.80399527 1260.76213572 -55.80374554 1261.45908494 -55.80348824 1262.17715384 C-55.79999933 1273.19300825 -55.81327733 1284.20877542 -55.83362273 1295.2246089 C-55.85330089 1306.06848658 -55.85459818 1316.91224033 -55.83789644 1327.75612348 C-55.82948527 1333.55199766 -55.82890081 1339.34757463 -55.8505079 1345.14342126 C-55.87003821 1350.42472076 -55.8661958 1355.70548713 -55.84435441 1360.98677287 C-55.84051641 1362.87720028 -55.84490801 1364.76766881 -55.85894143 1366.65804803 C-56.05061633 1394.28588785 -46.7613694 1419.2658866 -27.22041321 1439.12863445 C-7.57074735 1457.62692785 17.71016719 1463.45366822 43.98285294 1463.39034748 C45.71420665 1463.39353941 47.44555893 1463.39760412 49.17690879 1463.40245676 C53.92814838 1463.41325494 58.67931517 1463.41170015 63.43056269 1463.40810605 C68.60183358 1463.4063969 73.77308458 1463.41626578 78.94434714 1463.42466009 C88.0052654 1463.43777679 97.066165 1463.44351754 106.12709236 1463.44442081 C119.60033644 1463.4457974 133.07355282 1463.45858431 146.54678762 1463.47370856 C169.21140385 1463.49882735 191.87601529 1463.51470789 214.54064178 1463.52529049 C236.98223117 1463.53579718 259.42381171 1463.55042706 281.86539459 1463.57057095 C282.56263819 1463.57119493 283.25988179 1463.57181891 283.97825398 1463.5724618 C290.34660723 1463.57816321 296.71496043 1463.58391534 303.08331358 1463.58972833 C318.91351691 1463.60417741 334.74372075 1463.61799041 350.57392502 1463.6313715 C351.65517042 1463.63228623 351.65517042 1463.63228623 352.75825917 1463.63321944 C387.81272839 1463.66281987 422.86720176 1463.6850913 457.92167664 1463.70675945 C470.0846202 1463.71428179 482.24756374 1463.72183655 494.4105072 1463.72952557 C495.16486592 1463.73000241 495.91922464 1463.73047926 496.69644271 1463.73097056 C531.7722607 1463.7531873 566.84807405 1463.78061433 601.9238872 1463.80938328 C604.20135865 1463.81125116 606.4788301 1463.81311678 608.75630156 1463.81498195 C623.84936991 1463.82734624 638.94243818 1463.83980029 654.03550641 1463.85231444 C684.06632842 1463.87721316 714.09715084 1463.90158454 744.12797357 1463.92559357 C745.55808241 1463.92673692 746.98819125 1463.92788063 748.41830009 1463.92902472 C833.81552626 1463.99733836 919.21275978 1464.05480248 1033.77958679 1464.12863445 C1033.62868916 1465.73659553 1033.47499634 1467.34429447 1033.32011414 1468.95187664 C1033.23482452 1469.84719097 1033.14953491 1470.7425053 1033.06166077 1471.66495037 C1032.75512995 1474.34224487 1032.17848993 1476.79895731 1031.40458679 1479.37863445 C1029.88333912 1485.16534127 1028.97148609 1490.95992947 1028.15458679 1496.87863445 C1027.97017029 1498.18042645 1027.97017029 1498.18042645 1027.7820282 1499.50851727 C1025.93521325 1513.42203895 1025.54244485 1527.42301984 1025.52958679 1541.44113445 C1025.52857971 1542.21633434 1025.52757263 1542.99153423 1025.52653503 1543.79022503 C1025.54411795 1564.01497619 1027.52456909 1583.8096108 1032.17991638 1603.51333904 C1032.9351038 1606.80687857 1033.64041526 1610.11001112 1034.34599304 1613.41452312 C1034.74926819 1615.30167286 1034.74926819 1615.30167286 1035.16069031 1617.22694683 C1035.46704407 1618.6632822 1035.46704407 1618.6632822 1035.77958679 1620.12863445 C864.71081877 1620.24366029 864.71081877 1620.24366029 729.86395264 1620.29800701 C728.33923236 1620.29856481 726.81451209 1620.29912262 725.28979182 1620.29968043 C693.28301696 1620.31137206 661.27624186 1620.32223883 629.2694664 1620.33215317 C613.19055548 1620.33713461 597.11164462 1620.3422745 581.0327338 1620.34756422 C578.60734446 1620.34836122 576.18195512 1620.34915369 573.75656578 1620.34994597 C536.42467663 1620.36218077 499.0927927 1620.37780631 461.76091003 1620.40329266 C460.9587078 1620.40384025 460.15650557 1620.40438785 459.32999419 1620.40495204 C446.39674934 1620.41380113 433.46350469 1620.42293572 420.53026007 1620.43210821 C383.26239318 1620.45853492 345.99453033 1620.48283818 308.72665501 1620.49319363 C307.57620675 1620.49351484 307.57620675 1620.49351484 306.40251712 1620.49384254 C289.56263006 1620.49850643 272.72274295 1620.50208546 255.88285544 1620.50463838 C249.10625584 1620.50568482 242.32965628 1620.50688731 235.55305672 1620.50814342 C234.44057771 1620.50834399 234.44057771 1620.50834399 233.30562437 1620.5085486 C209.44009382 1620.51292874 185.57459318 1620.52999379 161.70907469 1620.55376329 C137.65299876 1620.57766419 113.59695181 1620.58901993 89.54086372 1620.5831304 C74.62259853 1620.57949202 59.70443548 1620.58655062 44.78618942 1620.61182463 C35.25955135 1620.62685997 25.73298393 1620.62726395 16.20634091 1620.61596171 C10.7839608 1620.6099419 5.36178505 1620.61010223 -0.06057287 1620.62816718 C-41.93516271 1620.75940336 -41.93516271 1620.75940336 -60.22041321 1616.12863445 C-61.13970454 1615.90016088 -62.05899588 1615.67168731 -63.00614453 1615.43629029 C-113.95736732 1602.60893704 -158.14986056 1570.20035197 -185.26191711 1525.12765789 C-211.85788258 1479.49283761 -213.53702398 1433.46711452 -213.47734832 1382.07709285 C-213.47223873 1375.7552119 -213.47880897 1369.4333407 -213.48383498 1363.11146116 C-213.49103478 1352.04974109 -213.49092173 1340.98804097 -213.48574066 1329.92632008 C-213.48022064 1318.06837454 -213.47909146 1306.21044047 -213.48321533 1294.35249424 C-213.48347368 1293.60101201 -213.48373202 1292.84952978 -213.4839982 1292.07527536 C-213.48506485 1289.0141514 -213.48616228 1285.95302746 -213.48729875 1282.89190353 C-213.49785471 1254.43878345 -213.49860488 1225.98567105 -213.49300385 1197.53254986 C-213.49283825 1196.69093898 -213.49267266 1195.84932811 -213.49250205 1194.98221388 C-213.4923362 1194.13924224 -213.49217034 1193.29627061 -213.49199945 1192.42775439 C-213.48694681 1166.71363133 -213.48565321 1140.99951144 -213.48804474 1115.28538799 C-213.4881997 1113.56135601 -213.48835401 1111.83732403 -213.48850768 1110.11329204 C-213.48912865 1103.184576 -213.48976599 1096.25585995 -213.49042721 1089.32714391 C-213.49226094 1069.96026662 -213.49340235 1050.59338932 -213.49399948 1031.22651196 C-213.49402677 1030.34469718 -213.49405406 1029.4628824 -213.49408218 1028.55434597 C-213.49490036 1000.46911025 -213.49264893 972.38387563 -213.48830032 944.29864025 C-213.48815983 943.38814174 -213.48801933 942.47764322 -213.48787457 941.53955385 C-213.48558486 926.75500835 -213.48314585 911.97046287 -213.48069422 897.18591739 C-213.47098206 838.55402705 -213.47143285 779.92214585 -213.4811554 721.29025555 C-213.48359791 706.51304659 -213.48602007 691.73583764 -213.48830032 676.95862865 C-213.48851167 675.59367344 -213.48851167 675.59367344 -213.48872728 674.20114338 C-213.49304167 646.14434776 -213.49486782 618.08755289 -213.49399948 590.03075695 C-213.49397231 589.14959525 -213.49394514 588.26843355 -213.49391715 587.36056999 C-213.49329211 568.01496512 -213.49202466 548.66936034 -213.49017848 529.32375556 C-213.48952023 522.4013505 -213.48889407 515.47894543 -213.48827705 508.55654037 C-213.48812228 506.83453312 -213.48796481 505.11252588 -213.48780466 503.39051864 C-213.48542053 477.68536276 -213.48744443 451.98021046 -213.49250205 426.27505503 C-213.49266765 425.43344416 -213.49283324 424.59183328 -213.49300385 423.72471905 C-213.49316921 422.88467072 -213.49333457 422.04462239 -213.49350495 421.17911806 C-213.49902923 392.80562414 -213.49697628 364.43213941 -213.48644236 336.0586468 C-213.48533772 333.0073561 -213.48426431 329.95606539 -213.48321533 326.90477467 C-213.48295492 326.15597045 -213.4826945 325.40716624 -213.4824262 324.63567099 C-213.4784925 312.81339222 -213.48121604 300.99112494 -213.48675334 289.16884721 C-213.49206412 277.52395008 -213.48998307 265.87907606 -213.48072517 254.23418087 C-213.47598061 248.01375681 -213.47431379 241.79337595 -213.48153713 235.57295328 C-213.54612288 175.28240685 -208.49285836 118.91333017 -167.22041321 71.12863445 C-166.55010071 70.34875164 -165.87978821 69.56886883 -165.18916321 68.7653532 C-162.90957884 66.1760427 -160.57987811 63.64539701 -158.22041321 61.12863445 C-157.76070129 60.63492352 -157.30098938 60.14121258 -156.8273468 59.6325407 C-115.37651069 15.46971033 -58.86997575 -0.0650879 0 0 Z " fill="#3B45E6" transform="translate(350.2204132080078,135.87136554718018)"/>
<path d="M0 0 C1.60707085 0.00056477 3.21414222 0.00024627 4.82121277 -0.00088501 C9.16568747 -0.00145695 13.51005089 0.01027158 17.85449982 0.02426291 C22.40152924 0.0367968 26.94856144 0.03794286 31.49560547 0.04031372 C40.097902 0.04652068 48.70014748 0.06292088 57.30242157 0.0830127 C67.09926963 0.10539611 76.89612017 0.11637127 86.69298744 0.12640357 C106.83832217 0.14728781 126.98361099 0.18244853 147.12890625 0.22705078 C147.18223806 108.35296083 147.21005911 216.47887033 147.12890625 413.22705078 C147.12826923 414.24543254 147.12763222 415.2638143 147.12697589 416.31305611 C147.09933162 460.23027021 147.05718911 504.14739369 146.94339466 548.06447983 C146.94148329 548.80384005 146.93957192 549.54320028 146.93760264 550.30496536 C146.93569939 551.04115094 146.93379615 551.77733651 146.93183523 552.53583074 C146.92994189 553.26890365 146.92804854 554.00197656 146.92609782 554.75726381 C146.9222942 556.22866425 146.91847617 557.70006465 146.91464352 559.17146501 C146.88660861 570.02069947 146.86932979 580.86991322 146.85818481 591.71917725 C146.84568231 603.86836583 146.81922885 616.01740283 146.7743935 628.16652197 C146.7523568 634.21299325 146.7359513 640.25931097 146.73700523 646.30582619 C146.73633115 701.94991301 146.73633115 701.94991301 138.12890625 727.22705078 C137.65433316 728.71774062 137.18042482 730.20864219 136.70703125 731.69970703 C128.58515891 756.64938002 116.46529227 779.46797561 99.12890625 799.22705078 C98.36707031 800.09845703 97.60523438 800.96986328 96.8203125 801.86767578 C94.61804087 804.34848092 92.38465576 806.79487393 90.12890625 809.22705078 C89.59136719 809.81873047 89.05382813 810.41041016 88.5 811.02001953 C64.1427729 836.72025163 26.48737047 854.66100196 -8.80050659 855.70304871 C-24.34242142 856.03359729 -38.95656799 854.94536123 -53.87109375 850.22705078 C-54.59490234 850.00774902 -55.31871094 849.78844727 -56.06445312 849.5625 C-85.13399536 840.55418085 -107.77372253 818.71676332 -127.18823242 796.1550293 C-130.21209043 792.69073121 -133.39391485 789.37474875 -136.55859375 786.03955078 C-141.39851832 780.91853356 -146.2258132 775.78805621 -150.99609375 770.60205078 C-155.26798687 765.95837298 -159.56212107 761.33634936 -163.87109375 756.72705078 C-168.7107476 751.54934744 -173.53015246 746.35384802 -178.33203125 741.14111328 C-182.16160832 736.98733922 -186.01318344 732.85450942 -189.87109375 728.72705078 C-194.71070171 723.54930427 -199.53015214 718.35384835 -204.33203125 713.14111328 C-208.16160832 708.98733922 -212.01318344 704.85450942 -215.87109375 700.72705078 C-220.70999421 695.5500612 -225.52896426 690.35556861 -230.32983398 685.14331055 C-234.17989424 680.96694159 -238.05398113 676.81346406 -241.93359375 672.66455078 C-247.00010507 667.2455865 -252.0260044 661.79253032 -257.03125 656.31689453 C-260.86140646 652.13866563 -264.73805732 648.00381208 -268.609375 643.86376953 C-272.37811296 639.83171364 -276.13197294 635.78657827 -279.87109375 631.72705078 C-284.18593169 627.04296714 -288.52233345 622.37965459 -292.87109375 617.72705078 C-297.71070171 612.54930427 -302.53015214 607.35384835 -307.33203125 602.14111328 C-311.16160832 597.98733922 -315.01318344 593.85450942 -318.87109375 589.72705078 C-323.71070171 584.54930427 -328.53015214 579.35384835 -333.33203125 574.14111328 C-337.16160832 569.98733922 -341.01318344 565.85450942 -344.87109375 561.72705078 C-349.71070171 556.54930427 -354.53015214 551.35384835 -359.33203125 546.14111328 C-363.16160832 541.98733922 -367.01318344 537.85450942 -370.87109375 533.72705078 C-375.71070171 528.54930427 -380.53015214 523.35384835 -385.33203125 518.14111328 C-389.16160844 513.98733908 -393.01320171 509.85452665 -396.87109375 505.72705078 C-401.72954557 500.52872639 -406.57101326 495.31546508 -411.39135742 490.08178711 C-414.00709294 487.2427305 -416.6293234 484.41005076 -419.26171875 481.58642578 C-429.37811534 470.73376834 -429.37811534 470.73376834 -434.19921875 465.14892578 C-436.22867448 462.81600004 -438.29874075 460.52193833 -440.37109375 458.22705078 C-443.04157719 455.26835327 -445.69407433 452.29778606 -448.30859375 449.28955078 C-451.88900417 445.17747849 -455.56410559 441.15441943 -459.24609375 437.13330078 C-461.36445124 434.78797642 -463.45598885 432.4252534 -465.53515625 430.04541016 C-466.47415771 428.9709967 -466.47415771 428.9709967 -467.43212891 427.87487793 C-467.9069873 427.33109497 -468.3818457 426.78731201 -468.87109375 426.22705078 C-468.87198938 427.27779476 -468.87198938 427.27779476 -468.87290311 428.3497659 C-468.90886295 469.94478188 -468.9656027 511.5397249 -469.0490147 553.13467408 C-469.05903115 558.13844779 -469.06887545 563.14222183 -469.07861328 568.14599609 C-469.08152534 569.64012377 -469.08152534 569.64012377 -469.08449623 571.16443585 C-469.11544602 587.25445425 -469.13247722 603.34445841 -469.14428797 619.43450095 C-469.15673602 635.96672898 -469.18431941 652.49888278 -469.22570682 669.03106391 C-469.25073803 679.21736036 -469.26421865 689.40353357 -469.26252332 699.5898612 C-469.26249337 706.59226546 -469.27727639 713.59454497 -469.30325803 720.59690054 C-469.31778398 724.62593424 -469.3262118 728.65471222 -469.31689644 732.68376732 C-469.24303731 768.94543261 -474.4141222 802.46062086 -500.859375 829.32080078 C-520.90886525 848.97691087 -544.57918112 856.77989692 -572.26147461 856.56762695 C-573.8400216 856.56677814 -575.41856978 856.56726076 -576.99711609 856.56895447 C-581.23173706 856.56980595 -585.46609671 856.55231953 -589.70065761 856.5312326 C-594.1448713 856.51232255 -598.58909273 856.51070418 -603.03334045 856.50715637 C-611.42648217 856.4978776 -619.81950494 856.47332101 -628.21259457 856.4431079 C-637.77743526 856.40943318 -647.34228199 856.3930452 -656.90716732 856.3780216 C-676.56187553 856.34676714 -696.21647711 856.29408884 -715.87109375 856.22705078 C-715.94512743 770.63913651 -715.94145892 685.05130261 -715.87705248 584.5181146 C-715.87224343 577.11461561 -715.86776268 569.71111645 -715.86339569 562.30761719 C-715.83014505 506.21726597 -715.77791839 450.12698608 -715.68558216 394.03669834 C-715.67786507 389.3197232 -715.67019787 384.60274798 -715.66256714 379.88577271 C-715.66067422 378.7204993 -715.6587813 377.55522589 -715.65683102 376.35464116 C-715.62659927 357.53661326 -715.60994403 338.71859713 -715.59818149 319.90054967 C-715.58588499 300.7742008 -715.55856347 281.6479172 -715.516581 262.52161014 C-715.49175626 251.02000068 -715.47793399 239.51849962 -715.47964631 228.0168629 C-715.47967655 220.25082431 -715.465017 212.48489875 -715.4389232 204.71890435 C-715.42442826 200.28421294 -715.41595964 195.84975348 -715.42529213 191.41504276 C-715.52597387 137.30908926 -701.47321374 86.83678656 -662.49609375 47.47705078 C-643.01633102 28.25927078 -618.60482458 13.58261698 -591.87109375 7.22705078 C-590.98035156 7.01435547 -590.08960938 6.80166016 -589.171875 6.58251953 C-570.412635 2.489059 -549.45018903 2.49536851 -530.87109375 7.22705078 C-530.2275293 7.3773877 -529.58396484 7.52772461 -528.92089844 7.68261719 C-501.29659064 14.19319193 -475.16556479 30.12076911 -456.90234375 51.87548828 C-454.02633395 55.20502271 -451.00753855 58.39517065 -447.99609375 61.60205078 C-443.31995509 66.59017672 -438.69397449 71.61405084 -434.13671875 76.71142578 C-431.44730109 79.69760677 -428.72474419 82.6517489 -425.99609375 85.60205078 C-425.48892822 86.15046631 -424.9817627 86.69888184 -424.45922852 87.26391602 C-423.95190186 87.81249268 -423.4445752 88.36106934 -422.921875 88.92626953 C-416.71792614 95.63489298 -410.53422582 102.36168768 -404.43359375 109.16455078 C-399.9746546 114.13217462 -395.44671044 119.0338833 -390.9140625 123.93408203 C-386.67037943 128.52275807 -382.45068834 133.13336681 -378.22998047 137.74316406 C-376.40329958 139.73787597 -374.5755967 141.73164985 -372.74780273 143.7253418 C-371.83186153 144.72444702 -370.9160083 145.72363289 -370.00024414 146.72290039 C-367.68515747 149.24901152 -365.36897587 151.77410377 -363.05078125 154.29736328 C-358.82342624 158.90054843 -354.60583292 163.51118854 -350.43359375 168.16455078 C-345.9746546 173.13217462 -341.44671044 178.0338833 -336.9140625 182.93408203 C-332.67037943 187.52275807 -328.45068834 192.13336681 -324.22998047 196.74316406 C-322.40329958 198.73787597 -320.5755967 200.73164985 -318.74780273 202.7253418 C-317.83186153 203.72444702 -316.9160083 204.72363289 -316.00024414 205.72290039 C-313.68515747 208.24901152 -311.36897587 210.77410377 -309.05078125 213.29736328 C-304.82342624 217.90054843 -300.60583292 222.51118854 -296.43359375 227.16455078 C-291.9746546 232.13217462 -287.44671044 237.0338833 -282.9140625 241.93408203 C-278.67037943 246.52275807 -274.45068834 251.13336681 -270.22998047 255.74316406 C-267.94466879 258.23869485 -265.65779795 260.73279605 -263.37109375 263.22705078 C-262.45441971 264.22704403 -261.53775305 265.22704402 -260.62109375 266.22705078 C-260.16734375 266.72205078 -259.71359375 267.21705078 -259.24609375 267.72705078 C-257.87109375 269.22705078 -256.49609375 270.72705078 -255.12109375 272.22705078 C-254.66718262 272.72221191 -254.21327148 273.21737305 -253.74560547 273.72753906 C-252.83050742 274.72585739 -251.9154682 275.72422965 -251.00048828 276.72265625 C-248.68530523 279.24883498 -246.36905365 281.7740191 -244.05078125 284.29736328 C-239.82342624 288.90054843 -235.60583292 293.51118854 -231.43359375 298.16455078 C-226.9746546 303.13217462 -222.44671044 308.0338833 -217.9140625 312.93408203 C-213.67037943 317.52275807 -209.45068834 322.13336681 -205.22998047 326.74316406 C-202.94466879 329.23869485 -200.65779795 331.73279605 -198.37109375 334.22705078 C-197.45441971 335.22704403 -196.53775305 336.22704402 -195.62109375 337.22705078 C-195.16734375 337.72205078 -194.71359375 338.21705078 -194.24609375 338.72705078 C-192.87109375 340.22705078 -191.49609375 341.72705078 -190.12109375 343.22705078 C-189.66718262 343.72221191 -189.21327148 344.21737305 -188.74560547 344.72753906 C-187.83050742 345.72585739 -186.9154682 346.72422965 -186.00048828 347.72265625 C-183.68530523 350.24883498 -181.36905365 352.7740191 -179.05078125 355.29736328 C-174.82342624 359.90054843 -170.60583292 364.51118854 -166.43359375 369.16455078 C-161.9746546 374.13217462 -157.44671044 379.0338833 -152.9140625 383.93408203 C-148.67037943 388.52275807 -144.45068834 393.13336681 -140.22998047 397.74316406 C-137.94466879 400.23869485 -135.65779795 402.73279605 -133.37109375 405.22705078 C-132.45441971 406.22704403 -131.53775305 407.22704402 -130.62109375 408.22705078 C-130.16734375 408.72205078 -129.71359375 409.21705078 -129.24609375 409.72705078 C-127.87109375 411.22705078 -126.49609375 412.72705078 -125.12109375 414.22705078 C-124.66694092 414.72245361 -124.21278809 415.21785645 -123.74487305 415.72827148 C-122.83212784 416.72406725 -121.91952916 417.71999734 -121.00708008 418.71606445 C-118.65662447 421.28153405 -116.30334119 423.84432 -113.9453125 426.40283203 C-113.46191406 426.928125 -112.97851562 427.45341797 -112.48046875 427.99462891 C-111.14661295 429.44391453 -109.81162746 430.8921602 -108.4765625 432.34033203 C-106.52098637 434.50700484 -104.6039678 436.68941302 -102.70825195 438.9074707 C-102.17488724 439.53111008 -101.64152252 440.15474945 -101.09199524 440.79728699 C-100.68909775 441.26910904 -100.28620026 441.74093109 -99.87109375 442.22705078 C-99.87011694 441.49926456 -99.86914013 440.77147833 -99.86813372 440.02163798 C-99.80979993 396.84035916 -99.73595653 353.65913057 -99.64210747 310.47791359 C-99.63083996 305.28744068 -99.6197014 300.0969675 -99.60864258 294.90649414 C-99.60643889 293.87321009 -99.60423521 292.83992604 -99.60196475 291.77533036 C-99.56663939 275.06761862 -99.54174841 258.35990692 -99.52074673 241.65217174 C-99.4989467 224.49508159 -99.46585651 207.3380397 -99.42239219 190.18099064 C-99.39594776 179.60315511 -99.37819936 169.02537966 -99.37174771 158.44751274 C-99.3664717 151.18352206 -99.35018091 143.91960682 -99.32542809 136.65565664 C-99.31148856 132.47133831 -99.30221379 128.28715479 -99.30608559 124.10281181 C-99.32989213 91.84393962 -99.32989213 91.84393962 -95.87109375 78.22705078 C-95.63975078 77.30572137 -95.4084078 76.38439196 -95.17005444 75.43514347 C-94.60886923 73.32783038 -93.96374055 71.28581918 -93.24609375 69.22705078 C-92.86759277 68.12550659 -92.86759277 68.12550659 -92.48144531 67.00170898 C-82.77074324 39.9681998 -64.1309176 18.9979046 -38.1953125 6.62548828 C-33.50716472 4.653271 -28.82234617 3.33928864 -23.87109375 2.22705078 C-22.82284424 1.88924591 -21.77459473 1.55144104 -20.69458008 1.20339966 C-13.94049921 -0.47348504 -6.9121605 -0.0340627 0 0 Z " fill="#3244E9" transform="translate(1231.87109375,518.77294921875)"/>
<path d="M0 0 C0 0.66 0 1.32 0 2 C0.598125 2.12375 1.19625 2.2475 1.8125 2.375 C4 3 4 3 7 5 C7 5.66 7 6.32 7 7 C7.7425 7.226875 8.485 7.45375 9.25 7.6875 C12.55866205 9.26663416 13.79464426 11.1054706 16 14 C17.65002828 15.35386936 19.3174387 16.68678142 21 18 C23.88238982 20.66621058 26.29218657 23.33357286 28.5 26.5625 C30.63236386 29.66716814 33.03893893 31.66232021 36 34 C37 35.66666667 38 37.33333333 39 39 C39.825 39.66 40.65 40.32 41.5 41 C44.18347318 43.14677854 45.2798546 45.06141827 47 48 C48.62339805 49.70884005 50.29319053 51.37446717 52 53 C55.87179983 56.77252291 59.79584176 60.62869133 63 65 C63 65.66 63 66.32 63 67 C63.5775 67.226875 64.155 67.45375 64.75 67.6875 C67.59739809 69.34848222 69.12067193 71.31524561 71 74 C71 74.66 71 75.32 71 76 C71.639375 76.28875 72.27875 76.5775 72.9375 76.875 C75 78 75 78 76 80 C76.09310899 81.80872973 76.12084818 83.62095605 76.11860371 85.43207932 C76.11957815 86.59291495 76.1205526 87.75375059 76.12155658 88.94976306 C76.11748127 90.23628937 76.11340596 91.52281568 76.10920715 92.84832764 C76.10837749 94.22030724 76.10797816 95.59228716 76.10797423 96.96426702 C76.10663722 100.74821899 76.09892616 104.53213567 76.09015882 108.31607676 C76.08176373 112.39284306 76.07908539 116.46961384 76.07556152 120.54638672 C76.06570088 130.40561466 76.04605964 140.26481421 76.02530077 150.12402427 C76.01571722 154.77143542 76.00714396 159.41884842 75.99844933 164.06626129 C75.96912637 179.52794233 75.93731 194.98961516 75.89822865 210.45127487 C75.88810859 214.46653998 75.87799718 218.4818051 75.86791992 222.49707031 C75.86541305 223.49501504 75.86290617 224.49295977 75.86032333 225.52114525 C75.82027262 241.64659994 75.79702511 257.77203198 75.78094129 273.89752659 C75.76414215 290.47050369 75.73235666 307.04339946 75.68605727 323.61632085 C75.66044498 332.91397639 75.64119588 342.21154611 75.63868141 351.5092392 C75.63648576 359.43792088 75.62053436 367.36643101 75.58734892 375.29504594 C75.57085473 379.33218887 75.56041499 383.36908157 75.56765556 387.40625763 C75.62268293 423.68513693 70.47214434 457.21815923 44.01171875 484.09375 C23.9622285 503.74986009 0.29191263 511.55284613 -27.39038086 511.34057617 C-28.96892785 511.33972736 -30.54747603 511.34020998 -32.12602234 511.34190369 C-36.36064331 511.34275517 -40.59500296 511.32526875 -44.82956386 511.30418181 C-49.27377755 511.28527177 -53.71799898 511.28365339 -58.1622467 511.28010559 C-66.55538842 511.27082682 -74.94841119 511.24627023 -83.34150082 511.21605712 C-92.90634151 511.18238239 -102.47118824 511.16599442 -112.03607357 511.15097082 C-131.69078178 511.11971636 -151.34538336 511.06703806 -171 511 C-171.02340795 477.48318011 -171.0407615 443.96636251 -171.05106533 410.4495362 C-171.05231455 406.40125328 -171.05360901 402.35297039 -171.05493164 398.3046875 C-171.05519395 397.49947435 -171.05545626 396.69426119 -171.05572652 395.86464764 C-171.05944391 384.73741482 -171.06554722 373.61018576 -171.07373433 362.48295537 C-171.08793889 343.17353325 -171.09695296 323.86411512 -171.09765625 304.5546875 C-171.09769482 303.78946144 -171.09773339 303.02423538 -171.09777313 302.23582065 C-171.10008973 233.48758031 -170.63309242 164.74508395 -170 96 C-169.34 96 -168.68 96 -168 96 C-167.95101562 95.28714844 -167.90203125 94.57429687 -167.8515625 93.83984375 C-167.4186 88.29344484 -166.7396701 83.31057189 -165 78 C-164.74476563 77.07960938 -164.48953125 76.15921875 -164.2265625 75.2109375 C-159.56972192 58.85229239 -151.04264629 39.30302783 -139 27 C-138.34 27 -137.68 27 -137 27 C-136.65001953 25.92105469 -136.65001953 25.92105469 -136.29296875 24.8203125 C-128.82441908 8.52939751 -105.57057893 -3.08042169 -89.74609375 -9.2734375 C-86.84895504 -10.27818182 -83.95236767 -11.17253369 -81 -12 C-79.98035156 -12.28617188 -78.96070313 -12.57234375 -77.91015625 -12.8671875 C-50.30692462 -20.17699663 -24.23096433 -13.91991568 0 0 Z " fill="#3746E6" transform="translate(687,864)"/>
<path d="M0 0 C0.95387604 0.00021149 1.90775208 0.00042297 2.89053345 0.00064087 C17.28604439 0.03252177 31.14339114 0.64373042 45.125 4.375 C45.84461914 4.56223633 46.56423828 4.74947266 47.30566406 4.94238281 C57.50749098 7.67830583 67.33483106 11.62937286 77.11816406 15.57568359 C78.85834542 16.26879233 80.61175797 16.92850387 82.3671875 17.58203125 C108.4233899 27.57377282 132.04616364 48.72455592 149.125 70.375 C149.87007812 71.31472656 150.61515625 72.25445313 151.3828125 73.22265625 C181.88952598 112.7113115 194.61564917 162.97238311 188.80859375 212.30859375 C182.58236462 260.4069076 158.17177388 306.36329832 119.55444336 336.28564453 C77.97752997 367.9944966 28.4858572 382.45862866 -23.80541992 376.60620117 C-62.88424689 371.31763717 -99.27641447 354.5460355 -127.875 327.375 C-129.24431218 326.20166277 -130.61891787 325.03446034 -132 323.875 C-150.00463089 308.093613 -164.59011773 285.73795291 -172.875 263.375 C-173.27976562 262.36695313 -173.68453125 261.35890625 -174.1015625 260.3203125 C-175.41545399 257.02349274 -176.6588211 253.70907299 -177.875 250.375 C-178.29910156 249.22 -178.72320313 248.065 -179.16015625 246.875 C-184.61996282 230.84621007 -187.36590584 213.28577977 -187.875 196.375 C-187.91496094 195.22515625 -187.95492188 194.0753125 -187.99609375 192.890625 C-188.30940497 174.82915471 -186.88821978 156.76568655 -181.875 139.375 C-181.69066406 138.71628906 -181.50632812 138.05757812 -181.31640625 137.37890625 C-173.67746176 110.35284746 -160.48854619 85.48314516 -141.875 64.375 C-141.44864258 63.88837891 -141.02228516 63.40175781 -140.58300781 62.90039062 C-124.53207409 44.66542057 -105.54028552 30.31797523 -83.875 19.375 C-83.20984375 19.03887695 -82.5446875 18.70275391 -81.859375 18.35644531 C-69.76142723 12.32561835 -57.44103774 7.85888217 -44.3125 4.6875 C-43.47444824 4.48495605 -42.63639648 4.28241211 -41.77294922 4.07373047 C-39.14733566 3.46539991 -36.51690801 2.9080993 -33.875 2.375 C-32.4828125 2.09027832 -32.4828125 2.09027832 -31.0625 1.79980469 C-20.7527224 -0.05449572 -10.44035218 -0.02128409 0 0 Z " fill="#FC163E" transform="translate(1673.875,1487.625)"/>
<path d="M0 0 C0.33 0 0.66 0 1 0 C1.53863131 26.87770244 1.7804873 53.21463563 -7 79 C-7.47457309 80.49068984 -7.94848143 81.98159141 -8.421875 83.47265625 C-16.54374734 108.42232924 -28.66361398 131.24092482 -46 151 C-46.76183594 151.87140625 -47.52367187 152.7428125 -48.30859375 153.640625 C-50.51086538 156.12143014 -52.74425049 158.56782315 -55 161 C-55.53753906 161.59167969 -56.07507812 162.18335938 -56.62890625 162.79296875 C-80.98613335 188.49320085 -118.64153578 206.43395118 -153.92941284 207.47599792 C-169.47132767 207.8065465 -184.08547424 206.71831045 -199 202 C-200.08571289 201.67104736 -200.08571289 201.67104736 -201.19335938 201.33544922 C-217.06193254 196.41795962 -238.54496538 186.18255193 -248 172 C-247.34 172 -246.68 172 -246 172 C-245.73767578 171.15036179 -245.47535156 170.30072357 -245.20507812 169.42533875 C-243.94672446 165.84856851 -242.41590139 162.58476397 -240.71875 159.19458008 C-240.3931459 158.54147354 -240.06754181 157.888367 -239.73207092 157.21546936 C-238.65860755 155.06485173 -237.57942319 152.91716295 -236.5 150.76953125 C-235.74181333 149.25435281 -234.9839248 147.73902516 -234.22631836 146.22355652 C-232.63496063 143.04240407 -231.04093155 139.86260986 -229.44482422 136.68383789 C-227.42816404 132.66731213 -225.41665493 128.64823582 -223.40693474 124.62823391 C-216.07932328 109.97355977 -208.7385032 95.33385499 -201.04394531 80.86743164 C-197.87685091 74.90475522 -194.87549119 68.86036506 -191.875 62.8125 C-191.30007813 61.65814453 -190.72515625 60.50378906 -190.1328125 59.31445312 C-188.75329135 56.54391481 -187.37567507 53.77244944 -186 51 C-185.01 51 -184.02 51 -183 51 C-181.11016018 52.91383779 -179.36948006 54.83581368 -177.625 56.875 C-159.85350745 76.83249516 -135.63100274 88.74372154 -108.93359375 90.38671875 C-85.67407638 91.21052642 -62.49626109 84.28095297 -44 70 C-43.47212891 69.59410645 -42.94425781 69.18821289 -42.40039062 68.77001953 C-19.54486308 50.97191382 -7.37040842 27.44373273 0 0 Z " fill="#4134CF" transform="translate(1377,1167)"/>
<path d="M0 0 C0.9075 0.165 1.815 0.33 2.75 0.5 C6.11087503 1.10137146 6.11087503 1.10137146 10 1 C10.495 1.99 10.495 1.99 11 3 C10.34 3.33 9.68 3.66 9 4 C8.34227572 7.02934491 8.34227572 7.02934491 8 10 C7.01 10 6.02 10 5 10 C5.495 10.99 5.495 10.99 6 12 C5.34 12.66 4.68 13.32 4 14 C3.855625 14.680625 3.71125 15.36125 3.5625 16.0625 C3.2840625 17.0215625 3.2840625 17.0215625 3 18 C2.01 18.33 1.02 18.66 0 19 C0.20625 19.78375 0.4125 20.5675 0.625 21.375 C0.74875 22.24125 0.8725 23.1075 1 24 C0.34 24.66 -0.32 25.32 -1 26 C-1.80432248 27.98343396 -2.45581465 29.9934905 -3.12109375 32.02734375 C-4.10501087 34.23569105 -5.13260409 35.47647239 -7 37 C-7.66 37 -8.32 37 -9 37 C-8.67 37.99 -8.34 38.98 -8 40 C-8.99 40.495 -8.99 40.495 -10 41 C-9.67 41.66 -9.34 42.32 -9 43 C-9.66 43 -10.32 43 -11 43 C-11 43.66 -11 44.32 -11 45 C-11.99 45.495 -11.99 45.495 -13 46 C-13.185625 47.051875 -13.185625 47.051875 -13.375 48.125 C-14.06460342 51.29717573 -15.27110122 53.42565367 -16.96484375 56.15625 C-18.20499751 58.36512765 -19.06273247 60.64649366 -20 63 C-21.00249776 65.07147416 -22.02415073 67.1337625 -23.0625 69.1875 C-23.58972656 70.23292969 -24.11695313 71.27835938 -24.66015625 72.35546875 C-25.10230469 73.22816406 -25.54445313 74.10085938 -26 75 C-26.33 75.66 -26.66 76.32 -27 77 C-27.66 77 -28.32 77 -29 77 C-28.67 77.99 -28.34 78.98 -28 80 C-28.92664186 81.72090631 -29.86547797 83.43745397 -30.890625 85.1015625 C-32.18976836 87.22590392 -32.18976836 87.22590392 -33.5 90.625 C-35 94 -35 94 -37.0625 96.5625 C-39.26053068 99.3277644 -39.98935199 101.63117331 -41 105 C-41.95445245 107.35526575 -42.97633714 109.6734935 -44 112 C-46.58567658 111.01922612 -48.03203028 109.96590325 -49.9375 107.9375 C-51.57246048 103.41731513 -49.81313742 100.27959155 -48 96 C-47.73316406 95.34128906 -47.46632813 94.68257812 -47.19140625 94.00390625 C-46.49336916 92.32210704 -45.74858922 90.65991522 -45 89 C-44.505 87.824375 -44.505 87.824375 -44 86.625 C-43 85 -43 85 -40 84 C-40.66 82.68 -41.32 81.36 -42 80 C-40.73046875 78.60026042 -39.4609375 77.20052083 -38.19140625 75.80078125 C-36.71793179 73.57366084 -36.48860803 71.61124945 -36 69 C-35.01953125 66.96484375 -35.01953125 66.96484375 -33.8125 64.9375 C-30.62526655 59.41296201 -27.82356187 53.71655559 -25 48 C-24.47664062 46.97519531 -23.95328125 45.95039062 -23.4140625 44.89453125 C-22.2742002 42.56127719 -21.33349458 40.32587098 -20.5 37.875 C-19.37874362 34.79154497 -18.05901587 32.57376984 -16 30 C-14.08956487 26.40838195 -12.49210174 22.77999107 -11 19 C-7.9038339 12.36535837 -3.91265657 6.17365894 0 0 Z " fill="#293ADE" transform="translate(1001,1036)"/>
<path d="M0 0 C1.97810231 1.37607117 2.8906887 2.514172 3.421875 4.875 C4.01193935 9.59551481 4 14.24774828 4 19 C3.34 19 2.68 19 2 19 C3.0209375 20.0828125 3.0209375 20.0828125 4.0625 21.1875 C6.98304515 25.48182075 5.79883703 29.81954669 5.2265625 34.734375 C4.96361503 38.52444542 5.51879098 41.49556314 6.625 45.09765625 C7.07034002 47.35682905 6.58523565 48.80079417 6 51 C6.33 51.66 6.66 52.32 7 53 C6.34 53 5.68 53 5 53 C5.474375 53.9075 5.94875 54.815 6.4375 55.75 C9.3546798 61.81773399 9.3546798 61.81773399 8.0625 66.125 C7.711875 67.07375 7.36125 68.0225 7 69 C6.9122942 71.03471688 6.9122942 71.03471688 7.5625 73.0625 C7.7790625 74.0215625 7.7790625 74.0215625 8 75 C7.505 75.495 7.505 75.495 7 76 C7.66 76.66 8.32 77.32 9 78 C8.625 80.125 8.625 80.125 8 82 C8.66 82.33 9.32 82.66 10 83 C9.79375 84.2375 9.5875 85.475 9.375 86.75 C8.9180853 90.25712901 9.23172459 91.90551803 11 95 C10.66666667 96.33333333 10.33333333 97.66666667 10 99 C10.85790183 101.21771064 10.85790183 101.21771064 12 103 C11.34 103 10.68 103 10 103 C10.495 104.1446875 10.495 104.1446875 11 105.3125 C12 108 12 108 12 111 C12.3062434 112.33981486 12.63451555 113.67511887 13 115 C12.34 115 11.68 115 11 115 C11.495 116.1446875 11.495 116.1446875 12 117.3125 C13 120 13 120 13 123 C12.34 123 11.68 123 11 123 C11.350625 123.5775 11.70125 124.155 12.0625 124.75 C13.18824371 127.4517849 12.74896672 128.25378869 12 131 C12.31461166 132.67030189 12.65105413 134.33653203 13 136 C13.21271897 137.85144293 13.39982946 139.70599022 13.5625 141.5625 C13.68818359 142.95662109 13.68818359 142.95662109 13.81640625 144.37890625 C13.97067854 146.58138944 14 148.79212045 14 151 C14.49285823 153.50502325 15.07266025 155.98046524 15.66015625 158.46484375 C16 161 16 161 15.43359375 163.62890625 C14.66906067 166.25685877 14.66906067 166.25685877 17 169 C16.835 169.70125 16.67 170.4025 16.5 171.125 C15.8756032 174.7152816 16.61491561 177.32984309 17.52734375 180.81640625 C18 183 18 183 18 187 C17.67 187.33 17.34 187.66 17 188 C17.66 188.99 18.32 189.98 19 191 C19 194.38023517 18.12544378 196.83468937 17 200 C15.35 200.33 13.7 200.66 12 201 C9.64457831 193.79518072 9.64457831 193.79518072 11 190 C11 189.01 11 188.02 11 187 C11 186.34 11 185.68 11 185 C10.649375 183.9275 10.29875 182.855 9.9375 181.75 C8.97704318 177.90817271 9.22150466 175.80597721 10 172 C9.67 171.01 9.34 170.02 9 169 C9.66 168.01 10.32 167.02 11 166 C10.28254644 163.53770003 10.28254644 163.53770003 9 161 C7.14737434 157.09973545 6.93043044 155.17132129 8 151 C8 147.74426786 7.7731945 146.00686748 7 143 C5.93979857 136.28539095 6 129.78310657 6 123 C5.8743421 121.33169091 5.72746543 119.66488184 5.5625 118 C5.48128906 117.154375 5.40007812 116.30875 5.31640625 115.4375 C5.05302931 113.03506816 5.05302931 113.03506816 4.46484375 110.875 C3.76384415 108.04743861 4.01286437 105.94620355 4.6875 103.125 C5.34399171 99.975642 5.34399171 99.975642 3.4375 97.75 C1.43735343 93.92363264 2.49925859 91.53264754 3.65234375 87.5 C4.08527372 84.38679575 3.23995113 82.85364641 2 80 C1.62109375 77.24609375 1.62109375 77.24609375 1.4375 74.4375 C1.17619339 70.55899099 1.17619339 70.55899099 0.3828125 66.76953125 C0.25648437 66.18558594 0.13015625 65.60164063 0 65 C1.4375 63.25 1.4375 63.25 3 62 C2.46375 61.46375 1.9275 60.9275 1.375 60.375 C0.92125 59.59125 0.4675 58.8075 0 58 C0.350625 57.030625 0.70125 56.06125 1.0625 55.0625 C1.371875 54.051875 1.68125 53.04125 2 52 C1.34 51.175 0.68 50.35 0 49.5 C-0.66 48.675 -1.32 47.85 -2 47 C-1.125 44 -1.125 44 0 41 C-0.61674772 39.31422289 -1.28272222 37.64551962 -2 36 C-1.70700977 34.32577014 -1.37309899 32.65821773 -1 31 C-1.27942455 29.32345271 -1.60828247 27.65391846 -2 26 C-2 25.01 -2 24.02 -2 23 C-2.66 22.34 -3.32 21.68 -4 21 C-3.70740515 18.99363529 -3.37366113 16.99285937 -3 15 C-3.33 14.34 -3.66 13.68 -4 13 C-3.36149212 10.65880445 -2.69356423 8.32548007 -2 6 C-2 5.01 -2 4.02 -2 3 C-1.34 2.01 -0.68 1.02 0 0 Z " fill="#293ADD" transform="translate(1305,1034)"/>
<path d="M0 0 C0 9.57 0 19.14 0 29 C-2.866875 28.38125 -5.73375 27.7625 -8.6875 27.125 C-9.58170654 26.93437988 -10.47591309 26.74375977 -11.3972168 26.54736328 C-15.43226141 25.66315591 -19.21636801 24.71072566 -23 23 C-18.47783954 17.58052896 -13.69081573 12.53850008 -8.6875 7.5625 C-7.95982422 6.83095703 -7.23214844 6.09941406 -6.48242188 5.34570312 C-5.79083984 4.65541016 -5.09925781 3.96511719 -4.38671875 3.25390625 C-3.75983154 2.62814697 -3.13294434 2.0023877 -2.48706055 1.35766602 C-1 0 -1 0 0 0 Z " fill="#443ECB" transform="translate(1757,1359)"/>
</svg>
