<?xml version="1.0" encoding="UTF-8"?>
<svg width="91px" height="92px" viewBox="0 0 91 92" version="1.1" xmlns="http://www.w3.org/2000/svg" xmlns:xlink="http://www.w3.org/1999/xlink">
    <title>Group 2</title>
    <g id="Page-1" stroke="none" stroke-width="1" fill="none" fill-rule="evenodd">
        <g id="Artboard" transform="translate(-440.000000, -103.000000)" fill="#47BDED" fill-rule="nonzero">
            <g id="Studio98-Consulting" transform="translate(199.000000, 103.000000)">
                <g id="Group-2" transform="translate(241.680000, 0.150000)">
                    <path d="M6.38,90.81 L4.63,88.43 C8.47,86.45 11.89,84.5 14.89,82.58 C17.89,80.66 20.49,78.67 22.68,76.62 C24.87,74.57 26.68,72.36 28.1,70 C29.52,67.64 30.58,65.06 31.27,62.24 C31.96,59.42 32.3,56.27 32.3,52.79 C32.3,48.62 31.81,44.88 30.82,41.56 C29.83,38.25 28.34,35.63 26.34,33.71 C24.34,31.79 21.82,30.83 18.76,30.83 C16.18,30.83 13.97,31.39 12.15,32.52 C10.32,33.64 8.92,35.22 7.96,37.25 C7,39.27 6.52,41.64 6.52,44.34 C6.52,47.25 7.04,49.64 8.09,51.52 C9.14,53.4 10.56,54.77 12.34,55.66 C14.12,56.55 16.11,56.99 18.3,56.99 C19.5,56.99 20.75,56.87 22.06,56.63 C23.37,56.39 24.67,56.04 25.98,55.57 C27.29,55.11 28.56,54.51 29.81,53.79 C31.05,53.07 32.22,52.21 33.3,51.22 L35.87,52.12 C33.65,54.13 31.6,55.78 29.73,57.07 C27.85,58.36 26.12,59.37 24.53,60.11 C22.94,60.85 21.45,61.36 20.05,61.64 C18.65,61.93 17.33,62.07 16.07,62.07 C12.95,62.07 10.17,61.42 7.74,60.13 C5.31,58.84 3.41,56.99 2.05,54.57 C0.68,52.16 0,49.28 0,45.95 C0,42.32 0.79,39.12 2.38,36.34 C3.97,33.57 6.23,31.4 9.15,29.84 C12.07,28.28 15.52,27.5 19.48,27.5 C23.83,27.5 27.47,28.6 30.41,30.81 C33.35,33.02 35.56,35.97 37.05,39.68 C38.54,43.39 39.28,47.47 39.28,51.94 C39.28,55.03 38.91,57.98 38.18,60.8 C37.44,63.62 36.28,66.34 34.69,68.95 C33.1,71.56 31.03,74.09 28.48,76.53 C25.93,78.98 22.82,81.38 19.16,83.75 C15.5,86.11 11.24,88.47 6.38,90.81 Z" id="Path"/>
                    <path d="M70.5,27.49 C73.77,27.49 76.64,28.09 79.12,29.29 C81.59,30.49 83.52,32.15 84.9,34.26 C86.28,36.37 86.97,38.81 86.97,41.57 C86.97,45.02 85.66,48.08 83.03,50.75 C80.4,53.42 76.84,55.5 72.34,57 L69.95,55.29 C73.46,53.94 76.15,52.23 78.01,50.16 C79.87,48.09 80.8,45.42 80.8,42.15 C80.8,39.99 80.36,38.07 79.49,36.39 C78.62,34.71 77.38,33.38 75.76,32.41 C74.14,31.44 72.2,30.95 69.95,30.95 C66.5,30.95 63.73,31.92 61.65,33.85 C59.56,35.78 58.52,38.18 58.52,41.03 C58.52,43.43 59.08,45.41 60.21,46.97 C61.33,48.53 62.82,49.84 64.67,50.89 C66.52,51.94 68.55,52.9 70.77,53.77 C72.99,54.64 75.21,55.56 77.43,56.52 C79.65,57.48 81.68,58.65 83.53,60.03 C85.37,61.41 86.86,63.15 87.98,65.25 C89.1,67.35 89.67,69.98 89.67,73.13 C89.67,76.55 88.71,79.49 86.79,81.95 C84.87,84.41 82.41,86.3 79.41,87.62 C76.41,88.94 73.26,89.6 69.96,89.6 C66.27,89.6 62.9,89.01 59.84,87.82 C56.78,86.64 54.34,84.9 52.53,82.62 C50.71,80.34 49.81,77.57 49.81,74.29 C49.81,71.83 50.3,69.66 51.27,67.79 C52.24,65.92 53.55,64.26 55.19,62.84 C56.82,61.42 58.67,60.17 60.73,59.1 C62.78,58.04 64.89,57.08 67.05,56.24 L68.36,58.31 C65.72,59.45 63.54,60.73 61.83,62.16 C60.12,63.59 58.85,65.27 58.03,67.22 C57.21,69.17 56.79,71.51 56.79,74.24 C56.79,76.64 57.32,78.73 58.39,80.52 C59.45,82.31 60.97,83.69 62.93,84.66 C64.89,85.63 67.23,86.12 69.93,86.12 C72.75,86.12 75.16,85.61 77.15,84.59 C79.14,83.57 80.68,82.19 81.76,80.45 C82.84,78.71 83.38,76.76 83.38,74.6 C83.38,72.11 82.82,70.04 81.71,68.39 C80.6,66.74 79.12,65.36 77.28,64.25 C75.44,63.14 73.42,62.14 71.23,61.26 C69.04,60.38 66.84,59.46 64.64,58.51 C62.43,57.57 60.41,56.45 58.56,55.16 C56.72,53.87 55.24,52.24 54.13,50.28 C53.02,48.32 52.46,45.86 52.46,42.92 C52.46,39.92 53.23,37.26 54.75,34.93 C56.28,32.61 58.4,30.78 61.12,29.46 C63.83,28.15 66.96,27.49 70.5,27.49 Z" id="Path"/>
                    <rect id="Rectangle" x="4.42" y="-1.37667655e-14" width="80.89" height="5.78"/>
                </g>
            </g>
        </g>
    </g>
</svg>