<?xml version="1.0" standalone="no"?>
<!DOCTYPE svg PUBLIC "-//W3C//DTD SVG 20010904//EN"
 "http://www.w3.org/TR/2001/REC-SVG-20010904/DTD/svg10.dtd">
<svg version="1.0" xmlns="http://www.w3.org/2000/svg"
 width="517.000000pt" height="514.000000pt" viewBox="0 0 517.000000 514.000000"
 preserveAspectRatio="xMidYMid meet">

<g transform="translate(0.000000,514.000000) scale(0.100000,-0.100000)"
fill="#000000" stroke="none">
<path d="M2279 5095 c-418 -57 -768 -188 -1099 -410 -614 -413 -1009 -1050
-1111 -1795 -18 -126 -18 -507 0 -630 67 -478 235 -883 519 -1250 90 -116 287
-316 404 -411 369 -297 789 -477 1273 -546 156 -23 502 -22 660 1 570 82 1064
327 1460 722 353 352 598 807 694 1290 69 343 67 722 -5 1048 -144 649 -526
1207 -1081 1576 -331 220 -698 356 -1093 405 -152 18 -484 18 -621 0z m714
-84 c256 -46 446 -106 662 -210 258 -124 451 -259 654 -456 373 -362 615 -811
710 -1315 69 -369 50 -782 -54 -1140 -225 -781 -823 -1404 -1590 -1659 -271
-90 -494 -125 -790 -125 -674 1 -1277 254 -1752 735 -197 200 -338 397 -459
644 -275 563 -328 1208 -148 1804 272 897 1035 1568 1956 1720 175 29 177 29
448 26 196 -2 268 -7 363 -24z"/>
<path d="M4030 2613 c-78 -175 -149 -328 -156 -340 -8 -12 -14 -25 -14 -28 0
-3 23 -5 52 -5 28 0 49 3 45 6 -8 8 13 75 48 152 l28 62 144 0 144 0 34 -75
c19 -42 37 -91 41 -110 l6 -35 64 0 64 0 -43 88 c-24 48 -95 203 -157 345 -98
221 -117 257 -136 257 -18 0 -41 -43 -164 -317z m208 35 l60 -138 -66 0 c-37
0 -91 -3 -119 -6 -42 -5 -53 -4 -53 7 0 15 111 281 116 277 1 -2 29 -65 62
-140z"/>
<path d="M382 2903 c2 -5 15 -30 29 -58 15 -27 84 -179 154 -337 110 -249 130
-288 149 -288 18 0 33 26 96 168 40 92 111 247 156 345 l82 177 -49 0 c-44 0
-49 -2 -49 -22 0 -32 -211 -521 -221 -511 -15 16 -211 469 -216 501 l-6 32
-64 0 c-36 0 -63 -3 -61 -7z"/>
<path d="M4595 2575 l0 -335 50 0 50 0 0 335 0 335 -50 0 -50 0 0 -335z"/>
<path d="M1267 2749 c-126 -20 -215 -125 -217 -255 -1 -153 113 -264 271 -264
198 0 319 176 249 364 -43 113 -166 177 -303 155z m141 -67 c51 -37 76 -103
77 -202 0 -97 -18 -147 -67 -182 -37 -26 -108 -35 -148 -18 -127 53 -163 301
-57 399 48 44 135 45 195 3z"/>
<path d="M2302 2718 c-50 -108 -198 -407 -219 -440 l-23 -38 45 0 c29 0 45 4
45 13 0 6 12 40 27 74 l28 61 80 7 c132 11 146 7 172 -45 12 -25 25 -60 29
-77 l6 -33 64 0 63 0 -22 37 c-12 20 -69 136 -127 257 -119 249 -132 263 -168
184z m107 -270 c1 -5 -39 -8 -89 -8 l-90 0 48 96 47 96 42 -89 c23 -48 42 -91
42 -95z"/>
<path d="M2880 2750 c-143 -24 -233 -121 -234 -254 -2 -122 65 -215 180 -251
94 -29 255 -12 304 32 3 3 7 40 10 84 l5 79 -52 0 -52 0 6 -68 c8 -94 -4 -105
-103 -100 -63 3 -78 7 -111 34 -130 103 -117 342 22 394 68 26 164 9 218 -38
26 -23 29 -10 9 36 -18 44 -20 45 -117 55 -22 2 -60 1 -85 -3z"/>
<path d="M1612 2723 c15 -16 67 -81 117 -146 l90 -119 -5 -71 c-3 -40 -6 -89
-8 -109 l-4 -38 57 0 57 0 -7 53 c-4 28 -8 79 -8 112 l-1 61 88 119 c49 66 96
126 105 134 27 22 20 31 -27 31 -37 0 -45 -3 -50 -23 -5 -21 -131 -197 -140
-197 -10 0 -146 193 -146 206 0 11 -17 14 -72 14 l-72 0 26 -27z"/>
<path d="M3245 2496 l0 -255 140 -3 c77 -2 141 -3 141 -3 1 0 5 15 9 34 l7 34
-33 -7 c-19 -4 -64 -10 -101 -13 l-68 -6 0 102 0 103 75 -4 c77 -3 85 1 85 40
0 15 -11 17 -80 14 l-81 -4 3 89 3 88 89 0 c83 0 89 1 97 23 l8 22 -147 0
-147 0 0 -254z"/>
</g>
</svg>
