<?xml version="1.0" standalone="no"?>
<!DOCTYPE svg PUBLIC "-//W3C//DTD SVG 20010904//EN"
 "http://www.w3.org/TR/2001/REC-SVG-20010904/DTD/svg10.dtd">
<svg version="1.0" xmlns="http://www.w3.org/2000/svg"
 width="1268.000000pt" height="1280.000000pt" viewBox="0 0 1268.000000 1280.000000"
 preserveAspectRatio="xMidYMid meet">
<metadata>
Created by potrace 1.15, written by Peter Selinger 2001-2017
</metadata>
<g transform="translate(0.000000,1280.000000) scale(0.100000,-0.100000)"
fill="#000000" stroke="none">
<path d="M6197 12793 c-4 -3 -7 -141 -7 -305 l0 -298 40 0 40 0 2 236 3 237
158 -237 157 -236 45 0 45 0 -2 303 -3 302 -37 3 -38 3 -2 -238 -3 -238 -159
238 -159 237 -37 0 c-20 0 -40 -3 -43 -7z"/>
<path d="M6480 11679 c0 -14 -389 -2142 -392 -2145 -2 -2 -50 -10 -107 -19
-323 -48 -739 -174 -986 -298 -321 -160 -666 -407 -911 -652 -432 -431 -721
-921 -883 -1491 -41 -146 -82 -335 -101 -464 -6 -41 -12 -75 -13 -75 -1 -1
-482 -89 -1069 -195 -588 -107 -1068 -197 -1068 -201 0 -3 24 -9 52 -12 29 -3
352 -60 718 -127 366 -66 820 -148 1010 -181 190 -34 350 -66 356 -71 6 -4 14
-36 18 -71 22 -206 97 -503 183 -732 116 -306 309 -647 523 -923 139 -180 453
-482 655 -629 436 -318 973 -542 1480 -618 61 -9 128 -20 150 -24 l39 -7 171
-856 c94 -472 174 -861 178 -864 4 -4 7 6 7 22 1 16 76 405 168 864 l168 834
34 7 c19 4 85 15 145 24 491 75 1019 283 1415 558 445 310 836 749 1074 1208
170 328 306 741 355 1080 9 67 21 124 27 126 5 1 212 39 459 83 248 45 639
115 870 156 231 42 514 92 628 113 114 20 205 40 201 44 -4 4 -17 7 -28 7 -12
0 -496 86 -1077 191 l-1056 192 -22 132 c-57 350 -153 657 -300 960 -180 372
-369 633 -691 956 -181 182 -260 249 -425 361 -440 300 -921 494 -1410 569
-110 17 -146 26 -149 38 -3 9 -91 491 -196 1071 -163 898 -200 1093 -200 1059z
m-3567 -5526 c-90 -2 -236 -2 -325 0 -90 1 -17 3 162 3 179 0 252 -2 163 -3z"/>
<path d="M200 6511 c-76 -23 -137 -80 -174 -160 -31 -68 -30 -217 2 -287 48
-107 147 -169 268 -168 171 0 284 122 284 308 0 99 -21 163 -72 221 -59 66
-123 95 -213 94 -38 0 -81 -4 -95 -8z m202 -90 c68 -43 93 -101 93 -216 0
-101 -19 -151 -75 -198 -67 -57 -183 -57 -255 -3 -97 74 -109 297 -21 387 42
44 80 58 152 59 50 0 68 -5 106 -29z"/>
<path d="M12222 6138 l3 -303 228 -3 227 -2 0 40 0 41 -184 -3 -185 -3 -3 103
-3 102 168 0 167 0 0 38 0 37 -165 -3 -165 -3 0 96 0 95 180 0 180 0 0 35 0
35 -225 0 -225 0 2 -302z"/>
<path d="M6409 616 c-82 -29 -119 -76 -119 -151 0 -97 44 -132 219 -179 103
-27 141 -49 155 -89 29 -81 -88 -148 -204 -117 -64 17 -98 45 -111 91 -12 37
-14 39 -52 39 -39 0 -39 -1 -33 -31 24 -122 130 -189 280 -177 106 9 174 58
197 140 20 77 -16 150 -93 185 -24 11 -86 31 -138 43 -141 35 -184 87 -122
150 73 72 237 39 257 -51 7 -29 9 -31 43 -24 21 4 39 8 40 10 9 9 -23 80 -50
111 -50 57 -182 82 -269 50z"/>
</g>
</svg>
