<svg width="31" height="54" viewBox="0 0 31 54" fill="none" xmlns="http://www.w3.org/2000/svg">
	<path d="M12.5847 26.2896C13.7915 26.2896 14.7697 27.2496 14.7697 28.4308C14.7697 29.6156 13.7915 30.5737 12.5847 30.5737C11.3779 30.5737 10.3997 29.6156 10.3997 28.4308C10.3997 27.2496 11.3779 26.2896 12.5847 26.2896ZM18.3334 26.2896C19.5402 26.2896 20.5184 27.2496 20.5184 28.4308C20.5184 29.6156 19.5402 30.5737 18.3334 30.5737C17.1266 30.5737 16.1484 29.6156 16.1484 28.4308C16.1484 27.2496 17.1266 26.2896 18.3334 26.2896ZM15.6657 33.7553C22.4456 33.7553 28.4119 24.666 28.4119 13.154C28.4119 1.64379 24.0729 0 15.6657 0C7.2584 0 2.50805 1.64379 2.50805 13.154C2.50805 24.666 8.2092 33.7553 15.6657 33.7553ZM30.617 44.2616C29.701 42.7385 28.6752 41.55 27.622 40.5736C26.5651 39.5954 25.5046 38.8238 24.4715 38.0522C23.9833 37.6865 23.4824 37.35 22.9722 37.0447C23.4824 36.7393 23.9833 36.401 24.4715 36.0354C26.8303 34.2745 28.8818 31.8994 30.617 29.0141C31.2296 27.9956 30.8821 26.6828 29.8436 26.083C28.8032 25.4833 27.4647 25.8216 26.8504 26.84C25.3492 29.3395 23.6414 31.274 21.8258 32.6271C19.8803 34.0698 17.9659 34.7847 15.9985 34.8981C15.8193 34.8925 15.6401 34.8871 15.4591 34.8871C15.2799 34.8871 15.0988 34.8927 14.9197 34.8981C12.9522 34.7847 11.0397 34.0698 9.09234 32.6271C7.27668 31.274 5.57072 29.3395 4.06773 26.84C3.45519 25.8216 2.11493 25.4833 1.07636 26.083C0.0359681 26.6828 -0.309611 27.9956 0.302923 29.0159C2.03813 31.8994 4.08784 34.2745 6.44656 36.0354C6.93476 36.401 7.43576 36.7393 7.94773 37.0447C7.43576 37.35 6.93476 37.6865 6.44656 38.0521C5.41531 38.8238 4.35297 39.5954 3.29794 40.5736C2.24475 41.55 1.21715 42.7385 0.302923 44.2616C-0.309611 45.2801 0.0359681 46.5947 1.07636 47.1945C2.11493 47.7942 3.45519 47.4559 4.06773 46.4375C4.77169 45.2691 5.49393 44.439 6.30577 43.6802C7.11577 42.925 8.03732 42.2485 9.09417 41.4604C9.6098 41.0783 10.1218 40.7473 10.6356 40.4657C10.5734 40.5754 10.5131 40.687 10.4527 40.8022C8.96984 43.5887 7.44308 47.4559 7.43576 51.8607C7.43576 53.0419 8.41399 54 9.62078 54C10.8276 54 11.8058 53.0419 11.8058 51.8607C11.7984 48.4598 13.0382 45.1868 14.3236 42.7879C14.7149 42.0565 15.1062 41.4074 15.4591 40.8607C15.8321 41.4348 16.2453 42.1223 16.6549 42.9012C17.9202 45.2892 19.1196 48.511 19.1123 51.8607C19.1123 53.0419 20.0906 54 21.2992 54C22.506 54 23.4842 53.0419 23.4842 51.8607C23.4768 47.4559 21.9483 43.5887 20.4672 40.8022C20.405 40.687 20.3447 40.5754 20.2844 40.4657C20.7963 40.7473 21.3101 41.0783 21.8258 41.4604C22.8808 42.2485 23.8023 42.925 24.6142 43.6802C25.426 44.439 26.1464 45.2691 26.8504 46.4357C27.2581 47.114 27.9877 47.4907 28.7355 47.4907C29.1122 47.4907 29.4943 47.3956 29.8436 47.1945C30.8821 46.5947 31.2296 45.2801 30.617 44.2616Z" fill="#1F8FFF"/>
</svg>
