<svg width="60" height="60" viewBox="0 0 60 60" fill="none" xmlns="http://www.w3.org/2000/svg">
<rect width="60" height="60" fill="#5273E8"/>
<path fill-rule="evenodd" clip-rule="evenodd" d="M29.4781 50C28.1191 50 27.1972 49.453 26.5241 49.0537C26.0783 48.7892 25.8141 48.6395 25.5684 48.6395C25.2287 48.6395 24.978 48.715 24.631 48.8194C22.399 49.6088 20.8467 48.5852 19.5507 47.1727C19.19 46.8039 18.7812 46.3859 18.5282 46.3023C16.4791 45.693 14.3303 44.3179 14.3898 41.8372C14.3898 41.8372 14.3898 37.2635 14.3898 37.2635L11.5311 35.3699C10.8735 34.9351 10.4009 34.3231 10.1653 33.6006C9.71892 32.289 10.2022 30.7059 11.3071 29.8601C12.2537 29.1043 13.226 29.1168 14.3898 29.1394C14.3505 26.1066 14.2754 22.9487 15.5762 20.1396C17.8376 14.6918 23.5275 11 29.4781 11C35.4064 11 41.119 14.6918 43.3802 20.1396C44.6804 22.9478 44.6065 26.1117 44.5665 29.1394C45.7436 29.1191 46.7345 29.0929 47.6929 29.8601C48.7977 30.7059 49.2811 32.289 48.8347 33.6006C48.5991 34.3231 48.1265 34.9351 47.4679 35.3705L44.5665 37.2957V41.8372C44.5523 44.3198 42.7558 45.7533 40.327 46.3315C40.1362 46.3837 39.6685 46.8668 39.389 47.1554C38.0734 48.5997 36.5554 49.6031 34.3049 48.8195C33.9627 48.7189 33.6925 48.6395 33.3676 48.6395C33.1239 48.6395 32.8636 48.7882 32.4245 49.0512C31.7558 49.4516 30.8399 50 29.4781 50Z" fill="#3A3837"/>
<path fill-rule="evenodd" clip-rule="evenodd" d="M45.566 30.5H43.1951V25.9652C43.1951 18.4515 37.0539 12.3605 29.4783 12.3605C21.9028 12.3605 15.7616 18.4515 15.7616 25.9652V30.5H13.4344C11.3986 30.5 10.5992 33.1186 12.293 34.2386L15.7616 36.5361V41.8373C15.7616 43.6512 17.2272 44.4381 18.9622 45.0117C20.3339 45.4652 21.2483 47.7326 23.0772 47.7326C23.9916 47.7326 24.5184 47.2791 25.5686 47.2791C26.9403 47.2791 27.6494 48.6396 29.4783 48.6396C31.3073 48.6396 31.9944 47.2791 33.3678 47.2791C34.3877 47.2791 34.965 47.7326 35.8795 47.7326C37.7084 47.7326 38.6637 45.3417 39.9945 45.0117C41.8234 44.5582 43.1951 43.6512 43.1951 41.8373V36.5691L46.7073 34.2386C48.4011 33.1186 47.6017 30.5 45.566 30.5Z" fill="white"/>
<path fill-rule="evenodd" clip-rule="evenodd" d="M28.3571 24.8313C28.3571 26.7097 27.3335 28.2325 26.071 28.2325C24.8084 28.2325 23.7848 26.7097 23.7848 24.8313C23.7848 22.9529 24.8084 21.4301 26.071 21.4301C27.3335 21.4301 28.3571 22.9529 28.3571 24.8313Z" fill="#3A3837"/>
<path fill-rule="evenodd" clip-rule="evenodd" d="M35.2154 24.8313C35.2154 26.7097 34.1919 28.2325 32.9293 28.2325C31.6667 28.2325 30.6432 26.7097 30.6432 24.8313C30.6432 22.9529 31.6667 21.4301 32.9293 21.4301C34.1919 21.4301 35.2154 22.9529 35.2154 24.8313Z" fill="#3A3837"/>
</svg>
