<svg xmlns="http://www.w3.org/2000/svg" viewBox="0 0 80 80"><defs><linearGradient id="a" x1="0%" x2="100%" y1="100%" y2="0%"><stop offset="0%" stop-color="#055F4E"/><stop offset="100%" stop-color="#56C0A7"/></linearGradient></defs><g fill="none" fill-rule="evenodd"><path fill="url(#a)" d="M0 0h80v80H0z"/><path fill="#FFF" d="M54 25.5v9.167c0 .736-.597 1.333-1.333 1.333h-3.334v2h3.334c1.841 0 3.333-1.492 3.333-3.333V25.5h-2zm-28 9.167V25.5h-2v9.167c0 1.841 1.492 3.333 3.333 3.333h3.334v-2h-3.334A1.333 1.333 0 0126 34.667zM52.667 42h-3.334v2h3.334c.736 0 1.333.597 1.333 1.333v9.167h2v-9.167c0-1.841-1.492-3.333-3.333-3.333zm-25.334 0h-3.334c-1.841 0-3.333 1.492-3.333 3.333v9.167h2v-9.167c0-.736.597-1.333 1.333-1.333h3.334v-2zM40 31c-4.963 0-9 4.037-9 9s4.037 9 9 9 9-4.037 9-9-4.037-9-9-9zm0 16c-3.859 0-7-3.141-7-7s3.141-7 7-7 7 3.141 7 7-3.141 7-7 7z"/><path fill="#FFF" d="M40 34a6 6 0 100 12 6 6 0 000-12zm0 10a4 4 0 110-8 4 4 0 010 8z"/></g></svg>
