<svg xmlns="http://www.w3.org/2000/svg" viewBox="0 0 24 24"><title>To-Do_24x</title><path d="M3.713,7.854.394,11.172a1.17,1.17,0,0,0,0,1.655L5.367,17.8l4.974-4.974L5.367,7.854A1.169,1.169,0,0,0,3.713,7.854Z" fill="#185abd"/><path d="M23.606,6.2,20.288,2.88a1.17,1.17,0,0,0-1.655,0L14.487,7.026h0L9.513,12h0L5.367,16.146a1.17,1.17,0,0,0,0,1.655l3.319,3.318a1.17,1.17,0,0,0,1.655,0l4.146-4.146h0L19.46,12l4.146-4.146A1.17,1.17,0,0,0,23.606,6.2Z" fill="#41a5ee"/><rect width="24" height="24" fill="none"/></svg>