<svg xmlns="http://www.w3.org/2000/svg" viewBox="235 200 115 115"><g clip-path="url(#clipPath312-7)" transform="matrix(.62542 0 0 -.62542 101.247 567.973)"><path d="M0 0h-5.184v-56.985c0-8.879-5.16-16.902-15.523-16.902h-101.465v-2.709c0-7.851 8.922-15.763 18.084-15.763h77.581l29.678-17.449-4.31 17.449H0c9.156 0 13.287 7.906 13.287 15.763v63.068C13.287-5.683 9.156 0 0 0" style="fill:#2fa1db;fill-opacity:1;fill-rule:nonzero;stroke:none" transform="translate(385.579 529.593)"/><path d="M0 0h-117.85c-10.369 0-22.301-9.211-22.301-18.09v-71.424c0-8.177 10.11-14.082 19.807-14.987l-6.311-23.958 40.441 23.786H0c10.363 0 19.937 6.286 19.937 15.159v71.424C19.937-9.211 10.363 0 0 0m-99.871-60.292c-5.88 0-10.645 4.766-10.645 10.646S-105.751-39-99.871-39c5.874 0 10.646-4.766 10.646-10.646s-4.772-10.646-10.646-10.646m39.764 0c-5.88 0-10.646 4.766-10.646 10.646S-65.987-39-60.107-39s10.646-4.766 10.646-10.646-4.766-10.646-10.646-10.646m39.77 0c-5.881 0-10.652 4.766-10.652 10.646S-26.218-39-20.337-39c5.868 0 10.645-4.766 10.645-10.646s-4.777-10.646-10.645-10.646" style="fill:#2fa1db;fill-opacity:1;fill-rule:nonzero;stroke:none" transform="translate(349.725 569.184)"/></g></svg>