<?xml version="1.0" encoding="UTF-8"?>
<svg width="367px" height="270px" viewBox="0 0 367 270" version="1.1" xmlns="http://www.w3.org/2000/svg" xmlns:xlink="http://www.w3.org/1999/xlink">
    <!-- Generator: Sketch 51.3 (57544) - http://www.bohemiancoding.com/sketch -->
    <title>Artboard</title>
    <desc>Created with Sketch.</desc>
    <defs></defs>
    <g id="Artboard" stroke="none" stroke-width="1" fill="none" fill-rule="evenodd">
        <path d="M89.7917119,193.508761 L62.9000392,193.508761 L62.9000392,185.06412 C60.3311064,188.28895 57.7348835,190.639215 55.1112926,192.114985 C50.5200084,194.683918 45.3002339,195.968365 39.4518124,195.968365 C29.9959534,195.968365 21.5787254,192.716254 14.1998759,186.211935 C5.39991464,178.450478 1,168.174901 1,155.384895 C1,142.376257 5.50922929,131.991365 14.5278231,124.229909 C21.6880401,118.053538 29.9139674,114.9654 39.205852,114.9654 C44.6170083,114.9654 49.7001395,116.113203 54.4553981,118.408845 C57.1883053,119.720641 60.0031576,121.879605 62.9000392,124.885803 L62.9000392,70.3645766 L89.7917119,70.3645766 L89.7917119,193.508761 Z M63.7199073,155.466882 C63.7199073,150.656965 62.0255302,146.57133 58.6367253,143.209855 C55.2479203,139.848379 51.148621,138.167666 46.3387042,138.167666 C40.9822061,138.167666 36.5822914,140.189987 33.1388283,144.23469 C30.3512629,147.514178 28.9575012,151.258205 28.9575012,155.466882 C28.9575012,159.675559 30.3512629,163.419586 33.1388283,166.699075 C36.5276333,170.743777 40.9275479,172.766098 46.3387042,172.766098 C51.2032791,172.766098 55.3162428,171.09905 58.6777187,167.764903 C62.0391946,164.430756 63.7199073,160.331457 63.7199073,155.466882 Z M190.65006,193.508761 L163.758387,193.508761 L163.758387,185.06412 C161.189454,188.28895 158.593231,190.639215 155.969641,192.114985 C151.378356,194.683918 146.158582,195.968365 140.31016,195.968365 C130.854301,195.968365 122.437073,192.716254 115.058224,186.211935 C106.258263,178.450478 101.858348,168.174901 101.858348,155.384895 C101.858348,142.376257 106.367577,131.991365 115.386171,124.229909 C122.546388,118.053538 130.772315,114.9654 140.0642,114.9654 C145.475356,114.9654 150.558487,116.113203 155.313746,118.408845 C158.046653,119.720641 160.861506,121.879605 163.758387,124.885803 L163.758387,117.425004 L190.65006,117.425004 L190.65006,193.508761 Z M164.578255,155.466882 C164.578255,150.656965 162.883878,146.57133 159.495073,143.209855 C156.106268,139.848379 152.006969,138.167666 147.197052,138.167666 C141.840554,138.167666 137.440639,140.189987 133.997176,144.23469 C131.209611,147.514178 129.815849,151.258205 129.815849,155.466882 C129.815849,159.675559 131.209611,163.419586 133.997176,166.699075 C137.385981,170.743777 141.785896,172.766098 147.197052,172.766098 C152.061627,172.766098 156.174591,171.09905 159.536067,167.764903 C162.897543,164.430756 164.578255,160.331457 164.578255,155.466882 Z M294.54192,155.548869 C294.54192,168.557507 290.03269,178.942399 281.014097,186.703856 C273.85388,192.880226 265.627952,195.968365 256.336068,195.968365 C250.924911,195.968365 245.84178,194.820561 241.086522,192.524919 C238.353614,191.213123 235.538762,189.054159 232.64188,186.047961 L232.64188,231.550639 L205.750208,231.550639 L205.750208,117.425004 L232.64188,117.425004 L232.64188,125.869645 C235.046839,122.699473 237.643062,120.349208 240.430627,118.81878 C245.021911,116.249847 250.241686,114.9654 256.090107,114.9654 C265.545966,114.9654 273.963194,118.21751 281.342044,124.72183 C290.142005,132.483286 294.54192,142.758863 294.54192,155.548869 Z M266.584418,155.466882 C266.584418,151.148889 265.217985,147.404862 262.485078,144.23469 C259.041615,140.189987 254.614372,138.167666 249.203215,138.167666 C244.338641,138.167666 240.225677,139.834714 236.864201,143.168861 C233.502725,146.503008 231.822012,150.602307 231.822012,155.466882 C231.822012,160.276799 233.516389,164.362434 236.905194,167.72391 C240.293999,171.085386 244.393299,172.766098 249.203215,172.766098 C254.614372,172.766098 259.014286,170.743777 262.403091,166.699075 C265.190657,163.419586 266.584418,159.675559 266.584418,155.466882 Z M363.671373,142.267006 C359.899961,140.463288 356.073949,139.561442 352.19322,139.561442 C343.338601,139.561442 337.599582,143.168825 334.975991,150.3837 C333.992144,153.007291 333.500228,156.532689 333.500228,160.959998 L333.500228,193.508761 L306.608556,193.508761 L306.608556,117.425004 L333.500228,117.425004 L333.500228,129.886998 C336.342452,125.459689 339.403262,122.262235 342.682751,120.294542 C347.11006,117.670951 352.357164,116.359175 358.424218,116.359175 C359.845329,116.359175 361.594364,116.441161 363.671373,116.605136 L363.671373,142.267006 Z" id="dapr" fill="#0D2192"></path>
        <polygon id="tie" fill="#0D2192" fill-rule="nonzero" points="205.538409 194.062172 232.614551 194.062172 234.946621 257.633831 219.07648 268.75443 203.206339 257.633831"></polygon>
        <rect id="Rectangle-4" fill="#0D2192" fill-rule="nonzero" x="144.829497" y="2.27908829" width="102.722643" height="72.2941444" rx="2"></rect>
        <rect id="Rectangle-4" fill="#FFFFFF" fill-rule="nonzero" opacity="0.0799999982" x="144.829497" y="2.27908829" width="37.9976369" height="72.2941444"></rect>
        <rect id="Rectangle-3" fill="#0D2192" fill-rule="nonzero" x="112.390768" y="69.9090944" width="166.248488" height="17.3513412" rx="3.72016"></rect>
        <rect id="Rectangle-4" fill="#FFFFFF" fill-rule="nonzero" opacity="0.0799999982" x="112.390768" y="69.9090944" width="51.4375478" height="21.3554969"></rect>
    </g>
</svg>