<svg xmlns="http://www.w3.org/2000/svg" enable-background="new 0 0 192 192" height="192" viewBox="0 0 192 192" width="192"><rect fill="none" height="192" width="192"/><g><g><path d="M24.53,130l20.69,35.84c3.27,5.67,9.32,9.16,15.86,9.16h44.06l-7.93-24.07L78.15,130l-26.81-4.66 L24.53,130z" fill="#1967D2"/><path d="M182.06,86.84l-20.09-34.8l-17.28,19.13L134.49,96l11.08,26.57l16.27,17.6l20.22-35.01 C185.33,99.49,185.33,92.51,182.06,86.84z" fill="#1967D2"/><path d="M105.15,17H61.09c-6.54,0-12.59,3.49-15.86,9.16L24.53,62l26.81,4.66L78.15,62l19.57-20.93L105.15,17z" fill="#1967D2"/><path d="M57.75,96l20.4-34H24.53L10.19,86.84c-3.27,5.67-3.27,12.65,0,18.32L24.53,130h53.62L57.75,96z" fill="#4285F4"/><path d="M114.09,62l20.4,34l27.47-43.96l-14.94-25.88c-3.27-5.67-9.32-9.16-15.86-9.16h-26.01l-27,45H114.09z" fill="#4285F4"/><path d="M114.09,130H78.15l27,45h26.01c6.54,0,12.59-3.49,15.86-9.16l14.82-25.67L134.49,96L114.09,130z" fill="#4285F4"/></g></g></svg>