<svg width="40" height="40" viewBox="0 0 40 40" fill="none" xmlns="http://www.w3.org/2000/svg">
<path d="M12.2219 3.54937H28.6724V0H12.2219V3.54937ZM20.4505 7.09861C11.3797 7.09861 4 14.4783 4 23.5491C4 32.6203 11.3797 40 20.4505 40C29.5217 40 36.9014 32.6203 36.9014 23.5491C36.9014 14.4783 29.5217 7.09861 20.4505 7.09861ZM20.4505 36.4508C13.3366 36.4508 7.54885 30.663 7.54885 23.5491C7.54885 16.4353 13.3367 10.6478 20.4506 10.6478C27.5647 10.6478 33.3527 16.4353 33.3527 23.5491C33.3527 30.663 27.5647 36.4508 20.4506 36.4508" fill="black"/>
</svg>
