<svg xmlns="http://www.w3.org/2000/svg" id="Layer_1" data-name="Layer 1" viewBox="0 0 374.85 330"><defs><style>.cls-1{fill:#0078d4}.cls-2{fill:#28a8ea}.cls-5{fill:#0364b8}</style></defs><path d="M271.13 0h-167.4a20 20 0 0 0-17.3 10L2.69 155a20 20 0 0 0 0 20l83.74 145a20 20 0 0 0 17.35 10h167.4a20 20 0 0 0 17.35-10l83.69-145a20 20 0 0 0 0-20L288.53 10a20 20 0 0 0-17.4-10" class="cls-1"/><path d="M372.17 155 288.43 10a19.9 19.9 0 0 0-6-6.5l6.77 161.17 85.63.27a20 20 0 0 0-2.66-9.94" class="cls-2"/><path d="M775.26 550 859 695a20.1 20.1 0 0 0 5.43 6.08l36.39-58.56-126.67-94.74a20 20 0 0 0 1.11 2.22" style="fill:#14447d" transform="translate(-772.57 -375)"/><path d="M86.43 10 2.69 155a19 19 0 0 0-1.46 3.12l120.66-95.83L91.54 4.16A19.9 19.9 0 0 0 86.43 10" class="cls-1"/><path d="M271.13 0h-167.4a20 20 0 0 0-12.19 4.14l30.35 58.13L275.8.56a20.2 20.2 0 0 0-4.67-.56M128.19 267.5l161.03-102.81L121.89 62.27z" class="cls-2"/><path d="m1048.37 375.56-153.91 61.71 167.33 102.42-6.79-161.17a20 20 0 0 0-6.63-2.96" style="fill:#50d9ff" transform="translate(-772.57 -375)"/><path d="M1.23 158.1a20.07 20.07 0 0 0 .35 14.68L128.2 267.5l-6.31-205.23Z" class="cls-5"/><path d="M864.38 701.06A20.07 20.07 0 0 0 876.3 705h167.4a20 20 0 0 0 3.8-.38L900.77 642.5Z" style="fill:#0f335e" transform="translate(-772.57 -375)"/><path d="m128.2 267.5 146.73 62.12a20 20 0 0 0 7.54-3.15l6.75-161.78Z" class="cls-5"/><path d="m289.22 164.69-6.79 161.78a19.9 19.9 0 0 0 6-6.49l83.7-145a20 20 0 0 0 2.68-10.06Z" class="cls-1"/></svg>