<svg xmlns="http://www.w3.org/2000/svg" id="Layer_1" data-name="Layer 1" viewBox="0 0 374.85 330"><defs><style>.cls-1{fill:#0078d4}.cls-2{fill:#28a8ea}.cls-3{fill:#14447d}.cls-4{fill:#50d9ff}.cls-5{fill:#0364b8}.cls-6{fill:#0f335e}</style></defs><g><path d="M1043.7,375H876.3A20,20,0,0,0,859,385L775.26,530a20,20,0,0,0,0,20L859,695a20,20,0,0,0,17.35,10h167.4a20,20,0,0,0,17.35-10l83.69-145a20,20,0,0,0,0-20l-83.69-145A20,20,0,0,0,1043.7,375Z" class="cls-1" transform="translate(-772.57 -375)"/><g><path d="M1144.74,530,1061,385a19.87,19.87,0,0,0-6-6.5l6.77,161.17,85.63.27A20,20,0,0,0,1144.74,530Z" class="cls-2" transform="translate(-772.57 -375)"/><path d="M775.26,550,859,695a20.09,20.09,0,0,0,5.43,6.08l36.39-58.56L774.15,547.78A20.26,20.26,0,0,0,775.26,550Z" class="cls-3" transform="translate(-772.57 -375)"/><path d="M859,385,775.26,530a19.18,19.18,0,0,0-1.46,3.12l120.66-95.83-30.35-58.13A19.89,19.89,0,0,0,859,385Z" class="cls-1" transform="translate(-772.57 -375)"/><path d="M1043.7,375H876.3a20,20,0,0,0-12.19,4.14l30.35,58.13,153.91-61.71A20.16,20.16,0,0,0,1043.7,375Z" class="cls-2" transform="translate(-772.57 -375)"/><polygon points="128.19 267.5 289.22 164.69 121.89 62.27 128.19 267.5" class="cls-2"/><path d="M1048.37,375.56,894.46,437.27l167.33,102.42L1055,378.52A20,20,0,0,0,1048.37,375.56Z" class="cls-4" transform="translate(-772.57 -375)"/><path d="M773.8,533.1a20.07,20.07,0,0,0,.35,14.68L900.77,642.5l-6.31-205.23Z" class="cls-5" transform="translate(-772.57 -375)"/><polygon points="128.19 267.5 128.19 267.5 128.19 267.5 128.19 267.5" class="cls-1"/><path d="M864.38,701.06A20.07,20.07,0,0,0,876.3,705h167.4a20,20,0,0,0,3.8-.38L900.77,642.5Z" class="cls-6" transform="translate(-772.57 -375)"/><path d="M900.77,642.5l146.73,62.12a20,20,0,0,0,7.54-3.15l6.75-161.78Z" class="cls-5" transform="translate(-772.57 -375)"/><path d="M1061.79,539.69,1055,701.47a19.88,19.88,0,0,0,6-6.49l83.7-145a20,20,0,0,0,2.68-10.06Z" class="cls-1" transform="translate(-772.57 -375)"/></g></g></svg>