<svg width="24" height="24" viewBox="0 0 24 24" fill="none" xmlns="http://www.w3.org/2000/svg">
<path d="M9 3.75H6.25C5.42157 3.75 4.75 4.42157 4.75 5.25V9.37868C4.75 9.7765 4.59197 10.158 4.31066 10.4393L2.75 12L4.31066 13.5607C4.59196 13.842 4.75 14.2235 4.75 14.6213V18.75C4.75 19.5784 5.42157 20.25 6.25 20.25H9" stroke="currentColor" style="stroke:currentColor;stroke-opacity:1;" stroke-width="1.5"/>
<path d="M15 3.75H17.75C18.5784 3.75 19.25 4.42157 19.25 5.25V9.37868C19.25 9.7765 19.408 10.158 19.6893 10.4393L21.25 12L19.6893 13.5607C19.408 13.842 19.25 14.2235 19.25 14.6213V18.75C19.25 19.5784 18.5784 20.25 17.75 20.25H15" stroke="currentColor" style="stroke:currentColor;stroke-opacity:1;" stroke-width="1.5"/>
</svg>
