<svg width="24" height="24" viewBox="0 0 24 24" fill="none" xmlns="http://www.w3.org/2000/svg">
<path d="M9.25 3.75V8.25H4.75" stroke="currentColor" style="stroke:currentColor;stroke-opacity:1;" stroke-width="1.5"/>
<path d="M17.75 3C18.9926 3 20 4.00736 20 5.25V8.5H18.5V5.25C18.5 4.83579 18.1642 4.5 17.75 4.5H9.87109C9.67226 4.50006 9.48142 4.57913 9.34082 4.71973L5.71973 8.34082C5.57913 8.48142 5.50006 8.67226 5.5 8.87109V18.75C5.5 19.1642 5.83579 19.5 6.25 19.5H17.75C18.0762 19.5 18.3509 19.2908 18.4541 19H19.9854C19.8609 20.1249 18.9081 21 17.75 21H6.25C5.00736 21 4 19.9926 4 18.75V8.87109C4.00006 8.27444 4.23728 7.70218 4.65918 7.28027L8.28027 3.65918C8.70218 3.23728 9.27444 3.00006 9.87109 3H17.75Z" fill="currentColor" style="fill:currentColor;fill-opacity:1;"/>
<path d="M19.75 16.75L22.75 13.75L19.75 10.75" stroke="currentColor" style="stroke:currentColor;stroke-opacity:1;" stroke-width="1.5"/>
<path d="M22.75 13.75L10 13.75" stroke="currentColor" style="stroke:currentColor;stroke-opacity:1;" stroke-width="1.5"/>
</svg>
