<svg width="24" height="24" viewBox="0 0 24 24" fill="none" xmlns="http://www.w3.org/2000/svg">
<path d="M12 2.5C12.1677 2.5 12.3344 2.50411 12.5 2.5127V4.0166C12.3346 4.0064 12.168 4 12 4C7.58172 4 4 7.58172 4 12C4 16.4183 7.58172 20 12 20C12.168 20 12.3346 19.9926 12.5 19.9824V21.4863C12.3344 21.4949 12.1677 21.5 12 21.5C6.75329 21.5 2.5 17.2467 2.5 12C2.5 6.75329 6.75329 2.5 12 2.5ZM18.0947 19.2852C17.0603 20.1514 15.8393 20.8006 14.5 21.165V19.5996C15.3953 19.3052 16.2198 18.8568 16.9443 18.2861L18.0947 19.2852ZM21.3809 13.5C21.1783 14.7768 20.7203 15.9676 20.0625 17.0215L18.9131 16.0225C19.3615 15.2535 19.6868 14.4044 19.8584 13.5H21.3809ZM20.0635 6.97754C20.7213 8.03147 21.1783 9.22307 21.3809 10.5H19.8584C19.6868 9.59578 19.3623 8.74637 18.9141 7.97754L20.0635 6.97754ZM14.5 2.83398C15.8392 3.19838 17.0604 3.84773 18.0947 4.71387L16.9443 5.71289C16.2198 5.14234 15.3953 4.69371 14.5 4.39941V2.83398Z" fill="black" style="fill:black;fill-opacity:1;"/>
<path d="M12 1V23" stroke="black" style="stroke:black;stroke-opacity:1;" stroke-width="1.5"/>
</svg>
