<svg width="24" height="24" viewBox="0 0 24 24" fill="none" xmlns="http://www.w3.org/2000/svg">
<path d="M20.5204 14.248L21.0507 14.7783L21.9223 13.9067L20.7476 13.5332L20.5204 14.248ZM18.3466 16.4218L17.8162 15.8914L17.2859 16.4218L17.8162 16.9521L18.3466 16.4218ZM21.021 19.0962L21.5513 19.6265L22.0817 19.0962L21.5513 18.5659L21.021 19.0962ZM19.0965 21.0207L18.5662 21.5511L19.0965 22.0814L19.6268 21.5511L19.0965 21.0207ZM16.422 18.3463L16.9524 17.816L16.422 17.2856L15.8917 17.816L16.422 18.3463ZM14.2476 20.5208L13.5328 20.748L13.9063 21.9227L14.7779 21.0511L14.2476 20.5208ZM11.3231 11.3236L11.5504 10.6088L10.1692 10.1697L10.6084 11.5508L11.3231 11.3236ZM20.5204 14.248L19.99 13.7176L17.8162 15.8914L18.3466 16.4218L18.8769 16.9521L21.0507 14.7783L20.5204 14.248ZM18.3466 16.4218L17.8162 16.9521L20.4907 19.6265L21.021 19.0962L21.5513 18.5659L18.8769 15.8914L18.3466 16.4218ZM21.021 19.0962L20.4907 18.5659L18.5662 20.4904L19.0965 21.0207L19.6268 21.5511L21.5513 19.6265L21.021 19.0962ZM19.0965 21.0207L19.6268 20.4904L16.9524 17.816L16.422 18.3463L15.8917 18.8766L18.5662 21.5511L19.0965 21.0207ZM16.422 18.3463L15.8917 17.816L13.7172 19.9904L14.2476 20.5208L14.7779 21.0511L16.9524 18.8766L16.422 18.3463ZM14.2476 20.5208L14.9623 20.2935L12.0379 11.0963L11.3231 11.3236L10.6084 11.5508L13.5328 20.748L14.2476 20.5208ZM11.3231 11.3236L11.0959 12.0383L20.2931 14.9627L20.5204 14.248L20.7476 13.5332L11.5504 10.6088L11.3231 11.3236Z" fill="currentColor" style="fill:currentColor;fill-opacity:1;"/>
<path d="M7.6249 19.5793C5.00958 18.0664 3.25 15.2387 3.25 12C3.25 7.16751 7.16751 3.25 12 3.25C15.2231 3.25 18.0391 4.99263 19.5574 7.5871" stroke="currentColor" style="stroke:currentColor;stroke-opacity:1;" stroke-width="1.5"/>
<path d="M9.62446 16.1142C8.20498 15.2928 7.25 13.7579 7.25 12C7.25 9.37665 9.37665 7.25 12 7.25C13.7524 7.25 15.2832 8.19898 16.1064 9.61107" stroke="currentColor" style="stroke:currentColor;stroke-opacity:1;" stroke-width="1.5"/>
</svg>
