<svg width="24" height="24" viewBox="0 0 24 24" fill="none" xmlns="http://www.w3.org/2000/svg">
<path d="M17.1893 3.31066C17.7751 2.72487 18.7249 2.72487 19.3107 3.31066L20.6893 4.68934C21.2751 5.27513 21.2751 6.22487 20.6893 6.81066L12.6893 14.8107C12.408 15.092 12.0265 15.25 11.6287 15.25H8.75V12.3713C8.75 11.9735 8.90804 11.592 9.18934 11.3107L17.1893 3.31066Z" stroke="currentColor" style="stroke:currentColor;stroke-opacity:1;" stroke-width="1.5"/>
<path d="M10.6113 6H5.25C4.83579 6 4.5 6.33579 4.5 6.75V18.75C4.5 19.1642 4.83579 19.5 5.25 19.5H17.25C17.6642 19.5 18 19.1642 18 18.75V13.3887L19.5 11.8887V18.75C19.5 19.9926 18.4926 21 17.25 21H5.25C4.00736 21 3 19.9926 3 18.75V6.75C3 5.50736 4.00736 4.5 5.25 4.5H12.1104L10.6113 6Z" fill="currentColor" style="fill:currentColor;fill-opacity:1;"/>
<path d="M15.75 4.75L19.25 8.25" stroke="currentColor" style="stroke:currentColor;stroke-opacity:1;" stroke-width="1.5"/>
</svg>
