<svg xmlns="http://www.w3.org/2000/svg" xmlns:xlink="http://www.w3.org/1999/xlink" fill="#fff" fill-rule="evenodd" stroke="#000" stroke-linecap="round" stroke-linejoin="round" viewBox="0 0 63.75 85"><use xlink:href="#a" x="1.875" y="2.5"/><symbol id="a" overflow="visible"><g stroke="none"><path fill="#e44d26" d="M60 15H0l5 57.5L30 80l25-7.5z"/><path fill="#000" d="M7 0v11h3V7h4v4h3V0h-3v4h-4V0zm24 0v11h3V5l2.5 4L39 5v6h3V0h-3l-2.5 3.5L34 0zm13 0v11h9V8h-6V0z"/><path fill="#ebebeb" d="m22.366 65.21-8.214-2.464-.67-7.701-.221-2.545h8l.436 5.009L30 60v7.5zM30 32.5H19.522l.652 7.5H30v7.5H12.826l-.652-7.5-.652-7.5-.652-7.5H30z"/><path fill="#f16529" d="m51.739 52.5.435-5 .652-7.5.652-7.5.652-7.5.435-5H30v55l15.179-4.554 5.134-1.54.67-7.701.67-7.701z"/><path fill="#000" d="M19 0v3h3.5v8h3V3H29V0z"/><path d="M30 32.5h18.478l.652-7.5H30zm9.174 15H30V40h17.826l-.652 7.5-.435 5-.221 2.545-.67 7.701-8.214 2.464L30 67.5V60l8.304-2.491.435-5.009z"/></g></symbol></svg>