<svg xmlns="http://www.w3.org/2000/svg" xmlns:xlink="http://www.w3.org/1999/xlink" viewBox="0 0 63.75 85" fill="#fff" fill-rule="evenodd" stroke="#000" stroke-linecap="round" stroke-linejoin="round"><use xlink:href="#A" x="1.875" y="2.5"/><symbol id="A" overflow="visible"><g stroke="none"><path d="M60 15H0l5 57.5L30 80l25-7.5L60 15" fill="#e44d26"/><path d="M7 0v11h3V7h4v4h3V0h-3v4h-4V0zm24 0v11h3V5l2.5 4L39 5v6h3V0h-3l-2.5 3.5L34 0zm13 0v11h9V8h-6V0z" fill="#000"/><path d="M22.366 65.21l-8.214-2.464-.67-7.701-.221-2.545h8l.436 5.009L30 60v7.5zM30 32.5H19.522l.652 7.5H30v7.5h-9.174-8l-.652-7.5-.652-7.5-.652-7.5h8H30z" fill="#ebebeb"/><path d="M51.739 52.5l.435-5 .652-7.5.652-7.5.652-7.5.435-5H30v55l15.179-4.554 5.134-1.54.67-7.701.67-7.701z" fill="#f16529"/><path d="M19 0v3h3.5v8h3V3H29V0z" fill="#000"/><path d="M30 32.5h10.478 8l.652-7.5h-8H30zm9.174 15H30V40h9.826 8l-.652 7.5-.435 5-.221 2.545-.67 7.701-8.214 2.464L30 67.5V60l8.304-2.491.435-5.009z"/></g></symbol></svg>
