<svg width="40" height="40" viewBox="0 0 40 40" fill="none" xmlns="http://www.w3.org/2000/svg">
<path d="M8.64062 0H10.4375V1.78125H12.0937V0H13.8906V5.39062H12.0937V3.59375H10.4531V5.39062H8.64062M16.2656 1.79687H14.6797V0H19.6562V1.79687H18.0625V5.39062H16.2656M20.4453 0H22.3281L23.4844 1.89844L24.6406 0H26.5234V5.39062H24.7266V2.71875L23.4687 4.65625L22.2109 2.71875V5.39062H20.4453M27.4141 0H29.2109V3.60937H31.7578V5.39062H27.4141" fill="black"/>
<path d="M8.57812 36.7969L6 7.85938H34.3437L31.7656 36.7812L20.1484 40" fill="#E44D26"/>
<path d="M20.1719 37.5391V10.2344H31.7578L29.5469 34.9219" fill="#F16529"/>
<path d="M11.2656 13.7734H20.1719V17.3203H15.1562L15.4844 20.9531H20.1719V24.4922H12.2344M12.3906 26.2734H15.9531L16.2031 29.1094L20.1719 30.1719V33.875L12.8906 31.8437" fill="#EBEBEB"/>
<path d="M29.0469 13.7734H20.1562V17.3203H28.7187M28.3984 20.9531H20.1562V24.5H24.5312L24.1172 29.1094L20.1562 30.1719V33.8594L27.4219 31.8437" fill="white"/>
</svg>
