<svg width="424" height="434" viewBox="0 0 424 434" fill="none" xmlns="http://www.w3.org/2000/svg">
<path d="M53.9635 331L38 321.787L216.037 14L232 23.2128L53.9635 331Z" fill="#F5F6FB"/>
<path d="M218.56 410L41 307.385L50.2014 291.456L227.761 394.071L218.56 410ZM372.813 142.53L195.238 39.9295L204.44 24L382 126.615L372.813 142.53Z" fill="#DBDFF1"/>
<path d="M51.156 143L42 127.013L218.844 24L228 39.9868L51.156 143Z" fill="#DBDFF1"/>
<path d="M49 114H67.3483V320H49V114ZM356.652 114H375V320H356.652V114Z" fill="#DBDFF1"/>
<path d="M193 23.2119L370.121 331L386 321.788L208.879 14L193 23.2119Z" fill="#F5F6FB"/>
<path d="M216.006 402L208 388.093L361.994 299L370 312.907L216.006 402Z" fill="#DBDFF1"/>
<path d="M399.737 325.498C394.599 334.376 386.154 340.855 376.253 343.515C366.351 346.175 355.799 344.8 346.908 339.69C338.036 334.549 331.561 326.099 328.903 316.191C326.244 306.283 327.619 295.724 332.725 286.828C337.863 277.95 346.307 271.471 356.209 268.811C366.111 266.151 376.663 267.527 385.554 272.636C404.161 283.385 410.479 306.995 399.722 325.498H399.737ZM91.1654 147.179C86.0278 156.057 77.5831 162.536 67.6812 165.196C57.7793 167.856 47.2274 166.481 38.3369 161.371C29.4605 156.23 22.9832 147.778 20.3246 137.866C17.666 127.954 19.043 117.392 24.1538 108.495C29.2914 99.6165 37.7361 93.1379 47.638 90.4778C57.5399 87.8177 68.0918 89.193 76.9824 94.3025C85.8548 99.4434 92.3293 107.893 94.9877 117.802C97.6461 127.71 96.2717 138.268 91.1654 147.165V147.179ZM24.2695 325.498C19.1632 316.602 17.7888 306.043 20.4472 296.135C23.1056 286.227 29.5801 277.777 38.4525 272.636C47.343 267.527 57.8949 266.151 67.7969 268.811C77.6988 271.471 86.1434 277.95 91.2811 286.828C96.3873 295.724 97.7618 306.283 95.1034 316.191C92.445 326.099 85.9705 334.549 77.098 339.69C58.4909 350.323 34.8815 344.03 24.2695 325.513V325.498ZM332.841 147.194C327.735 138.297 326.36 127.739 329.019 117.831C331.677 107.922 338.151 99.4723 347.024 94.3315C355.914 89.222 366.466 87.8466 376.368 90.5067C386.27 93.1668 394.715 99.6454 399.852 108.524C404.959 117.42 406.333 127.978 403.675 137.886C401.016 147.795 394.542 156.245 385.669 161.386C376.779 166.495 366.227 167.87 356.325 165.21C346.423 162.55 337.978 156.072 332.841 147.194V147.194ZM212.003 434C204.356 434 196.881 431.731 190.523 427.479C184.165 423.228 179.21 417.186 176.285 410.116C173.359 403.047 172.594 395.268 174.087 387.763C175.58 380.259 179.263 373.366 184.672 367.956C190.08 362.547 196.97 358.864 204.47 357.373C211.97 355.882 219.744 356.65 226.808 359.58C233.872 362.51 239.908 367.471 244.155 373.834C248.401 380.198 250.666 387.678 250.663 395.33C250.636 405.58 246.554 415.403 239.309 422.649C232.065 429.896 222.247 433.977 212.003 434V434ZM212.003 77.3618C206.924 77.3694 201.893 76.374 197.2 74.4326C192.506 72.4912 188.241 69.6421 184.649 66.0483C181.058 62.4546 178.211 58.1871 176.27 53.4902C174.33 48.7934 173.336 43.7595 173.343 38.6773C173.343 28.4194 177.415 18.5817 184.664 11.3283C191.913 4.07492 201.745 0 211.996 0C222.247 0 232.079 4.07492 239.328 11.3283C246.576 18.5817 250.649 28.4194 250.649 38.6773C250.654 43.7571 249.659 48.7882 247.719 53.4824C245.778 58.1767 242.932 62.4419 239.342 66.0339C235.753 69.6258 231.49 72.474 226.799 74.4154C222.108 76.3567 217.08 77.353 212.003 77.3473" fill="#ADB3D2"/>
<path d="M164.089 188.949V244.346L211.804 272.044V216.648L164.089 188.949Z" fill="#5A5A89"/>
<path d="M259.546 188.949L211.831 216.648V272.044L259.546 244.346V188.949Z" fill="#383874"/>
<path d="M164.089 188.964L211.804 216.663L259.52 188.964L211.804 161.266L164.089 188.964Z" fill="#8676FF"/>
<path d="M164.413 319.042L211.972 346.649V309.255L164.413 281.648V319.042Z" fill="#4F4F5D"/>
<path d="M100 281.68L132.209 300.376V170.374L100 151.678V281.68Z" fill="#4F4F5D"/>
<path d="M291.791 170.374V262.984L244.232 290.591L276.441 309.288L324 281.68V151.678L291.791 170.374Z" fill="#4F4F5D"/>
<path d="M211.901 309.267V346.66L244.11 327.964L211.901 309.267Z" fill="#4F4F5D"/>
<path d="M291.746 170.361L323.952 151.663L211.976 86.6616L100 151.663L132.209 170.36L211.976 124.056L291.746 170.361Z" fill="#4F4F5D"/>
</svg>
