<?xml version="1.0" encoding="UTF-8"?>
<svg width="60px" height="60px" viewBox="0 0 60 60" version="1.1" xmlns="http://www.w3.org/2000/svg" xmlns:xlink="http://www.w3.org/1999/xlink">
    <title>redis_node_icon</title>
    <g id="redis_node_icon" stroke="none" stroke-width="1" fill="none" fill-rule="evenodd" stroke-linecap="round" stroke-linejoin="round">
        <g id="Group" transform="translate(0.000000, 4.000000)">
            <path d="M57.65625,39.9898909 C54.4546875,41.6728 37.869375,48.5509818 34.3378125,50.4069091 C30.80625,52.2628364 28.8440625,52.2448727 26.055,50.9013818 C23.2659375,49.5578909 5.60625,42.3658182 2.42625,40.8341818 C0.834375,40.0664727 0.001875,39.4216727 0.001875,38.8109091 L0.001875,32.6938182 C0.001875,32.6938182 22.981875,27.6488727 26.6925,26.3063273 C30.403125,24.9637818 31.6865625,24.9165091 34.8459375,26.0813091 C38.0053125,27.2461091 56.8809375,30.6837818 60,31.8372364 L60,37.8692364 C60,38.4743273 59.2809375,39.1522182 57.650625,39.9927273 L57.65625,39.9898909 Z" id="Path" fill="#A41E11"></path>
            <path d="M57.65625,33.8718545 C54.4546875,35.5566545 37.869375,42.4329455 34.3378125,44.2888727 C30.80625,46.1448 28.8440625,46.1268364 26.055,44.7833455 C23.2659375,43.4398545 5.60625,36.2487273 2.4253125,34.7152 C-0.755625,33.1816727 -0.8184375,32.1274909 2.3034375,30.8955636 L26.690625,21.3748364 C30.4003125,20.0341818 31.6846875,19.9850182 34.8440625,21.1498182 C38.0034375,22.3146182 54.4875,28.9309091 57.590625,30.1013818 C60.69375,31.2718545 60.830625,32.1870545 57.628125,33.8869818 L57.65625,33.8718545 Z" id="Path" fill="#D82C20"></path>
            <path d="M57.65625,30.0153455 C54.4546875,31.6982545 37.869375,38.5764364 34.3378125,40.4323636 C30.80625,42.2882909 28.8440625,42.2703273 26.055,40.9268364 C23.2659375,39.5833455 5.60625,32.3912727 2.42625,30.8596364 C0.834375,30.0919273 0.001875,29.4471273 0.001875,28.8363636 L0.001875,22.7192727 C0.001875,22.7192727 22.981875,17.6743273 26.6925,16.3317818 C30.403125,14.9892364 31.6865625,14.9419636 34.8459375,16.1067636 C38.0053125,17.2715636 56.8809375,20.7092364 60,21.8626909 L60,27.8946909 C60,28.4997818 59.2809375,29.1776727 57.650625,30.0181818 L57.65625,30.0153455 Z" id="Path" fill="#A41E11"></path>
            <path d="M57.65625,23.8982545 C54.4546875,25.5830545 37.869375,32.4593455 34.3378125,34.3152727 C30.80625,36.1712 28.8440625,36.1532364 26.055,34.8097455 C23.2659375,33.4662545 5.60625,26.2760727 2.4253125,24.7425455 C-0.755625,23.2090182 -0.8184375,22.1548364 2.3034375,20.9229091 L26.690625,11.4021818 C30.4003125,10.0596364 31.6846875,10.0123636 34.8440625,11.1781091 C38.0034375,12.3438545 54.4884375,18.9629818 57.609375,20.1126545 C60.7303125,21.2623273 60.849375,22.1983273 57.646875,23.8982545 L57.65625,23.8982545 Z" id="Path" fill="#D82C20"></path>
            <path d="M57.65625,19.6711273 C54.4546875,21.3540364 37.869375,28.2322182 34.3378125,30.0900364 C30.80625,31.9478545 28.8440625,31.928 26.055,30.5845091 C23.2659375,29.2410182 5.60625,22.0498909 2.42625,20.5163636 C0.834375,19.7505455 0.001875,19.1048 0.001875,18.4959273 L0.001875,12.3854545 C0.001875,12.3854545 22.981875,7.34050909 26.6925,5.99796364 C30.403125,4.65541818 31.6865625,4.60814545 34.8459375,5.77294545 C38.0053125,6.93774545 56.8809375,10.3640727 60,11.5175273 L60,17.5495273 C60,18.1546182 59.2809375,18.8325091 57.650625,19.6730182 L57.65625,19.6711273 Z" id="Path" fill="#A41E11"></path>
            <path d="M57.65625,13.5530909 C54.4546875,15.2378909 37.869375,22.1141818 34.3378125,23.9701091 C30.80625,25.8260364 28.8440625,25.8080727 26.055,24.4645818 C23.2659375,23.1210909 5.60625,15.9309091 2.4253125,14.3973818 C-0.755625,12.8638545 -0.8184375,11.8096727 2.3034375,10.5777455 L26.690625,1.05607273 C30.4003125,-0.286472727 31.6846875,-0.333745455 34.8440625,0.831054545 C38.0034375,1.99585455 54.4875,8.61592727 57.609375,9.76654545 C60.73125,10.9171636 60.849375,11.8522182 57.646875,13.5521455 L57.65625,13.5530909 Z" id="Path" fill="#D82C20"></path>
            <path d="M31.4971875,11.0315636 L29.6175,7.87941818 L23.6146875,7.33389091 L28.0940625,5.70392727 L26.7496875,3.20130909 L30.9421875,4.85396364 L34.8965625,3.54923636 L33.8278125,6.13505455 L37.8590625,7.65912727 L32.660625,8.20465455 L31.4971875,11.0315636 Z M21.4828125,17.3065455 L35.3859375,15.1537455 L31.1859375,21.3653818 L21.4828125,17.3065455 Z M10.3125,12.1396364 C10.3125,10.5304727 13.6265625,9.23425455 17.7440625,9.23425455 C21.8615625,9.23425455 25.175625,10.5295273 25.175625,12.1396364 C25.175625,13.7497455 21.8615625,15.0450182 17.7440625,15.0450182 C13.6265625,15.0450182 10.3125,13.7497455 10.3125,12.1396364 Z" id="Shape" fill="#FFFFFF"></path>
            <polygon id="Path" fill="#7A0C00" points="52.2328125 11.7141818 44.0090625 14.9901818 44.0025 8.4344"></polygon>
            <polygon id="Path" fill="#AD2115" points="44.0109375 14.9911273 43.1203125 15.3437818 34.903125 12.0677818 43.996875 8.43723636"></polygon>
        </g>
    </g>
</svg>