<svg width="40" height="40" viewBox="0 0 40 40" fill="none" xmlns="http://www.w3.org/2000/svg">
<path d="M13.2967 5.06586C13.8219 5.01628 14.3493 4.99467 14.8768 5.00111C23.0257 5.00111 29.5683 11.6316 29.6296 19.9714C29.5748 22.5524 27.8223 24.605 25.4377 24.605C23.0296 24.605 20.9454 22.8904 20.9454 19.9688C20.9454 16.6238 18.0802 13.982 14.6379 13.982C11.1994 13.982 8.72213 16.8466 8.67642 20.2809C8.67642 26.2962 12.1109 31.9528 16.9036 34.4742C17.3124 34.7332 17.4717 34.7591 17.8439 34.9689C16.7769 35.2668 15.5481 35.3704 14.8742 35.3704C6.6601 35.3704 0 28.6687 0 20.2796C0 12.4966 5.77209 5.88172 13.2941 5.06586H13.2967Z" fill="#46B1FF"/>
<path d="M22.1121 5.30853C27.6667 7.47988 31.3254 13.8565 31.3737 20.2785C31.2994 23.8642 28.3917 26.4594 25.3106 26.4594C22.2334 26.4594 19.0415 24.2557 19.0415 20.2759C19.0415 17.621 17.0361 15.8166 14.53 15.8166C12.17 15.8166 10.3706 17.7533 10.3706 20.2759C10.3706 22.4667 10.7931 23.7021 11.0056 24.6057C11.2142 25.5105 12.0513 27.1957 12.0709 27.2372C12.1491 27.3967 12.9445 28.8667 13.9563 30.0943C14.6212 30.878 15.3624 31.5945 16.169 32.2333C16.2512 32.2981 16.8992 32.7907 17.1469 32.9592C17.2382 33.0214 18.842 34.0481 20.4249 34.5615C22.0104 35.0722 23.3456 35.3704 25.1059 35.3704C33.2852 35.3704 40.0002 28.6748 40.0002 20.2785C40.0028 11.8809 33.4899 5 25.188 5C24.304 5 22.9545 5.15556 22.1108 5.30853H22.1121Z" fill="#8ED4FE"/>
</svg>
