<svg width="31" height="38" viewBox="0 0 31 38" fill="none" xmlns="http://www.w3.org/2000/svg">
<path d="M2.81782e-05 9.66563V24.6868C-0.00191548 25.0676 0.0967238 25.4423 0.286037 25.7732C0.47535 26.104 0.748695 26.3794 1.07863 26.5718L14.0511 34.0596C14.3791 34.2514 14.7526 34.3525 15.1329 34.3525C15.5133 34.3525 15.8868 34.2514 16.2148 34.0596L29.1872 26.5718C29.5176 26.3796 29.7914 26.1042 29.9812 25.7734C30.1711 25.4426 30.2704 25.0679 30.2691 24.6868V9.66563C30.2701 9.28463 30.1706 8.91004 29.9808 8.57927C29.791 8.24851 29.5173 7.97313 29.1872 7.78064L16.2148 0.292811C15.8868 0.101067 15.5133 0 15.1329 0C14.7526 0 14.3791 0.101067 14.0511 0.292811L1.07863 7.79367C0.749948 7.98421 0.477289 8.25741 0.287992 8.58595C0.0986944 8.91449 -0.000612102 9.28683 2.81782e-05 9.66563Z" fill="white"/>
<path d="M20.5389 37.8232L20.516 34.5676L20.5389 31.579L12.9725 33.4412" fill="white"/>
<path d="M20.1924 31.3217L21.6207 30.9506L21.0782 31.2566C20.9154 31.3525 20.7803 31.4886 20.6858 31.6517C20.5913 31.8148 20.5407 31.9994 20.5389 32.1877V32.7933L20.1924 31.3217Z" fill="#EBD3B9"/>
<path d="M9.90005 10.3395C10.3157 9.9329 10.8749 9.70508 11.4575 9.70508C12.04 9.70508 12.5993 9.9329 13.0149 10.3395C13.236 10.5496 13.412 10.8021 13.5322 11.0819C13.6525 11.3617 13.7145 11.6629 13.7145 11.9673C13.7145 12.2716 13.6525 12.5728 13.5322 12.8526C13.412 13.1324 13.236 13.385 13.0149 13.5951C12.5993 14.0017 12.04 14.2295 11.4575 14.2295C10.8749 14.2295 10.3157 14.0017 9.90005 13.5951C9.67895 13.385 9.50295 13.1324 9.38269 12.8526C9.26244 12.5728 9.20044 12.2716 9.20044 11.9673C9.20044 11.6629 9.26244 11.3617 9.38269 11.0819C9.50295 10.8021 9.67895 10.5496 9.90005 10.3395Z" fill="#0F2B46"/>
<path d="M19.6302 15.9945C20.0457 15.5889 20.6042 15.3617 21.186 15.3617C21.7678 15.3617 22.3263 15.5889 22.7418 15.9945C22.9629 16.2046 23.1389 16.4572 23.2591 16.737C23.3794 17.0168 23.4414 17.318 23.4414 17.6223C23.4414 17.9267 23.3794 18.2279 23.2591 18.5077C23.1389 18.7875 22.9629 19.04 22.7418 19.2501C22.3271 19.6573 21.7683 19.8856 21.186 19.8856C20.6037 19.8856 20.0449 19.6573 19.6302 19.2501C19.4091 19.04 19.2331 18.7875 19.1129 18.5077C18.9926 18.2279 18.9306 17.9267 18.9306 17.6223C18.9306 17.318 18.9926 17.0168 19.1129 16.737C19.2331 16.4572 19.4091 16.2046 19.6302 15.9945Z" fill="#0F2B46"/>
<path d="M9.90009 21.9783C10.3157 21.5717 10.875 21.3439 11.4575 21.3439C12.0401 21.3439 12.5993 21.5717 13.0149 21.9783C13.2356 22.1886 13.4112 22.4412 13.5312 22.721C13.6512 23.0007 13.7131 23.3019 13.7131 23.6061C13.7131 23.9103 13.6512 24.2114 13.5312 24.4911C13.4112 24.7709 13.2356 25.0236 13.0149 25.2339C12.5985 25.6389 12.0396 25.8657 11.4575 25.8657C10.8755 25.8657 10.3165 25.6389 9.90009 25.2339C9.67941 25.0236 9.50378 24.7709 9.38379 24.4911C9.2638 24.2114 9.20193 23.9103 9.20193 23.6061C9.20193 23.3019 9.2638 23.0007 9.38379 22.721C9.50378 22.4412 9.67941 22.1886 9.90009 21.9783Z" fill="#0F2B46"/>
<path d="M12.5508 13.1785L19.0386 16.9289L20.1172 16.3201L13.6326 12.5502L12.5508 13.1785Z" fill="#0F2B46"/>
<path d="M19.457 19.6798L13.6195 23.0623L12.5508 22.4438L18.3882 19.084L19.457 19.6798Z" fill="#0F2B46"/>
</svg>
