<svg height="2500" viewBox="0 0 550 689.9" width="1993" xmlns="http://www.w3.org/2000/svg"><path d="m274.8 0c1.8 0 2.9.1 4.2.2 1 .1 2.3.3 2.9.4s1.7.4 2.4.5c.7.2 2 .6 2.9.9.8.2 2.2.7 3 1.1.8.3 2 .9 2.6 1.2.7.4 54.6 31.6 119.8 69.5 65.2 37.8 119.1 69.1 119.8 69.6s1.9 1.4 2.7 2c.7.6 2 1.7 2.8 2.5s1.9 1.9 2.4 2.5c.5.5 1.2 1.4 1.6 2 .5.6 1.1 1.4 1.4 1.9.4.5 1 1.5 1.4 2.2s1 1.9 1.3 2.5c.3.7.9 1.9 1.2 2.7s.7 1.9.9 2.5c.2.7.5 1.7.7 2.4.1.7.4 1.9.5 2.7.2.7.4 2 .5 2.7.1 1.2.1 9.7.2 140.5 0 99.4 0 139.7-.1 140.8-.1.8-.2 2.1-.3 2.9-.1.7-.3 1.7-.4 2.1-.1.5-.3 1.4-.4 2.1-.2.6-.6 1.8-.8 2.6-.3.8-.7 2-1 2.6-.2.7-.6 1.6-.9 2.1l-1.1 2.2c-.4.7-1.1 1.8-1.5 2.5-.4.6-1.1 1.6-1.6 2.2-.4.5-1 1.3-1.4 1.7-.4.5-1.2 1.4-1.9 2.1s-1.7 1.6-2.2 2.1c-.6.5-1.5 1.3-2.1 1.7-.5.4-1.5 1.1-2.2 1.5-.6.5-32.2 18.8-70.1 40.8-38 22-69.1 40.1-69.2 40.2s-2.2 1.3-4.7 2.7c-2.5 1.5-5 2.9-5.5 3.2s-1 .6-1.2.8c-.2.1-.8.6-1.4 1.1l-1.8 1.8c-.4.5-1 1.3-1.4 1.8-.3.4-.9 1.4-1.3 2.1s-.8 1.7-1 2.2-.5 1.4-.6 2c-.2.5-.4 1.4-.4 2-.2.8-.2 2.2-.3 7.3 0 3.5-.1 13.5-.2 22.4-.1 14.5-.1 18.9.1 45.9.1 16.5.1 29.9.1 29.9l-57.5-33.3c-31.6-18.4-58-33.7-58.6-34s-54.4-31.6-119.6-69.4-119.1-69.2-119.8-69.7c-.7-.4-1.8-1.2-2.4-1.7s-1.7-1.4-2.4-2c-.6-.6-1.7-1.6-2.3-2.3s-1.4-1.6-1.8-2.1-1-1.3-1.4-1.9c-.4-.5-1-1.5-1.4-2.1s-1-1.7-1.4-2.5c-.4-.7-1-2-1.3-2.8-.4-.8-.9-2.1-1.2-2.9-.2-.8-.6-2.1-.8-2.7-.1-.7-.4-1.7-.5-2.3s-.2-1.5-.3-2.2c-.1-.6-.3-2-.3-3-.2-1.6-.2-18-.2-139.5 0-122.2 0-137.9.2-139.5 0-1 .2-2.3.3-2.9s.2-1.7.4-2.4c.1-.6.4-1.7.5-2.3l.9-2.7c.2-.8.8-2.2 1.1-3 .4-.8 1.1-2.2 1.6-3 .4-.9 1.2-2.2 1.7-2.9s1.2-1.8 1.7-2.4 1.4-1.6 2-2.3 1.6-1.8 2.3-2.4 1.7-1.5 2.3-2c.6-.4 1.8-1.3 2.7-1.9.8-.6 6.7-4.1 13.1-7.7 6.3-3.7 59.5-34.7 118.2-68.9 58.8-34.2 107.5-62.5 108.4-62.9.8-.5 2.3-1.1 3.2-1.5s2.3-.8 3-1.1c.7-.2 1.9-.5 2.6-.7.7-.1 1.9-.4 2.6-.5s1.8-.2 2.4-.3 1.1-.1 1.1-.2h2.5z" fill="#0f2b46"/><path d="m208.8 177.2c1.6 0 3.2.1 4 .2s2 .3 2.7.4c.8.2 2 .4 2.8.6.7.2 1.9.6 2.6.8s1.7.6 2.2.8 1.7.7 2.6 1.1c.9.5 2.1 1.1 2.8 1.5.6.3 1.6 1 2.1 1.3.6.4 1.5 1 1.9 1.4.5.3 1.3.9 1.8 1.4.5.4 1.7 1.6 2.8 2.6 1 1.1 2.3 2.4 2.8 3 .4.6 1.2 1.5 1.6 2.1s1.2 1.8 1.7 2.5c.5.8 1.2 2.2 1.7 3.2.5.9 1.1 2.4 1.5 3.2.3.9.7 2 .8 2.4.2.5.4 1.3.6 1.8.1.5.3 1.4.5 2.1.1.6.3 1.6.4 2.1s.2 1.5.3 2.3c.1.7.2 2.3.2 3.4v3.7c-.1.8-.2 1.9-.3 2.4 0 .4-.2 1.5-.3 2.2-.2.8-.4 1.8-.5 2.4-.2.8-.2 1.1-.2 1.1.1.1 24.5 14.3 108.3 63.2l.9-.9c.5-.5 1.3-1.2 1.6-1.5.4-.3 1.4-1.1 2.1-1.6.7-.6 1.9-1.4 2.7-1.9.7-.4 1.9-1.1 2.8-1.6.8-.4 2.1-1 2.9-1.4.8-.3 2.2-.8 3-1.1.8-.2 2.2-.7 3.2-.9.9-.2 2.2-.5 2.9-.6.6-.1 1.7-.3 2.3-.3.7-.1 2.2-.2 4.4-.2 2.7 0 3.7.1 4.8.2.7.1 1.9.3 2.7.4.7.2 1.9.4 2.7.6.7.2 2 .6 2.9.9.8.3 2 .7 2.5 1 .5.2 1.6.7 2.4 1.1s2.1 1 2.8 1.5c.8.5 1.7 1 2.1 1.3.3.3 1 .7 1.4 1.1.5.3 1.3.9 1.8 1.4.5.4 1.5 1.4 2.3 2.1.8.8 1.8 1.9 2.3 2.4.5.6 1.3 1.5 1.7 2.1.5.6 1.2 1.6 1.7 2.3.4.6 1 1.6 1.4 2.3.4.6.9 1.5 1.1 2 .2.4.7 1.5 1.1 2.3.3.8.8 2.1 1.1 2.8.2.8.6 1.9.8 2.6s.4 1.9.6 2.6c.1.8.3 2 .4 2.8s.3 2.3.3 3.4q.1 2 0 3.9c0 1.1-.1 2.5-.2 3.2s-.3 1.8-.4 2.6c-.2.7-.4 1.8-.6 2.5s-.6 2-.8 2.9c-.4.9-.9 2.3-1.2 3.1-.4.8-.9 1.9-1.1 2.3-.2.5-.7 1.4-1.1 2-.4.7-.9 1.5-1.2 1.9-.2.4-.8 1.3-1.3 1.9-.4.6-1.2 1.6-1.6 2.1-.5.5-1.4 1.6-2.1 2.3s-1.8 1.8-2.4 2.3c-.6.6-1.6 1.4-2.2 1.8-.5.4-1.5 1.2-2.2 1.6-.6.4-1.6 1-2.1 1.3s-1.5.9-2.3 1.2c-.7.4-1.8.9-2.4 1.2-.5.2-1.5.6-2.1.8s-1.8.6-2.6.8c-.7.2-2 .5-2.9.7-.8.2-2.2.4-3.1.5-1.5.2-2.2.3-4.9.3-2.5 0-3.5-.1-4.6-.2-.8-.1-2-.3-2.8-.4l-2.8-.7c-.8-.2-2.2-.6-3-.9-.9-.3-2.2-.8-2.8-1-.7-.3-1.9-.9-2.7-1.3s-2-1.1-2.6-1.5c-.6-.3-1.4-.8-1.7-1.1-.4-.3-1.1-.7-1.5-1.1-.5-.3-1.3-1-1.9-1.5-.5-.4-1.7-1.6-2.6-2.4-.8-.9-1.9-2.1-2.4-2.6-.5-.6-1.2-1.5-1.5-2-.4-.5-1-1.3-1.3-1.8-.4-.5-1-1.5-1.4-2.2s-1-1.9-1.4-2.6c-.3-.8-.9-2-1.2-2.8s-.7-1.9-.9-2.6c-.2-.6-.5-1.7-.7-2.5s-.5-1.9-.6-2.5c-.1-.7-.3-1.7-.4-2.4 0-.7-.2-2.1-.2-3.2-.1-1.2-.1-2.6 0-3.8 0-1 .2-2.5.2-3.2.1-.7.4-2.1.6-3.1.1-.9.5-2.3.7-2.9.1-.7.3-1.4.4-1.5q.1-.2-.1-.1c-.1.1-14.7-8.3-107.7-62.3l-1.6 1.4c-.8.8-2 1.9-2.6 2.4s-1.6 1.3-2.2 1.7c-.7.5-1.7 1.2-2.2 1.5-.6.4-1.8 1-2.7 1.5s-2.1 1.1-2.8 1.3c-.6.3-1.8.8-2.5 1-.7.3-1.9.6-2.7.8-.7.2-1.7.5-2.3.6s-1.4.3-1.9.4c-.5 0-1.4.2-2 .2-.7.1-2.3.2-4.5.2-2.9 0-3.6-.1-5-.3-.9-.1-2.3-.3-3-.4-.7-.2-1.9-.5-2.8-.7-.8-.2-2-.6-2.7-.9-.7-.2-1.7-.6-2.3-.9-.5-.2-1.7-.7-2.5-1.2-.9-.4-2.2-1.1-2.9-1.6-.8-.5-1.9-1.2-2.6-1.7-.6-.5-1.6-1.2-2-1.6-.5-.4-1.4-1.2-2.1-1.9s-1.8-1.8-2.4-2.5c-.6-.6-1.5-1.7-2-2.3s-1.3-1.7-1.8-2.5-1.2-1.8-1.4-2.3c-.3-.4-.8-1.3-1.1-2s-.8-1.7-1.1-2.4c-.3-.6-.7-1.9-1.1-2.9-.3-.9-.7-2.2-.8-2.7-.2-.6-.4-1.6-.5-2.3-.2-.8-.4-2-.5-2.9-.2-1-.2-2.4-.3-4.2 0-1.6 0-3.2.1-4.1 0-.7.2-2 .3-2.8s.3-1.8.4-2.2c0-.4.3-1.3.4-2 .2-.7.5-1.8.8-2.5.2-.7.6-1.8.8-2.5.3-.6.8-1.9 1.2-2.7.5-.9 1-2 1.3-2.4.2-.5.8-1.4 1.2-2s1.1-1.6 1.5-2.2c.5-.6 1.2-1.6 1.7-2.2.5-.5 1.6-1.7 2.4-2.6.9-.8 2.2-2 2.9-2.6s1.9-1.5 2.5-2c.7-.4 1.8-1.2 2.5-1.6s1.9-1.1 2.6-1.5c.8-.3 1.9-.9 2.7-1.2.7-.3 2-.8 2.7-1 .8-.3 2.2-.7 3.1-.9.8-.2 2.2-.5 3-.7.8-.1 2-.2 2.7-.3.6-.1 1.3-.1 1.6-.2h3.1zm125.1 170.8c.1 0 4.5 2.5 9.9 5.5 5.3 3.1 9.7 5.6 9.8 5.6 0 .1-23.8 13.9-52.8 30.8-50.7 29.5-52.8 30.7-52.7 31 0 .1.2.9.3 1.7.2.8.4 2 .5 2.7s.2 1.9.3 2.8c0 .9.1 2.3 0 3.6 0 1.2-.1 2.7-.2 3.5-.1.7-.2 1.8-.3 2.3s-.3 1.3-.4 1.9c-.1.5-.4 1.5-.5 2.2-.2.7-.5 1.7-.7 2.3s-.6 1.5-.8 2-.7 1.7-1.1 2.6c-.4.8-1 2-1.3 2.5s-1 1.6-1.6 2.5c-.5.8-1.5 2.2-2.1 2.9-.6.8-1.8 2.1-2.7 3s-2.1 2.1-2.7 2.6c-.6.6-1.6 1.3-2.1 1.7s-1.5 1.1-2.1 1.5c-.5.4-1.5 1-2 1.3s-1.7.9-2.6 1.3c-.9.5-2.1 1-2.8 1.3-.6.2-1.6.6-2.2.8s-1.5.5-2.1.6c-.6.2-1.5.4-2 .5-.6.1-1.4.3-1.9.4s-1.6.2-2.3.3c-.8.1-2.3.2-3.4.2-1.2.1-2.6 0-3.6 0-.9-.1-2.1-.2-2.7-.3-.7-.1-1.9-.3-2.8-.5-.8-.1-1.9-.4-2.4-.5-.5-.2-1.4-.5-2.1-.6-.6-.3-1.6-.6-2.2-.9-.7-.2-1.9-.8-2.8-1.2-.8-.4-2-1-2.6-1.4-.6-.3-1.7-1-2.3-1.4-.7-.5-1.7-1.1-2.2-1.5s-1.3-1.1-1.9-1.6c-.5-.4-1.7-1.6-2.6-2.5-1-1-2.1-2.3-2.6-2.8-.4-.6-1.1-1.4-1.4-1.9-.3-.4-.9-1.2-1.2-1.7-.4-.6-.9-1.5-1.3-2.1-.3-.6-.8-1.4-1-1.9-.2-.4-.7-1.4-1-2.2-.4-.8-.8-2.1-1.1-2.8-.3-.8-.7-2.2-.9-3.2-.3-1-.6-2.3-.7-3-.1-.6-.3-1.7-.4-2.4-.1-1-.1-2-.1-4.8 0-3 0-3.7.2-5.1.1-.9.3-2.3.5-3.1.2-.9.5-2.3.8-3.2.2-.8.6-2.1.9-2.8.2-.7.7-1.9 1-2.6s.8-1.6 1-2 .7-1.2.9-1.7c.3-.5.9-1.5 1.4-2.2s1.2-1.8 1.7-2.4 1.2-1.5 1.7-2c.4-.5 1.5-1.7 2.4-2.5.9-.9 2.3-2.1 3-2.7.8-.7 1.9-1.5 2.4-1.8.6-.4 1.4-1 1.9-1.3s1.8-1 2.8-1.5c1.1-.6 2.5-1.2 3.1-1.4.6-.3 1.7-.7 2.4-.9.8-.3 1.9-.6 2.6-.8.7-.1 1.8-.4 2.6-.5.7-.2 1.8-.4 2.5-.4.7-.1 2.1-.2 3.1-.3h3.8c1 .1 2.5.2 3.1.3.7 0 1.8.2 2.6.4.7.1 1.9.4 2.7.6.7.2 2.1.6 2.9.9.8.2 2.1.7 2.7 1 .7.3 1.9.9 2.8 1.3.9.5 2.2 1.2 2.8 1.6l2.1 1.4c.5.4 1.4 1 1.9 1.4s1.5 1.4 2.4 2.2c.8.7 1.7 1.6 2.5 2.5l47.6-27.5c26.3-15.2 47.7-27.6 47.7-27.6z" fill="#fff"/></svg>
