<svg width="60" height="60" xmlns="http://www.w3.org/2000/svg"><g fill="#02723B" fill-rule="evenodd" stroke-linecap="round" stroke-linejoin="round"><path d="M43.1 20.227h9.512v4.692h-9.513zm0-7.034h9.512v4.69h-9.513zm0 14.227h9.512v4.691h-9.513zm0 7.036h9.512v4.691h-9.513z"/><path d="M43.1 41.649h9.512v4.69h-9.513v-4.69zM58.07 6.78H35.146V.37L.37 6.467v47.22l34.776 5.942v-7.186H58.07c.935 0 1.559-.781 1.559-1.555V8.344c0-.781-.624-1.555-1.56-1.555V6.78zM20.018 40.554l-3.274-8.593h-.148c0 .149-3.275 8.13-3.275 8.13l-4.366-.312L14.1 29.616 9.422 19.453l4.367-.312 2.963 7.974h.148c0-.148 3.274-8.287 3.274-8.287l4.522-.312-5.457 11.101 5.614 11.102-4.834-.149-.001-.016zM57.6 50.717H35.146v-4.37h5.458v-4.691h-5.458v-2.352h5.458v-4.69h-5.458v-2.347h5.458v-4.69h-5.458V25.23h5.458v-4.69h-5.458v-2.345h5.458v-4.692h-5.458v-4.69h22.456v41.903h-.001z"/><path d="M42.729 19.857h9.512v4.691H42.73zm0-7.035h9.512v4.691H42.73zm0 14.228h9.512v4.69H42.73zm0 7.036h9.512v4.691H42.73z"/><path d="M42.729 41.279h9.512v4.69H42.73v-4.69zM57.699 6.41H34.776V0L0 6.098v47.22l34.776 5.941v-7.185h22.923c.936 0 1.56-.781 1.56-1.555V7.974c0-.781-.624-1.555-1.56-1.555V6.41zM19.647 40.184l-3.274-8.593h-.148c0 .148-3.274 8.13-3.274 8.13l-4.367-.312 5.146-10.163-4.678-10.163 4.367-.313 2.962 7.974h.149c0-.148 3.274-8.286 3.274-8.286l4.522-.313-5.458 11.102 5.615 11.101-4.834-.148-.002-.016zM57.23 50.347H34.776v-4.37h5.457v-4.692h-5.457v-2.352h5.457v-4.69h-5.457v-2.347h5.457v-4.69h-5.457V24.86h5.457v-4.69h-5.457v-2.346h5.457v-4.692h-5.457v-4.69h22.456v41.904h-.002z"/></g></svg>