<svg xmlns="http://www.w3.org/2000/svg" width="1496" height="1495"><path fill="#58B0FB" d="m210.495-.5 2.313-.017c2.577-.013 5.153.002 7.73.016q2.799-.006 5.598-.016c5.163-.015 10.325-.005 15.488.01 5.603.01 11.207-.002 16.81-.011 9.832-.013 19.664-.01 29.496 0q15.829.02 31.658.01h2.018l8.135-.006q37.913-.024 75.824 0a106286 106286 0 0 0 96.092.015l51.51-.003h2.37q37.387.002 74.773.018l2.451.001 39.4.018a239370 239370 0 0 0 166.156.017h2.466l27.04-.006h2.45a294823 294823 0 0 1 153.79.015q25.129.007 50.258.003h2.29l11.414-.003a84262 84262 0 0 1 92.529.028c11.168.008 22.336.004 33.504-.003q14.544-.008 29.089.015 8.302.014 16.606.002 7.54-.014 15.08.012 2.723.005 5.448-.006c2.45-.01 4.9 0 7.35.014l2.156-.022c4.785.056 4.785.056 7.06 1.882L1298 3c3.155 1.126 6.426 1.286 9.75 1.563l2.984.253L1313 5l1 3c3.015 1.005 5.042 1.103 8.188 1.063l2.73-.028L1327 9v2h-2v2h4v2l2.25-.687c2.75-.313 2.75-.313 4.813 1.062L1338 17l2.188.5 1.812.5 1 3c1.874.802 1.874.802 4.063 1.188l2.222.48L1351 23v3l2.625-.125c3.499.13 6.12.885 9.375 2.125l-2 2 7 2v2l3 1v3l2.313-.125C1376 38 1376 38 1379 40v3h5l1 3h2v2h5l1 3c2.473 2.132 5.046 3.628 8 5v4l5-1v5h3v2h2c1.332 1.39 1.332 1.39 2.813 3.25 1.931 2.353 3.568 4.046 6 5.938 2.342 1.94 2.869 2.841 3.187 5.812h3l1 4h2v2h3c4 5.257 4 5.257 4 8l3 1c5 5.465 5 5.465 5 8h2c4 6.625 4 6.625 4 10l1.813.625c3 1.886 3.67 4.214 5.187 7.375l2 1.813c2.587 2.83 3.226 5.598 4.191 9.261L1464 135l3 1q1.034 3.49 2 7l1.5 1.5c2.347 2.347 2.616 5.352 3.5 8.5q1.497 2.002 3 4 1.344 2.752 2.563 5.563c1.33 3.054 2.582 5.655 4.437 8.437.563 2.498.947 4.997 1.34 7.527.501 2.53.501 2.53 2.164 4.387 2.005 2.796 2.119 5.126 2.496 8.524.503 4.711.503 4.711 2.466 8.937 5.405 9.248 3.815 22.242 3.783 32.652q.002 2.732.008 5.464c.007 5.001.001 10.002-.006 15.003-.006 5.443 0 10.885.004 16.327q.007 14.306-.003 28.61c-.01 14.182-.008 28.363-.004 42.545q.008 35.785-.006 71.572a189924 189924 0 0 0-.013 93.224l-.001 50.007v2.3q-.002 36.278-.012 72.556v2.376l-.01 38.214a525546 525546 0 0 0-.02 192.187 793091 793091 0 0 1-.01 129.212l-.004 20.054-.005 48.76v11.08q0 41.074-.014 82.148-.009 21.15-.006 42.3 0 14.111-.009 28.223-.005 8.05-.002 16.1.003 7.318-.005 14.635-.002 2.637 0 5.274.004 3.572-.005 7.143l.007 2.062c-.017 4.283-.467 8.37-1.133 12.597l-.312 3.625c-.688 3.375-.688 3.375-2.696 5.672-2.445 3.318-2.484 5.253-2.554 9.328-.118 6.035-.118 6.035-1.868 7.895L1486 1311c-.937 2.885-.937 2.885-1.562 6.063-1.23 5.729-1.23 5.729-3.438 7.937a102 102 0 0 0-1.875 4.813c-1.554 4.047-3.392 6.817-6.125 10.187a309 309 0 0 0-2 7q-1.47 2.023-3 4a100 100 0 0 0-2 6h-2c-2.41 6.888-2.41 6.888-4 14l-5-1-.312 2.188c-1.025 4.192-3.315 7.253-5.688 10.812h-2l-.375 2.375C1446 1388 1446 1388 1444 1390l-1 3-3 1a131 131 0 0 0-4 5c-1.625 1.813-1.625 1.813-3 3h-2l-.812 2.313c-1.14 2.577-2.002 3.957-4.188 5.687h-2v3l-2 1v3l-5 2v3l-2.875.25c-3.23.4-3.23.4-4.5 2.813L1409 1427h-2l-1 4h-4l-.125 1.688c-1.344 3.552-3.885 5.022-6.875 7.312l-2-1-1 5-1.75.313c-2.346.57-2.346.57-4.25 2.25-2 1.437-2 1.437-6 1.437v4h-3l-1 4-5-1v2c-1.187 1.625-1.187 1.625-3 3-2.687.188-2.687.188-5 0v4h-5v2h-4l1 2-10 3 3 2c-1.666.043-3.334.04-5 0l-1-1-1 2h-3l-1 2c-1.75.563-1.75.563-4 1l-2.75.563-2.25.437-1 3h-10c-1.224 2.075-1.224 2.075-1 5-3.406.778-6.508 1.1-10 1l3 1v2l-2.012-.035c-6.551-.084-6.551-.084-12.988 1.035v3c-2.963 1.482-5.97 1.136-9.218 1.124l-2.295.004q-3.855.003-7.71-.005-2.783 0-5.568.004-7.716.004-15.432-.005c-5.58-.003-11.16 0-16.74 0q-14.691.004-29.382-.003-21.846-.008-43.691-.005-36.742.001-73.483-.008-36.397-.01-72.793-.011h-2.281l-71.927-.004h-2.36a1081071 1081071 0 0 1-153.15-.022H785.5a1310124 1310124 0 0 0-170.031-.018l-101.975-.009c-79.844-.007-159.689-.018-308.493-.042l1-4-2.312-.375C201 1490 201 1490 198 1488c-3.65-.378-7.28-.506-10.945-.656L184 1487l-1-2 1-2h-3v-2h-2l-1 2v-2h-8l1-3-2.012-.078c-5.584-.359-8.874-.808-12.988-4.922l-2-1v2l-7-1v-1l5-1-1.715-.332-2.222-.48-2.215-.458L144 1469l-1-3-8-1 2-4-2.312.125C132 1461 132 1461 129 1459v-2l-2.937-.375L123 1456l-1-2c-3.369-1.56-3.369-1.56-7-2v-2h2v-2l-3.312-.312c-3.785-.706-4.404-.885-6.688-3.688l-2.562-2c-2.438-2-2.438-2-4.438-5a118 118 0 0 0-7-3v-2l-4-1-.312-1.937L88 1427l-3-1a173 173 0 0 1-5-6l-2-2-2-3c-2.552-1.205-2.552-1.205-5-2v-3l-3-2v-2c-2.334-2.012-4.048-3.016-7-4v-5l-3-1a159 159 0 0 1-3-5l-2-1v-2h-2v-4l-3-1c-3-4.333-3-4.333-3-7h-2l-1-4h-2v-2h-2v-2h-2l-.55-1.863c-.252-.809-.504-1.617-.762-2.45l-.739-2.425c-1.003-2.39-2.1-3.498-3.949-5.262l-.937-2.875c-.876-3.167-.876-3.167-2.938-5.437C23.196 1343.983 20 1338.863 20 1334h-2l-.332-1.723c-.788-3.838-1.617-7.445-3.23-11.027-1.259-2.845-1.85-5.23-2.438-8.25-1.836-2.874-1.836-2.874-3.55-4.844-1.731-2.574-2.147-4.604-2.637-7.656l-.481-2.844C5 1295 5 1295 5 1291l-5-1c-.113-171.31-.113-171.31-.17-310.48l-.001-4.639a1780352 1780352 0 0 1-.05-153.624c-.013-37.874-.028-75.748-.054-113.623l-.001-2.468-.027-39.408A267628 267628 0 0 1-.38 478.154v-2.276q-.008-36.348-.045-72.694-.037-36.595-.03-73.191.008-22.722-.028-45.442-.022-14.474-.004-28.948c.006-5.508.005-11.017-.013-16.525q-.023-7.503.003-15.006.005-2.712-.012-5.422c-.014-2.439-.004-4.876.012-7.314l-.03-2.147C-.5 207.231-.5 207.231 0 204c1.986-1.84 1.986-1.84 4-3 .798-1.914.798-1.914 1.063-4.062C5.996 191.826 7.449 186.954 9 182h2v-2h2l-.125-3.75c-.012-3.266.268-5.465 2.125-8.25h2l.113-2.047.2-2.703.175-2.672c.584-2.942 1.632-4.285 3.512-6.578l1.438-3.437C24 147 24 147 26.063 144.5c2.172-2.48 2.172-2.48 2.937-6.062 1.094-3.76 2.265-4.789 5-7.438l.852-2.781c1.3-3.643 2.987-5.754 5.523-8.656C43.81 115.516 46.516 111.67 49 107l2-2a271 271 0 0 0 3.781-5.54L56 98h2l2-4h2l.75-2.875C64.191 87.522 64.71 87.542 68 86l1-2.5c1.231-3.078 2.156-3.078 5-4.5 1.283-2.538 1.283-2.538 2-5h2v-2h3v-2l4-2v-2l2.625-1.062c3.62-2.079 5.482-4.153 7.98-7.415C97 56 97 56 100 55l1-3a499 499 0 0 1 4-3v-2h6l1-2 6-4 1-2c2.563-.625 2.563-.625 5-1v-2l2.813-1.312c3.115-1.438 3.115-1.438 4.812-3.375C133 30 133 30 137 30l.625-1.937C139 26 139 26 142.125 25.25L145 25v-2c7.625-2 7.625-2 11-2l-1-4c3.708-1.854 6.472-3.147 10.625-3.562l2.477-.254L170 13l-1-3c3.623-.518 7.238-1.027 10.875-1.437L183 8l1-2c4.213-1.307 7.33-2.022 11.75-1.875L199 4l1.735-1.977c3.1-2.769 5.802-2.577 9.76-2.523"/><path fill="#D7E7FA" d="m635.281 507.762 2.675-.03c36.335-.319 36.335-.319 54.044 4.268l2.23.535c37.833 9.17 66.187 31.698 93.042 58.623q2.277 2.28 4.556 4.556 6.144 6.145 12.283 12.296 6.433 6.44 12.868 12.876 12.168 12.173 24.33 24.351 13.855 13.87 27.715 27.737Q897.516 681.482 926 710c-8.025 10.315-19.564 17.01-31 23l-3.14 1.652c-6.203 3.063-12.47 5.286-19.11 7.16l-2.22.628c-19.828 5.292-46.071 5.147-65.53-1.44l-1.942-.65c-27.4-9.472-46.958-27.966-66.918-48.257-2.756-2.799-5.521-5.587-8.286-8.376a5467 5467 0 0 1-15.32-15.504q-5.365-5.454-10.762-10.876a838 838 0 0 1-4.048-4.111c-12.914-13.199-27.196-24.01-46.497-24.518-22.059-.204-36.146 9.448-51.35 24.333a1570 1570 0 0 0-10.026 10.015l-3.847 3.853q-4.15 4.157-8.296 8.318-6.75 6.773-13.505 13.54-9.806 9.825-19.61 19.656a66248 66248 0 0 1-31.028 31.088l-10.636 10.652-2.685 2.688-30.199 30.248-2.786 2.791a130673 130673 0 0 0-44.693 44.798 69414 69414 0 0 1-45.973 46.055q-14.166 14.178-28.31 28.375-9.697 9.734-19.413 19.447a4884 4884 0 0 0-11.18 11.208 2995 2995 0 0 1-10.265 10.278 893 893 0 0 0-3.682 3.7c-21.11 21.328-49.348 38.88-80.227 39.515q-3.087.014-6.173-.005c-2.076-.01-4.15 0-6.226.012-11.922.015-23.676-.92-34.992-4.898l-2.274-.784C156.353 977.345 141.44 967.835 128 955c1.284-2.815 2.62-4.87 4.805-7.057l1.745-1.76 1.922-1.91 2.047-2.056c2.281-2.29 4.57-4.572 6.858-6.854l4.94-4.951q6.091-6.106 12.195-12.201 7.305-7.302 14.603-14.614a48821 48821 0 0 1 30.29-30.304 84232 84232 0 0 0 31.827-31.837q23.551-23.563 47.11-47.118l1.796-1.795 9.009-9.006 1.807-1.807 3.618-3.617a125159 125159 0 0 0 56.231-56.253 152103 152103 0 0 1 69.916-69.942l1.678-1.677a50164 50164 0 0 0 25.026-25.042 31309 31309 0 0 1 28.495-28.496q7.272-7.262 14.532-14.537 6.652-6.668 13.323-13.317 2.404-2.4 4.801-4.809c11.205-11.258 22.522-21.495 36.239-29.665l2.294-1.38c24.184-14.35 51.738-24.974 80.174-25.233"/><path fill="#D4E3FA" d="M1368.648 536.191c1.814 1.575 3.6 3.166 5.352 4.809-1.278 2.8-2.602 4.852-4.775 7.026l-1.725 1.74-1.9 1.886-2.023 2.031c-2.254 2.262-4.516 4.517-6.777 6.771q-2.442 2.444-4.882 4.892-6.729 6.738-13.468 13.465-6.513 6.508-13.017 13.024a46244 46244 0 0 1-28.288 28.291q-12.387 12.381-24.77 24.767l-1.659 1.659-6.664 6.666a218651 218651 0 0 1-62.576 62.566q-27.79 27.776-55.567 55.567a217481 217481 0 0 1-69.08 69.087l-1.656 1.656q-12.369 12.366-24.734 24.74-14.07 14.078-28.153 28.146-7.185 7.176-14.361 14.36-6.574 6.583-13.16 13.152a3001 3001 0 0 0-4.749 4.753c-8.02 8.043-15.994 15.824-25.016 22.755l-1.822 1.432C941.798 967.994 917.177 977.935 891 984l-3.02.71c-43.888 9.539-92.59-1.176-130.105-25.023-10.015-6.552-19.229-14.001-27.947-22.19l-1.964-1.84c-6.75-6.35-13.324-12.871-19.87-19.43l-3.787-3.784a9362 9362 0 0 1-7.834-7.84 8043 8043 0 0 0-9.988-9.985q-3.892-3.886-7.778-7.778l-3.684-3.68q-2.574-2.573-5.142-5.15l-1.496-1.49a162 162 0 0 1-7.75-8.386c-3.716-4.284-7.663-8.295-11.682-12.294l-2.338-2.339a7532 7532 0 0 0-7.58-7.563l-5.283-5.28q-6.925-6.917-13.854-13.829-7.081-7.066-14.158-14.138A68444 68444 0 0 0 578 785c7.976-10.252 19.555-17.147 31-23l1.822-.941C638.33 747.149 671.775 745.656 701 755c23.56 7.97 40.9 22.532 58.1 40.041q3.477 3.534 6.97 7.053a7510 7510 0 0 1 19.792 20.035q6.073 6.168 12.176 12.305 2.302 2.324 4.59 4.661C814.878 851.61 825.598 860.668 843 865l1.945.578c13.563 2.785 28.647-.72 40.34-7.752 8.282-5.569 15.25-13.22 22.26-20.274l4.125-4.131q2.184-2.19 4.366-4.382 4.576-4.594 9.158-9.182a37893 37893 0 0 0 19.431-19.482q10.5-10.535 21.009-21.062a8930 8930 0 0 0 9.08-9.11q2.147-2.154 4.296-4.306 2.604-2.609 5.204-5.224l2.36-2.361 2.017-2.023c2.001-1.902 4.038-3.707 6.128-5.507 4.603-4.005 8.9-8.277 13.197-12.605l2.614-2.62q2.821-2.829 5.639-5.66 4.586-4.61 9.18-9.214 6.666-6.687 13.33-13.379 10.55-10.59 21.11-21.168l7.238-7.254 1.827-1.831 20.557-20.606 1.896-1.901a60254 60254 0 0 0 30.389-30.494 32087 32087 0 0 1 31.277-31.359q9.635-9.645 19.247-19.314 6.598-6.632 13.215-13.247 3.81-3.805 7.6-7.629c12.355-12.466 24.47-24.133 40.215-32.251l2.132-1.104c43.92-22.016 95.967-13.818 133.266 17.045"/><path fill="#85C0FD" d="M189 1488h9c-2 2-2 2-5.625 2.125L189 1490z"/><path fill="#317CFF" d="M1386 44h2l-1 2z"/><path fill="#80BCFD" d="m127 1459 2 1Z"/><path fill="#80BAFD" d="m97 1437 2 1Z"/><path fill="#7AB5FD" d="m46 1383 2 1Z"/><path fill="#9CF6F3" d="m93 57 2 1Z"/></svg>