<?xml version="1.0" encoding="utf-8"?>
<!-- Generator: Adobe Illustrator 19.0.0, SVG Export Plug-In . SVG Version: 6.00 Build 0)  -->
<svg version="1.1" xmlns="http://www.w3.org/2000/svg" xmlns:xlink="http://www.w3.org/1999/xlink" x="0px" y="0px" width="119.3px"
	 height="100px" viewBox="0 0 119.3 100" style="enable-background:new 0 0 119.3 100;" xml:space="preserve">
<style type="text/css">
	.st0{fill:#F58220;}
	.st1{fill:#0095DA;}
</style>
<g id="formation_3">
	<g id="XMLID_50_">
		<rect id="XMLID_54_" y="80.8" class="st0" width="19.2" height="19.2"/>
		<rect id="XMLID_53_" x="100" class="st0" width="19.2" height="19.2"/>
		<polygon id="XMLID_52_" class="st0" points="92.3,53.9 19.2,53.9 19.2,19.2 92.3,19.2 92.3,0 19.2,0 0,0 0,73.1 19.2,73.1 
			19.2,73.1 92.3,73.1 		"/>
		<polygon id="XMLID_51_" class="st0" points="100,26.9 100,26.9 26.9,26.9 26.9,46.2 100,46.2 100,80.8 26.9,80.8 26.9,100 
			100,100 119.3,100 119.3,26.9 		"/>
	</g>
</g>
<g id="formation_2">
	<g id="XMLID_31_">
		<path id="XMLID_41_" class="st1" d="M10.1-133.6c-2,0.6-4.3,1.1-7,1.4c-2.7,0.3-5.3,0.5-7.6,0.5c-6,0-10.9-1-14.7-2.9
			c-3.8-2-6.5-4.7-8.1-8.4c-1.1-2.6-1.7-6.1-1.7-10.6v-36.9h-13.3v-14.3H-29v-19.9h17.4v19.9H9.1v14.3h-20.6v34.7
			c0,2.8,0.4,4.8,1.3,6.1c1.5,2.3,4.4,3.4,8.7,3.4c2,0,4-0.2,6-0.5c2-0.3,3.9-0.7,5.6-1.2V-133.6z M-70.5-163.9
			c-1.7-0.4-3.6-0.8-5.7-1.1c-2.2-0.3-4.3-0.5-6.6-0.5c-4.3,0-7.6,0.8-10.1,2.5c-2.5,1.7-3.7,4.3-3.7,7.8c0,1.6,0.3,3,0.9,4.2
			c0.5,1.2,1.3,2.2,2.3,3c1,0.8,2.1,1.4,3.3,1.8c1.3,0.4,2.6,0.6,4,0.6c1.8,0,3.4-0.3,5-0.7c1.6-0.5,3-1.1,4.3-1.8
			c1.3-0.7,2.5-1.5,3.6-2.4c1.1-0.9,2-1.7,2.7-2.6V-163.9z M-69.1-141.1h-0.3c-1,1-2.2,2.1-3.5,3.2c-1.4,1.1-2.9,2.1-4.7,3.1
			c-1.8,1-3.7,1.7-5.9,2.3c-2.2,0.6-4.5,0.9-7,0.9c-3.4,0-6.5-0.5-9.5-1.6c-2.9-1.1-5.5-2.6-7.6-4.5c-2.1-2-3.8-4.4-5-7.2
			c-1.2-2.8-1.8-6-1.8-9.4c0-3.8,0.7-7.3,2.1-10.3c1.4-3,3.3-5.6,5.8-7.7c2.5-2.1,5.5-3.7,9-4.8c3.5-1.1,7.3-1.7,11.6-1.7
			c3.1,0,5.9,0.2,8.5,0.6c2.6,0.4,4.9,0.9,6.8,1.4v-2.9c0-1.7-0.3-3.3-0.9-4.8c-0.5-1.5-1.5-2.9-2.7-4.1c-1.3-1.2-2.9-2.2-4.9-2.9
			c-2-0.7-4.5-1.1-7.4-1.1c-3.5,0-7.1,0.4-10.6,1.2c-3.5,0.8-7.4,2-11.5,3.5v-13.6c3.6-1.6,7.4-2.8,11.4-3.6c4-0.9,8.3-1.3,12.7-1.3
			c5.2,0,9.8,0.6,13.7,1.9c3.9,1.3,7.2,3,9.8,5.2c2.6,2.2,4.6,4.9,5.9,7.9c1.3,3,1.9,6.4,1.9,9.9v26.8c0,4.7,0,8.8,0.2,12.2
			c0.1,3.4,0.2,6.4,0.3,9h-15.7L-69.1-141.1z M-158.5-192.9c-2.2,0-4.2,0.4-5.9,1.2c-1.7,0.8-3.2,1.9-4.4,3.3c-1.3,1.4-2.3,3-3,4.9
			c-0.7,1.9-1.2,3.8-1.5,6h28c0-2.1-0.3-4.1-0.9-6c-0.6-1.9-1.4-3.5-2.5-4.9c-1.1-1.4-2.5-2.5-4.1-3.3
			C-154.4-192.5-156.3-192.9-158.5-192.9z M-151.5-145.7c3.4,0,6.9-0.3,10.6-1c3.7-0.7,7.4-1.7,11.2-3v13.9c-2.3,1-5.7,1.9-10.4,2.8
			c-4.7,0.9-9.5,1.3-14.5,1.3c-5.1,0-9.8-0.6-14.4-1.9c-4.5-1.3-8.5-3.4-11.9-6.3c-3.4-2.9-6.1-6.7-8.1-11.2c-2-4.6-3-10.2-3-16.8
			c0-6.5,0.9-12.1,2.8-17c1.9-4.8,4.4-8.9,7.5-12.1c3.1-3.2,6.7-5.6,10.8-7.2c4-1.6,8.2-2.4,12.5-2.4c4.5,0,8.7,0.7,12.5,2.1
			c3.8,1.4,7.1,3.5,9.8,6.5c2.8,2.9,4.9,6.7,6.5,11.4c1.6,4.6,2.3,10.1,2.3,16.4c0,2.5-0.1,4.5-0.2,6.3h-46.7c0.3,3.3,1,6.1,2.2,8.4
			c1.2,2.3,2.8,4.2,4.8,5.6c2,1.5,4.3,2.5,7,3.2S-154.6-145.7-151.5-145.7z M-245.6-191.4c4.9,0,8.6-0.5,11-1.5
			c2.7-1.1,4.6-2.7,5.7-4.7c1.2-2,1.7-4.2,1.7-6.7c0-2.6-0.7-4.9-2-7c-1.3-2-3.6-3.5-6.8-4.5c-1.3-0.4-2.9-0.7-4.6-0.9
			c-1.8-0.2-3.9-0.3-6.6-0.3h-14.8v25.4H-245.6z M-261.9-176.3v27.7h11.8c3.1,0,5.8-0.1,8.1-0.3c2.2-0.2,4.2-0.5,5.8-0.9
			c2.5-0.5,4.6-1.3,6.2-2.2c1.7-0.9,3-1.9,4-3.1c1-1.2,1.8-2.4,2.2-3.8c0.5-1.4,0.6-2.9,0.6-4.5c0-2.7-0.8-5.1-2.3-7.2
			c-1.5-2.1-3.9-3.6-7.2-4.6c-1.4-0.5-3.1-0.8-5-1c-1.9-0.2-4.4-0.3-7.4-0.3H-261.9z M-208.6-205.7c0,4.3-1,8.2-2.9,11.7
			c-1.9,3.6-5.1,6.5-9.5,8.9v0.3c2.5,0.8,4.7,1.9,6.8,3.2c2,1.3,3.8,2.8,5.2,4.6c1.4,1.8,2.6,3.8,3.4,6.1c0.8,2.3,1.2,4.8,1.2,7.6
			c0,2.4-0.4,5-1.2,7.7c-0.8,2.8-2.1,5.4-4,8c-1.9,2.6-4.5,4.9-7.7,7.1c-3.2,2.2-7.2,3.9-12.1,5.2c-1.2,0.3-2.6,0.5-4,0.8
			c-1.5,0.2-3.1,0.5-4.8,0.6c-1.8,0.2-3.7,0.3-5.9,0.4c-2.1,0.1-4.6,0.1-7.3,0.1h-28.6v-98.4h34.2c7.3,0,13.2,0.7,17.7,2.2
			c3.3,1.1,6.2,2.5,8.7,4.2c2.5,1.8,4.5,3.7,6.1,5.8c1.6,2.1,2.8,4.4,3.5,6.8C-209-210.5-208.6-208.1-208.6-205.7z"/>
		<path id="XMLID_32_" class="st1" d="M367.8-192.9c-2.2,0-4.2,0.4-5.9,1.2c-1.7,0.8-3.2,1.9-4.4,3.3c-1.3,1.4-2.3,3-3,4.9
			c-0.7,1.9-1.2,3.8-1.5,6h28c0-2.1-0.3-4.1-0.9-6c-0.5-1.9-1.4-3.5-2.5-4.9c-1.1-1.4-2.5-2.5-4.1-3.3
			C371.9-192.5,370-192.9,367.8-192.9 M374.8-145.7c3.4,0,6.9-0.3,10.6-1c3.7-0.7,7.4-1.7,11.2-3v13.9c-2.3,1-5.7,1.9-10.4,2.8
			c-4.7,0.9-9.5,1.3-14.5,1.3c-5,0-9.8-0.6-14.4-1.9c-4.5-1.3-8.5-3.4-11.9-6.3c-3.4-2.9-6.1-6.7-8.1-11.2c-2-4.6-3-10.2-3-16.8
			c0-6.5,0.9-12.1,2.8-17c1.9-4.8,4.4-8.9,7.5-12.1c3.1-3.2,6.7-5.6,10.8-7.2c4-1.6,8.2-2.4,12.5-2.4c4.5,0,8.7,0.7,12.5,2.1
			c3.8,1.4,7.1,3.5,9.8,6.5c2.8,2.9,4.9,6.7,6.5,11.4c1.6,4.6,2.3,10.1,2.3,16.4c0,2.5-0.1,4.5-0.2,6.3h-46.7c0.3,3.3,1,6.1,2.2,8.4
			c1.2,2.3,2.8,4.2,4.8,5.6c2,1.5,4.3,2.5,7,3.2C368.8-146,371.7-145.7,374.8-145.7z M324.5-133.6c-2,0.6-4.3,1.1-7,1.4
			c-2.7,0.3-5.2,0.5-7.6,0.5c-6,0-10.9-1-14.7-2.9c-3.8-2-6.5-4.7-8.1-8.4c-1.1-2.6-1.7-6.1-1.7-10.6v-36.9h-13.3v-14.3h13.3v-19.9
			h17.4v19.9h20.6v14.3h-20.6v34.7c0,2.8,0.4,4.8,1.3,6.1c1.4,2.3,4.4,3.4,8.7,3.4c2,0,4-0.2,6-0.5c2-0.3,3.9-0.7,5.6-1.2V-133.6z
			 M230.3-131.6c-7.2,0-13.1-1.2-17.8-3.6c-4.7-2.4-8.3-5.7-10.7-9.8c-1.3-2.2-2.2-4.6-2.8-7.3c-0.6-2.6-0.9-5.6-0.9-8.8v-43.5h17.4
			v41.7c0,2.4,0.2,4.5,0.5,6.2c0.4,1.7,0.9,3.2,1.6,4.5c1.2,2.2,2.8,3.8,5,4.8c2.2,1.1,4.8,1.6,7.7,1.6c3.1,0,5.8-0.6,8.1-1.8
			c2.2-1.2,3.9-3,5-5.4c1.1-2.3,1.7-5.5,1.7-9.6v-42.1h17.4v43.5c0,5.8-1,10.7-3,14.7c-1.1,2.2-2.6,4.3-4.4,6.1
			c-1.8,1.8-3.9,3.4-6.3,4.7c-2.4,1.3-5.2,2.3-8.3,3C237.5-132,234.1-131.6,230.3-131.6z M183.4-169.1c0,5.6-0.8,10.7-2.5,15.3
			c-1.7,4.6-4,8.6-7.2,11.9c-3.1,3.3-6.9,5.8-11.3,7.6c-4.4,1.8-9.3,2.7-14.8,2.7c-5.6,0-10.6-0.9-15-2.7c-4.4-1.8-8.2-4.3-11.3-7.6
			c-3.1-3.3-5.5-7.2-7.1-11.9c-1.7-4.6-2.5-9.7-2.5-15.3c0-5.6,0.9-10.7,2.5-15.3c1.7-4.6,4.1-8.6,7.2-11.9
			c3.1-3.3,6.9-5.8,11.3-7.6c4.4-1.8,9.3-2.7,14.8-2.7c5.6,0,10.6,0.9,15,2.7c4.4,1.8,8.2,4.3,11.3,7.6c3.1,3.3,5.4,7.2,7.1,11.9
			C182.5-179.8,183.4-174.7,183.4-169.1z M165.3-169.1c0-3.8-0.4-7.1-1.3-10c-0.9-2.9-2.1-5.3-3.7-7.3c-1.6-2-3.5-3.4-5.7-4.4
			c-2.2-1-4.6-1.5-7.2-1.5c-2.5,0-4.9,0.5-7.1,1.5c-2.2,1-4,2.4-5.6,4.4c-1.6,2-2.8,4.4-3.7,7.3c-0.9,2.9-1.3,6.2-1.3,10
			c0,3.8,0.5,7.1,1.3,10c0.9,2.9,2.1,5.3,3.7,7.3c1.6,1.9,3.5,3.4,5.7,4.4c2.2,1,4.6,1.5,7.2,1.5c2.6,0,5-0.5,7.1-1.5
			c2.2-1,4-2.5,5.6-4.4c1.6-1.9,2.8-4.3,3.7-7.3C164.9-162,165.3-165.3,165.3-169.1z M52.8-186.7c4.1,0,7.6-0.2,10.5-0.6
			c2.9-0.4,5.3-0.9,7.2-1.7c3.6-1.4,6.2-3.2,7.5-5.6c1.4-2.4,2.1-5.1,2.1-8.2c0-2.6-0.6-5-1.7-7c-1.1-2-3-3.6-5.6-4.8
			c-1.7-0.8-3.9-1.4-6.5-1.7c-2.6-0.4-5.8-0.5-9.6-0.5H43.9v30.2H52.8z M98.7-202.3c0,6.9-1.9,12.7-5.7,17.5
			c-3.8,4.8-9.7,8.3-17.6,10.6v0.3l29.3,40.5H83.1l-26.8-38.1H43.9v38.1h-18v-98.4h29.9c4.9,0,9.6,0.3,13.8,0.9
			c4.3,0.6,7.9,1.4,11,2.5c5.8,2.2,10.3,5.5,13.4,9.8C97.2-214.4,98.7-208.9,98.7-202.3z"/>
	</g>
	<g id="XMLID_26_">
		<rect id="XMLID_30_" y="-292.3" class="st0" width="19.2" height="19.2"/>
		<rect id="XMLID_29_" x="100" y="-373.1" class="st0" width="19.2" height="19.2"/>
		<polygon id="XMLID_28_" class="st0" points="92.3,-319.3 19.2,-319.3 19.2,-353.9 92.3,-353.9 92.3,-373.1 19.2,-373.1 0,-373.1 
			0,-300 19.2,-300 19.2,-300 92.3,-300 		"/>
		<polygon id="XMLID_27_" class="st0" points="100,-346.2 100,-346.2 26.9,-346.2 26.9,-327 100,-327 100,-292.3 26.9,-292.3 
			26.9,-273.1 100,-273.1 119.3,-273.1 119.3,-346.2 		"/>
	</g>
</g>
<g id="formation_1">
	<g id="XMLID_7_">
		<path id="XMLID_17_" class="st1" d="M90.1-500.2c-2,0.6-4.3,1.1-7,1.4c-2.7,0.3-5.3,0.5-7.6,0.5c-6,0-10.9-1-14.7-2.9
			c-3.8-2-6.5-4.7-8.1-8.4c-1.1-2.6-1.7-6.1-1.7-10.6v-36.9H37.7v-14.3h13.3v-19.9h17.4v19.9h20.6v14.3H68.5v34.7
			c0,2.8,0.4,4.8,1.3,6.1c1.5,2.3,4.4,3.4,8.7,3.4c2,0,4-0.2,6-0.5c2-0.3,3.9-0.7,5.6-1.2V-500.2z M9.6-530.5
			c-1.7-0.4-3.6-0.8-5.7-1.1c-2.2-0.3-4.3-0.5-6.6-0.5c-4.3,0-7.6,0.8-10.1,2.5c-2.5,1.7-3.7,4.3-3.7,7.8c0,1.6,0.3,3,0.9,4.2
			c0.5,1.2,1.3,2.2,2.3,3c1,0.8,2.1,1.4,3.3,1.8c1.3,0.4,2.6,0.6,4,0.6c1.8,0,3.4-0.3,5-0.7c1.6-0.5,3-1.1,4.3-1.8
			c1.3-0.7,2.5-1.5,3.6-2.4c1.1-0.9,2-1.7,2.7-2.6V-530.5z M11-507.7h-0.3c-1,1-2.2,2.1-3.5,3.2c-1.4,1.1-2.9,2.1-4.7,3.1
			c-1.8,1-3.7,1.7-5.9,2.3c-2.2,0.6-4.5,0.9-7,0.9c-3.4,0-6.5-0.5-9.5-1.6c-2.9-1.1-5.5-2.6-7.6-4.5c-2.1-2-3.8-4.4-5-7.2
			c-1.2-2.8-1.8-6-1.8-9.4c0-3.8,0.7-7.3,2.1-10.3c1.4-3,3.3-5.6,5.8-7.7c2.5-2.1,5.5-3.7,9-4.8c3.5-1.1,7.3-1.7,11.6-1.7
			c3.1,0,5.9,0.2,8.5,0.6c2.6,0.4,4.9,0.9,6.8,1.4v-2.9c0-1.7-0.3-3.3-0.9-4.8c-0.5-1.5-1.5-2.9-2.7-4.1c-1.3-1.2-2.9-2.2-4.9-2.9
			c-2-0.7-4.5-1.1-7.4-1.1c-3.5,0-7.1,0.4-10.6,1.2c-3.5,0.8-7.4,2-11.5,3.5v-13.6c3.6-1.6,7.4-2.8,11.4-3.6c4-0.9,8.3-1.3,12.7-1.3
			c5.2,0,9.8,0.6,13.7,1.9c3.9,1.3,7.2,3,9.8,5.2c2.6,2.2,4.6,4.9,5.9,7.9c1.3,3,1.9,6.4,1.9,9.9v26.8c0,4.7,0,8.8,0.2,12.2
			c0.1,3.4,0.2,6.4,0.3,9H11.7L11-507.7z M-78.5-559.6c-2.2,0-4.2,0.4-5.9,1.2c-1.7,0.8-3.2,1.9-4.4,3.3c-1.3,1.4-2.3,3-3,4.9
			c-0.7,1.9-1.2,3.8-1.5,6h28c0-2.1-0.3-4.1-0.9-6c-0.6-1.9-1.4-3.5-2.5-4.9c-1.1-1.4-2.5-2.5-4.1-3.3
			C-74.4-559.2-76.3-559.6-78.5-559.6z M-71.5-512.4c3.4,0,6.9-0.3,10.6-1c3.7-0.7,7.4-1.7,11.2-3v13.9c-2.3,1-5.7,1.9-10.4,2.8
			c-4.7,0.9-9.5,1.3-14.5,1.3c-5.1,0-9.8-0.6-14.4-1.9c-4.5-1.3-8.5-3.4-11.9-6.3c-3.4-2.9-6.1-6.7-8.1-11.2c-2-4.6-3-10.2-3-16.8
			c0-6.5,0.9-12.1,2.8-17c1.9-4.8,4.4-8.9,7.5-12.1c3.1-3.2,6.7-5.6,10.8-7.2c4-1.6,8.2-2.4,12.5-2.4c4.5,0,8.7,0.7,12.5,2.1
			c3.8,1.4,7.1,3.5,9.8,6.5c2.8,2.9,4.9,6.7,6.5,11.4c1.6,4.6,2.3,10.1,2.3,16.4c0,2.5-0.1,4.5-0.2,6.3h-46.7c0.3,3.3,1,6.1,2.2,8.4
			c1.2,2.3,2.8,4.2,4.8,5.6c2,1.5,4.3,2.5,7,3.2C-77.5-512.7-74.6-512.4-71.5-512.4z M-165.6-558.1c4.9,0,8.6-0.5,11-1.5
			c2.7-1.1,4.6-2.7,5.7-4.7c1.2-2,1.7-4.2,1.7-6.7c0-2.6-0.7-4.9-2-7c-1.3-2-3.6-3.5-6.8-4.5c-1.3-0.4-2.9-0.7-4.6-0.9
			c-1.8-0.2-3.9-0.3-6.6-0.3h-14.8v25.4H-165.6z M-181.8-543v27.7h11.8c3.1,0,5.8-0.1,8.1-0.3c2.2-0.2,4.2-0.5,5.8-0.9
			c2.5-0.5,4.6-1.3,6.2-2.2c1.7-0.9,3-1.9,4-3.1c1-1.2,1.8-2.4,2.2-3.8c0.5-1.4,0.6-2.9,0.6-4.5c0-2.7-0.8-5.1-2.3-7.2
			c-1.5-2.1-3.9-3.6-7.2-4.6c-1.4-0.5-3.1-0.8-5-1c-1.9-0.2-4.4-0.3-7.4-0.3H-181.8z M-128.6-572.4c0,4.3-1,8.2-2.9,11.7
			c-1.9,3.6-5.1,6.5-9.5,8.9v0.3c2.5,0.8,4.7,1.9,6.8,3.2c2,1.3,3.8,2.8,5.2,4.6c1.4,1.8,2.6,3.8,3.4,6.1c0.8,2.3,1.2,4.8,1.2,7.6
			c0,2.4-0.4,5-1.2,7.7c-0.8,2.8-2.1,5.4-4,8c-1.9,2.6-4.5,4.9-7.7,7.1c-3.2,2.2-7.2,3.9-12.1,5.2c-1.2,0.3-2.6,0.5-4,0.8
			c-1.5,0.2-3.1,0.5-4.8,0.6c-1.8,0.2-3.7,0.3-5.9,0.4c-2.1,0.1-4.6,0.1-7.3,0.1h-28.6v-98.4h34.2c7.3,0,13.2,0.7,17.7,2.2
			c3.3,1.1,6.2,2.5,8.7,4.2c2.5,1.8,4.5,3.7,6.1,5.8c1.6,2.1,2.8,4.4,3.5,6.8C-129-577.2-128.6-574.8-128.6-572.4z"/>
		<path id="XMLID_8_" class="st1" d="M447.8-559.6c-2.2,0-4.2,0.4-5.9,1.2c-1.7,0.8-3.2,1.9-4.4,3.3c-1.3,1.4-2.3,3-3,4.9
			c-0.7,1.9-1.2,3.8-1.5,6h28c0-2.1-0.3-4.1-0.9-6c-0.5-1.9-1.4-3.5-2.5-4.9c-1.1-1.4-2.5-2.5-4.1-3.3
			C451.9-559.2,450-559.6,447.8-559.6 M454.8-512.4c3.4,0,6.9-0.3,10.6-1c3.7-0.7,7.4-1.7,11.2-3v13.9c-2.3,1-5.7,1.9-10.4,2.8
			c-4.7,0.9-9.5,1.3-14.5,1.3c-5,0-9.8-0.6-14.4-1.9c-4.5-1.3-8.5-3.4-11.9-6.3c-3.4-2.9-6.1-6.7-8.1-11.2c-2-4.6-3-10.2-3-16.8
			c0-6.5,0.9-12.1,2.8-17c1.9-4.8,4.4-8.9,7.5-12.1c3.1-3.2,6.7-5.6,10.8-7.2c4-1.6,8.2-2.4,12.5-2.4c4.5,0,8.7,0.7,12.5,2.1
			c3.8,1.4,7.1,3.5,9.8,6.5c2.8,2.9,4.9,6.7,6.5,11.4c1.6,4.6,2.3,10.1,2.3,16.4c0,2.5-0.1,4.5-0.2,6.3h-46.7c0.3,3.3,1,6.1,2.2,8.4
			c1.2,2.3,2.8,4.2,4.8,5.6c2,1.5,4.3,2.5,7,3.2C448.8-512.7,451.7-512.4,454.8-512.4z M404.5-500.2c-2,0.6-4.3,1.1-7,1.4
			c-2.7,0.3-5.2,0.5-7.6,0.5c-6,0-10.9-1-14.7-2.9c-3.8-2-6.5-4.7-8.1-8.4c-1.1-2.6-1.7-6.1-1.7-10.6v-36.9h-13.3v-14.3h13.3v-19.9
			h17.4v19.9h20.6v14.3h-20.6v34.7c0,2.8,0.4,4.8,1.3,6.1c1.4,2.3,4.4,3.4,8.7,3.4c2,0,4-0.2,6-0.5c2-0.3,3.9-0.7,5.6-1.2V-500.2z
			 M310.3-498.3c-7.2,0-13.1-1.2-17.8-3.6c-4.7-2.4-8.3-5.7-10.7-9.8c-1.3-2.2-2.2-4.6-2.8-7.3c-0.6-2.6-0.9-5.6-0.9-8.8v-43.5h17.4
			v41.7c0,2.4,0.2,4.5,0.5,6.2c0.4,1.7,0.9,3.2,1.6,4.5c1.2,2.2,2.8,3.8,5,4.8c2.2,1.1,4.8,1.6,7.7,1.6c3.1,0,5.8-0.6,8.1-1.8
			c2.2-1.2,3.9-3,5-5.4c1.1-2.3,1.7-5.5,1.7-9.6v-42.1h17.4v43.5c0,5.8-1,10.7-3,14.7c-1.1,2.2-2.6,4.3-4.4,6.1
			c-1.8,1.8-3.9,3.4-6.3,4.7c-2.4,1.3-5.2,2.3-8.3,3C317.5-498.7,314.1-498.3,310.3-498.3z M263.4-535.8c0,5.6-0.8,10.7-2.5,15.3
			c-1.7,4.6-4,8.6-7.2,11.9c-3.1,3.3-6.9,5.8-11.3,7.6c-4.4,1.8-9.3,2.7-14.8,2.7c-5.6,0-10.6-0.9-15-2.7c-4.4-1.8-8.2-4.3-11.3-7.6
			c-3.1-3.3-5.5-7.2-7.1-11.9c-1.7-4.6-2.5-9.7-2.5-15.3c0-5.6,0.9-10.7,2.5-15.3c1.7-4.6,4.1-8.6,7.2-11.9
			c3.1-3.3,6.9-5.8,11.3-7.6c4.4-1.8,9.3-2.7,14.8-2.7c5.6,0,10.6,0.9,15,2.7c4.4,1.8,8.2,4.3,11.3,7.6c3.1,3.3,5.4,7.2,7.1,11.9
			C262.6-546.5,263.4-541.4,263.4-535.8z M245.4-535.8c0-3.8-0.4-7.1-1.3-10c-0.9-2.9-2.1-5.3-3.7-7.3c-1.6-2-3.5-3.4-5.7-4.4
			c-2.2-1-4.6-1.5-7.2-1.5c-2.5,0-4.9,0.5-7.1,1.5c-2.2,1-4,2.4-5.6,4.4c-1.6,2-2.8,4.4-3.7,7.3c-0.9,2.9-1.3,6.2-1.3,10
			c0,3.8,0.5,7.1,1.3,10c0.9,2.9,2.1,5.3,3.7,7.3c1.6,1.9,3.5,3.4,5.7,4.4c2.2,1,4.6,1.5,7.2,1.5c2.6,0,5-0.5,7.1-1.5
			c2.2-1,4-2.5,5.6-4.4c1.6-1.9,2.8-4.3,3.7-7.3C244.9-528.7,245.4-532,245.4-535.8z M132.9-553.3c4.1,0,7.6-0.2,10.5-0.6
			c2.9-0.4,5.3-0.9,7.2-1.7c3.6-1.4,6.2-3.2,7.5-5.6c1.4-2.4,2.1-5.1,2.1-8.2c0-2.6-0.6-5-1.7-7c-1.1-2-3-3.6-5.6-4.8
			c-1.7-0.8-3.9-1.4-6.5-1.7c-2.6-0.4-5.8-0.5-9.6-0.5H124v30.2H132.9z M178.8-569c0,6.9-1.9,12.7-5.7,17.5
			c-3.8,4.8-9.7,8.3-17.6,10.6v0.3l29.3,40.5h-21.6l-26.8-38.1H124v38.1h-18v-98.4h29.9c4.9,0,9.6,0.3,13.8,0.9
			c4.3,0.6,7.9,1.4,11,2.5c5.8,2.2,10.3,5.5,13.4,9.8C177.2-581,178.8-575.6,178.8-569z"/>
	</g>
	<g id="XMLID_2_">
		<rect id="XMLID_6_" x="-359.9" y="-517.7" class="st0" width="19.2" height="19.2"/>
		<rect id="XMLID_5_" x="-259.9" y="-598.5" class="st0" width="19.2" height="19.2"/>
		<polygon id="XMLID_4_" class="st0" points="-267.6,-544.6 -340.7,-544.6 -340.7,-579.2 -267.6,-579.2 -267.6,-598.5 
			-340.7,-598.5 -359.9,-598.5 -359.9,-525.4 -340.7,-525.4 -340.7,-525.4 -267.6,-525.4 		"/>
		<polygon id="XMLID_3_" class="st0" points="-259.9,-571.5 -259.9,-571.5 -333,-571.5 -333,-552.3 -259.9,-552.3 -259.9,-517.7 
			-333,-517.7 -333,-498.5 -259.9,-498.5 -240.7,-498.5 -240.7,-571.5 		"/>
	</g>
</g>
</svg>
