<?xml version="1.0" encoding="utf-8"?>
<!-- Generator: Adobe Illustrator 19.0.0, SVG Export Plug-In . SVG Version: 6.00 Build 0)  -->
<svg version="1.1" xmlns="http://www.w3.org/2000/svg" xmlns:xlink="http://www.w3.org/1999/xlink" x="0px" y="0px" width="839.1px"
	 height="100.3px" viewBox="0 0 839.1 100.3" style="enable-background:new 0 0 839.1 100.3;" xml:space="preserve">
<style type="text/css">
	.st0{fill:#0095DA;}
	.st1{fill:#F58220;}
</style>
<g id="formation_2">
	<g id="XMLID_31_">
		<path id="XMLID_41_" class="st0" d="M370,576.2c-2,0.6-4.3,1.1-7,1.4c-2.7,0.3-5.3,0.5-7.6,0.5c-6,0-10.9-1-14.7-2.9
			c-3.8-2-6.5-4.7-8.1-8.4c-1.1-2.6-1.7-6.1-1.7-10.6v-36.9h-13.3v-14.3H331V485h17.4v19.9H369v14.3h-20.6v34.7
			c0,2.8,0.4,4.8,1.3,6.1c1.5,2.3,4.4,3.4,8.7,3.4c2,0,4-0.2,6-0.5c2-0.3,3.9-0.7,5.6-1.2V576.2z M289.4,545.8
			c-1.7-0.4-3.6-0.8-5.7-1.1c-2.2-0.3-4.3-0.5-6.6-0.5c-4.3,0-7.6,0.8-10.1,2.5c-2.5,1.7-3.7,4.3-3.7,7.8c0,1.6,0.3,3,0.9,4.2
			c0.5,1.2,1.3,2.2,2.3,3c1,0.8,2.1,1.4,3.3,1.8c1.3,0.4,2.6,0.6,4,0.6c1.8,0,3.4-0.3,5-0.7c1.6-0.5,3-1.1,4.3-1.8
			c1.3-0.7,2.5-1.5,3.6-2.4c1.1-0.9,2-1.7,2.7-2.6V545.8z M290.9,568.6h-0.3c-1,1-2.2,2.1-3.5,3.2c-1.4,1.1-2.9,2.1-4.7,3.1
			c-1.8,1-3.7,1.7-5.9,2.3c-2.2,0.6-4.5,0.9-7,0.9c-3.4,0-6.5-0.5-9.5-1.6c-2.9-1.1-5.5-2.6-7.6-4.5c-2.1-2-3.8-4.4-5-7.2
			c-1.2-2.8-1.8-6-1.8-9.4c0-3.8,0.7-7.3,2.1-10.3c1.4-3,3.3-5.6,5.8-7.7c2.5-2.1,5.5-3.7,9-4.8c3.5-1.1,7.3-1.7,11.6-1.7
			c3.1,0,5.9,0.2,8.5,0.6c2.6,0.4,4.9,0.9,6.8,1.4v-2.9c0-1.7-0.3-3.3-0.9-4.8c-0.5-1.5-1.5-2.9-2.7-4.1c-1.3-1.2-2.9-2.2-4.9-2.9
			c-2-0.7-4.5-1.1-7.4-1.1c-3.5,0-7.1,0.4-10.6,1.2c-3.5,0.8-7.4,2-11.5,3.5v-13.6c3.6-1.6,7.4-2.8,11.4-3.6c4-0.9,8.3-1.3,12.7-1.3
			c5.2,0,9.8,0.6,13.7,1.9c3.9,1.3,7.2,3,9.8,5.2c2.6,2.2,4.6,4.9,5.9,7.9c1.3,3,1.9,6.4,1.9,9.9V555c0,4.7,0,8.8,0.2,12.2
			c0.1,3.4,0.2,6.4,0.3,9h-15.7L290.9,568.6z M201.4,516.8c-2.2,0-4.2,0.4-5.9,1.2c-1.7,0.8-3.2,1.9-4.4,3.3c-1.3,1.4-2.3,3-3,4.9
			c-0.7,1.9-1.2,3.8-1.5,6h28c0-2.1-0.3-4.1-0.9-6c-0.6-1.9-1.4-3.5-2.5-4.9c-1.1-1.4-2.5-2.5-4.1-3.3
			C205.5,517.2,203.6,516.8,201.4,516.8z M208.4,564c3.4,0,6.9-0.3,10.6-1c3.7-0.7,7.4-1.7,11.2-3v13.9c-2.3,1-5.7,1.9-10.4,2.8
			c-4.7,0.9-9.5,1.3-14.5,1.3c-5.1,0-9.8-0.6-14.4-1.9c-4.5-1.3-8.5-3.4-11.9-6.3c-3.4-2.9-6.1-6.7-8.1-11.2c-2-4.6-3-10.2-3-16.8
			c0-6.5,0.9-12.1,2.8-17c1.9-4.8,4.4-8.9,7.5-12.1c3.1-3.2,6.7-5.6,10.8-7.2c4-1.6,8.2-2.4,12.5-2.4c4.5,0,8.7,0.7,12.5,2.1
			c3.8,1.4,7.1,3.5,9.8,6.5c2.8,2.9,4.9,6.7,6.5,11.4c1.6,4.6,2.3,10.1,2.3,16.4c0,2.5-0.1,4.5-0.2,6.3h-46.7c0.3,3.3,1,6.1,2.2,8.4
			c1.2,2.3,2.8,4.2,4.8,5.6c2,1.5,4.3,2.5,7,3.2C202.4,563.7,205.3,564,208.4,564z M114.3,518.3c4.9,0,8.6-0.5,11-1.5
			c2.7-1.1,4.6-2.7,5.7-4.7c1.2-2,1.7-4.2,1.7-6.7c0-2.6-0.7-4.9-2-7c-1.3-2-3.6-3.5-6.8-4.5c-1.3-0.4-2.9-0.7-4.6-0.9
			c-1.8-0.2-3.9-0.3-6.6-0.3H98v25.4H114.3z M98,533.4v27.7h11.8c3.1,0,5.8-0.1,8.1-0.3c2.2-0.2,4.2-0.5,5.8-0.9
			c2.5-0.5,4.6-1.3,6.2-2.2c1.7-0.9,3-1.9,4-3.1c1-1.2,1.8-2.4,2.2-3.8c0.5-1.4,0.6-2.9,0.6-4.5c0-2.7-0.8-5.1-2.3-7.2
			c-1.5-2.1-3.9-3.6-7.2-4.6c-1.4-0.5-3.1-0.8-5-1c-1.9-0.2-4.4-0.3-7.4-0.3H98z M151.3,504c0,4.3-1,8.2-2.9,11.7
			c-1.9,3.6-5.1,6.5-9.5,8.9v0.3c2.5,0.8,4.7,1.9,6.8,3.2c2,1.3,3.8,2.8,5.2,4.6c1.4,1.8,2.6,3.8,3.4,6.1c0.8,2.3,1.2,4.8,1.2,7.6
			c0,2.4-0.4,5-1.2,7.7c-0.8,2.8-2.1,5.4-4,8c-1.9,2.6-4.5,4.9-7.7,7.1c-3.2,2.2-7.2,3.9-12.1,5.2c-1.2,0.3-2.6,0.5-4,0.8
			c-1.5,0.2-3.1,0.5-4.8,0.6c-1.8,0.2-3.7,0.3-5.9,0.4c-2.1,0.1-4.6,0.1-7.3,0.1H80v-98.4h34.2c7.3,0,13.2,0.7,17.7,2.2
			c3.3,1.1,6.2,2.5,8.7,4.2c2.5,1.8,4.5,3.7,6.1,5.8c1.6,2.1,2.8,4.4,3.5,6.8C150.9,499.2,151.3,501.6,151.3,504z"/>
		<path id="XMLID_32_" class="st0" d="M727.7,516.8c-2.2,0-4.2,0.4-5.9,1.2c-1.7,0.8-3.2,1.9-4.4,3.3c-1.3,1.4-2.3,3-3,4.9
			c-0.7,1.9-1.2,3.8-1.5,6h28c0-2.1-0.3-4.1-0.9-6c-0.5-1.9-1.4-3.5-2.5-4.9c-1.1-1.4-2.5-2.5-4.1-3.3
			C731.8,517.2,729.9,516.8,727.7,516.8 M734.7,564c3.4,0,6.9-0.3,10.6-1c3.7-0.7,7.4-1.7,11.2-3v13.9c-2.3,1-5.7,1.9-10.4,2.8
			c-4.7,0.9-9.5,1.3-14.5,1.3c-5,0-9.8-0.6-14.4-1.9c-4.5-1.3-8.5-3.4-11.9-6.3c-3.4-2.9-6.1-6.7-8.1-11.2c-2-4.6-3-10.2-3-16.8
			c0-6.5,0.9-12.1,2.8-17c1.9-4.8,4.4-8.9,7.5-12.1c3.1-3.2,6.7-5.6,10.8-7.2c4-1.6,8.2-2.4,12.5-2.4c4.5,0,8.7,0.7,12.5,2.1
			c3.8,1.4,7.1,3.5,9.8,6.5c2.8,2.9,4.9,6.7,6.5,11.4c1.6,4.6,2.3,10.1,2.3,16.4c0,2.5-0.1,4.5-0.2,6.3h-46.7c0.3,3.3,1,6.1,2.2,8.4
			c1.2,2.3,2.8,4.2,4.8,5.6c2,1.5,4.3,2.5,7,3.2C728.7,563.7,731.6,564,734.7,564z M684.4,576.2c-2,0.6-4.3,1.1-7,1.4
			c-2.7,0.3-5.2,0.5-7.6,0.5c-6,0-10.9-1-14.7-2.9c-3.8-2-6.5-4.7-8.1-8.4c-1.1-2.6-1.7-6.1-1.7-10.6v-36.9H632v-14.3h13.3V485h17.4
			v19.9h20.6v14.3h-20.6v34.7c0,2.8,0.4,4.8,1.3,6.1c1.4,2.3,4.4,3.4,8.7,3.4c2,0,4-0.2,6-0.5c2-0.3,3.9-0.7,5.6-1.2V576.2z
			 M590.2,578.1c-7.2,0-13.1-1.2-17.8-3.6c-4.7-2.4-8.3-5.7-10.7-9.8c-1.3-2.2-2.2-4.6-2.8-7.3c-0.6-2.6-0.9-5.6-0.9-8.8v-43.5h17.4
			v41.7c0,2.4,0.2,4.5,0.5,6.2c0.4,1.7,0.9,3.2,1.6,4.5c1.2,2.2,2.8,3.8,5,4.8c2.2,1.1,4.8,1.6,7.7,1.6c3.1,0,5.8-0.6,8.1-1.8
			c2.2-1.2,3.9-3,5-5.4c1.1-2.3,1.7-5.5,1.7-9.6v-42.1h17.4v43.5c0,5.8-1,10.7-3,14.7c-1.1,2.2-2.6,4.3-4.4,6.1
			c-1.8,1.8-3.9,3.4-6.3,4.7c-2.4,1.3-5.2,2.3-8.3,3C597.4,577.7,594,578.1,590.2,578.1z M543.3,540.6c0,5.6-0.8,10.7-2.5,15.3
			c-1.7,4.6-4,8.6-7.2,11.9c-3.1,3.3-6.9,5.8-11.3,7.6c-4.4,1.8-9.3,2.7-14.8,2.7c-5.6,0-10.6-0.9-15-2.7c-4.4-1.8-8.2-4.3-11.3-7.6
			c-3.1-3.3-5.5-7.2-7.1-11.9c-1.7-4.6-2.5-9.7-2.5-15.3c0-5.6,0.9-10.7,2.5-15.3c1.7-4.6,4.1-8.6,7.2-11.9
			c3.1-3.3,6.9-5.8,11.3-7.6c4.4-1.8,9.3-2.7,14.8-2.7c5.6,0,10.6,0.9,15,2.7c4.4,1.8,8.2,4.3,11.3,7.6c3.1,3.3,5.4,7.2,7.1,11.9
			C542.4,529.9,543.3,535,543.3,540.6z M525.2,540.6c0-3.8-0.4-7.1-1.3-10c-0.9-2.9-2.1-5.3-3.7-7.3c-1.6-2-3.5-3.4-5.7-4.4
			c-2.2-1-4.6-1.5-7.2-1.5c-2.5,0-4.9,0.5-7.1,1.5c-2.2,1-4,2.4-5.6,4.4c-1.6,2-2.8,4.4-3.7,7.3c-0.9,2.9-1.3,6.2-1.3,10
			c0,3.8,0.5,7.1,1.3,10c0.9,2.9,2.1,5.3,3.7,7.3c1.6,1.9,3.5,3.4,5.7,4.4c2.2,1,4.6,1.5,7.2,1.5c2.6,0,5-0.5,7.1-1.5
			c2.2-1,4-2.5,5.6-4.4c1.6-1.9,2.8-4.3,3.7-7.3C524.8,547.7,525.2,544.4,525.2,540.6z M412.7,523c4.1,0,7.6-0.2,10.5-0.6
			c2.9-0.4,5.3-0.9,7.2-1.7c3.6-1.4,6.2-3.2,7.5-5.6c1.4-2.4,2.1-5.1,2.1-8.2c0-2.6-0.6-5-1.7-7c-1.1-2-3-3.6-5.6-4.8
			c-1.7-0.8-3.9-1.4-6.5-1.7c-2.6-0.4-5.8-0.5-9.6-0.5h-12.9V523H412.7z M458.6,507.4c0,6.9-1.9,12.7-5.7,17.5
			c-3.8,4.8-9.7,8.3-17.6,10.6v0.3l29.3,40.5H443l-26.8-38.1h-12.4v38.1h-18v-98.4h29.9c4.9,0,9.6,0.3,13.8,0.9
			c4.3,0.6,7.9,1.4,11,2.5c5.8,2.2,10.3,5.5,13.4,9.8C457.1,495.3,458.6,500.8,458.6,507.4z"/>
	</g>
	<g id="XMLID_26_">
		<rect id="XMLID_30_" x="359.9" y="417.4" class="st1" width="19.2" height="19.2"/>
		<rect id="XMLID_29_" x="459.9" y="336.6" class="st1" width="19.2" height="19.2"/>
		<polygon id="XMLID_28_" class="st1" points="452.2,390.5 379.1,390.5 379.1,355.8 452.2,355.8 452.2,336.6 379.1,336.6 
			359.9,336.6 359.9,409.7 379.1,409.7 379.1,409.7 452.2,409.7 		"/>
		<polygon id="XMLID_27_" class="st1" points="459.9,363.5 459.9,363.5 386.8,363.5 386.8,382.8 459.9,382.8 459.9,417.4 
			386.8,417.4 386.8,436.6 459.9,436.6 479.2,436.6 479.2,363.5 		"/>
	</g>
</g>
<g id="formation_1">
	<g id="XMLID_7_">
		<path id="XMLID_17_" class="st0" d="M450,98.4c-2,0.6-4.3,1.1-7,1.4c-2.7,0.3-5.3,0.5-7.6,0.5c-6,0-10.9-1-14.7-2.9
			c-3.8-2-6.5-4.7-8.1-8.4c-1.1-2.6-1.7-6.1-1.7-10.6V41.5h-13.3V27.1H411V7.2h17.4v19.9H449v14.3h-20.6v34.7c0,2.8,0.4,4.8,1.3,6.1
			c1.5,2.3,4.4,3.4,8.7,3.4c2,0,4-0.2,6-0.5c2-0.3,3.9-0.7,5.6-1.2V98.4z M369.5,68c-1.7-0.4-3.6-0.8-5.7-1.1
			c-2.2-0.3-4.3-0.5-6.6-0.5c-4.3,0-7.6,0.8-10.1,2.5c-2.5,1.7-3.7,4.3-3.7,7.8c0,1.6,0.3,3,0.9,4.2c0.5,1.2,1.3,2.2,2.3,3
			c1,0.8,2.1,1.4,3.3,1.8c1.3,0.4,2.6,0.6,4,0.6c1.8,0,3.4-0.3,5-0.7c1.6-0.5,3-1.1,4.3-1.8c1.3-0.7,2.5-1.5,3.6-2.4
			c1.1-0.9,2-1.7,2.7-2.6V68z M370.9,90.9h-0.3c-1,1-2.2,2.1-3.5,3.2c-1.4,1.1-2.9,2.1-4.7,3.1c-1.8,1-3.7,1.7-5.9,2.3
			c-2.2,0.6-4.5,0.9-7,0.9c-3.4,0-6.5-0.5-9.5-1.6c-2.9-1.1-5.5-2.6-7.6-4.5c-2.1-2-3.8-4.4-5-7.2c-1.2-2.8-1.8-6-1.8-9.4
			c0-3.8,0.7-7.3,2.1-10.3c1.4-3,3.3-5.6,5.8-7.7c2.5-2.1,5.5-3.7,9-4.8c3.5-1.1,7.3-1.7,11.6-1.7c3.1,0,5.9,0.2,8.5,0.6
			c2.6,0.4,4.9,0.9,6.8,1.4v-2.9c0-1.7-0.3-3.3-0.9-4.8c-0.5-1.5-1.5-2.9-2.7-4.1c-1.3-1.2-2.9-2.2-4.9-2.9c-2-0.7-4.5-1.1-7.4-1.1
			c-3.5,0-7.1,0.4-10.6,1.2c-3.5,0.8-7.4,2-11.5,3.5V30.3c3.6-1.6,7.4-2.8,11.4-3.6c4-0.9,8.3-1.3,12.7-1.3c5.2,0,9.8,0.6,13.7,1.9
			c3.9,1.3,7.2,3,9.8,5.2c2.6,2.2,4.6,4.9,5.9,7.9c1.3,3,1.9,6.4,1.9,9.9v26.8c0,4.7,0,8.8,0.2,12.2c0.1,3.4,0.2,6.4,0.3,9h-15.7
			L370.9,90.9z M281.4,39c-2.2,0-4.2,0.4-5.9,1.2c-1.7,0.8-3.2,1.9-4.4,3.3c-1.3,1.4-2.3,3-3,4.9c-0.7,1.9-1.2,3.8-1.5,6h28
			c0-2.1-0.3-4.1-0.9-6c-0.6-1.9-1.4-3.5-2.5-4.9c-1.1-1.4-2.5-2.5-4.1-3.3C285.5,39.4,283.6,39,281.4,39z M288.4,86.2
			c3.4,0,6.9-0.3,10.6-1c3.7-0.7,7.4-1.7,11.2-3v13.9c-2.3,1-5.7,1.9-10.4,2.8c-4.7,0.9-9.5,1.3-14.5,1.3c-5.1,0-9.8-0.6-14.4-1.9
			c-4.5-1.3-8.5-3.4-11.9-6.3c-3.4-2.9-6.1-6.7-8.1-11.2c-2-4.6-3-10.2-3-16.8c0-6.5,0.9-12.1,2.8-17c1.9-4.8,4.4-8.9,7.5-12.1
			c3.1-3.2,6.7-5.6,10.8-7.2c4-1.6,8.2-2.4,12.5-2.4c4.5,0,8.7,0.7,12.5,2.1c3.8,1.4,7.1,3.5,9.8,6.5c2.8,2.9,4.9,6.7,6.5,11.4
			c1.6,4.6,2.3,10.1,2.3,16.4c0,2.5-0.1,4.5-0.2,6.3h-46.7c0.3,3.3,1,6.1,2.2,8.4c1.2,2.3,2.8,4.2,4.8,5.6c2,1.5,4.3,2.5,7,3.2
			C282.4,85.9,285.3,86.2,288.4,86.2z M194.3,40.5c4.9,0,8.6-0.5,11-1.5c2.7-1.1,4.6-2.7,5.7-4.7c1.2-2,1.7-4.2,1.7-6.7
			c0-2.6-0.7-4.9-2-7c-1.3-2-3.6-3.5-6.8-4.5c-1.3-0.4-2.9-0.7-4.6-0.9c-1.8-0.2-3.9-0.3-6.6-0.3h-14.8v25.4H194.3z M178.1,55.6
			v27.7h11.8c3.1,0,5.8-0.1,8.1-0.3c2.2-0.2,4.2-0.5,5.8-0.9c2.5-0.5,4.6-1.3,6.2-2.2c1.7-0.9,3-1.9,4-3.1c1-1.2,1.8-2.4,2.2-3.8
			c0.5-1.4,0.6-2.9,0.6-4.5c0-2.7-0.8-5.1-2.3-7.2c-1.5-2.1-3.9-3.6-7.2-4.6c-1.4-0.5-3.1-0.8-5-1c-1.9-0.2-4.4-0.3-7.4-0.3H178.1z
			 M231.3,26.2c0,4.3-1,8.2-2.9,11.7c-1.9,3.6-5.1,6.5-9.5,8.9v0.3c2.5,0.8,4.7,1.9,6.8,3.2c2,1.3,3.8,2.8,5.2,4.6
			c1.4,1.8,2.6,3.8,3.4,6.1c0.8,2.3,1.2,4.8,1.2,7.6c0,2.4-0.4,5-1.2,7.7c-0.8,2.8-2.1,5.4-4,8c-1.9,2.6-4.5,4.9-7.7,7.1
			c-3.2,2.2-7.2,3.9-12.1,5.2c-1.2,0.3-2.6,0.5-4,0.8c-1.5,0.2-3.1,0.5-4.8,0.6c-1.8,0.2-3.7,0.3-5.9,0.4c-2.1,0.1-4.6,0.1-7.3,0.1
			H160V0h34.2c7.3,0,13.2,0.7,17.7,2.2c3.3,1.1,6.2,2.5,8.7,4.2c2.5,1.8,4.5,3.7,6.1,5.8c1.6,2.1,2.8,4.4,3.5,6.8
			C230.9,21.4,231.3,23.8,231.3,26.2z"/>
		<path id="XMLID_8_" class="st0" d="M807.7,39c-2.2,0-4.2,0.4-5.9,1.2c-1.7,0.8-3.2,1.9-4.4,3.3c-1.3,1.4-2.3,3-3,4.9
			c-0.7,1.9-1.2,3.8-1.5,6h28c0-2.1-0.3-4.1-0.9-6c-0.5-1.9-1.4-3.5-2.5-4.9c-1.1-1.4-2.5-2.5-4.1-3.3C811.9,39.4,809.9,39,807.7,39
			 M814.7,86.2c3.4,0,6.9-0.3,10.6-1c3.7-0.7,7.4-1.7,11.2-3v13.9c-2.3,1-5.7,1.9-10.4,2.8c-4.7,0.9-9.5,1.3-14.5,1.3
			c-5,0-9.8-0.6-14.4-1.9c-4.5-1.3-8.5-3.4-11.9-6.3c-3.4-2.9-6.1-6.7-8.1-11.2c-2-4.6-3-10.2-3-16.8c0-6.5,0.9-12.1,2.8-17
			c1.9-4.8,4.4-8.9,7.5-12.1c3.1-3.2,6.7-5.6,10.8-7.2c4-1.6,8.2-2.4,12.5-2.4c4.5,0,8.7,0.7,12.5,2.1c3.8,1.4,7.1,3.5,9.8,6.5
			c2.8,2.9,4.9,6.7,6.5,11.4c1.6,4.6,2.3,10.1,2.3,16.4c0,2.5-0.1,4.5-0.2,6.3h-46.7c0.3,3.3,1,6.1,2.2,8.4c1.2,2.3,2.8,4.2,4.8,5.6
			c2,1.5,4.3,2.5,7,3.2C808.7,85.9,811.6,86.2,814.7,86.2z M764.4,98.4c-2,0.6-4.3,1.1-7,1.4c-2.7,0.3-5.2,0.5-7.6,0.5
			c-6,0-10.9-1-14.7-2.9c-3.8-2-6.5-4.7-8.1-8.4c-1.1-2.6-1.7-6.1-1.7-10.6V41.5H712V27.1h13.3V7.2h17.4v19.9h20.6v14.3h-20.6v34.7
			c0,2.8,0.4,4.8,1.3,6.1c1.4,2.3,4.4,3.4,8.7,3.4c2,0,4-0.2,6-0.5c2-0.3,3.9-0.7,5.6-1.2V98.4z M670.2,100.3
			c-7.2,0-13.1-1.2-17.8-3.6c-4.7-2.4-8.3-5.7-10.7-9.8c-1.3-2.2-2.2-4.6-2.8-7.3c-0.6-2.6-0.9-5.6-0.9-8.8V27.1h17.4v41.7
			c0,2.4,0.2,4.5,0.5,6.2c0.4,1.7,0.9,3.2,1.6,4.5c1.2,2.2,2.8,3.8,5,4.8c2.2,1.1,4.8,1.6,7.7,1.6c3.1,0,5.8-0.6,8.1-1.8
			c2.2-1.2,3.9-3,5-5.4c1.1-2.3,1.7-5.5,1.7-9.6V27.1h17.4v43.5c0,5.8-1,10.7-3,14.7c-1.1,2.2-2.6,4.3-4.4,6.1
			c-1.8,1.8-3.9,3.4-6.3,4.7c-2.4,1.3-5.2,2.3-8.3,3C677.4,99.9,674,100.3,670.2,100.3z M623.3,62.8c0,5.6-0.8,10.7-2.5,15.3
			c-1.7,4.6-4,8.6-7.2,11.9c-3.1,3.3-6.9,5.8-11.3,7.6c-4.4,1.8-9.3,2.7-14.8,2.7c-5.6,0-10.6-0.9-15-2.7c-4.4-1.8-8.2-4.3-11.3-7.6
			c-3.1-3.3-5.5-7.2-7.1-11.9c-1.7-4.6-2.5-9.7-2.5-15.3c0-5.6,0.9-10.7,2.5-15.3c1.7-4.6,4.1-8.6,7.2-11.9
			c3.1-3.3,6.9-5.8,11.3-7.6c4.4-1.8,9.3-2.7,14.8-2.7c5.6,0,10.6,0.9,15,2.7c4.4,1.8,8.2,4.3,11.3,7.6c3.1,3.3,5.4,7.2,7.1,11.9
			C622.5,52.1,623.3,57.2,623.3,62.8z M605.3,62.8c0-3.8-0.4-7.1-1.3-10c-0.9-2.9-2.1-5.3-3.7-7.3c-1.6-2-3.5-3.4-5.7-4.4
			c-2.2-1-4.6-1.5-7.2-1.5c-2.5,0-4.9,0.5-7.1,1.5c-2.2,1-4,2.4-5.6,4.4c-1.6,2-2.8,4.4-3.7,7.3c-0.9,2.9-1.3,6.2-1.3,10
			c0,3.8,0.5,7.1,1.3,10c0.9,2.9,2.1,5.3,3.7,7.3c1.6,1.9,3.5,3.4,5.7,4.4c2.2,1,4.6,1.5,7.2,1.5c2.6,0,5-0.5,7.1-1.5
			c2.2-1,4-2.5,5.6-4.4c1.6-1.9,2.8-4.3,3.7-7.3C604.8,69.9,605.3,66.6,605.3,62.8z M492.8,45.2c4.1,0,7.6-0.2,10.5-0.6
			c2.9-0.4,5.3-0.9,7.2-1.7c3.6-1.4,6.2-3.2,7.5-5.6c1.4-2.4,2.1-5.1,2.1-8.2c0-2.6-0.6-5-1.7-7c-1.1-2-3-3.6-5.6-4.8
			c-1.7-0.8-3.9-1.4-6.5-1.7c-2.6-0.4-5.8-0.5-9.6-0.5h-12.9v30.2H492.8z M538.7,29.6c0,6.9-1.9,12.7-5.7,17.5
			c-3.8,4.8-9.7,8.3-17.6,10.6V58l29.3,40.5H523l-26.8-38.1h-12.4v38.1h-18V0h29.9c4.9,0,9.6,0.3,13.8,0.9c4.3,0.6,7.9,1.4,11,2.5
			c5.8,2.2,10.3,5.5,13.4,9.8C537.1,17.5,538.7,23,538.7,29.6z"/>
	</g>
	<g id="XMLID_2_">
		<rect id="XMLID_6_" y="80.9" class="st1" width="19.2" height="19.2"/>
		<rect id="XMLID_5_" x="100" y="0.1" class="st1" width="19.2" height="19.2"/>
		<polygon id="XMLID_4_" class="st1" points="92.3,54 19.2,54 19.2,19.4 92.3,19.4 92.3,0.1 19.2,0.1 0,0.1 0,73.2 19.2,73.2 
			19.2,73.2 92.3,73.2 		"/>
		<polygon id="XMLID_3_" class="st1" points="100,27 100,27.1 26.9,27.1 26.9,46.3 100,46.3 100,80.9 26.9,80.9 26.9,100.1 
			100,100.1 119.3,100.1 119.3,27 		"/>
	</g>
</g>
</svg>
