<?xml version="1.0" encoding="utf-8"?>
<!-- Generator: Adobe Illustrator 24.2.1, SVG Export Plug-In . SVG Version: 6.00 Build 0)  -->
<svg version="1.1" id="Layer_1" xmlns="http://www.w3.org/2000/svg" xmlns:xlink="http://www.w3.org/1999/xlink" x="0px" y="0px"
	 viewBox="0 0 140 32" style="enable-background:new 0 0 140 32;" xml:space="preserve">
<style type="text/css">
	.st0{fill:#FF6D5A;}
	.st1{fill:#384D5B;}
</style>
<g>
	<path class="st0" d="M55.4,0.2c-2.9,0-5.4,2-6.1,4.8h-8.8c-3.5,0-6.3,2.8-6.3,6.3c0,1.7-1.4,3.1-3.1,3.1h-1.3
		c-0.7-2.7-3.2-4.8-6.1-4.8c-2.9,0-5.4,2-6.1,4.8h-5c-0.7-2.7-3.2-4.8-6.1-4.8C2.8,9.6,0,12.5,0,16s2.8,6.3,6.3,6.3
		c2.9,0,5.4-2,6.1-4.8h5c0.7,2.7,3.2,4.8,6.1,4.8c2.9,0,5.4-2,6.1-4.7H31c1.7,0,3.1,1.4,3.1,3.1c0,3.5,2.8,6.3,6.3,6.3h2.1
		c0.7,2.7,3.2,4.8,6.1,4.8c3.5,0,6.3-2.8,6.3-6.3s-2.8-6.3-6.3-6.3c-2.9,0-5.4,2-6.1,4.8h-2.1c-1.7,0-3.1-1.4-3.1-3.1
		c0-1.9-0.8-3.6-2.2-4.7c1.3-1.2,2.2-2.8,2.2-4.7c0-1.7,1.4-3.1,3.1-3.1h8.8c0.7,2.7,3.2,4.8,6.1,4.8c3.5,0,6.3-2.8,6.3-6.3
		S58.9,0.2,55.4,0.2z M6.3,19.2c-1.8,0-3.2-1.4-3.2-3.2s1.4-3.2,3.2-3.2s3.2,1.4,3.2,3.2S8.1,19.2,6.3,19.2z M23.6,19.2
		c-1.8,0-3.2-1.4-3.2-3.2s1.4-3.2,3.2-3.2c1.8,0,3.2,1.4,3.2,3.2S25.4,19.2,23.6,19.2z M48.6,22.2c1.8,0,3.2,1.4,3.2,3.2
		c0,1.8-1.4,3.2-3.2,3.2c-1.8,0-3.2-1.4-3.2-3.2C45.4,23.7,46.8,22.2,48.6,22.2z M55.4,9.8c-1.8,0-3.2-1.4-3.2-3.2
		c0-1.8,1.4-3.2,3.2-3.2c1.8,0,3.2,1.4,3.2,3.2C58.6,8.3,57.1,9.8,55.4,9.8z"/>
	<g>
		<path class="st1" d="M66.1,14.5c0-0.4-0.2-0.6-0.6-0.6h-1v-2.1h2.4c1.1,0,1.6,0.5,1.6,1.4v0.5c0,0.4-0.1,0.7-0.1,0.7h0.1
			c0.5-1.1,2-2.9,4.8-2.9c3,0,4.4,1.7,4.4,4.9V22c0,0.4,0.2,0.6,0.6,0.6h1v2.1h-2.4c-1.1,0-1.6-0.5-1.6-1.6v-6
			c0-1.8-0.4-3.2-2.4-3.2c-2,0-3.6,1.3-4.1,3.1c-0.2,0.5-0.2,1.1-0.2,1.7v6h-2.5V14.5z"/>
		<path class="st1" d="M84.5,14.9L84.5,14.9c0-0.1-2.2-1.2-2.2-3.7s2-4.8,5.6-4.8c3.4,0,5.6,2.1,5.6,4.8c0,2.6-2.2,4.3-2.2,4.3v0.1
			c1.6,0.9,2.7,2.2,2.7,4.1c0,2.8-2.5,5.3-6.2,5.3c-3.4,0-6.2-2.1-6.2-5.4C81.5,16.6,84.5,14.9,84.5,14.9z M87.8,22.6
			c1.9,0,3.6-1.2,3.6-3c0-1.6-1.3-2.3-3-2.9c-0.7-0.3-1.7-0.7-1.9-0.7c-0.6,0-2.4,1.5-2.4,3.4C84.1,21.4,85.8,22.6,87.8,22.6z
			 M89.1,14.5c0.6,0,1.9-1.5,1.9-3.1c0-1.7-1.3-2.7-3.1-2.7c-2,0-3.1,1.1-3.1,2.5c0,1.6,1.3,2.2,2.9,2.8
			C88,14.2,88.8,14.5,89.1,14.5z"/>
		<path class="st1" d="M97.9,14.5c0-0.4-0.2-0.6-0.6-0.6h-1v-2.1h2.4c1.1,0,1.6,0.5,1.6,1.4v0.5c0,0.4-0.1,0.7-0.1,0.7h0.1
			c0.5-1.1,2-2.9,4.8-2.9c3,0,4.4,1.7,4.4,4.9V22c0,0.4,0.2,0.6,0.6,0.6h1v2.1h-2.4c-1.1,0-1.6-0.5-1.6-1.6v-6
			c0-1.8-0.4-3.2-2.4-3.2c-2,0-3.6,1.3-4.1,3.1c-0.2,0.5-0.2,1.1-0.2,1.7v6h-2.5V14.5z"/>
		<path class="st1" d="M114,22h2.5v2.6H114V22z"/>
		<path class="st1" d="M119.9,14.5c0-0.4-0.2-0.6-0.6-0.6h-1v-2.1h2.4c1.1,0,1.6,0.5,1.6,1.6V22c0,0.4,0.2,0.6,0.6,0.6h1v2.1h-2.4
			c-1.1,0-1.6-0.5-1.6-1.6V14.5z"/>
		<path class="st1" d="M133.1,11.5c3.8,0,6.9,2.8,6.9,6.7c0,3.9-3.1,6.8-6.9,6.8s-6.9-2.8-6.9-6.8C126.2,14.3,129.2,11.5,133.1,11.5
			z M133.1,22.8c2.4,0,4.4-1.9,4.4-4.6c0-2.7-2-4.6-4.4-4.6c-2.4,0-4.4,1.9-4.4,4.6C128.7,20.9,130.7,22.8,133.1,22.8z"/>
	</g>
	<g>
		<g>
			<path class="st0" d="M121,11c-1.3,0-2.3-1-2.3-2.3s1-2.3,2.3-2.3s2.3,1,2.3,2.3S122.3,11,121,11z M121,7.5
				c-0.7,0-1.2,0.5-1.2,1.2c0,0.7,0.5,1.2,1.2,1.2c0.7,0,1.2-0.5,1.2-1.2C122.2,8.1,121.7,7.5,121,7.5z"/>
		</g>
	</g>
</g>
</svg>
