<?xml version="1.0" encoding="utf-8"?>
<!-- Generator: Adobe Illustrator 24.2.1, SVG Export Plug-In . SVG Version: 6.00 Build 0)  -->
<svg version="1.1" id="Layer_1" xmlns="http://www.w3.org/2000/svg" xmlns:xlink="http://www.w3.org/1999/xlink" x="0px" y="0px"
	 viewBox="0 0 369 105" style="enable-background:new 0 0 369 105;" xml:space="preserve">
<style type="text/css">
	.st0{fill:#FF6D5A;}
	.st1{fill:#384D5B;}
</style>
<g>
	<path class="st0" d="M183.9,0.2c-9.8,0-18,6.7-20.3,15.8h-29.2c-11.5,0-20.8,9.3-20.8,20.8c0,5.7-4.7,10.4-10.4,10.4H99
		c-2.3-9.1-10.5-15.8-20.3-15.8c-9.8,0-18,6.7-20.3,15.8H41.7c-2.3-9.1-10.5-15.8-20.3-15.8c-11.6,0-21,9.4-21,21
		c0,11.6,9.4,21,21,21c9.8,0,18-6.7,20.3-15.8h16.7c2.3,9.1,10.5,15.8,20.3,15.8c9.7,0,17.9-6.6,20.3-15.6h4.2
		c5.7,0,10.4,4.7,10.4,10.4c0,11.5,9.3,20.8,20.8,20.8h6.8c2.3,9.1,10.5,15.8,20.3,15.8c11.6,0,21-9.4,21-21c0-11.6-9.4-21-21-21
		c-9.8,0-18,6.7-20.3,15.8h-6.8c-5.7,0-10.4-4.7-10.4-10.4c0-6.3-2.8-11.9-7.2-15.7c4.4-3.8,7.2-9.4,7.2-15.7
		c0-5.7,4.7-10.4,10.4-10.4h29.2c2.3,9.1,10.5,15.8,20.3,15.8c11.6,0,21-9.4,21-21C204.9,9.6,195.5,0.2,183.9,0.2z M21.4,63
		c-5.8,0-10.6-4.8-10.6-10.6s4.8-10.6,10.6-10.6S32,46.6,32,52.4S27.3,63,21.4,63z M78.7,63c-5.8,0-10.6-4.8-10.6-10.6
		s4.8-10.6,10.6-10.6s10.6,4.8,10.6,10.6S84.6,63,78.7,63z M161.5,73.2c5.8,0,10.6,4.8,10.6,10.6s-4.8,10.6-10.6,10.6
		s-10.6-4.8-10.6-10.6C150.9,77.9,155.7,73.2,161.5,73.2z M183.9,31.8c-5.8,0-10.6-4.8-10.6-10.6s4.8-10.6,10.6-10.6
		s10.6,4.8,10.6,10.6C194.5,27,189.8,31.8,183.9,31.8z"/>
	<g>
		<path class="st1" d="M219.4,47.4c0-1.3-0.7-1.8-1.8-1.8h-3.5v-7h7.8c3.6,0,5.4,1.6,5.4,4.7v1.6c0,1.3-0.2,2.4-0.2,2.4h0.2
			c1.7-3.7,6.7-9.8,16-9.8c10.1,0,14.6,5.5,14.6,16.3v18.4c0,1.3,0.7,1.8,1.8,1.8h3.5v7h-8.1c-3.8,0-5.4-1.6-5.4-5.4v-20
			c0-6-1.2-10.7-8-10.7c-6.6,0-11.8,4.3-13.5,10.4c-0.6,1.7-0.8,3.6-0.8,5.7v19.9h-8.2L219.4,47.4L219.4,47.4z"/>
		<path class="st1" d="M280.3,48.9v-0.2c0,0-7.3-3.9-7.3-12.1s6.6-15.9,18.5-15.9c11.4,0,18.6,6.8,18.6,16.1
			c0,8.8-7.2,14.1-7.2,14.1v0.2c5.4,3.1,8.8,7.2,8.8,13.6c0,9.3-8.4,17.4-20.5,17.4c-11.2,0-20.7-7-20.7-18
			C270.6,54.3,280.3,48.9,280.3,48.9z M291.3,74.5c6.2,0,12-4.1,12-10c0-5.2-4.5-7.5-10-9.8c-2.3-0.9-5.5-2.2-6.1-2.2
			c-2.1,0-8.1,4.9-8.1,11.2C279.1,70.3,284.8,74.5,291.3,74.5z M295.6,47.5c2,0,6.3-5,6.3-10.3c0-5.5-4.4-8.9-10.4-8.9
			c-6.5,0-10.3,3.7-10.3,8.4c0,5.2,4.5,7.2,9.8,9.3C292.2,46.6,294.6,47.5,295.6,47.5z"/>
		<path class="st1" d="M324.7,47.4c0-1.3-0.7-1.8-1.8-1.8h-3.5v-7h7.8c3.6,0,5.4,1.6,5.4,4.7v1.6c0,1.3-0.2,2.4-0.2,2.4h0.2
			c1.7-3.7,6.7-9.8,16-9.8c10.1,0,14.6,5.5,14.6,16.3v18.4c0,1.3,0.7,1.8,1.8,1.8h3.5v7h-8.1c-3.8,0-5.4-1.6-5.4-5.4v-20
			c0-6-1.2-10.7-8-10.7c-6.6,0-11.8,4.3-13.5,10.4c-0.6,1.7-0.8,3.6-0.8,5.7v19.9h-8.2L324.7,47.4L324.7,47.4z"/>
	</g>
</g>
</svg>
