<svg width="58" height="16" viewBox="0 0 58 16" fill="none" xmlns="http://www.w3.org/2000/svg">
<path fill-rule="evenodd" clip-rule="evenodd" d="M27.2 6.4C25.7089 6.4 24.4561 5.38018 24.1008 4H20.4331C19.651 4 18.9835 4.56546 18.8549 5.33696L18.7234 6.12608C18.5985 6.87531 18.2195 7.52738 17.6835 8C18.2195 8.47262 18.5985 9.12469 18.7234 9.87392L18.8549 10.663C18.9835 11.4345 19.651 12 20.4331 12H20.9008C21.2561 10.6198 22.5089 9.6 24 9.6C25.7673 9.6 27.2 11.0327 27.2 12.8C27.2 14.5673 25.7673 16 24 16C22.5089 16 21.256 14.9802 20.9008 13.6H20.4331C18.8688 13.6 17.5338 12.4691 17.2766 10.9261L17.1451 10.137C17.0165 9.36546 16.349 8.8 15.5669 8.8H14.2992C13.944 10.1802 12.6911 11.2 11.2 11.2C9.70893 11.2 8.45605 10.1802 8.10081 8.8H6.29919C5.94395 10.1802 4.69107 11.2 3.2 11.2C1.43269 11.2 0 9.76731 0 8C0 6.23269 1.43269 4.8 3.2 4.8C4.69107 4.8 5.94395 5.81982 6.29919 7.2H8.10081C8.45605 5.81982 9.70893 4.8 11.2 4.8C12.6911 4.8 13.944 5.81982 14.2992 7.2H15.5669C16.349 7.2 17.0165 6.63454 17.1451 5.86304L17.2766 5.07392C17.5338 3.53092 18.8688 2.4 20.4331 2.4L24.1008 2.4C24.456 1.01982 25.7089 0 27.2 0C28.9673 0 30.4 1.43269 30.4 3.2C30.4 4.96731 28.9673 6.4 27.2 6.4ZM27.2 4.8C28.0837 4.8 28.8 4.08366 28.8 3.2C28.8 2.31634 28.0837 1.6 27.2 1.6C26.3163 1.6 25.6 2.31634 25.6 3.2C25.6 4.08366 26.3163 4.8 27.2 4.8ZM3.2 9.6C4.08366 9.6 4.8 8.88366 4.8 8C4.8 7.11634 4.08366 6.4 3.2 6.4C2.31634 6.4 1.6 7.11634 1.6 8C1.6 8.88366 2.31634 9.6 3.2 9.6ZM12.8 8C12.8 8.88366 12.0837 9.6 11.2 9.6C10.3163 9.6 9.6 8.88366 9.6 8C9.6 7.11634 10.3163 6.4 11.2 6.4C12.0837 6.4 12.8 7.11634 12.8 8ZM25.6 12.8C25.6 13.6837 24.8837 14.4 24 14.4C23.1163 14.4 22.4 13.6837 22.4 12.8C22.4 11.9163 23.1163 11.2 24 11.2C24.8837 11.2 25.6 11.9163 25.6 12.8Z" fill="#EA4B71"/>
<path fill-rule="evenodd" clip-rule="evenodd" d="M48.0015 6.91832V6.84207C48.5598 6.5625 49.118 6.07959 49.118 5.12649C49.118 3.75402 47.9888 2.928 46.4282 2.928C44.8296 2.928 43.6877 3.80486 43.6877 5.15191C43.6877 6.06688 44.2206 6.5625 44.8042 6.84207V6.91832C44.1571 7.14707 43.3832 7.8333 43.3832 8.97702C43.3832 10.3622 44.5251 11.328 46.4155 11.328C48.306 11.328 49.4098 10.3622 49.4098 8.97702C49.4098 7.8333 48.6486 7.15977 48.0015 6.91832ZM46.4155 4.09714C47.0499 4.09714 47.5194 4.5038 47.5194 5.19003C47.5194 5.87626 47.0372 6.28292 46.4155 6.28292C45.7938 6.28292 45.2737 5.87626 45.2737 5.19003C45.2737 4.49109 45.7685 4.09714 46.4155 4.09714ZM46.4155 10.108C45.6797 10.108 45.0833 9.63784 45.0833 8.83723C45.0833 8.11287 45.5782 7.56643 46.4029 7.56643C47.2149 7.56643 47.7097 8.10017 47.7097 8.86265C47.7097 9.63784 47.1387 10.108 46.4155 10.108Z" fill="#101330"/>
<path d="M51.3672 11.2009H52.9912V7.75705C52.9912 6.62604 53.6763 6.13042 54.4503 6.13042C55.2116 6.13042 55.8079 6.63874 55.8079 7.6808V11.2009H57.4319V7.35039C57.4319 5.68564 56.4676 4.71983 54.9578 4.71983C54.0062 4.71983 53.4733 5.10107 53.0927 5.59669H52.9912L52.8516 4.84691H51.3672V11.2009Z" fill="#101330"/>
<path d="M36.9912 11.2009H35.3672V4.84691H36.8516L36.9912 5.59669H37.0927C37.4733 5.10107 38.0062 4.71983 38.9578 4.71983C40.4676 4.71983 41.4319 5.68564 41.4319 7.35039V11.2009H39.8079V7.6808C39.8079 6.63874 39.2116 6.13042 38.4503 6.13042C37.6763 6.13042 36.9912 6.62604 36.9912 7.75705V11.2009Z" fill="#101330"/>
</svg>
