<svg xmlns="http://www.w3.org/2000/svg" width="32" height="16" fill="none"><path fill="#EA4B71" fill-rule="evenodd" d="M28.013 6.4a3.2 3.2 0 0 1-3.1-2.4h-3.667a1.6 1.6 0 0 0-1.579 1.337l-.131.79A3.2 3.2 0 0 1 18.496 8a3.2 3.2 0 0 1 1.04 1.874l.131.789A1.6 1.6 0 0 0 21.246 12h.467a3.201 3.201 0 0 1 6.3.8 3.2 3.2 0 0 1-6.3.8h-.467a3.2 3.2 0 0 1-3.157-2.674l-.131-.789A1.6 1.6 0 0 0 16.379 8.8h-1.267a3.201 3.201 0 0 1-6.199 0H7.112a3.201 3.201 0 0 1-6.3-.8 3.2 3.2 0 0 1 6.3-.8h1.801a3.201 3.201 0 0 1 6.199 0h1.267a1.6 1.6 0 0 0 1.579-1.337l.131-.79A3.2 3.2 0 0 1 21.246 2.4h3.667a3.201 3.201 0 0 1 6.3.8 3.2 3.2 0 0 1-3.2 3.2m0-1.6a1.6 1.6 0 1 0 0-3.2 1.6 1.6 0 0 0 0 3.2m-24 4.8a1.6 1.6 0 1 0 0-3.2 1.6 1.6 0 0 0 0 3.2m9.6-1.6a1.6 1.6 0 1 1-3.2 0 1.6 1.6 0 0 1 3.2 0m12.8 4.8a1.6 1.6 0 1 1-3.2 0 1.6 1.6 0 0 1 3.2 0" clip-rule="evenodd"/></svg>