<svg width="444" height="120" viewBox="0 0 444 120" fill="none" xmlns="http://www.w3.org/2000/svg">
<path fill-rule="evenodd" clip-rule="evenodd" d="M204 48C192.817 48 183.42 40.3514 180.756 30H153.248C147.382 30 142.376 34.241 141.412 40.0272L140.425 45.9456C139.489 51.5648 136.646 56.4554 132.626 60C136.646 63.5446 139.489 68.4352 140.425 74.0544L141.412 79.9728C142.376 85.759 147.382 90 153.248 90H156.756C159.42 79.6486 168.817 72 180 72C193.255 72 204 82.7452 204 96C204 109.255 193.255 120 180 120C168.817 120 159.42 112.351 156.756 102H153.248C141.516 102 131.504 93.5181 129.575 81.9456L128.588 76.0272C127.624 70.241 122.618 66 116.752 66H107.244C104.58 76.3514 95.183 84 84 84C72.817 84 63.4204 76.3514 60.7561 66H47.2439C44.5796 76.3514 35.183 84 24 84C10.7452 84 0 73.2548 0 60C0 46.7452 10.7452 36 24 36C35.183 36 44.5796 43.6486 47.2439 54H60.7561C63.4204 43.6486 72.817 36 84 36C95.183 36 104.58 43.6486 107.244 54H116.752C122.618 54 127.624 49.759 128.588 43.9728L129.575 38.0544C131.504 26.4819 141.516 18 153.248 18L180.756 18C183.42 7.64864 192.817 0 204 0C217.255 0 228 10.7452 228 24C228 37.2548 217.255 48 204 48ZM204 36C210.627 36 216 30.6274 216 24C216 17.3726 210.627 12 204 12C197.373 12 192 17.3726 192 24C192 30.6274 197.373 36 204 36ZM24 72C30.6274 72 36 66.6274 36 60C36 53.3726 30.6274 48 24 48C17.3726 48 12 53.3726 12 60C12 66.6274 17.3726 72 24 72ZM96 60C96 66.6274 90.6274 72 84 72C77.3726 72 72 66.6274 72 60C72 53.3726 77.3726 48 84 48C90.6274 48 96 53.3726 96 60ZM192 96C192 102.627 186.627 108 180 108C173.373 108 168 102.627 168 96C168 89.3726 173.373 84 180 84C186.627 84 192 89.3726 192 96Z" fill="#EA4B71"/>
<path fill-rule="evenodd" clip-rule="evenodd" d="M372.017 51.8874V51.3155C376.204 49.2187 380.391 45.5969 380.391 38.4487C380.391 28.1552 371.922 21.96 360.218 21.96C348.228 21.96 339.664 28.5364 339.664 38.6393C339.664 45.5016 343.66 49.2187 348.038 51.3155V51.8874C343.185 53.603 337.38 58.7497 337.38 67.3276C337.38 77.7164 345.944 84.96 360.123 84.96C374.301 84.96 382.58 77.7164 382.58 67.3276C382.58 58.7497 376.87 53.6983 372.017 51.8874ZM360.123 30.7286C364.881 30.7286 368.401 33.7785 368.401 38.9252C368.401 44.072 364.785 47.1219 360.123 47.1219C355.46 47.1219 351.558 44.072 351.558 38.9252C351.558 33.6832 355.27 30.7286 360.123 30.7286ZM360.123 75.8102C354.604 75.8102 350.131 72.2838 350.131 66.2792C350.131 60.8466 353.842 56.7482 360.028 56.7482C366.118 56.7482 369.829 60.7512 369.829 66.4699C369.829 72.2838 365.547 75.8102 360.123 75.8102Z" fill="#101330"/>
<path d="M397.26 84.0069H409.44V58.1779C409.44 49.6953 414.579 45.9782 420.383 45.9782C426.093 45.9782 430.565 49.7906 430.565 57.606V84.0069H442.745V55.128C442.745 42.6423 435.513 35.3988 424.19 35.3988C417.053 35.3988 413.056 38.2581 410.201 41.9752H409.44L408.393 36.3519H397.26V84.0069Z" fill="#101330"/>
<path d="M289.44 84.0069H277.26V36.3519H288.393L289.44 41.9752H290.201C293.056 38.2581 297.053 35.3988 304.19 35.3988C315.513 35.3988 322.745 42.6423 322.745 55.128V84.0069H310.565V57.606C310.565 49.7906 306.093 45.9782 300.383 45.9782C294.579 45.9782 289.44 49.6953 289.44 58.1779V84.0069Z" fill="#101330"/>
</svg>
