<?xml version="1.0" encoding="utf-8"?>
<!-- Generator: Adobe Illustrator 23.0.0, SVG Export Plug-In . SVG Version: 6.00 Build 0)  -->
<svg version="1.1" id="Layer_1" xmlns="http://www.w3.org/2000/svg" xmlns:xlink="http://www.w3.org/1999/xlink" x="0px" y="0px"
	 viewBox="0 0 1600 1200" style="enable-background:new 0 0 1600 1200;" xml:space="preserve">
<style type="text/css">
	.st0{fill:#FF6D5A;}
	.st1{fill:#384D5B;}
</style>
<g>
	<path class="st0" d="M751.51,547.72c-9.77,0-17.99,6.73-20.31,15.79h-29.23c-11.47,0-20.8,9.33-20.8,20.8
		c0,5.73-4.66,10.4-10.4,10.4h-4.17c-2.32-9.06-10.53-15.79-20.31-15.79c-9.77,0-17.99,6.73-20.31,15.79h-16.7
		c-2.32-9.06-10.53-15.79-20.31-15.79c-11.57,0-20.99,9.41-20.99,20.99c0,11.57,9.41,20.99,20.99,20.99
		c9.77,0,17.99-6.73,20.31-15.79H626c2.32,9.06,10.53,15.79,20.31,15.79c9.71,0,17.87-6.63,20.26-15.6h4.21
		c5.73,0,10.4,4.66,10.4,10.4c0,11.47,9.33,20.8,20.8,20.8h6.81c2.32,9.06,10.53,15.79,20.31,15.79c11.57,0,20.99-9.41,20.99-20.99
		c0-11.57-9.41-20.99-20.99-20.99c-9.77,0-17.99,6.73-20.31,15.79h-6.81c-5.73,0-10.4-4.66-10.4-10.4c0-6.26-2.8-11.88-7.19-15.69
		c4.4-3.82,7.19-9.43,7.19-15.69c0-5.73,4.66-10.4,10.4-10.4h29.23c2.32,9.06,10.53,15.79,20.31,15.79
		c11.57,0,20.99-9.41,20.99-20.99C772.5,557.14,763.08,547.72,751.51,547.72z M588.99,610.49c-5.84,0-10.59-4.75-10.59-10.59
		c0-5.84,4.75-10.59,10.59-10.59c5.84,0,10.59,4.75,10.59,10.59C599.58,605.74,594.83,610.49,588.99,610.49z M646.31,610.49
		c-5.84,0-10.59-4.75-10.59-10.59c0-5.84,4.75-10.59,10.59-10.59c5.84,0,10.59,4.75,10.59,10.59
		C656.9,605.74,652.15,610.49,646.31,610.49z M729.09,620.7c5.84,0,10.59,4.75,10.59,10.59c0,5.84-4.75,10.59-10.59,10.59
		c-5.84,0-10.59-4.75-10.59-10.59C718.51,625.45,723.26,620.7,729.09,620.7z M751.51,579.3c-5.84,0-10.59-4.75-10.59-10.59
		c0-5.84,4.75-10.59,10.59-10.59c5.84,0,10.59,4.75,10.59,10.59C762.1,574.55,757.35,579.3,751.51,579.3z"/>
	<g>
		<path class="st1" d="M786.98,594.87c0-1.26-0.67-1.85-1.85-1.85h-3.45v-6.98h7.83c3.62,0,5.39,1.6,5.39,4.71v1.6
			c0,1.35-0.17,2.44-0.17,2.44h0.17c1.68-3.7,6.73-9.76,15.99-9.76c10.1,0,14.64,5.47,14.64,16.32v18.43c0,1.26,0.67,1.85,1.85,1.85
			h3.45v6.98h-8.08c-3.79,0-5.39-1.6-5.39-5.39V603.2c0-5.98-1.18-10.69-7.99-10.69c-6.56,0-11.78,4.29-13.46,10.44
			c-0.59,1.68-0.76,3.62-0.76,5.72v19.94h-8.16V594.87z"/>
		<path class="st1" d="M847.89,596.38v-0.17c0,0-7.32-3.87-7.32-12.12c0-8.25,6.56-15.9,18.51-15.9c11.36,0,18.6,6.82,18.6,16.07
			c0,8.75-7.15,14.14-7.15,14.14v0.17c5.39,3.11,8.84,7.24,8.84,13.63c0,9.26-8.41,17.42-20.53,17.42c-11.19,0-20.7-6.98-20.7-18.01
			C838.13,601.85,847.89,596.38,847.89,596.38z M858.83,621.96c6.23,0,12.03-4.12,12.03-10.01c0-5.22-4.46-7.49-10.01-9.76
			c-2.27-0.93-5.47-2.19-6.14-2.19c-2.1,0-8.08,4.88-8.08,11.19C846.63,617.84,852.35,621.96,858.83,621.96z M863.21,595.03
			c2.02,0,6.31-4.97,6.31-10.27c0-5.47-4.38-8.92-10.43-8.92c-6.48,0-10.27,3.7-10.27,8.41c0,5.22,4.46,7.24,9.76,9.34
			C859.76,594.11,862.2,595.03,863.21,595.03z"/>
		<path class="st1" d="M892.32,594.87c0-1.26-0.67-1.85-1.85-1.85h-3.45v-6.98h7.83c3.62,0,5.39,1.6,5.39,4.71v1.6
			c0,1.35-0.17,2.44-0.17,2.44h0.17c1.68-3.7,6.73-9.76,15.99-9.76c10.1,0,14.64,5.47,14.64,16.32v18.43c0,1.26,0.67,1.85,1.85,1.85
			h3.45v6.98h-8.08c-3.79,0-5.39-1.6-5.39-5.39V603.2c0-5.98-1.18-10.69-7.99-10.69c-6.56,0-11.78,4.29-13.46,10.44
			c-0.59,1.68-0.76,3.62-0.76,5.72v19.94h-8.16V594.87z"/>
		<path class="st1" d="M945.83,619.94h8.33v8.67h-8.33V619.94z"/>
		<path class="st1" d="M965.43,594.87c0-1.26-0.67-1.85-1.85-1.85h-3.45v-6.98h7.99c3.79,0,5.39,1.6,5.39,5.39v28.36
			c0,1.26,0.67,1.85,1.85,1.85h3.45v6.98h-7.99c-3.79,0-5.39-1.6-5.39-5.39V594.87z"/>
		<path class="st1" d="M1009.02,585.02c12.71,0,22.97,9.34,22.97,22.22c0,12.96-10.27,22.38-22.97,22.38
			c-12.71,0-22.89-9.43-22.89-22.38C986.13,594.36,996.31,585.02,1009.02,585.02z M1009.02,622.55c8.08,0,14.64-6.4,14.64-15.32
			c0-8.84-6.56-15.15-14.64-15.15c-7.99,0-14.56,6.31-14.56,15.15C994.46,616.16,1001.02,622.55,1009.02,622.55z"/>
	</g>
	<g>
		<g>
			<path class="st0" d="M969.16,583.49c-4.19,0-7.6-3.41-7.6-7.6s3.41-7.6,7.6-7.6s7.6,3.41,7.6,7.6S973.35,583.49,969.16,583.49z
				 M969.16,571.94c-2.17,0-3.94,1.77-3.94,3.94c0,2.17,1.77,3.94,3.94,3.94s3.94-1.77,3.94-3.94
				C973.1,573.71,971.33,571.94,969.16,571.94z"/>
		</g>
	</g>
</g>
</svg>
