<svg xmlns="http://www.w3.org/2000/svg" xml:space="preserve" width="60" height="60" viewBox="0 0 210 210"><path d="M18.8 18.8C8.4 18.8 0 27.1 0 37.5s8.4 18.8 18.8 18.8 18.8-8.4 18.8-18.8-8.5-18.7-18.8-18.7m0 62.4C8.4 81.2 0 89.6 0 100s8.4 18.8 18.8 18.8 18.8-8.4 18.8-18.8-8.5-18.8-18.8-18.8m0 62.6C8.4 143.8 0 152.1 0 162.5s8.4 18.8 18.8 18.8 18.8-8.4 18.8-18.8-8.5-18.7-18.8-18.7m175 6.2h-125c-3.5 0-6.2 2.8-6.2 6.2v12.5c0 3.5 2.8 6.2 6.2 6.2h125c3.5 0 6.2-2.8 6.2-6.2v-12.5c0-3.4-2.8-6.2-6.2-6.2m0-125h-125c-3.5 0-6.2 2.8-6.2 6.2v12.5c0 3.5 2.8 6.2 6.2 6.2h125c3.5 0 6.2-2.8 6.2-6.2V31.2c0-3.4-2.8-6.2-6.2-6.2m0 62.5h-125c-3.5 0-6.2 2.8-6.2 6.2v12.5c0 3.5 2.8 6.2 6.2 6.2h125c3.5 0 6.2-2.8 6.2-6.2V93.8c0-3.5-2.8-6.3-6.2-6.3" style="fill:#ff6d5a"/></svg>