<svg width="512" height="512" viewBox="0 0 512 512" fill="none" xmlns="http://www.w3.org/2000/svg">
<g clip-path="url(#clip0_1141_1578)">
<path fill-rule="evenodd" clip-rule="evenodd" d="M-1.36164e-06 148C-1.61231e-06 141.373 5.37258 136 12 136L172 136C178.627 136 184 141.373 184 148L184 172C184 178.627 178.627 184 172 184L12 184C5.37258 184 -2.03209e-07 178.627 -4.53879e-07 172L-1.36164e-06 148Z" fill="#FF6D5A"/>
<path fill-rule="evenodd" clip-rule="evenodd" d="M-1.36164e-06 244C-1.61231e-06 237.373 5.37258 232 12 232L172 232C178.627 232 184 237.373 184 244L184 268C184 274.627 178.627 280 172 280L12 280C5.37258 280 -2.03209e-07 274.627 -4.53879e-07 268L-1.36164e-06 244Z" fill="#FF6D5A"/>
<path fill-rule="evenodd" clip-rule="evenodd" d="M-1.36164e-06 340C-1.61231e-06 333.373 5.37258 328 12 328L172 328C178.627 328 184 333.373 184 340L184 364C184 370.627 178.627 376 172 376L12 376C5.37258 376 -2.03209e-07 370.627 -4.53879e-07 364L-1.36164e-06 340Z" fill="#FF6D5A"/>
<path d="M92 76C92 82.6274 97.3726 88 104 88H200.217C217.89 88 232.217 102.327 232.217 120V176C232.217 202.978 242.489 227.557 259.336 246.039C264.391 251.584 264.391 260.416 259.336 265.961C242.489 284.443 232.217 309.022 232.217 336V392C232.217 409.673 217.89 424 200.217 424H104C97.3726 424 92 429.373 92 436V460C92 466.627 97.3726 472 104 472H200.217C244.4 472 280.217 436.183 280.217 392V336C280.217 305.072 305.289 280 336.217 280V280C339.411 280 342 277.411 342 274.217V237.783C342 234.589 339.411 232 336.217 232V232C305.289 232 280.217 206.928 280.217 176V120C280.217 75.8172 244.4 40 200.217 40H104C97.3726 40 92 45.3726 92 52V76Z" fill="#FF6D5A"/>
<path fill-rule="evenodd" clip-rule="evenodd" d="M390 244C390 237.373 395.373 232 402 232L500 232C506.627 232 512 237.373 512 244L512 268C512 274.627 506.627 280 500 280L402 280C395.373 280 390 274.627 390 268L390 244Z" fill="#FF6D5A"/>
</g>
<defs>
<clipPath id="clip0_1141_1578">
<rect width="512" height="512" fill="white"/>
</clipPath>
</defs>
</svg>
