<svg xmlns="http://www.w3.org/2000/svg" width="24" height="24"><defs><style>.cls-1{fill:#aecbfa}.cls-2{fill:#669df6}.cls-3{fill:#4285f4}.cls-4{fill:#fff}</style></defs><g data-name="Product Icons"><path d="M2 4h20v7H2z" class="cls-1"/><path d="M20 4h2v7h-2z" class="cls-2"/><path d="M22 4h-2v7z" class="cls-3"/><path d="M2 4h2v7H2z" class="cls-2"/><path d="M6 7h6v1H6z" class="cls-4"/><rect width="3" height="3" x="15" y="6" class="cls-4" rx="1.5"/><path d="M2 13h20v7H2z" class="cls-1"/><path d="M20 13h2v7h-2z" class="cls-2"/><path d="M22 13h-2v7z" class="cls-3"/><path d="M2 13h2v7H2z" class="cls-2"/><path d="M6 16h6v1H6z" class="cls-4"/><rect width="3" height="3" x="15" y="15" class="cls-4" rx="1.5"/></g></svg>