<svg xmlns="http://www.w3.org/2000/svg" width="60" height="60"><g fill="none" fill-rule="evenodd"><path fill="#AA81F3" d="M0 0h60v60H0z"/><path fill="#FFF" d="M32.55 32.066c.482.454 1.207 1.066 2.145 1.811.938.721 2.169 1.545 3.643 2.188.75.29 1.553.533 2.412.557.427 0 .86 0 1.261-.133.213-.024.402-.133.591-.212.189-.11.378-.188.56-.321.348-.243.695-.534.963-.903.268-.37.512-.77.725-1.224.378-.903.615-1.92.67-2.981a8.7 8.7 0 0 0-.426-3.2c-.348-1.011-.908-1.945-1.712-2.532-.774-.558-1.767-.77-2.839-.612-.536.109-1.096.242-1.632.478-.269.11-.537.243-.829.376-.268.158-.536.29-.804.454-1.072.643-2.114 1.436-3.107 2.29-.481.455-.993.88-1.444 1.358-.243.242-.48.455-.694.721l-.725.745a40 40 0 0 1-3.083 2.933c-1.096.933-2.247 1.788-3.533 2.533-1.26.721-2.68 1.333-4.258 1.545a6.7 6.7 0 0 1-2.437-.109 5.7 5.7 0 0 1-2.223-1.066 6.4 6.4 0 0 1-1.53-1.758 8 8 0 0 1-.858-2 10.7 10.7 0 0 1-.348-2.023 9.7 9.7 0 0 1 .025-1.97 9.9 9.9 0 0 1 1.06-3.635 7 7 0 0 1 1.072-1.52 5.3 5.3 0 0 1 1.42-1.146c.535-.29 1.096-.509 1.662-.588.56-.103 1.121-.072 1.657-.024 1.042.133 1.956.51 2.73.903 1.553.854 2.68 1.836 3.563 2.69.86.855 1.475 1.6 1.901 2.103l.615.77-.725-.667c-.48-.455-1.206-1.067-2.144-1.788-.938-.72-2.169-1.545-3.643-2.187-.75-.29-1.553-.533-2.412-.557-.829-.025-1.688.157-2.382.666-.347.242-.695.533-.963.903s-.536.77-.725 1.224a7.9 7.9 0 0 0-.67 3.011 8.7 8.7 0 0 0 .427 3.2c.347 1.011.907 1.945 1.711 2.502.774.557 1.767.77 2.84.588.133 0 .267-.055.401-.079s.268-.055.402-.109l.402-.133.403-.158c.134-.054.268-.109.402-.188l.402-.188c.268-.157.536-.29.804-.454 1.072-.642 2.114-1.436 3.107-2.29.993-.879 1.9-1.758 2.893-2.8l.725-.745c.244-.267.512-.51.75-.745a25 25 0 0 1 1.577-1.436c1.097-.934 2.248-1.788 3.534-2.533 1.26-.721 2.68-1.333 4.258-1.545a6.8 6.8 0 0 1 2.436.133 5.6 5.6 0 0 1 2.2 1.09c.645.51 1.127 1.122 1.529 1.758a8 8 0 0 1 .859 2c.188.666.292 1.357.347 2.023a9.7 9.7 0 0 1-.025 1.97c-.134 1.278-.48 2.532-1.041 3.623a7 7 0 0 1-1.072 1.52 5 5 0 0 1-1.444 1.146 5 5 0 0 1-.829.376c-.292.078-.56.187-.859.212-.56.109-1.127.079-1.663.024-1.041-.158-1.955-.533-2.729-.933-1.553-.855-2.68-1.866-3.564-2.715-.859-.854-1.474-1.6-1.9-2.102l-.615-.77c.079-.012.804.655.804.655"/></g></svg>