<?xml version="1.0" encoding="UTF-8"?>
<svg data-name="Capa 2" viewBox="0 0 346.42 400" xmlns="http://www.w3.org/2000/svg">
<defs>
<style>.cls-1 {
        fill: #9e0d38;
      }

      .cls-2 {
        fill: #dc244c;
      }

      .cls-3 {
        fill: #ff516b;
      }</style>
</defs>
<polygon class="cls-2" points="173.21 0 0 100 0 300 173.21 400 238.16 362.5 238.16 287.5 173.21 325 64.96 262.5 64.96 137.5 173.21 75 281.46 137.5 281.46 387.5 346.42 350 346.42 100"/>
<polygon class="cls-2" points="108.26 162.5 108.26 237.5 173.21 275 238.16 237.5 238.16 162.5 173.21 125"/>
<polygon class="cls-1" points="238.16 287.5 238.16 362.5 173.21 400 173.21 325"/>
<polygon class="cls-1" points="346.42 100 346.42 350 281.46 387.5 281.46 137.5"/>
<polygon class="cls-3" points="346.42 100 281.46 137.5 173.21 75 64.96 137.5 0 100 173.21 0"/>
<polygon class="cls-2" points="173.21 325 173.21 400 0 300 0 100 64.96 137.5 64.96 262.5"/>
<polygon class="cls-3" points="238.16 162.5 173.21 200 108.26 162.5 173.21 125"/>
<polygon class="cls-2" points="173.21 200 173.21 275 108.26 237.5 108.26 162.5"/>
<polygon class="cls-1" points="238.16 162.5 238.16 237.5 173.21 275 173.21 200"/>
</svg>
