<svg class="e-bolt-icon e-bolt-icon--small" xmlns="http://www.w3.org/2000/svg" viewBox="0 0 32 32" aria-hidden="true"><path fill="#001F5F" d="M31.97 1.94A2 2 0 0030.06.03C26.69-.13 18.31.06 13.1 5.27a28.025 28.025 0 00-3.16 3.78c-1.98-.18-4.66 1.11-6.74 2.87C1.31 13.5.31 14.93.03 16.4c-.14.72.17 1.42.79 1.83.35.23.75.35 1.16.35.43 0 .87-.13 1.26-.38.8-.53 2.14-1.26 4.01-1.76.02 0 .04-.01.07-.02.15.34.35.65.62.92l6.74 6.74c.27.27.58.47.92.62 0 .02-.01.04-.02.07-.5 1.87-1.24 3.21-1.76 4-.5.75-.51 1.7-.04 2.42.35.52.9.82 1.49.82.11 0 .22-.01.34-.03 1.47-.28 2.9-1.28 4.48-3.16 1.75-2.09 3.05-4.76 2.87-6.74 1.31-.92 2.59-1.98 3.78-3.16 5.21-5.21 5.4-13.59 5.24-16.96l-.01-.02zM2.13 16.52s-.06.03-.09.04c.25-.93 1.05-1.95 2.44-3.12 1.49-1.25 2.99-1.98 4.12-2.27-.55.99-1.02 1.99-1.38 2.98-.03.08-.04.15-.06.23-.14.03-.28.07-.43.1-1.68.45-3.27 1.15-4.59 2.03l-.01.01zm16.42 11c-1.17 1.39-2.19 2.19-3.12 2.44 0-.03.02-.06.04-.09.88-1.32 1.58-2.91 2.03-4.59.04-.14.07-.29.1-.43.08-.02.15-.03.23-.06.99-.36 1.99-.83 2.98-1.38-.29 1.12-1.01 2.63-2.26 4.12v-.01zm-1.39-4.62c-.37.13-.79.04-1.07-.25l-6.74-6.74c-.28-.28-.38-.71-.25-1.07 1-2.77 2.92-5.66 5.41-8.15 4.11-4.11 10.79-4.68 14.13-4.68.54 0 .99.02 1.33.03.12 2.42.12 10.67-4.66 15.45-2.49 2.49-5.39 4.41-8.15 5.41z"></path><path fill="#001F5F" d="M4.48 22.52c-1.26 1.26-2.63 4.53-1.08 6.08.49.49 1.16.69 1.88.69 1.55 0 3.34-.91 4.2-1.77a3.549 3.549 0 000-5.01 3.549 3.549 0 00-5.01 0l.01.01zm3.59 3.59c-.87.87-2.88 1.45-3.26 1.08-.37-.37.21-2.38 1.08-3.26a1.545 1.545 0 012.18 0c.6.6.6 1.58 0 2.18zM19.2 7.07c-.76.76-1.19 1.78-1.19 2.86 0 1.08.42 2.1 1.19 2.86a4.13 4.13 0 002.86 1.18c1.03 0 2.07-.39 2.86-1.18a4.056 4.056 0 000-5.73c-1.58-1.58-4.15-1.58-5.72 0v.01zm4.31 4.31a2.052 2.052 0 01-3.5-1.45c0-.55.21-1.06.6-1.45.4-.4.92-.6 1.45-.6a2.052 2.052 0 011.45 3.5z"></path></svg>