<svg height="64" width="64" xmlns="http://www.w3.org/2000/svg"><path d="M54.579 12.268L34.204.643a4.781 4.781 0 00-4.5 0L9.329 12.268c-1.375.75-2.25 2.25-2.25 3.875v23.75c0 1.625.875 3.125 2.25 3.875l35.125 20.25V49.643l10.125-5.875c1.375-.75 2.25-2.25 2.25-3.875v-23.75c.125-1.625-.875-3.125-2.25-3.875zm-25.75 26.125c0 2.375-1.875 4.25-4.25 4.25s-4.25-1.875-4.25-4.25 1.875-4.25 4.25-4.25c1.125 0 2 .375 2.75 1l7.5-4.25c.375.875.875 1.75 1.375 2.5l-7.5 4.25c.125.25.125.5.125.75zm13-5.625a4.215 4.215 0 01-4.25-4.25c0-.25 0-.5.125-.75l-10.25-5.875c-.75.625-1.75 1-2.75 1-2.375 0-4.25-1.875-4.25-4.25s1.875-4.25 4.25-4.25 4.25 1.875 4.25 4.25c0 .25 0 .5-.125.75l10.25 5.875c.75-.625 1.75-1.125 2.875-1.125a4.215 4.215 0 014.25 4.25c-.125 2.375-2 4.375-4.375 4.375z" fill="#042b48"/></svg>