<?xml version="1.0" encoding="UTF-8" standalone="no"?>
<svg
   width="63.203667mm"
   height="63.203667mm"
   viewBox="0 0 63.203667 63.203667"
   version="1.1"
   id="svg275"
   xmlns="http://www.w3.org/2000/svg"
   xmlns:svg="http://www.w3.org/2000/svg">
  <defs
     id="defs272" />
  <g
     id="layer1"
     transform="translate(-8.631536,-7.3951732)">
    <path
       class="cls-1"
       d="M 40.233369,7.3951732 A 31.601833,31.601833 0 1 0 71.835202,38.997006 31.601833,31.601833 0 0 0 40.233369,7.3951732 Z M 53.875285,62.478777 V 24.698923 H 48.96991 v 40.065853 a 30.588479,30.588479 0 0 1 -6.048374,1.264709 V 43.976464 h -4.92125 V 66.050651 A 23.002875,23.002875 0 0 1 31.197848,64.598089 V 24.698923 h -5.291666 v 37.502041 c -7.559146,-4.7625 -12.940771,-13.377333 -12.940771,-23.203958 0,-15.004521 12.210521,-27.167416 27.215041,-27.167416 a 27.183291,27.183291 0 0 1 27.188583,27.167416 c 0,10.025062 -5.55625,18.774833 -13.49375,23.481771 z"
       id="path256"
       style="fill-rule:evenodd;stroke-width:0.264583" />
  </g>
</svg>
