<svg xmlns="http://www.w3.org/2000/svg" viewBox="0 0 448.7 500"><path fill="#0B5E9F" d="M428.2 221.9L49.2 6.5C33-2.6 18.5-1.7 9.7 6.8 3.4 12.8 0 22.4 0 34.9v429.9C0 477.4 3.7 487 9.7 493c9.1 8.8 23.3 9.7 39.5.3l379.1-215.4c27.2-15.4 27.2-40.4-.1-56z"/><linearGradient id="a" gradientUnits="userSpaceOnUse" x1="223.168" y1="7682.241" x2="223.168" y2="8182.269" gradientTransform="matrix(.9998 0 0 -.9998 1.213 8180.705)"><stop offset="0" stop-color="#fff" stop-opacity="0"/><stop offset="1" stop-color="#fff" stop-opacity=".1"/></linearGradient><path fill-rule="evenodd" clip-rule="evenodd" fill="url(#a)" d="M428.3 221.9l-95-54-1.7-1.1-.1.1L49.2 6.6c-15.7-9-29.9-8.3-38.9-.2L8.8 7.7C3.2 13.7 0 23 0 35.1v429.7c0 12.1 3.2 21.4 9.1 27.2l-.2.2c8.9 9.5 23.7 10.6 40.4 1.3L331.5 333l.1.1s1.7-1.1 1.8-1.1l95-54c27.1-15.5 27.1-40.8-.1-56.1z"/><path opacity=".25" fill-rule="evenodd" clip-rule="evenodd" fill="#FFF" d="M49.2 9.4l379 215.3c12.3 6.9 19.2 16 20.3 25.3 0-10.1-6.7-20.3-20.3-28.1L49.2 6.6C22-9 0 4 0 35.1v2.8C0 6.8 22-5.9 49.2 9.4z"/><path fill="#40DCFF" d="M358.2 70.2H135.9V444l242.9-138V90.9c0-11.4-9.2-20.7-20.6-20.7z"/><linearGradient id="b" gradientUnits="userSpaceOnUse" x1="7121.753" y1="-324.192" x2="7123.592" y2="-327.498" gradientTransform="matrix(38.316 0 0 -36.19 -272599.25 -11433.2)"><stop offset="0" stop-color="#5b7c8c" stop-opacity="0"/><stop offset="1" stop-color="#5b7c8c" stop-opacity=".4"/></linearGradient><path fill="url(#b)" d="M358.2 70.2H135.9v373.6l242.9-137.9v-215c0-11.4-9.2-20.7-20.6-20.7z"/><path fill="#009BF0" d="M135.9 70.2H70.3v411l65.6-37.2z"/><path opacity=".15" fill="#FFF" d="M358.2 70.2H70.3v2.3h287.9c11.4 0 20.7 6.9 20.7 18.3-.1-11.3-9.3-20.6-20.7-20.6z"/><path fill="#FAFAFA" d="M261.1 173.3l33.8-20.9 35 20.9V70.2h-68.8z"/></svg>