<svg xmlns="http://www.w3.org/2000/svg" xmlns:xlink="http://www.w3.org/1999/xlink" viewBox="0 0 81 73" fill="#fff" fill-rule="evenodd" stroke="#000" stroke-linecap="round" stroke-linejoin="round"><use xlink:href="#a" x=".5" y=".5"/><symbol id="a" overflow="visible"><g stroke="none" fill-rule="nonzero"><path d="M6.048 61.26l3.528 6.094c.733 1.283 1.787 2.291 3.024 3.024l12.6-21.81H0a8.3 8.3 0 001.1 4.124z" fill="#0066da"/><path d="M40 22.91L27.4 1.1c-1.237.733-2.291 1.741-3.024 3.024L1.1 44.445A8.298 8.298 0 000 48.568h25.2z" fill="#00ac47"/><path d="M67.4 70.378c1.237-.733 2.291-1.741 3.024-3.024l1.466-2.52 7.01-12.142a8.3 8.3 0 001.1-4.124H54.798l5.363 10.538z" fill="#ea4335"/><path d="M40 22.91L52.6 1.1C51.363.367 49.943 0 48.477 0H31.524c-1.466 0-2.887.412-4.124 1.1z" fill="#00832d"/><path d="M54.799 48.568H25.2l-12.6 21.81c1.237.733 2.657 1.1 4.124 1.1h46.552c1.466 0 2.887-.412 4.124-1.1z" fill="#2684fc"/><path d="M67.262 24.284L55.624 4.124C54.891 2.841 53.837 1.833 52.6 1.1L40 22.91l14.8 25.659h25.155a8.3 8.3 0 00-1.1-4.124z" fill="#ffba00"/></g></symbol></svg>