<svg xmlns="http://www.w3.org/2000/svg" xmlns:xlink="http://www.w3.org/1999/xlink" fill="#fff" fill-rule="evenodd" stroke="#000" stroke-linecap="round" stroke-linejoin="round" viewBox="0 0 81 73"><use xlink:href="#a" x=".5" y=".5"/><symbol id="a" overflow="visible"><g fill-rule="nonzero" stroke="none"><path fill="#0066da" d="m6.048 61.26 3.528 6.094c.733 1.283 1.787 2.291 3.024 3.024l12.6-21.81H0a8.3 8.3 0 0 0 1.1 4.124z"/><path fill="#00ac47" d="M40 22.91 27.4 1.1c-1.237.733-2.291 1.741-3.024 3.024L1.1 44.445A8.3 8.3 0 0 0 0 48.568h25.2z"/><path fill="#ea4335" d="M67.4 70.378c1.237-.733 2.291-1.741 3.024-3.024l1.466-2.52 7.01-12.142a8.3 8.3 0 0 0 1.1-4.124H54.798l5.363 10.538z"/><path fill="#00832d" d="M40 22.91 52.6 1.1C51.363.367 49.943 0 48.477 0H31.524c-1.466 0-2.887.412-4.124 1.1z"/><path fill="#2684fc" d="M54.799 48.568H25.2l-12.6 21.81c1.237.733 2.657 1.1 4.124 1.1h46.552c1.466 0 2.887-.412 4.124-1.1z"/><path fill="#ffba00" d="M67.262 24.284 55.624 4.124C54.891 2.841 53.837 1.833 52.6 1.1L40 22.91l14.8 25.659h25.155a8.3 8.3 0 0 0-1.1-4.124z"/></g></symbol></svg>