<svg xmlns:svg="http://www.w3.org/2000/svg" xmlns="http://www.w3.org/2000/svg" version="1.1" width="1024" height="181" viewBox="-0.75297957 -0.75297957 150.77693914 26.60527814" id="svg4349">
  <defs id="defs4351"/>
  <path d="M 2.47119,0 5.75339,5.49614 0,10.98341 l 9.94703,0 0.93496,-2.19922 -5.48835,0 3.32098,-3.30263 -1.93983,-3.28298 9.05021,0 -7.94492,18.76756 2.72225,0 L 19.48602,0 2.47119,0" id="Fill-1" style="fill:#00cdff;fill-opacity:1;stroke:none"/>
  <path d="m 132.6483,17.93492 c -1.7536,-0.23717 -2.78517,-0.5758 -2.78517,-1.72551 0,-1.04824 1.03157,-1.69063 2.30466,-1.69063 1.0303,0 2.33771,0.40648 3.16208,1.01526 l 1.10085,-1.62468 c -1.03157,-0.84532 -2.68157,-1.28414 -4.22924,-1.28414 -2.64725,0 -4.60678,1.58917 -4.60678,3.68565 0,2.40152 1.54703,3.17898 4.15932,3.58483 1.47903,0.23717 2.75148,0.40586 2.75148,1.65703 0,1.04824 -1.03156,1.62405 -2.40699,1.62405 -1.3411,0 -2.54428,-0.37225 -3.71377,-1.28605 l -0.99597,1.79336 c 0.85868,0.77747 2.64597,1.38625 4.6411,1.38625 2.75021,0 4.74407,-1.58981 4.74407,-3.71991 0,-2.57019 -2.0625,-3.14536 -4.12564,-3.41551 m -62.78898,-0.004 c -1.7536,-0.23717 -2.78517,-0.5758 -2.78517,-1.72551 0,-1.04824 1.03157,-1.69063 2.30403,-1.69063 1.03093,0 2.33771,0.40648 3.16207,1.01526 L 73.6411,13.906 c -1.03093,-0.84596 -2.68157,-1.28478 -4.22924,-1.28478 -2.64724,0 -4.60741,1.5898 -4.60741,3.68565 0,2.40215 1.54767,3.17961 4.16123,3.58547 1.47839,0.23653 2.75021,0.40585 2.75021,1.65702 0,1.04825 -1.0322,1.62342 -2.40636,1.62342 -1.3411,0 -2.54491,-0.37225 -3.7144,-1.28542 l -0.99661,1.7921 c 0.85932,0.7781 2.64788,1.38688 4.64173,1.38688 2.75085,0 4.74471,-1.58917 4.74471,-3.7199 0,-2.5702 -2.0625,-3.14474 -4.12564,-3.41552 m 74.1858,5.17337 c -2.20106,0 -3.71313,-1.72551 -3.71313,-4.22785 0,-2.33303 1.30678,-4.32932 3.43792,-4.32932 2.44195,0 3.0947,2.0299 3.16398,3.28171 l -4.22097,0 -0.79068,1.82634 7.31504,0 c 0.0337,-0.47434 0.0337,-0.60878 0.0337,-0.84595 0,-3.44976 -1.75297,-6.18864 -5.53538,-6.18864 -3.26631,0 -5.77627,2.63678 -5.77627,6.25586 0,3.72053 2.40635,6.18863 5.84491,6.18863 2.06377,0 3.88602,-0.74322 4.98623,-2.06224 l -1.37606,-1.31966 c -0.89364,0.9138 -2.0625,1.42112 -3.36928,1.42112 m -41.35107,-9.97703 c -0.72203,-0.30375 -1.51271,-0.37224 -1.96016,-0.37224 -1.27182,0 -2.64725,0.50732 -3.29937,1.42112 l -0.10487,0 0,-1.31966 -2.19979,0 0,12.00566 2.26971,0 0,-6.56024 c 0,-2.53659 1.37478,-3.55059 3.19703,-3.55059 0.61906,0 1.03156,0.0666 1.58199,0.2023 l 0.51546,-1.82635 m -63.16207,-0.0336 c -0.72203,-0.30439 -1.51271,-0.338 -1.96017,-0.338 -1.27246,0 -2.50932,0.50732 -3.16335,1.41922 l -0.10296,0 0,-1.31775 -2.20043,0 0,12.00566 2.26971,0 0,-6.56088 c 0,-2.53659 1.2375,-3.55122 3.05974,-3.55122 0.61907,0 1.03157,0.0679 1.582,0.20293 l 0.51546,-1.85996 m -20.04597,-4.29507 0,2.16497 5.08856,0 0,13.89859 2.40762,0 0,-13.89859 5.08856,0 0,-2.16497 -12.58474,0 m 28.05699,11.43112 c 0,1.79146 -1.47839,2.9418 -3.54153,2.9418 -1.2375,0 -2.30339,-0.57453 -2.30339,-1.99566 0,-1.31775 1.10021,-2.19731 2.78517,-2.19731 1.51271,0 2.50996,0.27014 3.05975,0.676 l 0,0.57517 0,0 z m -3.19767,-7.60976 c -1.34047,0 -2.61293,0.2023 -3.57521,0.57454 l 0.37817,1.82761 c 1.10022,-0.33864 1.99386,-0.47434 2.88814,-0.47434 1.92521,0 3.50657,0.87956 3.50657,2.84097 l 0,0.338 c -0.61843,-0.2359 -1.58136,-0.54092 -2.9911,-0.54092 -3.09471,0 -5.12288,1.55556 -5.12288,4.09214 0,2.63805 1.99385,3.82137 4.2286,3.82137 1.8572,0 3.12902,-0.74322 3.78305,-1.62342 l 0.10233,0 0,1.38752 2.20106,0 0,-7.5083 c 0,-3.2798 -2.13178,-4.73517 -5.39873,-4.73517 l 0,0 z m 13.95953,0 c -1.51271,0 -2.88813,0.57581 -3.57584,1.75912 l -0.10234,0 0,-1.52195 -2.20105,0 0,12.00503 2.26906,0 0,-6.49176 c 0,-2.3679 1.20382,-3.78902 3.09534,-3.78902 1.78665,0 2.85318,0.94678 2.85318,3.14473 l 0,7.13605 2.26907,0 0,-7.54127 c 0,-3.04327 -1.78729,-4.70093 -4.60742,-4.70093 m 20.45848,0 c 0,-1.4877 0.72203,-2.33366 2.09745,-2.33366 0.51611,0 1.34111,0.13571 1.9945,0.37288 L 83.57669,9.00151 C 82.68305,8.56205 81.61716,8.39273 80.79216,8.39273 c -2.30402,0 -4.29788,1.14971 -4.29788,4.22722 l 0,0.37225 -1.51271,0 0,1.89419 1.51271,0 0,9.97576 2.26907,0 0,-9.97576 2.30339,0 0.79131,-1.89419 -3.0947,0 0,-0.37225 m 8.97394,10.48434 c -2.20043,0 -3.71314,-1.72551 -3.71314,-4.22785 0,-2.33302 1.30615,-4.32932 3.43856,-4.32932 2.44132,0 3.0947,2.02991 3.16335,3.28171 l -4.22034,0 -0.79004,1.82634 7.31377,0 c 0.0337,-0.47434 0.0337,-0.60878 0.0337,-0.84595 0,-3.44976 -1.75297,-6.18863 -5.53538,-6.18863 -3.26632,0 -5.77564,2.63678 -5.77564,6.25585 0,3.72054 2.40572,6.18863 5.84428,6.18863 2.06377,0 3.88538,-0.74322 4.98623,-2.06224 l -1.37543,-1.31966 c -0.89364,0.91381 -2.06313,1.42112 -3.36991,1.42112 m 31.56419,-14.3057 -2.82013,12.47873 -0.10233,0 -2.92246,-8.41956 -2.02881,0 -3.33559,8.41956 -0.10297,0 -2.23474,-12.47873 -2.44132,0 3.05911,16.06356 2.26971,0 3.6108,-8.89391 0.10233,0 3.1303,8.89391 2.26843,0 3.88538,-16.06356 -2.33771,0 m 3.78242,-6.4e-4 2.475,0 0,2.43512 -2.475,0 0,-2.43512 z m 0.10296,4.05854 2.26843,0 0,12.00566 -2.26843,0 0,-12.00566 z" id="Fill-14" style="fill:#22314c;fill-opacity:1;stroke:none"/>
</svg>
