<svg width="512" height="512" viewBox="0 0 512 512" fill="none" xmlns="http://www.w3.org/2000/svg">
<rect y="86" width="512" height="140" rx="28" fill="#54B8C9"/>
<path fill-rule="evenodd" clip-rule="evenodd" d="M66 290C66 287.791 64.2091 286 62 286H28C12.536 286 0 298.536 0 314V338C0 340.209 1.79086 342 4 342H28C30.2091 342 32 340.209 32 338V318H62C64.2091 318 66 316.209 66 314V290ZM4 370C1.79086 370 0 371.791 0 374V398C0 413.464 12.536 426 28 426H62C64.2091 426 66 424.209 66 422V398C66 395.791 64.2091 394 62 394H36C33.7909 394 32 392.209 32 390V374C32 371.791 30.2091 370 28 370H4ZM108 286C105.791 286 104 287.791 104 290V314C104 316.209 105.791 318 108 318H176C178.209 318 180 316.209 180 314V290C180 287.791 178.209 286 176 286H108ZM222 286C219.791 286 218 287.791 218 290V314C218 316.209 219.791 318 222 318H290C292.209 318 294 316.209 294 314V290C294 287.791 292.209 286 290 286H222ZM336 286C333.791 286 332 287.791 332 290V314C332 316.209 333.791 318 336 318H404C406.209 318 408 316.209 408 314V290C408 287.791 406.209 286 404 286H336ZM450 286C447.791 286 446 287.791 446 290V314C446 316.209 447.791 318 450 318H480V338C480 340.209 481.791 342 484 342H508C510.209 342 512 340.209 512 338V314C512 298.536 499.464 286 484 286H450ZM512 374C512 371.791 510.209 370 508 370H484C481.791 370 480 371.791 480 374V394H450C447.791 394 446 395.791 446 398V422C446 424.209 447.791 426 450 426H484C499.464 426 512 413.464 512 398V374ZM404 426C406.209 426 408 424.209 408 422V398C408 395.791 406.209 394 404 394H336C333.791 394 332 395.791 332 398V422C332 424.209 333.791 426 336 426H404ZM290 426C292.209 426 294 424.209 294 422V398C294 395.791 292.209 394 290 394H222C219.791 394 218 395.791 218 398V422C218 424.209 219.791 426 222 426H290ZM176 426C178.209 426 180 424.209 180 422V398C180 395.791 178.209 394 176 394H108C105.791 394 104 395.791 104 398V422C104 424.209 105.791 426 108 426H176Z" fill="#54B8C9"/>
</svg>
