<svg xmlns="http://www.w3.org/2000/svg" width="512" height="512" fill="none"><g fill="#54B8C9" clip-path="url(#a)"><path d="M134.097 111h38.829v32.508H138.16v34.635h-32.508v-38.699c0-15.709 12.735-28.444 28.445-28.444m77.658 32.508V111h77.657v32.508zm116.486 0V111h77.658v32.508zm116.487 0V111h38.829c15.71 0 28.445 12.735 28.445 28.444v38.699h-32.508v-34.635zm34.766 73.238h32.508v38.698c0 15.71-12.735 28.445-28.445 28.445h-38.829v-32.508h34.766zM0 244.537C0 229.329 12.735 217 28.444 217h349.461c15.709 0 28.444 12.329 28.444 27.537v129.815c0 15.208-12.735 27.537-28.444 27.537H28.445C12.734 401.889 0 389.56 0 374.352z"/></g><defs><clipPath id="a"><path fill="#fff" d="M0 0h512v512H0z"/></clipPath></defs></svg>