<?xml version="1.0" encoding="utf-8"?>
<!-- Generator: Adobe Illustrator 24.1.1, SVG Export Plug-In . SVG Version: 6.00 Build 0)  -->
<svg version="1.1" id="Layer_1" xmlns="http://www.w3.org/2000/svg" xmlns:xlink="http://www.w3.org/1999/xlink" x="0px" y="0px"
	 viewBox="0 0 500 500" style="enable-background:new 0 0 500 500;" xml:space="preserve">
<style type="text/css">
	.st0{fill:#FFC24A;}
	.st1{fill:#F4BD62;}
	.st2{fill:#F6820C;}
	.st3{fill:#FDE068;}
	.st4{fill:#FCCA3F;}
	.st5{fill:#EEAB37;}
	.st6{fill-rule:evenodd;clip-rule:evenodd;fill:#757575;}
	.st7{fill-rule:evenodd;clip-rule:evenodd;fill:#FFFFFF;}
</style>
<g>
	<path class="st0" d="M94.72,362.11l2.2-3.1l104.5-198.3l0.2-2.1l-46.1-86.6c-3.9-7.3-14.7-5.4-16,2.7L94.72,362.11z"/>
	<path class="st1" d="M235.22,224.11l34.3-35.1l-34.3-65.5c-3.3-6.2-12.4-6.2-15.6,0l-18.3,35v3L235.22,224.11z"/>
	<polygon class="st2" points="94.72,362.11 95.72,361.11 99.32,359.61 233.12,226.41 234.72,221.81 201.42,158.21 	"/>
	<path class="st3" d="M239.52,429.31l121-67.5l-34.6-212.9c-1.1-6.7-9.3-9.3-14-4.5l-217.2,217.7l120.4,67.2
		C222.62,433.61,231.92,433.61,239.52,429.31"/>
	<path class="st4" d="M359.52,361.21l-34.3-211.2c-1.1-6.6-7.9-9.3-12.6-4.6l-216.6,216.3l119,66.5c7.5,4.2,16.7,4.2,24.3,0
		L359.52,361.21z"/>
	<path class="st5" d="M239.52,427.31c-7.6,4.2-16.9,4.2-24.5,0l-119.4-66.2l-1,1l120.4,67.2c7.6,4.2,16.9,4.2,24.5,0l121-67.5
		l-0.3-1.8L239.52,427.31z"/>
	
		<ellipse transform="matrix(0.1598 -0.9872 0.9872 0.1598 -68.6506 614.5333)" class="st6" cx="326.68" cy="347.6" rx="78.7" ry="78.7"/>
	<polygon class="st7" points="291.15,326.23 326.15,308.5 362.1,326.23 362.1,344.21 326.15,326.41 291.15,344.21 	"/>
	<polygon class="st7" points="291.15,356.85 326.15,339.12 362.1,356.85 362.1,374.83 326.15,357.03 291.15,374.83 	"/>
	<polygon class="st7" points="326.23,374.41 336.44,369.65 354.41,377.92 326.23,391.45 	"/>
</g>
</svg>
