<svg width="60" height="60" fill="none" xmlns="http://www.w3.org/2000/svg"><rect width="60" height="60" rx="8" fill="url(#a)"/><path fill-rule="evenodd" clip-rule="evenodd" d="M9.524 25l1.175-7.483L13.753 25h1.41l3.217-7.483L19.555 25h3.524l-2.314-13H17.26l-2.71 6.931L11.818 12H8.313L6 25h3.524zm20.025-4.828l1.59-4.327 1.59 4.327h-3.18zM34.483 25h3.777l-5.187-13h-3.868L24.02 25h3.777l.813-2.259h5.06L34.483 25zm5.331-13v13h3.542V12h-3.542zm6.397 0v13H54v-2.862h-4.247V12H46.21zM13.968 37.539a7.359 7.359 0 00-1.265-.41 5.792 5.792 0 00-1.22-.129c-.727 0-1.423.135-2.086.406a5.447 5.447 0 00-2.947 2.86A5.312 5.312 0 006 42.473c0 .802.152 1.543.456 2.22a5.683 5.683 0 001.21 1.755A5.416 5.416 0 0011.47 48a5.4 5.4 0 001.063-.105 8.472 8.472 0 001.16-.323l.276-.097v-3.206c-.69.738-1.469 1.105-2.333 1.105a2.769 2.769 0 01-2.59-1.74 2.997 2.997 0 01-.216-1.148c0-.406.072-.782.215-1.133.144-.351.337-.652.586-.907.248-.254.544-.453.89-.602.344-.147.72-.221 1.126-.221.92 0 1.693.381 2.32 1.147v-3.231zm4.419-.249H15.68v10.42h2.707v-4.298h3.908v4.298H25V37.29h-2.706v4.022h-3.908V37.29zm14.72 0h-5.924v10.42h5.924v-2.294H29.89v-1.797h3.038v-2.294H29.89v-1.74h3.217V37.29zm9.445.249a7.41 7.41 0 00-1.262-.41A5.857 5.857 0 0040.067 37c-.727 0-1.423.135-2.085.406a5.514 5.514 0 00-1.749 1.133 5.446 5.446 0 00-1.201 1.728 5.341 5.341 0 00-.447 2.203c0 .801.151 1.542.455 2.219a5.684 5.684 0 001.21 1.755 5.42 5.42 0 004.866 1.448c.36-.069.746-.177 1.16-.323l.276-.097V44.27c-.69.738-1.469 1.105-2.333 1.105a2.769 2.769 0 01-2.59-1.74 2.997 2.997 0 01-.216-1.148c0-.406.072-.782.215-1.133.144-.351.337-.652.586-.907.248-.254.544-.453.889-.602.345-.147.72-.221 1.127-.221.92 0 1.693.381 2.32 1.147V37.54h.002zm4.42-.249h-2.707v10.42h2.706v-4.52l3.522 4.519H54l-4.516-5.486 4.13-4.934h-3.342l-3.3 4.298V37.29zM54 29.5H6v3h48v-3z" fill="#fff"/><defs><linearGradient id="a" x1="0" y1="-1" x2="60" y2="60" gradientUnits="userSpaceOnUse"><stop stop-color="#4849C2"/><stop offset="1" stop-color="#2327A5"/></linearGradient></defs></svg>