<svg width="42" height="42" viewBox="0 0 42 42" fill="none" xmlns="http://www.w3.org/2000/svg">
<path d="M13.1688 28.5788C12.1531 27.5068 11.1101 26.9653 10.0681 26.9653C9.78401 26.966 9.50136 27.0048 9.22768 27.0807C7.4752 27.5577 6.0743 29.5255 5.02863 31.6759C4.80241 32.1401 4.59164 32.6171 4.39995 33.0868C3.73862 34.724 3.2011 36.4085 2.79192 38.1262C2.7687 38.2239 2.76794 38.3255 2.78969 38.4236C2.81144 38.5216 2.85513 38.6134 2.91748 38.6921C2.97983 38.7708 3.05922 38.8343 3.14966 38.8779C3.24011 38.9215 3.33927 38.9441 3.43967 38.9438C3.48536 38.9432 3.53093 38.9389 3.57595 38.9311C5.33952 38.5554 7.0691 38.0349 8.74709 37.3748C9.22496 37.1804 9.70464 36.9697 10.1762 36.7389C12.1576 35.7714 13.9437 34.4677 14.4824 32.7988C14.9249 31.4206 14.4834 29.9997 13.1688 28.5788ZM13.2142 32.3945C12.7599 33.8154 10.8303 34.991 8.91334 35.8368C8.43638 36.0466 7.96124 36.2365 7.50881 36.4073C6.29416 36.8543 5.24485 37.1504 4.80786 37.2676L4.35362 37.3903L4.48444 36.936C4.6089 36.5018 4.9187 35.4825 5.37476 34.2969C5.54556 33.8517 5.73816 33.3802 5.9453 32.9051C6.85379 30.86 8.12568 28.7614 9.57927 28.3626C9.73265 28.319 9.89131 28.2967 10.0508 28.2963C10.7231 28.2963 11.4426 28.696 12.1949 29.4882C13.643 31.0526 13.3205 32.0611 13.2142 32.3918V32.3945Z" fill="#4157FF"/>
<path d="M29.9587 8.9519C29.3957 8.9519 28.8454 9.1188 28.3773 9.4316C27.9093 9.7443 27.5444 10.1889 27.329 10.709C27.1136 11.229 27.0572 11.8013 27.167 12.3535C27.2769 12.9056 27.5479 13.4128 27.946 13.8108C28.3441 14.2089 28.8512 14.48 29.4034 14.5898C29.9555 14.6996 30.5278 14.6433 31.0479 14.4278C31.568 14.2124 32.0125 13.8476 32.3253 13.3795C32.638 12.9114 32.805 12.3611 32.805 11.7982C32.8042 11.0435 32.5041 10.32 31.9705 9.7863C31.4369 9.2527 30.7133 8.9526 29.9587 8.9519ZM29.9587 13.3699C29.6476 13.3699 29.3435 13.2776 29.0849 13.1048C28.8262 12.9319 28.6247 12.6863 28.5057 12.3989C28.3867 12.1115 28.3556 11.7952 28.4163 11.4901C28.4771 11.1851 28.627 10.9049 28.847 10.685C29.067 10.4651 29.3473 10.3154 29.6524 10.2548C29.9575 10.1942 30.2738 10.2255 30.5611 10.3446C30.8484 10.4638 31.094 10.6655 31.2667 10.9242C31.4394 11.183 31.5314 11.4871 31.5313 11.7982C31.5305 12.215 31.3646 12.6144 31.0698 12.9091C30.775 13.2037 30.3754 13.3694 29.9587 13.3699Z" fill="#4157FF"/>
<path d="M31.3685 21.8466L31.373 21.7557L31.4375 21.6885C34.4083 18.546 36.4088 15.7378 37.737 13.3022C38.009 12.8031 38.2537 12.3207 38.4711 11.8549C41.1257 6.18229 40.0355 2.82361 39.8338 2.30122C39.7905 2.18662 39.7149 2.08699 39.6163 2.0143C39.5177 1.94161 39.4001 1.89897 39.2778 1.89149C38.9308 1.87151 38.5792 1.8606 38.2321 1.8606C35.6938 1.8606 33.0692 2.41569 30.4128 3.49589C29.9125 3.69939 29.4107 3.92167 28.9074 4.16272C25.9411 5.58539 22.9522 7.65498 20.015 10.3405C19.767 10.5694 19.5226 10.7947 19.2883 11.0237L19.2256 11.0818L19.1411 11.09C10.2914 12.112 6.79557 16.2312 6.6493 16.4029C6.57823 16.4894 6.53103 16.5931 6.51238 16.7035C6.49374 16.814 6.50429 16.9273 6.54301 17.0324C6.58171 17.1374 6.64763 17.2301 6.734 17.3011C6.82037 17.3722 6.92408 17.419 7.0345 17.4367L12.7707 18.3925L12.5309 18.7268C12.2456 19.122 12.0857 19.3627 12.0594 19.4018C11.9778 19.5243 11.9413 19.6714 11.9561 19.8178C11.9708 19.9643 12.0359 20.1011 12.1402 20.2049L15.3681 23.4328C15.4902 23.5547 15.6521 23.6285 15.8242 23.6405C15.9963 23.6525 16.167 23.602 16.3048 23.4982L16.8326 23.0994L13.4158 19.6834L13.5429 19.5081C15.0801 17.3868 21.7385 8.70159 30.3392 4.91405C30.8207 4.70146 31.3103 4.5025 31.8037 4.32353C33.8578 3.57675 36.0063 3.13068 38.2113 3.13068L38.5447 3.13613H38.7536L38.7927 3.34236C38.9871 4.44617 39.1152 6.87189 37.678 10.3968C37.4917 10.8574 37.2782 11.3371 37.0338 11.8341C35.4467 15.0701 32.5822 19.0838 27.5356 23.7353C27.5356 23.7353 25.1953 21.3024 24.1251 20.1831C23.9846 20.0349 23.7913 19.9481 23.5873 19.9415C23.3832 19.9348 23.1847 20.0089 23.0349 20.1477C22.2781 20.8454 21.147 21.892 21.147 21.892C21.1254 21.9125 21.1054 21.9347 21.0871 21.9583V21.9538C21.0644 21.9765 20.5992 22.4825 20.5538 22.7369C20.5542 22.7396 20.5542 22.7423 20.5538 22.7451C20.5343 22.8689 20.5436 22.9957 20.5809 23.1154C20.6183 23.2351 20.6827 23.3446 20.7691 23.4355C21.0353 23.7289 23.1466 25.9393 23.9752 26.7769L23.9952 26.7978C23.4737 27.2248 22.0483 28.3423 22.0483 28.3423C21.4932 27.789 18.1708 24.3149 18.1672 24.2904C18.1445 24.314 17.6802 24.8191 17.6339 25.0735V25.0808C17.6149 25.205 17.6246 25.3319 17.662 25.4519C17.6995 25.5719 17.7638 25.6817 17.8501 25.7731C18.1163 26.0656 20.2276 28.276 21.0553 29.1127L21.564 29.6214C21.6223 29.6814 21.6921 29.729 21.7692 29.7614C21.8463 29.7937 21.9292 29.8101 22.0128 29.8095C22.1517 29.8093 22.2866 29.7637 22.3971 29.6796L22.9286 29.2708L23.3828 28.9183L24.3286 34.7263C24.348 34.8465 24.4016 34.9586 24.4829 35.0493C24.5643 35.14 24.6699 35.2054 24.7874 35.2377C24.8416 35.2537 24.898 35.2617 24.9545 35.2614C25.1464 35.251 25.3264 35.1651 25.4551 35.0224C30.7543 29.6769 31.3685 21.9229 31.3685 21.8466ZM8.49081 16.3901L8.96868 16.0313C10.4059 14.9629 12.9542 13.5202 16.9334 12.7235L17.7175 12.5645L17.166 13.1459C15.9604 14.4251 14.8039 15.7624 13.7346 17.1287L13.6438 17.2478L8.49081 16.3901ZM24.5266 28.0098L25.248 27.4147C25.3264 27.3502 25.3907 27.2701 25.4366 27.1795C25.4826 27.0889 25.5092 26.9898 25.515 26.8884C25.5207 26.787 25.5053 26.6855 25.4698 26.5903C25.4344 26.4951 25.3795 26.4083 25.3088 26.3354C24.265 25.257 22.0964 23.0149 21.9474 22.8613C22.0719 22.7423 22.2263 22.5961 22.4089 22.4244C22.7096 22.1418 23.0867 21.7884 23.5318 21.3905C23.7989 21.6821 27.462 25.4978 27.4738 25.4851L29.5451 23.5945L29.4725 24.2822C29.139 27.3629 26.9732 30.8052 25.7149 32.584L25.3515 33.091L24.5266 28.0098Z" fill="#000D6D"/>
<path d="M19.1122 31.7312L10.0845 22.7035C10.0124 22.6317 9.96825 22.5366 9.95993 22.4352C9.9516 22.3338 9.97968 22.2328 10.0391 22.1502L10.3843 21.6696C10.4206 21.619 10.4675 21.5769 10.5217 21.5462C10.5759 21.5156 10.6362 21.4971 10.6982 21.4921C10.7603 21.4871 10.8227 21.4956 10.8812 21.5172C10.9396 21.5388 10.9926 21.5728 11.0366 21.6169L20.1851 30.7673C20.2283 30.8105 20.2617 30.8624 20.2833 30.9196C20.3048 30.9767 20.3139 31.0378 20.3099 31.0988C20.306 31.1597 20.2891 31.2191 20.2603 31.273C20.2316 31.3269 20.1917 31.3741 20.1433 31.4114L19.6764 31.7666C19.594 31.8301 19.4914 31.8615 19.3876 31.855C19.2838 31.8485 19.1859 31.8045 19.1122 31.7312Z" fill="#4157FF"/>
<path d="M38.9936 13.7249C39.8961 16.0027 40.3586 18.431 40.3564 20.8811C40.3564 31.6222 31.6185 40.3601 20.8746 40.3601C17.5368 40.3644 14.2546 39.505 11.3473 37.8654C11.1444 37.9714 10.94 38.0749 10.734 38.1761C10.437 38.3205 10.1372 38.4586 9.8374 38.5922C13.1451 40.6657 16.9707 41.7638 20.8746 41.7601C32.3871 41.7601 41.7545 32.3953 41.7545 20.8829C41.7578 17.835 41.0887 14.8239 39.7949 12.0642C39.5639 12.6345 39.2963 13.1892 38.9936 13.7249Z" fill="#000D6D"/>
<path d="M29.9621 2.08953C27.1317 0.712534 24.0249 -0.00202569 20.8772 4.31319e-06C9.3666 4.31319e-06 3.51849e-05 9.3638 3.51849e-05 20.8772C-0.0072466 24.8303 1.11588 28.7031 3.237 32.0389C3.36418 31.7555 3.49561 31.4744 3.63128 31.1958C3.73848 30.9729 3.84902 30.7528 3.96288 30.5354C2.2768 27.5974 1.3915 24.2682 1.39548 20.8808C1.39548 10.1442 10.1334 1.4018 20.8745 1.4018C23.3446 1.39895 25.7924 1.8686 28.0861 2.78544C28.6684 2.55196 29.2998 2.31484 29.9621 2.08953Z" fill="#4157FF"/>
</svg>
