<svg viewBox="0 0 24 24" fill="none" xmlns="http://www.w3.org/2000/svg">
<path fill-rule="evenodd" clip-rule="evenodd" d="M20.6076 2.61966C16.8199 2.8166 13.6352 4.20684 11.2248 6.02291C11.1253 6.03889 11.0251 6.05469 10.9242 6.07062L10.9236 6.0707C8.90076 6.38984 6.58232 6.75561 3.52862 9.58675C3.05171 10.0289 3.35405 10.8015 4.00326 10.8396L6.90884 11.0106C6.7611 11.3051 6.63341 11.595 6.52631 11.8776C6.47426 12.015 6.51116 12.1675 6.61504 12.2714L11.7109 17.3672C11.8128 17.4691 11.9615 17.5068 12.0973 17.4584C12.3969 17.3518 12.704 17.2226 13.0158 17.071L13.1451 19.9605C13.1743 20.6097 13.9415 20.9234 14.3905 20.4537C17.202 17.5136 17.5563 15.3159 17.8663 13.3923C17.8944 13.2187 17.922 13.0471 17.951 12.8775C19.7961 10.4583 21.1985 7.23049 21.3654 3.37094C21.3839 2.94458 21.0338 2.59749 20.6076 2.61966ZM16.7343 14.2962C16.2342 14.815 15.7166 15.2808 15.1943 15.6906L13.0989 13.5952C12.9489 13.4452 12.7057 13.4452 12.5557 13.5952L12.0126 14.1384C11.8626 14.2884 11.8626 14.5316 12.0126 14.6816L13.9121 16.5811C13.9113 16.5816 13.9106 16.582 13.9099 16.5824L13.9572 16.6306L14.0802 19.3762C15.3048 18.0108 15.9404 16.8498 16.3124 15.8328C16.5099 15.2926 16.6361 14.7912 16.7343 14.2962ZM14.8641 9.11419C15.4641 9.71415 16.4369 9.71415 17.0369 9.11419C17.6367 8.51424 17.6367 7.54152 17.0369 6.94157C16.4369 6.34161 15.4641 6.34161 14.8641 6.94157C14.2643 7.54152 14.2643 8.51424 14.8641 9.11419Z" fill="#000D6D"/>
<path d="M6.97648 19.9651C7.27802 19.8533 7.56086 19.6761 7.80317 19.4339C8.7031 18.534 8.7031 17.0749 7.80317 16.1749C6.90324 15.275 5.44416 15.275 4.54422 16.1749C4.30192 16.4172 4.12485 16.7 4.01303 17.0016L2.63886 20.8493C2.53145 21.1536 2.82454 21.4466 3.12887 21.3392L6.97648 19.9651Z" fill="#000D6D"/>
</svg>
