<svg xmlns="http://www.w3.org/2000/svg" width="42" height="43" fill="none"><path fill="#4157FF" d="M13.169 29.314c-1.016-1.072-2.059-1.613-3.101-1.613-.284 0-.567.04-.84.115-1.753.477-3.154 2.445-4.2 4.595a24 24 0 0 0-.628 1.411 35 35 0 0 0-1.608 5.04.664.664 0 0 0 .784.805 33 33 0 0 0 5.171-1.557c.478-.194.958-.405 1.43-.636 1.98-.967 3.767-2.27 4.305-3.94.443-1.378.001-2.799-1.313-4.22m.045 3.816c-.454 1.421-2.384 2.597-4.3 3.442-.478.21-.953.4-1.405.57a33 33 0 0 1-2.701.861l-.454.123.13-.454a33 33 0 0 1 1.461-4.031c.909-2.045 2.18-4.144 3.634-4.543a1.7 1.7 0 0 1 .472-.066c.672 0 1.392.4 2.144 1.192 1.448 1.564 1.125 2.573 1.02 2.903zM29.959 9.688a2.846 2.846 0 1 0 0 5.692 2.846 2.846 0 0 0 0-5.693m0 4.417a1.573 1.573 0 1 1 0-3.146 1.573 1.573 0 0 1 0 3.146"/><path fill="#090F47" d="m31.369 22.582.004-.09.064-.068c2.971-3.142 4.972-5.95 6.3-8.386q.408-.75.734-1.447c2.655-5.673 1.565-9.032 1.363-9.554a.64.64 0 0 0-.556-.41c-.347-.02-.699-.03-1.046-.03-2.538 0-5.163.554-7.82 1.634q-.75.306-1.505.667c-2.966 1.423-5.955 3.493-8.892 6.178q-.373.341-.727.683l-.062.058-.085.009c-8.85 1.022-12.345 5.14-12.492 5.312a.64.64 0 0 0 .085.899.63.63 0 0 0 .3.135l5.737.956-.24.334c-.285.396-.445.636-.472.675a.635.635 0 0 0 .081.803l3.228 3.228a.72.72 0 0 0 .937.066l.528-.4-3.417-3.415.127-.175C15.08 18.122 21.739 9.437 30.339 5.65q.723-.321 1.465-.59c2.054-.748 4.202-1.194 6.407-1.194l.334.006h.209l.039.206c.194 1.104.322 3.53-1.115 7.054q-.278.691-.644 1.438c-1.587 3.236-4.452 7.25-9.498 11.9 0 0-2.34-2.432-3.41-3.551a.776.776 0 0 0-1.091-.036c-.757.698-1.888 1.745-1.888 1.745l-.06.066v-.005c-.023.023-.488.53-.533.784v.008a.82.82 0 0 0 .215.69c.266.294 2.378 2.504 3.206 3.342l.02.02c-.521.427-1.947 1.545-1.947 1.545-.555-.553-3.877-4.027-3.88-4.052-.023.024-.488.529-.534.783v.007a.83.83 0 0 0 .216.693c.266.292 2.378 2.503 3.205 3.34l.509.508a.62.62 0 0 0 .449.188.64.64 0 0 0 .384-.13l.532-.409.454-.352.946 5.808a.636.636 0 0 0 .625.535.73.73 0 0 0 .501-.239c5.3-5.346 5.914-13.1 5.914-13.176M8.49 17.126l.478-.36c1.437-1.067 3.985-2.51 7.964-3.307l.785-.159-.552.582a58 58 0 0 0-3.431 3.982l-.091.12zm16.036 11.62.721-.596a.735.735 0 0 0 .06-1.079l-3.36-3.474a79 79 0 0 1 1.584-1.47c.267.29 3.93 4.106 3.942 4.094l2.071-1.89-.073.687c-.333 3.08-2.499 6.523-3.757 8.302l-.363.507z"/><path fill="#4157FF" d="m19.112 32.467-9.027-9.028a.43.43 0 0 1-.046-.553l.345-.48a.428.428 0 0 1 .653-.053l9.148 9.15a.43.43 0 0 1-.042.644l-.467.355a.43.43 0 0 1-.564-.035"/><path fill="#090F47" d="M38.994 14.46a19.4 19.4 0 0 1 1.362 7.156c0 10.742-8.737 19.48-19.481 19.48a19.35 19.35 0 0 1-9.528-2.495q-.304.16-.613.31-.446.217-.897.417a20.74 20.74 0 0 0 11.038 3.167c11.512 0 20.88-9.364 20.88-20.877a20.7 20.7 0 0 0-1.96-8.818q-.347.856-.801 1.66"/><path fill="#4157FF" d="M29.962 2.825a20.7 20.7 0 0 0-9.085-2.09C9.367.736 0 10.1 0 21.614a20.73 20.73 0 0 0 3.237 11.162 30 30 0 0 1 .726-1.504 19.35 19.35 0 0 1-2.568-9.655c0-10.736 8.738-19.479 19.48-19.479a19.4 19.4 0 0 1 7.211 1.384 38 38 0 0 1 1.876-.696"/></svg>