<?xml version="1.0" encoding="utf-8"?>
<svg version="1.1" id="Layer_1" xmlns="http://www.w3.org/2000/svg" xmlns:xlink="http://www.w3.org/1999/xlink" x="0px" y="0px"
	 viewBox="5 5 55 55" style="enable-background:new 0 0 40 40;" xml:space="preserve">
<style type="text/css">
	.st0{display:none;fill:#FF6D5A;}
	.st1{fill:#FF6D5A;}
</style>
<path class="st0" d="M50.41,30.55v-1c0-0.55-0.45-1-1-1h-17.5v-2.5h4.5c1.1,0,2-0.9,2-2v-8c0-1.1-0.9-2-2-2h-12c-1.1,0-2,0.9-2,2v8
	c0,1.1,0.9,2,2,2h4.5v2.5h-17.5c-0.55,0-1,0.45-1,1v1c0,0.55,0.45,1,1,1h6.5v2.5h-3.5c-1.1,0-2,0.9-2,2v8c0,1.1,0.9,2,2,2h10
	c1.1,0,2-0.9,2-2v-8c0-1.1-0.9-2-2-2h-3.5v-2.5h19v2.5h-3.5c-1.1,0-2,0.9-2,2v8c0,1.1,0.9,2,2,2h10c1.1,0,2-0.9,2-2v-8
	c0-1.1-0.9-2-2-2h-3.5v-2.5h6.5C49.96,31.55,50.41,31.1,50.41,30.55z M26.41,22.05v-4h8v4H26.41z M22.41,42.05h-6v-4h6V42.05z
	 M44.41,42.05h-6v-4h6V42.05z"/>
<path class="st1" d="M50.28,17.26c-2.39,0-4.4,1.64-4.97,3.86h-7.15c-2.8,0-5.08,2.28-5.08,5.08c0,1.4-1.14,2.54-2.54,2.54h-1.02
	c-0.57-2.22-2.58-3.86-4.97-3.86c-2.39,0-4.4,1.64-4.97,3.86h-4.08c-0.57-2.22-2.58-3.86-4.97-3.86c-2.83,0-5.13,2.3-5.13,5.13
	s2.3,5.13,5.13,5.13c2.39,0,4.4-1.64,4.97-3.86h4.08c0.57,2.22,2.58,3.86,4.97,3.86c2.37,0,4.37-1.62,4.95-3.81h1.03
	c1.4,0,2.54,1.14,2.54,2.54c0,2.8,2.28,5.09,5.08,5.09h1.66c0.57,2.22,2.58,3.86,4.97,3.86c2.83,0,5.13-2.3,5.13-5.13
	c0-2.83-2.3-5.13-5.13-5.13c-2.39,0-4.4,1.64-4.97,3.86h-1.66c-1.4,0-2.54-1.14-2.54-2.54c0-1.53-0.68-2.9-1.76-3.84
	c1.07-0.93,1.76-2.31,1.76-3.84c0-1.4,1.14-2.54,2.54-2.54h7.15c0.57,2.22,2.58,3.86,4.97,3.86c2.83,0,5.13-2.3,5.13-5.13
	S53.11,17.26,50.28,17.26z M10.54,32.61c-1.43,0-2.59-1.16-2.59-2.59c0-1.43,1.16-2.59,2.59-2.59s2.59,1.16,2.59,2.59
	C13.13,31.45,11.97,32.61,10.54,32.61z M24.56,32.61c-1.43,0-2.59-1.16-2.59-2.59c0-1.43,1.16-2.59,2.59-2.59
	c1.43,0,2.59,1.16,2.59,2.59C27.15,31.45,25.98,32.61,24.56,32.61z M44.8,35.11c1.43,0,2.59,1.16,2.59,2.59
	c0,1.43-1.16,2.59-2.59,2.59c-1.43,0-2.59-1.16-2.59-2.59C42.21,36.27,43.37,35.11,44.8,35.11z M50.28,24.98
	c-1.43,0-2.59-1.16-2.59-2.59c0-1.43,1.16-2.59,2.59-2.59c1.43,0,2.59,1.16,2.59,2.59C52.87,23.82,51.71,24.98,50.28,24.98z"/>
</svg>
