<svg xmlns="http://www.w3.org/2000/svg" viewBox="5 5 55 55"><path d="M50.28 17.26c-2.39 0-4.4 1.64-4.97 3.86h-7.15c-2.8 0-5.08 2.28-5.08 5.08 0 1.4-1.14 2.54-2.54 2.54h-1.02a5.138 5.138 0 00-4.97-3.86c-2.39 0-4.4 1.64-4.97 3.86H15.5a5.138 5.138 0 00-4.97-3.86c-2.83 0-5.13 2.3-5.13 5.13s2.3 5.13 5.13 5.13c2.39 0 4.4-1.64 4.97-3.86h4.08a5.138 5.138 0 004.97 3.86 5.13 5.13 0 004.95-3.81h1.03c1.4 0 2.54 1.14 2.54 2.54 0 2.8 2.28 5.09 5.08 5.09h1.66a5.138 5.138 0 004.97 3.86c2.83 0 5.13-2.3 5.13-5.13s-2.3-5.13-5.13-5.13c-2.39 0-4.4 1.64-4.97 3.86h-1.66c-1.4 0-2.54-1.14-2.54-2.54 0-1.53-.68-2.9-1.76-3.84a5.092 5.092 0 001.76-3.84c0-1.4 1.14-2.54 2.54-2.54h7.15a5.138 5.138 0 004.97 3.86c2.83 0 5.13-2.3 5.13-5.13s-2.29-5.13-5.12-5.13zM10.54 32.61a2.59 2.59 0 11.001-5.181 2.59 2.59 0 01-.001 5.181zm14.02 0a2.59 2.59 0 112.59-2.59c0 1.43-1.17 2.59-2.59 2.59zm20.24 2.5a2.59 2.59 0 11-.001 5.181 2.59 2.59 0 01.001-5.181zm5.48-10.13a2.59 2.59 0 11.001-5.181 2.59 2.59 0 01-.001 5.181z" fill="#ff6d5a"/></svg>