<svg width="60" height="60" viewBox="0 0 60 60" fill="none" xmlns="http://www.w3.org/2000/svg">
<rect width="60" height="60" fill="#3D7FFC"/>
<g clip-path="url(#clip0_6151_2661)">
<path d="M23.6611 22.4726C23.8562 22.8432 23.7586 23.1552 23.6221 23.4868C23.4076 24.0329 23.4661 24.5595 23.8562 25.0081C24.2462 25.4762 24.7923 25.5347 25.358 25.4177C26.1381 25.2422 26.5867 24.501 26.4697 23.6819C26.4112 23.2918 26.1771 22.9017 26.3917 22.4726C26.1966 22.5701 26.1966 22.5701 25.9626 22.9602C25.748 22.7067 25.553 22.4336 25.3189 22.1606C25.1239 21.946 24.9289 21.751 25.0459 21.3999C24.8118 21.5169 24.6948 21.673 24.6168 21.868C24.5583 22.063 24.5193 22.2581 24.4803 22.4531C24.4413 22.6481 24.3438 22.8237 24.1487 22.9407C24.0317 22.7262 23.9147 22.5701 23.6611 22.4726Z" fill="white"/>
<path d="M7.06035 33.8383V24.8425L6 24.6679V23.8349L8.76496 23.4855L9.23474 23.4189V23.7811V26.8384C9.34212 26.7309 9.47634 26.61 9.6374 26.516C9.78505 26.4085 9.95954 26.3144 10.134 26.2338C10.3219 26.1532 10.5098 26.086 10.7246 26.0323C10.9394 25.9785 11.1675 25.9517 11.4091 25.9517C11.8386 25.9517 12.2413 26.0188 12.6171 26.1666C12.9929 26.3144 13.3285 26.5428 13.6104 26.8519C13.8922 27.1743 14.1204 27.5774 14.2949 28.0879C14.456 28.5985 14.5499 29.2031 14.5499 29.942C14.5499 30.5735 14.456 31.1512 14.268 31.7021C14.0801 32.2529 13.7983 32.7097 13.4359 33.1128C13.0735 33.5159 12.6305 33.8249 12.1205 34.0533C11.597 34.2817 11.0199 34.4026 10.3622 34.4026C9.90585 34.4026 9.48976 34.3757 9.10052 34.3354C8.7247 34.2951 8.38914 34.2414 8.10728 34.1742C7.82541 34.107 7.59724 34.0533 7.42275 33.9861C7.24826 33.9189 7.11404 33.8786 7.06035 33.8383ZM10.5098 27.2549C10.2146 27.2549 9.95954 27.3087 9.74478 27.4161C9.53003 27.5236 9.35554 27.6445 9.23474 27.7789V33.0994C9.30185 33.2069 9.42265 33.3009 9.61056 33.3546C9.79847 33.4218 10.0266 33.4487 10.2682 33.4487C10.5904 33.4487 10.8722 33.3681 11.1004 33.1934C11.342 33.0188 11.5299 32.7904 11.691 32.4948C11.8521 32.1992 11.9594 31.8499 12.04 31.4602C12.1205 31.0706 12.1608 30.6407 12.1608 30.1973C12.1608 29.7405 12.1339 29.324 12.0668 28.9478C11.9997 28.585 11.9057 28.276 11.7581 28.0207C11.6239 27.7655 11.4494 27.5774 11.2346 27.443C11.0467 27.3221 10.7917 27.2549 10.5098 27.2549Z" fill="white"/>
<path d="M15.7217 34.163V33.2091L16.7418 33.0747V27.6199L15.7754 27.3243V26.2495L18.1914 25.9002H18.2316L18.6074 26.2092V26.8003L18.594 27.902H18.6209C18.6746 27.7543 18.7819 27.5662 18.9296 27.3378C19.0772 27.1094 19.2651 26.8809 19.4799 26.666C19.6946 26.451 19.9497 26.2629 20.2315 26.1151C20.5134 25.9673 20.8221 25.8867 21.1577 25.8867C21.3053 25.8867 21.4127 25.8867 21.4932 25.9002C21.5737 25.9136 21.6409 25.927 21.6945 25.9405V28.3992C21.6409 28.3589 21.5066 28.3185 21.2919 28.2782C21.0771 28.2379 20.8087 28.2111 20.5134 28.2111C20.3523 28.2111 20.1778 28.2245 20.0168 28.2379C19.8557 28.2514 19.6946 28.2782 19.547 28.3185C19.3994 28.3454 19.2786 28.3857 19.1578 28.426C19.037 28.4663 18.9564 28.5066 18.8893 28.547V33.0613L20.6476 33.2359V34.163H15.7217Z" fill="white"/>
<path d="M23.2 34.2416V33.2876L24.2335 33.1533V27.6985L23.2805 27.3895V26.328L25.8844 25.9787L26.4347 25.9243V26.2877V33.1399L27.4548 33.2876V34.2416H23.2Z" fill="white"/>
<path d="M32.1869 31.6209C31.7839 31.6209 31.4087 31.5929 31.0752 31.537C30.9918 31.6209 30.9223 31.7188 30.8667 31.8307C30.8111 31.9425 30.7833 32.0684 30.7833 32.2223C30.7833 32.3901 30.8111 32.5299 30.8806 32.6418C30.9501 32.7397 31.0474 32.8236 31.1863 32.8796C31.3253 32.9355 31.4921 32.9775 31.7144 32.9915C31.9368 33.0055 32.1869 33.0194 32.4787 33.0194H33.9379C34.994 33.0194 35.7722 33.2013 36.3003 33.5509C36.8145 33.9145 37.0785 34.5019 37.0785 35.3131C37.0785 35.8026 36.9534 36.2641 36.6894 36.6697C36.4393 37.0753 36.0918 37.411 35.6472 37.7047C35.2164 37.9844 34.7022 38.2082 34.1324 38.362C33.5627 38.5158 32.9651 38.5998 32.3398 38.5998H32.3259C31.631 38.5998 31.0474 38.5438 30.561 38.418C30.0746 38.2921 29.6716 38.1242 29.352 37.9145C29.0324 37.7047 28.81 37.4389 28.6572 37.1452C28.5043 36.8515 28.4348 36.5159 28.4348 36.1662C28.4348 35.9425 28.4765 35.7327 28.5599 35.5229C28.6433 35.3271 28.7544 35.1453 28.8934 34.9775C29.0324 34.8096 29.1852 34.6698 29.3798 34.5439C29.5604 34.418 29.755 34.3201 29.9495 34.2502C29.6716 34.0964 29.4493 33.9145 29.2964 33.6908C29.1435 33.467 29.0741 33.2013 29.0741 32.8936C29.0741 32.516 29.1713 32.2083 29.3659 31.9425C29.5604 31.6908 29.8106 31.453 30.1163 31.2572C29.616 31.0335 29.2547 30.7118 29.0185 30.2922C28.7822 29.8727 28.6572 29.3832 28.6572 28.8237C28.6572 28.3762 28.7544 27.9846 28.949 27.621C29.1435 27.2573 29.4215 26.9496 29.755 26.6979C30.1024 26.4461 30.4915 26.2503 30.9501 26.1105C31.4087 25.9706 31.8951 25.9007 32.4092 25.9007H32.4231C33.646 25.9007 34.5493 26.1385 35.1469 26.614C35.2164 26.5301 35.3136 26.4461 35.4248 26.3622C35.536 26.2783 35.6749 26.1944 35.8278 26.1245C35.9807 26.0545 36.1474 25.9986 36.3281 25.9566C36.5087 25.9147 36.7033 25.8867 36.9117 25.8867H37.2592V27.537H35.8139C35.8695 27.6909 35.9112 27.8587 35.939 28.0265C35.9668 28.1944 35.9807 28.3902 35.9807 28.586C35.9807 29.0335 35.8834 29.4391 35.7027 29.8027C35.5221 30.1664 35.258 30.488 34.9245 30.7677C34.591 31.0335 34.188 31.2433 33.7294 31.3971C33.2569 31.5509 32.7567 31.6209 32.1869 31.6209ZM31.8117 34.5998C31.4921 34.5998 31.2002 34.5719 30.9362 34.5299C30.8389 34.6418 30.7417 34.7817 30.6583 34.9495C30.5749 35.1173 30.5332 35.3691 30.5332 35.6628C30.5332 35.9984 30.5749 36.2781 30.6583 36.5019C30.7417 36.7257 30.8806 36.9215 31.0474 37.0613C31.2141 37.2012 31.4365 37.3131 31.6866 37.369C31.9368 37.4389 32.2286 37.4669 32.5621 37.4669H32.576C32.8678 37.4669 33.1597 37.4389 33.4515 37.369C33.7294 37.2991 33.9935 37.2012 34.2158 37.0613C34.4381 36.9215 34.6188 36.7397 34.7439 36.5299C34.8828 36.3201 34.9523 36.0683 34.9523 35.7886C34.9523 35.5788 34.9245 35.383 34.8828 35.2292C34.8412 35.0754 34.7578 34.9495 34.6327 34.8516C34.5076 34.7537 34.3548 34.6838 34.1463 34.6418C33.9379 34.5998 33.6738 34.5719 33.3542 34.5719H31.8117V34.5998ZM32.3676 30.6419C32.6177 30.6419 32.8261 30.5859 32.9929 30.488C33.1597 30.3901 33.2847 30.2503 33.382 30.0824C33.4793 29.9146 33.5349 29.7048 33.5766 29.4671C33.6182 29.2293 33.6321 28.9776 33.6321 28.7258C33.6321 28.0825 33.5349 27.607 33.3264 27.3133C33.118 27.0196 32.7845 26.8797 32.2981 26.8797H32.2842C31.8256 26.8797 31.4921 27.0336 31.2836 27.3273C31.0752 27.621 30.964 28.0545 30.964 28.6559C30.964 28.9496 30.9918 29.2153 31.0335 29.4531C31.0752 29.6908 31.1586 29.9006 31.2558 30.0824C31.367 30.2503 31.506 30.3901 31.6866 30.488C31.8673 30.5859 32.0896 30.6419 32.3676 30.6419Z" fill="white"/>
<path d="M38.0453 34.2416V33.2877L38.9178 33.1399V24.7652L37.8574 24.5905V23.7575L40.609 23.4082L40.7689 23.3813H41.068L41.0922 25.9922L41.068 27.0087C41.1888 26.8878 41.2667 26.8789 41.468 26.7446C41.6693 26.6102 41.8706 26.4893 42.1122 26.3818C42.3538 26.2743 42.6223 26.1803 42.9042 26.0997C43.186 26.0325 43.4947 25.9922 43.8034 25.9922C44.2598 25.9922 44.649 26.0594 44.9443 26.1803C45.2396 26.3012 45.4812 26.5027 45.6691 26.7714C45.857 27.0402 45.9644 27.376 46.0449 27.7791C46.112 28.1822 46.1523 28.6659 46.1523 29.2167V33.1399L47.1456 33.2877V34.2416H43.186V33.3146L43.9779 33.1533V29.2033C43.9779 28.8808 43.9645 28.5987 43.9242 28.3568C43.8974 28.115 43.8303 27.9269 43.7363 27.7657C43.6424 27.6045 43.5216 27.497 43.3605 27.4298C43.1994 27.3626 42.9847 27.3223 42.7297 27.3223C42.582 27.3223 42.4344 27.3357 42.2733 27.376C42.1122 27.4164 41.9646 27.4567 41.8304 27.497C41.6827 27.5507 41.5485 27.6045 41.4277 27.6716C41.3069 27.7388 41.1995 27.806 41.1056 27.8732V33.1533L42.072 33.3011V34.255H38.0453V34.2416Z" fill="white"/>
<path d="M48.722 32.597V27.384H47.7288V26.5779C47.769 26.5644 47.8227 26.551 47.9032 26.5241C47.9838 26.4972 48.0643 26.4569 48.1583 26.4301C48.2388 26.4032 48.3193 26.3629 48.3999 26.336C48.4804 26.3091 48.5207 26.2823 48.5341 26.2688C48.6952 26.1479 48.8562 25.9195 49.0307 25.5836C49.0844 25.4896 49.1247 25.3821 49.1918 25.2477C49.2589 25.1134 49.2992 24.9925 49.3528 24.8581C49.4065 24.7238 49.4602 24.5894 49.5005 24.455C49.5542 24.3207 49.581 24.1998 49.6213 24.0923H50.883L50.9098 26.1882H52.9902V27.3974H50.9098V31.3206C50.9098 31.6968 50.9098 31.9924 50.9232 32.2208C50.9367 32.4492 50.9635 32.6104 51.0038 32.7179C51.044 32.8254 51.1246 32.906 51.2185 32.9329C51.3125 32.9597 51.4467 32.9866 51.6078 32.9866H51.6212C51.7286 32.9866 51.8494 32.9732 51.9836 32.9597C52.1044 32.9463 52.2252 32.9194 52.346 32.8926C52.4668 32.8657 52.5742 32.8388 52.6815 32.8119C52.7889 32.7851 52.8694 32.7582 52.9366 32.7313H52.95L53.2855 33.5643C53.1379 33.6718 52.9768 33.7793 52.7621 33.8868C52.5473 33.9943 52.3326 34.0883 52.0775 34.1824C51.8225 34.2764 51.5675 34.3436 51.2856 34.3973C51.0038 34.4511 50.7353 34.4779 50.4535 34.4779H50.44C50.1313 34.4779 49.8629 34.4376 49.6481 34.357C49.4334 34.2764 49.2455 34.1555 49.1112 33.9943C48.977 33.833 48.8831 33.6449 48.816 33.4031C48.7488 33.1613 48.722 32.906 48.722 32.597Z" fill="white"/>
</g>
<defs>
<clipPath id="clip0_6151_2661">
<rect width="47.8609" height="17.2" fill="white" transform="translate(6 21.3999)"/>
</clipPath>
</defs>
</svg>
