<svg xmlns="http://www.w3.org/2000/svg" xmlns:xlink="http://www.w3.org/1999/xlink" fill="#fff" fill-rule="evenodd" stroke="#000" stroke-linecap="round" stroke-linejoin="round" viewBox="0 0 67 66"><use xlink:href="#a" x="1" y="1"/><symbol id="a" overflow="visible"><g fill-rule="nonzero" stroke="none"><path fill="#0177b5" d="M59.26 0H4.724C2.12 0 0 2.066 0 4.61v54.788c0 2.53 2.12 4.6 4.724 4.6h54.54c2.61 0 4.736-2.07 4.736-4.6V4.61C64 2.066 61.874 0 59.26 0"/><path d="M9.49 23.992H19v30.54H9.49zm4.748-15.2c3.034 0 5.5 2.466 5.5 5.5a5.51 5.51 0 0 1-5.498 5.506 5.52 5.52 0 0 1-5.508-5.506 5.5 5.5 0 0 1 5.506-5.5m10.7 15.2h9.104v4.174h.126c1.268-2.4 4.364-4.932 9-4.932 9.612 0 11.386 6.326 11.386 14.548v16.752h-9.486V39.678c0-3.54-.064-8.1-4.932-8.1-4.94 0-5.7 3.86-5.7 7.84v15.108h-9.484v-30.54z"/></g></symbol></svg>