<svg xmlns="http://www.w3.org/2000/svg" width="97" height="97"><path fill="#F05133" d="M92.71 44.408 52.591 4.291a5.92 5.92 0 0 0-8.369 0l-8.33 8.332L46.459 23.19a7.02 7.02 0 0 1 7.229 1.685 7.03 7.03 0 0 1 1.67 7.275l10.186 10.185a7.03 7.03 0 0 1 7.275 1.671 7.043 7.043 0 0 1-9.961 9.958 7.04 7.04 0 0 1-1.531-7.658l-9.5-9.499v24.997a7.042 7.042 0 1 1-8.096 11.291 7.042 7.042 0 0 1 2.307-11.496v-25.23a7.04 7.04 0 0 1-3.823-9.235L31.798 16.715 4.288 44.222a5.92 5.92 0 0 0 0 8.371l40.121 40.118a5.92 5.92 0 0 0 8.369 0L92.71 52.779a5.92 5.92 0 0 0 0-8.371"/></svg>