<svg width="512" height="512" viewBox="0 0 512 512" fill="none" xmlns="http://www.w3.org/2000/svg">
<path d="M0 36C0 29.3726 5.37258 24 12 24H171.146V188.411C171.146 195.039 176.519 200.411 183.146 200.411H347.558L347.558 279H215C190.699 279 171 298.699 171 323V347C171 371.301 190.699 391 215 391L347.558 391L347.558 476.123C347.558 482.75 342.185 488.123 335.558 488.123H12C5.37258 488.123 0 482.75 0 476.123V36Z" fill="#003355"/>
<path d="M203.146 26C203.146 24.8954 204.042 24 205.146 24H211.953C215.141 24 218.197 25.2682 220.448 27.5248L344.053 151.424C346.297 153.673 347.558 156.721 347.558 159.899L347.558 166.411C347.558 167.516 346.662 168.411 345.558 168.411H209.146C205.833 168.411 203.146 165.725 203.146 162.411V26Z" fill="#003355"/>
<path fill-rule="evenodd" clip-rule="evenodd" d="M381.077 407.982C371.678 417.329 371.636 432.525 380.982 441.923C390.329 451.322 405.525 451.364 414.923 442.018L504.923 352.518C509.453 348.013 512 341.888 512 335.5C512 329.112 509.453 322.987 504.923 318.482L414.923 228.982C405.525 219.636 390.329 219.678 380.982 229.077C371.636 238.475 371.678 253.671 381.077 263.018L429.327 311L215 311C208.373 311 203 316.373 203 323L203 347C203 353.627 208.373 359 215 359L430.333 359L381.077 407.982Z" fill="#003355"/>
</svg>
