<svg width="40" height="40" viewBox="0 0 40 40" fill="none" xmlns="http://www.w3.org/2000/svg">
<path d="M0.9375 2C0.419733 2 0 2.41973 0 2.9375V37.3221C0 37.8399 0.419733 38.2596 0.9375 38.2596H26.2154C26.7332 38.2596 27.1529 37.8399 27.1529 37.3221L27.1529 30.6719L16.7969 30.6719C14.8984 30.6719 13.3594 29.1329 13.3594 27.2344V25.3594C13.3594 23.4609 14.8984 21.9219 16.7969 21.9219H27.1529L27.1529 15.7821H14.3083C13.7906 15.7821 13.3708 15.3624 13.3708 14.8446V2H0.9375Z" fill="#353F6E"/>
<path d="M16.0271 2C15.9408 2 15.8708 2.06996 15.8708 2.15625V12.8134C15.8708 13.0723 16.0807 13.2821 16.3396 13.2821H26.9967C27.083 13.2821 27.1529 13.2122 27.1529 13.1259L27.1529 12.6171C27.1529 12.3688 27.0545 12.1307 26.8791 11.955L17.2225 2.27538C17.0466 2.09908 16.8079 2 16.5588 2H16.0271Z" fill="#353F6E"/>
<path d="M29.7642 34.6503C29.034 33.916 29.0374 32.7288 29.7716 31.9986L33.6197 28.1719L16.7969 28.1719C16.2791 28.1719 15.8594 27.7521 15.8594 27.2344V25.3594C15.8594 24.8416 16.2791 24.4219 16.7969 24.4219L33.5412 24.4219L29.7716 20.6733C29.0374 19.9431 29.034 18.7559 29.7642 18.0216C30.4944 17.2874 31.6816 17.284 32.4159 18.0142L39.4471 25.0064C39.801 25.3583 40 25.8368 40 26.3359C40 26.835 39.801 27.3135 39.4471 27.6655L32.4159 34.6576C31.6816 35.3878 30.4944 35.3845 29.7642 34.6503Z" fill="#353F6E"/>
</svg>
