<svg xmlns="http://www.w3.org/2000/svg" xmlns:xlink="http://www.w3.org/1999/xlink" fill="#fff" fill-rule="evenodd" stroke="#000" stroke-linecap="round" stroke-linejoin="round" viewBox="0 0 75 53"><use xlink:href="#a" x=".5" y=".5"/><symbol id="a" overflow="visible"><g fill-rule="nonzero" stroke="none"><path fill="#00a1e0" d="M30.777 5.653c2.4-2.476 5.72-4.04 9.392-4.04 4.895 0 9.136 2.732 11.412 6.773a15.7 15.7 0 0 1 6.46-1.366c8.823 0 15.937 7.2 15.937 16.08s-7.143 16.088-15.937 16.088c-1.08 0-2.134-.114-3.13-.313a11.68 11.68 0 0 1-10.2 5.977 11.75 11.75 0 0 1-5.094-1.167c-2.02 4.753-6.745 8.1-12.238 8.1-5.72 0-10.615-3.614-12.494-8.7-.833.171-1.682.257-2.533.256C5.522 43.341 0 37.763 0 30.847a12.52 12.52 0 0 1 6.176-10.815 14.1 14.1 0 0 1-1.195-5.72C4.955 6.432 11.415 0 19.325 0a14.34 14.34 0 0 1 11.441 5.663"/><path d="m10.712 26.856.313-.825c.057-.142.142-.085.2-.057l.256.17a3.53 3.53 0 0 0 1.964.57c.655 0 1.08-.342 1.08-.825v-.028c0-.512-.626-.7-1.366-.94l-.17-.057c-.996-.285-2.078-.7-2.078-1.964v-.028c0-1.195.968-2.05 2.362-2.05h.142c.825 0 1.594.228 2.163.598.057.028.114.085.085.17l-.313.825c-.057.142-.2.057-.2.057a4.3 4.3 0 0 0-1.935-.484c-.598 0-.968.313-.968.74v.028c0 .484.655.7 1.395.94l.142.028c.996.313 2.05.74 2.05 1.964v.028c0 1.3-.94 2.106-2.448 2.106-.74 0-1.45-.114-2.22-.512-.142-.085-.285-.142-.427-.256-.028-.057-.085-.085-.028-.2zm22.2 0 .313-.825c.057-.142.17-.085.2-.057l.256.17a3.53 3.53 0 0 0 1.964.57c.655 0 1.08-.342 1.08-.825v-.028c0-.512-.626-.7-1.366-.94l-.17-.057c-.996-.285-2.078-.7-2.078-1.964v-.028c0-1.195.968-2.05 2.362-2.05h.142c.825 0 1.594.228 2.163.598.057.028.114.085.085.17l-.313.825c-.057.142-.2.057-.2.057a4.3 4.3 0 0 0-1.935-.484c-.598 0-.968.313-.968.74v.028c0 .484.655.7 1.395.94l.142.028c.996.313 2.05.74 2.05 1.964v.028c0 1.3-.94 2.106-2.448 2.106-.74 0-1.45-.114-2.22-.512-.142-.085-.285-.142-.427-.256 0-.057-.057-.085-.028-.2zm16.45-3.9c.114.427.2.882.2 1.366s-.057.94-.2 1.366a2.8 2.8 0 0 1-.57 1.1 2.75 2.75 0 0 1-.968.74q-.597.255-1.366.256c-.769.001-.968-.085-1.366-.256s-.7-.427-.968-.74a3 3 0 0 1-.57-1.1c-.115-.417-.2-.882-.2-1.366s.057-.94.2-1.366c.114-.427.313-.797.57-1.1a2.75 2.75 0 0 1 .968-.74 3.4 3.4 0 0 1 1.366-.285c.512 0 .968.085 1.366.285.398.17.7.427.968.74a3 3 0 0 1 .57 1.1m-1.28 1.338c0-.74-.142-1.3-.398-1.708s-.683-.598-1.224-.598c-.57 0-.968.2-1.224.598s-.398.968-.398 1.708.142 1.3.398 1.736c.256.398.655.598 1.224.598s.968-.2 1.224-.598c.285-.398.398-.996.398-1.736m11.697 2.134.313.854c.028.114-.057.142-.057.142-.484.2-1.138.313-1.793.313q-1.65 0-2.504-.94c-.854-.94-.854-1.48-.854-2.533 0-.484.057-.94.2-1.366s.342-.797.626-1.1a3 3 0 0 1 1.025-.74 3.6 3.6 0 0 1 1.423-.285 8 8 0 0 1 .939.057c.285.057.683.142.854.228.028 0 .114.057.085.142l-.313.854c-.057.142-.142.085-.142.085a4 4 0 0 0-1.338-.2c-.626 0-1.1.2-1.395.626-.313.398-.484.94-.484 1.68 0 .797.2 1.366.54 1.736s.825.54 1.45.54c.256 0 .484-.028.683-.057s.398-.085.598-.17c-.028.057.085.028.142.142zm6.46-3.728c.285.968.142 1.793.114 1.85 0 .114-.114.114-.114.114h-4.297c.028.655.17 1.1.512 1.423.313.313.797.512 1.48.512 1.025 0 1.45-.2 1.765-.313 0 0 .114-.028.17.085l.285.797c.057.142 0 .17-.028.2-.256.142-.9.427-2.163.427-.598 0-1.138-.085-1.565-.256s-.797-.398-1.08-.7-.484-.683-.626-1.08c-.142-.427-.2-.882-.2-1.366s.057-.94.2-1.366c.114-.427.313-.797.57-1.1s.598-.57.996-.74c.398-.2.882-.285 1.423-.285.455 0 .882.085 1.224.256.256.114.54.313.825.626.142.114.398.54.512.94zm-4.27.9h3.045c-.028-.398-.114-.74-.285-1.025-.256-.398-.626-.626-1.195-.626s-.968.228-1.224.626c-.17.256-.256.598-.342 1.025zm-30.082-.9c.285.968.142 1.793.142 1.85 0 .114-.114.114-.114.114h-4.297c.028.655.17 1.1.512 1.423.313.313.797.512 1.48.512 1.025 0 1.45-.2 1.765-.313 0 0 .114-.028.17.085l.285.797c.057.142 0 .17-.028.2-.256.142-.9.427-2.163.427-.598 0-1.138-.085-1.565-.256s-.797-.398-1.08-.7-.484-.683-.626-1.08c-.142-.427-.2-.882-.2-1.366s.057-.94.2-1.366c.114-.427.313-.797.57-1.1s.598-.57.996-.74c.398-.2.882-.285 1.423-.285.455 0 .882.085 1.224.256.256.114.54.313.825.626.114.114.398.54.484.94zm-4.27.9h3.074c-.028-.398-.114-.74-.285-1.025-.256-.398-.626-.626-1.195-.626s-.968.228-1.224.626c-.2.256-.285.598-.37 1.025m-7.542-.228.7.085v-.17c0-.57-.114-.854-.342-1.025s-.598-.285-1.053-.285c0 0-1.053 0-1.878.427-.028.028-.057.028-.057.028s-.114.028-.142-.057l-.313-.825c-.057-.114.028-.17.028-.17.398-.313 1.3-.484 1.3-.484a8 8 0 0 1 1.138-.114q1.28 0 1.964.598c.684.598.683 1.025.683 1.907v3.927s0 .114-.085.142c0 0-.17.057-.313.085l-1.08.2a6.6 6.6 0 0 1-1.3.114c-.427 0-.797-.028-1.138-.114a2.8 2.8 0 0 1-.882-.37 1.9 1.9 0 0 1-.57-.683c-.142-.256-.2-.598-.2-.968a2.26 2.26 0 0 1 .228-.996c.143-.296.37-.512.626-.7s.57-.313.882-.427a4.3 4.3 0 0 1 1.053-.142l.74.028zm-1.708 3.017s.398.313 1.252.256c.626-.028 1.167-.142 1.167-.142v-1.955s-.54-.085-1.167-.085c-.882 0-1.252.313-1.252.313-.256.17-.37.455-.37.825a1.1 1.1 0 0 0 .142.569c.028.057.057.114.228.228zm36.286-5.208c-.028.114-.256.7-.313.9-.028.085-.085.114-.17.114 0 0-.256-.057-.484-.057a2.3 2.3 0 0 0-.569.085c-.2.057-.37.17-.54.313s-.285.37-.37.626-.142.683-.142 1.138v3.187c0 .085-.057.142-.142.142h-1.128c-.085 0-.142-.057-.142-.142v-6.4c0-.085.057-.142.114-.142h1.1c.085 0 .114.057.114.142v.512a1.9 1.9 0 0 1 .7-.54c.245-.113.57-.2 1.1-.17.285.028.655.085.7.114.114.028.17.057.142.17zm-10.56-2.96c.028 0 .114.057.085.142l-.342.9c-.028.057-.057.114-.2.057-.028 0-.085-.028-.228-.057-.085-.028-.228-.028-.342-.028-.17 0-.313.028-.455.057s-.256.114-.37.228-.228.256-.313.455a4.3 4.3 0 0 0-.228.968h1.366c.114 0 .142.057.142.142l-.17.882c-.028.142-.142.114-.142.114h-1.423l-.9 5.493c-.114.57-.228 1.053-.37 1.45s-.313.683-.57.968c-.228.256-.484.455-.797.54-.285.114-.655.17-1.053.17-.2 0-.398 0-.626-.057a1.6 1.6 0 0 1-.398-.114c-.057-.028-.085-.085-.057-.17l.293-.863c.057-.114.142-.057.142-.057l.228.085c.114.028.228.028.342.028q.3 0 .512-.085c.17-.057.285-.17.398-.313s.2-.342.313-.598q.158-.519.256-1.053l.968-5.38h-.94c-.114 0-.142-.057-.142-.142l.17-.882c.028-.142.142-.114.142-.114h.968l.057-.285c.142-.854.427-1.508.854-1.935s1.053-.655 1.82-.655q.302.003.598.057c.114-.028.256 0 .398.057zm-19.182 9.25c0 .085-.057.142-.114.142h-1.138c-.085 0-.114-.057-.114-.142v-9.136c0-.057.057-.142.114-.142h1.138c.085 0 .114.057.114.142z"/></g></symbol></svg>