<?xml version="1.0" encoding="UTF-8"?>
<svg width="60px" height="60px" viewBox="0 0 60 60" version="1.1" xmlns="http://www.w3.org/2000/svg" xmlns:xlink="http://www.w3.org/1999/xlink">
    <title>salesforce_node_icon</title>
    <g id="salesforce_node_icon" stroke="none" stroke-width="1" fill="none" fill-rule="evenodd" stroke-linecap="round" stroke-linejoin="round">
        <g id="salesforce" transform="translate(0.000000, 9.000000)">
            <g id="Group" transform="translate(0.400000, 0.400000)">
                <path d="M24.6216,4.5224 C26.5416,2.5416 29.1976,1.2904 32.1352,1.2904 C36.0512,1.2904 39.444,3.476 41.2648,6.7088 C42.836,6.0032 44.5888,5.616 46.4328,5.616 C53.4912,5.616 59.1824,11.376 59.1824,18.48 C59.1824,25.584 53.468,31.3504 46.432,31.3504 C45.568,31.3504 44.7248,31.2592 43.928,31.1 C42.3344,33.9456 39.2832,35.8816 35.768,35.8816 C34.3567404,35.8802588 32.9638944,35.5611675 31.6928,34.948 C30.0768,38.7504 26.2968,41.428 21.9024,41.428 C17.3264,41.428 13.4104,38.5368 11.9072,34.468 C11.2408,34.604 10.5616,34.6736 9.8808,34.6728 C4.4176,34.672 -1.45370292e-05,30.2104 -1.45370292e-05,24.6776 C-0.00604651701,21.1209197 1.87451801,17.8278003 4.9408,16.0256 C4.3264,14.6368 3.9848,13.0896 3.9848,11.4496 C3.964,5.1456 9.132,-1.62440393e-05 15.46,-1.62440393e-05 C19.0519366,-0.00603648181 22.4393547,1.67064817 24.6128,4.5304" id="Path" fill="#00A1E0"></path>
                <path d="M8.5696,21.4848 L8.82,20.8248 C8.8656,20.7112 8.9336,20.7568 8.98,20.7792 L9.1848,20.9152 C9.65206688,21.2189013 10.1987457,21.3775607 10.756,21.3712 C11.28,21.3712 11.62,21.0976 11.62,20.7112 L11.62,20.6888 C11.62,20.2792 11.1192,20.1288 10.5272,19.9368 L10.3912,19.8912 C9.5944,19.6632 8.7288,19.3312 8.7288,18.32 L8.7288,18.2976 C8.7288,17.3416 9.5032,16.6576 10.6184,16.6576 L10.732,16.6576 C11.392,16.6576 12.0072,16.84 12.4624,17.136 C12.508,17.1584 12.5536,17.204 12.5304,17.272 L12.28,17.932 C12.2344,18.0456 12.12,17.9776 12.12,17.9776 C11.6412687,17.7295468 11.1111394,17.5969459 10.572,17.5904 C10.0936,17.5904 9.7976,17.8408 9.7976,18.1824 L9.7976,18.2048 C9.7976,18.592 10.3216,18.7648 10.9136,18.9568 L11.0272,18.9792 C11.824,19.2296 12.6672,19.5712 12.6672,20.5504 L12.6672,20.5728 C12.6672,21.6128 11.9152,22.2576 10.7088,22.2576 C10.1168,22.2576 9.5488,22.1664 8.9328,21.848 C8.8192,21.78 8.7048,21.7344 8.5912,21.6432 C8.5688,21.5976 8.5232,21.5752 8.5688,21.4832 L8.5696,21.4848 Z M26.3296,21.4848 L26.58,20.8248 C26.6256,20.7112 26.716,20.7568 26.74,20.7792 L26.9448,20.9152 C27.4120669,21.2189013 27.9587457,21.3775607 28.516,21.3712 C29.04,21.3712 29.38,21.0976 29.38,20.7112 L29.38,20.6888 C29.38,20.2792 28.8792,20.1288 28.2872,19.9368 L28.1512,19.8912 C27.3544,19.6632 26.4888,19.3312 26.4888,18.32 L26.4888,18.2976 C26.4888,17.3416 27.2632,16.6576 28.3784,16.6576 L28.492,16.6576 C29.152,16.6576 29.7672,16.84 30.2224,17.136 C30.268,17.1584 30.3136,17.204 30.2904,17.272 L30.04,17.932 C29.9944,18.0456 29.88,17.9776 29.88,17.9776 C29.4012687,17.7295468 28.8711394,17.5969459 28.332,17.5904 C27.8536,17.5904 27.5576,17.8408 27.5576,18.1824 L27.5576,18.2048 C27.5576,18.592 28.0816,18.7648 28.6736,18.9568 L28.7872,18.9792 C29.584,19.2296 30.4272,19.5712 30.4272,20.5504 L30.4272,20.5728 C30.4272,21.6128 29.6752,22.2576 28.4688,22.2576 C27.8768,22.2576 27.3088,22.1664 26.6928,21.848 C26.5792,21.78 26.4648,21.7344 26.3512,21.6432 C26.3512,21.5976 26.3056,21.5752 26.3288,21.4832 L26.3296,21.4848 Z M39.4896,18.3648 C39.5808,18.7064 39.6496,19.0704 39.6496,19.4576 C39.6496,19.8448 39.604,20.2096 39.4896,20.5504 C39.3984,20.892 39.2392,21.188 39.0336,21.4304 C38.8229806,21.6831562 38.5583525,21.8854546 38.2592,22.0224 C37.9408,22.1584 37.576,22.2272 37.1664,22.2272 C36.7568,22.2272 36.392,22.1592 36.0736,22.0224 C35.7552,21.8856 35.5136,21.6808 35.2992,21.4304 C35.086827,21.1725167 34.9314235,20.8726153 34.8432,20.5504 C34.7512,20.2168 34.6832,19.8448 34.6832,19.4576 C34.6832,19.0704 34.7288,18.7056 34.8432,18.3648 C34.9344,18.0232 35.0936,17.7272 35.2992,17.4848 C35.5098194,17.2320438 35.7744475,17.0297454 36.0736,16.8928 C36.4184651,16.742941 36.7903823,16.6653448 37.1664,16.6648 C37.576,16.6648 37.9408,16.7328 38.2592,16.8928 C38.5776,17.0288 38.8192,17.2344 39.0336,17.4848 C39.245973,17.7426833 39.4013765,18.0425847 39.4896,18.3648 L39.4896,18.3648 Z M38.4656,19.4352 C38.4656,18.8432 38.352,18.3952 38.1472,18.0688 C37.9424,17.7424 37.6008,17.5904 37.168,17.5904 C36.712,17.5904 36.3936,17.7504 36.1888,18.0688 C35.984,18.3872 35.8704,18.8432 35.8704,19.4352 C35.8704,20.0272 35.984,20.4752 36.1888,20.824 C36.3936,21.1424 36.7128,21.3024 37.168,21.3024 C37.6232,21.3024 37.9424,21.1424 38.1472,20.824 C38.3752,20.5056 38.4656,20.0272 38.4656,19.4352 Z M47.8232,21.1424 L48.0736,21.8256 C48.096,21.9168 48.028,21.9392 48.028,21.9392 C47.6408,22.0992 47.1176,22.1896 46.5936,22.1896 C45.7136,22.1896 45.0456,21.9392 44.5904,21.4376 C44.1352,20.936 43.9072,20.2536 43.9072,19.4112 C43.9072,19.024 43.9528,18.6592 44.0672,18.3184 C44.1816,17.9776 44.3408,17.6808 44.568,17.4384 C44.795512,17.1843181 45.075224,16.9823797 45.388,16.8464 C45.7481859,16.6943352 46.1354333,16.6167769 46.5264,16.618375 C46.7774607,16.6193861 47.0282634,16.6346105 47.2776,16.664 C47.5056,16.7096 47.824,16.7776 47.9608,16.8464 C47.9832,16.8464 48.052,16.892 48.0288,16.96 L47.7784,17.6432 C47.7328,17.7568 47.6648,17.7112 47.6648,17.7112 C47.3232,17.5976 47.0048,17.5512 46.5944,17.5512 C46.0936,17.5512 45.7144,17.7112 45.4784,18.052 C45.228,18.3704 45.0912,18.804 45.0912,19.396 C45.0912,20.0336 45.2512,20.4888 45.5232,20.7848 C45.7952,21.0808 46.1832,21.2168 46.6832,21.2168 C46.888,21.2168 47.0704,21.1944 47.2296,21.1712 C47.3888,21.148 47.548,21.1032 47.708,21.0352 C47.6856,21.0808 47.776,21.0576 47.8216,21.1488 L47.8232,21.1424 Z M52.9912,18.16 C53.2192,18.9344 53.1048,19.5944 53.0824,19.64 C53.0824,19.7312 52.9912,19.7312 52.9912,19.7312 L49.5536,19.7312 C49.576,20.2552 49.6896,20.6112 49.9632,20.8696 C50.2136,21.12 50.6008,21.2792 51.1472,21.2792 C51.9672,21.2792 52.3072,21.1192 52.5592,21.0288 C52.5592,21.0288 52.6504,21.0064 52.6952,21.0968 L52.9232,21.7344 C52.9688,21.848 52.9232,21.8704 52.9008,21.8944 C52.696,22.008 52.1808,22.236 51.1704,22.236 C50.692,22.236 50.26,22.168 49.9184,22.0312 C49.5768,21.8944 49.2808,21.7128 49.0544,21.4712 C48.828,21.2296 48.6672,20.9248 48.5536,20.6072 C48.44,20.2656 48.3936,19.9016 48.3936,19.5144 C48.3936,19.1272 48.4392,18.7624 48.5536,18.4216 C48.6448,18.08 48.804,17.784 49.0096,17.5416 C49.2152,17.2992 49.488,17.0856 49.8064,16.9496 C50.1248,16.7896 50.512,16.7216 50.9448,16.7216 C51.3088,16.7216 51.6504,16.7896 51.924,16.9264 C52.1288,17.0176 52.356,17.1768 52.584,17.4272 C52.6976,17.5184 52.9024,17.8592 52.9936,18.1792 L52.9912,18.16 Z M49.5752,18.88 L52.0112,18.88 C51.9888,18.5616 51.92,18.288 51.7832,18.06 C51.5784,17.7416 51.2824,17.5592 50.8272,17.5592 C50.372,17.5592 50.0528,17.7416 49.848,18.06 C49.712,18.2648 49.6432,18.5384 49.5744,18.88 L49.5752,18.88 Z M25.5096,18.16 C25.7376,18.9344 25.6232,19.5944 25.6232,19.64 C25.6232,19.7312 25.532,19.7312 25.532,19.7312 L22.0944,19.7312 C22.1168,20.2552 22.2304,20.6112 22.504,20.8696 C22.7544,21.12 23.1416,21.2792 23.688,21.2792 C24.508,21.2792 24.848,21.1192 25.1,21.0288 C25.1,21.0288 25.1912,21.0064 25.236,21.0968 L25.464,21.7344 C25.5096,21.848 25.464,21.8704 25.4416,21.8944 C25.2368,22.008 24.7216,22.236 23.7112,22.236 C23.2328,22.236 22.8008,22.168 22.4592,22.0312 C22.1176,21.8944 21.8216,21.7128 21.5952,21.4712 C21.3688,21.2296 21.208,20.9248 21.0944,20.6072 C20.9808,20.2656 20.9344,19.9016 20.9344,19.5144 C20.9344,19.1272 20.98,18.7624 21.0944,18.4216 C21.1856,18.08 21.3448,17.784 21.5504,17.5416 C21.756,17.2992 22.0288,17.0856 22.3472,16.9496 C22.6656,16.7896 23.0528,16.7216 23.4856,16.7216 C23.8496,16.7216 24.1912,16.7896 24.4648,16.9264 C24.6696,17.0176 24.8968,17.1768 25.1248,17.4272 C25.216,17.5184 25.4432,17.8592 25.512,18.1792 L25.5096,18.16 Z M22.0936,18.88 L24.5528,18.88 C24.5304,18.5616 24.4616,18.288 24.3248,18.06 C24.12,17.7416 23.824,17.5592 23.3688,17.5592 C22.9136,17.5592 22.5944,17.7416 22.3896,18.06 C22.2296,18.2648 22.1616,18.5384 22.0936,18.88 Z M16.06,18.6976 L16.62,18.7656 L16.62,18.6296 C16.62,18.1736 16.5288,17.9464 16.3464,17.8096 C16.164,17.6728 15.868,17.5816 15.504,17.5816 C15.504,17.5816 14.6616,17.5816 14.0016,17.9232 C13.9792,17.9456 13.956,17.9456 13.956,17.9456 C13.956,17.9456 13.8648,17.968 13.8424,17.9 L13.6,17.24 C13.5544,17.1488 13.6224,17.104 13.6224,17.104 C13.9408,16.8536 14.6624,16.7168 14.6624,16.7168 C14.9631822,16.6638443 15.2674903,16.63336 15.5728,16.6256 C16.256,16.6256 16.7792,16.7856 17.144,17.104 C17.5088,17.4224 17.6904,17.924 17.6904,18.6296 L17.6904,21.7712 C17.6904,21.7712 17.6904,21.8624 17.6224,21.8848 C17.6224,21.8848 17.4864,21.9304 17.372,21.9528 L16.508,22.1128 C16.1652046,22.1775341 15.8168302,22.2080839 15.468,22.204 C15.1264,22.204 14.8304,22.1816 14.5576,22.1128 C14.3070656,22.0556387 14.068333,21.9554901 13.852,21.8168 C13.6696,21.6808 13.5104,21.4984 13.396,21.2704 C13.2824,21.0656 13.2359919,20.792 13.2359919,20.496 C13.2351756,20.2199583 13.2975701,19.9473931 13.4184,19.6992 C13.5328,19.4624 13.7144,19.2896 13.9192,19.1392 C14.124,18.9888 14.3752,18.8888 14.6248,18.7976 C14.8984,18.7296 15.1712,18.684 15.4672,18.684 L16.0592,18.7064 L16.06,18.6976 Z M14.6936,21.1112 C14.6936,21.1112 15.012,21.3616 15.6952,21.316 C16.196,21.2936 16.6288,21.2024 16.6288,21.2024 L16.6288,19.6384 C16.6288,19.6384 16.1968,19.5704 15.6952,19.5704 C14.9896,19.5704 14.6936,19.8208 14.6936,19.8208 C14.4888,19.9568 14.3976,20.1848 14.3976,20.4808 C14.3943644,20.6399299 14.4335753,20.7970497 14.5112,20.936 C14.5336,20.9816 14.5568,21.0272 14.6936,21.1184 L14.6936,21.1112 Z M43.7224,16.9448 C43.7,17.036 43.5176,17.5048 43.472,17.6648 C43.4496,17.7328 43.404,17.756 43.336,17.756 C43.336,17.756 43.1312,17.7104 42.9488,17.7104 C42.7948187,17.7139255 42.6418892,17.7367709 42.4936,17.7784 C42.3336,17.824 42.1976,17.9144 42.0616,18.0288 C41.9256,18.1432 41.8336,18.3248 41.7656,18.5296 C41.6976,18.7344 41.652,19.076 41.652,19.44 L41.652,21.9896 C41.652,22.0576 41.6064,22.1032 41.5384,22.1032 L40.636,22.1032 C40.568,22.1032 40.5224,22.0576 40.5224,21.9896 L40.5224,16.8696 C40.5224,16.8016 40.568,16.756 40.6136,16.756 L41.4936,16.756 C41.5616,16.756 41.5848,16.8016 41.5848,16.8696 L41.5848,17.2792 C41.7355267,17.0938103 41.9272222,16.9459309 42.1448,16.8472 C42.3408,16.7568 42.6008,16.6872 43.0248,16.7112 C43.2528,16.7336 43.5488,16.7792 43.5848,16.8024 C43.676,16.8248 43.7208,16.848 43.6984,16.9384 L43.7224,16.9448 Z M35.2744,14.5768 C35.2968,14.5768 35.3656,14.6224 35.3424,14.6904 L35.0688,15.4104 C35.0464,15.456 35.0232,15.5016 34.9088,15.456 C34.8864,15.456 34.8408,15.4336 34.7264,15.4104 C34.6584,15.388 34.544,15.388 34.4528,15.388 C34.3168,15.388 34.2024,15.4104 34.0888,15.4336 C33.9752,15.4568 33.884,15.5248 33.7928,15.616 C33.7016,15.7072 33.6104,15.8208 33.5424,15.98 C33.4519918,16.2302511 33.3907863,16.4901058 33.36,16.7544 L34.4528,16.7544 C34.544,16.7544 34.5664,16.8 34.5664,16.868 L34.4304,17.5736 C34.408,17.6872 34.3168,17.6648 34.3168,17.6648 L33.1784,17.6648 L32.4584,22.0592 C32.3672,22.5152 32.276,22.9016 32.1624,23.2192 C32.0488,23.5368 31.912,23.7656 31.7064,23.9936 C31.524,24.1984 31.3192,24.3576 31.0688,24.4256 C30.8408,24.5168 30.5448,24.5616 30.2264,24.5616 C30.0664,24.5616 29.908,24.5616 29.7256,24.516 C29.616,24.5 29.5096,24.468 29.4072,24.4248 C29.3616,24.4024 29.3392,24.3568 29.3616,24.2888 L29.596,23.5984 C29.6416,23.5072 29.7096,23.5528 29.7096,23.5528 L29.892,23.6208 C29.9832,23.6432 30.0744,23.6432 30.1656,23.6432 C30.3256,23.6432 30.4616,23.6208 30.5752,23.5752 C30.7112,23.5296 30.8032,23.4392 30.8936,23.3248 C30.984,23.2104 31.0536,23.0512 31.144,22.8464 C31.228,22.5696 31.296,22.2888 31.3488,22.004 L32.1232,17.7 L31.3712,17.7 C31.28,17.7 31.2576,17.6544 31.2576,17.5864 L31.3936,16.8808 C31.416,16.7672 31.5072,16.7896 31.5072,16.7896 L32.2816,16.7896 L32.3272,16.5616 C32.4408,15.8784 32.6688,15.3552 33.0104,15.0136 C33.352,14.672 33.8528,14.4896 34.4664,14.4896 C34.6264,14.4912 34.7864,14.5056 34.9448,14.5352 C35.036,14.5128 35.1496,14.5352 35.2632,14.5808 L35.2744,14.5768 Z M19.928,21.976 C19.928,22.044 19.8824,22.0896 19.8368,22.0896 L18.928,22.0896 C18.86,22.0896 18.8368,22.044 18.8368,21.976 L18.8368,14.6672 C18.8368,14.6216 18.8824,14.5536 18.928,14.5536 L19.8384,14.5536 C19.9064,14.5536 19.9296,14.5992 19.9296,14.6672 L19.928,21.976 Z" id="Shape" fill="#FFFFFF"></path>
            </g>
        </g>
    </g>
</svg>