<?xml version="1.0" encoding="UTF-8"?><svg xmlns="http://www.w3.org/2000/svg" width="64" height="64" viewBox="0 0 64 64" fill="none" version="1.2" baseProfile="tiny-ps"><title>logo-bimi.svg</title><path d="M4.28858 16.0003C-4.54323 31.296 0.704656 50.8796 16.0003 59.7114C31.296 68.5432 50.8796 63.2953 59.7114 47.9997C68.5432 32.704 63.2953 13.1204 47.9997 4.28858C32.704 -4.54323 13.1204 0.704661 4.28858 16.0003ZM11.8404 20.3522C18.2403 9.21648 32.512 5.44056 43.6478 11.8404C54.7835 18.2403 58.5594 32.512 52.1596 43.6478C45.7597 54.7835 31.488 58.5594 20.3522 52.1596C9.21648 45.7597 5.44056 31.488 11.8404 20.3522Z" fill="url(#paint0_linear_406_1455)"></path><path d="M32.1192 49.4022C22.576 49.4022 14.8397 41.666 14.8397 32.1228C14.8397 22.5796 22.576 14.8433 32.1192 14.8433C41.6624 14.8433 49.3987 22.5796 49.3987 32.1228C49.3987 41.666 41.6624 49.4022 32.1192 49.4022Z" fill="url(#paint1_linear_406_1455)"></path><defs><linearGradient id="paint0_linear_406_1455" x1="59.7128" y1="16" x2="4.28724" y2="48" gradientUnits="userSpaceOnUse"><stop stop-color="#358A85"></stop><stop offset="1" stop-color="#6BEDAD"></stop></linearGradient><linearGradient id="paint1_linear_406_1455" x1="17.1547" y1="40.7625" x2="47.0836" y2="23.483" gradientUnits="userSpaceOnUse"><stop stop-color="#358A85"></stop><stop offset="1" stop-color="#6BEDAD"></stop></linearGradient></defs></svg>