<svg xmlns="http://www.w3.org/2000/svg" version="1.0" viewBox="0 0 4680.000000 1340.000000" preserveAspectRatio="xMidYMid meet">

<g transform="translate(0.000000,1340.000000) scale(0.100000,-0.100000)" fill="#7D7D87" stroke="none">
<path d="M44630 12190 l0 -1100 1035 0 1035 0 0 1100 0 1100 -1035 0 -1035 0 0 -1100z"/>
<path d="M3005 12924 c-27 -2 -122 -8 -210 -14 -682 -46 -1238 -181 -1610 -392 -579 -328 -867 -860 -945 -1748 -27 -315 -22 -983 11 -1350 99 -1114 477 -1571 1599 -1935 240 -77 551 -158 982 -255 200 -45 471 -109 603 -142 718 -180 950 -325 1025 -639 52 -219 52 -743 1 -979 -90 -409 -361 -558 -1058 -578 -916 -28 -1770 93 -2796 395 -104 30 -192 51 -197 47 -9 -11 -363 -1654 -357 -1660 13 -13 344 -143 497 -195 599 -205 1232 -333 1975 -400 192 -17 921 -23 1170 -10 1336 72 2100 364 2531 968 343 480 468 1172 425 2353 -23 628 -75 921 -216 1215 -275 572 -890 901 -2355 1261 -928 228 -1049 261 -1233 334 -257 103 -375 220 -427 425 -37 145 -52 559 -29 790 40 399 201 563 619 630 337 54 1146 36 1845 -41 270 -30 745 -97 1109 -157 163 -27 260 -39 262 -32 6 19 215 1798 211 1801 -7 8 -405 85 -636 123 -484 81 -907 131 -1466 172 -141 10 -1221 21 -1330 13z"/>
<path d="M29995 12778 c-10 -29 -2915 -9568 -2915 -9573 0 -3 505 -4 1122 -3 l1123 3 252 910 c138 501 254 920 258 933 l5 22 1608 -2 1607 -3 255 -920 c141 -506 258 -926 260 -933 4 -10 234 -12 1126 -10 l1120 3 -1466 4790 -1467 4790 -1442 3 c-1148 2 -1443 0 -1446 -10z m1993 -3900 c298 -1096 542 -1996 542 -2000 0 -5 -495 -8 -1101 -8 -913 0 -1100 2 -1096 13 3 8 252 908 553 2000 301 1093 551 1987 554 1987 3 0 250 -897 548 -1992z"/>
<path d="M10620 10354 c-174 -9 -386 -27 -485 -40 -1298 -175 -2058 -859 -2265 -2041 -52 -297 -53 -309 -57 -1428 -5 -1101 -1 -1267 38 -1544 71 -508 250 -957 514 -1286 373 -466 948 -769 1689 -889 341 -56 574 -70 1021 -63 534 9 985 59 1535 172 392 80 970 246 970 277 0 12 -289 1506 -296 1529 -4 15 -9 15 -52 3 -408 -124 -1105 -239 -1669 -275 -248 -16 -774 -7 -911 15 -410 67 -605 204 -703 497 -41 124 -59 252 -66 492 l-6 207 1891 0 1892 0 0 738 c0 766 -9 1094 -36 1335 -122 1107 -605 1788 -1496 2108 -225 80 -536 146 -828 173 -155 15 -557 27 -680 20z m390 -1634 c217 -27 356 -86 471 -200 163 -163 212 -333 213 -745 l1 -240 -905 0 -905 0 -3 150 c-8 412 63 647 246 817 113 104 253 171 423 202 146 27 320 33 459 16z"/>
<path d="M23975 10349 c-393 -27 -850 -146 -1307 -340 -178 -76 -444 -210 -581 -292 l-108 -65 -12 31 c-7 18 -56 143 -108 279 l-94 248 -812 0 -813 0 0 -5065 c0 -4647 1 -5065 16 -5065 9 0 470 63 1024 140 555 77 1013 140 1019 140 8 0 11 424 11 1448 l0 1449 83 -18 c356 -79 820 -140 1285 -170 242 -15 726 -7 887 15 679 95 1153 365 1469 836 76 113 195 357 244 500 76 222 125 461 159 765 13 116 16 349 20 1360 5 1239 0 1514 -32 1775 -100 822 -416 1397 -947 1726 -288 179 -628 277 -1053 304 -165 11 -190 11 -350 -1z m-335 -1799 c199 -19 324 -68 431 -168 107 -100 166 -220 194 -395 22 -137 22 -2422 0 -2550 -48 -273 -179 -445 -404 -527 -120 -44 -215 -54 -461 -47 -225 6 -449 29 -710 71 -157 26 -371 68 -442 86 l-38 11 0 1489 0 1488 43 37 c66 57 262 186 378 248 302 162 577 244 884 266 11 0 67 -4 125 -9z"/>
<path d="M40785 10354 c-590 -35 -1344 -283 -1937 -637 l-107 -64 -49 126 c-27 69 -75 195 -107 279 l-59 152 -813 0 -813 0 0 -5065 c0 -4680 1 -5065 16 -5065 9 0 471 63 1026 140 555 77 1013 140 1018 140 6 0 10 533 10 1448 l0 1448 183 -37 c302 -61 565 -97 977 -136 235 -22 889 -25 1050 -5 310 39 595 120 829 239 192 96 309 181 461 333 292 292 470 651 570 1150 74 370 80 513 80 1910 0 1389 -6 1528 -80 1900 -203 1020 -806 1608 -1770 1724 -130 15 -381 26 -485 20z m-375 -1804 c126 -12 198 -32 297 -80 153 -75 252 -208 306 -410 l22 -85 0 -1265 0 -1265 -22 -84 c-62 -231 -202 -390 -401 -455 -131 -43 -197 -49 -442 -43 -222 6 -361 19 -635 58 -137 20 -453 80 -527 100 l-38 10 0 1489 0 1490 58 45 c327 261 788 460 1145 494 116 12 131 12 237 1z"/>
<path d="M18790 10324 c-451 -118 -1157 -426 -1625 -709 -78 -48 -122 -69 -126 -62 -3 7 -37 157 -74 335 l-68 322 -864 0 -863 0 0 -3505 0 -3505 1035 0 1035 0 0 2139 0 2139 108 70 c357 231 977 537 1584 782 84 34 156 65 160 68 4 4 -31 437 -78 962 -46 525 -84 963 -84 973 0 23 -24 22 -140 -9z"/>
<path d="M44630 6705 l0 -3505 1035 0 1035 0 0 3505 0 3505 -1035 0 -1035 0 0 -3505z"/>
</g>
</svg>
