<svg xmlns="http://www.w3.org/2000/svg" viewBox="0 0 48 48" fill="none">
  <rect width="48" height="48" rx="8" fill="#2D2D2D"/>
  <path d="M14 16C14 14.8954 14.8954 14 16 14H20C21.1046 14 22 14.8954 22 16V32C22 33.1046 21.1046 34 20 34H16C14.8954 34 14 33.1046 14 32V16Z" fill="#00D4AA"/>
  <path d="M26 16C26 14.8954 26.8954 14 28 14H32C33.1046 14 34 14.8954 34 16V24C34 25.1046 33.1046 26 32 26H28C26.8954 26 26 25.1046 26 24V16Z" fill="#00D4AA"/>
  <circle cx="30" cy="31" r="3" fill="#00D4AA"/>
</svg>
