<?xml version="1.0" encoding="UTF-8"?>
<svg width="60px" height="60px" viewBox="0 0 60 60" version="1.1" xmlns="http://www.w3.org/2000/svg" xmlns:xlink="http://www.w3.org/1999/xlink">
    <title>paypal_node_icon</title>
    <g id="paypal_node_icon" stroke="none" stroke-width="1" fill="none" fill-rule="evenodd" stroke-linecap="round" stroke-linejoin="round">
        <g id="Group" transform="translate(1.000000, 1.000000)">
            <path d="M58.4441094,20.7421875 C58.4441094,26.9335 55.8702344,31.93375 50.7335469,35.731875 C45.5968594,39.53 38.4191406,41.4244531 29.1893281,41.4244531 L24.08675,41.4244531 L20.1743125,58.3869531 L6.69004687,58.3869531 L19.1408906,6.3609375 L37.3977031,6.3609375 C40.8086406,6.3609375 43.7586406,6.59878125 46.2993281,7.06432813 C48.8280313,7.52895313 51.0165625,8.33467187 52.8446406,9.47964063 C54.6588906,10.6246094 56.0527656,12.1106719 57.0059844,13.9359844 C57.9582813,15.7502344 58.4348906,18.0291094 58.4348906,20.7514063 L58.4441094,20.7421875 Z" id="Path" fill="#009CDE"></path>
            <path d="M20.6269531,58.9446875 L5.98757812,58.9446875 L18.7094531,5.79582812 L37.3958594,5.79582812 C40.8086406,5.79582812 43.837,6.03367187 46.3878281,6.49921875 C48.9736875,6.97582812 51.2415,7.81473437 53.1359531,8.98275 C55.0294844,10.1738125 56.5035625,11.748375 57.5019531,13.6548125 C58.5003437,15.56125 59,17.9489063 59,20.7421875 C59,27.0920625 56.3265625,32.2969688 51.071875,36.1863594 C45.8559062,40.0416406 38.4975,41.9923281 29.1865625,41.9923281 L24.5255625,41.9923281 L20.6269531,58.9446875 Z M7.4045,57.8329063 L19.7299687,57.8329063 L23.6424062,40.8704063 L29.1874844,40.8704063 C38.2476719,40.8704063 45.3922031,38.9879375 50.4035156,35.2801563 C52.8870469,33.4428594 54.7805781,31.2884375 56.0269531,28.8841875 C57.2733281,26.4799375 57.886375,23.7364375 57.886375,20.7421875 C57.886375,18.1240625 57.42175,15.9115625 56.514625,14.1655313 C55.6075,12.4305625 54.2809219,11.0127188 52.5570156,9.92490625 C50.7870156,8.82510938 48.6445781,8.0424375 46.1960781,7.588875 C43.7125469,7.1353125 40.7533281,6.89746875 37.3967813,6.89746875 L19.5833906,6.89746875 L7.4045,57.8329063 Z" id="Shape" fill="#FFFFFF"></path>
            <path d="M52.4574531,14.9574219 C52.4574531,21.1487344 49.8835781,26.1489844 44.7468906,29.9471094 C39.6102031,33.7452344 32.4315625,35.6396875 23.2035937,35.6396875 L18.1010156,35.6396875 L14.196875,52.5929687 L0.703390625,52.5929687 L12.721875,0.555890625 L31.4211875,0.555890625 C34.832125,0.555890625 37.782125,0.793734375 40.3228125,1.25928125 C42.8515156,1.72390625 45.0400469,2.529625 46.868125,3.67459375 C48.682375,4.8195625 50.07625,6.305625 51.0294688,8.1309375 C51.9817656,9.9451875 52.458375,12.2240625 52.458375,14.9574219 L52.4574531,14.9574219 Z" id="Path" fill="#0F3572"></path>
            <path d="M14.6283125,53.1497813 L0,53.1497813 L12.2581719,0 L31.4110469,0 C34.8238281,0 37.8521875,0.23784375 40.4030156,0.703390625 C42.988875,1.18 45.2566875,2.01890625 47.1511406,3.18692187 C49.0446719,4.37798437 50.51875,5.95254688 51.5171406,7.85898437 C52.5155312,9.76542187 53.0142656,12.1457031 53.0142656,14.9463594 C53.0142656,21.2962344 50.3408281,26.5011406 45.0861406,30.3905312 C39.8701719,34.2458125 32.5117656,36.1965 23.2008281,36.1965 L18.5296875,36.1965 L14.6283125,53.1497813 Z M1.40585937,52.0269375 L13.7433125,52.0269375 L17.65575,35.0644375 L23.2008281,35.0644375 C32.2610156,35.0644375 39.4055469,33.1819688 44.4168594,29.4741875 C46.9003906,27.6368906 48.7939219,25.4824688 50.0402969,23.0782188 C51.2866719,20.6739688 51.8997187,17.9304688 51.8997187,14.9362188 C51.8997187,12.3180938 51.4350938,10.1055938 50.5279687,8.3595625 C49.6208437,6.62459375 48.2942656,5.20675 46.5703594,4.1189375 C44.8003594,3.01914063 42.6579219,2.23646875 40.2094219,1.78290625 C37.7258906,1.32934375 34.7666719,1.0915 31.410125,1.0915 L13.14225,1.0915 L1.40585937,52.0269375 Z M38.5989062,16.8057813 C38.5067187,18.39325 38.1794531,19.5714063 37.2041094,20.9108906 C36.2398281,22.2605156 35.1059219,23.1233906 33.5866719,23.8590469 C32.6793716,24.2873285 31.7118872,24.5742784 30.7177969,24.7099375 C29.7203281,24.846375 28.5292656,24.9256563 27.1344687,24.9256563 L20.4324375,24.9256563 L24.1844687,11.4662813 L30.2734531,11.4662813 C31.8268125,11.4662813 33.0741094,11.4893281 34.0162656,11.704125 C34.9565781,11.9069375 35.7281875,12.1927188 36.307125,12.5338125 C37.1119219,13.0104219 37.7581562,13.5884375 38.1324375,14.3250156 C38.5970625,15.1869688 38.6542187,15.7428594 38.5970625,16.7864219 L38.5989062,16.8057813 Z" id="Shape" fill="#FFFFFF"></path>
        </g>
    </g>
</svg>