<svg xmlns="http://www.w3.org/2000/svg" width="60" height="60"><g fill="none" fill-rule="evenodd" stroke-linecap="round" stroke-linejoin="round"><path fill="#009CDE" d="M59.444 21.742c0 6.191-2.574 11.192-7.71 14.99s-12.315 5.692-21.545 5.692h-5.102l-3.913 16.963H7.69L20.14 7.361h18.258c3.41 0 6.36.238 8.901.703 2.529.465 4.718 1.27 6.546 2.416 1.814 1.145 3.208 2.63 4.161 4.456.952 1.814 1.429 4.093 1.429 6.815z"/><path fill="#FFF" d="M21.627 59.945H6.987L19.71 6.795h18.687c3.413 0 6.441.239 8.992.704 2.586.477 4.854 1.316 6.748 2.484 1.893 1.19 3.368 2.765 4.366 4.672C59.5 16.56 60 18.949 60 21.742c0 6.35-2.673 11.555-7.928 15.444-5.216 3.856-12.575 5.806-21.885 5.806h-4.661zM8.404 58.833H20.73l3.912-16.963h5.545c9.06 0 16.205-1.882 21.217-5.59 2.483-1.837 4.377-3.992 5.623-6.396s1.86-5.148 1.86-8.142c0-2.618-.465-4.83-1.372-6.576-.907-1.735-2.234-3.153-3.958-4.241-1.77-1.1-3.912-1.883-6.36-2.336-2.484-.454-5.444-.692-8.8-.692H20.583z"/><path fill="#0F3572" d="M53.457 15.957c0 6.192-2.573 11.192-7.71 14.99S33.432 36.64 24.204 36.64H19.1l-3.904 16.953H1.703L13.722 1.556h18.7c3.41 0 6.36.238 8.9.703 2.53.465 4.718 1.27 6.546 2.416 1.814 1.145 3.208 2.63 4.161 4.456.953 1.814 1.43 4.093 1.43 6.826z"/><path fill="#FFF" d="M15.628 54.15H1L13.258 1h19.153c3.413 0 6.441.238 8.992.703 2.586.477 4.854 1.316 6.748 2.484 1.894 1.191 3.368 2.766 4.366 4.672.999 1.906 1.497 4.287 1.497 7.087 0 6.35-2.673 11.555-7.928 15.445-5.216 3.855-12.574 5.806-21.885 5.806H19.53zM2.406 53.027h12.337l3.913-16.963H24.2c9.06 0 16.205-1.882 21.216-5.59 2.483-1.837 4.377-3.992 5.623-6.396s1.86-5.148 1.86-8.142c0-2.618-.465-4.83-1.372-6.576-.907-1.735-2.234-3.153-3.958-4.241-1.77-1.1-3.912-1.883-6.36-2.336-2.484-.454-5.443-.692-8.8-.692H14.142zm37.193-35.221c-.092 1.587-.42 2.765-1.395 4.105-.964 1.35-2.098 2.212-3.617 2.948a9.8 9.8 0 0 1-2.87.85c-.997.137-2.188.217-3.583.217h-6.702l3.752-13.46h6.09c1.553 0 2.8.023 3.742.238.94.203 1.712.489 2.291.83.805.476 1.451 1.054 1.825 1.791.465.862.522 1.418.465 2.461z"/></g></svg>