<svg xmlns="http://www.w3.org/2000/svg" xmlns:xlink="http://www.w3.org/1999/xlink" viewBox="0 0 66 58" fill="#fff" fill-rule="evenodd" stroke="#000" stroke-linecap="round" stroke-linejoin="round"><use xlink:href="#a" x=".5" y=".5"/><symbol id="a" overflow="visible"><g stroke="none" fill-rule="nonzero"><path d="M14.48 54.473L.558 30.359a4.163 4.163 0 010-4.164L14.48 2.082A4.163 4.163 0 0118.08 0h27.857c1.48.007 2.845.8 3.585 2.082l13.92 24.113a4.163 4.163 0 010 4.164L49.52 54.473a4.163 4.163 0 01-3.6 2.082H18.07a4.167 4.167 0 01-3.593-2.082z" fill="#4386fa"/><path d="M40.697 20.512s3.87 9.283-1.406 14.545-14.883 1.894-14.883 1.894L43.95 56.547h1.984a4.163 4.163 0 003.6-2.082l9.216-15.958z" fill="#000" opacity=".1"/><path d="M45.266 39.507L41 35.23a.67.67 0 00-.158-.12 11.63 11.63 0 00-1.499-15.859 11.63 11.63 0 00-16.396 16.436 11.63 11.63 0 0015.863 1.46.695.695 0 00.113.15l4.277 4.277a.67.67 0 00.947 0l1.12-1.12a.67.67 0 000-.947zM31.64 36.741a8.75 8.75 0 01-6.188-14.937 8.75 8.75 0 0114.937 6.188 8.75 8.75 0 01-8.749 8.749zm-5.593-9.216v3.616a6.426 6.426 0 002.338 2.375v-6.013zm4.375-2.998v9.772a6.45 6.45 0 002.338 0v-9.772zm6.764 6.606v-2.142H34.85v4.5a6.43 6.43 0 002.338-2.368z"/></g></symbol></svg>