<svg xmlns="http://www.w3.org/2000/svg" xmlns:svg="http://www.w3.org/2000/svg" id="layer" width="102.6" height="102.6" version="1.1" viewBox="0 0 102.6 102.6" xml:space="preserve"><style id="style108" type="text/css">.st1{fill:#9b65c3}.st2{fill:#be63c5}.st3{fill:#bf63c6}.st4{fill:#3278b1}.st5{fill:#3278b2}.st6{fill:#45a4ec}.st7{fill:#19bb7d}.st8{fill:#08c7fb}.st9{fill:#59f2f6}.st10{fill:#ffa700}.st11{fill:#da3757}.st12{fill:#d33c4e}.st13{fill:#ee5a24}.st14{fill:#8bdf55}.st15{fill:#25c16f}.st16{fill:#fb0}.st17{fill:#ffa800}</style><g id="g168" transform="translate(-21.6,-279.3)"><path id="path130" d="m 22.2,338.2 c 1.7,11.1 6.9,21.1 14.4,28.6 l 17.5,-17.5 c 0,-17.7 9.2,-34.9 25.6,-44.4 z" class="st1"/><path id="path132" d="m 54.1,349.3 c -8.7,0 -17.5,-2.2 -25.6,-6.9 -2.2,-1.3 -4.3,-2.7 -6.3,-4.3 1.7,11.1 6.9,21.1 14.4,28.6 z" class="st1"/><path id="path134" d="m 54.1,349.3 v 0 l -17.5,17.5 c 7.6,7.6 17.5,12.8 28.6,14.4 L 98.4,323.7 C 89,340.1 71.8,349.3 54.1,349.3" class="st2"/><path id="path136" d="m 61,375 c -4.7,-8.1 -6.9,-16.9 -6.9,-25.6 l -17.5,17.5 c 7.6,7.6 17.5,12.8 28.6,14.4 -1.5,-2 -2.9,-4.1 -4.2,-6.3" class="st3"/><path id="path138" d="M 119.3,282.1 79.8,305 c -16.4,9.5 -35.9,8.8 -51.2,0 -4.4,7.5 -6.9,16.3 -6.9,25.6 0,2.6 0.2,5.1 0.6,7.6 2,1.6 4.1,3 6.3,4.3 8.1,4.7 16.9,6.9 25.6,6.9 l 66.2,-66.2 c -0.4,-0.4 -0.7,-0.8 -1.1,-1.1" class="st4"/><path id="path140" d="m 28.5,342.5 c 8.1,4.7 16.9,6.9 25.6,6.9 0,-17.7 9.2,-34.9 25.6,-44.4 l -57.6,33.2 c 2.1,1.5 4.2,3 6.4,4.3" class="st5"/><path id="path142" d="m 28.5,305 c -4.4,7.5 -6.9,16.3 -6.9,25.6 0,2.6 0.2,5.1 0.6,7.6 L 79.8,305 c -16.5,9.4 -36,8.8 -51.3,0" class="st6"/><path id="path144" d="m 120.4,283.1 c -0.3,-0.3 -0.7,-0.7 -1.1,-1 -0.5,-0.4 -1,-0.8 -1.6,-1.1 -1.9,-1.1 -4.1,-1.7 -6.4,-1.7 H 72.9 c -19,0 -35.5,10.3 -44.4,25.6 15.3,8.8 34.8,9.5 51.2,0 -16.4,9.5 -25.6,26.7 -25.6,44.4 17.7,0 34.9,-9.2 44.4,-25.6 l 22.8,-39.5 c -0.3,-0.4 -0.6,-0.8 -0.9,-1.1" class="st7"/><path id="path146" d="m 79.8,305 39.5,-22.8 c -0.5,-0.4 -1,-0.8 -1.6,-1.1 L 28.5,305 c 15.3,8.8 34.8,9.4 51.3,0" class="st8"/><path id="path148" d="M 111.3,279.3 H 72.9 c -19,0 -35.5,10.3 -44.4,25.6 L 117.7,281 c -1.9,-1 -4,-1.7 -6.4,-1.7" class="st9"/><path id="path150" d="M 54.1,349.3" class="st10"/><path id="path152" d="m 98.5,323.7 22.8,-39.5 c -0.3,-0.4 -0.6,-0.7 -1,-1.1 l -66.2,66.2 c 0,8.7 2.2,17.5 6.9,25.6 1.3,2.2 2.7,4.3 4.3,6.3 2.5,0.4 5,0.6 7.6,0.6 9.3,0 18.1,-2.5 25.6,-6.9 -8.8,-15.3 -9.5,-34.8 0,-51.2" class="st11"/><path id="path154" d="m 54.1,349.3 v 0 c 0,8.7 2.2,17.5 6.9,25.6 1.3,2.2 2.7,4.3 4.3,6.3 L 98.5,323.7 C 89,340.1 71.8,349.3 54.1,349.3" class="st12"/><path id="path156" d="m 98.5,323.7 -33.2,57.6 c 2.5,0.4 5,0.6 7.6,0.6 9.3,0 18.1,-2.5 25.6,-6.9 -8.8,-15.4 -9.5,-34.9 0,-51.3" class="st13"/><path id="path158" d="m 122.4,285.8 c -0.3,-0.6 -0.7,-1.1 -1.1,-1.6 -0.3,-0.4 -0.6,-0.7 -1,-1.1 -0.3,-0.3 -0.7,-0.7 -1.1,-1 L 79.8,305 c -16.4,9.5 -25.6,26.7 -25.6,44.4 17.7,0 34.9,-9.2 44.4,-25.6 -9.5,16.4 -8.8,35.9 0,51.2 15.3,-8.9 25.6,-25.4 25.6,-44.4 v -38.4 c -0.1,-2.4 -0.7,-4.6 -1.8,-6.4" class="st14"/><path id="path160" d="M 119.3,282.1 79.8,305 c -16.4,9.5 -25.6,26.7 -25.6,44.4 l 66.2,-66.2 c -0.4,-0.4 -0.7,-0.8 -1.1,-1.1" class="st15"/><path id="path162" d="m 54.1,349.3 c 17.7,0 34.9,-9.2 44.4,-25.6 l 22.8,-39.5 c -0.3,-0.4 -0.6,-0.7 -1,-1.1 z" class="st14"/><path id="path164" d="m 121.3,284.2 -22.8,39.5 c -9.5,16.4 -8.8,35.9 0,51.2 l 23.9,-89.2 c -0.3,-0.5 -0.7,-1 -1.1,-1.5" class="st16"/><path id="path166" d="m 98.5,375 c 15.3,-8.9 25.6,-25.4 25.6,-44.4 v -38.4 c 0,-2.3 -0.6,-4.5 -1.7,-6.4 z" class="st17"/></g></svg>