<?xml version="1.0" encoding="UTF-8" standalone="no"?>
<!-- Generator: Adobe Illustrator 19.2.1, SVG Export Plug-In . SVG Version: 6.00 Build 0)  -->

<svg
   version="1.1"
   id="layer"
   viewBox="0 0 102.6 102.6"
   xml:space="preserve"
   sodipodi:docname="freshworksCrm.svg"
   width="102.6"
   height="102.6"
   inkscape:version="1.1 (c4e8f9e, 2021-05-24)"
   xmlns:inkscape="http://www.inkscape.org/namespaces/inkscape"
   xmlns:sodipodi="http://sodipodi.sourceforge.net/DTD/sodipodi-0.dtd"
   xmlns="http://www.w3.org/2000/svg"
   xmlns:svg="http://www.w3.org/2000/svg"><sodipodi:namedview
   id="namedview156"
   pagecolor="#ffffff"
   bordercolor="#666666"
   borderopacity="1.0"
   inkscape:pageshadow="2"
   inkscape:pageopacity="0.0"
   inkscape:pagecheckerboard="0"
   showgrid="false"
   fit-margin-top="0"
   fit-margin-left="0"
   fit-margin-right="0"
   fit-margin-bottom="0"
   inkscape:zoom="1.7642045"
   inkscape:cx="166.36393"
   inkscape:cy="122.15137"
   inkscape:window-width="1312"
   inkscape:window-height="847"
   inkscape:window-x="0"
   inkscape:window-y="25"
   inkscape:window-maximized="0"
   inkscape:current-layer="layer" /><defs
   id="defs173" />
<style
   type="text/css"
   id="style108">
	.st0{fill:#4D4D4D;}
	.st1{fill:#9B65C3;}
	.st2{fill:#BE63C5;}
	.st3{fill:#BF63C6;}
	.st4{fill:#3278B1;}
	.st5{fill:#3278B2;}
	.st6{fill:#45A4EC;}
	.st7{fill:#19BB7D;}
	.st8{fill:#08C7FB;}
	.st9{fill:#59F2F6;}
	.st10{fill:#FFA700;}
	.st11{fill:#DA3757;}
	.st12{fill:#D33C4E;}
	.st13{fill:#EE5A24;}
	.st14{fill:#8BDF55;}
	.st15{fill:#25C16F;}
	.st16{fill:#FFBB00;}
	.st17{fill:#FFA800;}
</style>
<g
   id="g168"
   transform="translate(-21.6,-279.3)">










	<path
   class="st1"
   d="m 22.2,338.2 c 1.7,11.1 6.9,21.1 14.4,28.6 l 17.5,-17.5 c 0,-17.7 9.2,-34.9 25.6,-44.4 z"
   id="path130" />
	<path
   class="st1"
   d="m 54.1,349.3 c -8.7,0 -17.5,-2.2 -25.6,-6.9 -2.2,-1.3 -4.3,-2.7 -6.3,-4.3 1.7,11.1 6.9,21.1 14.4,28.6 z"
   id="path132" />
	<path
   class="st2"
   d="m 54.1,349.3 v 0 l -17.5,17.5 c 7.6,7.6 17.5,12.8 28.6,14.4 L 98.4,323.7 C 89,340.1 71.8,349.3 54.1,349.3"
   id="path134" />
	<path
   class="st3"
   d="m 61,375 c -4.7,-8.1 -6.9,-16.9 -6.9,-25.6 l -17.5,17.5 c 7.6,7.6 17.5,12.8 28.6,14.4 -1.5,-2 -2.9,-4.1 -4.2,-6.3"
   id="path136" />
	<path
   class="st4"
   d="M 119.3,282.1 79.8,305 c -16.4,9.5 -35.9,8.8 -51.2,0 -4.4,7.5 -6.9,16.3 -6.9,25.6 0,2.6 0.2,5.1 0.6,7.6 2,1.6 4.1,3 6.3,4.3 8.1,4.7 16.9,6.9 25.6,6.9 l 66.2,-66.2 c -0.4,-0.4 -0.7,-0.8 -1.1,-1.1"
   id="path138" />
	<path
   class="st5"
   d="m 28.5,342.5 c 8.1,4.7 16.9,6.9 25.6,6.9 0,-17.7 9.2,-34.9 25.6,-44.4 l -57.6,33.2 c 2.1,1.5 4.2,3 6.4,4.3"
   id="path140" />
	<path
   class="st6"
   d="m 28.5,305 c -4.4,7.5 -6.9,16.3 -6.9,25.6 0,2.6 0.2,5.1 0.6,7.6 L 79.8,305 c -16.5,9.4 -36,8.8 -51.3,0"
   id="path142" />
	<path
   class="st7"
   d="m 120.4,283.1 c -0.3,-0.3 -0.7,-0.7 -1.1,-1 -0.5,-0.4 -1,-0.8 -1.6,-1.1 -1.9,-1.1 -4.1,-1.7 -6.4,-1.7 H 72.9 c -19,0 -35.5,10.3 -44.4,25.6 15.3,8.8 34.8,9.5 51.2,0 -16.4,9.5 -25.6,26.7 -25.6,44.4 17.7,0 34.9,-9.2 44.4,-25.6 l 22.8,-39.5 c -0.3,-0.4 -0.6,-0.8 -0.9,-1.1"
   id="path144" />
	<path
   class="st8"
   d="m 79.8,305 39.5,-22.8 c -0.5,-0.4 -1,-0.8 -1.6,-1.1 L 28.5,305 c 15.3,8.8 34.8,9.4 51.3,0"
   id="path146" />
	<path
   class="st9"
   d="M 111.3,279.3 H 72.9 c -19,0 -35.5,10.3 -44.4,25.6 L 117.7,281 c -1.9,-1 -4,-1.7 -6.4,-1.7"
   id="path148" />
	<path
   class="st10"
   d="M 54.1,349.3"
   id="path150" />
	<path
   class="st11"
   d="m 98.5,323.7 22.8,-39.5 c -0.3,-0.4 -0.6,-0.7 -1,-1.1 l -66.2,66.2 c 0,8.7 2.2,17.5 6.9,25.6 1.3,2.2 2.7,4.3 4.3,6.3 2.5,0.4 5,0.6 7.6,0.6 9.3,0 18.1,-2.5 25.6,-6.9 -8.8,-15.3 -9.5,-34.8 0,-51.2"
   id="path152" />
	<path
   class="st12"
   d="m 54.1,349.3 v 0 c 0,8.7 2.2,17.5 6.9,25.6 1.3,2.2 2.7,4.3 4.3,6.3 L 98.5,323.7 C 89,340.1 71.8,349.3 54.1,349.3"
   id="path154" />
	<path
   class="st13"
   d="m 98.5,323.7 -33.2,57.6 c 2.5,0.4 5,0.6 7.6,0.6 9.3,0 18.1,-2.5 25.6,-6.9 -8.8,-15.4 -9.5,-34.9 0,-51.3"
   id="path156" />
	<path
   class="st14"
   d="m 122.4,285.8 c -0.3,-0.6 -0.7,-1.1 -1.1,-1.6 -0.3,-0.4 -0.6,-0.7 -1,-1.1 -0.3,-0.3 -0.7,-0.7 -1.1,-1 L 79.8,305 c -16.4,9.5 -25.6,26.7 -25.6,44.4 17.7,0 34.9,-9.2 44.4,-25.6 -9.5,16.4 -8.8,35.9 0,51.2 15.3,-8.9 25.6,-25.4 25.6,-44.4 v -38.4 c -0.1,-2.4 -0.7,-4.6 -1.8,-6.4"
   id="path158" />
	<path
   class="st15"
   d="M 119.3,282.1 79.8,305 c -16.4,9.5 -25.6,26.7 -25.6,44.4 l 66.2,-66.2 c -0.4,-0.4 -0.7,-0.8 -1.1,-1.1"
   id="path160" />
	<path
   class="st14"
   d="m 54.1,349.3 c 17.7,0 34.9,-9.2 44.4,-25.6 l 22.8,-39.5 c -0.3,-0.4 -0.6,-0.7 -1,-1.1 z"
   id="path162" />
	<path
   class="st16"
   d="m 121.3,284.2 -22.8,39.5 c -9.5,16.4 -8.8,35.9 0,51.2 l 23.9,-89.2 c -0.3,-0.5 -0.7,-1 -1.1,-1.5"
   id="path164" />
	<path
   class="st17"
   d="m 98.5,375 c 15.3,-8.9 25.6,-25.4 25.6,-44.4 v -38.4 c 0,-2.3 -0.6,-4.5 -1.7,-6.4 z"
   id="path166" />
</g>
</svg>
