<svg xmlns="http://www.w3.org/2000/svg" xml:space="preserve" id="layer" width="102.6" height="102.6" version="1.1"><style id="style108" type="text/css">.st1{fill:#9b65c3}.st14{fill:#8bdf55}</style><g id="g168" transform="translate(-21.6 -279.3)"><path id="path130" d="M22.2 338.2c1.7 11.1 6.9 21.1 14.4 28.6l17.5-17.5c0-17.7 9.2-34.9 25.6-44.4z" class="st1"/><path id="path132" d="M54.1 349.3c-8.7 0-17.5-2.2-25.6-6.9-2.2-1.3-4.3-2.7-6.3-4.3 1.7 11.1 6.9 21.1 14.4 28.6z" class="st1"/><path id="path134" d="m54.1 349.3-17.5 17.5c7.6 7.6 17.5 12.8 28.6 14.4l33.2-57.5c-9.4 16.4-26.6 25.6-44.3 25.6" style="fill:#be63c5"/><path id="path136" d="M61 375c-4.7-8.1-6.9-16.9-6.9-25.6l-17.5 17.5c7.6 7.6 17.5 12.8 28.6 14.4q-2.25-3-4.2-6.3" style="fill:#bf63c6"/><path id="path138" d="M119.3 282.1 79.8 305c-16.4 9.5-35.9 8.8-51.2 0-4.4 7.5-6.9 16.3-6.9 25.6 0 2.6.2 5.1.6 7.6 2 1.6 4.1 3 6.3 4.3 8.1 4.7 16.9 6.9 25.6 6.9l66.2-66.2c-.4-.4-.7-.8-1.1-1.1" style="fill:#3278b1"/><path id="path140" d="M28.5 342.5c8.1 4.7 16.9 6.9 25.6 6.9 0-17.7 9.2-34.9 25.6-44.4l-57.6 33.2c2.1 1.5 4.2 3 6.4 4.3" style="fill:#3278b2"/><path id="path142" d="M28.5 305c-4.4 7.5-6.9 16.3-6.9 25.6 0 2.6.2 5.1.6 7.6L79.8 305c-16.5 9.4-36 8.8-51.3 0" style="fill:#45a4ec"/><path id="path144" d="M120.4 283.1c-.3-.3-.7-.7-1.1-1-.5-.4-1-.8-1.6-1.1-1.9-1.1-4.1-1.7-6.4-1.7H72.9c-19 0-35.5 10.3-44.4 25.6 15.3 8.8 34.8 9.5 51.2 0-16.4 9.5-25.6 26.7-25.6 44.4 17.7 0 34.9-9.2 44.4-25.6l22.8-39.5c-.3-.4-.6-.8-.9-1.1" style="fill:#19bb7d"/><path id="path146" d="m79.8 305 39.5-22.8c-.5-.4-1-.8-1.6-1.1L28.5 305c15.3 8.8 34.8 9.4 51.3 0" style="fill:#08c7fb"/><path id="path148" d="M111.3 279.3H72.9c-19 0-35.5 10.3-44.4 25.6l89.2-23.9c-1.9-1-4-1.7-6.4-1.7" style="fill:#59f2f6"/><path id="path152" d="m98.5 323.7 22.8-39.5c-.3-.4-.6-.7-1-1.1l-66.2 66.2c0 8.7 2.2 17.5 6.9 25.6 1.3 2.2 2.7 4.3 4.3 6.3 2.5.4 5 .6 7.6.6 9.3 0 18.1-2.5 25.6-6.9-8.8-15.3-9.5-34.8 0-51.2" style="fill:#da3757"/><path id="path154" d="M54.1 349.3c0 8.7 2.2 17.5 6.9 25.6 1.3 2.2 2.7 4.3 4.3 6.3l33.2-57.5c-9.5 16.4-26.7 25.6-44.4 25.6" style="fill:#d33c4e"/><path id="path156" d="m98.5 323.7-33.2 57.6c2.5.4 5 .6 7.6.6 9.3 0 18.1-2.5 25.6-6.9-8.8-15.4-9.5-34.9 0-51.3" style="fill:#ee5a24"/><path id="path158" d="M122.4 285.8c-.3-.6-.7-1.1-1.1-1.6-.3-.4-.6-.7-1-1.1-.3-.3-.7-.7-1.1-1L79.8 305c-16.4 9.5-25.6 26.7-25.6 44.4 17.7 0 34.9-9.2 44.4-25.6-9.5 16.4-8.8 35.9 0 51.2 15.3-8.9 25.6-25.4 25.6-44.4v-38.4c-.1-2.4-.7-4.6-1.8-6.4" class="st14"/><path id="path160" d="M119.3 282.1 79.8 305c-16.4 9.5-25.6 26.7-25.6 44.4l66.2-66.2c-.4-.4-.7-.8-1.1-1.1" style="fill:#25c16f"/><path id="path162" d="M54.1 349.3c17.7 0 34.9-9.2 44.4-25.6l22.8-39.5c-.3-.4-.6-.7-1-1.1z" class="st14"/><path id="path164" d="m121.3 284.2-22.8 39.5c-9.5 16.4-8.8 35.9 0 51.2l23.9-89.2c-.3-.5-.7-1-1.1-1.5" style="fill:#fb0"/><path id="path166" d="M98.5 375c15.3-8.9 25.6-25.4 25.6-44.4v-38.4c0-2.3-.6-4.5-1.7-6.4z" style="fill:#ffa800"/></g></svg>