<svg id="Layer_1" data-name="Layer 1" xmlns="http://www.w3.org/2000/svg" viewBox="0 0 914.51 267.05"><defs><style>.cls-2{fill:#fff}</style></defs><path d="M151.86 633.42h697.77A108.37 108.37 0 00958 525.05V366.37H151.86A108.37 108.37 0 0043.49 474.74v50.31a108.37 108.37 0 00108.37 108.37z" transform="translate(-43.49 -366.37)" fill="#2589ff"/><path class="cls-2" d="M227.71 435.25v107.07H207.8l-1.4-10.42c-6.64 9-17.29 12.11-27.78 12.11-25.33 0-44.37-14.71-44.37-39.52 0-26 18.69-39.53 43.85-39.53 9.08 0 23.23 4.29 28.3 12.11v-41.82zm-72.15 69.24c0 13.17 10.84 22.21 24.46 22.21 13.45 0 25-8.58 25-22.21 0-13.18-11.53-22.06-25-22.06-13.62 0-24.46 8.42-24.46 22.06zM314.54 466.8H335v75.52h-20.11l-1.05-11c-4.89 8.89-18.34 13.18-27.95 13.33-25.51.15-44.38-13.63-44.38-40.13 0-26 19.74-39.68 44.9-39.53 11.53 0 22.54 4.75 27.43 12.26zm-51.71 37.69c0 14.39 11.35 23 25.5 23 33.55 0 33.55-45.8 0-45.8-14.15-.03-25.5 8.4-25.5 22.8zM379.35 445.51V467h23.76v16h-23.93v32.63c0 7.2 4.54 10.72 11.18 10.72a27.13 27.13 0 0010.31-2.3l5.94 15.95a53.27 53.27 0 01-17.61 3.24c-18.69.61-30.92-8.73-30.92-27.57V483H342v-16h16v-19.5zM487.31 466.8h20.44v75.52h-20.09l-1-11c-4.9 8.89-18.35 13.18-28 13.33-25.5.15-44.37-13.63-44.37-40.13 0-26 19.74-39.68 44.9-39.53 11.53 0 22.53 4.75 27.43 12.26zm-51.71 37.69c0 14.39 11.36 23 25.51 23 33.54 0 33.54-45.8 0-45.8-14.11-.03-25.51 8.4-25.51 22.8zM593.36 459.14l15.72 10.42-9.61 10.72c6.64 6.59 9.08 14.1 9.08 22.37 0 9.34-4 22.51-18.17 28.18 14.33 6.28 17.82 15.32 17.82 25 0 20.84-18.17 33.7-43.15 33.7s-43.67-13.32-43.67-33.7h21.13c0 9.81 10.31 16.24 22.54 16.24s21.84-5.82 21.84-16.24-11.18-15.16-21.84-15.16c-26.9 0-43.67-14.4-43.67-38s19.56-38.3 43.67-38.3c6.82 0 13.8.77 19.74 4.29zm-50.85 43.51c0 13.17 10.14 21 22.54 21 12.23 0 22.37-8 22.37-21s-10.14-21.29-22.37-21.29c-12.4 0-22.54 8.11-22.54 21.29zM679.48 542.32v-40.44c0-9.95-5.94-19-17.65-19-11.53 0-18.34 9-18.34 19v40.44h-21.32v-75.67h19.75l1.57 9.19c4.54-7.66 14.5-10.42 22.71-10.42 10.31 0 20.61 3.68 25.51 14.1 7.68-10.73 17.64-13.79 28.82-13.79 24.46 0 36.52 13.17 36.52 35.85v40.74h-21.32v-40.74c0-10-4.72-18.39-16.25-18.39s-18.69 8.74-18.69 18.69v40.44zM847 466.8h20.44v75.52h-20.08l-1-11c-4.9 8.89-18.35 13.18-28 13.33-25.51.12-44.36-13.65-44.36-40.16 0-26 19.74-39.68 44.9-39.53 11.53 0 22.53 4.75 27.43 12.26zm-51.7 37.69c0 14.39 11.35 23 25.51 23 33.54 0 33.54-45.8 0-45.8-14.16-.03-25.51 8.4-25.51 22.8z" transform="translate(-43.49 -366.37)"/></svg>
