<svg
  version="1.1"
  xmlns="http://www.w3.org/2000/svg"
  width="100px"
  height="100px"
  viewBox="-20.48 -20.48 296.96 296.96">
  <g transform="translate(-0.31062762,29.820251)">
    <path fill="#000" d="m 192.44022,144.64461 h 31.77989 V 68.339338 l -35.80478,-35.804782 -22.47232,22.472322 26.49721,26.497216 v 63.140516 z m 31.86374,15.93187 h -46.28627 -64.566 L 86.954471,134.07927 98.190632,122.8431 120.07599,144.72846 h 45.0285 L 120.74681,100.28693 132.06682,88.966918 176.4245,133.3246 V 88.296102 L 154.62299,66.494596 165.7753,55.342286 110.68457,0 H 56.34851 V 0 H 0 l 31.696037,31.696037 v 0.08385 h 0.167704 65.572224 L 120.66295,55.006878 86.702915,88.966918 63.475925,65.739928 V 47.711759 H 31.696037 v 31.192925 l 55.006878,55.006876 -22.38847,22.38847 35.804785,35.80478 H 154.45529 256 v 0 l -31.69604,-31.52833 z" />
  </g>
</svg>
