<?xml version="1.0" encoding="utf-8"?>
<!-- Generator: Adobe Illustrator 19.0.0, SVG Export Plug-In . SVG Version: 6.00 Build 0)  -->
<svg version="1.1" id="Layer_1" xmlns="http://www.w3.org/2000/svg" xmlns:xlink="http://www.w3.org/1999/xlink" x="0px" y="0px"
	 viewBox="0 0 500 500" style="enable-background:new 0 0 500 500;" xml:space="preserve">
<style type="text/css">
	.st0{fill:#231F20;}
</style>
<g id="XMLID_1_">
	<path id="XMLID_2_" class="st0" d="M341.9,319.3h45.3V210.5l-51-51l-32,32l37.8,37.8V319.3z M387.3,342h-66h-92.1l-37.8-37.8l16-16
		l31.2,31.2h64.2L239.7,256l16.1-16.1l63.2,63.2v-64.2L288,207.9l15.9-15.9l-78.5-78.9h-77.5H67.5l45.2,45.2v0.1h0.2h93.5l33.1,33.1
		l-48.4,48.4L158,206.8v-25.7h-45.3v44.5l78.4,78.4l-31.9,31.9l51,51h77.5h144.8L387.3,342z"/>
</g>
</svg>
