<svg xmlns="http://www.w3.org/2000/svg" xmlns:xlink="http://www.w3.org/1999/xlink" viewBox="0 0 74.375 85" fill="#fff" fill-rule="evenodd" stroke="#000" stroke-linecap="round" stroke-linejoin="round"><use xlink:href="#a" x="2.188" y="2.5"/><symbol id="a" overflow="visible"><g stroke="none"><path d="M2.886 52.8L16.8 51.268V28.732L2.886 27.2v25.6z" fill="#5294cf"/><g fill="#19486f"><path d="M67.207 28.898l-6.462 2.43-36.237-5.346L34.99 0l32.217 28.898z"/><path d="M3.504 28.966L35 12.234 45.543 26 16.81 30.224l-13.305-1.26z"/></g><g fill="#205b99"><path d="M35 24L0 30.624V16.556L35 0l17.016 18.478L35 24z"/><path d="M7.008 16.478L0 19.395v44.05l7.008 3.307V16.478z"/></g><path d="M70 16.566L35 0v24l35 6.624v-14.06z" fill="#5294cf"/><g fill="#99bce3"><path d="M1.154 51.26L34.99 80l10.554-26-28.734-4.224L1.154 51.26z"/><path d="M67.64 51.142l-6.493-2.527-36.64 5.405 10.48 25.22 32.65-28.097z"/></g><path d="M67.207 51.103l-13.965-1.327v-19.55L67.207 28.9v22.205zM35 56l15.13-16L35 24 16.356 40 35 56z" fill="#205b99"/><path d="M53.624 40L35 56V24l18.634 16z" fill="#5294cf"/><path d="M0 49.376L35 56l19.21 7.873L35 80 0 63.444V49.376z" fill="#205b99"/><g fill="#5294cf"><path d="M70 63.435L35 80V56l35-6.624v14.06z"/><path d="M62.97 66.75L70 63.434V16.566l-7.03-3.327V66.75z"/></g></g></symbol></svg>