<svg xmlns="http://www.w3.org/2000/svg" xmlns:xlink="http://www.w3.org/1999/xlink" fill="#fff" fill-rule="evenodd" stroke="#000" stroke-linecap="round" stroke-linejoin="round" viewBox="0 0 74.375 85"><use xlink:href="#a" x="2.188" y="2.5"/><symbol id="a" overflow="visible"><g stroke="none"><path fill="#5294cf" d="M2.886 52.8 16.8 51.268V28.732L2.886 27.2z"/><g fill="#19486f"><path d="m67.207 28.898-6.462 2.43-36.237-5.346L34.99 0z"/><path d="M3.504 28.966 35 12.234 45.543 26 16.81 30.224l-13.305-1.26z"/></g><g fill="#205b99"><path d="M35 24 0 30.624V16.556L35 0l17.016 18.478z"/><path d="M7.008 16.478 0 19.395v44.05l7.008 3.307z"/></g><path fill="#5294cf" d="M70 16.566 35 0v24l35 6.624v-14.06z"/><g fill="#99bce3"><path d="M1.154 51.26 34.99 80l10.554-26-28.734-4.224z"/><path d="m67.64 51.142-6.493-2.527-36.64 5.405 10.48 25.22 32.65-28.097z"/></g><path fill="#205b99" d="m67.207 51.103-13.965-1.327v-19.55L67.207 28.9v22.205zM35 56l15.13-16L35 24 16.356 40z"/><path fill="#5294cf" d="M53.624 40 35 56V24l18.634 16z"/><path fill="#205b99" d="M0 49.376 35 56l19.21 7.873L35 80 0 63.444z"/><g fill="#5294cf"><path d="M70 63.435 35 80V56l35-6.624z"/><path d="M62.97 66.75 70 63.434V16.566l-7.03-3.327z"/></g></g></symbol></svg>