<svg width="24" height="24" viewBox="0 0 24 24" fill="none" xmlns="http://www.w3.org/2000/svg">
<path d="M11.25 2.90677C11.7141 2.63882 12.2859 2.63882 12.75 2.90677L19.5 6.80388C19.9641 7.07183 20.25 7.56702 20.25 8.10292V15.8971C20.25 16.433 19.9641 16.9282 19.5 17.1962L12.75 21.0933C12.2859 21.3612 11.7141 21.3612 11.25 21.0933L4.5 17.1962C4.0359 16.9282 3.75 16.433 3.75 15.8971V8.10292C3.75 7.56702 4.0359 7.07183 4.5 6.80388L11.25 2.90677Z" stroke="currentColor" stroke-width="1.5"/>
<path d="M11 16.5L15.5 12L11 7.5" stroke="currentColor" stroke-width="1.5"/>
<path d="M15.25 12L3.75 12" stroke="currentColor" stroke-width="1.5"/>
</svg>
