<svg width="24" height="24" viewBox="0 0 24 24" fill="none" xmlns="http://www.w3.org/2000/svg">
<path d="M11.25 2.90677C11.7141 2.63882 12.2859 2.63882 12.75 2.90677L19.5 6.80388C19.9641 7.07183 20.25 7.56702 20.25 8.10292V15.8971C20.25 16.433 19.9641 16.9282 19.5 17.1962L12.75 21.0933C12.2859 21.3612 11.7141 21.3612 11.25 21.0933L4.5 17.1962C4.0359 16.9282 3.75 16.433 3.75 15.8971V8.10292C3.75 7.56702 4.0359 7.07183 4.5 6.80388L11.25 2.90677Z" stroke="currentColor" stroke-width="1.5"/>
<path d="M12 7V10" stroke="currentColor" stroke-width="1.5"/>
<path d="M16.3325 9.49573L13.7344 10.9957" stroke="currentColor" stroke-width="1.5"/>
<path d="M16.3374 14.4956L13.7393 12.9956" stroke="currentColor" stroke-width="1.5"/>
<path d="M12 14V17" stroke="currentColor" stroke-width="1.5"/>
<path d="M10.2705 12.9957L7.67243 14.4957" stroke="currentColor" stroke-width="1.5"/>
<path d="M10.2754 10.9956L7.67731 9.49561" stroke="currentColor" stroke-width="1.5"/>
</svg>
