<svg width="24" height="24" viewBox="0 0 24 24" fill="none" xmlns="http://www.w3.org/2000/svg">
<path d="M12.2676 4.34277L11.1113 5.5H5.75C5.33579 5.5 5 5.83579 5 6.25V18.25C5 18.6642 5.33579 19 5.75 19H17.75C18.1642 19 18.5 18.6642 18.5 18.25V12.8887L19.6562 11.7324H20V18.25C20 19.4926 18.9926 20.5 17.75 20.5H5.75C4.50736 20.5 3.5 19.4926 3.5 18.25V6.25C3.5 5.00736 4.50736 4 5.75 4H12.2676V4.34277Z" fill="currentColor"/>
<path d="M17.1893 3.31066C17.7751 2.72487 18.7249 2.72487 19.3107 3.31066L20.6893 4.68934C21.2751 5.27513 21.2751 6.22487 20.6893 6.81066L12.6893 14.8107C12.408 15.092 12.0265 15.25 11.6287 15.25H8.75V12.3713C8.75 11.9735 8.90804 11.592 9.18934 11.3107L17.1893 3.31066Z" stroke="currentColor" stroke-width="1.5"/>
<path d="M15.75 4.75L19.25 8.25" stroke="currentColor" stroke-width="1.5"/>
</svg>
