<svg width="24" height="24" viewBox="0 0 24 24" fill="none" xmlns="http://www.w3.org/2000/svg">
<path d="M7.75 4.75H6.25C5.42157 4.75 4.75 5.42157 4.75 6.25V18.75C4.75 19.5784 5.42157 20.25 6.25 20.25H17.75C18.5784 20.25 19.25 19.5784 19.25 18.75V6.25C19.25 5.42157 18.5784 4.75 17.75 4.75H16.25" stroke="currentColor" stroke-width="1.5"/>
<path d="M14.25 3.75H13.5V4.5H14.25V3.75ZM16.25 5.25H17H16.25ZM16.25 7.25V8H17V7.25H16.25ZM7.75 7.25H7V8H7.75V7.25ZM9.25 3.75V3V3V3.75ZM9.75 3.75V4.5H10.5V3.75H9.75ZM12.75 1.75V2.5C13.1642 2.5 13.5 2.83579 13.5 3.25H14.25H15C15 2.00736 13.9926 1 12.75 1V1.75ZM14.25 3.25H13.5V3.75H14.25H15V3.25H14.25ZM14.25 3.75V4.5H14.75V3.75V3H14.25V3.75ZM14.75 3.75V4.5C15.1642 4.5 15.5 4.83579 15.5 5.25H16.25H17C17 4.00736 15.9926 3 14.75 3V3.75ZM16.25 5.25H15.5V7.25H16.25H17V5.25H16.25ZM16.25 7.25V6.5H7.75V7.25V8H16.25V7.25ZM7.75 7.25H8.5V5.25H7.75H7V7.25H7.75ZM7.75 5.25H8.5C8.5 4.83579 8.83579 4.5 9.25 4.5V3.75V3C8.00736 3 7 4.00736 7 5.25H7.75ZM9.25 3.75V4.5H9.75V3.75V3H9.25V3.75ZM9.75 3.75H10.5V3.25H9.75H9V3.75H9.75ZM9.75 3.25H10.5C10.5 2.83579 10.8358 2.5 11.25 2.5V1.75V1C10.0074 1 9 2.00736 9 3.25H9.75ZM11.25 1.75V2.5H12.75V1.75V1H11.25V1.75Z" fill="currentColor"/>
<path d="M8 11.75H16" stroke="currentColor" stroke-width="1.5"/>
<path d="M8 14.75H16" stroke="currentColor" stroke-width="1.5"/>
</svg>
