<svg width="24" height="24" viewBox="0 0 24 24" fill="none" xmlns="http://www.w3.org/2000/svg">
<path d="M19.5 12L19.5 5.25C19.5 4.83579 19.1642 4.5 18.75 4.5L5.25 4.5C4.83579 4.5 4.5 4.83579 4.5 5.25L4.5 12L3 12L3 5.25C3 4.00736 4.00736 3 5.25 3L18.75 3C19.9926 3 21 4.00736 21 5.25L21 12L19.5 12ZM3 16.25L3 14L4.5 14L4.5 16.25L3 16.25ZM5.25 21C4.00736 21 3 19.9926 3 18.75L3 18L4.5 18L4.5 18.75C4.5 19.1642 4.83579 19.5 5.25 19.5L6 19.5L6 21L5.25 21ZM8 21L8 19.5L11 19.5L11 21L8 21ZM13 21L13 19.5L16 19.5L16 21L13 21ZM21 18.75C21 19.9926 19.9926 21 18.75 21L18 21L18 19.5L18.75 19.5C19.1642 19.5 19.5 19.1642 19.5 18.75L19.5 18L21 18L21 18.75ZM19.5 16.25L19.5 14L21 14L21 16.25L19.5 16.25Z" fill="currentColor"/>
<path d="M23 12L1 12" stroke="currentColor" stroke-width="1.5"/>
</svg>
