<svg width="24" height="24" viewBox="0 0 24 24" fill="none" xmlns="http://www.w3.org/2000/svg">
<path d="M20.5202 14.248L21.0505 14.7783L21.9221 13.9067L20.7474 13.5332L20.5202 14.248ZM18.3463 16.4218L17.816 15.8914L17.2857 16.4218L17.816 16.9521L18.3463 16.4218ZM21.0208 19.0962L21.5511 19.6265L22.0814 19.0962L21.5511 18.5659L21.0208 19.0962ZM19.0963 21.0207L18.5659 21.5511L19.0963 22.0814L19.6266 21.5511L19.0963 21.0207ZM16.4218 18.3463L16.9522 17.816L16.4218 17.2856L15.8915 17.816L16.4218 18.3463ZM14.2473 20.5208L13.5326 20.748L13.9061 21.9227L14.7777 21.0511L14.2473 20.5208ZM11.3229 11.3236L11.5502 10.6088L10.169 10.1697L10.6082 11.5508L11.3229 11.3236ZM20.5202 14.248L19.9898 13.7176L17.816 15.8914L18.3463 16.4218L18.8767 16.9521L21.0505 14.7783L20.5202 14.248ZM18.3463 16.4218L17.816 16.9521L20.4905 19.6265L21.0208 19.0962L21.5511 18.5659L18.8767 15.8914L18.3463 16.4218ZM21.0208 19.0962L20.4905 18.5659L18.5659 20.4904L19.0963 21.0207L19.6266 21.5511L21.5511 19.6265L21.0208 19.0962ZM19.0963 21.0207L19.6266 20.4904L16.9522 17.816L16.4218 18.3463L15.8915 18.8766L18.5659 21.5511L19.0963 21.0207ZM16.4218 18.3463L15.8915 17.816L13.717 19.9904L14.2473 20.5208L14.7777 21.0511L16.9522 18.8766L16.4218 18.3463ZM14.2473 20.5208L14.9621 20.2935L12.0377 11.0963L11.3229 11.3236L10.6082 11.5508L13.5326 20.748L14.2473 20.5208ZM11.3229 11.3236L11.0957 12.0383L20.2929 14.9627L20.5202 14.248L20.7474 13.5332L11.5502 10.6088L11.3229 11.3236Z" fill="currentColor"/>
<path d="M7.6249 19.5793C5.00958 18.0664 3.25 15.2387 3.25 12C3.25 7.16751 7.16751 3.25 12 3.25C15.2231 3.25 18.0391 4.99263 19.5574 7.5871" stroke="currentColor" stroke-width="1.5"/>
<path d="M9.62446 16.1142C8.20498 15.2928 7.25 13.7579 7.25 12C7.25 9.37665 9.37665 7.25 12 7.25C13.7524 7.25 15.2832 8.19898 16.1064 9.61107" stroke="currentColor" stroke-width="1.5"/>
</svg>
