<svg width="24" height="24" viewBox="0 0 24 24" fill="none" xmlns="http://www.w3.org/2000/svg">
<circle cx="12" cy="15.75" r="1.25" fill="currentColor"/>
<path d="M9.75 10C9.75 8.75736 10.7574 7.75 12 7.75C13.2426 7.75 14.25 8.75736 14.25 10C14.25 11.2426 13.2426 12.25 12 12.25V13.5" stroke="currentColor" stroke-width="1.5"/>
<path d="M7.7998 19.6777L8.16035 19.0201L7.90003 18.8774L7.61257 18.9515L7.7998 19.6777ZM3.11426 20.8857L2.38796 20.6987L2.07103 21.9292L3.3015 21.612L3.11426 20.8857ZM4.32129 16.1992L5.04759 16.3863L5.12159 16.099L4.979 15.8388L4.32129 16.1992ZM12 3.25V4C16.4183 4 20 7.58172 20 12H20.75H21.5C21.5 6.75329 17.2467 2.5 12 2.5V3.25ZM20.75 12H20C20 16.4183 16.4183 20 12 20V20.75V21.5C17.2467 21.5 21.5 17.2467 21.5 12H20.75ZM12 20.75V20C10.6071 20 9.29941 19.6445 8.16035 19.0201L7.7998 19.6777L7.43926 20.3354C8.7937 21.0779 10.3486 21.5 12 21.5V20.75ZM7.7998 19.6777L7.61257 18.9515L2.92702 20.1595L3.11426 20.8857L3.3015 21.612L7.98704 20.404L7.7998 19.6777ZM3.11426 20.8857L3.84056 21.0728L5.04759 16.3863L4.32129 16.1992L3.59499 16.0122L2.38796 20.6987L3.11426 20.8857ZM4.32129 16.1992L4.979 15.8388C4.35496 14.7001 4 13.3926 4 12H3.25H2.5C2.5 13.6507 2.92141 15.2054 3.66358 16.5597L4.32129 16.1992ZM3.25 12H4C4 7.58172 7.58172 4 12 4V3.25V2.5C6.75329 2.5 2.5 6.75329 2.5 12H3.25Z" fill="currentColor"/>
</svg>
