<svg width="24" height="24" viewBox="0 0 24 24" fill="none" xmlns="http://www.w3.org/2000/svg">
<path d="M4.41574 13.9728C3.02004 14.5718 2.37414 16.1887 2.97308 17.5844C3.57202 18.9801 5.18899 19.626 6.58469 19.0271C7.98039 18.4282 8.62629 16.8112 8.02735 15.4155C7.42841 14.0198 5.81144 13.3739 4.41574 13.9728ZM4.41574 13.9728L22.0002 6.5" stroke="currentColor" stroke-width="1.5"/>
<path d="M4.41574 10.0271C3.02004 9.42817 2.37414 7.81119 2.97308 6.4155C3.57202 5.0198 5.18899 4.3739 6.58469 4.97284C7.98039 5.57178 8.62629 7.18875 8.02735 8.58445C7.42841 9.98015 5.81144 10.626 4.41574 10.0271ZM4.41574 10.0271L22.0002 17.4999" stroke="currentColor" stroke-width="1.5"/>
</svg>
