<svg width="24" height="24" viewBox="0 0 24 24" fill="none" xmlns="http://www.w3.org/2000/svg">
<path d="M4.41553 13.9729C3.01983 14.5718 2.37393 16.1888 2.97287 17.5845C3.57181 18.9802 5.18878 19.6261 6.58448 19.0271C7.98018 18.4282 8.62608 16.8112 8.02714 15.4155C7.4282 14.0198 5.81122 13.3739 4.41553 13.9729ZM4.41553 13.9729L22 6.50003" stroke="currentColor" stroke-width="1.5"/>
<path d="M4.41553 10.0272C3.01984 9.42823 2.37394 7.81126 2.97288 6.41556C3.57181 5.01986 5.18879 4.37396 6.58449 4.9729C7.98018 5.57184 8.62608 7.18881 8.02715 8.58451C7.42821 9.98021 5.81123 10.6261 4.41553 10.0272ZM4.41553 10.0272L22 17.5" stroke="currentColor" stroke-width="1.5"/>
</svg>
