<svg width="24" height="24" viewBox="0 0 24 24" fill="none" xmlns="http://www.w3.org/2000/svg">
<path d="M5.28223 5.28223C3.56306 7.00139 2.5 9.37665 2.5 12C2.5 14.6234 3.56306 16.9986 5.28223 18.7178L4.22168 19.7783C2.23107 17.7877 1 15.0376 1 12C1 8.96243 2.23107 6.21229 4.22168 4.22168L5.28223 5.28223ZM19.7783 4.22168C21.7689 6.21229 23 8.96243 23 12C23 15.0376 21.7689 17.7877 19.7783 19.7783L18.7178 18.7178C20.4369 16.9986 21.5 14.6234 21.5 12C21.5 9.37665 20.4369 7.00139 18.7178 5.28223L19.7783 4.22168ZM8.11133 8.11133C7.11602 9.10663 6.5 10.4812 6.5 12C6.5 13.5188 7.11602 14.8934 8.11133 15.8887L7.0498 16.9502C5.78305 15.6834 5 13.933 5 12C5 10.067 5.78305 8.31656 7.0498 7.0498L8.11133 8.11133ZM16.9502 7.0498C18.2169 8.31656 19 10.067 19 12C19 13.933 18.2169 15.6834 16.9502 16.9502L15.8887 15.8887C16.884 14.8934 17.5 13.5188 17.5 12C17.5 10.4812 16.884 9.10663 15.8887 8.11133L16.9502 7.0498Z" fill="currentColor"/>
<circle cx="12" cy="12" r="2.25" stroke="currentColor" stroke-width="1.5"/>
<path d="M12 14.25V22" stroke="currentColor" stroke-width="1.5"/>
</svg>
