<svg width="24" height="24" viewBox="0 0 24 24" fill="none" xmlns="http://www.w3.org/2000/svg">
<path d="M18.25 20.25H5.75V17.6213C5.75 17.2235 5.90803 16.842 6.18934 16.5607L9.89645 12.8536C10.1228 12.6272 10.25 12.3201 10.25 12C10.25 11.6799 10.1228 11.3728 9.89645 11.1464L6.18934 7.43934C5.90803 7.15803 5.75 6.7765 5.75 6.37868V3.75H18.25V6.37868C18.25 6.7765 18.092 7.15804 17.8107 7.43934L14.1036 11.1464C13.8772 11.3728 13.75 11.6799 13.75 12C13.75 12.3201 13.8772 12.6272 14.1036 12.8536L17.8107 16.5607C18.092 16.842 18.25 17.2235 18.25 17.6213V20.25Z" stroke="currentColor" stroke-width="1.5"/>
</svg>
