<svg width="24" height="24" viewBox="0 0 24 24" fill="none" xmlns="http://www.w3.org/2000/svg">
<g clip-path="url(#clip0_44_1058)">
<path d="M19.5017 16.504C21.9891 12.3609 20.6469 6.98575 16.5038 4.49831C13.7749 2.85996 10.5116 2.88297 7.8909 4.27341M4.49803 7.4962C2.01059 11.6393 3.35279 17.0145 7.49592 19.5019C10.2248 21.1403 13.4881 21.1173 16.1088 19.7268" stroke="currentColor" stroke-width="1.5"/>
<path d="M8.7876 1.32324L6.88321 4.49522L10.0983 6.42547" stroke="currentColor" stroke-width="1.5"/>
<path d="M15.2124 22.6768L17.1168 19.5048L13.9017 17.5745" stroke="currentColor" stroke-width="1.5"/>
<path d="M9.25 14.25L7 12L9.25 9.75" stroke="currentColor" stroke-width="1.5"/>
<path d="M15.25 14.25L17.5 12L15.25 9.75" stroke="currentColor" stroke-width="1.5"/>
<path d="M13.25 7L11 17" stroke="currentColor" stroke-width="1.5"/>
</g>
<defs>
<clipPath id="clip0_44_1058">
<rect width="24" height="24" fill="white" style="fill:white;fill-opacity:1;"/>
</clipPath>
</defs>
</svg>
