<svg width="24" height="24" viewBox="0 0 24 24" fill="none" xmlns="http://www.w3.org/2000/svg">
<path d="M11.1113 5.5H5.25C4.83579 5.5 4.5 5.83579 4.5 6.25V17.75C4.5 18.1642 4.83579 18.5 5.25 18.5H8.5V21.2402L13.0586 18.7715C13.3876 18.5933 13.7558 18.5 14.1299 18.5H18.75C19.1642 18.5 19.5 18.1642 19.5 17.75V11.8887L21 10.3887V17.75C21 18.9926 19.9926 20 18.75 20H14.1299C14.0052 20 13.8821 20.0314 13.7725 20.0908L8.10742 23.1592L7 23.7588V20H5.25C4.00736 20 3 18.9926 3 17.75V6.25C3 5.00736 4.00736 4 5.25 4H12.6104L11.1113 5.5Z" fill="currentColor"/>
<path d="M17.1893 3.31066C17.7751 2.72487 18.7249 2.72487 19.3107 3.31066L20.6893 4.68934C21.2751 5.27513 21.2751 6.22487 20.6893 6.81066L12.6893 14.8107C12.408 15.092 12.0265 15.25 11.6287 15.25H8.75V12.3713C8.75 11.9735 8.90804 11.592 9.18934 11.3107L17.1893 3.31066Z" stroke="currentColor" stroke-width="1.5"/>
<path d="M15.75 4.75L19.25 8.25" stroke="currentColor" stroke-width="1.5"/>
</svg>
