<svg width="24" height="24" viewBox="0 0 24 24" fill="none" xmlns="http://www.w3.org/2000/svg">
<path d="M15 7.75H19.75C20.5784 7.75 21.25 8.42157 21.25 9.25V14.75C21.25 15.5784 20.5784 16.25 19.75 16.25H15M9 16.25H4.25C3.42157 16.25 2.75 15.5784 2.75 14.75V9.25C2.75 8.42157 3.42157 7.75 4.25 7.75H9" stroke="currentColor" stroke-width="1.5"/>
<path d="M15.25 3.75H14C12.8954 3.75 12 4.64543 12 5.75V18.25C12 19.3546 12.8954 20.25 14 20.25H15.25" stroke="currentColor" stroke-width="1.5"/>
<path d="M8.75 3.75H10C11.1046 3.75 12 4.64543 12 5.75V18.25C12 19.3546 11.1046 20.25 10 20.25H8.75" stroke="currentColor" stroke-width="1.5"/>
</svg>
