<svg width="24" height="24" viewBox="0 0 24 24" fill="none" xmlns="http://www.w3.org/2000/svg">
<path d="M6.47852 17.249L7.16851 17.543L7.61012 16.5063L6.48337 16.499L6.47852 17.249ZM4.53125 11.417L4.98633 12.0131L5.6588 11.4998L5.06855 10.8937L4.53125 11.417ZM7.19824 6.84277L7.00812 7.56828L8.93462 8.07312L7.8197 6.42291L7.19824 6.84277ZM9.375 2.75V3.5C10.4105 3.5 11.25 4.33947 11.25 5.375H12H12.75C12.75 3.51104 11.239 2 9.375 2V2.75ZM12 5.375H11.25V18.375H12H12.75V5.375H12ZM12 18.375H11.25C11.25 19.5486 10.2986 20.5 9.125 20.5V21.25V22C11.127 22 12.75 20.377 12.75 18.375H12ZM9.125 21.25V20.5C7.9514 20.5 7 19.5486 7 18.375H6.25H5.5C5.5 20.377 7.12297 22 9.125 22V21.25ZM6.25 18.375H7C7 18.0779 7.06025 17.7971 7.16851 17.543L6.47852 17.249L5.78852 16.9551C5.60219 17.3925 5.5 17.873 5.5 18.375H6.25ZM6.47852 17.249L6.48337 16.499C5.1101 16.4901 4 15.3749 4 14H3.25H2.5C2.5 16.2006 4.27686 17.9848 6.47366 17.999L6.47852 17.249ZM3.25 14H4C4 13.1908 4.38531 12.4719 4.98633 12.0131L4.53125 11.417L4.07617 10.8208C3.12143 11.5496 2.5 12.7009 2.5 14H3.25ZM4.53125 11.417L5.06855 10.8937C4.71583 10.5315 4.5 10.0415 4.5 9.5H3.75H3C3 10.4509 3.38165 11.3115 3.99395 11.9403L4.53125 11.417ZM3.75 9.5H4.5C4.5 8.39543 5.39543 7.5 6.5 7.5V6.75V6C4.567 6 3 7.567 3 9.5H3.75ZM6.5 6.75V7.5C6.67017 7.5 6.83956 7.5241 7.00812 7.56828L7.19824 6.84277L7.38836 6.11727C7.11049 6.04445 6.81295 6 6.5 6V6.75ZM7.19824 6.84277L7.8197 6.42291C7.61785 6.12413 7.5 5.7645 7.5 5.375H6.75H6C6 6.07285 6.21252 6.72349 6.57678 7.26264L7.19824 6.84277ZM6.75 5.375H7.5C7.5 4.33947 8.33947 3.5 9.375 3.5V2.75V2C7.51104 2 6 3.51104 6 5.375H6.75Z" fill="currentColor"/>
<path d="M3.75 9.5C3.75 7.98122 4.98122 6.75 6.5 6.75C7.56474 6.75 8.48814 7.3551 8.9451 8.24018" stroke="currentColor" stroke-width="1.5"/>
<path d="M20.2451 9.5C20.2451 7.98122 19.0139 6.75 17.4951 6.75C16.4303 6.75 15.5069 7.3551 15.05 8.24018" stroke="currentColor" stroke-width="1.5"/>
<path d="M12 11.25C12 12.3546 11.1046 13.25 10 13.25" stroke="currentColor" stroke-width="1.5"/>
<path d="M17.5215 17.249L16.8315 17.543L16.3899 16.5063L17.5166 16.499L17.5215 17.249ZM19.4688 11.417L19.0137 12.0131L18.3412 11.4998L18.9314 10.8937L19.4688 11.417ZM16.8018 6.84277L16.9919 7.56828L15.0654 8.07312L16.1803 6.42291L16.8018 6.84277ZM14.625 2.75V3.5C13.5895 3.5 12.75 4.33947 12.75 5.375H12H11.25C11.25 3.51104 12.761 2 14.625 2V2.75ZM12 5.375H12.75V18.375H12H11.25V5.375H12ZM12 18.375H12.75C12.75 19.5486 13.7014 20.5 14.875 20.5V21.25V22C12.873 22 11.25 20.377 11.25 18.375H12ZM14.875 21.25V20.5C16.0486 20.5 17 19.5486 17 18.375H17.75H18.5C18.5 20.377 16.877 22 14.875 22V21.25ZM17.75 18.375H17C17 18.0779 16.9398 17.7971 16.8315 17.543L17.5215 17.249L18.2115 16.9551C18.3978 17.3925 18.5 17.873 18.5 18.375H17.75ZM17.5215 17.249L17.5166 16.499C18.8899 16.4901 20 15.3749 20 14H20.75H21.5C21.5 16.2006 19.7231 17.9848 17.5263 17.999L17.5215 17.249ZM20.75 14H20C20 13.1908 19.6147 12.4719 19.0137 12.0131L19.4688 11.417L19.9238 10.8208C20.8786 11.5496 21.5 12.7009 21.5 14H20.75ZM19.4688 11.417L18.9314 10.8937C19.2842 10.5315 19.5 10.0415 19.5 9.5H20.25H21C21 10.4509 20.6183 11.3115 20.0061 11.9403L19.4688 11.417ZM20.25 9.5H19.5C19.5 8.39543 18.6046 7.5 17.5 7.5V6.75V6C19.433 6 21 7.567 21 9.5H20.25ZM17.5 6.75V7.5C17.3298 7.5 17.1604 7.5241 16.9919 7.56828L16.8018 6.84277L16.6116 6.11727C16.8895 6.04445 17.187 6 17.5 6V6.75ZM16.8018 6.84277L16.1803 6.42291C16.3822 6.12413 16.5 5.7645 16.5 5.375H17.25H18C18 6.07285 17.7875 6.72349 17.4232 7.26264L16.8018 6.84277ZM17.25 5.375H16.5C16.5 4.33947 15.6605 3.5 14.625 3.5V2.75V2C16.489 2 18 3.51104 18 5.375H17.25Z" fill="currentColor"/>
<path d="M20.75 14C20.75 15.7949 19.2949 17.25 17.5 17.25C16.6432 17.25 15.8639 16.9185 15.2833 16.3767" stroke="currentColor" stroke-width="1.5"/>
<path d="M3.25 14C3.25 15.7949 4.70507 17.25 6.5 17.25C7.35677 17.25 8.13611 16.9185 8.71673 16.3767" stroke="currentColor" stroke-width="1.5"/>
<path d="M12 11.25C12 12.3546 12.8954 13.25 14 13.25" stroke="currentColor" stroke-width="1.5"/>
</svg>
