<svg width="24" height="24" viewBox="0 0 24 24" fill="none" xmlns="http://www.w3.org/2000/svg">
<circle cx="12" cy="7" r="1.5" fill="currentColor"/>
<circle cx="6.5" cy="16.5" r="1.5" fill="currentColor"/>
<circle cx="17.5" cy="16.5" r="1.5" fill="currentColor"/>
<path d="M15.2476 8.875C15.5892 8.28336 15.7512 7.63732 15.7506 6.99998C15.7494 5.70521 15.077 4.44635 13.875 3.75241C12.0814 2.71687 9.78794 3.3314 8.75241 5.125C7.71687 6.9186 8.3314 9.21206 10.125 10.2476L6.5 16.5" stroke="currentColor" stroke-width="1.5"/>
<path d="M6.5 12.75C4.42893 12.75 2.75 14.4289 2.75 16.5C2.75 18.5711 4.42893 20.25 6.5 20.25C8.57107 20.25 10.25 18.5711 10.25 16.5H17.5" stroke="currentColor" stroke-width="1.5"/>
<path d="M14.2524 18.375C15.2879 20.1686 17.5814 20.7831 19.375 19.7476C21.1686 18.7121 21.7831 16.4186 20.7476 14.625C19.7121 12.8314 17.4186 12.2169 15.625 13.2524L12 7" stroke="currentColor" stroke-width="1.5"/>
</svg>
