<svg width="2500" height="2500" viewBox="0 0 256 256" xmlns="http://www.w3.org/2000/svg" preserveAspectRatio="xMinYMin meet"><path d="M224.288 43.916l-11.963 84.2-84.2-11.963 11.963-84.2 84.2 11.963z" opacity=".8" fill="#A295AE"/><path d="M31.885 212.291l11.963-84.2 84.2 11.963-11.963 84.2-84.2-11.963z" opacity=".8" fill="#5D6F6D"/><path d="M43.848 32.065l84.2 11.962-11.963 84.2-84.2-11.963 11.963-84.2z" opacity=".8" fill="#8CD592"/><path d="M212.226 224.264l-84.2-11.963 11.963-84.2 84.2 11.963-11.963 84.2z" opacity=".8" fill="#665E74"/><path d="M119.642 255.595l-51.08-67.997 67.998-51.08 51.08 67.998-67.998 51.08z" opacity=".8" fill="#3C3647"/><path d="M255.463 136.39l-67.997 51.079-51.08-67.997 67.998-51.08 51.08 67.998z" opacity=".8" fill="#837193"/><path d="M136.437.554l51.079 67.997-67.997 51.08-51.08-67.998L136.437.553z" opacity=".8" fill="#A2F4AC"/><path d="M.463 119.7l67.998-51.08 51.079 67.998-67.997 51.08L.463 119.7z" opacity=".8" fill="#7EA685"/><path d="M127.963 95.742l32.332 32.333-32.332 32.332-32.332-32.332 32.332-32.333z" fill="#3C3647"/></svg>