<svg width="40" height="40" viewBox="0 0 40 40" fill="none" xmlns="http://www.w3.org/2000/svg">
<path d="M23.7491 10.3853C20.1543 10.3853 16.6111 11.9286 13.9061 14.9628V0H8.55322V25.1909C8.55322 25.1915 8.55322 25.1921 8.55322 25.1928C8.55322 33.3706 15.1826 40 23.3606 40C31.5384 40 38.1679 33.3706 38.1679 25.1928C38.1679 17.0149 31.9269 10.3853 23.7491 10.3853ZM23.3606 34.2968C18.3324 34.2968 14.2563 30.2207 14.2563 25.1927C14.2563 20.1646 18.3324 16.0884 23.3606 16.0884C28.3886 16.0884 32.4647 20.1646 32.4647 25.1927C32.4647 30.2208 28.3886 34.2968 23.3606 34.2968Z" fill="#262626"/>
<path d="M4.66161 32.6767C2.6393 32.6767 1 34.3161 1 36.3383C1 38.3605 2.6393 39.9999 4.66161 39.9999C6.68391 39.9999 8.32322 38.3605 8.32322 36.3383C8.32322 34.3161 6.68391 32.6767 4.66161 32.6767Z" fill="#0000FF"/>
</svg>
