<svg xmlns="http://www.w3.org/2000/svg" xmlns:xlink="http://www.w3.org/1999/xlink" viewBox="-16 -10 85 85" fill="#fff" fill-rule="evenodd" stroke="#000" stroke-linecap="round" stroke-linejoin="round"><use xlink:href="#a" x=".5" y=".5"/><symbol id="a" overflow="visible"><path d="M145.432 17.494c-6.051 0-12.034 2.596-16.584 7.719V0h-9.017v42.455c0 13.786 11.174 24.961 24.961 24.961s24.961-11.174 24.961-24.961-10.534-24.961-24.32-24.961zm-.657 40.298a15.34 15.34 0 01-15.337-15.337c0-8.461 6.876-15.337 15.337-15.337a15.34 15.34 0 0115.337 15.337c0 8.461-6.86 15.337-15.337 15.337zm56.562-40.298c-6.051 0-12.034 2.596-16.584 7.719V0h-9.017v42.455c0 13.786 11.174 24.961 24.961 24.961s24.961-11.174 24.961-24.961-10.551-24.961-24.32-24.961zm-.657 40.298a15.34 15.34 0 01-15.337-15.337c0-8.461 6.876-15.337 15.337-15.337a15.34 15.34 0 0115.337 15.337 15.34 15.34 0 01-15.337 15.337zM69.067 46.821V18.843h9.674v27.893c0 7.129 4.129 11.697 11.09 11.697 7.045 0 11.09-4.399 11.09-11.697V18.843h9.758v27.978c0 12.927-7.837 20.579-20.848 20.579-12.674.017-20.764-7.905-20.764-20.579zM243.101 66.27h-9.674V0h9.674v66.27zm54.775-19.972h-37.028c1.416 7.382 6.59 12.404 15.741 12.404 5.36 0 11.882-2.022 16.096-5.107l4.045 7.129c-4.837 3.607-12.489 6.59-20.494 6.59-17.764 0-25.416-12.404-25.416-24.893 0-7.129 2.191-13.011 6.691-17.68 4.483-4.669 10.382-7.045 17.511-7.045 6.775 0 12.405 2.107 16.719 6.421s6.506 10.112 6.506 17.511a39.392 39.392 0 01-.371 4.669zm-37.045-7.921h27.624c-.792-7.483-6.337-12.32-13.466-12.32-7.298 0-12.742 4.938-14.157 12.32zM38.343 17.494c-6.051 0-12.034 2.596-16.584 7.719V0h-9.034v42.455c0 13.786 11.174 24.961 24.961 24.961s24.961-11.174 24.961-24.961-10.534-24.961-24.303-24.961zm-.657 40.298a15.34 15.34 0 01-15.337-15.337c0-8.461 6.876-15.337 15.337-15.337a15.34 15.34 0 0115.337 15.337 15.34 15.34 0 01-15.337 15.337z" fill="#000" fill-rule="nonzero" stroke="none"/><path d="M0 61.231c0-3.417 2.751-6.169 6.169-6.169s6.168 2.751 6.168 6.169S9.586 67.4 6.169 67.4 0 64.648 0 61.231z" fill="#00f" fill-rule="nonzero" stroke="none"/></symbol></svg>