<svg width="256" height="180" xmlns="http://www.w3.org/2000/svg" preserveAspectRatio="xMidYMid"><path d="M127.843 102.423a51.21 51.21 0 10-51.21-51.186 51.186 51.186 0 0051.21 51.186z" fill="#FFCD00"/><path d="M128.161 128.016h-.171c-35.127-.009-65.777-23.834-74.453-57.872-2.571-10.238-10.898-18.907-21.454-18.907H0c0 70.686 57.303 127.99 127.99 127.99h.171v-51.211z" fill="#00ECBB"/><path d="M127.843 128.016h.147c35.13 0 65.785-23.829 74.452-57.872 2.597-10.238 10.923-18.907 21.48-18.907h32.082c-.013 70.69-57.323 127.99-128.014 127.99h-.147v-51.211z" fill="#AF64FF"/><path d="M218.509 141.73a127.99 127.99 0 01-181.013 0l36.197-36.197c30 29.98 78.618 29.98 108.618 0l36.198 36.198z" fill="#7131FF"/></svg>