<?xml version="1.0" encoding="UTF-8"?>
<svg width="256px" height="180px" viewBox="0 0 256 180" version="1.1" xmlns="http://www.w3.org/2000/svg" xmlns:xlink="http://www.w3.org/1999/xlink" preserveAspectRatio="xMidYMid">
    <g>
        <path d="M127.842941,102.422799 C148.557943,102.422799 167.232752,89.9430648 175.15775,70.8039497 C183.082749,51.6648347 178.696892,29.6363011 164.04567,14.9920862 C149.394449,0.347871373 127.36382,-4.02744714 108.228498,3.90670559 C89.093176,11.8408583 76.6223849,30.5216345 76.6322857,51.2366345 C76.6322857,64.8162922 82.0284637,77.8394047 91.6330281,87.4393758 C101.237592,97.0393469 114.263285,102.42929 127.842941,102.422799 L127.842941,102.422799 Z" fill="#FFCD00"></path>
        <path d="M128.161324,128.015872 L127.989887,128.015872 C92.8629585,128.007001 62.2126807,104.182459 53.5372929,70.1436748 C50.9657395,59.9064431 42.6388046,51.2366345 32.0831902,51.2366345 L0,51.2366345 C0,121.923497 57.3030242,179.226521 127.989887,179.226521 L128.161324,179.226521 L128.161324,128.015872 Z" fill="#00ECBB"></path>
        <path d="M127.842941,128.015872 L127.989887,128.015872 C163.119799,128.015701 193.774788,104.187498 202.442481,70.1436748 C205.038525,59.9064431 213.36546,51.2366345 223.921074,51.2366345 L256.004265,51.2366345 C255.99074,121.927459 198.680712,179.226521 127.989887,179.226521 L127.842941,179.226521 L127.842941,128.015872 Z" fill="#AF64FF"></path>
        <path d="M218.508567,141.730824 C194.505489,165.73598 161.949081,179.222111 128.002132,179.222111 C94.0551839,179.222111 61.4987761,165.73598 37.4956978,141.730824 L73.6933734,105.533148 C103.692767,135.51378 152.311497,135.51378 182.310891,105.533148 L218.508567,141.730824 Z" fill="#7131FF"></path>
    </g>
</svg>