<svg xmlns="http://www.w3.org/2000/svg" viewBox="-2 2 45 45"><path fill="#f4b454" d="M29.714 6.539H9.078a2.11 2.11 0 0 0-2.007 2.762l5.484 16.863 4.219-1.817a3 3 0 0 1-.024-.34 2.641 2.641 0 1 1 1.023 2.081 2417 2417 0 0 1-4.415 2.545l5.156 15.852a.865.865 0 0 0 1.645 0l11.48-35.293a2.026 2.026 0 0 0-1.925-2.653" opacity=".9"/><path fill="#ef6d4a" d="M37.154 21.261 1.071 12.577a.865.865 0 0 0-.861 1.4l10.909 12.8 5.656-2.436a3 3 0 0 1-.024-.34 2.641 2.641 0 1 1 1.023 2.081 2178 2178 0 0 1-4.86 2.8l11.291 13.255a2.11 2.11 0 0 0 3.4-.264l10.8-17.586a2.026 2.026 0 0 0-1.251-3.026" opacity=".9"/><path fill="#20354c" d="M37.636 12.577 1.553 21.261A2.025 2.025 0 0 0 .301 24.29l3.472 5.656 13-5.6a3 3 0 0 1-.024-.34 2.641 2.641 0 1 1 1.023 2.081c-3.1 1.791-9.073 5.234-12.108 6.94l5.432 8.848a2.11 2.11 0 0 0 3.4.264l23.995-28.161a.865.865 0 0 0-.855-1.401" opacity=".9"/></svg>