<svg viewBox="-2 2 45 45" xmlns="http://www.w3.org/2000/svg"><path d="M29.714 6.539H9.078a2.109 2.109 0 00-2.007 2.762l5.484 16.863 4.219-1.817a2.69 2.69 0 01-.024-.34 2.641 2.641 0 111.023 2.081 2416.71 2416.71 0 01-4.415 2.545l5.156 15.852a.865.865 0 001.645 0l11.48-35.293a2.026 2.026 0 00-1.925-2.653z" opacity=".9" fill="#f4b454"/><path d="M37.154 21.261L1.071 12.577a.865.865 0 00-.861 1.4l10.909 12.8 5.656-2.436a2.694 2.694 0 01-.024-.34 2.641 2.641 0 111.023 2.081 2178.15 2178.15 0 01-4.86 2.8l11.291 13.255a2.11 2.11 0 003.4-.264l10.8-17.586a2.026 2.026 0 00-1.251-3.026z" fill="#ef6d4a" opacity=".9"/><path d="M37.636 12.577L1.553 21.261A2.025 2.025 0 00.301 24.29l3.472 5.656 13-5.6a2.689 2.689 0 01-.024-.34 2.641 2.641 0 111.023 2.081c-3.1 1.791-9.073 5.234-12.108 6.94l5.432 8.848a2.11 2.11 0 003.4.264l23.995-28.161a.865.865 0 00-.855-1.401z" fill="#20354c" opacity=".9"/></svg>