<?xml version="1.0" encoding="UTF-8"?>
<svg xmlns="http://www.w3.org/2000/svg" id="Layer_1" data-name="Layer 1" viewBox="0 0 309.88 252.72">
  <defs>
    <style>.cls-1{fill:#003545;}</style>
  </defs>
  <title>MDB-VLogo_RGB</title>
  <path class="cls-1" d="M61.74,214.91,73,258.46h-8.5L57,227.09,42.86,258.46H35.68L21.62,227.27,13.9,258.46H5.58l11.16-43.55H24.1l15.2,33.72,15.14-33.72Z" transform="translate(-5.58 -6.4)"></path>
  <path class="cls-1" d="M105.11,231.74v-5.07h8.21v31.79h-8.21v-5.12c-2.17,3.68-6.63,5.79-12.06,5.79-11.35,0-17.68-8-17.68-17.2,0-8.87,6-16,16.47-16C97.81,226,102.76,228,105.11,231.74Zm-21,10.62c0,5.85,3.68,10.86,10.8,10.86,6.87,0,10.61-4.89,10.61-10.68s-3.86-10.74-11-10.74C87.68,231.8,84.12,236.74,84.12,242.36Z" transform="translate(-5.58 -6.4)"></path>
  <path class="cls-1" d="M131.83,258.46h-8.2V226.67h8.2v7.12A12.58,12.58,0,0,1,143.29,226a14.84,14.84,0,0,1,5.13.84l-1.75,6a18,18,0,0,0-4.34-.6c-5.92,0-10.5,4.46-10.5,11Z" transform="translate(-5.58 -6.4)"></path>
  <path class="cls-1" d="M152.52,218.28a4.17,4.17,0,0,1,4.4-4.28,4.33,4.33,0,0,1,4.47,4.41,4.15,4.15,0,0,1-4.47,4.22A4.22,4.22,0,0,1,152.52,218.28Zm.36,8.39h8.21V249.9c0,1.44.3,2.47,1.5,2.47a8.85,8.85,0,0,0,1.57-.18l1.27,6a14.36,14.36,0,0,1-5.43,1c-3.44,0-7.12-1-7.12-8.81Z" transform="translate(-5.58 -6.4)"></path>
  <path class="cls-1" d="M197.76,231.74v-5.07H206v31.79h-8.21v-5.12c-2.17,3.68-6.63,5.79-12.06,5.79-11.34,0-17.68-8-17.68-17.2,0-8.87,6-16,16.47-16C190.46,226,195.41,228,197.76,231.74Zm-21,10.62c0,5.85,3.68,10.86,10.8,10.86,6.88,0,10.62-4.89,10.62-10.68s-3.87-10.74-11-10.74C180.33,231.8,176.77,236.74,176.77,242.36Z" transform="translate(-5.58 -6.4)"></path>
  <path class="cls-1" d="M218.57,214.91h19.67c16.53,0,24.79,9.11,24.67,21.77.12,13.16-9,21.78-23.22,21.78H218.57Zm5.43,3.86v35.89h15c13.15,0,18.16-8.87,18.16-18.1,0-10.43-6.27-17.79-18.16-17.79Z" transform="translate(-5.58 -6.4)"></path>
  <path class="cls-1" d="M296.45,258.46h-25V214.91H294c8.62,0,16.83,1.62,16.71,11.28,0,6.81-4.23,8.69-8.69,9.41,6.33.54,10.14,4.58,10.14,11.1C312.2,256.47,303.63,258.46,296.45,258.46Zm-1.87-24.55c8.63,0,10.56-3.32,10.56-7.54,0-6.34-3.86-7.78-10.56-7.78H276.66v15.32Zm.24,3.68H276.66v17.19H295.6c5.31,0,10.92-1.75,10.92-8.44C306.52,238.62,300.07,237.59,294.82,237.59Z" transform="translate(-5.58 -6.4)"></path>
  <path class="cls-1" d="M314.08,7.35a4.18,4.18,0,0,0-2.84-.95c-2.83,0-6.49,1.92-8.46,2.95l-.78.4a26.86,26.86,0,0,1-10.57,2.66c-3.76.12-7,.34-11.22.78-25,2.57-36.15,21.73-46.89,40.26C227.47,63.53,221.43,74,213.15,82a54.4,54.4,0,0,1-5.45,4.63C199.13,93,188.37,97.55,180,100.77c-8.06,3.08-16.86,5.85-25.36,8.53-7.79,2.45-15.14,4.77-21.9,7.28-3.05,1.13-5.64,2-7.93,2.76-6.16,2-10.6,3.53-17.09,8-2.53,1.73-5.07,3.6-6.79,5a71.62,71.62,0,0,0-13.55,14.27A84.25,84.25,0,0,1,76,160.27c-1.37,1.34-3.8,2-7.44,2-4.26,0-9.43-.88-14.9-1.81-5.64-1-11.47-1.95-16.47-1.95-4.06,0-7.17.66-9.49,2,0,0-3.91,2.28-5.56,5.23l1.62.73a33.21,33.21,0,0,1,6.92,5,34.72,34.72,0,0,0,7.2,5.12A6.18,6.18,0,0,1,40.1,178c-.68,1-1.68,2.29-2.73,3.67-5.77,7.55-9.14,12.32-7.21,14.92a6.07,6.07,0,0,0,3,.68c12.58,0,19.34-3.27,27.89-7.41,2.48-1.2,5-2.43,8-3.7,5-2.17,10.38-5.63,16.09-9.29C92.61,172,100.42,167,108,164.59a62.3,62.3,0,0,1,19.23-2.7c8,0,16.42,1.07,24.54,2.11,6.05.78,12.32,1.58,18.47,1.95,2.39.14,4.6.21,6.75.21a78.21,78.21,0,0,0,8.61-.45l.69-.24c4.31-2.65,6.33-8.34,8.29-13.84,1.26-3.54,2.32-6.72,4-8.74a2.55,2.55,0,0,1,.32-.27.4.4,0,0,1,.49.08s0,.05,0,.16c-1,21.51-9.66,35.17-18.42,47.31l-5.85,6.27s8.19,0,12.85-1.8c17-5.08,29.83-16.28,39.17-34.14a145.7,145.7,0,0,0,6.17-14.09c.16-.4,1.63-1.14,1.49.93-.05.61-.09,1.29-.14,2h0c0,.42,0,.85-.08,1.28-.24,3-.95,9.34-.95,9.34l5.25-2.81c12.66-8,22.42-24.14,29.82-49.25,3.08-10.46,5.34-20.85,7.33-30,2.38-11,4.43-20.43,6.78-24.09,3.69-5.74,9.32-9.62,14.77-13.39.74-.51,1.49-1,2.22-1.54,6.85-4.81,13.66-10.36,15.16-20.71l0-.23C316.05,10.22,315.13,8.25,314.08,7.35Z" transform="translate(-5.58 -6.4)"></path>
</svg>