<svg xmlns="http://www.w3.org/2000/svg" width="900" height="900"><defs><linearGradient id="a" x1="2.037%" x2="106.275%" y1="113.141%" y2="-7.854%"><stop offset="0%" stop-color="#2FDFBF"/><stop offset="0%" stop-color="#2FDFBF"/><stop offset="100%" stop-color="#2F74FF"/></linearGradient></defs><path fill="url(#a)" d="M900 289.19c0-113.514-67.164-221.622-178.657-267.568C685.075 6.757 647.463 0 609.851 0 552.09 0 495.67 17.568 448.657 48.649 402.985 17.568 347.91 0 288.806 0c-20.15 0-41.642 2.703-63.134 6.757C118.209 29.73 32.239 113.514 6.716 220.27v2.703C2.686 241.892 0 262.163 0 281.081 0 322.973 9.403 363.514 24.18 400l145.074 363.514c21.492 55.405 64.477 101.35 123.582 122.972 21.492 8.109 42.985 12.163 65.82 13.514h502.389l-90-239.19L878.507 400C891.94 363.514 900 325.676 900 289.19m-804.627-8.11c0-12.162 1.343-25.676 4.03-37.838v-2.702c16.12-68.92 75.224-127.027 145.075-140.541 14.776-2.703 29.552-4.054 42.985-4.054 32.238 0 61.79 8.108 88.656 21.622-13.432 18.918-25.522 37.837-34.925 60.81L188.06 556.757l-76.567-191.892c-9.403-28.379-16.12-56.757-16.12-83.784zm693.134 82.433L666.27 659.459l55.074 145.946H362.687q-18.135 0-36.27-8.108c-48.357-17.567-76.566-63.513-76.566-110.81 0-13.514 2.686-28.379 8.06-43.244l173.283-428.378c30.896-74.324 103.433-118.92 180-118.92 24.18 0 49.702 4.055 73.88 14.866 75.225 31.08 119.553 102.703 119.553 178.378-1.343 24.325-5.373 50-16.12 74.325z"/></svg>