<svg xmlns="http://www.w3.org/2000/svg" width="200" height="200"><path fill="#fff" d="M63.607 74.503c-.996-.052-2.687-.084-2.9-1.889-.107-.907 3.614-4.249 2.68-5.58-.233-.332-.909-.69-2.504-1.143-1.904-.42-5.314-.146-11.204 1.977-.265.096.079-.032-.132.044-.229.081-.111.033-.264.088.182-.061-.266.112-1.055.396-.064.031-.11.058-1.054.352-1.293-4.653 2.193-13.24 5.141-13.533 1.2-.119 2.541 1.554 4.262.615 3.1-1.691 3.417-4.277 2.988-7.469-.327-2.43-2.838-.132-4.525.527-1.833.716-1.871 1.146-2.373.659-1.528-1.483-.681-4.84 5.316-11.468 2.105-2.326 3.053-5.638 3.164-6.766.127-1.299-4.059 2.34-4.482 1.45-.294-.62 3.356-4.171 5.229-5.141.869-.45.874.51 1.494.439.808-.092 5.868-4.71 5.536-5.448-.218-.483-3.872 1.626-4.042 1.099-.092-.285 3.779-2.241 3.779-2.241s-.021-.099 0-.176c-1.523.546-21.552 6.944-37.303 30.537C6.151 89.584 16.574 140.516 54.6 165.541s89.339 14.686 114.546-23.067c12.603-18.876 16.318-41.086 12.127-61.688-4.193-20.602-17.543-39.097-22.496-41.477.989.968 1.641 1.579 1.361 1.933-.162.206-1.373.438-2.504-.791-1.132-1.228-6.436-5.342-7.074-6.283-.64-.94-.518-1.26-.176-1.318s.908.137 1.143.264c.233.126-5.178-4.201-5.537-4.438-.357-.236-1.348-.638-1.537-.571-.332.117.862.941.658 1.143-.186.184-.742.08-1.186-.308-.223-.194-6.137-4.498-9.754-5.888-2.141.322-3.507.527-3.734.966-.326.629 4.822 2.7 5.096 3.208.288.532-.811 1.31-1.845 1.45-3.236.438-4.49-1.133-4.878-2.021-1.359-3.121-7.203-1.975-12.346 1.362-2.221 1.441-10.902 1.425-10.984.308-.158-2.147.639-3.563-4.614-2.68-3.693.62-4.682 1.931-4.35 2.197.615.495 3.137 1.382 3.339 2.197.137.554-3.165 3.657-12.259 3.032-.904 4.828-.866 5.897.044 7.381s2.371 2.057 3.208 1.846c1.93-.488 3.839-2.784 5.272-2.812 2.507-.052 4.208 2.361 4.086 5.624.013-.005.032.005.044 0-.003.114-.035.201-.044.308-.004.044.005.088 0 .132-.401 3.607-4.548 2.264-7.338 1.582-3.55-.869-3.575 11.03-.22 13.313-6.562-.697-14.868 2.424-19.245 4.35-3.61 1.588 3.413 4.926 2.197 6.063-1.427 1.335-4.397 2.606-6.678 3.164-1.283.311-4.358.531-5.315.481"/><radialGradient id="a" cx="191.784" cy="258.793" r="58.789" gradientTransform="matrix(0 2.1396 2.1792 0 -509.25 -338.216)" gradientUnits="userSpaceOnUse"><stop offset="0" stop-color="#fff"/><stop offset=".235" stop-color="#fff"/><stop offset=".332" stop-color="#EAEAEA"/><stop offset=".677" stop-color="#C9C9C9"/><stop offset=".702" stop-color="#C9C9C9"/><stop offset=".887" stop-color="#919191"/><stop offset="1" stop-color="#636363"/></radialGradient><path fill="url(#a)" d="M63.608 74.503c-.996-.052-2.687-.084-2.9-1.889-.107-.907 3.614-4.249 2.68-5.58-.232-.332-.909-.69-2.504-1.143-1.904-.42-5.314-.146-11.204 1.977-.265.096.079-.032-.132.044-.229.081-.111.033-.264.088.182-.061-.265.112-1.055.396-.064.031-.109.058-1.054.352-1.293-4.653 2.193-13.24 5.141-13.533 1.2-.119 2.541 1.554 4.262.615 3.1-1.691 3.417-4.277 2.988-7.469-.327-2.43-2.838-.132-4.525.527-1.833.716-1.871 1.146-2.373.659-1.528-1.483-.681-4.84 5.316-11.468 2.105-2.326 3.053-5.638 3.164-6.766.127-1.299-4.059 2.341-4.482 1.45-.294-.621 3.356-4.171 5.229-5.141.869-.45.874.51 1.494.439.809-.092 5.869-4.71 5.536-5.448-.218-.483-3.872 1.626-4.042 1.099-.092-.285 3.779-2.241 3.779-2.241s-.021-.099 0-.176c-1.523.546-21.552 6.944-37.303 30.536-25.208 37.754-14.785 88.685 23.242 113.71s89.34 14.687 114.546-23.066c12.604-18.877 16.318-41.086 12.127-61.688S163.732 41.69 158.778 39.31c.99.968 1.642 1.579 1.361 1.933-.162.206-1.373.438-2.504-.791-1.131-1.228-6.435-5.342-7.074-6.283-.639-.94-.518-1.26-.176-1.318s.908.137 1.143.264-5.178-4.201-5.536-4.438-1.348-.638-1.538-.571c-.332.117.863.941.66 1.143-.187.184-.743.081-1.188-.308-.221-.194-6.137-4.498-9.754-5.888-2.141.322-3.506.527-3.734.966-.326.629 4.822 2.7 5.097 3.208.288.532-.812 1.31-1.845 1.45-3.236.438-4.49-1.133-4.877-2.021-1.361-3.122-7.204-1.976-12.348 1.362-2.22 1.441-10.902 1.425-10.984.308-.157-2.147.641-3.563-4.614-2.68-3.693.62-4.681 1.931-4.35 2.197.616.495 3.139 1.382 3.34 2.197.137.554-3.164 3.657-12.259 3.032-.904 4.828-.866 5.897.044 7.381s2.371 2.057 3.208 1.846c1.931-.488 3.839-2.783 5.272-2.812 2.507-.052 4.208 2.361 4.087 5.624.012-.005.031.005.043 0-.002.115-.035.201-.043.308-.004.044.004.088 0 .132-.4 3.607-4.549 2.264-7.338 1.582-3.55-.869-3.575 11.03-.22 13.313-6.562-.697-14.867 2.424-19.245 4.35-3.61 1.588 3.413 4.925 2.197 6.063-1.427 1.335-4.397 2.606-6.679 3.164-1.285.311-4.359.53-5.316.48"/><path fill="#5a5a5a" stroke="#5a5a5a" stroke-width=".141" d="M62.074 53.631c5.917.295 9.529-1.275 13.181-2.779-6.526-4.731 10.77-7.035 5.891-1.149 4.492.384 8.05-2.313 12.289-3.447 1.699-.455 5.111-.433 6.829-1.141-.091 4.183-4.501 2.734-7.404 2.024-3.55-.869-3.586 11.026-.231 13.309-6.562-.697-14.824 2.44-19.201 4.365-3.611 1.588 3.377 4.899 2.161 6.037-1.427 1.335-4.401 2.628-6.683 3.187-1.285.314-4.349.571-5.303.464s-.895-.784.829-2.853c1.242-1.491 1.875-2.633-.103-4.125-1.57-1.185-2.4-1.385-3.43-1.612-1.904-.42-5.327-.15-11.217 1.972 1.023-6.344 2.587-8.218 3.739-9.587 1.083-1.288 2.669-.521 4.794-.24 2.229.295 3.519-2.337 3.859-4.425z"/><path stroke="#000" stroke-width=".141" d="M68.744 21.292s-3.967 2.121-3.875 2.406c.17.527 3.813-1.546 4.031-1.063.333.738-4.723 5.345-5.531 5.438-.62.071-.6-.918-1.469-.469-1.872.97-5.514 4.536-5.219 5.156.423.891 4.596-2.736 4.469-1.438-.11 1.128-1.051 4.455-3.156 6.781-5.998 6.627-6.841 9.955-5.313 11.438.502.487 2.344-.625 2.344-.625 1.964-5.714 6.981-7.681 7.969-12.969.226-1.21.02-1.227-1.188-3.281 0 0 1.249-1.125 2.031-1.594.815-.489.777.511 1.594.25 1.734-.553 3.134-2.167 4.344-3.719s.365-1.848.406-2.375c.043-.54.403.071 0-.875s-1.437-3.061-1.437-3.061zm61.688 2.875c.027.809-.082 1.658.063 2.438.117.637 1.934 1.56 3.219 2.063 1.041-.08 2.131-.905 1.844-1.438-.276-.508-2.726-1.136-5.126-3.063zm-33.907 3.687c-.087.522.048 2.832.344 4.219 1.196-.563 3.137-1.478 3-2.031-.202-.815-2.875-1.551-3.344-2.188zm47.907.375c-.298.394-.4.569-.5.719.498.388 1.002.497 1.188.313.202-.202-.513-.726-.688-1.032zm5.968 4.594c-.342.059-.482.403.156 1.344.882-.995.145-.141.969-1.063-.234-.126-.783-.34-1.125-.281zm8.375 6.469c-1.17 1.157-.174.194-1.156 1.156 1.131 1.228 2.338.987 2.5.781.279-.354-.353-.969-1.344-1.937zm-62.625.187c-1.433.029-3.382 2.356-5.313 2.844-1.674.423-2.505-1.282-3.625-2.375.419 2.476 1.034 4.875 3.281 5.406 2.117.5 4.474-2.694 6.563-2.688 1.222.003 2.539 2.195 3.156 2.875.303-3.486-1.442-6.116-4.062-6.062zm-37.031 7.906c-.186 3.294.569 6.747-2.531 8.438-1.721.938-3.082-.744-4.281-.625-2.947.292-6.418 8.878-5.125 13.531 1.96-.61.101-.021 2.344-.813.755-4.095 1.773-8.013 4.281-10.125 1.299-1.096 4.68.959 6.219-.313 1.943-1.605 3.816-6.872-.907-10.093zM63.4 67.042c.958 1.326-2.426 4.321-2.688 5.563s1.042 1.785 2.344 1.781c-1.044-.685 1.705-2.743 2.375-4.625.284-.799-.212-1.507-2.031-2.719z"/><path stroke="#000" stroke-linecap="round" stroke-linejoin="round" stroke-width=".141" d="M32.412 113.827c-1.185.124-1.599 1.118-.879 2.899-2.435-.447-4.144-.953-6.195-2.021-.48 1.264 2.94 1.971 4.569 2.725.09.605.144 1.238.22 1.846-.195-.256-.443-.459-.703-.659-.714-.552-1.29-.924-1.933-.923-.386.001-.617-.044-.835.22-.707.854-.31 2.048.747 3.032s2.498 1.458 3.12.791c.015-.017.03-.027.044-.045.211.977.466 1.951.966 2.856.132.132.777.646.747.527-.78-3.861-1.039-4.785-1.274-7.382.288.072.703.216 1.582.352.398 2.361.119.838 1.23 6.415.533.548.883.929 1.406 1.493-.68-3.897-1.222-4.959-1.45-7.732.39.226.708.215 1.054.396-.003-.021.226-.542-.132-1.055-3.581-.706-3.483-5.145 2.988-.527.032.022 1.054-.438.22-1.011-2.323-1.592-4.307-2.321-5.492-2.197m-4.833 4.965c.362.026.963.272 1.362.615.646.555 1.289 1.3.791 1.714-.494.41-1.292-.223-1.889-.836s-.932-1.105-.527-1.449c.06-.053.142-.053.263-.044"/><path stroke="#000" stroke-width=".141" d="M31.279 138.551c2.245.87 3.332 3.609 3.798 4.205l2.302 1.248-1.851-3.752c.772-.086 6.449 2.748 8.879 5.448 1.968 2.188 2.914 4.53 1.476 6.102-.167.183-1.01.22-1.165-.319.596-.69.853-1.719.408-2.906-.445-1.186-1.411-2.67-2.122-3.26-1.477-1.227-3.42-2.387-5.599-3.216.885 2.069 2.06 4.501 3.54 6.911-1.352-1.131-1.916-2.512-2.774-3.524l-2.357-1.316c.228.331.855 1.528 1.227 2.265-.854-1.093-1.338-1.918-2.345-3.574-.447-.735-.79-1.477-1.366-2.206-.505-.64-1.174-1.19-1.331-1.247-.102-.039-.746.012-.72-.859z"/><path d="M172.113 85.299c-.967.927-1.264 2.099-.941 2.596.804 1.244 2.05-.029 2.58-.719.371-.481.592-1.152.541-1.706-.045-.494-.558-1.727-2.18-.171m4.866 2.596c-.088-.452-1.49-5.836-1.514-5.91a4 4 0 0 1-.055-.173c-.061-.218-.43-.188-.675-.234a3 3 0 0 0-.718-.048q-.348.021-.379-.092-.045-.163.271-.366.34-.215 1.068-.396.729-.181.787.122c.122.593.281.922.572 2.066l1.088 4.28c.111.439.352 1.723.44 2.377s-.042 1.053-.211 1.161c-.132.085-.477-1.778-.674-2.787m-.565-.766-2.438 2.766.28 1.094c.065.235.063.45.135.789q.109.508.156 1.225.05.717-.178.845-.108.01-.264-.35a4 4 0 0 1-.237-.723 5 5 0 0 0-.141-.533l-.398-1.786-1.257 1.033a5 5 0 0 0-.331.381q-.231.288-.38.382-.244.156-.995.232c-.751.076-.772.001-.813-.15q-.015-.05.029-.122.041-.07.088-.086a13 13 0 0 0 1.72-.944c.487-.309 1.177-.923 1.933-1.595.752-.67 1.371-1.322 1.892-1.811l1.032-1.146zm-4.014-2.833c.471-.279.98-.635 1.46-.524.479.11.898.697.952 1.254a3.25 3.25 0 0 1-.371 1.912c-.332.62-.799 1.247-1.33 1.68-1.371 1.115-2.192.694-2.592-.106-.396-.792.12-2.458.939-3.342q.028-.033.229-.228c.201-.195.21-.21.227-.24q.057-.111.036-.186c-.021-.075-.053-.094-.117-.133q-.097-.057-.111-.107l.011-.051a.3.3 0 0 1 .081-.066q.117-.074.341-.12c.224-.046.233-.013.252.055q.034.126-.044.383zm-68.439-52.791 1.01-.483.758 1.986 2.913-1.468c1.34 4.981.802 9.445-2.849 14.859-.476-.436-.757-.975-.988-1.327 4.097-6.718 3.788-7.722 3.077-12.109l-4.487 2.434-.013 3.498-1.188.863.049-4.853 2.404-1.341m9.778-.697 3.335 5.569-.86.628-2.921-4.698c-.256.55-1.045 1.997-1.826 2.821a1.1 1.1 0 0 0-.273-.257 1.5 1.5 0 0 0-.213-.236l-.408-.224c.787-1.313 1.144-1.729 1.729-3.041.514-1.15.944-1.882 1.032-3.555l1.019-.045c-.089 1.414-.426 2.161-.614 3.038"/><path fill="none" d="M68.489 20.802c-30.185 12.312-51.411 41.46-51.411 75.89 0 45.48 37.123 82.382 82.867 82.382s82.866-36.902 82.866-82.382c0-21.583-8.381-41.194-22.057-55.889-.944.973-2.523.854-4.744-1.538-1.664-1.792-8.016-7.024-5.141-6.283 2.34.604-5.632-5.603-6.226-4.856-.637.8-.178.256-.636.806-4.143-2.673-8.955-6.833-11.77-5.616-2.064.893-1.936.31-1.701 1.249.236.939 1.389 3.212 3.1 4.092-.036.003-.125.294-2.561-.078-2.87-.438-1.668-3.673-5.035-3.626-1.932.027-4.068-.089-5.577.911-4.81 3.187-8.321 2.968-13.231 3.148-3.752.138-.028-2.932-3.334-3.412-1.465-.214-4.625.04-6.143.931-1.193.702-1.676.047-.931 5.648-3.553 1.583-8.125.495-9.007 1.286-.751.674-1.661 7.343.823 10.7 3.15 4.257 6.264-2.86 9.239-1.122.895.522 2.204 2.139 1.845 2.417-1.58 1.221-2.623-.077-6.59.878-1.654.398-7.293 3.618-11.983 3.38.175-.259.494-.176.847-1.335.56-1.844-3.014-3.809-8.194.031-.395.292.766 1.616 1.319 2.45-2.042.533-5.433 3.064-13.149 2.726.464-3.383-2.749-6.471-3.56-6.399-1.137.101-2.325 1.274-3.6 1.895 1.542-2.774 1.806-3.543 2.713-4.587 2.836-3.266 4.478-4.803 5.559-8.992.108-.417.604-.193-1.271-2.734 3.548-3.262 2.242-.979 3.749-1.461 1.502-.481 4.676-4.711 4.046-5.947-.825-1.619.134-1.868-1.121-4.563"/><path fill="#5a5a5a" stroke="#5a5a5a" stroke-width=".141" d="M178.598 107.902c1.643-2.445-.746-2.914-.467-4.624.494-3.038 3.916-8.803 4.438-9.109-1.035-.245-2-11.437-1.542-12.192-.687.412-.175 7.76 1.028 12.192-2.416 3.692-4.18 8.092-4.252 9.062-.149 2.02 1.713 2.822.795 4.671z"/><path d="M55.229 31.184c.885-.853 1.984-1.952 1.941-1.988-.162-.14-1.229.233-1.59.37-1.958 1.721-3.576 3.544-5.273 5.383l-.773.12c2.392-2.53 4.829-5.06 7.95-7.578l.649-.114-2.068 1.756c.244-.063.629-.189.806-.226.159-.032.945-.258 1.191-.146.313.143-1.321 1.537-1.993 2.281zm3.74 50.565a.9.9 0 0 0-.359.131q-.299.202-.364.482a.58.58 0 0 0 .093.472.71.71 0 0 0 .528.304c.065.007.179-.001.321-.018.146-.02.237-.041.264-.038.188.022.255.172.195.431-.068.301-.266.549-.572.728s-.653.319-1.017.439l-.065.306c1.415-.264 2.248-.875 2.466-1.83.069-.304 0-.595-.179-.892s-.456-.48-.856-.527a1.6 1.6 0 0 0-.455.012m8.536-.472c-2.23.313-4.12 1.124-5.375 2.238-1.255 1.115-2.066 2.763-1.883 4.066.166 1.176.583 2.34 1.685 2.972s1.86.886 3.091.887l.047.721-1.447.257c-.629.088-1.099.064-1.408-.045-.309-.108-.703-.478-.861-.84l-.788.047.222 2.153 6.373-.895-.079-1.903c-2.085-.249-2.477-.819-3.127-1.34-.523-.419-1.091-1.432-1.214-2.311-.17-1.213.39-2.792 1.319-3.664.876-.822 1.749-1.219 3.391-1.582 1.04-.23 2.946-.326 4.025.244.475.25 1.708 1.213 1.901 2.591.296 2.107-.671 4.239-3.649 5.69l.09 1.794 6.978-1.007-.267-2.28-.649.015c-.146.29-.567.881-.746 1.15-.168.252-.411.44-1.132.542l-2.073.287-.024-.752c1.415-.502 2.567-1.248 3.313-2.137.745-.889 1.031-2.446.876-3.547-.19-1.357-1.035-2.365-2.53-3.042-1.498-.677-3.897-.612-6.059-.309m93.944-28.358c-.496.066-1.586.375-1.754.822-.118.316-.291.765.789 1.258.371.169 1.1-.34 1.711-.366 1.221-.052 2.189 2.046 1.615 3.61-.4 1.085-1.649 1.941-2.94 2.477-.895.372-1.572.294-2.188.143q-1.005-.246-1.477-1.384a6.2 6.2 0 0 1-.426-1.75c.002-.541.434-.634.66.592.255.613.722 1.231 1.273 1.361q.829.195 2.012-.296c.604-.25 1.283-.871 1.824-1.592.903-1.203.557-2.109-.044-2.299-.286-.09-1.134.487-1.762.425-1.143-.114-1.999-1.556-2.001-2.071-.002-.652.468-1.021.906-1.326.699-.484 1.922-1.061 1.802.396m2.795 6.933-.137 1.33-1.49-.141.242-1.248zm-2.012 1.318-.119 1.331-1.483-.126.104-1.325zm-96.08 54.973-.277.145c.939.642 1.555 1.14 1.811 1.516.256.375.547.396.92.043s.455-.633.219-.81-1.129-.478-2.673-.894m7.088-.134c.175.862.79 4.597 2.255 10.798l-1.609.047-.792-.302.891.854a13.4 13.4 0 0 1 2.207-.42l12.679-1.448-2.348-.881-1.47.916-2.177-9.57 1.071-.461-1.887-.646-1.298.787-5.57.639zm1.642.622 6.235-.697.545 2.972-6.073.703zm-5.067 1.408-.601.562-5.98.584.796.327c.549-.153 1.16-.251 1.843-.318l3.161-.327c-.698 1.203-1.566 2.261-2.606 3.163s-2.141 1.684-3.328 2.367l.285.125c1.674-.832 3.053-1.617 4.106-2.387.295 3.041.448 4.899.45 5.566l1.349-.604c-.123-.622-.32-2.233-.576-4.878 1.299.473 2.144.871 2.555 1.231s.736.417.961.146c.224-.273.283-.527.199-.753s-.817-.474-2.221-.736c.641-.497 1.307-1.015 2.007-1.551l.728-.202-1.628-.516c-.302.764-.807 1.51-1.491 2.211l-1.153-.174-.045-.561a59 59 0 0 0 1.752-2.271l.998-.398zm5.812 1.86 6.1-.706.635 3.04-6.183.69zm.616 3.312 6.232-.723.712 3.434-6.232.724zm58.86-27.985q.48-.149.888-.063t.49.347q.2.647-1.082 1.553-1.28.906-4.378 1.864-3.113.963-4.674.936c-1.561-.027-1.628-.243-1.761-.674q-.079-.254.201-.556.281-.301.791-.459.511-.158.933-.085.42.073 1.282.5 1.209.615 3.129.021 1.905-.59 2.57-1.783.454-.841.753-1.133.3-.296.858-.468m1.386 4.092c-.171-.547-.909-.302-2.011-.067l-.084-.269 6.609-2.317.082.269c-1.174.571-2.123 1.088-1.938 1.647l1.751 7.807c.082.219.89.061 2.086-.222l.083.269-6.488 2.455-.082-.269c1.322-.657 2.117-1.132 1.877-1.882l-1.324-6.236-8.182 10.198c.425.067 1.489-.018 2.287-.194l.082.27-7.271 2.209-.082-.27c1.531-.727 2.307-1.111 2.235-1.504l-1.731-7.873c-.054-.456-1.4-.392-2.521-.112l-.083-.269 7.73-2.429.083.269c-.82.394-2.871 1.131-2.659 1.831l1.458 6.608zm41.243 17.152c-.322.206-1.773 3.194-2.62 4.923l-1.312 1.454.086-3.426c-.559 1.03-1.526 1.255-1.662 1.103-.2-.225.041-1.359.59-2.082.421-.554 1.342-1.549 1.951-1.62.958-.112.147 2.568.246 3.804.795-1.842 1.741-3.536 2.863-5.248l.22-2.709c-.042-.51-.333-.746-.884-.481-.553.266-1.168.88-1.834 1.615-.911 1.005-2.25 2.491-2.743 3.888l-1.415 1.318c.217-2.534 4.01-6.493 6.432-8.529.545-.459 1.1-.283 1.264.363.166.65-.114 1.461-.086 2.986.828-.791.996-.787.871.221-.131 1.063-.949 2.568-1.625 3.592-.529.8-.501-.103-.342-1.172m-4.312 1.925c-.373.457-.561.673-.521 1.093.027.31.295.104.619-.188.331-.296.548-.658.533-1.078-.02-.519-.377-.137-.631.173m5.258-3.317c-.193.4-.273.944-.127 1.034.129.078.279-.296.434-.659.102-.237.318-.85.178-.986-.132-.126-.366.366-.485.611m-48.362-54.124q.025.084-.03.178a.26.26 0 0 1-.148.122q-.748.282-1.146.714-.397.431-.668 1.388l-2.384 9.559q-.018.127-.255.201a.4.4 0 0 1-.322-.024l-4.227-3.29-2.108 5.227a.4.4 0 0 1-.253.2q-.228.07-.334-.021l-7.621-6.474q-.714-.602-1.34-.736t-1.607.089a.25.25 0 0 1-.172-.013q-.091-.037-.113-.115-.061-.196.104-.247a27 27 0 0 1 1.456-.398q.713-.172 1.331-.361.627-.192 1.471-.495a35 35 0 0 1 1.572-.527q.166-.05.227.146.059.196-.044.228-.68.246-1.015.571t-.233.654q.051.168.294.37l6.268 5.248 1.469-3.851-3.238-2.527q-.872-.676-1.34-.805-.466-.129-1.277.057a.2.2 0 0 1-.156-.017.2.2 0 0 1-.109-.116q-.06-.197.084-.24.691-.212 1.279-.345.57-.128 1.197-.32a23 23 0 0 0 1.296-.442q.7-.26 1.388-.471.166-.05.226.146c.06.196.025.207-.043.228q-1.36.485-1.218.955.064.21.519.554l2.124 1.604.906-2.338q.187-.494.104-.767-.197-.645-1.59-.265-.124.037-.184-.159a.2.2 0 0 1 .021-.152q.042-.082.104-.101a22 22 0 0 1 1.229-.329q.704-.169 1.146-.305.32-.097.927-.321.768-.288 1.293-.449.123-.037.176.131.067.224-.158.293-.786.301-1.201.696-.413.395-.88 1.487l-1.217 3.092 3.813 2.895 1.636-7.369q.1-.406.013-.693-.21-.687-1.603-.307-.125.037-.185-.159c-.06-.196.002-.215.126-.253q.504-.154 1.207-.323.654-.154 1.084-.286.453-.138 1.039-.363.604-.23 1.099-.382.138-.047.191.123m14.871 79.16c-.021-3.786-.076-3.94-.208-6.634-4.428 1.7-11.522 4.574-12.641 4.791-1.17.228-2.635.102-2.391-.762.199-.708 1.609-2.193 2.875-2.657-.405.536-.694 1.016 0 1.063.892.061 4.592-1.49 6.398-2.082 1.789-.587 5.521-2.623 6.624-2.18 1.12.451.882 4.145.882 6.814.001.38.115.701-.063.971-.325.5-.958.557-1.476.676M83.363 153.66c.276.33 1.403.373 1.981.571s3.501.315 4.41.253c1.026-.07 2.216-.533 2.75-.904.459-.317.728-.688.699-1.102-.064-.938-2.606-1.73-4.619-2.158-1.843-.391-5.326-.01-7.9.089-3.184.122-5.569.262-8.387.286-.338.002-.784-.311-.782-.625.003-.475.675-.66.758-1.268.02-.144.039-.277-.045-.31-.05-.019-.517-.038-.749-.005-.179.027-.329.123-.895.146-.232.01-.668 0-.965-.128-.261-.112-1.051-.552.049-.737.39-.065 2.347-.352 3.133.311.803.676-.072 1.525-.072 1.525s2.511.003 3.801-.035c3.388-.103 11.173-.786 11.173-.786.527-.036 1.762-.397 2.083-.595.301-.184.521-.401.431-.582-.379-.76-.868-.73-1.895-.915 1.527-.323 3.148.054 3.233.956.1 1.063-1.098 1.646-2.437 2.178 1.419.221 3.218.806 4.082 1.311.865.506 1.439.916 1.482 1.541.044.635-.284 1.193-1.093 1.711-.922.582-2.147 1.006-4.222 1.096-1.713.073-4.599-.369-5.631-.815-.951.584-2.782 1.21-4.463 1.325-1.515.105-3.691-.14-4.405-.508-.909-.467-1.469-.793-1.509-1.376-.032-.46.099-.927.801-1.106a9 9 0 0 1 2.599-.225c1.57.104 3.349.793 2.332 1.661-.234.2-.641.144-1.171-.009 1.156-1.217-3.406-1.022-3.368-.462q.035.505.925.804c.604.21 2.759.347 3.629.287.929-.064 2.404-.471 2.964-.744s1.038-.295 1.293-.656m-12.06-5.578c.003-.104-.424-.121-.662-.117-.235.002-.641.053-.638.137s.386.188.62.185c.231-.004.677-.104.68-.205m72.451-107.988c-2.576-5.508-3.352-6.882.062-7.438-1.009-.527-1.292-.976-1.95-.798-1.506.406-3.648-1.188-4.617-1.593.963-.372 2.352-.729 2.998-.779.131-.011 1.447.511 1.611.486-.244-.546-2.668-2.069-3.053-1.98-2.09.484-5.148 1.357-6.493 1.711.439.938 4.979 1.489 7.333 2.714.02.792 1.092 6.117 4.109 7.677M30.719 81.217l-.655 1.561c.03.188.22 1.654-.372 2.778l2.04-.035c.033-.761.837-1.978-.776-2.733l.527-1.438 1.905-.044c-.813 1.311-1.208 3.487-1.196 4.201l.668-.015c-.734 2.094-1.008 3.223-1.198 6.109-1.803-1.697-5.234-1.79-5.656-1.562.078-1.116 1.066-3.005 1.232-3.294l-.386-.056.521-1.209 1.801.086c.275-.512.666-1.071.464-2.715-.808-.064-1.475-.137-1.734.017-.455.27-.824.772-.959 2.2-.13-1.377-.115-2.403.278-3.009.198-.315.53-.507.796-.76zm.768 6.261c-.531-.821-3.277-.788-3.59-.771-.445.381-.819 1.515-.958 2.004 1.738-.222 3.731 1.319 4.422 2.004-.028-.944.163-2.175.126-3.237m1.99-6.897c-.341.02-1.07-.662-1.8-1.364-.917-.884-2.663-1.534-3.31-.772-.165.194-.296.377-.285.78.005.168.142.37.382.466.185.073.448.122.804.141-.081.631-.131 1.063-.462 1.065-1.354.011-1.701-1.254-1.603-1.866.114-.706.277-.971.546-1.311.542-.686 1.161-.71 1.737-.744 1.49-.087 2.941 2.455 3.991 3.605m1.038-23.727 2.883-5.56 1.7-.429.723.568-1.982 3.961c-.197.393-.084.814.427.785.549-.031 1.382-.257 1.597-.714l1.535-3.268-.606-1.095 1.715-.82.357.399.567-.031-1.046.622-.37-.492-.702.327.588 1.049-1.503 3.212c-.433.924-2.276 1.376-2.882 1.093-.343-.161-.239-.776-.074-1.118l1.813-3.777-.334-.31-1.275.293-1.86 3.511c.315-.208 1.167-.469.621.52-.311.564-1.379 1.366-1.379 1.366zm.663-.546.427-.834c.53-.434.729-.36.512.028-.157.28-.581.73-.939.806"/><radialGradient id="b" cx="312.711" cy="279.838" r="71.078" gradientTransform="matrix(0 1.4984 1.3097 0 -325.355 -394.3)" gradientUnits="userSpaceOnUse"><stop offset="0" stop-color="#c8c8c8"/><stop offset="1" stop-color="#5a5a5a"/></radialGradient><path fill="url(#b)" d="M77.494 103.215c-2.028 1.587 2.352 2.819 3.201 4.322s-2.012 3.105-1.953 3.111c.084.008 3.224-1.896 2.423-3.332-.802-1.437-4.994-2.726-3.671-4.101m-8.953-81.949c.054-.034-.225.088-.47.181-.043.082-2.352 1.088-3.618 2.243-.049.267.91.869 3.364-.362-.39.584-2.729 3.042-4.269 3.979-.668.407-.498-.543-1.483-.109-1.501.662-5.509 3.605-5.788 5.896-.13 1.076 4.583-2.348 4.341-1.375-.303 1.218-2.265 6.316-5.824 8.826-3.203.584-3.383.554-5.571.977-2.851 0 5.469-4.724 1.592-4.919-4.885-.248-5.668 2.354-6.765 4.485 1.243-2.1 2.22-4.689 6.837-4.413 3.188.191-4.84 4.992-1.736 4.992 2.187-.422 2.512-.428 5.715-1.013 3.559-2.51 5.593-7.698 5.896-9.08.215-.979-4.582 2.482-4.413 1.411.315-2.002 4.293-5.039 5.788-5.715.84-.38.706.624 1.375.217 1.539-.938 4.187-3.629 4.63-4.413-2.455 1.231-3.558.882-3.509.615 1.207-1.099 3.655-2.261 3.908-2.423M44.052 41.089c-.93 1.571-2 2.893-4.847 2.496 2.204-2.627 5.171-5.665 7.053-8.066-1.229.907-1.248.739-.687.108-.841.881-1.075 1.26.29.253-2.334 2.546-4.596 5.186-6.801 7.813 3.155.402 4.154-.976 4.992-2.604m23.874-19.606c-.254.074-.914.309-2.134.724-3.053 1.557-5.918 3.347-9.043 4.811-2.239 2.002-3.58 2.777-5.317 4.377.327-.725-.049-.632-.76-.181.606-.337.923-.322.615.362 1.737-1.6 3.295-2.483 5.534-4.485 3.125-1.464 5.99-3.253 9.043-4.811 1.181-.453 1.667-.649 2.062-.797m67.463 2.207c2.404 1.303 5.304 3.555 8.139 5.1-1.575-1.052-4.251-3.199-8.139-5.1m-9.912 1.193c-.72-.009-1.619.098-2.748.29 7.445-1.014 2.031 5.433 11.611 3.545-7.402.561-3.821-3.77-8.863-3.835m-23.151.616c-2.165.145-4.655.908-5.499 1.664 1.236-.892 5.512-1.783 7.235-1.157 1.526.554-1.095 1.55 1.303 2.966.963.569 4.533.586 7.668.036-3.114.393-6.455-.039-7.162-.289-1.191-.423.341-2.564-1.121-3.039-.641-.209-1.508-.243-2.424-.181m15.519 1.735c-.339 1.23 4.522 7.381 8.066 7.488 1.062.032 1.511-1.123 2.243-1.845.73-.722 1.208-1.187 1.627-1.266.33-.062-.853-.532-1.627.036-.775.568-1.486 2.012-2.135 2.17-2.312.565-6.901-5.639-8.174-6.583m-21.306.29c-.027.08-.043.142 0 .217a.33.33 0 0 1 0-.217m47.929.651c-.026.066.38.325.614.615a1.5 1.5 0 0 0-.434-.542c.669-.141 5.195 3.424 5.787 3.943.973.85-1.005.038-.904.759.169 1.201 3.906 4.468 7.055 7.488-1.639.561-3.689 2.572-3.689 3.798-.002 2.127 3.106 2.963 4.123 4.305.963 1.271-.629 1.993-4.305 3.038 2.041.879 6.205-.382 5.426-2.785-.858-2.647-3.676-2.053-4.232-4.449-.209-.906 2.84-3.209 3.365-3.4 3.467 2.575 8.484 8.187 8.102 9.441-.129.423-1.67-1.107-2.496-.651-1.443.796 3.868 8.895 5.535 9.622.604.264 1.005-3.973.506-3.979-.998-.012-.082 3.27-.688 2.966-.641-.322-4.768-5.611-4.666-7.524.037-.678 2.621.829 2.568-.109-.084-1.533-4.953-7.069-8.935-10.454-5.745-5.455-7.446-6.85-7.126-7.307.347-.441 1.736.407 1.447.036-.676-.864-5.262-4.405-6.547-4.738-.355-.092-.494-.107-.506-.073m.614.615c.105.225.115.411.072.542q.02-.016.037-.036c.112-.157.025-.341-.109-.506m.072.543a.38.38 0 0 1-.324.108c.033.016.074.021.107.036.12.054.177-.018.217-.144m-1.482-.471c.465.303.861.539 1.121.579-.377-.173-.741-.375-1.121-.579m-13.781 3.256c2.166 1.255 4.93 3.773 5.533 5.571.49 1.455-1.178.923-3.255.94 1.995.787 4.593.999 4.341-.796-.319-2.271-4.067-5.724-6.619-5.715m-33.787.47c-2.837.93-5.365.375-8.464.579-.007.099-.023.281-.036.398 2.75-.181 5.39.215 8.5-.977m-8.536 1.23c-.262 1.799-.612 3.609-.543 4.883.013-1.362.375-3.521.543-4.883M49.84 36.856c-1.354.08-3.264.792-3.654 1.592-1.667 3.415-4.08 6.605-7.343 5.57-2.05 1.734-6.248 7.07-6.186 9.478.014.545 2.438-2.649 2.641-2.098.334.907-.757 3.131-1.7 4.666-.808 1.315-1.819 3.047-2.966 3.762-.22.137-.502-1.894-.832-1.447-2.301 3.12-4.967 7.872-4.883 10.924.048 1.735 3.179 2.937 5.317 0 .749-1.028-.086-4.456.832-5.39.55-.559 1.587-1.288 2.858-1.519 1.235-.225 3.994.257 3.798 1.519-.361 2.328-3.612 4.042-2.387 5.245 2.018 1.982 8.366 1.521 11.431-.253-1.458-4.743 1.85-12.94 5.281-13.999 1.186-.366 2.264 1.17 3.762.76 2.756-.756 3.394-3.46 3.437-5.137.04-1.589.433-3.546-.94-3.219-1.76.419-4.75 3.738-6.113 2.459-2.215-2.077 1.09-5.888 2.604-8.681-1.512.011-6.168 1.422-7.054.651-.004 1.388 4.772-.168 6.438-.181-1.514 2.793-4.47 6.328-2.387 8.537 1.065 1.129 4.281-1.643 6.041-2.062 1.374-.327.98 1.233.94 2.822-.042 1.676-.355 3.729-3.111 4.485-1.498.411-2.432-1.306-3.618-.94-3.431 1.059-7.425 9.544-5.968 14.288-3.064 1.775-8.183 1.672-10.201.362-1.439-.935 1.882-3.026 2.243-5.354.196-1.262-2.744-1.853-3.979-1.628-1.27.231-2.814 1.141-3.364 1.7-.918.934-.01 4.451-.868 5.39-2.139 2.34-4.655 1.808-4.703.072-.083-3.053 2.519-7.379 4.521-10.201.322-.453.612 1.403.832 1.266 1.146-.715 2.291-2.647 3.183-3.907 1.027-1.451 2.365-4.586 1.917-5.606-.236-.538-2.847 2.663-2.713 2.134.61-2.407 3.991-6.802 6.041-8.537 3.263 1.034 5.675-2.191 7.343-5.606.446-.914 2.875-1.68 4.196-1.556.213.02.335.056.434.108.089-.233-.048-.384-.579-.434-.164-.014-.348-.046-.541-.035m1.121.471c-.286.749-2.991 2.324-3.364 3.943a.45.45 0 0 0 .145.47c0-.051-.014-.085 0-.145.443-1.921 4.153-3.776 3.219-4.268m79.834.47c-.938-.031-1.498.952-1.483 1.954.024 1.589 3.729 9.086 6.692 10.092-4.939 3.132-6.051 2.256-13.313 3.4 4.711-.299 10.92.659 15.121-3.689-3.732-1.789-6.012-5.936-7.162-9.767-.431-1.431.34-1.281 1.193-1.592-.387-.272-.736-.387-1.048-.398m-43.77 1.158c.016.379.062.664.181.796.042.046.068.064.108.108-.082-.142-.169-.283-.217-.47a4 4 0 0 1-.072-.434m8.537.072c-.162-.004-.326 0-.47.036-2.375.6-4.09 2.99-5.751 2.894-.71-.7-1.081-1.056-1.411-1.375 1.374 1.559 1.747 1.972 3.111 1.519 2.052-.682 3.43-2.814 5.788-2.713.138.006.268.029.398.072-.532-.24-1.111-.418-1.665-.433m-57.949 4.485-.036.072.76.29c-1.339 1.493-6.04 5.94-6.077 9.477-.003.317.09.498.217.615.246.227.793-.275 2.062-1.592.025-.026.308-.342.326-.036.058 1.002-2.955 5.445-3.653 6.258-.379.44-.449.425-.579.072-.308-.834-.411-1.236-.579-1.193-.333.084-2.649 3.16-4.341 6.909-.535 1.185-1.052 2.583-1.375 3.871-.255-.204-.857-.713-1.121-.796l-.073.253c.417.179.788.383 1.302 1.121.573-3.425 3.389-8.872 5.535-11.105.297-.309.621 1.755.94 1.411 1.704-1.833 4.16-5.951 4.087-6.909-.067-.881-1.768 1.552-2.315 1.628-.09.012-.311-.085-.326-.253-.251-2.781 3.276-6.785 6.149-9.73zm108.916 1.628c-4.121-.088-9.361 3.242-8.754 3.871.852.879 5.472-4.281 11.358-3.184-.744-.456-1.653-.666-2.604-.687m.579.977c5.247.816-.491 7.374 6.981 6.33-6.168-.501-.343-6.634-6.981-6.33m-30.674.759c-6.236.206-12.337 3.048-10.418 5.498.938 1.197 5.089 2.422 4.16 3.689-2.068 2.825-7.201 3.125-16.35 4.088 13.663-.297 14.62-1.092 17.653-3.871 2.068-1.898-3.398-2.918-4.232-4.847-.904-2.093 7.317-4.779 13.203-4.269a18 18 0 0 0-2.785-.289 23 23 0 0 0-1.231.001m1.519.76c-.285-.003-.57.019-.868.037-1.427.084-2.951.4-4.052.94 2.82-.399 5.203-1.021 6.439.145.633.597-.834 2.583-.651 3.726.355 2.219 1.403 1.836 11.395 1.266-9.059-.292-11.337 1.105-9.151-4.377.453-1.138-1.121-1.71-3.112-1.737m20.257 2.713a.22.22 0 0 0-.181.072c-.768.917 5.346 4.902 5.209 9.115-.055 1.654.021 1.795-2.605 1.556 2.179.691 3.982.96 4.016-1.411.056-3.984-5.255-9.304-6.439-9.332m31.289 6.005c1.947 3.006 3.429 4.58 5.064 9.188-2.471 1.797-4.827 4.893-4.63 7.56.15 2.029 2.752 3.106 2.676 4.377-.098 1.675-2.818 4.156-4.629 4.63 2.647 1.741 5.885-3.094 5.859-5.317-.013-1.104-2.105-1.549-2.641-3.689-.603-2.408 3.231-6.241 3.581-6.547 1.46 1.271 3.589 14.961 4.991 8.898-1.504 4.053-2.781-5.797-4.521-9.115.803-.478.434-.326 1.158-.977-.11-.251.01-.482-.361-.868-.885.674-.635.398-1.122.868-1.131-3.8-3.014-7.045-5.425-9.008m-59.974 2.423c-7.551 1.948-9.676 1.857-14.687 2.134 5.144.752 8.984-.315 14.687-2.134m-18.629 1.7c-.484.004-1.152.034-2.062.073 2.2.022 2.948.751 2.966.723 2.439 2.163 4.006 5.933 3.871 9.116-.12 2.808-1.073 4.556-5.535 3.328-4.291-1.181-9.327.402-8.428 5.426.606 3.386.743 7.865 6.765 7.416-3.716.046-5.92-4.444-5.643-8.284.375-5.255 5.18-4.869 9.115-3.942 2.137.502 4.115.755 5.245-4.015.429-1.806-.977-5.753-4.557-9.767-.381-.001-.286-.087-1.737-.074m47.603.398c-.392-.01-.74.014-1.085.036-2.068.136-3.261.953-3.364 2.568-.23 3.659 2.892 10.07 7.38 8.935-4.474-2.009-5.973-5.527-5.788-9.333.079-1.626 1.747-2.031 4.124-2.098a14 14 0 0 0-1.267-.108m-49.81.109c-5.286.119-13.002 3.445-15.482 4.702-1.176.597 3.975 3.859 2.966 5.281-2.797 3.945-11.212 4.626-14.976 3.617-3.972-1.065 3.491-6.34 1.338-7.668-2.733-1.688-8.548-.332-14.831 2.351.684 5.737.947 6.656-.326 10.563-.451 1.383-2.113 4.909-5.932 1.953-2.036-1.575-3.839.117-4.269 3.22-.591 4.268.253 8.449 4.087 5.1 1.522-1.33 3.909-.67 4.341.579 1.818 5.261 3.292 8.867.832 13.493 12.313-3.321 17.079-1.232 18.846-.543 2.376.927.17 3.237-1.772 5.896 2.865-2.979 4.292-5.059 2.17-6.403-3.796-2.406-12.763-1.166-18.412.362 1.935-4.125-.049-9.876-1.338-12.914-.75-1.767-3.477-2.388-4.883-.94-4.109 4.229-3.578-2.322-3.184-5.064.248-1.723 1.373-3.691 3.328-2.315 2.084 1.466 4.097 2.917 6.547-1.809 1.751-3.378 1.57-7.315.796-11.141 6.221-2.442 10.667-3.64 13.528-1.772 1.283.838-4.616 4.79-2.604 6.692 2.162 2.044 13.463 1.377 16.748-2.568 2.125-2.552-4.363-5.094-2.46-6.041 3.688-1.834 11.109-4.653 17.038-4.449a9.5 9.5 0 0 0-2.096-.182m50.461.904a6.6 6.6 0 0 0-1.303.145c2.01.683 2.83.823 5.209.398-1.47-.251-2.634-.56-3.906-.543M34.466 62.901c-1.061.008-2.157.257-2.785.832-1.16 1.06-.28 4.173-1.23 5.86-1.341 2.381-4.083 2.792-6.077.651-.68 4.03-2.409 12.244-3.689 11.901.032.021.038.095.072.109 1.27.519 3.155-7.222 3.834-11.214 1.971 2.099 5.185.67 6.511-1.664.94-1.653-.346-4.716 1.013-5.462 1.561-.857 5.619-.751 4.521.579-1.084 1.313-3.057 3.416-2.207 5.317.986 2.205 8.37 2.395 12.19.181.304 4.426.628 9.765-2.17 11.575-1.391.899-2.968-1.812-4.702-1.881-3.775-.154-5.975 10.998-1.375 12.914 1.603.667 2.486-1.776 5.172-2.207 1.443-.231 3.283 10.275 1.7 12.66-2.511 3.784-12.105 1.178-13.818-.795-.884-1.019 2.785-3.605 1.7-5.245-1.843-2.785-7.081-3.773-8.682-2.207-1.985 1.943 1.527 6.029-.036 7.306-1.021.835-3.382-.537-4.268-2.423.183-3.738.994-16.184-.832-12.914-.013-1.39-.044-2.365.036-3.256-.12 1.165-.157 2.394-.145 3.762 1.8-3.248.759 9.055.651 12.841 1.186 2.291 3.706 3.456 4.739 2.604 1.581-1.304-1.792-5.505.217-7.487 1.619-1.598 5.269-.436 7.596 1.845 1.43 1.4-2.143 4.011-1.627 5.281.785 1.936 11.947 5.658 15.337.832 1.674-2.384-.357-13.765-2.532-13.239-2.675.647-3.527 2.919-5.1 2.134-4.266-2.129-1.667-11.744 1.338-11.684 1.755.035 3.44 2.69 4.847 1.772 2.83-1.847 2.694-8.254 2.387-12.769-4.212 2.529-11.656 1.606-12.19.362-.836-1.95 1.255-4.086 2.351-5.426.696-.846-.979-1.458-2.747-1.445m112.027 4.485c-2.624.281-5.432 3.489-4.991 4.196.791 1.271 3.486-3.989 6.041-4.124a3 3 0 0 0-.543-.072c-.173-.009-.332-.018-.507 0m-123.385.941a.34.34 0 0 0-.362.253c-.154.499 1.615-.333 1.085 2.207-.443 2.126-1.181 6.629-2.641 9.441-.178.342-.493-2.198-.832-2.062-1.094.44-2.143 9.442-1.411 10.382.012.016.42-.853.542-.434.697 2.382-.258 3.64-.217 10.165-.161-.584-1.461-3.254-1.556-2.207-.028.311.955 2.299 1.7 3.111-.091-3.564 1.147-9.501.253-11.756-.115-.29-.524.522-.651.651-.154-2.831.023-7.33 1.194-9.333.229-.391.488 2.694.723 2.351 1.582-2.311 2.492-7.537 3.075-10.381.31-1.503-.415-2.36-.902-2.388m124.073.036a.5.5 0 0 0-.325.181c-.086.102 8.188 8.193 5.209 13.022-2.807 4.548-15.184 5.202-16.242 6.113 4.682-.875 14.924-.39 17.941-6.583 2.123-4.358-4.623-12.987-6.583-12.733m-59.83 6.113c-.563-.004-1.08.095-1.519.434 1.779-.115 6.14 1.812 9.296.326-3.756.379-6.089-.747-7.777-.76m77.264.036c-4.078.104-10.223 4.441-9.26 5.534 3.605-1.653 3.729-3.668 10.852-5.317-.473-.181-1.008-.231-1.592-.217m1.158 1.049c1.48 2.771-2.498 10.052 2.821 7.054-3.991.743.11-6.351-2.821-7.054m-33.097 4.052c-6.467-.113-15.613 3.424-15.699 7.017-.053 2.225 7.367 3.263 4.377 5.499-7.617 5.694-17.992 3.558-18.268 4.919 4.625.025 13.785.608 20.257-5.209 2.445-2.198-5.298-4.165-4.884-5.86.771-3.144 11.262-6.49 16.785-6.077a12.7 12.7 0 0 0-2.568-.289m-112.643.325a18 18 0 0 0-.687 3.437c.085-.841.291-1.625.615-2.677.088.335.207.748.398 1.085-.202-.521-.222-1.445-.326-1.845m113.692 1.049c-1.174-.009-2.861.225-4.738.289 4.758-.036 5.818-.554 3.255 4.16-2.026 3.727 4.064 3.341 5.606 3.255-1.635-.067-5.208-.823-3.689-3.4 2.103-3.566 1.522-4.289-.434-4.304m-38.489.543c-3.519.114-5.834 3.325-8.066 3.907 2.252 1.352 5.379-4.168 10.707-3.437a6.5 6.5 0 0 0-2.641-.47m58.6 1.121c-3.521 1.488.93 15.217 5.028 12.479-4.669-1.89-4.55-7.315-5.028-12.479m-57.913.109a1.5 1.5 0 0 0-.253.036c2.146 2.932 6.439 8.378 4.159 13.564-5.984-.118-20.575 3.336-23.512 5.606-4.224 3.267 3.958 5.387 2.532 6.873-2.671 2.784-10.507 3.359-15.337 1.592 2.773 2.358 13.87 1.871 16.278-1.592 1.341-1.93-6.159-3.695-3.581-6.077 2.866-2.648 17.007-5.942 24.778-5.643.11-.357.624-.736.977-1.628 1.557-3.929-3.155-12.261-5.788-12.732-.087-.015-.167-.007-.253.001m68.295 5.823c-2.272.107-4.846 5.357-5.751 5.57 2.671 1.409 4.131-5.23 6.691-5.245-.305-.222-.615-.34-.94-.325m.362.977c-.555 1.639 3.09 2.679 1.229 9.441-1.854.152-4.403-.523-6.655 2.17-.705.843-3.16 10.716.76 14.505-5.287 5.382-14.99 6.195-16.17 6.981-.734 1.493 11.699-.97 16.277-5.86 1.314-1.402 11.986-10.688 13.059-9.982.605.397-1.854 6.82-1.303 7.849.547 1.019 5.689-4.254 6.729-6.547-1.824 2.65-5.365 6.373-5.57 5.498-.533-2.274 2.444-8.302.036-7.56s-9.993 6.559-11.756 8.464c-1.784-.479-2.469-9.201-.76-12.877 1.222-2.629 6.149-.653 6.872-2.857 1.245-3.793-.33-8.642-2.748-9.225M27.015 95.022c-1-.028-1.88.343-2.279 1.411-.539 1.442 1.979 4.869.724 6.258-1.374 1.519-3.176 1.425-5.462-1.339.626 1.389 3.417 3.621 5.933 1.483 1.701-1.445-1.455-4.483-.76-6.402.737-2.034 3.672-1.045 5.317.29 2.122 1.721-1.124 3.354-.688 5.317 1.064 4.789 11.846 5.054 14.216 4.413-1.456 5.018-.48 15.255 7.669 12.118-6.797 2.309-8.64-6.77-6.765-12.732-4.467 1.278-13.997.139-14.577-3.581-.479-3.075 3.545-3.881-.181-6.149-.995-.607-2.147-1.059-3.147-1.087m85.801 2.315c-.518.063-1.801.271-2.785.325-1.313.072-6.971.236-7.018.398-.101.349 5.211-.108 6.512-.145 1.299-.036 3.23-.411 3.508-.579.047-.026-.044-.02-.217.001m-16.061.615c-.527.02-1.025.083-1.519.145 1.908.068 3.099-.066 3.871.181-.129 2.295-4.034 14.407 6.836 14.36-8.161-1.913-5.862-9.182-5.535-14.541-.498-.08-2.071-.205-3.653-.145m-77.192 2.749c-.667 2.583-.136 9.449 1.158 10.996.655.783.766-1.551 2.025.181 1.326 1.822 2.352 6.754 1.375 9.224 1.748-1.979.404-6.359-.651-8.934-1.466-3.577-2.906.297-3.255-2.026-.364-2.411-1.168-5.424-.652-9.441m41.924 2.496c-.611-.015-1.276.012-2.026.036 3.362.296 4.244.403 4.232 1.591-.017 1.773-4.47 4.781-2.243 6.475 2.006 1.525 2.578.95 7.705 1.592-5.208-.967-6.97-1.156-6.8-3.002.172-1.877 3.208-3.826 2.604-5.281-.437-1.055-1.64-1.368-3.472-1.411m-5.425.036c-3.522.057-7.073.465-9.767 1.7-1.503 5.024-2.381 11.628 2.387 13.202 2.509.829 4.811-2.636 7.234-2.134 4.068.842 6.063 7.003 3.617 10.924 3.377-2.441 1.655-11.491-4.196-11.575-3.014-.044-5.369 3.001-6.728 2.278-3.463-1.838-3.004-8.178-1.881-12.443 3.465-1.283 5.287-1.725 12.805-1.916a70 70 0 0 0-3.471-.036m126.061 2.857c-2.658 1.332-2.789 6.508-1.482 9.369-.83-2.8-.841-7.412 1.482-9.369m-66.955.797c-3.886-.031-6.17 4.006-10.092 4.557 3.531 1.841 6.861-4.463 11.864-4.268a6.1 6.1 0 0 0-1.772-.289m-13.564.253c-.338.132-.17 1.415.65 2.423s2.309 1.722 2.75 1.557c.199-.076-1.025-.885-1.881-1.882-.857-.998-1.363-2.16-1.519-2.098m14.324.796c-.166.042-.281.182-.326.397-.123.591 2.452 2.011 2.388 4.739-.038 1.592 1.13 5.492-3.4 4.955-4.806-.57-11.013-.732-11.394 7.09-.132 2.717-.883 4.705 1.266 7.777-5.671.813-21.961 3.408-23.006 5.896-1.188 2.828 4.922 3.662 4.232 4.666-.864 1.256-8.027 2.076-14.36 1.157 1.188 2.255 13.093 2.138 16.061-.94 1.163-1.206-5.281-2.604-4.377-4.594 1.151-2.532 20.809-5.471 23.947-5.391-3.224-4.266-2.211-6.826-1.99-8.572.617-4.853 1.855-7.008 7.524-6.438 4.59.461 7.292.927 7.343-5.462.021-2.604-2.584-5.219-3.726-5.281-.067-.003-.128-.014-.182.001m-92.422 7.523c.608 3.669.538 5.478-.904 2.677-.54-1.048-1.595-2.538-1.591-.94 1.025-1.043 2.398 4.129 2.821 2.713.607-2.035.079-4.45-.326-4.45m119.189.036c-5.338.009-15.549 3.948-17.291 7.487-.981 1.995 6.197 3.426 4.269 4.848-8.375 6.177-20.785 4.509-20.727 5.752 3.063.421 16.913-.418 22.644-6.15 1.594-1.594-5.27-3.268-3.942-5.063 2.397-3.242 12.354-6.626 17.797-6.222-.547-.47-1.518-.654-2.75-.652m19.207.253c-1.953 1.801 2.195 6.906-.47 10.201-2.351 2.906-6.671.279-9.188 4.485-1.762 2.946-2.819 8.71 2.135 7.994-2.657-1.747-2.289-4.808-.615-7.56 2.476-4.071 6.366-.926 8.791-4.559 1.779-2.666 1.797-7.579-.653-10.561m-18.302.797c-.155.02-.284.14-.361.397-1.08 3.582-2.787 4.147-2.75 5.933.023 1.101.68 1.329 3.039.939-.925-.206-1.271-.963-1.23-1.482.119-1.53 1.572-2.988 2.279-4.666.158-.377-.512-1.184-.977-1.121m-87.647.18c2.805 4.074 3.157 7.518 1.266 9.441-.983 1-6.141-3.681-8.464-1.664-3.471 3.013-1.725 10.677 1.158 13.457-4.097.387-10.629-.928-13.312-4.016-1.129-1.299 1.374-2.483.289-4.123-1.419-2.148-9.216-5.566-9.694-3.763-.079.3.027.72.181 1.157-.065-.25-.052-.43.072-.542 1.658-1.507 6.931 2.118 9.116 3.472 1.161.721-1.319 3.177-.362 4.088 3.172 3.021 9.089 5.275 15.048 4.016-2.987-3.467-4.728-9.576-2.098-12.66 1.61-1.889 6.463 2.313 8.935 1.229 2.901-1.272 1.237-9.485-2.135-10.092m-2.858 1.194c-.305.159-.617.308-.904.435.294-.122.592-.272.904-.435m-31.325.036c-.593 4.955 3.075 12.867 7.379 14.65 3.028 1.254-.03-2.182-1.302-4.377 1.041 1.966 2.885 4.242 2.134 4.087-4.202-.866-7.975-8.04-8.211-14.36m89.202 1.375c-.452.014-.767.068-.759.145.029.336 4.871.788 4.846.361-.018-.34-2.729-.549-4.087-.506m-60.771 6.439c-1.825.136-1.717 9.529 1.52 11.937 1.361 1.013 15.939-1.656 21.92 1.809-3.947-4.332-18.064-1.998-21.342-2.496-3.279-.498-3.63-11.41-1.917-11.213-.063-.017-.122-.042-.181-.037m-21.197 1.157c-2.627-.055 2.533 5.047 2.098 6.619 1.501-2.164-3.343-5.388-2.098-6.619m5.824 2.894c1.101 1.186-2.233 3.104 1.664 5.787-2.98-3.349 1.647-4.582-1.664-5.787m127.328 2.206c-2.898-.06-5.493 3.935-7.633 6.149 2.643-1.944 5.068-4.949 8.211-6.077a3 3 0 0 0-.578-.072m-.651.977c-.052-.001-.101.03-.145.072-1.037.984 1.308 5.255-1.05 8.935-3.049 3.537-10.773 6.838-15.408 8.718 3.283-.135 11.931-4.466 14.396-6.945-1.371 3.949-3.355 7.11-.651 6.765-2.24-.689.987-5.46 1.881-7.922 3.578-2.366 5.593-5.082 9.007-8.139-2.115 1.555-5.667 5.437-7.777 6.475 1.937-3.355.514-7.948-.253-7.959m9.694.724c-5.203 9.59-1.674 5.184 2.242.217-3.619 3.304-7 9.614-2.242-.217m-62.904.687c-.434.144-.914.908-.723 1.157 1.556 2.024 3.619 5.347 3.545 6.258-.508 6.144-4.496 3.909-8.646 3.473-2.823-.298-6.749 1.177-6.981 3.617-.347 3.644 2.846 6.521 4.993 5.896-2.506-1.635-3.604-3.588-3.184-5.932.602-3.354 6.915-2.885 9.477-2.424 3.932.707 5.904-2.438 6.078-4.92.109-1.588-1.962-4.289-4.16-7.018-.112-.136-.255-.156-.399-.107m-55.164 4.449c-.453.525 4.703 5.031 4.087 9.26 2.271-2.822-3.663-9.752-4.087-9.26m16.423.035c1.454 1.217 1.063 1.816.145 2.641-2.271 2.042-2.367 2.922 1.375 4.052-2.358-1.962-1.042-2.407-.072-3.292 1.681-1.535 1.541-3.227-1.448-3.401m-17.869.254c-.355-.279 4.483 6.063 3.219 8.754-.778 1.656-7.213-3.842-8.79-1.736-.745.994 1.849 5.377 4.269 7.379-2.61-2.796-4.818-6.166-3.581-7.018 1.911-1.314 6.954 4.153 8.971 2.135 2.303-2.308-2.556-8.309-4.088-9.514m112.823 5.39c-1.07-.079-4.023 3.729-5.354 5.426 1.518-1.642 4.42-4.784 4.774-4.702.314.072-.198 1.578-.615 2.17-2.298 3.268-5.862 4.56-7.886 7.234-1.46 1.799-3.167 3.449-3.291 5.68.275-1.593 2.311-3.951 3.617-5.391 2.738-3.198 5.125-4.396 7.523-6.98.988-1.064 1.797-3.065 1.41-3.364a.3.3 0 0 0-.178-.073m-18.123.94c-5.582.074-17.35 5.543-16.784 7.451.293.988 3.692 1.467 2.858 2.315-3.629 3.685-15.54 4.438-16.676 5.426 6.586-.513 15.313-2.522 18.882-6.04.725-.715-3.854-1.549-3.328-2.389.782-1.249 10.118-6.025 16.061-6.728-.312-.044-.641-.039-1.013-.035m-.109.796c-.651-.278-7.254 7.765-1.809 4.919-2.264-.292 3.222-4.314 1.809-4.919m-98.86 1.447c1.246 4.068 3.924 7.461 7.452 5.933 2.053-.89 9.122 3.319 10.454 8.067-.209-4.041-6.652-9.566-10.526-8.719-3.944.863-3.744-.131-7.38-5.281m-8.356 3.003c-.689.031 2.534 2.394 4.16 4.413.262.326-1.577-1.027-2.062-1.086.45.451 3.232 2.133 2.93 1.557-.67-1.279-4.85-4.27-4.196-4.197 1.28.145 11.373 5.127 8.862 6.006 3.441-.928-6.569-5.611-9.152-6.548-.272-.1-.443-.15-.542-.145m71.08.434c-2.931.234-5.75 2.197-8.573 3.146 2.575.781 5.961-3.178 11.539-2.677a6.5 6.5 0 0 0-2.966-.469m1.157 1.374c-.211.03-.383.146-.542.325 1.509 1.466 3.056 2.482 3.327 4.956.203 1.119-.311 1.818-.832 2.713.606.315.895.06 1.52.072.799-1.042 1.174-2.312.941-3.327-.427-1.853-2.936-4.955-4.414-4.739m-53.066 2.423c7.591 8.336 7.986 10.945-9.26 3.221 12.22 8.281 22.101 6.961 9.26-3.221m-10.562.869c-.061-.017-.112.005-.181.035-.414.186-.493 1.408.542 1.882.264-.665.061-1.806-.361-1.917m63.52 4.883c-6.556.305-17.475 2.742-20.692 3.871-2.16.758 4.685 2.944 3.473 3.183-4.748.934-6.833.838-12.118.29 2.742.898 10.764 1.303 13.926-.218 1.553-.746-5.078-2.295-3.726-2.785 5.813-2.108 12.807-2.704 21.631-4.305a21 21 0 0 0-2.494-.036m39.356.832c-2.875.455-14.803 9.708-6.909 3.146-9.749 7.421 5.522-3.041 7.38-3.11-.104-.056-.28-.066-.471-.036m-36.86.217c-2.167.096-2.372 2.396-2.351 4.016.023 1.769 1.953 3.032 4.594 2.424-1.826-.752-2.701-1.018-2.822-2.857-.111-1.691.154-2.293 1.014-3.582-.164-.015-.291-.007-.435-.001m-45.868 1.193c-1.44.016-2.345.074-2.315.182.159.575 12.522-.124 18.737 2.352-3-2.053-12.102-2.577-16.422-2.534m-4.159.942a.4.4 0 0 0-.181.036c-1.072.507 2.015 4.288 4.883 5.534-3.329-2.307-3.895-5.533-4.702-5.57m1.555.325c1.729 3.825 3.574 5.966 8.03 5.716 2.966-.167 6.72.313 8.935 2.568-2.011-2.473-5.006-3.234-9.803-3.184-3.308.034-5.922-2.904-7.162-5.1m60.951 0c-2.748-.008-8.09 3.376-9.73 3.509 2.244.896 5.776-2.793 10.707-3.291-.268-.16-.584-.217-.977-.218m16.35.253c-3.024.552-10.709 3.16-13.13 5.57-.347.346 1.88.241 1.556.507-2.848 2.333-12.363 3.325-14.434 4.739-.922.63 2.141.686 1.339 1.121-2.173 1.178-8.235.714-10.128 2.352 1.507-.824 10.193-1.687 11.141-2.46.644-.525-2.396-.97-1.447-1.267 3.614-1.129 11.721-2.121 14.795-4.811.607-.531-2.896-.024-1.193-.94 3.539-1.906 8.57-3.902 11.068-4.485.662-.154-1.973 1.542-2.641 2.387.826-.497 3.864-2.857 3.074-2.713m-62.253.47c1.932 1.374-3.706 2.578.796 3.653-1.691-1.963 3.926-2.974-.796-3.653m45.867.434c-.388-.024-.845.082-1.339.326 2.356.871.633 3.714-1.771 3.798-2.418.085-4.362-.107-6.547.977-2.016 1-3.295 2.48-2.605 4.595-4.057.545-11.893 1.662-14.65 2.278-.413.093.21.278.868.435-.262-.176.063-.424.361-.507 2.619-.732 10.723-1.436 15.338-2.026-.398-.969-.9-2.082.397-3.473 1.374-1.471 3.589-1.691 6.692-1.844 1.761-.088 3.524-.971 4.484-2.533.539-.872-.063-1.951-1.228-2.026m-48.291 5.209c1.049.808 2.783 2.459 1.845 2.496-2.179.089-8.884-2.021-7.922-.723 3.695 4.986 15.374 3.802 21.595 5.1-5.244-1.445-16.95-.549-20.257-4.594-1.645-2.013 7.254 1.846 8.03.543.459-.771-2.151-2.223-3.291-2.822"/><path fill="#fff" stroke="#fff" stroke-width=".141" d="M133.182 22.894c-1.272.456-1.797.437-2.387 1.121.363.473 1.457.919 2.025 1.23 4.404 2.413 3.571 2.16 1.699 3.871 3.49-1.713.879-2.495-1.591-3.871-1.138-.633-1.087-.624-1.917-1.23.573-.453 1.194-.757 2.171-1.121zm-14.758 4.015c-.115 0-.061.064-.362.108 1.458 1.308 6.062 7.603 8.356 6.222-2.635.169-5.522-4.1-7.994-6.33zm26.695 1.591c.557.733.435.938.181 1.158 1.325.176.186-.834-.181-1.158zm-14.867 3.365c2.109.59 3.654 1.675 5.027 3.328 1.027 1.236 1.813 2.688 1.086 3.834 2.074-1.134.496-2.632-.977-4.269-1.529-1.697-3.244-2.547-5.136-2.893zm-.796.289c-.694.651-1.629 1.692-1.374 1.917.658.582 1.398-.7 1.374-1.917zm1.7 6.475c-.543-.005-.015 2.411.94 4.232 1.369 2.612 3.399 5.143 5.063 6.149-.053-.261.07-.504.254-.688-3.764-3.39-3.363-4.187-4.848-6.33-1.477-2.133-.594-2.975-1.302-3.328-.044-.022-.071-.035-.107-.035zm29.228 1.954c.382 1.09-.633 1.029-1.374 1.085 4.242 4.114 7 7.374 7.307 9.152-.271-2.569-4.348-6.484-6.656-8.898 1.2-.129.96-1.138.723-1.339zm-3.038.759c-2.998 1.981-3.861 2.753-2.352 4.124-1.043-1.251.371-2.638 2.352-4.124zm-8.14 4.666c2.96 1.174.864 5.689 3.22 5.245-1.641-.931.666-4.253-3.22-5.245zm-4.268.217c-5.57 1.749-8.217 5.341-11.177 6.294 1.392-.368 3.13-1.358 4.558-2.496a11.4 11.4 0 0 1 4.63 4.811c1.187 2.336 3.145 5.555.615 7.162 3.304-1.606 2.316-4.049.435-7.198-1.15-1.923-3.01-3.748-4.667-5.245 1.84-1.231 3.334-2.095 5.606-3.328zm11.033.072c3.197 2.185 3.244 3.895.325 5.824 4.29-2.469 2.329-4.013-.325-5.824zm-35.486 1.158c3.085 2.158-2.167 5.484 1.7 5.715-2.175-1.302 3.133-4.735-1.7-5.715zm-28.757.181c-2.266 6.903-.67 10.396 1.664 13.167 1.98 2.351 5.955 8.135 2.641 12.733-2.404 3.335-7.414-1.199-10.924 1.121-3.291 2.175-2.635 6.862-.072 9.984 4.304 5.242 9.251-4.542 12.335-1.7 5.533 5.098 6.137 11.1 4.016 14.397-.871 1.351-1.53 6.268-1.05 9.223s2.121 3.937 4.957 5.752c3.37 2.156 7.047-2.958 10.598-4.377 3.051-1.22 7.872 9.003 1.303 11.395 7.211.921 5.092-13.289-1.266-12.046-4.58.896-7.355 6.218-11.431 4.305-4.907-2.304-4.136-9.359-3.075-13.564 10.535-1.089 18.941.087 23.982-6.475 1.657-2.157-7.024-4.591-5.1-6.113 2-1.582 7.684-3.771 7.74-3.798-3.768.67-5.399.794-8.682 3.653-2.309 2.013 6.158 4.218 4.521 6.149-4.691 5.542-13.589 6.136-21.305 5.643 1.309-5.273.909-9.112-3.872-13.89-3.856-3.856-9.199 4.668-12.009 2.207-3.522-3.085-3.545-7.804-2.026-9.912 2.499-3.465 8.677 1.979 12.587-1.7 3.249-3.056-.834-8.985-2.604-12.841 2.186-.276 4.861-.561 7.488-.94-3.24.317-6.458.266-8.393.326-2.282-4.409-3.309-7.436-2.023-12.699zm21.884.507c-2.505.79-2.426.458-5.136 1.917-3.639 1.958 4.908 3.407 3.545 5.788-.969 1.689-2.905 2.714-5.209 3.364 2.587-.543 4.77-1.247 5.823-2.134 3.643-3.068-7.308-5.522-3.509-7.126 1.499-.634 2.288-1.04 4.486-1.809zm-6.799 11.068c-1.43.3-2.98.566-4.559.795 1.571-.157 3.127-.391 4.559-.795zm56.97-8.428c-.469-.003 1.068 3.294 1.918 4.376.633.807 2.408 3.139 2.531 2.822.074-.188-1.608-2.112-2.423-3.183-.914-1.204-1.782-4.013-2.026-4.015zm5.644 5.752c.091 2.168-.06 2.038-.435 2.64 1.016.492.868-1.551.435-2.64zm1.628.759c.938 1.259 1.781 2.674 2.459 3.943-.627-1.397-1.38-2.602-2.459-3.943zm2.459 3.979c.479 1.068.922 2.238 1.411 3.653.249-.105-.374-1.711-1.411-3.653zm-36.824.796c-1.397.333-1.006 6.767 3.87 9.152-5.837-4.854-2.131-8.662-3.545-9.116a.66.66 0 0 0-.325-.036zm38.995 4.305c-.018.02-.055.016-.072.036.531 1.679 1.071 3.317 1.483 4.774.421 1.493 1.281 5.247 2.278 4.594-1.021.301-1.772-3.082-2.206-4.775-.354-1.374-.854-2.736-1.483-4.629zm-.905.506c-.788.669-1.735 1.876-1.881 2.062-1.454 1.858-1.974 3.371-1.229 4.811-.496-1.074.432-3.164 1.266-4.304.849-1.162 1.242-1.683 1.844-2.569zm-25.863.94c-.195-.036-.315.034-.325.253-.04.797 6.217 6.036 5.751 12.009.745-.638.325-.438.796-.832.369-5.152-4.854-11.181-6.222-11.43zm-2.821.905c-.795.027-3.648 3.054-3.184 3.255.457.198 3.88-2.773 3.328-3.219-.033-.027-.092-.038-.144-.036zm25.681 5.245c.17.278.342.558.615.832 1.904 1.907 1.703 2.064 1.339 3.4-.286 1.05-1.037 2.163-2.099 3.256 3.277-3.147 3.215-5.024.326-7.307a1.2 1.2 0 0 1-.181-.181zm-4.955 1.194a.44.44 0 0 0-.217.036c-.385.141.985.375.76 3.038-.111 1.292-.541 3.099-.109 3.762.298-.127.037-.206.362-.145-.55-1.445.075-2.545.181-3.69.176-1.927-.459-2.918-.977-3.001zm-3.291.47c-.799.113-4.133 1.89-9.333 5.715-.227 8.477 2.056 13.037 3.798 12.48.506-.162-2.521-1.644-2.93-11.901 6.926-5.503 8.711-5.852 8.645-6.258-.008-.051-.066-.053-.18-.036zm16.314.651c-.151.056-.424.526-.253.796.439.696.201-.637.253-.796zm-45.65 3.834c-1.449.098-3.109.574-4.377.904 2.496-.299 5.867-.7 5.932.615.091 1.848-2.537 4.684-1.375 5.715 3.014 2.674 13.547.803 18.015-3.002-.015-.223.354-.997.145-1.049-2.358 2.46-12.862 6.835-17.11 4.305-1.58-.941 2.561-4.18 1.918-6.041-.431-1.243-1.7-1.545-3.148-1.447zm47.061 2.749c-.027.051-.023.157-.037.29.014-.126.01-.217.037-.29zm.072 3.581c.064.87.122 1.661.145 2.026.02.319.055.69.107 1.121-.049-.42-.059-.812-.072-1.121-.02-.479-.11-1.23-.18-2.026zm-15.338 2.713c-.023 0-.027.012-.036.036-.159.476 1.804 3.125 1.917 5.751.23 5.319-1.944 5.207-1.52 5.607.43.403 2.557-1.625 2.424-5.571-.103-3.089-2.433-5.826-2.785-5.823zm-2.025.868c-1.421 1.286-2.646 3.01-3.834 4.521 2.098-.934 3.017-2.722 3.834-4.521zm17.941 1.628c.131.674.279 1.281.434 1.7a16 16 0 0 1-.434-1.7zm-.506 4.413c-.961 2.304-2.09 3.914-2.967 6.438-.609 1.754.927 2.728.94 3.617.007.41-.103.889-.325 1.41.139-.285.283-.557.434-.868.318-.657-.526-1.552-.904-2.821-.424-1.426 2.029-5.212 2.822-7.776zm-17.435 4.268c-.797.023-1.569.138-1.556.29.03.336 3.207.427 3.183 0-.012-.227-.83-.313-1.627-.29zm-2.098.398c-1.857-.105-2.252 4.626-2.243 6.764.011 2.512.411 6.347 1.556 6.873.119-.242.67-.579.795-.832-1.639-1.364-1.257-3.886-1.446-5.86-.226-2.345 1.69-6.925 1.338-6.945zm12.696 5.498c-.602.141-.085 1.536-.651 3.327-.468 1.48-1.346 3.498-.578 3.871-.063-1.285.742-2.847 1.121-4.377.377-1.531.695-2.958.108-2.821zm7.235.507c-1.219.975-1.919 4.845-1.194 7.27-.502-2.657.067-6.147 1.194-7.27zm-10.056.867c-3.218 2.176-6.928 4.916-9.803 7.633 3.864 5.921 2.039 11.766-2.713 14.071 6.832-2.306 6.807-11.587 3.798-14.505 2.142-2.146 7.91-6.198 8.718-7.199zm6.293 1.664zm-132.681 6.258c1.721 2.963 3.452 3.566 5.354 3.111 2.168-.52 4.339-2.639 5.788-1.953 2.629 1.242 4.394 6.559 2.424 9.514-2.042 3.061-6.09-1.74-9.188-.832-3.094.906-.872 11.086 1.809 12.985-6.577 1.474-12.549-1.36-15.626-4.015 1.221 3.735 10.861 6.795 15.808 4.521 2.955 2.79 6.288 8.225 4.051 9.947-2.149 1.655-7.527-3.034-8.862-1.772-.784.74 2.86 6.826 5.498 7.597 1.803.525 3.561-1.244 6.077.904-1.98-2.47-3.133-1.398-5.535-1.375-3.275.032-6.47-6.299-5.751-6.981 1.221-1.16 6.617 4.569 9.296 1.845 2.2-2.236-1.958-7.329-3.87-10.346 7.29-.254 17.543-1.541 16.965 2.604.827-.784.861-1.413-.398-2.567 4.802.22 2.888 3.192.977 4.449-1.298.853 1.091 2.524 2.134 2.893 4 1.415 12.4 1.156 16.676-1.844 1.203-.845-5.987-4.095-4.992-4.703 5.611-3.427 16.154-3.93 22.682-5.244-5.893.543-17.249 1.604-23.26 4.847-1.366.737 5.72 3.585 4.449 4.774-1.831 1.715-6.845 2.6-10.997 2.46-4.151-.14-7.613-1.548-5.86-2.785 9.126-6.457-8.503-5.841-18.737-5.317-3.519-1.953-4.861-11.688-2.532-12.407 2.87-.886 7.421 3.872 9.948.435 2.221-3.021.394-9.012-3.654-10.093-1.802-.481-3.779 1.536-5.534 2.062-2.366.708-3.786-1.083-5.14-2.714zm115.5.615c-3.684 4.504-9.988 6.537-13.275 7.198 7.375-.979 11.1-4.528 13.529-6.583.08-.847-.101-.474-.254-.615zm-16.242.29c1.823.861-2.681 5.764-1.953 5.86.676.09 5.081-5.007 1.953-5.86zm-4.377.795c-4.214.86-8.532 2.083-11.503 4.558-3.132 2.609 5.804 3.572 3.292 5.86-6.04 5.503-14.979 5.803-23.042 6.728 2.684 3.412 4.9 5.646 3.653 9.405-1.977 5.962-10.161.503-14.18 3.87-2.377 1.992-.46 5.912 2.569 6.729-1.796-1.412-4.53-4.395-2.424-6.222 3.738-3.243 12.921 1.53 15.265-3.835 1.051-2.402-2.26-7.564-3.473-9.44 8.111-.585 17.082-2.45 22.971-7.632 1.537-1.354-6.543-3.356-4.232-5.137 3.633-2.8 9.452-4.449 11.104-4.884zm-31.723 2.244c-.467-.049-.947.408-1.41 1.157.419-.47.875-.866 1.41-1.157zm-1.483 1.265c-2.853 3.328-2.874 10.278.904 12.949-3.542-3.557-2.524-10.187-.904-12.949zm48.725 8.61c-2.701.973-4.306 6.921-1.809 8.5.409-1.473-1.373-4.4 1.809-8.5zm7.017 3.218c-.061.004-.126.043-.182.109-.736.878 1.573 3.87-.543 8.029 2.892-1.624 1.626-8.194.725-8.138zm9.188.832c-.192-.105-1.889 3.646-2.895 5.281 1.218-1.606 3.031-5.204 2.895-5.281zm-11.395.145c-1.895 1.314-3.75 3.469-5.715 4.848 3.018-1.44 4.26-3.449 5.715-4.848zm9.297 1.122c-2.971 2.502-5.945 5.903-9.225 8.03-.799 2.123-3.618 6.57-2.062 7.451-.585-1.133 1.096-5.175 2.351-7.307 2.809-2.417 6.944-5.998 8.936-8.174zm-10.888 9.585c-3.98 3.248-7.185 4.667-13.492 7.055 4.602-1.545 8.398-2.685 13.312-6.62.08-.224.045-.15.18-.435zm6.041.072c-.183-.029.984 1.712-4.051 6.041 3.688-2.459 5.289-5.837 4.051-6.041zm-17.761 1.485a2 2 0 0 0-.397.107c1.58-.152-1.996 3.332-2.641 4.812 1.571-1.328 4.775-5.259 3.038-4.919zm16.351 0c-.697.279-4.293 4.12-4.27 4.195.038.113 4.613-3.977 4.342-4.195-.02-.016-.027-.02-.072 0zm-18.196.614c-3.457.964-11.111 3.063-13.492 5.823-.613.711 3.996 1.521 3.111 2.389-4.754 4.648-15.684 6.178-20.148 6.293-1.369 2.516-2.679 6.193.939 6.837-2.533-1.372-1.049-4.282-.434-6.222 3.096-.615 16.154-1.881 20.619-7.126 1.042-1.226-4.129-1.079-3.582-1.953 1.353-2.16 8.538-4.503 12.987-6.041zm-33.025 5.643c5.279 4.664 3.844 6.912 3.074 8.319 1.118-.554 1.13-.549 2.063-1.085.611-3.053-2.592-6.23-5.137-7.234zm-2.098.145c-2.999.218-5.005 2.569-9.116 3.074 4.704.149 6.47-2.355 9.694-3.074-.21-.006-.379-.016-.578 0zm47.567.939c-.51.011-3.685 3.584-5.317 6.476 2.266-3.489 5.467-6.13 5.39-6.403-.01-.032-.039-.073-.073-.073zm-45.614 8.538c-6.67.604-15.055 1.87-19.86 3.437-1.032.337 5.01 2.202 4.015 2.641-3.145 1.384-8.769 1.764-13.094.94 3.789.792 11.24 1.168 13.927-.723.869-.613-5.421-2.525-4.341-2.822 4.322-1.189 13.115-2.53 19.353-3.473zm31.47 2.423c-.095-.105-3.718 2.782-3.617 3.002.098.215 3.845-2.749 3.617-3.002zm-16.748 1.013c-.23.003-.479.005-.759.036 2.053.665 2.316 2.209-.941 4.341-1.32.864-6.094.305-8.465 1.881-1.682 1.12-1.49 3.599-.723 3.292.529-.211-.207-1.825 1.157-2.93 2.8-2.268 6.361-.761 9.224-2.424 1.961-1.138 3.967-4.232.507-4.196zm-44.818.036c1.836.742-1.838 2.285-.651 3.039.037-.575 4.202-1.825.651-3.039zm42.612 0c-.338-.059-2.068.66-3.799 1.52-1.033.514-2.437 1.203-3.256 1.266-.905.069-1.3.076-1.338.182.573.375 3.711-.624 5.715-1.592 1.918-.926 2.712-1.175 2.75-1.303.012-.042-.024-.064-.072-.073zm16.06.182c-3.446.91-7.303 2.787-10.092 4.231-.726.376 1.936.022 1.591.579-1.38 2.233-15.04 4.637-14.976 5.1.034.244 1.607.4 1.736.797.199.607-1.869.924-3.002 1.157 1.574.1 4.355-1.105 3.509-1.302-.877-.204-1.298-.598-1.411-.797-.244-.426 12.109-2.379 15.048-5.027.378-.34-1.888-.443-1.628-.688.954-.892 8.669-3.781 9.225-4.05zm-59.287 2.892c.008.022-.022.054 0 .073.249.075.533.116.796.181-.28-.08-.603-.17-.796-.254zm-2.207 2.787c1.153.698 2.844 2.378 1.917 2.677-2.218.713-6.177-1.23-7.922-1.266-.901-.018 1.412 1.646 2.496 2.098-.614-.308-2.603-1.838-2.098-1.809 1.83.105 6.079 1.941 8.284 1.229 1.36-.438-.895-2.063-2.677-2.929zm28.034 5.353c-4.414.507-8.378 1.019-6.982 1.339-.168-.342 3.246-.869 6.982-1.339zm-24.669.181c4.012.468 8.46.982 8.537.904-.083-.125-4.585-.508-8.537-.904zm10.634 1.193c-.357.041-.633.35-.579.362.205.048 1.127-.185.94-.29a.56.56 0 0 0-.361-.072zm10.238.072c.857.447-.549.678-2.786.797 2.189-.088 4.264-.265 2.786-.797z"/></svg>