<?xml version="1.0" encoding="utf-8"?>
<svg version="1.1" id="f5logo" xmlns="http://www.w3.org/2000/svg" xmlns:xlink="http://www.w3.org/1999/xlink" x="0px" y="0px"
	 width="48.5px" height="44.5px" viewBox="0 0 48.5 44.5" enable-background="new 0 0 48.5 44.5" xml:space="preserve">
<circle id="bg" fill="#E21D38" cx="22.5" cy="22.3" r="22.2"/>
<path fill="#FFFFFF" d="M21.99,24.49c10.9,0.9,15.1,3.9,14.9,8c-0.2,2.2-2.3,4.3-5,4.5c-3.2,0.2-4.7-1.1-5.6-2.5
	c-0.8-1.3-1.7-2.6-2.6-4c-0.2-0.4-0.6-0.1-0.9,0.1c-0.7,0.6-1.3,1.3-1.9,1.9c-0.4,0.4-0.3,0.7-0.2,1c0.6,1.4,1.2,2.8,1.8,4.1
	c1,0.6,5.5,1.4,8.8,1.1c2.3-0.2,5.1-1.1,7.5-2.8c2.3-1.8,4-4.2,4.3-8.1c0.1-2.4-0.3-4.9-2.4-7.2c-2.1-2.3-5.7-4.2-13-4.7
	c0.4-1.2,0.7-2.3,1.1-3.4c4.4,0.2,8.3,0.5,11.6,0.9c0.3-1.3,0.4-2.5,0.7-3.7l-0.9-1.1c-1.7-0.2-3.3-0.6-5.1-0.8
	c-2.3-0.3-4.7-0.5-7.3-0.6C26.09,11.99,24.09,18.09,21.99,24.49 M19.09,5.79c-0.8,0-1.9,0.2-3.7,0.6c-3.9,1.1-8.7,3.8-9.2,8.3
	c-0.1,0.7-0.1,1.5-0.2,2.2c-1.1,0.1-2.1,0.2-3.1,0.3c-0.1,0.9-0.1,1.7-0.2,2.6c1-0.1,2-0.1,3.1-0.2c-0.2,4.7,0,9.4,0.4,13.8
	c0.1,0.7,0.1,1.3,0.1,1.7c-0.1,0.4-0.8,0.6-1.8,0.6l1.3,1.6c3.8,0.7,8.6,1.2,13.7,1.3c0-0.5,0-1,0-1.5c-3-0.2-4.4-0.6-4.6-1.2
	c-0.2-0.5-0.2-1.2-0.3-1.9c-0.2-4.6-0.3-9.6-0.2-14.7c1.7,0,3.4,0,5.1-0.1c0.9-0.4,1.7-0.8,2.5-1.2c0-0.6,0-1.2,0-1.7
	c-2.6,0-5.1,0.1-7.6,0.1c0.1-2.1,0.2-4.1,0.3-6c0.1-1.3,1-2.2,1.8-2.2c1.4-0.1,2.7,0.5,4,1.1c0.7,0.3,1.4,0.7,2.1,1
	c0.3,0.1,0.7,0.2,1-0.1c0.4-0.5,0.8-1,1.2-1.4c0.2-0.3,0.1-0.5,0-0.6c-0.9-0.7-1.7-1.3-2.6-2c-0.5-0.4-1.4-0.4-2.2-0.4
	C19.69,5.69,19.39,5.79,19.09,5.79"/>
	<text transform="matrix(1 0 0 1 45.4951 36.8469)" fill="#E21D38" font-family="'Arial'" font-size="2.2">R</text>
	<circle fill="none" stroke="#E21D38" stroke-width="0.2742" stroke-miterlimit="10" cx="46.23" cy="36.07" r="1.53"/>
</svg>

