<?xml version="1.0" encoding="utf-8"?>
<svg viewBox="30.0354 21.6399 25.8853 28.023" xmlns="http://www.w3.org/2000/svg">
  <path d="M 55.285 33.621 L 47.685 33.621 C 47.251 33.621 46.92 34.065 47.075 34.479 L 48.905 39.215 C 48.985 39.426 48.821 39.65 48.595 39.639 L 46.258 39.494 C 46.151 39.486 46.048 39.537 45.99 39.628 L 44.17 42.203 C 44.074 42.354 43.873 42.396 43.725 42.296 L 41.037 40.466 C 40.931 40.393 40.791 40.393 40.685 40.466 L 36.963 42.989 C 36.725 43.154 36.404 42.927 36.487 42.647 L 37.521 38.935 C 37.566 38.781 37.485 38.619 37.335 38.563 L 35.36 37.757 C 35.164 37.679 35.102 37.433 35.236 37.271 L 36.983 35.12 C 37.069 35.012 37.073 34.86 36.993 34.748 L 35.525 32.628 C 35.389 32.432 35.517 32.162 35.755 32.142 C 35.757 32.142 35.76 32.142 35.763 32.142 L 38.038 31.966 C 38.204 31.956 38.338 31.811 38.328 31.636 L 38.152 28.451 C 38.143 28.221 38.372 28.058 38.586 28.141 L 41.409 29.309 C 41.533 29.361 41.678 29.329 41.76 29.226 L 43.704 27.055 C 43.858 26.882 44.138 26.926 44.232 27.137 L 45.4 30.147 C 45.555 30.519 46.02 30.653 46.352 30.405 L 50.922 27.003 C 51.439 26.62 51.108 25.793 50.467 25.886 L 47.457 26.29 C 47.315 26.31 47.177 26.228 47.127 26.093 L 45.545 22.03 C 45.375 21.605 44.819 21.504 44.511 21.843 L 41.068 25.576 C 40.977 25.67 40.837 25.699 40.716 25.649 L 36.187 23.736 C 35.782 23.568 35.335 23.856 35.319 24.294 L 35.153 28.968 C 35.147 29.127 35.022 29.256 34.863 29.268 L 30.728 29.536 C 30.249 29.566 29.983 30.103 30.248 30.502 C 30.25 30.504 30.251 30.506 30.252 30.508 L 33.002 34.562 C 33.083 34.679 33.075 34.836 32.982 34.944 L 30.19 38.15 C 29.91 38.468 30.025 38.968 30.417 39.132 L 33.623 40.518 C 33.765 40.576 33.84 40.731 33.799 40.879 L 31.751 48.883 C 31.632 49.349 32.062 49.769 32.525 49.639 C 32.596 49.619 32.663 49.587 32.723 49.544 L 40.416 44.023 C 40.524 43.945 40.67 43.945 40.778 44.023 L 44.284 46.483 C 44.573 46.69 44.966 46.608 45.162 46.318 L 47.355 42.958 C 47.418 42.856 47.537 42.802 47.655 42.823 L 52.897 43.454 C 53.321 43.516 53.745 43.164 53.59 42.772 L 51.408 37.126 C 51.346 36.971 51.408 36.806 51.594 36.712 L 55.574 34.83 C 56.164 34.53 55.957 33.62 55.285 33.62 L 55.285 33.621 Z" fill="#9069E7"/>
</svg>