<svg width="416" height="105" viewBox="0 0 416 105" fill="none" xmlns="http://www.w3.org/2000/svg">
<g clip-path="url(#clip0_107_120)">
<path d="M25.04 87.5997C9.66 87.5997 0 77.7397 0 61.2797V61.1897C0 44.9197 9.9 34.9697 25 34.9697C40.1 34.9697 50.09 44.8297 50.09 61.1897V61.2797C50.09 77.7897 40.33 87.5997 25.05 87.5997H25.04ZM25.09 76.7997C31.79 76.7997 36.08 71.1397 36.08 61.2797V61.1897C36.08 51.4297 31.69 45.7697 25 45.7697C18.31 45.7697 14.01 51.4297 14.01 61.1897V61.2797C14.01 71.1797 18.3 76.7997 25.09 76.7997ZM57.21 86.5597V35.9997H70.98V44.2997H71.26C73.85 38.4997 79.04 34.9597 86.68 34.9597C97.81 34.9597 104.13 42.0797 104.13 53.9197V86.5597H90.36V56.7497C90.36 50.1497 87.25 46.3697 81.07 46.3697C74.89 46.3697 70.98 50.8997 70.98 57.4997V86.5497H57.21V86.5597ZM135.88 87.5997C120.41 87.5997 111.02 77.5497 111.02 61.3797V61.3297C111.02 45.2497 120.5 34.9597 135.31 34.9597C150.12 34.9597 159.41 45.0097 159.41 60.2897V64.5297H124.6C124.74 72.5997 129.13 77.3097 136.16 77.3097C141.82 77.3097 145.26 74.1997 146.25 71.3697L146.34 71.0897H158.98L158.84 71.6097C157.28 79.0597 150.3 87.5997 135.87 87.5997H135.88ZM135.55 45.2497C129.89 45.2497 125.64 49.0197 124.75 55.8597H146.21C145.36 48.8797 141.26 45.2497 135.55 45.2497ZM187.72 87.5097C174.09 87.5097 164.99 77.6497 164.99 62.0397V61.9497C164.99 46.3397 174.14 36.5697 187.68 36.5697C201.22 36.5697 210.41 46.2897 210.41 61.9497V62.0397C210.41 77.6997 201.26 87.5097 187.72 87.5097ZM187.77 80.2397C196.4 80.2397 202.01 73.5397 202.01 62.0297V61.9397C202.01 50.4297 196.35 43.8297 187.67 43.8297C178.99 43.8297 173.38 50.4797 173.38 61.9397V62.0297C173.38 73.5897 179.09 80.2397 187.77 80.2397ZM218.71 86.5597V37.5097H226.92V45.8097H227.11C228.76 40.1497 233.01 36.5697 238.52 36.5697C239.94 36.5697 241.16 36.8097 241.82 36.8997V44.8697C241.16 44.6297 239.41 44.3997 237.43 44.3997C231.06 44.3997 226.91 48.8297 226.91 56.2897V86.5697H218.7L218.71 86.5597ZM253.14 29.2097C250.31 29.2097 248 26.8997 248 24.0697C248 21.2397 250.31 18.9297 253.14 18.9297C255.97 18.9297 258.28 21.1897 258.28 24.0697C258.28 26.9497 256.02 29.2097 253.14 29.2097ZM249.03 86.5597V37.5097H257.24V86.5597H249.03ZM289.17 104.02C277.05 104.02 269.41 98.3097 267.8 91.0497L267.71 90.6297H275.96L276.15 91.0497C277.71 94.5897 282.38 96.7597 289.07 96.7597C297.7 96.7597 302.61 91.9997 302.61 84.3997V78.1297H302.42C299.5 83.5497 293.84 87.0397 286.81 87.0397C274.45 87.0397 266.01 77.0897 266.01 61.7597V61.7097C266.01 46.4797 274.55 36.5697 287 36.5697C293.93 36.5697 299.4 40.3397 302.42 45.8097H302.61V37.5097H310.82V85.1897C310.82 96.5597 302.47 104.01 289.17 104.01V104.02ZM288.61 79.7697C296.96 79.7697 302.62 72.6497 302.62 61.7497V61.6997C302.62 50.8997 296.91 43.8197 288.61 43.8197C279.89 43.8197 274.41 50.7997 274.41 61.6997V61.7497C274.41 72.8797 279.88 79.7697 288.61 79.7697ZM326.06 29.2097C323.23 29.2097 320.92 26.8997 320.92 24.0697C320.92 21.2397 323.23 18.9297 326.06 18.9297C328.89 18.9297 331.2 21.1897 331.2 24.0697C331.2 26.9497 328.94 29.2097 326.06 29.2097ZM321.95 86.5597V37.5097H330.16V86.5597H321.95ZM341.34 86.5597V37.5097H349.55V44.4897H349.74C352.38 39.9097 357.38 36.5697 364.83 36.5697C375.58 36.5697 381.81 43.5497 381.81 54.7297V86.5697H373.6V56.1997C373.6 48.2297 369.87 43.8397 362.33 43.8397C354.79 43.8397 349.55 49.3597 349.55 57.7097V86.5797H341.34V86.5597Z" fill="white"/>
<mask id="mask0_107_120" style="mask-type:luminance" maskUnits="userSpaceOnUse" x="367" y="0" width="49" height="49">
<path d="M415.75 0H367.48V48.27H415.75V0Z" fill="white"/>
</mask>
<g mask="url(#mask0_107_120)">
<path d="M371.02 0.199564C374.42 0.399564 377.77 0.929564 381.02 1.90956C395.91 6.38956 406.48 15.7596 412.38 30.1896C415.67 38.2296 416.48 46.6196 415.11 55.1796C413.1 67.7696 407.07 78.0596 396.91 85.7496C385.65 94.2696 372.92 97.0796 359.05 94.5796C349.63 92.8796 341.47 88.5896 334.65 81.8796C326.17 73.5296 321.45 63.3696 320.54 51.4796C320.21 47.1596 320.38 42.8496 321.23 38.6196C322.21 33.6896 323.9 28.9996 326.39 24.5996C328.8 20.3396 331.73 16.4896 335.3 13.1496C343.36 5.59956 352.9 1.30956 363.92 0.329564C363.92 0.329564 367.29 0.00956387 371.02 0.229564V0.199564ZM405.97 47.6996C405.97 26.6896 389.03 9.76956 367.93 9.77956C347.19 9.78956 330.07 26.5296 330.07 47.7496C330.07 68.6696 346.99 85.7796 368.26 85.6696C388.84 85.5696 405.93 69.1796 405.97 47.6996Z" fill="url(#paint0_linear_107_120)"/>
<path d="M331.58 47.5498C331.52 27.5498 348.05 11.0898 368.42 11.3198C387.5 11.5398 404.61 26.8598 404.29 48.3298C403.99 68.3398 387.9 84.2998 367.45 84.0398C346.9 83.7898 331.48 67.1198 331.58 47.5398V47.5498ZM392.03 47.7798C391.99 33.8598 380.66 23.2498 367.42 23.5598C353.44 23.8898 342.8 36.1098 343.91 49.4898C344.91 61.6298 354.79 72.1398 368.62 71.7698C382.82 71.3798 392.05 59.7098 392.03 47.7798Z" fill="#2396F1"/>
</g>
</g>
<defs>
<linearGradient id="paint0_linear_107_120" x1="320.39" y1="47.7796" x2="414.85" y2="47.7796" gradientUnits="userSpaceOnUse">
<stop stop-color="#5B5A57"/>
<stop offset="1" stop-color="white"/>
</linearGradient>
<clipPath id="clip0_107_120">
<rect width="415.75" height="104.02" fill="white"/>
</clipPath>
</defs>
</svg>
