<svg xmlns="http://www.w3.org/2000/svg" xmlns:xlink="http://www.w3.org/1999/xlink" fill="#fff" fill-rule="evenodd" stroke="#000" stroke-linecap="round" stroke-linejoin="round" viewBox="0 0 74.375 85"><style>.B{fill:#f58536}.C{fill:#9d5025}</style><use xlink:href="#A" x="2.188" y="2.5"/><symbol id="A" overflow="visible"><g stroke="none"><path d="M3.511 14.898 0 16.56v46.88l3.511 1.662L17.423 40z" class="C"/><path d="m11.694 63.285-8.183 1.817V14.898l8.183 1.769z" class="B"/><path d="m7.382 13.061 4.312-2.031L21.899 40 11.694 68.97l-4.312-2.031z" class="C"/><path d="M21.899 66.239 11.694 68.97V11.03l10.205 2.741z" class="B"/><path d="m16.499 8.747 5.4-2.556L55.616 40 21.899 73.8l-5.4-2.546z" class="C"/><path d="M58.357 61.031 21.899 73.8V6.191l36.458 12.614z" class="B"/><path fill="#6b3a19" d="m53.634 33.693-6.807.418-18.819-1.506L34.99 0l18.645 33.693z"/><path d="M34.99 31.934V0l-6.982 3.304v29.3z" class="C"/><path d="M53.635 33.693V8.824L34.99 0v31.934z" class="B"/><path fill="#fbbf93" d="m53.634 46.094-6.448-.389-19.179 1.536L34.99 80l18.645-33.907z"/><path d="M28.008 47.24v29.465L34.99 80V47.842z" class="C"/><path d="M34.99 47.842V80l18.645-8.824V46.093z" class="B"/><path fill="#fbbf93" d="m70 44.558-4.004-.156-10.38.865 4.394 22.896z"/><path d="M60.01 45.491v22.672L70 63.431V44.558z" class="B"/><path fill="#6b3a19" d="m70 35.248-4.004.155-10.38-.875 4.394-22.692z"/><path d="M70 35.248V16.57l-9.99-4.733v22.459z" class="B"/><path d="m55.616 67.065 4.394 1.098V45.491l-4.394-.224zm0-54.13 4.394-1.098v22.459l-4.394.233z" class="C"/></g></symbol></svg>