<svg xmlns="http://www.w3.org/2000/svg" width="2500" height="2500" viewBox="70 70 884 884"><path fill="#e35946" d="M512 70c244 0 442 198 442 442S756 954 512 954 70 756 70 512 268 70 512 70"/><path fill="#b74837" d="M772 730c10 9 16 22 16 37 0 29-24 53-53 53-15 0-28-6-37-16L548 655c-34 23-76 37-121 37-120 0-218-98-218-218s98-218 218-218 218 98 218 218c0 37-9 72-26 102z"/><path fill="#294658" d="M789 721c0 29-24 53-53 53-15 0-28-6-37-16L504 564c32-18 57-46 70-80l199 200c10 9 16 22 16 37"/><path fill="#26495d" d="M428 272c86 0 156 70 156 156s-70 156-156 156-156-70-156-156 70-156 156-156"/><path fill="#3b637d" d="M428 606c-82 0-148-66-148-148s66-148 148-148 148 66 148 148-66 148-148 148"/><path fill="#9db2c2" d="M403 334c23 0 41 18 41 41s-18 41-41 41-41-18-41-41 18-41 41-41"/><path fill="#e5e9ec" d="M428 646c-120 0-218-98-218-218s98-218 218-218 218 98 218 218-98 218-218 218m0-366c-82 0-148 66-148 148s66 148 148 148 148-66 148-148-66-148-148-148"/></svg>