<svg width="512" height="512" viewBox="0 0 512 512" fill="none" xmlns="http://www.w3.org/2000/svg">
<path fill-rule="evenodd" clip-rule="evenodd" d="M167 429.327L214.982 381.077C224.329 371.678 239.525 371.636 248.923 380.982C258.322 390.329 258.364 405.525 249.018 414.923L159.518 504.923C155.013 509.453 148.888 512 142.5 512C136.112 512 129.987 509.453 125.482 504.923L35.9822 414.923C26.6358 405.525 26.6781 390.329 36.0768 380.982C45.4754 371.636 60.6713 371.678 70.0178 381.077L119 430.333L119 13C119 6.37258 124.373 1 131 1H155C161.627 1 167 6.37259 167 13L167 429.327Z" fill="#8287EB"/>
<path fill-rule="evenodd" clip-rule="evenodd" d="M441.982 131.923C451.329 141.322 466.525 141.364 475.923 132.018C485.322 122.671 485.364 107.475 476.018 98.0768L386.518 8.07677C382.013 3.54695 375.888 1.00001 369.5 1.00001C363.112 1 356.987 3.54695 352.482 8.07677L262.982 98.0768C253.636 107.475 253.678 122.671 263.077 132.018C272.475 141.364 287.671 141.322 297.018 131.923L345 83.6729L345 500C345 506.627 350.373 512 357 512H381C387.627 512 393 506.627 393 500L393 82.6674L441.982 131.923Z" fill="#8287EB"/>
</svg>
