<svg xmlns="http://www.w3.org/2000/svg" width="512" height="512" fill="none"><path fill="#8287EB" fill-rule="evenodd" d="M130.5 422.5c-6.627 0-12-5.373-12-12v-351c0-6.627 5.373-12 12-12h24c6.627 0 12 5.373 12 12v351c0 6.627-5.373 12-12 12z" clip-rule="evenodd"/><path fill="#8287EB" fill-rule="evenodd" d="M36.077 333.482c9.398-9.346 24.594-9.304 33.94.095l72.483 72.887 72.482-72.887c9.347-9.399 24.543-9.441 33.941-.095s9.441 24.543.095 33.941l-89.5 90a24 24 0 0 1-34.036 0l-89.5-90c-9.346-9.398-9.304-24.594.095-33.941M381.5 89.5c6.627 0 12 5.373 12 12v351c0 6.627-5.373 12-12 12h-24c-6.627 0-12-5.373-12-12v-351c0-6.627 5.373-12 12-12z" clip-rule="evenodd"/><path fill="#8287EB" fill-rule="evenodd" d="M475.923 178.518c-9.398 9.346-24.594 9.304-33.941-.095L369.5 105.536l-72.482 72.887c-9.347 9.399-24.543 9.441-33.941.095s-9.441-24.543-.095-33.941l89.5-90a24 24 0 0 1 34.036 0l89.5 90c9.346 9.398 9.304 24.594-.095 33.941" clip-rule="evenodd"/></svg>