<svg enable-background="new 0 0 64 64" height="64" viewBox="0 0 64 64" width="64" xmlns="http://www.w3.org/2000/svg"><path d="m2.7 28.8-16.3 9.3c-1.1.6-2.5.6-3.6 0l-16.3-9.3c-1.1-.6-1.8-1.8-1.8-3.1v-19c0-1.3.7-2.5 1.8-3.1l28.1-16.2v11.5l8.1 4.7c1.1.6 1.8 1.8 1.8 3.1v19c.1 1.3-.7 2.5-1.8 3.1zm-20.6-20.9c0-1.9-1.5-3.4-3.4-3.4s-3.4 1.5-3.4 3.4 1.5 3.4 3.4 3.4c.9 0 1.6-.3 2.2-.8l6 3.4c.3-.7.7-1.4 1.1-2l-6-3.4c.1-.2.1-.4.1-.6zm10.4 4.5c-1.9 0-3.4 1.5-3.4 3.4 0 .2 0 .4.1.6l-8.2 4.7c-.6-.5-1.4-.8-2.2-.8-1.9 0-3.4 1.5-3.4 3.4s1.5 3.4 3.4 3.4 3.4-1.5 3.4-3.4c0-.2 0-.4-.1-.6l8.2-4.7c.6.5 1.4.9 2.3.9 1.9 0 3.4-1.5 3.4-3.4-.1-1.9-1.6-3.5-3.5-3.5z" fill="#042b48" transform="matrix(1.25 0 0 -1.25 51.203755 48.267815)"/></svg>