<svg width="40" height="40" viewBox="0 0 40 40" fill="none" xmlns="http://www.w3.org/2000/svg">
<path d="M19.9429 0C20.0474 0 20.1112 0.00579794 20.1866 0.0115959C20.2446 0.0173938 20.32 0.0289897 20.3549 0.0347877C20.3897 0.0405856 20.4535 0.0579794 20.4941 0.0637774C20.5347 0.0753732 20.6101 0.098565 20.6623 0.115959C20.7088 0.127555 20.79 0.156544 20.8364 0.179736C20.8828 0.19713 20.9524 0.231918 20.9872 0.249312C21.0278 0.272503 24.1549 2.08146 27.9376 4.27888C31.7203 6.4705 34.8474 8.28526 34.888 8.31425C34.9286 8.34324 34.9982 8.39542 35.0446 8.43021C35.0852 8.46499 35.1607 8.52877 35.2071 8.57516C35.2535 8.62154 35.3173 8.68532 35.3463 8.7201C35.3753 8.74909 35.4159 8.80128 35.4391 8.83606C35.4681 8.87085 35.503 8.91723 35.5204 8.94622C35.5436 8.97521 35.5784 9.03319 35.6016 9.07378C35.6248 9.11436 35.6596 9.18394 35.677 9.21873C35.6944 9.25931 35.7292 9.32889 35.7466 9.37527C35.764 9.42165 35.7872 9.48543 35.7988 9.52022C35.8104 9.56081 35.8278 9.61879 35.8395 9.65937C35.8453 9.69996 35.8627 9.76953 35.8685 9.81592C35.8801 9.8565 35.8917 9.93187 35.8975 9.97246C35.9033 10.042 35.9033 10.5349 35.9091 18.1186C35.9091 23.8817 35.9091 26.2183 35.9033 26.2821C35.8975 26.3285 35.8917 26.4038 35.8859 26.4502C35.8801 26.4908 35.8685 26.5488 35.8627 26.572C35.8569 26.601 35.8453 26.6531 35.8395 26.6937C35.8278 26.7285 35.8046 26.7981 35.793 26.8445C35.7756 26.8909 35.7524 26.9604 35.735 26.9952C35.7234 27.0358 35.7002 27.088 35.6828 27.117L35.619 27.2445C35.5958 27.2851 35.5552 27.3489 35.532 27.3895C35.5088 27.4243 35.4681 27.4822 35.4391 27.517C35.4159 27.546 35.3811 27.5924 35.3579 27.6156C35.3347 27.6446 35.2883 27.6968 35.2477 27.7374C35.2071 27.7779 35.1491 27.8301 35.1201 27.8591C35.0852 27.8881 35.033 27.9345 34.9982 27.9577C34.9692 27.9809 34.9112 28.0215 34.8706 28.0446C34.8358 28.0736 33.0024 29.1347 30.8036 30.4102C28.599 31.6858 26.7947 32.7352 26.7889 32.741C26.7831 32.7468 26.6612 32.8164 26.5162 32.8975C26.3712 32.9845 26.2261 33.0657 26.1971 33.0831C26.1681 33.1004 26.1391 33.1178 26.1275 33.1294C26.1159 33.1352 26.0811 33.1642 26.0463 33.1932L25.9418 33.2976C25.9186 33.3266 25.8838 33.373 25.8606 33.4019C25.8432 33.4251 25.8084 33.4831 25.7852 33.5237C25.762 33.5643 25.7388 33.6223 25.7272 33.6513C25.7156 33.6802 25.6982 33.7324 25.6924 33.7672C25.6808 33.7962 25.6692 33.8484 25.6692 33.8832C25.6576 33.9296 25.6576 34.0107 25.6518 34.3064C25.6518 34.5093 25.646 35.0891 25.6402 35.6052C25.6344 36.4459 25.6344 36.701 25.646 38.2664C25.6518 39.2231 25.6518 40 25.6518 40L22.3158 38.0693C20.4825 37.0025 18.9509 36.1154 18.916 36.098C18.8812 36.0806 15.7599 34.2658 11.9773 32.0742C8.19459 29.8826 5.0675 28.062 5.02689 28.033C4.98628 28.0099 4.92246 27.9635 4.88765 27.9345C4.85284 27.9055 4.78902 27.8533 4.74841 27.8185C4.7136 27.7837 4.64978 27.7258 4.61497 27.6852C4.58016 27.6446 4.53375 27.5924 4.51055 27.5634C4.48734 27.5344 4.45253 27.488 4.42932 27.4533C4.40612 27.4243 4.37131 27.3663 4.3481 27.3315C4.32489 27.2967 4.29008 27.2329 4.26688 27.1865C4.24367 27.146 4.20886 27.0706 4.19145 27.0242C4.16825 26.9778 4.13924 26.9024 4.12183 26.8561C4.11023 26.8097 4.08702 26.7343 4.07542 26.6995C4.06962 26.6589 4.05221 26.601 4.04641 26.5662C4.04061 26.5314 4.03481 26.4792 4.02901 26.4386C4.02321 26.4038 4.0116 26.3227 4.0116 26.2647C4 26.1719 4 25.221 4 18.1765C4 11.0915 4 10.1812 4.0116 10.0884C4.0116 10.0304 4.02321 9.95507 4.02901 9.92028C4.03481 9.88549 4.04061 9.82171 4.05221 9.78113C4.05802 9.74634 4.07542 9.68256 4.08122 9.64777L4.13344 9.49123C4.14504 9.44485 4.17985 9.36368 4.19726 9.31729C4.22046 9.27091 4.26107 9.18974 4.29008 9.14335C4.31329 9.09117 4.3597 9.0158 4.38871 8.97521C4.41772 8.93463 4.45833 8.87085 4.48734 8.83606C4.51635 8.80128 4.56856 8.7433 4.60337 8.70271C4.63818 8.66213 4.6962 8.59835 4.73681 8.56356C4.77742 8.52877 4.83544 8.47659 4.87025 8.4476C4.90506 8.42441 4.97468 8.37223 5.02689 8.33744C5.07331 8.30265 5.4156 8.09972 5.78691 7.891C6.15241 7.67648 9.23889 5.87911 12.6445 3.89622C16.0558 1.91332 18.8812 0.272503 18.9334 0.249312C18.9799 0.220322 19.0669 0.185534 19.1191 0.162342C19.1713 0.139151 19.2525 0.115959 19.2931 0.098565C19.3338 0.0869691 19.4034 0.0695753 19.444 0.0579794C19.4846 0.0521815 19.5542 0.0347876 19.5948 0.0289897C19.6354 0.0231918 19.6993 0.0173938 19.7341 0.0115959C19.7689 0.00579794 19.7979 0.00579794 19.7979 0L19.9429 0Z" fill="#0F2B46"/>
<path d="M16.1137 10.2739C16.2066 10.2739 16.2994 10.2797 16.3458 10.2855C16.3922 10.2913 16.4618 10.3029 16.5024 10.3087C16.5489 10.3203 16.6185 10.3319 16.6649 10.3435C16.7055 10.3551 16.7751 10.3783 16.8157 10.3899C16.8564 10.4015 16.9144 10.4247 16.9434 10.4363C16.9724 10.4479 17.042 10.4769 17.0942 10.5C17.1464 10.529 17.2161 10.5638 17.2567 10.587C17.2915 10.6044 17.3495 10.645 17.3785 10.6624C17.4133 10.6856 17.4655 10.7204 17.4887 10.7436C17.5177 10.761 17.5642 10.7957 17.5932 10.8247C17.6222 10.8479 17.6918 10.9175 17.7556 10.9755C17.8136 11.0393 17.889 11.1146 17.9181 11.1494C17.9413 11.1842 17.9877 11.2364 18.0109 11.2712C18.0341 11.306 18.0805 11.3755 18.1095 11.4161C18.1385 11.4625 18.1791 11.5437 18.2081 11.6017C18.2371 11.6538 18.272 11.7408 18.2952 11.7872C18.3126 11.8394 18.3358 11.9031 18.3416 11.9263C18.3532 11.9553 18.3648 12.0017 18.3764 12.0307C18.3822 12.0597 18.3938 12.1119 18.4054 12.1525C18.4112 12.1872 18.4228 12.2452 18.4286 12.2742C18.4344 12.3032 18.4402 12.3612 18.446 12.4076C18.4518 12.4482 18.4576 12.5409 18.4576 12.6047V12.8192C18.4518 12.8656 18.446 12.9294 18.4402 12.9584C18.4402 12.9816 18.4286 13.0453 18.4228 13.0859C18.4112 13.1323 18.3996 13.1903 18.3938 13.2251C18.3822 13.2715 18.3822 13.2889 18.3822 13.2889C18.388 13.2947 19.8036 14.118 24.6654 16.9532L24.7176 16.901C24.7466 16.872 24.793 16.8314 24.8104 16.814C24.8336 16.7966 24.8916 16.7502 24.9322 16.7212C24.9729 16.6864 25.0425 16.6401 25.0889 16.6111C25.1295 16.5879 25.1991 16.5473 25.2513 16.5183C25.2978 16.4951 25.3732 16.4603 25.4196 16.4371C25.466 16.4197 25.5472 16.3908 25.5936 16.3734C25.64 16.3618 25.7213 16.3328 25.7793 16.3212C25.8315 16.3096 25.9069 16.2922 25.9475 16.2864C25.9823 16.2806 26.0462 16.269 26.081 16.269C26.1216 16.2632 26.2086 16.2574 26.3362 16.2574C26.4929 16.2574 26.5509 16.2632 26.6147 16.269C26.6553 16.2748 26.725 16.2864 26.7714 16.2922C26.812 16.3038 26.8816 16.3154 26.928 16.327C26.9686 16.3386 27.044 16.3618 27.0963 16.3792C27.1427 16.3966 27.2123 16.4197 27.2413 16.4371C27.2703 16.4487 27.3341 16.4777 27.3805 16.5009C27.427 16.5241 27.5024 16.5589 27.543 16.5879C27.5894 16.6169 27.6416 16.6459 27.6648 16.6633C27.6822 16.6807 27.7228 16.7038 27.746 16.727C27.7751 16.7444 27.8215 16.7792 27.8505 16.8082C27.8795 16.8314 27.9375 16.8894 27.9839 16.93C28.0303 16.9763 28.0883 17.0401 28.1174 17.0691C28.1464 17.1039 28.1928 17.1561 28.216 17.1909C28.245 17.2257 28.2856 17.2836 28.3146 17.3242C28.3378 17.359 28.3726 17.417 28.3958 17.4576C28.419 17.4924 28.448 17.5445 28.4597 17.5735C28.4713 17.5967 28.5003 17.6605 28.5235 17.7069C28.5409 17.7533 28.5699 17.8286 28.5873 17.8692C28.5989 17.9156 28.6221 17.9794 28.6337 18.02C28.6453 18.0606 28.6569 18.1301 28.6685 18.1707C28.6743 18.2171 28.6859 18.2867 28.6917 18.3331C28.6975 18.3794 28.7091 18.4664 28.7091 18.5302C28.713 18.6075 28.713 18.6829 28.7091 18.7563C28.7091 18.8201 28.7033 18.9013 28.6975 18.9418C28.6917 18.9824 28.6801 19.0462 28.6743 19.0926C28.6627 19.1332 28.6511 19.197 28.6395 19.2375C28.6279 19.2781 28.6047 19.3535 28.5931 19.4057C28.5699 19.4579 28.5409 19.539 28.5235 19.5854C28.5003 19.6318 28.4713 19.6956 28.4597 19.7188C28.448 19.7478 28.419 19.7999 28.3958 19.8347C28.3726 19.8753 28.3436 19.9217 28.3262 19.9449C28.3146 19.9681 28.2798 20.0203 28.2508 20.0551C28.2276 20.0898 28.1812 20.1478 28.158 20.1768C28.129 20.2058 28.0767 20.2696 28.0361 20.3102C27.9955 20.3507 27.9317 20.4145 27.8969 20.4435C27.8621 20.4783 27.8041 20.5247 27.7693 20.5479C27.7402 20.5711 27.6822 20.6175 27.6416 20.6406C27.6068 20.6638 27.5488 20.6986 27.5198 20.716C27.4908 20.7334 27.4328 20.7682 27.3863 20.7856C27.3457 20.8088 27.2819 20.8378 27.2471 20.8552C27.2181 20.8668 27.1601 20.89 27.1253 20.9016C27.0905 20.9131 27.0208 20.9363 26.9744 20.9479C26.9338 20.9595 26.8584 20.9769 26.8062 20.9885C26.7598 21.0001 26.6785 21.0117 26.6263 21.0175C26.5393 21.0291 26.4987 21.0349 26.342 21.0349C26.197 21.0349 26.139 21.0291 26.0752 21.0233C26.0288 21.0175 25.9591 21.0059 25.9127 21.0001L25.7503 20.9595C25.7039 20.9479 25.6226 20.9247 25.5762 20.9074C25.524 20.89 25.4486 20.861 25.4138 20.8494C25.3732 20.832 25.3036 20.7972 25.2571 20.774C25.2107 20.7508 25.1411 20.7102 25.1063 20.687C25.0715 20.6696 25.0251 20.6406 25.0077 20.6233C24.9845 20.6059 24.9439 20.5827 24.9206 20.5595C24.8916 20.5421 24.8452 20.5015 24.8104 20.4725C24.7814 20.4493 24.7118 20.3797 24.6596 20.3334C24.6132 20.2812 24.5493 20.2116 24.5203 20.1826C24.4913 20.1478 24.4507 20.0956 24.4333 20.0666C24.4101 20.0377 24.3753 19.9913 24.3579 19.9623C24.3347 19.9333 24.2999 19.8753 24.2767 19.8347C24.2535 19.7941 24.2186 19.7246 24.1954 19.684C24.178 19.6376 24.1432 19.568 24.1258 19.5216C24.1084 19.4753 24.0852 19.4115 24.0736 19.3709C24.062 19.3361 24.0446 19.2723 24.033 19.2259C24.0214 19.1796 24.004 19.1158 23.9982 19.081C23.9924 19.0404 23.9808 18.9824 23.975 18.9418C23.975 18.9013 23.9634 18.8201 23.9634 18.7563C23.9576 18.6867 23.9576 18.6056 23.9634 18.536C23.9634 18.478 23.975 18.391 23.975 18.3505C23.9808 18.3099 23.9982 18.2287 24.0098 18.1707C24.0156 18.1185 24.0388 18.0374 24.0504 18.0026C24.0562 17.962 24.0678 17.9214 24.0736 17.9156C24.0775 17.9079 24.0755 17.9059 24.0678 17.9098C24.062 17.9156 23.215 17.4286 17.8194 14.2977L17.7266 14.3789C17.6802 14.4253 17.6106 14.489 17.5758 14.518C17.5409 14.547 17.4829 14.5934 17.4481 14.6166C17.4075 14.6456 17.3495 14.6862 17.3205 14.7036C17.2857 14.7267 17.2161 14.7615 17.1638 14.7905C17.1116 14.8195 17.042 14.8543 17.0014 14.8659C16.9666 14.8833 16.897 14.9123 16.8564 14.9239C16.8157 14.9413 16.7461 14.9587 16.6997 14.9703C16.6591 14.9819 16.6011 14.9992 16.5663 15.005C16.5315 15.0108 16.485 15.0224 16.456 15.0282C16.427 15.0282 16.3748 15.0398 16.34 15.0398C16.2994 15.0456 16.2066 15.0514 16.0789 15.0514C15.9107 15.0514 15.8701 15.0456 15.7888 15.034C15.7366 15.0282 15.6554 15.0166 15.6148 15.0108C15.5742 14.9992 15.5046 14.9819 15.4524 14.9703C15.4059 14.9587 15.3363 14.9355 15.2957 14.9181C15.2551 14.9065 15.1971 14.8833 15.1623 14.8659C15.1333 14.8543 15.0636 14.8253 15.0172 14.7963C14.965 14.7731 14.8896 14.7325 14.849 14.7036C14.8026 14.6746 14.7387 14.634 14.6981 14.605C14.6633 14.576 14.6053 14.5354 14.5821 14.5122C14.5531 14.489 14.5009 14.4426 14.4603 14.4021C14.4197 14.3615 14.3558 14.2977 14.321 14.2571C14.2862 14.2223 14.234 14.1585 14.205 14.1238C14.176 14.089 14.1296 14.0252 14.1006 13.9788C14.0716 13.9324 14.0309 13.8744 14.0193 13.8455C14.0019 13.8223 13.9729 13.7701 13.9555 13.7295C13.9381 13.6889 13.9091 13.6309 13.8917 13.5903C13.8743 13.5556 13.8511 13.4802 13.8279 13.4222C13.8105 13.37 13.7873 13.2947 13.7815 13.2657C13.7699 13.2309 13.7583 13.1729 13.7525 13.1323C13.7409 13.0859 13.7293 13.0164 13.7235 12.9642C13.7119 12.9062 13.7119 12.825 13.7061 12.7207C13.7061 12.6279 13.7061 12.5351 13.7119 12.4829C13.7119 12.4424 13.7235 12.367 13.7293 12.3206C13.7351 12.2742 13.7467 12.2162 13.7525 12.193C13.7525 12.1699 13.7699 12.1177 13.7757 12.0771C13.7873 12.0365 13.8047 11.9727 13.8221 11.9321C13.8337 11.8916 13.8569 11.8278 13.8685 11.7872C13.8859 11.7524 13.9149 11.677 13.9381 11.6306C13.9671 11.5785 13.9961 11.5147 14.0135 11.4915C14.0251 11.4625 14.06 11.4103 14.0832 11.3755C14.1064 11.3407 14.147 11.2828 14.1702 11.248C14.1992 11.2132 14.2398 11.1552 14.2688 11.1204C14.2978 11.0914 14.3616 11.0219 14.4081 10.9697C14.4603 10.9233 14.5357 10.8537 14.5763 10.8189C14.6169 10.7841 14.6865 10.732 14.7213 10.703C14.762 10.6798 14.8258 10.6334 14.8664 10.6102C14.907 10.587 14.9766 10.5464 15.0172 10.5232C15.0636 10.5058 15.1275 10.4711 15.1739 10.4537C15.2145 10.4363 15.2899 10.4073 15.3305 10.3957C15.3769 10.3783 15.4582 10.3551 15.5104 10.3435C15.5568 10.3319 15.638 10.3145 15.6844 10.3029C15.7308 10.2971 15.8005 10.2913 15.8411 10.2855C15.8759 10.2797 15.9165 10.2797 15.9339 10.2739H16.1137ZM23.3716 20.1768C23.3774 20.1768 23.6327 20.3218 23.946 20.4957C24.2535 20.6754 24.5087 20.8204 24.5145 20.8204C24.5145 20.8262 23.1337 21.6263 21.4513 22.6061C18.5098 24.3165 18.388 24.3861 18.3938 24.4035C18.3938 24.4093 18.4054 24.4557 18.4112 24.5021C18.4228 24.5485 18.4344 24.618 18.4402 24.6586C18.446 24.6992 18.4518 24.7688 18.4576 24.821C18.4576 24.8731 18.4634 24.9543 18.4576 25.0297C18.4576 25.0993 18.4518 25.1862 18.446 25.2326C18.4402 25.2732 18.4344 25.337 18.4286 25.366C18.4228 25.395 18.4112 25.4413 18.4054 25.4761C18.3996 25.5051 18.3822 25.5631 18.3764 25.6037C18.3648 25.6443 18.3474 25.7022 18.3358 25.737C18.3242 25.7718 18.301 25.824 18.2894 25.853C18.2778 25.882 18.2487 25.9516 18.2255 26.0037C18.2023 26.0501 18.1675 26.1197 18.1501 26.1487C18.1327 26.1777 18.0921 26.2415 18.0573 26.2936C18.0283 26.34 17.9703 26.4212 17.9355 26.4618C17.9006 26.5082 17.831 26.5835 17.7788 26.6357C17.7266 26.6879 17.657 26.7575 17.6222 26.7865C17.5874 26.8212 17.5293 26.8618 17.5003 26.885C17.4713 26.9082 17.4133 26.9488 17.3785 26.972C17.3495 26.9952 17.2915 27.03 17.2625 27.0474C17.2335 27.0648 17.1638 27.0995 17.1116 27.1227C17.0594 27.1517 16.9898 27.1807 16.9492 27.1981C16.9144 27.2097 16.8564 27.2329 16.8215 27.2445C16.7867 27.2561 16.7345 27.2735 16.6997 27.2793C16.6649 27.2909 16.6127 27.3025 16.5837 27.3083C16.5489 27.3141 16.5024 27.3257 16.4734 27.3315C16.4444 27.3373 16.3806 27.3431 16.34 27.3489C16.2936 27.3547 16.2066 27.3605 16.1427 27.3605C16.0731 27.3663 15.9919 27.3605 15.9339 27.3605C15.8817 27.3547 15.8121 27.3489 15.7772 27.3431C15.7366 27.3373 15.667 27.3257 15.6148 27.3141C15.5684 27.3083 15.5046 27.2909 15.4756 27.2851C15.4465 27.2735 15.3943 27.2561 15.3537 27.2503C15.3189 27.2329 15.2609 27.2155 15.2261 27.1981C15.1855 27.1865 15.1159 27.1517 15.0636 27.1285C15.0172 27.1053 14.9476 27.0706 14.9128 27.0474C14.878 27.03 14.8142 26.9894 14.7794 26.9662C14.7387 26.9372 14.6807 26.9024 14.6517 26.8792C14.6227 26.856 14.5763 26.8155 14.5415 26.7865C14.5125 26.7633 14.4429 26.6937 14.3906 26.6415C14.3326 26.5835 14.2688 26.5082 14.2398 26.4792C14.2166 26.4444 14.176 26.398 14.1586 26.369C14.1412 26.3458 14.1064 26.2994 14.089 26.2704C14.0658 26.2357 14.0367 26.1835 14.0135 26.1487C13.9961 26.1139 13.9671 26.0675 13.9555 26.0385C13.9439 26.0153 13.9149 25.9574 13.8975 25.911C13.8743 25.8646 13.8511 25.7892 13.8337 25.7486C13.8163 25.7022 13.7931 25.6211 13.7815 25.5631C13.7641 25.5051 13.7467 25.4297 13.7409 25.3892C13.7351 25.3544 13.7235 25.2906 13.7177 25.25C13.7119 25.192 13.7119 25.1341 13.7119 24.9717C13.7119 24.7978 13.7119 24.7572 13.7235 24.676C13.7293 24.6238 13.7409 24.5427 13.7525 24.4963C13.7641 24.4441 13.7815 24.3629 13.7989 24.3107C13.8105 24.2644 13.8337 24.189 13.8511 24.1484C13.8627 24.1078 13.8917 24.0382 13.9091 23.9977C13.9265 23.9571 13.9555 23.9049 13.9671 23.8817C13.9787 23.8585 14.0077 23.8121 14.0193 23.7831C14.0367 23.7541 14.0716 23.6962 14.1006 23.6556C14.1296 23.615 14.1702 23.5512 14.1992 23.5164C14.2282 23.4816 14.2688 23.4295 14.2978 23.4005C14.321 23.3715 14.3848 23.3019 14.4371 23.2555C14.4893 23.2033 14.5705 23.1338 14.6111 23.099C14.6575 23.0584 14.7213 23.012 14.7504 22.9946C14.7852 22.9714 14.8316 22.9366 14.8606 22.9192C14.8896 22.9018 14.965 22.8613 15.023 22.8323C15.0868 22.7975 15.1681 22.7627 15.2029 22.7511C15.2377 22.7337 15.3015 22.7105 15.3421 22.6989C15.3885 22.6815 15.4524 22.6641 15.493 22.6525C15.5336 22.6467 15.5974 22.6293 15.6438 22.6235C15.6844 22.6119 15.7482 22.6003 15.7888 22.6003C15.8295 22.5946 15.9107 22.5888 15.9687 22.583H16.1892C16.2472 22.5888 16.3342 22.5946 16.369 22.6003C16.4096 22.6003 16.4734 22.6119 16.5199 22.6235C16.5605 22.6293 16.6301 22.6467 16.6765 22.6583C16.7171 22.6699 16.7983 22.6931 16.8447 22.7105C16.8912 22.7221 16.9666 22.7511 17.0014 22.7685C17.042 22.7859 17.1116 22.8207 17.1638 22.8439C17.2161 22.8729 17.2915 22.9134 17.3263 22.9366L17.4481 23.0178C17.4771 23.041 17.5293 23.0758 17.5584 23.099C17.5874 23.1222 17.6454 23.1801 17.6976 23.2265C17.744 23.2671 17.7962 23.3193 17.8426 23.3715L20.6042 21.777C22.1301 20.8958 23.3716 20.1768 23.3716 20.1768Z" fill="white"/>
</svg>
