<svg xmlns="http://www.w3.org/2000/svg" viewBox="0 0 80 80"><defs><linearGradient id="a" x1="0%" x2="100%" y1="100%" y2="0%"><stop offset="0%" style="stop-color:#2e27ad;stop-opacity:1"/><stop offset="100%" style="stop-color:#527fff;stop-opacity:1"/></linearGradient></defs><path fill="url(#a)" d="M0 0h80v80H0z"/><path fill="#FFF" d="M20 25h12v4H20zm16 0h12v4H36zm16 0h12v4H52zM20 38h12v4H20zm16 0h12v4H36zm16 0h12v4H52zM20 51h12v4H20zm16 0h12v4H36zm16 0h12v4H52zm-40-3V24l-4 4v24l4 4V48zm56 0V24l-4 4v24l4 4V48z"/></svg>
