<svg width="40" height="40" viewBox="0 0 40 40" fill="none" xmlns="http://www.w3.org/2000/svg">
<path d="M0 20V40H40V0H0V20ZM12.0625 8.59375C13.6562 8.75 14.4531 9.42969 14.9844 11.0938C15.4063 12.3984 19.9844 24.8516 20.0469 24.8594C20.0859 24.8594 20.4063 24.1094 20.75 23.1953C22.0859 19.6797 25.2344 11.3281 25.3594 10.9609C25.5938 10.2578 26.0234 9.53906 26.4297 9.17969C27.0625 8.60156 27.3125 8.55469 29.9219 8.55469H32.1484L32.5 8.75C32.6875 8.85937 32.9531 9.10156 33.0859 9.28125L33.3203 9.625L33.3437 20.3672C33.3594 30.2188 33.3516 31.1328 33.2344 31.2578C32.9844 31.5313 32.5938 31.6016 31.2109 31.6016C29.8047 31.6016 29.4375 31.5391 29.1719 31.2422C29.0312 31.0859 29.0234 30.7188 28.9844 21.6094L28.9453 12.1484L28.5781 13.1641C28.375 13.7187 26.8516 17.9687 25.2031 22.6016C23.5469 27.2422 22.1328 31.1016 22.0547 31.1875C21.7109 31.5703 21.5391 31.6016 19.9609 31.6016C18.6016 31.6016 18.4453 31.5859 18.1094 31.4297C17.9141 31.3437 17.6953 31.1797 17.625 31.0781C17.5625 30.9844 16.9844 29.3672 16.3359 27.5C13.7656 20.0078 11.1797 12.5313 11.1094 12.3438C11.0469 12.2109 11.0234 15.0547 11.0234 21.5703C11.0156 30.8984 11.0156 31 10.8594 31.1953C10.5937 31.5312 10.2422 31.6016 8.75 31.6016C7.53906 31.6016 7.34375 31.5859 7.07031 31.4453C6.89844 31.3594 6.71875 31.2031 6.66406 31.0938C6.58594 30.9375 6.57031 28.7031 6.58594 20.3906L6.60156 9.875L6.80469 9.49219C7.04687 9.00781 7.52344 8.65625 8.03125 8.58594C8.60938 8.50781 11.2109 8.51562 12.0625 8.59375Z" fill="white"/>
</svg>
