<svg xmlns="http://www.w3.org/2000/svg" width="682.667" height="682.667" version="1.0" viewBox="0 0 512 512"><path fill="#0748A6" d="M0 256v256h512V0H0zm154.4-146c20.4 2 30.6 10.7 37.4 32 5.4 16.7 64 176.1 64.8 176.2.5 0 4.6-9.6 9-21.3 17.1-45 57.4-151.9 59-156.6 3-9 8.5-18.2 13.7-22.8 8.1-7.4 11.3-8 44.7-8h28.5l4.5 2.5c2.4 1.4 5.8 4.5 7.5 6.8l3 4.4.3 137.5c.2 126.1.1 137.8-1.4 139.4-3.2 3.5-8.2 4.4-25.9 4.4-18 0-22.7-.8-26.1-4.6-1.8-2-1.9-6.7-2.4-123.3l-.5-121.1-4.7 13c-2.6 7.1-22.1 61.5-43.2 120.8-21.2 59.4-39.3 108.8-40.3 109.9-4.4 4.9-6.6 5.3-26.8 5.3-17.4 0-19.4-.2-23.7-2.2-2.5-1.1-5.3-3.2-6.2-4.5-.8-1.2-8.2-21.9-16.5-45.8-32.9-95.9-66-191.6-66.9-194-.8-1.7-1.1 34.7-1.1 118.1-.1 119.4-.1 120.7-2.1 123.2-3.4 4.3-7.9 5.2-27 5.2-15.5 0-18-.2-21.5-2-2.2-1.1-4.5-3.1-5.2-4.5-1-2-1.2-30.6-1-137l.2-134.6 2.6-4.9c3.1-6.2 9.2-10.7 15.7-11.6 7.4-1 40.7-.9 51.6.1"/></svg>