<?xml version="1.0" standalone="no"?>
<!DOCTYPE svg PUBLIC "-//W3C//DTD SVG 20010904//EN"
 "http://www.w3.org/TR/2001/REC-SVG-20010904/DTD/svg10.dtd">
<svg version="1.0" xmlns="http://www.w3.org/2000/svg"
 width="512.000000pt" height="512.000000pt" viewBox="0 0 512.000000 512.000000"
 preserveAspectRatio="xMidYMid meet">
<metadata>
Created by potrace 1.16, written by Peter Selinger 2001-2019
</metadata>
<g transform="translate(0.000000,512.000000) scale(0.100000,-0.100000)"
fill="#0748A6" stroke="none">
<path d="M0 2560 l0 -2560 2560 0 2560 0 0 2560 0 2560 -2560 0 -2560 0 0
-2560z m1544 1460 c204 -20 306 -107 374 -320 54 -167 640 -1761 648 -1762 5
0 46 96 90 213 171 450 574 1519 590 1566 30 90 85 182 137 228 81 74 113 80
447 80 l285 0 45 -25 c24 -14 58 -45 75 -68 l30 -44 3 -1375 c2 -1261 1 -1378
-14 -1394 -32 -35 -82 -44 -259 -44 -180 0 -227 8 -261 46 -18 20 -19 67 -24
1233 l-5 1211 -47 -130 c-26 -71 -221 -615 -432 -1208 -212 -594 -393 -1088
-403 -1099 -44 -49 -66 -53 -268 -53 -174 0 -194 2 -237 22 -25 11 -53 32 -62
45 -8 12 -82 219 -165 458 -329 959 -660 1916 -669 1940 -8 17 -11 -347 -11
-1181 -1 -1194 -1 -1207 -21 -1232 -34 -43 -79 -52 -270 -52 -155 0 -180 2
-215 20 -22 11 -45 31 -52 45 -10 20 -12 306 -10 1370 l2 1346 26 49 c31 62
92 107 157 116 74 10 407 9 516 -1z"/>
</g>
</svg>
