<svg xmlns="http://www.w3.org/2000/svg" viewBox="0 0 80 80"><defs><linearGradient id="a" x1="0%" x2="100%" y1="100%" y2="0%"><stop offset="0%" stop-color="#205B97"/><stop offset="100%" stop-color="#5294CF"/></linearGradient></defs><g fill="none" fill-rule="evenodd"><path fill="url(#a)" d="M0 0h80v80H0z"/><path fill="#FFF" d="M28 25h24v4H28zM28 33h24v4H28zM28 41h24v4H28zM28 49h24v4H28z"/><path fill="#FFF" d="M24 22v36h32V22H24zm30 34H26V24h28v32z"/><path fill="#FFF" d="M33 30a3 3 0 100-6 3 3 0 000 6zm0 8a3 3 0 100-6 3 3 0 000 6zm0 8a3 3 0 100-6 3 3 0 000 6zm0 8a3 3 0 100-6 3 3 0 000 6z"/></g></svg>
