<svg width="256" height="310" xmlns="http://www.w3.org/2000/svg" preserveAspectRatio="xMidYMid"><path d="M18.432 180.969l90.484-90.485a63.717 63.717 0 0018.99-45.428A64.245 64.245 0 00109.476 0L18.99 90.484A63.717 63.717 0 000 135.913c0 17.687 7.075 33.512 18.432 45.056zm219.136-52.876l-90.484 90.484a63.717 63.717 0 00-18.99 45.429 64.245 64.245 0 0018.431 45.056l90.484-90.485A63.717 63.717 0 00256 173.15c0-17.687-7.075-33.513-18.432-45.056zm-.559-37.422A63.717 63.717 0 00256 45.242 64.245 64.245 0 00237.568.186L18.991 218.577C7.26 230.307 0 246.32 0 264.192a64.245 64.245 0 0018.432 45.056L237.009 90.671z" fill="#1292EE"/></svg>