<?xml version="1.0" standalone="no"?>
<!DOCTYPE svg PUBLIC "-//W3C//DTD SVG 20010904//EN"
 "http://www.w3.org/TR/2001/REC-SVG-20010904/DTD/svg10.dtd">
<svg version="1.0" xmlns="http://www.w3.org/2000/svg"
 width="512.000000pt" height="512.000000pt" viewBox="0 0 512.000000 512.000000"
 preserveAspectRatio="xMidYMid meet">

<g transform="translate(0.000000,512.000000) scale(0.100000,-0.100000)"
fill="#000000" stroke="none">
<path d="M945 5113 c-123 -5 -262 -23 -335 -44 -257 -71 -488 -301 -559 -557
-46 -166 -46 -181 -46 -1952 0 -1769 0 -1787 46 -1950 71 -257 301 -488 557
-559 166 -46 181 -46 1952 -46 1769 0 1787 0 1950 46 257 71 488 301 559 557
46 166 46 181 46 1952 0 1769 0 1787 -46 1950 -71 259 -303 490 -559 559 -164
44 -158 44 -1865 46 -896 1 -1661 0 -1700 -2z m2350 -1423 l-195 -390 326 0
c211 0 324 -3 322 -10 -1 -5 -356 -536 -788 -1179 l-785 -1169 -3 519 -2 519
-395 0 c-217 0 -395 2 -395 5 0 3 237 476 526 1050 l526 1045 529 0 529 0
-195 -390z"/>
</g>
</svg>
