<svg xmlns:xlink="http://www.w3.org/1999/xlink" width="24" height="24" viewBox="0 0 24 24" fill="none" xmlns="http://www.w3.org/2000/svg"><path d="M20.0098 23.9645C21.6694 22.3088 22.7798 20.2386 23.0967 18.2094C23.4136 16.18 22.9111 14.3578 21.6997 13.1436L15.4424 19.3864L20.0098 23.9645Z" fill="#06D6A0"></path><path d="M3.64928 24C1.98974 22.3443 0.879374 20.2741 0.562466 18.2448C0.245557 16.2155 0.748059 14.3933 1.95943 13.179L8.2168 19.4218L3.64928 24Z" fill="#FFBE0B"></path><path d="M2.59453 12.4985C0.936002 10.8429 0.00274464 8.59653 6.07448e-06 6.25309C-0.00274029 3.90888 0.92587 1.65955 2.58154 0L8.83891 6.24274C10.4974 7.89827 11.4305 10.1449 11.4332 12.4883C11.436 14.8325 10.5074 17.0819 8.85169 18.7414L2.59453 12.4985Z" fill="#FF0075"></path><path d="M21.0627 12.4985C22.7212 10.8429 23.6545 8.59653 23.6572 6.25309C23.66 3.90888 22.7314 1.65955 21.0757 0L14.8183 6.24274C13.1598 7.89827 12.2267 10.1449 12.224 12.4883C12.2213 14.8325 13.1499 17.0819 14.8055 18.7414L21.0627 12.4985Z" fill="#0076FF"></path></svg>