<svg xmlns="http://www.w3.org/2000/svg" width="460" height="460">
<g transform="matrix(0.98501074 0 0 0.98501074 2.955032 -0)">
    <path d="M389.431 465.611C 421.673 433.443 443.246 393.222 449.403 353.796C 455.56 314.369 445.797 278.966 422.262 255.376L422.262 255.376L300.691 376.663L389.431 465.611z" stroke="none" fill="#06D6A0" fill-rule="nonzero" />
    <path d="M71.5738 466.306C 39.331 434.138 17.7582 393.917 11.6011 354.49C 5.44395 315.064 15.2069 279.661 38.7422 256.07L38.7422 256.07L160.314 377.358L71.5738 466.306z" stroke="none" fill="#FFBB00" fill-rule="nonzero" />
    <path d="M0.673946 122.184C 0.727229 167.729 18.8709 211.387 51.1137 243.554L51.1137 243.554L51.1168 243.551L172.673 364.823C 204.84 332.58 222.882 288.88 222.829 243.335C 222.775 197.79 204.632 154.132 172.389 121.964L172.389 121.964L172.386 121.967L50.8296 0.695312C 18.6622 32.9381 0.620662 76.6388 0.673946 122.184z" stroke="none" fill="#FF0075" fill-rule="nonzero" />
    <path d="M460.329 121.488C 460.276 167.033 442.132 210.692 409.89 242.859L409.89 242.859L409.886 242.855L288.33 364.127C 256.163 331.884 238.121 288.183 238.175 242.638C 238.228 197.094 256.372 153.435 288.614 121.268L288.614 121.268L288.618 121.271L410.174 0C 442.341 32.2428 460.383 75.9435 460.329 121.488z" stroke="none" fill="#0076FF" fill-rule="nonzero" />
</g>
</svg>
