<?xml version="1.0" standalone="no"?>
<!DOCTYPE svg PUBLIC "-//W3C//DTD SVG 20010904//EN"
 "http://www.w3.org/TR/2001/REC-SVG-20010904/DTD/svg10.dtd">
<svg version="1.0" xmlns="http://www.w3.org/2000/svg"
 width="200.000000pt" height="200.000000pt" viewBox="0 0 200.000000 200.000000"
 preserveAspectRatio="xMidYMid meet">

<g transform="translate(0.000000,200.000000) scale(0.100000,-0.100000)"
fill="#000000" stroke="none">
<path d="M285 1986 c-67 -21 -125 -55 -169 -100 -54 -54 -106 -158 -109 -217
l-2 -44 311 -3 c242 -2 313 1 321 10 5 7 28 85 51 174 23 88 44 168 48 177 6
16 -12 17 -202 16 -139 0 -222 -5 -249 -13z"/>
<path d="M967 1827 c-26 -96 -47 -181 -47 -191 0 -15 22 -16 262 -14 l262 3
13 45 c8 25 27 95 43 155 16 61 34 125 39 143 l10 32 -268 0 -268 0 -46 -173z"/>
<path d="M1805 1928 c-14 -40 -75 -276 -75 -291 0 -16 11 -17 133 -15 l132 3
-2 43 c-4 82 -83 215 -152 255 -24 14 -32 15 -36 5z"/>
<path d="M0 975 l0 -385 185 0 c102 0 185 3 185 6 0 4 142 538 186 699 8 28
14 53 14 58 0 4 -128 7 -285 7 l-285 0 0 -385z"/>
<path d="M752 1008 c-51 -194 -95 -368 -98 -385 l-6 -33 261 0 c143 0 261 2
261 4 0 3 34 126 75 274 41 148 86 312 100 365 14 53 28 103 31 112 5 13 -25
15 -263 15 l-269 0 -92 -352z"/>
<path d="M1645 1348 c-2 -7 -15 -56 -29 -108 -14 -52 -57 -215 -95 -361 -39
-146 -71 -271 -71 -277 0 -9 71 -12 275 -12 l275 0 0 385 0 385 -175 0 c-132
0 -177 -3 -180 -12z"/>
<path d="M12 293 c13 -48 44 -108 76 -151 25 -33 97 -88 122 -94 8 -2 25 45
50 140 l38 142 -148 0 -148 0 10 -37z"/>
<path d="M532 172 c-23 -87 -42 -161 -42 -165 0 -4 116 -7 258 -7 l259 0 21
78 c12 42 33 116 46 165 l24 87 -262 0 -262 0 -42 -158z"/>
<path d="M1366 313 c-3 -10 -15 -54 -26 -98 -12 -44 -30 -111 -40 -148 l-19
-68 212 3 c208 3 213 4 271 31 111 52 187 138 221 251 l14 46 -314 0 c-290 0
-314 -1 -319 -17z"/>
</g>
</svg>
