<svg xmlns="http://www.w3.org/2000/svg" xmlns:xlink="http://www.w3.org/1999/xlink" viewBox="0 0 66 65" fill="#fff" fill-rule="evenodd" stroke="#000" stroke-linecap="round" stroke-linejoin="round"><use xlink:href="#a" x=".5" y=".5"/><symbol id="a" overflow="visible"><path d="M32.066 19.9c-6.7 0-12.13 5.433-12.13 12.1s5.443 12.1 12.13 12.1 12.13-5.433 12.13-12.1-5.443-12.1-12.13-12.1zM13.181 32c0-10.408 8.46-18.852 18.885-18.852s18.884 8.454 18.884 18.86c0 .72-.066 1.375-.13 2.03-.13 1.833 1.18 3.207 3.016 3.207 3.082 0 3.4-3.993 3.4-5.302 0-13.943-11.28-25.2-25.246-25.2S6.754 18.001 6.754 31.944s11.279 25.2 25.246 25.2c7.4 0 14.033-3.207 18.7-8.248l5.18 4.32A31.928 31.928 0 0132 63.886c-17.705.002-32-14.334-32-31.942C0 14.27 14.36 0 32 0c17.705 0 32 14.336 32 31.944 0 7.07-3.4 12.83-10.164 12.83-3.016 0-4.787-1.375-5.836-2.88-3.344 5.368-9.246 8.902-16.066 8.902-10.295.065-18.754-8.38-18.754-18.786zm18.885-5.564c3.082 0 5.574 2.487 5.574 5.498 0 3.077-2.492 5.564-5.574 5.564s-5.574-2.477-5.574-5.554c.066-3 2.492-5.498 5.574-5.498z" stroke="none" fill="#c02126" fill-rule="nonzero"/></symbol></svg>