<?xml version="1.0" encoding="UTF-8"?>
<svg width="60px" height="60px" viewBox="0 0 60 60" version="1.1" xmlns="http://www.w3.org/2000/svg" xmlns:xlink="http://www.w3.org/1999/xlink">
    <title>spotify_node_icon</title>
    <g id="spotify_node_icon" stroke="none" stroke-width="1" fill="none" fill-rule="evenodd" stroke-linecap="round" stroke-linejoin="round">
        <g id="spotify-icon" fill="#1ED760" fill-rule="nonzero">
            <g id="A" transform="translate(0.461538, 0.461538)">
                <path d="M29.5384615,0 C13.2,0 0,13.2341538 0,29.5384615 C0,45.8769231 13.2341538,59.0769231 29.5384615,59.0769231 C45.8769231,59.0769231 59.0769231,45.8427692 59.0769231,29.5384615 C59.0769231,13.2341538 45.8427692,0 29.5384615,0 Z M43.0892308,42.6313846 C42.5603077,43.5138462 41.4304615,43.7603077 40.548,43.2313846 C33.5953846,38.9963077 24.8787692,38.0436923 14.5726154,40.3726154 C13.5849231,40.5849231 12.5972308,39.9849231 12.3849231,38.988 C12.1726154,37.9910769 12.7726154,37.0126154 13.7695385,36.8003077 C25.0273846,34.2156923 34.6956923,35.3178462 42.4606154,40.0827692 C42.8830693,40.3344142 43.1876772,40.7441942 43.3068971,41.2212468 C43.4261169,41.6982994 43.3500965,42.2032019 43.0956923,42.624 L43.0892308,42.6313846 Z M46.6892308,34.5849231 C46.0190769,35.6787692 44.6067692,35.9972308 43.5138462,35.3603077 C35.5735385,30.4901538 23.4683077,29.0787692 14.0815385,31.9015385 C12.8464615,32.2541538 11.5763077,31.584 11.2227692,30.384 C10.8701538,29.1489231 11.5403077,27.8787692 12.7753846,27.5252308 C23.5033846,24.2787692 36.8436923,25.8313846 45.984,31.4427692 C47.0427692,32.0778462 47.3686154,33.4892308 46.6901538,34.584 L46.6892308,34.5849231 Z M47.0067692,26.1849231 C37.4778462,20.5384615 21.7735385,20.0003077 12.6683077,22.7621538 C11.2209231,23.2209231 9.66830769,22.3744615 9.20953846,20.9270769 C8.75076923,19.4796923 9.59723077,17.9270769 11.0446154,17.4683077 C21.4910769,14.2929231 38.8541538,14.9270769 49.7953846,21.4209231 C51.1015385,22.1963077 51.5243077,23.8910769 50.748,25.2055385 C50.0418462,26.5467692 48.3129231,26.9704615 47.0067692,26.1932308 L47.0067692,26.1849231 Z" id="Shape"></path>
            </g>
            <g id="A">
                <path d="M29.5384615,0 C13.2,0 0,13.2341538 0,29.5384615 C0,45.8769231 13.2341538,59.0769231 29.5384615,59.0769231 C45.8769231,59.0769231 59.0769231,45.8427692 59.0769231,29.5384615 C59.0769231,13.2341538 45.8427692,0 29.5384615,0 Z M43.0892308,42.6313846 C42.5603077,43.5138462 41.4304615,43.7603077 40.548,43.2313846 C33.5953846,38.9963077 24.8787692,38.0436923 14.5726154,40.3726154 C13.5849231,40.5849231 12.5972308,39.9849231 12.3849231,38.988 C12.1726154,37.9910769 12.7726154,37.0126154 13.7695385,36.8003077 C25.0273846,34.2156923 34.6956923,35.3178462 42.4606154,40.0827692 C42.8830693,40.3344142 43.1876772,40.7441942 43.3068971,41.2212468 C43.4261169,41.6982994 43.3500965,42.2032019 43.0956923,42.624 L43.0892308,42.6313846 Z M46.6892308,34.5849231 C46.0190769,35.6787692 44.6067692,35.9972308 43.5138462,35.3603077 C35.5735385,30.4901538 23.4683077,29.0787692 14.0815385,31.9015385 C12.8464615,32.2541538 11.5763077,31.584 11.2227692,30.384 C10.8701538,29.1489231 11.5403077,27.8787692 12.7753846,27.5252308 C23.5033846,24.2787692 36.8436923,25.8313846 45.984,31.4427692 C47.0427692,32.0778462 47.3686154,33.4892308 46.6901538,34.584 L46.6892308,34.5849231 Z M47.0067692,26.1849231 C37.4778462,20.5384615 21.7735385,20.0003077 12.6683077,22.7621538 C11.2209231,23.2209231 9.66830769,22.3744615 9.20953846,20.9270769 C8.75076923,19.4796923 9.59723077,17.9270769 11.0446154,17.4683077 C21.4910769,14.2929231 38.8541538,14.9270769 49.7953846,21.4209231 C51.1015385,22.1963077 51.5243077,23.8910769 50.748,25.2055385 C50.0418462,26.5467692 48.3129231,26.9704615 47.0067692,26.1932308 L47.0067692,26.1849231 Z" id="Shape"></path>
            </g>
        </g>
    </g>
</svg>