<?xml version="1.0" encoding="UTF-8" standalone="no"?>
<!-- Created with Inkscape (http://www.inkscape.org/) -->

<svg
   version="1.1"
   id="svg2"
   xml:space="preserve"
   width="147"
   height="147"
   viewBox="0 0 147 147"
   sodipodi:docname="citrix.svg"
   inkscape:version="1.1.2 (0a00cf5339, 2022-02-04)"
   xmlns:inkscape="http://www.inkscape.org/namespaces/inkscape"
   xmlns:sodipodi="http://sodipodi.sourceforge.net/DTD/sodipodi-0.dtd"
   xmlns="http://www.w3.org/2000/svg"
   xmlns:svg="http://www.w3.org/2000/svg"><defs
     id="defs6" /><sodipodi:namedview
     id="namedview4"
     pagecolor="#ffffff"
     bordercolor="#666666"
     borderopacity="1.0"
     inkscape:pageshadow="2"
     inkscape:pageopacity="0.0"
     inkscape:pagecheckerboard="0"
     showgrid="false"
     fit-margin-top="0"
     fit-margin-left="0"
     fit-margin-right="0"
     fit-margin-bottom="0"
     inkscape:zoom="2.7846068"
     inkscape:cx="0"
     inkscape:cy="68.052696"
     inkscape:window-width="1920"
     inkscape:window-height="1009"
     inkscape:window-x="0"
     inkscape:window-y="40"
     inkscape:window-maximized="1"
     inkscape:current-layer="g8" /><g
     id="g8"
     inkscape:groupmode="layer"
     inkscape:label="ink_ext_XXXXXX"
     transform="matrix(1.3333333,0,0,-1.3333333,-337.63332,148.36666)"><g
       id="g10"
       transform="matrix(0.1,0,0,0.1,18.085912,0)"><path
         d="M 2904.09,362.301 2622.82,33.3789 c -11.12,-14.3594 -25.42,-20.6992 -41.33,-20.6992 -28.6,0 -49.24,22.2617 -49.24,47.6797 0,11.1289 3.17,23.8711 14.3,36.5508 l 293.98,332.1248 -282.85,324.16 c -11.13,12.743 -17.47,23.871 -17.47,38.168 0,25.426 20.64,47.68 50.85,47.68 15.85,0 26.98,-6.398 39.72,-20.703 L 2904.09,497.383 3177.4,818.34 c 12.75,14.305 23.88,20.703 39.73,20.703 30.21,0 50.85,-22.254 50.85,-47.68 0,-14.297 -6.34,-25.425 -17.47,-38.168 L 2967.66,429.035 3261.64,96.9102 c 11.13,-12.6797 14.3,-25.4219 14.3,-36.5508 0,-25.418 -20.64,-47.6797 -49.24,-47.6797 -15.92,0 -30.21,6.3398 -41.34,20.6992 L 2904.09,362.301"
         style="fill:#100f0d;fill-opacity:1;fill-rule:nonzero;stroke:none"
         id="path24" /><path
         d="m 2985.26,1031.59 c 0,-44.824 -36.34,-81.164 -81.17,-81.164 -44.82,0 -81.16,36.34 -81.16,81.164 0,44.82 36.34,81.16 81.16,81.16 44.83,0 81.17,-36.34 81.17,-81.16"
         style="fill:#100f0d;fill-opacity:1;fill-rule:nonzero;stroke:none"
         id="path28" /></g></g></svg>
