<svg xmlns="http://www.w3.org/2000/svg" xml:space="preserve" width="147" height="147"><path d="M2904.09 362.301 2622.82 33.379c-11.12-14.36-25.42-20.7-41.33-20.7-28.6 0-49.24 22.262-49.24 47.68 0 11.13 3.17 23.871 14.3 36.551l293.98 332.125-282.85 324.16c-11.13 12.743-17.47 23.871-17.47 38.168 0 25.426 20.64 47.68 50.85 47.68 15.85 0 26.98-6.398 39.72-20.703l273.31-320.957L3177.4 818.34c12.75 14.305 23.88 20.703 39.73 20.703 30.21 0 50.85-22.254 50.85-47.68 0-14.297-6.34-25.425-17.47-38.168l-282.85-324.16L3261.64 96.91c11.13-12.68 14.3-25.422 14.3-36.55 0-25.419-20.64-47.68-49.24-47.68-15.92 0-30.21 6.34-41.34 20.699zm81.17 669.289c0-44.824-36.34-81.164-81.17-81.164-44.82 0-81.16 36.34-81.16 81.164 0 44.82 36.34 81.16 81.16 81.16 44.83 0 81.17-36.34 81.17-81.16" style="fill:#100f0d;fill-opacity:1;fill-rule:nonzero;stroke:none" transform="matrix(.13333 0 0 -.13333 -313.519 148.367)"/></svg>