<svg xmlns="http://www.w3.org/2000/svg" width="400" height="352" class="css-15xgryy e10nushx5" viewBox="0 0 50 44"><path fill="#362d59" d="M29 2.26a4.67 4.67 0 0 0-8 0l-6.58 11.27a32.21 32.21 0 0 1 17.75 26.66h-4.62a27.68 27.68 0 0 0-15.46-22.72L6 28a15.92 15.92 0 0 1 9.23 12.17H4.62A.76.76 0 0 1 4 39.06l2.94-5a10.7 10.7 0 0 0-3.36-1.9l-2.91 5a4.54 4.54 0 0 0 1.69 6.24 4.66 4.66 0 0 0 2.26.6h14.53a19.4 19.4 0 0 0-8-17.31l2.31-4A23.87 23.87 0 0 1 23.76 44h12.31a35.88 35.88 0 0 0-16.41-31.8l4.67-8a.77.77 0 0 1 1.05-.27c.53.29 20.29 34.77 20.66 35.17a.76.76 0 0 1-.68 1.13H40.6q.09 1.91 0 3.81h4.78A4.59 4.59 0 0 0 50 39.43a4.5 4.5 0 0 0-.62-2.28z"/></svg>