<svg width="40" height="40" viewBox="0 0 40 40" fill="none" xmlns="http://www.w3.org/2000/svg">
<path d="M23.1824 3.80975C22.8498 3.2576 22.38 2.80081 21.8187 2.48372C21.2575 2.16663 20.6238 2 19.9791 2C19.3345 2 18.7008 2.16663 18.1395 2.48372C17.5782 2.80081 17.1085 3.2576 16.7758 3.80975L11.5063 12.8352C15.532 14.845 18.9619 17.8729 21.4555 21.6182C23.9491 25.3636 25.4196 29.696 25.7211 34.1854H22.0212C21.7203 30.3371 20.4198 26.6342 18.2483 23.4429C16.0768 20.2517 13.1096 17.6828 9.64035 15.9904L4.76327 24.4232C6.71356 25.2979 8.41265 26.6489 9.70428 28.3519C10.9959 30.055 11.8386 32.0554 12.155 34.1694H3.65812C3.55735 34.1622 3.45994 34.1301 3.37467 34.076C3.2894 34.0218 3.21896 33.9472 3.1697 33.8591C3.12044 33.7709 3.0939 33.6718 3.09249 33.5708C3.09107 33.4698 3.11482 33.37 3.1616 33.2804L5.51605 29.2763C4.71837 28.6107 3.80671 28.0952 2.82525 27.7547L0.494823 31.7589C0.252214 32.175 0.0947134 32.6352 0.0314717 33.1127C-0.0317699 33.5902 0.000507752 34.0756 0.12643 34.5405C0.252352 35.0055 0.469407 35.4407 0.764987 35.8211C1.06057 36.2014 1.42878 36.5192 1.84823 36.7561C2.40088 37.0674 3.02379 37.2328 3.65812 37.2366H15.2942C15.5103 34.5698 15.0341 31.8925 13.9117 29.4638C12.7893 27.0352 11.0587 24.9376 8.88756 23.3741L10.7375 20.1708C13.4775 22.0527 15.6794 24.6165 17.1259 27.6093C18.5725 30.6021 19.2136 33.9203 18.9861 37.2366H28.8443C29.0739 32.2129 27.981 27.217 25.6749 22.7481C23.3687 18.2791 19.9301 14.4937 15.7027 11.77L19.4426 5.36337C19.5259 5.22374 19.661 5.12268 19.8185 5.08219C19.976 5.04169 20.1431 5.06504 20.2834 5.14715C20.7079 5.37939 36.5324 32.9921 36.8287 33.3125C36.8809 33.4061 36.9074 33.5118 36.9057 33.619C36.9039 33.7261 36.8739 33.8309 36.8186 33.9227C36.7633 34.0146 36.6848 34.0902 36.591 34.1419C36.4971 34.1937 36.3912 34.2197 36.2841 34.2174H32.4721C32.5202 35.2371 32.5202 36.2542 32.4721 37.2686H36.3001C36.7862 37.2718 37.2681 37.1785 37.7179 36.9942C38.1677 36.8099 38.5765 36.5382 38.9206 36.1949C39.2646 35.8515 39.5372 35.4433 39.7225 34.9939C39.9078 34.5445 40.0021 34.0628 40 33.5768C40.0004 32.9347 39.829 32.3042 39.5034 31.7509L23.1824 3.80975Z" fill="#352D56"/>
</svg>
