<svg class="css-15xgryy e10nushx5" xmlns="http://www.w3.org/2000/svg" viewBox="0 0 50 44" width="400" height="352"><path d="M29 2.26a4.67 4.67 0 00-8 0l-6.58 11.27a32.21 32.21 0 0117.75 26.66h-4.62a27.68 27.68 0 00-15.46-22.72L6 28a15.92 15.92 0 019.23 12.17H4.62A.76.76 0 014 39.06l2.94-5a10.74 10.74 0 00-3.36-1.9l-2.91 5a4.54 4.54 0 001.69 6.24 4.66 4.66 0 002.26.6h14.53a19.4 19.4 0 00-8-17.31l2.31-4A23.87 23.87 0 0123.76 44h12.31a35.88 35.88 0 00-16.41-31.8l4.67-8a.77.77 0 011.05-.27c.53.29 20.29 34.77 20.66 35.17a.76.76 0 01-.68 1.13H40.6q.09 1.91 0 3.81h4.78A4.59 4.59 0 0050 39.43a4.49 4.49 0 00-.62-2.28z" fill="#362d59"/></svg>