<?xml version="1.0" encoding="utf-8"?><!-- Uploaded to: SVG Repo, www.svgrepo.com, Generator: SVG Repo Mixer Tools -->
<svg width="800px" height="800px" viewBox="0 0 1024 1024" xmlns="http://www.w3.org/2000/svg">
   <circle cx="512" cy="512" r="512" style="fill:red"/>
   <path d="M608.3 499.9v-1.3c46.5-14 78.2-47.7 78.2-98.6 0-82.1-70-113.3-138-113.3H318.4v6.7l23.1 19.6c27.7 22.6 31.4 27 31.4 47.4v376.8h162.4c85.2 0 170.5-30.6 170.5-128.6-.1-57.7-40.9-102.3-97.5-108.7zM453 355.5h66.1c44.7 0 58.6 6.2 72.2 19 10.3 9.8 15 23.2 15.1 38.9 0 14.5-5 27.6-15.6 37.7-13.2 12.7-31.4 18.9-64.6 18.9H453V355.5zm73.8 313.1H453V538.7h77c64.9 0 95.5 16.5 95.5 63.6 0 59.3-57.4 66.3-98.7 66.3z" style="fill:#fff"/>
</svg>