<svg xmlns="http://www.w3.org/2000/svg" xml:space="preserve" viewBox="0 0 1409 1408.1"><linearGradient id="a" x1="601.093" x2="487.473" y1="879.558" y2="877.868" gradientTransform="translate(0 -373.06)" gradientUnits="userSpaceOnUse"><stop offset="0" style="stop-color:#000;stop-opacity:0"/><stop offset="1" style="stop-color:#000"/></linearGradient><path d="m599.4 619-.1-116.1c0-6.9-2.7-13.5-7.6-18.4L491.2 383.7l-70.1 77.4L584.9 625c5.4 5.3 14.5 1.5 14.5-6" style="fill:url(#a)"/><linearGradient id="b" x1="396.304" x2="223.453" y1="1239.858" y2="1239.858" gradientTransform="translate(0 -373.06)" gradientUnits="userSpaceOnUse"><stop offset="0" style="stop-color:#000;stop-opacity:0"/><stop offset=".96" style="stop-color:#000"/></linearGradient><path d="M391.6 914 153.4 676.4l-90.9 57 322.2 321.2c5.3 5.3 14.5 1.6 14.5-6V932.5c0-6.9-2.7-13.6-7.6-18.5" style="fill:url(#b)"/><path d="M654.7 4.3C300.2 28.8 16.9 322.2 3.5 677.3c-13 346.7 225.4 640.1 547.3 712L121.7 960.1c-6.2-6.2-9.6-14.5-9.6-23.2l.3-138.7c0-5.8 7-8.7 11.1-4.6l70.6-76.7c-4.4-4.4-4.4-11.6 0-16l67.9-67.7c4.4-4.4 11.6-4.4 16 0l229.4 229.4c9.8 9.8 15.2 23 15.2 36.8v239.3c0 34.5 13.7 67.6 38.1 91.9l174.9 174.9c44.4-1.9 87.7-8 129.6-17.8L643.6 1166c-11-11-17.1-25.8-17.1-41.3V893.5c0-37.9-15.1-74.3-41.9-101.1L351.8 559.6c-4.4-4.4-4.4-11.6 0-16l67.4-67.2c4.4-4.4 11.6-4.4 16 0l70.1-77.4c-1.3-1.5-2.5-3.1-3.8-4.8-20-27-32.2-71.6-18-121.8 8.5-32.2 26.1-56.4 58.7-85.9 2.9-2.6 7.4-2.7 10.3-.2l84.3 73 16.6 14.4c6.4 5.5 14 9.5 22.2 11.4l262.8 62.5c3.1.7 5.9 2.3 8.1 4.5l269.9 269.3c4.7 4.5 7.4 10.8 7.4 17.3v57.2c0 8.8-2.2 17.5-6.5 25.2l-133.6 243.4c-5.8 10.7-18.8 15.1-30 10.3L992.1 948h-225c-14.5 0-26.2 11.7-26.2 26.2v100.3c0 13.8 5.5 27.1 15.2 36.9l233.1 234.8c245.4-109.3 416.6-355.4 416.6-641.6.2-404.3-341.2-728.7-751.1-700.3" style="fill:#000"/></svg>