<svg width="40" height="40" viewBox="0 0 40 40" fill="none" xmlns="http://www.w3.org/2000/svg">
<path d="M17.4046 18.0053L17.4015 14.6971C17.4015 14.5012 17.3238 14.3115 17.1838 14.1716L14.3171 11.3018L12.3179 13.5062L16.988 18.1763C17.1434 18.3287 17.4046 18.2198 17.4046 18.0053Z" fill="url(#paint0_linear_1043_6445)"/>
<path d="M11.0742 25.9834L5.44332 20.365L3.43164 22.5508L10.8814 29.9912C11.0338 30.1436 11.2949 30.0348 11.2949 29.8202V26.5089C11.2918 26.313 11.2141 26.1233 11.0742 25.9834Z" fill="url(#paint1_linear_1043_6445)"/>
<path d="M18.5769 0.0492619C8.47181 0.748843 0.393976 9.11272 0.0146475 19.2364C-0.358462 29.1207 6.43836 37.4815 15.6137 39.5336L3.38196 27.2987C3.20785 27.1246 3.10835 26.8852 3.10835 26.6364L3.11768 22.6846C3.11768 22.5198 3.31667 22.4359 3.43482 22.554L5.44651 20.3682C5.31903 20.2407 5.31903 20.0355 5.44651 19.9111L7.38357 17.9803C7.51105 17.8528 7.71315 17.8559 7.84063 17.9803L14.3794 24.5191C14.6561 24.7958 14.8147 25.1751 14.8147 25.5669V32.3917C14.8147 33.3742 15.2064 34.3163 15.8998 35.0128L20.887 40C22.1525 39.9471 23.3869 39.773 24.5808 39.4932L18.2628 33.1752C17.9519 32.8643 17.7747 32.4383 17.7747 31.9968V25.399C17.7747 24.3169 17.3456 23.2816 16.5807 22.5167L9.94248 15.8784C9.815 15.751 9.815 15.5458 9.94248 15.4214L11.864 13.5061C11.9915 13.3786 12.1936 13.3817 12.3211 13.5061L14.3203 11.3016C14.283 11.2581 14.2488 11.2115 14.2115 11.1648C13.6394 10.3937 13.2942 9.12516 13.6985 7.6918C13.941 6.77457 14.4447 6.08431 15.3712 5.24171C15.4521 5.16709 15.5827 5.16398 15.6635 5.23549L18.0669 7.31558L18.5396 7.726C18.7199 7.88457 18.9375 7.9965 19.1738 8.05247L26.664 9.83096C26.7511 9.85272 26.8319 9.89625 26.8941 9.95844L34.5926 17.6352C34.7263 17.7627 34.804 17.943 34.804 18.1295V19.7619C34.804 20.0137 34.7418 20.2594 34.6206 20.4801L30.8118 27.4169C30.647 27.7216 30.2739 27.8491 29.9567 27.7091L28.2 26.9443H21.7856C21.3721 26.9443 21.0394 27.277 21.0394 27.6905V30.551C21.0394 30.9459 21.1949 31.3221 21.4716 31.6019L28.116 38.2961C35.1118 35.1807 39.9934 28.1631 39.9934 20.0075C39.9934 8.48776 30.2614 -0.759143 18.5769 0.0492619Z" fill="#F5FF80"/>
<defs>
<linearGradient id="paint0_linear_1043_6445" x1="17.4527" y1="14.7987" x2="14.2137" y2="14.7505" gradientUnits="userSpaceOnUse">
<stop stop-color="#F5FF80" stop-opacity="0"/>
<stop offset="1" stop-color="#F5FF80"/>
</linearGradient>
<linearGradient id="paint1_linear_1043_6445" x1="11.2251" y1="25.2152" x2="7.18901" y2="25.2152" gradientUnits="userSpaceOnUse">
<stop stop-color="#F5FF80" stop-opacity="0"/>
<stop offset="0.96" stop-color="#F5FF80"/>
</linearGradient>
</defs>
</svg>
