<svg width="40" height="40" viewBox="0 0 40 40" fill="none" xmlns="http://www.w3.org/2000/svg">
<mask id="mask0_1043_6438" style="mask-type:luminance" maskUnits="userSpaceOnUse" x="0" y="0" width="40" height="40">
<path d="M20 0C31.0448 0 40 8.95522 40 20C40 31.0448 31.0448 40 20 40C8.95522 40 0 31.0448 0 20C0 8.95522 8.95522 0 20 0Z" fill="white"/>
</mask>
<g mask="url(#mask0_1043_6438)">
<path d="M39.9191 19.997C39.9191 28.122 35.059 35.1089 28.0907 38.2122L21.4738 31.5455C21.1971 31.2656 21.0416 30.8894 21.0416 30.4976V27.6494C21.0416 27.2389 21.3743 26.9062 21.7848 26.9062H28.1747L29.9222 27.668C30.2394 27.8048 30.6063 27.6804 30.7742 27.3757L34.5677 20.4665C34.689 20.2489 34.7512 20.0001 34.7512 19.7513V18.1251C34.7512 17.9385 34.6765 17.7613 34.5397 17.6338L26.8749 9.99077C26.8127 9.92858 26.7319 9.88505 26.6448 9.86328L19.1852 8.09089C18.952 8.03492 18.7344 7.92298 18.554 7.76751L18.0814 7.35706L15.6871 5.28306C15.6032 5.21154 15.4757 5.21465 15.3948 5.28928C14.4713 6.12572 13.9707 6.81602 13.7282 7.72709C13.3239 9.15433 13.6691 10.4199 14.2381 11.1848C14.2723 11.2346 14.3096 11.2781 14.3469 11.3216L17.2014 14.1792C17.3413 14.316 17.416 14.5057 17.416 14.7016L17.4191 17.9976C17.4191 18.2122 17.161 18.3179 17.0086 18.1686L12.36 13.5231C12.2356 13.3987 12.0304 13.3987 11.906 13.5231L9.9906 15.4292C9.86311 15.5536 9.86311 15.7588 9.9906 15.8863L16.6013 22.497C17.3631 23.2588 17.7891 24.2911 17.7891 25.367V31.9342C17.7891 32.3757 17.9632 32.7955 18.2742 33.1064L24.5646 39.4C23.3768 39.6798 22.1454 39.8508 20.883 39.9068L15.9172 34.941C15.2238 34.2476 14.8351 33.3086 14.8351 32.3322V25.5349C14.8351 25.1431 14.6797 24.7669 14.4029 24.4901L7.89483 17.979C7.77045 17.8546 7.56523 17.8546 7.44085 17.979L5.51299 19.9037C5.3855 20.0281 5.3855 20.2333 5.51299 20.3577L11.1193 25.964C11.2561 26.104 11.3339 26.2905 11.3339 26.4864V29.7731C11.3339 29.9877 11.0758 30.0934 10.9234 29.9441L3.50739 22.5312C3.39234 22.4161 3.19333 22.497 3.19333 22.6618L3.18401 26.5984C3.18401 26.844 3.2804 27.0834 3.45453 27.2576L15.6374 39.4435C6.49868 37.4006 -0.270596 29.0735 0.0994286 19.229C0.478782 9.14811 8.52294 0.814773 18.5882 0.121365C30.2269 -0.683983 39.9191 8.52311 39.9191 19.997Z" fill="black"/>
</g>
</svg>
