<svg xmlns="http://www.w3.org/2000/svg" xmlns:xlink="http://www.w3.org/1999/xlink" width="80" height="80" viewBox="4 4 32 32"><defs><path d="M20.42 0C9.14 0 0 8.95 0 20s9.14 20 20.42 20c11.28 0 20.42-8.95 20.42-20S31.7 0 20.42 0z" id="a"/><path d="M20.42 0C9.14 0 0 8.95 0 20s9.14 20 20.42 20c11.28 0 20.42-8.95 20.42-20S31.7 0 20.42 0z" id="b"/><path d="M20.42 6.56c-7.56 0-13.69 6.01-13.69 13.41 0 7.41 6.13 13.41 13.69 13.41s13.69-6 13.69-13.41c0-7.4-6.13-13.41-13.69-13.41z" id="c"/><path d="M20.42 6.56c-7.56 0-13.69 6.01-13.69 13.41 0 7.41 6.13 13.41 13.69 13.41s13.69-6 13.69-13.41c0-7.4-6.13-13.41-13.69-13.41z" id="d"/><path d="M23.82 16.38c-.82 1.96-.22 4.06 1.34 4.69 1.56.63 3.5-.45 4.32-2.42.82-1.96.22-4.06-1.34-4.68-1.56-.63-3.49.45-4.32 2.41z" id="e"/><path d="M23.82 16.38c-.82 1.96-.22 4.06 1.34 4.69 1.56.63 3.5-.45 4.32-2.42.82-1.96.22-4.06-1.34-4.68-1.56-.63-3.49.45-4.32 2.41z" id="f"/><path d="M20.45 28.27c-2.16 0-3.92 1.87-3.92 4.16 0 2.3 1.76 4.17 3.92 4.17 2.17 0 3.93-1.87 3.93-4.17 0-2.29-1.76-4.16-3.93-4.16z" id="g"/><path d="M20.45 28.27c-2.16 0-3.92 1.87-3.92 4.16 0 2.3 1.76 4.17 3.92 4.17 2.17 0 3.93-1.87 3.93-4.17 0-2.29-1.76-4.16-3.93-4.16z" id="h"/><path d="M12.83 13.96c-1.56.63-2.16 2.73-1.33 4.69.82 1.96 2.75 3.04 4.31 2.42 1.56-.63 2.16-2.73 1.34-4.69-.82-1.96-2.75-3.05-4.32-2.42z" id="i"/><path d="M12.83 13.96c-1.56.63-2.16 2.73-1.33 4.69.82 1.96 2.75 3.04 4.31 2.42 1.56-.63 2.16-2.73 1.34-4.69-.82-1.96-2.75-3.05-4.32-2.42z" id="j"/><path d="M37.49 24.22c-1.32 5.27-5.12 9.58-10.11 11.7.05-.42.08-.89.08-1.43-.01-.54-.03-1.08-.08-1.62 4.23-2.22 7.24-6.41 7.74-11.31.24.26 2.13 2.4 2.37 2.66zm-12.15 9.54c-.32 1.27-.83 2.37-1.47 3.24-1.12.22-2.28.34-3.47.34-1.11 0-2.2-.1-3.26-.3-.65-.86-1.16-1.96-1.49-3.21 1.49.49 3.08.76 4.75.76 1.73 0 3.39-.29 4.94-.83zM3.35 24.42c1.38 5.21 5.18 9.46 10.15 11.54-.05-.43-.08-.92-.08-1.47 0-.53.03-1.06.08-1.58-4.31-2.22-7.35-6.46-7.83-11.43-.24.29-2.09 2.65-2.32 2.94zM29.76 5.49c-.28.16-2.55 1.44-2.83 1.6 2.11 1.01 3.95 2.52 5.35 4.36.33-.47 1.51-2.12 1.68-2.35-1.2-1.41-2.61-2.63-4.2-3.61zM8.74 11.16c1.38-1.72 3.14-3.12 5.16-4.09-.18-.12-1.07-.68-2.67-1.7-2.1 1.5-3.56 2.74-4.38 3.71.19.21 1.7 1.88 1.89 2.08z" id="k"/><path d="M37.49 24.22c-1.32 5.27-5.12 9.58-10.11 11.7.05-.42.08-.89.08-1.43-.01-.54-.03-1.08-.08-1.62 4.23-2.22 7.24-6.41 7.74-11.31.24.26 2.13 2.4 2.37 2.66zm-12.15 9.54c-.32 1.27-.83 2.37-1.47 3.24-1.12.22-2.28.34-3.47.34-1.11 0-2.2-.1-3.26-.3-.65-.86-1.16-1.96-1.49-3.21 1.49.49 3.08.76 4.75.76 1.73 0 3.39-.29 4.94-.83zM3.35 24.42c1.38 5.21 5.18 9.46 10.15 11.54-.05-.43-.08-.92-.08-1.47 0-.53.03-1.06.08-1.58-4.31-2.22-7.35-6.46-7.83-11.43-.24.29-2.09 2.65-2.32 2.94zM29.76 5.49c-.28.16-2.55 1.44-2.83 1.6 2.11 1.01 3.95 2.52 5.35 4.36.33-.47 1.51-2.12 1.68-2.35-1.2-1.41-2.61-2.63-4.2-3.61zM8.74 11.16c1.38-1.72 3.14-3.12 5.16-4.09-.18-.12-1.07-.68-2.67-1.7-2.1 1.5-3.56 2.74-4.38 3.71.19.21 1.7 1.88 1.89 2.08z" id="l"/><path d="M18.34 9.52c-5.02.95-8.8 5.28-8.8 10.47 0 3.67 1.9 6.91 4.79 8.83.13-.37.26-.72.42-1.06-2.48-1.73-4.09-4.57-4.09-7.77 0-4.35 2.96-8.01 7.01-9.18.19-.5.41-.93.67-1.29z" id="m"/><path d="M18.34 9.52c-5.02.95-8.8 5.28-8.8 10.47 0 3.67 1.9 6.91 4.79 8.83.13-.37.26-.72.42-1.06-2.48-1.73-4.09-4.57-4.09-7.77 0-4.35 2.96-8.01 7.01-9.18.19-.5.41-.93.67-1.29z" id="n"/><path d="M17.19 13.19c.03-.33.06-.64.11-.95a8.469 8.469 0 00-4.72 4.55c.17.04.74.19.83.21a7.546 7.546 0 013.78-3.81z" id="o"/><path d="M17.19 13.19c.03-.33.06-.64.11-.95a8.469 8.469 0 00-4.72 4.55c.17.04.74.19.83.21a7.546 7.546 0 013.78-3.81z" id="p"/><path d="M15.33 26.62c.14-.24.29-.48.45-.7a7.46 7.46 0 01-2.9-4.75h-.85a8.294 8.294 0 003.3 5.45z" id="q"/><path d="M15.33 26.62c.14-.24.29-.48.45-.7a7.46 7.46 0 01-2.9-4.75h-.85a8.294 8.294 0 003.3 5.45z" id="r"/><path d="M22.73 11.98c.06.29.11.59.15.91 2.06.68 3.72 2.2 4.57 4.14l.82-.21a8.42 8.42 0 00-5.54-4.84z" id="s"/><path d="M22.73 11.98c.06.29.11.59.15.91 2.06.68 3.72 2.2 4.57 4.14l.82-.21a8.42 8.42 0 00-5.54-4.84z" id="t"/><path d="M25.11 18.5l-.44 1.31 1.34.88 2.46-.88.45-.87-.89-.9-2.92.46z" id="u"/><path d="M25.11 18.5l-.44 1.31 1.34.88 2.46-.88.45-.87-.89-.9-2.92.46z" id="v"/><path d="M15.85 18.5l.44 1.31-1.34.88-2.45-.88-.45-.87.88-.9 2.92.46z" id="w"/><path d="M15.85 18.5l.44 1.31-1.34.88-2.45-.88-.45-.87.88-.9 2.92.46z" id="x"/><path d="M27.97 21.17c-.05.25-.1.5-.17.75.25.2.48.39.7.58.14-.43.25-.87.32-1.33h-.85z" id="y"/><path d="M27.97 21.17c-.05.25-.1.5-.17.75.25.2.48.39.7.58.14-.43.25-.87.32-1.33h-.85z" id="z"/><path d="M25.57 26.58c.38-.29.73-.6 1.06-.94-.27-.11-.54-.23-.82-.36-.22.21-.45.41-.69.6.16.22.31.45.45.7z" id="A"/><path d="M25.57 26.58c.38-.29.73-.6 1.06-.94-.27-.11-.54-.23-.82-.36-.22.21-.45.41-.69.6.16.22.31.45.45.7z" id="B"/><path d="M30.07 25.28c.69-1.4 1.08-2.96 1.08-4.61 0-5.5-4.26-10.03-9.72-10.6.27.33.51.74.71 1.21 4.49.86 7.88 4.74 7.88 9.39 0 1.25-.25 2.43-.69 3.52.33.39.58.76.74 1.09z" id="C"/><path d="M30.07 25.28c.69-1.4 1.08-2.96 1.08-4.61 0-5.5-4.26-10.03-9.72-10.6.27.33.51.74.71 1.21 4.49.86 7.88 4.74 7.88 9.39 0 1.25-.25 2.43-.69 3.52.33.39.58.76.74 1.09z" id="D"/><path d="M26.59 28.77c1.02-.69 1.91-1.54 2.64-2.52-.37 0-.8-.06-1.28-.18-.52.62-1.12 1.17-1.78 1.65.15.33.29.69.42 1.05z" id="E"/><path d="M26.59 28.77c1.02-.69 1.91-1.54 2.64-2.52-.37 0-.8-.06-1.28-.18-.52.62-1.12 1.17-1.78 1.65.15.33.29.69.42 1.05z" id="F"/><path d="M20.42 9.31h-.85c-.47 5.66-.73 8.8-.78 9.43v.06c0 .15.01.3.04.45.02.16.06.32.14.48.16.41.43.72.74.87.07.05.14.11.22.16.01.01.03.02.05.02v.01c.63.34 3.8 2.04 9.5 5.11l.49-.67c-5.17-3.93-8.04-6.11-8.61-6.55-.01 0-.02 0-.02-.01-.06-.62-.37-3.74-.92-9.36z" id="G"/><path d="M20.42 9.31h-.85c-.47 5.66-.73 8.8-.78 9.43v.06c0 .15.01.3.04.45.02.16.06.32.14.48.16.41.43.72.74.87.07.05.14.11.22.16.01.01.03.02.05.02v.01c.63.34 3.8 2.04 9.5 5.11l.49-.67c-5.17-3.93-8.04-6.11-8.61-6.55-.01 0-.02 0-.02-.01-.06-.62-.37-3.74-.92-9.36z" id="H"/><path d="M24.54 29.01c-.06-.14-.34-.82-.84-2.04l-3.28 1.3-3.28-1.3c-.5 1.22-.77 1.9-.83 2.04 2.08.81 3.25 1.26 3.48 1.35a1.6 1.6 0 01-1.54 1.13h-.15c-.07.09-.64.87-.71.97a2.73 2.73 0 003.02-.91c.49.63 1.28 1.05 2.16 1.05.33 0 .65-.06.94-.17-.07-.1-.62-.86-.69-.95-.09.01-.17.01-.25.01-.74 0-1.37-.49-1.55-1.16.24-.09 1.41-.53 3.52-1.32z" id="I"/><path d="M24.54 29.01c-.06-.14-.34-.82-.84-2.04l-3.28 1.3-3.28-1.3c-.5 1.22-.77 1.9-.83 2.04 2.08.81 3.25 1.26 3.48 1.35a1.6 1.6 0 01-1.54 1.13h-.15c-.07.09-.64.87-.71.97a2.73 2.73 0 003.02-.91c.49.63 1.28 1.05 2.16 1.05.33 0 .65-.06.94-.17-.07-.1-.62-.86-.69-.95-.09.01-.17.01-.25.01-.74 0-1.37-.49-1.55-1.16.24-.09 1.41-.53 3.52-1.32z" id="J"/><path d="M32.43 19.97c0 4.15-2.2 7.8-5.51 9.89.14.55.26 1.13.35 1.72 4.09-2.32 6.83-6.65 6.83-11.61a13.14 13.14 0 00-2.74-8.06c-.23.25-1.03 1.14-1.14 1.27 1.39 1.92 2.21 4.26 2.21 6.79z" id="K"/><path d="M32.43 19.97c0 4.15-2.2 7.8-5.51 9.89.14.55.26 1.13.35 1.72 4.09-2.32 6.83-6.65 6.83-11.61a13.14 13.14 0 00-2.74-8.06c-.23.25-1.03 1.14-1.14 1.27 1.39 1.92 2.21 4.26 2.21 6.79z" id="L"/><path d="M9.48 11.92a13.119 13.119 0 00-2.75 8.05c0 4.99 2.78 9.34 6.91 11.65.1-.59.21-1.17.36-1.71-3.36-2.09-5.58-5.76-5.58-9.94 0-2.52.81-4.86 2.2-6.78a68.75 68.75 0 00-1.14-1.27z" id="M"/><path d="M9.48 11.92a13.119 13.119 0 00-2.75 8.05c0 4.99 2.78 9.34 6.91 11.65.1-.59.21-1.17.36-1.71-3.36-2.09-5.58-5.76-5.58-9.94 0-2.52.81-4.86 2.2-6.78a68.75 68.75 0 00-1.14-1.27z" id="N"/><path d="M15.39 9.29c1.53-.69 3.23-1.08 5.03-1.08 1.79 0 3.5.39 5.03 1.08.08-.14.75-1.29.84-1.44-1.78-.82-3.77-1.29-5.87-1.29s-4.1.47-5.87 1.3c.08.14.75 1.29.84 1.43z" id="O"/><path d="M15.39 9.29c1.53-.69 3.23-1.08 5.03-1.08 1.79 0 3.5.39 5.03 1.08.08-.14.75-1.29.84-1.44-1.78-.82-3.77-1.29-5.87-1.29s-4.1.47-5.87 1.3c.08.14.75 1.29.84 1.43z" id="P"/></defs><use xlink:href="#a" fill="#fff"/><use xlink:href="#a" fill-opacity="0" stroke="#000" stroke-opacity="0"/><use xlink:href="#b" fill-opacity="0"/><use xlink:href="#b" fill-opacity="0" stroke="#000" stroke-opacity="0"/><use xlink:href="#c" fill="#fdb515"/><use xlink:href="#c" fill-opacity="0" stroke="#000" stroke-opacity="0"/><use xlink:href="#d" fill-opacity="0"/><use xlink:href="#d" fill-opacity="0" stroke="#000" stroke-opacity="0"/><use xlink:href="#e" fill="#fff"/><use xlink:href="#e" fill-opacity="0" stroke="#000" stroke-opacity="0"/><use xlink:href="#f" fill-opacity="0"/><use xlink:href="#f" fill-opacity="0" stroke="#000" stroke-opacity="0"/><use xlink:href="#g" fill="#fff"/><use xlink:href="#g" fill-opacity="0" stroke="#000" stroke-opacity="0"/><use xlink:href="#h" fill-opacity="0"/><use xlink:href="#h" fill-opacity="0" stroke="#000" stroke-opacity="0"/><use xlink:href="#i" fill="#fff"/><use xlink:href="#i" fill-opacity="0" stroke="#000" stroke-opacity="0"/><use xlink:href="#j" fill-opacity="0"/><use xlink:href="#j" fill-opacity="0" stroke="#000" stroke-opacity="0"/><use xlink:href="#k" fill="#333"/><use xlink:href="#k" fill-opacity="0" stroke="#000" stroke-opacity="0"/><use xlink:href="#l" fill-opacity="0"/><use xlink:href="#l" fill-opacity="0" stroke="#000" stroke-opacity="0"/><use xlink:href="#m" fill="#333"/><use xlink:href="#m" fill-opacity="0" stroke="#000" stroke-opacity="0"/><use xlink:href="#n" fill-opacity="0"/><use xlink:href="#n" fill-opacity="0" stroke="#000" stroke-opacity="0"/><use xlink:href="#o" fill="#333"/><use xlink:href="#o" fill-opacity="0" stroke="#000" stroke-opacity="0"/><use xlink:href="#p" fill-opacity="0"/><use xlink:href="#p" fill-opacity="0" stroke="#000" stroke-opacity="0"/><use xlink:href="#q" fill="#333"/><use xlink:href="#q" fill-opacity="0" stroke="#000" stroke-opacity="0"/><use xlink:href="#r" fill-opacity="0"/><use xlink:href="#r" fill-opacity="0" stroke="#000" stroke-opacity="0"/><use xlink:href="#s" fill="#333"/><use xlink:href="#s" fill-opacity="0" stroke="#000" stroke-opacity="0"/><use xlink:href="#t" fill-opacity="0"/><use xlink:href="#t" fill-opacity="0" stroke="#000" stroke-opacity="0"/><use xlink:href="#u" fill="#333"/><use xlink:href="#u" fill-opacity="0" stroke="#000" stroke-opacity="0"/><g fill-opacity="0"><use xlink:href="#v"/><use xlink:href="#v" stroke="#000" stroke-opacity="0"/></g><use xlink:href="#w" fill="#333"/><use xlink:href="#w" fill-opacity="0" stroke="#000" stroke-opacity="0"/><g fill-opacity="0"><use xlink:href="#x"/><use xlink:href="#x" stroke="#000" stroke-opacity="0"/></g><use xlink:href="#y" fill="#333"/><use xlink:href="#y" fill-opacity="0" stroke="#000" stroke-opacity="0"/><g fill-opacity="0"><use xlink:href="#z"/><use xlink:href="#z" stroke="#000" stroke-opacity="0"/></g><use xlink:href="#A" fill="#333"/><use xlink:href="#A" fill-opacity="0" stroke="#000" stroke-opacity="0"/><g fill-opacity="0"><use xlink:href="#B"/><use xlink:href="#B" stroke="#000" stroke-opacity="0"/></g><use xlink:href="#C" fill="#333"/><use xlink:href="#C" fill-opacity="0" stroke="#000" stroke-opacity="0"/><g fill-opacity="0"><use xlink:href="#D"/><use xlink:href="#D" stroke="#000" stroke-opacity="0"/></g><use xlink:href="#E" fill="#333"/><use xlink:href="#E" fill-opacity="0" stroke="#000" stroke-opacity="0"/><g fill-opacity="0"><use xlink:href="#F"/><use xlink:href="#F" stroke="#000" stroke-opacity="0"/></g><use xlink:href="#G" fill="#333"/><use xlink:href="#G" fill-opacity="0" stroke="#000" stroke-opacity="0"/><g fill-opacity="0"><use xlink:href="#H"/><use xlink:href="#H" stroke="#000" stroke-opacity="0"/></g><use xlink:href="#I" fill="#333"/><use xlink:href="#I" fill-opacity="0" stroke="#000" stroke-opacity="0"/><g fill-opacity="0"><use xlink:href="#J"/><use xlink:href="#J" stroke="#000" stroke-opacity="0"/></g><use xlink:href="#K" fill="#333"/><use xlink:href="#K" fill-opacity="0" stroke="#000" stroke-opacity="0"/><g fill-opacity="0"><use xlink:href="#L"/><use xlink:href="#L" stroke="#000" stroke-opacity="0"/></g><use xlink:href="#M" fill="#333"/><use xlink:href="#M" fill-opacity="0" stroke="#000" stroke-opacity="0"/><g fill-opacity="0"><use xlink:href="#N"/><use xlink:href="#N" stroke="#000" stroke-opacity="0"/></g><use xlink:href="#O" fill="#333"/><use xlink:href="#O" fill-opacity="0" stroke="#000" stroke-opacity="0"/><g fill-opacity="0"><use xlink:href="#P"/><use xlink:href="#P" stroke="#000" stroke-opacity="0"/></g></svg>