<?xml version="1.0" encoding="UTF-8" standalone="no"?>
<!DOCTYPE svg PUBLIC "-//W3C//DTD SVG 1.1//EN" "http://www.w3.org/Graphics/SVG/1.1/DTD/svg11.dtd">
<svg version="1.1" xmlns="http://www.w3.org/2000/svg" xmlns:xlink="http://www.w3.org/1999/xlink" width="80px" height="80px"  viewBox="4 4 32 32"><defs><path d="M20.42 0C9.14 0 0 8.95 0 20C0 31.05 9.14 40 20.42 40C31.7 40 40.84 31.05 40.84 20C40.84 8.95 31.7 0 20.42 0Z" id="d1hxvVyaGo"></path><path d="M20.42 0C9.14 0 0 8.95 0 20C0 31.05 9.14 40 20.42 40C31.7 40 40.84 31.05 40.84 20C40.84 8.95 31.7 0 20.42 0Z" id="cNHUcEeGQ"></path><path d="M20.42 6.56C12.86 6.56 6.73 12.57 6.73 19.97C6.73 27.38 12.86 33.38 20.42 33.38C27.98 33.38 34.11 27.38 34.11 19.97C34.11 12.57 27.98 6.56 20.42 6.56Z" id="bi9X5uZiU"></path><path d="M20.42 6.56C12.86 6.56 6.73 12.57 6.73 19.97C6.73 27.38 12.86 33.38 20.42 33.38C27.98 33.38 34.11 27.38 34.11 19.97C34.11 12.57 27.98 6.56 20.42 6.56Z" id="hmMB4d1Dy"></path><path d="M23.82 16.38C23 18.34 23.6 20.44 25.16 21.07C26.72 21.7 28.66 20.62 29.48 18.65C30.3 16.69 29.7 14.59 28.14 13.97C26.58 13.34 24.65 14.42 23.82 16.38Z" id="a2HHkFBWIG"></path><path d="M23.82 16.38C23 18.34 23.6 20.44 25.16 21.07C26.72 21.7 28.66 20.62 29.48 18.65C30.3 16.69 29.7 14.59 28.14 13.97C26.58 13.34 24.65 14.42 23.82 16.38Z" id="a1ybJKyO6M"></path><path d="M20.45 28.27C18.29 28.27 16.53 30.14 16.53 32.43C16.53 34.73 18.29 36.6 20.45 36.6C22.62 36.6 24.38 34.73 24.38 32.43C24.38 30.14 22.62 28.27 20.45 28.27Z" id="b2PkJqlTMD"></path><path d="M20.45 28.27C18.29 28.27 16.53 30.14 16.53 32.43C16.53 34.73 18.29 36.6 20.45 36.6C22.62 36.6 24.38 34.73 24.38 32.43C24.38 30.14 22.62 28.27 20.45 28.27Z" id="k4lEU0z7RN"></path><path d="M12.83 13.96C11.27 14.59 10.67 16.69 11.5 18.65C12.32 20.61 14.25 21.69 15.81 21.07C17.37 20.44 17.97 18.34 17.15 16.38C16.33 14.42 14.4 13.33 12.83 13.96Z" id="b5IwHNYTvB"></path><path d="M12.83 13.96C11.27 14.59 10.67 16.69 11.5 18.65C12.32 20.61 14.25 21.69 15.81 21.07C17.37 20.44 17.97 18.34 17.15 16.38C16.33 14.42 14.4 13.33 12.83 13.96Z" id="f49EjiTdSk"></path><path d="M37.49 24.22C36.17 29.49 32.37 33.8 27.38 35.92C27.43 35.5 27.46 35.03 27.46 34.49C27.45 33.95 27.43 33.41 27.38 32.87C31.61 30.65 34.62 26.46 35.12 21.56C35.36 21.82 37.25 23.96 37.49 24.22ZM25.34 33.76C25.02 35.03 24.51 36.13 23.87 37C22.75 37.22 21.59 37.34 20.4 37.34C19.29 37.34 18.2 37.24 17.14 37.04C16.49 36.18 15.98 35.08 15.65 33.83C17.14 34.32 18.73 34.59 20.4 34.59C22.13 34.59 23.79 34.3 25.34 33.76ZM3.35 24.42C4.73 29.63 8.53 33.88 13.5 35.96C13.45 35.53 13.42 35.04 13.42 34.49C13.42 33.96 13.45 33.43 13.5 32.91C9.19 30.69 6.15 26.45 5.67 21.48C5.43 21.77 3.58 24.13 3.35 24.42ZM29.76 5.49C29.48 5.65 27.21 6.93 26.93 7.09C29.04 8.1 30.88 9.61 32.28 11.45C32.61 10.98 33.79 9.33 33.96 9.1C32.76 7.69 31.35 6.47 29.76 5.49ZM8.74 11.16C10.12 9.44 11.88 8.04 13.9 7.07C13.72 6.95 12.83 6.39 11.23 5.37C9.13 6.87 7.67 8.11 6.85 9.08C7.04 9.29 8.55 10.96 8.74 11.16Z" id="e7ROnX0zq"></path><path d="M37.49 24.22C36.17 29.49 32.37 33.8 27.38 35.92C27.43 35.5 27.46 35.03 27.46 34.49C27.45 33.95 27.43 33.41 27.38 32.87C31.61 30.65 34.62 26.46 35.12 21.56C35.36 21.82 37.25 23.96 37.49 24.22ZM25.34 33.76C25.02 35.03 24.51 36.13 23.87 37C22.75 37.22 21.59 37.34 20.4 37.34C19.29 37.34 18.2 37.24 17.14 37.04C16.49 36.18 15.98 35.08 15.65 33.83C17.14 34.32 18.73 34.59 20.4 34.59C22.13 34.59 23.79 34.3 25.34 33.76ZM3.35 24.42C4.73 29.63 8.53 33.88 13.5 35.96C13.45 35.53 13.42 35.04 13.42 34.49C13.42 33.96 13.45 33.43 13.5 32.91C9.19 30.69 6.15 26.45 5.67 21.48C5.43 21.77 3.58 24.13 3.35 24.42ZM29.76 5.49C29.48 5.65 27.21 6.93 26.93 7.09C29.04 8.1 30.88 9.61 32.28 11.45C32.61 10.98 33.79 9.33 33.96 9.1C32.76 7.69 31.35 6.47 29.76 5.49ZM8.74 11.16C10.12 9.44 11.88 8.04 13.9 7.07C13.72 6.95 12.83 6.39 11.23 5.37C9.13 6.87 7.67 8.11 6.85 9.08C7.04 9.29 8.55 10.96 8.74 11.16Z" id="k3jpaUWErU"></path><path d="M18.34 9.52C13.32 10.47 9.54 14.8 9.54 19.99C9.54 23.66 11.44 26.9 14.33 28.82C14.46 28.45 14.59 28.1 14.75 27.76C12.27 26.03 10.66 23.19 10.66 19.99C10.66 15.64 13.62 11.98 17.67 10.81C17.86 10.31 18.08 9.88 18.34 9.52Z" id="bU7b1w2q2"></path><path d="M18.34 9.52C13.32 10.47 9.54 14.8 9.54 19.99C9.54 23.66 11.44 26.9 14.33 28.82C14.46 28.45 14.59 28.1 14.75 27.76C12.27 26.03 10.66 23.19 10.66 19.99C10.66 15.64 13.62 11.98 17.67 10.81C17.86 10.31 18.08 9.88 18.34 9.52Z" id="e56nbOOAO"></path><path d="M17.19 13.19C17.22 12.86 17.25 12.55 17.3 12.24C15.17 13.07 13.46 14.72 12.58 16.79C12.75 16.83 13.32 16.98 13.41 17C14.15 15.32 15.5 13.96 17.19 13.19Z" id="aj2IZ7tMY"></path><path d="M17.19 13.19C17.22 12.86 17.25 12.55 17.3 12.24C15.17 13.07 13.46 14.72 12.58 16.79C12.75 16.83 13.32 16.98 13.41 17C14.15 15.32 15.5 13.96 17.19 13.19Z" id="bCBhnufJb"></path><path d="M15.33 26.62C15.47 26.38 15.62 26.14 15.78 25.92C14.26 24.78 13.2 23.1 12.88 21.17C12.71 21.17 12.11 21.17 12.03 21.17C12.36 23.39 13.58 25.33 15.33 26.62Z" id="a6l2FDA3D0"></path><path d="M15.33 26.62C15.47 26.38 15.62 26.14 15.78 25.92C14.26 24.78 13.2 23.1 12.88 21.17C12.71 21.17 12.11 21.17 12.03 21.17C12.36 23.39 13.58 25.33 15.33 26.62Z" id="c1kNeFBolC"></path><path d="M22.73 11.98C22.79 12.27 22.84 12.57 22.88 12.89C24.94 13.57 26.6 15.09 27.45 17.03C27.61 16.99 28.19 16.84 28.27 16.82C27.29 14.48 25.25 12.67 22.73 11.98Z" id="i8FG5E3FNm"></path><path d="M22.73 11.98C22.79 12.27 22.84 12.57 22.88 12.89C24.94 13.57 26.6 15.09 27.45 17.03C27.61 16.99 28.19 16.84 28.27 16.82C27.29 14.48 25.25 12.67 22.73 11.98Z" id="i2bfS8saHM"></path><path d="M25.11 18.5L24.67 19.81L26.01 20.69L28.47 19.81L28.92 18.94L28.03 18.04L25.11 18.5Z" id="bpUNUsUiP"></path><path d="M25.11 18.5L24.67 19.81L26.01 20.69L28.47 19.81L28.92 18.94L28.03 18.04L25.11 18.5Z" id="areX7KXg"></path><path d="M15.85 18.5L16.29 19.81L14.95 20.69L12.5 19.81L12.05 18.94L12.93 18.04L15.85 18.5Z" id="i7luqG593A"></path><path d="M15.85 18.5L16.29 19.81L14.95 20.69L12.5 19.81L12.05 18.94L12.93 18.04L15.85 18.5Z" id="fCgif7M4Q"></path><path d="M27.97 21.17C27.92 21.42 27.87 21.67 27.8 21.92C28.05 22.12 28.28 22.31 28.5 22.5C28.64 22.07 28.75 21.63 28.82 21.17C28.73 21.17 28.05 21.17 27.97 21.17Z" id="d79oJJGnU"></path><path d="M27.97 21.17C27.92 21.42 27.87 21.67 27.8 21.92C28.05 22.12 28.28 22.31 28.5 22.5C28.64 22.07 28.75 21.63 28.82 21.17C28.73 21.17 28.05 21.17 27.97 21.17Z" id="c1ic8o6SYM"></path><path d="M25.57 26.58C25.95 26.29 26.3 25.98 26.63 25.64C26.36 25.53 26.09 25.41 25.81 25.28C25.59 25.49 25.36 25.69 25.12 25.88C25.28 26.1 25.43 26.33 25.57 26.58Z" id="f22G6Vs6S9"></path><path d="M25.57 26.58C25.95 26.29 26.3 25.98 26.63 25.64C26.36 25.53 26.09 25.41 25.81 25.28C25.59 25.49 25.36 25.69 25.12 25.88C25.28 26.1 25.43 26.33 25.57 26.58Z" id="e6zxG8JAkv"></path><path d="M30.07 25.28C30.76 23.88 31.15 22.32 31.15 20.67C31.15 15.17 26.89 10.64 21.43 10.07C21.7 10.4 21.94 10.81 22.14 11.28C26.63 12.14 30.02 16.02 30.02 20.67C30.02 21.92 29.77 23.1 29.33 24.19C29.66 24.58 29.91 24.95 30.07 25.28Z" id="aSbcn9cNX"></path><path d="M30.07 25.28C30.76 23.88 31.15 22.32 31.15 20.67C31.15 15.17 26.89 10.64 21.43 10.07C21.7 10.4 21.94 10.81 22.14 11.28C26.63 12.14 30.02 16.02 30.02 20.67C30.02 21.92 29.77 23.1 29.33 24.19C29.66 24.58 29.91 24.95 30.07 25.28Z" id="i3Fm8SLIBe"></path><path d="M26.59 28.77C27.61 28.08 28.5 27.23 29.23 26.25C28.86 26.25 28.43 26.19 27.95 26.07C27.43 26.69 26.83 27.24 26.17 27.72C26.32 28.05 26.46 28.41 26.59 28.77Z" id="m5RK09VD0u"></path><path d="M26.59 28.77C27.61 28.08 28.5 27.23 29.23 26.25C28.86 26.25 28.43 26.19 27.95 26.07C27.43 26.69 26.83 27.24 26.17 27.72C26.32 28.05 26.46 28.41 26.59 28.77Z" id="bpPvm3O2u"></path><path d="M20.42 9.31C20.36 9.31 20.08 9.31 19.57 9.31C19.1 14.97 18.84 18.11 18.79 18.74C18.79 18.74 18.79 18.74 18.79 18.74C18.79 18.76 18.79 18.78 18.79 18.8C18.79 18.95 18.8 19.1 18.83 19.25C18.85 19.41 18.89 19.57 18.97 19.73C19.13 20.14 19.4 20.45 19.71 20.6C19.78 20.65 19.85 20.71 19.93 20.76C19.94 20.77 19.96 20.78 19.98 20.78C19.98 20.79 19.98 20.79 19.98 20.79C20.61 21.13 23.78 22.83 29.48 25.9L29.97 25.23C24.8 21.3 21.93 19.12 21.36 18.68C21.35 18.68 21.34 18.68 21.34 18.67C21.28 18.05 20.97 14.93 20.42 9.31Z" id="jjEhJFcj2"></path><path d="M20.42 9.31C20.36 9.31 20.08 9.31 19.57 9.31C19.1 14.97 18.84 18.11 18.79 18.74C18.79 18.74 18.79 18.74 18.79 18.74C18.79 18.76 18.79 18.78 18.79 18.8C18.79 18.95 18.8 19.1 18.83 19.25C18.85 19.41 18.89 19.57 18.97 19.73C19.13 20.14 19.4 20.45 19.71 20.6C19.78 20.65 19.85 20.71 19.93 20.76C19.94 20.77 19.96 20.78 19.98 20.78C19.98 20.79 19.98 20.79 19.98 20.79C20.61 21.13 23.78 22.83 29.48 25.9L29.97 25.23C24.8 21.3 21.93 19.12 21.36 18.68C21.35 18.68 21.34 18.68 21.34 18.67C21.28 18.05 20.97 14.93 20.42 9.31Z" id="a1IL6Qv42n"></path><path d="M24.54 29.01C24.48 28.87 24.2 28.19 23.7 26.97L20.42 28.27L17.14 26.97C16.64 28.19 16.37 28.87 16.31 29.01C18.39 29.82 19.56 30.27 19.79 30.36C19.6 31.01 18.98 31.49 18.25 31.49C18.2 31.49 18.15 31.49 18.1 31.49C18.03 31.58 17.46 32.36 17.39 32.46C17.66 32.55 17.95 32.6 18.25 32.6C19.13 32.6 19.91 32.19 20.41 31.55C20.9 32.18 21.69 32.6 22.57 32.6C22.9 32.6 23.22 32.54 23.51 32.43C23.44 32.33 22.89 31.57 22.82 31.48C22.73 31.49 22.65 31.49 22.57 31.49C21.83 31.49 21.2 31 21.02 30.33C21.26 30.24 22.43 29.8 24.54 29.01Z" id="g5FlYgs8L"></path><path d="M24.54 29.01C24.48 28.87 24.2 28.19 23.7 26.97L20.42 28.27L17.14 26.97C16.64 28.19 16.37 28.87 16.31 29.01C18.39 29.82 19.56 30.27 19.79 30.36C19.6 31.01 18.98 31.49 18.25 31.49C18.2 31.49 18.15 31.49 18.1 31.49C18.03 31.58 17.46 32.36 17.39 32.46C17.66 32.55 17.95 32.6 18.25 32.6C19.13 32.6 19.91 32.19 20.41 31.55C20.9 32.18 21.69 32.6 22.57 32.6C22.9 32.6 23.22 32.54 23.51 32.43C23.44 32.33 22.89 31.57 22.82 31.48C22.73 31.49 22.65 31.49 22.57 31.49C21.83 31.49 21.2 31 21.02 30.33C21.26 30.24 22.43 29.8 24.54 29.01Z" id="d636GCWan"></path><path d="M32.43 19.97C32.43 24.12 30.23 27.77 26.92 29.86C27.06 30.41 27.18 30.99 27.27 31.58C31.36 29.26 34.1 24.93 34.1 19.97C34.11 16.95 33.08 14.15 31.36 11.91C31.13 12.16 30.33 13.05 30.22 13.18C31.61 15.1 32.43 17.44 32.43 19.97Z" id="f8cHJe8q4"></path><path d="M32.43 19.97C32.43 24.12 30.23 27.77 26.92 29.86C27.06 30.41 27.18 30.99 27.27 31.58C31.36 29.26 34.1 24.93 34.1 19.97C34.11 16.95 33.08 14.15 31.36 11.91C31.13 12.16 30.33 13.05 30.22 13.18C31.61 15.1 32.43 17.44 32.43 19.97Z" id="e1giJbiX4s"></path><path d="M9.48 11.92C7.75 14.16 6.73 16.95 6.73 19.97C6.73 24.96 9.51 29.31 13.64 31.62C13.74 31.03 13.85 30.45 14 29.91C10.64 27.82 8.42 24.15 8.42 19.97C8.42 17.45 9.23 15.11 10.62 13.19C10.51 13.06 9.6 12.04 9.48 11.92Z" id="asNpThMhX"></path><path d="M9.48 11.92C7.75 14.16 6.73 16.95 6.73 19.97C6.73 24.96 9.51 29.31 13.64 31.62C13.74 31.03 13.85 30.45 14 29.91C10.64 27.82 8.42 24.15 8.42 19.97C8.42 17.45 9.23 15.11 10.62 13.19C10.51 13.06 9.6 12.04 9.48 11.92Z" id="g15wrBh49b"></path><path d="M15.39 9.29C16.92 8.6 18.62 8.21 20.42 8.21C22.21 8.21 23.92 8.6 25.45 9.29C25.53 9.15 26.2 8 26.29 7.85C24.51 7.03 22.52 6.56 20.42 6.56C18.32 6.56 16.32 7.03 14.55 7.86C14.63 8 15.3 9.15 15.39 9.29Z" id="c3IDFV7bts"></path><path d="M15.39 9.29C16.92 8.6 18.62 8.21 20.42 8.21C22.21 8.21 23.92 8.6 25.45 9.29C25.53 9.15 26.2 8 26.29 7.85C24.51 7.03 22.52 6.56 20.42 6.56C18.32 6.56 16.32 7.03 14.55 7.86C14.63 8 15.3 9.15 15.39 9.29Z" id="d1dEnGwGnj"></path></defs><g><g><g><use xlink:href="#d1hxvVyaGo" opacity="1" fill="#ffffff" fill-opacity="1"></use><g><use xlink:href="#d1hxvVyaGo" opacity="1" fill-opacity="0" stroke="#000000" stroke-width="1" stroke-opacity="0"></use></g></g><g><use xlink:href="#cNHUcEeGQ" opacity="1" fill="#000000" fill-opacity="0"></use><g><use xlink:href="#cNHUcEeGQ" opacity="1" fill-opacity="0" stroke="#000000" stroke-width="1" stroke-opacity="0"></use></g></g><g><use xlink:href="#bi9X5uZiU" opacity="1" fill="#fdb515" fill-opacity="1"></use><g><use xlink:href="#bi9X5uZiU" opacity="1" fill-opacity="0" stroke="#000000" stroke-width="1" stroke-opacity="0"></use></g></g><g><use xlink:href="#hmMB4d1Dy" opacity="1" fill="#000000" fill-opacity="0"></use><g><use xlink:href="#hmMB4d1Dy" opacity="1" fill-opacity="0" stroke="#000000" stroke-width="1" stroke-opacity="0"></use></g></g><g><use xlink:href="#a2HHkFBWIG" opacity="1" fill="#ffffff" fill-opacity="1"></use><g><use xlink:href="#a2HHkFBWIG" opacity="1" fill-opacity="0" stroke="#000000" stroke-width="1" stroke-opacity="0"></use></g></g><g><use xlink:href="#a1ybJKyO6M" opacity="1" fill="#000000" fill-opacity="0"></use><g><use xlink:href="#a1ybJKyO6M" opacity="1" fill-opacity="0" stroke="#000000" stroke-width="1" stroke-opacity="0"></use></g></g><g><use xlink:href="#b2PkJqlTMD" opacity="1" fill="#ffffff" fill-opacity="1"></use><g><use xlink:href="#b2PkJqlTMD" opacity="1" fill-opacity="0" stroke="#000000" stroke-width="1" stroke-opacity="0"></use></g></g><g><use xlink:href="#k4lEU0z7RN" opacity="1" fill="#000000" fill-opacity="0"></use><g><use xlink:href="#k4lEU0z7RN" opacity="1" fill-opacity="0" stroke="#000000" stroke-width="1" stroke-opacity="0"></use></g></g><g><use xlink:href="#b5IwHNYTvB" opacity="1" fill="#ffffff" fill-opacity="1"></use><g><use xlink:href="#b5IwHNYTvB" opacity="1" fill-opacity="0" stroke="#000000" stroke-width="1" stroke-opacity="0"></use></g></g><g><use xlink:href="#f49EjiTdSk" opacity="1" fill="#000000" fill-opacity="0"></use><g><use xlink:href="#f49EjiTdSk" opacity="1" fill-opacity="0" stroke="#000000" stroke-width="1" stroke-opacity="0"></use></g></g><g><use xlink:href="#e7ROnX0zq" opacity="1" fill="#333333" fill-opacity="1"></use><g><use xlink:href="#e7ROnX0zq" opacity="1" fill-opacity="0" stroke="#000000" stroke-width="1" stroke-opacity="0"></use></g></g><g><use xlink:href="#k3jpaUWErU" opacity="1" fill="#000000" fill-opacity="0"></use><g><use xlink:href="#k3jpaUWErU" opacity="1" fill-opacity="0" stroke="#000000" stroke-width="1" stroke-opacity="0"></use></g></g><g><use xlink:href="#bU7b1w2q2" opacity="1" fill="#333333" fill-opacity="1"></use><g><use xlink:href="#bU7b1w2q2" opacity="1" fill-opacity="0" stroke="#000000" stroke-width="1" stroke-opacity="0"></use></g></g><g><use xlink:href="#e56nbOOAO" opacity="1" fill="#000000" fill-opacity="0"></use><g><use xlink:href="#e56nbOOAO" opacity="1" fill-opacity="0" stroke="#000000" stroke-width="1" stroke-opacity="0"></use></g></g><g><use xlink:href="#aj2IZ7tMY" opacity="1" fill="#333333" fill-opacity="1"></use><g><use xlink:href="#aj2IZ7tMY" opacity="1" fill-opacity="0" stroke="#000000" stroke-width="1" stroke-opacity="0"></use></g></g><g><use xlink:href="#bCBhnufJb" opacity="1" fill="#000000" fill-opacity="0"></use><g><use xlink:href="#bCBhnufJb" opacity="1" fill-opacity="0" stroke="#000000" stroke-width="1" stroke-opacity="0"></use></g></g><g><use xlink:href="#a6l2FDA3D0" opacity="1" fill="#333333" fill-opacity="1"></use><g><use xlink:href="#a6l2FDA3D0" opacity="1" fill-opacity="0" stroke="#000000" stroke-width="1" stroke-opacity="0"></use></g></g><g><use xlink:href="#c1kNeFBolC" opacity="1" fill="#000000" fill-opacity="0"></use><g><use xlink:href="#c1kNeFBolC" opacity="1" fill-opacity="0" stroke="#000000" stroke-width="1" stroke-opacity="0"></use></g></g><g><use xlink:href="#i8FG5E3FNm" opacity="1" fill="#333333" fill-opacity="1"></use><g><use xlink:href="#i8FG5E3FNm" opacity="1" fill-opacity="0" stroke="#000000" stroke-width="1" stroke-opacity="0"></use></g></g><g><use xlink:href="#i2bfS8saHM" opacity="1" fill="#000000" fill-opacity="0"></use><g><use xlink:href="#i2bfS8saHM" opacity="1" fill-opacity="0" stroke="#000000" stroke-width="1" stroke-opacity="0"></use></g></g><g><use xlink:href="#bpUNUsUiP" opacity="1" fill="#333333" fill-opacity="1"></use><g><use xlink:href="#bpUNUsUiP" opacity="1" fill-opacity="0" stroke="#000000" stroke-width="1" stroke-opacity="0"></use></g></g><g><use xlink:href="#areX7KXg" opacity="1" fill="#000000" fill-opacity="0"></use><g><use xlink:href="#areX7KXg" opacity="1" fill-opacity="0" stroke="#000000" stroke-width="1" stroke-opacity="0"></use></g></g><g><use xlink:href="#i7luqG593A" opacity="1" fill="#333333" fill-opacity="1"></use><g><use xlink:href="#i7luqG593A" opacity="1" fill-opacity="0" stroke="#000000" stroke-width="1" stroke-opacity="0"></use></g></g><g><use xlink:href="#fCgif7M4Q" opacity="1" fill="#000000" fill-opacity="0"></use><g><use xlink:href="#fCgif7M4Q" opacity="1" fill-opacity="0" stroke="#000000" stroke-width="1" stroke-opacity="0"></use></g></g><g><use xlink:href="#d79oJJGnU" opacity="1" fill="#333333" fill-opacity="1"></use><g><use xlink:href="#d79oJJGnU" opacity="1" fill-opacity="0" stroke="#000000" stroke-width="1" stroke-opacity="0"></use></g></g><g><use xlink:href="#c1ic8o6SYM" opacity="1" fill="#000000" fill-opacity="0"></use><g><use xlink:href="#c1ic8o6SYM" opacity="1" fill-opacity="0" stroke="#000000" stroke-width="1" stroke-opacity="0"></use></g></g><g><use xlink:href="#f22G6Vs6S9" opacity="1" fill="#333333" fill-opacity="1"></use><g><use xlink:href="#f22G6Vs6S9" opacity="1" fill-opacity="0" stroke="#000000" stroke-width="1" stroke-opacity="0"></use></g></g><g><use xlink:href="#e6zxG8JAkv" opacity="1" fill="#000000" fill-opacity="0"></use><g><use xlink:href="#e6zxG8JAkv" opacity="1" fill-opacity="0" stroke="#000000" stroke-width="1" stroke-opacity="0"></use></g></g><g><use xlink:href="#aSbcn9cNX" opacity="1" fill="#333333" fill-opacity="1"></use><g><use xlink:href="#aSbcn9cNX" opacity="1" fill-opacity="0" stroke="#000000" stroke-width="1" stroke-opacity="0"></use></g></g><g><use xlink:href="#i3Fm8SLIBe" opacity="1" fill="#000000" fill-opacity="0"></use><g><use xlink:href="#i3Fm8SLIBe" opacity="1" fill-opacity="0" stroke="#000000" stroke-width="1" stroke-opacity="0"></use></g></g><g><use xlink:href="#m5RK09VD0u" opacity="1" fill="#333333" fill-opacity="1"></use><g><use xlink:href="#m5RK09VD0u" opacity="1" fill-opacity="0" stroke="#000000" stroke-width="1" stroke-opacity="0"></use></g></g><g><use xlink:href="#bpPvm3O2u" opacity="1" fill="#000000" fill-opacity="0"></use><g><use xlink:href="#bpPvm3O2u" opacity="1" fill-opacity="0" stroke="#000000" stroke-width="1" stroke-opacity="0"></use></g></g><g><use xlink:href="#jjEhJFcj2" opacity="1" fill="#333333" fill-opacity="1"></use><g><use xlink:href="#jjEhJFcj2" opacity="1" fill-opacity="0" stroke="#000000" stroke-width="1" stroke-opacity="0"></use></g></g><g><use xlink:href="#a1IL6Qv42n" opacity="1" fill="#000000" fill-opacity="0"></use><g><use xlink:href="#a1IL6Qv42n" opacity="1" fill-opacity="0" stroke="#000000" stroke-width="1" stroke-opacity="0"></use></g></g><g><use xlink:href="#g5FlYgs8L" opacity="1" fill="#333333" fill-opacity="1"></use><g><use xlink:href="#g5FlYgs8L" opacity="1" fill-opacity="0" stroke="#000000" stroke-width="1" stroke-opacity="0"></use></g></g><g><use xlink:href="#d636GCWan" opacity="1" fill="#000000" fill-opacity="0"></use><g><use xlink:href="#d636GCWan" opacity="1" fill-opacity="0" stroke="#000000" stroke-width="1" stroke-opacity="0"></use></g></g><g><use xlink:href="#f8cHJe8q4" opacity="1" fill="#333333" fill-opacity="1"></use><g><use xlink:href="#f8cHJe8q4" opacity="1" fill-opacity="0" stroke="#000000" stroke-width="1" stroke-opacity="0"></use></g></g><g><use xlink:href="#e1giJbiX4s" opacity="1" fill="#000000" fill-opacity="0"></use><g><use xlink:href="#e1giJbiX4s" opacity="1" fill-opacity="0" stroke="#000000" stroke-width="1" stroke-opacity="0"></use></g></g><g><use xlink:href="#asNpThMhX" opacity="1" fill="#333333" fill-opacity="1"></use><g><use xlink:href="#asNpThMhX" opacity="1" fill-opacity="0" stroke="#000000" stroke-width="1" stroke-opacity="0"></use></g></g><g><use xlink:href="#g15wrBh49b" opacity="1" fill="#000000" fill-opacity="0"></use><g><use xlink:href="#g15wrBh49b" opacity="1" fill-opacity="0" stroke="#000000" stroke-width="1" stroke-opacity="0"></use></g></g><g><use xlink:href="#c3IDFV7bts" opacity="1" fill="#333333" fill-opacity="1"></use><g><use xlink:href="#c3IDFV7bts" opacity="1" fill-opacity="0" stroke="#000000" stroke-width="1" stroke-opacity="0"></use></g></g><g><use xlink:href="#d1dEnGwGnj" opacity="1" fill="#000000" fill-opacity="0"></use><g><use xlink:href="#d1dEnGwGnj" opacity="1" fill-opacity="0" stroke="#000000" stroke-width="1" stroke-opacity="0"></use></g></g></g></g></svg>
