<svg xmlns="http://www.w3.org/2000/svg" xmlns:xlink="http://www.w3.org/1999/xlink" viewBox="40 30 170 170"><defs><path id="a" d="M0 .549h152V119H0z"/></defs><g fill="none" fill-rule="evenodd"><path fill="#FFF" fill-opacity=".01" d="M0 0h250v218H0z"/><g transform="translate(49 49.451)"><mask id="b" fill="#fff"><use xlink:href="#a"/></mask><path fill="#43A046" d="M75.735.548C62.831.594 50.927 4.841 41.311 11.99c-9.616 7.15-16.943 17.202-20.695 28.853a4.275 4.275 0 01-.684 1.3 4.372 4.372 0 01-1.08.997 41.635 41.635 0 00-14.14 15.496C1.402 64.93-.328 72.182.052 79.872c.548 11.117 5.601 20.919 13.3 27.93 7.697 7.014 18.041 11.236 29.173 11.198h67.233a42.937 42.937 0 0029.096-11.513c7.65-7.122 12.635-17.015 13.108-28.137.326-7.693-1.454-14.932-4.807-21.203a41.637 41.637 0 00-14.244-15.4 4.378 4.378 0 01-1.089-.988 4.257 4.257 0 01-.692-1.296c-3.832-11.625-11.228-21.626-20.894-28.71C100.572 4.672 88.64.506 75.736.549m.05 14.778c9.526-.032 18.572 3.124 25.92 8.568 7.347 5.444 12.998 13.175 15.734 22.293l.592 1.973.593 1.974a4.25 4.25 0 001.913 2.441l1.776 1.047 1.775 1.046c4.261 2.513 7.634 6.024 9.894 10.143 2.26 4.119 3.408 8.847 3.22 13.794-.277 7.18-3.503 13.548-8.458 18.128a27.908 27.908 0 01-18.824 7.392l-33.83.116-33.83.117a27.913 27.913 0 01-18.874-7.263c-4.986-4.545-8.257-10.891-8.58-18.07-.225-4.945.89-9.68 3.122-13.815 2.233-4.135 5.582-7.67 9.826-10.211l1.768-1.058 1.767-1.06a4.254 4.254 0 001.898-2.454l.578-1.978.58-1.977c2.673-9.136 8.27-16.906 15.58-22.401 7.31-5.493 16.333-8.711 25.86-8.745" mask="url(#b)"/></g><path fill="#43A046" d="M113.281 100.651c0 .87-.35 1.658-.918 2.229a3.147 3.147 0 01-2.224.934l-3.174.012-3.175.011a3.154 3.154 0 01-2.229-.919 3.155 3.155 0 01-.934-2.223l-.01-3.175-.01-3.175a3.159 3.159 0 013.141-3.163l3.174-.01 3.174-.011c.87 0 1.658.35 2.23.918a3.15 3.15 0 01.933 2.223l.011 3.175.011 3.174zm17.961 0c0 .87-.35 1.658-.918 2.229a3.146 3.146 0 01-2.223.934l-3.175.012-3.174.011c-.87 0-1.658-.351-2.23-.919a3.15 3.15 0 01-.933-2.223l-.012-3.175-.01-3.175a3.159 3.159 0 013.141-3.163l3.175-.01 3.174-.011c.87 0 1.658.35 2.23.918.572.568.928 1.354.934 2.223l.01 3.175.011 3.174zm17.962.002c0 .869-.35 1.657-.918 2.229a3.155 3.155 0 01-2.225.934l-3.174.011-3.174.011a3.146 3.146 0 01-2.232-.916 3.146 3.146 0 01-.931-2.226l-.012-3.175-.01-3.175a3.133 3.133 0 01.916-2.231 3.145 3.145 0 012.226-.931l3.175-.011 3.173-.011a3.152 3.152 0 012.26.867c.587.557.96 1.338.984 2.21v.064l-.03 3.175-.029 3.175zm-35.915 17.955c0 .869-.35 1.657-.918 2.229a3.155 3.155 0 01-2.224.934l-3.174.011-3.175.011a3.153 3.153 0 01-2.23-.918 3.157 3.157 0 01-.933-2.224l-.011-3.175-.01-3.174c-.001-.87.35-1.658.918-2.229a3.15 3.15 0 012.223-.934l3.175-.01 3.174-.012c.87 0 1.658.35 2.229.919.573.567.929 1.353.934 2.222l.01 3.175.012 3.175zm17.96 0c0 .869-.35 1.657-.917 2.229a3.155 3.155 0 01-2.223.934l-3.175.011-3.174.011a3.154 3.154 0 01-2.23-.918 3.152 3.152 0 01-.933-2.224l-.012-3.175-.01-3.174c-.001-.87.35-1.658.918-2.229a3.15 3.15 0 012.223-.934l3.175-.01 3.174-.012c.87 0 1.658.35 2.23.919a3.15 3.15 0 01.934 2.222l.01 3.175.01 3.175zm17.962 0c0 .869-.35 1.657-.918 2.229a3.155 3.155 0 01-2.224.934l-3.174.011-3.175.011a3.142 3.142 0 01-2.232-.916 3.145 3.145 0 01-.93-2.226l-.012-3.175-.01-3.174a3.134 3.134 0 01.915-2.232 3.145 3.145 0 012.226-.931l3.175-.01 3.174-.012c.87 0 1.658.35 2.23.919.572.567.928 1.353.933 2.222l.011 3.175.011 3.175zm-35.914 17.95a3.14 3.14 0 01-.916 2.232 3.139 3.139 0 01-2.226.931l-3.174.011-3.175.011a3.145 3.145 0 01-2.232-.915 3.146 3.146 0 01-.931-2.226l-.011-3.175-.01-3.175a3.15 3.15 0 01.918-2.229 3.155 3.155 0 012.223-.934l3.175-.01 3.174-.01a3.142 3.142 0 012.229.917c.573.568.929 1.353.934 2.222l.01 3.175.012 3.175zm17.96 0a3.14 3.14 0 01-.915 2.232 3.138 3.138 0 01-2.225.931l-3.175.011-3.174.011a3.146 3.146 0 01-3.163-3.14l-.012-3.176-.01-3.175a3.15 3.15 0 01.918-2.229 3.155 3.155 0 012.223-.934l3.175-.01 3.174-.01a3.146 3.146 0 012.23.917c.572.568.928 1.353.934 2.222l.01 3.175.01 3.175zm17.962 0a3.14 3.14 0 01-.916 2.232 3.139 3.139 0 01-2.226.931l-3.174.011-3.175.011a3.145 3.145 0 01-2.232-.915 3.146 3.146 0 01-.93-2.226l-.012-3.175-.01-3.175c-.004-.87.346-1.66.915-2.232a3.145 3.145 0 012.226-.93l3.175-.01 3.174-.012a3.142 3.142 0 012.23.918c.572.568.928 1.353.933 2.222l.011 3.175.011 3.175z"/></g></svg>