<svg width="42" height="40" viewBox="0 0 42 40" fill="none" xmlns="http://www.w3.org/2000/svg">
<path d="M40.2158 22.1487C41.5024 23.6021 41.1669 25.7976 39.498 26.8398V26.8376L22.8313 37.2554C22.33 37.5682 21.7635 37.7399 21.189 37.7704L21.1882 37.7906C20.5527 37.7906 19.7243 37.6044 19.1687 37.2577L9.44873 31.1821C10.311 31.7199 11.7443 32.3177 13.2598 32.3177C14.6398 32.3177 15.9221 31.9177 16.9843 31.2355C16.9843 31.2355 16.9865 31.2355 16.9887 31.2332L21.5727 28.3589L21.5723 28.3681L30.7024 22.6621L21.0047 11.7198L21.2469 11.4465C22.4691 10.0532 24.3069 9.1665 26.3624 9.1665C27.4091 9.1665 28.398 9.40206 29.2802 9.81317L40.2158 22.1487Z" stroke="white" stroke-width="1.2" stroke-linejoin="round"/>
<path d="M21.0022 2.22439V2.22217L21 2.22439L21.0022 2.22439ZM21.0022 2.22439C21.9415 2.22498 22.8827 2.60054 23.5467 3.35106L29.2778 9.8155C28.3956 9.40661 27.4089 9.16883 26.36 9.16883C24.3044 9.16883 22.4667 10.0555 21.2444 11.4488L21.0703 11.6453L21.0703 11.6484L11.3022 22.6644L21 28.7266L16.9889 31.2333C16.9867 31.2355 16.9844 31.2355 16.9844 31.2355C15.9222 31.9177 14.64 32.3177 13.26 32.3177C11.7444 32.3177 10.3111 31.7199 9.44888 31.1822C8.6711 30.6955 2.50221 26.8399 2.50221 26.8399C0.833325 25.7977 0.49777 23.6022 1.78444 22.1488L18.4511 3.34883C19.1091 2.60751 20.0714 2.2363 21.0022 2.22675V2.22439Z" stroke="white" stroke-width="1.2" stroke-linejoin="round"/>
</svg>
