<svg width="40" height="40" viewBox="0 0 40 40" fill="none" xmlns="http://www.w3.org/2000/svg">
<path d="M8.44824 30.9595C9.31047 31.4972 10.7438 32.095 12.2594 32.095C13.6394 32.095 14.9216 31.695 15.9838 31.0128C15.9838 31.0128 15.986 31.0128 15.9883 31.0106L19.9994 28.5039V37.555C19.3638 37.555 18.7238 37.3817 18.1683 37.035L8.44824 30.9595Z" fill="#225086"/>
<path d="M17.4511 3.12667L0.784438 21.9267C-0.502231 23.38 -0.166675 25.5756 1.50222 26.6178C1.50222 26.6178 7.67112 30.4734 8.44889 30.96C9.31112 31.4978 10.7445 32.0956 12.26 32.0956C13.64 32.0956 14.9222 31.6956 15.9845 31.0134C15.9845 31.0134 15.9867 31.0134 15.9889 31.0112L20 28.5045L10.3022 22.4423L20.0022 11.5V2C19.06 2 18.1178 2.37556 17.4511 3.12667Z" fill="#66DDFF"/>
<path d="M10.3027 22.4422L10.4183 22.5133L20.0005 28.5045H20.0027V11.5022L20.0005 11.5L10.3027 22.4422Z" fill="#CBF8FF"/>
<path d="M38.498 26.6177C40.1669 25.5755 40.5025 23.3799 39.2158 21.9266L28.2802 9.591C27.398 9.17989 26.4091 8.94434 25.3624 8.94434C23.3069 8.94434 21.4691 9.831 20.2469 11.2243L20.0047 11.4977L29.7025 22.4399L20.0024 28.5021V37.5533C20.6402 37.5533 21.2758 37.3799 21.8313 37.0333L38.498 26.6155V26.6177Z" fill="#074793"/>
<path d="M20.0022 2V11.5L20.2444 11.2267C21.4667 9.83334 23.3044 8.94668 25.36 8.94668C26.4089 8.94668 27.3956 9.18445 28.2778 9.59334L22.5467 3.12889C21.8822 2.37778 20.94 2.00222 20 2.00222L20.0022 2Z" fill="#0294E4"/>
<path d="M29.7002 22.442L20.0024 11.502V28.502L29.7002 22.442Z" fill="#96BCC2"/>
</svg>
