<svg xmlns="http://www.w3.org/2000/svg" viewBox="0 0 172.174 256" width="173" height="256" fill-rule="evenodd"><path d="M26.756.302c0 .152-.16.276-.353.276-.55 0-.936.2-.936.48 0 .163-.204.257-.56.257-.326 0-.603.115-.664.276-.06.152-.257.276-.44.276-.53 0-.917.202-.917.48 0 .163-.204.257-.56.257-.326 0-.603.115-.664.276-.06.155-.334.276-.627.276-.36 0-.557.115-.638.37s-.28.37-.638.37c-.293 0-.567.12-.627.276s-.323.276-.6.276c-.328 0-.515.118-.58.37-.072.277-.252.37-.72.37-.43 0-.623.085-.623.276s-.194.276-.645.276-.645.083-.645.276c0 .152-.16.276-.353.276-.55 0-.936.2-.936.48 0 .163-.204.257-.56.257-.326 0-.603.115-.664.276-.06.152-.257.276-.44.276-.53 0-.917.202-.917.48 0 .163-.204.257-.56.257-.326 0-.603.115-.664.276s-.337.276-.656.276c-.395 0-.578.104-.647.37s-.252.37-.628.37c-.292 0-.53.07-.53.156s-.166.347-.37.58c-.47.54-.586 12.748-.124 13.027.135.08.298.293.363.47.077.2.313.322.677.322.374 0 .56.092.56.276 0 .19.192.276.623.276.468 0 .648.092.72.37.07.27.252.37.667.37.384 0 .57.1.57.276 0 .19.192.276.623.276.468 0 .648.092.72.37.07.27.252.37.667.37.384 0 .57.1.57.276 0 .193.194.276.645.276s.645.083.645.276.194.276.645.276c.522 0 .645.07.645.37s.123.37.645.37c.45 0 .645.083.645.276 0 .18.18.276.51.276.31 0 .6.145.738.37.13.21.43.37.695.37.256 0 .513.124.57.276.06.158.335.276.64.276.333 0 .533.096.533.257 0 .14.143.31.317.38.27.104.278.146.046.29-.217.134-.283.77-.33 3.15-.045 2.277-.122 3.043-.322 3.244-.21.21-.263.94-.263 3.5 0 2.87-.036 3.264-.322 3.473s-.33.645-.38 3.5c-.045 2.53-.118 3.324-.322 3.53-.2.21-.264.936-.264 3.5 0 2.8-.04 3.267-.305 3.46-.2.145-.335.586-.392 1.264-.082.997-.108 1.04-.603 1.04-.284 0-.64.124-.793.276s-.448.276-.658.276-.548.166-.75.37a1.38 1.38 0 0 1-.835.369c-.256 0-.51.116-.565.258s-.384.31-.732.377c-.376.07-.632.227-.632.386 0 .183-.204.268-.645.268-.45 0-.645.083-.645.276 0 .186-.186.276-.57.276-.415 0-.597.1-.667.37-.072.277-.252.37-.72.37-.43 0-.623.085-.623.276 0 .186-.186.276-.57.276-.415 0-.597.1-.667.37-.053.204-.252.37-.444.37s-.347.124-.347.276-.124.276-.276.276-.276.105-.276.232-.166.335-.37.462c-.574.358-.574 11.262 0 11.835a1.38 1.38 0 0 1 .369.835c0 .276.13.515.322.585.177.065.39.228.47.363s.353.244.604.244.504.122.562.27.38.323.72.386.66.232.714.374.3.258.546.258.494.124.553.276.316.276.572.276a1.38 1.38 0 0 1 .835.369c.203.203.526.37.717.37s.397.124.455.276.333.276.62.276c.315 0 .603.143.744.37.168.27.43.37.966.37.77 0 1.09.562.46.804-.22.084-.276.48-.276 1.954 0 1.45-.055 1.85-.255 1.85-.27 0-.475.54-.48 1.257-.001.235-.127.552-.28.704s-.276.448-.276.657-.13.476-.29.592-.335.56-.392.985-.217.868-.357.983-.252.52-.252.9-.116.788-.258.906-.312.428-.378.7-.24.596-.386.743-.267.584-.267.972c0 .427-.1.742-.253.8-.14.053-.31.32-.377.595s-.246.618-.392.765-.267.584-.267.972c0 .456-.098.742-.276.8-.2.073-.276.37-.276.947 0 .562-.088.874-.265.942-.146.056-.317.338-.38.626s-.234.623-.38.744-.264.538-.264.934c0 .47-.127.84-.37 1.083-.223.223-.37.614-.37.99 0 .342-.124.726-.276.852a.95.95 0 0 0-.276.648c0 .23-.12.464-.266.52s-.317.417-.38.803-.233.92-.38 1.2-.265.612-.265.763a.44.44 0 0 1-.263.375c-.147.057-.322.49-.395.98-.073.484-.245.992-.38 1.13s-.25.566-.25.954c0 .456-.098.742-.276.8-.162.062-.276.338-.276.664 0 .353-.094.56-.255.56-.27 0-.475.54-.48 1.257-.001.235-.127.552-.28.704s-.276.602-.276 1c0 .6-.063.724-.37.724-.205 0-.37.123-.37.276s-.124.276-.276.276-.276.164-.276.37-.123.37-.282.37-.337.145-.404.322a1.94 1.94 0 0 1-.363.566.92.92 0 0 0-.24.554c0 .17-.166.415-.37.54-.25.157-.37.43-.37.854 0 .384-.106.664-.276.73-.42.16-.42 119.346 0 119.767.152.152.276.53.276.84 0 .365.13.646.37.795a.85.85 0 0 1 .369.637c0 .224.1.474.244.555s.298.293.363.47.246.322.4.322.282.16.282.37.123.37.276.37.276.124.276.276.164.276.37.276.37.123.37.276.124.276.276.276a.28.28 0 0 1 .276.282c0 .155.145.335.322.4s.39.228.47.363.345.244.586.244c.277 0 .482.136.556.37.083.26.28.37.67.37.304 0 .678.124.83.276.42.42 156.273.42 156.434 0 .066-.173.348-.276.75-.276.487 0 .666-.09.74-.37.063-.24.252-.37.54-.37.245 0 .493-.124.55-.276s.263-.276.455-.276c.226 0 .35-.13.35-.37 0-.246.123-.37.37-.37.205 0 .37-.123.37-.276s.124-.276.276-.276.276-.124.276-.276.124-.276.276-.276.276-.164.276-.37c0-.246.123-.37.37-.37.24 0 .37-.123.37-.35 0-.192.124-.397.276-.455s.276-.306.276-.55c0-.3.13-.48.37-.54.274-.072.37-.254.375-.713.003-.34.128-.777.276-.973.415-.55.4-119.526-.006-119.87-.152-.126-.276-.517-.276-.87 0-.485-.09-.663-.37-.736-.257-.067-.37-.252-.37-.608 0-.285-.123-.558-.276-.618s-.276-.233-.276-.388-.16-.282-.37-.282c-.246 0-.37-.123-.37-.37 0-.205-.123-.37-.276-.37-.205 0-.276-.217-.276-.847 0-.466-.12-1.067-.265-1.336s-.316-.804-.38-1.2-.233-.747-.38-.803c-.162-.062-.266-.354-.266-.745 0-.354-.12-.863-.265-1.132s-.316-.804-.38-1.2-.233-.747-.38-.803c-.176-.068-.266-.376-.266-.917 0-.555-.088-.85-.276-.92-.18-.07-.276-.356-.276-.824s-.126-.843-.37-1.086c-.225-.225-.37-.614-.37-1 0-.348-.124-.756-.276-.908s-.277-.47-.28-.704c-.005-.716-.21-1.257-.48-1.257-.182 0-.255-.257-.255-.9 0-.632-.083-.933-.276-1.008-.18-.07-.276-.356-.276-.826 0-.396-.114-.815-.252-.93s-.3-.558-.357-.983-.234-.87-.392-.985-.29-.472-.29-.8-.166-.89-.37-1.267-.37-.784-.37-.9-.124-.26-.276-.32c-.18-.07-.276-.356-.276-.826 0-.416-.117-.818-.276-.95-.152-.126-.276-.51-.276-.852 0-.377-.146-.768-.37-.99-.242-.242-.37-.614-.37-1.083 0-.4-.117-.812-.276-.944-.152-.126-.276-.51-.276-.852 0-.377-.146-.768-.37-.99-.246-.246-.37-.614-.37-1.112 0-.5-.094-.778-.276-.85s-.276-.356-.276-.824-.126-.843-.37-1.086-.37-.614-.37-1.112c0-.5-.094-.778-.276-.85-.595-.228-.355-1.54.282-1.54.326 0 .603-.115.664-.276.06-.152.264-.276.457-.276s.492-.166.666-.37.537-.37.808-.37.54-.124.598-.276.318-.276.578-.276.52-.124.578-.276.263-.276.455-.276.515-.166.717-.37a1.38 1.38 0 0 1 .835-.369c.256 0 .513-.12.57-.27s.26-.32.455-.38c.237-.075.35-.28.35-.632 0-.293.12-.567.276-.627.238-.09.276-.93.276-5.988s-.04-5.897-.276-5.988c-.152-.058-.276-.233-.276-.388s-.16-.282-.37-.282-.37-.123-.37-.276-.115-.276-.255-.276-.298-.166-.35-.37c-.07-.265-.252-.37-.647-.37-.32 0-.595-.116-.656-.276s-.335-.276-.643-.276c-.382 0-.565-.106-.633-.37s-.252-.37-.647-.37c-.32 0-.595-.116-.656-.276s-.338-.276-.664-.276c-.36 0-.56-.093-.56-.262 0-.146-.265-.32-.6-.392s-.762-.244-.962-.383-.47-.253-.6-.253-.4-.166-.604-.37-.557-.37-.79-.37-.542-.176-.69-.39-.375-.5-.5-.632c-.17-.177-.23-1.25-.23-4.03 0-3.545-.024-3.815-.37-4.16s-.37-.614-.37-4.244c0-3.274-.043-3.892-.276-3.98s-.276-.673-.276-3.68c0-3.328-.025-3.6-.37-3.942s-.37-.614-.37-3.5v-3.132h.546c.357 0 .615-.127.743-.37s.386-.37.743-.37c.363 0 .546-.093.546-.276 0-.193.194-.276.645-.276.522 0 .645-.07.645-.37s.123-.37.645-.37c.45 0 .645-.083.645-.276s.194-.276.645-.276.645-.083.645-.276c0-.186.186-.276.57-.276.415 0 .597-.1.667-.37.072-.277.252-.37.72-.37.43 0 .623-.085.623-.276 0-.186.186-.276.57-.276.415 0 .597-.1.667-.37.072-.277.252-.37.72-.37.43 0 .623-.085.623-.276 0-.184.184-.276.553-.276.42 0 .553-.084.553-.347 0-.192.164-.4.37-.444.576-.15.576-12.23 0-12.752-.203-.183-.37-.486-.37-.673 0-.254-.138-.34-.546-.34-.357 0-.615-.127-.743-.37-.117-.217-.386-.37-.657-.37-.253 0-.508-.124-.566-.276-.06-.158-.335-.276-.64-.276-.344 0-.533-.095-.533-.268 0-.16-.256-.316-.632-.386-.348-.065-.677-.235-.732-.377s-.348-.258-.657-.258c-.355 0-.56-.094-.56-.257 0-.278-.386-.48-.917-.48-.183 0-.38-.124-.44-.276-.062-.162-.338-.276-.664-.276-.374 0-.56-.092-.56-.276 0-.19-.192-.276-.623-.276-.468 0-.648-.092-.72-.37-.07-.27-.252-.37-.667-.37-.384 0-.57-.1-.57-.276 0-.19-.192-.276-.623-.276-.468 0-.648-.092-.72-.37-.065-.25-.252-.37-.58-.37-.266 0-.532-.124-.6-.276s-.328-.276-.598-.276-.634-.166-.808-.37-.474-.37-.666-.37-.398-.124-.457-.276c-.062-.162-.338-.276-.664-.276-.366 0-.56-.093-.56-.268 0-.16-.256-.316-.632-.386-.348-.065-.677-.235-.732-.377-.15-.39-4.132-.374-4.282.018-.06.152-.257.276-.44.276-.53 0-.917.202-.917.48 0 .163-.204.257-.56.257-.326 0-.603.115-.664.276-.06.152-.304.276-.545.276a.88.88 0 0 0-.67.369c-.136.218-.43.37-.72.37-.27 0-.537.124-.595.276-.062.162-.338.276-.664.276-.436 0-.56.08-.56.37 0 .298-.123.37-.645.37-.45 0-.645.083-.645.276s-.194.276-.645.276c-.522 0-.645.07-.645.37s-.123.37-.645.37c-.45 0-.645.083-.645.276s-.194.276-.645.276-.645.083-.645.276c0 .186-.186.276-.57.276-.415 0-.597.1-.667.37-.07.262-.252.37-.633.37-.308 0-.583.118-.643.276-.06.152-.304.276-.545.276a.88.88 0 0 0-.67.369c-.14.226-.43.37-.744.37-.287 0-.56.122-.62.276s-.334.276-.627.276c-.36 0-.557.115-.638.37s-.28.37-.657.37c-.357 0-.54.094-.54.276 0 .193-.194.276-.645.276-.522 0-.645.07-.645.37s-.123.37-.645.37c-.45 0-.645.083-.645.276s-.194.276-.645.276-.645.083-.645.276c0 .152-.11.276-.248.276s-.398.166-.58.37-.48.37-.66.37-.45.124-.603.276a1.04 1.04 0 0 1-.629.276c-.194 0-.503.166-.687.37s-.48.37-.66.37-.45.124-.603.276-.447.276-.656.276-.484.166-.6.37-.41.37-.633.37-.527.124-.68.276-.447.276-.656.276-.484.166-.6.37-.407.37-.624.37-.497.124-.623.276-.426.276-.666.276a.88.88 0 0 0-.667.369c-.127.203-.407.37-.624.37s-.497.124-.623.276-.43.276-.673.276-.492.124-.55.276-.292.276-.52.276-.562.166-.746.37-.48.37-.66.37-.45.124-.603.276a1.04 1.04 0 0 1-.629.276c-.194 0-.503.166-.687.37s-.48.37-.66.37-.45.124-.603.276-.447.276-.656.276-.484.166-.6.37-.407.37-.624.37-.497.124-.623.276-.426.276-.666.276a.88.88 0 0 0-.667.369c-.127.203-.407.37-.624.37s-.497.124-.623.276-.416.276-.645.276-.52.124-.645.276-.347.276-.49.276-.44.166-.657.37-.53.37-.694.37-.46.122-.656.27-.5.273-.65.276-.444.172-.627.375-.476.37-.65.37-.42.124-.547.276-.388.276-.582.276-.557.134-.807.298c-.418.274-.454.274-.454 0 0-.217-.174-.298-.645-.298-.45 0-.645-.083-.645-.276s-.194-.276-.645-.276c-.522 0-.645-.07-.645-.37 0-.287-.123-.37-.553-.37-.37 0-.553-.092-.553-.276 0-.19-.192-.276-.623-.276-.468 0-.648-.092-.72-.37-.07-.27-.252-.37-.667-.37-.384 0-.57-.1-.57-.276 0-.193-.194-.276-.645-.276s-.645-.083-.645-.276-.194-.276-.645-.276c-.522 0-.645-.07-.645-.37s-.123-.37-.645-.37c-.45 0-.645-.083-.645-.276s-.194-.276-.645-.276c-.522 0-.645-.07-.645-.37s-.123-.37-.645-.37c-.45 0-.645-.083-.645-.276s-.194-.276-.645-.276c-.522 0-.645-.07-.645-.37 0-.284-.123-.37-.533-.37-.304 0-.58-.12-.64-.276s-.335-.276-.643-.276c-.382 0-.565-.106-.633-.37-.07-.27-.252-.37-.667-.37-.384 0-.57-.1-.57-.276 0-.193-.194-.276-.645-.276s-.645-.083-.645-.276-.194-.276-.645-.276c-.522 0-.645-.07-.645-.37s-.123-.37-.645-.37c-.45 0-.645-.083-.645-.276s-.194-.276-.645-.276c-.522 0-.645-.07-.645-.37s-.123-.37-.645-.37c-.45 0-.645-.083-.645-.276s-.194-.276-.645-.276c-.522 0-.645-.07-.645-.37s-.123-.37-.645-.37c-.45 0-.645-.083-.645-.276 0-.182-.182-.276-.53-.276-.376 0-.56-.107-.628-.37s-.252-.37-.647-.37c-.32 0-.595-.116-.656-.276s-.335-.276-.643-.276c-.382 0-.565-.106-.633-.37-.07-.27-.252-.37-.667-.37-.384 0-.57-.1-.57-.276 0-.193-.194-.276-.645-.276s-.645-.083-.645-.276-.194-.276-.645-.276c-.522 0-.645-.07-.645-.37s-.123-.37-.645-.37c-.45 0-.645-.083-.645-.276s-.194-.276-.645-.276c-.522 0-.645-.07-.645-.37s-.123-.37-.645-.37c-.45 0-.645-.083-.645-.276s-.192-.276-.623-.276c-.468 0-.648-.092-.72-.37-.064-.244-.252-.37-.555-.37-.252 0-.506-.124-.564-.276s-.333-.276-.62-.276c-.315 0-.603-.143-.744-.37a.88.88 0 0 0-.67-.369c-.24 0-.487-.124-.545-.276-.062-.162-.338-.276-.664-.276-.374 0-.56-.092-.56-.276 0-.19-.192-.276-.623-.276-.468 0-.648-.092-.72-.37-.07-.27-.252-.37-.667-.37-.384 0-.57-.1-.57-.276 0-.19-.192-.276-.623-.276-.468 0-.648-.092-.72-.37-.07-.27-.252-.37-.667-.37-.384 0-.57-.1-.57-.276 0-.193-.194-.276-.645-.276s-.645-.083-.645-.28c0-.167-.232-.328-.568-.395-.313-.063-.612-.226-.665-.364s-.317-.25-.588-.25-.634-.166-.808-.37-.474-.37-.666-.37-.398-.124-.457-.276C31.026.08 30.6.026 28.88.026c-1.766 0-2.125.047-2.125.276m9.766 8.74l16.73 8.414 9.546 4.897c.052.084.25.152.44.152a1.03 1.03 0 0 1 .621.276c.152.152.33.276.393.276.14 0 1.624.726 3.038 1.485.556.298 1.105.542 1.22.542s.3.12.43.264.462.318.76.383.54.188.54.274.248.2.55.276.6.184.637.26c.264.427 14.05 7.102 14.67 7.102.54 0 12.006-5.518 14.73-7.09.152-.088 1.313-.67 2.58-1.294l8.428-4.194 2.628-1.324c.152-.09.732-.388 1.3-.664s1.254-.702 1.55-.946 1.62-.982 2.948-1.64l12.264-6.16 10.2-4.962c.193 0 1.273.445 2.4.99L148.55 8c4.523 2.135 6.92 3.315 7.002 3.45.053.085.322.21.6.28 1.16.29.94.424-7.5 4.506L131.23 24.9c-.264.15-10.815 5.422-11.62 5.805-7.56 3.6-15.962 8.018-16.28 8.564-.847 1.45-.328 3.136 1.214 3.945l3.562 1.878c1.42.75 5.026 2.568 8.015 4.04l5.712 2.86a5.87 5.87 0 0 0 .714.368c.24.103 2.77 1.357 5.62 2.786l10.526 5.26 5.988 2.996c.152.088.98.51 1.843.935l9.46 4.78c.18.172-.984 1.11-1.378 1.11-.147 0-.35.082-.45.183s-1.285.718-2.63 1.372-2.545 1.266-2.664 1.36-.422.234-.676.31-.502.19-.553.253-.88.484-1.843.938-1.88.93-2.04 1.06c-.337.272-1.855.317-2.114.063-.096-.094-5.562-2.875-12.147-6.18l-12.363-6.374c-.327-.307-11.175-5.843-20.163-10.29l-2.58-1.295c-1.458-.82-7.427-3.71-7.94-3.846-.634-.166-1.817.258-3.483 1.25-.152.1-.774.404-1.382.697-1.247.6-5.522 2.735-6.072 3.032-.198.107-5.588 2.822-11.977 6.034L51.54 64.84a89.9 89.9 0 0 1-2.027 1.023l-10.858 5.45c-6.065 3.05-9.393 4.63-9.766 4.628-.73 0-13.28-6.27-13.28-6.632 0-.27 11.175-5.977 12.1-6.18.287-.063.522-.177.522-.255s7.566-3.934 16.814-8.572l19.393-9.79 3.04-1.594c1.147-.586 1.444-.906 1.656-1.79.26-1.08.023-2.16-.594-2.7-.517-.46-43.752-22.046-51.502-25.71-.633-.3-1.152-.574-1.152-.61s-.047-.187-.105-.337c-.076-.2.3-.472 1.428-1.008l4.94-2.315a5.4 5.4 0 0 0 .553-.282c.152-.09.633-.32 1.07-.508a75.61 75.61 0 0 0 2.672-1.283c2.55-1.277 1.873-1.458 10.078 2.68m123.266 7.76c.001.258-.072.55-.163.645s-.198.78-.237 1.518c-.074 1.393-.61 2.224-1.45 2.243-.157.004-.364.08-.46.17-.192.18-2.85 1.557-3.584 1.858-.253.104-.585.26-.737.345-.946.533-1.26.69-11.885 5.916l-8.2 4.073c-.152.097-.442.25-.645.34s-3.644 1.775-7.647 3.747c-9.595 4.726-9.646 4.75-10.057 4.747-.194-.001-.538-.105-.763-.23a134.55 134.55 0 0 0-1.612-.864c-1.766-.935-1.71-1.02 1.884-2.773l3.576-1.767c.27-.143.594-.26.722-.26s.377-.13.553-.29c.725-.656 40.415-20.338 40.558-20.113.08.124.145.437.146.696M37.033 28.333l24.27 12.226c.11.18-.62.85-1.195 1.1-.253.11-.875.44-1.382.737s-1.032.544-1.167.55-3.908-1.8-8.384-4.017L27.4 28.218c-.07 0-.252-.124-.404-.276a1.03 1.03 0 0 0-.621-.276c-.19 0-.39-.072-.444-.16s-.578-.384-1.162-.656-1.188-.574-1.34-.67-.484-.26-.737-.368a166.58 166.58 0 0 1-4.791-2.38c-.152-.083-1.292-.655-2.533-1.27-3.473-1.722-3.18-1.38-3.18-3.7 0-1.95.054-2.22.445-2.22.1 0 11.084 5.44 24.387 12.092m107.28 8.92c0 3.11.043 3.707.276 3.797s.276.673.276 3.68c0 3.328.025 3.6.37 3.942s.37.614.37 4.244c0 3.274.043 3.892.276 3.98.152.06.276.238.276.4 0 .228-.05.244-.22.072-.122-.122-.527-.22-.9-.22-.435 0-.72-.1-.787-.276-.074-.194-.376-.276-1.012-.276-.75 0-.922-.063-1.002-.37-.07-.27-.252-.37-.667-.37-.384 0-.57-.1-.57-.276 0-.193-.194-.276-.645-.276-.522 0-.645-.07-.645-.37s-.123-.37-.645-.37c-.45 0-.645-.083-.645-.276 0-.184-.184-.276-.553-.276s-.553-.092-.553-.276c0-.19-.192-.276-.623-.276-.468 0-.648-.092-.72-.37-.07-.27-.252-.37-.667-.37-.384 0-.57-.1-.57-.276 0-.19-.192-.276-.623-.276-.468 0-.648-.092-.72-.37-.07-.27-.252-.37-.667-.37-.384 0-.57-.1-.57-.276 0-.19-.192-.276-.623-.276-.468 0-.648-.092-.72-.37-.07-.27-.252-.37-.667-.37-.384 0-.57-.1-.57-.276 0-.19-.192-.276-.623-.276-.468 0-.648-.092-.72-.37-.07-.27-.252-.37-.667-.37-.384 0-.57-.1-.57-.276s-.182-.276-.533-.276c-.304 0-.58-.12-.64-.276s-.337-.276-.652-.276c-.385 0-.58-.11-.663-.37-.08-.254-.28-.37-.638-.37-.293 0-.567-.12-.627-.276s-.335-.276-.643-.276c-.382 0-.565-.106-.633-.37-.053-.203-.228-.37-.4-.37s-.293-.124-.293-.276c0-.193.194-.276.645-.276.522 0 .645-.07.645-.37s.123-.37.645-.37c.45 0 .645-.083.645-.276 0-.186.186-.276.57-.276.415 0 .597-.1.667-.37.072-.277.252-.37.72-.37.43 0 .623-.085.623-.276 0-.186.186-.276.57-.276.415 0 .597-.1.667-.37.072-.277.252-.37.72-.37.43 0 .623-.085.623-.276 0-.186.186-.276.57-.276.415 0 .597-.1.667-.37.072-.277.252-.37.72-.37.43 0 .623-.085.623-.276 0-.184.184-.276.553-.276s.553-.092.553-.276.186-.276.57-.276c.415 0 .597-.1.667-.37.072-.277.252-.37.72-.37.43 0 .623-.085.623-.276 0-.186.186-.276.57-.276.415 0 .597-.1.667-.37.072-.277.252-.37.72-.37.43 0 .623-.085.623-.276 0-.152.124-.276.276-.276s.276-.164.276-.37c0-.298.123-.37.645-.37.45 0 .645-.083.645-.276s.194-.276.645-.276c.522 0 .645-.07.645-.37s.123-.37.645-.37c.45 0 .645-.083.645-.276s.194-.276.645-.276c.522 0 .645-.07.645-.37 0-.246.123-.37.37-.37.356 0 .37.123.37 3.69M29.88 34.85c.363 0 .546.1.614.37.07.265.252.37.647.37.32 0 .595.116.656.276s.335.276.643.276c.382 0 .565.106.633.37.053.203.228.37.4.37s.293.124.293.276c0 .19.192.276.623.276.468 0 .648.092.72.37.07.27.252.37.667.37.384 0 .57.1.57.276 0 .18.18.276.51.276.31 0 .6.145.738.37a.88.88 0 0 0 .67.369c.24 0 .487.124.545.276.062.162.338.276.664.276.374 0 .56.092.56.276 0 .19.192.276.623.276.468 0 .648.092.72.37.07.27.252.37.667.37.384 0 .57.1.57.276 0 .193.194.276.645.276.522 0 .645.07.645.37s.123.37.645.37c.45 0 .645.083.645.276s.194.276.645.276c.522 0 .645.07.645.37s.123.37.645.37c.45 0 .645.083.645.276 0 .182.182.276.53.276.376 0 .56.107.628.37.07.27.252.37.667.37.602 0 .803.424.293.62-.152.058-.276.233-.276.388 0 .2-.188.282-.645.282-.45 0-.645.083-.645.276 0 .186-.186.276-.57.276-.415 0-.597.1-.667.37-.072.277-.252.37-.72.37-.43 0-.623.085-.623.276 0 .185-.185.276-.56.276-.326 0-.603.115-.664.276-.06.152-.304.276-.545.276a.88.88 0 0 0-.67.369c-.14.224-.43.37-.738.37-.33 0-.51.098-.51.276 0 .186-.186.276-.57.276-.415 0-.597.1-.667.37-.072.277-.252.37-.72.37-.43 0-.623.085-.623.276s-.194.276-.645.276c-.522 0-.645.07-.645.37s-.123.37-.645.37c-.45 0-.645.083-.645.276s-.194.276-.645.276c-.522 0-.645.07-.645.37s-.123.37-.645.37c-.45 0-.645.083-.645.276 0 .185-.185.276-.56.276-.326 0-.603.115-.664.276s-.337.276-.656.276c-.395 0-.578.104-.647.37-.072.277-.252.37-.72.37-.43 0-.623.085-.623.276 0 .175-.176.276-.478.276-.323 0-.51.12-.574.37-.082.31-.252.37-1.09.37-.76 0-.992.065-.992.276 0 .152-.124.276-.276.276s-.276-.13-.276-.3.124-.414.276-.566c.225-.225.276-.887.276-3.56 0-2.75.045-3.3.276-3.4s.276-.65.276-3.476c0-3.17.022-3.384.37-3.6s.37-.43.37-3.183c0-2.454.047-2.97.276-3.058.186-.07.283-.386.298-.962.012-.47.06-.7.106-.533.055.21.264.322.602.322m53.773 21.192c.08 2.304.174 2.172-2.49 3.482l-2.63 1.307a213.94 213.94 0 0 1-2.58 1.282l-2.58 1.293a144 144 0 0 1-4.791 2.388c-.253.107-.606.278-.783.38-.55.316-.898.49-3.27 1.656l-2.58 1.3c-.152.088-4.712 2.368-10.134 5.067L41.68 79.25c-1.17.66-4.825 2.402-5.035 2.402-.145 0-.366.124-.492.276a.83.83 0 0 1-.55.276c-.176 0-.53.164-.785.365-.75.59-3.057 1.7-3.265 1.573-.224-.14-.256-3.393-.036-3.74.2-.313 51.453-25.99 51.806-25.955.217.023.288.365.33 1.592m19.452 5.327l14.18 7.257c.118.148.92.62 1.782 1.044l1.843.936c.152.09 1.313.67 2.58 1.292l3.27 1.645c.177.1.57.295.875.434 2.288 1.044 11.97 5.978 12.26 6.247.472.44.55 3.763.094 3.94-.3.115-1.29-.34-3.56-1.635-.843-.48-1.638-.875-1.767-.875-.36 0-17.057-8.402-17.505-8.808-.363-.33-2.724-1.605-3.802-2.055-.253-.105-.585-.27-.737-.363s-.4-.218-.553-.276a4.75 4.75 0 0 1-.553-.261c-.743-.422-1.47-.79-4.514-2.28-1.52-.744-2.09-1.036-2.856-1.46-.152-.084-.525-.266-.83-.405-1.02-.465-4.745-2.333-5.4-2.702-.177-.1-.525-.27-.772-.377-.743-.318-4.51-2.222-4.7-2.38-.102-.08-.392-.21-.645-.286s-.502-.19-.553-.253-.673-.404-1.382-.758l-1.3-.645-.053-1.98c-.047-1.81-.023-1.98.283-1.98.184 0 6.62 3.144 14.3 6.987m-15.98 2.502c.06.158.336.276.645.276s.584.118.645.276.333.276.618.276c.357 0 .54.11.608.37.07.265.252.37.647.37.32 0 .595.116.656.276s.335.276.643.276c.382 0 .565.106.633.37.07.27.252.37.667.37.384 0 .57.1.57.276 0 .19.192.276.623.276.468 0 .648.092.72.37.07.27.252.37.667.37.384 0 .57.1.57.276 0 .19.192.276.623.276.468 0 .648.092.72.37.064.244.252.37.555.37.252 0 .506.124.564.276.06.158.336.276.645.276s.584.118.645.276.335.276.643.276c.382 0 .565.106.633.37.07.27.252.37.667.37.384 0 .57.1.57.276 0 .19.192.276.623.276.468 0 .648.092.72.37.07.27.252.37.667.37.384 0 .57.1.57.276 0 .19.192.276.623.276.468 0 .648.092.72.37.07.27.252.37.667.37.384 0 .57.1.57.276 0 .19.192.276.623.276.468 0 .648.092.72.37.07.27.252.37.667.37.384 0 .57.1.57.276s.182.276.533.276c.304 0 .58.12.64.276s.335.276.643.276c.382 0 .565.106.633.37.07.27.252.37.667.37.384 0 .57.1.57.276 0 .19.192.276.623.276.468 0 .648.092.72.37.07.27.252.37.667.37.384 0 .57.1.57.276 0 .152.115.276.255.276s.298.166.35.37c.07.27.252.37.667.37.384 0 .57.1.57.276 0 .19.192.276.623.276.468 0 .648.092.72.37.07.27.252.37.667.37.384 0 .57.1.57.276 0 .19.192.276.623.276.468 0 .648.092.72.37.07.27.252.37.667.37.384 0 .57.1.57.276 0 .193.194.276.645.276s.645.083.645.276.194.276.645.276c.522 0 .645.07.645.37s.123.37.645.37c.45 0 .645.083.645.276 0 .186.186.276.57.276.415 0 .597.1.667.37.068.26.252.37.628.37.35 0 .53.094.53.276 0 .19.192.276.623.276.468 0 .648.092.72.37.07.27.252.37.667.37.384 0 .57.1.57.276 0 .19.192.276.623.276.468 0 .648.092.72.37.07.27.252.37.667.37.384 0 .57.1.57.276 0 .193.194.276.645.276s.645.083.645.276.194.276.645.276c.522 0 .645.07.645.37s.123.37.645.37c.45 0 .645.083.645.276 0 .186.186.276.57.276.415 0 .597.1.667.37.067.257.252.37.608.37.285 0 .558.123.618.276.073.2.37.276.947.276s.874-.087.947-.276c.062-.16.337-.276.656-.276.395 0 .578-.104.647-.37s.252-.37.628-.37c.35 0 .53-.094.53-.276 0-.193.194-.276.645-.276.522 0 .645-.07.645-.37s.123-.37.645-.37c.45 0 .645-.083.645-.276 0-.215.082-.194.37.092.344.344.37.614.37 4.105 0 2.95.056 3.816.265 4.114.203.29.28 1.212.322 3.926.05 3.125.096 3.576.38 3.783.29.21.322.633.322 4.118 0 3.154.05 3.932.27 4.15.212.212.28 1.005.322 3.79l.054 3.522H21.044v-1.027c0-.667.097-1.123.276-1.303.222-.222.276-.846.276-3.192 0-2.42.047-2.933.276-3.02s.276-.645.276-3.428c0-3.077.027-3.35.37-3.69s.37-.614.37-3.573c0-2.68.045-3.222.276-3.31.222-.085.276-.502.276-2.138 0-1.787.045-2.078.37-2.4.223-.223.37-.614.37-.99 0-.342.124-.726.276-.852.16-.132.276-.533.276-.944 0-.694.02-.714.645-.714.45 0 .645.083.645.276s.192.276.623.276c.468 0 .648.092.72.37.07.265.252.37.647.37.32 0 .595.116.656.276.072.19.37.276.94.276.62 0 .835-.07.835-.276 0-.193.194-.276.645-.276.522 0 .645-.07.645-.37s.123-.37.645-.37c.45 0 .645-.083.645-.276s.194-.276.645-.276c.522 0 .645-.07.645-.37s.123-.37.645-.37c.45 0 .645-.083.645-.276s.194-.276.645-.276.645-.083.645-.276c0-.186.186-.276.57-.276.415 0 .597-.1.667-.37.072-.277.252-.37.72-.37.43 0 .623-.085.623-.276 0-.184.184-.276.553-.276.43 0 .553-.082.553-.37 0-.298.123-.37.645-.37.45 0 .645-.083.645-.276s.194-.276.645-.276c.522 0 .645-.07.645-.37s.123-.37.645-.37c.45 0 .645-.083.645-.276s.194-.276.645-.276c.522 0 .645-.07.645-.37s.123-.37.645-.37c.45 0 .645-.083.645-.276s.194-.276.645-.276.645-.083.645-.276c0-.186.186-.276.57-.276.415 0 .597-.1.667-.37.07-.262.252-.37.633-.37.308 0 .583-.118.643-.276s.337-.276.656-.276c.395 0 .578-.104.647-.37s.252-.37.628-.37c.35 0 .53-.094.53-.276 0-.193.194-.276.645-.276.522 0 .645-.07.645-.37s.123-.37.645-.37c.45 0 .645-.083.645-.276s.194-.276.645-.276c.522 0 .645-.07.645-.37s.123-.37.645-.37c.45 0 .645-.083.645-.276s.194-.276.645-.276c.522 0 .645-.07.645-.37s.123-.37.645-.37c.45 0 .645-.083.645-.276 0-.185.185-.276.56-.276.326 0 .603-.115.664-.276s.337-.276.656-.276c.395 0 .578-.104.647-.37s.252-.37.628-.37c.35 0 .53-.094.53-.276s.186-.276.57-.276c.415 0 .597-.1.667-.37.072-.277.252-.37.72-.37.43 0 .623-.085.623-.276s.194-.276.645-.276c.522 0 .645-.07.645-.37s.123-.37.645-.37c.45 0 .645-.083.645-.276 0-.186.186-.276.57-.276.415 0 .597-.1.667-.37.072-.277.252-.37.72-.37.43 0 .623-.085.623-.276 0-.185.185-.276.56-.276.326 0 .603-.115.664-.276.06-.152.304-.276.545-.276a.88.88 0 0 0 .67-.369c.136-.218.43-.37.72-.37.27 0 .537-.124.595-.276s.323-.276.6-.276c.328 0 .515-.118.58-.37.072-.277.252-.37.72-.37.43 0 .623-.085.623-.276 0-.186.186-.276.57-.276.415 0 .597-.1.667-.37.072-.277.252-.37.72-.37.43 0 .623-.085.623-.276 0-.186.186-.276.57-.276.415 0 .597-.1.667-.37.072-.277.252-.37.72-.37.43 0 .623-.085.623-.276 0-.185.185-.276.56-.276.326 0 .603-.115.664-.276.075-.194.377-.276 1.013-.276s.94.082 1.013.276M15.912 74.94l3.474 1.738c1 .572 4.736 2.395 4.906 2.395.114 0 .31.124.437.276s.365.276.53.276c.9 0 1.31.843 1.31 2.685 0 2.14-.12 2.235-1.727 1.373-1.643-.88-7.447-3.804-9.89-4.98-2.818-1.358-2.756-1.282-2.756-3.378 0-2.43-.35-2.392 3.712-.386m143.397-.808c.51 2.557.17 3.158-2.524 4.453-4.852 2.33-7.99 3.903-8.695 4.355-2.68 1.72-3.01 1.655-3.024-.607-.01-1.973-.017-1.962 1.642-2.793l1.3-.662c.29-.16 3.247-1.624 4.514-2.232.405-.195 1.98-.997 3.5-1.784 2.986-1.545 3.126-1.576 3.296-.73m-1.256 40.686c.188 0 .263.23.263.807 0 .492.108.896.276 1.036.152.126.276.49.276.81s.112.745.25.945.298.674.357 1.054l.108.69h-1.45v-2.125c0-1.72-.053-2.145-.276-2.23-.19-.073-.27-.346-.255-.87.012-.42.06-.618.106-.44s.202.322.347.322m-144.01 4.514c0 .706-.055.83-.37.83-.443 0-.5-.582-.092-.92.152-.126.276-.344.276-.483s.04-.254.092-.254.092.373.092.83m148.847 5.21c1.78.76 4.087 2.75 4.087 3.525 0 .2.08.414.18.475.795.492 1.472 11.356.814 13.07-.148.385-163.27.456-163.657.07-.778-.778-.094-13.414.726-13.414.087 0 .158-.11.158-.248 0-.673 2.877-3.096 3.992-3.363.287-.07.605-.2.707-.27.375-.292 2.863-.3 76.743-.284l75.27.018.98.42m-149.71 6.535c-.867.616-1.2 1.992-.756 3.034 1.077 2.47 4.932 1.662 4.934-1.032.001-2.026-2.474-3.213-4.178-2.002m9.5.01c-.997.924-1.257 1.912-.767 2.914 1.392 2.844 5.617 1.57 4.945-1.49-.363-1.652-2.972-2.54-4.178-1.422m9.34.233c-2.245 2.312 1.114 5.945 3.407 3.685.837-.825.92-1 .92-1.943s-.083-1.12-.92-1.943c-.78-.77-2.568-.663-3.407.202m135.924 14.05c.472.472.34 99.91-.135 101.194-.86 2.322-2.74 4.202-5.06 5.06-1.013.375-1.053.375-76.657.375-83.336 0-75.64.097-77.935-.982-.823-.386-2.763-2.33-3.16-3.167-.97-2.04-.903 2.12-.85-52.318l.05-50.202.46-.13c.936-.26 163.027-.095 163.29.167M14.55 184.02c-.076.078-.138 4.896-.138 10.706v10.564h3.5l.003-3.823c.001-2.103.064-3.917.138-4.03.086-.132 1.144-.24 2.9-.296 2.084-.066 2.9-.162 3.317-.4.304-.166.665-.303.803-.304 1.57-.007 3.71-3.444 3.71-5.956 0-1.988-1.4-5.057-2.324-5.093-.113-.004-.416-.174-.674-.376s-.574-.37-.702-.37-.4-.143-.583-.317c-.376-.34-9.64-.635-9.95-.316m90.655 2.05c-.282.074-.322.334-.322 2.087 0 2.28-.174 2.576-1.51 2.576-.828 0-1.07.346-1.07 1.526 0 .973.402 1.422 1.27 1.422 1.314 0 1.31-.013 1.31 3.86 0 4.568.507 6.593 1.797 7.18.228.104.415.26.415.347 0 .327 2.93.85 3.558.637.323-.1.898-.252 1.278-.317.768-.13.92-.612.41-1.288-.15-.197-.27-.543-.27-.768 0-.83-.143-.935-1.16-.856-2.055.16-2.526-.816-2.526-5.232v-3.207l.473-.18c.26-.1 1.046-.18 1.747-.18 1.47 0 1.53-.078 1.43-1.852l-.057-1.004-1.498-.098c-2.07-.135-2.095-.166-2.095-2.577 0-1.64-.05-2.004-.292-2.096-.327-.126-2.4-.115-2.887.015m-82.203 1.5c2.483.48 3.02 4.097.826 5.55-.78.516-4.755.79-5.52.382-.47-.252-.625-5.425-.175-5.874.254-.254 3.648-.294 4.87-.058m31.624 3.272c-.43.26-.783.544-.783.633 0 .25-1.13.773-1.297.6-.082-.085-.176-.403-.21-.707l-.06-.553-1.366-.055c-.968-.04-1.4.015-1.517.184-.258.406-.195 20.488.064 20.747.272.272 2.43.295 2.923.03.42-.224.55-6.004.153-6.87a.85.85 0 0 1 .031-.883c.14-.264.264-.346.3-.208.042.126.18.23.304.23s.537.275.915.61c1.403 1.248 5.09 1.46 6.396.37.16-.134.37-.243.466-.243s.315-.145.486-.322.53-.53.795-.783c3.633-3.46 2.495-10.654-2.023-12.79-1.475-.697-4.423-.69-5.588.01m18.426 0c-.43.26-.783.544-.783.633 0 .25-1.13.773-1.297.6-.082-.085-.176-.403-.21-.707l-.06-.553-1.366-.055c-.968-.04-1.4.015-1.517.184-.258.406-.195 20.488.064 20.747.272.272 2.43.295 2.923.03.42-.224.55-6.004.153-6.87a.85.85 0 0 1 .031-.883c.14-.264.264-.346.3-.208.042.126.18.23.304.23s.537.275.915.61c1.403 1.248 5.09 1.46 6.396.37.16-.134.37-.243.466-.243s.315-.145.486-.322.53-.53.795-.783c3.633-3.46 2.495-10.654-2.023-12.79-1.475-.697-4.423-.69-5.588.01m17.042-.118c-.378.203-.777.37-.887.37-.44 0-2.71 2.514-3.16 3.5-1.323 2.9-.685 6.785 1.478 9.01.346.356 1.496 1.125 1.683 1.125.084 0 .25.115.366.257s.604.312 1.082.38 1.137.218 1.465.332c1.013.355 4.436-.472 5.41-1.306l.737-.634c.263-.226.697-.708.966-1.07l.49-.66-1.334-.676c-1.624-.824-1.348-.848-2.486.22-2.236 2.1-6.102 1.14-6.868-1.704-.382-1.42-.454-1.402 5.66-1.402h5.216v-1.636c0-1.23-.07-1.693-.276-1.865-.152-.126-.276-.433-.276-.683 0-2.66-6.368-5.105-9.26-3.555m29.163.01c-.353.197-.744.358-.87.358-.307 0-2.82 2.53-2.82 2.838 0 .135-.166.456-.37.714-.223.284-.37.748-.37 1.178 0 .4-.08.987-.177 1.326-.24.832.13 3.398.624 4.36.544 1.055 1.63 2.47 1.904 2.477.128.004.374.173.548.376s.453.37.62.37.403.118.522.262.565.316 1 .383 1.037.212 1.36.324c.7.24 4.167-.316 4.506-.724.11-.135.3-.245.42-.245.318 0 2.328-1.838 2.5-2.278.155-.418-.6-1.06-1.52-1.3-.272-.068-.494-.205-.494-.305 0-.365-.703-.167-.997.28-1.742 2.66-6.877 1.672-7.37-1.417-.187-1.17-.267-1.153 5.567-1.255l5.29-.092.054-1.33c.042-1.03-.03-1.515-.322-2.155-.207-.455-.376-.92-.376-1.034s-.104-.32-.23-.46-.435-.535-.685-.882c-.475-.657-1.007-1.04-2.4-1.732-1.158-.574-4.893-.603-5.893-.045m17.133-.07c-3.82 1.776-5.54 5.262-4.584 9.285.215.906.455 1.646.533 1.646s.19.198.252.44c.15.597 1.84 2.294 2.603 2.612.34.142.664.333.72.424s.497.222.98.29 1.142.218 1.466.33c1.103.386 4.495-.488 5.515-1.422.114-.104.386-.314.605-.465.907-.63 1.55-2.028.935-2.028-.09 0-.587-.25-1.103-.553-1.176-.694-1.038-.716-2.167.344-2.03 1.904-5.498 1.317-6.68-1.13-.935-1.935-.86-1.963 5.454-2.02l5.328-.05-.017-1.198c-.016-1.093-.397-2.623-.826-3.317-.094-.152-.252-.463-.35-.69s-.26-.415-.356-.415-.225-.153-.284-.34c-.112-.353-1.36-1.217-2.524-1.75-.94-.43-4.578-.428-5.5.001m18.957.113c-.366.226-.986.72-1.376 1.1-.948.92-1.366.703-1.366-.712 0-.45-.017-.456-1.428-.403l-1.428.054-.096 14.464h3.505l.005-4.1c.006-5.273.29-6.317 1.948-7.124l.855-.415c.442-.213 1.937-.194 2.073.026.212.343.802-.242.916-.907.06-.36.25-.973.416-1.36.404-.934.22-1.04-1.79-1.037-1.293.002-1.682.074-2.233.413m-123.677.07c-.068.067-.123 2.56-.123 5.54v5.417l.488 1.048c1.266 2.72 5.352 3.885 7.45 2.122.16-.135.365-.245.456-.245s.438-.306.77-.68c.704-.79.946-.687 1.1.474l.102.76h3.084v-14.365l-.42-.105c-.23-.058-.957-.08-1.612-.05l-1.192.056-.092 4.146c-.063 2.825-.165 4.274-.322 4.548-.127.22-.233.553-.237.737-.03 1.568-3.217 2.89-4.764 1.975-1.316-.778-1.395-1.118-1.466-6.326-.038-2.85-.138-4.804-.253-4.943-.2-.243-2.742-.335-2.97-.107m62.563 2.44c.904.2 2.138 1.403 2.21 2.136l.054.553-3.64.05c-2.838.04-3.644-.001-3.66-.184-.168-1.8 2.485-3.147 5.035-2.554m28.96-.05c1.14.157 2.567 1.442 2.476 2.23l-.06.508h-7.186l-.06-.418c-.043-.304.197-.665.88-1.324 1.1-1.06 1.94-1.27 3.948-.996m17.28.048c.617.144.976.352 1.457.848 1.67 1.72 1.484 1.843-2.776 1.843h-3.593l-.054-.468c-.076-.654 1.404-2.153 2.227-2.256 1.094-.136 2.06-.125 2.74.033m-82.51.295c.152.152.4.276.55.276.327 0 1.78 1.353 1.78 1.657 0 .117.124.336.276.488 1.197 1.197-.132 5.1-2.078 6.107-3.28 1.697-7.437-2.252-5.862-5.57.162-.34.294-.7.294-.775.005-1.386 4.074-3.15 5.04-2.183m18.426 0c.152.152.4.276.55.276.327 0 1.78 1.353 1.78 1.657 0 .117.124.336.276.488 1.197 1.197-.132 5.1-2.078 6.107-3.28 1.697-7.437-2.252-5.862-5.57.162-.34.294-.7.294-.775.005-1.386 4.074-3.15 5.04-2.183" fill="#050908"/><path d="M27.31 6.1l-2.487 1.193-3.317 1.57-5.262 2.393c-.095 0-.17.187-.168.415.005.414.53.708 5.43 3.033l1.2.598a201.55 201.55 0 0 0 5.712 2.762c.253.106.585.267.737.357a27.42 27.42 0 0 0 1.34.669c.585.278 1.104.57 1.153.65s.338.2.64.267.55.197.55.29.092.17.204.17.962.38 1.89.842l2.606 1.34c.203.117.576.3.83.407a33.55 33.55 0 0 1 2.211 1.084c.152.085.755.382 1.34.66s1.104.57 1.153.65.338.2.64.267.55.197.55.29.088.17.195.17c.165 0 2.996 1.355 3.86 1.847.152.087 1.562.79 3.132 1.565l3.132 1.568c.152.088 2.722 1.374 5.712 2.857l5.712 2.844 1.314.64c3.288 1.56 2.93 4.196-.825 6.098l-4.266 2.197-18.242 9.206-15.938 8.017-6.31 3.144S15.7 69.23 15.7 69.307c0 .17 12.887 6.64 13.214 6.636.123-.001 1.035-.405 2.027-.898l27.046-13.613a311.74 311.74 0 0 1 3.225-1.63l23.827-12c.756-.376 2.265-.198 2.793.33.044.044 5.162 2.634 11.374 5.755l11.57 5.83c.152.086 1.023.52 1.935.967 2.94 1.437 4.283 2.16 4.498 2.42.116.14 2.22 1.266 4.674 2.504l4.74 2.402a545.91 545.91 0 0 0 5.159 2.58l1.013.508 9.836 4.83c.35 0 12.844-6.228 13.092-6.527.177-.214-14.04-7.424-40.71-20.643l-4.514-2.3-4.7-2.44c-2.528-1.305-2.998-1.82-2.998-3.283 0-1.826-.308-1.617 10.092-6.818l9.458-4.837c.034-.076.146-.138.25-.138.16 0 4.128-1.925 4.94-2.398.152-.088 1.334-.672 2.626-1.295s2.392-1.202 2.444-1.286.34-.206.644-.273.55-.197.55-.29.092-.17.204-.17c.22 0 3.463-1.583 4.54-2.217a4.13 4.13 0 0 1 .609-.288c.158-.054.738-.334 1.3-.62l2.016-1.012c.557-.27 1.138-.57 1.3-.666s.4-.223.553-.284c.5-.2 4.508-2.123 4.79-2.298a4.43 4.43 0 0 1 .553-.284c1.327-.543 6.725-3.334 6.725-3.478 0-.1-.187-.21-.415-.243s-.415-.135-.415-.227-.808-.55-1.797-1.02l-9.54-4.515c-1.503-.728-2.51-.478-5.985 1.49-.152.086-4.53 2.293-9.73 4.904l-9.546 4.897c-.05.082-.224.15-.385.15s-.633.272-1.05.604-3.45 1.956-6.744 3.608l-6.265 3.166c-.152.09-1.082.54-2.067 1.006s-1.84.924-1.9 1.02-.26.176-.445.176-.434.12-.555.264-.462.318-.76.383-.54.188-.54.274-.243.208-.54.274-.64.238-.76.383-.37.264-.555.264-.377.068-.43.152c-.072.116-6.398 3.312-9.286 4.692-.55.262-3.897-1.1-6.49-2.638-.152-.1-.732-.38-1.3-.645s-1.8-.888-2.764-1.386-1.854-.906-1.98-.908-.23-.08-.23-.173-.248-.224-.55-.29-.6-.184-.638-.26S68.4 25.22 63.2 22.61l-10.418-5.254c-.177-.095-1.06-.53-1.96-.964l-2.537-1.255c-7.594-3.917-19.143-9.58-19.503-9.564-.253.012-.917.252-1.474.535M156.013 17.9c-1.823.912-3.42 1.658-3.547 1.658s-.23.082-.23.18-.228.235-.507.3-.63.224-.783.35-.484.292-.737.367-.552.21-.664.298c-.416.33-1.944 1.083-2.2 1.083-.147 0-.267.082-.267.18s-.228.235-.507.302-.604.198-.724.29c-.405.318-4.553 2.36-4.794 2.36-.132 0-.24.082-.24.18s-.228.235-.507.3-.63.224-.783.35-.484.293-.737.37-.502.192-.553.257c-.135.173-2.03 1.122-2.24 1.122-.1 0-.305.124-.457.276a1.03 1.03 0 0 1-.621.276c-.19 0-.388.07-.442.158s-1.157.675-2.452 1.307l-2.63 1.305c-.42.237-2.083 1.053-2.395 1.176-.152.06-.69.352-1.198.65s-1.06.545-1.23.552-.334.08-.37.163-1.14.68-2.457 1.326-2.505 1.284-2.64 1.416a.95.95 0 0 1-.576.24.84.84 0 0 0-.562.276c-.126.152-.324.276-.44.276s-.52.166-.898.37-.802.37-.942.37-.357.124-.484.276-.375.276-.553.276a.81.81 0 0 0-.543.264c-.12.146-.462.318-.76.383s-.54.188-.54.274-.3.25-.645.368c-.786.26-.85.748-.138 1.07.9.405 1.61.825 1.744 1.033.205.314 1.726.213 2.077-.138.168-.168.455-.305.638-.305a.82.82 0 0 0 .552-.264c.12-.146.456-.317.747-.38s.626-.235.747-.38.313-.262.427-.26c.176.004 2.368-1.01 3.248-1.502.152-.085.732-.373 1.3-.64s1.138-.558 1.3-.65a4.17 4.17 0 0 1 .553-.269c.152-.058.4-.18.553-.272s.732-.38 1.3-.643 1.138-.554 1.3-.65a7.04 7.04 0 0 1 .737-.377 8.27 8.27 0 0 0 .737-.368 4.61 4.61 0 0 1 .553-.276c.152-.06 2.515-1.217 5.25-2.57l5.436-2.652c.253-.106.606-.276.783-.377.57-.326.946-.52 1.98-1.017l3.132-1.56c.152-.088 2.142-1.082 4.422-2.21l4.422-2.2c.152-.084.92-.47 1.704-.86l1.428-.71v-1.32c0-.947.078-1.383.276-1.548.28-.233.393-1.3.138-1.3-.076 0-1.63.746-3.454 1.658m-143.59.6l.052 2.073 8.2 4.083L52.928 40.63c4.116 2.037 4.994 2.367 5.236 1.975.058-.094.63-.426 1.274-.74 2.107-1.026 2.112-1.15.094-2.135l-2.005-1.012c-.152-.092-1.313-.674-2.58-1.295l-2.58-1.29c-.152-.1-1.562-.795-3.132-1.568L46.104 33c-.152-.088-1.313-.668-2.58-1.288l-3.29-1.635a190.77 190.77 0 0 0-2.119-1.057l-5.648-2.854c-.152-.084-.525-.266-.83-.405-1.02-.465-4.745-2.333-5.4-2.702a9.06 9.06 0 0 0-.755-.371c-.473-.203-4.373-2.14-4.82-2.393a135.47 135.47 0 0 0-2.58-1.293l-2.58-1.285c-3.228-1.743-3.156-1.76-3.092.78m76.28 36.105c-.302.302-.294 3.11.01 3.52.127.17 6.518 3.453 14.202 7.295l14.372 7.35c.338.307 15.067 7.726 18.467 9.302a54.04 54.04 0 0 1 2.456 1.244c1.903 1.03 1.865 1.05 1.865-.983 0-2.227 1.065-1.5-11.642-7.844l-11.295-5.837c-.265-.246-.602-.447-.75-.447s-.267-.083-.267-.184-.092-.184-.204-.184c-.177 0-3.07-1.388-3.85-1.847-.152-.09-1.298-.667-2.546-1.283l-2.58-1.282c-.17-.09-1.595-.8-3.166-1.58l-3.132-1.57c-.152-.084-1.562-.79-3.132-1.565l-3.132-1.57c-.152-.088-1.337-.674-2.634-1.303s-2.4-1.213-2.452-1.297c-.132-.214-.33-.19-.59.068m-5.78.106c-.034.08-.808.503-1.72.944l-1.935.95c-1.262.68-4.73 2.387-4.85 2.386-.083 0-.275.124-.427.276a1.03 1.03 0 0 1-.621.276c-.19 0-.388.07-.44.157s-1.157.676-2.452 1.31l-2.632 1.305c-1.498.813-4.748 2.388-4.93 2.387-.127 0-.23.08-.23.18s-.228.235-.507.3-.63.224-.783.35-.48.292-.728.368a2.02 2.02 0 0 0-.704.391.96.96 0 0 1-.585.252.81.81 0 0 0-.547.258c-.118.142-.428.312-.7.378s-.596.24-.743.386-.417.267-.6.267a.84.84 0 0 0-.562.276c-.126.152-.375.276-.553.276a.8.8 0 0 0-.538.258c-.118.142-.44.315-.713.383s-.6.2-.703.295c-.392.325-1.937 1.1-2.202 1.1-.147 0-.267.082-.267.18s-.228.237-.507.304-.704.277-.946.464-.594.34-.783.34-.344.082-.344.18-.228.235-.507.3-.63.224-.783.35-.48.292-.728.368a2.02 2.02 0 0 0-.704.391c-.14.14-.407.252-.597.252s-.396.083-.458.184-.586.4-1.163.665a34.09 34.09 0 0 0-1.325.634 47.02 47.02 0 0 1-2.395 1.173c-.152.06-.69.352-1.198.65s-1.066.545-1.244.552-.322.094-.322.193-.228.235-.507.302-.604.197-.723.3-1.155.647-2.303 1.23l-2.087 1.06-.053 1.785c-.05 1.712.167 2.31.59 1.625.054-.088.578-.398 1.162-.69s1.13-.633 1.21-.76.298-.232.482-.232.545-.166.803-.37.575-.37.705-.37c.175 0 32.398-16.026 34.07-16.944 1.266-.696 8.246-4.068 8.415-4.065.118.002.242-.064.276-.148s.945-.583 2.025-1.11 2.013-1.088 2.073-1.246c.4-1.068-.052-4.227-.474-3.245m-70.54 20.554c0 2.074-.03 2.037 2.764 3.385l5.712 2.812a4.18 4.18 0 0 0 .553.27c.152.057.4.174.553.26s.525.287.83.446l1.957 1.036c1.686.895 1.636.93 1.636-1.174 0-1.922-.07-2.038-1.75-2.84a28.38 28.38 0 0 1-1.198-.598c-.152-.087-.4-.205-.553-.262s-.4-.18-.553-.276-.484-.254-.737-.355a4.88 4.88 0 0 1-.737-.369c-.152-.102-.4-.233-.553-.3s-.4-.182-.553-.277-.484-.263-.737-.375a8.27 8.27 0 0 1-.737-.368c-.152-.09-.4-.213-.553-.27a4.63 4.63 0 0 1-.553-.263c-.3-.18-1.97-.993-2.395-1.175-.152-.065-.642-.324-1.09-.576-1.278-.72-1.307-.693-1.307 1.26m146.27-1.565c-.076.192-4.565 2.427-4.875 2.427-.123 0-.25.068-.285.15s-.6.418-1.26.745l-1.474.752c-.152.087-1.415.717-2.806 1.4s-2.568 1.377-2.614 1.54c-.135.474-.06 3.158.1 3.25.163.1 2.33-1.006 2.96-1.513.138-.1.454-.263.702-.34s.566-.252.704-.39.407-.252.597-.252.39-.072.444-.16.578-.387 1.162-.666 1.188-.58 1.34-.67.4-.212.553-.27a23.77 23.77 0 0 0 1.034-.459c.416-.195.845-.354.952-.354s.222-.063.257-.14c.087-.197 1.978-1.15 2.283-1.15.446 0 .634-.675.634-2.28 0-1.35-.193-2.136-.4-1.62" fill="#04d49f"/><path d="M10.265 124.89c-.537.065-1.977.704-2.427 1.077-.123.1-.512.392-.866.645s-.694.585-.755.737a10.62 10.62 0 0 1-.99 1.716c-.392.472-.574 2.824-.577 7.45l-.004 4.653h162.92l-.144-11.332-.47-.83c-.982-1.732-1.15-1.956-1.904-2.535a17.06 17.06 0 0 0-1.68-1.103l-.905-.508-75.822-.02c-41.702-.01-76.07.01-76.375.048m5.584 5.247c2.612 1.187 2.726 4.377.207 5.808-1.237.702-3.857-.042-3.857-1.095 0-.086-.124-.28-.276-.433-.726-.726-.193-2.905.917-3.75 1.226-.935 1.868-1.048 3.01-.53m9.762.076c2.463 1.23 2.36 4.506-.183 5.813-2.336 1.2-5.634-2.36-4.01-4.328.693-.84 1.32-1.4 1.567-1.4.148 0 .27-.077.27-.17 0-.42 1.445-.368 2.356.087m9.618.05c2.387 1.47 2.246 4.463-.27 5.745-1.436.732-2.44.367-4-1.457-.544-.636-.416-2.276.245-3.14 1.188-1.554 2.677-1.978 4.024-1.15M4.584 145.897c-.27.27-.14 98.47.133 99.745.615 2.872 2.7 5 5.548 5.634 1.66.375 150.232.372 151.736-.003 2.82-.703 4.744-2.626 5.446-5.446.257-1.034.42-99.47.164-99.883-.12-.194-162.834-.24-163.028-.046m18.807 37.67c1.58.37 3.206 1.23 3.963 2.098.81.925 1.06 1.267 1.06 1.442 0 .103.145.348.322.544.505.558.473 4.937-.044 5.846-.858 1.5-2.725 3.317-3.427 3.317-.1 0-.4.136-.644.304-.358.234-1.12.328-3.356.415l-2.893.11-.1 3.962-.138 4.008c-.138.173-4.05.012-4.238-.175-.375-.375-.312-21.125.066-21.665.33-.473 7.61-.63 9.43-.204m85.545 4.4l.092 2.12 1.465.054c1.912.07 1.943.105 1.943 2.065s-.032 1.993-1.943 2.065l-1.465.054-.057 2.58c-.102 4.66.156 5.253 2.168 4.976l.876-.12.313.89c.793 2.25.788 2.76-.03 3.17s-3.812.5-4.37.136c-.25-.164-.58-.298-.73-.298-.44 0-2.02-1.714-2.302-2.5-.178-.495-.294-2-.37-4.777l-.11-4.054-1.013-.094c-1.46-.135-1.474-.155-1.474-2.013 0-1.9.067-1.993 1.48-2.073l1.008-.057.05-1.935c.066-2.617-.13-2.416 2.297-2.355l2.076.052.092 2.12m-90.532-.06c-.068.067-.123 1.31-.123 2.764v2.64h2.132c1.95 0 2.2-.04 2.93-.468 1.768-1.036 1.83-3.694.11-4.662-.708-.398-4.71-.616-5.05-.275m40.782 2.095c.76.202 1.4.45 1.443.548s.165.18.29.18c.32 0 2.504 2.004 2.504 2.296 0 .13.124.34.276.468s.276.358.276.515.145.446.322.642c.28.308.322.75.32 3.24l-.004 2.883-.698 1.3c-.632 1.166-2.325 3.04-2.748 3.04-.092 0-.29.124-.443.276a1.13 1.13 0 0 1-.678.282c-.22.003-.562.128-.76.276-.246.186-.824.27-1.854.27s-1.607-.084-1.854-.27c-.197-.15-.492-.273-.655-.276s-.575-.25-.915-.545c-.888-.776-.907-.713-.907 3.142 0 4.4.09 4.215-2.065 4.215-2.614 0-2.357 1.226-2.357-11.262 0-12.28-.236-11.033 2.092-11.033 1.666 0 1.897.078 2.248.756.26.505.287.514.625.208.757-.686.967-.807 1.99-1.137 1.378-.446 1.88-.446 3.547-.004m18.426 0c.76.202 1.4.45 1.443.548s.165.18.29.18c.32 0 2.504 2.004 2.504 2.296 0 .13.124.34.276.468s.276.358.276.515.145.446.322.642c.28.308.322.75.32 3.24l-.004 2.883-.698 1.3c-.632 1.166-2.325 3.04-2.748 3.04-.092 0-.29.124-.443.276a1.13 1.13 0 0 1-.678.282c-.22.003-.562.128-.76.276-.246.186-.824.27-1.854.27s-1.607-.084-1.854-.27c-.197-.15-.492-.273-.655-.276s-.575-.25-.915-.545c-.888-.776-.907-.713-.907 3.142 0 4.4.09 4.215-2.065 4.215-2.614 0-2.357 1.226-2.357-11.262 0-12.28-.236-11.033 2.092-11.033 1.666 0 1.897.078 2.248.756.26.505.287.514.625.208.757-.686.967-.807 1.99-1.137 1.378-.446 1.88-.446 3.547-.004m16.86-.094c.405.146.918.267 1.138.268s.526.127.678.28.396.276.54.276c1.403 0 3.445 3.612 3.5 6.195.053 2.44.456 2.28-5.8 2.28h-5.124v.425c0 1.367 1.73 2.523 3.773 2.523h1.546l.946-.92c1.138-1.11 1.28-1.118 2.988-.2 1.333.716 1.633 1.078 1.27 1.53-1.01 1.253-1.53 1.752-2.46 2.37-.597.397-1.194.72-1.326.72s-.56.133-.95.296c-.847.354-4.156.3-4.53-.072-.123-.123-.41-.224-.634-.224s-.524-.113-.663-.252-.443-.313-.676-.387c-1.767-.56-3.89-4.3-3.89-6.856 0-2.85 2.175-6.757 4.088-7.345.234-.072.54-.223.68-.335.833-.67 3.708-1.006 4.904-.574m29.36.016c.675.164 1.352.37 1.504.458s.527.274.834.412c1.838.832 3.235 3.328 3.365 6 .124 2.58.546 2.403-5.686 2.403H118.7v.48c0 .528.996 1.915 1.375 1.915.13 0 .34.124.468.276.78.94 3.912.155 4.94-1.24.41-.554 2.71.15 3.8 1.165.533.496-2.816 3.852-3.843 3.852-.135 0-.543.124-.906.276-2.828 1.182-8.15-.895-9.34-3.645-.097-.225-.248-.533-.336-.685-1.13-1.966-1.018-5.21.266-7.74.708-1.394 3.444-3.662 4.458-3.696.175-.006.607-.12.962-.254.9-.34 1.855-.337 3.286.01m17.203.056c2.048.524 4.385 2.2 4.385 3.127 0 .112.08.204.177.204s.265.328.373.73.277.78.376.84c.287.177.227 3.874-.066 4.117-.164.135-1.97.22-5.4.253l-5.144.05.034.503c.04.566.9 1.8 1.255 1.8.128 0 .335.124.462.276.72.87 3.785.227 4.79-1.004.266-.327.633-.562.876-.562.505 0 3.002 1.288 3.13 1.615.254.646-3.002 3.716-3.963 3.735-.174.004-.524.125-.777.27-.65.37-3.778.37-4.49-.001-.3-.152-.665-.275-.833-.275-1.175 0-4.222-2.978-4.533-4.43-.075-.35-.23-.754-.345-.896-.606-.75-.19-4.792.626-6.098.095-.152.287-.525.426-.83.302-.66 1.926-2.213 2.647-2.53.283-.124.562-.292.62-.372.488-.676 3.586-.977 5.367-.52m17.83-.04c1.197.45 1.39.902.832 1.97-.152.292-.328.854-.392 1.248-.15.94-.248.985-2.126.985-1.773 0-2.38.273-2.915 1.308-.152.294-.36.594-.46.666-.11.08-.207 1.932-.243 4.695-.04 3.258-.12 4.604-.276 4.703-.26.165-3.47.192-3.888.032-.26-.1-.292-.937-.292-7.548 0-8.615-.224-7.818 2.193-7.818 1.576 0 1.86.166 1.86 1.088 0 .472.344.357 1.442-.48.438-.334.936-.61 1.106-.61s.515-.117.77-.258c.638-.354 1.406-.347 2.39.02m-123.638.597c.117.22.193 2.228.197 5.205.006 4.736.016 4.86.415 5.32 1.376 1.587 3.343 1.425 4.574-.38.43-.628.443-.768.533-5.313.1-5.55-.063-5.2 2.486-5.2 2.318 0 2.12-.72 2.12 7.753 0 8.515.22 7.76-2.24 7.686l-1.723-.053-.057-.783c-.067-.93-.108-.944-.7-.24-1.148 1.364-4.956 2.24-6.07 1.397-.197-.15-.494-.273-.66-.276-.984-.02-2.343-1.896-2.938-4.06-.463-1.68-.513-10.373-.064-11.014.4-.586 3.82-.63 4.13-.053m56.253 3.15c-.637.256-2.145 1.84-1.944 2.042.1.1 1.557.15 3.384.123 3.424-.054 3.69-.15 2.828-1.012-.144-.144-.262-.34-.262-.433s-.09-.17-.2-.17-.412-.166-.67-.37c-.508-.4-2.328-.504-3.135-.18m29.14.133c-.927.53-1.09.665-1.506 1.264-.56.802-.535.808 3.03.808 3.526 0 3.68-.062 2.773-1.12-1.06-1.235-3.035-1.673-4.295-.953m17.06-.05a17.43 17.43 0 0 1-.73.4c-.44.22-1.1 1.055-1.107 1.4-.006.318 6.176.528 6.484.22.155-.155-.645-1.522-.96-1.64-.152-.058-.485-.227-.738-.375-.59-.348-2.35-.35-2.948-.005m-82.128.26c-4.062 1.31-3.037 8.127 1.222 8.127.57 0 .977-.1 1.123-.276.126-.152.352-.276.5-.276.827 0 2.078-2.18 2.078-3.622 0-1.5-1.328-3.75-2.213-3.75-.163 0-.456-.122-.654-.27-.447-.34-.843-.326-2.057.066m18.426 0c-4.062 1.31-3.037 8.127 1.222 8.127.57 0 .977-.1 1.123-.276.126-.152.352-.276.5-.276.827 0 2.078-2.18 2.078-3.622 0-1.5-1.328-3.75-2.213-3.75-.163 0-.456-.122-.654-.27-.447-.34-.843-.326-2.057.066" fill="#f7f7f7"/><path d="M27.77 5.75c-.304.195-.465.355-.357.355s.356-.12.553-.27.606-.27.9-.27.714.122.9.27.446.27.553.27-.076-.166-.408-.37c-.744-.454-1.438-.45-2.16.013m113.87-.012c-.304.2-.47.364-.37.362s.345-.127.542-.275c.456-.344 1.38-.338 1.843.012.197.15.446.27.553.27s-.076-.166-.408-.37c-.763-.466-1.457-.466-2.16 0M32.008 6.884c.587.418 1.97 1.1 2.06 1 .045-.045-.4-.318-.99-.607-1.33-.65-1.54-.73-1.07-.394m107.227.046c-.197.15-.275.27-.173.27s.345-.122.542-.27.275-.27.174-.27-.345.122-.542.27M34.772 8.318c.304.2.636.366.737.367s-.087-.165-.42-.367c-.782-.477-1.038-.477-.318 0m101.7.012c-.304.195-.47.354-.37.354s.433-.165.737-.366.47-.36.37-.354-.433.17-.737.366M19.836 9.51c-.197.15-.275.27-.173.27s.345-.122.542-.27.275-.27.174-.27-.345.122-.542.27m17.33-.046c.552.393 1.97 1.093 2.05 1.012.04-.04-.406-.312-.99-.607-1.288-.652-1.544-.75-1.06-.405m95.63.697c-.304.2-.47.366-.37.366s.433-.165.737-.366.47-.366.37-.366-.433.165-.737.366M18.2 10.258c-.197.15-.275.27-.174.27s.345-.122.542-.27.275-.27.173-.27-.345.122-.542.27m21.27.36c0 .126 1.128.685 1.212.6.04-.04-.217-.21-.57-.38s-.643-.27-.643-.222m91.853.29c-.304.195-.47.354-.37.354s.433-.165.737-.366.47-.36.37-.354-.433.17-.737.366M15.83 11.4c-.178.275.165.972.476.968.165-.002.168-.04.012-.138-.116-.075-.24-.343-.276-.596-.043-.307-.114-.385-.21-.234m26.22.52c0 .045.432.29.96.546s.866.37.75.253c-.238-.238-1.71-.926-1.71-.8m114.286.107c.025.115-.5.505-1.19.868s-1.206.69-1.17.725c.14.14 2.683-1.34 2.683-1.563 0-.13-.083-.238-.184-.238s-.164.094-.138.208M16.9 12.642c.197.15.44.27.542.27s.023-.122-.173-.27-.44-.27-.542-.27-.023.122.174.27m110.728.11c-.304.195-.47.354-.37.354s.433-.165.737-.366.47-.36.37-.354-.433.17-.737.366m-108.79.793c.2.17 1.275.668 1.275.586 0-.106-1.022-.655-1.22-.655-.072 0-.097.03-.055.07m132.838 1.048c-.353.197-.542.358-.42.358s.494-.165.826-.368c.773-.47.44-.462-.407.01M23.348 15.74c.428.318 1.75.893 1.75.76 0-.05-.394-.27-.875-.49-1.23-.562-1.3-.58-.875-.272m132.144 2.148c-4.168 2.073-4.433 2.223-3.945 2.223.162 0 .418-.124.57-.276s.345-.276.428-.276 1.644-.746 3.467-1.658l3.454-1.658c.255 0 .142 1.057-.138 1.3-.2.165-.276.6-.276 1.548v1.32l-1.428.71-1.704.86-4.422 2.2-4.422 2.21c-.325.187-1.705.875-3.132 1.56l-1.98 1.017c-.177.1-.53.27-.783.377s-2.7 1.3-5.436 2.652l-5.25 2.57a4.61 4.61 0 0 0-.553.276 8.27 8.27 0 0 1-.737.368 7.04 7.04 0 0 0-.737.377c-.152.096-.75.386-1.325.646-.87.392-1.5.84-1.2.84.042 0 1.436-.673 3.097-1.496l3.39-1.658c.203-.09.493-.24.645-.338s3.842-1.93 8.2-4.073l11.885-5.916c.152-.086.484-.24.737-.345.735-.302 3.392-1.68 3.584-1.858.096-.1.304-.166.46-.17.838-.02 1.375-.85 1.45-2.243.04-.74.146-1.422.237-1.518.2-.212.213-1.03.02-1.335-.1-.157-1.3.36-4.152 1.775m-143.17-1.524c-.17.17-.156 4.073.015 4.18.076.047.112-.87.08-2.04l-.058-2.125.467.09c.257.05.423.018.37-.07-.115-.187-.7-.2-.874-.035m2.047.8c.782.477 1.038.477.318 0-.304-.2-.636-.366-.737-.367s.087.165.42.367m131.973.01c-.353.197-.542.358-.42.358s.494-.165.826-.368c.773-.47.44-.462-.407.01m-28.938.903c-.35.3-.737.55-.857.553s-.266.082-.323.175.042.127.22.08c.313-.085 1.897-1.343 1.698-1.35-.054-.001-.386.243-.737.543m-100.68.278c.197.15.44.27.542.27s.023-.122-.173-.27-.44-.27-.542-.27-.023.122.174.27m13.256.65c.92.47 1.077.47.37 0-.304-.2-.674-.367-.822-.367s.056.164.454.367m26.03 0c.782.477 1.038.477.318 0-.304-.2-.636-.366-.737-.367s.087.165.42.367m86.55.012c-.725.464-.462.456.413-.012.378-.203.564-.363.414-.355s-.522.173-.826.368m-123.084.725c.304.2.676.367.826.367s-.036-.164-.414-.367c-.884-.474-1.128-.474-.413 0m37.515-.298c.2.207 2.252 1.222 2.328 1.146.04-.04-.4-.308-1-.597-1.28-.626-1.475-.707-1.33-.55m88.457 3.435l-5.326 2.944c.162 0 .418-.124.57-.276s.35-.276.438-.276c.186 0 4.39-2.102 4.715-2.36.12-.094.445-.225.724-.29s.507-.203.507-.302.12-.18.267-.18c.265 0 1.81-.766 2.202-1.1.113-.094.43-.226.703-.295.456-.115 1.137-.667.766-.622-.088.01-2.593 1.247-5.565 2.748m-34.16-1.606c-.58.312-1.025.597-.99.633.07.07 1.453-.606 2.04-1 .643-.43.037-.22-1.05.366m-76.15.312c.304.2.636.366.737.367s-.087-.165-.42-.367c-.782-.477-1.038-.477-.318 0m26.03 0c.782.477 1.038.477.318 0-.304-.2-.636-.366-.737-.367s.087.165.42.367m-45.88.553c.782.477 1.038.477.318 0-.304-.2-.636-.366-.737-.367s.087.165.42.367m9.03 0c.782.477 1.038.477.318 0-.304-.2-.636-.366-.737-.367s.087.165.42.367m-7.605.737c.304.2.636.366.737.366s-.064-.165-.37-.366-.636-.366-.737-.366.064.165.37.366m46.71-.12c.253.134.5.21.547.17.13-.106-.414-.414-.732-.414-.152 0-.07.11.184.243m43.136.87c-.862.462-1.18.815-.387.427.776-.38 1.44-.817 1.192-.785-.1.012-.46.174-.805.358m-86.11 1.094c.782.477 1.038.477.318 0-.304-.2-.636-.366-.737-.367s.087.165.42.367m9.03 0c.782.477 1.038.477.318 0-.304-.2-.636-.366-.737-.367s.087.165.42.367m11.977 0c.782.477 1.038.477.318 0-.304-.2-.636-.366-.737-.367s.087.165.42.367m-19.755.638c.197.15.44.27.542.27s.023-.122-.173-.27-.44-.27-.542-.27-.023.122.174.27M129.413 30.9l-10.333 5.323c-.174.157-.42.286-.55.286s-.453.114-.722.254a123.49 123.49 0 0 1-1.942.959c-.8.387-1.354.738-1.233.778s.367-.06.546-.222.423-.295.543-.295.526-.166.904-.37.782-.37.898-.37.314-.124.44-.276a.84.84 0 0 1 .562-.276.95.95 0 0 0 .576-.24c.134-.132 1.322-.77 2.64-1.416s2.423-1.243 2.457-1.326.2-.156.37-.163.722-.255 1.23-.552 1.046-.59 1.198-.65c.312-.123 1.974-.94 2.395-1.176.152-.085 1.336-.673 2.63-1.305s2.4-1.22 2.452-1.307.252-.158.442-.158a1.03 1.03 0 0 0 .621-.276c.152-.152.357-.276.457-.276.22 0 2.113-.955 2.243-1.133.052-.07.318-.184.59-.253.455-.114 1.137-.668.765-.62-.088.01-4.67 2.287-10.178 5.058m-96.115-4.374c.25.253 1.978 1.157 2.058 1.076.035-.035-.455-.334-1.09-.663s-1.07-.515-.97-.413m12.16.217c.304.2.636.366.737.367s-.087-.165-.42-.367c-.782-.477-1.038-.477-.318 0m55.185-.092c-.126.152-.364.283-.53.29-.188.01-.215.05-.07.107.126.05.448-.08.716-.29s.404-.383.3-.383-.3.124-.416.276m-64.756 1.284c.197.15.44.27.542.27s.023-.122-.173-.27-.44-.27-.542-.27-.023.122.174.27m13.256.65c.304.2.636.366.737.367s-.087-.165-.42-.367c-.782-.477-1.038-.477-.318 0m-19.808.456c0 .108 1.03.65 1.235.65.08 0-.124-.166-.456-.37-.617-.376-.778-.434-.778-.28m21.098.137c.552.393 1.97 1.093 2.05 1.012.04-.04-.406-.312-.99-.607-1.288-.652-1.544-.75-1.06-.405m-10.636.697c.782.477 1.038.477.318 0-.304-.2-.636-.366-.737-.367s.087.165.42.367m54.5 0c-.72.477-.464.478.318 0 .332-.202.52-.367.42-.367s-.433.165-.737.367m-15.467.64c.197.15.44.27.542.27s.023-.122-.173-.27-.44-.27-.542-.27-.023.122.174.27m-45.78.352c.2.207 2.252 1.222 2.328 1.146.04-.04-.4-.308-1-.597-1.28-.626-1.475-.707-1.33-.55m9.113.2c.197.15.44.27.542.27s.023-.122-.173-.27-.44-.27-.542-.27-.023.122.174.27M91.2 31.4c-.584.314-1.033.598-1 .633.062.062 2.122-.95 2.303-1.13.243-.243-.338-.02-1.304.497m-10.904-.235c.247.252 1.6.947 1.683.865.034-.034-.375-.287-.908-.563s-.883-.41-.775-.302m-24.93.563c.9.477 1.144.476.362 0-.332-.203-.703-.368-.826-.368s.087.166.464.37m-19.745.44c.2.207 2.252 1.222 2.328 1.146.04-.04-.4-.308-1-.597-1.28-.626-1.475-.707-1.33-.55m9.337.3c.782.477 1.038.477.318 0-.304-.2-.636-.366-.737-.367s.087.165.42.367m11.926 0c.304.2.636.366.737.367s-.087-.165-.42-.367c-.782-.477-1.038-.477-.318 0m25.847 0c.782.477 1.038.477.318 0-.304-.2-.636-.366-.737-.367s.087.165.42.367m6.398.012c-.304.195-.47.354-.37.354s.433-.165.737-.366.47-.36.37-.354-.433.17-.737.366m-41.816 1.18c.197.15.44.27.542.27s.023-.122-.173-.27-.44-.27-.542-.27-.023.122.174.27m38.28.137c.287.182 1.003.184 1.115.003.048-.078-.232-.142-.623-.142s-.613.063-.492.14m-25.024.514c.304.2.636.366.737.367s-.087-.165-.42-.367c-.782-.477-1.038-.477-.318 0m50.2.645c-.456.244-.746.444-.645.444s.557-.2 1.013-.444.746-.444.645-.444-.557.2-1.013.444m-48.92-.052c.552.393 1.97 1.093 2.05 1.012.04-.04-.406-.312-.99-.607-1.288-.652-1.544-.75-1.06-.405m-10.636.697c.782.477 1.038.477.318 0-.304-.2-.636-.366-.737-.367s.087.165.42.367m2.356 1.19c.197.15.44.27.542.27s.023-.122-.173-.27-.44-.27-.542-.27-.023.122.174.27m13.256.65c.92.47 1.077.47.37 0-.304-.2-.674-.367-.822-.367s.056.164.454.367m58.133-.092c-.126.152-.337.276-.468.276-.2 0-1.113.43-2.296 1.084-.93.515-3.073 1.504-3.248 1.5-.114-.002-.307.114-.427.26s-.456.317-.747.38c-.456.1-1.174.645-.85.645.173 0 8.773-4.262 8.773-4.348 0-.2-.533-.044-.737.203m-68.585.83c.332.203.703.368.826.368s-.087-.166-.464-.37c-.9-.477-1.144-.476-.362 0m12.08.233c.32.33.62.58.662.55.105-.07-.94-1.153-1.11-1.153-.074 0 .13.27.45.602m35.558-.06c-.55.335-.99.896-.972 1.24.004.082.13-.077.28-.354s.52-.632.822-.788.548-.323.548-.37c0-.133-.046-.114-.68.272m8.556.96c-2.078 1.044-2.078 1.043 1.447 2.89.278.146.712.202 1.056.137.692-.132 1.854-.843 1.38-.844-.17-.001-.447.136-.615.304-.35.35-1.873.452-2.077.138-.135-.207-.845-.628-1.744-1.033-.712-.32-.648-.81.138-1.07.355-.117.645-.283.645-.368s.243-.21.54-.274.64-.238.76-.383c.32-.384.066-.3-1.53.5m-43.328.467c.053.322.01.898-.094 1.28s-.158.726-.116.768c.222.222.486-1.55.307-2.07l-.194-.564.098.587m-18.334-.056c.2.207 2.252 1.222 2.328 1.146.04-.04-.4-.308-1-.597-1.28-.626-1.475-.707-1.33-.55m9.993.69c.322.187.317.22-.092.685l-.43.49.504-.445c.5-.44.438-.947-.112-.932-.114.003-.056.094.13.202m-6.97.898c.304.2.636.366.737.366s-.064-.165-.37-.366-.636-.366-.737-.366.064.165.37.366m49.11.61c-.015.354.398.848 1.013 1.21.915.54 1.082.48.2-.068-.4-.245-.83-.636-.96-.87s-.238-.356-.242-.274m-34.668.47c-.242.19-.62.4-.837.468s-.493.24-.61.38c-.145.175-.012.153.424-.07.694-.354 1.757-1.106 1.576-1.115-.062-.003-.31.148-.553.337m-6.27 3.353l-.435.38.553-.323c.727-.426.738-.435.512-.435-.107 0-.4.17-.63.38m46.92-.01c.304.2.636.366.737.367s-.087-.165-.42-.367c-.782-.477-1.038-.477-.318 0M85.35 47.676c-.302.185-.334.238-.092.153a2.6 2.6 0 0 1 .829-.107c.362.018.4-.016.184-.157-.353-.23-.37-.227-.92.11m-28.284.638c-.304.195-.47.354-.37.354s.433-.165.737-.366.47-.36.37-.354-.433.17-.737.366m56.936-.012c.304.2.636.366.737.367s-.087-.165-.42-.367c-.782-.477-1.038-.477-.318 0m-60.028 1.52c-.586.306-1.036.586-1 .623.065.065 2.12-.937 2.307-1.126.222-.222-.313-.016-1.308.503m63.805.23c0 .126 1.128.685 1.212.6.04-.04-.217-.21-.57-.38s-.643-.27-.643-.222M92 50.397c.2.17 1.275.668 1.275.586 0-.106-1.022-.655-1.22-.655-.072 0-.097.03-.055.07m-40.09.497c-.304.195-.47.354-.37.354s.433-.165.737-.366.47-.36.37-.354-.433.17-.737.366m25.98.54c-.72.477-.464.478.318 0 .332-.202.52-.367.42-.367s-.433.165-.737.367m16.254.02c.238.238 1.71.926 1.71.8 0-.045-.432-.29-.96-.546s-.866-.37-.75-.253m-17.555.618c-.197.15-.275.27-.173.27s.345-.122.542-.27.275-.27.174-.27-.345.122-.542.27m-28.365.65c-.72.477-.464.478.318 0 .332-.202.52-.367.42-.367s-.433.165-.737.367m74.982.098c.197.15.44.27.542.27s.023-.122-.174-.27-.44-.27-.542-.27-.023.122.173.27m-76.97.87c-.586.306-1.036.586-1 .623.065.065 2.12-.937 2.307-1.126.222-.222-.313-.016-1.308.503m26.493.323c-.72.477-.464.478.318 0 .332-.202.52-.367.42-.367s-.433.165-.737.367m25.903-.298c.205.187 2.262 1.215 2.32 1.16.07-.07-2.076-1.23-2.276-1.23-.066 0-.085.03-.043.07m-20.007 2.952c-5.503 2.802-5.605 2.858-5.22 2.867.17.004.434-.117.586-.27s.345-.276.427-.276c.12 0 3.588-1.705 4.85-2.386.152-.082 1.023-.51 1.935-.95s1.686-.865 1.72-.944c.422-.982.884 2.177.474 3.245-.06.158-.993.718-2.073 1.246s-1.99 1.028-2.025 1.11-.158.15-.276.148c-.168-.003-7.148 3.37-8.415 4.065-1.67.918-33.895 16.944-34.07 16.944-.13 0-.447.166-.705.37-.312.245-.375.37-.2.37.153 0 .382-.124.508-.276s.348-.276.492-.276c.21 0 3.864-1.743 5.035-2.402.152-.086 4.712-2.364 10.134-5.063L61.95 69.12c.152-.088 1.313-.668 2.58-1.3l3.27-1.656c.177-.1.53-.272.783-.38a144 144 0 0 0 4.791-2.388c.152-.088 1.313-.67 2.58-1.293l2.58-1.282c.152-.082 1.336-.67 2.63-1.307 2.665-1.3 2.57-1.178 2.49-3.482-.07-2.02.237-2.057-5.03.625M42.55 55.533c-.586.306-1.036.586-1 .623.065.065 2.12-.937 2.307-1.126.222-.222-.313-.016-1.308.503m47.878-.328c.197.15.44.27.542.27s.023-.122-.173-.27-.44-.27-.542-.27-.023.122.174.27m37.762.098c.304.2.636.366.737.367s-.087-.165-.42-.367c-.782-.477-1.038-.477-.318 0m-59.147.553c-.72.477-.464.478.318 0 .332-.202.52-.367.42-.367s-.433.165-.737.367m60.16-.094c0 .126 1.128.685 1.212.6.04-.04-.217-.21-.57-.38s-.643-.27-.643-.222m-88.72.843c-.304.195-.47.354-.37.354s.433-.165.737-.366.47-.36.37-.354-.433.17-.737.366m27.086 0c-.304.195-.47.354-.37.354s.433-.165.737-.366.47-.36.37-.354-.433.17-.737.366m25.663-.012c.332.203.703.368.826.368s-.087-.166-.464-.37c-.9-.477-1.144-.476-.362 0m12.16.553c.782.477 1.038.477.318 0-.304-.2-.636-.366-.737-.367s.087.165.42.367M36.8 58.436c-.72.477-.464.478.318 0 .332-.202.52-.367.42-.367s-.433.165-.737.367m27.086.012c-.304.195-.47.354-.37.354s.433-.165.737-.366.47-.36.37-.354-.433.17-.737.366m44.038-.012c.304.2.636.366.737.367s-.087-.165-.42-.367c-.782-.477-1.038-.477-.318 0m-73.703 1.3c-.304.2-.47.366-.37.366s.433-.165.737-.366.47-.366.37-.366-.433.165-.737.366m65.227 0c.304.2.636.366.737.366s-.064-.165-.37-.366-.636-.366-.737-.366.064.165.37.366M64.09 63.93c-4.75 2.39-8.54 4.38-8.42 4.42s.36-.05.53-.198.54-.325.82-.39.507-.195.507-.287.243-.22.54-.285.64-.238.76-.383a.82.82 0 0 1 .552-.264.96.96 0 0 0 .585-.252 2.02 2.02 0 0 1 .704-.391c.248-.076.576-.24.728-.368s.504-.284.783-.35.507-.202.507-.3.104-.18.23-.18c.18 0 3.43-1.574 4.93-2.387.152-.082 1.336-.67 2.632-1.305 2.057-1.008 2.903-1.518 2.4-1.446-.082.012-4.037 1.978-8.787 4.368m47.7-3.554c.197.15.44.27.542.27s.023-.122-.174-.27-.44-.27-.542-.27-.023.122.173.27m26.533 0c.197.15.44.27.542.27s.023-.122-.174-.27-.44-.27-.542-.27-.023.122.173.27m1.3.64c.304.2.636.366.737.367s-.087-.165-.42-.367c-.782-.477-1.038-.477-.318 0m-109.08.553c-.72.477-.464.478.318 0 .332-.202.52-.367.42-.367s-.433.165-.737.367m27.086.012c-.725.464-.462.456.413-.012.378-.203.564-.363.414-.355s-.522.173-.826.368m45.562-.012c.782.477 1.038.477.318 0-.304-.2-.636-.366-.737-.367s.087.165.42.367m11.005 0c.304.2.636.366.737.367s-.087-.165-.42-.367c-.782-.477-1.038-.477-.318 0m-18.175.563c.34.208.66.338.708.29.093-.093-.925-.67-1.18-.668-.08 0 .13.17.472.38m-66.952.186c-.304.195-.47.354-.37.354s.433-.165.737-.366.47-.36.37-.354-.433.17-.737.366m75.12-.286c.18.18 2.24 1.192 2.303 1.13.034-.034-.438-.324-1.048-.644-1.03-.54-1.485-.716-1.255-.486m12.996 1.2c.326.342.624.585.662.54s-.228-.325-.593-.622l-.662-.54.593.622m-91.8.917c-.72.477-.464.478.318 0 .332-.202.52-.367.42-.367s-.433.165-.737.367m26.195.482c-.288.156-.484.323-.435.37s.366-.082.707-.3c.718-.438.503-.5-.272-.08m49.586.07c.782.477 1.038.477.318 0-.304-.2-.636-.366-.737-.367s.087.165.42.367m8.308.01c.34.208.66.338.708.29.093-.093-.925-.67-1.18-.668-.08 0 .13.17.472.38m10.302-.01c.782.477 1.038.477.318 0-.304-.2-.636-.366-.737-.367s.087.165.42.367m-96.97.737c-.304.2-.47.366-.37.366s.433-.165.737-.366.47-.366.37-.366-.433.165-.737.366m98.394 0c.304.2.636.366.737.366s-.064-.165-.37-.366-.636-.366-.737-.366.064.165.37.366m28.55.65c.197.15.44.27.542.27s.023-.122-.174-.27-.44-.27-.542-.27-.023.122.173.27m-129.522.65c-.304.195-.47.354-.37.354s.433-.165.737-.366.47-.36.37-.354-.433.17-.737.366m26.762.212c-.584.314-1.032.6-.997.635.076.076 1.793-.812 2.05-1.06.273-.263.1-.2-1.052.424m58.273-.24c.253.207.544.377.645.378.197.001-.136-.254-.737-.564-.245-.127-.214-.064.092.186m8.25.017c.782.477 1.038.477.318 0-.304-.2-.636-.366-.737-.367s.087.165.42.367m10.268 0c.304.2.636.366.737.367s-.087-.165-.42-.367c-.782-.477-1.038-.477-.318 0m27.27 0c.304.2.636.366.737.367s-.087-.165-.42-.367c-.782-.477-1.038-.477-.318 0m-133.915 1.52c-.586.306-1.036.586-1 .623.065.065 2.12-.937 2.307-1.126.222-.222-.313-.016-1.308.503m90.442-.328c.197.15.44.27.542.27s.023-.122-.173-.27-.44-.27-.542-.27-.023.122.174.27m46.053.098c.304.2.636.366.737.367s-.087-.165-.42-.367c-.782-.477-1.038-.477-.318 0M43.8 68.57c-.304.2-.47.366-.37.366s.433-.165.737-.366.47-.366.37-.366-.433.165-.737.366m8.107 1.457c-4.043 2.062-4.31 2.212-3.93 2.22.17.004.434-.117.586-.27s.395-.276.54-.276.462-.153.704-.34.667-.396.946-.464.507-.205.507-.304.12-.18.267-.18c.265 0 1.81-.766 2.202-1.1.113-.094.43-.226.703-.295.454-.114 1.142-.67.766-.62-.088.012-1.57.74-3.293 1.62m75.72-1.358c.197.15.44.27.542.27s.023-.122-.174-.27-.44-.27-.542-.27-.023.122.173.27m-111.987.393c-.068.067-.123.184-.123.258 0 .162 1.305.954 1.406.854.038-.04-.222-.228-.58-.42-.366-.197-.6-.45-.56-.582.1-.257.044-.3-.145-.1m26.185.486c-.58.312-1.025.597-.99.633.07.07 1.453-.606 2.04-1 .643-.43.037-.22-1.05.366m68.585-.26c.253.2.585.382.737.384.242.002.095-.096-.967-.644-.127-.066-.023.052.23.26m7.647.02c.304.2.636.366.737.367s-.087-.165-.42-.367c-.782-.477-1.038-.477-.318 0m10.87 0c.304.2.636.366.737.367s-.087-.165-.42-.367c-.782-.477-1.038-.477-.318 0m26.878-.222c.07.115-.173.405-.568.673-.38.258-.608.47-.504.47.4 0 1.446-1.038 1.192-1.195-.16-.1-.202-.08-.12.05M18.568 71.052c.197.15.44.27.542.27s.023-.122-.173-.27-.44-.27-.542-.27-.023.122.174.27m20.073.11c-.304.195-.47.354-.37.354s.433-.165.737-.366.47-.36.37-.354-.433.17-.737.366m93.927-.012c.9.477 1.144.476.362 0-.332-.203-.703-.368-.826-.368s.087.166.464.37m-10.654.098c.197.15.44.27.542.27s.023-.122-.174-.27-.44-.27-.542-.27-.023.122.173.27m-101.884.495c.552.393 1.97 1.093 2.05 1.012.04-.04-.406-.312-.99-.607-1.288-.652-1.544-.75-1.06-.405m16.537.458c-.532.266-.937.514-.9.55.08.08 1.96-.848 1.96-.967s.012-.12-1.06.416m79.738.043c.355.188.803.516.996.73s.424.388.513.388-.1-.237-.443-.526c-.632-.55-1.304-.954-1.56-.94-.082.004.14.162.495.35m-73.98 2.573c-6.005 3.043-6.17 3.133-5.77 3.143.17.004.434-.117.586-.27s.386-.282.52-.29.658-.255 1.165-.552 1.046-.59 1.198-.65a47.02 47.02 0 0 0 2.395-1.173 34.09 34.09 0 0 1 1.325-.634c.577-.265 1.1-.564 1.163-.665s.27-.184.458-.184a1.01 1.01 0 0 0 .612-.267c.147-.147.48-.32.743-.386.44-.11 1.106-.662.743-.615-.088.012-2.4 1.155-5.136 2.54m-30.003-1.334c-.48.48-.077 3.846.497 4.145.384.2.383.194-.022-.247-.562-.612-.636-3.752-.092-3.894.258-.068.264-.088.03-.106-.16-.012-.347.034-.415.102m21.16.258c-.304.195-.47.354-.37.354s.433-.165.737-.366.47-.36.37-.354-.433.17-.737.366m84.943-.157c.552.393 1.97 1.093 2.05 1.012.04-.04-.406-.312-.99-.607-1.288-.652-1.544-.75-1.06-.405m37.59 1.276l-3.5 1.784-4.514 2.232c-.152.085-.732.383-1.3.662-1.66.83-1.652.82-1.642 2.793.012 2.26.35 2.33 3.024.606.405-.26 1.974-1.088 3.486-1.838s2.647-1.397 2.523-1.438-.373.058-.552.22-.42.295-.532.295c-.208 0-1.764.784-2.14 1.08-.112.088-.432.214-.7.28s-.507.203-.507.302-.077.18-.172.18c-.25 0-.944.32-1.578.732-2.414 1.56-2.606 1.538-2.63-.31-.025-2.007-.12-1.892 2.68-3.27l2.806-1.4a54.28 54.28 0 0 1 1.474-.752c.66-.327 1.225-.662 1.26-.745s.162-.15.285-.15c.31 0 4.798-2.235 4.875-2.427.205-.515.4.272.4 1.62 0 1.605-.188 2.28-.634 2.28-.263 0-2.153.917-2.314 1.122-.05.065-.3.182-.553.26-.516.16-1.282.645-1.016.645.523 0 4.515-2.164 4.7-2.542.37-.8.193-3.442-.24-3.583-.115-.037-1.453.575-2.973 1.362m-130.957-.58c.782.477 1.038.477.318 0-.304-.2-.636-.366-.737-.367s.087.165.42.367m114.297.252c.2.17 1.275.668 1.275.586 0-.106-1.022-.655-1.22-.655-.072 0-.097.03-.055.07m5.835.22c-.714.387-.633.52.092.152.695-.353.818-.445.584-.434-.093.004-.397.13-.676.282m-119.15-.035c.2.207 2.252 1.222 2.328 1.146.04-.04-.4-.308-1-.597-1.28-.626-1.475-.707-1.33-.55m95.15.298c.304.2.636.366.737.367s-.087-.165-.42-.367c-.782-.477-1.038-.477-.318 0m10.687 1.146c.552.393 1.97 1.093 2.05 1.012.04-.04-.406-.312-.99-.607-1.288-.652-1.544-.75-1.06-.405m-112.42.712c.268.21.6.342.716.29.143-.058.117-.098-.07-.107-.165-.008-.403-.14-.53-.29s-.313-.276-.416-.276.033.172.3.383m105.42-.015c.304.2.636.366.737.367s-.087-.165-.42-.367c-.782-.477-1.038-.477-.318 0m-111.057 1.3c.782.477 1.038.477.318 0-.304-.2-.636-.366-.737-.367s.087.165.42.367m19.96.93c-1.155.588-2.17 1.178-2.258 1.313-.287.44-.104 3.705.21 3.8.212.058.22.036.04-.093-.172-.122-.223-.643-.184-1.89l.053-1.724 2.112-1.072c1.958-.995 2.733-1.47 2.3-1.415-.096.012-1.12.504-2.275 1.092m94.955-.28c.197.15.44.27.542.27s.023-.122-.174-.27-.44-.27-.542-.27-.023.122.173.27m1.117.495c.552.393 1.97 1.093 2.05 1.012.04-.04-.406-.312-.99-.607-1.288-.652-1.544-.75-1.06-.405m8.476.144c.304.2.636.366.737.367s-.087-.165-.42-.367c-.782-.477-1.038-.477-.318 0m-120.69.553c.92.47 1.077.47.37 0-.304-.2-.674-.367-.822-.367s.056.164.454.367m7.74-.194c.887.363 1.043.784.98 2.648-.032.963.003 1.712.08 1.664.854-.532-.17-4.516-1.15-4.475-.184.008-.154.063.1.163m114.286.412c.56.6.635 3.744.092 3.904-.25.074-.24.087.046.058.74-.076.626-3.7-.13-4.158l-.42-.254.415.45m-120.996.22c.23.21 2.186 1.17 2.1 1.03-.056-.09-.52-.376-1.032-.633-.842-.422-1.272-.582-1.068-.397m113.77.173c.603.404 1.926 1.047 2.155 1.047.118 0-.362-.3-1.065-.644-1.347-.68-1.694-.806-1.1-.402M22.508 82.408a5.01 5.01 0 0 1 .654.311c.112.072.045-.014-.148-.192s-.488-.317-.654-.31c-.19.007-.136.078.148.192m12.042.03c-.08.128-.626.47-1.21.76-.905.45-1.462.85-1.184.85.167 0 2.273-1.175 2.687-1.5.322-.252.36-.344.147-.344-.16 0-.358.105-.44.232m102.447.413c.588.354 1.127.643 1.198.64.195-.006-1.87-1.277-2.082-1.28-.1-.002.297.287.884.64m-112.913.46c.304.2.636.366.737.367s-.087-.165-.42-.367c-.782-.477-1.038-.477-.318 0m114.62.455c.197.15.44.27.542.27s.023-.122-.173-.27-.44-.27-.542-.27-.023.122.174.27M10.727 124.168c-.355.043-.728.143-.83.222s-.42.2-.707.27c-1.116.267-3.992 2.7-3.992 3.363 0 .136-.07.248-.158.248-.82 0-1.504 12.636-.726 13.414.385.385 163.51.315 163.657-.07.658-1.714-.02-12.58-.814-13.07-.1-.06-.18-.275-.18-.475 0-.775-2.306-2.765-4.087-3.525l-.98-.42-75.27-.018c-41.398-.01-75.56.018-75.913.06m151.57.522c1.85.538 4.094 2.204 4.422 3.283a2.23 2.23 0 0 0 .351.665c.735.87 1.33 12.383.66 12.796-.272.168-163.143.118-163.31-.05-.268-.268-.07-10.696.222-11.64.708-2.3 2.764-4.313 5.164-5.05 1.34-.413 151.07-.416 152.49-.002M13.56 130.56c-1.342.584-2.026 2.276-1.43 3.534 1.073 2.263 3.74 2.458 5.032.37 1.416-2.29-1.083-4.998-3.602-3.902m9.387.093c-1.423.867-1.883 2.424-1.117 3.778 1.47 2.598 5.538 1.413 5.255-1.53-.202-2.1-2.4-3.3-4.138-2.247m9.71-.152c-1.2.475-2.01 2.02-1.673 3.147.754 2.517 3.72 3.055 5.172.937 1.536-2.242-.922-5.112-3.5-4.084m-15.954.965c.945 1.153.927 2.108-.06 3.252-1.5 1.74-4.443.74-4.443-1.507 0-2.43 2.99-3.588 4.502-1.744m9.4-.156c1.075 1.107 1.083 2.3.025 3.523-1.8 2.082-5.442-.255-4.22-2.707.837-1.678 2.956-2.09 4.194-.817m9.318-.194c.837.825.92 1 .92 1.943s-.083 1.12-.92 1.943c-1.66 1.635-4.6-.066-4.16-2.407.325-1.73 2.955-2.666 4.16-1.48M4.645 145.202l-.46.13-.05 50.202c-.053 54.438-.12 50.278.85 52.318.398.837 2.338 2.78 3.16 3.167 2.296 1.08-5.4.982 77.935.982l76.657-.375c2.322-.86 4.202-2.74 5.06-5.06.474-1.283.607-100.722.135-101.194-.262-.262-162.354-.428-163.29-.167m163.15.496c.457.457.345 99.233-.114 100.52-.994 2.786-2.862 4.57-5.587 5.34-1.664.468-150.927.38-152.29-.09-2.62-.904-4.253-2.463-5.093-4.86l-.433-1.238v-49.873l.23-49.965c.705-.285 163.002-.116 163.288.17M14.273 183.94c-.18.182-.23 2.593-.23 10.79v10.555l.415.104c.228.058 1.12.08 1.98.05l1.566-.054.184-7.923 2.764-.107c2.97-.116 3.677-.295 5.202-1.323 1.163-.784 2.63-2.78 2.628-3.573 0-.187-.228.116-.507.673-.803 1.606-2.452 3.314-3.203 3.318-.138.001-.5.137-.803.304-.417.228-1.232.323-3.317.4-1.755.056-2.813.164-2.9.296-.075.114-.137 1.928-.138 4.03l-.003 3.823h-3.504l.095-21.282 4.82.002c4.32.001 4.856.035 5.174.322.195.176.46.32.587.32s.444.166.702.37.56.37.674.374c.287.008 1.415 1.528 1.895 2.55.22.47.406.712.415.54.052-1.063-1.568-2.95-3.394-3.954l-1.3-.708-4.79-.06c-3.698-.046-4.843-.006-5.02.175m90.84 2.01c-.39.158-.415.27-.415 2 0 2.38-.018 2.417-1.112 2.417-1.225 0-1.468.29-1.468 1.75 0 1.675.053 1.752 1.195 1.752 1.37 0 1.36-.03 1.436 4.248.08 4.588.22 5.22 1.407 6.4 1.634 1.625 3.628 1.925 6.234.94.276-.104.406-.297.4-.575l-.025-.42-.08.41c-.06.304-.25.438-.758.524-.374.064-.943.205-1.266.315-.63.214-3.558-.3-3.558-.637 0-.087-.187-.243-.415-.347-1.3-.59-1.797-2.614-1.797-7.18 0-3.886.01-3.86-1.34-3.86-.837 0-1.238-.47-1.238-1.455 0-1.147.25-1.493 1.07-1.493 1.334 0 1.51-.298 1.51-2.57 0-2.287-.06-2.215 1.873-2.22 1.67-.004 1.627-.06 1.627 2.206 0 2.41.026 2.442 2.095 2.577l1.498.098.057 1.004c.1 1.774.04 1.852-1.43 1.852-.7 0-1.487.08-1.747.18l-.473.18v3.207c0 4.418.47 5.4 2.528 5.232.584-.045.995.004 1.045.124.045.1.09.054.097-.123.012-.274-.16-.323-1.137-.327-2.06-.007-2.347-.606-2.348-4.914-.001-3.362.006-3.373 2.14-3.373 1.528 0 1.545-.018 1.545-1.686 0-1.698-.117-1.815-1.812-1.815-1.855 0-1.873-.023-1.873-2.334 0-1.68-.04-1.913-.357-2.082-.432-.23-2.523-.232-3.098-.001m-86.98 1.7c-.247.247-.324 5.59-.083 5.74.076.047.138-1.213.138-2.8v-2.885l4.422-.202-2.128-.037c-1.454-.025-2.198.033-2.35.184m4.908.095c2.358.45 2.606 4.205.354 5.357-.432.22-.638.403-.46.404 1.013.008 2.352-1.763 2.348-3.108-.003-1.165-1.31-2.807-2.195-2.76-.456.024-.458.03-.048.107m5.808 2.724c0 .912.03 1.308.07.88s.04-1.174.001-1.658-.07-.135-.07.778m27.205-.276c-.45.095-.07.143 1.255.16 2.27.03 3.38.455 4.785 1.836 2.99 2.94 3.062 8.675.143 11.455-.266.253-.623.606-.795.783s-.4.322-.486.322-.306.1-.466.243c-1.305 1.092-4.992.88-6.396-.37-.378-.336-.8-.61-.915-.61s-.265-.104-.31-.23c-.05-.135-.178-.03-.31.253-.17.36-.175.58-.024.863.398.744.266 6.622-.153 6.847-.494.264-2.65.242-2.923-.03-.26-.26-.322-20.34-.064-20.747.108-.17.55-.223 1.517-.184l1.366.055.06.553c.033.304.127.622.21.707.17.176 1.297-.352 1.297-.608 0-.092.33-.353.735-.58s.702-.445.662-.486-.424.16-.853.447c-1.568 1.044-1.543 1.038-1.677.4-.162-.774-.404-.886-1.916-.9-1.897-.004-1.74-.977-1.74 10.868 0 11.872-.166 10.87 1.8 10.87 2.21 0 2.095.228 2.058-4.104-.035-4.076.01-4.226.954-3.302 4.014 3.924 10.837-.6 10.632-7.052-.16-5.072-3.94-8.416-8.44-7.468m18.426 0c-.45.095-.07.143 1.255.16 2.27.03 3.38.455 4.785 1.836 2.99 2.94 3.062 8.675.143 11.455-.266.253-.623.606-.795.783s-.4.322-.486.322-.306.1-.466.243c-1.305 1.092-4.992.88-6.396-.37-.378-.336-.8-.61-.915-.61s-.265-.104-.31-.23c-.05-.135-.178-.03-.31.253-.17.36-.175.58-.024.863.398.744.266 6.622-.153 6.847-.494.264-2.65.242-2.923-.03-.26-.26-.322-20.34-.064-20.747.108-.17.55-.223 1.517-.184l1.366.055.06.553c.033.304.127.622.21.707.17.176 1.297-.352 1.297-.608 0-.092.33-.353.735-.58s.702-.445.662-.486-.424.16-.853.447c-1.568 1.044-1.543 1.038-1.677.4-.162-.774-.404-.886-1.916-.9-1.897-.004-1.74-.977-1.74 10.868 0 11.872-.166 10.87 1.8 10.87 2.21 0 2.095.228 2.058-4.104-.035-4.076.01-4.226.954-3.302 4.014 3.924 10.837-.6 10.632-7.052-.16-5.072-3.94-8.416-8.44-7.468m16.718.007c-1.797.302-5.1 2.79-5.1 3.84a.86.86 0 0 1-.276.577c-.152.126-.273.406-.27.62.004.25.18.023.486-.62.467-.985 2.75-3.5 3.178-3.5.1 0 .51-.166.887-.37.564-.303 1.067-.372 2.81-.4 1.63-.016 1.95-.057 1.385-.174-.895-.185-1.92-.18-3.1.018m29.346-.007c-.41.087.155.136 1.566.137 1.672.001 2.01-.035 1.382-.146-1-.178-2.076-.175-2.948.01m17.136 0c-.435.092.035.144 1.446.16 2.234.026 2.648.14 4.308 1.2.48.303.918.696.974.873s.224.37.372.426.27.22.27.363.118.357.262.477.315.524.38.898c.13.743.63 1.78.642 1.325.08-3.423-4.662-6.552-8.654-5.712m18.794-.01c-.332.114-.023.164 1.106.18 2.017.027 2.193.13 1.79 1.06-.168.387-.355 1-.416 1.36-.114.665-.704 1.25-.916.907-.136-.22-1.63-.24-2.073-.026l-.855.415c-1.67.813-1.953 1.87-1.91 7.17l.033 4.146.1-4.514c.1-4.9.183-5.253 1.34-6.327.603-.56 2.402-.99 3.073-.737.805.304 1.25.02 1.402-.892.073-.438.247-1.02.387-1.293.348-.68.32-1.02-.105-1.248-.494-.265-2.394-.393-2.956-.2m-125.022.5c-.274.274-.3.865-.243 5.666l.062 5.36.588 1.198c1.71 3.486 5.887 4.22 8.696 1.527.597-.572.868-.728.974-.56s.148.172.15.012c.006-.51-.43-.42-.982.2-.325.365-.665.664-.756.664s-.296.1-.456.245c-2.1 1.765-6.184.6-7.452-2.128l-.49-1.054.098-10.974 1.353-.054c1.943-.078 1.826-.392 1.9 5.097.07 5.25.148 5.586 1.466 6.364 1.566.925 4.735-.4 4.764-2.007.005-.26-.092-.18-.335.276-1.167 2.195-4.032 2.496-5.245.55-.382-.613-.405-.887-.464-5.527-.044-3.446-.125-4.922-.276-5.018-.448-.285-3.027-.158-3.35.164m10.23-.126c-.288.182-.3.363-.413 6.58-.033 1.806.01 2.517.136 2.303.1-.17.226-2.176.276-4.456l.092-4.146 1.192-.056c.655-.03 1.38-.01 1.612.05l.42.105v14.365h-3.11l-.082-.6-.082-.6.048 1.3 1.38.055c.76.03 1.57.007 1.803-.05l.423-.106-.053-7.28c-.045-6.232-.092-7.305-.328-7.455-.36-.227-2.957-.227-3.317 0m53.62-.122c0 .032.542.34 1.204.682.86.445 1.42.903 1.957 1.6.826 1.07 1.065 1.264.568.46-.738-1.194-1.316-1.703-2.8-2.47-.598-.31-.928-.405-.928-.27m23.31.368c-1.007.517-2.88 2.433-3.365 3.443-.364.758-.367.792-.037.394.2-.24.36-.547.36-.685 0-.397 2.49-2.78 3.053-2.92a3.21 3.21 0 0 0 .888-.393c.563-.394-.024-.29-.9.162m6.54-.002c1.394.69 1.926 1.075 2.4 1.732.25.346.56.743.685.882s.233.362.237.496.174.575.38.98c.392.773.364.45-.057-.645-.386-1.008-1.148-2.1-1.827-2.597-.955-.712-2-1.274-2.336-1.266-.17.004.06.192.517.418m10.554-.06c-4.04 2.178-5.52 6.807-3.517 10.996 2.336 4.883 9.42 5.737 13.04 1.573 1.006-1.157.965-1.316-.543-2.116-1.543-.818-1.684-.83-2.25-.177-.733.844-1.206 1.188-1.843 1.34l-.606.144.578.02c.453.015.79-.18 1.56-.902 1.158-1.087 1.015-1.063 2.193-.37.515.304 1.012.553 1.103.553.617 0-.028 1.4-.935 2.028-.22.152-.49.36-.605.465-1.02.933-4.412 1.807-5.515 1.422-.324-.113-.983-.262-1.466-.33s-.924-.2-.98-.29-.38-.282-.72-.424c-.763-.32-2.452-2.015-2.603-2.612-.06-.242-.174-.44-.252-.44s-.318-.74-.533-1.646c-.956-4.022.765-7.51 4.584-9.285.412-.192.512-.293.276-.282-.203.01-.636.163-.962.34m13.973-.113c-.15.18-.195 2.305-.16 7.51l.048 7.257 3.317.02-3.23-.127.096-14.45 1.428-.054c1.41-.053 1.428-.048 1.428.403 0 1.416.417 1.633 1.366.712.39-.38 1-.874 1.376-1.1s.56-.413.43-.416c-.267-.006-1.1.57-1.925 1.33-.676.624-.878.638-.878.058 0-1.196-.245-1.394-1.723-1.394-.93 0-1.43.08-1.573.252m-57.278 2.644a4.1 4.1 0 0 0 1.013 0c.28-.042.05-.077-.507-.077s-.785.035-.507.077m28.29-.001c-1.175.18-2.937 2.562-2.027 2.743.13.025.15.005.046-.047-1.006-.5 1.244-2.42 3.086-2.634 1.1-.13 1.143-.144.318-.14-.507.002-1.147.037-1.423.08m17.96.001a4.1 4.1 0 0 0 1.013 0c.28-.042.05-.077-.507-.077s-.785.035-.507.077m-83.678.47c-.908.463-1.954 1.63-2.146 2.395-.07.28-.2.553-.29.61-.256.158-.18 2.146.1 2.654.228.41.243.338.154-.762-.4-5.11 5.146-7.07 7.485-2.644 2.378 4.502-3.85 8.744-6.818 4.644-.293-.404-.533-.634-.533-.51 0 .42.95 1.47 1.753 1.942 2.005 1.175 4.3.4 5.75-1.916.515-.826.614-3.66.144-4.13-.152-.152-.276-.372-.276-.488 0-.304-1.452-1.657-1.78-1.657-.15 0-.4-.124-.55-.276-.427-.427-2.028-.35-2.992.14m18.426 0c-.908.463-1.954 1.63-2.146 2.395-.07.28-.2.553-.29.61-.256.158-.18 2.146.1 2.654.228.41.243.338.154-.762-.4-5.11 5.146-7.07 7.485-2.644 2.378 4.502-3.85 8.744-6.818 4.644-.293-.404-.533-.634-.533-.51 0 .42.95 1.47 1.753 1.942 2.005 1.175 4.3.4 5.75-1.916.515-.826.614-3.66.144-4.13-.152-.152-.276-.372-.276-.488 0-.304-1.452-1.657-1.78-1.657-.15 0-.4-.124-.55-.276-.427-.427-2.028-.35-2.992.14m17.153.015c-.683.504-1.278 1.22-1.334 1.602-.07.485.001.73.212.73.15 0 .152-.067.006-.242-.383-.46.982-2.005 2.1-2.365.363-.118.363-.12-.01-.138-.21-.01-.643.176-.965.414m3.74-.275c.636.207 1.352.774 1.74 1.38.233.363.375.47.376.282.005-.428-1.613-1.822-2.09-1.8-.38.018-.38.023-.027.138m29.113-.022c1.014.254 2.148 1.416 2.063 2.113-.034.273.006.455.09.404.7-.433-1.035-2.674-2.037-2.63-.386.017-.41.04-.115.114m12.916.725c-.79.802-1.083 1.553-.696 1.79.083.052.117-.14.075-.426-.082-.557 1.15-1.808 2.038-2.068.378-.11.373-.12-.08-.138-.35-.013-.726.223-1.336.84m4.644-.467c1.092.54 2.054 1.978 1.506 2.25-.104.052-.083.072.046.047.97-.193-.85-2.7-1.958-2.7-.265 0-.138.123.406.393m-121.528-.072a20.58 20.58 0 0 0 2.119 0c.583-.037.106-.067-1.06-.067s-1.642.03-1.06.067m79.93.624c-.004.266.117.587.27.714.344.286.345.2.007-.578-.258-.594-.27-.6-.276-.136m15.122 2.234c-.236 1.314.03 4.87.304 4.05.04-.122-.014-.786-.12-1.475-.135-.868-.136-1.466-.004-1.944a4.72 4.72 0 0 0 .134-1.374c-.047-.565-.1-.436-.313.744m-14.54.37l-.036 1.612H94.69c-5.873 0-5.993.023-5.732 1.12l.15.632.1-.645.1-.645 10.59-.098.104-.414c.057-.228.075-1.035.04-1.794l-.064-1.38-.037 1.612m-14.563-1.14c-2.38 8.424 8.616 14.083 13.938 7.173.695-.902.722-.85-.923-1.732-1.5-.804-1.646-.81-2.198-.105-.54.69-1.178 1.125-1.906 1.3l-.556.134.578.02c.453.015.79-.18 1.56-.902 1.17-1.098.89-1.07 2.514-.246l1.334.676-.49.66c-.27.363-.703.845-.966 1.07l-.737.634c-.973.834-4.396 1.66-5.41 1.306-.328-.114-.987-.264-1.465-.332s-.965-.24-1.082-.38-.282-.257-.366-.257c-1.198 0-3.415-3.05-3.616-4.975-.058-.557-.174-1.147-.257-1.3s-.067-.602.036-.976.155-.945.114-1.27-.087-.543-.103-.486m43.82 1.37l-.087 1.3-5.25.092c-5.457.096-5.712.13-5.712.79v.398l.287-.4c.285-.406.324-.4 5.413-.4 5.926 0 5.587.1 5.497-1.78l-.06-1.26-.087 1.3m17.134.276l-.085 1.013-5.328.05c-6.313.058-6.388.086-5.454 2.02.635 1.314 1.73 2.042 3.235 2.152l1.282.094-1.055-.17c-1.806-.3-2.9-1.067-3.367-2.395-.464-1.315-.568-1.3 5.36-1.3 5.952 0 5.683.078 5.56-1.62l-.063-.87-.085 1.013m-28 2.682c0 .893 1.785 2.5 2.726 2.452.488-.025.49-.027.045-.1-.792-.148-1.97-1.105-2.38-1.93-.26-.528-.39-.664-.39-.41m-29.11.46c-.008.592 1.843 2.03 2.57 1.996.383-.018.4-.038.097-.113-.47-.117-1.933-.967-1.94-1.127-.01-.292-.725-1.033-.73-.755m35.718.916c-.778.792-.963.885-2.12 1.066l-1.266.198 1.198-.093c1.302-.1 2.326-.618 2.873-1.452.293-.447.997-.645.997-.28 0 .1.222.237.494.305.92.23 1.676.872 1.52 1.3-.163.44-2.172 2.278-2.5 2.278-.12 0-.31.1-.42.245-.34.408-3.806.965-4.506.724-.323-.11-.935-.257-1.36-.324s-.87-.24-1-.383-.355-.262-.522-.262-.447-.166-.62-.37-.42-.373-.548-.38c-.3-.013-1.45-1.52-1.9-2.47-.186-.392-.37-.62-.407-.508-.095.286 1.147 2.183 1.882 2.877 3.266 3.08 9.062 2.63 11.75-.91.78-1.03.822-.938-.816-1.815-1.536-.823-1.697-.807-2.75.264m-32.265 1.23c.23.044.56.042.737-.004s-.012-.082-.417-.08-.55.04-.32.084m19.412.618c-.012.26.1.632.25.83.215.284.272.298.276.072.003-.157-.07-.364-.16-.46s-.206-.34-.255-.544c-.07-.297-.093-.277-.1.103" fill="#6c6c6c"/><path d="M9.805 124.692c-2.4.74-4.455 2.75-5.164 5.05-.29.944-.49 11.372-.222 11.64.168.168 163.04.218 163.31.05.668-.413.074-11.925-.66-12.796a2.23 2.23 0 0 1-.351-.665c-.328-1.08-2.572-2.746-4.422-3.283-1.42-.413-151.15-.41-152.49.002m153.562.676a17.06 17.06 0 0 1 1.68 1.103c.755.58.923.803 1.904 2.535l.47.83.144 11.332H4.645l.004-4.653c.004-4.627.186-6.98.577-7.45a10.62 10.62 0 0 0 .99-1.716c.06-.152.402-.484.755-.737s.744-.544.866-.645c.45-.373 1.9-1.012 2.427-1.077.304-.037 34.673-.06 76.375-.048l75.822.02.905.508m-149.513 4.704c-1.914.93-2.97 3.305-1.93 4.343.152.152.276.347.276.433 0 .456 1.822 1.528 2.6 1.528 1.174 0 2.772-1.416 3.006-2.664.446-2.375-1.974-4.604-3.952-3.64m9.816-.2c-.228.045-.415.158-.415.253s-.122.17-.27.17c-.246 0-.874.56-1.567 1.4-1.625 1.97 1.673 5.53 4.01 4.328 3.36-1.73 1.892-6.87-1.758-6.153m9.647.002c-2.038.532-3.47 3.372-2.356 4.675 1.854 2.17 3.53 2.375 5.146.633 1.925-2.075-.138-6-2.8-5.308m-17.25.745a2.76 2.76 0 0 1 1.096 3.844c-1.292 2.09-3.958 1.894-5.032-.37s1.622-4.638 3.935-3.476m9.47-.067c1.44.602 2.032 2.647 1.152 3.98-1.228 1.855-3.78 1.803-4.858-.1-1.326-2.34 1.16-4.944 3.706-3.88m9.558.036c1.862.888 2.006 3.773.243 4.873-2.88 1.798-5.99-2.197-3.48-4.47.794-.72 2.206-.895 3.236-.404m-30.588 14.94c-.183.074-.23 10.24-.23 49.965v49.873l.433 1.238c.84 2.398 2.473 3.957 5.093 4.86 1.363.47 150.625.56 152.29.09 2.726-.768 4.593-2.552 5.587-5.34.46-1.286.57-100.062.114-100.52-.286-.286-162.583-.455-163.288-.17m163.105.416c.255.412.093 98.85-.164 99.883-.702 2.82-2.625 4.743-5.446 5.446-1.505.375-150.077.378-151.736.003-2.847-.644-4.933-2.762-5.548-5.634-.273-1.275-.404-99.474-.133-99.745.194-.194 162.908-.148 163.028.046m-153.65 37.83c-.378.54-.44 21.29-.066 21.665.187.187 4.1.348 4.238.175.02-.025.082-1.83.138-4.008l.1-3.962 2.893-.11c2.236-.086 2.998-.18 3.356-.415.255-.167.544-.304.644-.304.702 0 2.57-1.807 3.427-3.317.516-.91.55-5.287.044-5.846-.177-.196-.322-.44-.322-.544 0-.175-.252-.516-1.06-1.442-1.572-1.798-3.538-2.303-8.974-2.303-4.062 0-4.138.007-4.42.4m11.413.76c1.616.888 1.988 1.23 2.824 2.608l.67 1.106.003 2.21c.004 2.415-.074 2.663-1.334 4.273-1.46 1.867-3.006 2.48-6.586 2.62l-2.764.107-.184 7.923-1.566.054c-.86.03-1.753.008-1.98-.05l-.415-.104v-10.555c0-8.195.052-10.607.23-10.79s1.323-.22 5.02-.175l4.79.06 1.3.708m79.228 1.457c-.046.127-.105 1.1-.132 2.165l-.05 1.935-1.008.057c-1.412.08-1.48.175-1.48 2.073 0 1.858.014 1.878 1.474 2.013l1.013.094.11 4.054c.075 2.776.19 4.282.37 4.777.283.787 1.86 2.5 2.302 2.5.15 0 .48.134.73.298.556.365 3.555.27 4.37-.136s.823-.92.03-3.17l-.313-.89-.876.12c-2.013.277-2.27-.315-2.168-4.976l.057-2.58 1.465-.054c1.912-.07 1.943-.105 1.943-2.065s-.032-1.993-1.943-2.065l-1.465-.054-.092-2.12c-.09-2.095-.097-2.12-.553-2.17-.398-.044-.417-.024-.138.147.273.168.322.487.322 2.087 0 2.308.018 2.33 1.873 2.33 1.695 0 1.812.117 1.812 1.815 0 1.667-.017 1.686-1.545 1.686-2.134 0-2.14.01-2.14 3.373.002 4.297.29 4.907 2.328 4.914l1.13.004.13.69c.07.38.197.774.28.875.43.524.414 1.554-.027 1.722-2.61.996-4.614.698-6.253-.93-1.188-1.18-1.327-1.813-1.407-6.4-.076-4.278-.065-4.248-1.436-4.248-1.142 0-1.195-.077-1.195-1.752 0-1.46.243-1.75 1.468-1.75 1.094 0 1.112-.038 1.112-2.417 0-1.73.023-1.843.415-2l.415-.166-.42-.012c-.23-.006-.458.092-.504.22m-86.425 1.85c-.05.132-.07 1.438-.04 2.902l.05 2.663 2.18.052c3.115.074 4.73-.965 4.73-3.043 0-.97-1.256-2.634-1.982-2.624-.197.003-.056.158.363.4 1.695.983 1.618 3.627-.135 4.655-.732.428-.98.468-2.936.468H18.27l.102-5.436 4.422-.202-2.263-.037c-1.7-.028-2.285.022-2.354.202m37.462 2.168c-1.024.33-1.235.45-1.99 1.137-.338.306-.363.298-.625-.208-.35-.68-.583-.756-2.248-.756-2.328 0-2.092-1.247-2.092 11.033 0 12.488-.257 11.262 2.357 11.262 2.156 0 2.065.186 2.065-4.215 0-3.854.018-3.917.907-3.142.34.296.75.542.915.545s.458.128.655.276c.246.186.824.27 1.854.27s1.607-.084 1.854-.27c.197-.15.538-.273.76-.276a1.13 1.13 0 0 0 .678-.282c.152-.152.35-.276.443-.276.422 0 2.116-1.874 2.748-3.04l.698-1.3.004-2.883c.003-2.5-.04-2.932-.32-3.24-.177-.196-.322-.485-.322-.642s-.124-.388-.276-.515-.276-.337-.276-.468c0-.293-2.184-2.296-2.504-2.296-.126 0-.257-.082-.29-.18-.23-.677-3.482-1.032-5-.544m18.426 0c-1.024.33-1.235.45-1.99 1.137-.338.306-.363.298-.625-.208-.35-.68-.583-.756-2.248-.756-2.328 0-2.092-1.247-2.092 11.033 0 12.488-.257 11.262 2.357 11.262 2.156 0 2.065.186 2.065-4.215 0-3.854.018-3.917.907-3.142.34.296.75.542.915.545s.458.128.655.276c.246.186.824.27 1.854.27s1.607-.084 1.854-.27c.197-.15.538-.273.76-.276a1.13 1.13 0 0 0 .678-.282c.152-.152.35-.276.443-.276.422 0 2.116-1.874 2.748-3.04l.698-1.3.004-2.883c.003-2.5-.04-2.932-.32-3.24-.177-.196-.322-.485-.322-.642s-.124-.388-.276-.515-.276-.337-.276-.468c0-.293-2.184-2.296-2.504-2.296-.126 0-.257-.082-.29-.18-.23-.677-3.482-1.032-5-.544m16.884-.03c-.62.165-1.24.392-1.382.505s-.447.263-.68.335c-1.913.587-4.088 4.495-4.088 7.345 0 2.555 2.122 6.295 3.89 6.856.233.074.538.248.676.387s.437.252.663.252.51.1.634.224c.373.373 3.683.426 4.53.072.4-.163.817-.296.95-.296s.73-.324 1.326-.72c.932-.62 1.45-1.118 2.46-2.37.365-.452.064-.815-1.27-1.53-1.71-.918-1.85-.908-2.988.2l-.946.92h-1.546c-2.043 0-3.773-1.157-3.773-2.523v-.425h5.124c6.257 0 5.854.158 5.8-2.28-.056-2.583-2.097-6.195-3.5-6.195-.146 0-.39-.124-.54-.276s-.457-.278-.678-.28-.733-.122-1.138-.268c-.932-.336-2.085-.313-3.523.07m29.595-.063c-.355.134-.787.25-.962.254-1.013.034-3.75 2.302-4.458 3.696-1.285 2.53-1.396 5.773-.266 7.74.088.152.24.46.336.685 1.19 2.75 6.512 4.827 9.34 3.645.363-.152.772-.276.906-.276 1.027 0 4.376-3.356 3.843-3.852-1.09-1.014-3.39-1.72-3.8-1.165-1.028 1.394-4.16 2.18-4.94 1.24-.126-.152-.337-.276-.468-.276-.38 0-1.375-1.387-1.375-1.915v-.48h5.146c6.232 0 5.8.178 5.686-2.403-.13-2.683-1.526-5.178-3.365-6-.307-.14-.682-.324-.834-.412-1.09-.63-3.7-.884-4.79-.468m16.504.102c-.702.187-1.324.405-1.382.486s-.337.247-.62.372c-.72.317-2.345 1.87-2.647 2.53-.14.304-.33.677-.426.83-.817 1.306-1.232 5.348-.626 6.098.115.142.27.546.345.896.31 1.452 3.36 4.43 4.533 4.43.168 0 .543.124.833.275.712.37 3.84.372 4.49.001.253-.145.603-.266.777-.27.96-.02 4.217-3.09 3.963-3.735-.128-.327-2.625-1.615-3.13-1.615-.242 0-.61.236-.876.562-1.004 1.23-4.067 1.873-4.79 1.004-.126-.152-.334-.276-.462-.276-.356 0-1.216-1.234-1.255-1.8l-.034-.503 5.144-.05c5.222-.05 5.642-.106 5.63-.757-.005-.263-.03-.26-.193.023-.172.295-.63.322-5.408.322-5.925 0-5.82-.025-5.357 1.3.936 2.652 4.74 3.22 6.754 1 .725-.797.788-.796 2.368.042 1.508.8 1.55.96.543 2.116-5.388 6.2-15.708.834-13.713-7.13 2.045-8.165 13.488-8.236 14.883-.092.05.3.088.174.104-.31.013-.425-.056-.822-.154-.883s-.268-.44-.376-.84-.276-.73-.373-.73-.177-.092-.177-.204c0-.937-2.337-2.603-4.385-3.127-1.648-.42-2.3-.416-3.985.035m19.426-.098c-.253.14-.6.257-.77.258s-.667.276-1.106.61c-1.098.837-1.442.952-1.442.48 0-.92-.285-1.088-1.86-1.088-2.417 0-2.193-.798-2.193 7.818 0 6.61.032 7.45.292 7.548.417.16 3.628.133 3.888-.032.156-.1.235-1.445.276-4.703.035-2.763.13-4.616.243-4.695.1-.072.31-.372.46-.666.535-1.035 1.142-1.307 2.915-1.308 1.878 0 1.976-.045 2.126-.985.063-.394.24-.956.392-1.248.556-1.067.365-1.52-.832-1.97-.983-.368-1.752-.375-2.39-.02m-97.675.27c6.067.985 7.914 10.276 2.835 14.262-2.44 1.914-5.952 2.027-7.77.248-.945-.924-.988-.774-.954 3.302.037 4.333.15 4.104-2.058 4.104-1.965 0-1.8 1-1.8-10.87 0-11.845-.156-10.873 1.74-10.868 1.512.003 1.754.116 1.916.9.134.64.1.645 1.675-.398 1.193-.795 2.458-.986 4.414-.67m18.426 0c6.067.985 7.914 10.276 2.835 14.262-2.44 1.914-5.952 2.027-7.77.248-.945-.924-.988-.774-.954 3.302.037 4.333.15 4.104-2.058 4.104-1.965 0-1.8 1-1.8-10.87 0-11.845-.156-10.873 1.74-10.868 1.512.003 1.754.116 1.916.9.134.64.1.645 1.675-.398 1.193-.795 2.458-.986 4.414-.67m17.275.01c3.776.658 6.42 4.578 5.516 8.18l-.114.456-10.59.098-.057.592c-.276 2.86 5.003 4.025 6.94 1.533.55-.708.697-.702 2.198.103 1.645.882 1.618.83.923 1.732-3.357 4.36-10.294 3.99-13.106-.696-.71-1.186-1.34-3.868-1.142-4.877.316-1.626.556-2.468.776-2.732.133-.16.242-.43.242-.6 0-.476 2.38-2.77 3.36-3.237 1.465-.7 3.152-.884 5.052-.552m29.206-.001c3.435.533 5.664 3.32 5.678 7.1.006 1.598.247 1.53-5.61 1.586-5.897.056-5.796.027-5.082 1.5 1.134 2.343 4.412 2.866 6.337 1.01 1.112-1.072 1.102-1.07 2.664-.235 1.638.878 1.597.787.816 1.815-4.032 5.312-12.66 3.272-13.967-3.3-1.15-5.794 3.292-10.388 9.165-9.477m35.725.172c.425.228.454.568.105 1.248-.14.274-.314.855-.387 1.293-.15.912-.597 1.195-1.402.892-.67-.253-2.47.178-3.073.737-1.167 1.082-1.235 1.4-1.298 6.28-.067 5.177.17 4.708-2.338 4.616l-1.474-.055-.048-7.257c-.055-8.356-.188-7.76 1.734-7.76 1.48 0 1.723.198 1.723 1.394 0 .584.204.566.89-.076 1.64-1.53 4.083-2.107 5.566-1.313m-128.333.22c-.45.64-.4 9.333.064 11.014.595 2.163 1.954 4.04 2.938 4.06.167.003.464.128.66.276 1.115.843 4.923-.033 6.07-1.397.593-.705.633-.69.7.24l.057.783 1.723.053c2.458.076 2.24.83 2.24-7.686 0-8.472.197-7.753-2.12-7.753-2.548 0-2.376-.36-2.486 5.2-.1 4.544-.104 4.685-.533 5.313-1.23 1.803-3.198 1.966-4.574.38-.398-.46-.408-.584-.415-5.32-.004-2.977-.08-4.986-.197-5.205-.31-.577-3.718-.533-4.13.053m3.705-.083c.15.096.232 1.572.276 5.018.06 4.64.082 4.914.464 5.527 1.24 1.988 4.102 1.64 5.294-.645.35-.67.393-1.136.477-5.212.106-5.162-.036-4.824 2.027-4.824 2.114 0 1.927-.717 1.987 7.63l.053 7.28-.423.106c-.233.06-1.044.082-1.803.05l-1.38-.055-.104-.78c-.143-1.07-.18-1.075-1.118-.178-2.807 2.69-6.982 1.955-8.693-1.53l-.588-1.198-.062-5.36c-.074-6.35-.2-5.973 1.964-5.97.778.001 1.51.064 1.63.14m56.722 2.963c-1.108.36-2.473 1.904-2.1 2.365.31.373 6.473.346 6.785-.03.284-.342-.253-1.283-1.082-1.896-.69-.51-1.166-.55-.522-.043.258.203.56.37.67.37s.2.077.2.17.118.29.262.433c.86.86.59.96-2.743 1.012-3.696.06-3.76.047-3.25-.668.766-1.075 1.648-1.566 3.05-1.696l1.3-.12-1.106-.008c-.608-.005-1.27.045-1.474.11m29.235-.024c-.54.103-2.24 1.72-2.24 2.134 0 .454.523.516 3.87.458l3.04-.053.045-.46c.064-.657-1.307-2.037-2.008-2.02-.136.003.06.195.435.426.783.48 1.436 1.24 1.436 1.67 0 .298-6.21.472-6.5.182-.564-.564 1.61-2.128 3.183-2.29l1.198-.124-1.013-.001c-.557 0-1.207.036-1.444.08m16.974.015c-.857.27-2.104 1.513-2.044 2.036l.057.49 3.225.046c3.742.053 3.94-.004 3.412-.986-.727-1.35-2.972-2.115-4.65-1.584m-82.49.403c-4.015 1.87-2.984 8.46 1.327 8.475 4.524.017 5.742-6.428 1.587-8.396-1.1-.52-1.917-.544-2.914-.08m18.426 0c-4.015 1.87-2.984 8.46 1.327 8.475 4.524.017 5.742-6.428 1.587-8.396-1.1-.52-1.917-.544-2.914-.08m66.96-.09c.253.15.585.318.738.375.316.12 1.116 1.487.96 1.64-.307.308-6.5.098-6.484-.22.006-.346.666-1.18 1.107-1.4a17.43 17.43 0 0 0 .73-.4c.597-.345 2.357-.343 2.948.005m-83.02.2c.197.15.49.27.654.27.886 0 2.213 2.25 2.213 3.75 0 1.44-1.252 3.622-2.078 3.622-.15 0-.375.124-.5.276-.637.767-2.906.128-4.064-1.145-.648-.712-.955-2.74-.657-4.326.314-1.672 3.29-3.313 4.434-2.446m18.426 0c.197.15.49.27.654.27.886 0 2.213 2.25 2.213 3.75 0 1.44-1.252 3.622-2.078 3.622-.15 0-.375.124-.5.276-.637.767-2.906.128-4.064-1.145-.648-.712-.955-2.74-.657-4.326.314-1.672 3.29-3.313 4.434-2.446" fill="#7c7c7c"/></svg>