<svg xmlns="http://www.w3.org/2000/svg" viewBox="0 0 512 512"><!--! Font Awesome Pro 6.1.1 by @fontawesome - https://fontawesome.com License - https://fontawesome.com/license (Commercial License) Copyright 2022 Fonticons, Inc.--><path fill="#4dc0b5" d="M352 256c0 22.2-1.2 43.6-3.3 64H163.3c-2.1-20.4-4.2-41.8-4.2-64s2.1-43.6 4.2-64h185.4c2.1 20.4 3.3 41.8 3.3 64m151.9-64c5.3 20.5 8.1 41.9 8.1 64s-2.8 43.5-8.1 64H380.8c2.1-20.6 3.2-42.9 3.2-64 0-22-1.1-43.4-3.2-64zm-10.5-32H376.7c-10-63.86-29.8-117.38-55.3-151.558C399.8 29.09 463.4 85.94 493.4 160m-149.1 0H167.7c6.1-36.4 15.5-68.62 27-94.65 10.5-23.61 22.2-40.74 33.5-51.54C239.4 3.178 248.7 0 256 0s16.6 3.178 27.8 13.81c11.3 10.8 23 27.93 33.5 51.54 11.5 26.03 20.9 58.25 27 94.65m-325.69 0C48.59 85.94 112.2 29.09 190.6 8.442 165.1 42.62 145.3 96.14 135.3 160zm112.59 32c-2.1 20.6-4.1 42-4.1 64 0 21.1 2 43.4 4.1 64H8.065C2.8 299.5 0 278.1 0 256s2.8-43.5 8.065-64zm63.5 254.6c-11.5-26-20.9-58.2-27-94.6h176.6c-6.1 36.4-15.5 68.6-27 94.6-10.5 23.7-22.2 40.8-33.5 51.6-11.2 10.6-20.5 13.8-28.7 13.8-6.4 0-15.7-3.2-26.9-13.8-11.3-10.8-23-27.9-33.5-51.6m-4.1 57C112.2 482.9 48.59 426.1 18.61 352H135.3c10 63.9 29.8 117.4 55.3 151.6m130.8 0c25.5-34.2 45.3-87.7 55.3-151.6h116.7c-30 74.1-93.6 130.9-172 151.6"/></svg>