<?xml version="1.0" encoding="UTF-8" standalone="no"?>
<svg
   xmlns:dc="http://purl.org/dc/elements/1.1/"
   xmlns:cc="http://creativecommons.org/ns#"
   xmlns:rdf="http://www.w3.org/1999/02/22-rdf-syntax-ns#"
   xmlns:svg="http://www.w3.org/2000/svg"
   xmlns="http://www.w3.org/2000/svg"
   xmlns:sodipodi="http://sodipodi.sourceforge.net/DTD/sodipodi-0.dtd"
   xmlns:inkscape="http://www.inkscape.org/namespaces/inkscape"
   version="1.1"
   id="svg2"
   xml:space="preserve"
   width="151.18668"
   height="151.18668"
   viewBox="0 0 151.18668 151.18668"
   sodipodi:docname="Bluescape_B_Black_Blue.ai"><metadata
     id="metadata8"><rdf:RDF><cc:Work
         rdf:about=""><dc:format>image/svg+xml</dc:format><dc:type
           rdf:resource="http://purl.org/dc/dcmitype/StillImage" /></cc:Work></rdf:RDF></metadata><defs
     id="defs6"><clipPath
       clipPathUnits="userSpaceOnUse"
       id="clipPath18"><path
         d="M 0,113.39 H 113.39 V 0 H 0 Z"
         id="path16" /></clipPath></defs><sodipodi:namedview
     pagecolor="#ffffff"
     bordercolor="#666666"
     borderopacity="1"
     objecttolerance="10"
     gridtolerance="10"
     guidetolerance="10"
     inkscape:pageopacity="0"
     inkscape:pageshadow="2"
     inkscape:window-width="640"
     inkscape:window-height="480"
     id="namedview4" /><g
     id="g10"
     inkscape:groupmode="layer"
     inkscape:label="Bluescape_B_Black_Blue"
     transform="matrix(1.3333333,0,0,-1.3333333,0,151.18667)"><g
       id="g12"><g
         id="g14"
         clip-path="url(#clipPath18)"><g
           id="g20"
           transform="translate(30.7549,19.4883)"><path
             d="m 0,0 h -13.466 v 14.017 h 12.487 c 3.822,0 8.036,-2.941 8.036,-6.862 C 7.057,3.136 3.823,0 0,0 m -13.466,40.477 h 12.194 c 3.724,0 6.86,-2.745 6.86,-6.663 0,-3.92 -3.136,-7.057 -6.86,-7.057 H -13.466 Z M 10.193,20.875 c 4.605,2.453 11.369,7.94 11.369,15.486 0,10.29 -9.506,18.23 -21.07,18.23 H -28.755 V -14.013 H 1.961 c 11.662,0 21.366,7.94 21.366,18.915 0,9.017 -7.94,13.818 -13.134,15.973"
             style="fill:#122129;fill-opacity:1;fill-rule:nonzero;stroke:none"
             id="path22" /></g><g
           id="g24"
           transform="translate(32.998,103.4668)"><path
             d="M 0,0 15.875,-15.875 H 30.402 V -30.404 L 46.278,-46.279 V -2.121 C 46.278,-0.95 45.328,0 44.157,0 Z"
             style="fill:#0073ff;fill-opacity:1;fill-rule:nonzero;stroke:none"
             id="path26" /></g></g></g></g></svg>
