<svg xmlns="http://www.w3.org/2000/svg" xmlns:xlink="http://www.w3.org/1999/xlink" viewBox="0 0 81 81" fill="#fff" fill-rule="evenodd" stroke="#000" stroke-linecap="round" stroke-linejoin="round"><use xlink:href="#a" x=".5" y=".5"/><symbol id="a" overflow="visible"><path d="M77.9 19.2H46.86V0L0 8.232V71.98L46.86 80V61.847H77.9c1.266 0 2.1-1.055 2.1-2.1V21.32c0-1.266-.844-2.1-2.1-2.1zM21.952 54.46c-15.4-1.055-14.776-29.13.422-29.974 16.675-.844 16.253 31.03-.422 29.974zm55.515 4.644H46.86V35.04l9.5 9.077c.422.422.844.633 1.477.633s1.055-.2 1.478-.633L77.467 27.23v31.873zm0-35.462l-19.63 18.153L46.86 31.45v-9.7h30.396v1.9h.2zm-55.092 6.543c-8.232.422-8.443 18.364-.2 18.575 8.654.422 8.654-18.997.2-18.575z" fill="#2372ba" stroke="none"/></symbol></svg>