<svg viewBox="0 0 1024 1024" xmlns="http://www.w3.org/2000/svg">
   <circle cx="512" cy="512" r="512" style="fill:#249df1"/>
   <path d="m495.6 319.4 104-13.7-101.3 228.6c17.8-1.4 35.2-7.4 52.3-18.1 17.1-10.7 32.9-24.2 47.2-40.4 14.4-16.2 26.8-34.2 37.3-54.1 10.5-19.8 18-39.4 22.6-58.5 2.7-11.9 4-23.3 3.8-34.2-.2-10.9-3.1-20.5-8.6-28.7s-13.8-14.8-25-19.8-26.3-7.5-45.5-7.5c-22.4 0-44.4 3.6-66 10.9-21.7 7.3-41.7 17.9-60.2 31.8-18.5 13.9-34.5 31.2-48.2 52-13.7 20.8-23.5 44.4-29.4 70.8-2.3 8.7-3.6 15.6-4.1 20.9-.5 5.3-.6 9.6-.3 13 .2 3.4.7 6.1 1.4 7.9.7 1.8 1.3 3.6 1.7 5.5-23.3 0-40.3-4.7-51-14-10.7-9.3-13.3-25.7-7.9-48.9 5.5-24.2 17.9-47.2 37.3-69.1 19.4-21.9 42.4-41.2 69.1-57.8 26.7-16.6 55.9-29.9 87.6-39.7 31.7-9.8 62.6-14.7 92.7-14.7 26.5 0 48.7 3.8 66.7 11.3 18 7.5 32.1 17.5 42.1 29.8s16.3 26.7 18.8 43.1c2.5 16.4 1.7 33.5-2.4 51.3-5 21.4-14.5 43-28.4 64.7-13.9 21.7-31.4 41.3-52.3 58.8-21 17.6-45 31.8-72.2 42.8-27.1 10.9-56 16.4-86.6 16.4h-3.4l-86.9 195H302l193.6-435.4z" style="fill:#fff"/>
</svg>
