<?xml version="1.0" standalone="no"?><!DOCTYPE svg PUBLIC "-//W3C//DTD SVG 1.1//EN" "http://www.w3.org/Graphics/SVG/1.1/DTD/svg11.dtd"><svg t="1770608544870" class="icon" viewBox="0 0 1024 1024" version="1.1" xmlns="http://www.w3.org/2000/svg" p-id="1571" xmlns:xlink="http://www.w3.org/1999/xlink" width="200" height="200"><path d="M768.384 742.5536l10.9056 1.8176c81.8176 10.9056 112.7168 29.0816 125.44 41.8048 7.2704 7.296 7.2704 12.7488 7.2704 16.384 0 23.6288-32.7168 41.8048-94.5408 54.528h-9.088c-61.824 10.9312-152.7296 16.384-285.44 18.176v-143.616h19.968c94.5664 0 167.296 3.6352 225.4848 10.9056z m-505.472 0v125.44h-3.6352c-50.8928-9.088-116.352-25.4464-140.0064-50.8928-5.4528-5.4528-7.2704-10.9056-7.2704-14.5408 0-3.6352 1.8176-7.2704 7.2704-12.7488l1.8176-1.792c10.9312-9.1136 27.2896-16.384 40.0128-20.0192 23.6288-10.9056 58.1888-18.176 101.8112-25.4464z m-150.912-409.088c3.6352 1.792 5.4528 3.6352 9.088 3.6352l5.4784 1.792 16.3584 5.4784c32.7168 10.9056 67.2768 19.9936 119.9872 27.264v278.1952c-52.736 5.4528-87.2704 14.5408-118.1696 25.4464-3.6352 1.8176-5.4528 1.8176-9.088 3.6352-1.8176 1.8176-5.4528 1.8176-7.2704 3.6352l-5.4528 1.8176-3.6608 1.8176-3.6352 1.8176-3.6352 1.8176v-356.352z m800 0v354.56l-3.6352-1.8432-3.6352-1.792c-1.792-1.8432-3.6352-1.8432-5.4528-1.8432h-1.792l-7.296-3.6352-3.6352-1.792-5.4528-1.8432-5.4528-1.792-3.6352-1.8432-5.4528-1.8176c-1.8176 0-5.4528-1.8176-7.2704-1.8176h-1.8176c-3.6352 0-5.4528-1.8176-9.088-1.8176l-3.6352-1.8176-5.4528-1.8176-7.296-1.8176-9.088-1.8176h-3.6352l-5.4528-1.8176h-10.9056l-9.088-1.8176c-3.6352 0-5.4528 0-9.088-1.8176h-3.6352l-10.9056-1.8176h-9.088l-7.296-1.8176h-7.2704a2473.3696 2473.3696 0 0 0-139.9808-9.088h-81.8176V384.3584h19.968c114.56-1.792 201.8304-7.2704 267.2896-18.176l14.5408-1.792h3.6352l7.296-1.8432 9.088-1.792 5.4528-1.8432 7.2704-1.792 7.2704-1.8432 7.2704-1.792c3.6352-1.8432 9.088-3.6608 12.7232-3.6608 1.8176 0 3.6352-1.8176 7.2704-1.8176l3.6352-1.8176 3.6352-1.8176 3.6352-1.8176 3.6352-1.8176 3.6352-1.8176v-5.4528zM350.208 644.352V378.88c18.176 1.8176 47.2832 1.8176 87.296 3.6352V640.768c-32.7424 0-60.0064 1.792-87.296 3.6352zM817.4592 168.0128l9.088 1.792c40.0128 9.1136 85.4528 23.6544 85.4528 50.944 0 19.968-36.352 38.144-98.176 50.8928l-5.4528 1.8176c-65.4592 12.7232-158.1824 18.176-281.8048 18.176v-143.616h27.264c119.9872 1.792 205.4656 9.088 263.6288 19.968zM262.912 155.2896v125.44c-45.44-5.4528-72.704-12.7232-98.176-21.8112l-3.6352-1.8176-7.2704-1.8176c-12.7232-5.4528-30.8992-14.5408-38.1952-25.4464-1.792-1.8432-3.6352-3.6608-3.6352-5.4784v-3.6352c0-7.2704 9.088-16.3584 23.6544-25.4464 18.176-10.9056 41.8048-19.9936 74.5472-27.264 18.176-5.4528 32.7168-9.088 52.736-12.7232z" fill="#FF6A00" p-id="1572"></path></svg>