<svg xmlns="http://www.w3.org/2000/svg" width="1667" height="2500" viewBox="0 0 200 300"><path d="M50 300c27.6 0 50-22.4 50-50v-50H50c-27.6 0-50 22.4-50 50s22.4 50 50 50" style="fill:#0acf83"/><path d="M0 150c0-27.6 22.4-50 50-50h50v100H50c-27.6 0-50-22.4-50-50" style="fill:#a259ff"/><path d="M0 50C0 22.4 22.4 0 50 0h50v100H50C22.4 100 0 77.6 0 50" style="fill:#f24e1e"/><path d="M100 0h50c27.6 0 50 22.4 50 50s-22.4 50-50 50h-50z" style="fill:#ff7262"/><path d="M200 150c0 27.6-22.4 50-50 50s-50-22.4-50-50 22.4-50 50-50 50 22.4 50 50" style="fill:#1abcfe"/></svg>