<svg width="256" height="256" fill="none" xmlns="http://www.w3.org/2000/svg"><path fill="none" d="M14 0h227v256H14z"/><path fill-rule="evenodd" clip-rule="evenodd" d="M165.124 87.99l58.777-58.814 16.825 16.823-58.778 58.815-16.824-16.823zm-23.817 60.105c-11.503 0-20.822-9.36-20.822-20.918 0-11.546 9.319-20.918 20.822-20.918 11.503 0 20.822 9.372 20.822 20.918 0 11.558-9.319 20.918-20.822 20.918zM241 208.845l-16.824 16.835-58.778-58.816 16.825-16.835L241 208.845z" fill="#222"/><path fill-rule="evenodd" clip-rule="evenodd" d="M141.913 217.637c11.848 0 23.136-2.364 33.482-6.567l28.708 28.74C185.692 250.089 164.5 256 141.913 256 71.274 256 14 198.689 14 128.006 14 57.311 71.275 0 141.913 0c22.361 0 43.362 5.767 61.641 15.856l-28.231 28.261c-10.333-4.179-21.585-6.543-33.41-6.543-49.47 0-89.575 40.309-89.575 90.038 0 49.716 40.104 90.025 89.575 90.025z" fill="#03A9F4"/></svg>