<?xml version="1.0" encoding="UTF-8"?>
<svg width="60px" height="60px" viewBox="0 0 60 60" version="1.1" xmlns="http://www.w3.org/2000/svg" xmlns:xlink="http://www.w3.org/1999/xlink">
    <title>airtable_node_icon</title>
    <g id="airtable_node_icon" stroke="none" stroke-width="1" fill="none" fill-rule="evenodd" stroke-linecap="round" stroke-linejoin="round">
        <g id="airtable-icon" transform="translate(0.000000, 5.000000)">
            <g id="Group" transform="translate(0.454545, 0.454545)">
                <path d="M25.9790909,0.613636364 L4.28727273,9.59090909 C3.08090909,10.0909091 3.09363636,11.8036364 4.30727273,12.2845455 L26.0890909,20.9227273 C28.0029401,21.6817793 30.1343326,21.6817793 32.0481818,20.9227273 L53.83,12.2845455 C55.0436364,11.8027273 55.0572727,10.09 53.85,9.59090909 L32.1590909,0.614545455 C30.1801736,-0.204427649 27.9570991,-0.204427649 25.9781818,0.614545455" id="Path" fill="#FFCC00"></path>
                <path d="M31.0018182,25.6381818 L31.0018182,47.2181818 C31.0024309,47.6994291 31.241037,48.149221 31.639149,48.4196024 C32.0372611,48.6899838 32.5433376,48.7459498 32.9909091,48.5690909 L57.2727273,39.1454545 C57.8262441,38.92544 58.189684,38.3901856 58.19,37.7945455 L58.19,16.2181818 C58.1893873,15.7369346 57.9507812,15.2871426 57.5526691,15.0167612 C57.1545571,14.7463798 56.6484806,14.6904138 56.2009091,14.8672727 L31.9281818,24.2890909 C31.374665,24.5091054 31.0112251,25.0443599 31.0109091,25.64" id="Path" fill="#31C2F2"></path>
                <path d="M25.3363636,26.7518182 L17.4018182,30.5836364 L2.19545455,37.87 C1.23090909,38.3363636 0,37.6336364 0,36.5609091 L0,16.3090909 C0,15.9218182 0.198181818,15.5872727 0.465454545,15.3363636 C0.574703561,15.2275352 0.698630138,15.1345138 0.833636364,15.06 C1.19727273,14.8418182 1.71545455,14.7836364 2.15636364,14.9581818 L25.2154545,24.0945455 C26.3972727,24.56 26.4881818,26.2018182 25.3363636,26.7536364" id="Path" fill="#ED3049"></path>
                <path d="M25.3363636,26.7518182 L18.1327273,30.23 L0.463636364,15.3336364 C0.57288538,15.2248079 0.696811957,15.1317865 0.831818182,15.0572727 C1.19545455,14.8390909 1.71363636,14.7809091 2.15454545,14.9554545 L25.2145455,24.0909091 C26.3963636,24.5563636 26.4872727,26.1981818 25.3354545,26.75" id="Path" fill="#C62842"></path>
            </g>
            <g id="Group">
                <path d="M25.9790909,0.613636364 L4.28727273,9.59090909 C3.08090909,10.0909091 3.09363636,11.8036364 4.30727273,12.2845455 L26.0890909,20.9227273 C28.0029401,21.6817793 30.1343326,21.6817793 32.0481818,20.9227273 L53.83,12.2845455 C55.0436364,11.8027273 55.0572727,10.09 53.85,9.59090909 L32.1590909,0.614545455 C30.1801736,-0.204427649 27.9570991,-0.204427649 25.9781818,0.614545455" id="Path" fill="#FFCC00"></path>
                <path d="M31.0018182,25.6381818 L31.0018182,47.2181818 C31.0024309,47.6994291 31.241037,48.149221 31.639149,48.4196024 C32.0372611,48.6899838 32.5433376,48.7459498 32.9909091,48.5690909 L57.2727273,39.1454545 C57.8262441,38.92544 58.189684,38.3901856 58.19,37.7945455 L58.19,16.2181818 C58.1893873,15.7369346 57.9507812,15.2871426 57.5526691,15.0167612 C57.1545571,14.7463798 56.6484806,14.6904138 56.2009091,14.8672727 L31.9281818,24.2890909 C31.374665,24.5091054 31.0112251,25.0443599 31.0109091,25.64" id="Path" fill="#31C2F2"></path>
                <path d="M25.3363636,26.7518182 L17.4018182,30.5836364 L2.19545455,37.87 C1.23090909,38.3363636 0,37.6336364 0,36.5609091 L0,16.3090909 C0,15.9218182 0.198181818,15.5872727 0.465454545,15.3363636 C0.574703561,15.2275352 0.698630138,15.1345138 0.833636364,15.06 C1.19727273,14.8418182 1.71545455,14.7836364 2.15636364,14.9581818 L25.2154545,24.0945455 C26.3972727,24.56 26.4881818,26.2018182 25.3363636,26.7536364" id="Path" fill="#ED3049"></path>
                <path d="M25.3363636,26.7518182 L18.1327273,30.23 L0.463636364,15.3336364 C0.57288538,15.2248079 0.696811957,15.1317865 0.831818182,15.0572727 C1.19545455,14.8390909 1.71363636,14.7809091 2.15454545,14.9554545 L25.2145455,24.0909091 C26.3963636,24.5563636 26.4872727,26.1981818 25.3354545,26.75" id="Path" fill="#C62842"></path>
            </g>
        </g>
    </g>
</svg>