<?xml version="1.0" encoding="utf-8"?>
<!-- Generator: Adobe Illustrator 22.1.0, SVG Export Plug-In . SVG Version: 6.00 Build 0)  -->
<svg version="1.1" id="Layer_1" xmlns="http://www.w3.org/2000/svg" xmlns:xlink="http://www.w3.org/1999/xlink" x="0px" y="0px"
	 viewBox="0 0 200 170" style="enable-background:new 0 0 200 170;" xml:space="preserve">
<style type="text/css">
	.st0{fill:#FCB400;}
	.st1{fill:#18BFFF;}
	.st2{fill:#F82B60;}
	.st3{fill:#BA1E45;}
</style>
<g>
	<path class="st0" d="M89,4.8L16.2,34.9c-4.1,1.7-4,7.4,0.1,9.1l73.2,29c6.4,2.6,13.6,2.6,20,0l73.2-29c4.1-1.6,4.1-7.4,0.1-9.1
		L109.8,4.8C103.2,2,95.7,2,89,4.8"/>
	<path class="st1" d="M105.9,88.9v72.5c0,3.4,3.5,5.8,6.7,4.5l81.6-31.7c1.9-0.7,3.1-2.5,3.1-4.5V57.2c0-3.4-3.5-5.8-6.7-4.5
		L109,84.3C107.1,85.1,105.9,86.9,105.9,88.9"/>
	<path class="st2" d="M86.9,92.6l-24.2,11.7l-2.5,1.2L9.1,130c-3.2,1.6-7.4-0.8-7.4-4.4V57.5c0-1.3,0.7-2.4,1.6-3.3
		c0.4-0.4,0.8-0.7,1.2-0.9c1.2-0.7,3-0.9,4.4-0.3l77.5,30.7C90.4,85.2,90.7,90.8,86.9,92.6"/>
	<path class="st3" d="M86.9,92.6l-24.2,11.7L3.3,54.3c0.4-0.4,0.8-0.7,1.2-0.9c1.2-0.7,3-0.9,4.4-0.3l77.5,30.7
		C90.4,85.2,90.7,90.8,86.9,92.6"/>
</g>
</svg>
