<svg xmlns="http://www.w3.org/2000/svg" viewBox="0 0 200 170"><path fill="#fcb400" d="M89 4.8 16.2 34.9c-4.1 1.7-4 7.4.1 9.1l73.2 29c6.4 2.6 13.6 2.6 20 0l73.2-29c4.1-1.6 4.1-7.4.1-9.1l-73-30.1C103.2 2 95.7 2 89 4.8"/><path fill="#18bfff" d="M105.9 88.9v72.5c0 3.4 3.5 5.8 6.7 4.5l81.6-31.7c1.9-.7 3.1-2.5 3.1-4.5V57.2c0-3.4-3.5-5.8-6.7-4.5L109 84.3c-1.9.8-3.1 2.6-3.1 4.6"/><path fill="#f82b60" d="m86.9 92.6-24.2 11.7-2.5 1.2L9.1 130c-3.2 1.6-7.4-.8-7.4-4.4V57.5c0-1.3.7-2.4 1.6-3.3q.6-.6 1.2-.9c1.2-.7 3-.9 4.4-.3l77.5 30.7c4 1.5 4.3 7.1.5 8.9"/><path fill="#ba1e45" d="m86.9 92.6-24.2 11.7-59.4-50q.6-.6 1.2-.9c1.2-.7 3-.9 4.4-.3l77.5 30.7c4 1.4 4.3 7 .5 8.8"/></svg>