<svg xmlns="http://www.w3.org/2000/svg" xmlns:xlink="http://www.w3.org/1999/xlink" viewBox="0 0 148.744 150.744" fill="#fff" fill-rule="evenodd" stroke="#000" stroke-linecap="round" stroke-linejoin="round"><use xlink:href="#a" x=".872" y=".872"/><symbol id="a" overflow="visible"><path d="M73.256 0C32.801 0 0 34.029 0 76.001c0 33.586 20.988 62.069 50.1 72.115 3.663.698 4.999-1.652 4.999-3.656l-.105-14.149c-20.372 4.593-24.677-8.961-24.677-8.961-3.335-8.777-8.133-11.114-8.133-11.114-6.658-4.713.523-4.622.523-4.622 7.355.529 11.227 7.831 11.227 7.831 6.537 11.616 17.151 8.257 21.319 6.309.666-4.901 2.564-8.257 4.65-10.151-16.261-1.919-33.366-8.442-33.366-37.565 0-8.302 2.857-15.075 7.535-20.396-.747-1.929-3.269-9.663.724-20.123 0 0 6.143-2.041 20.145 7.793 5.84-1.692 12.105-2.529 18.314-2.555 6.223.028 12.492.872 18.34 2.564 13.978-9.844 20.128-7.793 20.128-7.793 4.006 10.47 1.483 18.192.733 20.114 4.695 5.32 7.53 12.093 7.53 20.396 0 29.198-17.133 35.627-33.453 37.509 2.639 2.355 4.971 6.977 4.971 14.065l-.098 20.855c0 2.023 1.333 4.388 5.044 3.663 29.091-10.078 50.062-38.561 50.062-72.129C146.512 34.029 113.71 0 73.256 0z" fill="#000" stroke="none"/></symbol></svg>