<svg xmlns="http://www.w3.org/2000/svg" width="50" height="50" fill="none"><path fill="#00B7BC" d="M47.267 22.554c-.002.31-.126.608-.344.829l-6.805 6.796a1.13 1.13 0 0 1-.828.344 1.15 1.15 0 0 1-.828-.344 1.18 1.18 0 0 1 0-1.656l5.977-5.969-1.313-1.312-1.383 1.414L28.595 35.78l-4.617.781.781-4.617.336-.336 2.563 2.555c.214.227.515.351.828.343.311.006.611-.119.828-.343a1.18 1.18 0 0 0 0-1.657l-2.563-2.562 8.25-8.273 4.29-4.29 3.757 3.711 1.617-1.617 2.258 2.258c.218.218.342.512.344.82m-17.282 15.15 3.032-3.032v8.297a1.56 1.56 0 0 1-1.563 1.563H4.298a1.56 1.56 0 0 1-1.563-1.563V14.843c0-.405.157-.794.438-1.086l6.304-6.531v5.344H6.251a1.172 1.172 0 1 0 0 2.344h4.43a1.17 1.17 0 0 0 1.171-1.172V5.468h19.602a1.56 1.56 0 0 1 1.563 1.563v13.281L22.86 30.468a1.24 1.24 0 0 0-.328.633l-1.102 6.61c-.06.373.062.753.329 1.023.22.22.517.343.828.343h.195l6.602-1.101a1.16 1.16 0 0 0 .601-.274m-21-16a1.18 1.18 0 0 0 1.172 1.172h15.266a1.172 1.172 0 1 0 0-2.344H10.157a1.17 1.17 0 0 0-1.172 1.172m10.711 14.766a1.17 1.17 0 0 0-1.172-1.172h-8.367a1.172 1.172 0 1 0 0 2.343h8.367a1.17 1.17 0 0 0 1.172-1.172m.86-7.391a1.17 1.17 0 0 0-1.172-1.172h-9.227a1.172 1.172 0 1 0 0 2.344h9.227a1.164 1.164 0 0 0 1.171-1.172M45.75 18.617a1.563 1.563 0 0 0 0-2.203l-1.64-1.64a1.563 1.563 0 0 0-2.204 0l-.93.929 3.852 3.828z" style="fill:#7d7d87;fill-opacity:1"/></svg>