<svg width="53" height="53" viewBox="0 0 53 53" fill="none" xmlns="http://www.w3.org/2000/svg">
<path d="M43.4095 22.3983C43.2811 11.8356 34.5875 3.3125 23.8815 3.3125C13.0956 3.3125 4.35181 11.9635 4.35181 22.6351C4.35181 28.9566 7.42001 34.5692 12.1631 38.0946V46.0036C12.1631 47.4333 13.0869 48.6822 14.4934 48.9393C16.4234 49.2921 19.5525 49.6875 23.8807 49.6875C28.2088 49.6875 31.3379 49.2921 33.2683 48.9393C34.6744 48.6822 35.5986 47.4333 35.5986 46.0036V42.4426L38.6904 42.8252C39.133 42.88 39.582 42.8448 40.0107 42.7218C40.4393 42.5989 40.8387 42.3906 41.1849 42.1095C41.5311 41.8285 41.817 41.4804 42.0254 41.0862C42.2339 40.692 42.3606 40.2598 42.3979 39.8154L43.0228 32.3971C44.8682 31.9515 46.2288 31.306 47.146 30.7541C48.0594 30.2046 48.1683 29.0324 47.5468 28.1662L43.4095 22.3983Z" fill="#71747A"/>
<path d="M36.4375 8.08411C39.9815 8.08411 42.646 8.14184 44.5957 8.21594L44.8818 8.23352C47.8172 8.4718 50.1523 10.6427 50.3291 13.673L50.373 14.547C50.4127 15.4616 50.4375 16.4998 50.4375 17.6671C50.4375 18.796 50.4143 19.8039 50.377 20.6964L50.335 21.5509C50.1612 24.6369 47.7656 26.848 44.7812 27.0929L44.4912 27.1105C42.5051 27.1875 39.8444 27.2501 36.4375 27.2501C35.4974 27.2501 34.6141 27.245 33.7861 27.2365L31.4678 27.2013C28.1068 27.1312 25.1836 25.4754 23.626 22.8195C14.054 22.769 8.91708 22.5417 6.28613 22.3575L5.29395 22.2814C4.18985 22.1868 3.09931 21.5357 2.77051 20.3429L2.71484 20.0968V20.0958C2.62645 19.5925 2.5625 18.9694 2.5625 18.2169C2.56251 17.4639 2.62642 16.8404 2.71484 16.337L2.77051 16.0909C3.09928 14.8981 4.18983 14.2471 5.29395 14.1525L6.26953 14.0773C8.84033 13.8969 13.8192 13.6739 23.0264 13.6173C24.2932 10.3388 27.4908 8.20674 31.2881 8.13098H31.2891L33.8633 8.09387C34.7213 8.08591 35.5794 8.08352 36.4375 8.08411Z" fill="#71747A" stroke="white" stroke-width="1.5"/>
</svg>
