<svg width="66" height="20" viewBox="0 0 66 20" fill="none" xmlns="http://www.w3.org/2000/svg">
<path d="M1.58901e-06 0.00539398C0.00201759 0.00875473 0.357507 0.497946 0.790276 1.09196L1.57652 2.17316V11.0418V19.9104L5.04942 19.9091L8.52166 19.907V9.95521V0.00337791L4.25915 0.00136185C1.91453 0.00069046 -0.00201442 0.00270653 1.58901e-06 0.00539398Z" fill="#808080"/>
<path d="M10.3743 0.00942612C10.3756 0.014801 10.7271 0.501307 11.1558 1.09129L11.9353 2.16442L11.9387 11.0357L11.9421 19.907L15.4143 19.9091L18.8872 19.9104L18.8885 15.8235L18.8906 11.7366L21.8601 15.8235L24.8297 19.9104H30.574H36.3189L36.3203 15.8248L36.3223 11.7386L39.2898 15.8228L42.2567 19.907L46.7208 19.9091C49.1757 19.9097 51.1836 19.9077 51.1823 19.905C51.1816 19.9017 47.9271 15.4217 43.9508 9.94983L36.7214 1.90735e-05H32.2594C29.8059 1.90735e-05 27.7979 0.00203514 27.7979 0.0047226C27.7979 0.00808144 28.1521 0.49593 28.5842 1.09062L29.3704 2.17047L29.3691 8.01927L29.3671 13.8681L24.3774 6.9999C21.633 3.22277 19.3657 0.102829 19.3394 0.0658703L19.2904 1.90735e-05H14.831C11.0167 1.90735e-05 10.3723 0.00136185 10.3743 0.00942612Z" fill="#808080"/>
<path d="M39.491 0.00333977C39.491 0.00468445 42.7441 4.48402 46.7204 9.95652L53.9504 19.907L59.9763 19.909C64.052 19.9097 66.0021 19.9083 66.0001 19.9036C65.9988 19.8996 65.6459 19.4124 65.2152 18.8211L64.4323 17.7453L64.429 8.87465L64.4256 0.00333977L51.9586 0.0013237C45.1015 0.000652313 39.491 0.0013237 39.491 0.00333977ZM57.4805 8.90825C57.4805 10.9672 57.4778 12.4717 57.4744 12.4683C57.4677 12.4609 52.3114 5.36295 52.3034 5.35018C52.2993 5.34413 52.8188 5.34212 54.8892 5.34212H57.4805V8.90825Z" fill="#808080"/>
</svg>
