<svg xmlns="http://www.w3.org/2000/svg" xmlns:xlink="http://www.w3.org/1999/xlink" width="128" height="128" viewBox="0 0 128 128"><defs><clipPath id="a"><rect width="134" height="171" transform="translate(0.616 -0.207)"/></clipPath><clipPath id="c"><rect width="128" height="128"/></clipPath></defs><g id="b" clip-path="url(#c)"><g transform="translate(-6.616 -0.793)" clip-path="url(#a)"><g transform="translate(17.319 4.735)"><g transform="translate(1.35 54.367)"><g transform="translate(0 7.822)"><path d="M333.982,470.37a204.907,204.907,0,0,0-13.358,35.116c-5.258,19.276-7.42,25.157-7.672,41.987s7.672,27.075,7.672,27.075l1.517-19.293a336.22,336.22,0,0,1,6.247-37.511c4.641-20.649,12.317-45.1,12.317-45.1Z" transform="translate(-312.946 -470.37)" fill="#2c2c2c" stroke="#707070" stroke-linecap="round" stroke-linejoin="round" stroke-width="2"/><path d="M338.9,470.37s-8.1,24.948-13.358,44.224-5.23,15.052-5.482,31.882,5.482,23.238,5.482,23.238l1.517-14.456a336.226,336.226,0,0,1,6.247-37.511c4.642-20.654,11.79-44.879,11.79-44.879Z" transform="translate(-313.547 -469.446)" fill="#2c2c2c" stroke="#707070" stroke-linecap="round" stroke-linejoin="round" stroke-width="2"/></g><g transform="translate(56.692 5.175) rotate(-8)"><path d="M6.725,0s9.751,17.5,13.16,28.042S33.143,51.842,33.4,68.67s-13.314,35.507-13.314,35.507L18.564,84.884s1.653-13.5-2.989-34.153S0,2.273,0,2.273Z" transform="translate(3.783 0)" fill="#2c2c2c" stroke="#707070" stroke-linecap="round" stroke-linejoin="round" stroke-width="2"/><path d="M6.2,0s8.1,24.948,13.358,44.224,7.164,13.357,7.416,30.187-7.416,24.933-7.416,24.933L18.037,84.888A336.209,336.209,0,0,0,11.79,47.377C7.148,26.724,0,2.5,0,2.5Z" transform="translate(0 0.924)" fill="#2c2c2c" stroke="#707070" stroke-linecap="round" stroke-linejoin="round" stroke-width="2"/></g></g><path d="M327.811,390.434s-11.615-12.1-14.176-29.218c-1.4-9.378-2.8-35.693,8.075-53.2,8.987-14.464,20.507-22.566,42.934-22.629s33.513,11.938,42.215,22.629c4.743,5.827,8.178,19.547,7.641,32.062-.446,10.392-4.381,19.93-5.837,23.5-4.167,10.211-15.751,22.051-15.751,22.051s6.584-15.708,7.719-24.411a31.361,31.361,0,0,0-1.5-14.949l-9.192,17.308a123.247,123.247,0,0,1-27.784,4.286c-15.6.607-26.023-2.388-26.023-2.388l-9.2-21.629a171.582,171.582,0,0,0-1.573,24.017A141.487,141.487,0,0,0,327.811,390.434Z" transform="translate(-312.688 -285.385)" fill="#2c2c2c" stroke="#707070" stroke-width="3"/><g transform="matrix(0.999, 0.035, -0.035, 0.999, 15.246, 92.375)"><path d="M39.667,74.619a76.863,76.863,0,0,1-14.1-1.088,27.135,27.135,0,0,1-9.07-3.168,13.816,13.816,0,0,1-5.051-5.092A18.783,18.783,0,0,1,9.3,58.126L9.212,57.4l-.731.016H8.407A8.167,8.167,0,0,1,4.815,56.31a4.821,4.821,0,0,1-1.979-1.6l0-.045L2.819,54.6A128.633,128.633,0,0,1,.208,36.328,135.224,135.224,0,0,1,.787,14.106a3.432,3.432,0,0,1,.838-1.759,4.574,4.574,0,0,1,1.619-1.093l.155-.066.116-.122c2.34-2.478,7.724-5.26,14.772-7.634a86.11,86.11,0,0,1,8.965-2.5A34.673,34.673,0,0,1,33.9,0c2.224,0,5.28.181,8.385.5,3.781.384,7.569.955,10.954,1.651A58.89,58.89,0,0,1,63.672,5.175C66.9,6.509,69.178,8.014,70.44,9.649l.1.126.138.08a4.865,4.865,0,0,1,2.143,2.785c.339.977,1.217,4.565,2.414,10.375,1.275,6.189,2.483,12.827,3.4,18.69a226.435,226.435,0,0,1,2.453,23.84l0,.042.006.041a4.264,4.264,0,0,1-1.147,2.222c-1.271,1.59-2.948,2.766-4.08,2.859h-.022a4.37,4.37,0,0,1-.475.025,8.076,8.076,0,0,1-4.13-1.372c-1.388-.886-1.979-1.738-2.025-2.068l-.5-3.54-.4-2.858-1.137,2.652a14.35,14.35,0,0,1-3.049,4.559,16.851,16.851,0,0,1-5.121,3.449,31.827,31.827,0,0,1-7.762,2.23,68.681,68.681,0,0,1-10.888.825l-.687,0h0Z" transform="translate(0.808 0.806)" fill="#faf0f0"/><path d="M40.475,74.619h0l.683,0A67.884,67.884,0,0,0,51.92,73.8a31.03,31.03,0,0,0,7.564-2.17,16.063,16.063,0,0,0,4.882-3.283,13.559,13.559,0,0,0,2.88-4.308l2.275-5.3.8,5.716.492,3.5A5.035,5.035,0,0,0,72.66,69.6a7.187,7.187,0,0,0,3.518,1.134,3.564,3.564,0,0,0,.387-.02l.022,0,.022,0a5.632,5.632,0,0,0,2.834-1.79,9.263,9.263,0,0,0,1.238-1.549,3.081,3.081,0,0,0,.415-.888l0-.021,0-.083a225.819,225.819,0,0,0-2.444-23.745c-.915-5.851-2.12-12.475-3.393-18.652-1.184-5.744-2.067-9.352-2.386-10.274a4.1,4.1,0,0,0-1.784-2.351L70.8,11.2l-.195-.252c-1.175-1.522-3.341-2.942-6.438-4.221A58.1,58.1,0,0,0,53.884,3.743C50.525,3.052,46.765,2.485,43.011,2.1c-3.079-.313-6.106-.492-8.3-.492-3.116,0-9.43,1.394-15.356,3.39A67.962,67.962,0,0,0,10.7,8.532a21.69,21.69,0,0,0-5.8,3.894l-.231.245-.31.132a2.9,2.9,0,0,0-1.979,2.252c-.15.84-.443,3.863-.623,7.95a138.779,138.779,0,0,0,.056,14.08A127.812,127.812,0,0,0,4.412,55.228v0a6.2,6.2,0,0,0,1.831,1.3,7.174,7.174,0,0,0,2.97.883h.057l1.463-.032.173,1.453a18,18,0,0,0,2.049,6.842,13.031,13.031,0,0,0,4.766,4.8,26.359,26.359,0,0,0,8.8,3.066,76.083,76.083,0,0,0,13.95,1.074m0,1.612c-22.686,0-29.83-5.925-31.172-17.2H9.215c-2.566,0-6.292-2.276-6.374-3.439A128.359,128.359,0,0,1,.211,37.183,135.052,135.052,0,0,1,.8,14.77a4.507,4.507,0,0,1,2.935-3.452C9.239,5.491,28.178,0,34.707,0c8.231,0,31.379,2.45,37.179,9.963a5.656,5.656,0,0,1,2.5,3.22c.792,2.283,3.771,15.92,5.849,29.205A225.2,225.2,0,0,1,82.7,66.323c.226,1.609-3.323,5.779-5.959,6a5.163,5.163,0,0,1-.563.03c-3.111,0-6.741-2.617-6.954-4.133l-.5-3.539C65.659,71.829,58.1,76.141,41.17,76.229Z" transform="translate(0 0)" fill="#707070"/></g><g transform="translate(38.343 87.195)"><g transform="translate(0.954 -0.138)" fill="#faf0f0" stroke="#707070" stroke-width="2"><rect width="23" height="15" stroke="none"/><rect x="1" y="1" width="21" height="13" fill="none"/></g><path d="M434.483,578.979l3.544-.853h16.391l5.4.853v8.671H433.031Z" transform="translate(-433.031 -569.938)" fill="#faf0f0"/></g><g transform="matrix(0.999, 0.035, -0.035, 0.999, 13.127, 97.593)"><path d="M14,67.07c-3.322-5.747,0-34.3,0-34.3S.67,31.311.18,30.5.246,17.442,1.315,16.7c.5-.347,3.828.448,7.224,1.391-.269-1.389-.6-2.9-.992-4.37a47.317,47.317,0,0,1-1.654-8.6C6.112,4.26,8.7,2.493,9.065,3.277c.161.346.678,4.548,1.825,9.015.623,2.429,1.283,4.953,1.824,7.013,2.088.629,3.621,1.118,3.621,1.118s13.561,3.1,26.084,1.175c9.4-1.442,17.788-3.481,21.379-4.407.58-2.2,1.354-5.156,2.079-7.981C67.022,4.743,67.539.541,67.7.2c.365-.784,2.956.98,3.171,1.842a47.37,47.37,0,0,1-1.654,8.6c-.484,1.79-.865,3.639-1.156,5.255,3.439-1.118,9.432-2.956,10.318-2.46,1.25.7,3.161,13.212,2.465,14.358s-12.872,2.7-12.872,2.7S74.03,62.8,70.459,66c-1.646,1.474-12.915,5.52-25.013,6.212-1.68.1-3.374.141-5.061.141C27.735,72.35,15.575,69.8,14,67.07Z" transform="translate(0 0)" fill="#07205a" stroke="#041338" stroke-width="2"/></g><g transform="translate(44.396 126.093)"><text transform="translate(2.902 7.965)" fill="#fdfcfc" font-size="6" font-family="HelveticaNeue, Helvetica Neue"><tspan x="0" y="0">&gt;_</tspan></text><g transform="translate(-0.098 -0.035)" fill="none" stroke="#fdfcfc" stroke-width="3"><rect width="14" height="12" stroke="none"/><rect x="1.5" y="1.5" width="11" height="9" fill="none"/></g></g><path d="M42.131,85.024a75.149,75.149,0,0,1-16.883-2.167,38.952,38.952,0,0,1-6.193-2.067,10.537,10.537,0,0,1-3.523-2.261,24.066,24.066,0,0,1-2.757-4.95c-.362-.8-.724-1.639-1.083-2.515-.591.054-1.33.1-2.141.1-2.5,0-5.682-.451-7.3-2.491C-.637,65.018-.365,59.588.944,56.378c.86-2.107,3.9-1.448,5.884-.746Q6.594,54.6,6.39,53.579A57.251,57.251,0,0,1,5.157,42.51a49.054,49.054,0,0,1,.752-8.578,47.066,47.066,0,0,1,2.16-7.988,44.868,44.868,0,0,1,3.415-7.225,42.127,42.127,0,0,1,4.521-6.291,38.92,38.92,0,0,1,5.474-5.186,35.754,35.754,0,0,1,6.275-3.91A33.367,33.367,0,0,1,34.684.861a32.567,32.567,0,0,1,14.875,0,33.374,33.374,0,0,1,6.929,2.472,35.762,35.762,0,0,1,6.279,3.91,38.92,38.92,0,0,1,5.474,5.186,42.106,42.106,0,0,1,4.521,6.291,44.845,44.845,0,0,1,3.416,7.225,47.04,47.04,0,0,1,2.159,7.988,49.028,49.028,0,0,1,.752,8.58,83.231,83.231,0,0,1-.671,10.534c1.92-.737,5.482-1.751,6.424.56,1.309,3.21,1.582,8.639-1.312,12.3-1.612,2.042-4.8,2.491-7.3,2.491-.531,0-1.031-.02-1.479-.05q-.288.745-.585,1.428a16.992,16.992,0,0,1-2.4,4.184,18.894,18.894,0,0,1-4.346,3.155,64.664,64.664,0,0,1-7.539,3.666,67.928,67.928,0,0,1-8.921,3.01,35.154,35.154,0,0,1-8.521,1.241C42.335,85.026,42.231,85.025,42.131,85.024Z" transform="matrix(0.999, 0.035, -0.035, 0.999, 9.274, 7.156)" fill="#faf0f0" stroke="#707070" stroke-linecap="round" stroke-linejoin="round" stroke-width="2"/><g transform="matrix(0.961, 0.276, -0.276, 0.961, 49.25, 86.327)"><g transform="translate(0 0)"><path d="M1,2.525H.963a.905.905,0,0,1-.752-.314A1.35,1.35,0,0,1,0,1.39C0,.909.2,0,.956,0c.657,0,1.064.722,1.064,1.39A1,1,0,0,1,1,2.525Z" transform="translate(0.269 0.269)" fill="#f48d8d"/><path d="M1.225.537A.527.527,0,0,0,.749.826a1.633,1.633,0,0,0-.211.833,1.118,1.118,0,0,0,.157.658c.037.049.15.2.544.208h.033A.68.68,0,0,0,1.834,2.3a1.024,1.024,0,0,0,.187-.646c0-.47-.276-1.122-.8-1.122m0-.537c.851,0,1.333.887,1.333,1.659a1.252,1.252,0,0,1-1.287,1.4H1.225C.3,3.04,0,2.431,0,1.659S.375,0,1.225,0Z" fill="#c63e3e"/></g></g><g transform="translate(27.135 52.739) rotate(4.012)"><g transform="translate(37.793 0)"><g transform="translate(1.24 3.962)"><g transform="translate(0 1.275)" fill="#2c2c2c" stroke="#2c2c2c" stroke-linecap="round" stroke-linejoin="round" stroke-width="1"><ellipse cx="3.697" cy="6.469" rx="3.697" ry="6.469" stroke="none"/><ellipse cx="3.697" cy="6.469" rx="3.197" ry="5.969" fill="none"/></g><path d="M0,1.737a9.748,9.748,0,0,0,3.014-.394A3.3,3.3,0,0,0,4.873,0" transform="translate(3.851 0)" fill="none" stroke="#2c2c2c" stroke-linecap="round" stroke-width="3"/><ellipse cx="1.078" cy="1.232" rx="1.078" ry="1.232" transform="translate(4.005 3.432)" fill="#fff"/><ellipse cx="0.308" cy="0.462" rx="0.308" ry="0.462" transform="translate(1.41 11.246) rotate(-28.999)" fill="#fff"/></g><path d="M0,2.076A16.973,16.973,0,0,1,4.106.413,16.519,16.519,0,0,1,9.654.107" transform="translate(0.181 0) rotate(4.992)" fill="none" stroke="#2c2c2c" stroke-linecap="round" stroke-width="5"/><path d="M0,0A4.338,4.338,0,0,0,1.6.34a5,5,0,0,0,.98-.116A6.332,6.332,0,0,0,3.388,0" transform="translate(3.243 18.021)" fill="none" stroke="#2c2c2c" stroke-linecap="round" stroke-width="3"/><line x1="0.616" y2="2.157" transform="translate(3.238 20.028)" fill="none" stroke="#f0bdbd" stroke-linecap="round" stroke-width="3"/><line x1="0.308" y2="0.924" transform="translate(6.318 20.643)" fill="none" stroke="#f0bdbd" stroke-linecap="round" stroke-width="3"/></g><g transform="translate(0 3.01)"><g transform="translate(1.143 3.109)"><g transform="translate(0 1.275)" fill="#2c2c2c" stroke="#2c2c2c" stroke-linecap="round" stroke-linejoin="round" stroke-width="1"><ellipse cx="3.697" cy="6.469" rx="3.697" ry="6.469" stroke="none"/><ellipse cx="3.697" cy="6.469" rx="3.197" ry="5.969" fill="none"/></g><path d="M0,1.737a9.748,9.748,0,0,0,3.014-.394A3.3,3.3,0,0,0,4.873,0" transform="translate(3.851 0)" fill="none" stroke="#2c2c2c" stroke-linecap="round" stroke-width="3"/><ellipse cx="1.078" cy="1.232" rx="1.078" ry="1.232" transform="translate(4.005 3.432)" fill="#fff"/><ellipse cx="0.308" cy="0.462" rx="0.308" ry="0.462" transform="translate(1.41 11.246) rotate(-28.999)" fill="#fff"/></g><path d="M0,2.076A16.973,16.973,0,0,1,4.106.413,16.519,16.519,0,0,1,9.654.107" transform="translate(0 0)" fill="none" stroke="#2c2c2c" stroke-linecap="round" stroke-width="5"/><path d="M0,0A4.338,4.338,0,0,0,1.6.34a5,5,0,0,0,.98-.116A6.332,6.332,0,0,0,3.388,0" transform="translate(3.145 17.169)" fill="none" stroke="#2c2c2c" stroke-linecap="round" stroke-width="3"/><line x1="0.616" y2="2.157" transform="translate(3.145 19.017)" fill="none" stroke="#f0bdbd" stroke-linecap="round" stroke-width="3"/><line x1="0.308" y2="0.924" transform="translate(6.534 18.401)" fill="none" stroke="#f0bdbd" stroke-linecap="round" stroke-width="3"/></g><ellipse cx="3.851" cy="2.31" rx="3.851" ry="2.31" transform="translate(1.143 21.564)" fill="#f0bdbd" opacity="0.144"/><ellipse cx="3.851" cy="2.31" rx="3.851" ry="2.31" transform="translate(39.646 19.608)" fill="#f0bdbd" opacity="0.144"/></g><g transform="translate(9.002 7.683)"><path d="M372.957,329.071l-25.676,32.6s14.029-10.895,22.483-20.31,11.333-17.35,11.333-17.35L376.425,340l-7.834,14.936s8.511-3.162,13.56-10.9,6.643-20.024,6.643-20.024-1.061,9.324,0,14.828,6.219,9.229,6.219,9.229l-3.456-20.335s6.678,11.984,12.181,18.294,9.835,6.946,9.835,6.946l-7.631-22.41a68.684,68.684,0,0,0,9.3,15.466A59.028,59.028,0,0,0,428.4,357.155s-10.176-51.67-40.914-49.677-35.859,28.434-35.859,28.434l-4.343,21.243Z" transform="translate(-344.356 -303.112)" fill="#2c2c2c" stroke="#707070" stroke-linecap="round" stroke-linejoin="round" stroke-width="2"/><path d="M339.61,348.34V346.1s-6.46-16.952,4.923-29.393c4.576-5,5.938-10.6,11.12-14.921,8.8-5.611,16.928-9.727,28.363-7.92a39.54,39.54,0,0,1,20.509,10.977c8.573,9.1,11.852,21.6,13.47,24.282,2.553,4.234,4.887,19.214,4.887,19.214l-2.314-3.117-12.82-26.238-26.387-19.9-26.484,14.185Z" transform="translate(-337.784 -293.436)" fill="#2c2c2c"/></g><g transform="translate(19.099 61.862)" opacity="0.311"><path d="M584.8,466.31a20.037,20.037,0,0,1,0,8.545,10.4,10.4,0,0,1-4.866,5.774,11.871,11.871,0,0,1-4.154,1.031l-.29.979,6.521-.6,2.789-1.411a21.14,21.14,0,0,0,2.161-4.615,20.769,20.769,0,0,0,.382-5.263A4.98,4.98,0,0,0,584.8,466.31Z" transform="translate(-512.67 -466.31)" fill="#2c2c2c" opacity="0.186"/><path d="M473.42,533.136s6.039-1.337,11.785-3.317c2.812-.967,6.923-2.408,8.817-3.643a22.7,22.7,0,0,0,11.251-9.96.9.9,0,0,1,.492.878,10.772,10.772,0,0,1-3.063,5.5c-2.889,3-9.243,5.923-9.243,5.923l-7.749,2.467L477.7,532.74Z" transform="translate(-442.967 -500.844)" fill="#2c2c2c" opacity="0.186"/><path d="M475.766,566.791l11.2-2.654v3.576s6.83,1.247,11.143,2.374,5.55,1.945,5.55,1.945l-.554,4.017a50.755,50.755,0,0,0-9.587-4.017c-3.1-1.038-6.8-2.534-10.326-3.458C479.24,567.54,475.766,566.791,475.766,566.791Z" transform="translate(-443.357 -534.617)" fill="#2c2c2c" opacity="0.186"/><path d="M577.509,596.809,576.467,601a10.578,10.578,0,0,1,4.656,7.109l2.339-.78s.254-3.708-1.293-6.115A18.035,18.035,0,0,0,577.509,596.809Z" transform="translate(-513.653 -557.532)" fill="#2c2c2c" opacity="0.186"/><path d="M595.953,681.878s4.586,30.516,4.844,32.5a5.392,5.392,0,0,1-.235,2.942,7.373,7.373,0,0,0,2.924-3.551c.309-1,.36-8.1-.813-15.467-1.361-8.555-2.711-17.864-2.711-17.864Z" transform="translate(-526.828 -615.091)" fill="#2c2c2c" opacity="0.186"/><path d="M592.38,631.771l3.338,15.223,2.592-.8a28.083,28.083,0,0,0-.457-6.741,40.291,40.291,0,0,0-2.6-7.89Z" transform="translate(-524.664 -581.578)" fill="#2c2c2c" opacity="0.186"/><path d="M374.483,698.212s-1.513,25.869-1.742,31.5-1.182,8.013-1.182,8.013a15.3,15.3,0,0,0,3.654-1.943,8.481,8.481,0,0,0,1.635-2.19V719.334l1.232-20.517Z" transform="translate(-371.559 -628.93)" fill="#2c2c2c" opacity="0.186"/><path d="M378.9,597.669l3.449,15.764,2.8,1.132-3.8-17.921Z" transform="translate(-376.641 -556.802)" fill="#2c2c2c" opacity="0.186"/></g><g transform="translate(19.008 30.795)"><g transform="translate(1.178 0) rotate(11)" opacity="0.8"><path d="M1.962.017C1.268.269-.174,3.948.017,4.793S1.344,6.377,1.962,6.127s.833-.806.833-2.335S2.656-.232,1.962.017Z" transform="translate(0 0)" fill="#fff" opacity="0.874"/><path d="M.464.007C.049-.179-.33,3.451.464,3.352s.606-.591.606-1.7S.88.192.464.007Z" transform="translate(3.571 2.791)" fill="#fff" opacity="0.874"/></g><g transform="translate(66.441 6.988) rotate(169)" opacity="0.8"><path d="M1.962,6.16C1.268,5.912-.174,2.23.017,1.385S1.344-.2,1.962.049s.833.811.833,2.336S2.656,6.41,1.962,6.16Z" transform="translate(0 0)" fill="#fff" opacity="0.874"/><path d="M.464,3.349C.049,3.534-.33-.1.464,0s.606.591.606,1.7S.88,3.163.464,3.349Z" transform="translate(3.571 0.031)" fill="#fff" opacity="0.874"/></g></g></g></g></g></svg>