<svg width="40" height="40" viewBox="0 0 40 40" fill="none" xmlns="http://www.w3.org/2000/svg">
<path d="M8.7888 5.90441e-05C8.57858 0.00300251 8.37796 0.0885859 8.23034 0.238298C8.08273 0.38801 7.99998 0.589814 8 0.800062V10.6833C7.99984 10.834 8.04225 10.9817 8.12236 11.1094C8.20247 11.2371 8.31702 11.3395 8.4528 11.4049L22.8529 18.3201C22.9781 18.3806 23.1169 18.4074 23.2557 18.3979C23.3944 18.3883 23.5283 18.3428 23.6441 18.2657L30.8441 13.4657C30.9586 13.3899 31.0515 13.2859 31.114 13.1636C31.1765 13.0414 31.2064 12.9051 31.2007 12.7679C31.1951 12.6307 31.1542 12.4973 31.0819 12.3806C31.0096 12.2639 30.9084 12.1678 30.7881 12.1017L9.18801 0.101659C9.06585 0.0333917 8.92793 -0.00164085 8.788 5.90441e-05M8.82 13.6001C8.67738 13.597 8.53651 13.6321 8.412 13.7017C8.28733 13.7709 8.1834 13.8721 8.11096 13.9948C8.03853 14.1176 8.00022 14.2576 8 14.4001V39.1986C7.99976 39.3376 8.03574 39.4743 8.10438 39.5951C8.17303 39.716 8.27198 39.8169 8.39148 39.8878C8.51099 39.9588 8.64692 39.9974 8.78589 39.9999C8.92486 40.0023 9.06207 39.9685 9.18401 39.9018L31.5969 27.0938C31.7192 27.0239 31.8209 26.9229 31.8917 26.8012C31.9625 26.6794 31.9999 26.541 32.0001 26.4002V16.0001C32.0003 15.8406 31.9527 15.6846 31.8636 15.5523C31.7744 15.42 31.6477 15.3173 31.4998 15.2576C31.3519 15.1978 31.1895 15.1836 31.0334 15.2169C30.8774 15.2501 30.7348 15.3292 30.6241 15.4441L9.60001 37.6002L15.964 18.6361C16.0161 18.4675 16.0108 18.2863 15.9492 18.121C15.8876 17.9556 15.773 17.8152 15.6232 17.7217L9.22321 13.7217C9.10208 13.6459 8.96285 13.6039 8.82 13.6001Z" fill="white"/>
</svg>
