<?xml version="1.0" encoding="UTF-8"?>
<svg width="60px" height="60px" viewBox="0 0 60 60" version="1.1" xmlns="http://www.w3.org/2000/svg" xmlns:xlink="http://www.w3.org/1999/xlink">
    <title>xero_node_icon</title>
    <g id="xero_node_icon" stroke="none" stroke-width="1" fill="none" fill-rule="evenodd" stroke-linecap="round" stroke-linejoin="round">
        <g id="xero-icon">
            <g id="Group" transform="translate(0.461538, 0.461538)">
                <path d="M29.5384615,59.0769231 C45.8741538,59.0769231 59.0769231,45.8741538 59.0769231,29.5384615 C59.0769231,13.2027692 45.8741538,0 29.5384615,0 C13.2027692,0 0,13.2027692 0,29.5384615 C0,45.8741538 13.2027692,59.0769231 29.5384615,59.0769231 Z" id="Path" fill="#00B2D5"></path>
                <path d="M14.1267692,29.4461538 L19.1612308,24.4116923 C19.3185218,24.2439493 19.4096894,24.0248848 19.4178462,23.7950769 C19.4178462,23.2809231 19.0070769,22.8701538 18.4929231,22.8701538 C18.2363077,22.8701538 18.0313846,22.9624615 17.8255385,23.1267692 L12.7910769,28.1612308 L7.75661538,23.1267692 C7.5888724,22.9694782 7.36980786,22.8783106 7.14,22.8701538 C6.62584615,22.8701538 6.21507692,23.2809231 6.21507692,23.7950769 C6.21507692,24.0516923 6.30738462,24.2566154 6.47169231,24.4624615 L11.5061538,29.4969231 L6.46153846,34.5230769 C6.25569231,34.6772308 6.20492308,34.9338462 6.20492308,35.1904615 C6.20492308,35.7046154 6.61569231,36.1153846 7.12984615,36.1153846 C7.36180596,36.1176517 7.58459728,36.0249332 7.74646154,35.8587692 L12.7809231,30.8243077 L17.8153846,35.8587692 C17.9892409,36.0383551 18.2333833,36.1322301 18.4827692,36.1153846 C18.9969231,36.1153846 19.4076923,35.7046154 19.4076923,35.1904615 C19.4099594,34.9585017 19.3172409,34.7357104 19.1510769,34.5738462 L14.1267692,29.4461538 Z M44.0769231,29.4461538 C44.0769231,30.3710769 44.7969231,31.0892308 45.72,31.0892308 C46.6430769,31.0892308 47.3630769,30.3692308 47.3630769,29.4461538 C47.3630769,28.5230769 46.6430769,27.8030769 45.72,27.8030769 C44.8467692,27.8030769 44.0769231,28.5738462 44.0769231,29.4461538 Z M39.0923077,29.4461538 C39.1029539,33.1015985 42.0636322,36.0622768 45.7190769,36.0729231 C49.3745216,36.0622768 52.3351999,33.1015985 52.3458462,29.4461538 C52.3351999,25.7907092 49.3745216,22.8300309 45.7190769,22.8193846 C42.0636322,22.8300309 39.1029539,25.7907092 39.0923077,29.4461538 Z M40.9938462,29.4461538 C40.9938462,26.8264615 43.1003077,24.6683077 45.7716923,24.6683077 C48.3913846,24.6683077 50.5495385,26.7747692 50.5495385,29.4461538 C50.5609841,30.7167917 50.0612816,31.938717 49.1627685,32.8372301 C48.2642555,33.7357431 47.0423301,34.2354456 45.7716923,34.224 C43.1003077,34.224 40.9938462,32.0667692 40.9938462,29.4461538 L40.9938462,29.4461538 Z M38.6307692,22.9726154 L38.3741538,22.9726154 C37.5433846,22.9726154 36.7310769,23.2292308 36.0627692,23.7433846 C35.9704615,23.3326154 35.6012308,23.0233846 35.1895385,23.0233846 C34.6753846,23.0233846 34.3163077,23.4341538 34.3163077,23.8966154 L34.3163077,35.0446154 C34.3163077,35.5587692 34.7270769,35.9695385 35.2412308,35.9695385 C35.7553846,35.9695385 36.1661538,35.5587692 36.1661538,35.0446154 L36.1661538,28.212 C36.1661538,25.9504615 36.372,25.0273846 38.3233846,24.7689231 L38.6926154,24.7689231 C39.2067692,24.7689231 39.6175385,24.3996923 39.6175385,23.8956923 C39.5658462,23.3307692 39.156,22.9707692 38.6418462,22.9707692 L38.6307692,22.9726154 Z M32.4156923,28.2027692 C32.0049231,26.3538462 31.0283077,24.864 29.4876923,23.8873846 C27.2261538,22.4492308 24.2473846,22.5516923 22.0901538,24.0932308 C20.3436923,25.3264615 19.3163077,27.432 19.3163077,29.5393846 C19.3163077,30.0535385 19.368,30.6193846 19.5221538,31.1316923 C20.1895385,33.7513846 22.4501538,35.7470769 25.1215385,36.0636923 C25.9117156,36.1678472 26.7146664,36.1154672 27.4846154,35.9095385 C28.152,35.7553846 28.872,35.448 29.4876923,35.0787692 C30.1550769,34.668 30.6692308,34.1030769 31.1833846,33.4864615 L31.2350769,33.4347692 C31.6043077,32.9732308 31.5433846,32.3547692 31.1427692,32.0473846 C30.8344615,31.7907692 30.2695385,31.6781538 29.8070769,32.2532308 C29.7147692,32.4073846 29.6012308,32.5098462 29.4987692,32.664 C29.1295385,33.0747692 28.728,33.4347692 28.2064615,33.744 C27.5390769,34.1132308 26.7683077,34.3089231 25.9975385,34.3089231 C23.3778462,34.2572308 21.9913846,32.46 21.4772308,31.1243077 C21.3849231,30.8676923 21.3230769,30.6101538 21.2713846,30.3535385 L21.2713846,30.1993846 L30.7236923,30.1993846 C31.9569231,30.1476923 32.6252308,29.2236923 32.4193846,28.1963077 L32.4156923,28.2027692 Z M21.3203077,28.3569231 L21.3203077,28.2646154 C21.8344615,26.2098462 23.7350769,24.6683077 25.9356923,24.6683077 C28.1972308,24.6683077 30.0969231,26.2606154 30.6101538,28.3670769 L21.3203077,28.3569231 Z" id="Shape" fill="#FFFFFF"></path>
            </g>
            <g id="Group">
                <path d="M29.5384615,59.0769231 C45.8741538,59.0769231 59.0769231,45.8741538 59.0769231,29.5384615 C59.0769231,13.2027692 45.8741538,0 29.5384615,0 C13.2027692,0 0,13.2027692 0,29.5384615 C0,45.8741538 13.2027692,59.0769231 29.5384615,59.0769231 Z" id="Path" fill="#00B2D5"></path>
                <path d="M14.1267692,29.4461538 L19.1612308,24.4116923 C19.3185218,24.2439493 19.4096894,24.0248848 19.4178462,23.7950769 C19.4178462,23.2809231 19.0070769,22.8701538 18.4929231,22.8701538 C18.2363077,22.8701538 18.0313846,22.9624615 17.8255385,23.1267692 L12.7910769,28.1612308 L7.75661538,23.1267692 C7.5888724,22.9694782 7.36980786,22.8783106 7.14,22.8701538 C6.62584615,22.8701538 6.21507692,23.2809231 6.21507692,23.7950769 C6.21507692,24.0516923 6.30738462,24.2566154 6.47169231,24.4624615 L11.5061538,29.4969231 L6.46153846,34.5230769 C6.25569231,34.6772308 6.20492308,34.9338462 6.20492308,35.1904615 C6.20492308,35.7046154 6.61569231,36.1153846 7.12984615,36.1153846 C7.36180596,36.1176517 7.58459728,36.0249332 7.74646154,35.8587692 L12.7809231,30.8243077 L17.8153846,35.8587692 C17.9892409,36.0383551 18.2333833,36.1322301 18.4827692,36.1153846 C18.9969231,36.1153846 19.4076923,35.7046154 19.4076923,35.1904615 C19.4099594,34.9585017 19.3172409,34.7357104 19.1510769,34.5738462 L14.1267692,29.4461538 Z M44.0769231,29.4461538 C44.0769231,30.3710769 44.7969231,31.0892308 45.72,31.0892308 C46.6430769,31.0892308 47.3630769,30.3692308 47.3630769,29.4461538 C47.3630769,28.5230769 46.6430769,27.8030769 45.72,27.8030769 C44.8467692,27.8030769 44.0769231,28.5738462 44.0769231,29.4461538 Z M39.0923077,29.4461538 C39.1029539,33.1015985 42.0636322,36.0622768 45.7190769,36.0729231 C49.3745216,36.0622768 52.3351999,33.1015985 52.3458462,29.4461538 C52.3351999,25.7907092 49.3745216,22.8300309 45.7190769,22.8193846 C42.0636322,22.8300309 39.1029539,25.7907092 39.0923077,29.4461538 Z M40.9938462,29.4461538 C40.9938462,26.8264615 43.1003077,24.6683077 45.7716923,24.6683077 C48.3913846,24.6683077 50.5495385,26.7747692 50.5495385,29.4461538 C50.5609841,30.7167917 50.0612816,31.938717 49.1627685,32.8372301 C48.2642555,33.7357431 47.0423301,34.2354456 45.7716923,34.224 C43.1003077,34.224 40.9938462,32.0667692 40.9938462,29.4461538 L40.9938462,29.4461538 Z M38.6307692,22.9726154 L38.3741538,22.9726154 C37.5433846,22.9726154 36.7310769,23.2292308 36.0627692,23.7433846 C35.9704615,23.3326154 35.6012308,23.0233846 35.1895385,23.0233846 C34.6753846,23.0233846 34.3163077,23.4341538 34.3163077,23.8966154 L34.3163077,35.0446154 C34.3163077,35.5587692 34.7270769,35.9695385 35.2412308,35.9695385 C35.7553846,35.9695385 36.1661538,35.5587692 36.1661538,35.0446154 L36.1661538,28.212 C36.1661538,25.9504615 36.372,25.0273846 38.3233846,24.7689231 L38.6926154,24.7689231 C39.2067692,24.7689231 39.6175385,24.3996923 39.6175385,23.8956923 C39.5658462,23.3307692 39.156,22.9707692 38.6418462,22.9707692 L38.6307692,22.9726154 Z M32.4156923,28.2027692 C32.0049231,26.3538462 31.0283077,24.864 29.4876923,23.8873846 C27.2261538,22.4492308 24.2473846,22.5516923 22.0901538,24.0932308 C20.3436923,25.3264615 19.3163077,27.432 19.3163077,29.5393846 C19.3163077,30.0535385 19.368,30.6193846 19.5221538,31.1316923 C20.1895385,33.7513846 22.4501538,35.7470769 25.1215385,36.0636923 C25.9117156,36.1678472 26.7146664,36.1154672 27.4846154,35.9095385 C28.152,35.7553846 28.872,35.448 29.4876923,35.0787692 C30.1550769,34.668 30.6692308,34.1030769 31.1833846,33.4864615 L31.2350769,33.4347692 C31.6043077,32.9732308 31.5433846,32.3547692 31.1427692,32.0473846 C30.8344615,31.7907692 30.2695385,31.6781538 29.8070769,32.2532308 C29.7147692,32.4073846 29.6012308,32.5098462 29.4987692,32.664 C29.1295385,33.0747692 28.728,33.4347692 28.2064615,33.744 C27.5390769,34.1132308 26.7683077,34.3089231 25.9975385,34.3089231 C23.3778462,34.2572308 21.9913846,32.46 21.4772308,31.1243077 C21.3849231,30.8676923 21.3230769,30.6101538 21.2713846,30.3535385 L21.2713846,30.1993846 L30.7236923,30.1993846 C31.9569231,30.1476923 32.6252308,29.2236923 32.4193846,28.1963077 L32.4156923,28.2027692 Z M21.3203077,28.3569231 L21.3203077,28.2646154 C21.8344615,26.2098462 23.7350769,24.6683077 25.9356923,24.6683077 C28.1972308,24.6683077 30.0969231,26.2606154 30.6101538,28.3670769 L21.3203077,28.3569231 Z" id="Shape" fill="#FFFFFF"></path>
            </g>
        </g>
    </g>
</svg>