<svg width="60" height="60" xmlns="http://www.w3.org/2000/svg"><g fill="none" fill-rule="evenodd" stroke-linecap="round" stroke-linejoin="round"><path d="M30 59.538c16.336 0 29.538-13.202 29.538-29.538S46.336.462 30 .462.462 13.664.462 30 13.664 59.538 30 59.538z" fill="#00B2D5"/><path d="M14.588 29.908l5.035-5.035a.95.95 0 00.256-.616.92.92 0 00-.925-.925c-.256 0-.461.092-.667.256l-5.034 5.035-5.035-5.035a.95.95 0 00-.616-.256.92.92 0 00-.925.925c0 .256.092.461.256.667l5.035 5.034-5.045 5.027c-.206.154-.257.41-.257.667 0 .514.411.925.925.925a.85.85 0 00.617-.257l5.034-5.034 5.035 5.034a.85.85 0 00.667.257.92.92 0 00.925-.925.85.85 0 00-.256-.617l-5.025-5.127zm29.95 0c0 .925.72 1.643 1.644 1.643.923 0 1.643-.72 1.643-1.643s-.72-1.643-1.643-1.643c-.874 0-1.644.77-1.644 1.643zm-4.984 0a6.646 6.646 0 006.627 6.626 6.646 6.646 0 006.626-6.626 6.646 6.646 0 00-6.626-6.627 6.646 6.646 0 00-6.627 6.627zm1.901 0a4.77 4.77 0 014.778-4.778 4.77 4.77 0 014.778 4.778 4.735 4.735 0 01-4.778 4.778 4.769 4.769 0 01-4.778-4.778zm-2.363-6.474h-.256a3.78 3.78 0 00-2.312.77c-.092-.41-.461-.72-.873-.72a.865.865 0 00-.873.874v11.148c0 .514.41.925.925.925a.92.92 0 00.925-.925v-6.832c0-2.262.206-3.185 2.157-3.444h.37c.513 0 .924-.369.924-.873-.052-.565-.461-.925-.976-.925l-.01.002zm-6.215 5.23c-.41-1.849-1.387-3.338-2.928-4.315-2.261-1.438-5.24-1.336-7.397.206-1.747 1.233-2.774 3.339-2.774 5.446 0 .514.052 1.08.206 1.592.667 2.62 2.928 4.616 5.6 4.932a6.07 6.07 0 002.362-.154 7.215 7.215 0 002.003-.83c.668-.411 1.182-.976 1.696-1.593l.052-.052c.369-.461.308-1.08-.093-1.387-.308-.257-.873-.37-1.335.206-.093.154-.206.256-.309.41a5.39 5.39 0 01-1.292 1.08 4.592 4.592 0 01-2.209.565c-2.62-.051-4.006-1.848-4.52-3.184a5.413 5.413 0 01-.206-.77v-.155h9.452c1.233-.052 1.902-.976 1.696-2.003l-.004.006zm-11.095.154v-.092c.514-2.055 2.415-3.596 4.615-3.596 2.262 0 4.161 1.592 4.675 3.699l-9.29-.01z" fill="#FFF"/><path d="M29.538 59.077c16.336 0 29.539-13.203 29.539-29.539C59.077 13.203 45.874 0 29.538 0 13.203 0 0 13.203 0 29.538c0 16.336 13.203 29.539 29.538 29.539z" fill="#00B2D5"/><path d="M14.127 29.446l5.034-5.034a.95.95 0 00.257-.617.92.92 0 00-.925-.925c-.257 0-.462.092-.667.257L12.79 28.16l-5.034-5.034a.95.95 0 00-.617-.257.92.92 0 00-.925.925c0 .257.092.462.257.667l5.034 5.035-5.044 5.026c-.206.154-.257.41-.257.667 0 .515.41.925.925.925a.85.85 0 00.616-.256l5.035-5.035 5.034 5.035a.85.85 0 00.668.256.92.92 0 00.925-.925.85.85 0 00-.257-.616l-5.024-5.128zm29.95 0c0 .925.72 1.643 1.643 1.643s1.643-.72 1.643-1.643-.72-1.643-1.643-1.643c-.873 0-1.643.77-1.643 1.643zm-4.985 0a6.646 6.646 0 006.627 6.627 6.646 6.646 0 006.627-6.627 6.646 6.646 0 00-6.627-6.627 6.646 6.646 0 00-6.627 6.627zm1.902 0a4.77 4.77 0 014.778-4.778 4.77 4.77 0 014.778 4.778 4.735 4.735 0 01-4.778 4.778 4.769 4.769 0 01-4.778-4.778zm-2.363-6.473h-.257c-.83 0-1.643.256-2.311.77-.093-.41-.462-.72-.873-.72a.865.865 0 00-.874.874v11.148c0 .514.411.925.925.925a.92.92 0 00.925-.925v-6.833c0-2.262.206-3.185 2.157-3.443h.37c.514 0 .925-.37.925-.873-.052-.565-.462-.925-.976-.925l-.011.002zm-6.215 5.23c-.411-1.85-1.388-3.339-2.928-4.316-2.262-1.438-5.24-1.335-7.398.206-1.746 1.233-2.774 3.339-2.774 5.446 0 .515.052 1.08.206 1.593.668 2.62 2.928 4.615 5.6 4.932.79.104 1.593.051 2.363-.154a7.215 7.215 0 002.003-.831c.667-.411 1.181-.976 1.695-1.593l.052-.051c.37-.462.308-1.08-.092-1.388-.309-.256-.873-.369-1.336.206-.092.154-.206.257-.308.411-.37.41-.771.77-1.293 1.08a4.592 4.592 0 01-2.208.565c-2.62-.052-4.007-1.849-4.52-3.185a5.413 5.413 0 01-.207-.77v-.155h9.453c1.233-.051 1.901-.975 1.695-2.003l-.003.007zm-11.096.154v-.092c.514-2.055 2.415-3.597 4.616-3.597 2.261 0 4.16 1.593 4.674 3.7l-9.29-.011z" fill="#FFF"/></g></svg>