<?xml version="1.0" encoding="UTF-8"?>
<svg id="a" data-name="Layer 1" xmlns="http://www.w3.org/2000/svg" viewBox="0 0 32 32">
  <circle cx="16" cy="16" r="16" fill="#c6c6c6"/>
  <g>
    <path d="M12.92,18.63c-.23,0-.45-.09-.62-.26-.34-.34-.34-.9,0-1.25l7.52-7.52c.5-.5.77-1.16.77-1.87s-.27-1.37-.77-1.87c-.5-.5-1.16-.77-1.87-.77s-1.37.27-1.87.77L6.12,15.83c-.34.34-.9.34-1.25,0-.34-.34-.34-.9,0-1.25L14.84,4.63c.83-.83,1.94-1.29,3.11-1.29s2.28.46,3.11,1.29,1.29,1.94,1.29,3.11-.46,2.28-1.29,3.11l-7.52,7.52c-.17.17-.4.26-.62.26Z"/>
    <path d="M18.31,28.66c-.23,0-.45-.09-.62-.26l-1.85-1.85c-.39-.39-.6-.9-.6-1.45s.21-1.06.6-1.45l9.01-9.01c.5-.5.77-1.16.77-1.87s-.27-1.37-.77-1.87l-.05-.05c-1.03-1.03-2.71-1.03-3.74,0l-7.42,7.42c-.34.34-.9.34-1.25,0-.34-.34-.34-.9,0-1.25l7.42-7.42c.83-.83,1.94-1.29,3.11-1.29s2.28.46,3.11,1.29l.05.05c.83.83,1.29,1.94,1.29,3.11s-.46,2.28-1.29,3.11l-9.01,9.01c-.11.11-.11.3,0,.42l1.85,1.85c.34.34.34.9,0,1.25-.17.17-.4.26-.62.26Z"/>
    <path d="M13.07,22c-1.13,0-2.25-.43-3.11-1.29-1.72-1.72-1.72-4.51,0-6.23l7.37-7.37c.34-.34.9-.34,1.25,0,.34.34.34.9,0,1.25l-7.37,7.37c-1.03,1.03-1.03,2.71,0,3.74,1.03,1.03,2.71,1.03,3.74,0l7.37-7.37c.34-.34.9-.34,1.25,0,.34.34.34.9,0,1.25l-7.37,7.37c-.86.86-1.99,1.29-3.11,1.29Z"/>
  </g>
</svg>