<?xml version="1.0" encoding="UTF-8"?> <svg xmlns="http://www.w3.org/2000/svg" width="713" height="103" viewBox="0 0 713 103"><g fill="none"><path fill="#091E3F" d="M25.3387505,31.8817846 C18.0935127,31.8817846 13.4526442,34.2667288 13.4526442,38.5198794 C13.4526442,42.77303 18.3284934,44.6412363 25.5737312,45.3964687 C35.8737179,46.2709482 49.2284534,48.0199073 49.2284534,61.9718312 C49.2284534,71.909099 39.8292261,78.9844336 25.4562408,78.9844336 C16.3899028,78.9844336 7.6760357,76.99698 0,69.0471659 L6.1094978,61.0973517 C11.2385034,66.2250393 18.1590569,69.0832441 25.3583322,69.0471659 C31.5853204,69.0471659 37.6948182,67.1789595 37.6948182,62.1705766 C37.6948182,57.1621937 32.9364593,55.5126072 24.6729719,54.7573749 C14.2554949,53.8828953 1.91900893,50.7824678 1.91900893,38.8577465 C1.91900893,26.9330252 14.7254562,22.5010038 25.1233515,22.5010038 C32.8814445,22.3442565 40.466731,24.8358396 46.6632476,29.5763384 L40.5537498,36.6715476 C36.1380523,33.422221 30.7910796,31.7389655 25.3387505,31.8817846 Z M87.8240309,68.5304279 C93.698548,68.5304279 100.512988,66.5429744 104.018116,62.7469381 L111.615825,69.8222727 C105.839217,76.0430023 96.2050087,78.9844336 87.6086319,78.9844336 C69.2605568,78.9844336 57.4919409,67.9739409 57.4919409,50.7427187 C57.4919409,34.385976 69.7109365,22.5010038 87.3736513,22.5010038 C103.802717,22.5010038 115.120954,31.7625373 115.120954,50.3253535 C115.120954,51.8358182 115.003463,53.4854046 114.885973,55.1151165 L69.6521913,55.1151165 C70.6312775,63.5021705 77.4848808,68.5304279 87.8240309,68.5304279 Z M87.3736513,32.5376442 C78.8947649,32.5376442 71.5320368,37.0094147 69.7500999,45.7343358 L103.6069,45.7343358 C102.941122,37.1087874 97.0666045,32.5376442 87.3736513,32.5376442 Z M169.127348,47.4634204 C169.127348,38.2018868 163.683629,32.8556368 154.069002,32.8556368 C149.823071,32.8145023 145.745749,34.5398622 142.786131,37.6300974 C139.826513,40.7203325 138.242795,44.9058534 138.403623,49.2123795 L138.403623,77.6925888 L126.654589,77.6925888 L126.654589,23.8127232 L137.307047,23.8127232 L137.992407,31.3252976 C142.647064,25.6951004 149.529995,22.4607744 156.77128,22.5010038 C170.243506,22.5010038 180.778473,30.5700652 180.778473,47.3640477 L180.778473,77.6925888 L169.029439,77.6925888 L169.127348,47.4634204 Z M251.997203,77.6925888 L241.011856,77.6925888 L240.326495,69.1664131 C235.947242,75.5712635 228.655694,79.2715546 220.979752,78.9844336 C204.785667,78.9844336 192.449181,68.6298006 192.449181,50.7427187 C192.449181,32.418397 204.550686,22.5010038 220.744772,22.5010038 C227.53963,22.5010038 236.703876,25.661055 240.326495,32.1004044 L240.326495,1.4538708 L252.07553,1.4538708 L251.997203,77.6925888 Z M204.100306,50.7427187 C204.100306,61.6538387 211.795924,68.5304279 221.723858,68.5304279 C231.370559,68.5304279 239.190755,60.5932937 239.190755,50.8023423 C239.190755,41.0113911 231.370559,33.0742567 221.723858,33.0742567 C211.795924,33.0742567 204.100306,39.8315987 204.100306,50.7427187 Z M273.732916,0.0229042507 C275.615689,-0.134291907 277.476303,0.522915812 278.856123,1.83252852 C280.235944,3.14214122 281.006608,4.98232903 280.978154,6.89949352 C280.698938,10.751433 277.538362,13.7319352 273.732916,13.7319352 C269.92747,13.7319352 266.766894,10.751433 266.487678,6.89949352 C266.459224,4.98232903 267.229888,3.14214122 268.609708,1.83252852 C269.989529,0.522915812 271.850143,-0.134291907 273.732916,0.0229042507 Z M279.509524,77.6925888 L267.76049,77.6925888 L267.76049,23.8127232 L279.509524,23.8127232 L279.509524,77.6925888 Z M337.686826,47.4634204 C337.686826,38.2018868 332.262688,32.8556368 322.62848,32.8556368 C318.380822,32.8087732 314.300152,34.5323307 311.339291,37.6238638 C308.378431,40.7153967 306.79658,44.9042651 306.963101,49.2123795 L306.963101,77.6925888 L295.214067,77.6925888 L295.214067,23.8127232 L305.846943,23.8127232 L306.532303,31.3252976 C311.194749,25.6942502 318.083824,22.4604087 325.330758,22.5010038 C338.802984,22.5010038 349.337951,30.5700652 349.337951,47.3640477 L349.337951,77.6925888 L337.588917,77.6925888 L337.686826,47.4634204 Z M376.067004,32.6370169 C379.689623,26.1976674 388.873451,22.5010038 395.648728,22.5010038 C411.725323,22.5010038 423.9639,32.4382715 423.9639,50.7427187 C423.9639,68.6298006 410.824564,78.9844336 395.550819,78.9844336 C388.52098,78.9844336 380.492474,76.0430023 376.067004,69.1664131 L375.401226,77.6925888 L364.415879,77.6925888 L364.415879,1.4538708 L376.164913,1.4538708 L376.067004,32.6370169 Z M376.752364,50.7427187 C376.679671,55.5452028 378.551713,60.1675982 381.931092,63.5298889 C385.310473,66.8921797 389.901134,68.6998095 394.630478,68.5304279 C404.832556,68.5304279 412.25403,61.6538387 412.25403,50.7427187 C412.25403,39.8315987 404.793393,33.0742567 394.630478,33.0742567 C389.923331,32.9117158 385.354557,34.7051316 381.980119,38.0399982 C378.605681,41.3748646 376.717638,45.9625505 376.752364,50.7427187 Z M448.519382,77.6925888 L436.770348,77.6925888 L436.770348,1.4538708 L448.519382,1.4538708 L448.519382,77.6925888 Z M475.581324,53.1475375 C475.581324,62.3096983 480.907553,68.6298006 490.75716,68.6298006 C494.973928,68.6775132 499.024368,66.9626248 501.957722,63.8876717 C504.891074,60.8127185 506.449029,56.6484804 506.265885,52.3724306 L506.265885,23.8127232 L517.917011,23.8127232 L517.917011,77.6925888 L507.401625,77.6925888 L506.716265,70.2595125 C501.963109,76.017111 494.864184,79.2348408 487.46743,78.9844336 C473.760224,78.9844336 463.969362,69.5042802 463.969362,53.2469102 L463.969362,23.8127232 L475.620488,23.8127232 L475.581324,53.1475375 Z M560.722659,68.5304279 C566.597176,68.5304279 573.392034,66.5429744 576.916744,62.7469381 L584.494871,69.8222727 C578.718263,76.0430023 569.103637,78.9844336 560.487678,78.9844336 C542.159185,78.9844336 530.370987,67.9739409 530.370987,50.7427187 C530.370987,34.385976 542.609564,22.5010038 560.272279,22.5010038 C576.681764,22.5010038 588,31.7625373 588,50.3253535 C588,51.8358182 587.88251,53.4854046 587.784601,55.1151165 L542.492074,55.1151165 C543.529905,63.5021705 550.422672,68.5304279 560.722659,68.5304279 Z M560.272279,32.5376442 C551.773811,32.5376442 544.411083,37.0094147 542.648728,45.7343358 L576.485946,45.7343358 C575.781004,37.1087874 569.886906,32.5376442 560.272279,32.5376442 Z" transform="translate(125 1)"></path><path fill="#0092FF" d="M90.7882695,25.3933061 C87.1970333,19.0379477 81.1717482,14.3933307 74.0808392,12.5143111 C72.6120616,12.1370086 71.1149777,11.8781894 69.6042071,11.7403807 C64.5598266,4.3947914 56.1848508,0 47.2310393,0 C38.2772278,0 29.902252,4.3947914 24.8578715,11.7403807 C15.9686384,12.5791983 8.04866151,17.6665298 3.63383913,25.3734617 C-0.805576767,33.1733865 -1.19965936,42.6165135 2.57463601,50.7544087 C-1.15946017,58.8795799 -0.765981257,68.2861254 3.63383913,76.0758226 C7.23033869,82.4266775 13.2534491,87.0696183 20.3412695,88.9548176 C21.8402444,89.3489349 23.371972,89.6079617 24.9178264,89.728748 C29.9503786,97.0914071 38.3296226,101.5 47.2909942,101.5 C56.2523658,101.5 64.6316098,97.0914071 69.664162,89.728748 C78.5568343,88.8997662 86.4809968,83.8097462 90.8881943,76.095667 C95.3439329,68.3003741 95.7383454,58.8493401 91.9473975,50.71472 C95.6607054,42.575748 95.2298773,33.1642079 90.7882695,25.3933061 L90.7882695,25.3933061 Z M84.0425734,29.4055536 C86.1940461,33.1687945 87.0071753,37.5274387 86.3537283,41.7941176 C84.8906878,40.4635107 83.2867309,39.2902296 81.5692322,38.2942986 C75.238655,34.6239642 67.6664564,33.6131065 60.5661053,35.4904663 C56.2481391,36.6303836 52.2761099,38.7796766 48.9900575,41.754347 C47.7762548,34.0830956 51.4346938,26.4576811 58.2346771,22.4854568 C62.4984157,19.973309 67.6156656,19.2562625 72.4259791,20.4969233 C77.3695254,21.798606 81.5620996,25.0138421 84.0425734,29.4055536 Z M47.1776523,8.95588235 C51.3917418,8.97914557 55.4674471,10.4539299 58.7107843,13.1291188 C56.8188619,13.7336665 54.9974481,14.5377909 53.2776592,15.5277547 C43.1487858,21.5427817 38.0164905,33.3182669 40.5284486,44.7794118 C33.4589141,41.9245811 28.8410286,35.0878389 28.8580174,27.501433 C28.8143094,17.3796895 36.9977005,9.12151522 47.1776523,9.01438567 L47.1776523,8.95588235 Z M10.5736299,29.8614268 C12.7176309,26.246149 16.0709541,23.4369692 20.0865625,21.8921569 C19.6426443,23.8116518 19.4119584,25.7711394 19.3983929,27.7375871 C19.3635941,39.4819226 27.2063803,49.9055388 38.8088235,53.5354193 C36.7416542,55.2010967 34.325213,56.4173891 31.7247248,57.1011318 C26.9359019,58.3482011 21.8268797,57.6807153 17.5565272,55.2500788 C8.41174296,50.0531204 5.26346799,38.7700396 10.4724285,29.8614268 L10.5736299,29.8614268 Z M10.4823056,72.0762274 C8.3268313,68.3210196 7.51983278,63.9646594 8.19074803,59.7058824 C9.65225764,61.0303432 11.2492629,62.2033224 12.9563766,63.2061729 C17.1591452,65.6367727 21.9482793,66.9208217 26.8273975,66.9252316 C29.2380441,66.9177959 31.6375149,66.6035933 33.9657007,65.990495 C38.2867711,64.854876 42.2610058,62.7047344 45.5451641,59.7257704 C46.754778,67.397929 43.106997,75.0244802 36.3180961,79.0171445 C32.0515296,81.5252946 26.9346085,82.2421802 22.1226068,81.005946 C17.1384266,79.7445906 12.8965253,76.5401225 10.3809092,72.1358915 L10.4823056,72.0762274 Z M47.3616731,92.5051579 C43.1394285,92.4790805 39.0587366,90.9909594 35.8235294,88.2975002 C37.7182996,87.7156729 39.5414866,86.9250584 41.2590155,85.9404328 C51.3922903,79.9319474 56.5268158,68.1692685 54.0137661,56.7205882 C62.2348705,60.0500619 66.9739061,68.6498833 65.3642933,77.3181345 C63.7546807,85.9863855 56.2382843,92.3434891 47.3616731,92.5441176 L47.3616731,92.5051579 Z M82.1374049,71.6308985 C80.0723659,75.2627083 76.8121253,78.0791508 72.903501,79.6078431 C73.3440653,77.6881192 73.5681049,75.7256941 73.5714855,73.7567835 C73.5990477,62.0031288 65.9886745,51.5727252 54.7303922,47.9341068 C56.7369283,46.2668253 59.0824916,45.0493616 61.6067036,44.3649604 C66.268582,43.1526255 71.225867,43.855652 75.3593265,46.3153136 C84.1771943,51.5484803 87.1844525,62.8063102 82.1374049,71.6894091 L82.1374049,71.6308985 Z" transform="translate(0 .92)"></path></g></svg> 