<svg version="1.1" id="Layer_1" xmlns="http://www.w3.org/2000/svg" xmlns:xlink="http://www.w3.org/1999/xlink" x="0px" y="0px" viewBox="0 0 94.8 101.7" style="enable-background:new 0 0 94.8 101.7;" xml:space="preserve">
 <style type="text/css">
  .st0{fill-rule:evenodd;clip-rule:evenodd;fill:#0092FF;}
 </style>
 <g>
  <path class="st0" d="M85.2,72.8c-2.6,4.5-6.9,7.9-11.9,9.3c0.7-2.5,1.1-5,1.1-7.6c0-12.8-8.8-23.4-20.6-26.4c2.4-2.4,5.5-4.1,8.8-5
		c5.1-1.4,10.6-0.7,15.2,2C87.5,50.8,90.8,63.1,85.2,72.8 M47.4,94.7c-5.2,0-10.2-2.1-13.9-5.7c2.5-0.6,4.8-1.6,7-2.8
		c11-6.4,15.8-19.4,12.4-31.1c8.4,2.4,14.6,10.2,14.6,19.4C67.5,85.7,58.5,94.7,47.4,94.7 M9.6,72.8c-2.6-4.6-3.3-10-2.1-15
		c1.8,1.8,3.8,3.4,6,4.7c4.1,2.4,8.7,3.6,13.5,3.6c7.4,0,14.4-3,19.5-8.4c2.1,8.5-1.5,17.8-9.4,22.4c-3,1.8-6.5,2.7-10,2.7
		C19.9,82.9,13.2,79,9.6,72.8 M9.6,28.9c2.6-4.5,6.9-7.9,11.9-9.3c-0.7,2.5-1.1,5-1.1,7.6c0,12.7,8.8,23.4,20.6,26.4
		c-6.3,6.1-16.1,7.6-24,3c-4.6-2.7-8-7.1-9.4-12.3C6.2,39.1,6.9,33.5,9.6,28.9 M47.4,7c5.2,0,10.2,2.1,13.9,5.7
		c-2.5,0.6-4.8,1.6-7,2.8C48.1,19.1,43.6,25,41.7,32c-1.3,4.8-1.2,9.8,0.2,14.6c-8.4-2.4-14.6-10.2-14.6-19.4C27.3,16,36.3,7,47.4,7
		 M85.2,28.9c2.6,4.6,3.3,10,2.1,15c-1.8-1.8-3.8-3.4-6-4.7c-6.2-3.6-13.5-4.6-20.5-2.7c-4.8,1.3-9.1,3.9-12.5,7.5
		c-0.8-3.3-0.8-6.8,0.1-10.1c1.4-5.2,4.7-9.6,9.4-12.3c4.6-2.7,10.1-3.4,15.2-2C78.2,20.9,82.5,24.2,85.2,28.9 M91.2,25.4
		c-3.6-6.3-9.4-10.8-16.4-12.7c-1.6-0.4-3.3-0.7-5-0.9C64.8,4.5,56.4,0,47.4,0c-9.3,0-17.5,4.7-22.3,11.9c-8.9,0.7-17,5.7-21.5,13.5
		C0,31.7-0.9,39,0.9,46c0.4,1.7,1,3.3,1.8,4.8c-3.9,8.1-3.6,17.6,0.9,25.4c4.6,8.1,12.8,12.8,21.4,13.5c5,7.4,13.4,11.9,22.4,11.9
		c9.3,0,17.5-4.7,22.3-11.9c8.9-0.7,17-5.7,21.5-13.5c4.6-8.1,4.7-17.6,0.9-25.4C96,42.8,95.7,33.2,91.2,25.4">
  </path>
 </g>
</svg>