<?xml version="1.0" encoding="UTF-8" standalone="no"?>
<!-- Created with Inkscape (http://www.inkscape.org/) -->

<svg
   width="60"
   height="60"
   viewBox="0 0 15.875 15.875"
   version="1.1"
   id="svg828"
   inkscape:version="1.1.2 (0a00cf5339, 2022-02-04)"
   sodipodi:docname="onoffice.svg"
   xmlns:inkscape="http://www.inkscape.org/namespaces/inkscape"
   xmlns:sodipodi="http://sodipodi.sourceforge.net/DTD/sodipodi-0.dtd"
   xmlns="http://www.w3.org/2000/svg"
   xmlns:svg="http://www.w3.org/2000/svg">
  <sodipodi:namedview
     id="namedview830"
     pagecolor="#ffffff"
     bordercolor="#666666"
     borderopacity="1.0"
     inkscape:pageshadow="2"
     inkscape:pageopacity="0.0"
     inkscape:pagecheckerboard="0"
     inkscape:document-units="mm"
     showgrid="false"
     units="px"
     inkscape:zoom="8.3956828"
     inkscape:cx="48.775068"
     inkscape:cy="20.963155"
     inkscape:window-width="1920"
     inkscape:window-height="1043"
     inkscape:window-x="1920"
     inkscape:window-y="0"
     inkscape:window-maximized="1"
     inkscape:current-layer="layer1" />
  <defs
     id="defs825" />
  <g
     inkscape:label="Layer 1"
     inkscape:groupmode="layer"
     id="layer1">
    <path
       style="fill:#80a9d7;fill-opacity:1;stroke-width:0.0614832"
       d="m 0.87377794,13.708685 c -0.458566,-0.108267 -0.8068319,-0.530695 -0.8068319,-0.978647 0,-0.287865 2.29473056,-8.7137611 2.50141136,-9.1847953 0.1437767,-0.327673 0.7446826,-0.8666321 1.1019757,-0.9883741 0.2398873,-0.081738 0.5805995,-0.09948 1.9103118,-0.09948 0.9368393,0 1.6183522,0.023674 1.6183522,0.056216 0,0.030919 -0.2282563,0.1668659 -0.5072363,0.3021037 C 5.5109024,3.388139 4.6976579,4.077981 3.9403876,5.1495855 3.22183,6.1664082 2.8183319,7.0962567 2.5467207,8.3612472 2.462639,8.7528454 2.4353553,9.1421874 2.4369565,9.9275964 c 0.00198,0.9708766 0.014039,1.0808846 0.1695667,1.5467566 0.2942068,0.881276 0.8134356,1.513617 1.5770709,1.92063 0.6673146,0.355675 0.5917086,0.37611 -1.3652749,0.36902 -0.9552952,-0.0034 -1.83033876,-0.02835 -1.94454126,-0.05532 z m 7.78465876,0.02496 c -0.09308,-0.09308 -0.03395,-0.135475 0.419575,-0.300886 C 10.40572,12.948517 11.735408,11.572209 12.574291,9.8139004 13.529244,7.8123048 13.68714,5.524663 12.964559,4.1596148 12.705999,3.6711629 12.070278,3.0362852 11.579676,2.7765694 11.368328,2.6646851 11.195407,2.5470985 11.195407,2.5152658 c 0,-0.034968 0.760514,-0.057477 1.92135,-0.056866 1.874715,9.869e-4 1.927179,0.00434 2.161502,0.1383372 0.342004,0.1955674 0.482761,0.4142063 0.512274,0.7957205 0.02152,0.2781681 -0.150245,0.9582333 -1.184713,4.6906437 -0.726126,2.6198958 -1.273596,4.4837698 -1.369233,4.6615838 -0.197043,0.366358 -0.487388,0.626556 -0.931677,0.834946 -0.336269,0.157723 -0.363406,0.160196 -1.971054,0.179633 -0.8965523,0.01083 -1.6504903,-6.89e-4 -1.6754193,-0.02562 z"
       id="path1252" />
  </g>
</svg>
