<svg width="37" viewBox="0 0 37 36" fill="none"
	xmlns="http://www.w3.org/2000/svg">
	<path fillRule="evenodd" clipRule="evenodd" d="M36.3939 0.87319C36.3142 0.164617 35.5345 -0.228267 34.925 0.141805C32.7765 1.44634 31.1355 2.70946 29.6924 4.17127C28.9628 3.98835 28.1318 3.88483 27.25 3.88483C26.3682 3.88483 25.5371 3.98836 24.8075 4.17128C23.3645 2.70949 21.7235 1.44638 19.575 0.141866C18.9655 -0.228206 18.1858 0.164678 18.1061 0.873251C17.963 2.14487 17.8506 3.28753 17.7636 4.38482H9.5808C1.69101 4.38482 0 6.07583 0 13.9656V16.304C0 16.6799 0.00383739 17.0417 0.0119995 17.3899L0 17.3848C0.236467 22.8235 0.920258 30.2752 3.3207 35.5088C3.35686 35.5876 3.40244 35.6587 3.45549 35.7215C3.87091 35.4546 4.29497 35.1855 4.72107 34.9151C8.85219 32.2937 13.176 29.55 11.6889 27.4552C11.3594 26.991 11.5847 25.8848 12.1539 25.8848H20.7521H22.0369C22.0476 25.8848 22.0584 25.8848 22.0691 25.8848H22.5C30.3062 25.8848 36.8598 20.6376 36.9978 12.8847H36.9985L36.9987 12.8246C36.9996 12.7615 37 12.6983 37 12.6348V11.4656C37 11.219 36.9983 10.9809 36.9949 10.751C36.9661 7.17841 36.8101 4.57112 36.3939 0.87319Z" fill="#1D2028" />
</svg>
