<?xml version="1.0" encoding="UTF-8"?>
<svg width="60px" height="60px" viewBox="0 0 60 60" version="1.1" xmlns="http://www.w3.org/2000/svg" xmlns:xlink="http://www.w3.org/1999/xlink">
    <title>github_node_icon</title>
    <g id="github_node_icon" stroke="none" stroke-width="1" fill="none" fill-rule="evenodd" stroke-linecap="round" stroke-linejoin="round">
        <g id="A" fill="#000000">
            <path d="M29.4102375,0 C13.1682837,0 0,13.7033557 0,30.6040268 C0,44.1285906 8.42609568,55.5986577 20.1137504,59.6436242 C21.5843426,59.924698 22.1211107,58.9783893 22.1211107,58.1714094 L22.0789562,52.4734228 C13.9001673,54.322953 12.17183,48.8653691 12.17183,48.8653691 C10.8329207,45.3310067 8.90665775,44.3899329 8.90665775,44.3899329 C6.23365674,42.4920805 9.11662763,42.5287248 9.11662763,42.5287248 C12.0694547,42.7421477 13.6239545,45.681745 13.6239545,45.681745 C16.2483774,50.3593289 20.5092004,49.0067114 22.1833389,48.2226846 C22.4507193,46.2495302 23.2127133,44.8977181 24.050184,44.1354362 C17.5222482,43.3622819 10.6546671,40.7359732 10.6546671,29.0085906 C10.6546671,25.6655034 11.8016728,22.9381208 13.6797591,20.7954362 C13.3798595,20.018255 12.3669455,16.9042953 13.9704249,12.6922148 C13.9704249,12.6922148 16.4366678,11.8707383 22.0580796,15.8303356 C24.4026765,15.1489933 26.917899,14.8115436 29.410639,14.8014765 C31.9089997,14.8127517 34.425828,15.1526174 36.7736367,15.8339597 C42.3854132,11.8699329 44.8544664,12.6958389 44.8544664,12.6958389 C46.4627635,16.9119463 45.4498494,20.0214765 45.1487454,20.7954362 C47.0336567,22.9377181 48.17183,25.6651007 48.17183,29.0085906 C48.17183,40.7661745 41.2934092,43.3550336 34.7413851,44.1132886 C35.8012713,45.0616107 36.7367012,46.9228188 36.7367012,49.777047 L36.697357,58.1750336 C36.697357,58.9896644 37.2325192,59.9420134 38.7223821,59.6500671 C50.4012044,55.5918121 58.8208765,44.1225503 58.8208765,30.6044295 C58.8208765,13.702953 45.6525928,0 29.410639,0 L29.4102375,0 Z" id="Path"></path>
        </g>
    </g>
</svg>