<svg width="1131" height="209" viewBox="0 0 1131 209" fill="none" xmlns="http://www.w3.org/2000/svg">
<path d="M0.899657 19.5717L10.0992 55.7949L45.1725 47.1704V205H88.8703V2.32258H58.6843L0.899657 19.5717ZM271.696 145.49V144.915C271.696 136.099 270.259 128.529 267.384 122.204C264.701 115.879 260.58 110.417 255.022 105.817C249.655 101.026 242.947 97.0012 234.898 93.743C227.04 90.2932 218.032 87.2267 207.874 84.5435C199.25 82.2436 192.063 80.2312 186.313 78.5063C180.755 76.7814 176.347 74.9606 173.088 73.0441C169.83 71.1275 167.53 69.0193 166.189 66.7194C165.039 64.2278 164.464 61.353 164.464 58.0948V57.5198C164.464 52.5367 166.572 48.4161 170.789 45.1579C175.197 41.7081 181.713 39.9832 190.338 39.9832C198.962 39.9832 207.587 41.804 216.211 45.4454C224.836 48.8953 233.652 53.6867 242.66 59.8197L265.659 26.4714C255.309 18.2301 243.906 11.9054 231.448 7.49732C219.182 3.08921 205.67 0.885151 190.913 0.885151C180.563 0.885151 171.076 2.32258 162.451 5.19743C153.827 8.0723 146.352 12.1929 140.028 17.5593C133.895 22.9257 129.103 29.3462 125.653 36.8209C122.203 44.1038 120.479 52.3451 120.479 61.5446V62.1196C120.479 72.0858 122.012 80.4229 125.078 87.1309C128.337 93.8389 132.84 99.4927 138.59 104.093C144.34 108.501 151.335 112.238 159.577 115.304C167.818 118.371 177.017 121.15 187.175 123.642C195.608 125.75 202.412 127.762 207.587 129.679C212.953 131.595 217.074 133.512 219.949 135.428C223.015 137.345 225.028 139.453 225.986 141.753C227.136 143.861 227.711 146.353 227.711 149.228V149.803C227.711 155.744 225.123 160.44 219.949 163.89C214.966 167.148 207.874 168.777 198.675 168.777C187.175 168.777 176.538 166.573 166.764 162.165C157.181 157.757 147.79 151.815 138.59 144.341L112.429 175.676C124.503 186.601 137.919 194.746 152.677 200.113C167.435 205.287 182.48 207.875 197.812 207.875C208.737 207.875 218.703 206.533 227.711 203.85C236.719 200.975 244.481 196.95 250.997 191.776C257.513 186.409 262.592 179.893 266.234 172.227C269.875 164.369 271.696 155.457 271.696 145.49ZM424.846 205V115.592C424.846 94.7013 419.383 78.4105 408.459 66.7194C397.535 55.0283 380.094 49.1827 356.137 49.1827C343.104 49.1827 331.988 50.3327 322.788 52.6326C313.589 54.9325 304.772 57.9032 296.34 61.5446L307.264 94.893C314.355 92.2098 321.063 90.1974 327.388 88.8558C333.904 87.3225 341.379 86.5559 349.812 86.5559C360.736 86.5559 368.978 88.9516 374.536 93.743C380.094 98.5345 382.873 105.53 382.873 114.729V117.317C377.315 115.4 371.565 113.867 365.624 112.717C359.874 111.567 353.07 110.992 345.212 110.992C336.013 110.992 327.58 112.046 319.913 114.155C312.439 116.071 305.922 119.042 300.364 123.067C294.998 127.091 290.782 132.17 287.715 138.303C284.648 144.436 283.115 151.719 283.115 160.152V160.727C283.115 168.393 284.457 175.197 287.14 181.139C290.015 186.888 293.848 191.776 298.639 195.8C303.431 199.825 308.989 202.892 315.314 205C321.83 206.917 328.73 207.875 336.013 207.875C346.745 207.875 355.849 206.15 363.324 202.7C370.798 199.059 377.219 194.267 382.585 188.326V205H424.846ZM383.448 150.665C383.448 158.715 380.285 165.231 373.961 170.214C367.828 175.197 359.586 177.689 349.237 177.689C342.146 177.689 336.396 176.06 331.988 172.802C327.58 169.543 325.376 164.944 325.376 159.002V158.427C325.376 151.528 328.059 146.257 333.425 142.616C338.792 138.974 346.17 137.153 355.562 137.153C360.928 137.153 365.911 137.728 370.511 138.878C375.302 139.837 379.615 141.178 383.448 142.903V150.665ZM581.775 205V115.592C581.775 94.7013 576.313 78.4105 565.389 66.7194C554.464 55.0283 537.023 49.1827 513.066 49.1827C500.034 49.1827 488.917 50.3327 479.718 52.6326C470.518 54.9325 461.702 57.9032 453.269 61.5446L464.194 94.893C471.285 92.2098 477.993 90.1974 484.318 88.8558C490.834 87.3225 498.309 86.5559 506.742 86.5559C517.666 86.5559 525.907 88.9516 531.465 93.743C537.023 98.5345 539.802 105.53 539.802 114.729V117.317C534.244 115.4 528.495 113.867 522.553 112.717C516.804 111.567 510 110.992 502.142 110.992C492.942 110.992 484.509 112.046 476.843 114.155C469.368 116.071 462.852 119.042 457.294 123.067C451.928 127.091 447.711 132.17 444.645 138.303C441.578 144.436 440.045 151.719 440.045 160.152V160.727C440.045 168.393 441.386 175.197 444.07 181.139C446.944 186.888 450.778 191.776 455.569 195.8C460.36 199.825 465.919 202.892 472.243 205C478.76 206.917 485.659 207.875 492.942 207.875C503.675 207.875 512.779 206.15 520.253 202.7C527.728 199.059 534.148 194.267 539.515 188.326V205H581.775ZM540.377 150.665C540.377 158.715 537.215 165.231 530.89 170.214C524.757 175.197 516.516 177.689 506.167 177.689C499.075 177.689 493.326 176.06 488.917 172.802C484.509 169.543 482.305 164.944 482.305 159.002V158.427C482.305 151.528 484.988 146.257 490.355 142.616C495.721 138.974 503.1 137.153 512.491 137.153C517.858 137.153 522.841 137.728 527.44 138.878C532.232 139.837 536.544 141.178 540.377 142.903V150.665ZM756.242 145.49V144.915C756.242 136.099 754.804 128.529 751.929 122.204C749.246 115.879 745.125 110.417 739.567 105.817C734.201 101.026 727.493 97.0012 719.443 93.743C711.585 90.2932 702.578 87.2267 692.42 84.5435C683.795 82.2436 676.608 80.2312 670.858 78.5063C665.3 76.7814 660.892 74.9606 657.634 73.0441C654.376 71.1275 652.076 69.0193 650.734 66.7194C649.584 64.2278 649.009 61.353 649.009 58.0948V57.5198C649.009 52.5367 651.118 48.4161 655.334 45.1579C659.742 41.7081 666.258 39.9832 674.883 39.9832C683.508 39.9832 692.132 41.804 700.757 45.4454C709.381 48.8953 718.198 53.6867 727.205 59.8197L750.204 26.4714C739.855 18.2301 728.451 11.9054 715.994 7.49732C703.727 3.08921 690.216 0.885151 675.458 0.885151C665.109 0.885151 655.622 2.32258 646.997 5.19743C638.372 8.0723 630.898 12.1929 624.573 17.5593C618.44 22.9257 613.649 29.3462 610.199 36.8209C606.749 44.1038 605.024 52.3451 605.024 61.5446V62.1196C605.024 72.0858 606.557 80.4229 609.624 87.1309C612.882 93.8389 617.386 99.4927 623.136 104.093C628.885 108.501 635.881 112.238 644.122 115.304C652.363 118.371 661.563 121.15 671.721 123.642C680.154 125.75 686.957 127.762 692.132 129.679C697.499 131.595 701.619 133.512 704.494 135.428C707.561 137.345 709.573 139.453 710.531 141.753C711.681 143.861 712.256 146.353 712.256 149.228V149.803C712.256 155.744 709.669 160.44 704.494 163.89C699.511 167.148 692.42 168.777 683.22 168.777C671.721 168.777 661.084 166.573 651.309 162.165C641.726 157.757 632.335 151.815 623.136 144.341L596.974 175.676C609.049 186.601 622.465 194.746 637.222 200.113C651.98 205.287 667.025 207.875 682.358 207.875C693.282 207.875 703.248 206.533 712.256 203.85C721.264 200.975 729.026 196.95 735.543 191.776C742.059 186.409 747.138 179.893 750.779 172.227C754.421 164.369 756.242 155.457 756.242 145.49Z" fill="#14213D"/>
<path d="M806.402 205V174.5H779.678V205H806.402ZM963.588 179.438L949.355 166.076C943.352 172.467 936.574 177.792 929.022 182.052C921.663 186.313 913.142 188.443 903.46 188.443C895.52 188.443 888.161 186.99 881.383 184.086C874.799 180.987 868.99 176.824 863.955 171.595C859.113 166.173 855.24 159.879 852.336 152.714C849.624 145.549 848.269 137.9 848.269 129.766C848.269 121.633 849.624 114.08 852.336 107.109C855.047 99.9439 858.823 93.7471 863.664 88.5185C868.505 83.0962 874.218 78.9327 880.802 76.0279C887.387 72.9295 894.455 71.3803 902.007 71.3803C912.271 71.3803 920.888 73.6073 927.86 78.0613C935.025 82.5152 941.609 87.8407 947.612 94.0375L962.427 78.3517C958.941 74.6724 955.165 71.1866 951.098 67.8945C947.031 64.6025 942.577 61.7945 937.736 59.4707C932.895 56.9532 927.569 55.0167 921.76 53.6611C915.95 52.3056 909.463 51.6278 902.298 51.6278C891.26 51.6278 880.996 53.758 871.507 58.0183C862.212 62.085 854.078 67.7009 847.107 74.866C840.329 82.0311 835.004 90.455 831.131 100.138C827.258 109.626 825.321 119.696 825.321 130.347C825.321 140.998 827.258 151.068 831.131 160.557C835.004 170.046 840.329 178.373 847.107 185.538C854.078 192.509 862.212 198.125 871.507 202.386C880.996 206.452 891.26 208.486 902.298 208.486C916.434 208.486 928.247 205.775 937.736 200.352C947.419 194.93 956.036 187.959 963.588 179.438ZM1130.38 129.766C1130.38 119.115 1128.44 109.046 1124.57 99.5566C1120.69 90.0677 1115.27 81.8375 1108.3 74.866C1101.33 67.7009 1093 62.085 1083.32 58.0183C1073.83 53.758 1063.47 51.6278 1052.24 51.6278C1040.81 51.6278 1030.26 53.758 1020.58 58.0183C1011.09 62.085 1002.86 67.7009 995.886 74.866C988.914 82.0311 983.492 90.455 979.619 100.138C975.746 109.626 973.809 119.696 973.809 130.347C973.809 140.998 975.746 151.068 979.619 160.557C983.492 170.046 988.914 178.373 995.886 185.538C1002.86 192.509 1011.09 198.125 1020.58 202.386C1030.07 206.452 1040.43 208.486 1051.66 208.486C1062.89 208.486 1073.35 206.452 1083.03 202.386C1092.71 198.125 1101.04 192.413 1108.01 185.248C1114.98 178.082 1120.4 169.755 1124.28 160.266C1128.34 150.584 1130.38 140.417 1130.38 129.766ZM1107.43 130.347C1107.43 138.481 1106.07 146.13 1103.36 153.295C1100.65 160.266 1096.87 166.366 1092.03 171.595C1087.19 176.824 1081.38 180.987 1074.61 184.086C1067.83 186.99 1060.37 188.443 1052.24 188.443C1044.3 188.443 1036.94 186.894 1030.16 183.795C1023.38 180.697 1017.48 176.533 1012.44 171.305C1007.6 166.076 1003.73 159.879 1000.82 152.714C998.113 145.549 996.757 137.9 996.757 129.766C996.757 121.633 998.113 114.08 1000.82 107.109C1003.53 99.9439 1007.21 93.7471 1011.86 88.5185C1016.7 83.0962 1022.51 78.9327 1029.29 76.0279C1036.07 72.9295 1043.52 71.3803 1051.66 71.3803C1059.6 71.3803 1066.96 72.9295 1073.73 76.0279C1080.51 79.1263 1086.42 83.3867 1091.45 88.8089C1096.49 94.0375 1100.36 100.234 1103.07 107.399C1105.98 114.565 1107.43 122.214 1107.43 130.347Z" fill="#FCA311"/>
</svg>
