<svg xmlns="http://www.w3.org/2000/svg" xmlns:xlink="http://www.w3.org/1999/xlink" fill="#fff" fill-rule="evenodd" stroke="#000" stroke-linecap="round" stroke-linejoin="round" viewBox="0 0 68.25 71.25"><use xlink:href="#a" x="3.125" y="3.125"/><defs><linearGradient id="b" x1="91.9%" x2="28.49%" y1="40.22%" y2="81.63%"><stop offset="18%" stop-color="#0052cc"/><stop offset="100%" stop-color="#2684ff"/></linearGradient><linearGradient id="c" x1="8.7%" x2="72.26%" y1="59.17%" y2="17.99%"><stop offset="18%" stop-color="#0052cc"/><stop offset="100%" stop-color="#2684ff"/></linearGradient></defs><symbol id="a" overflow="visible"><g fill-rule="nonzero" stroke="none"><path fill="#2684ff" d="M61.161 30.211 30.95 0 .74 30.211a2.54 2.54 0 0 0 0 3.581l30.211 30.21 30.211-30.21a2.54 2.54 0 0 0 0-3.581zM30.95 41.46l-9.462-9.462 9.462-9.462 9.462 9.462z"/><path fill="url(#b)" d="M30.95 22.599C24.755 16.405 24.724 6.37 30.881.138L10.114 20.774l11.268 11.268z"/><path fill="url(#c)" d="M40.437 31.973 30.95 41.46a15.93 15.93 0 0 1 0 22.536l20.749-20.749z"/></g></symbol></svg>