<svg width="127" height="126" viewBox="0 0 127 126" fill="none" xmlns="http://www.w3.org/2000/svg">
<path fill-rule="evenodd" clip-rule="evenodd" d="M63.05 0C97.87 0 126.1 28.21 126.1 63C126.1 97.79 97.87 126 63.05 126C28.23 126 0 97.79 0 63C0 28.21 28.23 0 63.05 0Z" fill="#2B64CD"/>
<path fill-rule="evenodd" clip-rule="evenodd" d="M51.3501 67.57C51.3501 71.06 54.1801 73.89 57.6801 73.89C58.5601 73.89 59.4001 73.71 60.1601 73.39L60.1801 73.41L93.7801 60.51L100.96 57.76L102.3 57.25L105.92 55.86C102.93 36.56 86.2301 21.77 66.0801 21.77C63.0701 21.77 60.1301 22.1 57.3001 22.73L57.3301 22.71L7.16007 33.85C4.84007 38.28 3.03007 43.02 1.82007 47.99L31.4401 41.41C27.8201 47.45 25.7401 54.52 25.7401 62.07C25.7401 65.7 26.2201 69.22 27.1301 72.57L2.88007 81.87C4.16007 85.94 5.84007 89.83 7.88007 93.49L32.3201 84.11C37.6201 92.19 45.7501 98.26 55.3001 100.9L29.6801 116.44C33.9501 119.11 38.5701 121.28 43.4501 122.87L85.4601 97.38C94.2501 92.55 101.04 84.54 104.28 74.91C104.61 74.14 104.8 73.29 104.8 72.4C104.8 68.91 101.97 66.08 98.4701 66.08C95.3501 66.08 92.7601 68.33 92.2401 71.3C88.4401 82.09 78.1401 89.83 66.0401 89.83C50.7001 89.83 38.2701 77.4 38.2701 62.08C38.2701 46.75 50.7001 34.33 66.0401 34.33C76.3801 34.33 85.4001 39.98 90.1801 48.35L55.9001 61.5C53.2701 62.27 51.3501 64.7 51.3501 67.57Z" fill="white"/>
</svg>
