<svg width="40" height="40" viewBox="0 0 40 40" fill="none" xmlns="http://www.w3.org/2000/svg">
<path d="M4.98031 18.869L1.09895 19.6237C0.513106 19.7377 0.156828 20.3361 0.33589 20.9054L6.12131 39.3001C6.25233 39.7166 6.63853 40 7.07524 40H11.7928C12.2265 40 12.6108 39.7205 12.7443 39.3078L17.7861 23.7241C17.8458 23.5396 18.0175 23.4147 18.2114 23.4147C18.4052 23.4147 18.577 23.5396 18.6367 23.7241L23.6785 39.3079C23.812 39.7205 24.1963 40 24.6299 40H29.2063C29.6327 40 30.0121 39.7297 30.1514 39.3267L38.5658 14.9853C38.7903 14.3358 38.3079 13.6586 37.6207 13.6586H32.9392C32.4975 13.6586 32.1082 13.9482 31.9813 14.3712L27.4348 29.5263C27.3649 29.7592 27.1506 29.9187 26.9074 29.9187C26.6673 29.9187 26.4548 29.7631 26.3824 29.5342L21.6843 14.6822C21.5528 14.2664 21.167 13.9838 20.7309 13.9838H15.8474C15.4147 13.9838 15.0311 14.2621 14.8968 14.6734L9.99413 29.6877C9.94914 29.8255 9.82064 29.9187 9.67569 29.9187C9.52988 29.9187 9.40082 29.8244 9.35653 29.6855L6.12393 19.5469C5.96983 19.0636 5.47827 18.7722 4.98031 18.869Z" fill="#140505"/>
<path d="M13.1484 7.93724L13.8618 1.16006C13.926 0.550249 14.5189 0.141305 15.1117 0.297905L21.9947 2.11606C22.3659 2.21411 22.6482 2.51598 22.7211 2.89288L23.3857 6.32679C23.4913 6.87232 23.1319 7.39931 22.5855 7.50019L14.3245 9.02531C13.6674 9.14662 13.0785 8.60175 13.1484 7.93724Z" fill="#E94F2E"/>
</svg>
