<svg xmlns="http://www.w3.org/2000/svg" width="131" height="24" fill="none"><path fill="#E94F2E" d="M57.31 1.043a.28.28 0 0 1 .212.216l.58 2.705a.28.28 0 0 1-.226.337l-5.66 1.026a.282.282 0 0 1-.33-.313l.596-4.767a.282.282 0 0 1 .344-.24z"/><path fill="url(#a)" fill-rule="evenodd" d="M88.975 23.642c1.965 0 3.687-.73 4.737-2.02.176-.216.58-.127.61.151l.126 1.212a.28.28 0 0 0 .28.253h2.943a.28.28 0 0 0 .282-.283V.407a.28.28 0 0 0-.282-.282h-3.194a.28.28 0 0 0-.283.282v8.467c0 .283-.407.415-.607.214-1.046-1.057-2.637-1.663-4.394-1.663-.843 0-1.626.114-2.341.328v4.213c.725-.73 1.732-1.154 2.962-1.154 2.64 0 4.35 1.926 4.35 4.69s-1.71 4.66-4.35 4.66c-1.23 0-2.237-.418-2.962-1.14v4.343a8 8 0 0 0 2.123.277m18.861 0c3.873 0 6.614-1.886 7.383-5.04a.273.273 0 0 0-.269-.335h-2.958a.3.3 0 0 0-.277.2c-.497 1.334-1.832 2.068-3.816 2.068-2.418 0-3.832-1.262-4.187-3.759a.275.275 0 0 1 .274-.311l10.962-.03a.283.283 0 0 0 .282-.282v-.868c0-4.784-2.92-7.86-7.518-7.86-4.504 0-7.642 3.324-7.642 8.14 0 4.753 3.2 8.077 7.766 8.077m-.093-13.11c2.165 0 3.594 1.274 3.719 3.228a.27.27 0 0 1-.273.282h-7.09a.273.273 0 0 1-.271-.326c.446-2.087 1.787-3.184 3.915-3.184m17.07 12.532a.28.28 0 0 1-.26.174h-3.348a.28.28 0 0 1-.263-.178l-5.864-14.782a.282.282 0 0 1 .262-.387h3.428c.117 0 .222.073.264.183l2.602 6.87a81 81 0 0 1 1.03 3.04c.09.289.586.29.677.002.277-.878.663-1.947 1.089-3.043l2.725-6.873a.28.28 0 0 1 .263-.179h3.299c.201 0 .338.205.26.391z" clip-rule="evenodd"/><path fill="#140505" d="M0 15.534c0 4.877 3.044 8.108 7.704 8.108 3.888 0 6.81-2.31 7.407-5.71a.273.273 0 0 0-.273-.317h-3.277c-.13 0-.243.09-.28.215-.463 1.542-1.764 2.394-3.577 2.394-2.423 0-3.914-1.801-3.914-4.69s1.615-4.722 4.039-4.722c1.726 0 2.968.827 3.451 2.427.038.124.15.213.28.213h3.254c.168 0 .3-.146.274-.312-.527-3.516-3.34-5.715-7.415-5.715C3.138 7.425 0 10.781 0 15.533M26.68 8.05a.276.276 0 0 0-.215-.272 6.6 6.6 0 0 0-1.463-.166c-1.59 0-2.824.616-3.603 1.602-.181.23-.638.14-.667-.152l-.086-.884a.28.28 0 0 0-.28-.256H17.33a.28.28 0 0 0-.282.283v14.75c0 .156.126.283.282.283h3.226a.28.28 0 0 0 .282-.283v-7.173c0-2.982 1.709-4.442 4.442-4.442h1.116a.28.28 0 0 0 .282-.283zm.216 7.484c0 4.784 3.448 8.076 8.201 8.076s8.201-3.292 8.201-8.076-3.448-8.078-8.2-8.078c-4.754 0-8.202 3.293-8.202 8.078m3.79 0c0-2.796 1.802-4.691 4.411-4.691 2.61 0 4.411 1.895 4.411 4.69s-1.801 4.691-4.41 4.691-4.412-1.895-4.412-4.69m43.298 8.108c1.964 0 3.686-.73 4.736-2.02.176-.216.581-.127.61.151l.126 1.212a.28.28 0 0 0 .28.253h2.943a.28.28 0 0 0 .282-.283V.407a.28.28 0 0 0-.282-.282h-3.194a.28.28 0 0 0-.282.282v8.467c0 .283-.408.415-.607.214-1.047-1.057-2.638-1.663-4.395-1.663-4.629 0-7.425 3.418-7.425 8.202 0 4.753 2.765 8.015 7.208 8.015m.838-3.48c-2.64 0-4.256-1.926-4.256-4.66s1.616-4.69 4.256-4.69 4.35 1.926 4.35 4.69-1.71 4.66-4.35 4.66"/><path fill="#140505" fill-rule="evenodd" d="M44.468 11.299a.282.282 0 0 0-.218.365l3.685 11.378a.28.28 0 0 0 .269.196h3.285c.123 0 .232-.08.27-.196l2.049-6.39a99 99 0 0 0 .847-2.866c.083-.301.599-.29.673.013.182.75.439 1.686.778 2.79l2.05 6.452a.28.28 0 0 0 .27.197h3.133c.12 0 .228-.076.267-.19l5.117-14.782a.282.282 0 0 0-.267-.375h-3.403a.28.28 0 0 0-.27.199l-1.988 6.387a86 86 0 0 0-.696 2.565c-.076.3-.566.296-.64-.004a68 68 0 0 0-.683-2.56L57.007 8.09a.28.28 0 0 0-.27-.199H53.3a.28.28 0 0 0-.269.197l-2.05 6.39c-.32.98-.55 1.728-.747 2.534-.074.302-.541.302-.609-.002a46 46 0 0 0-.632-2.533l-1.087-3.548a.28.28 0 0 0-.32-.195z" clip-rule="evenodd"/><defs><linearGradient id="a" x1="93.499" x2="84.499" y1="15.013" y2="16.013" gradientUnits="userSpaceOnUse"><stop stop-color="#E94F2E"/><stop offset="1" stop-color="#CA2400"/></linearGradient></defs></svg>