<svg xmlns="http://www.w3.org/2000/svg" xmlns:xlink="http://www.w3.org/1999/xlink" viewBox="0 0 63 66" fill="#fff" fill-rule="evenodd" stroke="#000" stroke-linecap="round" stroke-linejoin="round"><use xlink:href="#A" x=".5" y=".5"/><symbol id="A" overflow="visible"><path d="M8.645 15.304l13.008 7.8a3.72 3.72 0 0 0 4.589-.601 4.01 4.01 0 0 0 1.227-2.908V3.962a3.81 3.81 0 0 0-1.861-3.42 3.81 3.81 0 0 0-3.893 0 3.81 3.81 0 0 0-1.861 3.42v8.896l-7.387-4.43a3.79 3.79 0 0 0-2.922-.4c-.986.265-1.818.94-2.3 1.844-1.057 1.9-.44 4.28 1.4 5.422m31.27 7.8l13.008-7.8c1.84-1.143 2.458-3.533 1.4-5.424a3.75 3.75 0 0 0-5.22-1.452l-7.3 4.37v-8.84A3.81 3.81 0 0 0 39.94.534a3.81 3.81 0 0 0-3.889 0 3.81 3.81 0 0 0-1.863 3.414v15.323a4.08 4.08 0 0 0 .494 2.367c.482.903 1.314 1.57 2.3 1.844a3.71 3.71 0 0 0 2.922-.4m-11.567 8.894c.013-.25.108-.5.272-.68l1.52-1.58a1.06 1.06 0 0 1 .658-.282h.057a1.05 1.05 0 0 1 .656.282l1.52 1.58a1.12 1.12 0 0 1 .272.681v.06a1.13 1.13 0 0 1-.272.683L31.5 34.3a1.04 1.04 0 0 1-.656.284h-.057c-.246-.014-.48-.115-.658-.284l-1.52-1.58a1.13 1.13 0 0 1-.272-.683zm-4.604-.65v1.364a1.54 1.54 0 0 0 .372.93l5.16 5.357a1.42 1.42 0 0 0 .895.386h1.312a1.42 1.42 0 0 0 .895-.386l5.16-5.357a1.54 1.54 0 0 0 .372-.93v-1.364a1.54 1.54 0 0 0-.372-.93l-5.16-5.357a1.42 1.42 0 0 0-.895-.386H30.16a1.42 1.42 0 0 0-.895.386l-5.16 5.367a1.55 1.55 0 0 0-.372.93m-21.818-3.71l7.365 4.417-7.365 4.413A4.06 4.06 0 0 0 .516 41.88a3.75 3.75 0 0 0 2.3 1.844c.986.274 2.042.133 2.922-.392l13.008-7.8c1.2-.762 1.9-2.078 1.9-3.492a4.16 4.16 0 0 0-1.9-3.492l-13.008-7.8a3.79 3.79 0 0 0-2.922-.4c-.986.265-1.818.94-2.3 1.844-1.057 1.9-.44 4.278 1.4 5.422m38.995 4.442a4 4 0 0 0 1.91 3.477l13 7.8c.88.524 1.934.666 2.92.392s1.817-.94 2.3-1.843a4.05 4.05 0 0 0-1.4-5.424l-7.356-4.414 7.365-4.417c1.84-1.143 2.457-3.53 1.4-5.422a3.74 3.74 0 0 0-2.3-1.844c-.987-.274-2.042-.134-2.92.4l-13 7.8a4 4 0 0 0-1.91 3.507m-16.655 8.446a3.7 3.7 0 0 0-2.611.464l-13.008 7.8c-1.84 1.143-2.456 3.53-1.4 5.422.483.903 1.314 1.57 2.3 1.843a3.75 3.75 0 0 0 2.922-.392l7.387-4.43v8.83a3.81 3.81 0 0 0 5.755 3.425 3.81 3.81 0 0 0 1.858-3.425V44.406a3.91 3.91 0 0 0-3.205-3.903m28.66 8.276l-13.008-7.8a3.75 3.75 0 0 0-2.922-.392 3.74 3.74 0 0 0-2.3 1.843 4.09 4.09 0 0 0-.494 2.37v15.25a3.81 3.81 0 0 0 5.755 3.425 3.81 3.81 0 0 0 1.859-3.425v-8.764l7.287 4.37a3.79 3.79 0 0 0 2.922.4c.986-.265 1.818-.94 2.3-1.844 1.057-1.9.44-4.28-1.4-5.422" stroke="none" fill="#29b5e8" fill-rule="nonzero"/></symbol></svg>