<svg width="127" height="29" xmlns="http://www.w3.org/2000/svg"><path d="M8.75 18.924c4.266 0 5.93-2.605 5.93-7.062 0-4.456-1.946-7.563-5.805-7.563H4.55v14.625h4.2zM0 .408h9.44c5.992 0 9.851 4.833 9.851 11.454 0 3.64-1.224 6.842-3.577 8.819-1.663 1.38-3.828 2.165-6.651 2.165H0V.408zm32.286 14.405c0-3.139-1.474-5.273-4.078-5.273-2.636 0-4.08 2.134-4.08 5.273 0 3.138 1.444 5.24 4.08 5.24 2.604 0 4.078-2.102 4.078-5.24m-12.487 0c0-4.802 3.42-8.505 8.409-8.505 4.988 0 8.408 3.703 8.408 8.505 0 4.8-3.42 8.504-8.408 8.504-4.99 0-8.41-3.703-8.41-8.504m17.523 0c0-4.802 3.138-8.505 8.032-8.505 4.174 0 6.746 2.417 7.311 5.9h-4.173c-.282-1.412-1.38-2.48-2.949-2.48-2.573 0-3.89 1.978-3.89 5.085 0 3.044 1.223 5.084 3.827 5.084 1.726 0 2.95-.91 3.232-2.73h4.11c-.282 3.42-2.95 6.15-7.248 6.15-5.082 0-8.252-3.703-8.252-8.504m26.61 8.034v-1.883h-.094c-1.098 1.475-2.353 2.322-4.612 2.322-3.577 0-5.585-2.29-5.585-5.806V6.747h4.235v10.011c0 1.883.848 2.919 2.667 2.919 2.008 0 3.232-1.506 3.232-3.64v-9.29h4.267v16.1h-4.11zm24.899 0h4.266v-16.1H88.83v16.1zm0-18.35h4.266V.507H88.83v3.99zm17.3 9.593c0-2.353-1.255-4.361-3.828-4.361-2.165 0-3.608 1.694-3.608 4.393 0 2.73 1.443 4.331 3.64 4.331 2.698 0 3.796-1.977 3.796-4.362m-11.264 9.226H99.1c.346 1.004 1.255 1.789 3.232 1.789 2.416 0 3.577-1.161 3.577-3.358V19.99h-.094c-.942 1.067-2.165 1.883-4.205 1.883-3.576 0-7.09-2.824-7.09-7.688 0-4.802 2.886-7.877 6.965-7.877 2.008 0 3.482.784 4.455 2.134h.063V6.747h4.11v14.875c0 2.26-.722 3.797-1.914 4.896-1.35 1.255-3.42 1.82-5.804 1.82-4.393 0-7.091-1.883-7.53-5.021m21.252-14.373h.094c1.098-1.726 2.573-2.636 4.769-2.636 3.326 0 5.553 2.51 5.553 6.025v10.513h-4.267v-9.885c0-1.726-1.004-2.95-2.792-2.95-1.883 0-3.263 1.506-3.263 3.703v9.132h-4.267V6.747h4.173v2.197zm-37.011.376c-3.326-.72-4.895-1.254-4.895-3.075 0-1.6 1.6-2.636 4.048-2.636 2.233 0 3.94 1.048 4.29 3.138h4.376C86.48 2.39 83.247 0 78.29 0c-4.988 0-8.597 2.291-8.597 6.716 0 4.676 3.671 5.743 7.687 6.653 3.42.785 5.554 1.224 5.554 3.42 0 2.072-2.04 2.888-4.361 2.888-3.2 0-4.738-1.067-5.052-3.766h-4.455c.157 4.739 3.608 7.437 9.695 7.437 5.051 0 8.722-2.541 8.722-7.092 0-4.833-3.765-5.931-8.377-6.936"/></svg>