<svg viewBox="0.5 0 409.9614650293385 80" xmlns="http://www.w3.org/2000/svg" width="2500" height="488"><path d="M40.23 40L.5 80H88V0H.5zM80 72H19l32.73-32.2L19.88 8H80zm50.43-19.13C129.38 49.46 127.59 45 118 17h-8l16 45h8.54L151 17h-8c-9.91 28-11.65 32.72-12.57 35.87zM156 29h7v33h-7zm23 4v-4h-7v33h7V38a14.33 14.33 0 0 1 9-3.12 27.31 27.31 0 0 1 4 .12v-7h-3c-4.46 0-7.37 2-10 5zm40 20c-2.8 1.84-6 4-10 4-2.63 0-5-1.23-5-3V29h-7v27c0 4.17 4.75 7 10 7 4.86 0 7.74-1.42 11.79-4.12V62H226V29h-7zm30.79-9.73l-5-1.45c-3.55-1.05-4.53-1.84-4.53-3.81s1.25-4.14 5.58-4.14c3.61 0 7.35 1.21 10.15 2.13v-6c-2.8-.72-6.2-1.91-9.16-1.91-9.78 0-13.62 4.93-13.62 10.26s2.48 7.62 7.6 9.2l5 1.51c3.87 1.18 4.59 2.23 4.59 4.07 0 2.1-1.68 4.4-6.14 4.4A28.77 28.77 0 0 1 233 55v6a37.64 37.64 0 0 0 11 1.8c10.24 0 13.84-5.21 13.84-10.27-.02-4.73-1.94-7.53-8.05-9.26zM295.95 17H264v7h12v38h8V24h11.95zM345 57c-1.64 0-3.34-.15-4-1s-1-.8-1-6V35h10v-6h-10v-8h-7v8h-6v6h6v16c0 4.6.69 7 2 8.76a8.73 8.73 0 0 0 6.92 3c3.43 0 3.78-.18 8.07-.8V56c-4.25.81-2.99 1-4.99 1zm45-40h7v45h-7zm-233.98 6.8l6.98.2v-7h-6.98zm214.69 4.29A46.78 46.78 0 0 0 356 31v6c4.4-1.45 9.65-2.67 12.8-2.67 2.5 0 4 .53 4.89 1.71A6.71 6.71 0 0 1 375 40v2a64.29 64.29 0 0 0-14.56 2.19c-4 1.12-6.12 3.7-6.12 8.3 0 5 3.27 10.36 10.5 10.36A13 13 0 0 0 375 58v4h7l-.09-20.77c0-3.55-.19-6.59-.91-8.23-1.77-3.94-5.56-4.91-10.29-4.91zM375 54a11.8 11.8 0 0 1-8.09 3.52c-4.27 0-5.78-2.63-5.78-5A4.78 4.78 0 0 1 365 48a45.7 45.7 0 0 1 10-1zm-66.26-25.91c-4.52 0-8.09.79-10.84 2.74-4.14 2.94-6.25 8-6.25 15.21 0 6.77 2.22 11.57 6.25 14.27a17.14 17.14 0 0 0 9.64 2.5c11 0 16.69-6.24 16.69-18.22 0-10.81-5.03-16.5-15.49-16.5zm-.87 29.14c-5.16 0-8.67-2.19-8.67-12.39 0-7.09 2.92-11.16 9.14-11.16 6.82 0 8.27 4.27 8.27 12.08.01 9.02-3.44 11.47-8.73 11.47z" fill="#3b61ff"/></svg>