<svg width="40" height="40" viewBox="0 0 40 40" fill="none" xmlns="http://www.w3.org/2000/svg">
<path d="M30.0083 20.9944H39.9973L30.0083 10.9917V20.9944Z" fill="#09B8A0"/>
<path d="M18.9718 21.0144H11.0405C10.4665 21.0144 10.001 20.55 9.99997 19.9764V12.0496C9.99997 11.4754 10.4658 11.0099 11.0405 11.0099H18.9736C19.5466 11.0109 20.0105 11.4753 20.0105 12.0478V19.9729C20.0105 20.5471 19.5447 21.0126 18.97 21.0126M30.0049 10.9884L21.469 2.45918C21.0493 2.03983 20.5586 1.69814 20.0195 1.44994V1.4607C19.3656 1.15789 18.6537 1.00069 17.9331 1H12.0738C10.7692 1.00119 9.51709 1.51349 8.5863 2.42691L1.39593 9.61164V9.6224C0.49993 10.5508 -0.000451194 11.7905 6.18382e-05 13.0803V28.9305C-0.0067181 30.2921 0.544276 31.5973 1.52509 32.5426L7.8687 38.8812C8.20204 39.2058 8.68775 39.3196 9.13076 39.1768C9.57377 39.034 9.90138 38.6581 9.98203 38.2H10.0036V32.055C10.0036 31.4818 10.4686 31.0171 11.0423 31.0171H17.9277C19.2577 31.0191 20.5334 30.4899 21.4708 29.5471H21.4816L28.4782 22.556V22.5399C28.5518 22.47 28.6182 22.3929 28.6881 22.3194L30.0103 20.9911L30.0049 10.9884Z" fill="#21323B"/>
<path d="M39.9991 36.5705C40 36.561 40 36.5514 39.9991 36.5418V20.9946H30.0083V36.5418C30.0083 36.61 29.9976 36.6781 29.9976 36.7462C30.0025 38.1252 31.1201 39.2419 32.5002 39.2469H37.5055C38.8206 39.2461 39.9105 38.2276 39.9991 36.9165V36.5705Z" fill="#21323B"/>
</svg>
