<svg viewBox="0 0 512 512" xmlns="http://www.w3.org/2000/svg" class="a"><style>.b{fill: #1C447F;}.a{}</style><path d="M224 426.66c-5.89 0-10.67 4.77-10.67 10.66v21.33c0 5.88 4.77 10.66 10.66 10.66 5.88 0 10.66-4.78 10.66-10.67V437.3c0-5.89-4.78-10.67-10.67-10.67Z" class="b"/><path d="M181.333 426.66c-5.89 0-10.67 4.77-10.67 10.66v21.33c0 5.88 4.77 10.66 10.66 10.66 5.88 0 10.66-4.78 10.66-10.67V437.3c0-5.89-4.78-10.67-10.67-10.67Z" class="b"/><path d="M352 320h-13.57c51.77-28.7 87.06-83.52 88.08-146.59 .25-.9.55-1.78.55-2.76 0-1.07-.15-2.12-.45-3.1C424.96 74.87 349.04-.03 255.98-.03 161.87-.03 85.31 76.535 85.31 170.637c0 64.213 35.691 120.213 88.23 149.333h-13.57c-88.235 0-160 71.76-160 160v21.33c0 5.88 4.77 10.66 10.667 10.66H501.3c5.88 0 10.66-4.78 10.66-10.67v-21.34c-.01-88.24-71.77-160-160.01-160ZM106.667 170.667c0-46.26 68.39-85.333 149.333-85.333 80.93 0 149.33 39.083 149.33 85.333s-68.394 85.333-149.34 85.333c-80.94 0-149.333-39.083-149.333-85.333Zm256 320H127.99v-96c0-5.89 4.77-10.67 10.66-10.67H351.99c5.88 0 10.66 4.77 10.66 10.66v96Z" class="b"/><path d="M309.33 426.66c-5.89 0-10.67 4.77-10.67 10.66v21.33c0 5.88 4.77 10.66 10.66 10.66 5.88 0 10.66-4.78 10.66-10.67V437.3c0-5.89-4.78-10.67-10.67-10.67Z" class="b"/><path d="M266.66 426.66c-5.89 0-10.67 4.77-10.67 10.66v21.33c0 5.88 4.77 10.66 10.66 10.66 5.88 0 10.66-4.78 10.66-10.67V437.3c-.01-5.89-4.78-10.67-10.67-10.67Z" class="b"/></svg>