<svg viewBox="0 0 512 512" xmlns="http://www.w3.org/2000/svg" class="a"><style>.b{fill: #1C447F;}.a{}</style><path d="M436.01 62.29C387.801 22.116 323.86-.01 255.99-.01 188.11-.01 124.18 22.11 75.97 62.28 26.97 103.113-.02 157.63-.02 215.813c0 34.44 9.842 68.7 28.46 99.077 16.461 26.851 39.846 50.83 67.93 69.74v112.34c0 6.06 3.65 11.53 9.26 13.85 1.85.76 3.8 1.14 5.73 1.14 3.9 0 7.741-1.53 10.61-4.4l80.643-80.642c17.48 3.12 35.39 4.7 53.35 4.7 67.87 0 131.8-22.125 180.01-62.3 49-40.84 75.98-95.358 75.98-153.534 0-58.18-26.99-112.699-75.99-153.532Z" class="b"/></svg>