<svg viewBox="0 0 512 512" xmlns="http://www.w3.org/2000/svg" class="a"><style>.b{fill: #1c447f;}.a{}</style><g transform="scale(.99824)" class="a"><path d="M335.092 102.697l16.34 16.34 -104.76 104.757 42.42 42.42 104.75-104.76 16.34 16.34 23.46-23.47 15.42 15.42 21.21-21.22 -15.43-15.43 21.21-21.22 15.42 15.42 21.21-21.214 -15.43-15.43 15.59-15.6L437.72-.07l-15.6 15.594L406.57-.02 385.35 21.2l15.54 15.54 -21.214 21.21 -15.55-15.55 -21.22 21.213 15.54 15.54Z" class="b"/><path d="M278.139 456.93c17.7-23.69 22.81-54.31 23.13-56.416l0 0c3.94-32.41 43.48-57.73 43.83-57.95 52.83-32.94 89.5-70.63 93.5-74.81 7.63-7.98 11.7-18.44 11.46-29.45 -.24-11.04-4.78-21.33-12.76-28.96 -10.67-10.21-25.43-13.56-38.78-10.17L289.059 308.63l-84.86-84.86L313.658 114.31c3.38-13.36.04-28.11-10.16-38.78 -7.68-8.01-17.93-12.53-28.96-12.76 -11.02-.24-21.48 3.83-29.45 11.46 -4.19 4.006-41.88 40.67-74.78 93.46 -.26.39-25.57 39.94-57.979 43.88l0 0c-2.11.32-32.729 5.43-56.416 23.14C24.91 257.87 5.38 292.69.9 332.75c-4.45 39.8 6.583 80.53 31.043 114.702 4.494 6.27 9.44 12.32 14.729 17.96l.33.36 .36.33c5.64 5.27 11.68 10.23 17.961 14.72 34.167 24.45 74.902 35.48 114.7 31.04 40.05-4.48 74.87-24.01 98.041-55.01Zm-143.43-15.11l-63.65-63.64 21.214-21.22 63.64 63.64Zm42.42-42.43l-63.64-63.64 21.21-21.22 63.64 63.64Zm42.42-42.43l-63.64-63.64 21.21-21.22 63.64 63.64Z" class="b"/></g></svg>