<svg viewBox="0 0 512 512" xmlns="http://www.w3.org/2000/svg" class="a"><style>.b{fill: #1C447F;}.a{}</style><g transform="" class="a"><path d="M230.9 253.371c13.369 8.91 36.82 8.91 50.19-.01 0-.01 0-.01 0-.01L508.95 101.44c-7.48-21.616-28.02-37.188-52.15-37.188H55.14c-24.125 0-44.67 15.57-52.143 37.188L230.86 253.35s0 0 0 0Z" class="b"/><path d="M297.746 278.328c-.01 0-.01 0-.01 0 -11.71 7.8-26.73 11.7-41.75 11.7s-30.036-3.9-41.74-11.71c-.01-.01-.01-.01-.01-.01L-.02 135.47V392.54c0 30.41 24.747 55.16 55.16 55.16h401.666c30.41 0 55.16-24.75 55.16-55.17V135.46Z" class="b"/></g></svg>