<svg viewBox="0 0 512 512" xmlns="http://www.w3.org/2000/svg" class="a"><style>.b{fill: #1C447F;}.a{}</style><g transform="scale(.99791)" class="a"><path d="M84.754 106.069c0-8.29-6.72-15-15-15H37.621c-8.29 0-15 6.71-15 15 0 8.28 6.71 15 15 15h32.133c8.28 0 15-6.72 15-15Z" class="b"/><path d="M82.349 168.08l-27.83 16.06c-7.18 4.14-9.64 13.31-5.49 20.49 2.77 4.81 7.82 7.5 13 7.5 2.54 0 5.12-.65 7.48-2.02l27.82-16.07c7.17-4.15 9.63-13.32 5.49-20.49 -4.15-7.18-13.32-9.631-20.49-5.49Z" class="b"/><path d="M54.519 27.994l27.82 16.067c2.36 1.36 4.94 2.01 7.48 2.01 5.18 0 10.22-2.69 13-7.503 4.14-7.18 1.68-16.348-5.49-20.49L69.49 2.01C62.32-2.14 53.14.32 49 7.5c-4.15 7.17-1.69 16.348 5.49 20.49Z" class="b"/><path d="M435.28 1.07h-241c-30.42 0-55.166 24.747-55.166 55.16v401.668c0 30.41 24.74 55.16 55.166 55.16h241c30.41 0 55.166-24.75 55.166-55.166V56.22c0-30.419-24.75-55.17-55.166-55.17Zm-191.166 150c-24.82 0-45-20.19-45-45 0-24.82 20.18-45.001 45-45.001 24.81 0 44.99 20.18 44.99 45.001 0 24.81-20.19 45-45 45Zm100.608-30.14c-2.8 2.8-6.66 4.4-10.61 4.4 -3.95 0-7.81-1.6-10.61-4.4 -2.79-2.79-4.39-6.65-4.39-10.6 0-3.96 1.6-7.82 4.39-10.61 2.8-2.79 6.66-4.39 10.61-4.39 3.95 0 7.81 1.6 10.61 4.39 2.79 2.79 4.39 6.66 4.39 10.61 0 3.95-1.6 7.8-4.39 10.6Z" class="b"/><path d="M244.117 91.069c-8.28 0-15 6.72-15 15 0 8.27 6.72 15 15 15 8.27 0 14.99-6.73 14.99-15 0-8.271-6.73-15.01-15-15.01Z" class="b"/></g></svg>