<?xml version="1.0" encoding="utf-8"?>
<!-- Generator: Adobe Illustrator 26.3.1, SVG Export Plug-In . SVG Version: 6.00 Build 0)  -->
<svg version="1.1" id="Layer_1" xmlns="http://www.w3.org/2000/svg" xmlns:xlink="http://www.w3.org/1999/xlink" x="0px" y="0px"
	 viewBox="0 0 312 519" style="enable-background:new 0 0 312 519;" xml:space="preserve">
<style type="text/css">
	.st0{fill:url(#SVGID_1_);}
	.st1{fill:url(#SVGID_00000144326323118290566500000001021854938246016438_);}
	.st2{fill:url(#SVGID_00000093171132303222995920000017802068266783064468_);}
	.st3{fill:url(#SVGID_00000029754886137071664470000002962084141719508892_);}
</style>
<g>
	<linearGradient id="SVGID_1_" gradientUnits="userSpaceOnUse" x1="165.0001" y1="109.0331" x2="259.0001" y2="109.0331">
		<stop  offset="0" style="stop-color:#1C447F"/>
		<stop  offset="0.1248" style="stop-color:#447194"/>
		<stop  offset="0.2066" style="stop-color:#5A899F"/>
		<stop  offset="0.28" style="stop-color:#5B8AA0"/>
		<stop  offset="0.4256" style="stop-color:#5E688D"/>
		<stop  offset="0.6631" style="stop-color:#EF5353"/>
		<stop  offset="1" style="stop-color:#F08D19"/>
	</linearGradient>
	<path class="st0" d="M259,133.6V99.5c0-8.3-6.7-15-15-15h-64c-8.3,0-15,6.7-15,15v11h12.1C206.2,110.5,234.6,118.7,259,133.6z"/>
	
		<linearGradient id="SVGID_00000091722155905056674440000007314607995589081254_" gradientUnits="userSpaceOnUse" x1="14.6001" y1="85.0481" x2="109.3201" y2="85.0481">
		<stop  offset="0" style="stop-color:#1C447F"/>
		<stop  offset="0.1248" style="stop-color:#447194"/>
		<stop  offset="0.2066" style="stop-color:#5A899F"/>
		<stop  offset="0.28" style="stop-color:#5B8AA0"/>
		<stop  offset="0.4256" style="stop-color:#5E688D"/>
		<stop  offset="0.6631" style="stop-color:#EF5353"/>
		<stop  offset="1" style="stop-color:#F08D19"/>
	</linearGradient>
	<path style="fill:url(#SVGID_00000091722155905056674440000007314607995589081254_);" d="M109.3,112.6l-4.6-71.2
		C103.2,20.1,85.3,3.5,64,3.5S24.8,20.1,23.3,41.4l-8.7,125.2C37.5,139,71.3,118.9,109.3,112.6z"/>
	
		<linearGradient id="SVGID_00000107577785377608397240000010149901054361886087_" gradientUnits="userSpaceOnUse" x1="7.8576" y1="328" x2="304.1424" y2="328">
		<stop  offset="0" style="stop-color:#1C447F"/>
		<stop  offset="0.1248" style="stop-color:#447194"/>
		<stop  offset="0.2066" style="stop-color:#5A899F"/>
		<stop  offset="0.28" style="stop-color:#5B8AA0"/>
		<stop  offset="0.4256" style="stop-color:#5E688D"/>
		<stop  offset="0.6631" style="stop-color:#EF5353"/>
		<stop  offset="1" style="stop-color:#F08D19"/>
	</linearGradient>
	<path style="fill:url(#SVGID_00000107577785377608397240000010149901054361886087_);" d="M177.1,140.5h-42.3
		c-74.6,0-133.4,64.2-126.5,138.7l10.3,111.1c3.2,34.3,19,66,44.4,89.2c52.6,47.9,133.1,48,185.8,0c25.5-23.2,41.2-54.9,44.4-89.2
		l10.3-111.1C310.5,204.7,251.7,140.5,177.1,140.5z M115,434.5c0,8.3-6.7,15-15,15s-15-6.7-15-15v-32c0-8.3,6.7-15,15-15
		s15,6.7,15,15V434.5z M171,450.5c0,8.3-6.7,15-15,15s-15-6.7-15-15v-64c0-8.3,6.7-15,15-15s15,6.7,15,15V450.5z M227,434.5
		c0,8.3-6.7,15-15,15s-15-6.7-15-15v-32c0-8.3,6.7-15,15-15s15,6.7,15,15V434.5z M243,285.5c0,24.8-20.2,45-45,45h-84
		c-24.8,0-45-20.2-45-45v-36c0-24.8,20.2-45,45-45h84c24.8,0,45,20.2,45,45V285.5z"/>
	
		<linearGradient id="SVGID_00000090259741231475630630000015041773433971269017_" gradientUnits="userSpaceOnUse" x1="99.0001" y1="267.5031" x2="213.0001" y2="267.5031">
		<stop  offset="0" style="stop-color:#1C447F"/>
		<stop  offset="0.1248" style="stop-color:#447194"/>
		<stop  offset="0.2066" style="stop-color:#5A899F"/>
		<stop  offset="0.28" style="stop-color:#5B8AA0"/>
		<stop  offset="0.4256" style="stop-color:#5E688D"/>
		<stop  offset="0.6631" style="stop-color:#EF5353"/>
		<stop  offset="1" style="stop-color:#F08D19"/>
	</linearGradient>
	<path style="fill:url(#SVGID_00000090259741231475630630000015041773433971269017_);" d="M198,234.5h-84c-8.3,0-15,6.7-15,15v36
		c0,8.3,6.7,15,15,15h84c8.3,0,15-6.7,15-15v-36C213,241.2,206.3,234.5,198,234.5z"/>
</g>
</svg>
