<?xml version="1.0" encoding="iso-8859-1"?>
<!-- Generator: Adobe Illustrator 18.0.0, SVG Export Plug-In . SVG Version: 6.00 Build 0)  -->
<!DOCTYPE svg PUBLIC "-//W3C//DTD SVG 1.1//EN" "http://www.w3.org/Graphics/SVG/1.1/DTD/svg11.dtd">
<svg version="1.1" id="Capa_1" xmlns="http://www.w3.org/2000/svg" xmlns:xlink="http://www.w3.org/1999/xlink" x="0px" y="0px"
	 viewBox="0 0 314.009 314.009" style="enable-background:new 0 0 314.009 314.009;" xml:space="preserve">
<path d="M310.008,242.584l-44.275-39.615c-3.384-3.029-8.188-3.889-12.41-2.221l-3.699,1.461c1.719-8.662,2.636-17.699,2.636-26.998
	c0-17.793-3.337-34.645-9.291-49.691l12.276-4.844L294,155.355c2.29,2.049,5.151,3.059,8.001,3.059c3.297,0,6.578-1.35,8.949-4
	c4.421-4.939,4-12.529-0.94-16.949l-44.275-39.619c-3.384-3.029-8.186-3.889-12.411-2.221l-21.385,8.439
	c-9.646-14.848-22.246-26.75-36.725-34.428l8.195-18.98l33.799,12.068c6.243,2.23,13.111-1.023,15.341-7.269
	c2.23-6.242-1.024-13.111-7.268-15.34l-44.395-15.851c-5.959-2.129-12.548,0.736-15.057,6.545l-13.262,30.713
	c-5.065-1.008-10.263-1.539-15.563-1.539s-10.499,0.531-15.564,1.539l-13.263-30.713c-2.508-5.811-9.099-8.674-15.058-6.545
	L68.73,40.115c-6.243,2.229-9.497,9.098-7.268,15.342c2.229,6.242,9.1,9.498,15.342,7.268l33.793-12.068l8.196,18.982
	c-14.477,7.678-27.076,19.58-36.723,34.424l-21.382-8.438c-4.223-1.666-9.026-0.809-12.41,2.221L4.001,137.465
	c-4.941,4.42-5.363,12.008-0.941,16.949c2.371,2.65,5.653,4,8.949,4c2.85,0,5.71-1.01,8-3.059l38.759-34.68l12.273,4.844
	c-5.955,15.047-9.292,31.897-9.292,49.691c0,9.299,0.917,18.336,2.636,26.996l-3.694-1.459c-4.225-1.666-9.026-0.807-12.41,2.221
	L4.001,242.584c-4.94,4.42-5.363,12.01-0.942,16.949c2.371,2.65,5.653,4,8.95,4c2.85,0,5.71-1.008,8-3.057l38.759-34.678
	l15.255,6.02c16.35,34.998,47.385,58.629,82.981,58.629c35.601,0,66.634-23.631,82.981-58.627l15.26-6.021l38.756,34.676
	c2.291,2.051,5.15,3.059,8,3.059c3.297,0,6.579-1.35,8.949-4C315.371,254.594,314.949,247.004,310.008,242.584z M119.239,138.14
	c0-8.586,6.967-15.553,15.563-15.553c8.593,0,15.559,6.967,15.559,15.553c0,8.588-6.966,15.551-15.559,15.551
	C126.206,153.691,119.239,146.728,119.239,138.14z M150.36,231.719c-8.595,0-15.559-6.973-15.559-15.557s6.964-15.547,15.559-15.547
	c8.585,0,15.552,6.963,15.552,15.547S158.945,231.719,150.36,231.719z M180.98,173.492c0-9.606,7.802-17.396,17.414-17.396
	c9.614,0,17.405,7.791,17.405,17.396c0,9.621-7.791,17.41-17.405,17.41C188.782,190.902,180.98,183.113,180.98,173.492z"/>
<g>
</g>
<g>
</g>
<g>
</g>
<g>
</g>
<g>
</g>
<g>
</g>
<g>
</g>
<g>
</g>
<g>
</g>
<g>
</g>
<g>
</g>
<g>
</g>
<g>
</g>
<g>
</g>
<g>
</g>
</svg>
