<svg width="30" height="37" viewBox="0 0 30 37" fill="none" xmlns="http://www.w3.org/2000/svg">
<path d="M0 4.2361V20.4943C0 22.2285 0.724008 23.8838 1.99733 25.0611L5.49382 28.2937V7.97691L14.8229 17.306L24.1521 7.97691V17.0987L29.6459 11.6049V4.06088C29.6459 0.76144 25.6782 -0.914641 23.3127 1.38556L14.6156 9.84273L6.37033 1.59743C4.01952 -0.753377 0 0.911559 0 4.2361Z" fill="#1519FA"/>
<path d="M7.46338 30.2633V21.7635L14.823 29.1231L29.646 14.3002V20.2239C29.646 21.8734 28.9907 23.4553 27.8243 24.6217L16.4355 36.0105C15.545 36.901 14.1011 36.901 13.2105 36.0105L7.46338 30.2633Z" fill="#19BF50"/>
</svg>
