<svg xmlns="http://www.w3.org/2000/svg" width="2065" height="2500" preserveAspectRatio="xMidYMid" viewBox="0 0 256 310"><path fill="#8C3123" d="M20.624 53.686 0 64v181.02l20.624 10.254.124-.149V53.828z"/><path fill="#E05243" d="M131 229 20.624 255.274V53.686L131 79.387z"/><path fill="#8C3123" d="m81.178 187.866 46.818 5.96.294-.678.263-76.77-.557-.6-46.818 5.874z"/><path fill="#8C3123" d="m127.996 229.295 107.371 26.035.169-.269-.003-201.195-.17-.18-107.367 25.996z"/><path fill="#E05243" d="m174.827 187.866-46.831 5.96v-78.048l46.831 5.874z"/><path fill="#5E1F18" d="m174.827 89.631-46.831 8.535-46.818-8.535 46.759-12.256z"/><path fill="#F2B0A9" d="m174.827 219.801-46.831-8.591-46.818 8.591 46.761 13.053z"/><path fill="#8C3123" d="m81.178 89.631 46.818-11.586.379-.117V.313L127.996 0 81.178 23.413z"/><path fill="#E05243" d="m174.827 89.631-46.831-11.586V0l46.831 23.413z"/><path fill="#8C3123" d="m127.996 309.428-46.823-23.405v-66.217l46.823 11.582.689.783-.187 75.906z"/><path fill="#E05243" d="m127.996 309.428 46.827-23.405v-66.217l-46.827 11.582zM235.367 53.686 256 64v181.02l-20.633 10.31z"/></svg>