<svg xmlns="http://www.w3.org/2000/svg" xmlns:xlink="http://www.w3.org/1999/xlink" fill="#fff" fill-rule="evenodd" stroke="#000" stroke-linecap="round" stroke-linejoin="round" viewBox="-5 0 85 85"><use xlink:href="#a" x="2.188" y="2.5"/><symbol id="a" overflow="visible"><g fill="#876929" stroke="none"><path d="M0 25.938.021 63.44 35 80l34.98-16.56v-9.368l-29.745-3.508.02-21.127L70 25.948V16.57L35 0 0 16.56z"/><path d="m.021 54.062 34.98 9.942V80L.021 63.44z"/><path d="M4.465 65.549 0 63.431V16.56l4.475-2.109z"/></g><path fill="#d9a741" stroke="none" d="m40.255 50.564-35.79 4.762.01-30.661 35.78 4.772zM70 25.948l-35-9.951V0l35 16.57zm-.02 28.124L35 64.004V80l34.98-16.56z"/><path fill="#876929" stroke="none" d="m22.109 48.581 12.892 1.526V29.815L22.109 31.36zM9.125 47.065l8.365.982V31.924l-8.365 1.001z"/><path fill="#624a1e" stroke="none" d="M4.475 24.665 35 15.996l35 9.951-29.745 3.489z"/><path fill="#fad791" stroke="none" d="M4.465 55.326 35 64.004l34.98-9.932-29.724-3.508z"/><path fill="#d9a741" stroke="none" d="M69.98 45.918 35 50.107V29.815l34.98 4.218z"/></symbol></svg>