<svg xmlns="http://www.w3.org/2000/svg" viewBox="0 0 525.8 535.73"><defs><style>.cls-1{fill:none;}.cls-2{fill:#006bff;}.cls-3{fill:#0ae9ef;}</style></defs><g id="Layer_2" data-name="Layer 2"><g id="Logo_assets" data-name="Logo assets"><g id="Brand_mark" data-name="Brand mark"><path class="cls-1" d="M443.74,337.62l-27.16,47.05a139.52,139.52,0,0,1-120.82,69.75H241.43a139.52,139.52,0,0,1-120.82-69.75L93.45,337.62a139.52,139.52,0,0,1,0-139.51l27.16-47.05A139.53,139.53,0,0,1,241.43,81.3h54.33a139.53,139.53,0,0,1,120.82,69.76l27.16,47.05a139.23,139.23,0,0,1,8.55,17.55c0,.12.09.23.13.35a102.15,102.15,0,0,0,44.33-18.24c0-.14-.08-.28-.13-.43a237.8,237.8,0,0,0-33.29-67.58,240.67,240.67,0,0,0-52-53.48A239.3,239.3,0,0,0,98.65,437.08a239.43,239.43,0,0,0,398-98.69c.05-.15.09-.29.13-.43a102.15,102.15,0,0,0-44.33-18.24c0,.12-.09.23-.13.35A139.23,139.23,0,0,1,443.74,337.62Z"/><path class="cls-2" d="M360.4,347.4c-17,15.09-38.21,33.87-76.78,33.87h-23c-27.88,0-53.23-10.12-71.37-28.49-17.72-17.94-27.48-42.5-27.48-69.16V252.11c0-26.66,9.76-51.22,27.48-69.16,18.14-18.37,43.49-28.49,71.37-28.49h23c38.57,0,59.76,18.78,76.78,33.87,17.65,15.65,32.9,29.16,73.52,29.16a116.05,116.05,0,0,0,18.5-1.48c0-.12-.08-.23-.13-.35a139.23,139.23,0,0,0-8.55-17.55l-27.16-47.05A139.53,139.53,0,0,0,295.76,81.3H241.43a139.53,139.53,0,0,0-120.82,69.76L93.45,198.11a139.52,139.52,0,0,0,0,139.51l27.16,47.05a139.52,139.52,0,0,0,120.82,69.75h54.33a139.52,139.52,0,0,0,120.82-69.75l27.16-47.05a139.23,139.23,0,0,0,8.55-17.55c0-.12.09-.23.13-.35a116.05,116.05,0,0,0-18.5-1.48C393.3,318.24,378.05,331.75,360.4,347.4Z"/><path class="cls-2" d="M283.62,183h-23c-42.42,0-70.3,30.3-70.3,69.09v31.51c0,38.79,27.88,69.09,70.3,69.09h23c61.82,0,57-63,150.3-63a144.19,144.19,0,0,1,26.37,2.41,139.36,139.36,0,0,0,0-48.46,143.32,143.32,0,0,1-26.37,2.42C340.59,246.05,345.44,183,283.62,183Z"/><path class="cls-2" d="M513.91,315.13a130.21,130.21,0,0,0-53.62-23c0,.16-.05.32-.08.47a138.46,138.46,0,0,1-7.79,27.16A102.15,102.15,0,0,1,496.75,338c0,.14-.08.28-.13.43A237.8,237.8,0,0,1,463.33,406a240.67,240.67,0,0,1-52,53.48A239.3,239.3,0,0,1,98.65,98.65a239.43,239.43,0,0,1,398,98.69c.05.15.09.29.13.43A102.15,102.15,0,0,1,452.42,216a139.36,139.36,0,0,1,7.8,27.18c0,.15,0,.3.07.44a129.94,129.94,0,0,0,53.62-23c15.29-11.31,12.33-24.09,10-31.65C490.22,79.52,388.33,0,267.86,0,119.93,0,0,119.93,0,267.86S119.93,535.73,267.86,535.73c120.47,0,222.36-79.52,256-188.94C526.24,339.23,529.2,326.45,513.91,315.13Z"/><path class="cls-3" d="M452.42,216a116.05,116.05,0,0,1-18.5,1.48c-40.62,0-55.87-13.51-73.52-29.16-17-15.09-38.21-33.87-76.78-33.87h-23c-27.88,0-53.23,10.12-71.37,28.49-17.72,17.94-27.48,42.5-27.48,69.16v31.51c0,26.66,9.76,51.22,27.48,69.16,18.14,18.37,43.49,28.49,71.37,28.49h23c38.57,0,59.76-18.78,76.78-33.87,17.65-15.65,32.9-29.16,73.52-29.16a116.05,116.05,0,0,1,18.5,1.48,138.46,138.46,0,0,0,7.79-27.16c0-.15.06-.31.08-.47a144.19,144.19,0,0,0-26.37-2.41c-93.33,0-88.48,63-150.3,63h-23c-42.42,0-70.3-30.3-70.3-69.09V252.11c0-38.79,27.88-69.09,70.3-69.09h23c61.82,0,57,63,150.3,63a143.32,143.32,0,0,0,26.37-2.42c0-.14,0-.29-.07-.44A139.36,139.36,0,0,0,452.42,216Z"/><path class="cls-3" d="M452.42,216a116.05,116.05,0,0,1-18.5,1.48c-40.62,0-55.87-13.51-73.52-29.16-17-15.09-38.21-33.87-76.78-33.87h-23c-27.88,0-53.23,10.12-71.37,28.49-17.72,17.94-27.48,42.5-27.48,69.16v31.51c0,26.66,9.76,51.22,27.48,69.16,18.14,18.37,43.49,28.49,71.37,28.49h23c38.57,0,59.76-18.78,76.78-33.87,17.65-15.65,32.9-29.16,73.52-29.16a116.05,116.05,0,0,1,18.5,1.48,138.46,138.46,0,0,0,7.79-27.16c0-.15.06-.31.08-.47a144.19,144.19,0,0,0-26.37-2.41c-93.33,0-88.48,63-150.3,63h-23c-42.42,0-70.3-30.3-70.3-69.09V252.11c0-38.79,27.88-69.09,70.3-69.09h23c61.82,0,57,63,150.3,63a143.32,143.32,0,0,0,26.37-2.42c0-.14,0-.29-.07-.44A139.36,139.36,0,0,0,452.42,216Z"/></g></g></g></svg>
