<svg xmlns="http://www.w3.org/2000/svg" id="Layer_1" data-name="Layer 1" viewBox="0 1 79.89 75.96"><defs><style>.cls-1{fill:#9dd3ed}</style></defs><title>actionnetwork</title><circle cx="40.42" cy="5.43" r="5.43" class="cls-1"/><path d="M26.32,15.92c9.94-2.11,15.06,5.25,16.52,11.47.92,3.93,4.28,3.87,6.58,2.73S56,28.48,53,21.23c-1.82-4.41-4.14-8.44-8.26-11.08A6.42,6.42,0,0,1,34.66,8.3a6.88,6.88,0,0,1-.44-1.14c-8.85.1-14.7,8-16.45,13.26a18.85,18.85,0,0,1,8.55-4.5" class="cls-1"/><circle cx="5.43" cy="29.87" r="5.43" class="cls-1"/><path d="M11.23,46.45c1-10.11,9.51-12.8,15.88-12.33,4,.29,5-2.93,4.57-5.47s.4-6.78-7.41-6.1C19.52,23,15,24,11.23,27.12a6.37,6.37,0,0,1,.34,4.67,6.62,6.62,0,0,1-.93,1.86,6.39,6.39,0,0,1-4.19,2.57,6.31,6.31,0,0,1-1.22.08C2.68,44.78,8.52,52.73,13,56a18.92,18.92,0,0,1-1.75-9.51" class="cls-1"/><circle cx="18.08" cy="70.13" r="5.43" class="cls-1"/><path d="M35.65,69.73c-9.33-4-9.25-13-6.83-18.91,1.52-3.74-1.25-5.64-3.79-6S18.7,42.31,16.94,50c-1.07,4.64-1.51,9.27.32,13.81a6.44,6.44,0,0,1,4.55,1.12,6.47,6.47,0,0,1,2.63,6.24,7.55,7.55,0,0,1-.3,1.18c7.27,5,16.64,2,21.09-1.3a18.8,18.8,0,0,1-9.58-1.27" class="cls-1"/><circle cx="60.58" cy="70.53" r="5.43" class="cls-1"/><path d="M65.83,53.76c-6.81,7.55-15.28,4.6-20.11.42-3-2.64-5.74-.62-6.93,1.66S34.42,61,41.1,65.16c4.06,2.5,8.3,4.4,13.19,4.11a6.43,6.43,0,0,1,2.51-4,6.76,6.76,0,0,1,1.86-.93,6.38,6.38,0,0,1,4.9.44,5.94,5.94,0,0,1,1,.66c7.1-5.28,7.17-15.14,5.52-20.4a18.91,18.91,0,0,1-4.27,8.67" class="cls-1"/><circle cx="74.46" cy="30.68" r="5.43" class="cls-1"/><path d="M60.13,20.51c5.08,8.81-.34,16-5.8,19.25C50.87,41.85,52,45,53.76,46.87s3.6,5.76,9.57.68c3.64-3.08,6.75-6.54,8-11.27A6.42,6.42,0,0,1,70,26.09a6.21,6.21,0,0,1,.94-.77c-2.83-8.39-12.19-11.49-17.69-11.55a18.94,18.94,0,0,1,6.92,6.74" class="cls-1"/></svg>