<svg  viewBox="0 0 12 12" xmlns="http://www.w3.org/2000/svg"><path 	fill="currentColor" 	d="M1 0.642857C1 0.287817 1.27473 0 1.61364 0H4.06818C4.40708 0 4.68182 0.287817 4.68182 0.642857V4.5C4.68182 4.85504 4.40708 5.14286 4.06818 5.14286H1.61364C1.27473 5.14286 1 4.85504 1 4.5V0.642857ZM2.22727 1.28571V3.85714H3.45455V1.28571H2.22727ZM6.31818 0.642857C6.31818 0.287817 6.59292 0 6.93182 0H8.15909C8.49799 0 8.77273 0.287817 8.77273 0.642857V3.85714H9.38636C9.72527 3.85714 10 4.14496 10 4.5C10 4.85504 9.72527 5.14286 9.38636 5.14286H6.93182C6.59292 5.14286 6.31818 4.85504 6.31818 4.5C6.31818 4.14496 6.59292 3.85714 6.93182 3.85714H7.54545V1.28571H6.93182C6.59292 1.28571 6.31818 0.997897 6.31818 0.642857ZM1 7.5C1 7.14496 1.27473 6.85714 1.61364 6.85714H2.84091C3.17981 6.85714 3.45455 7.14496 3.45455 7.5V10.7143H4.06818C4.40708 10.7143 4.68182 11.0021 4.68182 11.3571C4.68182 11.7122 4.40708 12 4.06818 12H1.61364C1.27473 12 1 11.7122 1 11.3571C1 11.0021 1.27473 10.7143 1.61364 10.7143H2.22727V8.14286H1.61364C1.27473 8.14286 1 7.85504 1 7.5ZM6.31818 7.5C6.31818 7.14496 6.59292 6.85714 6.93182 6.85714H9.38636C9.72527 6.85714 10 7.14496 10 7.5V11.3571C10 11.7122 9.72527 12 9.38636 12H6.93182C6.59292 12 6.31818 11.7122 6.31818 11.3571V7.5ZM7.54545 8.14286V10.7143H8.77273V8.14286H7.54545Z" /></svg>
