<svg viewBox="0 0 24 24" fill="none" xmlns="http://www.w3.org/2000/svg">
	<path d="M13.2251 1.02271C13.5179 0.968554 13.8195 1.00233 14.0913 1.11939L14.2055 1.17506L14.3149 1.23951C14.5275 1.37763 14.7014 1.56758 14.8208 1.79127L14.8764 1.90553L14.9214 2.02467C15.0145 2.30522 15.0227 2.60793 14.9438 2.89478C14.9403 2.90772 14.9372 2.92106 14.9331 2.93385L13.0132 8.95338L12.9965 9.00025H19.9995C20.3769 8.99952 20.7471 9.10523 21.0669 9.30592C21.3874 9.50712 21.6437 9.79562 21.8071 10.137C21.9704 10.4783 22.0341 10.8588 21.9897 11.2346C21.9453 11.6105 21.7946 11.9661 21.5561 12.26C21.5375 12.2829 21.5181 12.3052 21.4975 12.3264L11.5971 22.5266L11.5962 22.5256C11.3774 22.7595 11.0907 22.9194 10.7749 22.9778C10.4403 23.0397 10.0944 22.9859 9.7944 22.8254C9.4944 22.665 9.25775 22.4066 9.1235 22.094C8.98941 21.7815 8.96593 21.4327 9.05612 21.1047L9.06686 21.0657L10.9868 15.0462L11.0034 15.0003H3.99948C3.62236 15.0008 3.25253 14.8941 2.93307 14.6936C2.61276 14.4925 2.35617 14.2047 2.19284 13.8635C2.02947 13.5221 1.96581 13.1408 2.01022 12.7649C2.05468 12.3892 2.20544 12.0333 2.44382 11.7395C2.46238 11.7167 2.4819 11.6942 2.50241 11.6731L12.4028 1.47389C12.6215 1.23984 12.9091 1.08117 13.2251 1.02271Z" fill="currentColor" fill-opacity="0.9" style="fill:currentColor;fill-opacity:0.9;"/>
</svg>
