<svg width="13" height="12" viewBox="0 0 13 12" fill="none" xmlns="http://www.w3.org/2000/svg">
<g clip-path="url(#clip0_650_18839)">
<path d="M5.4989 0.351562C5.96754 -0.117074 6.72753 -0.117074 7.19617 0.351562L11.996 5.15137C12.0955 5.25089 12.1731 5.36418 12.2303 5.48438C12.2567 5.53953 12.279 5.59683 12.2968 5.65625C12.3136 5.71272 12.3255 5.77017 12.3339 5.82812C12.3419 5.88433 12.3475 5.94156 12.3475 6C12.3475 6.06071 12.3416 6.12043 12.3329 6.17871C12.3299 6.19893 12.3272 6.21919 12.3231 6.23926C12.3023 6.34228 12.2669 6.43964 12.2216 6.53125C12.2163 6.54195 12.2116 6.55291 12.2059 6.56348C12.198 6.57845 12.1891 6.59284 12.1805 6.60742C12.1682 6.62838 12.1562 6.64959 12.1425 6.66992C12.0992 6.73406 12.0505 6.79412 11.996 6.84863L7.19617 11.6484C6.72753 12.1171 5.96754 12.1171 5.4989 11.6484C5.03045 11.1798 5.03033 10.4197 5.4989 9.95117L8.25085 7.2002H1.54773C0.884978 7.2002 0.347534 6.66275 0.347534 6C0.347702 5.33739 0.885082 4.80078 1.54773 4.80078H8.25183L5.4989 2.04883C5.03033 1.58025 5.03045 0.820214 5.4989 0.351562Z" fill="#909398"/>
</g>
<defs>
<clipPath id="clip0_650_18839">
<rect width="12" height="12" fill="white" transform="translate(0.347534)"/>
</clipPath>
</defs>
</svg>
