<svg viewBox="0 0 512 512" fill="none" xmlns="http://www.w3.org/2000/svg"><path d="M224.975 49.429c17.138-17.139 44.919-17.139 62.057 0l175.546 175.546a43.8 43.8 0 0 1 9.347 13.817l.146.349q.125.298.243.598.1.25.197.5l.147.388q.133.356.261.716l.09.257q.141.407.275.818l.044.136a39 39 0 0 1 .306.988 43.9 43.9 0 0 1 1.802 12.473c0 12.497-5.225 23.774-13.608 31.767L287.032 462.578c-17.138 17.138-44.919 17.138-62.057 0s-17.139-44.92 0-62.059l100.618-100.618H80.458c-24.238 0-43.887-19.649-43.887-43.886s19.65-43.887 43.887-43.887h245.158L224.975 111.486c-17.139-17.138-17.139-44.919 0-62.057" fill="currentColor"/></svg>