<svg viewBox="0 0 512 512" fill="none" xmlns="http://www.w3.org/2000/svg"><path d="M209.675 387.718c20.945 10.711 30.794 35.749 22.073 58.141-9.306 23.886-36.221 35.695-60.107 26.389-29.106-11.34-56.354-28.746-79.744-52.137-20.47-20.47-36.356-43.894-47.607-68.932l-4.53-10.812-1.517-4.508c-6.284-22.673 5.511-46.874 27.906-55.599 22.392-8.721 47.431 1.129 58.141 22.073l1.945 4.338 2.735 6.453c6.714 14.943 16.204 28.982 28.568 41.346 14.132 14.132 30.44 24.54 47.799 31.304zM91.897 91.905c23.39-23.39 50.638-40.796 79.744-52.137l4.508-1.517c22.673-6.284 46.874 5.512 55.599 27.906 9.303 23.885-2.526 50.781-26.411 60.086-17.359 6.763-33.667 17.171-47.799 31.303-12.364 12.364-21.854 26.403-28.568 41.347l-2.735 6.453-1.945 4.337c-10.71 20.945-35.75 30.794-58.141 22.073-23.886-9.306-35.695-36.221-26.39-60.107 11.341-29.106 28.747-56.353 52.138-79.744M354.462 354.47c12.364-12.364 21.854-26.403 28.568-41.346l2.735-6.453 1.945-4.338c10.71-20.944 35.749-30.794 58.141-22.073 22.394 8.725 34.19 32.926 27.906 55.599l-1.517 4.508-4.53 10.812c-11.251 25.038-27.137 48.462-47.607 68.932-23.39 23.391-50.638 40.797-79.744 52.137-23.886 9.306-50.801-2.503-60.107-26.389-9.303-23.885 2.526-50.78 26.411-60.085l6.453-2.735c14.943-6.715 28.982-16.205 41.346-28.569m65.641-262.565c23.391 23.391 40.796 50.638 52.137 79.744 9.306 23.886-2.503 50.801-26.389 60.107-22.392 8.721-47.431-1.128-58.141-22.073l-1.945-4.337-2.735-6.453c-6.714-14.944-16.204-28.983-28.568-41.347-14.132-14.132-30.44-24.54-47.799-31.303-23.885-9.305-35.714-36.201-26.411-60.086 9.306-23.886 36.221-35.694 60.107-26.389l10.812 4.53c25.038 11.25 48.462 27.137 68.932 47.607" fill="currentColor" /></svg>