<svg width="12" height="12" viewBox="0 0 12 12" fill="none" xmlns="http://www.w3.org/2000/svg">
<g clip-path="url(#clip0_650_18836)">
<path d="M4.73335 9.60167C5.30603 9.89454 5.57535 10.5792 5.33688 11.1915C5.08244 11.8446 4.34649 12.1675 3.69339 11.913C2.89755 11.6029 2.15254 11.127 1.51297 10.4874C0.953268 9.9277 0.518901 9.28719 0.211269 8.60257L0.087408 8.30693L0.0459264 8.18365C-0.125896 7.56369 0.196633 6.90193 0.808955 6.66337C1.42121 6.4249 2.10584 6.69422 2.39869 7.26692L2.45186 7.38553L2.52664 7.56198C2.71023 7.97058 2.96972 8.35447 3.30778 8.69254C3.69419 9.07896 4.14008 9.36356 4.61475 9.5485L4.73335 9.60167ZM1.51297 1.51303C2.15254 0.873444 2.89755 0.397506 3.69339 0.0874113L3.81666 0.0459281C4.4366 -0.1259 5.09833 0.19664 5.33688 0.808985C5.59124 1.46209 5.26782 2.19752 4.61475 2.45195C4.14008 2.63689 3.69419 2.92149 3.30778 3.30791C2.96972 3.64599 2.71023 4.02987 2.52664 4.43847L2.45186 4.61492L2.39869 4.73353C2.10584 5.30623 1.42121 5.57556 0.808955 5.33708C0.15585 5.08263 -0.167031 4.34666 0.087408 3.69353C0.397491 2.89766 0.873411 2.15262 1.51297 1.51303ZM8.69222 8.69254C9.03028 8.35447 9.28977 7.97058 9.47336 7.56198L9.54814 7.38553L9.60131 7.26692C9.89416 6.69422 10.5788 6.4249 11.191 6.66337C11.8034 6.90193 12.1259 7.56369 11.9541 8.18365L11.9126 8.30693L11.7887 8.60257C11.4811 9.28719 11.0467 9.9277 10.487 10.4874C9.84746 11.127 9.10245 11.6029 8.30661 11.913C7.65351 12.1675 6.91756 11.8446 6.66312 11.1915C6.40876 10.5384 6.73218 9.80294 7.38525 9.5485L7.5617 9.47371C7.97028 9.29012 8.35415 9.03062 8.69222 8.69254ZM10.487 1.51303C11.1266 2.15262 11.6025 2.89766 11.9126 3.69353C12.167 4.34666 11.8441 5.08263 11.191 5.33708C10.5788 5.57556 9.89416 5.30623 9.60131 4.73353L9.54814 4.61492L9.47336 4.43847C9.28977 4.02987 9.03028 3.64599 8.69222 3.30791C8.30581 2.92149 7.85992 2.63689 7.38525 2.45195C6.73218 2.19752 6.40876 1.46209 6.66312 0.808985C6.91756 0.155856 7.65351 -0.167037 8.30661 0.0874113L8.60224 0.211277C9.28683 0.51892 9.92732 0.953304 10.487 1.51303Z" fill="#909398"/>
</g>
<defs>
<clipPath id="clip0_650_18836">
<rect width="12" height="12" fill="white"/>
</clipPath>
</defs>
</svg>
