<svg  viewBox="0 0 12 12" xmlns="http://www.w3.org/2000/svg"><path 	fill="currentColor" 	d="M10.3019 0C10.542 0 10.7678 0.0476193 10.9791 0.142858C11.1905 0.238096 11.373 0.371429 11.5267 0.542858C11.6805 0.714286 11.8005 0.92381 11.887 1.17143C11.9735 1.40952 12.0167 1.67619 12.0167 1.97143L12.0023 3.38571C12.0023 3.50952 12.0023 3.61429 12.0023 3.7C12.0119 3.78571 12.0263 3.87143 12.0455 3.95714C12.0647 4.04286 12.0936 4.13333 12.132 4.22857C12.18 4.31429 12.2425 4.42857 12.3193 4.57143L12.8237 5.24286C12.9198 5.4619 12.9774 5.66667 12.9966 5.85714C13.0158 6.0381 12.9534 6.25238 12.8093 6.5L12.3337 7.11429C12.2569 7.26667 12.1944 7.39524 12.1464 7.5C12.108 7.60476 12.0791 7.70476 12.0599 7.8C12.0407 7.89524 12.0263 7.99524 12.0167 8.1C12.0167 8.20476 12.0167 8.33333 12.0167 8.48571V9.7C12.0167 10.0048 11.9783 10.2952 11.9014 10.5714C11.8342 10.8381 11.7333 11.0714 11.5988 11.2714C11.4739 11.4714 11.3154 11.6286 11.1233 11.7429C10.9311 11.8571 10.7198 11.9143 10.4892 11.9143L9.49487 12C9.48526 12 9.42282 12 9.30753 12C9.19225 12 9.05775 11.9905 8.90404 11.9714C8.75993 11.9619 8.61103 11.9381 8.45731 11.9C8.31321 11.8714 8.20273 11.819 8.12587 11.7429C8.06823 11.6952 8.0202 11.619 7.98177 11.5143C7.95295 11.4095 7.93854 11.3095 7.93854 11.2143C7.93854 11.0238 8.00579 10.8762 8.14028 10.7714C8.27478 10.6667 8.42369 10.6 8.58701 10.5714C8.75993 10.5333 8.92806 10.5143 9.09137 10.5143H9.71102C10.0953 10.5143 10.2826 10.1857 10.273 9.52857L10.2586 8.22857C10.2586 7.94286 10.2682 7.72381 10.2874 7.57143C10.3163 7.40952 10.3595 7.27619 10.4171 7.17143C10.4844 7.06667 10.566 6.9619 10.6621 6.85714C10.7582 6.75238 10.8735 6.60476 11.008 6.41429C11.0944 6.29048 11.1665 6.19048 11.2241 6.11429C11.2818 6.02857 11.3154 5.94762 11.325 5.87143C11.3346 5.79524 11.3154 5.70952 11.2674 5.61429C11.2289 5.51905 11.1569 5.39048 11.0512 5.22857C10.8975 5 10.7678 4.81905 10.6621 4.68571C10.566 4.55238 10.4844 4.42857 10.4171 4.31429C10.3595 4.2 10.3163 4.08095 10.2874 3.95714C10.2682 3.83333 10.2586 3.66191 10.2586 3.44286V2.41429C10.2586 2.29048 10.2538 2.17143 10.2442 2.05714C10.2442 1.94286 10.225 1.84286 10.1866 1.75714C10.1481 1.67143 10.0857 1.60476 9.99923 1.55714C9.92238 1.50952 9.8119 1.48571 9.66779 1.48571H9.01932C9.00972 1.48571 8.97129 1.48571 8.90404 1.48571C8.83679 1.48571 8.75513 1.48095 8.65906 1.47143C8.56299 1.45238 8.46212 1.42857 8.35644 1.4C8.25076 1.36191 8.1595 1.30476 8.08264 1.22857C8.025 1.18095 7.97697 1.10476 7.93854 1C7.90972 0.895238 7.89531 0.795238 7.89531 0.7C7.89531 0.509524 7.96256 0.361905 8.09705 0.257143C8.23155 0.152381 8.38526 0.0857146 8.55819 0.057143C8.73111 0.0190477 8.89924 0 9.06255 0H10.3019Z M3.93745 0C4.10077 0 4.26889 0.0190477 4.44181 0.057143C4.61474 0.0857146 4.76845 0.152381 4.90295 0.257143C5.03745 0.361905 5.10469 0.509524 5.10469 0.7C5.10469 0.795238 5.08548 0.895238 5.04705 1C5.01823 1.10476 4.975 1.18095 4.91736 1.22857C4.8405 1.30476 4.74924 1.36191 4.64356 1.4C4.53788 1.42857 4.43701 1.45238 4.34094 1.47143C4.24487 1.48095 4.16321 1.48571 4.09596 1.48571C4.02871 1.48571 3.99029 1.48571 3.98068 1.48571H3.33221C3.1881 1.48571 3.07282 1.50952 2.98636 1.55714C2.9095 1.60476 2.85186 1.67143 2.81343 1.75714C2.775 1.84286 2.75099 1.94286 2.74138 2.05714C2.74138 2.17143 2.74138 2.29048 2.74138 2.41429V3.44286C2.74138 3.66191 2.72697 3.83333 2.69815 3.95714C2.67893 4.08095 2.6357 4.2 2.56845 4.31429C2.51081 4.42857 2.42915 4.55238 2.32348 4.68571C2.22741 4.81905 2.10251 5 1.9488 5.22857C1.84313 5.39048 1.76627 5.51905 1.71824 5.61429C1.67981 5.70952 1.6654 5.79524 1.675 5.87143C1.68461 5.94762 1.71824 6.02857 1.77588 6.11429C1.83352 6.19048 1.90557 6.29048 1.99203 6.41429C2.12653 6.60476 2.24182 6.75238 2.33789 6.85714C2.43396 6.9619 2.51081 7.06667 2.56845 7.17143C2.6357 7.27619 2.67893 7.40952 2.69815 7.57143C2.72697 7.72381 2.74138 7.94286 2.74138 8.22857L2.72697 9.52857C2.71736 10.1857 2.9047 10.5143 3.28898 10.5143H3.90863C4.07194 10.5143 4.23526 10.5333 4.39858 10.5714C4.57151 10.6 4.72522 10.6667 4.85972 10.7714C4.99421 10.8762 5.06146 11.0238 5.06146 11.2143C5.06146 11.3095 5.04225 11.4095 5.00382 11.5143C4.975 11.619 4.93177 11.6952 4.87413 11.7429C4.79727 11.819 4.68199 11.8714 4.52828 11.9C4.38417 11.9381 4.23526 11.9619 4.08155 11.9714C3.93745 11.9905 3.80775 12 3.69247 12C3.57719 12 3.51474 12 3.50513 12L2.51081 11.9143C2.28024 11.9143 2.06889 11.8571 1.87675 11.7429C1.68461 11.6286 1.52129 11.4714 1.3868 11.2714C1.2619 11.0714 1.16103 10.8381 1.08418 10.5714C1.01693 10.2952 0.983302 10.0048 0.983302 9.7V8.48571C0.983302 8.33333 0.978499 8.20476 0.968892 8.1C0.968892 7.99524 0.959285 7.89524 0.940071 7.8C0.920857 7.70476 0.887232 7.60476 0.839198 7.5C0.80077 7.39524 0.743128 7.26667 0.666272 7.11429L0.190727 6.5C0.0466221 6.25238 -0.0158233 6.0381 0.00339071 5.85714C0.0226046 5.66667 0.0802464 5.4619 0.176316 5.24286L0.680682 4.57143C0.757538 4.42857 0.81518 4.31429 0.853608 4.22857C0.901643 4.13333 0.935267 4.04286 0.954481 3.95714C0.973695 3.87143 0.983302 3.78571 0.983302 3.7C0.992909 3.61429 0.997712 3.50952 0.997712 3.38571L0.983302 1.97143C0.983302 1.67619 1.02653 1.40952 1.113 1.17143C1.19946 0.92381 1.31955 0.714286 1.47326 0.542858C1.62697 0.371429 1.8095 0.238096 2.02086 0.142858C2.23221 0.0476193 2.45797 0 2.69815 0H3.93745Z" /></svg>
