<svg width="121" height="122" viewBox="0 0 121 122" fill="none" xmlns="http://www.w3.org/2000/svg">
<mask id="mask0_572_319" style="mask-type:alpha" maskUnits="userSpaceOnUse" x="0" y="0" width="121" height="122">
<path fill-rule="evenodd" clip-rule="evenodd" d="M36.0687 0C55.9888 0 72.1373 16.1551 72.1373 36.0835V49.7975H84.141C104.061 49.7975 120.21 65.9526 120.21 85.8809C120.21 105.809 104.061 121.964 84.141 121.964H0V36.0835C0 16.1551 16.1485 0 36.0687 0Z" fill="url(#paint0_linear_572_319)"/>
</mask>
<g mask="url(#mask0_572_319)">
<g filter="url(#filter0_f_572_319)">
<ellipse cx="52.7381" cy="65.1011" rx="81.3729" ry="81.1923" fill="#4B73FF"/>
</g>
<g filter="url(#filter1_f_572_319)">
<ellipse cx="61.6734" cy="20.547" rx="104.216" ry="81.1923" fill="#FF66F4"/>
</g>
<g filter="url(#filter2_f_572_319)">
<ellipse cx="78.6659" cy="5.26802" rx="81.3729" ry="71.3042" fill="#FF0105"/>
</g>
<g filter="url(#filter3_f_572_319)">
<ellipse cx="63.121" cy="20.5275" rx="48.9374" ry="48.8288" fill="#FE7B02"/>
</g>
</g>
<defs>
<filter id="filter0_f_572_319" x="-65.0219" y="-52.4784" width="235.52" height="235.159" filterUnits="userSpaceOnUse" color-interpolation-filters="sRGB">
<feFlood flood-opacity="0" result="BackgroundImageFix"/>
<feBlend mode="normal" in="SourceGraphic" in2="BackgroundImageFix" result="shape"/>
<feGaussianBlur stdDeviation="18.1936" result="effect1_foregroundBlur_572_319"/>
</filter>
<filter id="filter1_f_572_319" x="-78.9301" y="-97.0324" width="281.208" height="235.159" filterUnits="userSpaceOnUse" color-interpolation-filters="sRGB">
<feFlood flood-opacity="0" result="BackgroundImageFix"/>
<feBlend mode="normal" in="SourceGraphic" in2="BackgroundImageFix" result="shape"/>
<feGaussianBlur stdDeviation="18.1936" result="effect1_foregroundBlur_572_319"/>
</filter>
<filter id="filter2_f_572_319" x="-39.0942" y="-102.423" width="235.52" height="215.383" filterUnits="userSpaceOnUse" color-interpolation-filters="sRGB">
<feFlood flood-opacity="0" result="BackgroundImageFix"/>
<feBlend mode="normal" in="SourceGraphic" in2="BackgroundImageFix" result="shape"/>
<feGaussianBlur stdDeviation="18.1936" result="effect1_foregroundBlur_572_319"/>
</filter>
<filter id="filter3_f_572_319" x="-22.2036" y="-64.6884" width="170.649" height="170.432" filterUnits="userSpaceOnUse" color-interpolation-filters="sRGB">
<feFlood flood-opacity="0" result="BackgroundImageFix"/>
<feBlend mode="normal" in="SourceGraphic" in2="BackgroundImageFix" result="shape"/>
<feGaussianBlur stdDeviation="18.1936" result="effect1_foregroundBlur_572_319"/>
</filter>
<linearGradient id="paint0_linear_572_319" x1="40.4527" y1="21.4331" x2="76.9327" y2="121.971" gradientUnits="userSpaceOnUse">
<stop offset="0.025" stop-color="#FF8E63"/>
<stop offset="0.56" stop-color="#FF7EB0"/>
<stop offset="0.95" stop-color="#4B73FF"/>
</linearGradient>
</defs>
</svg>
