<svg xmlns="http://www.w3.org/2000/svg" width="24" height="24" fill="none" viewBox="0 0 24 24"><path fill="currentColor" d="M16.645 5.907a1.5 1.5 0 0 1 2.122.028 9.77 9.77 0 0 1 2.585 4.953 9.9 9.9 0 0 1-.53 5.579 9.66 9.66 0 0 1-3.476 4.357 9.36 9.36 0 0 1-5.28 1.657 9.36 9.36 0 0 1-5.292-1.623 9.66 9.66 0 0 1-3.504-4.335 9.9 9.9 0 0 1-.564-5.576 9.77 9.77 0 0 1 2.556-4.97l.11-.105a1.501 1.501 0 0 1 2.05 2.187l-.166.178a6.8 6.8 0 0 0-1.602 3.266 6.9 6.9 0 0 0 .393 3.884 6.66 6.66 0 0 0 2.413 2.989 6.36 6.36 0 0 0 3.595 1.105 6.36 6.36 0 0 0 3.59-1.128 6.66 6.66 0 0 0 2.394-3.005 6.9 6.9 0 0 0 .37-3.887 6.77 6.77 0 0 0-1.79-3.433 1.5 1.5 0 0 1 .026-2.12"/><path fill="currentColor" d="M12.035 1.481a1.5 1.5 0 0 1 1.5 1.5v9a1.5 1.5 0 0 1-3 0v-9a1.5 1.5 0 0 1 1.5-1.5"/></svg>