<svg  viewBox="0 0 16 16" xmlns="http://www.w3.org/2000/svg"><path 	fill="currentColor" 	d="M13.3333 12.5525V12.4489C14.2278 12.0756 14.8571 11.1925 14.8571 10.1632V3.61924C14.8571 2.96252 14.5962 2.3327 14.1318 1.86832C13.6675 1.40395 13.0376 1.14307 12.3809 1.14307H5.90473C5.38113 1.14296 4.87098 1.30883 4.44756 1.61684C4.02414 1.92485 3.70926 2.35915 3.54816 2.85734H3.39501C2.70016 2.85734 2.10892 3.10191 1.70206 3.5842C1.30739 4.05124 1.14282 4.67372 1.14282 5.33352V12.0002C1.14282 12.8078 1.43463 13.5346 1.98854 14.0573C2.54168 14.5777 3.30892 14.8535 4.19044 14.8535H7.17711L10.2826 14.8573H10.2842C11.0278 14.8611 11.7645 14.7049 12.336 14.3392C12.9303 13.9582 13.3333 13.3525 13.3333 12.5525ZM3.39501 4.0002H3.42854V10.1625C3.42854 10.8192 3.68942 11.449 4.1538 11.9134C4.61817 12.3777 5.248 12.6386 5.90473 12.6386H12.1874C12.163 12.9571 12.003 13.1948 11.7196 13.3761C11.3897 13.588 10.8891 13.7175 10.2887 13.7144H10.2857L7.17558 13.7106H4.19044C3.54816 13.7106 3.07806 13.5125 2.7733 13.2253C2.47006 12.9403 2.28568 12.5259 2.28568 12.0002V5.33352C2.28568 4.84971 2.40758 4.52057 2.5752 4.32096C2.73139 4.13658 2.98054 4.0002 3.39501 4.0002ZM8.01673 3.80972H11.619C11.7706 3.80972 11.9159 3.86992 12.0231 3.97709C12.1302 4.08425 12.1904 4.22959 12.1904 4.38115V7.98418C12.1904 8.13573 12.1302 8.28107 12.0231 8.38823C11.9159 8.4954 11.7706 8.5556 11.619 8.5556C11.4675 8.5556 11.3221 8.4954 11.215 8.38823C11.1078 8.28107 11.0476 8.13573 11.0476 7.98418V5.76019L7.07044 9.73731C7.0177 9.79186 6.95463 9.83536 6.8849 9.86528C6.81517 9.89519 6.74018 9.91092 6.6643 9.91154C6.58843 9.91217 6.51319 9.89767 6.44298 9.86891C6.37277 9.84014 6.30899 9.79768 6.25536 9.74401C6.20173 9.69033 6.15933 9.62651 6.13063 9.55627C6.10193 9.48603 6.08751 9.41078 6.0882 9.3349C6.0889 9.25903 6.1047 9.18406 6.13468 9.11435C6.16466 9.04465 6.20822 8.98162 6.26282 8.92893L10.24 4.95257H8.01673C7.86517 4.95257 7.71983 4.89237 7.61267 4.7852C7.5055 4.67804 7.4453 4.5327 7.4453 4.38115C7.4453 4.22959 7.5055 4.08425 7.61267 3.97709C7.71983 3.86992 7.86517 3.80972 8.01673 3.80972Z" /></svg>
