<svg width="12" height="12" viewBox="0 0 12 12" fill="none" xmlns="http://www.w3.org/2000/svg">
<g clip-path="url(#clip0_650_18838)">
<path d="M10.3926 5.23047C11.0302 5.23047 11.5477 5.74714 11.5479 6.38477V8.69434C11.5479 9.75721 10.6859 10.6191 9.62305 10.6191H4.23438V11.6143C4.23438 11.9572 3.81963 12.1292 3.57715 11.8867L1.42676 9.73633C1.27682 9.58605 1.27675 9.34261 1.42676 9.19238L3.57715 7.04199C3.81965 6.79969 4.23438 6.97159 4.23438 7.31445V8.30957H9.23828V6.38477C9.23843 5.7472 9.755 5.23056 10.3926 5.23047ZM7.31348 0.385742C7.31348 0.0428174 7.72822 -0.129203 7.9707 0.113281L10.1201 2.26367C10.2704 2.41399 10.2704 2.6573 10.1201 2.80762L7.9707 4.95801C7.72822 5.20049 7.31348 5.02847 7.31348 4.68555V3.69043H2.30957V5.61523C2.30957 6.25299 1.79205 6.77051 1.1543 6.77051C0.516755 6.77027 0 6.25284 0 5.61523V3.30566C0.000146327 2.24287 0.86198 1.38184 1.9248 1.38184H7.31348V0.385742Z" fill="#909398"/>
</g>
<defs>
<clipPath id="clip0_650_18838">
<rect width="12" height="12" fill="white"/>
</clipPath>
</defs>
</svg>
