<svg viewBox="0 0 512 512" xmlns="http://www.w3.org/2000/svg"><path d="M416.648 227.85c23.324 0 42.232 18.908 42.232 42.232v84.462c0 38.872-31.513 70.384-70.385 70.385H191.423v36.402c0 12.541-15.163 18.822-24.031 9.954l-78.63-78.631c-5.498-5.497-5.498-14.411 0-19.908l78.63-78.631c8.868-8.868 24.031-2.587 24.031 9.954v36.398h182.995v-70.385c0-23.324 18.907-42.231 42.23-42.232M304.028 50.669c0-12.541 15.163-18.822 24.031-9.954l78.63 78.631c5.498 5.497 5.498 14.41 0 19.908l-78.63 78.631c-8.868 8.867-24.031 2.587-24.031-9.954v-36.38H121.033v70.385c0 23.324-18.908 42.231-42.231 42.231s-42.23-18.907-42.23-42.231v-84.462c0-38.872 31.512-70.385 70.384-70.385h197.072z" fill="currentColor"/></svg>