<svg  viewBox="0 0 12 12" xmlns="http://www.w3.org/2000/svg"><path 	fill="currentColor" 	d="M1.63636 0H8.18182C9.08556 0 9.81818 0.732625 9.81818 1.63636C9.81818 2.5401 9.08556 3.27273 8.18182 3.27273H1.63636C0.732626 3.27273 0 2.5401 0 1.63636C0 0.732625 0.732625 0 1.63636 0ZM1.63636 1.09091C1.33512 1.09091 1.09091 1.33512 1.09091 1.63636C1.09091 1.93761 1.33512 2.18182 1.63636 2.18182H8.18182C8.48306 2.18182 8.72727 1.93761 8.72727 1.63636C8.72727 1.33512 8.48306 1.09091 8.18182 1.09091H1.63636Z M7.09091 4.36353H11.4545C12.3583 4.36353 13.0909 5.09615 13.0909 5.99989C13.0909 6.90363 12.3583 7.63625 11.4545 7.63625H7.09091C6.18717 7.63625 5.45454 6.90363 5.45454 5.99989C5.45454 5.09615 6.18717 4.36353 7.09091 4.36353ZM7.09091 5.45443C6.78966 5.45443 6.54545 5.69864 6.54545 5.99989C6.54545 6.30114 6.78966 6.54534 7.09091 6.54534H11.4545C11.7558 6.54534 12 6.30114 12 5.99989C12 5.69864 11.7558 5.45443 11.4545 5.45443H7.09091Z M7.09091 8.72729H11.4545C12.3583 8.72729 13.0909 9.45992 13.0909 10.3637C13.0909 11.2674 12.3583 12 11.4545 12H7.09091C6.18717 12 5.45454 11.2674 5.45454 10.3637C5.45454 9.45992 6.18717 8.72729 7.09091 8.72729ZM7.09091 9.8182C6.78966 9.8182 6.54545 10.0624 6.54545 10.3637C6.54545 10.6649 6.78966 10.9091 7.09091 10.9091H11.4545C11.7558 10.9091 12 10.6649 12 10.3637C12 10.0624 11.7558 9.8182 11.4545 9.8182H7.09091Z" /></svg>
