<svg  viewBox="0 0 14 14" xmlns="http://www.w3.org/2000/svg"><path 	fill="currentColor" 	d="M13.8668 8.36613L11.9048 7.978C11.967 7.66329 12 7.33649 12 7C12 6.66351 11.967 6.3367 11.9048 6.022L13.8668 5.63387C13.9542 6.07571 14 6.5325 14 7C14 7.4675 13.9542 7.92429 13.8668 8.36613ZM12.821 3.11069L11.159 4.22333C10.7934 3.67721 10.3228 3.2066 9.77667 2.84098L10.8893 1.17904C11.6527 1.6901 12.3099 2.34733 12.821 3.11069ZM8.36613 0.133238L7.978 2.09521C7.66329 2.03296 7.33649 2 7 2C6.66351 2 6.3367 2.03296 6.022 2.09521L5.63387 0.133238C6.07571 0.0458286 6.5325 0 7 0C7.4675 0 7.92429 0.0458285 8.36613 0.133238ZM3.11069 1.17904L4.22333 2.84098C3.67721 3.2066 3.2066 3.67721 2.84098 4.22333L1.17904 3.11069C1.6901 2.34733 2.34733 1.6901 3.11069 1.17904ZM0.133238 5.63387C0.0458285 6.07571 0 6.5325 0 7C0 7.4675 0.0458286 7.92429 0.133238 8.36613L2.09521 7.978C2.03296 7.6633 2 7.33649 2 7C2 6.66351 2.03296 6.33671 2.09521 6.022L0.133238 5.63387ZM1.17904 10.8893L2.84098 9.77667C3.2066 10.3228 3.67721 10.7934 4.22333 11.159L3.11069 12.821C2.34733 12.3099 1.6901 11.6527 1.17904 10.8893ZM5.63387 13.8668L6.022 11.9048C6.33671 11.967 6.66351 12 7 12C7.33649 12 7.6633 11.967 7.978 11.9048L8.36613 13.8668C7.92429 13.9542 7.4675 14 7 14C6.5325 14 6.07571 13.9542 5.63387 13.8668ZM10.8893 12.821L9.77667 11.159C10.3228 10.7934 10.7934 10.3228 11.159 9.77667L12.821 10.8893C12.3099 11.6527 11.6527 12.3099 10.8893 12.821Z" /></svg>
