<svg  viewBox="0 0 14 14" xmlns="http://www.w3.org/2000/svg"><path 	fill="currentColor" 	d="M 14 7.006 C 14 8.867 13.162 10.744 11.95 11.956 C 10.738 13.168 8.861 14.006 7 14.006 C 5.139 14.006 3.262 13.168 2.05 11.956 C 0.838 10.744 0 8.867 0 7.006 C 0 5.145 0.838 3.268 2.05 2.056 C 3.262 0.844 5.139 0.006 7 0.006 C 8.861 0.006 10.738 0.844 11.95 2.056 C 13.162 3.268 14 5.145 14 7.006 Z M 10.536 3.47 C 9.576 2.511 8.453 2.006 7 2.006 C 5.547 2.006 4.424 2.511 3.464 3.47 C 2.505 4.43 2 5.553 2 7.006 C 2 8.459 2.505 9.582 3.464 10.542 C 4.424 11.501 5.547 12.006 7 12.006 C 8.453 12.006 9.576 11.501 10.536 10.542 C 11.495 9.582 12 8.459 12 7.006 C 12 5.553 11.495 4.43 10.536 3.47 Z" /></svg>
