<svg xmlns="http://www.w3.org/2000/svg" viewBox="0 0 24 24"><path fill="#26A5E4" d="M11.944 0A12 12 0 0 0 0 12a12 12 0 0 0 12 12 12 12 0 0 0 12-12A12 12 0 0 0 12 0a12 12 0 0 0-.056 0m4.962 7.224c.1-.002.321.023.465.14a.5.5 0 0 1 .171.325c.016.093.036.306.02.472-.18 1.898-.962 6.502-1.36 8.627-.168.9-.499 1.201-.82 1.23-.696.065-1.225-.46-1.9-.902-1.056-.693-1.653-1.124-2.678-1.8-1.185-.78-.417-1.21.258-1.91.177-.184 3.247-2.977 3.307-3.23.007-.032.014-.15-.056-.212s-.174-.041-.249-.024q-.16.036-5.061 3.345-.72.495-1.302.48c-.428-.008-1.252-.241-1.865-.44-.752-.245-1.349-.374-1.297-.789q.04-.324.893-.663 5.247-2.286 6.998-3.014c3.332-1.386 4.025-1.627 4.476-1.635z"/></svg>
