<svg  viewBox="0 0 12 12" xmlns="http://www.w3.org/2000/svg"><path 	fill="currentColor" 	d="M1.78814e-07 0.666667C1.78814e-07 0.298477 0.298477 0 0.666667 0H11.3333C11.7015 0 12 0.298477 12 0.666667C12 1.03486 11.7015 1.33333 11.3333 1.33333H0.666667C0.298477 1.33333 1.78814e-07 1.03486 1.78814e-07 0.666667ZM1.78814e-07 3.62963C1.78814e-07 3.26144 0.298477 2.96296 0.666667 2.96296H11.3333C11.7015 2.96296 12 3.26144 12 3.62963C12 3.99782 11.7015 4.2963 11.3333 4.2963H0.666667C0.298477 4.2963 1.78814e-07 3.99782 1.78814e-07 3.62963ZM0 6.59259C0 6.2244 0.298477 5.92593 0.666667 5.92593H11.3333C11.7015 5.92593 12 6.2244 12 6.59259C12 6.96078 11.7015 7.25926 11.3333 7.25926H0.666667C0.298477 7.25926 0 6.96078 0 6.59259ZM0 9.55556C0 9.18737 0.298477 8.88889 0.666667 8.88889H8.66667C9.03486 8.88889 9.33333 9.18737 9.33333 9.55556C9.33333 9.92375 9.03486 10.2222 8.66667 10.2222H0.666667C0.298477 10.2222 0 9.92375 0 9.55556Z" /></svg>
