<svg xmlns="http://www.w3.org/2000/svg" xmlns:xlink="http://www.w3.org/1999/xlink" viewBox="0 0 74.375 85" fill="#fff" fill-rule="evenodd" stroke="#000" stroke-linecap="round" stroke-linejoin="round"><use xlink:href="#a" x="2.188" y="2.5"/><symbol id="a" overflow="visible"><g stroke="none"><path d="M16.558 12.75L0 38.591l16.558 25.841 13.227-3.324.654-44.869-13.881-3.489z" fill="#876929"/><path d="M35.049 59.786l-18.491 4.645V12.75l18.491 4.645v42.391z" fill="#d9a741"/><g fill="#876929"><path d="M32.849 21.614L35.05 80 70 62.867l-.01-43.615-8.914 1.448-28.228.913z"/><path d="M46.184 33.149l10.906-.632 10.778-19.164L40.612 0 30.439 4.364l15.745 28.785z"/></g><path d="M40.612 0l27.256 13.353L57.09 32.517 40.612 0z" fill="#d9a741"/><path d="M35.049 5.539L57.09 44.742l3.788 22.595L35.049 80l-10.46-5.131V9.64l10.46-4.101z" fill="#876929"/><path d="M69.991 19.251L70 62.867 35.05 80V5.539l22.041 39.203L69.99 19.251z" fill="#d9a741"/></g></symbol></svg>