<svg width="128" height="128" viewBox="0 0 128 128" fill="none" xmlns="http://www.w3.org/2000/svg">
<g clip-path="url(#clip0_314_10)">
<path d="M0 64V128H64H128V64V1.37091e-06H64H0V64ZM96 36.1143V40.2286H68.5714H41.1429V68.1143V96H36.5714H32V64.64C32 47.36 32.2743 32.9143 32.64 32.64C32.9143 32.2743 47.36 32 64.64 32H96V36.1143ZM96 49.8286V53.9429H75.8857H55.7714V74.9714V96H51.6571H47.5429V70.8571V45.7143H71.7714H96V49.8286ZM96 63.0857V66.7429H83.6571H71.3143V81.3714V96H66.7429H62.1714V78.3543C62.1714 68.5714 62.4457 60.3429 62.8114 60.0686C63.0857 59.7029 70.7657 59.4286 79.7257 59.4286H96V63.0857Z" fill="black"/>
</g>
<defs>
<clipPath id="clip0_314_10">
<rect width="128" height="128" fill="white"/>
</clipPath>
</defs>
</svg>
