<svg xmlns="http://www.w3.org/2000/svg" width="547.8" height="78.5"><path fill="#FFF" d="M96.1 3.2v38.3c0 4.3-.9 8.1-2.8 11.3-1.9 3.2-4.5 5.6-8 7.3-3.5 1.7-7.6 2.5-12.3 2.5-7.1 0-12.8-1.9-16.9-5.6-4.1-3.7-6.2-8.8-6.3-15.2V3.2H64v38.9c.2 6.4 3.1 9.6 8.9 9.6 2.9 0 5.1-.8 6.6-2.4 1.5-1.6 2.3-4.2 2.3-7.8V3.2h14.3zM146 40.4c0 6.8-1.5 12.2-4.6 16.2-3 4-7.2 6.1-12.3 6.1-4 0-7.3-1.5-9.9-4.4v20.3h-13.6V18.3h12.7l.4 4c2.6-3.2 6-4.8 10.3-4.8 5.4 0 9.5 2 12.5 5.9s4.5 9.4 4.5 16.3v.7zm-13.6-.9c0-7.7-2.3-11.6-6.8-11.6-3.2 0-5.4 1.2-6.4 3.5v17.1c1.2 2.4 3.4 3.6 6.5 3.6 4.3 0 6.5-3.7 6.7-11.2v-1.4zM169 7.4v10.8h7.2v9.4H169v19.9c0 1.6.3 2.8.9 3.4.6.6 1.8 1 3.5 1 1.3 0 2.5-.1 3.4-.2v9.7c-2.4.8-5 1.2-7.6 1.2-4.7 0-8.1-1.1-10.3-3.3-2.2-2.2-3.3-5.5-3.3-10V27.7H150v-9.4h5.6V7.4H169zm13.6-.4c0-1.9.7-3.5 2.1-4.8 1.4-1.2 3.2-1.9 5.4-1.9s4 .6 5.4 1.9c1.4 1.2 2.1 2.8 2.1 4.8 0 1.9-.7 3.5-2.1 4.8-1.4 1.2-3.2 1.9-5.4 1.9s-4-.6-5.4-1.9c-1.4-1.3-2.1-2.9-2.1-4.8zM197 61.8h-13.6V18.3H197v43.5zm22.4-43.5l.4 5.1c3.1-3.9 7.2-5.9 12.4-5.9 5.5 0 9.2 2.2 11.1 6.6 3-4.4 7.2-6.6 12.8-6.6 8.8 0 13.4 5.3 13.6 16v28.3h-13.6V34.3c0-2.2-.4-3.8-1.1-4.9-.8-1-2.1-1.5-4.1-1.5-2.7 0-4.7 1.2-6 3.6v30.3h-13.6V34.4c0-2.3-.4-3.9-1.1-4.9-.7-1-2.1-1.5-4.1-1.5-2.6 0-4.6 1.2-6 3.6v30.3h-13.6V18.3h12.9zm81.3 44.3c-6.7 0-12.1-2-16.2-6s-6.2-9.2-6.2-15.6v-1c0-4.5.8-8.4 2.5-11.8 1.6-3.4 4.1-6 7.2-7.9 3.2-1.9 6.9-2.8 11.3-2.8 6.1 0 10.9 1.9 14.5 5.7 3.5 3.8 5.3 9.1 5.3 15.9v5.3h-27c.5 2.4 1.5 4.4 3.2 5.8 1.6 1.4 3.8 2.1 6.4 2.1 4.3 0 7.6-1.5 10.1-4.5l6.2 7.3c-1.7 2.3-4.1 4.2-7.2 5.6-3.2 1.2-6.5 1.9-10.1 1.9zm-1.5-34.7c-4 0-6.3 2.6-7.1 7.9h13.7v-1c.1-2.2-.5-3.9-1.7-5-1.1-1.3-2.8-1.9-4.9-1.9zM349 41.1h-7.6v20.7h-14.1V3.2h23.1c6.9 0 12.4 1.5 16.3 4.6 3.9 3.1 5.9 7.4 5.9 13.1 0 4.1-.8 7.4-2.5 10.1s-4.2 4.9-7.7 6.5l12.2 23.7v.6h-15.1L349 41.1zm-7.7-10.9h8.9c2.7 0 4.7-.7 6.1-2.1s2-3.4 2-5.9-.7-4.5-2.1-5.9c-1.4-1.4-3.4-2.2-6-2.2h-8.9v16.1zm38.5 9.4c0-4.3.8-8.2 2.5-11.6 1.7-3.4 4.1-6 7.3-7.8 3.2-1.8 6.9-2.7 11.1-2.7 6.5 0 11.7 2 15.4 6.1 3.8 4 5.6 9.5 5.6 16.5v.5c0 6.8-1.9 12.2-5.7 16.2-3.8 4-8.9 6-15.3 6-6.2 0-11.2-1.9-14.9-5.6-3.8-3.7-5.8-8.8-6.1-15.1l.1-2.5zm13.6.9c0 4 .6 7 1.9 8.9 1.3 1.9 3.1 2.8 5.6 2.8 4.8 0 7.3-3.7 7.4-11.1v-1.4c0-7.8-2.5-11.7-7.5-11.7-4.5 0-7 3.4-7.4 10.1v2.4zm76.1-.1c0 7.1-1.5 12.6-4.4 16.5-3 3.8-7.1 5.8-12.5 5.8-4.4 0-8-1.8-10.7-5.3l-.6 4.5h-12.2V0h13.6v21.8c2.5-2.9 5.8-4.3 9.8-4.3 5.4 0 9.6 1.9 12.6 5.8s4.4 9.4 4.4 16.4v.7zm-13.6-.9c0-4.2-.6-7.2-1.7-8.9-1.1-1.8-2.8-2.7-5.1-2.7-3.1 0-5.2 1.2-6.4 3.5v17.3c1.2 2.3 3.3 3.5 6.4 3.5 3.2 0 5.2-1.6 6.1-4.7.5-1.5.7-4.2.7-8zm19.1.1c0-4.3.8-8.2 2.5-11.6 1.7-3.4 4.1-6 7.3-7.8 3.2-1.8 6.9-2.7 11.1-2.7 6.5 0 11.7 2 15.4 6.1 3.8 4 5.6 9.5 5.6 16.5v.5c0 6.8-1.9 12.2-5.7 16.2-3.8 4-8.9 6-15.3 6-6.2 0-11.2-1.9-14.9-5.6-3.8-3.7-5.8-8.8-6.1-15.1l.1-2.5zm13.5.9c0 4 .6 7 1.9 8.9 1.3 1.9 3.1 2.8 5.6 2.8 4.8 0 7.3-3.7 7.4-11.1v-1.4c0-7.8-2.5-11.7-7.5-11.7-4.5 0-7 3.4-7.4 10.1v2.4zM540 7.4v10.8h7.2v9.4H540v19.9c0 1.6.3 2.8.9 3.4s1.8 1 3.5 1c1.3 0 2.5-.1 3.4-.2v9.7c-2.4.8-5 1.2-7.6 1.2-4.7 0-8.1-1.1-10.3-3.3-2.2-2.2-3.3-5.5-3.3-10V27.7H521v-9.4h5.6V7.4H540z"/><circle fill="#3BD771" cx="14.7" cy="46.9" r="14.7"/></svg>