<svg width="34" height="18" viewBox="0 0 34 18" fill="none" xmlns="http://www.w3.org/2000/svg">
<path fill-rule="evenodd" clip-rule="evenodd" d="M29.61 7.61236C30.7718 6.90218 31.4624 5.61436 31.4624 4.248C31.4624 1.82127 29.3645 0 25.6598 0H14.2625V7.866C10.0718 7.668 6.97582 6.85473 5.06291 5.79109V0.00163636H0V18H5.06291V10.0931C8.12945 11.2091 11.1175 11.7769 14.2625 11.8391V18H25.2884C30.8667 18 33.4342 15.624 33.4342 12.2875C33.4342 9.98673 31.8551 8.31927 29.6084 7.614L29.61 7.61236ZM19.3254 3.54109L24.6239 3.53291C26.1899 3.53291 26.6972 4.11218 26.6972 4.79291C26.6972 6.08236 23.6667 7.34236 19.3254 7.68273V3.54109ZM27.4603 13.855C27.948 13.5703 28.2932 13.2364 28.4585 12.865C28.9052 11.8619 28.2016 10.6314 27.0791 10.399C26.5211 10.2844 25.6161 10.2795 24.3643 10.5904C24.1042 10.6553 23.852 10.7201 23.6011 10.7845C22.389 11.0961 21.2083 11.3995 19.3211 11.6557V14.4604H24.8798C25.7585 14.4228 26.6912 14.3033 27.4603 13.855Z" fill="#131416"/>
</svg>
