<svg xmlns="http://www.w3.org/2000/svg" xmlns:xlink="http://www.w3.org/1999/xlink" id="svg" width="400" height="400" version="1.1" viewBox="0 0 400 400"><g id="svgg"><path id="path0" fill="#d4d4d4" fill-rule="evenodd" stroke="none" d="M142.540 174.296 C 142.658 198.242,142.978 207.381,143.849 211.600 C 144.008 212.370,144.155 213.090,144.175 213.200 C 144.196 213.310,144.324 213.580,144.460 213.800 C 144.596 214.020,144.834 214.965,144.989 215.900 C 145.144 216.835,145.417 217.600,145.595 217.600 C 145.774 217.600,146.136 218.500,146.400 219.600 C 146.664 220.700,147.042 221.600,147.240 221.600 C 147.438 221.600,147.600 221.947,147.600 222.371 C 147.600 222.796,147.835 223.381,148.122 223.671 C 148.719 224.275,149.360 225.649,149.260 226.111 C 149.223 226.282,149.464 226.527,149.796 226.654 C 150.128 226.781,150.400 227.142,150.400 227.455 C 150.400 227.769,150.654 228.122,150.964 228.241 C 151.274 228.361,151.627 228.850,151.749 229.329 C 151.966 230.182,153.107 231.817,154.500 233.270 C 154.885 233.671,155.200 234.055,155.200 234.122 C 155.200 234.450,160.013 239.146,161.408 240.179 C 162.283 240.827,163.128 241.547,163.285 241.779 C 163.442 242.010,163.764 242.200,164.000 242.200 C 164.236 242.200,164.558 242.398,164.715 242.640 C 165.066 243.182,166.890 244.201,167.300 244.085 C 167.465 244.038,167.600 244.176,167.600 244.392 C 167.600 244.705,170.367 246.411,171.200 246.612 C 171.310 246.639,172.599 247.232,174.065 247.930 C 175.530 248.629,177.065 249.200,177.476 249.200 C 177.886 249.200,178.592 249.459,179.044 249.776 C 179.496 250.092,181.471 250.555,183.433 250.804 C 185.395 251.054,187.313 251.425,187.695 251.629 C 188.106 251.849,202.472 252.000,222.983 252.000 L 257.578 252.000 257.594 225.948 C 257.607 205.531,257.502 199.760,257.105 199.271 C 256.683 198.749,256.698 198.704,257.200 199.000 C 257.679 199.283,257.711 199.238,257.355 198.777 C 257.110 198.460,256.793 196.310,256.650 194.000 C 256.397 189.885,255.355 184.994,254.220 182.591 C 253.906 181.926,253.554 180.860,253.438 180.223 C 253.323 179.586,253.056 178.958,252.846 178.828 C 252.636 178.698,252.340 178.099,252.188 177.496 C 252.037 176.893,251.772 176.400,251.600 176.400 C 251.428 176.400,251.169 175.932,251.026 175.360 C 250.773 174.353,249.347 172.054,248.666 171.555 C 248.482 171.421,248.349 171.151,248.369 170.955 C 248.390 170.760,248.095 170.240,247.714 169.800 C 245.885 167.689,242.324 163.400,242.077 163.011 C 241.925 162.770,240.360 161.410,238.600 159.987 C 236.840 158.564,235.268 157.220,235.106 157.000 C 234.944 156.780,234.809 156.733,234.806 156.896 C 234.800 157.186,230.796 154.897,230.400 154.378 C 230.290 154.234,229.525 153.896,228.700 153.627 C 227.875 153.358,227.200 152.980,227.200 152.787 C 227.200 152.594,226.570 152.318,225.800 152.174 C 225.030 152.029,224.400 151.774,224.400 151.607 C 224.400 151.441,223.545 151.073,222.500 150.790 C 221.455 150.507,220.406 150.127,220.168 149.946 C 219.931 149.764,217.996 149.395,215.868 149.127 C 213.741 148.858,212.000 148.498,212.000 148.328 C 212.000 148.157,196.343 148.011,177.206 148.004 L 142.411 147.992 142.540 174.296 M331.600 148.342 C 331.600 148.530,330.475 148.797,329.100 148.934 C 327.725 149.071,326.060 149.298,325.400 149.438 C 324.740 149.579,323.983 149.702,323.718 149.713 C 323.452 149.724,323.315 149.863,323.414 150.022 C 323.512 150.181,322.784 150.432,321.796 150.580 C 320.808 150.728,320.000 151.012,320.000 151.212 C 320.000 151.412,319.730 151.471,319.400 151.345 C 319.070 151.218,318.800 151.314,318.800 151.557 C 318.800 151.801,318.363 152.000,317.829 152.000 C 317.294 152.000,316.619 152.233,316.329 152.517 C 316.038 152.801,315.170 153.289,314.400 153.600 C 313.630 153.911,312.762 154.399,312.471 154.683 C 312.181 154.967,311.686 155.200,311.371 155.200 C 311.057 155.200,310.800 155.358,310.800 155.551 C 310.800 155.745,310.260 156.127,309.600 156.400 C 308.940 156.673,308.400 157.043,308.400 157.222 C 308.400 157.400,308.085 157.647,307.700 157.770 C 307.315 157.894,306.292 158.626,305.427 159.397 C 304.562 160.169,303.697 160.800,303.504 160.800 C 303.311 160.800,303.264 160.980,303.400 161.200 C 303.536 161.420,303.469 161.600,303.251 161.600 C 303.034 161.600,302.078 162.419,301.128 163.420 C 300.178 164.420,298.743 165.933,297.939 166.780 C 297.136 167.628,296.358 168.701,296.211 169.166 C 296.063 169.631,295.802 169.925,295.630 169.818 C 295.337 169.638,294.453 171.126,294.554 171.629 C 294.579 171.754,294.285 172.172,293.900 172.557 C 293.515 172.942,293.200 173.499,293.200 173.795 C 293.200 174.091,293.065 174.393,292.900 174.467 C 292.507 174.641,290.400 178.938,290.400 179.564 C 290.400 179.830,290.250 179.955,290.067 179.841 C 289.883 179.728,289.728 179.852,289.722 180.118 C 289.716 180.383,289.236 181.999,288.656 183.708 C 288.075 185.418,287.600 187.263,287.600 187.808 C 287.600 188.354,287.450 188.800,287.267 188.800 C 287.083 188.800,286.915 189.025,286.894 189.300 C 286.872 189.575,286.665 191.870,286.433 194.400 C 286.191 197.053,286.010 210.217,286.007 225.500 L 286.000 252.000 320.405 252.000 C 340.891 252.000,355.092 251.849,355.505 251.627 C 355.887 251.422,357.865 251.036,359.900 250.769 C 361.935 250.502,363.600 250.159,363.600 250.006 C 363.600 249.853,364.590 249.490,365.800 249.200 C 367.010 248.910,368.000 248.541,368.000 248.381 C 368.000 248.220,368.630 247.971,369.400 247.826 C 370.170 247.682,370.800 247.406,370.800 247.214 C 370.800 247.021,371.338 246.745,371.995 246.601 C 372.653 246.457,373.295 246.170,373.423 245.963 C 373.550 245.757,374.227 245.314,374.927 244.980 C 377.345 243.824,378.400 243.155,378.400 242.778 C 378.400 242.570,378.641 242.400,378.937 242.400 C 379.623 242.400,380.843 241.370,384.912 237.356 C 388.140 234.171,390.487 231.600,390.165 231.600 C 390.075 231.600,390.801 230.514,391.778 229.187 C 392.755 227.860,393.667 226.420,393.804 225.987 C 393.942 225.554,394.222 225.200,394.427 225.200 C 394.632 225.200,394.800 224.998,394.800 224.750 C 394.800 224.295,396.453 220.238,397.388 218.400 C 397.668 217.850,398.026 216.680,398.184 215.800 C 398.342 214.920,398.615 214.020,398.790 213.800 C 399.757 212.586,400.000 205.256,400.000 177.336 L 400.000 148.000 365.800 148.000 C 346.990 148.000,331.600 148.154,331.600 148.342 M142.414 307.768 C 142.410 322.612,142.558 334.850,142.744 334.965 C 142.929 335.080,143.207 337.288,143.362 339.872 C 143.516 342.455,143.790 344.756,143.969 344.985 C 144.148 345.213,144.522 346.390,144.800 347.600 C 145.078 348.810,145.430 349.980,145.582 350.200 C 145.874 350.620,146.936 354.117,146.832 354.314 C 146.799 354.377,147.048 354.705,147.386 355.043 C 147.724 355.381,148.000 355.914,148.000 356.229 C 148.000 356.543,148.166 356.800,148.368 356.800 C 148.571 356.800,148.855 357.339,148.999 357.998 C 149.144 358.656,149.484 359.331,149.755 359.498 C 150.025 359.664,150.477 360.370,150.758 361.067 C 151.040 361.764,151.788 362.934,152.422 363.667 C 153.056 364.400,153.768 365.225,154.003 365.500 C 154.239 365.775,154.357 366.000,154.266 366.000 C 154.174 366.000,154.960 366.888,156.011 367.972 C 157.062 369.057,157.819 370.047,157.694 370.172 C 157.569 370.298,157.734 370.400,158.061 370.400 C 158.388 370.400,159.022 370.805,159.470 371.300 C 161.066 373.063,164.505 375.811,165.941 376.470 C 166.743 376.839,167.220 377.157,167.000 377.176 C 166.437 377.226,174.010 380.952,174.974 381.099 C 175.409 381.166,175.863 381.351,175.983 381.510 C 176.410 382.081,181.444 383.589,183.800 383.853 C 185.120 384.000,186.328 384.319,186.485 384.561 C 186.918 385.227,256.226 385.442,257.025 384.779 C 257.733 384.191,257.895 331.600,257.189 331.600 C 256.975 331.600,256.796 330.385,256.792 328.900 C 256.783 325.703,256.131 320.841,255.629 320.231 C 255.434 319.994,255.148 318.945,254.992 317.900 C 254.836 316.855,254.578 316.000,254.418 316.000 C 254.258 316.000,253.908 315.022,253.641 313.826 C 253.373 312.630,253.029 311.595,252.877 311.526 C 252.725 311.457,252.060 310.320,251.400 309.000 C 250.740 307.680,250.108 306.510,249.996 306.400 C 249.601 306.012,247.458 302.600,247.610 302.600 C 247.890 302.600,245.887 300.301,241.824 295.959 C 240.877 294.947,239.404 293.598,238.551 292.961 C 237.698 292.325,236.910 291.702,236.800 291.576 C 236.449 291.175,232.866 288.800,232.611 288.800 C 232.387 288.800,232.126 288.609,230.686 287.388 C 230.419 287.161,229.435 286.727,228.500 286.424 C 227.565 286.120,226.800 285.721,226.800 285.536 C 226.800 285.351,226.602 285.200,226.360 285.200 C 226.119 285.200,225.354 284.946,224.660 284.636 C 221.964 283.430,215.656 281.755,212.000 281.275 C 211.230 281.174,195.260 281.021,176.511 280.935 L 142.422 280.779 142.414 307.768 M332.400 281.150 C 332.400 281.333,331.725 281.491,330.900 281.502 C 328.724 281.528,325.228 282.281,324.486 282.882 C 323.946 283.319,323.901 283.307,324.200 282.800 C 324.483 282.320,324.438 282.290,323.977 282.648 C 323.660 282.895,322.455 283.334,321.300 283.624 C 320.145 283.914,319.200 284.289,319.200 284.457 C 319.200 284.626,318.570 284.882,317.800 285.026 C 317.030 285.171,316.400 285.420,316.400 285.580 C 316.400 285.741,315.680 286.110,314.800 286.400 C 313.920 286.690,313.200 287.058,313.200 287.217 C 313.200 287.455,312.424 287.775,311.391 287.965 C 311.286 287.984,310.870 288.315,310.466 288.700 C 310.062 289.085,309.320 289.670,308.817 290.000 C 308.314 290.330,307.654 290.838,307.351 291.129 C 307.048 291.419,306.800 291.553,306.800 291.425 C 306.800 291.093,304.775 292.912,300.940 296.690 C 299.103 298.500,297.600 300.165,297.600 300.390 C 297.600 300.616,297.416 300.800,297.191 300.800 C 296.967 300.800,296.564 301.295,296.298 301.900 C 296.031 302.505,295.479 303.246,295.072 303.547 C 294.665 303.847,293.986 304.837,293.565 305.747 C 293.143 306.656,292.442 307.985,292.007 308.700 C 291.572 309.415,291.348 310.003,291.508 310.006 C 291.669 310.009,291.618 310.144,291.396 310.306 C 290.786 310.750,289.254 314.400,288.966 316.096 C 288.827 316.920,288.569 317.504,288.394 317.396 C 288.219 317.288,287.946 318.144,287.789 319.300 C 287.632 320.455,287.355 321.494,287.175 321.609 C 286.340 322.141,285.968 335.008,286.081 359.400 L 286.200 385.000 321.315 385.000 C 345.214 385.000,356.521 384.867,356.715 384.583 C 356.872 384.354,358.507 383.953,360.350 383.691 C 362.192 383.430,363.902 383.057,364.150 382.863 C 364.647 382.474,366.827 381.831,367.300 381.934 C 367.465 381.970,367.600 381.840,367.600 381.643 C 367.600 381.327,368.720 380.889,370.360 380.564 C 370.668 380.503,371.028 380.285,371.160 380.081 C 371.292 379.876,371.850 379.569,372.400 379.399 C 372.950 379.229,374.152 378.575,375.072 377.945 C 375.992 377.315,376.927 376.800,377.149 376.800 C 377.372 376.800,377.806 376.441,378.113 376.003 C 378.420 375.564,378.766 375.300,378.882 375.415 C 378.997 375.531,379.521 375.173,380.046 374.619 C 380.571 374.066,381.141 373.611,381.313 373.607 C 381.824 373.596,388.517 366.728,389.601 365.103 C 390.150 364.279,390.735 363.604,390.900 363.603 C 391.065 363.601,391.200 363.407,391.200 363.171 C 391.200 362.936,391.425 362.492,391.700 362.185 C 392.837 360.917,393.200 360.417,393.201 360.117 C 393.202 359.943,393.833 358.753,394.604 357.474 C 395.376 356.195,395.853 355.244,395.665 355.360 C 395.477 355.476,395.742 354.744,396.254 353.734 C 396.765 352.724,397.087 351.740,396.968 351.548 C 396.850 351.357,396.922 351.200,397.129 351.200 C 397.336 351.200,397.736 350.345,398.019 349.300 C 398.601 347.147,398.582 347.210,398.918 346.400 C 399.787 344.305,400.000 337.179,400.000 310.167 L 400.000 280.792 366.200 280.805 C 347.610 280.812,332.400 280.967,332.400 281.150"/><path id="path1" fill="#2cb3ac" fill-rule="evenodd" stroke="none" d="M142.696 15.038 C 142.228 15.506,142.331 68.710,142.800 69.000 C 143.020 69.136,143.200 70.259,143.200 71.497 C 143.200 74.622,144.032 80.800,144.452 80.800 C 144.644 80.800,144.806 81.295,144.814 81.900 C 144.821 82.505,145.175 83.720,145.600 84.600 C 146.025 85.480,146.379 86.426,146.386 86.701 C 146.394 86.977,146.760 87.875,147.200 88.696 C 147.640 89.516,148.000 90.416,148.000 90.694 C 148.000 90.972,148.144 91.200,148.320 91.200 C 148.495 91.200,148.867 91.830,149.146 92.600 C 149.424 93.370,149.820 94.000,150.026 94.000 C 150.232 94.000,150.400 94.237,150.400 94.528 C 150.400 94.818,151.129 96.033,152.020 97.228 C 152.911 98.422,153.946 99.827,154.320 100.348 C 155.448 101.920,159.744 106.131,162.042 107.916 C 163.229 108.838,164.418 109.775,164.685 109.998 C 164.952 110.221,165.672 110.626,166.285 110.897 C 166.898 111.169,167.619 111.573,167.886 111.795 C 168.153 112.018,168.614 112.400,168.909 112.643 C 169.204 112.887,170.110 113.306,170.923 113.574 C 171.735 113.843,172.400 114.214,172.400 114.399 C 172.400 114.585,172.942 114.855,173.604 115.001 C 174.266 115.146,175.341 115.531,175.992 115.856 C 176.643 116.181,177.856 116.554,178.688 116.685 C 179.519 116.816,180.290 117.052,180.400 117.209 C 180.590 117.480,182.950 118.013,187.400 118.792 C 188.500 118.984,204.745 119.155,223.500 119.171 L 257.600 119.200 257.600 92.624 C 257.600 75.337,257.460 65.961,257.200 65.800 C 256.980 65.664,256.800 64.406,256.800 63.005 C 256.800 60.042,256.073 54.382,255.617 53.800 C 255.445 53.580,255.184 52.733,255.037 51.917 C 254.890 51.101,254.508 49.931,254.188 49.317 C 253.867 48.703,253.604 48.012,253.602 47.782 C 253.599 47.167,250.312 40.623,249.928 40.467 C 249.748 40.393,249.600 40.151,249.600 39.928 C 249.600 38.065,240.798 28.218,236.793 25.600 C 236.289 25.270,235.593 24.685,235.249 24.300 C 234.904 23.915,234.420 23.600,234.172 23.600 C 233.925 23.600,233.307 23.240,232.800 22.800 C 232.293 22.360,231.712 22.000,231.510 22.000 C 231.308 22.000,230.864 21.721,230.523 21.380 C 230.182 21.040,229.385 20.657,228.752 20.530 C 228.118 20.404,227.600 20.162,227.600 19.993 C 227.600 19.825,227.111 19.564,226.514 19.414 C 225.917 19.264,224.666 18.795,223.736 18.371 C 222.805 17.947,221.764 17.600,221.422 17.600 C 221.080 17.600,220.800 17.449,220.800 17.264 C 220.800 17.080,219.225 16.706,217.300 16.433 C 215.375 16.160,213.440 15.726,213.000 15.468 C 212.091 14.936,143.219 14.514,142.696 15.038 M333.500 15.097 C 331.795 15.172,330.400 15.406,330.400 15.617 C 330.400 15.828,329.800 16.000,329.067 16.000 C 327.311 16.000,323.102 16.820,322.620 17.256 C 322.411 17.445,321.988 17.600,321.680 17.600 C 321.373 17.600,320.554 17.854,319.860 18.165 C 319.167 18.476,317.430 19.231,316.000 19.843 C 314.570 20.456,312.971 21.281,312.446 21.678 C 311.921 22.075,311.246 22.400,310.946 22.400 C 310.646 22.400,310.400 22.551,310.400 22.736 C 310.400 22.920,309.943 23.280,309.385 23.534 C 308.281 24.037,307.508 24.614,306.483 25.700 C 306.120 26.085,305.637 26.401,305.411 26.402 C 304.968 26.403,297.600 33.700,297.600 34.137 C 297.600 34.281,297.285 34.739,296.900 35.153 C 295.662 36.483,294.800 37.750,294.800 38.239 C 294.800 38.500,294.530 38.818,294.200 38.945 C 293.870 39.071,293.600 39.438,293.600 39.759 C 293.600 40.080,293.368 40.581,293.085 40.871 C 292.339 41.638,290.400 45.480,290.400 46.193 C 290.400 46.527,290.238 46.800,290.040 46.800 C 289.842 46.800,289.458 47.745,289.188 48.900 C 288.917 50.055,288.559 51.180,288.393 51.400 C 288.227 51.620,287.960 52.610,287.800 53.600 C 287.640 54.590,287.358 55.589,287.172 55.820 C 286.359 56.832,286.000 68.196,286.000 92.874 L 286.000 119.232 321.539 119.116 C 346.951 119.033,357.237 118.873,357.639 118.553 C 357.947 118.307,359.186 117.981,360.390 117.828 C 361.595 117.674,362.765 117.410,362.990 117.241 C 363.216 117.072,364.435 116.695,365.700 116.403 C 366.965 116.111,368.000 115.741,368.000 115.581 C 368.000 115.420,368.630 115.171,369.400 115.026 C 370.170 114.882,370.800 114.606,370.800 114.414 C 370.800 114.221,371.325 113.948,371.967 113.807 C 372.609 113.666,373.537 113.202,374.028 112.775 C 374.520 112.349,375.165 112.000,375.461 112.000 C 375.758 112.000,376.000 111.832,376.000 111.627 C 376.000 111.422,376.359 111.140,376.798 111.001 C 377.236 110.862,377.821 110.527,378.098 110.257 C 378.374 109.988,378.987 109.500,379.460 109.174 C 382.322 107.199,387.600 102.317,387.600 101.644 C 387.600 101.386,387.847 101.080,388.149 100.964 C 388.451 100.848,389.299 99.909,390.035 98.877 C 390.770 97.845,391.603 96.762,391.886 96.471 C 392.169 96.181,392.400 95.686,392.400 95.371 C 392.400 95.057,392.568 94.800,392.774 94.800 C 392.980 94.800,393.376 94.170,393.654 93.400 C 393.933 92.630,394.290 92.000,394.449 92.000 C 394.607 92.000,394.855 91.460,395.000 90.800 C 395.145 90.140,395.400 89.600,395.568 89.600 C 395.735 89.600,396.112 88.835,396.406 87.900 C 396.699 86.965,397.088 86.029,397.270 85.820 C 397.451 85.611,397.600 85.188,397.600 84.880 C 397.600 84.573,397.857 83.754,398.170 83.060 C 399.671 79.742,399.732 78.444,399.888 46.300 L 400.040 14.800 368.320 14.880 C 350.874 14.925,335.205 15.022,333.500 15.097"/><path id="path2" fill="#fcac44" fill-rule="evenodd" stroke="none" d="M0.002 177.500 C 0.005 207.289,0.291 214.051,1.603 215.363 C 1.821 215.581,2.000 216.102,2.000 216.520 C 2.000 217.275,2.180 217.738,4.161 222.075 C 4.732 223.327,5.200 224.542,5.200 224.775 C 5.200 225.009,5.335 225.201,5.500 225.201 C 5.665 225.202,6.334 226.192,6.986 227.401 C 7.638 228.611,8.291 229.600,8.437 229.600 C 8.583 229.600,8.921 230.127,9.188 230.771 C 9.455 231.415,9.927 232.040,10.237 232.159 C 10.546 232.278,10.800 232.572,10.800 232.813 C 10.800 233.187,17.408 239.868,19.207 241.313 C 20.458 242.318,23.193 244.060,24.800 244.876 C 25.350 245.155,25.890 245.490,26.000 245.619 C 26.418 246.112,33.378 249.199,34.078 249.202 C 34.365 249.204,35.065 249.448,35.633 249.744 C 36.201 250.040,38.181 250.506,40.033 250.778 C 41.885 251.050,43.713 251.437,44.095 251.636 C 44.496 251.846,59.414 252.000,79.395 252.000 L 114.000 252.000 114.000 225.658 C 114.000 201.048,113.630 189.328,112.838 188.813 C 112.658 188.696,112.379 187.700,112.218 186.600 C 112.057 185.500,111.785 184.420,111.614 184.200 C 111.443 183.980,111.066 182.855,110.776 181.700 C 110.486 180.545,110.110 179.600,109.940 179.600 C 109.771 179.600,109.416 178.880,109.153 178.000 C 108.889 177.120,108.541 176.400,108.380 176.400 C 108.219 176.400,107.963 175.907,107.812 175.304 C 107.660 174.701,107.407 174.116,107.249 174.004 C 107.091 173.892,106.446 172.900,105.817 171.800 C 105.187 170.700,104.431 169.656,104.136 169.480 C 103.841 169.304,103.600 168.973,103.600 168.744 C 103.600 167.851,96.827 160.931,93.886 158.819 C 92.849 158.074,92.000 157.337,92.000 157.181 C 92.000 157.025,91.415 156.660,90.700 156.371 C 89.985 156.082,89.310 155.736,89.200 155.602 C 88.827 155.147,86.206 153.693,85.219 153.393 C 84.679 153.229,83.991 152.848,83.690 152.547 C 83.389 152.246,82.806 152.000,82.395 152.000 C 81.984 152.000,81.547 151.838,81.425 151.640 C 81.303 151.442,80.257 151.056,79.101 150.782 C 77.946 150.508,76.906 150.141,76.792 149.967 C 76.677 149.792,74.967 149.440,72.992 149.184 C 71.016 148.929,69.087 148.558,68.705 148.360 C 68.310 148.155,53.359 148.000,34.005 148.000 L 0.000 148.000 0.002 177.500 M0.112 312.300 C 0.263 343.398,0.398 346.640,1.601 348.200 C 1.771 348.420,2.036 349.365,2.190 350.300 C 2.344 351.235,2.620 352.000,2.803 352.000 C 2.987 352.000,3.263 352.585,3.418 353.300 C 3.682 354.513,5.111 357.547,5.632 357.999 C 5.760 358.109,6.119 358.785,6.430 359.500 C 6.741 360.215,7.131 360.800,7.298 360.800 C 7.464 360.800,7.600 361.076,7.600 361.413 C 7.600 361.749,7.870 362.129,8.200 362.255 C 8.530 362.382,8.802 362.691,8.805 362.943 C 8.823 364.430,18.867 374.409,22.350 376.400 C 22.928 376.730,23.460 377.135,23.533 377.300 C 23.607 377.465,23.849 377.600,24.072 377.600 C 24.294 377.600,24.965 377.948,25.563 378.373 C 26.160 378.799,27.133 379.268,27.724 379.417 C 28.316 379.565,28.800 379.840,28.800 380.027 C 28.800 380.215,29.565 380.591,30.500 380.864 C 31.435 381.138,32.290 381.464,32.400 381.591 C 32.851 382.109,38.421 383.660,40.628 383.882 C 41.933 384.013,43.128 384.318,43.285 384.560 C 43.488 384.873,53.752 385.037,78.785 385.129 L 114.000 385.258 114.000 358.651 C 114.000 333.710,113.628 322.122,112.811 321.600 C 112.638 321.490,112.368 320.455,112.211 319.300 C 112.054 318.145,111.778 317.200,111.598 317.200 C 111.418 317.200,111.151 316.494,111.005 315.632 C 110.240 311.100,103.947 301.108,98.600 295.933 C 97.940 295.295,96.751 294.148,95.959 293.386 C 95.166 292.624,94.311 292.000,94.059 292.000 C 93.806 292.000,93.600 291.852,93.600 291.671 C 93.600 291.303,90.522 289.200,89.984 289.200 C 89.795 289.200,89.496 288.973,89.320 288.696 C 88.955 288.121,84.843 286.000,84.094 286.000 C 83.822 286.000,83.600 285.820,83.600 285.600 C 83.600 285.380,83.375 285.199,83.100 285.198 C 82.825 285.196,82.090 284.929,81.467 284.604 C 80.843 284.279,79.583 283.822,78.667 283.590 C 77.750 283.357,76.640 282.997,76.200 282.789 C 75.760 282.581,74.320 282.221,73.000 281.989 C 71.680 281.756,69.790 281.405,68.800 281.207 C 67.810 281.009,51.916 280.837,33.480 280.824 L -0.040 280.800 0.112 312.300"/><path id="path3" fill="#d8c0b0" fill-rule="evenodd" stroke="none"/><path id="path4" fill="#ecc0b0" fill-rule="evenodd" stroke="none"/></g></svg>