<svg xmlns="http://www.w3.org/2000/svg" xmlns:xlink="http://www.w3.org/1999/xlink" width="256" height="256" viewBox="0 0 256 256"><path d="M128,28A100,100,0,1,0,228,128,100.11,100.11,0,0,0,128,28Zm57.34,149.65a58.18,58.18,0,0,1-82.44,5.34c-8.35-7.51-13.38-17.06-14.85-28a82.08,82.08,0,0,1,17.06-53.34c5.34-6.32,12.7-9.46,21.06-8.35a13.8,13.8,0,0,1,11.05,8.35c3.16,5.91,6.32,12.7,8.35,19.49,1.58,4.74.79,8.35-1.58,11.05-3.16,3.95-6.32,8.35-9.46,12.7a55.35,55.35,0,0,0,38.5,29.41c4.74,1.58,8.35.79,11.05-2.37,3.16-3.16,8.35-6.32,13.05-9.46a14.36,14.36,0,0,1,15.64,2.37A82.76,82.76,0,0,1,185.34,177.65Z" fill="#25D366"/></svg>
