<?xml version="1.0" encoding="UTF-8" standalone="no"?>
<!-- Generator: Adobe Illustrator 24.0.2, SVG Export Plug-In . SVG Version: 6.00 Build 0)  -->

<svg
   version="1.1"
   id="Layer_1"
   x="0px"
   y="0px"
   viewBox="-2457.7 882.5 59.999998 60"
   xml:space="preserve"
   sodipodi:docname="marketstack.svg"
   width="60"
   height="60"
   inkscape:version="1.1 (c68e22c387, 2021-05-23)"
   xmlns:inkscape="http://www.inkscape.org/namespaces/inkscape"
   xmlns:sodipodi="http://sodipodi.sourceforge.net/DTD/sodipodi-0.dtd"
   xmlns="http://www.w3.org/2000/svg"
   xmlns:svg="http://www.w3.org/2000/svg"
   xmlns:rdf="http://www.w3.org/1999/02/22-rdf-syntax-ns#"
   xmlns:cc="http://creativecommons.org/ns#"
   xmlns:dc="http://purl.org/dc/elements/1.1/"><defs
   id="defs77" /><sodipodi:namedview
   id="namedview75"
   pagecolor="#ffffff"
   bordercolor="#666666"
   borderopacity="1.0"
   inkscape:pageshadow="2"
   inkscape:pageopacity="0.0"
   inkscape:pagecheckerboard="0"
   showgrid="false"
   width="60px"
   inkscape:zoom="6.8111408"
   inkscape:cx="145.49692"
   inkscape:cy="32.44684"
   inkscape:window-width="3840"
   inkscape:window-height="2066"
   inkscape:window-x="-11"
   inkscape:window-y="-11"
   inkscape:window-maximized="1"
   inkscape:current-layer="Layer_1" />
<style
   type="text/css"
   id="style44">
	.st0{enable-background:new    ;}
	.st1{fill:#FFFFFF;}
</style>
<title
   id="title46">Marketstack</title>

<path
   class="st1"
   d="m -2398.9017,942.5 c 0,-0.38462 0.096,-0.67308 0.096,-0.86538 0,-1.63462 0,-3.36539 0,-5 0,-17.69231 0,-35.48077 0,-53.17308 0,-0.96154 0,-0.96154 -0.9616,-0.96154 -7.1154,0 -14.2307,0 -21.3461,0 -0.6731,0 -0.8654,0.19231 -0.8654,0.86538 0,3.36539 0,6.63462 0,10 0,0.67308 0.2884,0.86539 0.8654,0.86539 3.2692,0 6.5384,0 9.7115,0 0.9615,0 0.9615,0 0.9615,0.96154 0,6.53846 0,13.07692 0,19.61538 0,7.30769 0,14.51923 0,21.82693 0,0.48076 0,0.86538 0.577,1.15384 2.8846,1.25 5.7692,2.59616 8.5577,3.84616 0.7692,0.1923 1.5384,0.48076 2.4038,0.86538 z m -17.2115,-21.44231 c 0,0 0,0 0,0 0,-6.82692 0,-13.65384 0,-20.48077 0,-0.86538 0,-0.86538 -0.8654,-0.86538 -7.2116,0 -14.3269,0 -21.5385,0 -0.6731,0 -0.8654,0.19231 -0.8654,0.86538 0,3.36539 0,6.63462 0,10 0,0.67308 0.2885,0.86539 0.8654,0.86539 3.1731,0 6.3462,0 9.5193,0 1.25,0 1.25,-0.19231 1.25,1.25 0,7.98077 0,15.86538 0,23.84615 0,0.67308 0.1923,1.05769 0.8653,1.25 1.4423,0.57692 2.7885,1.25 4.2308,1.92308 2.0192,0.86538 3.9423,1.73077 5.9615,2.69231 0.4808,0.1923 0.6731,0.0961 0.6731,-0.38462 0,-0.19231 0,-0.38461 0,-0.57692 -0.096,-6.92308 -0.096,-13.65385 -0.096,-20.38462 z m -17.3077,8.75 c 0,0 0,0 0,0 0,-3.94231 0,-7.98077 0,-11.92307 0,-0.57693 -0.1923,-0.86539 -0.8654,-0.86539 -7.1154,0 -14.3269,0 -21.4423,0 -0.8654,0 -0.8654,0 -0.8654,0.86539 0,5.1923 0,10.48076 0,15.67307 0,0.67308 0.1923,0.96154 0.7692,1.15385 2.1154,0.67308 4.1346,1.44231 6.25,2.21154 5.0962,1.73077 10.1923,3.55769 15.2885,5.28846 0.8654,0.28846 0.8654,0.28846 0.8654,-0.67308 0,-3.84615 0,-7.78846 0,-11.73077 z"
   id="path72"
   style="fill:#02283e;fill-opacity:1;stroke-width:0.961538" />
<metadata
   id="metadata1072"><rdf:RDF><cc:Work
       rdf:about=""><dc:title>Marketstack</dc:title></cc:Work></rdf:RDF></metadata></svg>
