<svg xmlns="http://www.w3.org/2000/svg" xml:space="preserve" width="60" height="60" viewBox="-2457.7 882.5 60 60"><path d="M-2398.902 942.5c0-.385.096-.673.096-.865v-58.173c0-.962 0-.962-.961-.962h-21.346c-.674 0-.866.192-.866.865v10c0 .673.289.866.866.866h9.711c.962 0 .962 0 .962.961v41.443c0 .48 0 .865.577 1.153 2.884 1.25 5.769 2.597 8.557 3.847.77.192 1.539.48 2.404.865m-17.211-21.442v-20.481c0-.865 0-.865-.866-.865h-21.538c-.673 0-.866.192-.866.865v10c0 .673.289.865.866.865h9.52c1.25 0 1.25-.192 1.25 1.25v23.846c0 .674.191 1.058.864 1.25 1.443.577 2.789 1.25 4.231 1.924 2.02.865 3.943 1.73 5.962 2.692.48.192.673.096.673-.385v-.577c-.096-6.923-.096-13.654-.096-20.384m-17.308 8.75v-11.923c0-.577-.192-.866-.865-.866h-21.443c-.865 0-.865 0-.865.866v15.673c0 .673.192.961.77 1.154 2.115.673 4.134 1.442 6.25 2.211 5.095 1.73 10.192 3.558 15.288 5.289.865.288.865.288.865-.674z" style="fill:#02283e;fill-opacity:1;stroke-width:.961538"/></svg>