<svg width="40" height="40" viewBox="0 0 40 40" fill="none" xmlns="http://www.w3.org/2000/svg">
<path d="M39.4615 40C39.4615 39.7436 39.5257 39.5513 39.5257 39.4231C39.5257 38.3333 39.5257 37.1795 39.5257 36.0897C39.5257 24.2949 39.5257 12.4359 39.5257 0.641025C39.5257 0 39.5257 0 38.8847 0C34.1411 0 29.3974 0 24.6538 0C24.2051 0 24.0769 0.128221 24.0769 0.576938C24.0769 2.82053 24.0769 4.99999 24.0769 7.24358C24.0769 7.6923 24.2692 7.82052 24.6538 7.82052C26.8333 7.82052 29.0128 7.82052 31.1282 7.82052C31.7692 7.82052 31.7692 7.82052 31.7692 8.46154C31.7692 12.8205 31.7692 17.1795 31.7692 21.5384C31.7692 26.4102 31.7692 31.2179 31.7692 36.0897C31.7692 36.4102 31.7693 36.6667 32.1539 36.859C34.077 37.6923 36 38.5897 37.859 39.4231C38.3718 39.5513 38.8846 39.7436 39.4615 40ZM27.9872 25.7051C27.9872 21.1538 27.9872 16.6025 27.9872 12.0513C27.9872 11.4743 27.9871 11.4744 27.4102 11.4744C22.6025 11.4744 17.859 11.4744 13.0513 11.4744C12.6026 11.4744 12.4743 11.6026 12.4743 12.0513C12.4743 14.2949 12.4743 16.4744 12.4743 18.7179C12.4743 19.1667 12.6667 19.2948 13.0513 19.2948C15.1667 19.2948 17.282 19.2948 19.3974 19.2948C20.2307 19.2948 20.2308 19.1667 20.2308 20.1282C20.2308 25.4487 20.2308 30.7051 20.2308 36.0256C20.2308 36.4744 20.3589 36.7308 20.8076 36.859C21.7692 37.2436 22.6667 37.6923 23.6282 38.141C24.9744 38.7179 26.2564 39.2948 27.6026 39.9359C27.9231 40.0641 28.0512 40 28.0512 39.6795C28.0512 39.5513 28.0512 39.4231 28.0512 39.2948C27.9871 34.6795 27.9872 30.1923 27.9872 25.7051ZM16.4488 31.5385C16.4488 28.9103 16.4488 26.2179 16.4488 23.5897C16.4488 23.2051 16.3205 23.0128 15.8718 23.0128C11.1282 23.0128 6.32045 23.0128 1.57686 23.0128C0.999937 23.0128 1 23.0128 1 23.5897C1 27.0513 1 30.5769 1 34.0384C1 34.4871 1.12824 34.6795 1.51285 34.8077C2.92311 35.2564 4.26926 35.7692 5.67952 36.282C9.07695 37.4359 12.4743 38.6538 15.8718 39.8077C16.4487 40 16.4488 40 16.4488 39.359C16.4488 36.7949 16.4488 34.1667 16.4488 31.5385Z" fill="white"/>
</svg>
