<svg width="512" height="512" viewBox="0 0 512 512" fill="none" xmlns="http://www.w3.org/2000/svg">
<g clip-path="url(#clip0_1171_441)">
<path d="M170.283 48H196.5C203.127 48 208.5 42.6274 208.5 36V12C208.5 5.37258 203.127 0 196.5 0H170.283C126.1 0 90.283 35.8172 90.283 80V176C90.283 206.928 65.2109 232 34.283 232H23C16.3726 232 11 237.372 11 244V268C11 274.627 16.3724 280 22.9996 280L34.283 280C65.2109 280 90.283 305.072 90.283 336V440C90.283 479.764 122.518 512 162.283 512H196.5C203.127 512 208.5 506.627 208.5 500V476C208.5 469.373 203.127 464 196.5 464H162.283C149.028 464 138.283 453.255 138.283 440V336C138.283 309.022 128.011 284.443 111.164 265.961C106.109 260.416 106.109 251.584 111.164 246.039C128.011 227.557 138.283 202.978 138.283 176V80C138.283 62.3269 152.61 48 170.283 48Z" fill="#FF9922"/>
<path d="M305 36C305 42.6274 310.373 48 317 48H342.979C360.652 48 374.978 62.3269 374.978 80V176C374.978 202.978 385.251 227.557 402.098 246.039C407.153 251.584 407.153 260.416 402.098 265.961C385.251 284.443 374.978 309.022 374.978 336V432C374.978 449.673 360.652 464 342.979 464H317C310.373 464 305 469.373 305 476V500C305 506.627 310.373 512 317 512H342.979C387.161 512 422.978 476.183 422.978 432V336C422.978 305.072 448.051 280 478.979 280H490C496.627 280 502 274.628 502 268V244C502 237.373 496.628 232 490 232L478.979 232C448.051 232 422.978 206.928 422.978 176V80C422.978 35.8172 387.161 0 342.979 0H317C310.373 0 305 5.37258 305 12V36Z" fill="#FF9922"/>
</g>
<defs>
<clipPath id="clip0_1171_441">
<rect width="512" height="512" fill="white"/>
</clipPath>
</defs>
</svg>
