<svg xmlns="http://www.w3.org/2000/svg" viewBox="0 0 80 80"><defs><linearGradient id="a" x1="0%" x2="100%" y1="100%" y2="0%"><stop offset="0%" stop-color="#7D00A6"/><stop offset="100%" stop-color="#BD00FF"/></linearGradient></defs><g fill="none" fill-rule="evenodd"><path fill="url(#a)" d="M0 0h80v80H0z"/><circle cx="40" cy="40" r="3" fill="#FFF"/><circle cx="25" cy="25" r="2.5" fill="#FFF"/><circle cx="55" cy="25" r="2.5" fill="#FFF"/><circle cx="25" cy="55" r="2.5" fill="#FFF"/><circle cx="55" cy="55" r="2.5" fill="#FFF"/><circle cx="40" cy="20" r="2.5" fill="#FFF"/><circle cx="40" cy="60" r="2.5" fill="#FFF"/><circle cx="20" cy="40" r="2.5" fill="#FFF"/><circle cx="60" cy="40" r="2.5" fill="#FFF"/><path stroke="#FFF" stroke-width="1.5" d="M40 40L25 25M40 40L55 25M40 40L25 55M40 40L55 55M40 40L40 20M40 40L40 60M40 40L20 40M40 40L60 40"/></g></svg>
