<svg xmlns="http://www.w3.org/2000/svg" version="1.2" viewBox="0 0 20 31"><path fill="#fc384c" d="M7.7 1.5V30l.1.3.2.3.4.1.3-.1L18 24l.4-.4.4-.5.2-.5.1-.6.2-13.7-.1-.6q0-.3-.2-.5l-.3-.5-.5-.4L8.8.7 8.4.6l-.3.2-.2.2-.1.4z"/><path fill="#fc384c" d="M3.7 3.8 3.6 29l.1.2.1.2h.3l.2-.1 1.8-2 .3-.4.2-.5.2-.5V6l-.1-.5-.1-.5-.3-.4-.4-.3-1.4-.9h-.3l-.2.1-.2.1-.1.3z" opacity=".8"/><path fill="#ff2e00" d="M.4 5.6v21l.1.2.1.1.2.1.2-.1 1.1-.6.3-.2.2-.3.1-.3.1-.4V7l-.1-.4-.1-.3-.2-.3-.3-.2-1-.6-.2-.1H.6l-.1.2-.1.2z" opacity=".4"/></svg>
