<svg xmlns="http://www.w3.org/2000/svg" xmlns:xlink="http://www.w3.org/1999/xlink" viewBox="0 0 81 81" fill="#fff" fill-rule="evenodd" stroke="#000" stroke-linecap="round" stroke-linejoin="round"><use xlink:href="#a" x=".5" y=".5"/><symbol id="a" overflow="visible"><g stroke="none"><path d="M6.667 0Q0 0 0 6.667v66.667Q0 80 6.667 80h66.667Q80 80 80 73.333V6.667Q80 0 73.333 0z" fill="#094ab2"/><path d="M60.256 42.023c2.87.405 4.965 2.975 4.832 5.929 0 2.594-1.421 5.655-4.832 5.655H32.574c-5.306 0-7.232-3.706-7.232-7.524 0-6.444 6.979-6.621 6.979-6.621s.569-6.992 6.664-8.41c3.806-1.113 7.875.477 9.98 3.899a8.205 8.205 0 017.058-.258c2.812 1.257 4.518 4.212 4.232 7.33z"/><path d="M23.583 45.605c0-7.082 7.412-8.139 7.412-8.139.707-4.108 3.699-7.435 7.682-8.54 4.021-1.286 8.404.189 10.856 3.653a6.3 6.3 0 013.635-.737c-.513-4.177-3.247-7.736-7.126-9.277-5.141-2.153-11.058.026-13.618 5.015a8.403 8.403 0 00-8.126-.16c-3.181 1.763-5.002 5.282-4.619 8.924-3.675.323-6.438 3.523-6.254 7.242.114 3.817 3.139 6.892 6.92 7.034h4.65a9.084 9.084 0 01-1.413-5.015z" fill="#f9f9f9"/><path d="M.84 2.69l77.753 75.816A4.39 4.39 0 0080 75.279V4.398A4.392 4.392 0 0075.612 0H4.885A4.39 4.39 0 00.84 2.69z" fill-opacity=".19"/></g></symbol></svg>