<svg xmlns="http://www.w3.org/2000/svg" width="300" height="300" viewBox="0 0 300 300">
<g>
<path d="M 273.00 110.18 L 273.00 150.00 L 29.92 150.00 L 30.50 59.50 L 33.21 53.72 C36.50,46.70 45.29,37.24 51.75,33.76 C60.79,28.90 61.67,28.86 155.00,29.19 L 242.50 29.50 L 248.19 32.30 C260.49,38.34 269.40,50.39 271.93,64.43 C272.57,68.00 273.00,86.28 273.00,110.18 ZM 168.00 93.00 L 168.00 98.01 L 194.00 97.96 L 220.00 97.92 L 220.00 93.00 L 207.50 93.00 C197.06,93.00 195.00,93.25 195.00,94.50 C195.00,95.32 194.55,96.00 194.00,96.00 C193.45,96.00 193.00,95.32 193.00,94.50 C193.00,93.25 190.94,93.00 180.50,93.00 ZM 107.93 79.75 C107.97,79.89 118.57,80.00 131.50,80.00 L 155.00 80.00 L 155.00 75.00 L 107.01 75.00 L 107.43 77.25 C107.66,78.49 107.88,79.61 107.93,79.75 ZM 107.60 123.41 C108.14,124.80 111.14,125.00 131.49,125.00 L 154.77 125.00 L 155.72 120.00 L 131.92 120.00 C118.70,120.00 107.87,120.40 107.56,120.91 C107.25,121.41 107.27,122.54 107.60,123.41 ZM 107.67 70.33 C108.73,71.40 148.81,71.12 149.47,70.04 C149.80,69.52 148.72,68.39 147.08,67.54 C144.71,66.32 140.31,66.00 125.55,66.00 C108.23,66.00 107.00,66.12 107.00,67.83 C107.00,68.84 107.30,69.97 107.67,70.33 ZM 107.67 134.33 C108.66,135.33 138.90,135.09 143.39,134.05 C145.53,133.55 147.99,132.44 148.85,131.57 C150.29,130.14 148.47,130.00 128.71,130.00 C108.32,130.00 107.00,130.11 107.00,131.83 C107.00,132.84 107.30,133.97 107.67,134.33 ZM 116.00 102.00 L 116.00 107.00 L 134.50 107.00 C144.68,107.00 153.00,106.70 153.00,106.33 C153.00,105.96 152.26,104.83 151.35,103.83 C149.87,102.19 147.89,102.00 132.85,102.00 ZM 116.00 93.00 L 116.00 98.05 L 133.13 97.77 C149.64,97.51 150.31,97.42 151.75,95.25 L 153.24 93.00 ZM 73.18 122.75 L 72.86 125.00 L 104.00 125.00 L 104.00 119.95 L 88.75 120.22 C73.79,120.49 73.49,120.54 73.18,122.75 ZM 73.69 70.36 C74.07,70.74 80.94,70.93 88.94,70.78 C103.18,70.51 103.51,70.45 103.82,68.25 L 104.14 66.00 L 88.57 66.00 C74.14,66.00 73.00,66.13 73.00,67.83 C73.00,68.84 73.31,69.98 73.69,70.36 ZM 73.69 79.36 C74.07,79.74 80.94,79.93 88.94,79.78 C103.18,79.51 103.51,79.45 103.82,77.25 L 104.14 75.00 L 88.57 75.00 C74.14,75.00 73.00,75.13 73.00,76.83 C73.00,77.84 73.31,78.98 73.69,79.36 ZM 73.69 134.36 C74.07,134.74 80.94,134.93 88.94,134.78 C103.18,134.51 103.51,134.45 103.82,132.25 L 104.14 130.00 L 88.57 130.00 C74.14,130.00 73.00,130.13 73.00,131.83 C73.00,132.84 73.31,133.98 73.69,134.36 ZM 159.73 78.06 C160.20,79.86 161.21,80.00 173.45,80.00 C180.72,80.00 186.92,79.75 187.22,79.44 C187.53,79.14 187.55,78.01 187.27,76.94 C186.80,75.14 185.79,75.00 173.55,75.00 C166.28,75.00 160.08,75.25 159.78,75.56 C159.47,75.86 159.45,76.99 159.73,78.06 ZM 200.18 77.75 C199.86,79.99 199.91,80.00 213.93,80.00 L 228.00 80.00 L 228.00 74.94 L 214.25 75.22 C200.85,75.49 200.49,75.56 200.18,77.75 ZM 203.00 70.08 C203.00,70.59 208.58,71.00 215.50,71.00 L 228.00 71.00 L 228.00 66.00 L 216.11 66.00 C204.04,66.00 203.00,66.32 203.00,70.08 ZM 159.67 70.33 C160.69,71.35 183.80,71.13 184.44,70.09 C184.75,69.59 184.73,68.46 184.40,67.59 C183.88,66.25 181.80,66.00 171.39,66.00 C160.04,66.00 159.00,66.15 159.00,67.83 C159.00,68.84 159.30,69.97 159.67,70.33 ZM 197.00 88.08 C197.00,88.59 202.18,89.00 208.50,89.00 L 220.00 89.00 L 220.00 84.00 L 209.11 84.00 C198.09,84.00 197.00,84.37 197.00,88.08 ZM 168.00 84.00 L 168.00 89.00 L 179.61 89.00 C189.78,89.00 191.14,88.80 190.61,87.42 C190.27,86.55 190.00,85.42 190.00,84.92 C190.00,84.41 185.05,84.00 179.00,84.00 ZM 207.00 120.00 L 207.00 125.00 L 228.00 125.00 L 228.00 120.00 ZM 207.67 134.33 C208.03,134.70 212.76,135.00 218.17,135.00 C227.99,135.00 228.00,135.00 228.00,132.50 L 228.00 130.00 L 217.50 130.00 C207.98,130.00 207.00,130.17 207.00,131.83 C207.00,132.84 207.30,133.97 207.67,134.33 ZM 159.74 124.25 C159.95,124.66 164.82,125.00 170.56,125.00 L 181.00 125.00 L 181.00 119.93 L 170.25 120.22 C161.52,120.45 159.49,120.78 159.44,122.00 C159.40,122.82 159.54,123.84 159.74,124.25 ZM 160.25 134.36 C160.94,134.64 165.77,134.79 171.00,134.69 C180.02,134.51 180.52,134.39 180.82,132.25 C181.13,130.03 180.98,130.00 170.07,130.00 C159.83,130.00 159.00,130.14 159.00,131.92 C159.00,132.97 159.56,134.07 160.25,134.36 ZM 184.67 106.33 C185.03,106.70 189.26,107.00 194.06,107.00 C202.78,107.00 204.00,106.50 204.00,102.92 C204.00,102.41 199.50,102.00 194.00,102.00 C184.97,102.00 184.00,102.18 184.00,103.83 C184.00,104.84 184.30,105.97 184.67,106.33 ZM 187.67 115.33 C188.03,115.70 190.91,116.00 194.06,116.00 C199.63,116.00 201.00,115.20 201.00,111.92 C201.00,111.41 197.85,111.00 194.00,111.00 C187.88,111.00 187.00,111.23 187.00,112.83 C187.00,113.84 187.30,114.97 187.67,115.33 ZM 142.00 86.55 C142.00,89.05 142.11,89.09 148.75,88.80 C154.88,88.53 155.53,88.29 155.82,86.25 C156.13,84.10 155.83,84.00 149.07,84.00 C142.16,84.00 142.00,84.06 142.00,86.55 ZM 142.18 113.75 C141.87,115.90 142.17,116.00 148.93,116.00 C155.84,116.00 156.00,115.94 156.00,113.45 C156.00,110.95 155.89,110.91 149.25,111.20 C143.12,111.47 142.47,111.71 142.18,113.75 ZM 82.00 95.50 C82.00,97.91 82.23,98.00 88.50,98.00 C94.77,98.00 95.00,97.91 95.00,95.50 C95.00,93.09 94.77,93.00 88.50,93.00 C82.23,93.00 82.00,93.09 82.00,95.50 ZM 82.00 104.50 C82.00,106.91 82.23,107.00 88.50,107.00 C94.77,107.00 95.00,106.91 95.00,104.50 C95.00,102.09 94.77,102.00 88.50,102.00 C82.23,102.00 82.00,102.09 82.00,104.50 ZM 82.00 113.50 C82.00,115.91 82.23,116.00 88.50,116.00 C94.77,116.00 95.00,115.91 95.00,113.50 C95.00,111.09 94.77,111.00 88.50,111.00 C82.23,111.00 82.00,111.09 82.00,113.50 ZM 82.00 86.50 C82.00,88.91 82.23,89.00 88.50,89.00 C94.77,89.00 95.00,88.91 95.00,86.50 C95.00,84.09 94.77,84.00 88.50,84.00 C82.23,84.00 82.00,84.09 82.00,86.50 ZM 116.00 86.50 C116.00,88.91 116.23,89.00 122.50,89.00 C128.77,89.00 129.00,88.91 129.00,86.50 C129.00,84.09 128.77,84.00 122.50,84.00 C116.23,84.00 116.00,84.09 116.00,86.50 ZM 168.00 104.50 C168.00,106.91 168.23,107.00 174.50,107.00 C180.77,107.00 181.00,106.91 181.00,104.50 C181.00,102.09 180.77,102.00 174.50,102.00 C168.23,102.00 168.00,102.09 168.00,104.50 ZM 207.00 104.50 C207.00,106.91 207.23,107.00 213.50,107.00 C219.77,107.00 220.00,106.91 220.00,104.50 C220.00,102.09 219.77,102.00 213.50,102.00 C207.23,102.00 207.00,102.09 207.00,104.50 ZM 168.00 113.50 C168.00,115.91 168.23,116.00 174.50,116.00 C180.77,116.00 181.00,115.91 181.00,113.50 C181.00,111.09 180.77,111.00 174.50,111.00 C168.23,111.00 168.00,111.09 168.00,113.50 ZM 207.00 113.50 C207.00,115.91 207.23,116.00 213.50,116.00 C219.77,116.00 220.00,115.91 220.00,113.50 C220.00,111.09 219.77,111.00 213.50,111.00 C207.23,111.00 207.00,111.09 207.00,113.50 ZM 116.18 113.75 C115.88,115.89 116.19,116.00 122.43,116.00 C128.80,116.00 129.00,115.92 129.00,113.45 C129.00,110.96 128.86,110.91 122.75,111.20 C117.14,111.47 116.47,111.73 116.18,113.75 ZM 190.00 124.08 C190.00,124.59 191.80,125.00 194.00,125.00 C197.60,125.00 198.00,124.75 198.00,122.50 C198.00,120.20 197.64,120.00 193.39,120.00 C189.60,120.00 188.89,120.28 189.39,121.58 C189.73,122.45 190.00,123.58 190.00,124.08 ZM 192.71 132.00 C193.00,133.10 193.58,134.00 194.00,134.00 C194.42,134.00 195.00,133.10 195.29,132.00 C195.67,130.54 195.32,130.00 194.00,130.00 C192.68,130.00 192.33,130.54 192.71,132.00 Z" fill="rgb(1,1,1)"/>
<path d="M 241.12 270.58 C237.30,271.73 221.36,271.97 149.50,271.93 C70.06,271.89 62.15,271.74 58.45,270.19 C46.98,265.39 38.85,257.97 33.50,247.42 L 30.50 241.50 L 30.50 150.00 L 272.70 150.00 C272.69,151.08 272.68,152.17 272.68,153.27 C272.30,228.11 272.11,236.04 270.50,241.50 C266.41,255.43 255.52,266.20 241.12,270.58 ZM 96.67 226.33 C97.03,226.70 101.66,227.00 106.95,227.00 C114.94,227.00 117.33,226.62 121.04,224.75 C127.84,221.32 129.42,217.29 129.83,202.40 C130.20,188.54 129.15,183.32 125.04,178.71 L 122.17 175.50 L 96.00 174.84 L 96.00 200.25 C96.00,214.23 96.30,225.97 96.67,226.33 ZM 137.67 226.33 C138.03,226.70 142.89,227.00 148.45,227.00 C156.96,227.00 159.29,226.64 163.04,224.75 C170.42,221.03 173.06,212.62 169.25,205.01 C168.29,203.10 166.51,201.04 165.30,200.44 L 163.09 199.36 L 165.73 196.73 C167.83,194.62 168.45,192.89 168.79,188.18 C169.19,182.73 168.99,182.02 166.19,178.89 L 163.17 175.50 L 150.08 175.17 L 137.00 174.84 L 137.00 200.25 C137.00,214.23 137.30,225.97 137.67,226.33 ZM 174.65 226.32 C175.03,226.69 182.23,227.00 190.67,227.00 L 206.00 227.00 L 206.00 219.00 L 197.00 219.00 C189.32,219.00 188.00,218.76 188.00,217.36 C188.00,216.45 191.54,212.02 195.87,207.52 C204.52,198.50 206.53,194.38 205.73,187.27 C204.75,178.57 198.52,174.34 188.17,175.35 C179.70,176.18 175.69,179.79 174.42,187.75 L 173.74 192.00 L 185.00 192.00 L 185.00 188.83 C185.00,185.08 187.46,182.00 190.45,182.00 C193.73,182.00 195.00,183.95 194.99,188.95 C194.99,194.24 193.84,196.10 185.30,204.63 C181.92,208.00 178.29,212.50 177.22,214.63 C175.02,219.01 173.64,225.30 174.65,226.32 ZM 116.46 216.63 C114.86,218.23 112.94,219.00 110.55,219.00 L 107.00 219.00 L 107.00 183.00 L 111.48 183.00 C117.35,183.00 118.96,185.40 119.71,195.29 C120.52,206.04 119.35,213.75 116.46,216.63 ZM 157.55 216.55 C155.86,218.23 153.98,219.00 151.55,219.00 L 148.00 219.00 L 148.00 204.00 L 152.44 204.00 C155.90,204.00 157.23,204.49 158.44,206.22 C160.74,209.51 160.38,213.71 157.55,216.55 ZM 156.07 194.96 C155.00,195.53 152.75,196.00 151.07,196.00 L 148.00 196.00 L 148.00 183.00 L 151.42 183.00 C157.23,183.00 158.00,183.71 158.00,189.07 C158.00,192.85 157.57,194.16 156.07,194.96 ZM 272.35 69.29 C272.24,67.27 272.12,65.75 271.99,64.84 C272.13,65.64 272.25,67.11 272.35,69.29 Z" fill="rgb(2,152,44)"/>
<path d="M 168.00 95.50 C168.00,97.88 168.27,98.00 173.92,98.00 C177.67,98.00 180.05,97.54 180.42,96.75 C180.88,95.75 181.12,95.75 181.58,96.75 C182.00,97.65 186.65,97.96 199.89,97.95 L 194.00 97.96 L 168.00 98.01 ZM 271.93 64.43 C271.95,64.55 271.97,64.69 271.99,64.84 C271.99,64.81 271.99,64.79 271.98,64.77 C270.84,58.35 268.44,52.40 265.03,47.22 C260.80,40.85 255.02,35.65 248.19,32.30 C255.05,35.66 260.81,40.84 265.03,47.22 C268.41,52.33 270.80,58.19 271.93,64.43 ZM 203.81 97.95 L 220.00 97.91 L 220.00 97.92 Z" fill="rgb(125,157,132)"/>
<path d="M 0.00 150.00 L 0.00 0.00 L 150.00 0.00 L 300.00 0.00 L 300.00 150.00 L 300.00 300.00 L 150.00 300.00 L 0.00 300.00 L 0.00 150.00 ZM 241.12 270.58 C255.52,266.20 266.41,255.43 270.50,241.50 C272.11,236.04 272.30,228.11 272.68,153.27 C272.97,95.58 272.76,69.17 271.98,64.77 C269.44,50.44 260.61,38.39 248.19,32.30 L 242.50 29.50 L 155.00 29.19 C61.67,28.86 60.79,28.90 51.75,33.76 C45.29,37.24 36.50,46.70 33.21,53.72 L 30.50 59.50 L 30.50 150.50 L 30.50 241.50 L 33.50 247.42 C38.85,257.97 46.98,265.39 58.45,270.19 C62.15,271.74 70.06,271.89 149.50,271.93 C221.36,271.97 237.30,271.73 241.12,270.58 ZM 96.67 226.33 C96.30,225.97 96.00,214.23 96.00,200.25 L 96.00 174.84 L 109.08 175.17 L 122.17 175.50 L 125.04 178.71 C129.15,183.32 130.20,188.54 129.83,202.40 C129.42,217.29 127.84,221.32 121.04,224.75 C117.33,226.62 114.94,227.00 106.95,227.00 C101.66,227.00 97.03,226.70 96.67,226.33 ZM 116.46 216.63 C119.35,213.75 120.52,206.04 119.71,195.29 C118.96,185.40 117.35,183.00 111.48,183.00 L 107.00 183.00 L 107.00 201.00 L 107.00 219.00 L 110.55 219.00 C112.94,219.00 114.86,218.23 116.46,216.63 ZM 137.67 226.33 C137.30,225.97 137.00,214.23 137.00,200.25 L 137.00 174.84 L 150.08 175.17 L 163.17 175.50 L 166.19 178.89 C168.99,182.02 169.19,182.73 168.79,188.18 C168.45,192.89 167.83,194.62 165.73,196.73 L 163.09 199.36 L 165.30 200.44 C166.51,201.04 168.29,203.10 169.25,205.01 C173.06,212.62 170.42,221.03 163.04,224.75 C159.29,226.64 156.96,227.00 148.45,227.00 C142.89,227.00 138.03,226.70 137.67,226.33 ZM 157.55 216.55 C160.38,213.71 160.74,209.51 158.44,206.22 C157.23,204.49 155.90,204.00 152.44,204.00 L 148.00 204.00 L 148.00 211.50 L 148.00 219.00 L 151.55 219.00 C153.98,219.00 155.86,218.23 157.55,216.55 ZM 156.07 194.96 C157.57,194.16 158.00,192.85 158.00,189.07 C158.00,183.71 157.23,183.00 151.42,183.00 L 148.00 183.00 L 148.00 189.50 L 148.00 196.00 L 151.07 196.00 C152.75,196.00 155.00,195.53 156.07,194.96 ZM 174.65 226.32 C173.64,225.30 175.02,219.01 177.22,214.63 C178.29,212.50 181.92,208.00 185.30,204.63 C193.84,196.10 194.99,194.24 194.99,188.95 C195.00,183.95 193.73,182.00 190.45,182.00 C187.46,182.00 185.00,185.08 185.00,188.83 L 185.00 192.00 L 179.37 192.00 L 173.74 192.00 L 174.42 187.75 C175.69,179.79 179.70,176.18 188.17,175.35 C198.52,174.34 204.75,178.57 205.73,187.27 C206.53,194.38 204.52,198.50 195.87,207.52 C191.54,212.02 188.00,216.45 188.00,217.36 C188.00,218.76 189.32,219.00 197.00,219.00 L 206.00 219.00 L 206.00 223.00 L 206.00 227.00 L 190.67 227.00 C182.23,227.00 175.03,226.69 174.65,226.32 ZM 73.69 134.36 C73.31,133.98 73.00,132.84 73.00,131.83 C73.00,130.13 74.14,130.00 88.57,130.00 L 104.14 130.00 L 103.82 132.25 C103.51,134.45 103.18,134.51 88.94,134.78 C80.94,134.93 74.07,134.74 73.69,134.36 ZM 107.67 134.33 C107.30,133.97 107.00,132.84 107.00,131.83 C107.00,130.11 108.32,130.00 128.71,130.00 C148.47,130.00 150.29,130.14 148.85,131.57 C147.99,132.44 145.53,133.55 143.39,134.05 C138.90,135.09 108.66,135.33 107.67,134.33 ZM 160.25 134.36 C159.56,134.07 159.00,132.97 159.00,131.92 C159.00,130.14 159.83,130.00 170.07,130.00 C180.98,130.00 181.13,130.03 180.82,132.25 C180.52,134.39 180.02,134.51 171.00,134.69 C165.77,134.79 160.94,134.64 160.25,134.36 ZM 207.67 134.33 C207.30,133.97 207.00,132.84 207.00,131.83 C207.00,130.17 207.98,130.00 217.50,130.00 L 228.00 130.00 L 228.00 132.50 C228.00,135.00 227.99,135.00 218.17,135.00 C212.76,135.00 208.03,134.70 207.67,134.33 ZM 192.71 132.00 C192.33,130.54 192.68,130.00 194.00,130.00 C195.32,130.00 195.67,130.54 195.29,132.00 C195.00,133.10 194.42,134.00 194.00,134.00 C193.58,134.00 193.00,133.10 192.71,132.00 ZM 73.18 122.75 C73.49,120.54 73.79,120.49 88.75,120.22 L 104.00 119.95 L 104.00 122.47 L 104.00 125.00 L 88.43 125.00 L 72.86 125.00 L 73.18 122.75 ZM 107.60 123.41 C107.27,122.54 107.25,121.41 107.56,120.91 C107.87,120.40 118.70,120.00 131.92,120.00 L 155.72 120.00 L 155.24 122.50 L 154.77 125.00 L 131.49 125.00 C111.14,125.00 108.14,124.80 107.60,123.41 ZM 159.74 124.25 C159.54,123.84 159.40,122.82 159.44,122.00 C159.49,120.78 161.52,120.45 170.25,120.22 L 181.00 119.93 L 181.00 122.47 L 181.00 125.00 L 170.56 125.00 C164.82,125.00 159.95,124.66 159.74,124.25 ZM 190.00 124.08 C190.00,123.58 189.73,122.45 189.39,121.58 C188.89,120.28 189.60,120.00 193.39,120.00 C197.64,120.00 198.00,120.20 198.00,122.50 C198.00,124.75 197.60,125.00 194.00,125.00 C191.80,125.00 190.00,124.59 190.00,124.08 ZM 207.00 122.50 L 207.00 120.00 L 217.50 120.00 L 228.00 120.00 L 228.00 122.50 L 228.00 125.00 L 217.50 125.00 L 207.00 125.00 L 207.00 122.50 ZM 82.00 113.50 C82.00,111.09 82.23,111.00 88.50,111.00 C94.77,111.00 95.00,111.09 95.00,113.50 C95.00,115.91 94.77,116.00 88.50,116.00 C82.23,116.00 82.00,115.91 82.00,113.50 ZM 116.18 113.75 C116.47,111.73 117.14,111.47 122.75,111.20 C128.86,110.91 129.00,110.96 129.00,113.45 C129.00,115.92 128.80,116.00 122.43,116.00 C116.19,116.00 115.88,115.89 116.18,113.75 ZM 142.18 113.75 C142.47,111.71 143.12,111.47 149.25,111.20 C155.89,110.91 156.00,110.95 156.00,113.45 C156.00,115.94 155.84,116.00 148.93,116.00 C142.17,116.00 141.87,115.90 142.18,113.75 ZM 168.00 113.50 C168.00,111.09 168.23,111.00 174.50,111.00 C180.77,111.00 181.00,111.09 181.00,113.50 C181.00,115.91 180.77,116.00 174.50,116.00 C168.23,116.00 168.00,115.91 168.00,113.50 ZM 187.67 115.33 C187.30,114.97 187.00,113.84 187.00,112.83 C187.00,111.23 187.88,111.00 194.00,111.00 C197.85,111.00 201.00,111.41 201.00,111.92 C201.00,115.20 199.63,116.00 194.06,116.00 C190.91,116.00 188.03,115.70 187.67,115.33 ZM 207.00 113.50 C207.00,111.09 207.23,111.00 213.50,111.00 C219.77,111.00 220.00,111.09 220.00,113.50 C220.00,115.91 219.77,116.00 213.50,116.00 C207.23,116.00 207.00,115.91 207.00,113.50 ZM 82.00 104.50 C82.00,102.09 82.23,102.00 88.50,102.00 C94.77,102.00 95.00,102.09 95.00,104.50 C95.00,106.91 94.77,107.00 88.50,107.00 C82.23,107.00 82.00,106.91 82.00,104.50 ZM 116.00 104.50 L 116.00 102.00 L 132.85 102.00 C147.89,102.00 149.87,102.19 151.35,103.83 C152.26,104.83 153.00,105.96 153.00,106.33 C153.00,106.70 144.68,107.00 134.50,107.00 L 116.00 107.00 L 116.00 104.50 ZM 168.00 104.50 C168.00,102.09 168.23,102.00 174.50,102.00 C180.77,102.00 181.00,102.09 181.00,104.50 C181.00,106.91 180.77,107.00 174.50,107.00 C168.23,107.00 168.00,106.91 168.00,104.50 ZM 184.67 106.33 C184.30,105.97 184.00,104.84 184.00,103.83 C184.00,102.18 184.97,102.00 194.00,102.00 C199.50,102.00 204.00,102.41 204.00,102.92 C204.00,106.50 202.78,107.00 194.06,107.00 C189.26,107.00 185.03,106.70 184.67,106.33 ZM 207.00 104.50 C207.00,102.09 207.23,102.00 213.50,102.00 C219.77,102.00 220.00,102.09 220.00,104.50 C220.00,106.91 219.77,107.00 213.50,107.00 C207.23,107.00 207.00,106.91 207.00,104.50 ZM 82.00 95.50 C82.00,93.09 82.23,93.00 88.50,93.00 C94.77,93.00 95.00,93.09 95.00,95.50 C95.00,97.91 94.77,98.00 88.50,98.00 C82.23,98.00 82.00,97.91 82.00,95.50 ZM 116.00 95.52 L 116.00 93.00 L 134.62 93.00 L 153.24 93.00 L 151.75 95.25 C150.31,97.42 149.64,97.51 133.13,97.77 L 116.00 98.05 L 116.00 95.52 ZM 168.00 95.50 L 168.00 93.00 L 180.50 93.00 C190.94,93.00 193.00,93.25 193.00,94.50 C193.00,95.32 193.45,96.00 194.00,96.00 C194.55,96.00 195.00,95.32 195.00,94.50 C195.00,93.25 197.06,93.00 207.50,93.00 L 220.00 93.00 L 220.00 95.46 L 220.00 97.91 L 201.08 97.95 C186.93,97.98 182.02,97.68 181.58,96.75 C181.12,95.75 180.88,95.75 180.42,96.75 C180.05,97.54 177.67,98.00 173.92,98.00 C168.27,98.00 168.00,97.88 168.00,95.50 ZM 82.00 86.50 C82.00,84.09 82.23,84.00 88.50,84.00 C94.77,84.00 95.00,84.09 95.00,86.50 C95.00,88.91 94.77,89.00 88.50,89.00 C82.23,89.00 82.00,88.91 82.00,86.50 ZM 116.00 86.50 C116.00,84.09 116.23,84.00 122.50,84.00 C128.77,84.00 129.00,84.09 129.00,86.50 C129.00,88.91 128.77,89.00 122.50,89.00 C116.23,89.00 116.00,88.91 116.00,86.50 ZM 142.00 86.55 C142.00,84.06 142.16,84.00 149.07,84.00 C155.83,84.00 156.13,84.10 155.82,86.25 C155.53,88.29 154.88,88.53 148.75,88.80 C142.11,89.09 142.00,89.05 142.00,86.55 ZM 168.00 86.50 L 168.00 84.00 L 179.00 84.00 C185.05,84.00 190.00,84.41 190.00,84.92 C190.00,85.42 190.27,86.55 190.61,87.42 C191.14,88.80 189.78,89.00 179.61,89.00 L 168.00 89.00 L 168.00 86.50 ZM 197.00 88.08 C197.00,84.37 198.09,84.00 209.11,84.00 L 220.00 84.00 L 220.00 86.50 L 220.00 89.00 L 208.50 89.00 C202.18,89.00 197.00,88.59 197.00,88.08 ZM 73.69 79.36 C73.31,78.98 73.00,77.84 73.00,76.83 C73.00,75.13 74.14,75.00 88.57,75.00 L 104.14 75.00 L 103.82 77.25 C103.51,79.45 103.18,79.51 88.94,79.78 C80.94,79.93 74.07,79.74 73.69,79.36 ZM 107.93 79.75 C107.88,79.61 107.66,78.49 107.43,77.25 L 107.01 75.00 L 131.01 75.00 L 155.00 75.00 L 155.00 77.50 L 155.00 80.00 L 131.50 80.00 C118.57,80.00 107.97,79.89 107.93,79.75 ZM 159.73 78.06 C159.45,76.99 159.47,75.86 159.78,75.56 C160.08,75.25 166.28,75.00 173.55,75.00 C185.79,75.00 186.80,75.14 187.27,76.94 C187.55,78.01 187.53,79.14 187.22,79.44 C186.92,79.75 180.72,80.00 173.45,80.00 C161.21,80.00 160.20,79.86 159.73,78.06 ZM 200.18 77.75 C200.49,75.56 200.85,75.49 214.25,75.22 L 228.00 74.94 L 228.00 77.47 L 228.00 80.00 L 213.93 80.00 C199.91,80.00 199.86,79.99 200.18,77.75 ZM 73.69 70.36 C73.31,69.98 73.00,68.84 73.00,67.83 C73.00,66.13 74.14,66.00 88.57,66.00 L 104.14 66.00 L 103.82 68.25 C103.51,70.45 103.18,70.51 88.94,70.78 C80.94,70.93 74.07,70.74 73.69,70.36 ZM 107.67 70.33 C107.30,69.97 107.00,68.84 107.00,67.83 C107.00,66.12 108.23,66.00 125.55,66.00 C140.31,66.00 144.71,66.32 147.08,67.54 C148.72,68.39 149.80,69.52 149.47,70.04 C148.81,71.12 108.73,71.40 107.67,70.33 ZM 159.67 70.33 C159.30,69.97 159.00,68.84 159.00,67.83 C159.00,66.15 160.04,66.00 171.39,66.00 C181.80,66.00 183.88,66.25 184.40,67.59 C184.73,68.46 184.75,69.59 184.44,70.09 C183.80,71.13 160.69,71.35 159.67,70.33 ZM 203.00 70.08 C203.00,66.32 204.04,66.00 216.11,66.00 L 228.00 66.00 L 228.00 68.50 L 228.00 71.00 L 215.50 71.00 C208.58,71.00 203.00,70.59 203.00,70.08 Z" fill="rgb(239,240,239)"/>
</g>
</svg>