<?xml version="1.0" standalone="no"?>
<!DOCTYPE svg PUBLIC "-//W3C//DTD SVG 20010904//EN"
 "http://www.w3.org/TR/2001/REC-SVG-20010904/DTD/svg10.dtd">
<svg version="1.0" xmlns="http://www.w3.org/2000/svg"
 width="200.000000pt" height="200.000000pt" viewBox="0 0 200.000000 200.000000"
 preserveAspectRatio="xMidYMid meet">

<g transform="translate(0.000000,200.000000) scale(0.100000,-0.100000)"
fill="#4d19ff" stroke="none">
<path d="M315 1986 c-127 -40 -218 -119 -274 -236 l-36 -75 0 -415 c0 -403 1
-418 23 -500 27 -100 93 -242 152 -331 24 -35 82 -102 130 -149 135 -133 296
-215 520 -264 64 -15 131 -16 465 -14 l390 3 70 34 c88 43 163 119 207 208
l33 68 3 655 c3 697 3 696 -46 795 -52 105 -122 167 -236 210 l-66 25 -648 -1
c-494 0 -656 -3 -687 -13z m402 -590 l28 -24 5 -249 c8 -377 -3 -366 371 -371
229 -3 248 -4 268 -23 27 -25 35 -60 24 -96 -17 -51 -34 -54 -323 -51 l-265 3
-53 30 c-73 40 -147 123 -169 188 -13 41 -17 101 -21 285 -4 252 0 276 46 312
33 26 55 25 89 -4z m654 9 c57 -30 62 -112 9 -140 -23 -12 -71 -15 -218 -15
-176 0 -191 1 -216 21 -48 38 -29 119 34 142 8 3 93 6 188 6 138 1 179 -2 203
-14z m-61 -345 c13 -13 20 -33 20 -60 0 -27 -7 -47 -20 -60 -18 -18 -33 -20
-182 -20 -152 0 -163 1 -185 22 -30 28 -31 83 -1 115 21 22 27 23 185 23 150
0 165 -2 183 -20z"/>
</g>
</svg>
