<svg version="1.0" xmlns="http://www.w3.org/2000/svg" width="266.667" height="266.667" viewBox="0 0 200 200"><path d="M31.5 1.4C18.8 5.4 9.7 13.3 4.1 25L.5 32.5V74c0 40.3.1 41.8 2.3 50 2.7 10 9.3 24.2 15.2 33.1 2.4 3.5 8.2 10.2 13 14.9 13.5 13.3 29.6 21.5 52 26.4 6.4 1.5 13.1 1.6 46.5 1.4l39-.3 7-3.4c8.8-4.3 16.3-11.9 20.7-20.8l3.3-6.8.3-65.5c.3-69.7.3-69.6-4.6-79.5C190 13 183 6.8 171.6 2.5L165 0l-64.8.1C50.8.1 34.6.4 31.5 1.4zm40.2 59l2.8 2.4.5 24.9c.8 37.7-.3 36.6 37.1 37.1 22.9.3 24.8.4 26.8 2.3 2.7 2.5 3.5 6 2.4 9.6-1.7 5.1-3.4 5.4-32.3 5.1l-26.5-.3-5.3-3c-7.3-4-14.7-12.3-16.9-18.8-1.3-4.1-1.7-10.1-2.1-28.5-.4-25.2 0-27.6 4.6-31.2 3.3-2.6 5.5-2.5 8.9.4zm65.4-.9c5.7 3 6.2 11.2.9 14-2.3 1.2-7.1 1.5-21.8 1.5-17.6 0-19.1-.1-21.6-2.1-4.8-3.8-2.9-11.9 3.4-14.2.8-.3 9.3-.6 18.8-.6 13.8-.1 17.9.2 20.3 1.4zM131 94c1.3 1.3 2 3.3 2 6s-.7 4.7-2 6c-1.8 1.8-3.3 2-18.2 2-15.2 0-16.3-.1-18.5-2.2-3-2.8-3.1-8.3-.1-11.5 2.1-2.2 2.7-2.3 18.5-2.3 15 0 16.5.2 18.3 2z" fill="#4d19ff"/></svg>