<svg width="40" height="40" viewBox="0 0 40 40" fill="none" xmlns="http://www.w3.org/2000/svg">
<path fill-rule="evenodd" clip-rule="evenodd" d="M7.12275 0H32.8772C36.811 0 40 3.18896 40 7.12274V32.8772C40 36.8109 36.811 39.9999 32.8772 39.9999H7.12275C3.18896 39.9999 0 36.8109 0 32.8772V7.12274C0 3.18896 3.18896 0 7.12275 0ZM28.2356 10.7144H18.9073C18.3273 10.7144 17.8573 11.1844 17.8573 11.7643V13.2358C17.8573 13.8157 18.3273 14.2858 18.9073 14.2858H28.2356C28.8155 14.2858 29.2856 13.8157 29.2856 13.2358V11.7643C29.2856 11.1844 28.8155 10.7144 28.2356 10.7144ZM18.9073 18.2151H26.5693C27.1491 18.2151 27.6191 18.6851 27.6191 19.2649V20.7366C27.6191 21.3165 27.1491 21.7865 26.5693 21.7865H18.9073C18.3273 21.7865 17.8573 21.3165 17.8573 20.7366V19.2649C17.8573 18.6851 18.3273 18.2151 18.9073 18.2151ZM29.2856 28.2357V26.764C29.2856 26.1845 28.8152 25.7141 28.2356 25.7141H17.0156C15.5072 25.7141 14.2858 24.4928 14.2858 22.9843V11.7643C14.2858 11.1847 13.8154 10.7144 13.2359 10.7144H11.7643C11.1847 10.7144 10.7144 11.1847 10.7144 11.7643V25.1732C10.8555 27.3805 12.6194 29.1444 14.8267 29.2855H28.2356C28.8152 29.2855 29.2856 28.8151 29.2856 28.2357Z" fill="#316BFF"/>
<path d="M18.9069 10.7141H28.2353C28.8151 10.7141 29.2853 11.1842 29.2853 11.764V13.2356C29.2853 13.8155 28.8151 14.2856 28.2353 14.2856H18.9069C18.3269 14.2856 17.8569 13.8155 17.8569 13.2356V11.764C17.8569 11.1842 18.3269 10.7141 18.9069 10.7141Z" fill="white"/>
<path d="M18.9069 18.2151H26.5689C27.1488 18.2151 27.6188 18.6851 27.6188 19.2649V20.7366C27.6188 21.3165 27.1488 21.7865 26.5689 21.7865H18.9069C18.3269 21.7865 17.8569 21.3165 17.8569 20.7366V19.2649C17.8569 18.6851 18.3269 18.2151 18.9069 18.2151Z" fill="white"/>
<path d="M29.2856 26.7638V28.2354C29.2856 28.8149 28.8152 29.2853 28.2356 29.2853H14.8267C12.6194 29.1442 10.8555 27.3803 10.7144 25.173V11.764C10.7144 11.1845 11.1847 10.7141 11.7643 10.7141H13.2359C13.8154 10.7141 14.2858 11.1845 14.2858 11.764V22.9841C14.2858 24.4925 15.5072 25.7139 17.0156 25.7139H28.2356C28.8152 25.7139 29.2856 26.1843 29.2856 26.7638Z" fill="white"/>
</svg>
