<svg width="40" height="40" viewBox="0 0 40 40" fill="none" xmlns="http://www.w3.org/2000/svg">
<path d="M18.7459 16.6002C17.0839 19.3911 15.4846 22.1036 13.8539 24.8005C13.4306 25.4904 13.2268 26.0548 13.556 26.9329C14.4811 29.3632 13.1797 31.7151 10.7337 32.3579C8.42888 32.9694 6.18674 31.4485 5.73204 28.9869C5.32437 26.8074 7.01774 24.6594 9.43236 24.3144C9.63619 24.2831 9.84002 24.2831 10.185 24.2517C11.3609 22.2761 12.5682 20.2535 13.8539 18.1054C11.5491 15.8162 10.185 13.135 10.4829 9.8267C10.7024 7.47479 11.6118 5.45216 13.3052 3.79015C16.5351 0.607237 21.4584 0.0898187 25.2528 2.5358C28.9061 4.8877 30.5681 9.45039 29.157 13.3545C28.0751 13.0566 26.9932 12.7744 25.8173 12.4451C26.272 10.2657 25.927 8.32148 24.4689 6.64379C23.4967 5.54623 22.2581 4.9661 20.8469 4.74659C18.009 4.32324 15.2337 6.14205 14.4027 8.91729C13.462 12.0845 14.8731 14.6559 18.7459 16.6002Z" fill="#E7EBF3"/>
<path d="M23.4967 13.2919C24.6726 15.3615 25.8642 17.4626 27.0402 19.5322C32.9984 17.6821 37.4983 20.9904 39.1133 24.5183C41.0575 28.7831 39.7248 33.8475 35.899 36.4659C31.9792 39.1628 27.0088 38.7081 23.528 35.2273C24.4217 34.4903 25.2998 33.7377 26.2562 32.9381C29.69 35.1646 32.7004 35.0548 34.9269 32.4207C36.8241 30.1785 36.7928 26.8231 34.8328 24.6123C32.575 22.0723 29.5489 21.9939 25.8956 24.4399C24.3747 21.743 22.8381 19.0775 21.3643 16.365C20.8625 15.4556 20.3294 14.9225 19.2005 14.7344C17.3347 14.4051 16.1274 12.8058 16.0647 11.0183C15.9863 9.24658 17.0368 7.64729 18.6674 7.02011C20.2824 6.40862 22.1796 6.89468 23.2772 8.27446C24.1709 9.40338 24.4531 10.6577 23.9827 12.0532C23.8573 12.4608 23.6848 12.8372 23.4967 13.2919Z" fill="#E7EBF3"/>
<path d="M26.3032 30.1942H19.122C18.4322 33.0165 16.9426 35.3057 14.3869 36.7638C12.3956 37.8928 10.2475 38.2691 7.97403 37.9084C3.77196 37.2342 0.338184 33.4398 0.024597 29.1907C-0.320349 24.3615 3.00367 20.081 7.42525 19.1089C7.72316 20.2221 8.03675 21.3354 8.35033 22.4486C4.28938 24.5183 2.89392 27.121 4.02283 30.3823C5.02631 33.2517 7.86427 34.8196 10.9374 34.2238C14.089 33.5966 15.6726 30.9938 15.4844 26.7918C18.4635 26.7918 21.4583 26.7604 24.4373 26.8074C25.5976 26.8231 26.507 26.6977 27.3851 25.6785C28.8276 23.9852 31.4931 24.142 33.0453 25.7413C34.6289 27.3719 34.5662 30.006 32.8728 31.5583C31.2422 33.0635 28.6865 32.9851 27.1656 31.3545C26.852 31.0095 26.6168 30.6019 26.3032 30.1942Z" fill="#E7EBF3"/>
</svg>
