<svg xmlns="http://www.w3.org/2000/svg" xmlns:xlink="http://www.w3.org/1999/xlink" fill="#fff" fill-rule="evenodd" stroke="#000" stroke-linecap="round" stroke-linejoin="round" viewBox="0 0 66 56"><use xlink:href="#a" x=".5" y=".5"/><symbol id="a" overflow="visible"><path fill="#25c151" fill-rule="nonzero" stroke="none" d="M6.704 54.434H0v-33.65c0-3.455 1.418-5.544 2.604-6.704 2.63-2.58 6.2-2.656 6.782-2.656h10.546c3.765 0 5.93 1.52 7.117 2.8 2.346 2.553 2.372 5.853 2.32 6.73v12.687c0 3.662-1.496 5.828-2.733 6.988-2.553 2.398-5.93 2.45-6.73 2.424H6.704zm13.46-18.102c.36 0 1.367-.103 1.908-.62.413-.387.62-1.083.62-2.1v-13.02c0-.36-.077-1.315-.593-1.857-.5-.516-1.444-.62-2.166-.62h-10.6c-2.63 0-2.63 1.985-2.63 2.656v15.55zM57.296 0H64v33.677c0 3.455-1.418 5.544-2.604 6.704-2.63 2.58-6.2 2.656-6.782 2.656H44.068c-3.765 0-5.93-1.52-7.117-2.8-2.346-2.553-2.372-5.853-2.32-6.73v-12.67c0-3.662 1.496-5.828 2.733-6.988 2.553-2.398 5.93-2.45 6.73-2.424h13.202zm-13.46 18.117c-.36 0-1.367.103-1.908.62-.413.387-.62 1.083-.62 2.1v13.02c0 .36.077 1.315.593 1.857.5.516 1.444.62 2.166.62h10.598c2.656-.026 2.656-2 2.656-2.682V18.117z"/></symbol></svg>