<svg xmlns="http://www.w3.org/2000/svg" viewBox="0 0 80 80"><defs><linearGradient id="a" x1="0%" x2="100%" y1="100%" y2="0%"><stop offset="0%" stop-color="#B0084D"/><stop offset="100%" stop-color="#FF4F8B"/></linearGradient></defs><g fill="none" fill-rule="evenodd"><path fill="url(#a)" d="M0 0h80v80H0z"/><path fill="#FFF" d="M40 18c-3.314 0-6 2.686-6 6v4h-2c-2.209 0-4 1.791-4 4v22c0 2.209 1.791 4 4 4h16c2.209 0 4-1.791 4-4V32c0-2.209-1.791-4-4-4h-2v-4c0-3.314-2.686-6-6-6zm0 2c2.21 0 4 1.79 4 4v4H36v-4c0-2.21 1.79-4 4-4zm8 12v22c0 1.105-.895 2-2 2H32c-1.105 0-2-.895-2-2V32c0-1.105.895-2 2-2h16c1.105 0 2 .895 2 2z"/><circle cx="40" cy="43" r="3" fill="#FFF"/><path fill="#FFF" d="M39 46h2v6h-2z"/></g></svg>
