<svg width="60" height="60" xmlns="http://www.w3.org/2000/svg"><g transform="translate(2)"><path d="M56.798 39.115c-.36-.845-1.197-1.449-2.155-1.69-.36-1.57-.838-2.294-.838-2.415.12-.241.359-.362.359-.483 1.437-1.69.479-4.225-1.915-4.829-1.317-1.328-2.515-1.931-3.592-2.414-.958-.483-.599-.242-1.437-.725-.24-1.207-.359-3.863-.718-5.794-.36-1.69-1.078-3.019-2.035-3.743-.48-.966-.958-1.81-1.676-2.535 3.352-5.07 4.19-10.14 1.795-12.797C43.51.483 41.953 0 40.037 0c-2.754 0-5.986 1.087-9.338 3.139 0 0-2.155-1.811-2.275-1.811C19.086-6.036-7.373 26.68 1.966 33.803l2.394 1.81c-1.556 4.227.6 9.297 5.028 10.867.958.362 2.036.483 3.113.483 0 0 7.064 13.038 22.029 13.038C51.77 60 56.2 42.978 56.2 42.857c-.12.12 1.316-2.052.598-3.742zM2.564 31.63C.77 28.37 4.001 21.85 6.395 17.988 12.142 8.692 21.84 1.328 26.27 2.414l1.197-.482s3.233 2.776 3.352 2.776C33.093 3.38 35.966 1.932 38.6 1.69c-1.676.362-3.591 1.207-5.986 2.656 0 0-5.627 3.863-8.979 7.244-1.796 1.81-9.218 10.865-9.218 10.744 1.317-2.535 2.274-3.863 4.43-6.52 1.197-1.569 2.514-3.017 3.83-4.466.599-.604 1.198-1.207 1.916-1.81.479-.363.838-.846 1.317-1.208.24-.12.36-.362.599-.483l-4.31-3.622.239 1.57 3.113 2.776s-2.754 1.932-4.19 3.14c-5.627 4.828-11.015 12.192-13.05 19.315h.12c-.958.604-2.036 1.449-2.874 2.656-.359.12-2.634-1.449-2.993-2.052zm9.219 13.4c-3.352 0-5.986-2.897-5.986-6.398s2.753-6.399 5.986-6.399c.838 0 1.676.242 2.394.483 0 0 1.317.604 1.676 3.743.36-.966.599-1.811.599-1.811.479 1.328.599 2.777.599 4.105.359-.483.718-1.328.718-1.328.718 4.104-2.155 7.605-5.986 7.605zm7.423-22.575s2.633-4.95 8.26-8.33c-.479-.121-1.436.12-1.676.12 1.078-.845 2.993-1.448 4.31-1.81-.359-.242-1.317-.363-1.796-.363h-.24c1.198-.724 3.593-1.086 5.628-.724-.24-.362-.838-.604-1.317-.724h-.24.12c1.317-.242 2.754 0 3.95.483-.119-.363-.478-.725-.717-.966l-.12-.12c1.197.24 2.394.844 3.352 1.448a3.668 3.668 0 00-.599-.845c1.198.362 2.515 1.207 3.113 2.414v.121c-2.275-1.69-8.74-1.207-15.204 3.018-2.874 1.932-5.148 3.984-6.824 6.278zm35.197 19.678c-.12.12-.838 4.587-5.626 8.33-5.867 4.708-13.649 4.225-16.642 1.57-1.556-1.45-2.274-3.623-2.274-3.623s-.12 1.208-.24 1.69c-1.197-2.052-1.077-4.466-1.077-4.466s-.599 1.207-.958 1.81c-.838-2.293-.479-4.587-.479-4.587l-.718 1.087s-.36-2.536.479-4.588c.838-2.294 2.514-3.863 2.873-4.104-1.197-.363-2.634-1.57-2.634-1.57h.958s-2.514-1.81-2.993-4.587c.359.482 1.077.965 1.077.965-.24-.724-.359-2.293-.12-3.984.48-3.018 2.994-5.07 5.747-5.07 2.993 0 5.029.604 7.543-1.69.479-.483.957-.966 1.676-1.087.12 0 .24-.12.718-.12.36 0 .838.12 1.197.362 1.317.845 1.676 3.018 1.796 4.587.599 5.795.36 4.83 2.634 6.037 1.077.603 2.394 1.086 3.831 2.656 1.197 0 1.796.965 1.317 1.69-4.07 4.829-9.697 7.122-15.923 7.364h-.838c-2.514.12-3.352 3.38-1.796 5.312.958 1.207 2.993 1.69 4.55 1.69 6.824.12 13.768-4.708 14.965-7.485l.12-.242c-.24.363-6.944 6.64-15.085 6.399 0 0-.838 0-1.676-.242-1.078-.241-1.916-.724-2.275-1.81.718.12 1.556.241 2.514.241 5.866 0 10.057-2.656 9.697-2.777h-.12c-.718.121-7.781 2.898-12.21 1.449 0-.12 0-.241.119-.362.359-1.328 1.077-1.207 2.275-1.207 4.07-.121 7.302-1.208 9.817-2.294 2.633-1.207 4.669-2.898 5.387-3.743.958 1.57.958 3.622.958 3.622s.359-.12.838-.12c1.437.12 1.676 1.448.598 2.897z"/><path d="M25.25 4.8l.7.2-.6-2-.3 1zm4.75.486L29 4l.364 2c.181-.286.363-.429.636-.714zm12.222 21.383c.667 0 1.222.11 1.778.331 0-1.545-.889-3.2-1.556-2.98-.444.11-.444.773-.444 1.214 0 .552 0 .993.222 1.435zM28 7.538L25 7l1.957 1c.39-.154.652-.308 1.043-.462zM34.939 29.5c.663.25 1.061.375 1.061.25 0 0 0-.25-.133-.375-.398-.5-1.06-1-1.724-1.125-1.46-.5-3.184-.25-4.378.75-.663.5-.929 1-.663 1 .132 0 .53-.125 1.061-.25 2.123-.875 3.184-.875 4.776-.25zm.576 2.081h.476c.095-.19-.572-.663-1.62-.569-.095 0-.19.095-.38.095h-.096c-.19.095-.477.19-.667.38-.19.19-.286.379-.19.474.095.095.19 0 .476-.095.857-.285 1.429-.285 2-.285zM13.15 36.562c.365.527.243.791.365.923 0 0 .12.132.242 0 .243-.132.243-.396.243-.66 0-.527-.243-1.187-.607-1.583-.485-.528-1.092-1.055-1.942-1.187-.728-.132-1.456 0-1.577.132-.122 0-.243 0-.364.132-1.942.791-2.792 2.902-2.428 4.882a5.09 5.09 0 00.607 1.45c.364.529.85.397.607 0 0-.131-.243-.659-.364-1.45 0-.924.121-1.848.728-2.64.364-.527.85-.791.97-.791.122 0 .122-.132.244-.132h.121c.243-.132.121 0 .364-.132 1.456-.264 2.427.396 2.791 1.056z"/><path d="M13.28 38.039c-.104-.104-.21-.208-.21-.312 0-.208 0-.311.21-.415.106-.104.212-.104.212-.208s-.422-.208-.844.104c-.316.311-.316.935.106 1.35.527.52 1.265.624 1.37 1.247v.623c-.105.623-.738 1.247-1.792 1.039h-.316c-.105.104.316.623 1.16.52 1.16 0 2.002-1.143 1.792-2.39-.106-1.039-1.265-1.247-1.687-1.558z"/><circle transform="rotate(-81.136 43.66 29.98)" cx="43.66" cy="29.981" r="1"/><circle transform="rotate(-61.277 40.817 30.927)" cx="40.817" cy="30.927" r="1"/></g></svg>