<svg width="40" height="40" viewBox="0 0 40 40" fill="none" xmlns="http://www.w3.org/2000/svg">
<g clip-path="url(#clip0_1042_6051)">
<path d="M29.3506 18.9027C29.6254 18.8667 29.9038 18.8667 30.1786 18.9027C30.3317 18.5614 30.3531 17.9736 30.2199 17.3323C30.021 16.3803 29.7516 15.8017 29.1945 15.8936C28.6373 15.9854 28.619 16.6742 28.8164 17.6262C28.9005 18.0852 29.0827 18.5206 29.3506 18.9027Z" fill="black"/>
<path d="M24.5711 19.6555C24.969 19.83 25.2124 19.9463 25.3088 19.8453C25.37 19.781 25.3516 19.6617 25.2567 19.5055C25.0006 19.1364 24.6435 18.8489 24.2282 18.6775C23.7849 18.4952 23.3022 18.4296 22.8264 18.4869C22.3505 18.5443 21.8972 18.7227 21.5099 19.005C21.2436 19.201 20.991 19.4642 21.0262 19.6341C21.0385 19.6877 21.0783 19.7275 21.1716 19.7412C21.3921 19.7657 22.1589 19.3785 23.042 19.3234C23.5711 19.3083 24.0959 19.4223 24.5711 19.6555Z" fill="black"/>
<path d="M23.7735 20.1116C23.4118 20.1512 23.069 20.2942 22.7863 20.5234C22.655 20.6181 22.5647 20.7593 22.5338 20.9183C22.5331 20.935 22.5359 20.9517 22.542 20.9673C22.5481 20.9829 22.5573 20.997 22.569 21.0089C22.5808 21.0209 22.5949 21.0302 22.6104 21.0365C22.6259 21.0427 22.6426 21.0457 22.6593 21.0453C22.7892 21.026 22.9162 20.9905 23.0373 20.9397C23.5699 20.7399 24.1449 20.6804 24.7072 20.7667C24.9674 20.7958 25.0914 20.8126 25.148 20.7239C25.1619 20.6976 25.1679 20.6678 25.1652 20.6382C25.1625 20.6085 25.1512 20.5804 25.1327 20.557C25.0118 20.3565 24.4883 20.0275 23.7735 20.1116Z" fill="black"/>
<path d="M27.7374 21.7891C28.0894 21.9621 28.4767 21.8947 28.6037 21.6361C28.7307 21.3774 28.5455 21.0238 28.195 20.8585C27.8445 20.6932 27.4542 20.7529 27.3287 21.0116C27.2032 21.2703 27.3854 21.6162 27.7374 21.7891Z" fill="black"/>
<path d="M30.0015 19.8118C29.7153 19.8118 29.4781 20.1179 29.4704 20.5128C29.4627 20.9077 29.6908 21.2275 29.977 21.2321C30.2632 21.2367 30.5005 20.926 30.5066 20.5311C30.5127 20.1362 30.2862 19.8164 30.0015 19.8118Z" fill="black"/>
<path d="M10.4893 26.8463C10.4025 26.8702 10.3131 26.8831 10.223 26.8846C10.1276 26.8858 10.0334 26.8633 9.9487 26.8193C9.86404 26.7752 9.7916 26.7109 9.73783 26.632C9.60773 26.4331 9.61538 26.1346 9.75926 25.7933C9.77916 25.7474 9.80058 25.6953 9.8266 25.6402C10.0562 25.1259 10.4388 24.2627 10.0087 23.4438C9.86923 23.1543 9.66022 22.9039 9.40036 22.7148C9.14051 22.5257 8.83788 22.4039 8.51949 22.3602C8.21816 22.3229 7.91228 22.3578 7.62703 22.4618C7.34178 22.5659 7.08531 22.7361 6.87872 22.9586C6.24659 23.6566 6.14711 24.6055 6.26649 24.9407C6.31088 25.0632 6.38128 25.0938 6.43332 25.1045C6.54046 25.1198 6.69964 25.0402 6.79913 24.7724C6.80678 24.754 6.81597 24.7234 6.82821 24.6851C6.88954 24.4709 6.97747 24.2653 7.08994 24.0729C7.16978 23.945 7.27467 23.8346 7.39829 23.7483C7.52192 23.6621 7.66173 23.6017 7.80931 23.5709C7.95868 23.5382 8.11309 23.5357 8.26345 23.5635C8.4138 23.5914 8.55706 23.6491 8.6848 23.7331C8.90097 23.8749 9.06154 24.087 9.13935 24.3336C9.21716 24.5801 9.20744 24.8459 9.11183 25.0861C8.96002 25.4683 8.88462 25.8765 8.88989 26.2876C8.9603 27.1386 9.48529 27.4815 9.96129 27.5121C10.4373 27.5427 10.7388 27.2718 10.8199 27.0835C10.8385 27.0514 10.8467 27.0143 10.8434 26.9773C10.8401 26.9404 10.8255 26.9053 10.8016 26.8769C10.7235 26.7927 10.6057 26.8203 10.4893 26.8463Z" fill="black"/>
<path d="M37.2147 25.3248C37.1979 25.2621 37.0846 24.8473 36.9285 24.3483C36.8391 24.0584 36.7333 23.7737 36.6117 23.4958C37.2361 22.5591 37.2484 21.7218 37.1642 21.2474C37.0706 20.6361 36.7804 20.072 36.3377 19.6403C35.8449 19.1214 34.8347 18.5918 33.4174 18.1923C33.2551 18.148 32.7194 18.001 32.672 17.9857C32.672 17.9551 32.6337 16.2317 32.6016 15.4924C32.5868 14.7502 32.4762 14.013 32.2725 13.2991C31.9664 12.1864 31.4261 11.2114 30.7542 10.5885C32.6077 8.66758 33.7648 6.55233 33.7617 4.73554C33.7541 1.24431 29.4685 0.188209 24.1849 2.37693L23.0646 2.85141C23.0646 2.85141 21.0411 0.861662 21.0105 0.838703C14.9862 -4.41575 -3.85057 16.521 2.17224 21.6055L3.48853 22.7213C3.13246 23.676 3.00711 24.7013 3.12272 25.7136C3.26354 27.1125 3.98444 28.4533 5.15533 29.491C6.26652 30.4752 7.72669 31.0966 9.144 31.0966C11.4873 36.4965 16.8413 39.8102 23.1197 39.9969C29.8542 40.1959 35.5081 37.0368 37.8775 31.3599C38.0305 30.9604 38.6887 29.1666 38.6887 27.5809C38.6887 25.9952 37.7887 25.3248 37.2147 25.3248ZM9.66439 29.5752C9.45809 29.6095 9.24897 29.6238 9.03992 29.6181C7.00579 29.5645 4.80942 27.7324 4.59054 25.5605C4.34871 23.1606 5.57623 21.3132 7.74812 20.8754C8.05034 20.8157 8.3588 20.7936 8.66646 20.8096C9.88327 20.877 11.6771 21.8106 12.0858 24.4616C12.4378 26.8095 11.8669 29.1987 9.66133 29.5752H9.66439ZM7.38996 19.4382C6.06979 19.6826 4.89635 20.4307 4.1176 21.5244C3.68138 21.1617 2.87018 20.453 2.72784 20.1851C1.5646 17.9765 3.99668 13.6817 5.69562 11.2558C9.89551 5.26359 16.4739 0.728502 19.5198 1.55042C20.0141 1.69123 21.6534 3.5922 21.6534 3.5922C19.5892 4.77475 17.6269 6.12682 15.7867 7.63445C11.9832 10.5609 9.11186 14.8205 7.38996 19.4382ZM15.1469 11.2328C16.6392 9.50787 18.4774 8.00791 20.1243 7.16609C20.1366 7.15963 20.1507 7.15734 20.1644 7.15955C20.1782 7.16176 20.1908 7.16836 20.2005 7.17836C20.2101 7.18836 20.2163 7.20122 20.218 7.21502C20.2197 7.22881 20.2169 7.24279 20.21 7.25487C20.0104 7.61018 19.8561 7.98915 19.7509 8.3829C19.7478 8.39615 19.7488 8.41002 19.7538 8.42267C19.7588 8.43533 19.7675 8.44618 19.7788 8.4538C19.79 8.46142 19.8033 8.46545 19.8169 8.46536C19.8305 8.46527 19.8438 8.46107 19.855 8.4533C20.8789 7.75536 22.6605 7.00691 24.2247 6.91049C24.2392 6.90992 24.2535 6.91393 24.2655 6.92194C24.2776 6.92996 24.2868 6.94157 24.2919 6.95513C24.297 6.96868 24.2977 6.9835 24.2939 6.99747C24.2901 7.01144 24.2819 7.02385 24.2707 7.03293C24.0123 7.23188 23.7812 7.46397 23.5834 7.72322C23.5762 7.7331 23.5718 7.74477 23.5707 7.75698C23.5696 7.76918 23.5718 7.78146 23.5772 7.79248C23.5825 7.8035 23.5908 7.81285 23.601 7.81953C23.6113 7.8262 23.6232 7.82995 23.6355 7.83036C24.9088 7.8735 26.1565 8.20031 27.2874 8.78697C27.3563 8.82523 27.3073 8.95686 27.2308 8.94003C25.0519 8.44897 22.7903 8.45525 20.6141 8.95839C18.2953 9.52318 16.5275 10.3956 15.2341 11.3262C15.2213 11.3321 15.2069 11.3338 15.1931 11.331C15.1792 11.3283 15.1665 11.3213 15.1569 11.311C15.1472 11.3006 15.1411 11.2875 15.1393 11.2735C15.1375 11.2595 15.1402 11.2452 15.1469 11.2328ZM37.2836 28.1135C36.9912 29.8859 36.2382 31.3277 34.9724 32.6455C34.1821 33.5012 33.2416 34.2046 32.1975 34.721C31.6155 35.0266 31.0088 35.2826 30.3838 35.4863C25.613 37.0444 20.7274 35.3332 19.1539 31.6599C19.0261 31.3787 18.9201 31.088 18.8371 30.7905C18.1667 28.3661 18.7361 25.458 20.5207 23.6259C20.646 23.5169 20.7249 23.3641 20.7412 23.1988C20.725 23.0498 20.6654 22.9087 20.5697 22.7932C19.9468 21.8902 17.7902 20.3443 18.2234 17.3704C18.5295 15.2276 20.406 13.7231 22.1508 13.8118L22.5931 13.8379C23.3493 13.8822 24.0105 13.9787 24.6319 14.0047C25.6742 14.0506 26.6124 13.8991 27.7221 12.9746C28.0956 12.6685 28.3955 12.3915 28.9037 12.3058C29.0534 12.2666 29.2084 12.2516 29.3629 12.2614C29.6355 12.2705 29.9003 12.3547 30.1282 12.5047C31.019 13.0971 31.1445 14.5312 31.1904 15.5797C31.2164 16.1781 31.2899 17.6276 31.3144 18.0439C31.371 18.9944 31.6205 19.1291 32.1271 19.2944C32.4118 19.3892 32.675 19.4581 33.0638 19.5683C34.2423 19.8989 34.9403 20.2341 35.3811 20.6642C35.6084 20.8874 35.7567 21.1787 35.8035 21.4938C35.9413 22.507 35.0168 23.7575 32.5664 24.8947C29.8879 26.1391 26.6385 26.4528 24.3946 26.2034L23.6079 26.1146C21.811 25.8728 20.7871 28.1931 21.8646 29.788C22.5595 30.8119 24.4513 31.4792 26.3446 31.4792C30.6838 31.4792 34.0204 29.6273 35.2617 28.0263C35.2984 27.9788 35.3015 27.9727 35.3612 27.8855C35.4209 27.7982 35.3719 27.7416 35.2954 27.7936C34.2821 28.4885 29.7777 31.242 24.9609 30.414C24.5795 30.3459 24.205 30.2435 23.8421 30.1079C23.4166 29.9426 22.5289 29.5339 22.4202 28.6217C26.3078 29.8247 28.7552 28.6875 28.7552 28.6875C28.7778 28.6772 28.7966 28.6602 28.8092 28.6389C28.8218 28.6175 28.8276 28.5928 28.8256 28.5681C28.8241 28.5534 28.8197 28.5391 28.8126 28.5261C28.8055 28.5132 28.796 28.5017 28.7844 28.4925C28.7729 28.4832 28.7596 28.4763 28.7454 28.4722C28.7312 28.4681 28.7164 28.4669 28.7017 28.4686C28.7017 28.4686 25.515 28.94 22.5059 27.838C22.8334 26.7666 23.7059 27.1569 25.0237 27.264C27.0717 27.3845 29.1254 27.162 31.1001 26.6059C32.4638 26.2156 34.2546 25.4442 35.6443 24.3468C35.9448 25.0391 36.1581 25.7661 36.2795 26.511C36.5092 26.4769 36.7438 26.5193 36.9469 26.6319C37.2178 26.7988 37.4275 27.1646 37.2836 28.1135Z" fill="black"/>
</g>
<defs>
<clipPath id="clip0_1042_6051">
<rect width="37.6888" height="40" fill="white" transform="translate(1)"/>
</clipPath>
</defs>
</svg>
