<svg width="40" height="40" viewBox="0 0 40 40" fill="none" xmlns="http://www.w3.org/2000/svg">
<g clip-path="url(#clip0_1042_6060)">
<path d="M9.46837 20.7562C9.18311 20.7412 8.8971 20.7617 8.6169 20.8172C6.58268 21.227 5.44207 22.9517 5.66728 25.1952C5.87216 27.2294 7.92381 28.9338 9.82435 28.9846C10.019 28.9907 10.2137 28.9771 10.4056 28.9439C12.4616 28.5938 13.0006 26.3605 12.6621 24.1679C12.2799 21.692 10.6046 20.8187 9.46837 20.7562ZM11.4837 26.6235C11.4081 26.7993 11.1088 27.039 10.6816 27.0231C10.2544 27.0071 9.7517 26.6685 9.68486 25.8737C9.68058 25.4894 9.75115 25.1079 9.89265 24.7505C9.98155 24.5268 9.99064 24.2792 9.91839 24.0495C9.84615 23.8197 9.69697 23.6219 9.49597 23.4893C9.37621 23.4118 9.24213 23.3589 9.10164 23.334C8.96115 23.309 8.81708 23.3124 8.67793 23.344C8.54113 23.3726 8.41141 23.4281 8.29638 23.5075C8.18135 23.5868 8.08334 23.6883 8.00809 23.8061C7.90204 23.9887 7.81953 24.184 7.76253 24.3873C7.75236 24.4222 7.74364 24.4512 7.73637 24.4687C7.64338 24.7186 7.49517 24.7927 7.39346 24.7782C7.34697 24.7782 7.28158 24.7404 7.23944 24.6328C7.12466 24.319 7.21765 23.4327 7.80757 22.7803C8.00118 22.5735 8.24109 22.4157 8.50758 22.3197C8.77406 22.2237 9.05953 22.1923 9.3405 22.2281C9.6384 22.2692 9.92143 22.3836 10.1642 22.5611C10.4069 22.7387 10.6017 22.9738 10.731 23.2452C11.135 24.0124 10.7761 24.8159 10.561 25.2969L10.4986 25.4422C10.3649 25.7604 10.3533 26.0394 10.4797 26.2254C10.5306 26.2988 10.5989 26.3585 10.6785 26.399C10.7581 26.4396 10.8466 26.4598 10.9359 26.4578C11.0199 26.4563 11.1034 26.4441 11.1844 26.4215C11.2904 26.3983 11.3994 26.3721 11.4663 26.4549C11.483 26.4793 11.4934 26.5075 11.4964 26.537C11.4995 26.5664 11.4951 26.5962 11.4837 26.6235Z" fill="white"/>
<path d="M38.052 24.6373C37.8209 24.3522 37.5361 24.1152 37.2137 23.9398C37.1875 23.8541 37.1599 23.7626 37.1308 23.6696C37.1018 23.5766 37.0625 23.4603 37.0306 23.3659C37.3966 22.6183 37.5234 21.7761 37.3938 20.9539C37.2661 20.1202 36.8739 19.3495 36.275 18.7555C35.502 17.9433 34.2146 17.4231 33.1888 17.115C33.1772 16.6268 33.1612 16.0747 33.1467 15.7303C33.1301 14.931 33.0114 14.137 32.7936 13.3677C32.5877 12.6162 32.2677 11.9007 31.8448 11.2463C33.4024 9.38211 34.2408 7.45686 34.2379 5.73795C34.2379 2.95398 32.0656 1.15515 28.7164 1.15515C27.1254 1.15515 25.312 1.55763 23.4682 2.31756L23.224 2.42072C22.6632 1.87003 21.9236 1.14643 21.8757 1.10429C21.0315 0.373424 19.9853 0 18.7648 0C17.3117 0 15.6408 0.539068 13.8013 1.59831C12.2146 2.51662 10.5087 3.82724 8.86828 5.39068C5.52489 8.57278 2.82955 12.3913 1.65697 15.5952C1.15423 16.9697 0.939183 18.2106 1.01474 19.3047C1.10919 20.6226 1.64389 21.7298 2.56075 22.5014L3.13178 22.9852C2.94794 23.795 2.89884 24.6296 2.98648 25.4553C3.15212 27.0929 3.98034 28.652 5.32292 29.8376C6.36949 30.7756 7.66563 31.3898 9.05426 31.6059C10.2573 34.0054 12.0952 36.0292 14.3679 37.4572C16.8381 39.0221 19.808 39.8983 22.9407 39.9913C23.1412 39.9913 23.3432 40 23.5423 40C26.7752 40 29.8018 39.2052 32.2952 37.7028C34.8465 36.1717 36.8393 33.8626 37.9809 31.1148L37.9925 31.0843C38.1915 30.5728 38.841 28.7711 38.841 27.0784C38.841 25.8549 38.4153 25.0746 38.052 24.6373ZM36.7603 30.6077C34.5474 35.9112 29.2657 38.8623 22.9741 38.6763C17.1156 38.5048 12.1129 35.407 9.92316 30.368C8.59947 30.368 7.23509 29.7868 6.19764 28.867C5.10497 27.8979 4.43077 26.6395 4.29855 25.3318C4.19188 24.3879 4.30937 23.4321 4.64146 22.542L3.41076 21.5046C-2.21531 16.7503 15.385 -2.80867 21.0097 2.0996C21.0387 2.12431 22.9247 3.97544 22.9291 3.9798L23.9753 3.53518C28.9155 1.49224 32.9171 2.47884 32.9215 5.74085C32.9215 7.43652 31.8433 9.41262 30.1128 11.2085C30.7405 11.7897 31.2418 12.7008 31.5309 13.7397C31.7221 14.4063 31.8251 15.0951 31.8375 15.7884C31.868 16.4801 31.9014 18.09 31.9044 18.1133L32.6003 18.3065C33.924 18.6785 34.867 19.1783 35.3291 19.6578C35.7425 20.061 36.0134 20.5879 36.1007 21.1588C36.1791 21.6019 36.1689 22.3851 35.5834 23.2598C35.6957 23.5194 35.7927 23.7852 35.874 24.0561C36.0193 24.5225 36.1268 24.9105 36.1428 24.9686C36.679 24.9686 37.5188 25.5847 37.5188 27.0725C37.5188 28.5604 36.9114 30.2357 36.7661 30.6077H36.7603Z" fill="white"/>
<path d="M35.8822 26.1861C35.6926 26.0809 35.4736 26.0406 35.2589 26.0714C35.1458 25.3757 34.9466 24.6968 34.6661 24.0502C33.3671 25.076 31.6947 25.7938 30.4204 26.1614C28.5754 26.6806 26.6567 26.8878 24.7434 26.7746C23.5127 26.6758 22.6976 26.3169 22.3925 27.3122C25.204 28.341 28.1813 27.9007 28.1813 27.9007C28.209 27.8983 28.2365 27.9068 28.258 27.9245C28.2794 27.9421 28.2931 27.9675 28.2961 27.9951C28.2978 28.018 28.2925 28.0409 28.2808 28.0607C28.2691 28.0804 28.2516 28.0961 28.2307 28.1056C28.2307 28.1056 25.9436 29.1677 22.3126 28.0445C22.4143 28.896 23.2439 29.2782 23.6406 29.4322C23.9798 29.5607 24.3299 29.658 24.6868 29.7228C29.1911 30.4958 33.3932 27.9239 34.3406 27.2759C34.4103 27.2265 34.4583 27.2759 34.4016 27.3602C34.345 27.4445 34.3435 27.4474 34.3086 27.4924C33.1462 28.9876 30.0324 30.7195 25.9785 30.7181C24.2102 30.7181 22.4419 30.0947 21.7938 29.1387C20.7869 27.6522 21.743 25.4843 23.4212 25.711L24.1564 25.7938C26.2531 26.0278 29.2885 25.7328 31.7906 24.5718C34.0791 23.5097 34.9436 22.34 34.8143 21.3941C34.771 21.0999 34.6327 20.8279 34.4205 20.6197C34.0079 20.2172 33.3569 19.9033 32.2555 19.5953C31.8923 19.4921 31.6453 19.4267 31.3837 19.3395C30.9115 19.1841 30.6776 19.0591 30.6252 18.1771C30.602 17.7877 30.5352 16.4335 30.5105 15.8756C30.4669 14.8948 30.3492 13.5507 29.518 13.0015C29.3062 12.8627 29.0606 12.7844 28.8075 12.7748C28.6653 12.767 28.5228 12.7807 28.3847 12.8155C27.911 12.8969 27.6306 13.1497 27.2804 13.4403C26.243 14.3121 25.3682 14.4458 24.3947 14.4037C23.8135 14.3804 23.196 14.2889 22.4898 14.2467L22.0684 14.2119C20.4367 14.129 18.6887 15.537 18.3981 17.5364C17.9927 20.3203 20.0095 21.7588 20.5907 22.603C20.6805 22.7102 20.7362 22.8417 20.7506 22.9808C20.7354 23.1351 20.6615 23.2776 20.5442 23.3789C18.8805 25.0891 18.3487 27.8077 18.975 30.0715C19.0504 30.3494 19.1476 30.621 19.2656 30.8837C20.7375 34.3216 25.2999 35.9213 29.7578 34.4654C30.3412 34.2753 30.9075 34.0361 31.4506 33.7505C32.4288 33.272 33.3108 32.618 34.0529 31.8209C35.2357 30.5859 35.9418 29.2418 36.2121 27.5868C36.3472 26.6932 36.1496 26.3503 35.8822 26.1861ZM29.8798 20.4961C29.8798 20.8623 29.6532 21.1558 29.3858 21.1515C29.1185 21.1471 28.9063 20.8449 28.9136 20.4787C28.9209 20.1125 29.1403 19.819 29.4076 19.8249C29.675 19.8307 29.8871 20.13 29.8798 20.4961ZM28.655 16.1647C29.1751 16.0804 29.4265 16.6181 29.6125 17.5073C29.7375 18.1059 29.7142 18.6552 29.5747 18.9748C29.3177 18.9407 29.0573 18.9407 28.8003 18.9748C28.5497 18.618 28.3796 18.211 28.3019 17.7819C28.1159 16.8927 28.1362 16.2475 28.655 16.1647ZM26.9113 20.9451C27.029 20.7054 27.3923 20.6414 27.7207 20.7998C28.049 20.9582 28.2205 21.2866 28.1028 21.5263C27.9851 21.7661 27.6233 21.83 27.2935 21.6716C26.9636 21.5133 26.7936 21.1849 26.9113 20.9451ZM24.8771 20.6749C24.8234 20.7591 24.7086 20.7432 24.4659 20.717C23.941 20.6352 23.4039 20.6907 22.9068 20.8783C22.7932 20.9259 22.6741 20.959 22.5523 20.9771C22.5367 20.9773 22.5212 20.9743 22.5067 20.9684C22.4922 20.9625 22.4791 20.9537 22.4681 20.9425C22.4571 20.9314 22.4485 20.9182 22.4427 20.9037C22.437 20.8891 22.4342 20.8736 22.4346 20.8579C22.4639 20.7093 22.5486 20.5774 22.6714 20.4889C22.935 20.2737 23.2557 20.1404 23.5941 20.1053C24.261 20.0254 24.7565 20.3363 24.864 20.5208C24.8811 20.5425 24.8912 20.5688 24.893 20.5963C24.8948 20.6238 24.8882 20.6512 24.8742 20.6749H24.8771ZM21.1545 19.7609C21.0673 19.7478 21.0295 19.7115 21.0194 19.6621C20.9845 19.5081 21.2213 19.2553 21.4698 19.0736C21.8324 18.8078 22.2575 18.6399 22.7039 18.5862C23.1503 18.5325 23.6031 18.5948 24.0184 18.7671C24.4067 18.9276 24.7406 19.1964 24.9803 19.5415C25.0689 19.6868 25.0864 19.7987 25.0282 19.8583C24.9396 19.9527 24.7115 19.8437 24.3395 19.681C23.8926 19.4617 23.3986 19.3554 22.901 19.3715C22.0757 19.4195 21.3594 19.7813 21.1545 19.7609Z" fill="white"/>
<path d="M26.8184 9.66835C26.8896 9.68433 26.9346 9.56083 26.8707 9.52305C25.814 8.97529 24.6485 8.67002 23.459 8.62944C23.4474 8.62938 23.4361 8.62608 23.4262 8.61992C23.4164 8.61376 23.4085 8.60499 23.4033 8.59458C23.3982 8.58417 23.3961 8.57254 23.3972 8.56099C23.3983 8.54944 23.4026 8.53843 23.4096 8.52919C23.5944 8.28726 23.8103 8.07082 24.0519 7.8855C24.0629 7.87717 24.071 7.86548 24.0748 7.85217C24.0786 7.83887 24.0781 7.82469 24.0732 7.81174C24.0682 7.7988 24.0593 7.7878 24.0476 7.78041C24.0359 7.77301 24.0221 7.7696 24.0083 7.77071C22.5553 7.8608 20.8843 8.5597 19.9268 9.21065C19.9164 9.21763 19.9042 9.22135 19.8917 9.22131C19.8792 9.22128 19.867 9.2175 19.8566 9.21046C19.8463 9.20341 19.8383 9.19344 19.8337 9.18182C19.8291 9.1702 19.8281 9.15746 19.8309 9.14526C19.9305 8.77692 20.077 8.42289 20.2668 8.09183C20.2727 8.0804 20.2749 8.06737 20.273 8.05461C20.2711 8.04186 20.2652 8.03004 20.2562 8.02084C20.2471 8.01164 20.2354 8.00554 20.2227 8.00342C20.21 8.00129 20.1969 8.00325 20.1854 8.00901C18.6481 8.79509 16.9306 10.1972 15.5357 11.8086C15.5234 11.8198 15.516 11.8354 15.5152 11.8521C15.5144 11.8687 15.5202 11.8849 15.5314 11.8973C15.5426 11.9096 15.5582 11.917 15.5748 11.9178C15.5914 11.9186 15.6077 11.9128 15.62 11.9016C16.8246 11.0298 18.4766 10.2103 20.6402 9.68288C22.6724 9.21416 24.784 9.20919 26.8184 9.66835Z" fill="white"/>
<path d="M21.6112 4.67139C21.6112 4.67139 20.0797 2.89581 19.6162 2.76068C16.7727 1.99639 10.6264 6.23338 6.70328 11.8333C5.11514 14.0942 2.84263 18.1103 3.92948 20.1736C4.06316 20.4293 4.82163 21.0861 5.22848 21.4261C5.95432 20.4051 7.04836 19.706 8.2798 19.4761C9.88684 15.1607 12.572 11.1838 16.1261 8.44777C17.8467 7.03918 19.6814 5.77604 21.6112 4.67139Z" fill="white"/>
</g>
<defs>
<clipPath id="clip0_1042_6060">
<rect width="37.8408" height="40" fill="white" transform="translate(1)"/>
</clipPath>
</defs>
</svg>
