<?xml version="1.0" ?>
<svg xmlns="http://www.w3.org/2000/svg" width="512" height="512">
	<rect width="512" height="512" fill="#3646d4"/>
	<path d="M 420.00 405.00 L 419.00 405.00 L 418.00 405.00 L 417.00 404.00 L 417.00 403.00 L 417.00 402.00 L 417.00 401.00 L 417.00 400.00 L 417.00 399.00 L 417.00 398.00 L 417.00 397.00 L 417.00 396.00 L 417.00 395.00 L 417.00 394.00 L 417.00 393.00 L 417.00 392.00 L 417.00 391.00 L 417.00 390.00 L 417.00 389.00 L 417.00 388.00 L 417.00 387.00 L 417.00 386.00 L 417.00 385.00 L 417.00 384.00 L 417.00 383.00 L 417.00 382.00 L 417.00 381.00 L 417.00 380.00 L 417.00 379.00 L 417.00 378.00 L 417.00 377.00 L 417.00 376.00 L 417.00 375.00 L 417.00 374.00 L 417.00 373.00 L 418.00 372.00 L 419.00 372.00 L 419.00 372.00 L 420.00 371.00 L 421.00 371.00 L 421.00 371.00 L 422.00 370.00 L 423.00 370.00 L 423.00 370.00 L 424.00 369.00 L 425.00 369.00 L 425.00 369.00 L 426.00 368.00 L 427.00 368.00 L 427.00 368.00 L 428.00 367.00 L 428.00 367.00 L 429.00 366.00 L 430.00 366.00 L 430.00 366.00 L 431.00 365.00 L 431.00 365.00 L 432.00 364.00 L 433.00 364.00 L 433.00 364.00 L 434.00 363.00 L 434.00 363.00 L 435.00 362.00 L 436.00 362.00 L 436.00 362.00 L 437.00 361.00 L 437.00 361.00 L 438.00 360.00 L 438.00 360.00 L 439.00 359.00 L 439.00 359.00 L 440.00 358.00 L 440.00 358.00 L 441.00 357.00 L 441.00 357.00 L 442.00 356.00 L 442.00 356.00 L 443.00 355.00 L 443.00 355.00 L 444.00 354.00 L 444.00 354.00 L 445.00 353.00 L 445.00 353.00 L 446.00 352.00 L 446.00 352.00 L 446.00 351.00 L 447.00 350.00 L 447.00 350.00 L 448.00 349.00 L 448.00 349.00 L 449.00 348.00 L 449.00 348.00 L 449.00 347.00 L 450.00 346.00 L 450.00 346.00 L 451.00 345.00 L 451.00 345.00 L 451.00 344.00 L 452.00 343.00 L 452.00 343.00 L 452.00 342.00 L 453.00 341.00 L 453.00 341.00 L 454.00 340.00 L 454.00 340.00 L 454.00 339.00 L 454.00 338.00 L 455.00 337.00 L 455.00 337.00 L 455.00 336.00 L 456.00 335.00 L 456.00 335.00 L 456.00 334.00 L 456.00 333.00 L 457.00 332.00 L 457.00 332.00 L 457.00 331.00 L 457.00 330.00 L 458.00 329.00 L 458.00 329.00 L 458.00 328.00 L 458.00 327.00 L 458.00 326.00 L 458.00 325.00 L 459.00 324.00 L 459.00 324.00 L 459.00 323.00 L 459.00 322.00 L 459.00 321.00 L 459.00 320.00 L 459.00 319.00 L 460.00 318.00 L 460.00 318.00 L 460.00 317.00 L 460.00 316.00 L 460.00 315.00 L 460.00 314.00 L 460.00 313.00 L 460.00 312.00 L 460.00 311.00 L 460.00 310.00 L 460.00 309.00 L 460.00 308.00 L 460.00 307.00 L 460.00 306.00 L 460.00 305.00 L 460.00 305.00 L 459.00 304.00 L 459.00 303.00 L 459.00 302.00 L 459.00 301.00 L 459.00 300.00 L 459.00 299.00 L 459.00 298.00 L 459.00 298.00 L 458.00 297.00 L 458.00 296.00 L 458.00 295.00 L 458.00 294.00 L 458.00 294.00 L 457.00 293.00 L 457.00 292.00 L 457.00 291.00 L 457.00 291.00 L 456.00 290.00 L 456.00 289.00 L 456.00 288.00 L 456.00 288.00 L 455.00 287.00 L 455.00 286.00 L 455.00 285.00 L 455.00 285.00 L 454.00 284.00 L 454.00 283.00 L 454.00 283.00 L 453.00 282.00 L 453.00 281.00 L 453.00 281.00 L 452.00 280.00 L 452.00 279.00 L 452.00 279.00 L 451.00 278.00 L 451.00 277.00 L 451.00 277.00 L 450.00 276.00 L 450.00 276.00 L 449.00 275.00 L 449.00 274.00 L 449.00 274.00 L 448.00 273.00 L 448.00 272.00 L 448.00 272.00 L 447.00 271.00 L 447.00 271.00 L 446.00 270.00 L 446.00 270.00 L 445.00 269.00 L 445.00 268.00 L 445.00 268.00 L 444.00 267.00 L 444.00 267.00 L 443.00 266.00 L 443.00 266.00 L 442.00 265.00 L 442.00 265.00 L 441.00 264.00 L 441.00 264.00 L 440.00 263.00 L 440.00 263.00 L 439.00 262.00 L 439.00 262.00 L 438.00 261.00 L 438.00 261.00 L 437.00 260.00 L 437.00 260.00 L 436.00 259.00 L 436.00 259.00 L 435.00 258.00 L 435.00 258.00 L 434.00 257.00 L 434.00 257.00 L 433.00 256.00 L 433.00 256.00 L 432.00 256.00 L 431.00 255.00 L 431.00 255.00 L 430.00 254.00 L 430.00 254.00 L 429.00 253.00 L 429.00 253.00 L 428.00 253.00 L 427.00 252.00 L 427.00 252.00 L 426.00 251.00 L 426.00 251.00 L 425.00 251.00 L 424.00 250.00 L 424.00 250.00 L 423.00 250.00 L 422.00 249.00 L 422.00 249.00 L 421.00 249.00 L 420.00 248.00 L 420.00 248.00 L 419.00 248.00 L 418.00 247.00 L 418.00 247.00 L 417.00 247.00 L 416.00 246.00 L 416.00 246.00 L 415.00 246.00 L 414.00 246.00 L 413.00 245.00 L 413.00 245.00 L 412.00 245.00 L 411.00 244.00 L 411.00 244.00 L 410.00 244.00 L 409.00 244.00 L 408.00 244.00 L 407.00 243.00 L 407.00 243.00 L 406.00 243.00 L 405.00 243.00 L 404.00 243.00 L 403.00 242.00 L 403.00 242.00 L 402.00 242.00 L 401.00 242.00 L 400.00 242.00 L 399.00 242.00 L 398.00 241.00 L 398.00 241.00 L 397.00 241.00 L 396.00 241.00 L 395.00 241.00 L 394.00 241.00 L 393.00 241.00 L 392.00 241.00 L 391.00 241.00 L 390.00 241.00 L 389.00 241.00 L 388.00 241.00 L 387.00 241.00 L 386.00 241.00 L 385.00 241.00 L 384.00 241.00 L 383.00 241.00 L 382.00 241.00 L 381.00 241.00 L 380.00 241.00 L 379.00 241.00 L 378.00 240.00 L 378.00 239.00 L 378.00 239.00 L 377.00 238.00 L 377.00 237.00 L 377.00 236.00 L 377.00 235.00 L 377.00 235.00 L 376.00 234.00 L 376.00 233.00 L 376.00 232.00 L 376.00 231.00 L 376.00 231.00 L 375.00 230.00 L 375.00 229.00 L 375.00 228.00 L 375.00 227.00 L 375.00 227.00 L 374.00 226.00 L 374.00 225.00 L 374.00 224.00 L 374.00 223.00 L 374.00 223.00 L 373.00 222.00 L 373.00 221.00 L 373.00 220.00 L 373.00 220.00 L 372.00 219.00 L 372.00 218.00 L 372.00 217.00 L 372.00 217.00 L 371.00 216.00 L 371.00 215.00 L 371.00 214.00 L 371.00 214.00 L 370.00 213.00 L 370.00 212.00 L 370.00 212.00 L 369.00 211.00 L 369.00 210.00 L 369.00 209.00 L 369.00 209.00 L 368.00 208.00 L 368.00 207.00 L 368.00 207.00 L 367.00 206.00 L 367.00 205.00 L 367.00 205.00 L 366.00 204.00 L 366.00 203.00 L 366.00 203.00 L 365.00 202.00 L 365.00 201.00 L 365.00 201.00 L 364.00 200.00 L 364.00 199.00 L 364.00 199.00 L 363.00 198.00 L 363.00 197.00 L 363.00 197.00 L 362.00 196.00 L 362.00 196.00 L 361.00 195.00 L 361.00 194.00 L 361.00 194.00 L 360.00 193.00 L 360.00 192.00 L 360.00 192.00 L 359.00 191.00 L 359.00 190.00 L 359.00 190.00 L 358.00 189.00 L 358.00 189.00 L 357.00 188.00 L 357.00 188.00 L 356.00 187.00 L 356.00 186.00 L 356.00 186.00 L 355.00 185.00 L 355.00 185.00 L 354.00 184.00 L 354.00 183.00 L 354.00 183.00 L 353.00 182.00 L 353.00 182.00 L 352.00 181.00 L 352.00 181.00 L 351.00 180.00 L 351.00 180.00 L 350.00 179.00 L 350.00 178.00 L 350.00 178.00 L 349.00 177.00 L 349.00 177.00 L 348.00 176.00 L 348.00 176.00 L 347.00 175.00 L 347.00 175.00 L 346.00 174.00 L 346.00 174.00 L 345.00 173.00 L 345.00 173.00 L 344.00 172.00 L 344.00 172.00 L 343.00 171.00 L 343.00 171.00 L 342.00 170.00 L 342.00 170.00 L 341.00 169.00 L 341.00 169.00 L 340.00 168.00 L 340.00 168.00 L 339.00 167.00 L 339.00 167.00 L 338.00 166.00 L 338.00 166.00 L 337.00 165.00 L 337.00 165.00 L 336.00 164.00 L 336.00 164.00 L 335.00 163.00 L 335.00 163.00 L 334.00 162.00 L 334.00 162.00 L 333.00 161.00 L 333.00 161.00 L 332.00 161.00 L 331.00 160.00 L 331.00 160.00 L 330.00 159.00 L 330.00 159.00 L 329.00 158.00 L 329.00 158.00 L 328.00 157.00 L 328.00 157.00 L 327.00 157.00 L 326.00 156.00 L 326.00 156.00 L 325.00 155.00 L 325.00 155.00 L 324.00 155.00 L 323.00 154.00 L 323.00 154.00 L 322.00 153.00 L 322.00 153.00 L 321.00 153.00 L 320.00 152.00 L 320.00 152.00 L 319.00 151.00 L 319.00 151.00 L 318.00 151.00 L 317.00 150.00 L 317.00 150.00 L 316.00 150.00 L 315.00 149.00 L 315.00 149.00 L 314.00 148.00 L 314.00 148.00 L 313.00 148.00 L 312.00 147.00 L 312.00 147.00 L 311.00 147.00 L 310.00 146.00 L 310.00 146.00 L 309.00 146.00 L 308.00 145.00 L 308.00 145.00 L 307.00 145.00 L 306.00 144.00 L 306.00 144.00 L 305.00 144.00 L 304.00 143.00 L 304.00 143.00 L 303.00 143.00 L 302.00 142.00 L 302.00 142.00 L 301.00 142.00 L 300.00 142.00 L 299.00 141.00 L 299.00 141.00 L 298.00 141.00 L 297.00 140.00 L 297.00 140.00 L 296.00 140.00 L 295.00 140.00 L 294.00 139.00 L 294.00 139.00 L 293.00 139.00 L 292.00 139.00 L 291.00 138.00 L 291.00 138.00 L 290.00 138.00 L 289.00 138.00 L 288.00 137.00 L 288.00 137.00 L 287.00 137.00 L 286.00 137.00 L 285.00 137.00 L 284.00 136.00 L 284.00 136.00 L 283.00 136.00 L 282.00 136.00 L 281.00 136.00 L 280.00 135.00 L 280.00 135.00 L 279.00 135.00 L 278.00 135.00 L 277.00 135.00 L 276.00 135.00 L 275.00 134.00 L 275.00 134.00 L 274.00 134.00 L 273.00 134.00 L 272.00 134.00 L 271.00 134.00 L 270.00 134.00 L 269.00 134.00 L 268.00 133.00 L 268.00 133.00 L 267.00 133.00 L 266.00 133.00 L 265.00 133.00 L 264.00 133.00 L 263.00 133.00 L 262.00 133.00 L 261.00 133.00 L 260.00 133.00 L 259.00 133.00 L 258.00 133.00 L 257.00 133.00 L 256.00 132.00 L 256.00 132.00 L 255.00 132.00 L 254.00 132.00 L 253.00 132.00 L 252.00 132.00 L 251.00 132.00 L 250.00 132.00 L 249.00 132.00 L 248.00 132.00 L 247.00 132.00 L 247.00 132.00 L 246.00 133.00 L 245.00 133.00 L 244.00 133.00 L 243.00 133.00 L 242.00 133.00 L 241.00 133.00 L 240.00 133.00 L 239.00 133.00 L 238.00 133.00 L 237.00 133.00 L 236.00 133.00 L 236.00 133.00 L 235.00 134.00 L 234.00 134.00 L 233.00 134.00 L 232.00 134.00 L 231.00 134.00 L 230.00 134.00 L 230.00 134.00 L 229.00 135.00 L 228.00 135.00 L 227.00 135.00 L 226.00 135.00 L 225.00 135.00 L 225.00 135.00 L 224.00 136.00 L 223.00 136.00 L 222.00 136.00 L 221.00 136.00 L 221.00 136.00 L 220.00 137.00 L 219.00 137.00 L 218.00 137.00 L 217.00 137.00 L 217.00 137.00 L 216.00 138.00 L 215.00 138.00 L 214.00 138.00 L 214.00 138.00 L 213.00 139.00 L 212.00 139.00 L 211.00 139.00 L 211.00 139.00 L 210.00 140.00 L 209.00 140.00 L 209.00 140.00 L 208.00 141.00 L 207.00 141.00 L 206.00 141.00 L 206.00 141.00 L 205.00 142.00 L 204.00 142.00 L 204.00 142.00 L 203.00 143.00 L 202.00 143.00 L 201.00 143.00 L 201.00 143.00 L 200.00 144.00 L 199.00 144.00 L 199.00 144.00 L 198.00 145.00 L 197.00 145.00 L 197.00 145.00 L 196.00 146.00 L 195.00 146.00 L 195.00 146.00 L 194.00 147.00 L 193.00 147.00 L 193.00 147.00 L 192.00 148.00 L 192.00 148.00 L 191.00 149.00 L 190.00 149.00 L 190.00 149.00 L 189.00 150.00 L 188.00 150.00 L 188.00 150.00 L 187.00 151.00 L 187.00 151.00 L 186.00 152.00 L 185.00 152.00 L 185.00 152.00 L 184.00 153.00 L 184.00 153.00 L 183.00 154.00 L 182.00 154.00 L 182.00 154.00 L 181.00 155.00 L 181.00 155.00 L 180.00 156.00 L 179.00 156.00 L 179.00 156.00 L 178.00 157.00 L 178.00 157.00 L 177.00 158.00 L 177.00 158.00 L 176.00 159.00 L 175.00 159.00 L 175.00 159.00 L 174.00 160.00 L 174.00 160.00 L 173.00 161.00 L 173.00 161.00 L 172.00 162.00 L 172.00 162.00 L 171.00 163.00 L 171.00 163.00 L 170.00 164.00 L 169.00 164.00 L 169.00 164.00 L 168.00 165.00 L 168.00 165.00 L 167.00 166.00 L 167.00 166.00 L 166.00 167.00 L 166.00 167.00 L 165.00 168.00 L 165.00 168.00 L 164.00 169.00 L 164.00 169.00 L 163.00 170.00 L 163.00 170.00 L 162.00 171.00 L 162.00 171.00 L 161.00 172.00 L 161.00 172.00 L 160.00 173.00 L 160.00 173.00 L 159.00 174.00 L 159.00 174.00 L 159.00 175.00 L 158.00 176.00 L 158.00 176.00 L 157.00 177.00 L 157.00 177.00 L 156.00 178.00 L 156.00 178.00 L 155.00 179.00 L 155.00 179.00 L 154.00 180.00 L 154.00 180.00 L 154.00 181.00 L 153.00 182.00 L 153.00 182.00 L 152.00 183.00 L 152.00 183.00 L 152.00 184.00 L 151.00 185.00 L 151.00 185.00 L 150.00 186.00 L 150.00 186.00 L 149.00 187.00 L 149.00 187.00 L 149.00 188.00 L 148.00 189.00 L 148.00 189.00 L 148.00 190.00 L 147.00 191.00 L 147.00 191.00 L 146.00 192.00 L 146.00 192.00 L 146.00 193.00 L 145.00 194.00 L 145.00 194.00 L 144.00 195.00 L 144.00 195.00 L 144.00 196.00 L 143.00 197.00 L 143.00 197.00 L 143.00 198.00 L 142.00 199.00 L 142.00 199.00 L 142.00 200.00 L 141.00 201.00 L 141.00 201.00 L 141.00 202.00 L 140.00 203.00 L 140.00 203.00 L 140.00 204.00 L 139.00 205.00 L 139.00 205.00 L 139.00 206.00 L 138.00 207.00 L 138.00 207.00 L 138.00 208.00 L 138.00 209.00 L 137.00 210.00 L 137.00 210.00 L 136.00 211.00 L 135.00 211.00 L 134.00 211.00 L 134.00 211.00 L 133.00 212.00 L 132.00 212.00 L 131.00 212.00 L 130.00 212.00 L 129.00 212.00 L 128.00 212.00 L 127.00 212.00 L 126.00 212.00 L 125.00 212.00 L 125.00 212.00 L 124.00 213.00 L 123.00 213.00 L 122.00 213.00 L 121.00 213.00 L 120.00 213.00 L 119.00 213.00 L 119.00 213.00 L 118.00 214.00 L 117.00 214.00 L 116.00 214.00 L 115.00 214.00 L 115.00 214.00 L 114.00 215.00 L 113.00 215.00 L 112.00 215.00 L 112.00 215.00 L 111.00 216.00 L 110.00 216.00 L 109.00 216.00 L 109.00 216.00 L 108.00 217.00 L 107.00 217.00 L 106.00 217.00 L 106.00 217.00 L 105.00 218.00 L 104.00 218.00 L 104.00 218.00 L 103.00 219.00 L 102.00 219.00 L 102.00 219.00 L 101.00 220.00 L 100.00 220.00 L 99.00 220.00 L 99.00 220.00 L 98.00 221.00 L 97.00 221.00 L 97.00 221.00 L 96.00 222.00 L 96.00 222.00 L 95.00 223.00 L 94.00 223.00 L 94.00 223.00 L 93.00 224.00 L 92.00 224.00 L 92.00 224.00 L 91.00 225.00 L 91.00 225.00 L 90.00 226.00 L 89.00 226.00 L 89.00 226.00 L 88.00 227.00 L 88.00 227.00 L 87.00 228.00 L 86.00 228.00 L 86.00 228.00 L 85.00 229.00 L 85.00 229.00 L 84.00 230.00 L 84.00 230.00 L 83.00 231.00 L 83.00 231.00 L 82.00 232.00 L 81.00 232.00 L 81.00 232.00 L 80.00 233.00 L 80.00 233.00 L 79.00 234.00 L 79.00 234.00 L 78.00 235.00 L 78.00 235.00 L 77.00 236.00 L 77.00 236.00 L 76.00 237.00 L 76.00 237.00 L 75.00 238.00 L 75.00 238.00 L 74.00 239.00 L 74.00 239.00 L 73.00 240.00 L 73.00 240.00 L 72.00 241.00 L 72.00 241.00 L 72.00 242.00 L 71.00 243.00 L 71.00 243.00 L 70.00 244.00 L 70.00 244.00 L 69.00 245.00 L 69.00 245.00 L 68.00 246.00 L 68.00 246.00 L 68.00 247.00 L 67.00 248.00 L 67.00 248.00 L 66.00 249.00 L 66.00 249.00 L 66.00 250.00 L 65.00 251.00 L 65.00 251.00 L 64.00 252.00 L 64.00 252.00 L 64.00 253.00 L 63.00 254.00 L 63.00 254.00 L 62.00 255.00 L 62.00 255.00 L 62.00 256.00 L 61.00 257.00 L 61.00 257.00 L 61.00 258.00 L 60.00 259.00 L 60.00 259.00 L 60.00 260.00 L 59.00 261.00 L 59.00 261.00 L 59.00 262.00 L 58.00 263.00 L 58.00 263.00 L 58.00 264.00 L 58.00 265.00 L 57.00 266.00 L 57.00 266.00 L 57.00 267.00 L 56.00 268.00 L 56.00 268.00 L 56.00 269.00 L 56.00 270.00 L 55.00 271.00 L 55.00 271.00 L 55.00 272.00 L 55.00 273.00 L 54.00 274.00 L 54.00 274.00 L 54.00 275.00 L 54.00 276.00 L 54.00 277.00 L 53.00 278.00 L 53.00 278.00 L 53.00 279.00 L 53.00 280.00 L 53.00 281.00 L 53.00 282.00 L 52.00 283.00 L 52.00 283.00 L 52.00 284.00 L 52.00 285.00 L 52.00 286.00 L 52.00 287.00 L 52.00 288.00 L 52.00 289.00 L 51.00 290.00 L 51.00 290.00 L 51.00 291.00 L 51.00 292.00 L 51.00 293.00 L 51.00 294.00 L 51.00 295.00 L 51.00 296.00 L 51.00 297.00 L 51.00 298.00 L 51.00 299.00 L 51.00 300.00 L 51.00 301.00 L 51.00 302.00 L 51.00 302.00 L 52.00 303.00 L 52.00 304.00 L 52.00 305.00 L 52.00 306.00 L 52.00 307.00 L 52.00 308.00 L 52.00 309.00 L 52.00 310.00 L 52.00 311.00 L 52.00 311.00 L 53.00 312.00 L 53.00 313.00 L 53.00 314.00 L 53.00 315.00 L 53.00 316.00 L 53.00 316.00 L 54.00 317.00 L 54.00 318.00 L 54.00 319.00 L 54.00 320.00 L 54.00 320.00 L 55.00 321.00 L 55.00 322.00 L 55.00 323.00 L 55.00 323.00 L 56.00 324.00 L 56.00 325.00 L 56.00 326.00 L 56.00 327.00 L 56.00 327.00 L 57.00 328.00 L 57.00 329.00 L 57.00 330.00 L 57.00 330.00 L 58.00 331.00 L 58.00 332.00 L 58.00 332.00 L 59.00 333.00 L 59.00 334.00 L 59.00 334.00 L 60.00 335.00 L 60.00 336.00 L 60.00 336.00 L 61.00 337.00 L 61.00 338.00 L 61.00 338.00 L 62.00 339.00 L 62.00 340.00 L 62.00 340.00 L 63.00 341.00 L 63.00 341.00 L 64.00 342.00 L 64.00 343.00 L 64.00 343.00 L 65.00 344.00 L 65.00 344.00 L 66.00 345.00 L 66.00 346.00 L 66.00 346.00 L 67.00 347.00 L 67.00 347.00 L 68.00 348.00 L 68.00 349.00 L 68.00 349.00 L 69.00 350.00 L 69.00 350.00 L 70.00 351.00 L 70.00 351.00 L 71.00 352.00 L 71.00 352.00 L 72.00 353.00 L 72.00 354.00 L 72.00 354.00 L 73.00 355.00 L 73.00 355.00 L 74.00 356.00 L 74.00 356.00 L 75.00 357.00 L 75.00 357.00 L 76.00 358.00 L 76.00 358.00 L 77.00 359.00 L 77.00 359.00 L 78.00 360.00 L 78.00 360.00 L 79.00 361.00 L 79.00 361.00 L 80.00 362.00 L 80.00 362.00 L 81.00 363.00 L 81.00 363.00 L 82.00 364.00 L 82.00 364.00 L 83.00 364.00 L 84.00 365.00 L 84.00 365.00 L 85.00 366.00 L 85.00 366.00 L 86.00 367.00 L 86.00 367.00 L 87.00 367.00 L 88.00 368.00 L 88.00 368.00 L 89.00 369.00 L 89.00 369.00 L 90.00 369.00 L 91.00 370.00 L 91.00 370.00 L 92.00 371.00 L 92.00 372.00 L 92.00 373.00 L 92.00 374.00 L 92.00 375.00 L 92.00 376.00 L 92.00 377.00 L 92.00 378.00 L 92.00 379.00 L 92.00 380.00 L 92.00 381.00 L 92.00 382.00 L 92.00 383.00 L 92.00 384.00 L 92.00 385.00 L 92.00 386.00 L 92.00 387.00 L 92.00 388.00 L 92.00 389.00 L 92.00 390.00 L 92.00 391.00 L 92.00 392.00 L 92.00 393.00 L 92.00 394.00 L 92.00 395.00 L 92.00 396.00 L 92.00 397.00 L 92.00 398.00 L 92.00 399.00 L 92.00 400.00 L 92.00 401.00 L 92.00 402.00 L 92.00 403.00 L 92.00 404.00 L 91.00 405.00 L 90.00 405.00 L 89.00 404.00 L 89.00 404.00 L 88.00 404.00 L 87.00 403.00 L 87.00 403.00 L 86.00 403.00 L 85.00 402.00 L 85.00 402.00 L 84.00 402.00 L 83.00 401.00 L 83.00 401.00 L 82.00 401.00 L 81.00 400.00 L 81.00 400.00 L 80.00 400.00 L 79.00 399.00 L 79.00 399.00 L 78.00 398.00 L 78.00 398.00 L 77.00 398.00 L 76.00 397.00 L 76.00 397.00 L 75.00 397.00 L 74.00 396.00 L 74.00 396.00 L 73.00 395.00 L 73.00 395.00 L 72.00 395.00 L 71.00 394.00 L 71.00 394.00 L 70.00 393.00 L 70.00 393.00 L 69.00 393.00 L 68.00 392.00 L 68.00 392.00 L 67.00 391.00 L 67.00 391.00 L 66.00 390.00 L 66.00 390.00 L 65.00 389.00 L 65.00 389.00 L 64.00 389.00 L 63.00 388.00 L 63.00 388.00 L 62.00 387.00 L 62.00 387.00 L 61.00 386.00 L 61.00 386.00 L 60.00 385.00 L 60.00 385.00 L 59.00 384.00 L 59.00 384.00 L 58.00 383.00 L 58.00 383.00 L 57.00 383.00 L 56.00 382.00 L 56.00 382.00 L 55.00 381.00 L 55.00 381.00 L 54.00 380.00 L 54.00 380.00 L 53.00 379.00 L 53.00 379.00 L 52.00 378.00 L 52.00 378.00 L 51.00 377.00 L 51.00 376.00 L 51.00 376.00 L 50.00 375.00 L 50.00 375.00 L 49.00 374.00 L 49.00 374.00 L 48.00 373.00 L 48.00 373.00 L 47.00 372.00 L 47.00 372.00 L 46.00 371.00 L 46.00 371.00 L 45.00 370.00 L 45.00 369.00 L 45.00 369.00 L 44.00 368.00 L 44.00 368.00 L 43.00 367.00 L 43.00 367.00 L 42.00 366.00 L 42.00 365.00 L 42.00 365.00 L 41.00 364.00 L 41.00 364.00 L 40.00 363.00 L 40.00 362.00 L 40.00 362.00 L 39.00 361.00 L 39.00 361.00 L 38.00 360.00 L 38.00 359.00 L 38.00 359.00 L 37.00 358.00 L 37.00 357.00 L 37.00 357.00 L 36.00 356.00 L 36.00 356.00 L 35.00 355.00 L 35.00 354.00 L 35.00 354.00 L 34.00 353.00 L 34.00 352.00 L 34.00 352.00 L 33.00 351.00 L 33.00 350.00 L 33.00 350.00 L 32.00 349.00 L 32.00 348.00 L 32.00 348.00 L 31.00 347.00 L 31.00 346.00 L 31.00 346.00 L 30.00 345.00 L 30.00 344.00 L 30.00 344.00 L 29.00 343.00 L 29.00 342.00 L 29.00 341.00 L 29.00 341.00 L 28.00 340.00 L 28.00 339.00 L 28.00 339.00 L 27.00 338.00 L 27.00 337.00 L 27.00 336.00 L 27.00 336.00 L 26.00 335.00 L 26.00 334.00 L 26.00 333.00 L 26.00 333.00 L 25.00 332.00 L 25.00 331.00 L 25.00 330.00 L 25.00 329.00 L 25.00 329.00 L 24.00 328.00 L 24.00 327.00 L 24.00 326.00 L 24.00 326.00 L 23.00 325.00 L 23.00 324.00 L 23.00 323.00 L 23.00 322.00 L 23.00 322.00 L 22.00 321.00 L 22.00 320.00 L 22.00 319.00 L 22.00 318.00 L 22.00 317.00 L 22.00 316.00 L 22.00 316.00 L 21.00 315.00 L 21.00 314.00 L 21.00 313.00 L 21.00 312.00 L 21.00 311.00 L 21.00 310.00 L 21.00 309.00 L 21.00 308.00 L 21.00 307.00 L 21.00 307.00 L 20.00 306.00 L 20.00 305.00 L 20.00 304.00 L 20.00 303.00 L 20.00 302.00 L 20.00 301.00 L 20.00 300.00 L 20.00 299.00 L 20.00 298.00 L 20.00 297.00 L 20.00 296.00 L 20.00 295.00 L 20.00 294.00 L 20.00 293.00 L 20.00 292.00 L 20.00 291.00 L 20.00 290.00 L 21.00 289.00 L 21.00 289.00 L 21.00 288.00 L 21.00 287.00 L 21.00 286.00 L 21.00 285.00 L 21.00 284.00 L 21.00 283.00 L 21.00 282.00 L 21.00 281.00 L 22.00 280.00 L 22.00 280.00 L 22.00 279.00 L 22.00 278.00 L 22.00 277.00 L 22.00 276.00 L 22.00 275.00 L 23.00 274.00 L 23.00 274.00 L 23.00 273.00 L 23.00 272.00 L 23.00 271.00 L 24.00 270.00 L 24.00 270.00 L 24.00 269.00 L 24.00 268.00 L 24.00 267.00 L 25.00 266.00 L 25.00 266.00 L 25.00 265.00 L 25.00 264.00 L 26.00 263.00 L 26.00 263.00 L 26.00 262.00 L 26.00 261.00 L 26.00 260.00 L 27.00 259.00 L 27.00 259.00 L 27.00 258.00 L 27.00 257.00 L 28.00 256.00 L 28.00 256.00 L 28.00 255.00 L 29.00 254.00 L 29.00 254.00 L 29.00 253.00 L 30.00 252.00 L 30.00 252.00 L 30.00 251.00 L 30.00 250.00 L 31.00 249.00 L 31.00 249.00 L 31.00 248.00 L 32.00 247.00 L 32.00 247.00 L 32.00 246.00 L 33.00 245.00 L 33.00 245.00 L 33.00 244.00 L 34.00 243.00 L 34.00 243.00 L 34.00 242.00 L 35.00 241.00 L 35.00 241.00 L 35.00 240.00 L 36.00 239.00 L 36.00 239.00 L 37.00 238.00 L 37.00 238.00 L 37.00 237.00 L 38.00 236.00 L 38.00 236.00 L 39.00 235.00 L 39.00 235.00 L 39.00 234.00 L 40.00 233.00 L 40.00 233.00 L 40.00 232.00 L 41.00 231.00 L 41.00 231.00 L 42.00 230.00 L 42.00 230.00 L 43.00 229.00 L 43.00 229.00 L 43.00 228.00 L 44.00 227.00 L 44.00 227.00 L 45.00 226.00 L 45.00 226.00 L 46.00 225.00 L 46.00 225.00 L 46.00 224.00 L 47.00 223.00 L 47.00 223.00 L 48.00 222.00 L 48.00 222.00 L 49.00 221.00 L 49.00 221.00 L 50.00 220.00 L 50.00 220.00 L 51.00 219.00 L 51.00 219.00 L 52.00 218.00 L 52.00 218.00 L 53.00 217.00 L 53.00 217.00 L 54.00 216.00 L 54.00 216.00 L 55.00 215.00 L 55.00 215.00 L 56.00 214.00 L 56.00 214.00 L 57.00 213.00 L 57.00 213.00 L 58.00 212.00 L 58.00 212.00 L 59.00 211.00 L 59.00 211.00 L 60.00 210.00 L 60.00 210.00 L 61.00 209.00 L 61.00 209.00 L 62.00 208.00 L 62.00 208.00 L 63.00 207.00 L 64.00 207.00 L 64.00 207.00 L 65.00 206.00 L 65.00 206.00 L 66.00 205.00 L 66.00 205.00 L 67.00 204.00 L 67.00 204.00 L 68.00 203.00 L 69.00 203.00 L 69.00 203.00 L 70.00 202.00 L 70.00 202.00 L 71.00 201.00 L 72.00 201.00 L 72.00 201.00 L 73.00 200.00 L 73.00 200.00 L 74.00 199.00 L 75.00 199.00 L 75.00 199.00 L 76.00 198.00 L 76.00 198.00 L 77.00 197.00 L 78.00 197.00 L 78.00 197.00 L 79.00 196.00 L 80.00 196.00 L 80.00 196.00 L 81.00 195.00 L 82.00 195.00 L 82.00 195.00 L 83.00 194.00 L 84.00 194.00 L 84.00 194.00 L 85.00 193.00 L 85.00 193.00 L 86.00 192.00 L 87.00 192.00 L 87.00 192.00 L 88.00 191.00 L 89.00 191.00 L 90.00 191.00 L 90.00 191.00 L 91.00 190.00 L 92.00 190.00 L 92.00 190.00 L 93.00 189.00 L 94.00 189.00 L 94.00 189.00 L 95.00 188.00 L 96.00 188.00 L 97.00 188.00 L 97.00 188.00 L 98.00 187.00 L 99.00 187.00 L 100.00 187.00 L 100.00 187.00 L 101.00 186.00 L 102.00 186.00 L 103.00 186.00 L 103.00 186.00 L 104.00 185.00 L 105.00 185.00 L 106.00 185.00 L 107.00 185.00 L 107.00 185.00 L 108.00 184.00 L 109.00 184.00 L 110.00 184.00 L 111.00 184.00 L 111.00 184.00 L 112.00 183.00 L 113.00 183.00 L 114.00 183.00 L 115.00 183.00 L 115.00 183.00 L 116.00 182.00 L 116.00 182.00 L 117.00 181.00 L 117.00 181.00 L 118.00 180.00 L 118.00 180.00 L 118.00 179.00 L 119.00 178.00 L 119.00 178.00 L 119.00 177.00 L 120.00 176.00 L 120.00 176.00 L 121.00 175.00 L 121.00 175.00 L 121.00 174.00 L 122.00 173.00 L 122.00 173.00 L 122.00 172.00 L 123.00 171.00 L 123.00 171.00 L 124.00 170.00 L 124.00 170.00 L 124.00 169.00 L 125.00 168.00 L 125.00 168.00 L 126.00 167.00 L 126.00 167.00 L 127.00 166.00 L 127.00 166.00 L 127.00 165.00 L 128.00 164.00 L 128.00 164.00 L 129.00 163.00 L 129.00 163.00 L 130.00 162.00 L 130.00 162.00 L 130.00 161.00 L 131.00 160.00 L 131.00 160.00 L 132.00 159.00 L 132.00 159.00 L 133.00 158.00 L 133.00 158.00 L 133.00 157.00 L 134.00 156.00 L 134.00 156.00 L 135.00 155.00 L 135.00 155.00 L 136.00 154.00 L 136.00 154.00 L 137.00 153.00 L 137.00 153.00 L 138.00 152.00 L 138.00 152.00 L 139.00 151.00 L 139.00 151.00 L 140.00 150.00 L 140.00 150.00 L 141.00 149.00 L 141.00 149.00 L 142.00 148.00 L 142.00 148.00 L 143.00 147.00 L 143.00 147.00 L 144.00 146.00 L 144.00 146.00 L 145.00 145.00 L 145.00 145.00 L 146.00 144.00 L 146.00 144.00 L 147.00 143.00 L 147.00 143.00 L 148.00 142.00 L 148.00 142.00 L 149.00 141.00 L 149.00 141.00 L 150.00 140.00 L 150.00 140.00 L 151.00 139.00 L 151.00 139.00 L 152.00 138.00 L 153.00 138.00 L 153.00 138.00 L 154.00 137.00 L 154.00 137.00 L 155.00 136.00 L 155.00 136.00 L 156.00 135.00 L 156.00 135.00 L 157.00 134.00 L 157.00 134.00 L 158.00 133.00 L 159.00 133.00 L 159.00 133.00 L 160.00 132.00 L 160.00 132.00 L 161.00 131.00 L 161.00 131.00 L 162.00 130.00 L 163.00 130.00 L 163.00 130.00 L 164.00 129.00 L 164.00 129.00 L 165.00 128.00 L 166.00 128.00 L 166.00 128.00 L 167.00 127.00 L 167.00 127.00 L 168.00 126.00 L 169.00 126.00 L 169.00 126.00 L 170.00 125.00 L 170.00 125.00 L 171.00 124.00 L 172.00 124.00 L 172.00 124.00 L 173.00 123.00 L 174.00 123.00 L 174.00 123.00 L 175.00 122.00 L 175.00 122.00 L 176.00 121.00 L 177.00 121.00 L 177.00 121.00 L 178.00 120.00 L 179.00 120.00 L 179.00 120.00 L 180.00 119.00 L 181.00 119.00 L 181.00 119.00 L 182.00 118.00 L 183.00 118.00 L 183.00 118.00 L 184.00 117.00 L 185.00 117.00 L 185.00 117.00 L 186.00 116.00 L 187.00 116.00 L 187.00 116.00 L 188.00 115.00 L 189.00 115.00 L 189.00 115.00 L 190.00 114.00 L 191.00 114.00 L 191.00 114.00 L 192.00 113.00 L 193.00 113.00 L 194.00 113.00 L 194.00 113.00 L 195.00 112.00 L 196.00 112.00 L 197.00 112.00 L 197.00 112.00 L 198.00 111.00 L 199.00 111.00 L 199.00 111.00 L 200.00 110.00 L 201.00 110.00 L 202.00 110.00 L 202.00 110.00 L 203.00 109.00 L 204.00 109.00 L 205.00 109.00 L 205.00 109.00 L 206.00 108.00 L 207.00 108.00 L 208.00 108.00 L 208.00 108.00 L 209.00 107.00 L 210.00 107.00 L 211.00 107.00 L 212.00 107.00 L 212.00 107.00 L 213.00 106.00 L 214.00 106.00 L 215.00 106.00 L 216.00 106.00 L 216.00 106.00 L 217.00 105.00 L 218.00 105.00 L 219.00 105.00 L 220.00 105.00 L 220.00 105.00 L 221.00 104.00 L 222.00 104.00 L 223.00 104.00 L 224.00 104.00 L 225.00 104.00 L 225.00 104.00 L 226.00 103.00 L 227.00 103.00 L 228.00 103.00 L 229.00 103.00 L 230.00 103.00 L 231.00 103.00 L 231.00 103.00 L 232.00 102.00 L 233.00 102.00 L 234.00 102.00 L 235.00 102.00 L 236.00 102.00 L 237.00 102.00 L 238.00 102.00 L 239.00 102.00 L 240.00 102.00 L 241.00 102.00 L 242.00 102.00 L 242.00 102.00 L 243.00 101.00 L 244.00 101.00 L 245.00 101.00 L 246.00 101.00 L 247.00 101.00 L 248.00 101.00 L 249.00 101.00 L 250.00 101.00 L 251.00 101.00 L 252.00 101.00 L 253.00 101.00 L 254.00 101.00 L 255.00 101.00 L 256.00 101.00 L 257.00 101.00 L 258.00 101.00 L 259.00 101.00 L 260.00 101.00 L 261.00 101.00 L 262.00 102.00 L 262.00 102.00 L 263.00 102.00 L 264.00 102.00 L 265.00 102.00 L 266.00 102.00 L 267.00 102.00 L 268.00 102.00 L 269.00 102.00 L 270.00 102.00 L 271.00 102.00 L 272.00 102.00 L 273.00 103.00 L 273.00 103.00 L 274.00 103.00 L 275.00 103.00 L 276.00 103.00 L 277.00 103.00 L 278.00 103.00 L 279.00 103.00 L 280.00 104.00 L 280.00 104.00 L 281.00 104.00 L 282.00 104.00 L 283.00 104.00 L 284.00 104.00 L 285.00 105.00 L 285.00 105.00 L 286.00 105.00 L 287.00 105.00 L 288.00 105.00 L 289.00 106.00 L 289.00 106.00 L 290.00 106.00 L 291.00 106.00 L 292.00 106.00 L 293.00 107.00 L 293.00 107.00 L 294.00 107.00 L 295.00 107.00 L 296.00 107.00 L 297.00 108.00 L 297.00 108.00 L 298.00 108.00 L 299.00 108.00 L 300.00 109.00 L 300.00 109.00 L 301.00 109.00 L 302.00 109.00 L 303.00 110.00 L 303.00 110.00 L 304.00 110.00 L 305.00 110.00 L 306.00 111.00 L 306.00 111.00 L 307.00 111.00 L 308.00 112.00 L 308.00 112.00 L 309.00 112.00 L 310.00 112.00 L 311.00 113.00 L 311.00 113.00 L 312.00 113.00 L 313.00 113.00 L 314.00 114.00 L 314.00 114.00 L 315.00 114.00 L 316.00 115.00 L 316.00 115.00 L 317.00 115.00 L 318.00 116.00 L 318.00 116.00 L 319.00 116.00 L 320.00 117.00 L 320.00 117.00 L 321.00 117.00 L 322.00 118.00 L 322.00 118.00 L 323.00 118.00 L 324.00 119.00 L 324.00 119.00 L 325.00 119.00 L 326.00 120.00 L 326.00 120.00 L 327.00 120.00 L 328.00 121.00 L 328.00 121.00 L 329.00 121.00 L 330.00 122.00 L 330.00 122.00 L 331.00 123.00 L 331.00 123.00 L 332.00 123.00 L 333.00 124.00 L 333.00 124.00 L 334.00 124.00 L 335.00 125.00 L 335.00 125.00 L 336.00 125.00 L 337.00 126.00 L 337.00 126.00 L 338.00 127.00 L 338.00 127.00 L 339.00 127.00 L 340.00 128.00 L 340.00 128.00 L 341.00 129.00 L 341.00 129.00 L 342.00 130.00 L 342.00 130.00 L 343.00 130.00 L 344.00 131.00 L 344.00 131.00 L 345.00 132.00 L 345.00 132.00 L 346.00 132.00 L 347.00 133.00 L 347.00 133.00 L 348.00 134.00 L 348.00 134.00 L 349.00 135.00 L 349.00 135.00 L 350.00 135.00 L 351.00 136.00 L 351.00 136.00 L 352.00 137.00 L 352.00 137.00 L 353.00 138.00 L 353.00 138.00 L 354.00 139.00 L 354.00 139.00 L 355.00 139.00 L 356.00 140.00 L 356.00 140.00 L 357.00 141.00 L 357.00 141.00 L 358.00 142.00 L 358.00 142.00 L 359.00 143.00 L 359.00 143.00 L 360.00 144.00 L 360.00 144.00 L 361.00 145.00 L 361.00 145.00 L 362.00 146.00 L 362.00 146.00 L 363.00 147.00 L 363.00 147.00 L 364.00 148.00 L 364.00 148.00 L 365.00 149.00 L 365.00 149.00 L 366.00 150.00 L 366.00 150.00 L 367.00 151.00 L 367.00 151.00 L 368.00 152.00 L 368.00 152.00 L 369.00 153.00 L 369.00 153.00 L 370.00 154.00 L 370.00 154.00 L 371.00 155.00 L 371.00 156.00 L 371.00 156.00 L 372.00 157.00 L 372.00 157.00 L 373.00 158.00 L 373.00 158.00 L 374.00 159.00 L 374.00 159.00 L 375.00 160.00 L 375.00 160.00 L 376.00 161.00 L 376.00 162.00 L 376.00 162.00 L 377.00 163.00 L 377.00 163.00 L 378.00 164.00 L 378.00 164.00 L 379.00 165.00 L 379.00 165.00 L 380.00 166.00 L 380.00 167.00 L 380.00 167.00 L 381.00 168.00 L 381.00 168.00 L 382.00 169.00 L 382.00 170.00 L 382.00 170.00 L 383.00 171.00 L 383.00 171.00 L 384.00 172.00 L 384.00 173.00 L 384.00 173.00 L 385.00 174.00 L 385.00 174.00 L 386.00 175.00 L 386.00 176.00 L 386.00 176.00 L 387.00 177.00 L 387.00 177.00 L 388.00 178.00 L 388.00 179.00 L 388.00 179.00 L 389.00 180.00 L 389.00 181.00 L 389.00 181.00 L 390.00 182.00 L 390.00 183.00 L 390.00 183.00 L 391.00 184.00 L 391.00 185.00 L 391.00 185.00 L 392.00 186.00 L 392.00 186.00 L 393.00 187.00 L 393.00 188.00 L 393.00 188.00 L 394.00 189.00 L 394.00 190.00 L 394.00 190.00 L 395.00 191.00 L 395.00 192.00 L 395.00 193.00 L 395.00 193.00 L 396.00 194.00 L 396.00 195.00 L 396.00 195.00 L 397.00 196.00 L 397.00 197.00 L 397.00 197.00 L 398.00 198.00 L 398.00 199.00 L 398.00 199.00 L 399.00 200.00 L 399.00 201.00 L 399.00 202.00 L 399.00 202.00 L 400.00 203.00 L 400.00 204.00 L 400.00 205.00 L 400.00 205.00 L 401.00 206.00 L 401.00 207.00 L 401.00 208.00 L 401.00 208.00 L 402.00 209.00 L 402.00 210.00 L 402.00 210.00 L 403.00 211.00 L 403.00 211.00 L 404.00 211.00 L 405.00 211.00 L 406.00 211.00 L 407.00 211.00 L 408.00 212.00 L 408.00 212.00 L 409.00 212.00 L 410.00 212.00 L 411.00 212.00 L 412.00 212.00 L 413.00 213.00 L 413.00 213.00 L 414.00 213.00 L 415.00 213.00 L 416.00 213.00 L 417.00 214.00 L 417.00 214.00 L 418.00 214.00 L 419.00 214.00 L 420.00 215.00 L 420.00 215.00 L 421.00 215.00 L 422.00 215.00 L 423.00 216.00 L 423.00 216.00 L 424.00 216.00 L 425.00 216.00 L 426.00 217.00 L 426.00 217.00 L 427.00 217.00 L 428.00 218.00 L 428.00 218.00 L 429.00 218.00 L 430.00 219.00 L 430.00 219.00 L 431.00 219.00 L 432.00 220.00 L 432.00 220.00 L 433.00 220.00 L 434.00 220.00 L 435.00 221.00 L 435.00 221.00 L 436.00 221.00 L 437.00 222.00 L 437.00 222.00 L 438.00 223.00 L 438.00 223.00 L 439.00 223.00 L 440.00 224.00 L 440.00 224.00 L 441.00 224.00 L 442.00 225.00 L 442.00 225.00 L 443.00 226.00 L 443.00 226.00 L 444.00 226.00 L 445.00 227.00 L 445.00 227.00 L 446.00 228.00 L 446.00 228.00 L 447.00 228.00 L 448.00 229.00 L 448.00 229.00 L 449.00 230.00 L 449.00 230.00 L 450.00 230.00 L 451.00 231.00 L 451.00 231.00 L 452.00 232.00 L 452.00 232.00 L 453.00 233.00 L 453.00 233.00 L 454.00 234.00 L 454.00 234.00 L 455.00 234.00 L 456.00 235.00 L 456.00 235.00 L 457.00 236.00 L 457.00 236.00 L 458.00 237.00 L 458.00 237.00 L 459.00 238.00 L 459.00 238.00 L 460.00 239.00 L 460.00 239.00 L 461.00 240.00 L 461.00 240.00 L 462.00 241.00 L 462.00 241.00 L 463.00 242.00 L 463.00 242.00 L 464.00 243.00 L 464.00 243.00 L 465.00 244.00 L 465.00 244.00 L 466.00 245.00 L 466.00 246.00 L 466.00 246.00 L 467.00 247.00 L 467.00 247.00 L 468.00 248.00 L 468.00 248.00 L 469.00 249.00 L 469.00 249.00 L 470.00 250.00 L 470.00 251.00 L 470.00 251.00 L 471.00 252.00 L 471.00 252.00 L 472.00 253.00 L 472.00 253.00 L 473.00 254.00 L 473.00 255.00 L 473.00 255.00 L 474.00 256.00 L 474.00 256.00 L 475.00 257.00 L 475.00 258.00 L 475.00 258.00 L 476.00 259.00 L 476.00 259.00 L 477.00 260.00 L 477.00 261.00 L 477.00 261.00 L 478.00 262.00 L 478.00 263.00 L 478.00 263.00 L 479.00 264.00 L 479.00 265.00 L 479.00 265.00 L 480.00 266.00 L 480.00 267.00 L 480.00 267.00 L 481.00 268.00 L 481.00 269.00 L 481.00 269.00 L 482.00 270.00 L 482.00 271.00 L 482.00 271.00 L 483.00 272.00 L 483.00 273.00 L 483.00 273.00 L 484.00 274.00 L 484.00 275.00 L 484.00 276.00 L 484.00 276.00 L 485.00 277.00 L 485.00 278.00 L 485.00 279.00 L 485.00 279.00 L 486.00 280.00 L 486.00 281.00 L 486.00 282.00 L 486.00 282.00 L 487.00 283.00 L 487.00 284.00 L 487.00 285.00 L 487.00 285.00 L 488.00 286.00 L 488.00 287.00 L 488.00 288.00 L 488.00 289.00 L 488.00 289.00 L 489.00 290.00 L 489.00 291.00 L 489.00 292.00 L 489.00 293.00 L 489.00 294.00 L 489.00 294.00 L 490.00 295.00 L 490.00 296.00 L 490.00 297.00 L 490.00 298.00 L 490.00 299.00 L 490.00 300.00 L 490.00 301.00 L 490.00 301.00 L 491.00 302.00 L 491.00 303.00 L 491.00 304.00 L 491.00 305.00 L 491.00 306.00 L 491.00 307.00 L 491.00 308.00 L 491.00 309.00 L 491.00 310.00 L 491.00 311.00 L 491.00 312.00 L 491.00 313.00 L 491.00 314.00 L 491.00 315.00 L 491.00 316.00 L 491.00 317.00 L 491.00 318.00 L 491.00 319.00 L 491.00 320.00 L 491.00 321.00 L 491.00 322.00 L 490.00 323.00 L 490.00 323.00 L 490.00 324.00 L 490.00 325.00 L 490.00 326.00 L 490.00 327.00 L 490.00 328.00 L 490.00 329.00 L 489.00 330.00 L 489.00 330.00 L 489.00 331.00 L 489.00 332.00 L 489.00 333.00 L 489.00 334.00 L 488.00 335.00 L 488.00 335.00 L 488.00 336.00 L 488.00 337.00 L 487.00 338.00 L 487.00 338.00 L 487.00 339.00 L 487.00 340.00 L 487.00 341.00 L 486.00 342.00 L 486.00 342.00 L 486.00 343.00 L 485.00 344.00 L 485.00 344.00 L 485.00 345.00 L 485.00 346.00 L 484.00 347.00 L 484.00 347.00 L 484.00 348.00 L 484.00 349.00 L 483.00 350.00 L 483.00 350.00 L 483.00 351.00 L 482.00 352.00 L 482.00 352.00 L 482.00 353.00 L 481.00 354.00 L 481.00 354.00 L 481.00 355.00 L 480.00 356.00 L 480.00 356.00 L 480.00 357.00 L 479.00 358.00 L 479.00 358.00 L 478.00 359.00 L 478.00 359.00 L 478.00 360.00 L 477.00 361.00 L 477.00 361.00 L 477.00 362.00 L 476.00 363.00 L 476.00 363.00 L 475.00 364.00 L 475.00 364.00 L 475.00 365.00 L 474.00 366.00 L 474.00 366.00 L 473.00 367.00 L 473.00 367.00 L 473.00 368.00 L 472.00 369.00 L 472.00 369.00 L 471.00 370.00 L 471.00 370.00 L 470.00 371.00 L 470.00 371.00 L 469.00 372.00 L 469.00 372.00 L 469.00 373.00 L 468.00 374.00 L 468.00 374.00 L 467.00 375.00 L 467.00 375.00 L 466.00 376.00 L 466.00 376.00 L 465.00 377.00 L 465.00 377.00 L 464.00 378.00 L 464.00 378.00 L 463.00 379.00 L 463.00 379.00 L 462.00 380.00 L 462.00 380.00 L 461.00 381.00 L 461.00 381.00 L 460.00 382.00 L 460.00 382.00 L 459.00 383.00 L 458.00 383.00 L 458.00 383.00 L 457.00 384.00 L 457.00 384.00 L 456.00 385.00 L 456.00 385.00 L 455.00 386.00 L 455.00 386.00 L 454.00 387.00 L 454.00 387.00 L 453.00 388.00 L 452.00 388.00 L 452.00 388.00 L 451.00 389.00 L 451.00 389.00 L 450.00 390.00 L 449.00 390.00 L 449.00 390.00 L 448.00 391.00 L 448.00 391.00 L 447.00 392.00 L 446.00 392.00 L 446.00 392.00 L 445.00 393.00 L 445.00 393.00 L 444.00 394.00 L 443.00 394.00 L 443.00 394.00 L 442.00 395.00 L 441.00 395.00 L 441.00 395.00 L 440.00 396.00 L 439.00 396.00 L 439.00 396.00 L 438.00 397.00 L 437.00 397.00 L 437.00 397.00 L 436.00 398.00 L 436.00 398.00 L 435.00 399.00 L 434.00 399.00 L 433.00 399.00 L 433.00 399.00 L 432.00 400.00 L 431.00 400.00 L 431.00 400.00 L 430.00 401.00 L 429.00 401.00 L 429.00 401.00 L 428.00 402.00 L 427.00 402.00 L 426.00 402.00 L 426.00 402.00 L 425.00 403.00 L 424.00 403.00 L 423.00 403.00 L 423.00 403.00 L 422.00 404.00 L 421.00 404.00 L 421.00 404.00 L 420.00 405.00" stroke="white" fill="white"/>
	<path d="M 203.00 410.00 L 202.00 410.00 L 201.00 410.00 L 200.00 410.00 L 199.00 410.00 L 198.00 410.00 L 197.00 410.00 L 196.00 410.00 L 195.00 410.00 L 194.00 410.00 L 193.00 410.00 L 192.00 410.00 L 191.00 410.00 L 190.00 410.00 L 189.00 410.00 L 188.00 410.00 L 187.00 410.00 L 186.00 410.00 L 185.00 410.00 L 184.00 410.00 L 183.00 410.00 L 182.00 410.00 L 181.00 410.00 L 180.00 410.00 L 179.00 410.00 L 178.00 410.00 L 177.00 410.00 L 176.00 410.00 L 175.00 410.00 L 174.00 410.00 L 173.00 410.00 L 172.00 410.00 L 171.00 410.00 L 170.00 410.00 L 169.00 410.00 L 168.00 410.00 L 167.00 410.00 L 166.00 410.00 L 165.00 410.00 L 164.00 410.00 L 163.00 410.00 L 162.00 410.00 L 161.00 410.00 L 160.00 410.00 L 159.00 410.00 L 158.00 410.00 L 157.00 410.00 L 156.00 410.00 L 155.00 410.00 L 154.00 410.00 L 153.00 410.00 L 152.00 410.00 L 151.00 410.00 L 150.00 410.00 L 149.00 410.00 L 148.00 410.00 L 147.00 410.00 L 146.00 410.00 L 145.00 409.00 L 145.00 409.00 L 144.00 409.00 L 143.00 409.00 L 142.00 408.00 L 142.00 408.00 L 141.00 408.00 L 140.00 407.00 L 140.00 407.00 L 139.00 407.00 L 138.00 406.00 L 138.00 406.00 L 137.00 405.00 L 137.00 405.00 L 136.00 405.00 L 135.00 404.00 L 135.00 404.00 L 134.00 403.00 L 134.00 403.00 L 133.00 402.00 L 133.00 402.00 L 132.00 401.00 L 132.00 400.00 L 132.00 400.00 L 131.00 399.00 L 131.00 399.00 L 130.00 398.00 L 130.00 397.00 L 130.00 397.00 L 129.00 396.00 L 129.00 395.00 L 129.00 395.00 L 128.00 394.00 L 128.00 393.00 L 128.00 392.00 L 128.00 392.00 L 127.00 391.00 L 127.00 390.00 L 127.00 389.00 L 127.00 388.00 L 127.00 387.00 L 127.00 386.00 L 127.00 385.00 L 127.00 384.00 L 127.00 383.00 L 127.00 382.00 L 127.00 381.00 L 127.00 380.00 L 127.00 379.00 L 127.00 378.00 L 127.00 377.00 L 127.00 376.00 L 127.00 375.00 L 127.00 374.00 L 127.00 373.00 L 127.00 372.00 L 127.00 371.00 L 127.00 370.00 L 127.00 369.00 L 127.00 368.00 L 127.00 367.00 L 127.00 366.00 L 127.00 365.00 L 127.00 364.00 L 127.00 363.00 L 127.00 362.00 L 127.00 361.00 L 127.00 360.00 L 127.00 359.00 L 127.00 358.00 L 127.00 357.00 L 127.00 356.00 L 127.00 355.00 L 127.00 354.00 L 127.00 353.00 L 127.00 352.00 L 127.00 351.00 L 127.00 350.00 L 127.00 349.00 L 127.00 348.00 L 127.00 347.00 L 127.00 346.00 L 127.00 345.00 L 127.00 344.00 L 127.00 343.00 L 127.00 342.00 L 127.00 341.00 L 127.00 340.00 L 127.00 339.00 L 127.00 338.00 L 127.00 337.00 L 127.00 336.00 L 127.00 335.00 L 127.00 334.00 L 127.00 333.00 L 127.00 332.00 L 127.00 331.00 L 127.00 330.00 L 127.00 329.00 L 127.00 328.00 L 127.00 327.00 L 127.00 326.00 L 127.00 325.00 L 127.00 324.00 L 127.00 323.00 L 127.00 322.00 L 127.00 321.00 L 127.00 320.00 L 127.00 319.00 L 127.00 318.00 L 127.00 317.00 L 127.00 316.00 L 127.00 315.00 L 127.00 314.00 L 127.00 313.00 L 127.00 312.00 L 127.00 311.00 L 127.00 310.00 L 127.00 309.00 L 127.00 308.00 L 127.00 307.00 L 127.00 306.00 L 127.00 305.00 L 127.00 304.00 L 127.00 303.00 L 127.00 302.00 L 127.00 301.00 L 127.00 300.00 L 127.00 299.00 L 127.00 298.00 L 127.00 297.00 L 127.00 296.00 L 127.00 295.00 L 127.00 294.00 L 127.00 293.00 L 127.00 292.00 L 127.00 291.00 L 127.00 290.00 L 127.00 289.00 L 127.00 288.00 L 127.00 287.00 L 127.00 287.00 L 126.00 287.00 L 125.00 287.00 L 124.00 287.00 L 123.00 287.00 L 122.00 287.00 L 121.00 287.00 L 120.00 287.00 L 119.00 287.00 L 118.00 287.00 L 117.00 287.00 L 116.00 287.00 L 115.00 286.00 L 115.00 286.00 L 114.00 286.00 L 113.00 285.00 L 113.00 284.00 L 114.00 283.00 L 114.00 283.00 L 115.00 282.00 L 115.00 282.00 L 116.00 281.00 L 116.00 281.00 L 117.00 280.00 L 117.00 280.00 L 118.00 279.00 L 118.00 279.00 L 119.00 278.00 L 119.00 278.00 L 120.00 277.00 L 120.00 277.00 L 121.00 276.00 L 121.00 276.00 L 122.00 275.00 L 122.00 275.00 L 123.00 274.00 L 123.00 274.00 L 124.00 273.00 L 124.00 273.00 L 125.00 272.00 L 125.00 272.00 L 126.00 271.00 L 126.00 271.00 L 127.00 270.00 L 127.00 270.00 L 128.00 269.00 L 128.00 269.00 L 129.00 268.00 L 129.00 268.00 L 130.00 267.00 L 130.00 267.00 L 131.00 266.00 L 131.00 266.00 L 132.00 265.00 L 132.00 265.00 L 133.00 264.00 L 133.00 264.00 L 134.00 263.00 L 134.00 263.00 L 135.00 262.00 L 135.00 262.00 L 136.00 261.00 L 136.00 261.00 L 137.00 260.00 L 137.00 260.00 L 138.00 259.00 L 138.00 259.00 L 139.00 258.00 L 139.00 258.00 L 140.00 257.00 L 140.00 257.00 L 141.00 256.00 L 141.00 256.00 L 142.00 255.00 L 142.00 255.00 L 143.00 254.00 L 143.00 254.00 L 144.00 253.00 L 144.00 253.00 L 145.00 252.00 L 145.00 252.00 L 146.00 251.00 L 146.00 251.00 L 147.00 250.00 L 147.00 250.00 L 148.00 249.00 L 148.00 249.00 L 149.00 248.00 L 149.00 248.00 L 150.00 247.00 L 150.00 247.00 L 151.00 246.00 L 151.00 246.00 L 152.00 245.00 L 152.00 245.00 L 153.00 244.00 L 153.00 244.00 L 154.00 243.00 L 154.00 243.00 L 155.00 242.00 L 155.00 242.00 L 156.00 241.00 L 156.00 241.00 L 157.00 240.00 L 157.00 240.00 L 158.00 239.00 L 159.00 239.00 L 160.00 240.00 L 160.00 240.00 L 161.00 241.00 L 161.00 241.00 L 162.00 242.00 L 162.00 242.00 L 163.00 243.00 L 163.00 243.00 L 164.00 244.00 L 164.00 244.00 L 165.00 245.00 L 165.00 245.00 L 166.00 246.00 L 166.00 246.00 L 167.00 247.00 L 167.00 247.00 L 168.00 248.00 L 168.00 248.00 L 169.00 249.00 L 169.00 249.00 L 170.00 250.00 L 170.00 250.00 L 171.00 251.00 L 171.00 251.00 L 172.00 252.00 L 172.00 252.00 L 173.00 253.00 L 173.00 253.00 L 174.00 254.00 L 174.00 254.00 L 175.00 255.00 L 175.00 255.00 L 176.00 256.00 L 176.00 256.00 L 177.00 257.00 L 177.00 257.00 L 178.00 258.00 L 178.00 258.00 L 179.00 259.00 L 179.00 259.00 L 180.00 260.00 L 180.00 260.00 L 181.00 261.00 L 181.00 261.00 L 182.00 262.00 L 182.00 262.00 L 183.00 263.00 L 183.00 263.00 L 184.00 264.00 L 184.00 264.00 L 185.00 265.00 L 185.00 265.00 L 186.00 266.00 L 186.00 266.00 L 187.00 267.00 L 187.00 267.00 L 188.00 268.00 L 188.00 268.00 L 189.00 269.00 L 189.00 269.00 L 190.00 270.00 L 190.00 270.00 L 191.00 271.00 L 191.00 271.00 L 192.00 272.00 L 192.00 272.00 L 193.00 273.00 L 193.00 273.00 L 194.00 274.00 L 194.00 274.00 L 195.00 275.00 L 195.00 275.00 L 196.00 276.00 L 196.00 276.00 L 197.00 277.00 L 197.00 277.00 L 198.00 278.00 L 198.00 278.00 L 199.00 279.00 L 199.00 279.00 L 200.00 280.00 L 200.00 280.00 L 201.00 281.00 L 201.00 281.00 L 202.00 282.00 L 202.00 282.00 L 203.00 283.00 L 203.00 283.00 L 204.00 284.00 L 204.00 285.00 L 203.00 286.00 L 203.00 286.00 L 202.00 287.00 L 201.00 287.00 L 200.00 287.00 L 199.00 287.00 L 198.00 287.00 L 197.00 287.00 L 196.00 287.00 L 195.00 287.00 L 194.00 287.00 L 193.00 287.00 L 192.00 287.00 L 191.00 287.00 L 190.00 287.00 L 190.00 287.00 L 190.00 288.00 L 190.00 289.00 L 190.00 290.00 L 190.00 291.00 L 190.00 292.00 L 190.00 293.00 L 190.00 294.00 L 190.00 295.00 L 190.00 296.00 L 190.00 297.00 L 190.00 298.00 L 190.00 299.00 L 190.00 300.00 L 190.00 301.00 L 190.00 302.00 L 190.00 303.00 L 190.00 304.00 L 190.00 305.00 L 190.00 306.00 L 190.00 307.00 L 190.00 308.00 L 190.00 309.00 L 190.00 310.00 L 190.00 311.00 L 190.00 312.00 L 190.00 313.00 L 190.00 314.00 L 190.00 315.00 L 190.00 316.00 L 190.00 317.00 L 190.00 318.00 L 190.00 319.00 L 190.00 320.00 L 190.00 321.00 L 190.00 322.00 L 190.00 323.00 L 190.00 324.00 L 190.00 325.00 L 190.00 326.00 L 190.00 327.00 L 190.00 328.00 L 190.00 329.00 L 190.00 330.00 L 190.00 331.00 L 190.00 332.00 L 190.00 333.00 L 190.00 334.00 L 190.00 335.00 L 190.00 336.00 L 190.00 337.00 L 190.00 338.00 L 190.00 339.00 L 190.00 340.00 L 190.00 341.00 L 190.00 342.00 L 190.00 343.00 L 190.00 344.00 L 190.00 345.00 L 190.00 346.00 L 190.00 347.00 L 190.00 348.00 L 190.00 349.00 L 190.00 350.00 L 190.00 351.00 L 190.00 352.00 L 190.00 353.00 L 190.00 354.00 L 190.00 355.00 L 190.00 356.00 L 190.00 357.00 L 190.00 358.00 L 190.00 359.00 L 190.00 360.00 L 190.00 361.00 L 190.00 362.00 L 190.00 363.00 L 190.00 364.00 L 190.00 365.00 L 190.00 366.00 L 190.00 367.00 L 190.00 368.00 L 190.00 369.00 L 190.00 370.00 L 190.00 371.00 L 190.00 372.00 L 190.00 373.00 L 190.00 374.00 L 190.00 375.00 L 190.00 376.00 L 190.00 377.00 L 190.00 378.00 L 190.00 379.00 L 190.00 380.00 L 190.00 381.00 L 190.00 382.00 L 190.00 383.00 L 190.00 384.00 L 190.00 385.00 L 190.00 385.00 L 191.00 386.00 L 191.00 387.00 L 191.00 388.00 L 191.00 389.00 L 191.00 390.00 L 191.00 391.00 L 191.00 391.00 L 192.00 392.00 L 192.00 393.00 L 192.00 393.00 L 193.00 394.00 L 193.00 395.00 L 193.00 395.00 L 194.00 396.00 L 194.00 397.00 L 194.00 397.00 L 195.00 398.00 L 195.00 398.00 L 196.00 399.00 L 196.00 399.00 L 197.00 400.00 L 197.00 400.00 L 198.00 401.00 L 198.00 401.00 L 199.00 402.00 L 199.00 402.00 L 200.00 403.00 L 200.00 403.00 L 201.00 404.00 L 201.00 404.00 L 202.00 405.00 L 202.00 405.00 L 203.00 406.00 L 203.00 406.00 L 204.00 407.00 L 204.00 408.00 L 204.00 409.00 L 203.00 410.00" stroke="white" fill="white"/>
	<path d="M 298.00 410.00 L 297.00 410.00 L 296.00 410.00 L 295.00 410.00 L 294.00 410.00 L 293.00 410.00 L 292.00 410.00 L 291.00 410.00 L 290.00 410.00 L 289.00 410.00 L 288.00 410.00 L 287.00 410.00 L 286.00 410.00 L 285.00 410.00 L 284.00 410.00 L 283.00 410.00 L 282.00 410.00 L 281.00 410.00 L 280.00 410.00 L 279.00 410.00 L 278.00 410.00 L 277.00 410.00 L 276.00 410.00 L 275.00 410.00 L 274.00 410.00 L 273.00 410.00 L 272.00 410.00 L 271.00 410.00 L 270.00 410.00 L 269.00 410.00 L 268.00 410.00 L 267.00 410.00 L 266.00 410.00 L 265.00 410.00 L 264.00 410.00 L 263.00 410.00 L 262.00 410.00 L 261.00 410.00 L 260.00 410.00 L 259.00 410.00 L 258.00 410.00 L 257.00 410.00 L 256.00 410.00 L 255.00 410.00 L 254.00 410.00 L 253.00 410.00 L 252.00 410.00 L 251.00 410.00 L 250.00 410.00 L 249.00 410.00 L 248.00 410.00 L 247.00 410.00 L 246.00 410.00 L 245.00 410.00 L 244.00 410.00 L 243.00 410.00 L 242.00 410.00 L 241.00 409.00 L 241.00 409.00 L 240.00 409.00 L 239.00 409.00 L 238.00 409.00 L 237.00 408.00 L 237.00 408.00 L 236.00 408.00 L 235.00 407.00 L 235.00 407.00 L 234.00 407.00 L 233.00 406.00 L 233.00 406.00 L 232.00 405.00 L 232.00 405.00 L 231.00 404.00 L 231.00 404.00 L 230.00 403.00 L 230.00 403.00 L 229.00 402.00 L 229.00 402.00 L 228.00 401.00 L 228.00 401.00 L 227.00 400.00 L 227.00 400.00 L 226.00 399.00 L 226.00 398.00 L 226.00 398.00 L 225.00 397.00 L 225.00 396.00 L 225.00 396.00 L 224.00 395.00 L 224.00 394.00 L 224.00 394.00 L 223.00 393.00 L 223.00 392.00 L 223.00 391.00 L 223.00 390.00 L 223.00 389.00 L 223.00 389.00 L 222.00 388.00 L 222.00 387.00 L 222.00 386.00 L 222.00 385.00 L 222.00 384.00 L 222.00 383.00 L 222.00 382.00 L 222.00 381.00 L 222.00 380.00 L 222.00 379.00 L 222.00 378.00 L 222.00 377.00 L 222.00 376.00 L 222.00 375.00 L 222.00 374.00 L 222.00 373.00 L 222.00 372.00 L 222.00 371.00 L 222.00 370.00 L 222.00 369.00 L 222.00 368.00 L 222.00 367.00 L 222.00 366.00 L 222.00 365.00 L 222.00 364.00 L 222.00 363.00 L 222.00 362.00 L 222.00 361.00 L 222.00 360.00 L 222.00 359.00 L 222.00 358.00 L 222.00 357.00 L 222.00 356.00 L 222.00 355.00 L 222.00 354.00 L 222.00 353.00 L 222.00 352.00 L 222.00 351.00 L 222.00 350.00 L 222.00 349.00 L 222.00 348.00 L 222.00 347.00 L 222.00 346.00 L 222.00 345.00 L 222.00 344.00 L 222.00 343.00 L 222.00 342.00 L 222.00 341.00 L 222.00 340.00 L 222.00 339.00 L 222.00 338.00 L 222.00 337.00 L 222.00 336.00 L 222.00 335.00 L 222.00 334.00 L 222.00 333.00 L 222.00 332.00 L 222.00 331.00 L 222.00 330.00 L 222.00 329.00 L 222.00 328.00 L 222.00 327.00 L 222.00 326.00 L 222.00 325.00 L 222.00 324.00 L 222.00 323.00 L 222.00 322.00 L 222.00 321.00 L 222.00 320.00 L 222.00 319.00 L 222.00 318.00 L 222.00 317.00 L 222.00 316.00 L 222.00 315.00 L 222.00 314.00 L 222.00 313.00 L 222.00 312.00 L 222.00 312.00 L 221.00 311.00 L 221.00 311.00 L 220.00 311.00 L 219.00 311.00 L 218.00 311.00 L 217.00 311.00 L 216.00 311.00 L 215.00 311.00 L 214.00 311.00 L 213.00 311.00 L 212.00 311.00 L 211.00 311.00 L 210.00 311.00 L 209.00 310.00 L 209.00 309.00 L 210.00 308.00 L 210.00 308.00 L 211.00 307.00 L 211.00 307.00 L 212.00 306.00 L 212.00 306.00 L 213.00 305.00 L 213.00 305.00 L 214.00 304.00 L 214.00 304.00 L 215.00 303.00 L 215.00 303.00 L 216.00 302.00 L 216.00 302.00 L 217.00 301.00 L 217.00 301.00 L 218.00 300.00 L 218.00 300.00 L 219.00 299.00 L 219.00 299.00 L 220.00 298.00 L 220.00 298.00 L 221.00 297.00 L 221.00 297.00 L 222.00 296.00 L 222.00 296.00 L 223.00 295.00 L 223.00 295.00 L 224.00 294.00 L 224.00 294.00 L 225.00 293.00 L 225.00 293.00 L 226.00 292.00 L 226.00 292.00 L 227.00 291.00 L 227.00 291.00 L 228.00 290.00 L 228.00 290.00 L 229.00 289.00 L 229.00 289.00 L 230.00 288.00 L 230.00 288.00 L 231.00 287.00 L 231.00 287.00 L 232.00 286.00 L 232.00 286.00 L 233.00 285.00 L 233.00 285.00 L 234.00 284.00 L 234.00 284.00 L 235.00 283.00 L 235.00 283.00 L 236.00 282.00 L 236.00 282.00 L 237.00 281.00 L 237.00 281.00 L 238.00 280.00 L 238.00 280.00 L 239.00 279.00 L 239.00 279.00 L 240.00 278.00 L 240.00 278.00 L 241.00 277.00 L 241.00 277.00 L 242.00 276.00 L 242.00 276.00 L 243.00 275.00 L 243.00 275.00 L 244.00 274.00 L 244.00 274.00 L 245.00 273.00 L 245.00 273.00 L 246.00 272.00 L 246.00 272.00 L 247.00 271.00 L 247.00 271.00 L 248.00 270.00 L 248.00 270.00 L 249.00 269.00 L 249.00 269.00 L 250.00 268.00 L 250.00 268.00 L 251.00 267.00 L 251.00 267.00 L 252.00 266.00 L 252.00 266.00 L 253.00 265.00 L 253.00 265.00 L 254.00 264.00 L 255.00 264.00 L 256.00 265.00 L 256.00 265.00 L 257.00 266.00 L 257.00 266.00 L 258.00 267.00 L 258.00 267.00 L 259.00 268.00 L 259.00 268.00 L 260.00 269.00 L 260.00 269.00 L 261.00 270.00 L 261.00 270.00 L 262.00 271.00 L 262.00 271.00 L 263.00 272.00 L 263.00 272.00 L 264.00 273.00 L 264.00 273.00 L 265.00 274.00 L 265.00 274.00 L 266.00 275.00 L 266.00 275.00 L 267.00 276.00 L 267.00 276.00 L 268.00 277.00 L 268.00 277.00 L 269.00 278.00 L 269.00 278.00 L 270.00 279.00 L 270.00 279.00 L 271.00 280.00 L 271.00 280.00 L 272.00 281.00 L 272.00 281.00 L 273.00 282.00 L 273.00 282.00 L 274.00 283.00 L 274.00 283.00 L 275.00 284.00 L 275.00 284.00 L 276.00 285.00 L 276.00 285.00 L 277.00 286.00 L 277.00 286.00 L 278.00 287.00 L 278.00 287.00 L 279.00 288.00 L 279.00 288.00 L 280.00 289.00 L 280.00 289.00 L 281.00 290.00 L 281.00 290.00 L 282.00 291.00 L 282.00 291.00 L 283.00 292.00 L 283.00 292.00 L 284.00 293.00 L 284.00 293.00 L 285.00 294.00 L 285.00 294.00 L 286.00 295.00 L 286.00 295.00 L 287.00 296.00 L 287.00 296.00 L 288.00 297.00 L 288.00 297.00 L 289.00 298.00 L 289.00 298.00 L 290.00 299.00 L 290.00 299.00 L 291.00 300.00 L 291.00 300.00 L 292.00 301.00 L 292.00 301.00 L 293.00 302.00 L 293.00 302.00 L 294.00 303.00 L 294.00 303.00 L 295.00 304.00 L 295.00 304.00 L 296.00 305.00 L 296.00 305.00 L 297.00 306.00 L 297.00 306.00 L 298.00 307.00 L 298.00 307.00 L 299.00 308.00 L 299.00 309.00 L 299.00 310.00 L 298.00 311.00 L 297.00 311.00 L 296.00 311.00 L 295.00 311.00 L 294.00 311.00 L 293.00 311.00 L 292.00 311.00 L 291.00 311.00 L 290.00 311.00 L 289.00 311.00 L 288.00 311.00 L 287.00 311.00 L 287.00 311.00 L 286.00 312.00 L 286.00 312.00 L 286.00 313.00 L 286.00 314.00 L 286.00 315.00 L 286.00 316.00 L 286.00 317.00 L 286.00 318.00 L 286.00 319.00 L 286.00 320.00 L 286.00 321.00 L 286.00 322.00 L 286.00 323.00 L 286.00 324.00 L 286.00 325.00 L 286.00 326.00 L 286.00 327.00 L 286.00 328.00 L 286.00 329.00 L 286.00 330.00 L 286.00 331.00 L 286.00 332.00 L 286.00 333.00 L 286.00 334.00 L 286.00 335.00 L 286.00 336.00 L 286.00 337.00 L 286.00 338.00 L 286.00 339.00 L 286.00 340.00 L 286.00 341.00 L 286.00 342.00 L 286.00 343.00 L 286.00 344.00 L 286.00 345.00 L 286.00 346.00 L 286.00 347.00 L 286.00 348.00 L 286.00 349.00 L 286.00 350.00 L 286.00 351.00 L 286.00 352.00 L 286.00 353.00 L 286.00 354.00 L 286.00 355.00 L 286.00 356.00 L 286.00 357.00 L 286.00 358.00 L 286.00 359.00 L 286.00 360.00 L 286.00 361.00 L 286.00 362.00 L 286.00 363.00 L 286.00 364.00 L 286.00 365.00 L 286.00 366.00 L 286.00 367.00 L 286.00 368.00 L 286.00 369.00 L 286.00 370.00 L 286.00 371.00 L 286.00 372.00 L 286.00 373.00 L 286.00 374.00 L 286.00 375.00 L 286.00 376.00 L 286.00 377.00 L 286.00 378.00 L 286.00 379.00 L 286.00 380.00 L 286.00 381.00 L 286.00 382.00 L 286.00 383.00 L 286.00 384.00 L 286.00 385.00 L 286.00 386.00 L 286.00 387.00 L 286.00 388.00 L 286.00 389.00 L 286.00 389.00 L 287.00 390.00 L 287.00 391.00 L 287.00 392.00 L 287.00 392.00 L 288.00 393.00 L 288.00 394.00 L 288.00 394.00 L 289.00 395.00 L 289.00 396.00 L 289.00 396.00 L 290.00 397.00 L 290.00 397.00 L 291.00 398.00 L 291.00 399.00 L 291.00 399.00 L 292.00 400.00 L 292.00 400.00 L 293.00 401.00 L 293.00 401.00 L 294.00 402.00 L 294.00 402.00 L 295.00 403.00 L 295.00 403.00 L 296.00 404.00 L 296.00 404.00 L 297.00 405.00 L 297.00 405.00 L 298.00 406.00 L 298.00 406.00 L 299.00 407.00 L 299.00 408.00 L 299.00 409.00 L 298.00 410.00" stroke="white" fill="white"/>
	<path d="M 394.00 410.00 L 393.00 410.00 L 392.00 410.00 L 391.00 410.00 L 390.00 410.00 L 389.00 410.00 L 388.00 410.00 L 387.00 410.00 L 386.00 410.00 L 385.00 410.00 L 384.00 410.00 L 383.00 410.00 L 382.00 410.00 L 381.00 410.00 L 380.00 410.00 L 379.00 410.00 L 378.00 410.00 L 377.00 410.00 L 376.00 410.00 L 375.00 410.00 L 374.00 410.00 L 373.00 410.00 L 372.00 410.00 L 371.00 410.00 L 370.00 410.00 L 369.00 410.00 L 368.00 410.00 L 367.00 410.00 L 366.00 410.00 L 365.00 410.00 L 364.00 410.00 L 363.00 410.00 L 362.00 410.00 L 361.00 410.00 L 360.00 410.00 L 359.00 410.00 L 358.00 410.00 L 357.00 410.00 L 356.00 410.00 L 355.00 410.00 L 354.00 410.00 L 353.00 410.00 L 352.00 410.00 L 351.00 410.00 L 350.00 410.00 L 349.00 410.00 L 348.00 410.00 L 347.00 410.00 L 346.00 410.00 L 345.00 410.00 L 344.00 410.00 L 343.00 410.00 L 342.00 410.00 L 341.00 410.00 L 340.00 410.00 L 339.00 410.00 L 338.00 410.00 L 337.00 410.00 L 336.00 409.00 L 336.00 409.00 L 335.00 409.00 L 334.00 409.00 L 333.00 408.00 L 333.00 408.00 L 332.00 408.00 L 331.00 407.00 L 331.00 407.00 L 330.00 407.00 L 329.00 406.00 L 329.00 406.00 L 328.00 405.00 L 328.00 405.00 L 327.00 405.00 L 326.00 404.00 L 326.00 404.00 L 325.00 403.00 L 325.00 403.00 L 324.00 402.00 L 324.00 401.00 L 324.00 401.00 L 323.00 400.00 L 323.00 400.00 L 322.00 399.00 L 322.00 399.00 L 321.00 398.00 L 321.00 397.00 L 321.00 397.00 L 320.00 396.00 L 320.00 395.00 L 320.00 395.00 L 319.00 394.00 L 319.00 393.00 L 319.00 392.00 L 319.00 391.00 L 319.00 391.00 L 318.00 390.00 L 318.00 389.00 L 318.00 388.00 L 318.00 387.00 L 318.00 386.00 L 318.00 385.00 L 318.00 384.00 L 318.00 383.00 L 318.00 382.00 L 318.00 381.00 L 318.00 380.00 L 318.00 379.00 L 318.00 378.00 L 318.00 377.00 L 318.00 376.00 L 318.00 375.00 L 318.00 374.00 L 318.00 373.00 L 318.00 372.00 L 318.00 371.00 L 318.00 370.00 L 318.00 369.00 L 318.00 368.00 L 318.00 367.00 L 318.00 366.00 L 318.00 365.00 L 318.00 364.00 L 318.00 363.00 L 318.00 362.00 L 318.00 361.00 L 318.00 360.00 L 318.00 359.00 L 318.00 358.00 L 318.00 357.00 L 318.00 356.00 L 318.00 355.00 L 318.00 354.00 L 318.00 353.00 L 318.00 352.00 L 318.00 351.00 L 318.00 350.00 L 318.00 349.00 L 318.00 348.00 L 318.00 347.00 L 318.00 346.00 L 318.00 345.00 L 318.00 344.00 L 318.00 343.00 L 318.00 342.00 L 318.00 341.00 L 318.00 340.00 L 318.00 339.00 L 318.00 338.00 L 318.00 337.00 L 318.00 337.00 L 317.00 336.00 L 317.00 336.00 L 316.00 336.00 L 315.00 336.00 L 314.00 336.00 L 313.00 336.00 L 312.00 336.00 L 311.00 336.00 L 310.00 336.00 L 309.00 336.00 L 308.00 336.00 L 307.00 336.00 L 306.00 336.00 L 305.00 335.00 L 305.00 335.00 L 304.00 334.00 L 305.00 333.00 L 305.00 333.00 L 306.00 332.00 L 306.00 332.00 L 307.00 331.00 L 307.00 331.00 L 308.00 330.00 L 308.00 330.00 L 309.00 329.00 L 309.00 329.00 L 310.00 328.00 L 310.00 328.00 L 311.00 327.00 L 311.00 327.00 L 312.00 326.00 L 312.00 326.00 L 313.00 325.00 L 313.00 325.00 L 314.00 324.00 L 314.00 324.00 L 315.00 323.00 L 315.00 323.00 L 316.00 322.00 L 316.00 322.00 L 317.00 321.00 L 317.00 321.00 L 318.00 320.00 L 318.00 320.00 L 319.00 319.00 L 319.00 319.00 L 320.00 318.00 L 320.00 318.00 L 321.00 317.00 L 321.00 317.00 L 322.00 316.00 L 322.00 316.00 L 323.00 315.00 L 323.00 315.00 L 324.00 314.00 L 324.00 314.00 L 325.00 313.00 L 325.00 313.00 L 326.00 312.00 L 326.00 312.00 L 327.00 311.00 L 327.00 311.00 L 328.00 310.00 L 328.00 310.00 L 329.00 309.00 L 329.00 309.00 L 330.00 308.00 L 330.00 308.00 L 331.00 307.00 L 331.00 307.00 L 332.00 306.00 L 332.00 306.00 L 333.00 305.00 L 333.00 305.00 L 334.00 304.00 L 334.00 304.00 L 335.00 303.00 L 335.00 303.00 L 336.00 302.00 L 336.00 302.00 L 337.00 301.00 L 337.00 301.00 L 338.00 300.00 L 338.00 300.00 L 339.00 299.00 L 339.00 299.00 L 340.00 298.00 L 340.00 298.00 L 341.00 297.00 L 341.00 297.00 L 342.00 296.00 L 342.00 296.00 L 343.00 295.00 L 343.00 295.00 L 344.00 294.00 L 344.00 294.00 L 345.00 293.00 L 345.00 293.00 L 346.00 292.00 L 346.00 292.00 L 347.00 291.00 L 347.00 291.00 L 348.00 290.00 L 348.00 290.00 L 349.00 289.00 L 350.00 289.00 L 351.00 290.00 L 351.00 290.00 L 352.00 291.00 L 352.00 291.00 L 353.00 292.00 L 353.00 292.00 L 354.00 293.00 L 354.00 293.00 L 355.00 294.00 L 355.00 294.00 L 356.00 295.00 L 356.00 295.00 L 357.00 296.00 L 357.00 296.00 L 358.00 297.00 L 358.00 297.00 L 359.00 298.00 L 359.00 298.00 L 360.00 299.00 L 360.00 299.00 L 361.00 300.00 L 361.00 300.00 L 362.00 301.00 L 362.00 301.00 L 363.00 302.00 L 363.00 302.00 L 364.00 303.00 L 364.00 303.00 L 365.00 304.00 L 365.00 304.00 L 366.00 305.00 L 366.00 305.00 L 367.00 306.00 L 367.00 306.00 L 368.00 307.00 L 368.00 307.00 L 369.00 308.00 L 369.00 308.00 L 370.00 309.00 L 370.00 309.00 L 371.00 310.00 L 371.00 310.00 L 372.00 311.00 L 372.00 311.00 L 373.00 312.00 L 373.00 312.00 L 374.00 313.00 L 374.00 313.00 L 375.00 314.00 L 375.00 314.00 L 376.00 315.00 L 376.00 315.00 L 377.00 316.00 L 377.00 316.00 L 378.00 317.00 L 378.00 317.00 L 379.00 318.00 L 379.00 318.00 L 380.00 319.00 L 380.00 319.00 L 381.00 320.00 L 381.00 320.00 L 382.00 321.00 L 382.00 321.00 L 383.00 322.00 L 383.00 322.00 L 384.00 323.00 L 384.00 323.00 L 385.00 324.00 L 385.00 324.00 L 386.00 325.00 L 386.00 325.00 L 387.00 326.00 L 387.00 326.00 L 388.00 327.00 L 388.00 327.00 L 389.00 328.00 L 389.00 328.00 L 390.00 329.00 L 390.00 329.00 L 391.00 330.00 L 391.00 330.00 L 392.00 331.00 L 392.00 331.00 L 393.00 332.00 L 393.00 332.00 L 394.00 333.00 L 394.00 333.00 L 395.00 334.00 L 395.00 335.00 L 394.00 336.00 L 393.00 336.00 L 392.00 336.00 L 391.00 336.00 L 390.00 336.00 L 389.00 336.00 L 388.00 336.00 L 387.00 336.00 L 386.00 336.00 L 385.00 336.00 L 384.00 336.00 L 383.00 336.00 L 382.00 336.00 L 382.00 336.00 L 381.00 337.00 L 381.00 337.00 L 381.00 338.00 L 381.00 339.00 L 381.00 340.00 L 381.00 341.00 L 381.00 342.00 L 381.00 343.00 L 381.00 344.00 L 381.00 345.00 L 381.00 346.00 L 381.00 347.00 L 381.00 348.00 L 381.00 349.00 L 381.00 350.00 L 381.00 351.00 L 381.00 352.00 L 381.00 353.00 L 381.00 354.00 L 381.00 355.00 L 381.00 356.00 L 381.00 357.00 L 381.00 358.00 L 381.00 359.00 L 381.00 360.00 L 381.00 361.00 L 381.00 362.00 L 381.00 363.00 L 381.00 364.00 L 381.00 365.00 L 381.00 366.00 L 381.00 367.00 L 381.00 368.00 L 381.00 369.00 L 381.00 370.00 L 381.00 371.00 L 381.00 372.00 L 381.00 373.00 L 381.00 374.00 L 381.00 375.00 L 381.00 376.00 L 381.00 377.00 L 381.00 378.00 L 381.00 379.00 L 381.00 380.00 L 381.00 381.00 L 381.00 382.00 L 381.00 383.00 L 381.00 384.00 L 381.00 384.00 L 382.00 385.00 L 382.00 386.00 L 382.00 387.00 L 382.00 388.00 L 382.00 389.00 L 382.00 390.00 L 382.00 390.00 L 383.00 391.00 L 383.00 392.00 L 383.00 393.00 L 383.00 393.00 L 384.00 394.00 L 384.00 395.00 L 384.00 395.00 L 385.00 396.00 L 385.00 397.00 L 385.00 397.00 L 386.00 398.00 L 386.00 398.00 L 387.00 399.00 L 387.00 399.00 L 388.00 400.00 L 388.00 400.00 L 389.00 401.00 L 389.00 401.00 L 390.00 402.00 L 390.00 402.00 L 391.00 403.00 L 391.00 403.00 L 392.00 404.00 L 392.00 404.00 L 393.00 405.00 L 393.00 405.00 L 394.00 406.00 L 394.00 406.00 L 395.00 407.00 L 395.00 408.00 L 395.00 409.00 L 394.00 410.00" stroke="white" fill="white"/>
</svg>
