<svg xmlns="http://www.w3.org/2000/svg" width="60" height="60"><path fill="#00BF6F" fill-rule="evenodd" d="M53.05 42.178a2.08 2.08 0 0 1-1.394-.537c.125-1.085.209-2.181.223-3.297a2.1 2.1 0 0 1 1.17-.362 2.1 2.1 0 0 1 1.482 3.583 2.1 2.1 0 0 1-1.481.613m-46.1 0a2.093 2.093 0 0 1-2.09-2.094c0-1.16.94-2.104 2.09-2.104.433 0 .837.14 1.171.364.014 1.116.098 2.212.223 3.297a2.1 2.1 0 0 1-1.394.537m45.963-9.21a7 7 0 0 0-1.695.212c-2.083-8.268-8.85-14.665-17.302-16.178-.377-.07-.718-.118-1.102-.167.063-2.072.16-4.466 3.197-6.62L35.53 9s-5.916 1.845-6.602 6.926c-.296-1.383-3.054-3.112-4.42-3.44l-.68 1.099s1.812.91 2.252 3.417c-8.45 1.515-15.215 7.912-17.298 16.178a7 7 0 0 0-1.696-.211C3.18 32.969 0 36.152 0 40.084 0 44.008 3.18 47.2 7.086 47.2c.915 0 1.788-.184 2.59-.498A22 22 0 0 0 11.979 51l5.882-3.98-.05-.066c-1.556-2.007-2.508-4.962-2.667-7.904-.177-3.242.612-6.464 2.677-8.358 4.254-3.634 8.886-1.978 11.789 1.507h.78c2.903-3.485 7.535-5.141 11.79-1.507 2.064 1.894 2.853 5.116 2.677 8.36-.16 2.94-1.112 5.895-2.668 7.903l-.05.064L48.02 51a22 22 0 0 0 2.303-4.3 7.1 7.1 0 0 0 2.589.499c3.907 0 7.087-3.19 7.087-7.115 0-3.933-3.18-7.117-7.087-7.117"/></svg>