<?xml version="1.0" encoding="UTF-8"?>
<svg width="60px" height="60px" viewBox="0 0 60 60" version="1.1" xmlns="http://www.w3.org/2000/svg" xmlns:xlink="http://www.w3.org/1999/xlink">
    <title>todoist</title>
    <g id="todoist" stroke="none" stroke-width="1" fill="none" fill-rule="evenodd">
        <g id="Group" fill-rule="nonzero">
            <path d="M52.5005225,0 L7.49947746,0 C3.36515014,0.00930174873 0.0143988481,3.36025673 0,7.5 L0,52.5 C0,56.6253256 3.37443972,60 7.49947746,60 L52.5005225,60 C56.6255603,60 60,56.6248605 60,52.5 L60,7.5 C60,3.37467444 56.6255603,0 52.5005225,0" id="Path" fill="#E44332"></path>
            <path d="M12.1213197,29.581853 C13.1208792,28.9092942 34.5897187,14.5273535 35.080645,14.1941358 C35.5715712,13.8650005 35.5985744,12.8525902 35.045231,12.4867141 C34.4954289,12.1223689 33.4516019,11.4309295 33.0642615,11.16558 C32.5111744,10.814889 31.8390314,10.8243803 31.2935626,11.1905841 C31.0191042,11.3758184 12.6746631,23.6569058 12.0624439,24.0600328 C11.3253905,24.5458264 10.4201207,24.553991 9.68882199,24.0600328 L0,17.5069218 L0,23.0777295 C2.35591495,24.6779909 8.22179791,28.6526196 9.64234114,29.588997 C10.4900633,30.1441897 11.3023714,30.1319428 12.1230904,29.5823633" id="Path" fill="#FFFFFF"></path>
            <path d="M12.1213197,39.1282504 C13.1208792,38.4551562 34.5897187,24.0726804 35.080645,23.7394503 C35.5715712,23.4103026 35.5985744,22.398365 35.045231,22.031965 C34.4954289,21.6676062 33.4516019,20.9766514 33.0642615,20.711292 C32.5112518,20.3604309 31.8391094,20.3697289 31.2935626,20.7357867 C31.0191042,20.921028 12.6746631,33.2025724 12.0624439,33.6062247 C11.3253905,34.0920364 10.4201207,34.1002013 9.68882199,33.6062247 L0,27.0518492 L0,32.6228643 C2.35591495,34.2236955 8.22179791,38.1979618 9.64234114,39.1343741 C10.4900633,39.6895875 11.3023714,39.6773401 12.1230904,39.1282504" id="Path" fill="#FFFFFF"></path>
            <path d="M12.1213197,48.6735162 C13.1208792,48.0009392 34.5897187,33.6180983 35.080645,33.2848716 C35.5715712,32.9557273 35.5985744,31.9437999 35.045231,31.5774036 C34.4954289,31.2135588 33.4516019,30.5221006 33.0642615,30.256744 C32.5112518,29.9058864 31.8391094,29.9151843 31.2935626,30.2812384 C31.0191042,30.4664778 12.6746631,42.7484084 12.0624439,43.1515463 C11.3253905,43.6373531 10.4201207,43.645518 9.68882199,43.1515463 L0,36.597237 L0,42.1681958 C2.35591495,43.7690109 8.22179791,47.7437473 9.64234114,48.6796398 C10.4900633,49.2353579 11.3023714,49.2226004 12.1230904,48.6735162" id="Path" fill="#FFFFFF"></path>
        </g>
    </g>
</svg>