<svg xmlns="http://www.w3.org/2000/svg" width="60" height="60"><g fill="none"><path fill="#E44332" d="M52.5 0h-45A7.52 7.52 0 0 0 0 7.5v45C0 56.625 3.374 60 7.5 60h45c4.126 0 7.5-3.375 7.5-7.5v-45C60 3.375 56.626 0 52.5 0"/><path fill="#FFF" d="M12.121 29.582c1-.673 22.469-15.055 22.96-15.388.49-.329.518-1.341-.036-1.707-.55-.365-1.593-1.056-1.98-1.321a1.59 1.59 0 0 0-1.771.025A26391 26391 0 0 1 12.062 24.06c-.737.486-1.642.494-2.373 0L0 17.507v5.57c2.356 1.601 8.222 5.576 9.642 6.512.848.555 1.66.543 2.481-.007"/><path fill="#FFF" d="M12.121 39.128c1-.673 22.469-15.055 22.96-15.389.49-.329.518-1.34-.036-1.707a234 234 0 0 1-1.98-1.32 1.59 1.59 0 0 0-1.771.024c-.275.185-18.62 12.467-19.232 12.87-.737.486-1.642.494-2.373 0L0 27.052v5.57c2.356 1.602 8.222 5.576 9.642 6.512.848.556 1.66.543 2.481-.006"/><path fill="#FFF" d="M12.121 48.674c1-.673 22.469-15.056 22.96-15.39.49-.328.518-1.34-.036-1.707-.55-.363-1.593-1.055-1.98-1.32a1.59 1.59 0 0 0-1.771.024c-.275.185-18.62 12.467-19.232 12.87-.737.486-1.642.495-2.373 0L0 36.598v5.571c2.356 1.601 8.222 5.576 9.642 6.512.848.555 1.66.543 2.481-.006"/></g></svg>