<svg width="40" height="40" viewBox="0 0 40 40" fill="none" xmlns="http://www.w3.org/2000/svg">
<path d="M0.958386 6.83957C-0.319462 7.23275 -0.319462 8.91983 0.958386 9.31302L16.0899 13.961C17.1933 14.3 18.1361 14.1115 18.6276 13.961L29.2355 10.7012C29.8995 11.1586 30.8384 12.3401 31.386 12.9439C31.1934 13.4956 31.2556 14.1235 31.6548 14.609C32.0259 15.0603 32.5756 15.2449 33.1192 15.2068L36.0039 20.9019C36.2547 21.3974 36.9006 21.5338 37.3299 21.1808L39.683 19.2489C39.7834 19.1664 39.8641 19.0624 39.9189 18.9446C39.9738 18.8267 40.0015 18.698 39.9999 18.568C39.9984 18.4381 39.9677 18.3101 39.91 18.1936C39.8524 18.077 39.7693 17.975 39.6669 17.8949L34.6418 13.961C34.7842 13.4354 34.712 12.8597 34.3409 12.4083C33.9317 11.9108 33.3038 11.7263 32.71 11.8266C32.0761 11.1104 31.701 10.8396 31.1232 10.1235L33.7612 9.31302C35.039 8.91983 35.039 7.23275 33.7612 6.83957L18.6276 2.18957C17.8006 1.93681 16.9169 1.93681 16.0899 2.18957L0.958386 6.83957Z" fill="#FF6D5A"/>
<path d="M26.9346 13.8216C26.7144 13.7626 26.482 13.7668 26.264 13.8338L18.9095 16.0906C18.3781 16.253 17.8255 16.3356 17.2699 16.3358C16.7082 16.3358 16.1536 16.2535 15.6218 16.0904L8.32839 13.8549C8.16186 13.8039 7.9863 13.7894 7.81366 13.8124C7.64102 13.8354 7.47536 13.8953 7.32798 13.9881C7.15337 14.1099 6.98186 14.236 6.81363 14.3664C6.79076 14.3841 6.7697 14.4016 6.74683 14.4172L6.64853 14.4944C3.86294 16.7247 2.13574 19.8241 2.13574 23.2512C2.13574 26.1858 3.40476 28.8717 5.51472 30.9847C4.77389 33.9651 2.29723 36.6229 2.26734 36.6526C2.20325 36.72 2.16056 36.8049 2.14464 36.8966C2.12872 36.9883 2.14028 37.0826 2.17787 37.1677C2.21385 37.2527 2.27428 37.325 2.35146 37.3755C2.42865 37.4261 2.51912 37.4525 2.61137 37.4516C6.54161 37.4516 9.48688 35.5699 10.9457 34.41C12.8835 35.1372 15.0354 35.5577 17.312 35.5577C21.4844 35.5577 25.2636 34.1909 28.007 31.9817C30.7383 29.7566 32.427 26.6888 32.427 23.2985C32.427 19.4861 30.2907 16.08 26.9346 13.8216Z" fill="#F4F6FA"/>
</svg>
