<svg xmlns="http://www.w3.org/2000/svg" width="200" height="200" fill="none"><path fill="#FF6D5A" d="M5.13 36.125c-6.37 1.96-6.37 10.37 0 12.33l75.43 23.17c5.5 1.69 10.2.75 12.65 0l52.88-16.25c3.31 2.28 7.99 8.17 10.72 11.18-.96 2.75-.65 5.88 1.34 8.3 1.85 2.25 4.59 3.17 7.3 2.98l14.38 28.39c1.25 2.47 4.47 3.15 6.61 1.39l11.73-9.63a4.326 4.326 0 0 0-.08-6.75l-25.05-19.61c.71-2.62.35-5.49-1.5-7.74-2.04-2.48-5.17-3.4-8.13-2.9-3.16-3.57-5.03-4.92-7.91-8.49l13.15-4.04c6.37-1.96 6.37-10.37 0-12.33l-75.44-23.18a21.64 21.64 0 0 0-12.65 0z"/><path fill="#717172" d="M134.621 70.931a6.05 6.05 0 0 0-3.343.061l-36.662 11.25a28 28 0 0 1-8.173 1.222c-2.8 0-5.565-.41-8.216-1.223L41.87 71.097a6.04 6.04 0 0 0-4.987.664 63 63 0 0 0-2.564 1.886c-.114.088-.219.175-.333.253l-.49.385C19.61 85.403 11 100.853 11 117.937c0 14.629 6.326 28.018 16.844 38.551-3.693 14.857-16.039 28.106-16.188 28.254a2.35 2.35 0 0 0-.446 2.568 2.32 2.32 0 0 0 2.161 1.415c19.592 0 34.274-9.38 41.546-15.162 9.66 3.625 20.387 5.721 31.736 5.721 20.799 0 39.638-6.813 53.314-17.826C153.582 150.366 162 135.073 162 118.173c0-19.005-10.649-35.984-27.379-47.242"/></svg>