<svg width="256" height="193" xmlns="http://www.w3.org/2000/svg" preserveAspectRatio="xMidYMid"><path d="M58.182 192.05V93.14L27.507 65.077 0 49.504v125.091c0 9.658 7.825 17.455 17.455 17.455h40.727z" fill="#4285F4"/><path d="M197.818 192.05h40.727c9.659 0 17.455-7.826 17.455-17.455V49.505l-31.156 17.837-27.026 25.798v98.91z" fill="#34A853"/><path fill="#EA4335" d="M58.182 93.14l-4.174-38.647 4.174-36.989L128 69.868l69.818-52.364 4.67 34.992-4.67 40.644L128 145.504z"/><path d="M197.818 17.504V93.14L256 49.504V26.231c0-21.585-24.64-33.89-41.89-20.945l-16.292 12.218z" fill="#FBBC04"/><path d="M0 49.504l26.759 20.07L58.182 93.14V17.504L41.89 5.286C24.61-7.66 0 4.646 0 26.23v23.273z" fill="#C5221F"/></svg>