<svg xmlns="http://www.w3.org/2000/svg" xmlns:xlink="http://www.w3.org/1999/xlink" viewBox="0 0 55 66" fill="#fff" fill-rule="evenodd" stroke="#000" stroke-linecap="round" stroke-linejoin="round"><use xlink:href="#a" x=".5" y=".5"/><symbol id="a" overflow="visible"><path d="M53.333 2.667v32c0 2.388-.465 4.756-1.396 7.103s-2.084 4.43-3.458 6.25-3.015 3.59-4.917 5.312-3.66 3.153-5.272 4.292l-5.04 3.23-3.73 2.062-1.77.834c-.333.166-.695.25-1.083.25a2.4 2.4 0 01-1.083-.25l-1.77-.834-3.73-2.062-5.042-3.23c-1.61-1.14-3.368-2.57-5.27-4.292s-3.54-3.492-4.916-5.312-2.528-3.903-3.46-6.25S0 37.055 0 34.667v-32A2.56 2.56 0 01.791.792 2.56 2.56 0 012.666 0h48c.72 0 1.346.264 1.874.792a2.56 2.56 0 01.792 1.875m-8 32V8H26.666v47.375c3.305-1.75 6.264-3.653 8.875-5.708 6.527-5.11 9.79-10.11 9.79-15" stroke="none" fill="#3c8dbc" fill-rule="nonzero"/></symbol></svg>