<svg xmlns="http://www.w3.org/2000/svg" xmlns:xlink="http://www.w3.org/1999/xlink" viewBox="0 0 513 514" fill="#fff" fill-rule="evenodd" stroke="#000" stroke-linecap="round" stroke-linejoin="round"><use xlink:href="#a" x=".5" y=".5"/><symbol id="a" overflow="visible"><g stroke="none" fill-rule="nonzero"><path d="M0 76.8C0 34.253 34.253 0 76.8 0h358.4C477.747 0 512 34.253 512 76.8v358.4c0 42.547-34.253 76.8-76.8 76.8H76.8C34.253 512 0 477.747 0 435.2z" fill="#ff4500"/><path d="M79 305c0-68.142 78.942-123 177-123s177 54.858 177 123-78.942 123-177 123S79 373.142 79 305z"/><g fill="#ff4500"><path d="M199 347c35 29 79 29 114 0l12 11c-42 35-96 35-138 0z"/><use xlink:href="#b"/><use xlink:href="#b" x="-118"/></g></g><g stroke="#fff" fill="none"><use xlink:href="#b" x="75" y="-160" stroke-width="25"/><path d="M87 282c-45-22-5-92 40-50m298 50c45-22 5-92-40-50m-127-45l24-83 80 16" stroke-width="22"/></g></symbol><defs><path id="b" d="M287 285a27.94 27.94 0 1156 0 27.94 27.94 0 11-56 0z"/></defs></svg>