<?xml version="1.0" encoding="utf-8"?><!-- Uploaded to: SVG Repo, www.svgrepo.com, Generator: SVG Repo Mixer Tools -->
<svg width="800px" height="800px" viewBox="0 0 24 24" xmlns="http://www.w3.org/2000/svg">
  <path fill="#F00" fill-rule="evenodd" d="M7.957359,18.9123664 C4.11670252,18.9123664 1,15.803458 1,11.9617373 C1,8.12000773 4.11670252,5 7.957359,5 L16.0437948,5 C19.8855156,5 23,8.12000773 23,11.9617373 C23,15.803458 19.8855156,18.9123664 16.0437948,18.9123664 L7.957359,18.9123664 L7.957359,18.9123664 Z M15.8639176,16.4585488 C18.352201,16.4585488 20.3674397,14.448858 20.3674397,11.9617373 C20.3674397,9.47460595 18.352201,7.45381934 15.8639176,7.45381934 L8.1360824,7.45381934 C5.64895285,7.45381934 3.63255855,9.47460595 3.63255855,11.9617373 C3.63255855,14.448858 5.64895285,16.4585488 8.1360824,16.4585488 L15.8639176,16.4585488 L15.8639176,16.4585488 Z"/>
</svg>