<svg xmlns="http://www.w3.org/2000/svg" viewBox="0 0 80 80"><defs><linearGradient id="a" x1="0%" x2="100%" y1="100%" y2="0%"><stop offset="0%" stop-color="#8C4FFF"/><stop offset="100%" stop-color="#C77CFF"/></linearGradient></defs><g fill="none" fill-rule="evenodd"><path fill="url(#a)" d="M0 0h80v80H0z"/><path stroke="#FFF" stroke-width="2" d="M20 50 L25 45 L30 48 L35 40 L40 42 L45 35 L50 38 L55 30 L60 33"/><circle cx="20" cy="50" r="2" fill="#FFF"/><circle cx="25" cy="45" r="2" fill="#FFF"/><circle cx="30" cy="48" r="2" fill="#FFF"/><circle cx="35" cy="40" r="2" fill="#FFF"/><circle cx="40" cy="42" r="2" fill="#FFF"/><circle cx="45" cy="35" r="2" fill="#FFF"/><circle cx="50" cy="38" r="2" fill="#FFF"/><circle cx="55" cy="30" r="2" fill="#FFF"/><circle cx="60" cy="33" r="2" fill="#FFF"/><path stroke="#FFF" stroke-width="1" d="M15 25h50M15 55h50"/></g></svg>
