<?xml version="1.0" encoding="UTF-8"?>
<svg id="Layer_2" xmlns="http://www.w3.org/2000/svg" xmlns:xlink="http://www.w3.org/1999/xlink" viewBox="0 0 415.75 104.02">
  <defs>
    <style>
      .cls-1 {
        fill: none;
      }

      .cls-2 {
        fill: url(#linear-gradient);
      }

      .cls-3 {
        fill: #2396f1;
      }

      .cls-4 {
        fill: #0c0c0c;
      }

      .cls-5 {
        clip-path: url(#clippath);
      }
    </style>
    <clipPath id="clippath">
      <rect class="cls-1" x="367.48" width="48.27" height="48.27"/>
    </clipPath>
    <linearGradient id="linear-gradient" x1="320.39" y1="74.4" x2="414.85" y2="74.4" gradientTransform="translate(0 122.18) scale(1 -1)" gradientUnits="userSpaceOnUse">
      <stop offset="0" stop-color="#5b5a57"/>
      <stop offset=".26" stop-color="#4a4954"/>
      <stop offset=".35" stop-color="#434354"/>
      <stop offset=".52" stop-color="#3f3f50"/>
      <stop offset=".67" stop-color="#343447"/>
      <stop offset=".82" stop-color="#212136"/>
      <stop offset=".96" stop-color="#070720"/>
      <stop offset="1" stop-color="#00001a"/>
    </linearGradient>
  </defs>
  <g id="Layer_1-2" data-name="Layer_1">
    <g>
      <path class="cls-4" d="M25.04,87.6c-15.38,0-25.04-9.86-25.04-26.32v-.09c0-16.27,9.9-26.22,25-26.22s25.09,9.86,25.09,26.22v.09c0,16.51-9.76,26.32-25.04,26.32ZM25.09,76.8c6.7,0,10.99-5.66,10.99-15.52v-.09c0-9.76-4.39-15.42-11.08-15.42s-10.99,5.66-10.99,15.42v.09c0,9.9,4.29,15.52,11.08,15.52ZM57.21,86.56v-50.56h13.77v8.3h.28c2.59-5.8,7.78-9.34,15.42-9.34,11.13,0,17.45,7.12,17.45,18.96v32.64h-13.77v-29.81c0-6.6-3.11-10.38-9.29-10.38s-10.09,4.53-10.09,11.13v29.05h-13.77ZM135.88,87.6c-15.47,0-24.86-10.05-24.86-26.22v-.05c0-16.08,9.48-26.37,24.29-26.37s24.1,10.05,24.1,25.33v4.24h-34.81c.14,8.07,4.53,12.78,11.56,12.78,5.66,0,9.1-3.11,10.09-5.94l.09-.28h12.64l-.14.52c-1.56,7.45-8.54,15.99-22.97,15.99ZM135.55,45.25c-5.66,0-9.91,3.77-10.8,10.61h21.46c-.85-6.98-4.95-10.61-10.66-10.61ZM187.72,87.51c-13.63,0-22.73-9.86-22.73-25.47v-.09c0-15.61,9.15-25.38,22.69-25.38s22.73,9.72,22.73,25.38v.09c0,15.66-9.15,25.47-22.69,25.47ZM187.77,80.24c8.63,0,14.24-6.7,14.24-18.21v-.09c0-11.51-5.66-18.11-14.34-18.11s-14.29,6.65-14.29,18.11v.09c0,11.56,5.71,18.21,14.39,18.21ZM218.71,86.56v-49.05h8.21v8.3h.19c1.65-5.66,5.9-9.24,11.41-9.24,1.42,0,2.64.24,3.3.33v7.97c-.66-.24-2.41-.47-4.39-.47-6.37,0-10.52,4.43-10.52,11.89v30.28h-8.21ZM253.14,29.21c-2.83,0-5.14-2.31-5.14-5.14s2.31-5.14,5.14-5.14,5.14,2.26,5.14,5.14-2.26,5.14-5.14,5.14ZM249.03,86.56v-49.05h8.21v49.05h-8.21ZM289.17,104.02c-12.12,0-19.76-5.71-21.37-12.97l-.09-.42h8.25l.19.42c1.56,3.54,6.23,5.71,12.92,5.71,8.63,0,13.54-4.76,13.54-12.36v-6.27h-.19c-2.92,5.42-8.58,8.91-15.61,8.91-12.36,0-20.8-9.95-20.8-25.28v-.05c0-15.23,8.54-25.14,20.99-25.14,6.93,0,12.4,3.77,15.42,9.24h.19v-8.3h8.21v47.68c0,11.37-8.35,18.82-21.65,18.82ZM288.61,79.77c8.35,0,14.01-7.12,14.01-18.02v-.05c0-10.8-5.71-17.88-14.01-17.88-8.72,0-14.2,6.98-14.2,17.88v.05c0,11.13,5.47,18.02,14.2,18.02ZM326.06,29.21c-2.83,0-5.14-2.31-5.14-5.14s2.31-5.14,5.14-5.14,5.14,2.26,5.14,5.14-2.26,5.14-5.14,5.14ZM321.95,86.56v-49.05h8.21v49.05h-8.21ZM341.34,86.56v-49.05h8.21v6.98h.19c2.64-4.58,7.64-7.92,15.09-7.92,10.75,0,16.98,6.98,16.98,18.16v31.84h-8.21v-30.37c0-7.97-3.73-12.36-11.27-12.36s-12.78,5.52-12.78,13.87v28.87h-8.21Z"/>
      <g class="cls-5">
        <g id="Layer_1-2">
          <g>
            <path class="cls-2" d="M371.02.2c3.4.2,6.75.73,10,1.71,14.89,4.48,25.46,13.85,31.36,28.28,3.29,8.04,4.1,16.43,2.73,24.99-2.01,12.59-8.04,22.88-18.2,30.57-11.26,8.52-23.99,11.33-37.86,8.83-9.42-1.7-17.58-5.99-24.4-12.7-8.48-8.35-13.2-18.51-14.11-30.4-.33-4.32-.16-8.63.69-12.86.98-4.93,2.67-9.62,5.16-14.02,2.41-4.26,5.34-8.11,8.91-11.45,8.06-7.55,17.6-11.84,28.62-12.82,0,0,3.37-.32,7.1-.1ZM405.97,47.7c0-21.01-16.94-37.93-38.04-37.92-20.74.01-37.86,16.75-37.86,37.97,0,20.92,16.92,38.03,38.19,37.92,20.58-.1,37.67-16.49,37.71-37.97h0Z"/>
            <path class="cls-3" d="M331.58,47.55c-.06-20,16.47-36.46,36.84-36.23,19.08.22,36.19,15.54,35.87,37.01-.3,20.01-16.39,35.97-36.84,35.71-20.55-.25-35.97-16.92-35.87-36.5h0ZM392.03,47.78c-.04-13.92-11.37-24.53-24.61-24.22-13.98.33-24.62,12.55-23.51,25.93,1,12.14,10.88,22.65,24.71,22.28,14.2-.39,23.43-12.06,23.41-23.99h0Z"/>
          </g>
        </g>
      </g>
    </g>
  </g>
</svg>
