<?xml version="1.0" encoding="UTF-8"?>
<svg width="60px" height="60px" viewBox="0 0 60 60" version="1.1" xmlns="http://www.w3.org/2000/svg" xmlns:xlink="http://www.w3.org/1999/xlink">
    <title>microsoft_excel_node_icon</title>
    <g id="microsoft_excel_node_icon" stroke="none" stroke-width="1" fill="none" fill-rule="evenodd" stroke-linecap="round" stroke-linejoin="round">
        <g id="microsoft-excel" fill="#02723B">
            <g id="Group" transform="translate(0.370370, 0.370370)">
                <polygon id="C" points="42.7288889 19.857037 52.2414815 19.857037 52.2414815 24.5481481 42.7288889 24.5481481"></polygon>
                <g id="C-link" transform="translate(42.222222, 12.224444)">
                    <polygon id="C" points="0.506666667 0.597777778 10.0192593 0.597777778 10.0192593 5.28888889 0.506666667 5.28888889"></polygon>
                </g>
                <g id="C-link" transform="translate(42.222222, 26.451852)">
                    <polygon id="C" points="0.506666667 0.597777778 10.0192593 0.597777778 10.0192593 5.28888889 0.506666667 5.28888889"></polygon>
                </g>
                <g id="C-link" transform="translate(42.222222, 33.488148)">
                    <polygon id="C" points="0.506666667 0.597777778 10.0192593 0.597777778 10.0192593 5.28888889 0.506666667 5.28888889"></polygon>
                </g>
                <path d="M42.7288889,41.2785185 L52.2414815,41.2785185 L52.2414815,45.9688889 L42.7288889,45.9688889 L42.7288889,41.2785185 Z M57.6992593,6.41037037 L34.7755556,6.41037037 L34.7755556,0 L0,6.09777778 L0,53.3185185 L34.7755556,59.2592593 L34.7755556,52.0740741 L57.6992593,52.0740741 C58.6348148,52.0740741 59.2585185,51.2925926 59.2585185,50.5185185 L59.2585185,7.97407407 C59.2585185,7.19259259 58.6348148,6.41851852 57.6992593,6.41851852 L57.6992593,6.41037037 Z M19.6474074,40.1837037 L16.3733333,31.5911111 L16.2251852,31.5911111 C16.2251852,31.7392593 12.9511111,39.7214815 12.9511111,39.7214815 L8.58444444,39.4088889 L13.7303704,29.2459259 L9.05185185,19.082963 L13.4185185,18.7703704 L16.3814815,26.7444444 L16.5296296,26.7444444 C16.5296296,26.5962963 19.8037037,18.4577778 19.8037037,18.4577778 L24.3259259,18.1451852 L18.8681481,29.2466667 L24.482963,40.3481481 L19.6488889,40.2 L19.6474074,40.1837037 Z M57.2303704,50.3466667 L34.7755556,50.3466667 L34.7755556,45.9762963 L40.2333333,45.9762963 L40.2333333,41.2851852 L34.7755556,41.2851852 L34.7755556,38.9333333 L40.2333333,38.9333333 L40.2333333,34.242963 L34.7755556,34.242963 L34.7755556,31.8962963 L40.2333333,31.8962963 L40.2333333,27.2059259 L34.7755556,27.2059259 L34.7755556,24.8607407 L40.2333333,24.8607407 L40.2333333,20.1703704 L34.7755556,20.1703704 L34.7755556,17.8251852 L40.2333333,17.8251852 L40.2333333,13.1333333 L34.7755556,13.1333333 L34.7755556,8.44296296 L57.2318519,8.44296296 L57.2318519,50.3466667 L57.2303704,50.3466667 Z" id="Shape"></path>
            </g>
            <g id="Group">
                <polygon id="C" points="42.7288889 19.857037 52.2414815 19.857037 52.2414815 24.5481481 42.7288889 24.5481481"></polygon>
                <g id="C-link" transform="translate(42.222222, 12.224444)">
                    <polygon id="C" points="0.506666667 0.597777778 10.0192593 0.597777778 10.0192593 5.28888889 0.506666667 5.28888889"></polygon>
                </g>
                <g id="C-link" transform="translate(42.222222, 26.451852)">
                    <polygon id="C" points="0.506666667 0.597777778 10.0192593 0.597777778 10.0192593 5.28888889 0.506666667 5.28888889"></polygon>
                </g>
                <g id="C-link" transform="translate(42.222222, 33.488148)">
                    <polygon id="C" points="0.506666667 0.597777778 10.0192593 0.597777778 10.0192593 5.28888889 0.506666667 5.28888889"></polygon>
                </g>
                <path d="M42.7288889,41.2785185 L52.2414815,41.2785185 L52.2414815,45.9688889 L42.7288889,45.9688889 L42.7288889,41.2785185 Z M57.6992593,6.41037037 L34.7755556,6.41037037 L34.7755556,0 L0,6.09777778 L0,53.3185185 L34.7755556,59.2592593 L34.7755556,52.0740741 L57.6992593,52.0740741 C58.6348148,52.0740741 59.2585185,51.2925926 59.2585185,50.5185185 L59.2585185,7.97407407 C59.2585185,7.19259259 58.6348148,6.41851852 57.6992593,6.41851852 L57.6992593,6.41037037 Z M19.6474074,40.1837037 L16.3733333,31.5911111 L16.2251852,31.5911111 C16.2251852,31.7392593 12.9511111,39.7214815 12.9511111,39.7214815 L8.58444444,39.4088889 L13.7303704,29.2459259 L9.05185185,19.082963 L13.4185185,18.7703704 L16.3814815,26.7444444 L16.5296296,26.7444444 C16.5296296,26.5962963 19.8037037,18.4577778 19.8037037,18.4577778 L24.3259259,18.1451852 L18.8681481,29.2466667 L24.482963,40.3481481 L19.6488889,40.2 L19.6474074,40.1837037 Z M57.2303704,50.3466667 L34.7755556,50.3466667 L34.7755556,45.9762963 L40.2333333,45.9762963 L40.2333333,41.2851852 L34.7755556,41.2851852 L34.7755556,38.9333333 L40.2333333,38.9333333 L40.2333333,34.242963 L34.7755556,34.242963 L34.7755556,31.8962963 L40.2333333,31.8962963 L40.2333333,27.2059259 L34.7755556,27.2059259 L34.7755556,24.8607407 L40.2333333,24.8607407 L40.2333333,20.1703704 L34.7755556,20.1703704 L34.7755556,17.8251852 L40.2333333,17.8251852 L40.2333333,13.1333333 L34.7755556,13.1333333 L34.7755556,8.44296296 L57.2318519,8.44296296 L57.2318519,50.3466667 L57.2303704,50.3466667 Z" id="Shape"></path>
            </g>
        </g>
    </g>
</svg>