<svg xmlns="http://www.w3.org/2000/svg" xmlns:xlink="http://www.w3.org/1999/xlink" viewBox="-5 0 85 85" fill="#fff" fill-rule="evenodd" stroke="#000" stroke-linecap="round" stroke-linejoin="round"><use xlink:href="#a" x="2.188" y="2.5"/><symbol id="a" overflow="visible"><g fill="#876929" stroke="none"><path d="M0 25.938L.021 63.44 35 80l34.98-16.56v-9.368l-29.745-3.508.02-21.127L70 25.948V16.57L35 0 0 16.56v9.378z"/><path d="M.021 54.062l34.98 9.942V80L.021 63.44v-9.378z"/><path d="M4.465 65.549L0 63.431V16.56l4.475-2.109-.01 51.098z"/></g><path d="M40.255 50.564l-35.79 4.762.01-30.661 35.78 4.772v21.127zM70 25.948l-35-9.951V0l35 16.57v9.378zm-.02 28.124L35 64.004V80l34.98-16.56v-9.368z" stroke="none" fill="#d9a741"/><path d="M22.109 48.581l12.892 1.526V29.815L22.109 31.36v17.221zM9.125 47.065l8.365.982V31.924l-8.365 1.001v14.14z" stroke="none" fill="#876929"/><path d="M4.475 24.665L35 15.996l35 9.951-29.745 3.489-35.78-4.772z" fill="#624a1e" stroke="none"/><path d="M4.465 55.326L35 64.004l34.98-9.932-29.724-3.508-35.79 4.762z" fill="#fad791" stroke="none"/><path d="M69.98 45.918L35 50.107V29.815l34.98 4.218v11.885z" fill="#d9a741" stroke="none"/></symbol></svg>