<svg fill="currentColor" viewBox="0 0 14 14" xmlns="http://www.w3.org/2000/svg" aria-hidden="true"><path d="m 7.251794,0.99999832 c -0.077494,0 -0.1574887,0.004 -0.2394828,0.0105 -2.1133484,0.166488 -1.5528886,2.403328 -1.5848863,3.148775 -0.038497,0.54646 -0.1499893,0.97693 -0.5254624,1.510391 -0.4424682,0.525463 -1.0634237,1.374902 -1.3579026,2.260338 -0.13899,0.41597 -0.2049853,0.84194 -0.1434897,1.244411 -0.019499,0.017 -0.037997,0.034 -0.055496,0.0675 -0.1299907,0.13399 -0.2244839,0.300479 -0.3309763,0.41947 -0.099493,0.09949 -0.2424826,0.13349 -0.3984714,0.199986 -0.1564888,0.06799 -0.3289764,0.13449 -0.431969,0.3404747 -0.044997,0.09399 -0.067995,0.196486 -0.065995,0.300479 0,0.09949 0.013499,0.200485 0.027498,0.26798 0.028998,0.199486 0.057996,0.364474 0.019499,0.484966 -0.1239911,0.339975 -0.13949,0.572959 -0.052496,0.742446 0.086994,0.166988 0.2674808,0.234484 0.4694663,0.300479 0.405471,0.09999 0.9549316,0.06749 1.3874005,0.299478 0.4629668,0.233484 0.9329331,0.335476 1.3079063,0.234984 0.2629811,-0.0575 0.4849652,-0.231484 0.6039566,-0.472467 0.293479,-0.0015 0.6149559,-0.13449 1.129919,-0.166988 0.3494749,-0.029 0.7869436,0.133491 1.2889076,0.09949 0.012499,0.0675 0.031498,0.09949 0.056996,0.166988 l 0.0015,0.0015 c 0.195486,0.388972 0.5564601,0.56596 0.9419324,0.535462 0.3854724,-0.03 0.7959428,-0.267981 1.1284188,-0.652953 0.315477,-0.382473 0.84144,-0.541962 1.188915,-0.751446 0.173987,-0.09949 0.314477,-0.234484 0.324476,-0.42647 0.0115,-0.199986 -0.09949,-0.405971 -0.356974,-0.688451 l 0,-0.0485 -0.0015,-0.0015 c -0.08499,-0.09999 -0.124991,-0.267481 -0.168988,-0.4629667 -0.0425,-0.200485 -0.09099,-0.392972 -0.245982,-0.522962 l -0.0015,0 c -0.0295,-0.027 -0.0615,-0.0335 -0.09399,-0.0675 -0.028,-0.019 -0.0605,-0.031 -0.09499,-0.032 0.215484,-0.638954 0.13199,-1.274909 -0.08649,-1.846868 C 10.625052,6.7900833 10.159085,6.1761273 9.804111,5.7536573 9.4061395,5.2511933 9.0161675,4.7752273 9.023667,4.0692783 9.037166,2.9933553 9.1421585,1.0029983 7.251794,0.99999832 Z m 0.2644811,1.70237798 0.0065,0 c 0.1064924,0 0.1979858,0.031 0.2919791,0.09899 0.095493,0.0675 0.1649881,0.165988 0.2194842,0.266481 0.052496,0.129491 0.078994,0.229483 0.082994,0.361974 0,-0.01 0.003,-0.02 0.003,-0.0295 l 0,0.052 c -9.999e-4,-0.0035 -0.002,-0.0075 -0.002,-0.0105 l -0.002,-0.012 c -9.999e-4,0.121491 -0.026498,0.241483 -0.074995,0.352975 -0.023498,0.06249 -0.059496,0.119991 -0.1064923,0.167488 -0.014499,-0.008 -0.028498,-0.015 -0.043997,-0.021 -0.052496,-0.0225 -0.099493,-0.032 -0.1424898,-0.06649 -0.035497,-0.014 -0.072495,-0.0255 -0.1094921,-0.033 0.024498,-0.0295 0.072495,-0.0665 0.090993,-0.09899 0.026498,-0.064 0.040997,-0.13199 0.043997,-0.200985 l 0,-0.0095 c 9.999e-4,-0.0675 -0.009,-0.13549 -0.030498,-0.199985 -0.022498,-0.0675 -0.050496,-0.100493 -0.091494,-0.166988 -0.041997,-0.033 -0.083494,-0.066 -0.1334904,-0.066 l -0.008,0 c -0.046497,0 -0.087994,0.015 -0.1309906,0.066 -0.047497,0.047 -0.082994,0.103492 -0.1024927,0.166988 -0.026498,0.06349 -0.041997,0.13199 -0.044997,0.199985 l 0,0.0095 c 9.999e-4,0.0445 0.004,0.08949 0.01,0.13349 -0.096493,-0.0335 -0.2189843,-0.06749 -0.3034782,-0.100993 -0.005,-0.0325 -0.008,-0.066 -0.009,-0.09949 l 0,-0.01 c -0.004,-0.13199 0.021498,-0.262981 0.074995,-0.384472 0.040997,-0.109492 0.1159917,-0.202986 0.2149846,-0.266481 0.085494,-0.0645 0.1894864,-0.09949 0.2969787,-0.09949 z m -1.4808938,0.0295 0.017999,0 c 0.070995,0 0.1349903,0.024 0.1994857,0.0675 0.072995,0.06449 0.1319905,0.14399 0.1719876,0.232483 0.044997,0.09949 0.070495,0.200486 0.076494,0.333477 l 0,0.002 c 0.0035,0.067 0.003,0.100493 -9.999e-4,0.132991 l 0,0.04 c -0.014999,0.0035 -0.027998,0.009 -0.041497,0.012 -0.075995,0.0275 -0.1369902,0.06749 -0.1964859,0.09999 0.006,-0.0445 0.0065,-0.08949 0.0015,-0.133491 l 0,-0.0075 c -0.006,-0.06649 -0.019499,-0.09949 -0.040997,-0.166488 -0.015499,-0.051 -0.043997,-0.09649 -0.082994,-0.13349 -0.024498,-0.0225 -0.057496,-0.034 -0.091494,-0.032 l -0.010499,0 c -0.035497,0.003 -0.064995,0.0205 -0.092993,0.06599 -0.031998,0.0385 -0.052496,0.08549 -0.059996,0.13499 -0.013499,0.054 -0.017499,0.109493 -0.011499,0.165489 l 0,0.007 c 0.006,0.06749 0.018499,0.100493 0.040497,0.166988 0.022498,0.06699 0.048496,0.09999 0.082494,0.13399 0.0055,0.0045 0.010499,0.009 0.016999,0.012 -0.034998,0.0285 -0.058496,0.035 -0.087994,0.06799 -0.018499,0.014 -0.039997,0.03 -0.065495,0.034 -0.051996,-0.0625 -0.097993,-0.12999 -0.1374901,-0.200985 -0.047997,-0.104993 -0.072995,-0.218985 -0.077494,-0.333476 -0.0085,-0.112992 0.0055,-0.225984 0.039997,-0.333976 0.027498,-0.09849 0.075995,-0.189487 0.1414898,-0.267481 0.063995,-0.06649 0.1299907,-0.09999 0.2089851,-0.09999 z m 0.6854508,0.852939 c 0.1654881,0 0.3659738,0.0325 0.6074564,0.199485 0.1464895,0.09999 0.2614813,0.134491 0.5264623,0.233984 l 0.0015,0 c 0.1274908,0.06799 0.2024855,0.13299 0.2389828,0.199485 l 0,-0.0655 c 0.036497,0.07349 0.038997,0.158989 0.008,0.234983 -0.061496,0.155489 -0.2579815,0.321977 -0.5319619,0.42147 l 0,10e-4 c -0.1339904,0.06749 -0.250482,0.166488 -0.3874722,0.232483 -0.1379901,0.0675 -0.2939789,0.14599 -0.5059637,0.133491 -0.075995,0.004 -0.1524891,-0.0075 -0.2239839,-0.0335 -0.054996,-0.03 -0.1089922,-0.06299 -0.1609885,-0.09899 -0.097493,-0.06749 -0.181487,-0.165988 -0.3059781,-0.232483 l 0,-0.0025 -0.0025,0 c -0.199986,-0.122989 -0.3079783,-0.25598 -0.3429758,-0.355472 -0.034497,-0.133991 -0.0025,-0.234484 0.096493,-0.299979 0.111992,-0.0675 0.1899864,-0.13549 0.2414827,-0.167988 0.051996,-0.037 0.071495,-0.051 0.087994,-0.0655 l 9.999e-4,0 0,-0.0015 c 0.084494,-0.100993 0.2179844,-0.234483 0.4194699,-0.300479 0.069495,-0.018 0.1469895,-0.0325 0.2329833,-0.0325 z m 1.3993996,1.071423 c 0.1794872,0.708449 0.5984571,1.737375 0.8679378,2.23634 0.1429898,0.26698 0.4274693,0.82944 0.5509605,1.511891 0.077994,-0.0025 0.1644882,0.009 0.2564816,0.032 0.3229764,-0.83544 -0.2729804,-1.733376 -0.544461,-1.982858 -0.110492,-0.100493 -0.1159916,-0.167488 -0.061496,-0.167488 0.2944788,0.266981 0.682451,0.785944 0.8229414,1.378401 0.06449,0.267481 0.07949,0.551961 0.0105,0.83494 0.0335,0.014 0.06749,0.0305 0.102493,0.0335 0.515963,0.266981 0.706449,0.468966 0.614956,0.768445 l 0,-0.0215 c -0.0305,-0.0015 -0.06,0 -0.09049,0 l -0.0075,0 c 0.07549,-0.233483 -0.09099,-0.41247 -0.532462,-0.611956 -0.4574676,-0.199985 -0.8229414,-0.167988 -0.885437,0.232484 -0.0035,0.0215 -0.006,0.033 -0.0085,0.0675 -0.033998,0.0115 -0.069495,0.0265 -0.1044926,0.032 -0.2149845,0.133991 -0.3309762,0.334476 -0.3964715,0.593458 -0.064995,0.266481 -0.084994,0.5779577 -0.1024927,0.9344327 l 0,0.0015 c -0.010499,0.166988 -0.085494,0.41897 -0.1594885,0.675451 -0.7499462,0.535962 -1.7898717,0.768945 -2.6743082,0.166988 -0.055496,-0.09649 -0.1229912,-0.186986 -0.2009856,-0.266481 -0.036997,-0.06249 -0.083994,-0.118491 -0.1374902,-0.166988 0.090994,0 0.1689879,-0.0145 0.2324834,-0.0335 0.072495,-0.0335 0.1284907,-0.09399 0.1569887,-0.166988 0.053996,-0.133491 0,-0.348475 -0.1724876,-0.581459 C 5.4849207,9.9228583 5.1919417,9.6588773 4.7634725,9.3958963 4.4484951,9.1964103 4.2705078,8.9609273 4.1885137,8.6979463 c -0.082494,-0.266981 -0.071495,-0.542461 -0.0075,-0.822441 0.1224913,-0.534962 0.4364687,-1.054924 0.6369544,-1.381401 0.053496,-0.0325 0.018499,0.0675 -0.2039854,0.486965 -0.1979858,0.375473 -0.5704591,1.248411 -0.060996,1.926862 0.018999,-0.494465 0.1289907,-0.98243 0.3234768,-1.437897 0.2819797,-0.638954 0.8714375,-1.751874 0.9179341,-2.633811 0.023998,0.018 0.1084923,0.06749 0.1444897,0.100993 0.1089922,0.0665 0.1899864,0.166488 0.2949788,0.232483 0.1054925,0.100493 0.2384829,0.167488 0.4379686,0.167488 0.019499,0.0015 0.037497,0.003 0.055496,0.003 0.2054853,0 0.3644739,-0.06699 0.4979643,-0.133991 0.1449896,-0.067 0.2604813,-0.166988 0.3699735,-0.199985 l 0.0025,0 c 0.2334833,-0.06749 0.41797,-0.200986 0.5224625,-0.349975 z m 1.0929217,4.478679 c 0.018499,0.300478 0.1714877,0.622455 0.4409683,0.68845 0.2939785,0.067 0.7169483,-0.166488 0.8954353,-0.382472 l 0.105493,-0.0045 c 0.157488,-0.004 0.288479,0.005 0.423469,0.133491 l 0.0015,0.0015 c 0.103993,0.09949 0.152489,0.265481 0.195486,0.4379687 0.0425,0.200486 0.077,0.389972 0.204486,0.532962 0.242982,0.263481 0.322476,0.452967 0.317977,0.569959 l 0.0015,-0.003 0,0.009 -0.0015,-0.006 c -0.0075,0.130991 -0.09249,0.197986 -0.248982,0.297479 -0.314978,0.200485 -0.872938,0.355974 -1.228412,0.784943 -0.308978,0.368474 -0.6854509,0.569459 -1.017927,0.595458 -0.3319762,0.0265 -0.6184557,-0.09999 -0.7869436,-0.448968 l -0.0025,-0.0015 c -0.1049925,-0.200486 -0.059996,-0.512463 0.027998,-0.844939 0.087994,-0.333977 0.2139846,-0.672452 0.2314834,-0.948932 0.018499,-0.356975 0.037997,-0.6674527 0.097493,-0.9069347 0.059996,-0.232484 0.1539889,-0.398472 0.320477,-0.491965 l 0.022498,-0.011 z m -5.4071123,0.0245 0.005,0 c 0.026498,0 0.052496,0.0025 0.078494,0.007 0.1879866,0.0275 0.3529747,0.166489 0.5114634,0.375974 l 0.4549673,0.8319397 0.0015,0.0015 c 0.1214913,0.266481 0.376973,0.531962 0.5944574,0.818941 0.2169844,0.298979 0.3849724,0.565459 0.3644739,0.784944 l 0,0.003 c -0.028498,0.371973 -0.2394829,0.573958 -0.5624597,0.646953 -0.3224769,0.0675 -0.7599455,10e-4 -1.1974141,-0.231983 -0.4839653,-0.267981 -1.0589241,-0.234483 -1.4283976,-0.300979 -0.1844868,-0.033 -0.3054781,-0.100492 -0.3614741,-0.200485 -0.055496,-0.09949 -0.056496,-0.300479 0.061496,-0.614956 l 0,-0.0015 9.999e-4,-0.0015 c 0.058496,-0.166988 0.014999,-0.376473 -0.013499,-0.55946 -0.027498,-0.200485 -0.041497,-0.354474 0.021499,-0.469966 0.079994,-0.166988 0.1979858,-0.199486 0.3444753,-0.2664807 0.1474894,-0.0675 0.320477,-0.100993 0.4579671,-0.234483 l 0.001,0 0,-0.0015 c 0.1279908,-0.13399 0.222484,-0.300479 0.333976,-0.41897 0.094993,-0.100493 0.1899864,-0.167988 0.3314762,-0.167988 z m 3.5792434,-4.536675 c -0.2174844,0.100493 -0.4724662,0.267481 -0.7439467,0.267481 -0.2709806,0 -0.4849652,-0.13349 -0.6394541,-0.232983 -0.077495,-0.06699 -0.13999,-0.133991 -0.1869866,-0.167488 -0.081994,-0.067 -0.071995,-0.166988 -0.036997,-0.166988 0.054496,0.008 0.064495,0.06749 0.099493,0.100493 0.047996,0.033 0.1074923,0.09949 0.180487,0.166488 0.1454896,0.09999 0.3399757,0.233483 0.5829582,0.233483 0.2424827,0 0.5264623,-0.13349 0.6989499,-0.232983 0.097493,-0.0675 0.2224841,-0.166988 0.3239768,-0.233484 0.077994,-0.0685 0.074495,-0.13399 0.13949,-0.13399 0.064495,0.008 0.016999,0.067 -0.073495,0.166488 -0.090494,0.06749 -0.2304835,0.167488 -0.3449753,0.233983 l 0,-5e-4 z m -0.5409613,-0.791943 0,-0.011 c -0.003,-0.0095 0.0065,-0.021 0.014499,-0.025 0.036997,-0.0215 0.089994,-0.0135 0.1299907,0.002 0.031498,0 0.079994,0.0335 0.074995,0.0675 -0.003,0.0245 -0.042497,0.033 -0.067495,0.033 -0.027498,0 -0.045997,-0.0215 -0.070495,-0.034 -0.025998,-0.009 -0.072995,-0.004 -0.081494,-0.0325 z m -0.2754802,0 c -0.01,0.029 -0.056496,0.0245 -0.082994,0.033 -0.023498,0.0125 -0.042997,0.034 -0.069495,0.034 -0.025498,0 -0.065495,-0.0095 -0.068495,-0.034 -0.0045,-0.033 0.043997,-0.06649 0.074995,-0.06649 0.040497,-0.0155 0.091993,-0.0235 0.1294907,-0.0025 0.0095,0.0045 0.017999,0.015 0.014999,0.025 l 0,0.0105 0.0015,0 z"/></svg>