<svg xmlns="http://www.w3.org/2000/svg" width="512" height="512" fill="none"><g fill="#2FB67C" fill-rule="evenodd" clip-path="url(#a)" clip-rule="evenodd"><path d="M512 458c0-6.627-5.373-12-12-12h-68c-6.627 0-12 5.373-12 12v24c0 6.627 5.373 12 12 12h68c6.627 0 12-5.373 12-12zm-140 0c0-6.627-5.373-12-12-12h-68c-6.627 0-12 5.373-12 12v24c0 6.627 5.373 12 12 12h68c6.627 0 12-5.373 12-12zm-140 0c0-6.627-5.373-12-12-12h-68c-6.627 0-12 5.373-12 12v24c0 6.627 5.373 12 12 12h68c6.627 0 12-5.373 12-12zm-140 0c0-6.627-5.373-12-12-12H12c-6.627 0-12 5.373-12 12v24c0 6.627 5.373 12 12 12h68c6.627 0 12-5.373 12-12zm152-222c-6.627 0-12-5.373-12-12V30c0-6.627 5.373-12 12-12h24c6.627 0 12 5.373 12 12v194c0 6.627-5.373 12-12 12z"/><path d="M149.577 146.982c9.398-9.346 24.594-9.304 33.941.095L256 219.964l72.482-72.887c9.347-9.399 24.543-9.441 33.941-.095s9.441 24.543.095 33.941l-89.5 90a24 24 0 0 1-34.036 0l-89.5-90c-9.346-9.398-9.304-24.594.095-33.941M0 350c0-6.627 5.373-12 12-12h488c6.627 0 12 5.373 12 12v24c0 6.627-5.373 12-12 12H12c-6.627 0-12-5.373-12-12z"/></g><defs><clipPath id="a"><path fill="#fff" d="M0 0h512v512H0z"/></clipPath></defs></svg>