<svg width="512" height="512" viewBox="0 0 512 512" fill="none" xmlns="http://www.w3.org/2000/svg">
<path fill-rule="evenodd" clip-rule="evenodd" d="M64 431C64 424.373 58.6274 419 52 419L12 419C5.37258 419 4.20215e-07 424.373 1.69545e-07 431L-7.38213e-07 455C-9.88884e-07 461.627 5.37258 467 12 467L52 467C58.6274 467 64 461.627 64 455L64 431Z" fill="#2FB67C"/>
<path fill-rule="evenodd" clip-rule="evenodd" d="M176 431C176 424.373 170.627 419 164 419L124 419C117.373 419 112 424.373 112 431L112 455C112 461.627 117.373 467 124 467L164 467C170.627 467 176 461.627 176 455L176 431Z" fill="#2FB67C"/>
<path fill-rule="evenodd" clip-rule="evenodd" d="M288 431C288 424.373 282.627 419 276 419L236 419C229.373 419 224 424.373 224 431L224 455C224 461.627 229.373 467 236 467L276 467C282.627 467 288 461.627 288 455L288 431Z" fill="#2FB67C"/>
<path fill-rule="evenodd" clip-rule="evenodd" d="M400 431C400 424.373 394.627 419 388 419L348 419C341.373 419 336 424.373 336 431L336 455C336 461.627 341.373 467 348 467L388 467C394.627 467 400 461.627 400 455L400 431Z" fill="#2FB67C"/>
<path fill-rule="evenodd" clip-rule="evenodd" d="M512 431C512 424.373 506.627 419 500 419L460 419C453.373 419 448 424.373 448 431L448 455C448 461.627 453.373 467 460 467L500 467C506.627 467 512 461.627 512 455L512 431Z" fill="#2FB67C"/>
<path fill-rule="evenodd" clip-rule="evenodd" d="M281 288.327L328.982 240.077C338.329 230.678 353.525 230.636 362.923 239.982C372.322 249.329 372.364 264.525 363.018 273.923L273.518 363.923C269.013 368.453 262.888 371 256.5 371C250.112 371 243.987 368.453 239.482 363.923L149.982 273.923C140.636 264.525 140.678 249.329 150.077 239.982C159.475 230.636 174.671 230.678 184.018 240.077L233 289.333L233 58C233 51.3726 238.373 46 245 46L269 46C275.627 46 281 51.3726 281 58L281 288.327Z" fill="#2FB67C"/>
</svg>
