<svg xmlns="http://www.w3.org/2000/svg" width="288" height="288"><svg xmlns="http://www.w3.org/2000/svg" width="288" height="288" fill="currentColor" class="animicon" viewBox="0 0 58 49"><path fill="#ff6333" d="M15.339 9.94A69.8 69.8 0 0 0 27.2 30.914l1.738 2.062 1.759-2.062A70.1 70.1 0 0 0 42.6 9.94H36.7A58.9 58.9 0 0 1 29 23.758 58 58 0 0 1 21.32 9.94z" class="color000 svgShape"/><path fill="#ff6333" d="M39.67.062c-.141.35-1.475 4.372-2.182 6.001h11.337A101.9 101.9 0 0 1 31.607 36.38l-2.526 3.052-2.526-3.052A101.9 101.9 0 0 1 9.337 6h10.791C19.421 4.372 18.108.351 17.946 0H0c5.836 16.228 14.398 31.295 25.302 44.525L29 49l3.718-4.475C43.613 31.29 52.167 16.225 58 0z" class="color000 svgShape"/></svg></svg>