<svg id="SvgjsSvg1001" width="288" height="288" xmlns="http://www.w3.org/2000/svg" version="1.1" xmlns:xlink="http://www.w3.org/1999/xlink" xmlns:svgjs="http://svgjs.com/svgjs"><defs id="SvgjsDefs1002"></defs><g id="SvgjsG1008"><svg xmlns="http://www.w3.org/2000/svg" fill="currentColor" class="animicon" viewBox="0 0 58 49" width="288" height="288"><path d="M15.3387 9.94015C18.0582 17.5866 22.0735 24.6859 27.2014 30.9138L28.9394 32.9761L30.6976 30.9138C35.8337 24.6846 39.8621 17.5863 42.6007 9.94015H36.6996C34.7605 14.8817 32.1701 19.5303 29 23.7575C25.8286 19.5348 23.2444 14.885 21.3206 9.94015H15.3387Z" fill="#ff6333" class="color000 svgShape"></path><path d="M39.6704 0.0618034C39.5289 0.412393 38.1951 4.43394 37.4878 6.06315H48.8251C44.8538 17.1118 39.0274 27.3702 31.607 36.3788L29.0808 39.4311L26.5547 36.3788C19.1282 27.3515 13.3016 17.0717 9.33659 6.00122H20.1282C19.4209 4.37201 18.1073 0.35059 17.9456 0H0C5.83647 16.2283 14.3983 31.295 25.3017 44.5249L29 49L32.7185 44.5249C43.6117 31.2913 52.1663 16.2252 58 0L39.6704 0.0618034Z" fill="#ff6333" class="color000 svgShape"></path></svg></g></svg>