<svg xmlns="http://www.w3.org/2000/svg" viewBox="0 0 60 60"><path d="M59.5 30C59.5 13.71 46.29.5 30 .5S.5 13.71.5 30c0 14.72 10.79 26.93 24.89 29.14V38.53H17.9V30h7.49v-6.5c0-7.39 4.4-11.48 11.14-11.48 3.23 0 6.6.58 6.6.58v7.26h-3.72c-3.66 0-4.81 2.27-4.81 4.61V30h8.18l-1.31 8.53H34.6v20.61C48.71 56.93 59.5 44.72 59.5 30z" fill="#1877f2"/><path d="M41.48 38.53L42.79 30h-8.18v-5.53c0-2.33 1.14-4.61 4.81-4.61h3.72V12.6s-3.38-.58-6.6-.58c-6.74 0-11.14 4.08-11.14 11.48V30h-7.5v8.53h7.49v20.61c1.5.24 3.04.36 4.61.36s3.11-.12 4.61-.36V38.53h6.87z" fill="#fff"/></svg>