<?xml version="1.0" encoding="UTF-8"?>
<svg width="60px" height="60px" viewBox="0 0 60 60" version="1.1" xmlns="http://www.w3.org/2000/svg" xmlns:xlink="http://www.w3.org/1999/xlink">
    <title>messagebird_node_icon</title>
    <g id="messagebird_node_icon" stroke="none" stroke-width="1" fill="none" fill-rule="evenodd" stroke-linecap="round" stroke-linejoin="round">
        <g id="messagebird-icon" transform="translate(0.000000, 5.000000)" fill="#2481D7" fill-rule="nonzero">
            <g id="A" transform="translate(0.461538, 0.461538)">
                <path d="M53.0076923,8.83384615 C50.6372308,8.83384615 48.5187692,10.0190769 47.2255385,11.8153846 L38.4987692,24.0258462 C38.1720194,24.4968546 37.6357085,24.7784523 37.0624615,24.78 C36.0916228,24.7779689 35.305108,23.9914541 35.3030769,23.0206154 C35.3030769,22.6513846 35.4110769,22.3024615 35.58,22.0513846 L42.9415385,11.0252308 C43.6956923,9.912 44.1267692,8.54769231 44.1267692,7.07446154 C44.136,3.16061538 40.9846154,0 37.0615385,0 L0,0 L0,7.07446154 L31.7473846,7.07446154 C31.7473846,9.01292308 30.1670769,10.6301538 28.1916923,10.6301538 L0,10.6301538 C0,13.1436923 0.539076923,15.5501538 1.47230769,17.7046154 L24.6461538,17.7046154 C24.6461538,19.6430769 23.0658462,21.2603077 21.0904615,21.2603077 L3.55569231,21.2603077 C6.89973532,25.7288152 12.160331,28.3522669 17.7415385,28.3347692 L26.4683077,28.3347692 C27.4391465,28.3368003 28.2256613,29.1233151 28.2276923,30.0941538 C28.2256613,31.0649926 27.4391465,31.8515074 26.4683077,31.8535385 L17.7046154,31.8535385 L5.85230769,49.5581538 L27.2926154,49.5581538 C37.0956923,49.5581538 45.4283077,43.1658462 48.3387692,34.3310769 L52.3264615,22.2387692 C53.6187692,18.3249231 55.9892308,14.8763077 59.0778462,12.2547692 C57.8566154,10.2073846 55.5941538,8.84307692 53.0086154,8.84307692 L53.0076923,8.83384615 Z M53.0076923,13.6818462 C52.2895385,13.6818462 51.6784615,13.0726154 51.6784615,12.3526154 C51.6883943,11.6226554 52.2777323,11.0333174 53.0076923,11.0233846 C53.7376523,11.0333174 54.3269903,11.6226554 54.3369231,12.3526154 C54.3369231,13.1067692 53.7276923,13.6818462 53.0076923,13.6818462 L53.0076923,13.6818462 Z" id="Shape"></path>
            </g>
        </g>
    </g>
</svg>