<svg width="60" height="60" xmlns="http://www.w3.org/2000/svg"><path d="M53.47 14.295c-2.371 0-4.49 1.186-5.783 2.982l-8.727 12.21a1.754 1.754 0 01-1.436.755 1.763 1.763 0 01-1.76-1.76c0-.37.109-.718.278-.97l7.361-11.025c.754-1.113 1.185-2.478 1.185-3.951a7.046 7.046 0 00-7.065-7.074H.462v7.074h31.747a3.564 3.564 0 01-3.556 3.556H.462c0 2.513.539 4.92 1.472 7.074h23.174a3.564 3.564 0 01-3.556 3.556H4.017a17.65 17.65 0 0014.186 7.074h8.727c.97.002 1.757.789 1.76 1.76a1.763 1.763 0 01-1.76 1.76h-8.764L6.314 55.02h21.44c9.803 0 18.136-6.393 21.046-15.227L52.788 27.7a22.305 22.305 0 016.751-9.984 7.044 7.044 0 00-6.069-3.411v-.01zm0 4.848c-.719 0-1.33-.609-1.33-1.329.01-.73.6-1.32 1.33-1.33.73.01 1.319.6 1.328 1.33 0 .754-.609 1.33-1.329 1.33z" fill="#2481D7"/></svg>