<svg xmlns="http://www.w3.org/2000/svg" viewBox="0 -1 104 106"><g data-name="Layer 2"><g data-name="Layer 3"><path d="M51.87 0C23.71 0 0 22.83 0 51v52.81l51.86-.05c28.16 0 51-23.71 51-51.87S80 0 51.87 0z" fill="#231f20"/><path d="M52.37 19.74a31.62 31.62 0 00-27.79 46.67l-5.72 18.4 20.54-4.64a31.61 31.61 0 1013-60.43z" fill="#fff9ae"/><path d="M77.45 32.12a31.6 31.6 0 01-38.05 48l-20.54 4.7 20.91-2.47a31.6 31.6 0 0037.68-50.23z" fill="#00aeef"/><path d="M71.63 26.29A31.6 31.6 0 0138.8 78l-19.94 6.82 20.54-4.65a31.6 31.6 0 0032.23-53.88z" fill="#00a94f"/><path d="M26.47 67.11a31.61 31.61 0 0151-35 31.61 31.61 0 00-52.89 34.3l-5.72 18.4z" fill="#f15d22"/><path d="M24.58 66.41a31.61 31.61 0 0147.05-40.12 31.61 31.61 0 00-49 39.63l-3.76 18.9z" fill="#e31b23"/></g></g></svg>