<svg width="400" height="400" viewBox="0 0 400 400" fill="none" xmlns="http://www.w3.org/2000/svg">
<rect x="16" y="15" width="369" height="369" rx="12.5" fill="#3B5AEA"/>
<path d="M151.547 135.837C174.231 154.202 195.804 188.694 198.506 211.556C201.938 240.599 201.255 251.629 175.755 306.877C122.552 294.891 83 249.797 83 196C83 161.495 99.2706 130.571 124.978 109.666C131.87 117.754 141.124 126.973 151.547 135.837Z" fill="#DBEAFE"/>
<path d="M204 82C270.826 82 325 133.039 325 196C325 254.533 278.178 302.763 217.896 309.256C255.464 222.357 249.531 193.173 236.583 145.243C228.479 118.36 206.798 96.6385 183.729 83.5927C190.32 82.5453 197.093 82 204 82Z" fill="#DBEAFE"/>
</svg>
