<svg version="1.1" id="Layer_1" xmlns:x="ns_extend;" xmlns:i="ns_ai;" xmlns:graph="ns_graphs;" xmlns="http://www.w3.org/2000/svg" xmlns:xlink="http://www.w3.org/1999/xlink" x="0px" y="0px" viewBox="0 0 62.8 50.2" style="enable-background:new 0 0 62.8 50.2;" xml:space="preserve">
 <style type="text/css">
  .st0{fill:#09C269;}
	.st1{fill:#FFFFFF;}
 </style>
 <metadata>
  <sfw xmlns="ns_sfw;">
   <slices>
   </slices>
   <sliceSourceBounds bottomLeftOrigin="true" height="50.2" width="62.8" x="236.9" y="-225.3">
   </sliceSourceBounds>
  </sfw>
 </metadata>
 <g id="mailerlite-light">
  <g>
   <g id="lite" transform="translate(137.000000, 0.000000)">
    <path id="Shape-path" class="st0" d="M-81.2,0h-48.9c-3.8,0-6.9,3.1-6.9,6.8v22.8v4.5v16.2l9.5-9.3h46.4c3.8,0,6.9-3.1,6.9-6.8
				V6.8C-74.3,3.1-77.4,0-81.2,0z">
    </path>
    <path id="Shape-path-3" class="st1" d="M-90.2,15.8c5.2,0,7.6,4.1,7.6,8c0,1-0.8,1.8-1.8,1.8H-94c0.5,2.3,2.1,3.6,4.7,3.6
				c1.9,0,2.9-0.4,3.9-0.9c0.2-0.1,0.5-0.2,0.7-0.2c0.9,0,1.7,0.7,1.7,1.6c0,0.6-0.4,1.1-1,1.5c-1.3,0.7-2.7,1.4-5.5,1.4
				c-5.2,0-8.3-3.1-8.3-8.4C-97.9,18.1-93.7,15.8-90.2,15.8z M-105.5,13.2c0.6,0,1,0.5,1,1v1.9h2.9c0.9,0,1.7,0.7,1.7,1.6
				c0,0.9-0.7,1.6-1.7,1.6h-2.9V28c0,1.2,0.6,1.3,1.5,1.3c0.5,0,0.8-0.1,1.1-0.1c0.2,0,0.5-0.1,0.7-0.1c0.7,0,1.6,0.6,1.6,1.5
				c0,0.6-0.4,1.1-1,1.4c-0.9,0.4-1.7,0.6-2.7,0.6c-3.2,0-4.9-1.5-4.9-4.4v-8.8h-1.7c-0.6,0-1-0.5-1-1c0-0.3,0.1-0.6,0.4-0.9l4-4
				C-106.3,13.5-106,13.2-105.5,13.2z M-124.2,9.4c1,0,1.8,0.8,1.8,1.8v19.4c0,1-0.8,1.8-1.8,1.8s-1.8-0.8-1.8-1.8V11.2
				C-126,10.2-125.2,9.4-124.2,9.4z M-115.6,16c1,0,1.8,0.8,1.8,1.8v12.8c0,1-0.8,1.8-1.8,1.8c-1,0-1.8-0.8-1.8-1.8V17.8
				C-117.4,16.8-116.6,16-115.6,16z M-90.1,19.1c-1.7,0-3.6,1-3.9,3.5h7.9C-86.6,20.1-88.4,19.1-90.1,19.1z M-115.5,9.9
				c1.1,0,2,0.9,2,2V12c0,1.1-0.9,2-2,2h-0.2c-1.1,0-2-0.9-2-2v-0.1c0-1.1,0.9-2,2-2H-115.5z">
    </path>
   </g>
  </g>
 </g>
</svg>