<?xml version="1.0" encoding="UTF-8"?>
<svg width="980px" height="1000px" viewBox="0 0 980 1000" version="1.1" xmlns="http://www.w3.org/2000/svg" xmlns:xlink="http://www.w3.org/1999/xlink">
    <title>bot-login</title>
    <defs>
        <rect id="path-1" x="0" y="0" width="962" height="1080"></rect>
        <filter x="-15.7%" y="-22.4%" width="140.0%" height="145.2%" filterUnits="objectBoundingBox" id="filter-3">
            <feOffset dx="0" dy="2" in="SourceAlpha" result="shadowOffsetOuter1"></feOffset>
            <feGaussianBlur stdDeviation="116.5" in="shadowOffsetOuter1" result="shadowBlurOuter1"></feGaussianBlur>
            <feColorMatrix values="0 0 0 0 0.12605674   0 0 0 0 0.479902627   0 0 0 0 0.439402194  0 0 0 0.144886364 0" type="matrix" in="shadowBlurOuter1" result="shadowMatrixOuter1"></feColorMatrix>
            <feMerge>
                <feMergeNode in="shadowMatrixOuter1"></feMergeNode>
                <feMergeNode in="SourceGraphic"></feMergeNode>
            </feMerge>
        </filter>
        <linearGradient x1="-0.00699154024%" y1="49.9984705%" x2="86.9930085%" y2="49.9984705%" id="linearGradient-4">
            <stop stop-color="#5CC3CC" offset="0%"></stop>
            <stop stop-color="#53B7C1" offset="4%"></stop>
            <stop stop-color="#358A92" offset="20%"></stop>
            <stop stop-color="#256065" offset="36%"></stop>
            <stop stop-color="#183F43" offset="51%"></stop>
            <stop stop-color="#0F2729" offset="65%"></stop>
            <stop stop-color="#091B1B" offset="77%"></stop>
            <stop stop-color="#0D0D0D" offset="100%"></stop>
        </linearGradient>
        <linearGradient x1="31.53698%" y1="56.4617534%" x2="64.4138819%" y2="44.9574747%" id="linearGradient-5">
            <stop stop-color="#5CC3CC" offset="0%"></stop>
            <stop stop-color="#53B7C1" offset="4%"></stop>
            <stop stop-color="#358A92" offset="20%"></stop>
            <stop stop-color="#256065" offset="36%"></stop>
            <stop stop-color="#183F43" offset="51%"></stop>
            <stop stop-color="#0F2729" offset="65%"></stop>
            <stop stop-color="#091B1B" offset="77%"></stop>
            <stop stop-color="#0D0D0D" offset="100%"></stop>
        </linearGradient>
        <linearGradient x1="-0.0029393775%" y1="50.0000275%" x2="100%" y2="50.0000275%" id="linearGradient-6">
            <stop stop-color="#0D0D0D" offset="0%"></stop>
            <stop stop-color="#001F1F" offset="3%"></stop>
            <stop stop-color="#003D34" offset="43%"></stop>
            <stop stop-color="#005246" offset="77%"></stop>
            <stop stop-color="#00574A" offset="100%"></stop>
        </linearGradient>
        <linearGradient x1="0%" y1="50.0040786%" x2="100%" y2="50.0040786%" id="linearGradient-7">
            <stop stop-color="#C4E4E5" offset="0%"></stop>
            <stop stop-color="#A0D0D1" offset="13%"></stop>
            <stop stop-color="#68B1B2" offset="35%"></stop>
            <stop stop-color="#3C999A" offset="56%"></stop>
            <stop stop-color="#1D8789" offset="74%"></stop>
            <stop stop-color="#097C7E" offset="89%"></stop>
            <stop stop-color="#03797B" offset="100%"></stop>
        </linearGradient>
        <linearGradient x1="0%" y1="50%" x2="100%" y2="50%" id="linearGradient-8">
            <stop stop-color="#C4E4E5" offset="0%"></stop>
            <stop stop-color="#A0D0D1" offset="13%"></stop>
            <stop stop-color="#68B1B2" offset="35%"></stop>
            <stop stop-color="#3C999A" offset="56%"></stop>
            <stop stop-color="#1D8789" offset="74%"></stop>
            <stop stop-color="#097C7E" offset="89%"></stop>
            <stop stop-color="#03797B" offset="100%"></stop>
        </linearGradient>
        <linearGradient x1="13.023696%" y1="68.3988397%" x2="90.7637657%" y2="27.6128164%" id="linearGradient-9">
            <stop stop-color="#0D0D0D" offset="0%"></stop>
            <stop stop-color="#001F1F" offset="3%"></stop>
            <stop stop-color="#003D34" offset="43%"></stop>
            <stop stop-color="#005246" offset="77%"></stop>
            <stop stop-color="#00574A" offset="100%"></stop>
        </linearGradient>
    </defs>
    <g id="🎨-Design" stroke="none" stroke-width="1" fill="none" fill-rule="evenodd">
        <g id="[XL]-Design/Login" transform="scale(-1,1) translate(-980,0)">
            <g id="View" >
                <g id="bot-login" >
                    <mask id="mask-2" fill="white">
                        <use xlink:href="#path-1"></use>
                    </mask>
                    <g id="mask"></g>
                    <g id="content" mask="url(#mask-2)">
                        <g >
                            <g id="background-elements">
                                <path d="M355.420614,301.810082 C362.83005,297.335779 370.802395,293.869505 379.127103,291.502801 L384.001764,268.012322 L423.665871,267.322103 L429.368304,290.605515 C437.773745,292.672449 445.863327,295.860675 453.419699,300.084533 L473.470192,286.94735 L502.005355,314.55614 L489.565772,335.055666 C494.046266,342.464927 497.511015,350.443221 499.866943,358.776217 L523.274514,363.515726 L523.964324,403.203361 L500.694715,408.909177 C498.626355,417.318759 495.440155,425.412793 491.221317,432.974838 L504.350711,453.037225 L476.758289,481.566308 L456.270916,469.142352 C448.853404,473.616814 440.873445,477.083037 432.541433,479.449634 L427.666772,502.940112 L388.025659,503.630332 L382.300231,480.346919 C373.902177,478.256818 365.815596,475.069775 358.248837,470.867902 L338.221337,484.005084 L309.686174,456.396295 L322.102764,435.896769 C317.631114,428.482937 314.166894,420.505863 311.801593,412.176217 L288.325041,407.298664 L287.63523,367.61103 L310.927833,361.905213 C312.998362,353.499776 316.176327,345.407018 320.378238,337.839552 L307.248843,317.777165 L334.841265,289.248083 L355.328639,301.672038 L355.420614,301.810082 Z M376.55181,354.726928 C360.235225,371.639048 360.709497,398.583972 377.611136,414.910706 C394.512775,431.237441 421.441739,430.763639 437.759265,413.852428 C454.076791,396.941218 453.60402,369.996268 436.70329,353.668591 C419.822877,337.336422 392.909434,337.779238 376.574804,354.657906 L376.55181,354.726928 Z" id="cog--2" fill="#F5F5F5" fill-rule="nonzero"></path>
                                <path d="M588.64556,371.016114 C594.881148,368.85812 601.376757,367.542753 607.960256,367.104869 L615.341228,350.378544 L645.003082,356.176389 L645.554931,374.444205 C651.496942,377.328919 657.026221,380.996657 661.995415,385.349677 L679.010742,378.723567 L695.911101,403.824558 L683.379542,417.122792 C685.534139,423.362656 686.848668,429.861832 687.288469,436.448944 L704.004878,443.834296 L698.233463,473.513744 L679.953483,474.06592 C677.075935,480.00919 673.418289,485.54147 669.07747,490.516157 L675.676658,507.564584 L650.613541,524.566997 L637.300198,512.051012 C631.066605,514.212472 624.569485,515.520406 617.985502,515.93925 L610.627523,532.688583 L580.942676,526.867729 L580.390827,508.46187 C574.453631,505.590509 568.931217,501.929933 563.973336,497.579405 L546.935016,504.182508 L530.172619,479.127531 L542.681184,465.829298 C540.526588,459.589433 539.212058,453.090258 538.772257,446.503145 L522.055849,439.117794 L527.735289,409.530375 L545.992275,408.978199 C548.875626,403.045294 552.532869,397.52136 556.868288,392.550969 L550.2691,375.502542 L575.35521,358.615166 L588.64556,371.13115 L588.64556,371.016114 Z M596.003539,413.78673 C585.116197,421.119469 579.716206,434.293039 582.322091,447.163364 C584.927977,460.033688 595.026423,470.065529 607.907572,472.580094 C620.788721,475.094659 633.915204,469.59662 641.164905,458.650232 C648.414606,447.703844 648.359455,433.46536 641.025175,422.575528 C631.015417,407.713186 610.862483,403.779076 596.003539,413.78673 Z" id="cog--1" fill="#EBEBEB" fill-rule="nonzero"></path>
                                <g id="dna-strand" transform="translate(692.6, 0)" fill="#E0E0E0" fill-rule="nonzero">
                                    <animateTransform
                                    attributeName="transform"
                                    type="translate"
                                    values="0,0; 0,-15; 0,0"
                                    dur="6s"
                                    repeatCount="indefinite"
                                    additive="sum"
                                    calcMode="spline"
                                    keySplines="0.4 0 0.2 1; 0.4 0 0.2 1"
                                    />
                                    <path d="M0,50.777165 C0,50.777165 0.206943165,50.777165 0.551848439,51.1682895 C0.896753714,51.559414 1.40261478,51.8815166 2.09242533,52.3876777 C4.10076482,53.9420753 6.21349733,55.356524 8.4156887,56.6210254 C11.8813365,58.6156324 15.560535,60.2132128 19.3836764,61.3835416 C24.449627,62.9122681 29.7308761,63.6039004 35.0193822,63.4311935 C41.4366822,63.0493362 47.8251671,62.281034 54.1501281,61.130461 C61.4700749,59.8664817 68.9300562,59.6264437 76.3160404,60.417234 C84.4932202,61.3934011 92.4506941,63.7260751 99.8615738,67.3194313 C115.946536,75.1074063 128.291054,88.9566904 134.191146,105.833692 C136.936404,113.6024 138.154433,121.828974 137.77816,130.060405 C137.502236,137.905903 136.398539,145.245239 136.21459,152.170444 C135.877622,158.586839 136.711332,165.010998 138.674914,171.128479 C140.331074,176.163686 142.767442,180.907329 145.894931,185.185954 C148.230495,188.436906 150.947886,191.395367 153.988708,193.99776 C155.207374,195.102111 156.288077,195.930375 157.414767,196.712624 C158.541458,197.494873 159.323243,198.047049 160.059041,198.507195 L161.760574,199.519517 C162.128473,199.772598 162.335416,199.887635 162.335416,199.910642 C162.118721,199.823243 161.910838,199.715388 161.714586,199.588539 L159.99006,198.645239 C159.231268,198.2081 158.334515,197.586902 157.276805,196.896682 C156.219096,196.206463 154.977437,195.332184 153.781765,194.227833 C146.559501,188.138875 141.150288,180.179431 138.146059,171.220508 C136.121249,165.051929 135.248279,158.563164 135.570767,152.078414 C135.731722,145.176217 136.812426,137.721844 137.065356,129.945368 C137.408339,121.805927 136.190751,113.676045 133.478341,105.994744 C127.64841,89.3133875 115.442696,75.6275971 99.5396623,67.940629 C92.2170537,64.3704903 84.3541732,62.0382142 76.2700531,61.0384317 C68.9404014,60.2386128 61.5354754,60.4553953 54.2650965,61.6826368 C47.9180108,62.8402293 41.5061477,63.6085726 35.0653696,63.9833692 C29.7091609,64.0914632 24.3718558,63.3141021 19.268708,61.6826368 C12.9987809,59.7137054 7.15050881,56.5927768 2.02344428,52.479707 C1.33363373,51.9275312 0.850766344,51.4673847 0.528854754,51.1912969 L0,50.777165 Z" id="Path"></path>
                                    <path d="M39.342195,0 C41.941727,2.32766023 44.3916072,4.81741583 46.6771805,7.45437312 C49.410185,10.5049438 51.9083145,13.7582842 54.1501281,17.1864713 C57.2029577,21.7073278 59.4367607,26.730525 60.7493157,32.0261956 C61.095688,33.5411597 61.3338909,35.0788641 61.4621199,36.6276605 C61.4621199,38.2381732 61.4621199,39.8486859 61.4621199,41.4822059 C61.4621199,44.7722533 61.3241578,48.1773374 61.2551768,51.7204653 C61.1172147,58.7837139 60.8872778,66.3531237 61.0022462,74.2906506 C61.1408248,82.5772593 62.6962038,90.7789689 65.6009832,98.5403705 C68.7260563,106.880988 73.5494138,114.480716 79.7650932,120.857475 C86.0348807,127.189891 93.6618263,132.012665 102.068968,134.960965 C109.8778,137.761019 118.244255,138.644712 126.465267,137.537785 C134.306114,136.479449 141.549125,134.155709 148.539205,132.936321 C151.911278,132.285493 155.33717,131.954256 158.771395,131.947006 C161.939729,131.989579 165.096668,132.336278 168.198806,132.982335 C173.518667,134.153511 178.618157,136.165005 183.305657,138.941232 C186.840116,141.033319 190.086639,143.577937 192.963004,146.510642 C194.793253,148.344384 196.455456,150.338671 197.92964,152.469539 L199.010343,154.149074 L199.378242,154.747264 C199.230754,154.570551 199.092603,154.386241 198.964356,154.195088 C198.665438,153.803964 198.297539,153.251788 197.791678,152.561568 C193.836251,147.190438 188.829219,142.681436 183.07572,139.309349 C178.472002,136.58383 173.466564,134.603762 168.244793,133.442482 C165.179255,132.819316 162.060452,132.495693 158.932351,132.476174 C155.536827,132.496126 152.150268,132.827281 148.815129,133.465489 C141.917024,134.707885 134.651019,137.077639 126.741192,138.066954 C118.426595,139.264291 109.946662,138.46784 101.999987,135.743214 C93.476667,132.765072 85.7457959,127.878278 79.3971942,121.455666 C73.1041558,115.00312 68.2252561,107.308222 65.0721285,98.8624731 C62.1352704,91.0222454 60.5793111,82.7318472 60.4733915,74.3596726 C60.3584231,66.376131 60.6113536,58.8297286 60.7953031,51.7434726 C60.7953031,48.223352 60.9562589,44.8412753 61.0252399,41.5282206 C61.0252399,39.8716932 61.0252399,38.2841879 61.0252399,36.7196898 C60.9038308,35.1729213 60.6810796,33.6357952 60.3584231,32.1182249 C59.0801532,26.8741701 56.9017324,21.8919688 53.9201913,17.3935373 C51.7220353,13.9631558 49.2701818,10.7023328 46.5852058,7.63843171 C44.2858373,5.0846187 42.5843046,3.1980181 41.3426456,1.93261525 L39.9400308,0.483153813 L39.342195,0 Z" id="Path"></path>
                                    <path d="M61.2551768,38.8363636 C61.4161326,38.9744076 56.8173956,44.749246 50.9769996,51.7434726 C45.1366036,58.7376993 40.2619424,64.2824645 40.1009866,64.1444205 C39.9400308,64.0063766 44.5387678,58.2315381 50.3791638,51.2373115 C56.2195598,44.2430849 61.094221,38.6983197 61.2551768,38.8363636 Z" id="Path"></path>
                                    <path d="M57.300263,24.180698 C57.4612188,24.3417492 49.4364227,32.7164153 39.3881824,42.9316674 C29.339942,53.1469194 20.9932344,61.3375269 20.9932344,61.1074537 C20.9932344,60.8773804 28.8570746,52.5717363 38.905315,42.3794916 C48.9535553,32.1872469 57.1393072,24.0196467 57.300263,24.180698 Z" id="Path"></path>
                                    <path d="M49.1145111,10.5833692 C49.2754669,10.7214132 39.5261445,20.7295993 27.3624851,32.9004739 C15.1988258,45.0713486 5.21956649,54.8264541 5.05861069,54.6654028 C4.8976549,54.5043516 14.6469773,44.5191728 26.8106367,32.3482981 C38.974296,20.1774235 48.9535553,10.422318 49.1145111,10.5833692 Z" id="Path"></path>
                                    <path d="M136.490514,115.864886 C136.628476,116.025937 130.949036,121.133563 123.798,127.368548 C116.646964,133.603533 110.760581,138.366049 110.599625,138.204998 C110.438669,138.043947 116.141103,132.936321 123.292139,126.701336 C130.443175,120.466351 136.260577,115.680827 136.490514,115.864886 Z" id="Path"></path>
                                    <path d="M128.833617,95.7104696 C128.440446,96.2525532 127.993641,96.7535803 127.499983,97.2059457 C126.626223,98.1262387 125.315583,99.5066782 123.683031,101.002154 C120.394935,104.177165 115.796198,108.479535 110.576631,113.081 C105.357065,117.682464 100.482403,121.685739 96.9183822,124.584662 C95.1248747,125.988109 93.6762726,127.115467 92.6415568,127.874709 C92.1485274,128.319734 91.5997396,128.6987 91.0090051,129.002068 C91.4442357,128.501239 91.9296414,128.046383 92.4576073,127.644636 L96.5734769,124.147523 C100.045523,121.202585 104.82821,117.245325 110.047776,112.64386 C115.267343,108.042396 119.935061,103.832055 123.292139,100.772081 L127.29304,96.9758725 C127.761904,96.5023972 128.278139,96.0783704 128.833617,95.7104696 L128.833617,95.7104696 Z" id="Path"></path>
                                    <path d="M117.198812,80.2495476 C116.69159,80.7814714 116.137501,81.2665863 115.543267,81.699009 L110.94453,85.5182249 C106.989616,88.7392503 101.5861,93.2256786 95.7457042,98.3563119 C89.9053083,103.486945 84.7777165,108.295476 81.0757332,111.792589 L76.7069331,115.933908 C76.2030215,116.484778 75.6401293,116.978565 75.0283941,117.406377 C75.451257,116.797402 75.9367797,116.234479 76.4769962,115.726842 C77.442731,114.691512 78.8913331,113.196036 80.6848406,111.401465 C84.2948491,107.789315 89.3994472,102.911762 95.2398432,97.7581215 C101.080239,92.6044808 106.552736,88.1870745 110.599625,85.0810857 C112.623069,83.539595 114.278614,82.2971995 115.451292,81.4689358 C115.995693,81.0103609 116.580603,80.6022208 117.198812,80.2495476 L117.198812,80.2495476 Z" id="Path"></path>
                                    <path d="M97.953098,69.7582077 C97.6029989,70.2164394 97.2018539,70.6332602 96.7574264,71.0006032 L93.3313673,74.1526066 C90.434163,76.8214563 86.4332618,80.5026282 82.110449,84.6439466 C77.7876363,88.785265 73.9246972,92.6044808 71.1424613,95.3883671 L67.8313707,98.6784145 C67.4555901,99.1112437 67.0223512,99.4905526 66.5437243,99.8057734 C66.852006,99.3204267 67.2062051,98.8658584 67.6014338,98.4483412 C68.3372317,97.6200776 69.3949413,96.446704 70.7515687,94.9972426 C73.4188361,92.121327 77.2357878,88.2330892 81.5586006,84.0687635 C85.8814134,79.9044377 89.9742893,76.2922878 93.0554431,73.7384748 C94.5500326,72.473072 95.7686979,71.4377424 96.6424579,70.7705299 C97.044428,70.3901092 97.4835038,70.0509724 97.953098,69.7582077 L97.953098,69.7582077 Z" id="Path"></path>
                                    <path d="M83.0301964,61.5215855 C79.7281798,65.1334933 76.2358362,68.5664683 72.5680698,71.8058595 C69.0773782,75.241778 65.4005025,78.4830347 61.5540947,81.5149505 C64.8928367,77.9364387 68.4156454,74.5344126 72.1081961,71.3227057 C75.5757805,67.8675621 79.2214167,64.5960626 83.0301964,61.5215855 L83.0301964,61.5215855 Z" id="Path"></path>
                                    <path d="M165.117652,132.269108 C164.821321,132.700571 164.47389,133.09456 164.082936,133.442482 L161.001782,136.29539 C158.265534,138.849203 154.7475,142.093236 150.838573,145.682378 C146.929647,149.271521 143.480594,152.584576 140.767339,155.161396 L137.686186,158.014304 C137.324847,158.379967 136.923801,158.704081 136.490514,158.980612 C136.490514,158.980612 136.789432,158.520465 137.479242,157.784231 C138.169053,157.047997 139.134788,156.012667 140.376447,154.747264 C142.859765,152.216458 146.354805,148.788367 150.309719,145.107195 C154.264632,141.426023 157.943622,138.204998 160.633883,135.904265 C161.990514,134.753899 163.094208,133.856614 163.875993,133.235416 C164.23919,132.852923 164.657746,132.527187 165.117652,132.269108 L165.117652,132.269108 Z" id="Path"></path>
                                    <path d="M183.880499,139.355364 C184.018461,139.493408 174.683025,148.558294 162.887264,159.463766 C151.091504,170.369237 141.526131,179.158035 141.365175,178.996984 C141.204219,178.835933 150.562649,169.794054 162.35841,158.888583 C174.15417,147.983111 183.719543,139.194313 183.880499,139.355364 Z" id="Path"></path>
                                    <path d="M196.779956,146.579664 C196.940912,146.717708 186.82369,156.978975 174.200157,169.586988 C161.576624,182.195002 151.206472,192.088152 151.045517,191.9271 C150.884561,191.766049 161.001782,181.52779 173.648309,168.919776 C186.294836,156.311762 196.641994,146.418613 196.779956,146.579664 Z" id="Path"></path>
                                </g>
                                <g id="atom" transform="translate(745.8418, 693.2162)" fill="#E0E0E0" fill-rule="nonzero">

                                    <animateTransform
                                        attributeName="transform"
                                        type="translate"
                                        values="0,0; 0,-20; 0,0"
                                        dur="7s"
                                        repeatCount="indefinite"
                                        additive="sum"
                                        calcMode="spline"
                                        keySplines="0.4 0 0.2 1; 0.4 0 0.2 1"
                                        />
                                    <path d="M161.427285,130.653065 L161.864165,129.732772 L162.117095,129.226611 C162.117095,129.019545 162.255057,128.789472 162.347032,128.559399 C162.555544,128.00828 162.709571,127.438041 162.806906,126.856857 C162.806906,126.534754 162.944868,126.189644 162.990855,125.821527 L162.990855,124.671161 C163.025346,124.242384 163.025346,123.811527 162.990855,123.382751 C162.990855,122.922604 162.990855,122.462458 162.990855,121.979304 C162.731621,119.757044 162.190756,117.576837 161.381297,115.491238 C159.084651,109.778448 155.920232,104.454725 151.999874,99.7082139 C146.90672,93.3660052 141.25018,87.4981954 135.099515,82.1766327 C127.673824,75.6768784 119.797999,69.7107657 111.530988,64.3229489 C102.066749,58.1075114 92.1781565,52.5644623 81.9381157,47.734668 C76.5345997,45.2038623 70.8781532,42.8341079 64.9917698,40.6944267 C58.9853733,38.4901358 52.8404302,36.6839881 46.5968219,35.2877055 C40.1652473,33.7626955 33.5690901,33.0439525 26.9602149,33.1480243 C23.5882387,33.2148267 20.2462547,33.7967235 17.0499367,34.8735737 C15.4569475,35.431054 13.9482059,36.2052266 12.5661681,37.1743061 C11.2016686,38.1826475 10.0393565,39.4393136 9.14010904,40.8784853 C8.32178241,42.3726733 7.77670693,44.0010783 7.53055109,45.6870161 C7.35782523,47.3654251 7.4042023,49.059192 7.6685132,50.7256202 C8.28465893,54.0425356 9.40110704,57.2464702 10.9796038,60.2276452 C14.0749946,66.0519839 17.8913318,71.462957 22.3384842,76.3327723 C26.5929937,81.0974797 31.1473525,85.5853774 35.9737394,89.7690497 C40.5724764,93.8873608 45.493125,97.6835694 50.3447925,101.272712 C59.5239964,107.902746 69.1592809,113.876476 79.1788735,119.149403 C87.9059868,123.779182 96.9497932,127.784805 106.242441,131.136219 C113.896843,133.908927 121.784724,135.987943 129.810968,137.348197 C135.877804,138.4739 142.080671,138.667855 148.205916,137.92338 C150.425485,137.619192 152.596925,137.03155 154.667141,136.174823 C155.127015,136.013772 155.517908,135.760691 155.931794,135.576633 C156.317775,135.394535 156.687084,135.178977 157.035491,134.932428 L158.024219,134.288223 L158.828998,133.62101 C159.288457,133.255842 159.711938,132.847518 160.093651,132.401622 C160.254607,132.217563 160.415562,132.056512 160.553525,131.872453 L160.875436,131.412307 L161.496266,130.561036 L160.921424,131.435314 L160.599512,131.918468 L160.139638,132.447637 C159.761119,132.895706 159.345783,133.311288 158.897979,133.690032 L158.070207,134.357244 L157.104472,135.024457 C156.742717,135.262516 156.366417,135.477673 155.977781,135.668662 C155.563895,135.852721 155.173002,136.105801 154.713129,136.28986 C152.6387,137.162298 150.458595,137.757928 148.228909,138.061424 C142.108311,138.851843 135.901895,138.681065 129.833961,137.555263 C121.798636,136.224186 113.901879,134.160262 106.242441,131.3893 C96.9409373,128.050454 87.8891419,124.052385 79.1558798,119.425491 C69.1165608,114.17001 59.4653046,108.203595 50.2758115,101.571807 C45.4241439,98.0516865 40.5954701,94.255478 35.858771,90.068145 C31.0192587,85.882697 26.4568827,81.3867826 22.2005221,76.6088602 C17.7024706,71.6984448 13.8398464,66.2411842 10.7036796,60.3656891 C9.11733675,57.3451252 7.99343695,54.1032715 7.3695953,50.7486275 C7.09338238,49.0369287 7.04698448,47.2959752 7.23163319,45.5719795 C7.4671111,43.8407475 8.02890486,42.1699811 8.88717851,40.6484121 C9.80986469,39.1591562 11.0031068,37.8559559 12.4052123,36.8061889 C13.8321847,35.8434229 15.3780097,35.070052 17.0039493,34.5054565 C20.2407611,33.4322953 23.6200521,32.8506504 27.029196,32.7799071 C33.6686005,32.6722468 40.2956251,33.3909867 46.7577777,34.9195883 C53.0024677,36.330915 59.1474289,38.1524396 65.1527256,40.3723242 C71.039109,42.5120054 76.6495681,44.9737891 82.1220652,47.4355728 C92.3758285,52.2791812 102.272701,57.8456302 111.737931,64.0928757 C120.011386,69.4883981 127.887738,75.4702879 135.306458,81.9925741 C141.459463,87.3368262 147.116026,93.2277621 152.206817,99.5931773 C156.114957,104.369444 159.270846,109.715137 161.565247,115.445224 C162.35968,117.548577 162.885039,119.744026 163.128817,121.979304 C163.128817,122.462458 163.128817,122.945612 163.128817,123.405758 C163.163508,123.834527 163.163508,124.2654 163.128817,124.694168 C163.128817,125.1083 163.128817,125.499425 163.128817,125.867542 C163.128817,126.235659 162.990855,126.580769 162.921874,126.902871 C162.817677,127.484988 162.655926,128.055304 162.439007,128.605413 C162.439007,128.835487 162.301045,129.06556 162.20907,129.249618 L161.933146,129.778787 L161.427285,130.653065 Z" id="Path"></path>
                                    <path d="M173.889862,68.1421648 C173.889862,68.1421648 173.774893,67.8200622 173.590944,67.1528498 C173.590944,66.9917986 173.590944,66.80774 173.429988,66.600674 L173.177058,65.956469 C172.963139,65.4128963 172.701521,64.8893512 172.395272,64.3919709 C172.211323,64.115883 172.050367,63.7937805 171.843424,63.4946853 L171.13062,62.5743923 C170.87929,62.2252306 170.594336,61.9015785 170.279853,61.6080846 C169.973691,61.2556894 169.643311,60.9251139 169.291125,60.6187697 C167.606998,59.1194223 165.736768,57.8435096 163.726653,56.8225612 C158.218856,54.0966601 152.324931,52.2343164 146.251453,51.3008033 C138.220623,49.96901 130.086587,49.3607129 121.947128,49.4832247 C112.086887,49.5542026 102.244017,50.3230323 92.4922171,51.7839571 C81.2970777,53.4408481 70.2326606,55.8856896 59.3813107,59.1002863 C53.6558832,60.8258356 47.8844682,62.8044655 42.0440722,65.1282053 C36.1115484,67.4776131 30.3359157,70.2057591 24.7528211,73.2958055 C18.932796,76.4495357 13.5263071,80.3136042 8.65724166,84.7994677 C6.19486161,87.0982085 4.0871325,89.7499399 2.40295934,92.6679726 C1.60382173,94.1559305 1.00095614,95.7413248 0.609451914,97.3844741 C-0.148425402,100.745359 0.544440046,104.27021 2.51792777,107.093565 C3.51061421,108.466272 4.67778308,109.703741 5.9899742,110.774737 C8.65296885,112.843832 11.6146082,114.496196 14.7735619,115.675297 C20.9790345,117.960238 27.4434989,119.467189 34.0192762,120.161725 C40.3618585,120.884134 46.7441806,121.199213 53.1270284,121.105026 C59.3813107,121.105026 65.4976309,120.667886 71.5219764,120.046689 C82.7708747,118.930506 93.9273586,117.02386 104.908807,114.340872 C114.494841,111.939263 123.899609,108.863986 133.053077,105.137942 C140.622181,102.149213 147.903025,98.4758271 154.805103,94.1634487 C160.065474,90.9828183 164.804205,87.0095455 168.854245,82.3836986 C170.316226,80.6912753 171.545761,78.8110608 172.510241,76.7929188 C172.719216,76.3667505 172.903471,75.9288853 173.062089,75.4815013 C173.227335,75.092687 173.365624,74.6929477 173.475976,74.2851204 L173.774893,73.1347542 C173.774893,72.7896443 173.889862,72.4215271 173.935849,72.0994246 C174.038551,71.5226044 174.077108,70.9361795 174.050818,70.3508679 C174.062322,70.1209387 174.062322,69.8905775 174.050818,69.6606482 L174.050818,69.0854651 C174.050818,68.4182527 173.935849,68.0501355 173.935849,68.0501355 L174.073811,69.0854651 L174.073811,69.6606482 L174.073811,70.3508679 C174.138167,70.9319416 174.138167,71.518351 174.073811,72.0994246 C174.073811,72.4445345 174.073811,72.7896443 173.935849,73.1577615 C173.797887,73.5258787 173.728906,73.8939959 173.636931,74.3081277 C173.526552,74.7234472 173.388276,75.1308363 173.223045,75.5275159 C173.072607,75.9746511 172.896017,76.4125463 172.69419,76.8389334 C171.722999,78.8621872 170.50251,80.7558401 169.061188,82.4757279 C165.012645,87.1377104 160.265421,91.1426466 154.989053,94.3475073 C148.089795,98.684122 140.808831,102.380671 133.237027,105.391023 C124.07472,109.114374 114.662499,112.189575 105.069763,114.593953 C94.0699174,117.346159 82.8904773,119.321981 71.6139511,120.506835 C65.6585867,121.128033 59.5422665,121.49615 53.2190031,121.565172 C46.8204777,121.682723 40.4213252,121.367572 34.0652636,120.621872 C27.4512626,119.90995 20.9538074,118.36386 14.7275745,116.020407 C11.5280264,114.822094 8.52793634,113.146632 5.8290184,111.050825 C4.48261304,109.960143 3.29127678,108.690694 2.28799092,107.277624 C1.30873076,105.82673 0.614240908,104.20269 0.241552955,102.4921 C-0.0805176515,100.773861 -0.0805176515,99.0106835 0.241552955,97.2924448 C0.640880921,95.6083603 1.25932438,93.9839833 2.08104775,92.4609067 C3.77593335,89.4969409 5.90763311,86.8055278 8.40431112,84.4773651 C13.2718756,79.9896531 18.6786047,76.1254129 24.4998906,72.9737029 C30.1034222,69.8972397 35.9026178,67.1919049 41.8601228,64.8751247 C47.6775251,62.5743923 53.4949274,60.5497477 59.2203549,58.8472057 C70.10825,55.6287186 81.2117172,53.1914266 92.4462297,51.5538839 C102.211894,50.0791828 112.07104,49.3102822 121.947128,49.2531514 C130.096751,49.1388067 138.239755,49.7703023 146.274446,51.139752 C152.366632,52.0940614 158.276025,53.9796708 163.795634,56.7305319 C165.798809,57.7698766 167.661048,59.0610733 169.337112,60.572755 C169.705011,60.8718503 170.003929,61.2629748 170.325841,61.56207 C170.621789,61.8745362 170.898236,62.2049325 171.153613,62.5513849 C171.406544,62.8734875 171.659474,63.19559 171.866418,63.4946853 C172.073361,63.7937805 172.234317,64.115883 172.418266,64.4149782 C172.727055,64.9074536 172.981478,65.4320286 173.177058,65.9794763 C173.273845,66.1969422 173.35829,66.4197006 173.429988,66.6466887 L173.590944,67.1988645 C173.797887,67.8200622 173.889862,68.1421648 173.889862,68.1421648 Z" id="Path"></path>
                                    <path d="M127.948479,2.54828284 L126.982745,2.15715832 L126.45389,1.9500924 L125.787073,1.76603381 C125.225771,1.59137404 124.647808,1.47571287 124.062547,1.42092394 L123.004837,1.30588732 L121.832159,1.30588732 C121.411239,1.27325563 120.988427,1.27325563 120.567506,1.30588732 C120.096785,1.32674989 119.6281,1.38056524 119.164892,1.46693859 C116.967942,1.89347125 114.829732,2.58088491 112.795641,3.51459046 C107.271796,6.21612968 102.192904,9.74630758 97.7347772,13.9829231 C91.7520862,19.4989964 86.2873796,25.552246 81.4092609,32.0666801 C75.4667893,39.9281415 70.0881441,48.2007919 65.3136814,56.8225612 C59.7612553,66.6906795 54.9128365,76.9391358 50.8046662,87.4913246 C48.6662535,93.0590971 46.6658029,98.8799502 44.9412765,104.884862 C43.1710285,111.019055 41.7886708,117.258723 40.8024133,123.566809 C39.7306007,130.097519 39.4757091,136.736361 40.0436216,143.330101 C40.3164804,146.678836 41.0916226,149.967389 42.3429901,153.085207 C43.0189842,154.638073 43.9006481,156.092908 44.9642702,157.410584 C46.0772607,158.696059 47.4180782,159.764669 48.919184,160.562587 C50.4486238,161.291386 52.1032098,161.720896 53.7938453,161.82799 C55.4865646,161.897995 57.1808837,161.735429 58.8294623,161.344836 C62.0760218,160.505001 65.1769291,159.178577 68.0269363,157.410584 C73.6383948,153.909424 78.790579,149.720308 83.3637241,144.940614 C87.8467647,140.382534 92.0325683,135.541029 95.8952825,130.445999 C99.6662468,125.45341 103.1153,120.368791 106.288428,115.30718 C112.257337,105.68174 117.54355,95.6488914 122.108083,85.2826215 C126.119759,76.2665464 129.492821,66.9793573 132.202311,57.4897736 C134.452998,49.6689292 135.99218,41.6604379 136.801048,33.5621562 C137.514423,27.4277231 137.281773,21.2200412 136.111237,15.1562966 C135.658627,12.9619178 134.924409,10.8352901 133.926837,8.82928241 C133.720584,8.40985444 133.490263,8.00271205 133.237027,7.60989421 C133.031742,7.22912916 132.793212,6.86727203 132.524223,6.52854996 L131.811418,5.60825699 C131.581482,5.30916177 131.328551,5.07908853 131.098614,4.82600796 C130.704529,4.39632408 130.265086,4.01061886 129.787974,3.67564173 C129.581031,3.51459046 129.420075,3.35353919 129.236126,3.23850257 L128.753258,2.93940735 L127.879498,2.41023889 L128.776252,2.91640003 L129.259119,3.19248792 C129.443069,3.30752454 129.627018,3.46857582 129.833961,3.62962709 C130.311073,3.96460421 130.750517,4.35030943 131.144602,4.77999331 C131.374538,5.01006655 131.650463,5.26314712 131.880399,5.53923501 L132.616197,6.48253532 C132.88263,6.81499064 133.121049,7.16898284 133.329002,7.54087224 C133.585956,7.93142789 133.816411,8.33880696 134.018812,8.76026043 C135.0631,10.7656318 135.836328,12.9010088 136.318181,15.110282 C137.508462,21.1708605 137.764358,27.3780633 137.076972,33.5161415 C136.268857,41.6371906 134.729698,49.6686644 132.478235,57.5127809 C129.784266,67.0193351 126.418716,76.3223744 122.407001,85.3516435 C117.857064,95.7397531 112.570356,105.788919 106.587346,115.422216 C103.437211,120.506835 99.9881584,125.591454 96.1942004,130.584043 C92.359997,135.717735 88.1889428,140.590695 83.7086294,145.170687 C79.1175773,149.978476 73.9419164,154.191026 68.3028605,157.709679 C65.4019919,159.501362 62.246769,160.843321 58.9444307,161.689946 C57.2580361,162.089097 55.5256262,162.259346 53.7938453,162.196107 C50.2090261,162.058349 46.8574037,160.381544 44.5963713,157.594642 C43.4962619,156.256235 42.5905654,154.769082 41.9061101,153.177236 C40.6048731,150.021015 39.7907917,146.68518 39.4917732,143.284086 C38.9193887,136.666687 39.1820499,130.003504 40.2735585,123.451773 C41.2404646,117.122969 42.6308761,110.866249 44.4354155,104.723811 C46.1599418,98.6958916 48.1373988,92.8750385 50.2988051,87.2842587 C54.4319462,76.8020069 59.2955739,66.6230767 64.8538077,56.8225612 C69.6812568,48.1944846 75.1056621,39.9146689 81.0873493,32.0436728 C86.0000209,25.5367425 91.4869,19.4845052 97.4818467,13.9599158 C101.978871,9.73077086 107.096842,6.21589754 112.657679,3.53759779 C114.693575,2.5931215 116.841708,1.9127336 119.049923,1.51295324 C119.532791,1.51295324 120.015658,1.51295324 120.452538,1.35190197 C120.881113,1.31872538 121.311609,1.31872538 121.740184,1.35190197 L122.935856,1.35190197 L123.970572,1.46693859 C124.55342,1.54851892 125.12972,1.67153593 125.695098,1.83505578 L126.361915,2.0421217 L126.913763,2.24918762 L127.948479,2.54828284 Z" id="Path"></path>
                                    <path d="M6.56481632,138.590592 C8.05777769,139.613535 8.44416812,141.651226 7.42942608,143.150248 C6.41468404,144.64927 4.38018969,145.046231 2.87692292,144.038512 C1.37365614,143.030793 0.966604005,140.997134 1.96607933,139.487878 C2.44836338,138.74813 3.20943579,138.235288 4.07582651,138.066241 C4.94221723,137.897195 5.84009803,138.08635 6.56481632,138.590592 Z" id="Path"></path>
                                    <path d="M168.50934,2.64031214 C168.772417,3.94568734 168.223131,5.28101257 167.117922,6.02287541 C166.012714,6.76473825 164.569561,6.76682246 163.462216,6.028155 C162.354872,5.28948755 161.801736,3.95575445 162.061046,2.64962481 C162.320356,1.34349516 163.34097,0.32257453 164.646401,0.0634917996 C166.423663,-0.289233093 168.151176,0.863125646 168.50934,2.64031214 L168.50934,2.64031214 Z" id="Path"></path>
                                    <path d="M29.0066529,145.14768 C29.0641569,145.43948 28.9617115,145.739811 28.7379068,145.93554 C28.5141022,146.13127 28.2029396,146.192662 27.9216309,146.096592 C27.6403223,146.000521 27.4316051,145.761583 27.3741012,145.469782 C27.2852079,145.018698 27.5786046,144.580917 28.0294213,144.491971 C28.4802379,144.403025 28.9177594,144.696596 29.0066529,145.14768 L29.0066529,145.14768 Z" id="Path"></path>
                                    <path d="M28.5697728,51.3698253 C28.6586662,51.8209093 28.3652694,52.2586903 27.9144528,52.3476364 C27.4636362,52.4365826 27.0261147,52.1430118 26.9372212,51.6919278 C26.8901139,51.4718167 26.9345708,51.2420016 27.0603597,51.0553763 C27.1861487,50.868751 27.3824337,50.7413923 27.6040381,50.7026129 C27.8205945,50.6623763 28.0442479,50.7101571 28.2254978,50.8353801 C28.4067477,50.9606031 28.5306468,51.1529413 28.5697728,51.3698253 L28.5697728,51.3698253 Z" id="Path"></path>
                                    <path d="M165.037293,69.9137288 C165.077506,70.1304137 165.029753,70.3541997 164.904605,70.5355571 C164.779456,70.7169146 164.587232,70.8408871 164.370476,70.8800364 C164.156607,70.9273065 163.932721,70.8853139 163.750481,70.7637485 C163.568241,70.6421831 163.443391,70.4515474 163.404742,70.2358313 C163.357178,70.019054 163.398552,69.7922452 163.519587,69.6062598 C163.640622,69.4202744 163.831191,69.2906736 164.048565,69.2465164 C164.268545,69.1993811 164.498224,69.2438644 164.684739,69.3697279 C164.871254,69.4955915 164.998537,69.6919929 165.037293,69.9137288 L165.037293,69.9137288 Z" id="Path"></path>
                                    <path d="M168.831251,29.4668524 C168.878493,29.6808489 168.836526,29.9048679 168.715032,30.087216 C168.593539,30.2695641 168.403016,30.3944876 168.187428,30.43316 C167.970779,30.4807522 167.744105,30.4393537 167.55823,30.3182469 C167.372355,30.1971402 167.242831,30.006458 167.1987,29.788955 C167.151592,29.5688438 167.196049,29.3390287 167.321838,29.1524034 C167.447627,28.9657781 167.643912,28.8384195 167.865516,28.79964 C168.082073,28.7594035 168.305726,28.8071842 168.486976,28.9324072 C168.668226,29.0576302 168.792125,29.2499685 168.831251,29.4668524 L168.831251,29.4668524 Z" id="Path"></path>
                                    <ellipse id="Oval" transform="translate(87.0001, 85.2377) rotate(-62.72) translate(-87.0001, -85.2377)" cx="87.0001451" cy="85.2376885" rx="15.9880996" ry="15.9826029"></ellipse>
                                </g>
                                <path d="M729.389906,266.447824 C722.421293,248.1454 711.742944,231.483875 698.02652,217.511245 C674.32003,193.261525 647.302451,171.841706 616.743843,156.794916 C586.185236,141.748126 536.265946,128.403878 500.004905,128.610944 C481.242058,127.874709 471.768659,129.048083 454.707345,135.651185 C444.061269,139.769496 435.116726,149.271521 434.380928,160.522103 C433.691117,170.944421 440.129349,183.7595 448.728987,189.833434 C485.702833,215.92374 513.709141,217.281172 549.579289,228.761827 C585.449438,240.242482 622.331309,257.244894 641.668998,289.179061 C652.177112,306.480569 658.15547,328.659629 676.366468,337.839552 C694.025618,346.766394 717.295228,338.11564 728.125253,321.734425 C738.955279,305.35321 736.379986,284.738647 729.389906,266.447824 Z" id="Path" fill="#F5F5F5" fill-rule="nonzero"></path>
                                <g id="planet" transform="translate(139.4394, 703.0959)" fill-rule="nonzero">

                                    <animateTransform
                                        attributeName="transform"
                                        type="translate"
                                        values="0,0; 0,-12; 0,0"
                                        dur="5s"
                                        repeatCount="indefinite"
                                        additive="sum"
                                        calcMode="spline"
                                        keySplines="0.4 0 0.2 1; 0.4 0 0.2 1"
                                    />
                                    <ellipse id="Oval" fill="#EBEBEB" transform="translate(81.3112, 59.4286) rotate(-30.39) translate(-81.3112, -59.4286)" cx="81.3111727" cy="59.4286493" rx="43.4186689" ry="43.4312398"></ellipse>
                                    <g id="Group" opacity="0.3" transform="translate(56.2237, 47.5808)" fill="#FFFFFF">
                                        <path d="M10.436577,13.3274798 C7.91141113,14.6862102 4.81663533,14.3874617 2.59764033,12.5707625 C0.378645332,10.7540633 -0.52671082,7.77788935 0.30441134,5.03223928 C1.1355335,2.28658921 3.53913471,0.313242046 6.39263196,0.0338340607 C9.2461292,-0.245573925 11.9864627,1.2240908 13.3337813,3.75643289 C15.1663313,7.20078769 13.8711712,11.4794083 10.436577,13.3274798 Z" id="Path"></path>
                                    </g>
                                    <g id="Group" opacity="0.3" transform="translate(73.8872, 34.5815)" fill="#FFFFFF">
                                        <path d="M6.04039649,7.75990698 C4.03410593,8.82124639 1.54781224,8.05738559 0.482481638,6.05235596 C-0.582848968,4.04732633 0.174827668,1.55780422 2.17620843,0.487224208 C4.17758919,-0.583355804 6.66737479,0.169031514 7.74192918,2.16912715 C8.79634439,4.18490469 8.03870152,6.67431585 6.04039649,7.75990698 L6.04039649,7.75990698 Z" id="Path"></path>
                                    </g>
                                    <path d="M52.0822625,27.3406279 C51.5074204,27.8697964 2.27794084,11.8566986 0.0935407642,23.9355439 C-2.09085931,36.0143892 34.308144,62.518827 75.1909159,79.7973276 C116.073688,97.0758283 160.819399,108.878586 164.63635,97.0298136 C168.453302,85.1810415 124.69632,59.6659187 124.69632,59.6659187 L124.236446,65.785867 C124.236446,65.785867 151.300013,80.8786719 149.529499,91.2319679 C147.758986,101.585264 114.211199,92.8194732 77.1683728,74.9887968 C40.1255463,57.1581204 9.9808253,36.8886676 13.4988591,29.3652725 C17.0168929,21.8418774 47.6214876,32.1031441 47.6214876,32.1031441 L52.0822625,27.3406279 Z" id="Path" fill="#E0E0E0"></path>
                                    <g id="Group" opacity="0.3" transform="translate(43.2879, 19.3541)" fill="#FFFFFF">
                                        <path d="M53.6550286,4.58142219 C53.4480854,5.08758333 49.8610706,3.68413654 43.8597188,3.10895343 C28.0562092,1.36275967 12.7252314,9.17290824 4.83943538,22.9872817 C1.78127528,28.1869371 0.815540512,31.9141236 0.240698387,31.7760797 C-0.334143737,31.6380357 -0.0122321475,27.7037832 2.67802899,21.8829302 C4.27523627,18.4812017 6.37594731,15.3399004 8.90931762,12.5649638 C12.0175298,9.12723639 15.7167627,6.27518933 19.831318,4.14428303 C23.9734636,2.07064603 28.449545,0.746497839 33.0526868,0.233037873 C36.7860281,-0.186398672 40.5612771,-0.0390223253 44.2506114,0.670177037 C50.4819001,2.00460185 53.8159844,4.25931965 53.6550286,4.58142219 Z" id="Path"></path>
                                    </g>
                                </g>
                                <g id="vial" transform="translate(98.1937, 41.3455)" fill-rule="nonzero">

                                    <animateTransform
                                        attributeName="transform"
                                        type="translate"
                                        values="0,0; 0,-18; 0,0"
                                        dur="8s"
                                        repeatCount="indefinite"
                                        additive="sum"
                                        calcMode="spline"
                                        keySplines="0.4 0 0.2 1; 0.4 0 0.2 1"
                                    />
                                    <path d="M75.7607402,34.2796019 L78.0601087,44.5868832 C78.9356597,48.6538018 77.6283707,52.8832103 74.6110559,55.7454356 L5.44605154,121.247288 C1.46217343,125.000098 -0.514436875,130.416304 0.115144716,135.854764 C0.744726307,141.293225 3.9064048,146.113893 8.64217375,148.856078 L52.3301752,174.164134 C57.367203,177.058386 63.474495,177.40215 68.8041512,175.091413 C74.1338074,172.780676 78.0596189,168.086939 79.3937424,162.430399 L100.708888,69.9869694 C101.682219,65.7461152 104.892125,62.3754793 109.07859,61.1981715 L117.885171,58.7133804 L75.7607402,34.2796019 Z" id="Path" fill="#F5F5F5"></path>
                                    <path d="M88.7751659,107.074776 C83.8808074,105.556107 79.4402837,102.844358 75.8527149,99.1832641 C72.4266559,95.6401361 69.8743568,91.3377665 66.6552409,87.6796019 C63.436125,84.0214373 59.0673249,80.7774046 54.1466763,80.5703386 L10.9875296,122.788779 C7.7008018,126.000436 6.10454593,130.565442 6.67325391,135.126838 C7.24196189,139.688233 9.91016579,143.720922 13.8847339,146.026177 L52.9739984,168.803428 C56.9341262,171.1097 61.7419054,171.438648 65.9789216,169.693225 C70.2159378,167.947801 73.3986438,164.327202 74.5880623,159.899593 L88.7751659,107.074776 Z" id="Path" fill="#E0E0E0"></path>
                                    <g id="Group" opacity="0.3" transform="translate(17.0103, 89.1054)" fill="#FFFFFF">
                                        <path d="M4.76127116,54.9881191 C4.76127116,55.1261631 3.65757428,54.7350385 2.46190266,53.2855771 C0.823321528,51.097644 -0.0421372493,48.4268887 0.00157837167,45.69316 C-0.00787871301,43.8097017 0.319175283,41.9397131 0.967313141,40.1714022 C1.69950505,38.1896438 2.69735689,36.3165943 3.9334985,34.6036297 C6.79680154,30.9288551 9.91640498,27.4614272 13.2689346,24.2273263 C26.9041898,10.2618804 38.424026,-0.574569388 39.0448555,0.0236210471 C39.665685,0.621811482 29.0885899,12.4015616 15.4533347,26.3670075 C12.2127658,29.4976416 9.14252208,32.8001114 6.25586068,36.260157 C5.09848882,37.7558422 4.12572272,39.3858056 3.35865638,41.1147025 C2.73545068,42.5783087 2.34743232,44.1313028 2.20897213,45.7161674 C1.98514819,48.0920936 2.43122985,50.4832343 3.49661849,52.6183647 C4.20942272,54.0908335 4.92222696,54.8040605 4.76127116,54.9881191 Z" id="Path"></path>
                                    </g>
                                    <path d="M83.1877004,113.585849 C82.6248116,113.601921 82.0618735,113.555625 81.5091614,113.447805 C80.4284582,113.447805 78.8878813,113.102695 76.9104244,112.711571 C74.6569467,112.234591 72.4765661,111.460948 70.4262053,110.410838 C69.2165839,109.773631 68.0827148,109.001834 67.0461336,108.110106 C65.9640372,107.168263 64.9710999,106.128526 64.0799482,105.004117 C62.2864408,102.703385 60.883826,100.172579 59.4812112,98.1019199 C58.2174498,96.2614496 56.664482,94.6376356 54.8824742,93.2933891 C53.6688689,92.3929774 52.2837615,91.7509086 50.812592,91.4067885 C49.7778762,91.1767152 49.1800404,91.1767152 49.1800404,91.1076932 C49.1800404,91.0386713 49.3180025,91.1076932 49.6169204,91.1076932 C50.0304128,91.0821403 50.445087,91.0821403 50.8585794,91.1076932 C52.3969685,91.3898631 53.8560257,92.0020888 55.1354048,92.9022645 C57.017742,94.2222617 58.6589304,95.8566408 59.9870723,97.7338027 C61.5276492,99.7814545 62.9532577,102.335268 64.7237714,104.636 C65.5648204,105.773747 66.5202201,106.822226 67.5749883,107.764996 C68.5598474,108.658881 69.6483283,109.431311 70.8170979,110.065729 C72.8158795,111.086117 74.9315943,111.858734 77.1173676,112.366461 C79.0028498,112.8036 80.5434267,113.079688 81.6011362,113.286754 C82.1354646,113.354795 82.6652605,113.454671 83.1877004,113.585849 Z" id="Path" fill="#FAFAFA"></path>
                                    <path d="M166.493821,22.8449617 C165.471188,18.2754629 162.964636,14.1736061 159.365779,11.1802482 C153.603109,5.43357111 146.191977,1.62929243 138.165601,0.297783711 C129.543367,-0.8932042 120.811379,1.51991844 114.022232,6.9699078 C107.467382,12.1998829 103.466138,19.9893493 103.031251,28.3667195 C102.249465,33.7964481 107.905912,38.3749056 113.355415,38.6509935 C118.804918,38.9270814 123.955504,36.3502611 128.853159,33.8884774 C133.750814,31.4266937 139.15433,29.1489685 144.534852,30.1612908 C149.915374,31.1736131 155.111947,35.5450047 160.423488,33.9574994 C164.861269,32.7381112 167.206625,27.4234192 166.493821,22.8449617 Z" id="Path" fill="#F5F5F5"></path>
                                    <path d="M202.570913,13.8721051 C202.249001,9.6157501 198.960904,2.87460405 191.07407,3.863919 C187.854954,3.863919 184.382908,7.84418612 183.555135,10.9731822 C182.793635,14.1848933 183.89486,17.5527296 186.406352,19.6929582 C188.975868,21.7923096 192.372275,22.5824427 195.603826,21.8326394 C199.351797,21.027383 202.869831,17.7143283 202.570913,13.8721051 Z" id="Path" fill="#F5F5F5"></path>
                                </g>
                                <g id="phone" transform="translate(0, 388.3626)" fill-rule="nonzero">

                                    <animateTransform
                                        attributeName="transform"
                                        type="translate"
                                        values="0,0; 0,-16; 0,0"
                                        dur="9s"
                                        repeatCount="indefinite"
                                        additive="sum"
                                        calcMode="spline"
                                        keySplines="0.4 0 0.2 1; 0.4 0 0.2 1"
                                    />
                                    <path d="M1.66277016,10.7684329 L0.467098543,13.966451 C-0.27128602,15.9702634 -0.129319395,18.1929412 0.857991188,20.0863993 L65.907126,144.671061 C66.863067,146.502518 68.5236968,147.865042 70.505863,148.444262 L74.1848526,149.433577 C75.014339,149.666328 75.8781439,149.751981 76.7371516,149.686658 L152.616312,143.704753 C156.362605,143.399875 159.308395,140.373737 159.514418,136.618498 L159.514418,136.618498 C159.585729,135.244657 159.283783,133.877144 158.640657,132.661238 L89.6596026,3.95826487 C88.2459805,1.32988358 85.4131459,-0.213753557 82.4395855,0.0240123948 L8.21597038,5.89088012 C5.26253048,6.08444665 2.6973386,7.99372126 1.66277016,10.7684329 L1.66277016,10.7684329 Z" id="Path" fill="#E0E0E0"></path>
                                    <polygon id="Path" fill="#FAFAFA" points="6.42246295 8.99686892 75.4495052 138.113974 153.651028 131.948011 85.1528403 2.80789865"></polygon>
                                    <path d="M83.4053202,106.962056 C89.2544212,104.57687 95.9312294,107.359727 98.3583936,113.194415 C100.785558,119.029102 98.0540355,125.730363 92.2410016,128.20225 C86.4279678,130.674138 79.7105698,127.990861 77.1970253,122.192905 C75.9659295,119.353155 75.9305305,116.136803 77.0988271,113.270613 C78.2671237,110.404424 80.5405197,108.130284 83.4053202,106.962056 L83.4053202,106.962056 Z" id="Path" fill="#E0E0E0"></path>
                                    <path d="M88.0730383,112.207726 L87.7741204,114.301393 C87.7252874,114.558721 87.8719442,114.813077 88.1190257,114.899583 L88.5099183,115.060635 C88.5099183,115.060635 89.2227225,115.2677 88.9927857,115.911906 C88.7628488,116.556111 87.659152,119.247968 87.659152,119.247968 C87.659152,119.247968 87.3602341,120.030217 86.7853919,119.754129 L86.2105498,119.524055 C86.0040762,119.454058 85.7758327,119.518004 85.6357077,119.685107 L84.1871055,121.502685 C84.029325,121.697073 84.029325,121.97551 84.1871055,122.169898 L84.738954,122.676059 C84.8286055,122.785244 84.948651,122.865322 85.0838593,122.906132 C85.444118,123.01223 85.8272974,123.01223 86.1875561,122.906132 C88.2166022,121.725329 89.6715325,119.762088 90.211451,117.476404 C91.45311,113.864254 90.211451,112.506822 90.0045078,112.161712 C89.7501459,111.891027 89.4078092,111.719758 89.0387731,111.678558 L88.6938678,111.678558 C88.5413001,111.665853 88.3899703,111.714569 88.2734276,111.813905 C88.156885,111.913241 88.0847585,112.05499 88.0730383,112.207726 L88.0730383,112.207726 Z" id="Path" fill="#FFFFFF"></path>
                                    <path d="M113.756984,121.732759 C108.993514,117.577719 108.474538,110.354734 112.595008,105.560622 C116.715478,100.766509 123.930531,100.198697 128.749384,104.289299 C133.568237,108.379901 134.184189,115.595255 130.128488,120.444348 C128.145792,122.814908 125.293048,124.287306 122.213226,124.529682 C119.133405,124.772059 116.085686,123.764019 113.756984,121.732759 L113.756984,121.732759 Z" id="Path" fill="#E0E0E0"></path>
                                    <path d="M116.28629,115.221686 L118.309734,114.554473 C118.55951,114.479275 118.722556,114.239359 118.700627,113.97929 L118.700627,113.565158 C118.659652,113.385047 118.692539,113.196017 118.791931,113.040354 C118.891322,112.884692 119.048925,112.775388 119.229481,112.736895 C119.712349,112.736895 122.816496,112.460807 122.816496,112.460807 C122.816496,112.460807 123.644269,112.460807 123.667263,113.03599 L123.667263,113.63418 C123.684141,113.851418 123.844252,114.030472 124.058155,114.07132 L126.357524,114.577481 C126.602328,114.626799 126.846473,114.489997 126.932366,114.255378 L127.162303,113.542151 C127.196373,113.406212 127.196373,113.263959 127.162303,113.128019 C127.090508,112.766122 126.932782,112.42681 126.702429,112.138704 C124.743438,110.828128 122.329898,110.386771 120.03426,110.919316 C116.263296,111.40247 115.435523,113.082005 115.435523,113.473129 C115.321337,113.824523 115.321337,114.203079 115.435523,114.554473 L115.642467,114.922591 C115.76258,115.158796 116.028445,115.282307 116.28629,115.221686 Z" id="Path" fill="#FFFFFF"></path>
                                    <path d="M80.3701538,57.2202209 C83.2903518,55.1725691 84.1641119,51.054258 82.1636613,46.6368517 C79.5653749,40.8620133 72.9661873,36.8127242 67.585665,37.5719659 C62.2051427,38.3312076 59.8827805,43.6689068 62.5040606,49.4207379 C64.5622923,53.8402787 68.5107263,57.0888827 73.2421115,58.2555505 C59.19297,62.8570154 67.4247092,78.9621425 67.4247092,78.9621425 L105.916138,75.948183 C105.916138,75.948183 96.3507649,57.2662356 80.3701538,57.2202209 Z" id="Path" fill="#EBEBEB"></path>
                                    <path d="M125.782682,89.0853653 C125.782682,89.706563 111.986471,91.2710611 94.8561754,92.6284932 C77.7258801,93.9859254 63.791707,94.5841158 63.7456053,93.9859254 C63.6997322,93.3877349 77.5419306,91.6851929 94.6722259,90.4427974 C111.802521,89.2004019 125.736694,88.4871748 125.782682,89.0853653 Z" id="Path" fill="#EBEBEB"></path>
                                </g>
                                <g id="sparkles" transform="translate(53.5595, 15.4839)" fill-rule="nonzero">

                                    <animate
                                        attributeName="opacity"
                                        values="0.4;1;0.4"
                                        dur="2s"
                                        repeatCount="indefinite"
                                        calcMode="spline"
                                        keySplines="0.4 0 0.2 1; 0.4 0 0.2 1"
                                    />
                                    <path d="M133.501335,291.870918 L135.15688,294.631797 C137.012123,297.724067 139.71829,300.216175 142.951739,301.810082 L145.848944,303.236536 L143.089702,304.916071 C139.993246,306.772035 137.495088,309.479313 135.892678,312.715554 L134.46707,315.591469 L132.811524,312.853598 C130.948451,309.753674 128.234986,307.254209 124.993672,305.652305 L122.119461,304.225851 L124.878703,302.569324 C127.969942,300.703749 130.460145,297.988456 132.052733,294.746833 L133.501335,291.870918 Z" id="Path" fill="#2FEAD4"></path>
                                    <path d="M730.348416,594.854373 L732.003961,597.615252 C733.864861,600.70863 736.568913,603.206773 739.79882,604.816545 L742.696025,606.242999 L739.936782,607.899526 C736.838697,609.763705 734.340713,612.478779 732.739759,615.722016 L731.314151,618.597932 L729.658605,615.837053 C727.790788,612.74932 725.08858,610.252881 721.863746,608.63576 L718.966542,607.209306 L721.725784,605.552779 C724.822239,603.696815 727.320398,600.989537 728.922807,597.753296 L730.348416,594.854373 Z" id="Path" fill="#2FEAD4"></path>
                                    <path d="M406.160451,25.9292546 L407.815997,28.6901336 C409.670861,31.7884258 412.376534,34.2880661 415.610856,35.8914261 L418.50806,37.3178802 L415.748818,38.9744076 C412.676646,40.7991413 410.181909,43.4548607 408.551795,46.6358466 L407.126186,49.5347695 L405.470641,46.7738906 C403.607567,43.6739673 400.894103,41.174502 397.652788,39.572598 L394.778577,38.1461439 L397.53782,36.4896165 C400.623314,34.6272118 403.112441,31.9210754 404.711849,28.6901336 L406.160451,25.9292546 Z" id="Path" fill="#2FEAD4"></path>
                                    <path d="M794.247866,285.912021 L795.903412,288.6729 C797.766485,291.772823 800.47995,294.272288 803.721265,295.874192 L806.595475,297.300646 L803.836233,298.957174 C800.750738,300.819578 798.261611,303.525715 796.662203,306.756657 L795.236595,309.655579 L793.58105,306.894701 C791.717976,303.794777 789.004512,301.295312 785.763197,299.693408 L782.888986,298.266954 L785.625235,296.610427 C788.716779,294.748423 791.213441,292.042767 792.822258,288.810944 L794.247866,285.912021 Z" id="Path" fill="#2FEAD4"></path>
                                    <path d="M196.36607,398.187764 L197.561741,400.189401 C198.922895,402.446972 200.901714,404.267288 203.264175,405.435071 L205.379594,406.470401 L203.35615,407.689789 C201.099918,409.05175 199.280681,411.031743 198.11359,413.395605 L197.078874,415.489272 L195.860209,413.487635 C194.499055,411.230064 192.520236,409.409748 190.157775,408.241965 L188.065349,407.206635 L190.0658,405.987247 C192.327847,404.632418 194.14886,402.650492 195.30836,400.28143 L196.36607,398.187764 Z" id="Path" fill="#2FEAD4"></path>
                                    <path d="M251.274989,656.007841 L252.493655,658.032486 C253.855398,660.269789 255.825238,662.073222 258.173095,663.232141 L260.288514,664.267471 L258.26507,665.486859 C256.008838,666.84882 254.189601,668.828813 253.022509,671.192676 L251.987794,673.286342 L250.769128,671.284705 C249.414167,669.030403 247.443679,667.210413 245.089688,666.039035 L242.974269,664.980698 L244.997713,663.784317 C247.253945,662.422356 249.073183,660.442363 250.240274,658.078501 L251.274989,656.007841 Z" id="Path" fill="#2FEAD4"></path>
                                    <path d="M776.220817,207.687118 L777.416489,209.688755 C778.770515,211.952143 780.751266,213.774237 783.118923,214.934425 L785.234342,215.992762 L783.210898,217.189143 C780.954666,218.551104 779.135428,220.531097 777.968337,222.894959 L776.933622,225.011633 L775.714956,222.986988 C774.353803,220.729418 772.374983,218.909102 770.012522,217.741318 L767.920097,216.705989 L769.920548,215.486601 C772.182594,214.131772 774.003608,212.149846 775.163108,209.780784 L776.220817,207.687118 Z" id="Path" fill="#2FEAD4"></path>
                                    <path d="M88.7096366,343.798449 L89.9053083,345.800086 C91.2630486,348.066159 93.2421952,349.894762 95.6077421,351.068763 L97.7231611,352.104093 L95.6997169,353.300474 C93.4531479,354.674233 91.6368076,356.651073 90.4571567,359.00629 L89.4224409,361.122964 L88.2037756,359.09832 C86.8426218,356.840749 84.8638025,355.020433 82.5013417,353.85265 L80.4089164,352.81732 L82.4093669,351.597932 C84.6714136,350.243103 86.4924269,348.261177 87.6519271,345.892115 L88.7096366,343.798449 Z" id="Path" fill="#2FEAD4"></path>
                                    <path d="M834.348853,220.157087 L835.038664,221.307454 C835.81935,222.595883 836.952354,223.633755 838.303767,224.298406 L839.522432,224.896596 L838.372748,225.586816 C837.056232,226.353454 835.993052,227.489252 835.314588,228.853856 L834.716752,230.073244 L834.026941,228.922878 C833.253775,227.622607 832.119331,226.575421 830.761838,225.908919 L829.566167,225.310728 L830.715851,224.620508 C832.003517,223.839359 833.040773,222.705683 833.70503,221.353468 L834.348853,220.157087 Z" id="Path" fill="#2FEAD4"></path>
                                    <path d="M791.373656,551.37053 L792.063466,552.543903 C792.844153,553.832333 793.977156,554.870205 795.32857,555.534856 L796.524241,556.133046 L795.374557,556.823266 C794.080033,557.603016 793.034995,558.736478 792.362384,560.090306 L791.764548,561.309694 L791.074738,560.136321 C790.294051,558.847891 789.161048,557.810019 787.809635,557.145368 L786.613963,556.547178 L787.763647,555.856958 C789.058171,555.077208 790.103209,553.943746 790.77582,552.589918 L791.373656,551.37053 Z" id="Path" fill="#2FEAD4"></path>
                                    <path d="M494.019322,0 L494.709132,1.15036622 C495.489819,2.43879585 496.622822,3.47666765 497.974236,4.1413184 L499.192901,4.73950883 L498.043217,5.45273589 C496.735991,6.21354427 495.680659,7.34149899 495.00805,8.69676863 L494.410214,9.91615683 L493.720404,8.76579061 C492.928741,7.46393374 491.779277,6.41762075 490.409313,5.75183111 L489.259629,5.22266265 L490.432307,4.53244291 C491.719973,3.75129314 492.757229,2.61761779 493.421486,1.26540284 L494.019322,0 Z" id="Path" fill="#2FEAD4"></path>
                                    <path d="M362.334488,58.7376993 L363.024298,59.8880655 C363.79118,61.1768755 364.907326,62.2218885 366.243414,62.902025 L367.439086,63.5002154 L366.289402,64.1904352 C365.001736,64.9715849 363.964479,66.1052603 363.300223,67.4574752 L362.702387,68.6538561 L361.989583,67.5034899 C361.219507,66.2090102 360.094239,65.1629289 358.747473,64.4895304 L357.528808,63.8913399 L358.678492,63.2011202 C359.960983,62.4205992 360.990962,61.2861516 361.644677,59.9340801 L362.334488,58.7376993 Z" id="Path" fill="#2FEAD4"></path>
                                    <path d="M266.082923,686.239466 L266.772733,687.389832 C267.552021,688.685124 268.684811,689.730782 270.037836,690.403791 L271.233508,691.001982 L270.083824,691.692202 C268.796158,692.473351 267.758901,693.607027 267.094645,694.959242 L266.496809,696.155623 L265.806998,695.005256 C265.021824,693.714776 263.890601,692.670563 262.541895,691.991297 L261.32323,691.393106 L262.472914,690.702887 C263.772414,689.929262 264.818979,688.794145 265.485087,687.435847 L266.082923,686.239466 Z" id="Path" fill="#2FEAD4"></path>
                                    <path d="M90.5951188,903.382594 L93.1014305,907.569927 C95.9108155,912.317658 100.030814,916.152488 104.966172,918.613442 L109.357966,920.776131 L105.173115,923.214907 C100.464886,926.036012 96.6719961,930.158732 94.2511147,935.086687 L92.0667146,939.458078 L89.560403,935.270745 C86.7277901,930.570475 82.6110755,926.778615 77.6956615,924.342266 L73.3038677,922.179578 L77.5117121,919.648772 C82.2026819,916.816687 85.9909831,912.706935 88.4337124,907.8 L90.5951188,903.382594 Z" id="Path" fill="#EBEBEB"></path>
                                    <path d="M901.651369,80.2495476 L904.157681,84.4368807 C906.990293,89.1371515 911.107008,92.9290107 916.022422,95.3653598 L920.391222,97.5280483 L916.206372,100.035847 C911.508887,102.87014 907.719276,106.989296 905.284371,111.907626 L903.122965,116.302025 L900.616653,112.114692 C897.797221,107.40367 893.676945,103.60853 888.751912,101.186213 L884.360118,99.0235243 L888.544968,96.4927187 C893.253197,93.6716141 897.046087,89.5488937 899.466969,84.6209393 L901.651369,80.2495476 Z" id="Path" fill="#EBEBEB"></path>
                                    <path d="M930.462456,145.245239 L932.646856,148.880396 C935.106011,152.964805 938.679907,156.261444 942.948027,158.382421 L946.764979,160.269022 L943.131977,162.569754 C939.043438,165.032538 935.74743,168.617976 933.635585,172.900043 L931.750103,176.696252 L929.588696,172.946058 C927.127372,168.855094 923.544061,165.557131 919.264532,163.444033 L915.44758,161.672469 L919.080582,159.371736 C923.162569,156.911123 926.457255,153.335107 928.576974,149.064455 L930.462456,145.245239 Z" id="Path" fill="#EBEBEB"></path>
                                    <path d="M42.0324561,856.056527 L43.8029699,859.024472 C45.8047314,862.350862 48.7172664,865.03358 52.1956649,866.754933 L55.2998124,868.296424 L52.333627,870.067988 C49.0092095,872.070937 46.3280814,874.985199 44.6077489,878.465661 L43.067172,881.57165 L41.2966582,878.603705 C39.2703095,875.272421 36.334396,872.590214 32.8349821,870.873244 L29.7308347,869.331754 L32.69702,867.56019 C36.0214375,865.557241 38.7025656,862.642978 40.4228982,859.162516 L42.0324561,856.056527 Z" id="Path" fill="#EBEBEB"></path>
                                    <path d="M802.640561,888.542869 L804.434069,891.510814 C806.422518,894.848047 809.338665,897.534092 812.826764,899.241275 L815.907921,900.782766 L812.941732,902.577337 C809.623841,904.578093 806.944028,907.482945 805.215854,910.952003 L803.698271,914.057992 L801.904763,911.090047 C799.903002,907.763658 796.990467,905.080939 793.512068,903.359586 L790.407921,901.841103 L793.374106,900.046532 C796.709361,898.056903 799.393814,895.139026 801.099985,891.648858 L802.640561,888.542869 Z" id="Path" fill="#EBEBEB"></path>
                                    <path d="M19.7975628,40.2628178 L21.5680765,43.2307626 C23.569838,46.5571521 26.482373,49.2398706 29.9607715,50.9612236 L33.064919,52.5027143 L30.0987336,54.2742783 C26.7644602,56.2957896 24.0823464,59.2350853 22.3728555,62.7409737 L20.8322786,65.8469625 L19.0387712,62.7409737 C17.0310145,59.4194836 14.1200901,56.7382487 10.6460761,55.0105127 L7.54192867,53.5380439 L10.508114,51.7434726 C13.827635,49.734525 16.5072805,46.8218739 18.2339922,43.3457992 L19.7975628,40.2628178 Z" id="Path" fill="#EBEBEB"></path>
                                    <path d="M903.628826,581.832227 L905.422333,584.800172 C907.418006,588.131527 910.332187,590.815762 913.815028,592.530633 L916.919179,594.072124 L913.95299,595.843688 C910.622777,597.83952 907.939878,600.755708 906.227112,604.241361 L904.686535,607.34735 L902.893028,604.379405 C900.893459,601.059546 897.990328,598.378143 894.523327,596.648944 L891.419179,595.130461 L894.385364,593.33589 C897.704885,591.326942 900.384531,588.414291 902.111243,584.938216 L903.628826,581.832227 Z" id="Path" fill="#EBEBEB"></path>
                                </g>
                                <g id="laptop" transform="translate(720, 355.7238)" fill-rule="nonzero">
                                
                                    <animateTransform
                                        attributeName="transform"
                                        type="translate"
                                        values="0,0; 0,-16; 0,0"
                                        dur="6s"
                                        repeatCount="indefinite"
                                        additive="sum"
                                        calcMode="spline"
                                        keySplines="0.4 0 0.2 1; 0.4 0 0.2 1"
                                    />
                                    <path d="M120.266974,34.4114146 L91.5018743,140.245107 L4.12587137,164.402798 C1.18649762,165.388905 -0.531514583,168.439441 0.147963874,171.466046 L0.147963874,171.466046 L95.755706,146.871216 L99.0208093,145.835887 L212.356683,115.466219 L225.026203,65.3102513 L241.374713,6.41150077 C242.044409,4.84519092 241.794415,3.03682602 240.724933,1.71123102 C239.65545,0.385636027 237.94152,-0.240231797 236.270115,0.084486553 L123.302141,31.1213672 C121.77409,31.5942657 120.616034,32.8495709 120.266974,34.4114146 L120.266974,34.4114146 Z" id="Path" fill="#EBEBEB"></path>
                                    <polygon id="Path" fill="#FAFAFA" points="126.153358 37.8395059 99.986544 134.28621 202.676341 106.07923 225.647032 11.0129657"></polygon>
                                    <path d="M236.270115,0.084486553 C236.300147,0.267318945 236.300147,0.453829947 236.270115,0.636662339 C236.155146,1.0738015 236.040178,1.60296997 235.902216,2.27018237 C235.534317,3.76565846 235.028456,5.85932498 234.407626,8.50516729 C233.028005,14.0039178 231.073542,21.8494155 228.659205,31.5124917 C223.669576,51.1607468 216.748476,78.4014189 208.90763,109.162212 L208.90763,109.507322 L208.562724,109.507322 L192.12224,113.947735 L103.619546,137.576257 L76.7629222,144.593491 L69.4509304,146.457085 L67.5424545,146.894224 L66.8756377,147.00926 C67.0738617,146.910805 67.2819709,146.833682 67.4964672,146.779187 L69.3819493,146.227011 L76.6479538,144.156352 L103.389609,136.747994 L191.800328,112.774362 L208.263807,108.356955 L207.826927,108.794094 C215.805735,78.056309 222.864797,50.8386442 227.969395,31.2364038 C230.521694,21.5273129 232.568132,13.7278299 234.062721,8.2290794 C234.775525,5.60624442 235.350367,3.62761452 235.764254,2.04010913 C235.948203,1.39590405 236.086165,0.866735584 236.224128,0.452603744 C236.36209,0.0384719042 236.270115,0.084486553 236.270115,0.084486553 Z" id="Path" fill="#E0E0E0"></path>
                                </g>
                            </g>
                            <g id="bot" filter="url(#filter-3)" transform="translate(13.7345, 110)">

                                    <animateTransform
                                        attributeName="transform"
                                        type="translate"
                                        values="0,-21; 0,0; 0,-21"
                                        dur="5s"
                                        repeatCount="indefinite"
                                        additive="sum"
                                        calcMode="spline"
                                        keySplines="0.4 0 0.2 1; 0.4 0 0.2 1"
                                    />
                                <g id="Group-25" transform="translate(77.2655, 467)" fill="#DEFFF9" fill-rule="nonzero">
                                    <path d="M191.288776,87.7919507 C242.010194,90.2293669 228.605907,123.546325 209.938948,148.14742 C179.202255,188.658959 29.824614,305.730582 5.85301522,304.948928 C-18.1185835,304.167274 29.2035011,80.0006236 191.280382,87.7919507 L191.288776,87.7919507 Z" id="Path"></path>
                                    <path d="M659.767342,0.355946784 C611.144278,-3.82128036 619.655202,29.6301563 634.284928,55.4499587 C658.382428,97.9786696 785.70217,228.62418 808.632985,230.960738 C831.5638,233.28889 815.137883,13.7029019 659.767342,0.355946784 L659.767342,0.355946784 Z" id="Path"></path>
                                </g>
                                <polyline id="Path" fill="#FFFFFF" fill-rule="nonzero" points="335.289645 551.342619 497.615523 522.100131 412.448835 577.773998 335.289645 551.342619"></polyline>
                                <polyline id="Path" fill="#FFFFFF" fill-rule="nonzero" points="538.801906 512.378744 671.386898 488.871613 600.720743 536.495094 538.801906 512.378744"></polyline>
                                <path d="M553.546144,606.285424 L577.568633,745.918304 C579.318097,754.812894 581.54627,772.497636 575.262126,793.193659 C570.335775,809.42498 562.197722,820.869585 556.740439,827.396926 L548.950538,851.05201 L581.354787,871.086595 L617.962971,863.79338 L653.230771,831.156674 L673.440995,759.216673 L649.74925,637.703692 L640.766928,601.080957 L611.530863,586.572854 L553.554848,606.285424 L553.546144,606.285424 Z" id="Path" fill="url(#linearGradient-4)" fill-rule="nonzero"></path>
                                <path d="M545.965134,959.466793 L465.446276,931.303492 C465.446276,931.303492 417.514447,921.973746 392.60417,808.3632 C367.693894,694.761356 360.025845,660.462355 360.025845,660.462355 L438.986723,665.02279 L496.396991,870.09444 L545.973838,959.466793 L545.965134,959.466793 Z" id="Path" fill="url(#linearGradient-5)" fill-rule="nonzero"></path>
                                <path d="M671.386898,488.871613 L614.359598,499.785328 L651.960016,757.17144 C651.960016,757.17144 660.071958,818.110696 618.911685,851.530682 C618.911685,851.530682 607.579337,859.302569 593.5227,859.084991 C578.526051,858.850007 560.578815,849.82487 555.46098,822.688537 C543.902333,761.470782 497.63293,522.108834 497.63293,522.108834 L408.410272,540.176514 L467.979082,838.023437 C467.979082,838.023437 475.708057,902.557082 518.104269,942.487003 C564.53034,986.220188 622.480244,947.717579 632.576652,939.275552 C642.673061,930.833524 685.069273,897.979241 699.987586,814.681666 C707.986379,770.02595 702.964286,728.311889 702.964286,728.311889 L671.395602,488.871613 L671.386898,488.871613 Z" id="Path" fill="url(#linearGradient-6)" fill-rule="nonzero"></path>
                                <polygon id="Path" fill="url(#linearGradient-7)" fill-rule="nonzero" points="614.350894 499.785328 538.801906 512.378744 553.363364 606.476893 629.2518 601.768504"></polygon>
                                <polygon id="Path" fill="url(#linearGradient-8)" fill-rule="nonzero" points="433.973334 668.051477 361.40975 666.580649 335.289645 551.342619 408.392864 540.167811"></polygon>
                                <polygon id="Path" fill="#DEFFF9" fill-rule="nonzero" points="434.202281 666.051477 521.123551 636.905625 498.414074 521.100131 408.392864 539.044018"></polygon>
                                <polygon id="Path" fill="#DEFFF9" fill-rule="nonzero" points="629.466579 599.768504 684.728887 581.395055 672.209003 487.871613 614.350894 498.688658"></polygon>
                                <path d="M557.654338,27.693211 C557.654338,27.693211 353.759109,-86.2828667 204.880603,148.214036 C56.0020963,382.710939 254.735972,477.070181 254.735972,477.070181 C254.735972,477.070181 308.708238,507.417965 412.361797,502.657358 C516.015357,497.89675 687.593375,447.923427 704.182818,349.203921 C720.772262,250.484415 690.665816,99.746353 557.654338,27.7019141 L557.654338,27.693211 Z" id="Path" fill="#DEFFF9" fill-rule="nonzero"></path>
                                <path d="M639.948771,120.337938 C609.572508,67.1705696 555.809132,31.3311158 495.178459,22.7324318 C447.908118,16.0310284 385.153717,18.3199493 343.210103,63.0539932 C268.070194,143.201038 318.047416,420.778392 492.584726,419.21183 C774.561749,416.679221 676.478622,184.297177 639.940067,120.337938 L639.948771,120.337938 Z" id="Path" fill="url(#linearGradient-9)" fill-rule="nonzero"></path>
                                <path d="M470.111513,43.9593449 C470.111513,43.9593449 543.702146,34.002974 599.850363,96.7263699 C655.998579,159.441063 507.198407,38.4154566 470.111513,43.9593449 Z" id="Path" fill="#A1D6D7" fill-rule="nonzero" opacity="0.36"></path>
                                <path d="M519.827621,280.144653 C519.827621,280.144653 542.666394,282.764293 574.174151,263.835004 C574.174151,263.835004 598.396828,363.61629 572.903396,367.001805 C549.220355,370.152335 519.827621,280.144653 519.827621,280.144653 Z" id="Path" fill="#FFFFFF" fill-rule="nonzero"></path>
                                
                                <path d="M164.381819,352.928857 C164.381819,352.928857 132.969804,236.481093 242.185091,110.198802 C351.400379,-16.0921927 154.381153,245.149402 164.381819,352.928857 Z" id="Path" fill="#FFFFFF" fill-rule="nonzero"></path>
                                <path d="M484.377042,190.667862 L493.899,178.457383 C496.048839,175.698493 493.289734,172.025776 490.060624,173.348651 L472.304871,180.641866 C471.060228,181.15535 469.658916,180.911663 468.718905,180.015242 L449.74462,161.973671 C447.551263,159.884922 443.808628,161.686468 443.956593,164.75867 L445.149014,189.301472 C445.218644,190.763596 444.330856,192.13869 442.946952,192.713096 L414.059038,204.584153 C410.838632,205.907028 411.239007,210.537088 414.616082,211.033166 L443.799925,215.306399 C445.340497,215.53268 446.489399,216.785929 446.559029,218.343788 L447.977749,247.621089 C448.143121,251.067525 452.808358,251.876915 454.39245,248.735088 L468.222789,221.337662 C468.910389,219.979975 470.390035,219.196694 471.869681,219.414272 L506.301915,224.453379 C509.583248,224.932051 511.689568,220.876396 509.330838,218.630991 L484.629452,195.141267 C483.402217,193.975048 483.297771,192.042955 484.377042,190.659159 L484.377042,190.667862 Z" id="Path" fill="#FFFFFF" fill-rule="nonzero"></path>
                                <path d="M613.532737,169.562793 L621.949312,162.173843 C623.84674,160.502843 622.140795,156.656064 619.581878,156.821423 L605.464314,157.752657 C604.472081,157.813579 603.445032,157.213064 602.827062,156.194798 L590.371924,135.742463 C588.927093,133.375214 585.932986,133.784261 585.732798,136.377791 L584.131299,157.09122 C584.035557,158.327063 583.226104,159.214781 582.120721,159.284406 L559.151392,160.790046 C556.592474,160.955406 556.418398,164.915326 558.916389,166.307825 L580.458295,178.28332 C581.598493,178.918648 582.329612,180.293741 582.23387,181.607913 L580.319034,206.324778 C580.092736,209.23162 583.522033,211.250744 585.036494,209.101073 L598.248863,190.35455 C598.901648,189.423316 600.102773,189.205738 601.190748,189.814956 L626.614549,203.948825 C629.034205,205.297809 631.036079,202.53892 629.486803,199.988905 L613.271623,173.357354 C612.470873,172.034479 612.584023,170.406996 613.532737,169.562793 L613.532737,169.562793 Z" id="Path" fill="#FFFFFF" fill-rule="nonzero"></path>
                            </g>
                            <g id="rocket" transform="translate(803.214, 570.3391) scale(-0.95,0.95)">
<path d="
    M125,70 
    C200,100 250,150 300,200
    C350,250 400,275 450,285
    C550,300 650,250 686,111"  
    id="rocket-swoosh" 
    stroke="#2FEAD4"
    stroke-width="3"
    stroke-linecap="round"
    stroke-dasharray="1000"
    stroke-dashoffset="1000">
    
    <animate 
        attributeName="stroke-dashoffset"
        from="1000"
        to="0"
        dur="1.1s"
        repeatCount="1"
        calcMode="spline"
        keySplines="0.2 0.1 0.9 1"
        fill="freeze"
    />
    
    <animate 
        attributeName="stroke-dasharray"
        values="1000,1000;50,90;10,90"
        dur="1.1s"
        repeatCount="1"
        calcMode="spline"
        keySplines="0.2 0.1 0.9 1"
        fill="freeze"
    />
    
    <animate 
        attributeName="opacity"
        values="1;0.8;0"
        keyTimes="0;0.5;1"
        dur="1.6s"
        repeatCount="1"
        calcMode="spline"
        keySplines="0.2 0.1 0.9 1; 0.2 0.1 0.9 1"
        fill="freeze"
    />
</path>
                            <g  transform="translate(-50, -80)">
                                <g id="rocket-body" >
                                    <path d="M103.598476,118.145351 L103.759432,150.05651 C103.759432,150.05651 156.644907,120.146988 141.147163,91.5028695 L103.598476,118.145351 Z" id="Path" fill="#2FEAD4" fill-rule="nonzero"></path>
                                    <path d="M108.749061,44.4298838 C108.749061,44.4298838 70.5565505,30.4644378 41.6764821,56.3476778 L71.3843231,73.1200173 L108.749061,44.4298838 Z" id="Path" fill="#2FEAD4" fill-rule="nonzero"></path>
                                    <path d="M71.3843231,73.2120466 C72.5799947,74.7765447 103.575482,118.145351 103.575482,118.145351 L184.559241,60.6270402 C191.302139,55.8490169 195.739582,48.4660673 196.796669,40.2665931 C197.853757,32.0671188 195.43406,23.7990881 190.123712,17.4652995 L190.123712,17.4652995 C179.914396,5.39129866 162.024391,3.47663166 149.493871,13.1169152 L71.3843231,73.2120466 Z" id="Path" fill="#FFFFFF" fill-rule="nonzero"></path>
                                    <path d="M110.197663,70.7272556 L59.6115564,107.14785 C59.6115564,107.14785 61.9109249,112.692615 63.1755776,112.14044 C64.4402303,111.588264 102.471785,85.6820165 114.819394,77.2613357 C115.779456,76.6025426 116.405139,75.558016 116.533212,74.4002603 C116.661284,73.2425045 116.279043,72.0863475 115.486211,71.2334167 L115.486211,71.2334167 C114.110808,69.738921 111.83127,69.5207488 110.197663,70.7272556 L110.197663,70.7272556 Z" id="Path" fill="#2FEAD4" fill-rule="nonzero"></path>
                                    <path d="M188.353199,57.5210514 C215.554728,32.0749505 210.70306,2.60256795 210.70306,2.60256795 C174.120108,-7.01449366 149.42489,13.1169152 149.42489,13.1169152 C173.775202,16.5450066 186.812622,31.2927015 188.353199,57.5210514 Z" id="Path" fill="#2FEAD4" fill-rule="nonzero"></path>

    <animateTransform
        attributeName="transform"
        type="scale"
        from="0.7"
        to="1"
        dur="1.1s"
        repeatCount="1"
        calcMode="spline"
        keySplines="0.2 0.1 0.9 1"
        fill="freeze"
    />
    <animateMotion
        dur="1.1s"
        repeatCount="1"
        rotate="auto"
        calcMode="spline"
        keySplines="0.2 0.1 0.9 1"
        fill="freeze">
                                        <mpath href="#rocket-swoosh"/>
                                    </animateMotion>
                                </g>
                                </g>
                                <!-- <path d="M585.289064,46.4545283 C647.534292,5.37653834 713.435345,32.3217001 686.206365,110.990073 C658.977385,189.658447 466.964237,266.619143 364.84791,297.640024 C262.731583,328.660905 86.1135811,335.399773 25.3014364,288.081211 C-35.5107084,240.762649 19.3824506,131.614208 125.122496,69.9492941" stroke="#2FEAD4" id="rocket-swoosh"></path> -->

                                
                                
                            </g>
                        </g>
                    </g>
                </g>
            </g>
        </g>
    </g>
</svg>