<?xml version="1.0" encoding="UTF-8"?>
<svg width="229px" height="294px" viewBox="0 0 229 294" version="1.1" xmlns="http://www.w3.org/2000/svg" xmlns:xlink="http://www.w3.org/1999/xlink">
    <title>symbol/symbol--3d</title>
    <defs>
        <linearGradient x1="57.7272784%" y1="45.3485324%" x2="50%" y2="94.261221%" id="linearGradient-1">
            <stop stop-color="#000000" stop-opacity="0" offset="0%"></stop>
            <stop stop-color="#000000" stop-opacity="0.141985266" offset="28.6289135%"></stop>
            <stop stop-color="#000000" stop-opacity="0.746694712" offset="100%"></stop>
        </linearGradient>
        <path d="M141.423981,166.487083 C141.423981,166.487083 144.249339,187.716213 134.420901,206.30838 C139.237021,227.042522 150.435719,231.186689 165.664696,228.380403 C180.893672,225.574116 199.67077,199.387712 193.500941,159.773389 C189.387721,133.36384 181.483922,82.3634972 169.789544,6.77236075 L119.721627,20.9801254 L141.423981,166.487083 Z" id="path-2"></path>
        <linearGradient x1="62.1991888%" y1="44.3100498%" x2="64.2234286%" y2="107.52811%" id="linearGradient-3">
            <stop stop-color="#000000" stop-opacity="0" offset="0%"></stop>
            <stop stop-color="#000000" stop-opacity="0.141985266" offset="28.6289135%"></stop>
            <stop stop-color="#000000" stop-opacity="0.746694712" offset="100%"></stop>
        </linearGradient>
        <path d="M79.9756801,214.618265 C77.0589441,200.139799 64.8848528,139.379157 43.4534064,32.3363401 L0,41.3278224 L34.5902983,213.445409 C34.5902983,213.445409 39.741876,249.246413 63.6968921,274.117184 C84.7250903,295.94925 132.658395,297.354742 156.02389,289.981051 C125.936396,299.86608 114.802049,285.657718 100.883255,268.126113 C91.9089818,256.822446 84.3507841,236.335964 79.9756801,214.618265 Z" id="path-4"></path>
        <linearGradient x1="63.8535091%" y1="42.2314557%" x2="96.8102351%" y2="109.155566%" id="linearGradient-5">
            <stop stop-color="#000000" stop-opacity="0" offset="0%"></stop>
            <stop stop-color="#000000" stop-opacity="0.141985266" offset="28.6289135%"></stop>
            <stop stop-color="#000000" stop-opacity="0.746694712" offset="100%"></stop>
        </linearGradient>
        <path d="M194.302035,166.211301 C194.302035,166.211301 199.326369,203.96307 173.832725,224.666696 C173.832725,224.666696 166.813751,229.481368 158.107421,229.346579 C148.818872,229.201006 137.702802,223.609949 134.532943,206.799036 C132.058334,193.690223 120.362748,131.943064 99.4461835,21.5575601 L43.4534064,32.3363401 L80.3488397,216.298981 C80.3488397,216.298981 85.8437241,254.485802 111.395128,281.013988 C133.824669,304.300967 158.431727,288.654598 180.257589,281.013988 C202.08345,273.373378 239.663364,257.755827 225.892806,146.860878 C216.712435,72.9309122 209.977822,23.9772862 205.688969,0 L170.217482,6.77236075 L194.302035,166.211301 Z" id="path-6"></path>
        <linearGradient x1="87.4861193%" y1="11.1769763%" x2="-52.2159612%" y2="125.894702%" id="linearGradient-7">
            <stop stop-color="#000000" stop-opacity="0" offset="0%"></stop>
            <stop stop-color="#000000" stop-opacity="0.141985266" offset="28.6289135%"></stop>
            <stop stop-color="#000000" stop-opacity="0.746694712" offset="100%"></stop>
        </linearGradient>
        <polygon id="path-8" points="179.979728 70.5520613 169.939383 6.77236075 118.99401 17.2624235 127.98437 77.205639"></polygon>
        <linearGradient x1="50%" y1="63.9940497%" x2="-46.0039333%" y2="125.258297%" id="linearGradient-9">
            <stop stop-color="#000000" stop-opacity="0" offset="0%"></stop>
            <stop stop-color="#000000" stop-opacity="0.141985266" offset="28.6289135%"></stop>
            <stop stop-color="#000000" stop-opacity="0.746694712" offset="100%"></stop>
        </linearGradient>
        <polygon id="path-10" points="59.5776191 111.985436 43.6032458 32.3363401 0 40.4616705 14.9839333 115.39069"></polygon>
    </defs>
    <g id="Logo" stroke="none" stroke-width="1" fill="none" fill-rule="evenodd">
        <g id="Symbol" transform="translate(-863, -691)">
            <g id="Group-3" transform="translate(863, 691)">
                <g id="magnet_base" transform="translate(0.1498, 0)">
                    <g id="side_inner">
                        <use fill="#208E81" xlink:href="#path-2"></use>
                        <use fill-opacity="0.5" fill="url(#linearGradient-1)" xlink:href="#path-2"></use>
                    </g>
                    <g id="side_outer">
                        <use fill="#208E81" xlink:href="#path-4"></use>
                        <use fill-opacity="0.5" fill="url(#linearGradient-3)" xlink:href="#path-4"></use>
                    </g>
                    <g id="front">
                        <use fill="#2FEAD4" xlink:href="#path-6"></use>
                        <use fill-opacity="0.5" fill="url(#linearGradient-5)" xlink:href="#path-6"></use>
                    </g>
                </g>
                <g id="magnet_caps">
                    <path d="M214.663037,58.7603753 L205.838808,0 L169.939383,6.77236075 L180.001765,70.5520613 M113.227254,93.51223 L99.5960228,21.5575601 L43.6032458,32.3363401 L59.5776191,111.985436" id="front" fill="#F2F2F2"></path>
                    <g id="cap_side__inner">
                        <use fill="#C2C2C2" xlink:href="#path-8"></use>
                        <use fill-opacity="0.3" fill="url(#linearGradient-7)" xlink:href="#path-8"></use>
                    </g>
                    <g id="cap_side__outer">
                        <use fill="#C2C2C2" xlink:href="#path-10"></use>
                        <use fill-opacity="0.3" fill="url(#linearGradient-9)" xlink:href="#path-10"></use>
                    </g>
                </g>
            </g>
        </g>
    </g>
</svg>