<?xml version="1.0" standalone="no"?>
<!DOCTYPE svg PUBLIC "-//W3C//DTD SVG 20010904//EN"
 "http://www.w3.org/TR/2001/REC-SVG-20010904/DTD/svg10.dtd">
<svg version="1.0" xmlns="http://www.w3.org/2000/svg"
 width="200.000000pt" height="200.000000pt" viewBox="0 0 200.000000 200.000000"
 preserveAspectRatio="xMidYMid meet">

<g transform="translate(0.000000,200.000000) scale(0.100000,-0.100000)"
fill="#000000" stroke="none">
<path d="M1094 1658 c-35 -21 -272 -279 -302 -328 l-27 -45 0 -457 c0 -517 -4
-493 77 -493 40 0 45 4 196 160 91 94 164 179 178 207 l24 47 0 434 0 434 -24
22 c-29 27 -92 37 -122 19z"/>
<path d="M1635 1652 c-45 -28 -287 -297 -310 -345 -19 -40 -20 -60 -17 -481 2
-372 4 -443 17 -463 20 -31 56 -38 93 -19 40 21 321 316 347 364 19 35 20 59
23 457 1 231 0 430 -3 443 -7 27 -60 62 -95 62 -14 0 -38 -8 -55 -18z"/>
<path d="M423 880 c-98 -105 -186 -205 -195 -223 -14 -25 -18 -56 -18 -155 0
-119 1 -124 26 -149 21 -21 32 -24 62 -20 32 5 60 30 205 179 93 95 175 187
183 205 10 23 14 74 14 176 0 161 -6 177 -68 177 -28 0 -51 -21 -209 -190z"/>
</g>
</svg>
