<svg xmlns="http://www.w3.org/2000/svg" viewBox="45 55 310 310"><path fill="#00bf6f" fill-rule="evenodd" d="M186.014 72.737c-5.011.543-9.553 1.267-9.99 1.592-.22.163-2.055.596-4.078.962-3.435.622-16.058 4.437-16.501 4.987-.11.136-1.189.591-2.398 1.011-2.083.723-10.409 4.656-12.987 6.134-3.401 1.951-8.416 5.034-8.591 5.282-.11.155-.65.516-1.199.801-1.337.694-5.62 3.794-8.147 5.895-1.124.935-2.64 2.193-3.37 2.797-2.798 2.315-14.9 14.608-15.474 15.717-.331.641-.763 1.166-.959 1.166s-.719.584-1.162 1.299c-.443.714-1.169 1.687-1.613 2.161-.444.475-1.443 1.856-2.219 3.071-.777 1.214-1.597 2.321-1.823 2.461s-.761.941-1.19 1.783c-.429.841-1.011 1.773-1.293 2.07-.282.298-1.042 1.529-1.689 2.735-.647 1.207-1.571 2.778-2.055 3.49s-1.213 2.108-1.621 3.1c-.408.991-.85 1.804-.982 1.804-.132.001-.737 1.216-1.344 2.699a128 128 0 0 1-2.458 5.525c-.744 1.554-1.353 3.086-1.353 3.402s-.352 1.233-.782 2.036c-.431.804-1.251 3.139-1.823 5.189s-1.207 4.088-1.41 4.528c-.573 1.236-1.409 4.801-2.157 9.19-.374 2.198-.848 4.356-1.052 4.796-1.77 3.802-3.04 113.303-1.423 122.672 1.257 7.287 4.856 12.927 12.079 18.934 3.185 2.648 8.829 4.7 14.425 5.244 5.107.497 92.915.503 103.422.008 8.183-.386 16.956-1.328 18.382-1.974.439-.199 1.968-.57 3.396-.824 3.535-.628 9.301-2.031 9.791-2.382.219-.157 1.838-.697 3.596-1.198 1.758-.502 3.736-1.155 4.396-1.451s2.723-1.095 4.586-1.775c1.863-.681 3.481-1.363 3.596-1.517s1.288-.707 2.607-1.228c1.319-.522 2.847-1.232 3.396-1.578.55-.347 2.168-1.222 3.597-1.945s3.856-2.113 5.394-3.087a288 288 0 0 1 4.896-3.027c1.153-.69 2.097-1.421 2.097-1.625s.188-.37.417-.37 1.421-.765 2.649-1.699a141 141 0 0 1 3.079-2.291c.467-.325 2.287-1.832 4.045-3.348 7.841-6.76 14.897-14.283 20.853-22.233.906-1.209 1.979-2.75 2.385-3.425.406-.676 1.625-2.564 2.709-4.196 1.083-1.633 2.49-3.999 3.125-5.26s1.295-2.378 1.466-2.484.915-1.592 1.653-3.303 1.455-3.2 1.594-3.31c.138-.11.756-1.548 1.373-3.197.616-1.648 1.283-3.205 1.482-3.459.373-.479 2.321-6.36 2.321-7.008 0-.201.35-1.133.777-2.07.427-.938 1.256-4.12 1.841-7.071.585-2.952 1.217-5.726 1.404-6.166 1.588-3.739 2.474-23.654 1.55-34.843-.644-7.801-3.395-22.204-4.792-25.097-.213-.439-.82-2.238-1.349-3.996-.992-3.295-4.181-11.434-4.619-11.788-.136-.11-.561-1.009-.944-1.998s-1.003-2.358-1.378-3.041a364 364 0 0 1-2.231-4.196c-.852-1.624-1.681-3.043-1.842-3.153s-.614-.829-1.005-1.598c-.392-.769-1.496-2.5-2.454-3.847-.957-1.347-1.741-2.641-1.741-2.877s-.241-.573-.536-.749c-.295-.175-.875-.859-1.289-1.518-2.571-4.098-14.001-16.5-19.369-21.017-4.082-3.435-6.643-5.456-7.479-5.904a7.5 7.5 0 0 1-1.463-1.074c-.878-.878-7.699-5.372-8.153-5.372-.206 0-.561-.225-.79-.5-.228-.276-1.644-1.124-3.146-1.885-1.501-.761-2.825-1.515-2.941-1.677-.116-.161-1.555-.862-3.197-1.557-1.642-.694-3.18-1.419-3.417-1.61s-1.675-.816-3.196-1.388c-1.522-.573-3.716-1.475-4.876-2.006s-2.26-.965-2.443-.965-2.123-.602-4.31-1.337c-2.188-.735-6.033-1.742-8.546-2.238s-4.929-1.066-5.368-1.266c-3.1-1.41-29.712-2.48-38.362-1.543m21.408 46.586c3.502.597 11.586 3.514 13.157 4.747.33.258 1.463.963 2.517 1.565 2.322 1.326 9.521 8.152 10.729 10.173.478.8 1.189 1.814 1.58 2.254 1.463 1.646 4.354 8.1 5.193 11.588.475 1.978 1.065 4.029 1.312 4.556.68 1.459.631 51.261-.052 51.488-.275.092-.499.558-.499 1.035 0 7.229-9.675 22.237-17.172 26.638-.936.549-2.029 1.302-2.429 1.672-.4.371-2.043 1.246-3.65 1.947-1.608.7-3.103 1.41-3.323 1.579-4.574 3.514-23.807 2.909-32.061-1.008-1.614-.766-3.079-1.393-3.257-1.393s-.648-.36-1.045-.799c-.398-.44-.879-.8-1.07-.8-.653 0-3.705-2.197-4.856-3.496-.632-.714-1.401-1.299-1.708-1.299s-.558-.143-.558-.319c0-.175-.675-1.031-1.499-1.9-2.217-2.34-4.656-5.726-5.899-8.191-.604-1.197-1.228-2.267-1.386-2.377-.415-.288-1.812-4.227-2.409-6.793-.282-1.209-.653-2.291-.825-2.404-1.191-.783-1.617-50.057-.466-53.94 2.851-9.621 2.728-9.294 5.092-13.572.785-1.42 1.556-2.679 1.713-2.797s.791-.959 1.408-1.869c1.195-1.761 5.312-5.927 8.239-8.335 1.619-1.332 2.477-1.87 6.174-3.872 7.636-4.135 17.759-5.661 27.05-4.078m-14.415 14.587c-3.653.969-5.667 1.685-6.178 2.195-.307.307-.665.558-.795.558-.35 0-3.383 2.047-4.736 3.197-2.173 1.846-5.719 6.641-6.675 9.025-.521 1.3-1.095 2.466-1.277 2.59-1.441.991-2.355 44.928-1.096 52.686 1.478 9.111 9.321 18.2 17.96 20.813 1.648.499 3.429 1.107 3.957 1.353 1.296.602 10.537.585 11.271-.021.306-.253 1.244-.589 2.085-.746 1.998-.373 4.933-1.496 5.786-2.214.373-.313 1.127-.773 1.676-1.023 4.096-1.861 11.189-11.174 11.189-14.689 0-.316.176-.634.392-.708 1.777-.604 1.779-54.279.002-54.279-.162 0-.403-.542-.535-1.205-.328-1.636-2.226-5.588-2.685-5.588-.204 0-.371-.286-.371-.635 0-.966-6.47-7.156-8.342-7.983-.907-.399-1.648-.847-1.648-.995 0-.368-3.153-1.542-5.914-2.202-2.593-.619-11.895-.705-14.066-.129m10.973 27.778c3.089 2.359 3.013 1.807 3.013 21.98v17.86l-1.016 1.734c-2.654 4.528-9.599 4.385-12.05-.249l-.92-1.74v-17.732c0-19.722-.031-19.472 2.646-21.57 2.97-2.329 5.533-2.416 8.327-.283m65.79 55.723c3.829 2.727 4.95 6.8 2.935 10.663-.315.603-.573 1.327-.575 1.609-.006 1.408-3.042 9.02-4.975 12.475-2.169 3.877-3.594 6.142-4.438 7.052-.538.581-.979 1.207-.979 1.391 0 .938-10.79 11.864-14.186 14.365-3.174 2.337-9.438 6.363-9.899 6.363-.202 0-.9.379-1.551.843s-2.562 1.374-4.246 2.022c-1.683.648-3.246 1.328-3.472 1.51-.737.594-10.299 3.283-14.398 4.049-8.227 1.539-22.502 1.399-30.37-.295a414 414 0 0 0-3.196-.681 3 3 0 0 1-.8-.32c-.219-.134-1.902-.629-3.739-1.102s-3.995-1.191-4.795-1.597c-.801-.405-2.714-1.232-4.253-1.836-1.538-.605-3.067-1.319-3.396-1.587-.33-.268-1.67-1.009-2.978-1.646s-2.694-1.466-3.08-1.841c-.386-.376-1.429-1.054-2.317-1.507s-1.615-.972-1.615-1.154-.35-.493-.778-.691c-2.639-1.225-11.242-9.9-15.416-15.545-1.305-1.766-5.385-8.435-5.385-8.804 0-.128-.54-1.322-1.201-2.654-5.25-10.582-5.176-17.183.215-19.284 4.739-1.846 8.566.514 10.16 6.265 1.038 3.748 3.212 8.729 5.545 12.707 3.117 5.315 12.606 15.565 14.41 15.565.243 0 .442.172.442.383s.854.87 1.898 1.465 2.257 1.389 2.697 1.765c1.046.893 8.848 4.654 10.39 5.009.659.151 1.93.601 2.825.999 5.355 2.382 25.756 3.641 33.139 2.045 4.764-1.03 7.6-1.762 7.992-2.062.219-.169 1.388-.622 2.597-1.006 2.622-.833 9.685-4.33 11.426-5.657.68-.519 1.415-.943 1.632-.943s.92-.534 1.561-1.187c.641-.654 1.353-1.193 1.582-1.199.824-.022 9.881-9.227 11.216-11.4.405-.659.861-1.29 1.012-1.402.28-.205 2.506-3.99 3.641-6.19 1.034-2.004 1.896-4.19 1.896-4.809 0-.322.153-.586.34-.586s.65-1.214 1.029-2.697c1.708-6.693 1.729-6.732 4.647-8.662 2.425-1.605 4.744-1.673 6.811-.201"/></svg>