<svg width="256" height="256" xmlns="http://www.w3.org/2000/svg" preserveAspectRatio="xMidYMid"><defs><linearGradient x1="50%" y1="0%" x2="50%" y2="100%" id="a"><stop stop-color="#24ADFF" offset="0%"/><stop stop-color="#7B71FF" offset="100%"/></linearGradient></defs><path d="M128 0c70.692 0 128 57.308 128 128 0 70.692-57.308 128-128 128C57.308 256 0 198.692 0 128 0 57.308 57.308 0 128 0zm-6.32 118.222l-45.892 40.979c-4.728 3.72-7.83 9.86-7.83 16.766 0 11.279 8.274 20.508 18.386 20.508h86.247c10.112 0 18.386-9.23 18.386-20.508 0-11.28-8.274-20.507-18.386-20.507H107.3c-.968 0-1.58-1.16-1.108-2.104l16.833-33.703c.615-.983-.493-2.161-1.345-1.43zm50.91-58.86H86.345c-10.112 0-18.386 9.227-18.386 20.508 0 11.279 8.274 20.508 18.386 20.508h65.292c.968 0 1.58 1.16 1.108 2.103l-16.834 33.704c-.615.983.494 2.161 1.346 1.43l45.892-40.984c4.727-3.723 7.829-9.86 7.829-16.767 0-11.278-8.274-20.507-18.386-20.501z" fill="url(#a)"/></svg>