<svg xmlns="http://www.w3.org/2000/svg" width="80" height="80" viewBox="0 0 23.167 21.167"><path fill="#91bce5" d="M18.611.504 3.473 11.24l4.597 2.213 1.066 3.883 3.171-2.226 2.802.951z"/><path fill="#1f212b" d="M9.172 17.597a.264.264 0 0 1-.29-.192l-1.035-3.767-4.488-2.16a.265.265 0 0 1-.039-.454L18.458.288a.264.264 0 0 1 .41.274l-3.5 15.556a.265.265 0 0 1-.344.193l-2.674-.908-3.061 2.15a.3.3 0 0 1-.117.044m-5.18-6.401 4.193 2.017c.069.034.12.095.14.169l.967 3.52 2.863-2.01a.27.27 0 0 1 .237-.033l2.524.856L18.2 1.119z"/><path fill="#3a84c1" d="m9.339 17.079.946-2.913L18.642.728 8.226 13.235z"/><path fill="#1f212b" d="M9.356 17.21a.132.132 0 0 1-.143-.172l.946-2.913.014-.03 7.393-11.888-9.419 11.156a.133.133 0 0 1-.202-.171L18.54.642a.132.132 0 0 1 .214.156l-8.348 13.424-.941 2.898a.13.13 0 0 1-.109.09m-3.215 1.045c-1.168.029-2.303-.373-3.067-1.287-.485-.58-.683-1.574.275-1.705.859-.119 1.229.485 1.48 1.196.804 2.026.16 2.938-1.68 4.272-.144.09.015.296.159.206 1.218-1 1.829-1.466 2.1-2.448.134-1.36-.402-3.091-1.384-3.436-1.12-.382-2.063.516-1.499 1.585.699 1.324 2.23 1.914 3.652 1.878.17-.004.133-.266-.036-.261"/><path fill="#1f212b" d="M7.235 18.14a15 15 0 0 1-.759.09c-.17.017-.133.279.036.262.253-.025.507-.052.758-.09.169-.026.133-.288-.035-.262m1.194-.504a9 9 0 0 1-.865.344c-.162.054-.057.297.104.243a8 8 0 0 0 .865-.344c.154-.071.05-.315-.104-.243"/><path d="M12.599 15.22a.13.13 0 0 1-.07-.01l-2.168-.924a.133.133 0 0 1 .103-.243l2.169.923a.133.133 0 0 1-.034.253z"/></svg>