<svg xmlns="http://www.w3.org/2000/svg" fill="none" viewBox="0 0 267 267"><path fill="#8ec7f5" d="m41.7 138.8 180.5-120h.1c2.5-1.6 5.7.5 5.2 3.4l-26 169.7a15 15 0 0 1-20.6 11.7L110.3 174l-1.9-.6-62.7-13a12 12 0 0 1-4-21.7Z"/><path fill="#d9d9d9" d="m153.3 191.7-34.6-16.2 1.3 52.4z"/><path fill="#91bce5" d="m153.3 191.7-34.6-16.2 1.3 52.4z"/><path fill="#3a84c1" d="m153.3 191.7-34.6-16.2 1.3 52.4z"/><path fill="#d9d9d9" d="m120 227.9-1.3-52.4L219.2 28 87.5 168.9z"/><path fill="#91bce5" d="m120 227.9-1.3-52.4L219.2 28 87.5 168.9z"/><path fill="#3a84c1" d="m120 227.9-1.3-52.4L219.2 28 87.5 168.9z"/><path fill="#d9d9d9" d="m153.3 191.7-34.6-16.2 1.4 53z"/><path fill="#91bce5" d="m153.3 191.7-34.6-16.2 1.4 53z"/><path fill="#044d89" d="m153.3 191.7-34.6-16.2 1.4 53z"/><path stroke="#3a84c1" stroke-linecap="round" stroke-linejoin="round" stroke-width="5" d="M115.8 228.6c-44.5 24-63.5-8-44.5-20.8s48 23.3-11.4 54.7"/></svg>
