<svg xmlns="http://www.w3.org/2000/svg" width="80" height="80" viewBox="0 0 23.167 21.167"><g style="fill:#000"><path fill="#91bce5" d="M18.611.504 3.473 11.24l4.597 2.213 1.066 3.883 3.171-2.226 2.802.951z"/><path fill="#1f212b" d="M9.172 17.597a.264.264 0 0 1-.29-.192l-1.035-3.767-4.488-2.16a.265.265 0 0 1-.039-.454L18.458.288a.264.264 0 0 1 .41.274l-3.5 15.556a.265.265 0 0 1-.344.193l-2.674-.908-3.061 2.15a.273.273 0 0 1-.117.044zm-5.18-6.401 4.193 2.017c.069.034.12.095.14.169l.967 3.52 2.863-2.01a.265.265 0 0 1 .237-.033l2.524.856L18.2 1.119z"/><path fill="#3a84c1" d="m9.339 17.079.946-2.913L18.642.728 8.226 13.235z"/><path fill="#1f212b" d="M9.356 17.21a.132.132 0 0 1-.143-.172l.946-2.913a.16.16 0 0 1 .014-.03l7.393-11.888-9.419 11.156a.133.133 0 0 1-.202-.171L18.54.642a.132.132 0 0 1 .214.156l-8.348 13.424-.941 2.898a.132.132 0 0 1-.109.09zM6.141 18.255c-1.168.029-2.303-.373-3.067-1.287-.485-.58-.683-1.574.275-1.705.859-.119 1.229.485 1.48 1.196.804 2.026.16 2.938-1.68 4.272-.144.09.015.296.159.206 1.218-1 1.829-1.466 2.1-2.448.134-1.36-.402-3.091-1.384-3.436-1.12-.382-2.063.516-1.499 1.585.699 1.324 2.23 1.914 3.652 1.878.17-.004.133-.266-.036-.261z"/><path fill="#1f212b" d="M7.235 18.14c-.252.038-.506.065-.759.09-.17.017-.133.279.036.262.253-.025.507-.052.758-.09.169-.026.133-.288-.035-.262zm1.194-.504c-.283.13-.57.246-.865.344-.162.054-.057.297.104.243.295-.098.583-.214.865-.344.154-.071.05-.315-.104-.243z"/><path fill="#1f212b" d="M54.07 64.636a.497.497 0 0 1-.254-.08l-7.482-4.834a.501.501 0 0 1 .543-.84l7.482 4.834a.501.501 0 0 1-.29.92z" style="fill:#000" transform="scale(.26458) rotate(-9.8 9.355 98.706)"/></g></svg>