<svg xmlns="http://www.w3.org/2000/svg" xml:space="preserve" width="445" height="445"><g style="stroke:none;stroke-width:1;stroke-dasharray:none;stroke-linecap:butt;stroke-linejoin:miter;stroke-miterlimit:10;fill:none;fill-rule:nonzero;opacity:1"><path d="M40.135 90h-8.782a2.75 2.75 0 0 1-2.75-2.75V45.381a2.75 2.75 0 0 1 2.75-2.75h8.782a2.75 2.75 0 0 1 2.75 2.75V87.25a2.75 2.75 0 0 1-2.75 2.75" style="stroke:none;stroke-width:1;stroke-dasharray:none;stroke-linecap:butt;stroke-linejoin:miter;stroke-miterlimit:10;fill:#ffc36e;fill-rule:nonzero;opacity:1" transform="translate(-2.472 -2.472)scale(4.94)"/><path d="M58.647 90h-8.782a2.75 2.75 0 0 1-2.75-2.75V31.449a2.75 2.75 0 0 1 2.75-2.75h8.782a2.75 2.75 0 0 1 2.75 2.75V87.25a2.75 2.75 0 0 1-2.75 2.75" style="stroke:none;stroke-width:1;stroke-dasharray:none;stroke-linecap:butt;stroke-linejoin:miter;stroke-miterlimit:10;fill:#a5d76e;fill-rule:nonzero;opacity:1" transform="translate(-2.472 -2.472)scale(4.94)"/><path d="M21.624 90h-8.782a2.75 2.75 0 0 1-2.75-2.75V59.313a2.75 2.75 0 0 1 2.75-2.75h8.782a2.75 2.75 0 0 1 2.75 2.75V87.25a2.75 2.75 0 0 1-2.75 2.75" style="stroke:none;stroke-width:1;stroke-dasharray:none;stroke-linecap:butt;stroke-linejoin:miter;stroke-miterlimit:10;fill:#d2555a;fill-rule:nonzero;opacity:1" transform="translate(-2.472 -2.472)scale(4.94)"/><path d="M77.158 90h-8.782a2.75 2.75 0 0 1-2.75-2.75V17.517a2.75 2.75 0 0 1 2.75-2.75h8.782a2.75 2.75 0 0 1 2.75 2.75V87.25a2.75 2.75 0 0 1-2.75 2.75" style="stroke:none;stroke-width:1;stroke-dasharray:none;stroke-linecap:butt;stroke-linejoin:miter;stroke-miterlimit:10;fill:#78d2be;fill-rule:nonzero;opacity:1" transform="translate(-2.472 -2.472)scale(4.94)"/><path d="M67.773 17.977h18.183c1.787 0 2.682-2.258 1.418-3.578L74.185.614a1.944 1.944 0 0 0-2.836 0L58.16 14.398c-1.264 1.321-.369 3.578 1.418 3.578z" style="stroke:none;stroke-width:1;stroke-dasharray:none;stroke-linecap:butt;stroke-linejoin:miter;stroke-miterlimit:10;fill:#78d2be;fill-rule:nonzero;opacity:1" transform="translate(-2.472 -2.472)scale(4.94)"/></g></svg>