<?xml version="1.0" encoding="UTF-8"?>
<svg id="Layer_2" data-name="Layer 2" xmlns="http://www.w3.org/2000/svg" viewBox="0 0 1536.51 1535.87">
  <defs>
    <style>
      .cls-1 {
        fill: #2cd4be;
      }
    </style>
  </defs>
  <g id="Layer_1-2" data-name="Layer 1">
    <g>
      <path class="cls-1" d="M0,229.3C0,162.13,19.16,104.76,61.96,61.96,190.35-66.41,475.14,9.88,805.23,261.05c26.89,20.38,32.05,58.7,11.62,85.57-20.41,26.84-58.73,32.02-85.57,11.61C438.83,135.7,212.63,84,148.31,148.31c-80.71,80.79,25.97,410.5,376.14,777.39l488.12-488.12,43.15,43.18c182.1,182.1,327.59,380.27,409.63,558.05,90.62,196.32,93.9,351.07,9.2,435.71-128.37,128.37-413.19,52.08-743.27-199.09-26.84-20.41-32-58.73-11.62-85.54,20.44-26.87,58.73-32.05,85.57-11.64,292.45,222.54,518.65,274.26,582.97,209.92,43.86-43.83,30.94-158.11-33.73-298.2-69.75-151.14-190.35-319.61-342.41-479.16l-488.09,488.09-43.18-43.18C216.84,791.83.03,455.22,0,229.3"/>
      <path class="cls-1" d="M.74,1306.37c0-75.42,23.5-165.93,70.42-267.56,82.04-177.78,227.53-375.95,409.63-558.05C823.18,138.37,1287.82-124.76,1474.56,61.95c186.71,186.69-76.42,651.38-418.83,993.76,0,.03.03,0,0,0-182.07,182.1-380.27,327.56-558.03,409.63-196.32,90.59-351.07,93.87-435.74,9.2C21.12,1433.7.74,1376.58.74,1306.37M1413.77,229.59c0-36.66-8.68-64.4-25.57-81.28-83.99-83.97-436.99,34.74-821.08,418.8-172.17,172.17-308.92,357.85-385.07,522.88-64.67,140.06-77.59,254.34-33.73,298.2,43.86,43.86,158.11,30.91,298.2-33.73,165.03-76.18,350.71-212.93,522.85-385.07,306.94-306.94,444.4-593.98,444.4-739.8"/>
    </g>
  </g>
</svg>