<svg xmlns="http://www.w3.org/2000/svg" xmlns:xlink="http://www.w3.org/1999/xlink" id="Layer_1" x="0" y="0" version="1.1" viewBox="0 0 60 60" xml:space="preserve" style="enable-background:new 0 0 60 60"><style type="text/css">.st0{fill:#ee5a29}</style><path d="M45.2,16.2c3.3,0,6.5,1.3,8.8,3.3c1.5,1.3,3.8,0.2,3.8-1.8V4.7c0-2.5-2.1-4.7-4.7-4.7H6.3	C3.7,0,1.6,2.1,1.6,4.7v50.7c0,2.5,2.1,4.6,4.7,4.6h46.8c2.5,0,4.7-2.1,4.7-4.7V42.3c0-2-2.3-3.1-3.8-1.8c-2.4,2.1-5.4,3.3-8.8,3.3	c-7.6,0-13.7-6.2-13.7-13.8C31.6,22.4,37.7,16.2,45.2,16.2z" class="st0"/></svg>