<?xml version="1.0" standalone="no"?>
<!DOCTYPE svg PUBLIC "-//W3C//DTD SVG 20010904//EN" "http://www.w3.org/TR/2001/REC-SVG-20010904/DTD/svg10.dtd">
<svg version="1.0" xmlns="http://www.w3.org/2000/svg" viewBox="55 60 200.000000 200.000000" preserveAspectRatio="xMidYMid meet">
  <metadata>
Created by potrace 1.10, written by Peter Selinger 2001-2011
</metadata>
  <g transform="translate(0.000000,300.000000) scale(0.050000,-0.050000)" fill="#ff9900" stroke="none">
    <path d="M2781 5172 c-16 -20 -22 -158 -20 -472 l3 -444 -302 3 c-262 2 -314
-2 -392 -37 -215 -95 -307 -321 -210 -512 22 -43 40 -81 40 -84 0 -3 -59 -6
-131 -6 -323 0 -513 -289 -370 -562 23 -45 40 -84 37 -86 -279 -161 -320 -522
-77 -673 94 -57 93 -56 39 -148 -156 -264 99 -609 416 -562 99 15 99 15 46
-84 -95 -177 -5 -419 189 -507 124 -57 1778 -57 1902 0 199 90 290 359 179
529 -39 60 -21 75 69 61 310 -50 562 324 393 582 -44 67 -42 73 49 129 243
151 202 512 -77 673 -3 2 13 40 37 85 142 274 -48 563 -370 563 -72 0 -131 3
-131 6 0 3 18 41 40 84 94 185 11 403 -191 502 -98 47 -120 50 -408 47 l-305
-3 -3 455 c-3 409 -7 457 -38 477 -93 59 -104 13 -115 -480 l-10 -458 -70 0
-70 0 -5 448 c-4 290 -14 458 -28 475 -29 35 -86 34 -116 -1z m1120 -1102
c121 -63 157 -242 69 -346 -88 -105 -95 -106 -1007 -100 l-846 6 -69 75 c-106
116 -83 293 47 364 83 45 1719 45 1806 1z m437 -616 c181 -64 207 -323 42
-421 -65 -38 -2628 -52 -2727 -14 -210 80 -184 390 38 446 91 24 2579 13 2647
-11z m-1658 -615 c0 -11 -15 -44 -34 -73 -46 -69 -46 -243 0 -312 19 -29 34
-60 34 -68 0 -19 -1125 -13 -1187 6 -161 49 -191 275 -54 398 42 37 82 41 618
51 315 5 584 12 598 15 14 2 25 -5 25 -17z m1855 -30 c157 -103 140 -376 -26
-417 -75 -19 -1189 -25 -1189 -6 0 8 15 39 34 68 22 32 35 92 35 156 0 64 -13
124 -35 156 -19 29 -34 60 -34 68 0 31 1165 7 1215 -25z m-1412 0 c110 -57
146 -211 76 -325 -146 -241 -502 -72 -421 199 42 138 206 198 345 126z m1253
-630 c137 -83 153 -268 33 -380 l-52 -49 -1357 0 -1357 0 -52 49 c-120 112
-104 297 33 380 103 64 2649 64 2752 0z m-431 -657 c97 -87 97 -257 0 -344
l-66 -58 -879 0 -879 0 -66 58 c-59 53 -65 69 -65 172 0 103 6 119 65 172 l66
58 879 0 879 0 66 -58z" />
    <path d="M2141 2641 c-29 -52 -28 -56 26 -91 55 -36 106 -23 124 33 27 85
-108 138 -150 58z" />
    <path d="M1069 4085 c-41 -28 -48 -83 -16 -115 65 -66 183 9 135 85 -24 38
-86 54 -119 30z" />
    <path d="M4984 3296 c-61 -61 23 -175 99 -134 68 36 35 158 -43 158 -18 0 -43
-11 -56 -24z" />
    <path d="M888 1851 c-24 -98 87 -150 140 -66 30 48 -7 103 -74 111 -42 5 -55
-4 -66 -45z" />
    <path d="M4501 921 c-33 -61 7 -125 73 -117 67 8 104 63 74 111 -33 53 -121
56 -147 6z" />
  </g>
</svg>
