<svg id="Layer_1" data-name="Layer 1" xmlns="http://www.w3.org/2000/svg" viewBox="0 0 300 300"><defs><style>.cls-2{fill:#fff}</style></defs><path d="M290 150A140 140 0 11150 10a140 140 0 01140 140" fill="#54c4c4"/><path class="cls-2" d="M231.17 159.29c0-12.87-6.51-14.17-18-15.36-10.18-1.06-21.71-2.25-26.73-16.65a1.9 1.9 0 01.08-1.46 1.93 1.93 0 013.55.2c4.22 12.09 14 13.1 23.5 14.09 4.68.48 10 1 14.12 3.4a1.4 1.4 0 001.45 0 1.39 1.39 0 00.64-1.3c-2.23-25.82-13.16-38.79-21.94-45.12a35.47 35.47 0 00-12.07-5.8 1.39 1.39 0 00-1.56 2 49.56 49.56 0 014 11c2.18 7.91 4.06 14.74 12.62 16.44a1.93 1.93 0 011.51 2.26 1.93 1.93 0 01-1.88 1.55 1.58 1.58 0 01-.38 0c-10.9-2.16-13.28-10.82-15.59-19.23-1.55-5.61-3-10.91-7-14.2-5.61-4.65-15-7.78-23.37-7.78a29.19 29.19 0 00-4.05.27 18.5 18.5 0 00-9.68 4.07 1.41 1.41 0 00-.47 1 1.38 1.38 0 00.37 1 73.85 73.85 0 0111.13 16.84 1.92 1.92 0 01-.85 2.58 2 2 0 01-2.59-.86c-3.87-7.76-8.11-13.86-12.58-18.12-6.31-6-11.94-7.25-15.56-7.25a14.73 14.73 0 00-2.85.27c-5.1 1-8.5 4.35-9.51 7a1.44 1.44 0 00.12 1.23 32.6 32.6 0 012.62 5.94c2.32 6.38 4.51 12.4 15.48 12.91a1.88 1.88 0 011.33.62 1.91 1.91 0 01.5 1.39 1.89 1.89 0 01-2 1.83c-13.53-.62-16.52-8.84-18.91-15.44a25.62 25.62 0 00-2.62-5.75 1 1 0 00-.14-.16 2 2 0 01-.24-.32 1.84 1.84 0 00-.17-.22 5.88 5.88 0 00-4.76-1.9c-4.69 0-8.26 1.47-10.62 4.4a13.45 13.45 0 00-2.12 3.84 2 2 0 00-.07.26 2.16 2.16 0 01-.15.5.87.87 0 00-.07.17 25.75 25.75 0 00-.3 12.29c1.6 7.48 6.24 16.89 19.27 19.25a22.45 22.45 0 003.92.32 70.9 70.9 0 009.77-1 83.59 83.59 0 0112-1.12 33.73 33.73 0 0117 4.21 1.43 1.43 0 001.16.1 1.41 1.41 0 00.83-.81c2.3-5.79 5.74-9.55 8.51-12.57 5.55-6.06 9.56-10.44 3.79-25.68a1.92 1.92 0 01.05-1.47 1.9 1.9 0 011.07-1 2 2 0 012.34 1.05c6.6 17.45 1.43 23.1-4.56 29.65-3 3.23-6.32 6.89-8.31 12.79a1.4 1.4 0 00.51 1.58c13.47 9.74 20.52 13 27.92 13a25.17 25.17 0 002.83-.16 1.93 1.93 0 011.7 3.12 1.88 1.88 0 01-1.29.7 30.3 30.3 0 01-3.33.19c-8.5 0-16.58-3.82-32-15.17a29.36 29.36 0 00-18.21-5.8 79.71 79.71 0 00-11.55 1.1 73.31 73.31 0 01-10.3 1 25.76 25.76 0 01-4.62-.39c-11.8-2.14-19.74-10-22.36-22.22a33.7 33.7 0 01-.69-6.26 1.41 1.41 0 00-2.36-1c-11 10.25-11.68 20.34-11.09 25.44.93 8.21 5.87 14.26 10.27 16a13 13 0 004.89.84 47.14 47.14 0 006.16-.58 61.45 61.45 0 018.46-.72c8.41 0 16.19 2.86 24.51 9a1.92 1.92 0 01.42 2.68 2 2 0 01-2.69.42c-7.63-5.62-14.69-8.23-22.21-8.23a57.85 57.85 0 00-8 .69 50.8 50.8 0 01-6.68.6 16.82 16.82 0 01-6.29-1.1c-5.42-2.14-10.13-8.22-12-15.48a1.4 1.4 0 00-1.2-1.02 1.38 1.38 0 00-1.41.81c-5.25 11.33-2.3 22.75 3 29a19 19 0 0014.9 7.15 26.43 26.43 0 0013-3.8 1.38 1.38 0 00.67-.88 25.77 25.77 0 012.83-7 2 2 0 012.64-.65 1.93 1.93 0 01.65 2.64c-3.74 6.18-4.8 16.88.58 24.55 4.11 5.85 11 8.82 20.56 8.82.83 0 1.68 0 2.55-.07a1.42 1.42 0 001.2-.82A1.37 1.37 0 00134 192c-4.91-6.44.5-13.39 5.74-20.11s10.6-13.6 8.48-21.23a1.92 1.92 0 011.33-2.36 1.94 1.94 0 012.37 1.33c2.64 9.49-3.9 17.88-9.15 24.62-5.94 7.63-9.1 12.15-4.85 16.4a6.77 6.77 0 005 2.35c2.73 0 5.92-1.69 12-5.46 5.24-3.23 12.41-7.66 21.64-10.41a1.41 1.41 0 00.2-2.61 16.22 16.22 0 01-6-4.52c-2.39-3.06-3-6.84-1.91-11.24a2 2 0 012.33-1.39 1.93 1.93 0 011.4 2.34c-.81 3.19-.4 5.86 1.21 7.93 2 2.64 7.28 6 20.7 6.82 2.23 0 4.41 0 6.69.2a54.18 54.18 0 0019.34-3.53 1.4 1.4 0 00.52-2.23c-1.3-1.45-3.14-2.3-5.59-3.35-3.81-1.61-8.54-3.62-9.18-10.19a1.93 1.93 0 011.73-2.11 1.91 1.91 0 012.1 1.73c.41 4.29 3.25 5.5 6.86 7 2.53 1.08 5.68 2.41 7.72 5.3a1.41 1.41 0 002 .28c2.95-2.4 4.45-5.21 4.45-8.34"/><path class="cls-2" d="M200 177.4c-1.1 0-2.15-.09-3.29-.15-17.52.28-29 7.36-37.35 12.52a65.71 65.71 0 01-8.53 4.69 1.4 1.4 0 00-.22 2.47 37.57 37.57 0 004.61 2.42 19.8 19.8 0 005.63 1.44c5 .74 9 1.33 10.77 15.26a1.4 1.4 0 001.39 1.22h9.87a1.4 1.4 0 001.39-1.6c-1.93-13.8-.17-14.81 3.71-17a28 28 0 004.37-2.93c3.83-3.23 7.8-6.56 9-16.75a1.38 1.38 0 00-.33-1.08 1.39 1.39 0 00-1-.48"/></svg>