<svg width="40" height="40" viewBox="0 0 40 40" fill="none" xmlns="http://www.w3.org/2000/svg">
<path d="M37.2582 16H24.688C24.0575 16 23.5455 15.488 23.5455 14.8575V1.75709C23.5455 0.786909 22.7585 0 21.7891 0H17.3018C16.3316 0 15.5455 0.786909 15.5455 1.75709V14.7782C15.5455 15.4538 14.9993 16.0029 14.3236 16.0058L10.2044 16.0255C9.52291 16.0291 8.96946 15.4764 8.97091 14.7956L8.99636 1.76C8.99855 0.788364 8.21164 0 7.24 0H2.75636C1.78618 0 1 0.786909 1 1.75709V38.44C1 39.3018 1.69818 40 2.55927 40H37.2582C38.12 40 38.8182 39.3018 38.8182 38.44V17.56C38.8182 16.6982 38.12 16 37.2582 16ZM31.3636 29.7731C31.3636 30.9025 30.448 31.8182 29.3185 31.8182H25.7724C24.6429 31.8182 23.7273 30.9025 23.7273 29.7731V26.2269C23.7273 25.0975 24.6429 24.1818 25.7724 24.1818H29.3185C30.448 24.1818 31.3636 25.0975 31.3636 26.2269V29.7731Z" fill="#FF6600"/>
</svg>
