<svg width="40" height="40" viewBox="0 0 40 40" fill="none" xmlns="http://www.w3.org/2000/svg">
<g clip-path="url(#clip0_762_16880)">
<path d="M35 21.8994C35 31.3978 28.4375 36.147 20.6375 38.9016C20.2291 39.0418 19.7854 39.0351 19.3813 38.8826C11.5625 36.147 5 31.3978 5 21.8994V8.60163C5 8.0978 5.19754 7.61461 5.54918 7.25835C5.90081 6.90209 6.37772 6.70194 6.875 6.70194C10.625 6.70194 15.3125 4.42233 18.575 1.53481C18.9722 1.19096 19.4775 1.00204 20 1.00204C20.5225 1.00204 21.0278 1.19096 21.425 1.53481C24.7063 4.44132 29.375 6.70194 33.125 6.70194C33.6223 6.70194 34.0992 6.90209 34.4508 7.25835C34.8025 7.61461 35 8.0978 35 8.60163V21.8994Z" stroke="#5699FF" stroke-width="3" stroke-linecap="round" stroke-linejoin="round"/>
<path d="M20 39.002V1.00204" stroke="#5699FF" stroke-width="3" stroke-linecap="round" stroke-linejoin="round"/>
</g>
<defs>
<clipPath id="clip0_762_16880">
<rect width="40" height="40" fill="white"/>
</clipPath>
</defs>
</svg>
