<svg width="80" height="80" fill="none" viewBox="13.5 9.957 132 91.59" xmlns="http://www.w3.org/2000/svg"><path fill-rule="evenodd" clip-rule="evenodd" d="M119.047 49.098A44.997 44.997 0 0073.23 10.016a44.999 44.999 0 00-26.781 80.218c4.416-1.966 9.245-4.262 14.375-6.837a31.493 31.493 0 01-1.95-55.788 31.496 31.496 0 0146.923 30.239 405.85 405.85 0 0013.25-8.75zm.379 5.1c-4.546 3.362-9.583 6.846-15 10.358a31.493 31.493 0 01-37.411 21.045c-5.937 2.854-11.57 5.325-16.729 7.37a44.999 44.999 0 0069.14-38.773z" fill="#1D2125"/><path fill-rule="evenodd" clip-rule="evenodd" d="M121.709 17.6a3.082 3.082 0 002.845-1.902 3.078 3.078 0 00-4.023-4.023 3.076 3.076 0 00-1.901 2.845 3.077 3.077 0 003.079 3.08zM18.104 69.914a4.104 4.104 0 100-8.208 4.104 4.104 0 000 8.208zm69.31-24.174c4.433-2.45 8.75-4.775 12.916-6.92.155.25.321.545.496.879a615.52 615.52 0 00-12.878 6.945l-.534-.904zm57.582-21.862c-1.979-3.429-13.979.213-30.962 8.15.159.262.317.533.467.808 16.27-7.745 27.624-11.474 29.066-8.474 2.266 3.924-23.75 23.182-58.082 43.01-34.332 19.83-64.023 32.72-66.29 28.795-1.29-2.333 5.096-8.69 10.834-13.75-8.263 6.667-12.596 11.805-11.17 14.271 3.232 5.604 34.527-5.416 69.364-25.516 34.836-20.099 60.023-41.69 56.773-47.294z" fill="#00ADE8"/><path d="M83.335 48.998a6.3 6.3 0 113.825 2.917 6.078 6.078 0 01-3.825-2.917z" fill="#DD078C"/></svg>