<svg xmlns="http://www.w3.org/2000/svg" width="80" height="80" fill="none" viewBox="13.5 9.957 132 91.59"><path fill="#1D2125" fill-rule="evenodd" d="M119.047 49.098A44.997 44.997 0 0 0 73.23 10.016a44.999 44.999 0 0 0-26.781 80.218c4.416-1.966 9.245-4.262 14.375-6.837a31.493 31.493 0 0 1-1.95-55.788 31.496 31.496 0 0 1 46.923 30.239 406 406 0 0 0 13.25-8.75m.379 5.1c-4.546 3.362-9.583 6.846-15 10.358a31.493 31.493 0 0 1-37.411 21.045c-5.937 2.854-11.57 5.325-16.729 7.37a44.999 44.999 0 0 0 69.14-38.773" clip-rule="evenodd"/><path fill="#00ADE8" fill-rule="evenodd" d="M121.709 17.6a3.08 3.08 0 0 0 2.845-1.902 3.078 3.078 0 0 0-4.023-4.023 3.08 3.08 0 0 0-1.901 2.845 3.077 3.077 0 0 0 3.079 3.08M18.104 69.914a4.104 4.104 0 1 0 0-8.208 4.104 4.104 0 0 0 0 8.208m69.31-24.174c4.433-2.45 8.75-4.775 12.916-6.92q.233.377.496.879a616 616 0 0 0-12.878 6.945zm57.582-21.862c-1.979-3.429-13.979.213-30.962 8.15q.24.394.467.808c16.27-7.745 27.624-11.474 29.066-8.474 2.266 3.924-23.75 23.182-58.082 43.01-34.332 19.83-64.023 32.72-66.29 28.795-1.29-2.333 5.096-8.69 10.834-13.75-8.263 6.667-12.596 11.805-11.17 14.271 3.232 5.604 34.527-5.416 69.364-25.516 34.836-20.099 60.023-41.69 56.773-47.294" clip-rule="evenodd"/><path fill="#DD078C" d="M83.335 48.998a6.3 6.3 0 1 1 3.825 2.917 6.08 6.08 0 0 1-3.825-2.917"/></svg>