<svg xmlns="http://www.w3.org/2000/svg" width="1000" height="166.84" style="fill:none"><path d="M281.724 166.807c24.783 0 46.473-12.392 55.048-37.41 1.664-5.01-.724-8.34-5.482-8.34h-9.298c-4.287 0-7.145 1.9-9.062 5.951-7.381 14.545-17.637 19.774-30.5 19.774-22.883 0-36.939-15.974-36.939-42.656 0-26.683 14.544-42.656 36.452-42.656 13.35 0 24.313 5.717 31.223 19.302 2.152 4.052 4.758 5.952 9.062 5.952h9.298c4.758 0 7.146-3.094 5.481-7.633-10.004-27.171-32.417-37.646-55.283-37.646-34.551 0-60.293 25.506-60.293 62.68 0 37.176 24.548 62.682 60.293 62.682m623.629-73.644c3.093-20.26 16.914-32.887 35.745-32.887s32.887 12.863 34.551 32.887zm36.703 73.644c21.925 0 43.85-10.24 54.578-33.359 2.62-5.48.235-9.297-4.525-9.297h-8.813c-4.283 0-6.907 1.9-9.059 5.716-7.146 12.627-19.537 17.873-32.164 17.873-21.69 0-35.745-14.78-37.41-38.84h87.466c4.76 0 7.871-2.622 7.871-7.632-.962-37.41-25.259-59.806-58.868-59.806s-60.293 24.312-60.293 62.68c0 38.369 25.976 62.681 61.25 62.681zm-138.694-59.571h7.868c4.76 0 7.381-2.622 8.105-7.633 4.54-32.198 23.388-36.468 43.43-35.51 4.286.202 7.8-3.094 7.8-7.398v-7.381c0-4.758-2.387-7.633-7.145-7.869-17.738-.672-33.56 5.414-42.706 22.648-.505.941-1.917.69-2.035-.37l-1.48-12.997c-.47-4.758-3.093-7.146-7.868-7.146H773.35c-4.204 0-7.634 3.414-7.634 7.634v4.052c0 4.203 3.414 7.633 7.634 7.633h14.779c4.203 0 7.633 3.413 7.633 7.634v29.07c0 4.203 3.414 7.633 7.634 7.633zm-32.164 57.2h74.584c4.759 0 7.633-2.858 7.633-7.634v-4.052c0-4.758-2.858-7.633-7.633-7.633h-19.066c-4.758 0-7.633-2.858-7.633-7.633v-13.115c0-4.758-2.858-7.633-7.634-7.633h-8.103c-4.76 0-7.634 2.858-7.634 7.633v13.115c0 4.758-2.859 7.633-7.633 7.633h-16.915c-4.758 0-7.633 2.858-7.633 7.633v4.052c0 4.759 2.859 7.634 7.633 7.634zM656.093 93.18c3.094-20.26 16.914-32.887 35.746-32.887 18.83 0 32.887 12.862 34.551 32.887zm36.703 73.643c21.925 0 43.85-10.239 54.577-33.358 2.623-5.481.235-9.298-4.523-9.298h-8.81c-4.288 0-6.91 1.9-9.062 5.717-7.146 12.627-19.538 17.872-32.165 17.872-21.69 0-35.745-14.779-37.41-38.838h87.464c4.758 0 7.87-2.623 7.87-7.633-.96-37.41-25.255-59.806-58.865-59.806s-60.293 24.312-60.293 62.68c0 38.369 25.977 62.681 61.252 62.681zm-275.707 0c35.746 0 61.252-26.448 61.252-62.68s-25.506-62.681-61.252-62.681c-35.745 0-61.25 26.935-61.25 62.68 0 8.34 1.428 17.638 5.715 27.878 2.152 5.01 6.205 5.716 10.492 2.622l6.91-5.01c3.582-2.624 4.523-5.717 3.33-10.24-1.9-5.952-2.388-11.197-2.388-15.72 0-25.019 15.014-42.185 37.175-42.185s37.175 16.914 37.175 42.656-14.78 42.656-36.704 42.656c-7.634 0-14.78-1.43-23.355-7.87-3.581-2.857-6.91-3.328-10.727-.47l-5.245 3.816c-4.288 3.095-4.758 7.382-.724 10.727 12.393 10.005 26.684 13.821 39.563 13.821zm91.5-2.387h7.868c4.204 0 7.634-3.414 7.634-7.634V99.855c0-24.06 12.861-38.368 32.887-38.368 18.108 0 28.6 11.92 28.6 33.845v61.487c0 4.203 3.413 7.633 7.633 7.633h8.103c4.204 0 7.634-3.413 7.634-7.633V91.516c0-32.164-16.444-50.037-44.32-50.037-18.983 0-30.197 7.768-38.57 18.579-.64.824-1.934.37-1.934-.656V7.633c-.05-4.22-3.463-7.633-7.667-7.633h-7.869c-4.203 0-7.633 3.413-7.633 7.633v149.17c0 4.203 3.413 7.633 7.633 7.633" style="fill:#39594d;stroke-width:9.81412029"/><g clip-path="url(#a)" transform="translate(0 -4.907)scale(9.81412)"><path d="M5.508 10.622c.457 0 1.367-.025 2.626-.543 1.466-.604 4.383-1.7 6.487-2.825 1.471-.787 2.117-1.828 2.117-3.23A3.523 3.523 0 0 0 13.214.5H5.061A5.06 5.06 0 0 0 0 5.561c0 2.795 2.122 5.06 5.508 5.06" style="clip-rule:evenodd;fill:#39594d;fill-rule:evenodd"/><path d="M6.887 14.107a3.39 3.39 0 0 1 2.09-3.13l2.568-1.066C14.142 8.833 17 10.74 17 13.554a3.944 3.944 0 0 1-3.945 3.943h-2.78a3.39 3.39 0 0 1-3.388-3.39" style="clip-rule:evenodd;fill:#d18ee2;fill-rule:evenodd"/><path d="M2.917 11.29A2.917 2.917 0 0 0 0 14.206v.377a2.917 2.917 0 0 0 5.835 0v-.378a2.917 2.917 0 0 0-2.918-2.917" style="fill:#ff7759"/></g><defs><clipPath id="a"><path d="M0 0h17v17H0z" style="fill:#fff" transform="translate(0 .5)"/></clipPath></defs></svg>