<?xml version="1.0" encoding="utf-8"?>
<!-- Generator: Adobe Illustrator 25.0.0, SVG Export Plug-In . SVG Version: 6.00 Build 0)  -->
<svg version="1.1" id="Layer_1" xmlns="http://www.w3.org/2000/svg" xmlns:xlink="http://www.w3.org/1999/xlink" x="0px" y="0px"
	 viewBox="0 0 64 88" style="enable-background:new 0 0 64 88;" xml:space="preserve">
<style type="text/css">
	.st0{fill:#703DB4;}
	.st1{fill:#532B86;}
	.st2{fill:#FFF;}
</style>
<g id="Layer_4">
	<path class="st0" d="M 58,88 H 6 A 6,6 0 0 1 0,82 V 6 A 6,6 0 0 1 6,0 h 36 l 22,22 v 60 a 6,6 0 0 1 -6,6 z"/>
	<path class="st1" d="M 42,0 64,22 H 42 Z"/>
	<path class="st2" d="M 50,39 H 24 v -5 h 26 z m 0,7 H 24 v 5 h 26 z m 0,12 H 24 v 5 H 50 Z M 16.5,34 A 2.5,2.5 0 1 0 19,36.5 2.5,2.5 0 0 0 16.5,34 Z m 0,12 A 2.5,2.5 0 1 0 19,48.5 2.5,2.5 0 0 0 16.5,46 Z m 0,12 A 2.5,2.5 0 1 0 19,60.5 2.5,2.5 0 0 0 16.5,58 Z"/>
</g>
</svg>
