<svg xmlns="http://www.w3.org/2000/svg" width="46" height="40" fill="none"><path fill="#00B7BC" fill-rule="evenodd" d="M34.978 37.732a1.56 1.56 0 0 1-1.562 1.563H6.26a1.56 1.56 0 0 1-1.563-1.563V9.607c0-.405.157-.794.438-1.086l6.304-6.531v5.344H8.213a1.172 1.172 0 1 0 0 2.343h4.43a1.17 1.17 0 0 0 1.171-1.171V.232h19.602a1.56 1.56 0 0 1 1.562 1.563v10.327l-2.86 2.86-8.252 8.276a413.006 413.006 0 0 1-1.654 1.662l-.337.337a2 2 0 0 0-.557 1.08L20.3 31.922c-.108.638-.215 1.079.211 1.418.403.32.9.174 1.54.066l5.408-.928a2 2 0 0 0 1.08-.556l6.44-6.429zm-24.03-21.265a1.18 1.18 0 0 0 1.171 1.172h13.163a1.172 1.172 0 1 0 0-2.344H12.119a1.17 1.17 0 0 0-1.172 1.172m7.294 14.766a1.17 1.17 0 0 0-1.172-1.172H12.12a1.172 1.172 0 1 0 0 2.343h4.951a1.17 1.17 0 0 0 1.172-1.172m.86-7.391a1.17 1.17 0 0 0-1.172-1.172h-5.811a1.172 1.172 0 1 0 0 2.343h5.81a1.164 1.164 0 0 0 1.173-1.171" clip-rule="evenodd"/><path fill="#00B7BC" d="m33.532 16.397 4.289-4.289 3.758 3.71 1.617-1.616 2.258 2.257c.218.218.34.513.343.82-.002.311-.125.608-.344.83l-6.804 6.796a1.13 1.13 0 0 1-.828.343 1.15 1.15 0 0 1-.828-.343 1.18 1.18 0 0 1 0-1.657l5.976-5.968-1.312-1.313-1.383 1.414-13.149 13.125-4.617.782.782-4.617.336-.337 2.562 2.555a1.1 1.1 0 0 0 .828.344c.312.005.612-.12.828-.344a1.18 1.18 0 0 0 0-1.656l-2.562-2.562zM44.736 12.24c0 .414-.163.81-.454 1.102l-.922.914-3.852-3.828.93-.93a1.563 1.563 0 0 1 2.203 0l1.64 1.641c.291.293.455.69.455 1.102"/></svg>