<?xml version="1.0" encoding="UTF-8" standalone="no"?>
<svg
   width="50"
   height="50"
   viewBox="0 0 50 50"
   fill="none"
   version="1.1"
   id="svg1"
   sodipodi:docname="form.svg"
   inkscape:version="1.3 (0e150ed6c4, 2023-07-21)"
   xmlns:inkscape="http://www.inkscape.org/namespaces/inkscape"
   xmlns:sodipodi="http://sodipodi.sourceforge.net/DTD/sodipodi-0.dtd"
   xmlns="http://www.w3.org/2000/svg"
   xmlns:svg="http://www.w3.org/2000/svg">
  <defs
     id="defs1" />
  <sodipodi:namedview
     id="namedview1"
     pagecolor="#ffffff"
     bordercolor="#000000"
     borderopacity="0.25"
     inkscape:showpageshadow="2"
     inkscape:pageopacity="0.0"
     inkscape:pagecheckerboard="0"
     inkscape:deskcolor="#d1d1d1"
     inkscape:zoom="16.54"
     inkscape:cx="24.96977"
     inkscape:cy="25"
     inkscape:window-width="1920"
     inkscape:window-height="1028"
     inkscape:window-x="0"
     inkscape:window-y="28"
     inkscape:window-maximized="1"
     inkscape:current-layer="svg1" />
  <path
     d="m 50.001618,22.55492 c -0.002,0.3104 -0.1253,0.6076 -0.3437,0.8282 l -6.8046,6.7966 c -0.217,0.2237 -0.5166,0.348 -0.8282,0.3438 -0.3112,0.0024 -0.61,-0.1218 -0.8281,-0.3438 -0.2176,-0.2207 -0.3395,-0.5182 -0.3395,-0.8281 0,-0.3099 0.1219,-0.6074 0.3395,-0.8281 l 5.9767,-5.9688 -1.3125,-1.3125 -1.3828,1.4141 -13.1484,13.125 -4.6171,0.7813 0.7813,-4.6171 0.3359,-0.336 2.5625,2.5547 c 0.2149,0.2269 0.5158,0.3517 0.8281,0.3438 0.3117,0.005 0.6117,-0.1193 0.8282,-0.3438 0.2176,-0.2207 0.3395,-0.5182 0.3395,-0.8281 0,-0.3099 -0.1219,-0.6074 -0.3395,-0.8281 l -2.5625,-2.5625 8.25,-8.2734 4.2891,-4.2891 3.7579,3.7109 1.6171,-1.6172 2.2579,2.2578 c 0.2179,0.2177 0.3414,0.5124 0.3437,0.8204 z m -17.2812,15.1484 3.0312,-3.0313 v 8.2967 c 0,0.4144 -0.1645,0.8118 -0.4577,1.1048 -0.2929,0.2932 -0.6904,0.4577 -1.1048,0.4577 H 7.0328676 c -0.41438,0 -0.81183,-0.1646 -1.10483,-0.4577 -0.29313,-0.2929 -0.45767,-0.6904 -0.45767,-1.1048 v -28.125 c -4.9e-4,-0.405 0.15642,-0.7943 0.4375,-1.0859 L 12.212458,7.22654 v 5.34378 H 8.9858676 c -0.41862,0 -0.8055,0.2233 -1.01479,0.5859 -0.20947,0.3626 -0.20947,0.8092 0,1.1719 0.20931,0.3626 0.59621,0.5859 1.01479,0.5859 h 4.4295504 c 0.3109,0 0.6089,-0.1236 0.8287,-0.3433 0.2197,-0.2197 0.3432,-0.5177 0.3432,-0.8286 V 5.46878 h 19.6017 c 0.4144,0 0.8118,0.16455 1.1048,0.45767 0.2932,0.29296 0.4577,0.69042 0.4577,1.10483 v 13.28124 l -10.1563,10.1563 c -0.1692,0.1741 -0.2833,0.3942 -0.3281,0.6328 l -1.1016,6.6092 c -0.06,0.374 0.0619,0.754 0.3282,1.0234 0.2195,0.2199 0.5174,0.3434 0.8281,0.3437 h 0.1953 l 6.6017,-1.1016 c 0.2226,-0.031 0.4316,-0.1261 0.6015,-0.2734 z m -21.00005,-16 c 0.0021,0.3102 0.12614,0.6071 0.34554,0.8263 0.21924,0.2194 0.51613,0.3434 0.82631,0.3455 h 15.2659 c 0.4186,0 0.8055,-0.2233 1.0148,-0.5859 0.2094,-0.3626 0.2094,-0.8092 0,-1.1718 -0.2094,-0.3627 -0.5963,-0.586 -1.0148,-0.586 h -15.2659 c -0.31084,0 -0.60885,0.1236 -0.8286,0.3433 -0.21972,0.2197 -0.34326,0.5178 -0.34326,0.8286 z m 10.71085,14.7658 c 0,-0.3109 -0.1235,-0.6089 -0.3433,-0.8286 -0.2197,-0.2197 -0.5177,-0.3433 -0.8286,-0.3433 h -8.3671 c -0.41861,0 -0.80549,0.2233 -1.01478,0.5859 -0.20947,0.3627 -0.20947,0.8093 0,1.1719 0.20931,0.3626 0.59621,0.5859 1.01478,0.5859 h 8.3671 c 0.3109,0 0.6089,-0.1235 0.8286,-0.3432 0.2197,-0.2198 0.3433,-0.5178 0.3433,-0.8287 z m 0.8594,-7.3908 c 0,-0.3109 -0.1236,-0.6089 -0.3433,-0.8287 -0.2197,-0.2197 -0.5178,-0.3432 -0.8286,-0.3432 h -9.2267 c -0.41862,0 -0.80549,0.2233 -1.01478,0.5859 -0.20948,0.3626 -0.20948,0.8093 0,1.1719 0.2093,0.3626 0.5962,0.5859 1.01478,0.5859 h 9.2267 c 0.3113,0.0021 0.6106,-0.1208 0.8308,-0.341 0.2203,-0.2202 0.3431,-0.5195 0.341,-0.8309 z m 25.1954,-10.4609 c 0.291,-0.2928 0.4544,-0.6888 0.4544,-1.1015 0,-0.4128 -0.1634,-0.8088 -0.4544,-1.1016 l -1.6406,-1.6407 c -0.2928,-0.291 -0.6888,-0.4544 -1.1016,-0.4544 -0.4128,0 -0.8088,0.1634 -1.1016,0.4544 l -0.9297,0.9297 3.8516,3.8281 z"
     fill="#00b7bc"
     id="path1" />
</svg>
