<?xml version="1.0" encoding="UTF-8"?>
<svg id="_图层_2" data-name="图层 2" xmlns="http://www.w3.org/2000/svg" xmlns:xlink="http://www.w3.org/1999/xlink" viewBox="0 0 1032.18 178.66">
  <defs>
    <style>
      .cls-1 {
        fill: url(#linear-gradient);
      }

      .cls-2 {
        fill: #fff;
      }

      .cls-3 {
        fill: #172d72;
      }
    </style>
    <linearGradient id="linear-gradient" x1="-1083.66" y1="-4131.16" x2="-1078.08" y2="-4136.84" gradientTransform="translate(33113.03 -90018.64) scale(30.52 -21.8)" gradientUnits="userSpaceOnUse">
      <stop offset="0" stop-color="#e30c34"/>
      <stop offset="1" stop-color="#b7062c"/>
    </linearGradient>
  </defs>
  <g id="Layer_1" data-name="Layer 1">
    <g>
      <g>
        <g id="Group_1791" data-name="Group 1791">
          <path id="Path_4360" data-name="Path 4360" class="cls-3" d="M352.62,138.33h-20.38V56.29h-30.05v-16.98h79.31v16.98h-28.93l.04,82.04Z"/>
          <path id="Path_4361" data-name="Path 4361" class="cls-3" d="M414.15,56.29h-19.02v-16.98h19.02v16.98Zm0,82.04h-19.02V64.98h19.02v73.34Z"/>
          <path id="Path_4362" data-name="Path 4362" class="cls-3" d="M434.53,39.32h38.71c15.21,0,24.58,3.39,31.24,11.41,16.13,22.79,16.13,53.27,0,76.06-6.65,8.01-16.16,11.55-31.24,11.55h-38.71V39.32Zm38.71,82.04c15.35,0,22.95-10.73,22.95-32.46s-7.6-32.6-22.95-32.6h-18.3V121.35h18.3Z"/>
          <path id="Path_4363" data-name="Path 4363" class="cls-3" d="M577.42,138.33h-44.55V39.32h44.14c26.07,0,32.33,16.98,32.33,26.08-.22,8.84-5.51,16.77-13.59,20.38,9.62,4.22,15.99,13.54,16.43,24.03,0,11.82-6.92,28.53-34.76,28.53Zm-24.18-59.62h22.12c9.37,0,14.39-3.94,14.39-11.14s-5.02-11.28-14.39-11.28h-22.12v22.41Zm0,42.61h24.31c9.92,0,15.08-4.48,15.08-12.77s-5.16-12.91-15.08-12.91h-24.31v25.67Z"/>
          <path id="Path_4364" data-name="Path 4364" class="cls-3" d="M706.87,55.07c-16.03,0-25.67,13.04-25.67,34.91s9.23,34.36,24.99,34.36c11.15,.89,20.91-7.42,21.8-18.57,.03-.42,.05-.84,.06-1.26h19.84c-1.23,22.68-17.66,36.94-42.24,36.94-27.57,0-44.82-19.97-44.82-51.75s17.38-52.02,45.36-52.02c23.09,0,39.52,12.91,41.29,35.18h-19.42c-1.15-10.65-10.5-18.5-21.19-17.79Z"/>
          <path id="Path_4365" data-name="Path 4365" class="cls-3" d="M781.16,138.33h-19.02V39.32h19.02v99.02Z"/>
          <path id="Path_4366" data-name="Path 4366" class="cls-3" d="M867.96,103.15c0,23.49-13.99,38.3-36.27,38.3s-36.27-14.67-36.27-38.85,13.72-38.84,36.13-38.84c22.95,0,36.41,14.54,36.41,39.39Zm-53.51-.55c0,13.99,6.92,23.49,17.21,23.49s17.21-9.51,17.21-23.22c0-14.4-6.78-23.76-17.21-23.76s-17.21,9.51-17.21,23.49h0Z"/>
          <path id="Path_4367" data-name="Path 4367" class="cls-3" d="M928.82,138.33v-8.69c-4.56,7.73-13.04,12.28-22,11.82-12.51,1.11-23.56-8.14-24.66-20.66-.14-1.58-.11-3.17,.08-4.74v-51.07h19.02v47.13c0,8.83,4.1,13.18,12.22,13.18,7.71,.74,14.56-4.92,15.3-12.63,.06-.59,.07-1.18,.06-1.77v-45.89h19.01v73.34h-19.02Z"/>
          <path id="Path_4368" data-name="Path 4368" class="cls-3" d="M962.1,102.74c0-22.13,13.32-38.98,30.84-38.98,8.22-.46,16.01,3.67,20.23,10.73V39.32h19.01v99.01h-19.01v-7.47c-4.28,6.98-12.05,11.05-20.23,10.6-18.48,0-30.84-17.25-30.84-38.71Zm19.02,0c0,13.45,6.56,22.82,16.03,22.82s16.02-9.24,16.02-22.54c0-13.99-6.38-23.36-16.02-23.36s-16.04,9.51-16.04,23.08h0Z"/>
        </g>
        <path id="Path_4369" data-name="Path 4369" class="cls-1" d="M197.24,41.81C174.34,1.93,123.46-11.83,83.58,11.07c-21.46,12.32-36.32,33.55-40.56,57.92C13.13,75.92-5.48,105.77,1.45,135.65c5.84,25.19,28.28,43.02,54.14,43.01,1.88,0,3.76-.1,5.63-.29h113.79c1.86,.15,3.73,.29,5.63,.29,38.35,0,69.43-31.09,69.43-69.43,0-31.95-21.8-59.77-52.82-67.42h0Z"/>
        <g id="Group_1793" data-name="Group 1793">
          <path id="Path_4370" data-name="Path 4370" class="cls-2" d="M124.96,43.45l-43.01,24.84v24.83l21.51-12.42v49.99l21.5,12.4h0V68.28l21.5-12.41-21.5-12.41Z"/>
          <path id="Path_4371" data-name="Path 4371" class="cls-2" d="M146.58,80.83v49.84l21.59-12.46v-49.86l-21.59,12.48Z"/>
        </g>
      </g>
      <g>
        <path id="Path_4369-2" data-name="Path 4369" class="cls-1" d="M197.24,41.81C174.34,1.93,123.46-11.83,83.58,11.07c-21.46,12.32-36.32,33.55-40.56,57.92C13.13,75.92-5.48,105.77,1.45,135.65c5.84,25.19,28.28,43.02,54.14,43.01,1.88,0,3.76-.1,5.63-.29h113.79c1.86,.15,3.73,.29,5.63,.29,38.35,0,69.43-31.09,69.43-69.43,0-31.95-21.8-59.77-52.82-67.42h0Z"/>
        <g id="Group_1793-2" data-name="Group 1793">
          <path id="Path_4370-2" data-name="Path 4370" class="cls-2" d="M124.96,43.45l-43.01,24.84v24.83l21.51-12.42v49.99l21.5,12.4h0V68.28l21.5-12.41-21.5-12.41Z"/>
          <path id="Path_4371-2" data-name="Path 4371" class="cls-2" d="M146.58,80.83v49.84l21.59-12.46v-49.86l-21.59,12.48Z"/>
        </g>
      </g>
    </g>
  </g>
</svg>