<svg width="40" height="40" viewBox="0 0 40 40" fill="none" xmlns="http://www.w3.org/2000/svg">
<path fill-rule="evenodd" clip-rule="evenodd" d="M11.2723 16.6874C11.2723 17.1796 11.3254 17.5788 11.4186 17.8714C11.525 18.1641 11.6581 18.4834 11.8443 18.8293C11.9108 18.9357 11.9374 19.0422 11.9374 19.1353C11.9374 19.2684 11.8576 19.4013 11.6847 19.5344L10.8465 20.0931C10.7268 20.1729 10.6071 20.2129 10.5007 20.2129C10.3676 20.2129 10.2346 20.1464 10.1016 20.0266C9.91533 19.8271 9.75573 19.6142 9.62265 19.4013C9.48957 19.1751 9.35661 18.9224 9.21021 18.6164C8.17245 19.8404 6.86877 20.4523 5.29893 20.4523C4.18149 20.4523 3.29013 20.133 2.63829 19.4944C1.98645 18.8558 1.65381 18.0044 1.65381 16.9401C1.65381 15.8092 2.05293 14.8914 2.86449 14.1996C3.67605 13.5078 4.75365 13.1619 6.12381 13.1619C6.57609 13.1619 7.04181 13.2018 7.53405 13.2684C8.02629 13.3348 8.53185 13.4413 9.06393 13.561V12.5899C9.06393 11.5788 8.85105 10.8738 8.43861 10.4613C8.01285 10.0489 7.29453 9.84932 6.27009 9.84932C5.80449 9.84932 5.32557 9.90248 4.83333 10.0222C4.34109 10.142 3.86217 10.2883 3.39657 10.4745C3.18369 10.5676 3.02409 10.6208 2.93097 10.6474C2.83785 10.6741 2.77137 10.6873 2.71809 10.6873C2.53185 10.6873 2.43873 10.5542 2.43873 10.2748V9.623C2.43873 9.41012 2.46537 9.25052 2.53185 9.1574C2.59833 9.06428 2.71809 8.97116 2.90433 8.87804C3.36993 8.63852 3.92877 8.43896 4.58061 8.27936C5.23257 8.10644 5.92425 8.02664 6.65601 8.02664C8.23917 8.02664 9.39657 8.3858 10.1415 9.10424C10.8733 9.82268 11.2458 10.9135 11.2458 12.3769V16.6873H11.2724L11.2723 16.6874ZM5.87097 18.7095C6.31005 18.7095 6.76233 18.6297 7.24125 18.4701C7.72017 18.3105 8.14593 18.0178 8.50509 17.6187C8.71797 17.366 8.87757 17.0865 8.95749 16.7673C9.03729 16.448 9.09045 16.0622 9.09045 15.6099V15.0512C8.70465 14.9581 8.29221 14.8783 7.86657 14.825C7.44081 14.7718 7.02849 14.7452 6.61605 14.7452C5.72469 14.7452 5.07285 14.9181 4.63377 15.2774C4.19469 15.6366 3.98193 16.1421 3.98193 16.8073C3.98193 17.4326 4.14153 17.8982 4.47417 18.2174C4.79349 18.55 5.25909 18.7096 5.87109 18.7096L5.87097 18.7095ZM16.5537 20.1463C16.3142 20.1463 16.1546 20.1064 16.0482 20.0132C15.9417 19.9334 15.8486 19.7472 15.7688 19.4943L12.6424 9.21068C12.5626 8.94464 12.5227 8.77172 12.5227 8.6786C12.5227 8.46572 12.6291 8.34596 12.842 8.34596H14.1458C14.3985 8.34596 14.5716 8.38592 14.6647 8.47904C14.7711 8.55884 14.8509 8.74508 14.9307 8.99792L17.1657 17.8048L19.2411 8.99792C19.3076 8.73188 19.3874 8.55884 19.4938 8.47904C19.6003 8.39924 19.7865 8.34596 20.026 8.34596H21.0903C21.343 8.34596 21.5161 8.38592 21.6225 8.47904C21.729 8.55884 21.8221 8.74508 21.8752 8.99792L23.9772 17.9113L26.2788 8.99792C26.3586 8.73188 26.4517 8.55884 26.5448 8.47904C26.6512 8.39924 26.8242 8.34596 27.0637 8.34596H28.3009C28.5138 8.34596 28.6335 8.4524 28.6335 8.6786C28.6335 8.74508 28.6202 8.81168 28.6069 8.89148C28.5936 8.97128 28.5669 9.07772 28.5138 9.22412L25.3076 19.5078C25.2278 19.7738 25.1347 19.9467 25.0282 20.0266C24.9218 20.1064 24.7489 20.1597 24.5227 20.1597H23.3786C23.1258 20.1597 22.9528 20.1198 22.8464 20.0266C22.74 19.9335 22.6468 19.7606 22.5937 19.4944L20.5316 10.9136L18.4828 19.4811C18.4164 19.7472 18.3364 19.9201 18.23 20.0132C18.1236 20.1063 17.9373 20.1463 17.6979 20.1463H16.5538H16.5537ZM33.6488 20.5054C32.957 20.5054 32.2652 20.4256 31.6 20.266C30.9349 20.1064 30.416 19.9334 30.0702 19.7338C29.8573 19.6141 29.711 19.4811 29.6577 19.3614C29.6046 19.2416 29.5779 19.1086 29.5779 18.9889V18.3104C29.5779 18.031 29.6844 17.898 29.8839 17.898C29.9637 17.898 30.0435 17.9113 30.1233 17.9379C30.243 17.9779 30.3229 18.0177 30.456 18.071C30.9082 18.2706 31.4005 18.4302 31.9194 18.5366C32.4516 18.643 32.9703 18.6962 33.5025 18.6962C34.3406 18.6962 34.9926 18.5498 35.4448 18.2571C35.8971 17.9644 36.1366 17.5387 36.1366 16.9933C36.1366 16.6208 36.0169 16.3148 35.7775 16.0621C35.538 15.8092 35.0857 15.5832 34.4338 15.3703L32.5048 14.7716C31.5337 14.4656 30.8152 14.0133 30.3763 13.4146C29.9373 12.8293 29.7111 12.1774 29.7111 11.4856C29.7111 10.9269 29.8309 10.4347 30.0703 10.0089C30.3097 9.58316 30.629 9.21068 31.0281 8.918C31.4272 8.612 31.8795 8.38592 32.4117 8.2262C32.9439 8.06648 33.5026 8 34.088 8C34.3807 8 34.6867 8.01332 34.9794 8.05316C35.2854 8.09312 35.5647 8.14628 35.8441 8.19944C36.1101 8.26592 36.363 8.33252 36.6024 8.41232C36.8418 8.49212 37.0281 8.57192 37.1611 8.65184C37.3473 8.75828 37.4804 8.86472 37.5602 8.98436C37.64 9.0908 37.68 9.2372 37.68 9.42344V10.0488C37.68 10.3281 37.5735 10.4745 37.374 10.4745C37.2675 10.4745 37.0946 10.4212 36.8684 10.3148C36.1101 9.96896 35.2586 9.79592 34.3141 9.79592C33.5558 9.79592 32.9571 9.91568 32.5447 10.1684C32.1322 10.4211 31.9194 10.8069 31.9194 11.3524C31.9194 11.7249 32.0524 12.0442 32.3185 12.297C32.5845 12.5497 33.0768 12.8025 33.7819 13.0286L35.671 13.6273C36.6289 13.9333 37.3207 14.359 37.7331 14.9044C38.1456 15.4498 38.3451 16.0752 38.3451 16.767C38.3451 17.339 38.2254 17.8579 37.9993 18.3102C37.7598 18.7626 37.4406 19.1616 37.0281 19.4809C36.6157 19.8134 36.1234 20.0529 35.5514 20.2258C34.9527 20.4121 34.3275 20.5052 33.6489 20.5052L33.6488 20.5054Z" fill="white"/>
<path fill-rule="evenodd" clip-rule="evenodd" d="M36.1634 26.9713C31.7865 30.2041 25.4274 31.9202 19.9597 31.9202C12.2967 31.9202 5.39228 29.0865 0.177203 24.3771C-0.235237 24.0046 0.137363 23.4991 0.629603 23.7918C6.27032 27.0644 13.2282 29.0467 20.4253 29.0467C25.2811 29.0467 30.6158 28.0356 35.5249 25.9602C36.2565 25.6275 36.8818 26.4391 36.1634 26.9713Z" fill="#FF9900"/>
<path fill-rule="evenodd" clip-rule="evenodd" d="M37.9858 24.8958C37.427 24.1774 34.2874 24.5499 32.8639 24.7229C32.4382 24.7761 32.3717 24.4036 32.7575 24.1242C35.2585 22.3682 39.3694 22.8737 39.8483 23.4591C40.3272 24.0578 39.7152 28.1686 37.3739 30.1374C37.0147 30.4434 36.6688 30.2838 36.8285 29.8847C37.3607 28.5676 38.5446 25.601 37.9859 24.8958H37.9858Z" fill="#FF9900"/>
</svg>
