<svg xmlns="http://www.w3.org/2000/svg" width="100%" viewBox="0 0 167 32" fill="none" class="u-svg"><path d="M14.8382 32L0 17.1478L2.8613 0L14.8382 14.0024L26.8151 0L29.6764 17.1478L14.8382 32Z" fill="currentColor"></path><path d="M167 16.3605C167 23.034 164.184 25.4756 156.385 25.4756H145.255V6.48584H156.277C164.075 6.48584 167 8.92738 167 15.628V16.3605ZM155.572 10.962H151.158V20.9994H155.572C160.203 20.9994 160.988 19.4531 160.988 16.1435V15.8451C160.988 12.5083 160.203 10.962 155.572 10.962Z" fill="currentColor"></path><path d="M142.337 25.4756H133.428L124.79 12.2642H124.573V25.4756H118.914V6.4859H127.823L136.461 19.7245H136.678V6.4859H142.337V25.4756Z" fill="currentColor"></path><path d="M105.576 25.7472H104.059C96.2873 25.7472 93.2002 23.3057 93.2002 16.6321V15.3571C93.2002 8.65644 96.2873 6.2149 104.059 6.2149H105.576C113.347 6.2149 116.462 8.65644 116.462 15.3571V16.6321C116.462 23.3057 113.347 25.7472 105.576 25.7472ZM105.142 21.2439C109.692 21.2168 110.45 19.6434 110.45 16.388V15.5741C110.45 12.2916 109.692 10.7453 105.142 10.7182H104.519C99.943 10.7453 99.2119 12.2916 99.2119 15.5741V16.388C99.2119 19.6434 99.943 21.2168 104.519 21.2439H105.142Z" fill="currentColor"></path><path d="M80.3201 25.7473H78.8036C71.0318 25.7473 67.9447 23.3057 67.9447 16.6322V15.3572C67.9447 8.6565 71.0318 6.21497 78.8036 6.21497H80.3201C88.0919 6.21497 91.2061 8.6565 91.2061 15.3572V16.6322C91.2061 23.3057 88.0919 25.7473 80.3201 25.7473ZM79.8868 21.244C84.4362 21.2169 85.1944 19.6434 85.1944 16.388V15.5742C85.1944 12.2917 84.4362 10.7454 79.8868 10.7182H79.264C74.6875 10.7454 73.9564 12.2917 73.9564 15.5742V16.388C73.9564 19.6434 74.6875 21.2169 79.264 21.244H79.8868Z" fill="currentColor"></path><path d="M65.964 20.2673C65.964 23.9025 64.0143 25.4759 58.4088 25.4759H44.869V6.48621H58.0026C63.6081 6.48621 65.5579 7.89687 65.5849 11.1794V11.4235C65.5849 14.0007 64.5017 15.3571 61.875 15.6555V15.8454C64.7455 16.0625 65.937 17.3375 65.964 19.9418V20.2673ZM56.9195 10.7453H50.7724V14.055H57.2444C59.1129 14.055 59.6545 13.7294 59.6545 12.5087V12.4002C59.6545 11.1794 59.1129 10.7453 56.9195 10.7453ZM56.8111 17.663H50.7724V21.2168H56.8382C59.4108 21.2168 60.0336 20.837 60.0336 19.5077V19.345C60.0336 17.9614 59.4379 17.663 56.8111 17.663Z" fill="currentColor"></path></svg>
