<svg width="40" height="40" viewBox="0 0 40 40" fill="none" xmlns="http://www.w3.org/2000/svg">
<path d="M19.7187 23.1043C19.6665 23.09 18.863 22.8828 18.0091 22.8828C16.3924 22.8828 15.4191 23.7558 15.4191 25.0558C15.4191 26.2065 16.2334 26.7804 17.2106 27.0891C17.3189 27.1248 17.4785 27.1748 17.5848 27.21C18.0198 27.3469 18.3671 27.5502 18.3671 27.9024C18.3671 28.2963 17.9658 28.5513 17.0934 28.5513C16.3267 28.5513 15.5917 28.3321 15.4369 28.293V29.8924C15.5232 29.9108 16.3967 30.0823 17.3298 30.0823C18.6721 30.0823 20.2074 29.4958 20.2074 27.7498C20.2074 26.903 19.6889 26.1234 18.5506 25.7615L18.0667 25.6074C17.778 25.5163 17.2626 25.3687 17.2626 24.9456C17.2626 24.6113 17.6445 24.376 18.3476 24.376C18.9543 24.376 19.6926 24.5798 19.7187 24.588V23.1043ZM34.5411 26.4826C34.5411 27.4939 33.7665 28.3121 32.7271 28.3121C31.6865 28.3121 30.9139 27.4939 30.9139 26.4826C30.9139 25.4734 31.6865 24.6548 32.7271 24.6548C33.7665 24.6548 34.5411 25.4734 34.5411 26.4826ZM32.7271 22.885C30.5893 22.885 29.0561 24.4974 29.0561 26.4826C29.0561 28.471 30.5893 30.0823 32.7271 30.0823C34.8647 30.0823 36.4 28.471 36.4 26.4826C36.4 24.4974 34.8647 22.885 32.7271 22.885ZM13.0671 29.9586H11.313V23.0082H13.0671" fill="white"/>
<path d="M8.90163 23.1343C8.73681 23.0854 8.12756 22.8853 7.30237 22.8853C5.16793 22.8853 3.60107 24.4071 3.60107 26.4828C3.60107 28.7223 5.3307 30.0825 7.30237 30.0825C8.0857 30.0825 8.68367 29.8969 8.90163 29.8351V27.9693C8.82626 28.0112 8.25293 28.3382 7.42811 28.3382C6.25959 28.3382 5.50589 27.5158 5.50589 26.4828C5.50589 25.4184 6.29218 24.629 7.42811 24.629C8.267 24.629 8.83107 24.9632 8.90163 25.0001" fill="white"/>
<path d="M27.2092 23.1343C27.0444 23.0854 26.4352 22.8853 25.61 22.8853C23.4755 22.8853 21.9087 24.4071 21.9087 26.4828C21.9087 28.7223 23.6383 30.0825 25.61 30.0825C26.3933 30.0825 26.9913 29.8969 27.2092 29.8351V27.9693C27.1339 28.0112 26.5605 28.3382 25.7357 28.3382C24.5672 28.3382 23.8135 27.5158 23.8135 26.4828C23.8135 25.4184 24.5998 24.629 25.7357 24.629C26.5746 24.629 27.1387 24.9632 27.2092 25.0001" fill="white"/>
<path d="M11.3076 9.86759C11.3076 9.38852 10.9163 9 10.4367 9C9.95722 9 9.56593 9.38852 9.56593 9.86759V19.0972C9.56595 19.2115 9.58849 19.3247 9.63227 19.4303C9.67604 19.5359 9.74019 19.6319 9.82105 19.7127C9.90191 19.7935 9.99789 19.8576 10.1035 19.9013C10.2091 19.945 10.3224 19.9675 10.4367 19.9674C10.551 19.9675 10.6642 19.945 10.7699 19.9013C10.8755 19.8576 10.9715 19.7936 11.0524 19.7127C11.1333 19.6319 11.1974 19.536 11.2412 19.4304C11.285 19.3248 11.3076 19.2116 11.3076 19.0972V9.86759ZM6.52444 13.1439C6.52444 12.665 6.13333 12.2759 5.6537 12.2759C5.17407 12.2759 4.78296 12.665 4.78296 13.1439V17.3633C4.78299 17.4776 4.80553 17.5908 4.8493 17.6964C4.89308 17.802 4.95723 17.898 5.03808 17.9788C5.11894 18.0596 5.21493 18.1237 5.32056 18.1674C5.42619 18.2111 5.53939 18.2336 5.6537 18.2335C5.76802 18.2336 5.88122 18.2111 5.98685 18.1674C6.09248 18.1237 6.18846 18.0596 6.26932 17.9788C6.35018 17.898 6.41433 17.802 6.4581 17.6964C6.50188 17.5908 6.52442 17.4776 6.52444 17.3633V13.1439ZM1.74148 15.5387C1.74148 15.0596 1.35037 14.6713 0.870741 14.6713C0.391667 14.6713 0 15.0596 0 15.5387V17.3633C0.00469893 17.5912 0.0985018 17.8081 0.261286 17.9675C0.42407 18.127 0.642867 18.2163 0.870741 18.2163C1.09861 18.2163 1.31741 18.127 1.4802 17.9675C1.64298 17.8081 1.73678 17.5912 1.74148 17.3633" fill="white"/>
<path d="M9.56594 9.86759C9.56594 9.38852 9.95724 9 10.4369 9C10.9163 9 11.3076 9.38852 11.3076 9.86759V19.0972C11.3076 19.2115 11.285 19.3247 11.2413 19.4303C11.1975 19.5359 11.1333 19.6319 11.0525 19.7127C10.9716 19.7935 10.8756 19.8576 10.77 19.9013C10.6644 19.945 10.5512 19.9675 10.4369 19.9674C10.3225 19.9675 10.2093 19.945 10.1037 19.9013C9.99801 19.8576 9.90201 19.7936 9.82113 19.7127C9.74025 19.6319 9.67609 19.536 9.6323 19.4304C9.58852 19.3248 9.56597 19.2116 9.56594 19.0972V9.86759ZM14.3491 13.1439C14.3491 12.665 14.7402 12.2759 15.2198 12.2759C15.6995 12.2759 16.0906 12.665 16.0906 13.1439V17.3633C16.0905 17.4776 16.068 17.5908 16.0242 17.6964C15.9805 17.802 15.9163 17.898 15.8355 17.9788C15.7546 18.0596 15.6586 18.1237 15.553 18.1674C15.4474 18.2111 15.3341 18.2336 15.2198 18.2335C15.1055 18.2336 14.9923 18.2111 14.8867 18.1674C14.7811 18.1237 14.6851 18.0596 14.6042 17.9788C14.5234 17.898 14.4592 17.802 14.4154 17.6964C14.3717 17.5908 14.3491 17.4776 14.3491 17.3633V13.1439ZM19.1321 15.5387C19.1321 15.0596 19.5232 14.6713 20.0028 14.6713C20.4819 14.6713 20.8735 15.0596 20.8735 15.5387V17.3633C20.8688 17.5912 20.775 17.8081 20.6122 17.9675C20.4495 18.127 20.2307 18.2163 20.0028 18.2163C19.7749 18.2163 19.5561 18.127 19.3933 17.9675C19.2306 17.8081 19.1368 17.5912 19.1321 17.3633" fill="white"/>
<path d="M28.6924 9.86759C28.6924 9.38852 29.0837 9 29.5633 9C30.0428 9 30.4341 9.38852 30.4341 9.86759V19.0972C30.4341 19.2115 30.4115 19.3247 30.3677 19.4303C30.324 19.5359 30.2598 19.6319 30.179 19.7127C30.0981 19.7935 30.0021 19.8576 29.8965 19.9013C29.7909 19.945 29.6776 19.9675 29.5633 19.9674C29.449 19.9675 29.3358 19.945 29.2301 19.9013C29.1245 19.8576 29.0285 19.7936 28.9476 19.7127C28.8667 19.6319 28.8026 19.536 28.7588 19.4304C28.715 19.3248 28.6924 19.2116 28.6924 19.0972V9.86759ZM33.4756 13.1439C33.4756 12.665 33.8667 12.2759 34.3463 12.2759C34.8259 12.2759 35.217 12.665 35.217 13.1439V17.3633C35.217 17.4776 35.1945 17.5908 35.1507 17.6964C35.1069 17.802 35.0428 17.898 34.9619 17.9788C34.8811 18.0596 34.7851 18.1237 34.6794 18.1674C34.5738 18.2111 34.4606 18.2336 34.3463 18.2335C34.232 18.2336 34.1188 18.2111 34.0131 18.1674C33.9075 18.1237 33.8115 18.0596 33.7307 17.9788C33.6498 17.898 33.5857 17.802 33.5419 17.6964C33.4981 17.5908 33.4756 17.4776 33.4756 17.3633V13.1439ZM38.2585 15.5387C38.2585 15.0596 38.6496 14.6713 39.1293 14.6713C39.6083 14.6713 40 15.0596 40 15.5387V17.3633C39.9953 17.5912 39.9015 17.8081 39.7387 17.9675C39.5759 18.127 39.3571 18.2163 39.1293 18.2163C38.9014 18.2163 38.6826 18.127 38.5198 17.9675C38.357 17.8081 38.2632 17.5912 38.2585 17.3633" fill="white"/>
<path d="M30.4341 9.86759C30.4341 9.38852 30.0428 9 29.5631 9C29.0837 9 28.6924 9.38852 28.6924 9.86759V19.0972C28.6924 19.2115 28.715 19.3247 28.7587 19.4303C28.8025 19.5359 28.8667 19.6319 28.9475 19.7127C29.0284 19.7935 29.1244 19.8576 29.23 19.9013C29.3356 19.945 29.4488 19.9675 29.5631 19.9674C29.6775 19.9675 29.7907 19.945 29.8963 19.9013C30.002 19.8576 30.098 19.7936 30.1789 19.7127C30.2597 19.6319 30.3239 19.536 30.3677 19.4304C30.4115 19.3248 30.434 19.2116 30.4341 19.0972V9.86759ZM25.6509 13.1439C25.6509 12.665 25.2598 12.2759 24.7802 12.2759C24.3005 12.2759 23.9094 12.665 23.9094 13.1439V17.3633C23.9095 17.4776 23.932 17.5908 23.9758 17.6964C24.0195 17.802 24.0837 17.898 24.1645 17.9788C24.2454 18.0596 24.3414 18.1237 24.447 18.1674C24.5526 18.2111 24.6659 18.2336 24.7802 18.2335C24.8945 18.2336 25.0077 18.2111 25.1133 18.1674C25.2189 18.1237 25.3149 18.0596 25.3958 17.9788C25.4766 17.898 25.5408 17.802 25.5846 17.6964C25.6283 17.5908 25.6509 17.4776 25.6509 17.3633V13.1439ZM20.8679 15.5387C20.8679 15.0596 20.4768 14.6713 19.9972 14.6713C19.5181 14.6713 19.1265 15.0596 19.1265 15.5387V17.3633C19.1312 17.5912 19.225 17.8081 19.3878 17.9675C19.5505 18.127 19.7693 18.2163 19.9972 18.2163C20.2251 18.2163 20.4439 18.127 20.6067 17.9675C20.7694 17.8081 20.8632 17.5912 20.8679 17.3633" fill="white"/>
</svg>
