<svg width="40" height="40" viewBox="0 0 40 40" fill="none" xmlns="http://www.w3.org/2000/svg">
<path d="M38.0275 29.1986C37.1647 29.1138 35.6363 28.8994 33.7238 29.8643C31.8114 30.8293 31.0608 30.8692 30.1208 30.7694C30.3976 31.2756 30.9561 31.9663 32.714 32.091C34.4718 32.2156 35.3121 32.268 34.3871 34.4572C34.4095 33.7965 34.2524 32.5173 32.5095 32.7417C30.7641 32.9662 30.3577 34.537 32.2278 35.3199C31.6194 35.4421 30.3303 35.5169 29.4102 33.1058C28.7719 33.3826 27.787 33.9386 26.0017 32.5622C26.4173 32.7118 26.881 32.7916 27.393 32.8016C25.8097 32.0461 24.2962 30.6398 23.3287 29.3108C24.0967 29.8843 24.9445 30.4528 25.8022 30.56C24.7874 29.3258 22.4461 26.8523 19.5786 24.314C21.4213 25.5183 23.6454 27.4183 27.2858 26.9919C30.9262 26.563 33.3722 25.7302 38.0275 29.1986Z" fill="white"/>
<path d="M22.4458 28.3408C20.1643 27.3509 19.6756 27.1539 16.7408 26.4084C13.8061 25.6629 10.9187 24.1095 8.98877 21.6884C10.3502 22.6857 13.1279 24.6904 15.9828 24.4735C15.549 23.8377 14.7486 23.344 13.7936 22.8453C14.8733 23.1046 18.1371 23.9399 22.4458 28.3408Z" fill="white"/>
<path d="M9.38276 13.7443C1.83765 9.02924 0.339106 5.39632 0 4C4.74 9.18383 8.34051 11.2135 10.7915 12.8342C15.8283 16.0457 16.8905 18.205 17.4789 19.8931C15.0628 16.4821 11.8637 15.4373 9.38276 13.7443Z" fill="white"/>
<path d="M10.3203 17.482C3.41598 13.8316 1.81271 10.9093 1.49854 9.57782C4.95442 13.2631 8.79679 15.203 11.0484 16.4622C15.9255 19.0778 17.1697 20.9129 17.7881 22.3417C15.4642 19.5216 12.2327 18.5342 10.3203 17.482Z" fill="white"/>
<path fill-rule="evenodd" clip-rule="evenodd" d="M32.6662 22.2095C32.0254 23.7329 32.7634 23.9025 33.0626 24.0172C34.5811 24.5982 38.598 25.3437 38.3462 27.0417C38.815 27.5105 40.5504 29.3781 39.8248 30.6746C39.2014 29.6573 36.3365 27.0168 32.8706 26.4732C29.4048 25.9297 26.2456 27.1016 23.635 25.3686C21.4183 23.7728 21.0618 23.1694 18.8301 19.5141C17.8278 17.8734 17.6333 16.3798 14.2298 13.6022C10.8262 10.8245 7.64214 9.34338 6.30566 5.20679C9.23045 8.80231 13.013 12.2358 22.5204 14.9561C34.429 18.2773 33.5289 20.105 32.6662 22.2095ZM37.9747 27.4232C37.9547 26.765 38.0445 26.3835 36.2417 26.1092C36.885 26.4267 37.4627 26.8647 37.9747 27.4232Z" fill="white"/>
</svg>
