<svg height="1675" viewBox="-.3 3.8 900.3 599.8" width="2500" xmlns="http://www.w3.org/2000/svg"><g fill="#da1b1b"><path d="m59 5.5c0 1.7 12.6 27.2 14.1 28.5.3.3 1.6 2.3 2.9 4.5s3.5 5.1 4.7 6.5c1.3 1.4 2.3 2.8 2.3 3.1s.9 1.7 2.1 3c1.1 1.3 4.4 5.1 7.2 8.4 12.9 15 31.5 32.4 51.2 47.8.6.4 2.1 1.6 3.4 2.7s2.7 2 3 2 1.8 1 3.1 2.2c3.6 3.2 7.2 5.7 26.1 18.3 17.5 11.6 17.8 11.9 24.9 16.1 2.5 1.5 5.1 3.4 5.8 4.1s1.8 1.3 2.3 1.3c.7 0 10.8 5.7 15.9 9 .8.6 2.6 1.6 4 2.2 3.6 1.8 23.6 13.9 29.5 17.9 17 11.4 38.5 30.9 45 40.6 2.7 4.1 4.5 5.4 4.5 3.2 0-1.3-4.1-8.8-5.7-10.7-.7-.7-1.3-1.8-1.3-2.3 0-1.1-6-10.9-7.8-12.8-.7-.8-2.1-2.6-3-4-2.7-4.1-6-7.8-16.2-18.1-12.3-12.2-13.7-13.3-31-26.2-8-5.9-14.9-11.1-15.5-11.6-.5-.4-2.8-1.9-5-3.2s-4.2-2.7-4.5-3-2.3-1.7-4.5-3-8.5-5.3-14-8.9c-11.1-7.3-13-8.5-16.2-10.2-1.3-.7-2.3-1.6-2.3-2.1 0-.4-.5-.8-1-.8-.6 0-3-1.4-5.3-3.1-3.9-2.8-15.9-11.3-20-14.1-1.1-.7-2.8-2.1-3.9-3.1-1.2-.9-2.4-1.7-2.7-1.7s-1.7-1-3.1-2.3c-1.4-1.2-5.3-4.4-8.7-7s-6.8-5.3-7.5-6-3.8-3.2-6.8-5.6c-12.9-10.1-56.9-52.3-61.3-58.8-1.9-2.8-4.7-4.5-4.7-2.8z"/><path d="m152.8 23.6c-.8.8.3 4.4 1.3 4.4.5 0 .9.5.9 1.2 0 1.5 7.2 15.9 8.8 17.6.6.7 1.2 1.7 1.2 2.2 0 1.3 8.6 13.7 12.8 18.4 10 11.2 28.2 28.1 35.2 32.7 1.4.9 3.9 2.9 5.5 4.3 1.7 1.5 4.8 3.9 7 5.4s4.9 3.5 5.9 4.4c1.1 1 3.8 3 6 4.5 2.3 1.6 5 3.6 6 4.5 1.1 1 3.8 3 6 4.5 2.3 1.5 4.3 3 4.6 3.3s3.7 3 7.5 6c3.9 3 7.5 5.9 8.1 6.5.6.5 4.6 4.1 8.9 8 14.6 13.1 25.8 25.3 32.6 35.5 6.6 10 9.2 14.4 15.1 25.8 3.1 6.2 7.7 14.4 10 18.3 2.4 3.9 5.4 8.9 6.7 11.2s3 4.8 3.8 5.5c.7.7 1.3 1.8 1.3 2.3s.5 1.5 1 2.2c.6.7 5.3 7.7 10.6 15.7 16.9 25.6 40.1 46 62.9 55.1 10.8 4.3 33.4 6 63 4.7 20.6-.8 44.2-.2 48.3 1.3 1.3.5 4.2.9 6.5.9 2.3.1 6 .7 8.2 1.5s4.9 1.5 6 1.5 3.3.7 4.9 1.5c1.5.8 3.5 1.5 4.3 1.5 1.6 0 7.1 2.4 19.8 8.6 18.3 9.1 33.1 19.9 48.7 35.6 10.4 10.5 10.8 10.8 11.4 8.2.8-3.1-.2-13.7-1.5-16.1-.5-1-2-4.1-3.3-6.8-2.5-5.6-7.2-12.3-14.2-20.4-2.7-3.3-4.6-6.5-4.6-7.9 0-4.1-3.9-10.5-8.5-13.9-5.8-4.3-23.6-13.3-26.3-13.3-.5 0-2.3-.7-3.8-1.5-1.6-.8-3.7-1.5-4.7-1.5-.9 0-2.5-.4-3.5-.9-.9-.5-5.1-1.9-9.2-3.1-13.7-4.1-22.5-7.2-25.6-9.1-3.3-2-6.4-7.2-6.4-10.7 0-2.6 3.8-14.4 5-15.6.6-.6 1-1.7 1-2.5 0-.9.6-2.8 1.4-4.3.8-1.4 1.9-5.8 2.6-9.7 3.3-19.4-7.2-31.8-41-48.7-4.5-2.2-12.7-5.9-16.5-7.5-1.1-.4-4.1-1.7-6.7-2.8-2.6-1.2-5.4-2.1-6.2-2.1s-1.8-.5-2.1-1c-.3-.6-1.3-1-2.2-1-.8 0-2.9-.6-4.6-1.4-1.8-.8-10.4-3.8-19.2-6.6-8.8-2.9-16.7-5.6-17.6-6-.9-.5-3.4-1.2-5.5-1.6-2.2-.3-4.3-1-4.9-1.4-.5-.4-2.6-1.1-4.5-1.4-1.9-.4-4.4-1.1-5.5-1.6-1.1-.4-4-1.3-6.5-2-2.5-.6-6.3-1.6-8.5-2.1-2.2-.6-4.9-1.5-6-1.9-1.1-.5-3.6-1.2-5.5-1.6-1.9-.3-4.1-1-5-1.4-.8-.4-4.9-1.8-9-3s-8.2-2.5-9-2.9c-.9-.5-3.1-1.2-5-1.6s-3.9-1-4.5-1.4c-.5-.4-4.4-1.8-8.5-3.1-4.1-1.2-7.9-2.6-8.5-3-.5-.4-3.9-1.7-7.5-3s-6.9-2.7-7.4-3.2c-.6-.4-1.6-.8-2.4-.8-2 0-11.4-4.3-35.2-15.9-16.7-8.2-32.1-16.6-35.5-19.3-.5-.4-4.6-3.1-9-6s-8.4-5.6-9-6c-.5-.4-5.2-3.9-10.4-7.8-18.1-13.5-44.4-38.8-55.5-53.5-2.1-2.8-3.9-5.1-4-5.3-.2-.1-.5.1-.8.4zm447.2 303c10.2 3.4 13.5 6 15.9 12.1 2.4 5.9-1.6 7.3-6.5 2.2-1.6-1.7-4.5-4-6.4-5.2s-4.1-2.7-4.8-3.4-1.9-1.3-2.7-1.3c-1.3 0-2.5-2.1-2.5-4.6 0-1.8 1.4-1.8 7 .2zm-519-240c0 1.1 8.5 17.9 10 19.7.6.7 2.7 3.4 4.7 6.2 7.3 9.8 18.7 21.5 33.9 34.5 3.8 3.3 14.2 11.1 17.5 13.2 1.4.9 3.2 2.3 4 3 .8.8 3.2 2.5 5.4 3.8s4.2 2.7 4.5 3c.6.8 30.1 18.3 39.5 23.5 7.4 4.2 15.4 8.2 43.5 21.9 16.5 8.1 19.6 9.7 31.7 17 9.1 5.5 23.7 16.9 31 24.2 4.1 4.1 7.6 7.4 7.8 7.4.3 0-.1-1.1-.7-2.5s-1.5-2.5-2-2.5c-.4 0-.8-.6-.8-1.3 0-.8-.9-2.5-2-3.8s-2.3-2.9-2.7-3.4c-7.3-9.6-13.3-15.4-31.7-31-2.5-2.2-19-13.4-26.7-18.2-6.1-3.9-18.4-10.8-30.9-17.5-3-1.7-5.9-3.4-6.5-3.8-.9-.7-5.2-3-19.5-10.8-9-4.8-31.8-18.9-35.5-21.9-.5-.5-2.8-2-5-3.3s-4.4-2.8-5-3.2c-.5-.4-5.9-4.4-12-8.9-6-4.5-11.2-8.5-11.5-8.8-.3-.4-2.7-2.4-5.5-4.5-5.6-4.2-12.8-10.8-26.2-24-5.1-5-9.3-8.6-9.3-8zm113.6 179.1c-1 1 15.8 16.6 26.9 24.9 5.5 4.1 10.5 7.8 11 8.2 2.6 2 11.6 7.2 12.4 7.2.5 0 1.6.6 2.3 1.2.7.7 2.9 2 4.8 3 13.3 6.3 19 8.8 20.4 8.8.8 0 1.7.4 2 .8.8 1.3 32.3 11.2 35.8 11.2 1 0 2.6.4 3.6 1 .9.5 3.7 1.4 6.2 1.9 8.7 1.9 13.5 3.1 15.5 4 1.1.5 5.4 1.9 9.5 3.2s7.9 2.6 8.5 3.1c.5.4 1.5.8 2.3.8s2.8.6 4.5 1.4c16.4 7.1 20.8 8.8 21.4 8.3.3-.4-.7-1.7-2.3-2.9-2.5-2-6.9-5.9-16.4-14.8-1.5-1.4-4.2-3.8-6-5.4-5-4.3-26-19.9-30.5-22.6-2.2-1.3-4.2-2.7-4.5-3-.3-.4-1.2-1-2-1.4s-4.2-2.2-7.5-4.1c-6.2-3.6-18.9-9.9-26-12.9-2.2-.9-4.7-2.1-5.5-2.5-.9-.5-3-1.2-4.8-1.5-1.7-.4-3.4-1.2-3.7-1.7-.4-.5-1.6-.9-2.8-.9-2.2.1-2.2.1-.2 1.2 1.1.6 2.2 1.4 2.5 1.8.3.3 2.5 1.8 5 3.3 5.3 3.1 15 11.7 15 13.3 0 .6-.7 1.7-1.5 2.4-1.2 1-4.1.9-14.5-.4-7.2-.9-14.1-2.1-15.3-2.6-1.2-.4-4.7-1.6-7.7-2.5-15.6-4.7-47-22.1-56.1-31-.9-.8-1.9-1.2-2.3-.8z"/><path d="m365.5 317.3c18.7 17.2 66.6 66.1 69.6 70.9 1.2 1.8-.2 3.8-2.5 3.8-1.1-.1-3.9-.9-6.1-2s-4.3-1.9-4.7-2c-1.3 0-11.2-6.3-13.8-8.7-3-2.8-4.6-3-2.8-.4 2.9 4.2 17.4 18.5 26.5 26.3 4.1 3.5 15 11 18.7 12.8 6 3 6.6 3.5 6.6 5.4 0 1.7-.5 1.8-5.5 1.2-3-.3-5.5-.3-5.5.2 0 .7 5.9 3.6 13 6.3 5.2 2.1 19.7 1.8 23.8-.4 1.8-1 4.3-1.7 5.4-1.5 2.2.3 2.4.6 5.5 7.3 3.8 8.2 12.6 19.5 15.1 19.5.5 0 1.5.6 2.1 1.4 1.2 1.4 14.9 5.1 15.7 4.3.3-.3-1.6-2.1-4.1-4.1-7-5.3-10.4-10.3-10.5-15.2 0-5.3 2.2-9.6 6.8-13.2 6.7-5.1 10.8-6.5 20.6-6.6 8 0 9.6.2 13.1 2.4 2.2 1.3 4.6 3.1 5.3 4 1.9 2.3 5.2 9.9 5.2 12.1 0 3.4 1.9 2 2.6-1.9 1.4-7.6 1-15.8-.9-18-2.7-3-10-4.9-21.2-5.7-19.1-1.2-28.8-4.4-37.4-12.2-8.9-8-8.5-8.9 4.2-9.5 9-.5 16.7-2.1 23.2-4.8 1.1-.5 4.3-1.9 7-3 2.8-1.2 8.6-3.9 13-6 16.8-8 27.1-10.4 44.3-10.4 12.5 0 15.8-.7 11.2-2.1-1.1-.3-2-1.1-2-1.6s-.4-.9-.9-.9c-.8 0-9.4-5.2-12.7-7.7-1.5-1.2-7.1-4.2-14.9-8-3.8-1.9-7.8-3.9-8.7-4.4-1-.5-2.2-.9-2.7-.9s-2.2-.5-3.8-1.2c-4.1-1.7-10.8-3.6-18.8-5.5-10.2-2.4-48.5-2.3-65.5 0-25.3 3.5-29.7 3.9-41.5 3.4-12.1-.5-16.5-1.3-28.5-4.9-7.3-2.2-8.6-2.7-15.1-5.7-2.5-1.1-4.9-2.1-5.2-2.1-.4 0-3.6-1.8-7.2-4s-6.8-4-7-4c-.5 0-8.9-5.7-14.1-9.7-6.8-5.1-4.3-1.7 5.1 7zm-336.1 206.6c-5.8 1.5-12.9 5.5-17.6 9.9-4.5 4.2-9.8 13.2-9.8 16.6 0 .8-.4 1.8-1 2.1-1.2.8-1.3 19.2-.1 19.9.4.3 1.1 2.1 1.4 4 1.5 9.1 13.7 21.7 24.2 24.9 6.1 1.9 21 2.3 22 .7.3-.5 1.5-1 2.6-1 4 0 15.9-7.3 15.9-9.7 0-2-1.9-1.6-5.4 1-1.7 1.3-4.7 3.1-6.6 4-4 1.9-15.8 4.7-17.4 4.2-.6-.2-3.6-.9-6.7-1.5-13.8-2.7-24.7-14.9-26.9-30-2.2-15.6 3.8-29.8 15.8-37.4 4.5-2.8 13.7-5.6 18.5-5.6 5.3 0 15.6 2.9 19.9 5.6 3.9 2.5 6.8 3.1 6.8 1.4 0-1.3-7-5.7-12.2-7.5-5.1-1.8-19-2.8-23.4-1.6zm177.1-.3c-12.9 3.4-22.8 10.9-27.9 21.4-.9 1.9-2.3 6.7-3.2 10.6-1.3 6.4-1.3 8 .1 14.5.9 4.1 2.5 9.4 3.7 11.8 4 8.2 16.9 19.1 22.8 19.1 1 0 2.2.4 2.5 1 .8 1.3 17.2 1.3 18 0 .3-.6 1.5-1 2.6-1 6 0 19.7-11.4 23.3-19.3 4.6-10 5.5-20.1 2.7-30.5-1.4-5.1-2.5-7.3-7.1-13.2-5.1-6.6-5.5-6.9-18.3-13.2-2.1-1-16.3-1.9-19.2-1.2zm16.3 4c10.7 3.1 18.7 10.1 23.8 20.9 1.5 3.1 1.9 6.2 1.9 14.5 0 9.5-.3 11.1-2.8 16.1-3.2 6.4-10.5 14.2-15.8 16.9-2 1.1-6.5 2.6-10.1 3.4-5.8 1.3-7.1 1.3-12.4 0-3.2-.8-7.4-2.2-9.3-3.1-5.3-2.4-13.4-11.1-16.6-17.8-2.6-5.4-2.9-7-2.9-16 0-9.4.2-10.3 3.3-16 1.8-3.3 4.3-7.1 5.4-8.3 4.1-4.4 11.3-9.1 15.6-10.1 2.3-.5 4.5-1.2 4.8-1.5 1.2-1.2 9.6-.6 15.1 1zm277.6-2.3c-2.8 1.4-6 3.7-7.2 5.3s-2.6 3.4-3.1 4c-1.5 1.8-2.3 9.1-1.6 13.5.8 4.7 6.6 11.2 12.5 14.1 1.9.9 7 3.3 11.3 5.3s8.6 4.4 9.5 5.3c2.9 2.9 5.2 7 5.2 9.2 0 1.9-2.2 6.2-4.5 8.6-1.9 2-7.8 4.4-10.9 4.4-5.2 0-15.6-4.4-17.7-7.4-1.1-1.4-3.4-.1-5.8 3.2l-2.1 3 4.9 3.1c2.7 1.6 6.5 3.3 8.5 3.7 2 .3 3.9 1 4.2 1.5.7 1.2 15.1 1.2 15.9 0 .3-.5 1.8-1.2 3.4-1.6 5.3-1.2 11.4-8.3 12.6-14.9 2-10.3-2.9-18.3-14.3-23.6-15-7.1-17.2-8.3-20.6-11.6-4-3.9-4.4-6.4-2-11.2 2.3-4.7 6.9-7.5 13.1-8 4.5-.4 6.3 0 11.9 2.8 3.6 1.7 6.7 3 6.8 2.8.2-.1 1.1-1.7 1.9-3.4 1.5-2.9 1.5-3.3-.1-4.6-4.1-3.5-8.9-5-17.7-5.5-8-.4-9.6-.1-14.1 2zm-399.6-.6c-1.7.4-1.8 3.1-1.8 38.4 0 35.2.1 38 1.7 37.7 1.5-.3 1.6-1.9 1.4-16-.2-14.8-.1-15.7 1.8-16.7 2.1-1.2 18.5-1.4 21.3-.3.9.4 2.9 2.9 4.4 5.7 3.4 6.2 9.5 17.6 12.5 23.2 2.2 4.2 5.9 6 5.9 2.8 0-.8-.4-1.5-.9-1.5s-1.4-1.2-2-2.8c-.6-1.5-3.1-6.3-5.6-10.7s-5-9.2-5.6-10.8c-.6-1.5-1.5-2.7-2-2.7s-.9-1.1-.9-2.5c0-1.8.7-2.8 2.4-3.5 7.3-2.7 12-10.5 12-20 0-5.3-.5-7.3-2.6-10.5-3.4-5.4-5.9-7.5-10.5-8.8-3.9-1.1-28.4-1.9-31.5-1zm34.4 6.6c6 4.6 8.2 11.3 6.2 18.9-1.5 6-6.4 11.4-11.7 12.9-4.8 1.4-25 1.2-26.5-.3-1.7-1.7-1.7-31.9 0-33.6.8-.8 5.5-1.2 14.4-1.2h13.2zm184.9-3.2c-1.1 2.2-2.2 5.4-2.6 7.2-.3 1.8-1 4.1-1.5 5.2-.4 1.1-1.3 4-2 6.5-.6 2.5-1.7 6.7-2.5 9.5-3.1 11-4.7 17.2-5.7 21.5-.5 2.5-1.4 4.9-1.9 5.4-.5.6-.9 2-.9 3.2 0 1.3-.5 3.5-1.1 5.1l-1.1 2.8-2.4-2.8c-1.3-1.5-2.4-4-2.4-5.5s-.5-4.3-1.1-6.2-1.7-6-2.4-9c-.8-3-2.1-8.2-3-11.5-1.6-6-3.5-13.5-5.9-23-.7-2.8-1.6-5.8-1.9-6.8-.4-.9-.9-2.4-1.2-3.2-.7-2.4-2.5-1.7-2.5.9 0 1.3.9 5.2 2 8.6s2 7.1 2 8.1c0 1.1.4 2.7 1 3.7.5.9 1.4 3.9 2 6.7 2.6 11.2 3.5 15 4.1 16 .4.5.9 2.8 1.3 5s1.1 5.3 1.6 7c.6 1.6 2 6.5 3.2 10.7 1.6 5.7 2.6 7.8 3.8 7.8 2.5 0 4.7-3 5.5-7.5.4-2.2 1-4.5 1.5-5 .4-.6 1.2-3 1.8-5.5s1.7-7 2.6-10c.8-3 2-7.5 2.6-10s1.5-5.2 1.9-6c.5-.9 1.2-3.6 1.6-6s1.1-5.1 1.6-6c.4-.8 1.1-3.6 1.4-6.2.7-5.3 1.6-6.4 4.2-4.9 1.1.6 2.2 3.2 2.9 7.3 1.3 7.1 3.2 14.3 4.4 17.3.5 1.1 1.4 4 2 6.5s1.8 7 2.6 10c.9 3 2 7.3 2.5 9.5s1.4 4.9 1.9 6c.6 1.1 1.3 3.8 1.8 6 .7 3.5 1.2 4 3.8 4.3 2.8.3 3 0 4.1-4.5.6-2.6 1.9-7.4 2.7-10.5.9-3.2 2.3-8.3 3.1-11.3 1.5-5.4 2.9-10.6 6.1-22.3.8-3.1 2-7.7 2.5-10.2s1.4-5.2 1.9-6.1c1.5-2.8 2.3-10.9 1.1-10.9-1.7 0-4.2 7.1-7.2 21-.6 2.5-1.4 5.4-1.9 6.5s-1.3 4-1.9 6.5c-.5 2.5-1.7 7-2.5 10s-2.1 8-2.9 11c-2.2 8.5-4.1 13.5-5.1 13.5s-3.2-5.5-5.3-13.5c-.8-3-2-7.8-2.8-10.5-.7-2.8-1.9-7-2.5-9.5s-1.5-5.4-2-6.5c-.8-2-2.3-7.5-4.2-15.5-.6-2.5-1.4-5-1.8-5.5-.4-.6-1.1-2.4-1.4-4.2-1.1-4.8-3.3-4.9-5.5-.2zm81.2-3.4-2.3.4v76.1l19.3-.4c17.7-.4 19.5-.6 23.7-2.7 4.7-2.5 15-12.3 15-14.4 0-.7.8-2.6 1.7-4.2 1.4-2.4 1.7-5.6 1.7-16 .1-15.2-1.2-19.2-9.1-27.6-5.5-5.9-10.4-8.5-19.3-10.5-6-1.3-25.3-1.7-30.7-.7zm35.2 5.2c12.7 4.5 21.5 18 21.5 33.1s-8.2 28.3-20.7 33.3c-6 2.4-29.6 3.7-33.1 1.8-2.2-1.2-2.2-1.3-2.2-34.4 0-24.6.3-33.6 1.2-34.5.8-.8 5.5-1.2 14.5-1.2 10.6 0 14.5.4 18.8 1.9zm118.3-2.9c-.2 1.6 0 3.4.6 4s6.2 1 13.2 1c10.2 0 12.3.3 12.8 1.6.3.9.6 16.4.6 34.5v33l4.6-.3 4.6-.3-.1-33c-.1-18.2.2-33.5.7-34.2.5-.8 4.9-1.3 13.7-1.5l13-.3v-7l-31.6-.3-31.7-.2zm88 34.7c-.2 24.4.1 38.1.7 38.5s2.7.8 4.8.8h3.7v-13.6c0-7.4.5-14.4 1-15.5.9-1.6 2.2-1.9 9-1.9h7.9l2.6 3.7c1.4 2.1 2.5 4.3 2.5 4.9 0 .7.3 1.4.8 1.6.4.1 2.6 4.1 5 8.8 6 11.9 6.1 12 11.6 12 2.5 0 4.6-.4 4.6-1 0-.5-1.4-3.3-3.1-6.2s-3.4-6-3.9-6.8-2.5-4.6-4.5-8.5c-2-3.8-4.1-7.3-4.7-7.6-1.2-.8-.1-4.9 1.3-4.9.5 0 2.6-1.6 4.8-3.5 4.1-3.7 7.1-10.7 7.1-16.6 0-4.9-3.2-12.7-6.5-15.8-5.4-5-10.3-6.1-28.3-6.1h-16.2zm34-28c4.8 2.8 7.2 7.2 7.2 13.3 0 6.4-2.5 10.8-7.8 13.6-4.6 2.5-21.7 2.8-23.2.4-1.1-1.6-1.3-23.1-.4-26.8.6-2.1 1.1-2.2 10.9-2.2 7.9 0 11 .4 13.3 1.7zm49.9-9c-.4.3-.7 17.7-.7 38.5v37.8h10v-77h-4.3c-2.4 0-4.7.3-5 .7zm44.3-.2v75.5c0 1 4.9 1.4 7.2.5 1-.4 1.2-3.9 1-16.6-.2-11.4 0-16.4.9-17.5 1.2-1.5 10.5-2 12.5-.6 1.3.9 10.4 15.9 10.4 17.2 0 .5.6 1.5 1.3 2.2.8.7 2 2.5 2.8 4 .8 1.4 2.5 4.7 3.8 7.2 2.4 4.5 2.6 4.6 7.2 4.6 5.2 0 6.7-1.1 4.5-3.2-.7-.8-1.7-2.4-2-3.6-.4-1.2-1.1-2.2-1.6-2.2-.4 0-1.3-1.2-1.9-2.8-.7-1.5-1.7-3.6-2.4-4.7s-3.4-5.8-6.2-10.3c-8.7-14.4-8.5-12-1.9-23 3.2-5.3 6.1-9.9 6.6-10 .4-.2.8-.9.8-1.5s2-4.1 4.5-7.8 4.5-7 4.5-7.3-2.1-.6-4.8-.6c-3.5 0-5.2.5-6.5 2-.9 1.1-1.7 2.3-1.7 2.6 0 1.1-7.3 12.9-8.2 13.2-.4.2-.8.9-.8 1.5 0 .7-1.8 4-4 7.4l-3.9 6.3h-5.5c-9.1 0-8.6.9-8.6-17.1v-15.9h-4c-2.2 0-4 .2-4 .5zm81 38v38.5h48v-7h-18.3c-12.9 0-18.7-.4-19.5-1.2s-1.2-5-1.2-12.4c0-14.9-.4-14.5 15.3-14.3 11.5.1 12.1 0 12.9-2 1.7-4.6.5-5.1-13.3-5.1-11.7 0-12.9-.2-13.9-1.9-1.2-2.3-1.4-22-.2-23.8.6-.9 5.6-1.3 17.2-1.5l16.5-.3.3-3.8.3-3.7h-44.1z"/></g></svg>