<?xml version="1.0" encoding="UTF-8"?>
<svg version="1.1" xmlns="http://www.w3.org/2000/svg" width="256" height="256">
<path d="M0 0 C1.80868813 0.00333092 1.80868813 0.00333092 3.65391541 0.00672913 C4.31730423 0.0065831 4.98069305 0.00643707 5.66418457 0.00628662 C7.86644207 0.00698571 10.06861596 0.01477787 12.27085876 0.02259827 C13.79400588 0.02446246 15.31715359 0.02588636 16.84030151 0.02688599 C20.85657903 0.03071105 24.87282059 0.04054124 28.88908386 0.05158997 C32.98443617 0.06180433 37.07979427 0.06638366 41.17515564 0.07142639 C49.21618779 0.08216352 57.25719069 0.0992398 65.29820251 0.12025452 C65.68492126 0.9284967 66.07164001 1.73673889 66.47007751 2.56947327 C67.25124939 4.17242249 67.25124939 4.17242249 68.04820251 5.80775452 C68.55867126 6.8634967 69.06914001 7.91923889 69.59507751 9.00697327 C71.24489624 12.02281163 73.14012651 14.45892969 75.29820251 17.12025452 C75.79320251 18.60525452 75.79320251 18.60525452 76.29820251 20.12025452 C76.9618074 21.3979827 77.65351696 22.66130107 78.36460876 23.91322327 C78.7674408 24.6254303 79.17027283 25.33763733 79.58531189 26.07142639 C80.0061908 26.80941467 80.4270697 27.54740295 80.86070251 28.30775452 C81.49782166 29.43213928 81.49782166 29.43213928 82.14781189 30.57923889 C83.19559552 32.4275763 84.2465911 34.27409225 85.29820251 36.12025452 C85.95820251 36.12025452 86.61820251 36.12025452 87.29820251 36.12025452 C87.46606262 37.21950256 87.46606262 37.21950256 87.63731384 38.34095764 C88.32490991 41.23256961 89.28739447 43.09135349 90.87242126 45.58900452 C91.37451111 46.4075592 91.87660095 47.22611389 92.39390564 48.06947327 C93.4584011 49.77527826 94.53139597 51.47580752 95.61265564 53.17103577 C96.35998962 54.3988678 96.35998962 54.3988678 97.12242126 55.65150452 C97.58737 56.3894928 98.05231873 57.12748108 98.53135681 57.88783264 C99.29820251 60.12025452 99.29820251 60.12025452 98.61582947 62.56459045 C97.24326312 65.22681475 95.85803938 67.8674131 94.39195251 70.47962952 C93.5302948 72.01792419 93.5302948 72.01792419 92.65122986 73.58729553 C91.73398132 75.21236023 91.73398132 75.21236023 90.79820251 76.87025452 C90.1725238 77.98392395 89.54684509 79.09759338 88.90220642 80.24501038 C84.85375771 87.42896139 80.7459526 94.57424381 76.49546814 101.64076233 C73.86974644 106.03157814 71.53524751 110.52010563 69.29820251 115.12025452 C68.96820251 115.78025452 68.63820251 116.44025452 68.29820251 117.12025452 C67.96820251 117.80087952 67.63820251 118.48150452 67.29820251 119.18275452 C66.29820251 121.12025452 66.29820251 121.12025452 65.29820251 122.12025452 C63.18138934 122.21447192 61.06139493 122.23768213 58.94248962 122.23377991 C58.2791008 122.23392593 57.61571198 122.23407196 56.93222046 122.23422241 C54.72996296 122.23352332 52.52778907 122.22573116 50.32554626 122.21791077 C48.80239915 122.21604657 47.27925144 122.21462268 45.75610352 122.21362305 C41.739826 122.20979798 37.72358444 122.1999678 33.70732117 122.18891907 C29.61196886 122.17870471 25.51661076 122.17412537 21.42124939 122.16908264 C13.38021724 122.15834551 5.33921434 122.14126923 -2.70179749 122.12025452 C-3.40139587 120.4698114 -3.40139587 120.4698114 -4.11512756 118.786026 C-5.40973797 115.7950158 -6.78021213 113.00952608 -8.38929749 110.18275452 C-8.82628967 109.41060608 -9.26328186 108.63845764 -9.71351624 107.84291077 C-10.03964905 107.2744342 -10.36578186 106.70595764 -10.70179749 106.12025452 C-11.36179749 106.12025452 -12.02179749 106.12025452 -12.70179749 106.12025452 C-12.78300842 105.44607483 -12.86421936 104.77189514 -12.94789124 104.07728577 C-13.92990243 100.22556311 -15.74022938 97.20217616 -17.76429749 93.80775452 C-18.14134827 93.16257874 -18.51839905 92.51740295 -18.90687561 91.85267639 C-19.83217241 90.271473 -20.76612429 88.69533992 -21.70179749 87.12025452 C-22.36179749 87.12025452 -23.02179749 87.12025452 -23.70179749 87.12025452 C-23.81442932 86.38669739 -23.92706116 85.65314026 -24.04310608 84.89735413 C-24.72476325 82.02342888 -25.67166213 80.17181699 -27.24085999 77.68666077 C-27.73843811 76.8726178 -28.23601624 76.05857483 -28.74867249 75.21986389 C-29.80119337 73.5277542 -30.86111564 71.84022602 -31.92835999 70.15736389 C-32.42335999 69.34203186 -32.91835999 68.52669983 -33.42835999 67.68666077 C-33.8880719 66.9539093 -34.34778381 66.22115784 -34.82142639 65.46620178 C-36.01925311 62.27432242 -35.58258704 60.39060078 -34.70179749 57.12025452 C-33.43348694 54.4332428 -33.43348694 54.4332428 -31.81507874 51.69056702 C-31.21268372 50.65899475 -30.6102887 49.62742249 -29.98963928 48.56459045 C-29.01184509 46.92151917 -29.01184509 46.92151917 -28.01429749 45.24525452 C-26.99925863 43.51136807 -25.98422258 41.77747998 -24.96939087 40.04347229 C-23.22181995 37.06416165 -21.46129294 34.09253265 -19.70179749 31.12025452 C-17.7108798 27.75367373 -15.7223654 24.3857122 -13.73963928 21.01429749 C-12.53085107 18.96036232 -11.31640596 16.90974304 -10.09559631 14.8629303 C-7.43598458 10.35255984 -5.13628926 6.19487282 -3.70179749 1.12025452 C-2.70179749 0.12025452 -2.70179749 0.12025452 0 0 Z M-1.70179749 1.12025452 C-1.70179749 1.45025452 -1.70179749 1.78025452 -1.70179749 2.12025452 C20.07820251 2.12025452 41.85820251 2.12025452 64.29820251 2.12025452 C64.29820251 1.79025452 64.29820251 1.46025452 64.29820251 1.12025452 C42.51820251 1.12025452 20.73820251 1.12025452 -1.70179749 1.12025452 Z M-1.70179749 120.12025452 C-1.70179749 120.45025452 -1.70179749 120.78025452 -1.70179749 121.12025452 C20.07820251 121.12025452 41.85820251 121.12025452 64.29820251 121.12025452 C64.29820251 120.79025452 64.29820251 120.46025452 64.29820251 120.12025452 C42.51820251 120.12025452 20.73820251 120.12025452 -1.70179749 120.12025452 Z " fill="#1471E7" transform="translate(38.70179748535156,131.87974548339844)"/>
<path d="M0 0 C22.44 0 44.88 0 68 0 C69.98 3.96 71.96 7.92 74 12 C75.4509416 14.56879747 76.91243894 17.10292485 78.4375 19.625 C79.29287945 21.05917319 80.14695156 22.4941266 81 23.9296875 C81.46792969 24.71698242 81.93585938 25.50427734 82.41796875 26.31542969 C86.3014729 32.90540062 90.09535261 39.54818867 93.90991211 46.17822266 C94.83429077 47.78383057 94.83429077 47.78383057 95.77734375 49.421875 C96.32640381 50.37674805 96.87546387 51.33162109 97.44116211 52.31542969 C98.95920794 55.03060865 98.95920794 55.03060865 100.82641602 57.53613281 C102 60 102 60 101.37524414 62.47412109 C100.69449829 63.72443115 100.69449829 63.72443115 100 65 C99.53650146 65.86834473 99.07300293 66.73668945 98.59545898 67.63134766 C98.06766846 68.54964355 97.53987793 69.46793945 96.99609375 70.4140625 C96.13274414 71.92613281 96.13274414 71.92613281 95.25195312 73.46875 C94.35379883 75.03109375 94.35379883 75.03109375 93.4375 76.625 C92.24627576 78.69913161 91.05736291 80.77459293 89.87109375 82.8515625 C89.34443115 83.76760254 88.81776855 84.68364258 88.27514648 85.62744141 C86.89245012 88.03836128 86.89245012 88.03836128 86 91 C85.42507812 91.70125 84.85015625 92.4025 84.2578125 93.125 C81.32972638 96.85349721 79.14603559 100.84878954 76.875 105 C76.43285156 105.7940625 75.99070312 106.588125 75.53515625 107.40625 C73.44087202 111.20253561 71.49875427 114.9209162 70 119 C69.67 119.66 69.34 120.32 69 121 C45.9 121 22.8 121 -1 121 C-1.33 119.68 -1.66 118.36 -2 117 C-2.97764934 115.06095034 -4.00215114 113.14509158 -5.0625 111.25 C-5.61035156 110.26515625 -6.15820312 109.2803125 -6.72265625 108.265625 C-7.14417969 107.51796875 -7.56570312 106.7703125 -8 106 C-8.66 106 -9.32 106 -10 106 C-10.10884521 105.27981689 -10.21769043 104.55963379 -10.32983398 103.81762695 C-11.05325463 100.77609775 -12.15132215 98.61404725 -13.72265625 95.91796875 C-14.52993164 94.52094727 -14.52993164 94.52094727 -15.35351562 93.09570312 C-15.91748047 92.13599609 -16.48144531 91.17628906 -17.0625 90.1875 C-17.63033203 89.20845703 -18.19816406 88.22941406 -18.78320312 87.22070312 C-20.18254827 84.81006652 -21.58829929 82.4034149 -23 80 C-23.66 80 -24.32 80 -25 80 C-25.09023438 79.29359375 -25.18046875 78.5871875 -25.2734375 77.859375 C-26.14168806 74.44238892 -27.67838947 72.18154892 -29.625 69.25 C-32.1042169 65.17014815 -33.52230329 62.54994388 -32.9375 57.75 C-32.628125 56.5125 -32.31875 55.275 -32 54 C-31.34 54 -30.68 54 -30 54 C-29.4423999 52.99755249 -29.4423999 52.99755249 -28.87353516 51.97485352 C-16.4027075 29.57540235 -16.4027075 29.57540235 -10.4375 19.5625 C-7.02297894 13.82812722 -3.84340323 8.04388501 -1 2 C-0.67 1.34 -0.34 0.68 0 0 Z M1 1 C1 1.33 1 1.66 1 2 C22.78 2 44.56 2 67 2 C67 1.67 67 1.34 67 1 C45.22 1 23.44 1 1 1 Z " fill="#1472E8" transform="translate(36,2)"/>
<path d="M0 0 C8.94474825 0.10748463 17.8894125 0.22011465 26.83401203 0.33933926 C30.9872148 0.39453599 35.14042465 0.44795082 39.29370117 0.49731445 C43.3007999 0.54500591 47.30781314 0.59735049 51.3148098 0.65294075 C52.8446153 0.67334263 54.37444423 0.69205929 55.90429115 0.70907402 C58.04476012 0.73316605 60.18506793 0.76321392 62.32543945 0.79467773 C63.54455521 0.81022202 64.76367096 0.8257663 66.01972961 0.84178162 C69 1 69 1 72 2 C72.10884521 2.72018311 72.21769043 3.44036621 72.32983398 4.18237305 C73.05325463 7.22390225 74.15132215 9.38595275 75.72265625 12.08203125 C76.26083984 13.01337891 76.79902344 13.94472656 77.35351562 14.90429688 C77.91748047 15.86400391 78.48144531 16.82371094 79.0625 17.8125 C79.63033203 18.79154297 80.19816406 19.77058594 80.78320312 20.77929688 C82.18254827 23.18993348 83.58829929 25.5965851 85 28 C85.66 28 86.32 28 87 28 C87.10884521 28.72018311 87.21769043 29.44036621 87.32983398 30.18237305 C88.05325463 33.22390225 89.15132215 35.38595275 90.72265625 38.08203125 C91.26083984 39.01337891 91.79902344 39.94472656 92.35351562 40.90429688 C92.91748047 41.86400391 93.48144531 42.82371094 94.0625 43.8125 C94.63033203 44.79154297 95.19816406 45.77058594 95.78320312 46.77929688 C97.18254827 49.18993348 98.58829929 51.5965851 100 54 C100.66 54 101.32 54 102 54 C103.16958841 58.01969069 103.15104407 59.66908945 101.3828125 63.54296875 C100.64697724 64.76804215 99.89381584 65.98285043 99.125 67.1875 C96.17570995 71.89990322 96.17570995 71.89990322 94 77 C93.41476563 77.71671875 92.82953125 78.4334375 92.2265625 79.171875 C89.48106971 82.65913251 87.47624101 86.3521246 85.375 90.25 C81.822218 96.74431104 78.19354146 103.18338697 74.4375 109.5625 C74.00808105 110.29436523 73.57866211 111.02623047 73.13623047 111.78027344 C70.12999094 116.87000906 70.12999094 116.87000906 69 118 C66.91622225 118.14157154 64.82762356 118.21252587 62.73950195 118.25634766 C61.75887535 118.27825165 61.75887535 118.27825165 60.75843811 118.30059814 C54.71656511 118.42676152 48.67335987 118.49538172 42.63044453 118.54844093 C38.56946556 118.58419065 34.51046981 118.63744069 30.45043945 118.73388672 C26.52628821 118.82682935 22.60389094 118.87537922 18.6787014 118.89283371 C17.18461665 118.90691215 15.69059239 118.93651863 14.19713783 118.98213577 C2.52500977 119.32115425 2.52500977 119.32115425 -1.18902588 116.10359192 C-2.75578596 113.79543724 -3.90907763 111.5626827 -5 109 C-5.52770996 108.11755615 -6.05541992 107.2351123 -6.59912109 106.32592773 C-6.98664551 105.61895752 -7.37416992 104.9119873 -7.7734375 104.18359375 C-8.20527344 103.40048828 -8.63710937 102.61738281 -9.08203125 101.81054688 C-9.50871094 101.02744141 -9.93539062 100.24433594 -10.375 99.4375 C-10.82488281 98.61958984 -11.27476562 97.80167969 -11.73828125 96.95898438 C-12.8291172 94.97459133 -13.9162949 92.98829336 -15 91 C-15.66 91 -16.32 91 -17 91 C-17.09095947 90.29367432 -17.18191895 89.58734863 -17.27563477 88.85961914 C-18.14411851 85.43105491 -19.62186285 83.18212275 -21.58984375 80.24609375 C-22.29044922 79.14330078 -22.99105469 78.04050781 -23.71289062 76.90429688 C-24.81910427 75.16512001 -25.93542838 73.44052969 -27.09887695 71.73901367 C-29.66532116 67.96019675 -31.76915043 64.41402495 -33 60 C-32.00023176 55.32010102 -29.68163123 51.91072588 -27 48 C-25.91234314 46.11240993 -24.83662256 44.21788758 -23.7734375 42.31640625 C-22.64407347 40.3964049 -21.51116544 38.47848444 -20.375 36.5625 C-19.14902743 34.47698097 -17.9237821 32.39103429 -16.69921875 30.3046875 C-15.77955322 28.73992676 -15.77955322 28.73992676 -14.84130859 27.14355469 C-11.93009619 22.173418 -9.05287243 17.18417374 -6.1875 12.1875 C-5.67815918 11.30457275 -5.16881836 10.42164551 -4.64404297 9.51196289 C-4.17756348 8.69719482 -3.71108398 7.88242676 -3.23046875 7.04296875 C-2.82207764 6.33164795 -2.41368652 5.62032715 -1.99291992 4.88745117 C-0.86702466 2.87076645 -0.86702466 2.87076645 0 0 Z " fill="#1472E8" transform="translate(151,69)"/>
<path d="M0 0 C22.44 0 44.88 0 68 0 C68 0.33 68 0.66 68 1 C45.56 1 23.12 1 0 1 C0 0.67 0 0.34 0 0 Z " fill="#0055FF" transform="translate(152,188)"/>
<path d="M0 0 C22.44 0 44.88 0 68 0 C68 0.33 68 0.66 68 1 C45.56 1 23.12 1 0 1 C0 0.67 0 0.34 0 0 Z " fill="#0080FF" transform="translate(152,68)"/>
<path d="M0 0 C1 4 1 4 1 4 Z " fill="#007FDF" transform="translate(1,191)"/>
<path d="M0 0 C1 4 1 4 1 4 Z " fill="#007FFF" transform="translate(1,61)"/>
<path d="" fill="#007FBF" transform="translate(0,0)"/>
<path d="" fill="#003FDF" transform="translate(0,0)"/>
<path d="" fill="#006ABF" transform="translate(0,0)"/>
<path d="" fill="#0055FF" transform="translate(0,0)"/>
<path d="" fill="#00BFFF" transform="translate(0,0)"/>
<path d="" fill="#007FFF" transform="translate(0,0)"/>
<path d="" fill="#002AFF" transform="translate(0,0)"/>
<path d="" fill="#0055FF" transform="translate(0,0)"/>
<path d="" fill="#007FFF" transform="translate(0,0)"/>
<path d="" fill="#00AAFF" transform="translate(0,0)"/>
<path d="" fill="#007FFF" transform="translate(0,0)"/>
<path d="" fill="#002AFF" transform="translate(0,0)"/>
<path d="" fill="#0055FF" transform="translate(0,0)"/>
<path d="" fill="#007FFF" transform="translate(0,0)"/>
<path d="" fill="#00BFFF" transform="translate(0,0)"/>
<path d="" fill="#00BFFF" transform="translate(0,0)"/>
<path d="" fill="#0055FF" transform="translate(0,0)"/>
<path d="" fill="#002AFF" transform="translate(0,0)"/>
<path d="" fill="#002AFF" transform="translate(0,0)"/>
<path d="" fill="#007FFF" transform="translate(0,0)"/>
<path d="" fill="#006AFF" transform="translate(0,0)"/>
<path d="" fill="#002AFF" transform="translate(0,0)"/>
<path d="" fill="#002AFF" transform="translate(0,0)"/>
<path d="" fill="#006ABF" transform="translate(0,0)"/>
<path d="" fill="#002AFF" transform="translate(0,0)"/>
<path d="" fill="#007FFF" transform="translate(0,0)"/>
<path d="" fill="#002AFF" transform="translate(0,0)"/>
<path d="" fill="#0055FF" transform="translate(0,0)"/>
<path d="" fill="#007FBF" transform="translate(0,0)"/>
<path d="" fill="#00AAFF" transform="translate(0,0)"/>
<path d="" fill="#00BFFF" transform="translate(0,0)"/>
<path d="" fill="#0055FF" transform="translate(0,0)"/>
<path d="" fill="#002AFF" transform="translate(0,0)"/>
<path d="" fill="#002AFF" transform="translate(0,0)"/>
<path d="" fill="#007FFF" transform="translate(0,0)"/>
<path d="" fill="#006A94" transform="translate(0,0)"/>
<path d="" fill="#002AFF" transform="translate(0,0)"/>
<path d="" fill="#00AAFF" transform="translate(0,0)"/>
<path d="" fill="#0055FF" transform="translate(0,0)"/>
<path d="" fill="#00BFFF" transform="translate(0,0)"/>
<path d="" fill="#006A94" transform="translate(0,0)"/>
<path d="" fill="#002AFF" transform="translate(0,0)"/>
<path d="" fill="#002AFF" transform="translate(0,0)"/>
<path d="" fill="#00BFBF" transform="translate(0,0)"/>
<path d="" fill="#002AFF" transform="translate(0,0)"/>
<path d="" fill="#002AFF" transform="translate(0,0)"/>
<path d="" fill="#007FFF" transform="translate(0,0)"/>
<path d="" fill="#00AAFF" transform="translate(0,0)"/>
<path d="" fill="#007FFF" transform="translate(0,0)"/>
<path d="" fill="#00AAFF" transform="translate(0,0)"/>
<path d="" fill="#003FDF" transform="translate(0,0)"/>
<path d="" fill="#002AFF" transform="translate(0,0)"/>
<path d="" fill="#002A7F" transform="translate(0,0)"/>
<path d="" fill="#0055FF" transform="translate(0,0)"/>
<path d="" fill="#006AD4" transform="translate(0,0)"/>
<path d="" fill="#00D4FF" transform="translate(0,0)"/>
<path d="" fill="#006AFF" transform="translate(0,0)"/>
<path d="" fill="#00BFFF" transform="translate(0,0)"/>
<path d="" fill="#0055FF" transform="translate(0,0)"/>
<path d="" fill="#00BFFF" transform="translate(0,0)"/>
<path d="" fill="#00AAFF" transform="translate(0,0)"/>
<path d="" fill="#0055FF" transform="translate(0,0)"/>
<path d="" fill="#0055FF" transform="translate(0,0)"/>
<path d="" fill="#0055FF" transform="translate(0,0)"/>
<path d="" fill="#002AFF" transform="translate(0,0)"/>
<path d="" fill="#006AD4" transform="translate(0,0)"/>
<path d="" fill="#006A94" transform="translate(0,0)"/>
<path d="" fill="#007FFF" transform="translate(0,0)"/>
<path d="" fill="#007FFF" transform="translate(0,0)"/>
<path d="" fill="#002AFF" transform="translate(0,0)"/>
<path d="" fill="#00BFFF" transform="translate(0,0)"/>
<path d="" fill="#002AFF" transform="translate(0,0)"/>
<path d="" fill="#002AFF" transform="translate(0,0)"/>
<path d="" fill="#002A7F" transform="translate(0,0)"/>
<path d="" fill="#001FDF" transform="translate(0,0)"/>
<path d="" fill="#00D4FF" transform="translate(0,0)"/>
<path d="" fill="#00AAFF" transform="translate(0,0)"/>
<path d="" fill="#007FFF" transform="translate(0,0)"/>
<path d="" fill="#00BFFF" transform="translate(0,0)"/>
<path d="" fill="#006AD4" transform="translate(0,0)"/>
<path d="" fill="#0055FF" transform="translate(0,0)"/>
<path d="" fill="#002AFF" transform="translate(0,0)"/>
<path d="" fill="#0055FF" transform="translate(0,0)"/>
<path d="" fill="#007FFF" transform="translate(0,0)"/>
<path d="" fill="#00D4FF" transform="translate(0,0)"/>
<path d="" fill="#006ABF" transform="translate(0,0)"/>
<path d="" fill="#00AAFF" transform="translate(0,0)"/>
<path d="" fill="#007FFF" transform="translate(0,0)"/>
<path d="" fill="#006ABF" transform="translate(0,0)"/>
<path d="" fill="#001FDF" transform="translate(0,0)"/>
<path d="" fill="#002AFF" transform="translate(0,0)"/>
<path d="" fill="#0055FF" transform="translate(0,0)"/>
<path d="" fill="#006ABF" transform="translate(0,0)"/>
<path d="" fill="#00BFFF" transform="translate(0,0)"/>
<path d="" fill="#007FFF" transform="translate(0,0)"/>
<path d="" fill="#007FFF" transform="translate(0,0)"/>
<path d="" fill="#0055FF" transform="translate(0,0)"/>
<path d="" fill="#007FFF" transform="translate(0,0)"/>
<path d="" fill="#00AAFF" transform="translate(0,0)"/>
<path d="" fill="#0055FF" transform="translate(0,0)"/>
<path d="" fill="#0055FF" transform="translate(0,0)"/>
<path d="" fill="#00AAFF" transform="translate(0,0)"/>
<path d="" fill="#00BFFF" transform="translate(0,0)"/>
<path d="" fill="#007FFF" transform="translate(0,0)"/>
<path d="" fill="#00BFFF" transform="translate(0,0)"/>
<path d="" fill="#007FFF" transform="translate(0,0)"/>
<path d="" fill="#002AFF" transform="translate(0,0)"/>
<path d="" fill="#002AFF" transform="translate(0,0)"/>
<path d="" fill="#0055FF" transform="translate(0,0)"/>
<path d="" fill="#007FFF" transform="translate(0,0)"/>
<path d="" fill="#00557F" transform="translate(0,0)"/>
<path d="" fill="#003FDF" transform="translate(0,0)"/>
<path d="" fill="#00D4FF" transform="translate(0,0)"/>
<path d="" fill="#00AAFF" transform="translate(0,0)"/>
<path d="" fill="#007FFF" transform="translate(0,0)"/>
<path d="" fill="#002AD4" transform="translate(0,0)"/>
<path d="" fill="#006AD4" transform="translate(0,0)"/>
<path d="" fill="#0055FF" transform="translate(0,0)"/>
<path d="" fill="#002AFF" transform="translate(0,0)"/>
<path d="" fill="#0055FF" transform="translate(0,0)"/>
<path d="" fill="#0055FF" transform="translate(0,0)"/>
<path d="" fill="#007FFF" transform="translate(0,0)"/>
<path d="" fill="#00AAD4" transform="translate(0,0)"/>
<path d="" fill="#007FFF" transform="translate(0,0)"/>
<path d="" fill="#007FFF" transform="translate(0,0)"/>
<path d="" fill="#002AFF" transform="translate(0,0)"/>
<path d="" fill="#00AAD4" transform="translate(0,0)"/>
<path d="" fill="#00BFFF" transform="translate(0,0)"/>
<path d="" fill="#007FBF" transform="translate(0,0)"/>
<path d="" fill="#0055FF" transform="translate(0,0)"/>
<path d="" fill="#00BFFF" transform="translate(0,0)"/>
<path d="" fill="#00BFFF" transform="translate(0,0)"/>
<path d="" fill="#0055FF" transform="translate(0,0)"/>
<path d="" fill="#00D4FF" transform="translate(0,0)"/>
<path d="" fill="#007FBF" transform="translate(0,0)"/>
<path d="" fill="#002A7F" transform="translate(0,0)"/>
<path d="" fill="#00AAD4" transform="translate(0,0)"/>
<path d="" fill="#0055FF" transform="translate(0,0)"/>
<path d="" fill="#00BFFF" transform="translate(0,0)"/>
<path d="" fill="#00AAFF" transform="translate(0,0)"/>
<path d="" fill="#00BFFF" transform="translate(0,0)"/>
<path d="" fill="#007FFF" transform="translate(0,0)"/>
<path d="" fill="#003FDF" transform="translate(0,0)"/>
<path d="" fill="#00BFFF" transform="translate(0,0)"/>
<path d="" fill="#0055FF" transform="translate(0,0)"/>
<path d="" fill="#007FBF" transform="translate(0,0)"/>
<path d="" fill="#0055FF" transform="translate(0,0)"/>
<path d="" fill="#007FFF" transform="translate(0,0)"/>
<path d="" fill="#007FBF" transform="translate(0,0)"/>
<path d="" fill="#00AAFF" transform="translate(0,0)"/>
<path d="" fill="#007FBF" transform="translate(0,0)"/>
<path d="" fill="#002AFF" transform="translate(0,0)"/>
<path d="" fill="#0055FF" transform="translate(0,0)"/>
<path d="" fill="#00BFFF" transform="translate(0,0)"/>
<path d="" fill="#003FDF" transform="translate(0,0)"/>
<path d="" fill="#007FFF" transform="translate(0,0)"/>
<path d="" fill="#003FFF" transform="translate(0,0)"/>
<path d="" fill="#00557F" transform="translate(0,0)"/>
<path d="" fill="#007FFF" transform="translate(0,0)"/>
<path d="" fill="#003FDF" transform="translate(0,0)"/>
<path d="" fill="#006ABF" transform="translate(0,0)"/>
<path d="" fill="#00BFFF" transform="translate(0,0)"/>
<path d="" fill="#0055FF" transform="translate(0,0)"/>
<path d="" fill="#00BFFF" transform="translate(0,0)"/>
<path d="" fill="#00AAFF" transform="translate(0,0)"/>
<path d="" fill="#007FBF" transform="translate(0,0)"/>
<path d="" fill="#00BFFF" transform="translate(0,0)"/>
<path d="" fill="#0055FF" transform="translate(0,0)"/>
<path d="" fill="#007FFF" transform="translate(0,0)"/>
<path d="" fill="#0055FF" transform="translate(0,0)"/>
<path d="" fill="#002AFF" transform="translate(0,0)"/>
<path d="" fill="#007FBF" transform="translate(0,0)"/>
<path d="" fill="#002A7F" transform="translate(0,0)"/>
<path d="" fill="#003FDF" transform="translate(0,0)"/>
<path d="" fill="#00BFFF" transform="translate(0,0)"/>
<path d="" fill="#00AAD4" transform="translate(0,0)"/>
<path d="" fill="#00BFFF" transform="translate(0,0)"/>
<path d="" fill="#007FFF" transform="translate(0,0)"/>
<path d="" fill="#0055FF" transform="translate(0,0)"/>
<path d="" fill="#00BFFF" transform="translate(0,0)"/>
<path d="" fill="#002AFF" transform="translate(0,0)"/>
<path d="" fill="#0055FF" transform="translate(0,0)"/>
<path d="" fill="#007FFF" transform="translate(0,0)"/>
<path d="" fill="#002A7F" transform="translate(0,0)"/>
<path d="" fill="#003FDF" transform="translate(0,0)"/>
<path d="" fill="#007FFF" transform="translate(0,0)"/>
<path d="" fill="#007FFF" transform="translate(0,0)"/>
<path d="" fill="#00D4FF" transform="translate(0,0)"/>
<path d="" fill="#007FBF" transform="translate(0,0)"/>
<path d="" fill="#00AAFF" transform="translate(0,0)"/>
<path d="" fill="#0055FF" transform="translate(0,0)"/>
<path d="" fill="#00BFFF" transform="translate(0,0)"/>
<path d="" fill="#00AAFF" transform="translate(0,0)"/>
<path d="" fill="#007FFF" transform="translate(0,0)"/>
<path d="" fill="#00BFFF" transform="translate(0,0)"/>
<path d="" fill="#003FDF" transform="translate(0,0)"/>
<path d="" fill="#007FFF" transform="translate(0,0)"/>
<path d="" fill="#002AFF" transform="translate(0,0)"/>
<path d="" fill="#00AAFF" transform="translate(0,0)"/>
<path d="" fill="#00BFFF" transform="translate(0,0)"/>
<path d="" fill="#0055FF" transform="translate(0,0)"/>
<path d="" fill="#00BFFF" transform="translate(0,0)"/>
<path d="" fill="#0055FF" transform="translate(0,0)"/>
<path d="" fill="#00AAFF" transform="translate(0,0)"/>
<path d="" fill="#0055FF" transform="translate(0,0)"/>
<path d="" fill="#007FFF" transform="translate(0,0)"/>
<path d="" fill="#007FFF" transform="translate(0,0)"/>
<path d="" fill="#0055FF" transform="translate(0,0)"/>
<path d="" fill="#00BFBF" transform="translate(0,0)"/>
<path d="" fill="#002AFF" transform="translate(0,0)"/>
<path d="" fill="#002AFF" transform="translate(0,0)"/>
<path d="" fill="#00BFFF" transform="translate(0,0)"/>
<path d="" fill="#002AFF" transform="translate(0,0)"/>
<path d="" fill="#0094FF" transform="translate(0,0)"/>
<path d="" fill="#002AFF" transform="translate(0,0)"/>
<path d="" fill="#0055FF" transform="translate(0,0)"/>
<path d="" fill="#007FFF" transform="translate(0,0)"/>
<path d="" fill="#003FFF" transform="translate(0,0)"/>
<path d="" fill="#0055FF" transform="translate(0,0)"/>
<path d="" fill="#00AAFF" transform="translate(0,0)"/>
<path d="" fill="#002A7F" transform="translate(0,0)"/>
<path d="" fill="#0055FF" transform="translate(0,0)"/>
<path d="" fill="#006AFF" transform="translate(0,0)"/>
<path d="" fill="#007FFF" transform="translate(0,0)"/>
<path d="" fill="#0055FF" transform="translate(0,0)"/>
<path d="" fill="#0055FF" transform="translate(0,0)"/>
<path d="" fill="#003FFF" transform="translate(0,0)"/>
<path d="" fill="#002A7F" transform="translate(0,0)"/>
<path d="" fill="#00AAFF" transform="translate(0,0)"/>
<path d="" fill="#007FFF" transform="translate(0,0)"/>
<path d="" fill="#002AFF" transform="translate(0,0)"/>
<path d="" fill="#002AFF" transform="translate(0,0)"/>
<path d="" fill="#00BFFF" transform="translate(0,0)"/>
<path d="" fill="#00AAFF" transform="translate(0,0)"/>
<path d="" fill="#0094BF" transform="translate(0,0)"/>
<path d="" fill="#002AFF" transform="translate(0,0)"/>
<path d="" fill="#002AFF" transform="translate(0,0)"/>
<path d="" fill="#0094FF" transform="translate(0,0)"/>
<path d="" fill="#003FFF" transform="translate(0,0)"/>
<path d="" fill="#0055FF" transform="translate(0,0)"/>
<path d="" fill="#00AAFF" transform="translate(0,0)"/>
<path d="" fill="#001F5F" transform="translate(0,0)"/>
<path d="" fill="#002AFF" transform="translate(0,0)"/>
<path d="" fill="#006A94" transform="translate(0,0)"/>
<path d="" fill="#007FFF" transform="translate(0,0)"/>
<path d="" fill="#002AFF" transform="translate(0,0)"/>
<path d="" fill="#0055FF" transform="translate(0,0)"/>
<path d="" fill="#003FFF" transform="translate(0,0)"/>
<path d="" fill="#0055FF" transform="translate(0,0)"/>
<path d="" fill="#00D4FF" transform="translate(0,0)"/>
<path d="" fill="#006AD4" transform="translate(0,0)"/>
<path d="" fill="#002AFF" transform="translate(0,0)"/>
<path d="" fill="#002AFF" transform="translate(0,0)"/>
<path d="" fill="#007FFF" transform="translate(0,0)"/>
<path d="" fill="#007FFF" transform="translate(0,0)"/>
<path d="" fill="#0055FF" transform="translate(0,0)"/>
<path d="" fill="#0055FF" transform="translate(0,0)"/>
<path d="" fill="#0055FF" transform="translate(0,0)"/>
<path d="" fill="#0055FF" transform="translate(0,0)"/>
<path d="" fill="#00AAFF" transform="translate(0,0)"/>
<path d="" fill="#0055FF" transform="translate(0,0)"/>
<path d="" fill="#0055AA" transform="translate(0,0)"/>
<path d="" fill="#0055FF" transform="translate(0,0)"/>
<path d="" fill="#0055FF" transform="translate(0,0)"/>
<path d="" fill="#0055AA" transform="translate(0,0)"/>
<path d="" fill="#0055FF" transform="translate(0,0)"/>
<path d="" fill="#0055FF" transform="translate(0,0)"/>
<path d="" fill="#007FFF" transform="translate(0,0)"/>
<path d="" fill="#0055FF" transform="translate(0,0)"/>
<path d="" fill="#0055AA" transform="translate(0,0)"/>
<path d="" fill="#007FFF" transform="translate(0,0)"/>
<path d="" fill="#0055FF" transform="translate(0,0)"/>
<path d="" fill="#0055FF" transform="translate(0,0)"/>
<path d="" fill="#0055AA" transform="translate(0,0)"/>
<path d="" fill="#0055FF" transform="translate(0,0)"/>
<path d="" fill="#0055FF" transform="translate(0,0)"/>
<path d="" fill="#0000FF" transform="translate(0,0)"/>
<path d="" fill="#0000FF" transform="translate(0,0)"/>
<path d="" fill="#007FFF" transform="translate(0,0)"/>
<path d="" fill="#00FFFF" transform="translate(0,0)"/>
<path d="" fill="#007FFF" transform="translate(0,0)"/>
<path d="" fill="#007FFF" transform="translate(0,0)"/>
<path d="" fill="#0055AA" transform="translate(0,0)"/>
<path d="" fill="#0055FF" transform="translate(0,0)"/>
<path d="" fill="#0055AA" transform="translate(0,0)"/>
<path d="" fill="#0055FF" transform="translate(0,0)"/>
<path d="" fill="#0055AA" transform="translate(0,0)"/>
<path d="" fill="#0055AA" transform="translate(0,0)"/>
<path d="" fill="#0055FF" transform="translate(0,0)"/>
<path d="" fill="#007FFF" transform="translate(0,0)"/>
<path d="" fill="#0055FF" transform="translate(0,0)"/>
<path d="" fill="#0055FF" transform="translate(0,0)"/>
<path d="" fill="#0055FF" transform="translate(0,0)"/>
<path d="" fill="#0055FF" transform="translate(0,0)"/>
<path d="" fill="#0055AA" transform="translate(0,0)"/>
<path d="" fill="#007FFF" transform="translate(0,0)"/>
<path d="" fill="#0055FF" transform="translate(0,0)"/>
<path d="" fill="#0055FF" transform="translate(0,0)"/>
<path d="" fill="#00AAFF" transform="translate(0,0)"/>
<path d="" fill="#0055FF" transform="translate(0,0)"/>
<path d="" fill="#007FFF" transform="translate(0,0)"/>
<path d="" fill="#0055AA" transform="translate(0,0)"/>
<path d="" fill="#0055FF" transform="translate(0,0)"/>
<path d="" fill="#0055AA" transform="translate(0,0)"/>
<path d="" fill="#00AAFF" transform="translate(0,0)"/>
<path d="" fill="#0055FF" transform="translate(0,0)"/>
<path d="" fill="#0055FF" transform="translate(0,0)"/>
<path d="" fill="#0055FF" transform="translate(0,0)"/>
<path d="" fill="#0055FF" transform="translate(0,0)"/>
<path d="" fill="#0055FF" transform="translate(0,0)"/>
<path d="" fill="#0055FF" transform="translate(0,0)"/>
<path d="" fill="#0055FF" transform="translate(0,0)"/>
<path d="" fill="#0055FF" transform="translate(0,0)"/>
<path d="" fill="#0055FF" transform="translate(0,0)"/>
<path d="" fill="#007FFF" transform="translate(0,0)"/>
<path d="" fill="#0055AA" transform="translate(0,0)"/>
<path d="" fill="#0055FF" transform="translate(0,0)"/>
<path d="" fill="#0055FF" transform="translate(0,0)"/>
<path d="" fill="#0055FF" transform="translate(0,0)"/>
<path d="" fill="#000000" transform="translate(0,0)"/>
<path d="" fill="#0055FF" transform="translate(0,0)"/>
<path d="" fill="#0055AA" transform="translate(0,0)"/>
<path d="" fill="#0055FF" transform="translate(0,0)"/>
<path d="" fill="#0000FF" transform="translate(0,0)"/>
<path d="" fill="#00FFFF" transform="translate(0,0)"/>
<path d="" fill="#00AAFF" transform="translate(0,0)"/>
<path d="" fill="#0055FF" transform="translate(0,0)"/>
<path d="" fill="#007F7F" transform="translate(0,0)"/>
<path d="" fill="#0055AA" transform="translate(0,0)"/>
<path d="" fill="#0055FF" transform="translate(0,0)"/>
<path d="" fill="#0055FF" transform="translate(0,0)"/>
<path d="" fill="#0055FF" transform="translate(0,0)"/>
<path d="" fill="#007FBF" transform="translate(0,0)"/>
<path d="" fill="#0055FF" transform="translate(0,0)"/>
<path d="" fill="#0055FF" transform="translate(0,0)"/>
<path d="" fill="#0055FF" transform="translate(0,0)"/>
<path d="" fill="#0055FF" transform="translate(0,0)"/>
<path d="" fill="#0055AA" transform="translate(0,0)"/>
<path d="" fill="#0055FF" transform="translate(0,0)"/>
<path d="" fill="#00AAFF" transform="translate(0,0)"/>
<path d="" fill="#00AAFF" transform="translate(0,0)"/>
<path d="" fill="#0055FF" transform="translate(0,0)"/>
<path d="" fill="#0055FF" transform="translate(0,0)"/>
<path d="" fill="#0055FF" transform="translate(0,0)"/>
<path d="" fill="#0055AA" transform="translate(0,0)"/>
<path d="" fill="#0055FF" transform="translate(0,0)"/>
<path d="" fill="#00AAFF" transform="translate(0,0)"/>
<path d="" fill="#0055FF" transform="translate(0,0)"/>
<path d="" fill="#0055FF" transform="translate(0,0)"/>
<path d="" fill="#0055FF" transform="translate(0,0)"/>
<path d="" fill="#0055FF" transform="translate(0,0)"/>
<path d="" fill="#0055FF" transform="translate(0,0)"/>
<path d="" fill="#0055FF" transform="translate(0,0)"/>
<path d="" fill="#0055FF" transform="translate(0,0)"/>
<path d="" fill="#0055FF" transform="translate(0,0)"/>
<path d="" fill="#0055FF" transform="translate(0,0)"/>
<path d="" fill="#0055AA" transform="translate(0,0)"/>
<path d="" fill="#0055FF" transform="translate(0,0)"/>
<path d="" fill="#0055FF" transform="translate(0,0)"/>
<path d="" fill="#0055FF" transform="translate(0,0)"/>
<path d="" fill="#0055AA" transform="translate(0,0)"/>
<path d="" fill="#0055FF" transform="translate(0,0)"/>
<path d="" fill="#0055FF" transform="translate(0,0)"/>
<path d="" fill="#0055AA" transform="translate(0,0)"/>
<path d="" fill="#0055FF" transform="translate(0,0)"/>
<path d="" fill="#0055FF" transform="translate(0,0)"/>
<path d="" fill="#0055FF" transform="translate(0,0)"/>
<path d="" fill="#0000FF" transform="translate(0,0)"/>
<path d="" fill="#0000FF" transform="translate(0,0)"/>
<path d="" fill="#0055FF" transform="translate(0,0)"/>
<path d="" fill="#0055AA" transform="translate(0,0)"/>
<path d="" fill="#0055FF" transform="translate(0,0)"/>
<path d="" fill="#0055FF" transform="translate(0,0)"/>
<path d="" fill="#0055FF" transform="translate(0,0)"/>
<path d="" fill="#0055FF" transform="translate(0,0)"/>
<path d="" fill="#0055FF" transform="translate(0,0)"/>
<path d="" fill="#007FFF" transform="translate(0,0)"/>
<path d="" fill="#0055FF" transform="translate(0,0)"/>
<path d="" fill="#0055FF" transform="translate(0,0)"/>
<path d="" fill="#0055FF" transform="translate(0,0)"/>
<path d="" fill="#0055FF" transform="translate(0,0)"/>
<path d="" fill="#0055FF" transform="translate(0,0)"/>
<path d="" fill="#007FFF" transform="translate(0,0)"/>
<path d="" fill="#0055AA" transform="translate(0,0)"/>
<path d="" fill="#0055FF" transform="translate(0,0)"/>
<path d="" fill="#007FFF" transform="translate(0,0)"/>
<path d="" fill="#0055FF" transform="translate(0,0)"/>
<path d="" fill="#00AAFF" transform="translate(0,0)"/>
<path d="" fill="#0055AA" transform="translate(0,0)"/>
<path d="" fill="#0055FF" transform="translate(0,0)"/>
<path d="" fill="#00AAFF" transform="translate(0,0)"/>
<path d="" fill="#0000FF" transform="translate(0,0)"/>
<path d="" fill="#0000FF" transform="translate(0,0)"/>
</svg>
