<?xml version="1.0" encoding="utf-8"?><!-- Uploaded to: SVG Repo, www.svgrepo.com, Generator: SVG Repo Mixer Tools -->
<svg width="800px" height="800px" viewBox="0 0 256 256" xmlns="http://www.w3.org/2000/svg" preserveAspectRatio="xMinYMin meet"><path d="M255.96 134.393c0-21.521-13.373-40.117-33.223-47.43a75.239 75.239 0 0 0 1.253-13.791c0-39.909-32.386-72.295-72.295-72.295-23.193 0-44.923 11.074-58.505 30.088-6.686-5.224-14.835-7.94-23.402-7.94-21.104 0-38.446 17.133-38.446 38.446 0 4.597.836 9.194 2.298 13.373C13.582 81.739 0 100.962 0 122.274c0 21.522 13.373 40.327 33.431 47.64-.835 4.388-1.253 8.985-1.253 13.79 0 39.7 32.386 72.087 72.086 72.087 23.402 0 44.924-11.283 58.505-30.088 6.686 5.223 15.044 8.149 23.611 8.149 21.104 0 38.446-17.134 38.446-38.446 0-4.597-.836-9.194-2.298-13.373 19.64-7.104 33.431-26.327 33.431-47.64z" fill="#FFF"/><path d="M100.085 110.364l57.043 26.119 57.669-50.565a64.312 64.312 0 0 0 1.253-12.746c0-35.52-28.834-64.355-64.355-64.355-21.313 0-41.162 10.447-53.072 27.998l-9.612 49.73 11.074 23.82z" fill="#F4BD19"/><path d="M40.953 170.75c-.835 4.179-1.253 8.567-1.253 12.955 0 35.52 29.043 64.564 64.564 64.564 21.522 0 41.372-10.656 53.49-28.208l9.403-49.729-12.746-24.238-57.251-26.118-56.207 50.774z" fill="#3CBEB1"/><path d="M40.536 71.918l39.073 9.194 8.775-44.506c-5.432-4.179-11.91-6.268-18.805-6.268-16.925 0-30.924 13.79-30.924 30.924 0 3.552.627 7.313 1.88 10.656z" fill="#E9478C"/><path d="M37.192 81.32c-17.551 5.642-29.67 22.567-29.67 40.954 0 17.97 11.074 34.059 27.79 40.327l54.953-49.73-10.03-21.52-43.043-10.03z" fill="#2C458F"/><path d="M167.784 219.852c5.432 4.18 11.91 6.478 18.596 6.478 16.925 0 30.924-13.79 30.924-30.924 0-3.761-.627-7.314-1.88-10.657l-39.073-9.193-8.567 44.296z" fill="#95C63D"/><path d="M175.724 165.317l43.043 10.03c17.551-5.85 29.67-22.566 29.67-40.954 0-17.97-11.074-33.849-27.79-40.326l-56.415 49.311 11.492 21.94z" fill="#176655"/></svg>