<svg xmlns="http://www.w3.org/2000/svg" width="100" height="100" viewBox="0 0 1000 1000">
  <defs><style>.svg-red{fill:#e4002b}.svg-white{fill:#fff}</style></defs>
  <title>F5 Logo</title>
  <g id="F5Logo">
    <path class="svg-red" d="M940.4 894.5a30.9 30.9 0 0 1 9.4 23 32.4 32.4 0 0 1-55.4 23 32 32 0 0 1-9.4-23 32.5 32.5 0 0 1 32.4-32.6 30.9 30.9 0 0 1 23 9.6Zm3.8-3.7a36.6 36.6 0 0 0-26.8-11 37.7 37.7 0 1 0 26.8 64.3 37.7 37.7 0 0 0 0-53.4ZM923 915.7a18.8 18.8 0 0 1-7 .9h-6.5v-15h6.3c4 0 7 .5 8.7 1.5s2.8 3.1 2.8 6a6.4 6.4 0 0 1-4.3 6.5Zm-20.8 22.2h7.3v-16.2h5.8c3.8 0 6.6.4 8.1 1.3 2.6 1.6 3.9 4.7 3.9 9.5v3.3l.1 1.3a3 3 0 0 1 .1.5c0 .2.1.3.2.3h6.8l-.2-.4a4.4 4.4 0 0 1-.4-2.1v-6.1a11.5 11.5 0 0 0-2.4-6.5c-1.5-2.2-3.9-3.5-7.1-4.1a17 17 0 0 0 6-2c2.7-1.8 4-4.6 4-8.2 0-5.2-2-8.7-6.4-10.5-2.4-1-6.1-1.5-11.3-1.5h-14.5Z"/>
    <path class="svg-white" d="M958.6 620.3c2.7-53.3-7.2-110.8-53.6-162.8-47.7-51.4-128.2-95-293.7-105.2 8.6-26.8 16.1-51.4 24-76.5 99 3.5 187.1 10.6 262 20.3 6-26.8 9.2-53 15.3-78.4q-11.4-16.7-24.2-32.4c-35.6-4.2-71.2-13-109.4-18a1995.1 1995.1 0 0 0-164.4-14.1 85384 85384 0 0 0-130.1 390.5C730.7 565 825.5 631.4 820 725c-5 50.6-51.1 96.5-112 102-72.2 4.9-105.3-24.4-127-56.4a9594.8 9594.8 0 0 1-58.7-89c-5.5-9.2-12.8-3.2-19.4 3.2a9738 9738 0 0 1-43.9 42.3c-9.4 8.2-7.3 15.3-4 22.2a8042 8042 0 0 0 39.6 91.8c21.5 13.2 122.9 31.2 198.7 25.6A336.7 336.7 0 0 0 862 802.5c52.5-40.7 90.7-95.5 96.6-182.2Z"/>
    <path class="svg-white" d="M97.3 796.3q14.2 19.3 30.2 37.1a2114 2114 0 0 0 302 29.2l-1-34.5c-67.9-3.8-99.1-14.2-104.5-27.6-4.6-10.7-5.4-26.7-6.3-42.4a5198.9 5198.9 0 0 1-5-330.5c38-.7 75.8-1 115.5-1.5 19.2-8.7 37.3-17.4 56.5-26l.1-39.3c-58.8.2-114.6 1.2-170.6 2.8 1.6-47.7 3.5-91.6 6.3-134.5 2-28.2 21.5-48.8 41.6-50.4 32.3-1.3 61.2 11.6 89.3 24 15.4 7.5 30.7 15 46.5 23 7.6 2 16.6 3.8 22-2.7 9.4-11.2 18.3-21.5 27.5-32.3 5-7.4 2.9-11.6.8-14.3a2834 2834 0 0 0-58.2-44.6c-11.8-8-30.5-9.7-49-9.7-7.3 0-14.6.2-21.5.4-18.9 1-43 4-82.4 13.7-88.8 23.9-195.4 85.8-206.7 187a1982 1982 0 0 0-3.7 49.9c-25.1 2-48 3.9-69.5 6a1557 1557 0 0 0-3.5 57.6c21.8-1.3 44.6-2.5 70-3.6-3.8 106.2-.3 212.1 9.7 310.3 1.7 14.9 3.3 29.7 1.4 39.2-1.6 9.1-16.3 13.9-37.5 13.7Z"/>
    <path class="svg-red" d="M912.7 217.7c-6.2 25.3-9.4 51.6-15.3 78.4-75-9.7-163-16.8-262-20.3-8 25-15.5 49.7-24 76.5 165.5 10.2 246 53.8 293.7 105.2 46.4 52 56.2 109.5 53.5 162.8-6 86.7-44.1 141.5-96.6 182.1-53 40-117.3 59.8-168.7 64.2-75.7 5.6-177-12.4-198.6-25.6a7418 7418 0 0 1-39.6-91.8c-3.3-6.9-5.4-14 4-22.2a9738 9738 0 0 0 43.9-42.3c6.6-6.4 13.9-12.4 19.4-3.2 20.4 31.4 39.5 60.3 58.6 89 21.7 32 54.8 61.3 127.2 56.4 60.7-5.4 107-51.4 111.9-102 5.3-93.6-89.4-160-335.7-181.3C531.7 401 577.8 263 614.6 153.3c58.5 2.7 112.6 7.5 164.4 14.2 38.2 4.8 73.8 13.7 109.4 17.8A500 500 0 0 0 0 500a497.6 497.6 0 0 0 97.3 296.3c21.2.2 35.9-4.6 37.5-13.7 1.9-9.6.3-24.3-1.4-39.2-10-98.2-13.5-204.1-9.8-310.3a4430 4430 0 0 0-70 3.6c1-19.7 2-38.3 3.6-57.6 21.6-2.1 44.4-4 69.5-6 1-17 2.2-33.3 3.7-49.8C141.7 222 248.3 160 337.1 136.2a435.4 435.4 0 0 1 82.4-13.6c6.9-.3 14.2-.5 21.6-.5 18.4 0 37 1.7 48.9 9.7 19.2 14.4 38 28.7 58.2 44.6 2 2.7 4.2 7-.8 14.3L520 223c-5.4 6.5-14.4 4.8-22 2.8-15.8-8.1-31-15.6-46.5-23-28-12.5-57-25.4-89.3-24-20.1 1.5-39.6 22.1-41.6 50.3-2.8 42.9-4.7 86.8-6.3 134.5 56-1.6 111.8-2.6 170.7-2.9l-.1 39.4c-19.2 8.6-37.3 17.3-56.6 26-39.7.5-77.5.8-115.5 1.5a5178 5178 0 0 0 5 330.5c1 15.7 1.8 31.7 6.3 42.3 5.4 13.5 36.6 23.8 104.6 27.7l1 34.4a2112.6 2112.6 0 0 1-302-29A500 500 0 0 0 1000 500a497.6 497.6 0 0 0-87.3-282.4Z"/>
    <path class="svg-red" d="M127.5 833.4Z" />
  </g>
</svg>