<?xml version="1.0" encoding="UTF-8"?>
<svg version="1.1" xmlns="http://www.w3.org/2000/svg" width="200" height="200">
<path d="M0 0 C66 0 132 0 200 0 C200 66 200 132 200 200 C134 200 68 200 0 200 C0 134 0 68 0 0 Z " fill="#FCFDFE" transform="translate(0,0)"/>
<path d="M0 0 C2.97 0 5.94 0 9 0 C9.32871094 1.16015625 9.32871094 1.16015625 9.6640625 2.34375 C12.7670487 12.53567216 16.47174137 19.48366331 26.03125 24.69921875 C34.25674761 28.30328547 43.09750872 29.70941265 51.90625 31.14453125 C53.74920654 31.45088501 53.74920654 31.45088501 55.62939453 31.76342773 C58.07496857 32.16273441 60.52390935 32.54207868 62.97607422 32.89868164 C72.12276024 34.37442901 80.37525644 37.01033521 86.0625 44.75 C88.54763227 49.26524033 88.88548606 53.91974523 89 59 C88.319375 58.2575 87.63875 57.515 86.9375 56.75 C80.33542437 50.1665743 71.9889828 47.96335231 62.9765625 46.7109375 C62.23038666 46.60278717 61.48421082 46.49463684 60.71542358 46.38320923 C58.35265961 46.04195585 55.98888881 45.70836276 53.625 45.375 C52.01425005 45.14373608 50.40357208 44.91197033 48.79296875 44.6796875 C44.86278775 44.11398393 40.93168592 43.55514365 37 43 C37 43.66 37 44.32 37 45 C35.35 45 33.7 45 32 45 C32 42.36 32 39.72 32 37 C30.02 37 28.04 37 26 37 C26 37.66 26 38.32 26 39 C21.47126099 38.46720718 18.42350929 37.02542682 15 34 C14.625 30.25 14.625 30.25 15 27 C12.69 27 10.38 27 8 27 C8 29.64 8 32.28 8 35 C8.7425 34.87625 9.485 34.7525 10.25 34.625 C11.61125 34.810625 11.61125 34.810625 13 35 C13.90468139 36.44078888 14.80540368 37.88431558 15.6796875 39.34375 C22.41783682 47.79633968 36.8997569 48.35571337 46.84765625 49.63671875 C61.49484216 51.5501727 77.07139489 53.88025445 87 66 C91.76636206 73.18388288 93.32728118 80.93391059 93.125 89.4375 C93.11597656 90.16904297 93.10695313 90.90058594 93.09765625 91.65429688 C93.07436153 93.43634298 93.0385019 95.21821759 93 97 C90.26196565 95.63098283 90.2440383 94.29318019 89.25 91.4375 C85.95079819 82.93477768 80.91905937 76.61596532 73 72 C64.30384762 68.43980766 55.19090755 66.64572531 46 64.875 C43.43648447 64.37760146 40.87392978 63.87521771 38.3125 63.3671875 C37.19488281 63.15175293 36.07726562 62.93631836 34.92578125 62.71435547 C32.33059152 62.08071686 30.30875117 61.31517365 28 60 C28 58.35 28 56.7 28 55 C26.02 55 24.04 55 22 55 C22 57.31 22 59.62 22 62 C22.9075 62.04125 23.815 62.0825 24.75 62.125 C28.38696734 62.63013435 31.04241814 63.99303803 34.25 65.75 C39.57584142 68.55025373 44.76237953 70.18121512 50.5625 71.625 C51.38427734 71.83181396 52.20605469 72.03862793 53.05273438 72.25170898 C54.64781256 72.65223734 56.24302261 73.05224101 57.83837891 73.45166016 C66.63900466 75.68412068 73.02342107 77.98739494 78 86 C78.6796875 88.25 78.6796875 88.25 79 90 C78.29875 89.401875 77.5975 88.80375 76.875 88.1875 C71.93969747 84.43237851 67.53197544 82.66272502 61.39453125 81.8671875 C60.16412109 81.70089844 58.93371094 81.53460938 57.66601562 81.36328125 C56.39435547 81.20214844 55.12269531 81.04101562 53.8125 80.875 C51.27704122 80.54135349 48.74186884 80.20552105 46.20703125 79.8671875 C45.0878833 79.72394043 43.96873535 79.58069336 42.81567383 79.43310547 C40 79 40 79 37 78 C37 76.35 37 74.7 37 73 C34.36 73 31.72 73 29 73 C29 73.66 29 74.32 29 75 C22.46184177 73.36546044 17.38954095 69.6003828 12.875 64.6875 C10.38606542 62.44745888 8.27468188 62.29769835 5 62 C5 60.02 5 58.04 5 56 C6.98 56 8.96 56 11 56 C11 52.7 11 49.4 11 46 C8.36 46 5.72 46 3 46 C2.21311555 43.22276075 1.88050076 40.77389923 1.90234375 37.890625 C1.90717773 36.75947266 1.90717773 36.75947266 1.91210938 35.60546875 C1.92048828 34.82816406 1.92886719 34.05085938 1.9375 33.25 C1.94201172 32.45722656 1.94652344 31.66445312 1.95117188 30.84765625 C1.96291435 28.89840492 1.98084854 26.94919262 2 25 C0.68 25 -0.64 25 -2 25 C-2 22.69 -2 20.38 -2 18 C0.97 18 3.94 18 7 18 C7 15.03 7 12.06 7 9 C4.69 9 2.38 9 0 9 C0 6.03 0 3.06 0 0 Z " fill="#1C73C1" transform="translate(52,79)"/>
<path d="M0 0 C1.41764994 0.93601246 2.83407568 1.8738792 4.25 2.8125 C5.03890625 3.33457031 5.8278125 3.85664062 6.640625 4.39453125 C8.81092481 5.87134122 10.91413768 7.40689873 13 9 C13.33 8.01 13.66 7.02 14 6 C15.98 6 17.96 6 20 6 C20 7.65 20 9.3 20 11 C18.35 11 16.7 11 15 11 C15 11.99 15 12.98 15 14 C21.93 13.01 21.93 13.01 29 12 C29 13.98 29 15.96 29 18 C31.97 18 34.94 18 38 18 C38 14.04 38 10.08 38 6 C39.65 6 41.3 6 43 6 C43 7.32 43 8.64 43 10 C46.3 10 49.6 10 53 10 C53 11.32 53 12.64 53 14 C54.65 14 56.3 14 58 14 C58 13.01 58 12.02 58 11 C59.52102323 11.14383922 61.04180897 11.29019014 62.5625 11.4375 C63.40941406 11.51871094 64.25632812 11.59992187 65.12890625 11.68359375 C68 12 68 12 71.2890625 12.90234375 C76.77092017 13.04660316 79.60006339 10.39119109 83.8125 7.125 C85.31862653 6.00208909 86.82511928 4.87966916 88.33203125 3.7578125 C88.98921143 3.2539502 89.6463916 2.75008789 90.32348633 2.23095703 C92 1 92 1 94 0 C92.59155282 3.21524305 90.89655214 5.32183868 88.375 7.75 C87.42753906 8.67039062 87.42753906 8.67039062 86.4609375 9.609375 C85.97882813 10.06828125 85.49671875 10.5271875 85 11 C85.99 11.33 86.98 11.66 88 12 C79.8633153 19.83863765 71.45347335 26.80012669 62 33 C61.37706055 33.41008301 60.75412109 33.82016602 60.11230469 34.24267578 C58.25844875 35.44192157 56.38614406 36.60233954 54.5 37.75 C53.3965625 38.42546875 52.293125 39.1009375 51.15625 39.796875 C48 41 48 41 45.04296875 40.45703125 C41.52820892 38.77409747 38.1413911 36.95819681 34.8125 34.9375 C34.15612549 34.54046875 33.49975098 34.1434375 32.82348633 33.734375 C22.96061763 27.63754745 14.51774313 19.81562981 6 12 C6.99 11.67 7.98 11.34 9 11 C8.3503125 10.37351562 7.700625 9.74703125 7.03125 9.1015625 C6.1959375 8.28429688 5.360625 7.46703125 4.5 6.625 C3.6646875 5.81289063 2.829375 5.00078125 1.96875 4.1640625 C0 2 0 2 0 0 Z " fill="#2E9FE6" transform="translate(57,38)"/>
<path d="M0 0 C0.81404297 0.61488281 0.81404297 0.61488281 1.64453125 1.2421875 C2.35996094 1.78101563 3.07539062 2.31984375 3.8125 2.875 C4.52019531 3.40867188 5.22789063 3.94234375 5.95703125 4.4921875 C7.60456297 5.70814781 9.29624211 6.86416141 11 8 C11.37109375 10.28515625 11.37109375 10.28515625 11.4375 13.0625 C11.91481157 20.20345552 13.85080229 25.47469269 18.5 30.9375 C23.16359364 34.78496475 25.88262434 35.31641598 32 35 C34.0064731 34.70814937 36.00994193 34.38830401 38 34 C41 39.75 41 39.75 41 42 C41.66 42 42.32 42 43 42 C43.268125 41.236875 43.53625 40.47375 43.8125 39.6875 C44.94424112 37.12619116 45.91223401 35.80307062 48 34 C48.99 34.33 49.98 34.66 51 35 C55.90333175 35.4807188 59.7775613 35.00804991 64.0703125 32.64453125 C68.82432045 28.59303864 71.70918985 22.17398507 72.2734375 16.015625 C72.28632813 15.08234375 72.29921875 14.1490625 72.3125 13.1875 C72.41991586 9.65812179 72.61898473 8.42466557 75.01171875 5.7578125 C81.09751506 1 81.09751506 1 83 1 C83.57259482 19.47148474 83.57259482 19.47148474 80 27 C79.70996094 27.70511719 79.41992188 28.41023438 79.12109375 29.13671875 C76.92986233 34.09678652 74.37573435 36.81764775 70 40 C70 38.68 70 37.36 70 36 C69.33871094 36.52787109 69.33871094 36.52787109 68.6640625 37.06640625 C60.80366534 42.83370915 49.87089838 48.95694926 39.8828125 49.01953125 C37.00337016 48.31462326 34.65143625 47.32950589 32 46 C30.77661018 45.42716968 29.55261042 44.85564087 28.328125 44.28515625 C23.73248177 42.09236457 19.24170484 39.82780323 15 37 C14.67 37.99 14.34 38.98 14 40 C8.50697381 37.79329833 6.43385794 33.15405211 4 28 C2.7501514 24.04137174 1.79767787 20.07235545 1 16 C2.65 16 4.3 16 6 16 C6 13.69 6 11.38 6 9 C4.02 9 2.04 9 0 9 C0 6.03 0 3.06 0 0 Z " fill="#2892DA" transform="translate(62,56)"/>
<path d="M0 0 C1.20698658 4.82794633 0.42003532 6.00783103 -1.8203125 10.1640625 C-4.0031602 13.56120958 -6.24231666 14.74743889 -10 16 C-13.375 16.375 -13.375 16.375 -17 16 C-19.9375 13.5 -19.9375 13.5 -22 11 C-18.79619983 8.86413322 -17.98060033 8.76867825 -14.3125 8.875 C-13.10013672 8.90207031 -13.10013672 8.90207031 -11.86328125 8.9296875 C-10.94095703 8.96449219 -10.94095703 8.96449219 -10 9 C-9.34 6.69 -8.68 4.38 -8 2 C-5.36 1.34 -2.72 0.68 0 0 Z " fill="#E26C30" transform="translate(130,71)"/>
<path d="M0 0 C4.455 0.99 4.455 0.99 9 2 C9.33 4.31 9.66 6.62 10 9 C11.03060547 8.94779297 11.03060547 8.94779297 12.08203125 8.89453125 C12.98308594 8.86746094 13.88414063 8.84039062 14.8125 8.8125 C15.70582031 8.77769531 16.59914063 8.74289063 17.51953125 8.70703125 C20.41647515 9.04918998 21.22555028 9.75393573 23 12 C20.11171799 15.16335648 18.01180326 15.90454686 13.6875 16.3125 C9.20580785 15.93269558 7.38620618 14.93471202 4 12 C1.13713993 8.25966889 -0.58251689 4.80576432 0 0 Z " fill="#E1672A" transform="translate(77,71)"/>
<path d="M0 0 C3.63 0 7.26 0 11 0 C11 3.63 11 7.26 11 11 C7.37 11 3.74 11 0 11 C0 7.37 0 3.74 0 0 Z " fill="#1675C5" transform="translate(32,64)"/>
<path d="M0 0 C3.3 0 6.6 0 10 0 C10 3.3 10 6.6 10 10 C6.7 10 3.4 10 0 10 C0 6.7 0 3.4 0 0 Z " fill="#30AEF3" transform="translate(97,24)"/>
<path d="M0 0 C2.64 0 5.28 0 8 0 C8 2.97 8 5.94 8 9 C5.36 9 2.72 9 0 9 C0 6.03 0 3.06 0 0 Z " fill="#084EA3" transform="translate(51,149)"/>
<path d="M0 0 C0.66 0.66 1.32 1.32 2 2 C-0.05233685 4.2477975 -1.00667261 5.0022242 -4 6 C-10.54098361 6.2295082 -10.54098361 6.2295082 -13 5 C-12.4375 3.125 -12.4375 3.125 -11 1 C-7.15391594 -0.49569935 -3.91701403 -1.74089512 0 0 Z " fill="#D53D20" transform="translate(98,81)"/>
<path d="M0 0 C2.64 0 5.28 0 8 0 C8 2.64 8 5.28 8 8 C5.36 8 2.72 8 0 8 C0 5.36 0 2.72 0 0 Z " fill="#1960AF" transform="translate(43,126)"/>
<path d="M0 0 C2.64 0 5.28 0 8 0 C8 2.64 8 5.28 8 8 C5.36 8 2.72 8 0 8 C0 5.36 0 2.72 0 0 Z " fill="#1B6FBD" transform="translate(36,88)"/>
<path d="M0 0 C2.64 0 5.28 0 8 0 C8 2.64 8 5.28 8 8 C5.36 8 2.72 8 0 8 C0 5.36 0 2.72 0 0 Z " fill="#3091D7" transform="translate(36,39)"/>
<path d="M0 0 C1.33998047 0.31324219 1.33998047 0.31324219 2.70703125 0.6328125 C3.60808594 0.83648437 4.50914063 1.04015625 5.4375 1.25 C6.46810547 1.50136719 6.46810547 1.50136719 7.51953125 1.7578125 C7.18953125 3.4078125 6.85953125 5.0578125 6.51953125 6.7578125 C3.33203125 7.0703125 3.33203125 7.0703125 -0.48046875 6.7578125 C-3.41796875 4.2578125 -3.41796875 4.2578125 -5.48046875 1.7578125 C-2.48046875 -0.2421875 -2.48046875 -0.2421875 0 0 Z " fill="#D02E22" transform="translate(113.48046875,80.2421875)"/>
<path d="M0 0 C1.9375 0.8125 1.9375 0.8125 4 2 C5.11450049 5.34350146 4.91669067 6.66657937 4 10 C3.01 11.485 3.01 11.485 2 13 C1.34 13 0.68 13 0 13 C-1.06671952 9.79984144 -0.94845472 8.11455706 -0.5625 4.8125 C-0.46066406 3.91144531 -0.35882813 3.01039062 -0.25390625 2.08203125 C-0.17011719 1.39496094 -0.08632812 0.70789063 0 0 Z " fill="#E6F1FA" transform="translate(103,85)"/>
<path d="M0 0 C2.31 0 4.62 0 7 0 C7 2.31 7 4.62 7 7 C4.69 7 2.38 7 0 7 C0 4.69 0 2.38 0 0 Z " fill="#58B5ED" transform="translate(83,34)"/>
<path d="M0 0 C1.98 0 3.96 0 6 0 C6 2.31 6 4.62 6 7 C4.02 7 2.04 7 0 7 C0 4.69 0 2.38 0 0 Z " fill="#3790D4" transform="translate(53,63)"/>
<path d="M0 0 C4.455 0.99 4.455 0.99 9 2 C9 3.65 9 5.3 9 7 C8.34 6.01 7.68 5.02 7 4 C5.35 5.32 3.7 6.64 2 8 C-0.1519437 4.77208445 -0.20086443 3.71599191 0 0 Z " fill="#EB8C38" transform="translate(77,71)"/>
<path d="M0 0 C1.65 0.33 3.3 0.66 5 1 C3.9375 2.9375 3.9375 2.9375 2 5 C-1.6875 5.75 -1.6875 5.75 -5 6 C-3.35 4.02 -1.7 2.04 0 0 Z " fill="#CF2A21" transform="translate(95,81)"/>
<path d="M0 0 C1.65 0 3.3 0 5 0 C5 1.98 5 3.96 5 6 C3.35 6 1.7 6 0 6 C0 4.02 0 2.04 0 0 Z " fill="#1658A8" transform="translate(33,141)"/>
<path d="M0 0 C1.98 0 3.96 0 6 0 C6 1.65 6 3.3 6 5 C4.02 5 2.04 5 0 5 C0 3.35 0 1.7 0 0 Z " fill="#2F8FD6" transform="translate(48,51)"/>
<path d="M0 0 C1.98 0 3.96 0 6 0 C6 1.65 6 3.3 6 5 C4.02 5 2.04 5 0 5 C0 3.35 0 1.7 0 0 Z " fill="#2A98E0" transform="translate(71,44)"/>
<path d="M0 0 C0.95465783 2.16967689 1.14401212 3.56328793 0.3984375 5.82421875 C-0.35870385 7.5684743 -1.17609198 9.28627131 -2 11 C-2.33 11 -2.66 11 -3 11 C-3.08096803 9.54257537 -3.13917774 8.08387193 -3.1875 6.625 C-3.22230469 5.81289062 -3.25710937 5.00078125 -3.29296875 4.1640625 C-3.19628906 3.44992188 -3.09960938 2.73578125 -3 2 C-2.01 1.34 -1.02 0.68 0 0 Z " fill="#EA882E" transform="translate(130,71)"/>
<path d="M0 0 C1.65 0 3.3 0 5 0 C5 1.65 5 3.3 5 5 C3.35 5 1.7 5 0 5 C0 3.35 0 1.7 0 0 Z " fill="#0A55A9" transform="translate(87,164)"/>
<path d="M0 0 C1.65 0 3.3 0 5 0 C5 1.65 5 3.3 5 5 C3.35 5 1.7 5 0 5 C0 3.35 0 1.7 0 0 Z " fill="#FEFEFF" transform="translate(97,61)"/>
<path d="M0 0 C1.65 0 3.3 0 5 0 C5 1.65 5 3.3 5 5 C3.35 5 1.7 5 0 5 C0 3.35 0 1.7 0 0 Z " fill="#29ABF3" transform="translate(111,36)"/>
<path d="M0 0 C1.65 0 3.3 0 5 0 C5 1.65 5 3.3 5 5 C3.35 5 1.7 5 0 5 C0 3.35 0 1.7 0 0 Z " fill="#39A3E6" transform="translate(65,30)"/>
<path d="M0 0 C1.65 0 3.3 0 5 0 C4.67 1.65 4.34 3.3 4 5 C2.68 5 1.36 5 0 5 C0 3.35 0 1.7 0 0 Z " fill="#D4371A" transform="translate(116,82)"/>
<path d="M0 0 C1.32 1.32 2.64 2.64 4 4 C3.01 5.98 2.02 7.96 1 10 C0.67 10 0.34 10 0 10 C0 6.7 0 3.4 0 0 Z " fill="#3496DA" transform="translate(104,85)"/>
<path d="M0 0 C0 3 0 3 -1.53125 4.82421875 C-2.1809375 5.43910156 -2.830625 6.05398437 -3.5 6.6875 C-4.1496875 7.31011719 -4.799375 7.93273438 -5.46875 8.57421875 C-5.9740625 9.04472656 -6.479375 9.51523437 -7 10 C-7 7 -7 7 -4.625 4.4375 C-3.75875 3.633125 -2.8925 2.82875 -2 2 C-1.34 1.34 -0.68 0.68 0 0 Z " fill="#53C4FD" transform="translate(150,38)"/>
</svg>
