<?xml version="1.0" encoding="UTF-8"?>
<!-- Generator: visioncortex VTracer 0.6.4 -->
<svg version="1.1" xmlns="http://www.w3.org/2000/svg" width="168" height="168">
    <path
        d="M0,0 L168,0 L168,168 L0,168 Z "
        fill="#effc17" transform="translate(0,0)" />
    <path
        d="M0 0 C55.44 0 110.88 0 168 0 C168 55.44 168 110.88 168 168 C112.56 168 57.12 168 0 168 C0 112.56 0 57.12 0 0 Z M77 20 C75.15410153 22.09773769 73.47340395 24.14414765 71.8125 26.375 C70.84784319 27.63555975 69.88299415 28.8959724 68.91796875 30.15625 C68.43247559 30.79691406 67.94698242 31.43757813 67.44677734 32.09765625 C65.20337412 35.04747028 62.91585785 37.96198021 60.625 40.875 C59.95380127 41.73121948 59.95380127 41.73121948 59.26904297 42.60473633 C55.70968211 47.13283175 52.08071966 51.60175142 48.4375 56.0625 C43.70246457 61.86130819 39.08510589 67.72963828 34.5625 73.6953125 C32.67992802 76.15494676 30.73140016 78.54899817 28.75 80.9296875 C27.92447632 81.93020142 27.92447632 81.93020142 27.08227539 82.95092773 C26.01302489 84.24237665 24.93452653 85.52624352 23.84545898 86.80102539 C20.84264839 90.44427646 19.14029629 93.09664455 19 98 C20.3739373 100.87872577 21.74989437 102.74989437 24 105 C26.30338802 105.33101534 26.30338802 105.33101534 29.00048828 105.31884766 C30.04141632 105.33871735 31.08234436 105.35858704 32.15481567 105.37905884 C33.28192963 105.39061005 34.40904358 105.40216125 35.5703125 105.4140625 C36.72167694 105.43342865 37.87304138 105.4527948 39.05929565 105.4727478 C42.74778769 105.53267372 46.43631072 105.57898126 50.125 105.625 C52.62110759 105.66316777 55.11720185 105.70221878 57.61328125 105.7421875 C63.74206937 105.83838588 69.87093738 105.92339506 76 106 C75.97905273 107.21059082 75.95810547 108.42118164 75.93652344 109.66845703 C75.8639346 114.17468361 75.81813165 118.68085884 75.78027344 123.1875 C75.76020094 125.13517966 75.73293668 127.08279937 75.69824219 129.03027344 C75.64953148 131.83543721 75.62698759 134.63980187 75.609375 137.4453125 C75.58872986 138.31116974 75.56808472 139.17702698 75.54681396 140.06912231 C75.54480814 145.51581591 76.27030872 148.73472438 80 153 C82.89706707 154.24677006 82.89706707 154.24677006 86 154 C94.23334579 149.77877668 99.46602912 141.5017535 104.9362793 134.29150391 C108.36499681 129.78326753 111.9124064 125.38250925 115.5 121 C120.24196473 115.2024303 124.84834043 109.32890324 129.3828125 103.3671875 C131.33126842 100.83282157 133.3362949 98.35158424 135.3671875 95.8828125 C135.94855469 95.17576172 136.52992188 94.46871094 137.12890625 93.74023438 C138.25963173 92.37046291 139.39477803 91.00432388 140.53515625 89.64257812 C146.68288988 82.53188603 146.68288988 82.53188603 149 73.8125 C147.75862702 70.32113848 147.05157906 69.15857217 144 67 C140.31593438 66.37993153 136.65467482 66.41899112 132.92578125 66.42578125 C131.30641914 66.40453438 131.30641914 66.40453438 129.65434265 66.38285828 C126.2069603 66.34091682 122.76010179 66.32570552 119.3125 66.3125 C115.85442966 66.28349296 112.39649384 66.24901645 108.93852234 66.21000671 C106.78625053 66.18742984 104.63389503 66.17166525 102.48152161 66.16316223 C101.51349106 66.15612778 100.54546051 66.14909332 99.5480957 66.1418457 C98.26380424 66.13662651 98.26380424 66.13662651 96.9535675 66.13130188 C95 66 95 66 94 65 C93.90910655 63.64480133 93.88535606 62.28499361 93.88989258 60.92675781 C93.88931351 60.06205872 93.88873444 59.19735962 93.88813782 58.30645752 C93.89024765 57.36485779 93.89235748 56.42325806 93.89453125 55.453125 C93.88107231 53.47394745 93.86604864 51.49478004 93.84960938 49.515625 C93.82678308 46.38375939 93.81248794 43.25303156 93.82495117 40.12109375 C93.83376604 37.10593381 93.80486411 34.09304959 93.76953125 31.078125 C93.78176224 30.14462219 93.79399323 29.21111938 93.80659485 28.24932861 C93.76975466 23.46614611 93.76975466 23.46614611 91.75375366 19.26501465 C86.20089036 14.27376028 82.38763865 15.79668344 77 20 Z "
        fill="#000000" transform="translate(0,0)" />
</svg>