<svg width="40" height="40" viewBox="0 0 40 40" fill="none" xmlns="http://www.w3.org/2000/svg">
<path d="M0 26.9287H7.77732V28.042H0V26.9287ZM0 24.7932H7.77732V25.9104H0V24.7932ZM2.21872 22.6616H5.55468V23.7789H2.21872V22.6616ZM2.21872 20.5301H5.55468V21.6474H2.21872V20.5301ZM2.21872 18.3986H5.55468V19.5158H2.21872V18.3986ZM2.21872 16.2631H5.55468V17.3804H2.21872V16.2631ZM0 14.1315H7.77732V15.2488H0V14.1315ZM0 12H7.77732V13.1173H0V12ZM8.88668 25.9104H20.8478C21.0516 25.5627 21.2013 25.186 21.2916 24.7932H8.88668V25.9104ZM19.9168 20.5301H11.1094V21.6474H20.8479C20.5943 21.2195 20.2813 20.8431 19.9168 20.5301ZM11.1094 18.3986V19.5158H19.9168C20.2892 19.2028 20.6022 18.8264 20.8479 18.3986H11.1094ZM20.8479 14.1315H8.88668V15.2488H21.2916C21.1886 14.8526 21.038 14.4762 20.8479 14.1315ZM17.1712 12H8.88668V13.1173H20.0277C19.2501 12.3986 18.23 11.9996 17.1712 12ZM11.1094 16.2631H14.4414V17.3804H11.1094V16.2631ZM17.7773 17.3804H21.2638C21.3629 17.0238 21.4144 16.6474 21.4144 16.2631H17.7773V17.3804ZM11.1094 22.6616H14.4414V23.7789H11.1094V22.6616ZM17.7773 22.6616V23.7789H21.4144C21.4144 23.3946 21.3629 23.0182 21.2638 22.6616H17.7773ZM8.88668 28.0341L17.1712 28.046C18.2805 28.046 19.2829 27.6181 20.0317 26.9287H8.88668V28.0341ZM22.2227 26.9287H27.7773V28.042H22.2227V26.9287ZM22.2227 24.7932H27.7773V25.9104H22.2227V24.7932ZM24.4414 22.6616H27.7773V23.7789H24.4414V22.6616ZM24.4414 20.5301H27.7773V21.6474H24.4414V20.5301ZM29.3225 14.1315H22.2227V15.2488H29.7068L29.3225 14.1315ZM28.5856 12H22.2227V13.1173H28.9699L28.5856 12ZM34.4414 26.9287H40V28.042H34.4414V26.9287ZM34.4414 24.7932H40V25.9104H34.4414V24.7932ZM34.4414 22.6616H37.7773V23.7789H34.4414V22.6616ZM34.4414 20.5301H37.7773V21.6474H34.4414V20.5301ZM34.4414 19.5158H37.7773V18.3986H31.4224L31.1094 19.3019L30.7964 18.3986H24.4414V19.5158H27.7773V18.4897L28.13 19.5158H34.0888L34.4414 18.4897V19.5158ZM37.7773 16.2631H32.1593L31.775 17.3804H37.7773V16.2631ZM33.6371 12L33.2528 13.1173H40V12H33.6371ZM31.1094 28.0341L31.4936 26.9287H30.725L31.1094 28.0341ZM30.3724 25.9104H31.8463L32.2425 24.7932H29.9802L30.3724 25.9104ZM29.6236 23.7789H32.5951L32.9873 22.6616H29.2314L29.6236 23.7789ZM28.8788 21.6474H33.3439L33.7242 20.5301H28.4944L28.8788 21.6474ZM24.4414 17.3804H30.4437L30.0594 16.2631H24.4414V17.3804ZM32.5158 15.2488H40V14.1315H32.8962L32.5158 15.2488Z" fill="#1F70C1"/>
</svg>
