<svg xmlns="http://www.w3.org/2000/svg" xml:space="preserve" width="1000" height="401.149"><path fill="#1F70C1" d="M0 373.217h194.433v27.833H0zm0-53.387h194.433v27.931H0zm55.468-53.289h83.399v27.932H55.468zm0-53.288h83.399v27.932H55.468zm0-53.289h83.399v27.932H55.468zm0-53.387h83.399v27.932H55.468zM0 53.288h194.433V81.22H0zM0 0h194.433v27.932H0zm222.167 347.761h299.029a99.2 99.2 0 0 0 11.094-27.932H222.167zM497.92 213.253H277.734v27.932h243.463c-6.34-10.698-14.165-20.107-23.277-27.932m-220.186-53.289v27.932H497.92c9.311-7.825 17.135-17.235 23.277-27.932zM521.197 53.288h-299.03V81.22H532.29c-2.575-9.905-6.339-19.314-11.093-27.932M429.279 0H222.167v27.932h278.526A105.15 105.15 0 0 0 429.279 0M277.734 106.577h83.3v27.932h-83.3zm166.699 27.932h87.163c2.476-8.914 3.764-18.324 3.764-27.932h-90.927zM277.734 266.541h83.3v27.932h-83.3zm166.699 0v27.932h90.927c0-9.608-1.288-19.017-3.764-27.932zM222.167 400.852l207.112.297c27.734 0 52.793-10.697 71.513-27.932H222.167zm333.4-27.635h138.866v27.833H555.567zm0-53.387h138.866v27.931H555.567zm55.467-53.289h83.399v27.932h-83.399zm0-53.288h83.399v27.932h-83.399zM733.063 53.288H555.567V81.22H742.67zM714.639 0H555.567v27.932h168.68zm146.395 373.217H1000v27.833H861.034zm0-53.387H1000v27.931H861.034zm0-53.289h83.399v27.932h-83.399zm0-53.288h83.399v27.932h-83.399zm0-25.357h83.399v-27.932H785.559l-7.825 22.584-7.825-22.584H611.034v27.932h83.399v-25.654l8.816 25.654h148.97l8.815-25.654zm83.399-81.319H803.982l-9.608 27.932h150.059zM840.927 0l-9.608 27.932H1000V0zm-63.193 400.852 9.607-27.635h-19.215zm-18.423-53.091h36.846l9.905-27.931h-56.557zm-18.721-53.288h74.287l9.806-27.932h-93.899zm-18.621-53.288h111.628l9.509-27.932H712.361zM611.034 134.509h150.059l-9.607-27.932H611.034zM812.896 81.22H1000V53.288H822.405z"/></svg>