<svg width="40" height="40" viewBox="0 0 40 40" fill="none" xmlns="http://www.w3.org/2000/svg">
<path d="M33.038 13.2277C37.3418 13.2277 40 16.2656 40 21.0758V34.8732H34.1772V22.3416C34.1772 20.0631 33.1646 18.5441 31.1392 18.5441C29.6203 18.5441 28.2279 19.5568 27.8481 21.3289V34.9998H21.8987V22.4682C21.8987 20.1897 20.8861 18.6707 18.8608 18.6707C17.3418 18.6707 15.9494 19.6834 15.5696 21.4555V35.1264H9.74684V13.6074H15.5696V15.3796C16.5823 14.1137 18.6076 13.1011 20.8861 13.1011C23.4177 13.1011 25.443 14.2403 26.5823 15.7593C27.9747 14.3669 30 13.2277 33.038 13.2277ZM5.82279 34.8732H0V13.6074H5.82279V34.8732Z" fill="#235AE6"/>
<path d="M5.82279 5H0V10.8228H5.82279V5Z" fill="white"/>
</svg>
