<svg xmlns="http://www.w3.org/2000/svg" xml:space="preserve" width="500" height="500"><path d="M26.463.803c3.4 0 5.5 2.4 5.5 6.2v10.9h-4.6v-9.9c0-1.8-.8-3-2.4-3-1.2 0-2.3.8-2.6 2.2v10.8h-4.7v-9.9c0-1.8-.8-3-2.4-3-1.2 0-2.3.8-2.6 2.2v10.8h-4.6v-17h4.6v1.4c.8-1 2.4-1.8 4.2-1.8 2 0 3.6.9 4.5 2.1 1.1-1.1 2.7-2 5.1-2m-21.5 17.1h-4.6v-16.8h4.6Z" style="fill:#235ae6;fill-opacity:1" transform="translate(14.32 159.549)scale(14.58168)"/><path d="M4.963-5.697h-4.6v4.6h4.6Z" style="fill:#000;fill-opacity:1" transform="translate(14.32 159.549)scale(14.58168)"/></svg>