<?xml version="1.0" encoding="UTF-8" standalone="no"?>
<!-- Created with Inkscape (http://www.inkscape.org/) -->

<svg
   width="325.62643"
   height="401.84619"
   viewBox="0 0 86.155325 106.3218"
   version="1.1"
   id="svg1"
   xmlns:inkscape="http://www.inkscape.org/namespaces/inkscape"
   xmlns:sodipodi="http://sodipodi.sourceforge.net/DTD/sodipodi-0.dtd"
   xmlns="http://www.w3.org/2000/svg"
   xmlns:svg="http://www.w3.org/2000/svg">
  <sodipodi:namedview
     id="namedview1"
     pagecolor="#ffffff"
     bordercolor="#000000"
     borderopacity="0.25"
     inkscape:showpageshadow="2"
     inkscape:pageopacity="0.0"
     inkscape:pagecheckerboard="0"
     inkscape:deskcolor="#d1d1d1"
     inkscape:document-units="mm">
    <inkscape:page
       x="0"
       y="0"
       width="86.155327"
       height="106.3218"
       id="page2"
       margin="0"
       bleed="0" />
  </sodipodi:namedview>
  <defs
     id="defs1" />
  <g
     inkscape:label="Layer 1"
     inkscape:groupmode="layer"
     id="layer1"
     transform="translate(-10.647596)">
    <g
       id="g9"
       transform="matrix(4.0843935,0,0,4.0843935,6.684865,-1.9783783)">
      <path
         d="m 16.3896,9.814 c -2.4553,0.569 -4.803,1.507 -6.95587,2.7629 C 5.93783,10.3573 3.03141,7.22539 1.08868,3.42706 0.822126,2.90421 1.03742,2.25834 1.57564,2.01742 L 4.73835,0.577029 C 5.23045,0.351487 5.8148,0.551399 6.06598,1.02811 8.25988,5.23139 11.9967,8.3531 16.3896,9.814 Z"
         fill="#2c2a25"
         id="path6" />
      <path
         d="M 4.73831,26.4221 1.57047,24.9817 C 1.03737,24.7357 0.816955,24.0949 1.0835,23.5721 4.92797,16.0626 12.5554,11.1519 20.9825,10.7623 c 0.5894,-0.0256 1.0815,0.4408 1.0815,1.0252 v 3.4805 c 0,0.5434 -0.4203,0.9893 -0.9636,1.0201 -6.3511,0.3383 -12.0973,4.0392 -15.03959,9.6829 -0.25118,0.4819 -0.83554,0.6766 -1.32763,0.4511 z"
         fill="#2c2a25"
         id="path7" />
    </g>
  </g>
</svg>
