<svg width="40" height="40" viewBox="0 0 40 40" fill="none" xmlns="http://www.w3.org/2000/svg">
<path d="M22.0066 0.27781L21.1838 10.411C20.7926 10.3663 20.3992 10.344 20.0054 10.3443C19.5049 10.3443 19.0157 10.3777 18.5378 10.4555L18.0706 5.54432C18.0678 5.50753 18.0727 5.47056 18.0849 5.43573C18.097 5.4009 18.1162 5.36894 18.1413 5.34185C18.1663 5.31476 18.1967 5.29312 18.2305 5.27828C18.2642 5.26344 18.3007 5.25571 18.3376 5.25557H19.1715L18.7712 0.288903C18.7601 0.13328 18.8823 0 19.027 0H21.751C21.9066 0 22.029 0.13328 22.0066 0.288903V0.27781ZM15.1355 0.777805C15.0909 0.633275 14.9353 0.54437 14.7908 0.599994L12.2335 1.53327C12.0889 1.58889 12.0222 1.75561 12.0889 1.88889L14.1681 6.42212L13.3788 6.71118C13.2341 6.76665 13.1675 6.93321 13.2341 7.06665L15.3578 11.5221C16.1362 11.0932 16.9707 10.7754 17.8372 10.5777L15.1467 0.777805H15.1355ZM8.86458 3.59996L14.7462 11.8888C14.0013 12.3777 13.3231 12.9555 12.7449 13.6221L9.22036 10.1555C9.19473 10.1297 9.17462 10.0989 9.16124 10.0651C9.14787 10.0312 9.1415 9.995 9.14254 9.95862C9.14358 9.92224 9.15199 9.88645 9.16728 9.85342C9.18256 9.82039 9.2044 9.79081 9.23146 9.76647L9.87629 9.23319L6.37398 5.68901C6.26289 5.57791 6.27398 5.4001 6.39617 5.3001L8.47537 3.55575C8.59771 3.45575 8.76443 3.47793 8.85349 3.60012L8.86458 3.59996ZM3.92791 8.39992C3.80557 8.31101 3.62776 8.35554 3.54979 8.48882L2.19356 10.8443C2.11559 10.9777 2.17121 11.1443 2.30449 11.211L6.81867 13.3442L6.39617 14.0666C6.31836 14.1999 6.37398 14.3775 6.51851 14.4331L11.0105 16.4887C11.3293 15.6615 11.7635 14.8834 12.3002 14.1777L3.92791 8.39992ZM0.603416 14.7999C0.625759 14.6442 0.781383 14.5555 0.925913 14.5888L10.7658 17.1555C10.5058 18.0061 10.3637 18.8884 10.3433 19.7776L5.41774 19.3776C5.3809 19.3752 5.34502 19.3648 5.31257 19.3472C5.28011 19.3296 5.25183 19.3052 5.22967 19.2756C5.20751 19.2461 5.19198 19.2121 5.18415 19.176C5.17632 19.1399 5.17638 19.1026 5.18431 19.0665L5.32884 18.2442L0.358887 17.7776C0.203264 17.7665 0.103108 17.622 0.125296 17.4665L0.592479 14.7888L0.603416 14.7999ZM0.236545 21.4442C0.0809212 21.4554 -0.0192341 21.5998 0.00310941 21.7554L0.48123 24.433C0.503417 24.5887 0.65904 24.6776 0.80357 24.6441L5.62899 23.3887L5.77352 24.2109C5.79586 24.3665 5.95149 24.4554 6.09602 24.4219L10.8547 23.111C10.5768 22.2887 10.3989 21.411 10.3544 20.511L0.225451 21.4442H0.236545ZM1.81559 28.4888C1.73778 28.3555 1.79325 28.1888 1.92668 28.1221L11.1107 23.7666C11.4553 24.5888 11.9224 25.3555 12.4783 26.0443L8.45303 28.9108C8.33068 28.9997 8.15287 28.9664 8.0749 28.833L7.65241 28.0997L3.54979 30.933C3.42745 31.022 3.24948 30.9775 3.17167 30.8441L1.80419 28.4886L1.81559 28.4888ZM12.9452 26.5777L5.79586 33.8106C5.68462 33.9217 5.69587 34.0995 5.81805 34.1995L7.90834 35.9439C8.03069 36.0439 8.1974 36.0217 8.28646 35.8995L11.1772 31.8328L11.8221 32.3773C11.9444 32.4773 12.1224 32.4551 12.2111 32.3217L15.0131 28.2552C14.257 27.7885 13.5566 27.2218 12.9561 26.5774L12.9452 26.5777ZM11.5332 38.1885C11.3886 38.1331 11.3219 37.9665 11.3886 37.8331L15.6248 28.5888C16.4029 28.9888 17.2481 29.2888 18.1264 29.4555L16.8811 34.2331C16.8478 34.3776 16.6811 34.4665 16.5365 34.4109L15.7472 34.122L14.4241 38.9331C14.3795 39.0776 14.2239 39.1665 14.0794 39.1109L11.5221 38.1776L11.5332 38.1885ZM18.8268 29.5777L18.0042 39.7109C17.9931 39.8665 18.1153 39.9998 18.26 39.9998H20.984C21.1396 39.9998 21.262 39.8665 21.2396 39.7109L20.8395 34.7442H21.6732C21.7101 34.744 21.7465 34.7363 21.7803 34.7214C21.8141 34.7066 21.8444 34.6849 21.8694 34.6579C21.8945 34.6308 21.9137 34.5988 21.9258 34.564C21.938 34.5292 21.9428 34.4922 21.9401 34.4554L21.4732 29.5442C20.9951 29.6221 20.5059 29.6555 20.0056 29.6555C19.6053 29.6555 19.216 29.6331 18.827 29.5777M28.6336 2.14451C28.7003 2.00014 28.6336 1.84451 28.4891 1.78904L25.9319 0.855773C25.7872 0.800148 25.6316 0.889054 25.5872 1.03343L24.2641 5.84447L23.4746 5.55573C23.3301 5.5001 23.1744 5.58901 23.1299 5.73338L21.8846 10.5111C22.7741 10.689 23.608 10.989 24.3863 11.3779L28.6336 2.14451ZM34.2151 6.17791L27.0657 13.4108C26.4602 12.7598 25.7681 12.1952 25.0086 11.733L27.8106 7.66649C27.8996 7.54414 28.0774 7.51086 28.1997 7.61086L28.8445 8.15539L31.7354 4.08871C31.8245 3.96652 32.0023 3.94418 32.1136 4.04418L34.2037 5.78869C34.3261 5.88869 34.326 6.0665 34.226 6.1776L34.2151 6.17791ZM38.0844 11.8668C38.229 11.8 38.2735 11.6333 38.1955 11.5L36.8277 9.14428C36.7499 9.011 36.572 8.97772 36.4496 9.05554L32.347 11.8888L31.9245 11.1666C31.8465 11.0332 31.6687 10.9888 31.5464 11.0888L27.5214 13.9555C28.0774 14.6442 28.5333 15.4109 28.8891 16.2331L38.073 11.8777L38.0844 11.8668ZM39.5297 15.5556L39.9969 18.2333C40.0191 18.3889 39.919 18.5223 39.7633 18.5443L29.6344 19.4889C29.5898 18.5778 29.4119 17.7111 29.1339 16.8889L33.8928 15.5778C34.0373 15.5333 34.1929 15.6333 34.2151 15.7888L34.3596 16.6111L39.1852 15.3556C39.3297 15.3222 39.4852 15.4111 39.5076 15.5666L39.5297 15.5556ZM39.074 25.3888C39.2185 25.4221 39.3741 25.3332 39.3965 25.1777L39.863 22.4998C39.8854 22.3442 39.7852 22.2109 39.6296 22.1887L34.6596 21.722L34.8042 20.8998C34.8264 20.7442 34.7264 20.6109 34.5706 20.5887L29.6452 20.1887C29.6248 21.078 29.4826 21.9602 29.2227 22.8109L39.0626 25.3776L39.074 25.3888ZM36.4496 31.4997C36.3718 31.633 36.194 31.6664 36.0717 31.5886L27.6994 25.8108C28.2361 25.1051 28.6702 24.3271 28.9891 23.4998L33.4811 25.5554C33.6256 25.6219 33.6811 25.7887 33.6034 25.9219L33.1809 26.6441L37.6949 28.7775C37.8284 28.8441 37.884 29.0108 37.8062 29.1441L36.4496 31.4997ZM25.2533 28.0886L31.135 36.3775C31.224 36.4996 31.4019 36.5218 31.5131 36.4218L33.5922 34.6775C33.7145 34.5775 33.7145 34.3997 33.6145 34.2884L30.1122 30.7441L30.757 30.2108C30.8794 30.1108 30.8794 29.933 30.768 29.8219L27.2435 26.3554C26.6543 27.0219 25.9872 27.6108 25.2422 28.0886H25.2533ZM25.1977 39.3774C25.0532 39.4329 24.8975 39.344 24.853 39.1996L22.1624 29.3997C23.0289 29.2021 23.8634 28.8842 24.6418 28.4553L26.7655 32.9108C26.8321 33.0553 26.7655 33.2219 26.6208 33.2664L25.8314 33.5553L27.9106 38.0885C27.9774 38.2329 27.9106 38.3885 27.7661 38.444L25.2088 39.3774H25.1977Z" fill="white"/>
</svg>
