<svg xmlns="http://www.w3.org/2000/svg" width="256" height="256" preserveAspectRatio="xMidYMid"><path d="m140.844 1.778-5.266 64.853a66 66 0 0 0-7.542-.427c-3.203 0-6.334.214-9.393.712l-2.99-31.432a1.72 1.72 0 0 1 1.709-1.848h5.337l-2.562-31.787C120.066.853 120.848 0 121.774 0h17.434c.996 0 1.779.853 1.636 1.849zm-43.976 3.2c-.285-.925-1.281-1.494-2.206-1.138L78.295 9.813c-.925.356-1.352 1.423-.925 2.276l13.307 29.013-5.052 1.85c-.926.355-1.352 1.421-.926 2.275l13.592 28.515a61 61 0 0 1 15.868-6.044L96.94 4.978zM56.734 23.04l37.643 53.049c-4.768 3.129-9.108 6.827-12.809 11.093L59.011 64.996a1.72 1.72 0 0 1 .071-2.49l4.127-3.413L40.794 36.41c-.711-.711-.64-1.849.142-2.489l13.307-11.164c.783-.64 1.85-.498 2.42.284zM25.139 53.76c-.783-.569-1.921-.284-2.42.569l-8.68 15.075c-.499.854-.143 1.92.71 2.347L43.64 85.404l-2.704 4.623c-.498.853-.142 1.99.783 2.346l28.749 13.156a60.2 60.2 0 0 1 8.254-14.791zM3.862 94.72c.143-.996 1.139-1.564 2.064-1.351l62.976 16.427a62.3 62.3 0 0 0-2.704 16.782l-31.524-2.56a1.642 1.642 0 0 1-1.494-1.991l.925-5.263-31.808-2.986c-.996-.071-1.637-.996-1.495-1.991l2.99-17.138zm-2.348 42.524c-.996.072-1.637.996-1.494 1.992l3.06 17.137c.142.996 1.138 1.565 2.063 1.351l30.883-8.035.925 5.262c.143.996 1.139 1.565 2.064 1.351l30.456-8.39c-1.779-5.263-2.917-10.88-3.202-16.64l-64.826 5.972zM11.62 182.33c-.498-.853-.143-1.92.711-2.347l58.778-27.875c2.206 5.262 5.195 10.169 8.753 14.577L54.1 185.031c-.783.569-1.921.356-2.42-.498l-2.704-4.693-26.257 18.133c-.783.57-1.922.285-2.42-.569l-8.752-15.075zm71.23-12.231L37.094 216.39c-.712.711-.64 1.849.142 2.489l13.378 11.164c.783.64 1.85.498 2.42-.284l18.501-26.027 4.127 3.485c.783.64 1.922.498 2.49-.356l17.933-26.026c-4.839-2.987-9.322-6.614-13.165-10.738zm-9.037 74.31c-.925-.355-1.352-1.421-.925-2.275L100 182.97c4.98 2.56 10.389 4.48 16.01 5.547l-7.97 30.577c-.213.925-1.28 1.494-2.205 1.138l-5.052-1.849-8.468 30.791c-.285.925-1.281 1.494-2.206 1.138l-16.367-5.973zm46.68-55.11-5.265 64.853c-.071.996.711 1.849 1.637 1.849h17.434c.996 0 1.779-.853 1.636-1.849l-2.561-31.787h5.336a1.72 1.72 0 0 0 1.708-1.848l-2.988-31.432c-3.06.498-6.191.712-9.393.712-2.562 0-5.053-.143-7.543-.498m62.763-175.574c.427-.924 0-1.92-.925-2.275l-16.366-5.973c-.926-.356-1.922.213-2.206 1.137l-8.468 30.791-5.053-1.848c-.925-.356-1.921.213-2.206 1.137l-7.97 30.578c5.693 1.138 11.03 3.058 16.011 5.547zm35.722 25.814L173.222 85.83a62 62 0 0 0-13.165-10.738l17.933-26.026c.569-.783 1.707-.996 2.49-.356l4.127 3.485 18.502-26.027c.57-.782 1.708-.925 2.42-.285l13.377 11.165c.783.64.783 1.778.143 2.489zm24.764 36.409c.925-.427 1.21-1.494.711-2.347L235.7 58.524c-.498-.853-1.637-1.066-2.42-.568l-26.257 18.133-2.704-4.622c-.499-.854-1.637-1.138-2.42-.498l-25.76 18.347c3.558 4.408 6.476 9.315 8.753 14.577l58.778-27.875zm9.25 23.609 2.99 17.137c.142.996-.499 1.85-1.495 1.991l-64.826 6.045c-.285-5.831-1.424-11.378-3.203-16.64l30.457-8.391c.925-.285 1.921.355 2.063 1.35l.925 5.263 30.884-8.035c.925-.214 1.92.355 2.063 1.35zm-2.917 62.933c.925.213 1.921-.356 2.064-1.351L255.126 144c.143-.996-.498-1.849-1.494-1.991l-31.808-2.987.925-5.262c.142-.996-.498-1.849-1.495-1.991l-31.523-2.56a62.3 62.3 0 0 1-2.704 16.782l62.976 16.427zM233.28 201.6c-.498.853-1.636 1.067-2.419.569l-53.583-36.978a60.2 60.2 0 0 0 8.254-14.791l28.749 13.156c.925.426 1.28 1.493.783 2.346l-2.704 4.622 28.89 13.654c.854.426 1.21 1.493.712 2.346zm-71.657-21.831 37.643 53.049c.57.782 1.708.924 2.42.284l13.306-11.164c.783-.64.783-1.778.143-2.49l-22.415-22.684 4.127-3.413c.783-.64.783-1.778.07-2.489l-22.557-22.186c-3.771 4.266-8.04 8.035-12.808 11.093zm-.356 72.249c-.925.355-1.921-.214-2.206-1.138l-17.22-62.72a61 61 0 0 0 15.868-6.044l13.592 28.515c.426.925 0 1.991-.926 2.276l-5.052 1.849 13.307 29.013c.427.924 0 1.92-.925 2.275l-16.367 5.974z"/></svg>