<svg version="1.2" xmlns="http://www.w3.org/2000/svg" viewBox="0 0 1271 1512" width="1271" height="1512">
	<title>qualys-svg</title>
	<style>
		.s0 { fill: #ed2e26 } 
		.s1 { fill: #ffffff } 
	</style>
	<path id="Layer" class="s0" d="m634.9 0c413.6 0 621.5 221.1 621.5 221.1 0 0 23.8 163.7 8.6 493.3-22.9 497.9-629.9 796.9-630 797 0 0-607-299.1-629.9-797-15.2-329.6 8.6-493.3 8.6-493.3 0 0 207.7-221.1 621.2-221.1z"/>
	<path id="Layer" class="s1" d="m556 997.1c100.4 52.7 250.3 91.2 408.6 111.6-26.3 39.2-96.6 106.2-137.7 128.9-189.5-31.1-356-96.7-469.9-195-121.7-105.2-186.1-242.4-186.1-396.9-0.4-123.3 48.3-241.6 135.4-329 87.1-87.3 205.4-136.4 328.7-136.4 123.4 0 241.7 49.1 328.8 136.4 87 87.4 135.7 205.7 135.3 329 0 34.2-3.9 68.2-11.6 101.5-7.8 33.3-19.3 65.6-34.4 96.2-15.1 30.7-33.6 59.5-55.3 85.9-21.6 26.5-46.2 50.4-73.3 71.2-74.2-6.8-151.8-27.8-187-47.9 90.6-57.8 208.2-170.2 208.2-306.9 0-40.8-8.1-81.1-23.7-118.8-15.7-37.6-38.6-71.8-67.4-100.6-28.8-28.9-63.1-51.7-100.7-67.4-37.7-15.6-78.1-23.6-118.9-23.7-171.1 0-310.4 143.2-310.4 319.3 0 146.8 77.9 262.1 231.4 342.6z"/>
</svg>