<?xml version="1.0" encoding="UTF-8"?>
<svg xmlns="http://www.w3.org/2000/svg" xmlns:xlink="http://www.w3.org/1999/xlink" width="64px" height="64px" viewBox="0 0 64 64" version="1.1">
<g id="surface1">
<path style=" stroke:none;fill-rule:nonzero;fill:rgb(39.215687%,29.803923%,91.37255%);fill-opacity:1;" d="M 23.390625 0.484375 C 23.507812 0.480469 23.507812 0.480469 23.625 0.480469 C 23.714844 0.480469 23.800781 0.480469 23.886719 0.480469 C 23.976562 0.480469 24.070312 0.480469 24.160156 0.480469 C 24.410156 0.476562 24.65625 0.476562 24.902344 0.476562 C 25.058594 0.476562 25.214844 0.476562 25.371094 0.476562 C 25.910156 0.472656 26.453125 0.472656 26.996094 0.472656 C 27.5 0.472656 28.003906 0.472656 28.507812 0.46875 C 28.941406 0.464844 29.375 0.464844 29.808594 0.464844 C 30.066406 0.464844 30.324219 0.464844 30.582031 0.464844 C 30.824219 0.460938 31.070312 0.460938 31.3125 0.460938 C 31.402344 0.460938 31.492188 0.460938 31.578125 0.460938 C 32.191406 0.453125 32.679688 0.519531 33.144531 0.941406 C 33.171875 0.984375 33.203125 1.027344 33.234375 1.070312 C 33.269531 1.121094 33.304688 1.167969 33.339844 1.21875 C 33.507812 1.484375 33.664062 1.757812 33.816406 2.035156 C 33.886719 2.164062 33.957031 2.292969 34.03125 2.417969 C 34.085938 2.515625 34.085938 2.515625 34.140625 2.617188 C 34.316406 2.929688 34.496094 3.242188 34.679688 3.550781 C 34.984375 4.070312 35.289062 4.59375 35.589844 5.117188 C 35.628906 5.183594 35.667969 5.25 35.707031 5.320312 C 35.824219 5.523438 35.945312 5.730469 36.0625 5.9375 C 36.214844 6.199219 36.363281 6.460938 36.515625 6.722656 C 36.578125 6.828125 36.636719 6.933594 36.699219 7.039062 C 36.734375 7.105469 36.773438 7.167969 36.808594 7.234375 C 36.859375 7.316406 36.859375 7.316406 36.90625 7.402344 C 36.972656 7.515625 37.039062 7.625 37.105469 7.730469 C 37.1875 7.875 37.1875 7.875 37.1875 8 C 37.222656 8 37.257812 8 37.292969 8 C 39.390625 7.992188 41.484375 7.988281 43.582031 7.984375 C 43.832031 7.984375 44.085938 7.984375 44.335938 7.984375 C 44.386719 7.984375 44.4375 7.984375 44.488281 7.984375 C 45.300781 7.980469 46.109375 7.980469 46.921875 7.976562 C 47.753906 7.972656 48.585938 7.972656 49.417969 7.96875 C 49.929688 7.96875 50.445312 7.96875 50.957031 7.964844 C 51.3125 7.964844 51.664062 7.964844 52.015625 7.964844 C 52.21875 7.964844 52.421875 7.964844 52.625 7.960938 C 52.84375 7.960938 53.066406 7.960938 53.285156 7.960938 C 53.351562 7.960938 53.414062 7.960938 53.480469 7.960938 C 53.960938 7.964844 54.371094 8.085938 54.738281 8.410156 C 55.03125 8.722656 55.21875 9.121094 55.421875 9.492188 C 55.5 9.632812 55.578125 9.773438 55.65625 9.914062 C 55.710938 10.019531 55.710938 10.019531 55.769531 10.121094 C 55.902344 10.363281 56.042969 10.601562 56.183594 10.839844 C 56.441406 11.277344 56.695312 11.714844 56.949219 12.152344 C 56.988281 12.222656 57.027344 12.289062 57.070312 12.363281 C 57.152344 12.503906 57.234375 12.644531 57.316406 12.789062 C 57.472656 13.0625 57.632812 13.335938 57.789062 13.609375 C 57.867188 13.746094 57.945312 13.878906 58.023438 14.011719 C 58.203125 14.328125 58.386719 14.644531 58.570312 14.957031 C 58.636719 15.070312 58.699219 15.179688 58.765625 15.292969 C 58.847656 15.433594 58.929688 15.570312 59.011719 15.710938 C 59.335938 16.269531 59.632812 16.789062 59.464844 17.449219 C 59.308594 17.890625 59.054688 18.285156 58.8125 18.683594 C 58.597656 19.046875 58.386719 19.410156 58.175781 19.777344 C 58.09375 19.917969 58.015625 20.058594 57.933594 20.199219 C 57.871094 20.304688 57.871094 20.304688 57.808594 20.414062 C 57.574219 20.820312 57.339844 21.230469 57.101562 21.636719 C 56.921875 21.953125 56.738281 22.269531 56.558594 22.582031 C 56.496094 22.695312 56.429688 22.804688 56.367188 22.917969 C 56.285156 23.058594 56.207031 23.195312 56.125 23.335938 C 56.089844 23.398438 56.050781 23.460938 56.015625 23.527344 C 55.980469 23.585938 55.945312 23.648438 55.910156 23.710938 C 55.800781 23.898438 55.675781 24.078125 55.546875 24.253906 C 55.476562 24.4375 55.515625 24.5625 55.5625 24.75 C 55.632812 24.90625 55.632812 24.90625 55.726562 25.058594 C 55.761719 25.117188 55.796875 25.171875 55.832031 25.234375 C 55.867188 25.296875 55.90625 25.359375 55.945312 25.421875 C 56.027344 25.558594 56.105469 25.691406 56.1875 25.828125 C 56.226562 25.898438 56.269531 25.96875 56.3125 26.039062 C 56.511719 26.375 56.707031 26.714844 56.902344 27.054688 C 56.980469 27.191406 57.058594 27.328125 57.136719 27.464844 C 57.175781 27.53125 57.214844 27.601562 57.257812 27.667969 C 57.453125 28.007812 57.648438 28.347656 57.84375 28.6875 C 57.921875 28.824219 58 28.957031 58.078125 29.09375 C 58.136719 29.195312 58.136719 29.195312 58.195312 29.296875 C 59.25 31.125 60.304688 32.953125 61.359375 34.78125 C 61.398438 34.847656 61.4375 34.914062 61.476562 34.984375 C 61.554688 35.121094 61.632812 35.253906 61.710938 35.390625 C 61.90625 35.730469 62.105469 36.074219 62.304688 36.417969 C 62.5 36.753906 62.691406 37.09375 62.886719 37.429688 C 62.960938 37.558594 63.039062 37.691406 63.113281 37.820312 C 63.21875 38.003906 63.324219 38.1875 63.429688 38.371094 C 63.460938 38.425781 63.492188 38.480469 63.527344 38.535156 C 63.554688 38.585938 63.582031 38.636719 63.613281 38.6875 C 63.636719 38.734375 63.664062 38.777344 63.6875 38.820312 C 63.800781 39.03125 63.824219 39.210938 63.832031 39.445312 C 63.835938 39.527344 63.835938 39.527344 63.839844 39.613281 C 63.769531 40.128906 63.449219 40.59375 63.195312 41.035156 C 63.140625 41.128906 63.140625 41.128906 63.085938 41.222656 C 62.800781 41.726562 62.507812 42.230469 62.214844 42.730469 C 61.933594 43.214844 61.652344 43.699219 61.375 44.1875 C 60.992188 44.859375 60.605469 45.53125 60.210938 46.199219 C 60.066406 46.449219 59.921875 46.699219 59.78125 46.949219 C 59.710938 47.074219 59.636719 47.195312 59.566406 47.320312 C 59.535156 47.378906 59.503906 47.433594 59.46875 47.492188 C 59.191406 47.976562 58.867188 48.339844 58.3125 48.5 C 58.046875 48.527344 57.785156 48.527344 57.515625 48.527344 C 57.4375 48.527344 57.359375 48.527344 57.277344 48.527344 C 57.058594 48.53125 56.84375 48.53125 56.628906 48.53125 C 56.402344 48.53125 56.175781 48.535156 55.949219 48.535156 C 55.519531 48.539062 55.089844 48.539062 54.664062 48.542969 C 54.175781 48.542969 53.6875 48.546875 53.199219 48.546875 C 52.195312 48.554688 51.191406 48.558594 50.1875 48.5625 C 50.152344 48.625 50.152344 48.625 50.117188 48.6875 C 50.011719 48.878906 49.902344 49.066406 49.796875 49.253906 C 49.757812 49.320312 49.722656 49.386719 49.683594 49.453125 C 49.441406 49.882812 49.199219 50.308594 48.949219 50.730469 C 48.628906 51.277344 48.3125 51.824219 48 52.375 C 47.652344 52.984375 47.304688 53.589844 46.949219 54.191406 C 46.566406 54.847656 46.1875 55.507812 45.804688 56.167969 C 45.609375 56.507812 45.414062 56.847656 45.21875 57.1875 C 45.140625 57.324219 45.0625 57.457031 44.984375 57.59375 C 44.515625 58.40625 44.046875 59.21875 43.578125 60.03125 C 43.539062 60.097656 43.5 60.164062 43.460938 60.234375 C 43.382812 60.371094 43.304688 60.503906 43.226562 60.636719 C 43.046875 60.953125 42.863281 61.265625 42.6875 61.585938 C 42.625 61.695312 42.5625 61.808594 42.5 61.921875 C 42.421875 62.058594 42.34375 62.199219 42.265625 62.339844 C 41.988281 62.835938 41.683594 63.234375 41.148438 63.460938 C 40.808594 63.550781 40.453125 63.527344 40.105469 63.527344 C 40.015625 63.527344 39.921875 63.527344 39.832031 63.527344 C 39.585938 63.527344 39.339844 63.53125 39.097656 63.53125 C 38.890625 63.527344 38.683594 63.53125 38.480469 63.53125 C 37.992188 63.53125 37.507812 63.53125 37.023438 63.53125 C 36.523438 63.53125 36.023438 63.53125 35.523438 63.535156 C 35.09375 63.535156 34.664062 63.539062 34.234375 63.535156 C 33.976562 63.535156 33.722656 63.539062 33.464844 63.539062 C 33.222656 63.539062 32.980469 63.539062 32.742188 63.539062 C 32.652344 63.539062 32.566406 63.539062 32.476562 63.539062 C 31.878906 63.546875 31.390625 63.484375 30.9375 63.074219 C 30.625 62.75 30.425781 62.359375 30.214844 61.96875 C 30.136719 61.828125 30.0625 61.6875 29.984375 61.546875 C 29.945312 61.476562 29.90625 61.40625 29.867188 61.335938 C 29.6875 61.011719 29.503906 60.695312 29.316406 60.378906 C 29.242188 60.253906 29.171875 60.128906 29.097656 60.003906 C 29.0625 59.941406 29.023438 59.882812 28.988281 59.816406 C 28.792969 59.484375 28.601562 59.152344 28.410156 58.820312 C 28.371094 58.753906 28.332031 58.6875 28.292969 58.617188 C 28.175781 58.414062 28.054688 58.207031 27.9375 58 C 27.785156 57.738281 27.636719 57.476562 27.484375 57.214844 C 27.421875 57.109375 27.363281 57.003906 27.300781 56.898438 C 27.265625 56.832031 27.226562 56.769531 27.191406 56.703125 C 27.15625 56.648438 27.125 56.589844 27.09375 56.535156 C 27.0625 56.480469 27.03125 56.429688 27 56.375 C 26.980469 56.320312 26.960938 56.265625 26.941406 56.210938 C 26.832031 56.054688 26.832031 56.054688 26.6875 56.035156 C 26.507812 56.023438 26.335938 56.023438 26.15625 56.023438 C 26.054688 56.023438 26.054688 56.023438 25.953125 56.023438 C 25.722656 56.023438 25.492188 56.023438 25.261719 56.023438 C 25.097656 56.023438 24.933594 56.023438 24.769531 56.023438 C 24.417969 56.023438 24.0625 56.023438 23.707031 56.027344 C 23.195312 56.027344 22.683594 56.027344 22.171875 56.027344 C 21.335938 56.023438 20.503906 56.023438 19.671875 56.027344 C 19.621094 56.027344 19.574219 56.027344 19.523438 56.027344 C 19.320312 56.027344 19.117188 56.027344 18.917969 56.027344 C 18.359375 56.027344 17.804688 56.027344 17.25 56.027344 C 17.175781 56.027344 17.175781 56.027344 17.101562 56.027344 C 16.273438 56.027344 15.441406 56.027344 14.613281 56.027344 C 14.101562 56.027344 13.59375 56.027344 13.082031 56.027344 C 12.730469 56.03125 12.378906 56.03125 12.03125 56.03125 C 11.828125 56.027344 11.625 56.03125 11.421875 56.03125 C 11.203125 56.03125 10.984375 56.03125 10.765625 56.03125 C 10.703125 56.03125 10.636719 56.03125 10.574219 56.03125 C 10.101562 56.027344 9.71875 55.929688 9.347656 55.625 C 9.058594 55.28125 8.832031 54.925781 8.617188 54.527344 C 8.546875 54.398438 8.476562 54.269531 8.40625 54.144531 C 8.371094 54.078125 8.332031 54.011719 8.296875 53.945312 C 8.121094 53.632812 7.941406 53.320312 7.757812 53.011719 C 7.332031 52.285156 6.914062 51.558594 6.492188 50.832031 C 6.335938 50.554688 6.175781 50.28125 6.015625 50.003906 C 5.898438 49.804688 5.785156 49.601562 5.667969 49.398438 C 5.515625 49.132812 5.359375 48.867188 5.203125 48.601562 C 5.128906 48.476562 5.054688 48.347656 4.980469 48.222656 C 4.945312 48.167969 4.914062 48.109375 4.878906 48.050781 C 4.605469 47.582031 4.417969 47.109375 4.558594 46.566406 C 4.695312 46.1875 4.902344 45.84375 5.109375 45.5 C 5.171875 45.390625 5.234375 45.285156 5.300781 45.175781 C 5.363281 45.066406 5.429688 44.953125 5.496094 44.84375 C 5.699219 44.503906 5.894531 44.15625 6.09375 43.8125 C 6.171875 43.675781 6.25 43.542969 6.328125 43.40625 C 6.367188 43.339844 6.40625 43.273438 6.445312 43.203125 C 6.796875 42.59375 6.796875 42.59375 6.914062 42.390625 C 6.992188 42.257812 7.070312 42.121094 7.148438 41.988281 C 7.328125 41.671875 7.511719 41.351562 7.695312 41.035156 C 7.785156 40.886719 7.871094 40.738281 7.957031 40.589844 C 8.019531 40.484375 8.078125 40.378906 8.140625 40.273438 C 8.179688 40.207031 8.214844 40.144531 8.253906 40.078125 C 8.285156 40.023438 8.320312 39.964844 8.351562 39.910156 C 8.394531 39.832031 8.394531 39.832031 8.4375 39.75 C 8.464844 39.699219 8.492188 39.648438 8.523438 39.597656 C 8.582031 39.367188 8.503906 39.277344 8.386719 39.078125 C 8.347656 39.007812 8.304688 38.9375 8.261719 38.863281 C 8.214844 38.789062 8.171875 38.710938 8.125 38.636719 C 8.078125 38.558594 8.03125 38.480469 7.984375 38.398438 C 7.890625 38.238281 7.796875 38.078125 7.699219 37.917969 C 7.542969 37.652344 7.386719 37.386719 7.230469 37.117188 C 7.160156 36.996094 7.089844 36.875 7.019531 36.753906 C 6.738281 36.277344 6.460938 35.792969 6.1875 35.3125 C 5.839844 34.703125 5.492188 34.097656 5.136719 33.496094 C 4.753906 32.839844 4.375 32.179688 3.992188 31.519531 C 3.796875 31.179688 3.601562 30.839844 3.40625 30.5 C 3.328125 30.363281 3.25 30.230469 3.171875 30.09375 C 3.132812 30.027344 3.09375 29.960938 3.054688 29.890625 C 2.9375 29.6875 2.820312 29.484375 2.703125 29.28125 C 2.664062 29.214844 2.625 29.148438 2.585938 29.078125 C 2.507812 28.941406 2.429688 28.808594 2.351562 28.671875 C 2.15625 28.332031 1.957031 27.988281 1.757812 27.644531 C 1.5625 27.308594 1.367188 26.96875 1.175781 26.632812 C 1.101562 26.503906 1.023438 26.375 0.949219 26.242188 C 0.847656 26.0625 0.742188 25.878906 0.636719 25.699219 C 0.589844 25.617188 0.589844 25.617188 0.542969 25.535156 C 0.28125 25.082031 0.0976562 24.722656 0.1875 24.1875 C 0.300781 23.878906 0.460938 23.597656 0.625 23.3125 C 0.65625 23.261719 0.683594 23.207031 0.714844 23.15625 C 0.894531 22.84375 1.074219 22.535156 1.257812 22.226562 C 1.507812 21.796875 1.753906 21.367188 2 20.9375 C 2.347656 20.332031 2.695312 19.726562 3.046875 19.121094 C 3.28125 18.726562 3.511719 18.328125 3.742188 17.925781 C 3.859375 17.71875 3.980469 17.515625 4.097656 17.308594 C 4.226562 17.085938 4.355469 16.863281 4.480469 16.640625 C 4.785156 16.097656 5.078125 15.710938 5.6875 15.5 C 5.851562 15.488281 5.851562 15.488281 6.03125 15.488281 C 6.097656 15.492188 6.164062 15.492188 6.234375 15.492188 C 6.347656 15.496094 6.347656 15.496094 6.457031 15.496094 C 6.621094 15.5 6.785156 15.5 6.945312 15.503906 C 7.03125 15.503906 7.121094 15.507812 7.207031 15.507812 C 7.476562 15.511719 7.746094 15.515625 8.015625 15.515625 C 8.082031 15.515625 8.082031 15.515625 8.152344 15.515625 C 8.292969 15.515625 8.433594 15.519531 8.574219 15.519531 C 9.152344 15.523438 9.730469 15.527344 10.3125 15.539062 C 10.734375 15.546875 11.15625 15.550781 11.582031 15.550781 C 11.804688 15.550781 12.027344 15.550781 12.25 15.558594 C 13.144531 15.625 13.144531 15.625 13.945312 15.335938 C 14.160156 15.085938 14.285156 14.8125 14.390625 14.503906 C 14.460938 14.3125 14.5625 14.148438 14.671875 13.972656 C 14.742188 13.847656 14.816406 13.722656 14.886719 13.597656 C 14.925781 13.527344 14.964844 13.460938 15.007812 13.390625 C 15.128906 13.175781 15.253906 12.964844 15.375 12.75 C 15.867188 11.894531 16.359375 11.042969 16.859375 10.191406 C 17.242188 9.53125 17.625 8.867188 18.007812 8.207031 C 18.203125 7.867188 18.398438 7.527344 18.59375 7.1875 C 18.671875 7.050781 18.75 6.917969 18.828125 6.78125 C 19.296875 5.96875 19.765625 5.15625 20.234375 4.34375 C 20.273438 4.277344 20.3125 4.210938 20.351562 4.140625 C 20.429688 4.003906 20.507812 3.871094 20.585938 3.738281 C 20.765625 3.421875 20.945312 3.109375 21.125 2.792969 C 21.1875 2.683594 21.253906 2.574219 21.316406 2.464844 C 21.394531 2.324219 21.472656 2.1875 21.550781 2.050781 C 22.445312 0.488281 22.445312 0.488281 23.390625 0.484375 Z M 23.390625 0.484375 "/>
<path style=" stroke:none;fill-rule:nonzero;fill:rgb(97.647059%,97.647059%,99.607843%);fill-opacity:1;" d="M 23.3125 2.0625 C 23.355469 2.0625 23.394531 2.0625 23.4375 2.0625 C 23.453125 2.09375 23.46875 2.121094 23.488281 2.152344 C 23.902344 2.917969 24.332031 3.671875 24.769531 4.421875 C 25.003906 4.820312 25.234375 5.21875 25.464844 5.617188 C 25.523438 5.71875 25.523438 5.71875 25.582031 5.820312 C 25.78125 6.164062 25.980469 6.507812 26.175781 6.851562 C 26.214844 6.921875 26.253906 6.988281 26.296875 7.058594 C 26.375 7.195312 26.453125 7.332031 26.53125 7.46875 C 26.722656 7.800781 26.917969 8.132812 27.117188 8.460938 C 27.15625 8.523438 27.191406 8.585938 27.234375 8.652344 C 27.304688 8.773438 27.378906 8.890625 27.453125 9.007812 C 27.484375 9.0625 27.515625 9.113281 27.546875 9.167969 C 27.578125 9.214844 27.605469 9.261719 27.636719 9.308594 C 27.699219 9.46875 27.6875 9.527344 27.625 9.6875 C 27.570312 9.796875 27.511719 9.90625 27.449219 10.015625 C 27.394531 10.113281 27.394531 10.113281 27.339844 10.210938 C 27.28125 10.3125 27.28125 10.3125 27.222656 10.417969 C 27.183594 10.488281 27.144531 10.558594 27.101562 10.632812 C 26.859375 11.058594 26.617188 11.480469 26.367188 11.902344 C 26.132812 12.296875 25.90625 12.691406 25.675781 13.089844 C 25.636719 13.160156 25.597656 13.226562 25.554688 13.300781 C 25.351562 13.652344 25.148438 14.003906 24.949219 14.355469 C 24.90625 14.421875 24.867188 14.492188 24.828125 14.5625 C 24.753906 14.691406 24.679688 14.820312 24.605469 14.945312 C 24.222656 15.613281 23.828125 16.273438 23.4375 16.9375 C 34.824219 16.957031 46.207031 16.980469 57.9375 17 C 57.847656 17.226562 57.757812 17.421875 57.640625 17.632812 C 57.585938 17.726562 57.585938 17.726562 57.535156 17.820312 C 57.496094 17.886719 57.460938 17.953125 57.421875 18.019531 C 57.382812 18.089844 57.34375 18.15625 57.304688 18.230469 C 56.96875 18.820312 56.628906 19.410156 56.285156 19.996094 C 56.054688 20.386719 55.824219 20.785156 55.597656 21.179688 C 55.558594 21.246094 55.519531 21.3125 55.480469 21.382812 C 55.402344 21.519531 55.324219 21.65625 55.246094 21.792969 C 55.121094 22.003906 55 22.21875 54.875 22.433594 C 54.832031 22.503906 54.792969 22.574219 54.75 22.648438 C 54.671875 22.785156 54.59375 22.917969 54.515625 23.054688 C 54.320312 23.398438 54.121094 23.742188 53.921875 24.085938 C 53.902344 24.125 53.878906 24.167969 53.855469 24.207031 C 53.796875 24.304688 53.742188 24.402344 53.6875 24.5 C 50.472656 24.515625 47.257812 24.53125 44.039062 24.539062 C 43.992188 24.539062 43.945312 24.539062 43.894531 24.539062 C 42.863281 24.542969 41.828125 24.546875 40.792969 24.546875 C 40.285156 24.550781 39.78125 24.550781 39.273438 24.550781 C 39.195312 24.550781 39.195312 24.550781 39.121094 24.550781 C 37.484375 24.554688 35.847656 24.5625 34.210938 24.570312 C 32.53125 24.582031 30.847656 24.585938 29.167969 24.589844 C 28.929688 24.589844 28.691406 24.589844 28.457031 24.589844 C 28.386719 24.589844 28.386719 24.589844 28.3125 24.589844 C 27.5625 24.589844 26.808594 24.59375 26.054688 24.601562 C 25.300781 24.605469 24.542969 24.609375 23.789062 24.605469 C 23.378906 24.605469 22.96875 24.605469 22.558594 24.613281 C 22.183594 24.617188 21.808594 24.617188 21.433594 24.613281 C 21.296875 24.613281 21.160156 24.613281 21.027344 24.617188 C 20.035156 24.636719 20.035156 24.636719 19.765625 24.410156 C 19.582031 24.1875 19.464844 23.945312 19.359375 23.675781 C 19.292969 23.511719 19.203125 23.359375 19.113281 23.203125 C 19.085938 23.152344 19.054688 23.097656 19.027344 23.039062 C 18.867188 22.742188 18.699219 22.449219 18.535156 22.15625 C 18.5 22.097656 18.46875 22.035156 18.433594 21.976562 C 18.230469 21.613281 18.015625 21.257812 17.785156 20.90625 C 17.652344 20.695312 17.535156 20.472656 17.414062 20.253906 C 17.09375 19.660156 16.757812 19.074219 16.421875 18.492188 C 16.394531 18.445312 16.367188 18.394531 16.335938 18.34375 C 16.171875 18.0625 16.007812 17.785156 15.839844 17.503906 C 15.804688 17.441406 15.765625 17.382812 15.726562 17.316406 C 15.65625 17.195312 15.582031 17.074219 15.507812 16.957031 C 15.476562 16.902344 15.445312 16.847656 15.410156 16.789062 C 15.378906 16.742188 15.351562 16.691406 15.320312 16.644531 C 15.242188 16.488281 15.203125 16.359375 15.1875 16.1875 C 15.265625 16.015625 15.34375 15.863281 15.441406 15.699219 C 15.46875 15.652344 15.496094 15.601562 15.527344 15.550781 C 15.621094 15.386719 15.714844 15.226562 15.8125 15.0625 C 15.878906 14.945312 15.949219 14.828125 16.015625 14.710938 C 16.164062 14.460938 16.308594 14.210938 16.457031 13.957031 C 17.019531 12.996094 17.574219 12.03125 18.125 11.0625 C 18.78125 9.914062 19.441406 8.769531 20.109375 7.628906 C 20.492188 6.96875 20.875 6.304688 21.257812 5.644531 C 21.453125 5.304688 21.648438 4.964844 21.84375 4.625 C 21.902344 4.527344 21.902344 4.527344 21.960938 4.425781 C 22.144531 4.105469 22.328125 3.789062 22.511719 3.46875 C 22.597656 3.316406 22.683594 3.167969 22.773438 3.015625 C 22.835938 2.910156 22.898438 2.800781 22.957031 2.695312 C 22.996094 2.628906 23.035156 2.566406 23.070312 2.5 C 23.105469 2.441406 23.136719 2.382812 23.171875 2.324219 C 23.222656 2.238281 23.269531 2.152344 23.3125 2.0625 Z M 23.3125 2.0625 "/>
<path style=" stroke:none;fill-rule:nonzero;fill:rgb(97.647059%,97.647059%,99.607843%);fill-opacity:1;" d="M 6.0625 17 C 8.929688 17 11.796875 17 14.75 17 C 15.039062 17.515625 15.328125 18.03125 15.625 18.5625 C 15.949219 19.121094 15.949219 19.121094 16.277344 19.683594 C 16.507812 20.074219 16.738281 20.472656 16.964844 20.867188 C 17.003906 20.933594 17.042969 21.003906 17.082031 21.070312 C 17.160156 21.207031 17.242188 21.34375 17.320312 21.480469 C 17.515625 21.820312 17.710938 22.160156 17.90625 22.5 C 18.140625 22.90625 18.375 23.316406 18.613281 23.722656 C 18.988281 24.375 19.367188 25.027344 19.746094 25.679688 C 20.105469 26.292969 20.457031 26.910156 20.808594 27.527344 C 21.207031 28.222656 21.609375 28.917969 22.007812 29.613281 C 22.203125 29.949219 22.398438 30.285156 22.59375 30.625 C 22.632812 30.691406 22.671875 30.757812 22.710938 30.828125 C 22.90625 31.167969 23.101562 31.507812 23.300781 31.847656 C 23.675781 32.5 24.054688 33.152344 24.433594 33.804688 C 24.773438 34.382812 25.105469 34.964844 25.4375 35.550781 C 25.765625 36.121094 26.09375 36.6875 26.425781 37.253906 C 26.808594 37.910156 27.1875 38.570312 27.570312 39.230469 C 27.765625 39.570312 27.960938 39.910156 28.15625 40.25 C 28.234375 40.386719 28.3125 40.519531 28.390625 40.65625 C 28.429688 40.722656 28.46875 40.789062 28.507812 40.859375 C 29.796875 43.09375 29.796875 43.09375 29.914062 43.296875 C 29.992188 43.429688 30.070312 43.566406 30.148438 43.699219 C 30.332031 44.019531 30.511719 44.335938 30.695312 44.652344 C 30.785156 44.804688 30.871094 44.957031 30.957031 45.105469 C 31.019531 45.210938 31.078125 45.320312 31.140625 45.425781 C 31.195312 45.523438 31.195312 45.523438 31.253906 45.621094 C 31.285156 45.675781 31.320312 45.734375 31.351562 45.792969 C 31.417969 45.90625 31.488281 46.015625 31.5625 46.125 C 31.550781 46.441406 31.363281 46.695312 31.207031 46.957031 C 31.175781 47.007812 31.144531 47.058594 31.113281 47.113281 C 31.050781 47.226562 30.984375 47.335938 30.917969 47.449219 C 30.734375 47.753906 30.558594 48.058594 30.378906 48.367188 C 30.34375 48.429688 30.304688 48.492188 30.265625 48.558594 C 30 49.019531 29.734375 49.480469 29.46875 49.941406 C 29.203125 50.414062 28.929688 50.878906 28.65625 51.347656 C 28.453125 51.695312 28.25 52.042969 28.050781 52.394531 C 28.03125 52.429688 28.007812 52.46875 27.984375 52.511719 C 27.878906 52.695312 27.773438 52.882812 27.667969 53.070312 C 27.589844 53.203125 27.511719 53.335938 27.433594 53.46875 C 27.308594 53.679688 27.308594 53.679688 27.234375 53.902344 C 27.128906 54.152344 27.035156 54.34375 26.8125 54.5 C 26.316406 54.660156 25.757812 54.601562 25.246094 54.59375 C 25.085938 54.59375 24.921875 54.59375 24.761719 54.59375 C 24.414062 54.59375 24.0625 54.589844 23.714844 54.585938 C 23.210938 54.578125 22.707031 54.578125 22.203125 54.574219 C 21.386719 54.574219 20.570312 54.570312 19.75 54.5625 C 18.957031 54.554688 18.164062 54.546875 17.371094 54.542969 C 17.320312 54.542969 17.273438 54.542969 17.222656 54.542969 C 16.976562 54.542969 16.730469 54.542969 16.484375 54.539062 C 14.449219 54.53125 12.410156 54.519531 10.375 54.5 C 10.453125 54.351562 10.53125 54.203125 10.613281 54.054688 C 10.632812 54.011719 10.65625 53.96875 10.679688 53.925781 C 10.871094 53.566406 11.074219 53.210938 11.285156 52.855469 C 11.363281 52.726562 11.4375 52.59375 11.515625 52.464844 C 11.554688 52.398438 11.59375 52.332031 11.632812 52.265625 C 11.828125 51.929688 12.019531 51.59375 12.214844 51.257812 C 12.253906 51.191406 12.292969 51.125 12.332031 51.054688 C 12.449219 50.847656 12.570312 50.644531 12.6875 50.4375 C 13.160156 49.617188 13.632812 48.796875 14.109375 47.980469 C 14.144531 47.917969 14.183594 47.855469 14.21875 47.789062 C 14.410156 47.464844 14.410156 47.464844 14.5 47.3125 C 14.527344 47.257812 14.550781 47.203125 14.578125 47.148438 C 14.6875 47 14.6875 47 14.847656 46.960938 C 14.910156 46.960938 14.972656 46.960938 15.039062 46.960938 C 15.113281 46.960938 15.1875 46.960938 15.261719 46.960938 C 15.34375 46.960938 15.421875 46.964844 15.507812 46.964844 C 15.59375 46.964844 15.675781 46.964844 15.761719 46.964844 C 15.996094 46.964844 16.226562 46.964844 16.460938 46.96875 C 16.703125 46.96875 16.945312 46.96875 17.191406 46.972656 C 17.648438 46.972656 18.109375 46.972656 18.570312 46.976562 C 19.09375 46.980469 19.617188 46.984375 20.140625 46.984375 C 21.21875 46.988281 22.296875 46.992188 23.375 47 C 23.339844 46.945312 23.308594 46.890625 23.273438 46.835938 C 23.230469 46.765625 23.183594 46.691406 23.140625 46.617188 C 23.105469 46.566406 23.105469 46.566406 23.074219 46.511719 C 22.839844 46.132812 22.621094 45.75 22.402344 45.363281 C 22.316406 45.207031 22.226562 45.054688 22.136719 44.898438 C 22.117188 44.863281 22.09375 44.824219 22.070312 44.78125 C 21.851562 44.394531 21.625 44.003906 21.402344 43.617188 C 21.363281 43.550781 21.324219 43.484375 21.285156 43.414062 C 21.207031 43.28125 21.132812 43.148438 21.054688 43.011719 C 20.859375 42.675781 20.664062 42.339844 20.46875 42 C 20.390625 41.863281 20.3125 41.730469 20.234375 41.59375 C 18.828125 39.15625 18.828125 39.15625 18.710938 38.953125 C 18.632812 38.816406 18.554688 38.683594 18.476562 38.546875 C 18.28125 38.207031 18.085938 37.867188 17.886719 37.527344 C 17.511719 36.875 17.132812 36.222656 16.753906 35.570312 C 16.414062 34.992188 16.082031 34.410156 15.75 33.824219 C 15.421875 33.253906 15.09375 32.6875 14.761719 32.121094 C 14.378906 31.464844 14 30.804688 13.617188 30.144531 C 13.421875 29.804688 13.226562 29.464844 13.03125 29.125 C 12.953125 28.988281 12.875 28.855469 12.796875 28.71875 C 12.757812 28.652344 12.71875 28.585938 12.679688 28.515625 C 8.578125 21.40625 8.578125 21.40625 8.460938 21.203125 C 8.382812 21.066406 8.304688 20.933594 8.226562 20.796875 C 8.03125 20.457031 7.832031 20.113281 7.636719 19.773438 C 7.558594 19.632812 7.476562 19.496094 7.398438 19.359375 C 7.359375 19.292969 7.320312 19.226562 7.28125 19.15625 C 6.984375 18.640625 6.679688 18.125 6.371094 17.609375 C 6.339844 17.558594 6.308594 17.503906 6.277344 17.449219 C 6.25 17.402344 6.21875 17.355469 6.191406 17.308594 C 6.125 17.1875 6.125 17.1875 6.0625 17 Z M 6.0625 17 "/>
<path style=" stroke:none;fill-rule:nonzero;fill:rgb(97.647059%,97.647059%,99.607843%);fill-opacity:1;" d="M 45.457031 25.195312 C 45.550781 25.195312 45.640625 25.195312 45.734375 25.191406 C 45.988281 25.191406 46.238281 25.1875 46.492188 25.1875 C 46.703125 25.1875 46.914062 25.1875 47.125 25.1875 C 47.621094 25.183594 48.117188 25.183594 48.617188 25.183594 C 49.128906 25.183594 49.640625 25.179688 50.15625 25.175781 C 50.59375 25.171875 51.035156 25.167969 51.476562 25.171875 C 51.738281 25.171875 52 25.167969 52.265625 25.164062 C 52.511719 25.164062 52.757812 25.164062 53.007812 25.164062 C 53.097656 25.164062 53.1875 25.164062 53.277344 25.164062 C 53.554688 25.15625 53.800781 25.164062 54.0625 25.25 C 54.265625 25.457031 54.378906 25.675781 54.5 25.9375 C 54.558594 26.039062 54.617188 26.140625 54.675781 26.238281 C 54.734375 26.339844 54.789062 26.441406 54.847656 26.542969 C 55.117188 27.023438 55.394531 27.496094 55.671875 27.972656 C 55.992188 28.519531 56.308594 29.074219 56.625 29.625 C 56.933594 30.167969 57.246094 30.710938 57.5625 31.25 C 57.878906 31.789062 58.191406 32.332031 58.5 32.875 C 58.847656 33.484375 59.195312 34.089844 59.550781 34.691406 C 59.933594 35.347656 60.3125 36.007812 60.691406 36.667969 C 60.855469 36.953125 61.023438 37.238281 61.1875 37.523438 C 61.304688 37.726562 61.421875 37.933594 61.539062 38.136719 C 61.667969 38.355469 61.792969 38.574219 61.917969 38.792969 C 61.964844 38.871094 62.011719 38.953125 62.058594 39.03125 C 62.117188 39.128906 62.117188 39.128906 62.171875 39.226562 C 62.25 39.375 62.25 39.375 62.25 39.5 C 61.140625 39.535156 60.03125 39.5625 58.921875 39.578125 C 58.40625 39.585938 57.890625 39.597656 57.375 39.613281 C 56.925781 39.628906 56.476562 39.636719 56.027344 39.640625 C 55.789062 39.644531 55.550781 39.648438 55.316406 39.660156 C 53.875 39.722656 53.875 39.722656 53.460938 39.351562 C 53.175781 38.992188 52.988281 38.597656 52.820312 38.175781 C 52.730469 37.953125 52.617188 37.757812 52.492188 37.554688 C 52.421875 37.433594 52.355469 37.316406 52.285156 37.195312 C 52.207031 37.058594 52.128906 36.921875 52.050781 36.785156 C 52.011719 36.71875 51.972656 36.648438 51.929688 36.582031 C 51.695312 36.171875 51.460938 35.765625 51.226562 35.359375 C 51.027344 35.015625 50.828125 34.667969 50.628906 34.320312 C 50.546875 34.179688 50.464844 34.035156 50.382812 33.894531 C 50.324219 33.792969 50.324219 33.792969 50.265625 33.6875 C 50.023438 33.273438 49.78125 32.859375 49.527344 32.449219 C 49.375 32.199219 49.375 32.199219 49.375 32.0625 C 49.332031 32.0625 49.292969 32.0625 49.25 32.0625 C 49.234375 32.105469 49.21875 32.152344 49.199219 32.195312 C 49.121094 32.382812 49.027344 32.554688 48.925781 32.730469 C 48.886719 32.800781 48.847656 32.871094 48.804688 32.941406 C 48.761719 33.015625 48.71875 33.09375 48.675781 33.167969 C 48.628906 33.246094 48.585938 33.324219 48.539062 33.402344 C 48.425781 33.605469 48.308594 33.808594 48.191406 34.007812 C 48.089844 34.1875 47.984375 34.367188 47.882812 34.542969 C 47.691406 34.878906 47.496094 35.214844 47.304688 35.550781 C 47.109375 35.886719 46.914062 36.222656 46.71875 36.5625 C 46.640625 36.699219 46.5625 36.832031 46.484375 36.96875 C 46.445312 37.035156 46.40625 37.101562 46.367188 37.171875 C 46.25 37.375 46.132812 37.578125 46.015625 37.78125 C 45.976562 37.847656 45.9375 37.914062 45.898438 37.984375 C 45.820312 38.121094 45.742188 38.253906 45.664062 38.390625 C 45.46875 38.730469 45.273438 39.070312 45.074219 39.410156 C 44.699219 40.0625 44.320312 40.714844 43.941406 41.367188 C 43.625 41.910156 43.3125 42.453125 43 43 C 42.652344 43.609375 42.304688 44.214844 41.949219 44.816406 C 41.566406 45.472656 41.1875 46.132812 40.804688 46.792969 C 40.609375 47.132812 40.414062 47.472656 40.21875 47.8125 C 40.140625 47.949219 40.0625 48.082031 39.984375 48.21875 C 39.203125 49.574219 38.421875 50.925781 37.640625 52.28125 C 37.601562 52.347656 37.5625 52.414062 37.523438 52.484375 C 37.445312 52.621094 37.367188 52.753906 37.289062 52.890625 C 37.09375 53.230469 36.898438 53.570312 36.699219 53.910156 C 36.324219 54.5625 35.945312 55.214844 35.566406 55.867188 C 35.25 56.410156 34.9375 56.953125 34.625 57.5 C 34.277344 58.105469 33.929688 58.710938 33.578125 59.3125 C 33.296875 59.792969 33.019531 60.273438 32.742188 60.753906 C 32.703125 60.820312 32.664062 60.890625 32.625 60.960938 C 32.4375 61.285156 32.25 61.609375 32.0625 61.9375 C 31.820312 61.722656 31.6875 61.484375 31.539062 61.203125 C 31.289062 60.746094 31.03125 60.292969 30.769531 59.84375 C 30.339844 59.113281 29.917969 58.378906 29.492188 57.644531 C 29.335938 57.367188 29.175781 57.089844 29.011719 56.8125 C 28.933594 56.675781 28.855469 56.539062 28.777344 56.402344 C 28.59375 56.078125 28.40625 55.757812 28.195312 55.449219 C 27.671875 54.652344 27.671875 54.652344 27.710938 54.273438 C 27.804688 54.078125 27.902344 53.921875 28.035156 53.75 C 28.175781 53.554688 28.289062 53.347656 28.410156 53.140625 C 28.511719 52.960938 28.621094 52.785156 28.726562 52.605469 C 28.925781 52.273438 29.117188 51.9375 29.308594 51.601562 C 29.578125 51.128906 29.851562 50.65625 30.125 50.1875 C 30.398438 49.71875 30.667969 49.25 30.9375 48.78125 C 31.203125 48.316406 31.46875 47.855469 31.738281 47.394531 C 32.164062 46.667969 32.585938 45.9375 33.007812 45.207031 C 33.203125 44.867188 33.398438 44.527344 33.59375 44.1875 C 33.671875 44.050781 33.75 43.917969 33.828125 43.78125 C 35.46875 40.9375 35.46875 40.9375 37.109375 38.09375 C 37.148438 38.027344 37.1875 37.960938 37.226562 37.890625 C 37.304688 37.753906 37.382812 37.621094 37.460938 37.484375 C 37.65625 37.144531 37.851562 36.804688 38.050781 36.464844 C 38.460938 35.746094 38.878906 35.03125 39.296875 34.316406 C 39.679688 33.65625 40.0625 32.992188 40.445312 32.332031 C 40.679688 31.921875 40.914062 31.515625 41.148438 31.109375 C 41.34375 30.769531 41.539062 30.429688 41.738281 30.089844 C 42.148438 29.375 42.5625 28.664062 42.976562 27.949219 C 43.179688 27.605469 43.382812 27.253906 43.582031 26.90625 C 43.613281 26.847656 43.613281 26.847656 43.648438 26.785156 C 43.757812 26.589844 43.871094 26.398438 43.980469 26.203125 C 44.019531 26.132812 44.058594 26.0625 44.101562 25.992188 C 44.136719 25.929688 44.171875 25.867188 44.207031 25.804688 C 44.257812 25.714844 44.257812 25.714844 44.3125 25.625 C 44.351562 25.527344 44.351562 25.527344 44.386719 25.429688 C 44.613281 25.097656 45.101562 25.195312 45.457031 25.195312 Z M 45.457031 25.195312 "/>
<path style=" stroke:none;fill-rule:nonzero;fill:rgb(70.19608%,67.450982%,96.078432%);fill-opacity:1;" d="M 45.214844 25.15625 C 45.300781 25.15625 45.390625 25.160156 45.476562 25.160156 C 45.570312 25.160156 45.664062 25.160156 45.757812 25.15625 C 46.007812 25.152344 46.257812 25.15625 46.511719 25.15625 C 46.773438 25.160156 47.039062 25.15625 47.300781 25.15625 C 47.746094 25.15625 48.1875 25.15625 48.628906 25.160156 C 49.140625 25.164062 49.652344 25.164062 50.164062 25.160156 C 50.605469 25.15625 51.042969 25.15625 51.484375 25.15625 C 51.746094 25.160156 52.007812 25.160156 52.269531 25.15625 C 52.515625 25.15625 52.761719 25.15625 53.011719 25.160156 C 53.101562 25.160156 53.191406 25.160156 53.28125 25.160156 C 53.554688 25.15625 53.800781 25.164062 54.0625 25.25 C 54.347656 25.53125 54.480469 25.878906 54.625 26.25 C 54.582031 26.25 54.542969 26.25 54.5 26.25 C 54.390625 26.089844 54.390625 26.089844 54.273438 25.882812 C 54.234375 25.816406 54.195312 25.746094 54.152344 25.675781 C 54.0625 25.5 54.0625 25.5 54.0625 25.375 C 52.847656 25.351562 51.628906 25.335938 50.414062 25.328125 C 49.847656 25.324219 49.285156 25.320312 48.71875 25.308594 C 48.226562 25.296875 47.734375 25.292969 47.242188 25.292969 C 46.980469 25.292969 46.71875 25.289062 46.457031 25.28125 C 45.402344 25.207031 45.402344 25.207031 44.460938 25.574219 C 44.1875 25.898438 44.019531 26.253906 43.875 26.648438 C 43.792969 26.867188 43.683594 27.054688 43.5625 27.25 C 43.519531 27.230469 43.480469 27.207031 43.4375 27.1875 C 43.542969 26.992188 43.648438 26.800781 43.753906 26.605469 C 43.78125 26.550781 43.8125 26.496094 43.84375 26.441406 C 43.902344 26.335938 43.960938 26.226562 44.023438 26.121094 C 44.125 25.941406 44.125 25.941406 44.207031 25.757812 C 44.457031 25.265625 44.671875 25.171875 45.214844 25.15625 Z M 45.214844 25.15625 "/>
<path style=" stroke:none;fill-rule:nonzero;fill:rgb(70.588237%,68.235296%,96.470588%);fill-opacity:1;" d="M 16.125 14.5625 C 16.167969 14.582031 16.207031 14.605469 16.25 14.625 C 16.113281 14.871094 15.972656 15.109375 15.8125 15.339844 C 15.746094 15.441406 15.683594 15.539062 15.617188 15.640625 C 15.582031 15.691406 15.546875 15.738281 15.511719 15.789062 C 15.414062 15.945312 15.347656 16.066406 15.3125 16.25 C 15.390625 16.507812 15.539062 16.714844 15.6875 16.9375 C 15.761719 17.070312 15.835938 17.203125 15.910156 17.335938 C 15.984375 17.472656 16.0625 17.605469 16.136719 17.742188 C 16.195312 17.84375 16.195312 17.84375 16.253906 17.949219 C 16.289062 18.015625 16.328125 18.082031 16.367188 18.152344 C 16.398438 18.210938 16.433594 18.269531 16.46875 18.332031 C 16.53125 18.445312 16.601562 18.558594 16.671875 18.671875 C 16.699219 18.71875 16.722656 18.765625 16.75 18.8125 C 16.730469 18.855469 16.707031 18.894531 16.6875 18.9375 C 16.5 18.625 16.3125 18.3125 16.125 18 C 16.089844 17.9375 16.050781 17.875 16.011719 17.8125 C 15.894531 17.613281 15.773438 17.410156 15.65625 17.210938 C 15.617188 17.144531 15.578125 17.082031 15.539062 17.011719 C 15.484375 16.921875 15.484375 16.921875 15.429688 16.824219 C 15.378906 16.742188 15.378906 16.742188 15.328125 16.660156 C 15.246094 16.496094 15.203125 16.371094 15.1875 16.1875 C 15.234375 16.058594 15.234375 16.058594 15.308594 15.929688 C 15.335938 15.882812 15.359375 15.832031 15.390625 15.785156 C 15.417969 15.734375 15.445312 15.6875 15.476562 15.636719 C 15.503906 15.589844 15.53125 15.539062 15.558594 15.492188 C 15.742188 15.175781 15.929688 14.867188 16.125 14.5625 Z M 16.125 14.5625 "/>
<path style=" stroke:none;fill-rule:nonzero;fill:rgb(72.156864%,69.803923%,96.470588%);fill-opacity:1;" d="M 16.125 14.5625 C 16.167969 14.582031 16.207031 14.605469 16.25 14.625 C 16.109375 14.871094 15.96875 15.113281 15.828125 15.355469 C 15.796875 15.40625 15.765625 15.457031 15.738281 15.511719 C 15.675781 15.617188 15.613281 15.722656 15.550781 15.828125 C 15.519531 15.878906 15.492188 15.929688 15.460938 15.980469 C 15.433594 16.027344 15.40625 16.074219 15.378906 16.121094 C 15.3125 16.246094 15.277344 16.359375 15.25 16.5 C 15.183594 16.339844 15.171875 16.226562 15.234375 16.0625 C 15.3125 15.917969 15.394531 15.777344 15.476562 15.636719 C 15.503906 15.589844 15.53125 15.539062 15.558594 15.492188 C 15.742188 15.175781 15.929688 14.867188 16.125 14.5625 Z M 16.125 14.5625 "/>
<path style=" stroke:none;fill-rule:nonzero;fill:rgb(80.392158%,79.215688%,97.647059%);fill-opacity:1;" d="M 16.125 14.5625 C 16.167969 14.582031 16.207031 14.605469 16.25 14.625 C 16.082031 14.917969 15.917969 15.207031 15.75 15.5 C 15.6875 15.3125 15.6875 15.3125 15.777344 15.128906 C 15.820312 15.0625 15.859375 14.996094 15.902344 14.925781 C 15.945312 14.859375 15.984375 14.789062 16.027344 14.71875 C 16.058594 14.667969 16.089844 14.617188 16.125 14.5625 Z M 16.125 14.5625 "/>
</g>
</svg>
