<svg width="119" height="20" viewBox="0 0 119 20" fill="none" xmlns="http://www.w3.org/2000/svg">
<g clip-path="url(#clip0)">
<path d="M12.2826 8.94348H7.42609L8.47826 4.18261H12.9696C14.4478 4.18261 15.3174 4.97826 15.3174 6.13913C15.3174 7.66956 14.1957 8.94348 12.2826 8.94348ZM20.2957 5.66957C20.2957 2.4 17.7739 0 13.3652 0H4.3913L0 20H5L6.51304 13.1304H9.43913L12.3478 20H17.3348L14.2348 12.8C17.9522 12.2174 20.2957 9.23478 20.2957 5.66957Z" fill="#231F20"/>
<path d="M28.9219 12.513L33.2089 5.13913L34.8306 12.513H28.9263H28.9219ZM31.1828 0L19.5654 20H24.5524L26.4959 16.6826H35.748L36.4785 20H41.4654L37.0872 0H31.1828ZM55.7828 8.94348H51.348L52.3915 4.18261H56.2524C57.7741 4.18261 58.7089 4.9087 58.7089 6.13913C58.7089 7.66956 57.5567 8.94348 55.7872 8.94348H55.7828ZM56.7611 0H48.3046L43.9133 20H48.9046L50.4263 13.1217H56.0002C60.7654 13.1217 63.6524 9.53043 63.6524 5.74348C63.6524 2.36957 61.0219 0.00434783 56.7567 0.00434783" fill="#231F20"/>
<path d="M73.3131 0H68.3131L63.9131 20H68.9131L73.3131 0Z" fill="#231F20"/>
<path d="M109.122 0H93.3566C93.5958 0.243478 93.8349 0.495652 94.0523 0.76087C95.8175 2.9 96.748 5.58696 96.748 8.54348C96.748 13.1087 94.8262 17.2261 91.7393 20H101.391L105.978 8.6H100.239L101.196 4.17826H112.596L106.609 20H108.957C114.422 20.0348 118.118 15.4957 118.118 9.98261C118.118 4.46956 114.596 0 109.118 0" fill="#E85E26"/>
<path d="M81.2872 15.8261H78.5263L81.0915 4.18261H83.7002C86.5611 4.18261 88.1654 6.32609 88.1654 9.00869C88.1654 12.6174 85.5915 15.8261 81.2958 15.8261H81.2872ZM91.3045 3.26087C89.5915 1.17391 86.7611 0 83.4219 0H77.0132L72.6089 20H80.6741C83.8045 20 86.2132 19.3043 88.0524 18.1957C91.7915 15.9261 93.1176 11.9348 93.1176 8.54348C93.1176 6.43043 92.4567 4.63913 91.3089 3.26087" fill="#231F20"/>
</g>
<defs>
<clipPath id="clip0">
<rect width="118.261" height="20" fill="white"/>
</clipPath>
</defs>
</svg>
