<svg width="41" height="40" viewBox="0 0 41 40" fill="none" xmlns="http://www.w3.org/2000/svg">
<path d="M20.0452 1.521C18.7498 1.52067 17.6893 2.75623 17.6995 3.85792C17.7315 7.30832 17.6995 9.65178 17.7312 12.4996C17.7437 13.601 18.7812 14.8365 20.0766 14.8365C21.3721 14.8365 22.4218 13.6013 22.4224 12.4996C22.4247 9.0129 22.3723 7.0707 22.391 3.85792C22.3975 2.75623 21.3407 1.52067 20.0452 1.521ZM11.5263 6.40497C10.2308 6.40497 9.17003 7.6402 9.1805 8.74189C9.21258 12.1926 9.1805 29.2911 9.21225 32.1389C9.22469 33.2406 10.2622 34.4759 11.5577 34.4762C12.8531 34.4762 13.9028 33.2406 13.9034 32.1393C13.9057 28.6525 13.8534 11.9547 13.872 8.74189C13.8786 7.6402 12.8217 6.40497 11.5263 6.40497ZM28.5639 6.40497C27.2684 6.40497 26.2076 7.64053 26.2181 8.74189C26.2502 12.1926 26.2181 29.2911 26.2499 32.1389C26.2623 33.2406 27.2998 34.4759 28.5953 34.4762C29.8907 34.4762 30.9404 33.2406 30.941 32.1393C30.943 28.6525 30.891 11.9547 30.9096 8.74189C30.9162 7.64053 29.8593 6.40497 28.5639 6.40497ZM3.02333 17.4661C2.23444 17.4662 1.47792 17.7797 0.920116 18.3376C0.362317 18.8955 0.0489149 19.652 0.0488281 20.4409C0.0490017 21.2297 0.362442 21.9862 0.920232 22.544C1.47802 23.1018 2.2345 23.4152 3.02333 23.4154C3.81217 23.4152 4.56864 23.1018 5.12643 22.544C5.68422 21.9862 5.99766 21.2297 5.99783 20.4409C5.99775 19.652 5.68435 18.8955 5.12655 18.3376C4.56875 17.7797 3.81222 17.4662 3.02333 17.4661ZM20.0609 17.4661C19.272 17.4662 18.5155 17.7797 17.9577 18.3376C17.3999 18.8955 17.0865 19.652 17.0864 20.4409C17.0866 21.2297 17.4 21.9862 17.9578 22.544C18.5156 23.1018 19.2721 23.4152 20.0609 23.4154C20.8498 23.4152 21.6062 23.1018 22.164 22.544C22.7218 21.9862 23.0353 21.2297 23.0354 20.4409C23.0354 19.652 22.722 18.8955 22.1642 18.3376C21.6064 17.7797 20.8498 17.4662 20.0609 17.4661ZM37.074 17.4661C36.2851 17.4662 35.5286 17.7797 34.9708 18.3376C34.413 18.8955 34.0996 19.652 34.0995 20.4409C34.0997 21.2298 34.4132 21.9863 34.971 22.5441C35.5289 23.1019 36.2854 23.4153 37.0743 23.4154C37.8632 23.4152 38.6196 23.1018 39.1774 22.544C39.7352 21.9862 40.0487 21.2297 40.0488 20.4409C40.0487 19.652 39.7353 18.8955 39.1775 18.3376C38.6197 17.7797 37.8629 17.4662 37.074 17.4661ZM20.0456 26.0449C18.7501 26.0449 17.6896 27.2805 17.6998 28.3822C17.7319 31.8329 17.6998 34.1761 17.7315 37.0239C17.744 38.1253 18.7815 39.3608 20.077 39.3608C21.3724 39.3608 22.4221 38.1256 22.4227 37.0239C22.425 33.5375 22.3727 31.5953 22.3913 28.3822C22.3979 27.2805 21.341 26.0449 20.0456 26.0449Z" fill="white"/>
</svg>
