<?xml version="1.0" encoding="UTF-8" standalone="no"?>
<!-- Created with Inkscape (http://www.inkscape.org/) -->

<svg
   width="500"
   height="500"
   viewBox="0 0 132.29166 132.29167"
   version="1.1"
   id="svg5"
   xml:space="preserve"
   inkscape:version="1.2.2 (b0a8486541, 2022-12-01)"
   sodipodi:docname="RecordedFuture.svg"
   xmlns:inkscape="http://www.inkscape.org/namespaces/inkscape"
   xmlns:sodipodi="http://sodipodi.sourceforge.net/DTD/sodipodi-0.dtd"
   xmlns="http://www.w3.org/2000/svg"
   xmlns:svg="http://www.w3.org/2000/svg"><sodipodi:namedview
     id="namedview7"
     pagecolor="#ffffff"
     bordercolor="#000000"
     borderopacity="0.25"
     inkscape:showpageshadow="2"
     inkscape:pageopacity="0.0"
     inkscape:pagecheckerboard="0"
     inkscape:deskcolor="#d1d1d1"
     inkscape:document-units="mm"
     showgrid="false"
     inkscape:zoom="1.0582793"
     inkscape:cx="154.49607"
     inkscape:cy="295.76312"
     inkscape:window-width="1920"
     inkscape:window-height="1019"
     inkscape:window-x="0"
     inkscape:window-y="0"
     inkscape:window-maximized="1"
     inkscape:current-layer="layer2" /><defs
     id="defs2" /><g
     inkscape:groupmode="layer"
     id="layer2"
     inkscape:label="Layer 2"><path
       id="path232"
       style="fill:#000000;fill-opacity:1;stroke-width:0.556055"
       d="m 66.134978,8.3391846 c -3.958286,-1.547e-4 -7.198432,3.7746914 -7.167,7.1407194 0.09844,10.542557 1.81e-4,17.701735 0.09711,26.402771 0.03749,3.365674 3.208018,7.140255 7.165859,7.14072 3.958288,1.54e-4 7.164845,-3.774559 7.167011,-7.14072 0.0067,-10.652222 -0.15297,-16.586224 -0.09594,-26.402771 0.0199,-3.366116 -3.208721,-7.1408741 -7.167007,-7.1407194 z M 40.106906,23.262633 c -3.958286,-1.55e-4 -7.198432,3.774693 -7.167,7.14072 0.09844,10.542557 1.81e-4,62.783923 0.09711,71.484957 0.03749,3.3657 3.208017,7.14026 7.165858,7.14072 3.958288,1.6e-4 7.164837,-3.77453 7.167003,-7.14072 0.0067,-10.65222 -0.152992,-61.668411 -0.09596,-71.484957 0.0199,-3.366116 -3.208714,-7.140875 -7.167,-7.14072 z m 52.055,0 c -3.95777,5.75e-4 -7.198437,3.775024 -7.167003,7.14072 0.09837,10.542557 2.44e-4,62.783923 0.09704,71.484957 0.03758,3.3657 3.208017,7.14026 7.165853,7.14072 3.958301,1.6e-4 7.164832,-3.77453 7.167003,-7.14072 0.0065,-10.65222 -0.152974,-61.668411 -0.09594,-71.484957 0.01986,-3.365784 -3.208083,-7.140145 -7.165853,-7.14072 z M 14.127955,57.05742 a 9.0884303,9.0884303 0 0 0 -9.0884065,9.088413 9.0884303,9.0884303 0 0 0 9.0884065,9.088413 9.0884303,9.0884303 0 0 0 9.088407,-9.088413 9.0884303,9.0884303 0 0 0 -9.088407,-9.088413 z m 52.055002,0 a 9.0884303,9.0884303 0 0 0 -9.088407,9.088413 9.0884303,9.0884303 0 0 0 9.088407,9.088413 9.0884303,9.0884303 0 0 0 9.088398,-9.088413 9.0884303,9.0884303 0 0 0 -9.088398,-9.088413 z m 51.980753,0 a 9.0884303,9.0884303 0 0 0 -9.08842,9.088413 9.0884303,9.0884303 0 0 0 9.08842,9.088413 9.0884303,9.0884303 0 0 0 9.08841,-9.088413 9.0884303,9.0884303 0 0 0 -9.08841,-9.088413 z M 66.134978,83.268271 c -3.958286,-1.54e-4 -7.198432,3.774714 -7.167,7.14072 0.09844,10.542559 1.81e-4,17.701739 0.09711,26.402769 0.03749,3.3657 3.208018,7.14026 7.165859,7.14072 3.958288,1.6e-4 7.164845,-3.77454 7.167011,-7.14072 0.0067,-10.65222 -0.15297,-16.58623 -0.09594,-26.402769 0.0199,-3.366094 -3.208721,-7.140874 -7.167007,-7.14072 z" /></g></svg>
