<svg xmlns="http://www.w3.org/2000/svg" xml:space="preserve" width="500" height="500" viewBox="0 0 132.292 132.292"><path d="M66.135 8.34c-3.958-.001-7.198 3.774-7.167 7.14.098 10.542 0 17.702.097 26.403.038 3.365 3.208 7.14 7.166 7.14s7.165-3.774 7.167-7.14c.007-10.653-.153-16.587-.096-26.403.02-3.366-3.209-7.141-7.167-7.14M40.107 23.262c-3.958 0-7.199 3.774-7.167 7.14.098 10.543 0 62.784.097 71.485.038 3.366 3.208 7.14 7.166 7.141 3.958 0 7.165-3.775 7.167-7.14.007-10.653-.153-61.67-.096-71.486.02-3.366-3.209-7.14-7.167-7.14m52.055 0c-3.958 0-7.199 3.775-7.167 7.14.098 10.543 0 62.784.097 71.485.038 3.366 3.208 7.14 7.166 7.141 3.958 0 7.165-3.775 7.167-7.14.006-10.653-.153-61.67-.096-71.486.02-3.365-3.208-7.14-7.166-7.14zM14.128 57.057a9.09 9.09 0 0 0-9.088 9.089 9.09 9.09 0 0 0 9.088 9.088 9.09 9.09 0 0 0 9.088-9.088 9.09 9.09 0 0 0-9.088-9.089m52.055 0a9.09 9.09 0 0 0-9.088 9.089 9.09 9.09 0 0 0 9.088 9.088 9.09 9.09 0 0 0 9.088-9.088 9.09 9.09 0 0 0-9.088-9.089m51.98 0a9.09 9.09 0 0 0-9.088 9.089 9.09 9.09 0 0 0 9.089 9.088 9.09 9.09 0 0 0 9.088-9.088 9.09 9.09 0 0 0-9.088-9.089M66.136 83.268c-3.958 0-7.198 3.775-7.167 7.141.098 10.543 0 17.702.097 26.403.038 3.365 3.208 7.14 7.166 7.14s7.165-3.774 7.167-7.14c.007-10.652-.153-16.586-.096-26.403.02-3.366-3.209-7.14-7.167-7.14" style="fill:#000;fill-opacity:1;stroke-width:.556055"/></svg>