<svg xmlns="http://www.w3.org/2000/svg" width="500" height="500" fill="none"><path fill="#0a083b" fill-rule="evenodd" d="M250.055 25A225 225 0 0 0 29.317 293.862a225 225 0 0 0 176.767 176.81 225 225 0 0 0 230.993-95.663A225 225 0 0 0 475 250 225.223 225.223 0 0 0 250.055 25m0 408.67a183.723 183.723 0 0 1-129.894-313.658 183.72 183.72 0 0 1 200.24-39.791A183.72 183.72 0 0 1 433.78 250a183.89 183.89 0 0 1-183.725 183.835zm-11.38-268.74a100 100 0 0 1 126.267 12.437 100.004 100.004 0 0 1 12.436 126.268 100.01 100.01 0 0 1-102.656 42.522 100 100 0 0 1-78.569-78.57 100 100 0 0 1 5.69-57.778 100 100 0 0 1 36.832-44.879m22.977 131.906a58.64 58.64 0 0 0 32.58 9.884 58.695 58.695 0 0 0 58.641-58.642 58.641 58.641 0 1 0-91.222 48.759M128.847 167.308h44.23V330.77h-44.23z" clip-rule="evenodd" style="stroke-width:1.125"/></svg>