<svg width="40" height="40" viewBox="0 0 40 40" fill="none" xmlns="http://www.w3.org/2000/svg">
<path fill-rule="evenodd" clip-rule="evenodd" d="M20.0049 6.00064e-07C16.0491 -0.000968209 12.1818 1.1712 8.8922 3.36824C5.60258 5.56528 3.03835 8.68851 1.52385 12.3429C0.00935188 15.9974 -0.387456 20.0189 0.383696 23.8988C1.15485 27.7787 3.05928 31.3429 5.85614 34.1405C8.65299 36.9379 12.2167 38.8433 16.0964 39.6154C19.9762 40.3875 23.9978 39.9917 27.6527 38.478C31.3074 36.9645 34.4313 34.401 36.6291 31.112C38.827 27.8228 40 23.9559 40 20C39.9948 14.6981 37.8867 9.61479 34.1382 5.86533C30.3896 2.11587 25.3068 0.0064844 20.0049 6.00064e-07ZM20.0049 36.3262C16.7747 36.3262 13.6171 35.3683 10.9313 33.5736C8.24557 31.779 6.15239 29.2281 4.91648 26.2437C3.68055 23.2593 3.35739 19.9753 3.98793 16.8073C4.61846 13.6392 6.17438 10.7293 8.45882 8.44552C10.7433 6.16176 13.6537 4.60677 16.822 3.97718C19.9902 3.34759 23.2738 3.67169 26.258 4.90851C29.2419 6.14533 31.7923 8.2393 33.5862 10.9256C35.3801 13.6119 36.3371 16.7698 36.336 20C36.3348 24.3319 34.6141 28.4859 31.552 31.5499C28.4899 34.6138 24.3368 36.3371 20.0049 36.341V36.3262ZM23.9317 10.9402C22.1736 10.9402 20.4551 11.4615 18.9933 12.4382C17.5315 13.4149 16.3922 14.8032 15.7194 16.4274C15.0466 18.0517 14.8706 19.839 15.2136 21.5632C15.5565 23.2875 16.4031 24.8712 17.6463 26.1144C18.8895 27.3576 20.4732 28.2042 22.1976 28.5472C23.9218 28.8902 25.7091 28.7141 27.3333 28.0413C28.9576 27.3685 30.3458 26.2293 31.3225 24.7675C32.2993 23.3056 32.8205 21.5871 32.8205 19.829C32.8205 17.4716 31.8841 15.2106 30.217 13.5437C28.5501 11.8767 26.2891 10.9402 23.9317 10.9402ZM23.9317 25.0417C22.9008 25.0417 21.8929 24.736 21.0358 24.1631C20.1786 23.5905 19.5104 22.7763 19.1158 21.8239C18.7214 20.8713 18.6182 19.8233 18.8193 18.8121C19.0204 17.8009 19.5168 16.8722 20.2458 16.1432C20.9748 15.4142 21.9035 14.9177 22.9147 14.7166C23.9259 14.5155 24.9739 14.6187 25.9265 15.0132C26.8789 15.4078 27.6931 16.0758 28.2657 16.9332C28.8386 17.7903 29.1443 18.7981 29.1443 19.829C29.143 21.2111 28.5934 22.5363 27.6161 23.5135C26.6389 24.4908 25.3137 25.0403 23.9317 25.0417ZM9.23078 12.6496H13.1624V27.1795H9.23078V12.6496Z" fill="#5D4FF2"/>
</svg>
