<?xml version="1.0" encoding="UTF-8" standalone="no"?>
<svg
   width="500"
   height="500"
   viewBox="0 0 500 500"
   fill="none"
   version="1.1"
   id="svg4"
   sodipodi:docname="sekoiaio.svg"
   inkscape:version="1.2.2 (b0a8486541, 2022-12-01)"
   xmlns:inkscape="http://www.inkscape.org/namespaces/inkscape"
   xmlns:sodipodi="http://sodipodi.sourceforge.net/DTD/sodipodi-0.dtd"
   xmlns="http://www.w3.org/2000/svg"
   xmlns:svg="http://www.w3.org/2000/svg">
  <defs
     id="defs8" />
  <sodipodi:namedview
     id="namedview6"
     pagecolor="#ffffff"
     bordercolor="#000000"
     borderopacity="0.25"
     inkscape:showpageshadow="2"
     inkscape:pageopacity="0.0"
     inkscape:pagecheckerboard="0"
     inkscape:deskcolor="#d1d1d1"
     showgrid="false"
     inkscape:zoom="0.89972337"
     inkscape:cx="723"
     inkscape:cy="210.62029"
     inkscape:window-width="1920"
     inkscape:window-height="1012"
     inkscape:window-x="0"
     inkscape:window-y="0"
     inkscape:window-maximized="1"
     inkscape:current-layer="svg4" />
  <path
     fill-rule="evenodd"
     clip-rule="evenodd"
     d="M 250.05513,25.000028 C 205.55238,24.989116 162.04525,38.175916 125.03725,62.892616 88.028912,87.609314 59.181557,122.74565 42.143432,163.8581 c -17.038237,41.112 -21.50235,86.35388 -12.8268,130.00388 8.675438,43.64887 30.100275,83.74499 61.56495,115.21799 31.464668,31.47188 71.556298,52.9065 115.202918,61.59263 43.64775,8.68612 88.89075,4.23337 130.00725,-12.79463 41.1165,-17.028 76.25925,-45.86625 100.98563,-82.86862 C 461.80263,338.00698 475,294.50323 475,250.00048 474.9415,190.3541 451.22538,133.16585 409.05475,90.984876 366.883,48.803454 309.7015,25.072928 250.05513,25.000028 Z m 0,408.670192 c -36.33975,0 -71.86275,-10.77637 -102.078,-30.96787 C 117.76255,382.51197 94.214392,353.81548 80.310292,320.24098 66.406195,286.66648 62.770645,249.7226 69.864107,214.08148 76.957682,178.44035 94.461662,145.70398 120.1615,120.01201 145.861,94.319826 178.603,76.826079 214.24638,69.743304 c 35.64225,-7.082888 72.585,-3.436763 106.155,10.477462 33.57112,13.91411 62.262,37.471274 82.44337,67.691584 20.18138,30.22088 30.9465,65.74838 30.93525,102.08813 -0.0146,48.73162 -19.37137,95.46637 -53.82112,129.93524 -34.44863,34.47 -81.171,53.856 -129.90375,53.89988 z m -11.3805,-268.73999 c 16.44412,-10.98788 35.77837,-16.8525 55.557,-16.8525 26.52187,0 51.957,10.53562 70.71075,29.28937 18.75262,18.75375 29.28937,44.18888 29.28937,70.71075 0,19.7775 -5.86575,39.11175 -16.85362,55.557 -10.98788,16.44413 -26.60513,29.26238 -44.8785,36.83025 -18.27225,7.569 -38.37938,9.549 -57.77775,5.69138 -19.39725,-3.85875 -37.21613,-13.383 -51.201,-27.36788 -13.98488,-13.986 -23.51025,-31.80375 -27.36788,-51.20212 -3.85875,-19.39838 -1.87762,-39.50438 5.69025,-57.77775 7.569,-18.27225 20.38613,-33.8895 36.83138,-44.8785 z m 22.977,131.90625 c 9.6435,6.444 20.98125,9.88312 32.58,9.88312 15.5475,-0.0146 30.456,-6.19762 41.4495,-17.19225 10.99462,-10.99462 17.17762,-25.902 17.19225,-41.4495 0,-11.59875 -3.44025,-22.9365 -9.88313,-32.58 -6.444,-9.6435 -15.60262,-17.15962 -26.31825,-21.59775 -10.7145,-4.43925 -22.50562,-5.60025 -33.88162,-3.33787 -11.37488,2.2635 -21.82388,7.848 -30.02513,16.04925 -8.20125,8.20125 -13.78575,18.65025 -16.04812,30.02625 -2.2635,11.37487 -1.1025,23.166 3.33675,33.88162 4.43812,10.7145 11.95425,19.87313 21.59775,26.31713 z M 128.8465,167.30848 h 44.2305 v 163.46137 h -44.2305 z"
     fill="#0a083b"
     id="path2"
     sodipodi:nodetypes="ccccccsccccccsccccccccccscscccccccsccccccsccsccccc"
     style="stroke-width:1.125" />
</svg>
