<?xml version="1.0" encoding="utf-8"?>
<!-- Generator: Adobe Illustrator 26.5.0, SVG Export Plug-In . SVG Version: 6.00 Build 0)  -->
<svg version="1.1" id="Layer_1" xmlns="http://www.w3.org/2000/svg" xmlns:xlink="http://www.w3.org/1999/xlink" x="0px" y="0px"
	 viewBox="0 0 1000 200" style="enable-background:new 0 0 1000 200;" xml:space="preserve">
<style type="text/css">
	.st0{fill:#FF6200;}
</style>
<g>
	<g>
		<path class="st0" d="M301.299,161.252c-0.583,5.361-2.5,9.464-5.752,12.308s-7.582,4.266-12.989,4.266
			c-3.775,0-7.115-0.944-10.017-2.832c-2.902-1.888-5.146-4.562-6.73-8.024c-1.586-3.462-2.39-7.418-2.413-11.871v-6.608
			c0-4.522,0.792-8.531,2.378-12.028c1.585-3.496,3.863-6.194,6.835-8.094c2.973-1.899,6.393-2.85,10.262-2.85
			c5.455,0,9.761,1.468,12.92,4.406c3.158,2.937,4.994,7.004,5.507,12.202h-4.336c-1.072-8.647-5.769-12.972-14.091-12.972
			c-4.614,0-8.292,1.727-11.03,5.179c-2.739,3.452-4.108,8.223-4.108,14.311v6.229c0,5.878,1.334,10.568,4.003,14.067
			s6.276,5.248,10.821,5.248c4.498,0,7.89-1.077,10.175-3.233c2.284-2.156,3.694-5.391,4.23-9.703H301.299z"/>
		<path class="st0" d="M334.422,172.336c-2.518,3.66-6.538,5.489-12.062,5.489c-4.033,0-7.098-1.171-9.196-3.514
			c-2.098-2.343-3.17-5.81-3.217-10.402v-24.615h4.161v24.091c0,7.203,2.914,10.804,8.741,10.804c6.061,0,9.895-2.505,11.503-7.517
			v-27.378h4.196v37.832h-4.057L334.422,172.336z"/>
		<path class="st0" d="M371.334,167.511c0-2.074-0.834-3.741-2.5-5c-1.667-1.259-4.178-2.243-7.535-2.955
			c-3.356-0.711-5.961-1.526-7.814-2.447c-1.853-0.921-3.229-2.045-4.126-3.375c-0.897-1.329-1.346-2.937-1.346-4.825
			c0-2.984,1.247-5.449,3.741-7.395s5.688-2.92,9.58-2.92c4.219,0,7.605,1.043,10.157,3.129c2.553,2.086,3.829,4.808,3.829,8.165
			h-4.196c0-2.214-0.927-4.056-2.779-5.524c-1.854-1.469-4.19-2.203-7.011-2.203c-2.751,0-4.959,0.612-6.626,1.836
			c-1.667,1.224-2.5,2.814-2.5,4.772c0,1.888,0.693,3.351,2.081,4.388c1.387,1.038,3.916,1.987,7.587,2.85
			c3.672,0.863,6.422,1.783,8.252,2.762c1.829,0.979,3.188,2.156,4.073,3.531c0.886,1.376,1.329,3.042,1.329,5
			c0,3.194-1.289,5.746-3.864,7.657c-2.576,1.912-5.938,2.867-10.087,2.867c-4.406,0-7.979-1.066-10.717-3.199
			c-2.739-2.133-4.108-4.831-4.108-8.095h4.195c0.163,2.448,1.194,4.354,3.095,5.717c1.899,1.364,4.411,2.046,7.535,2.046
			c2.913,0,5.268-0.641,7.062-1.923S371.334,169.469,371.334,167.511z"/>
		<path class="st0" d="M391.095,129.609v9.685h7.832v3.427h-7.832v25.237c0,2.101,0.378,3.664,1.136,4.69
			c0.758,1.027,2.022,1.54,3.794,1.54c0.699,0,1.83-0.116,3.392-0.35l0.175,3.397c-1.096,0.393-2.587,0.589-4.476,0.589
			c-2.867,0-4.953-0.833-6.259-2.5c-1.306-1.666-1.958-4.12-1.958-7.36v-25.244h-6.958v-3.427h6.958v-9.685H391.095z"/>
		<path class="st0" d="M402.899,157.65c0-3.636,0.705-6.911,2.115-9.825c1.41-2.914,3.403-5.18,5.979-6.801
			c2.575-1.62,5.494-2.43,8.759-2.43c5.034,0,9.113,1.766,12.236,5.297c3.124,3.531,4.686,8.211,4.686,14.038v0.875
			c0,3.659-0.705,6.952-2.115,9.877c-1.41,2.926-3.397,5.181-5.962,6.766c-2.563,1.586-5.488,2.378-8.775,2.378
			c-5.012,0-9.085-1.766-12.22-5.297c-3.136-3.531-4.703-8.211-4.703-14.039V157.65z M407.095,158.805
			c0,4.522,1.171,8.234,3.514,11.136c2.343,2.902,5.413,4.354,9.213,4.354c3.776,0,6.836-1.451,9.178-4.354
			c2.343-2.901,3.514-6.73,3.514-11.486v-0.804c0-2.89-0.536-5.536-1.607-7.937c-1.073-2.401-2.576-4.26-4.511-5.577
			c-1.935-1.316-4.149-1.976-6.643-1.976c-3.73,0-6.772,1.463-9.126,4.388c-2.354,2.926-3.531,6.754-3.531,11.486V158.805z"/>
		<path class="st0" d="M449.05,139.294l0.14,6.154c1.398-2.284,3.146-3.997,5.245-5.14c2.098-1.142,4.428-1.713,6.992-1.713
			c5.968,0,9.756,2.448,11.364,7.343c1.352-2.354,3.158-4.167,5.419-5.437c2.261-1.27,4.755-1.906,7.482-1.906
			c8.111,0,12.249,4.429,12.412,13.287v25.245h-4.195v-24.93c-0.023-3.38-0.752-5.886-2.186-7.518
			c-1.434-1.631-3.771-2.448-7.011-2.448c-3.007,0.047-5.548,1.02-7.622,2.92s-3.229,4.213-3.461,6.94v25.035h-4.196v-25.245
			c-0.023-3.24-0.786-5.658-2.29-7.255c-1.503-1.597-3.816-2.396-6.94-2.396c-2.634,0-4.895,0.752-6.783,2.255
			c-1.888,1.503-3.286,3.736-4.195,6.696v25.944h-4.196v-37.832H449.05z"/>
		<path class="st0" d="M523.141,177.825c-3.217,0-6.125-0.792-8.724-2.378c-2.6-1.585-4.621-3.793-6.066-6.625
			c-1.445-2.833-2.168-6.009-2.168-9.528v-1.503c0-3.636,0.705-6.911,2.115-9.825c1.41-2.914,3.375-5.204,5.892-6.871
			c2.518-1.666,5.245-2.5,8.183-2.5c4.592,0,8.233,1.568,10.926,4.703s4.039,7.418,4.039,12.849v2.343h-26.993v0.804
			c0,4.289,1.229,7.861,3.688,10.717s5.554,4.283,9.283,4.283c2.238,0,4.214-0.407,5.927-1.224c1.713-0.815,3.27-2.121,4.668-3.916
			l2.622,1.993C533.456,175.6,528.992,177.825,523.141,177.825z M522.373,142.161c-3.147,0-5.799,1.154-7.955,3.461
			c-2.156,2.308-3.468,5.408-3.934,9.301h22.692v-0.455c-0.117-3.636-1.154-6.596-3.112-8.881
			C528.106,143.304,525.542,142.161,522.373,142.161z"/>
		<path class="st0" d="M562.823,142.86c-0.886-0.163-1.83-0.245-2.832-0.245c-2.61,0-4.819,0.729-6.626,2.186
			c-1.807,1.457-3.094,3.572-3.862,6.346v25.979h-4.161v-37.832h4.091l0.07,6.014c2.213-4.476,5.769-6.713,10.663-6.713
			c1.166,0,2.086,0.152,2.763,0.455L562.823,142.86z"/>
		<path class="st0" d="M619.498,164.608c0-2.82-0.991-5.052-2.972-6.695c-1.981-1.644-5.606-3.205-10.874-4.686
			c-5.269-1.48-9.114-3.094-11.538-4.843c-3.45-2.47-5.175-5.71-5.175-9.72c0-3.892,1.603-7.056,4.808-9.492
			c3.204-2.436,7.302-3.654,12.29-3.654c3.379,0,6.404,0.653,9.073,1.958c2.669,1.306,4.737,3.124,6.206,5.455
			c1.469,2.331,2.203,4.929,2.203,7.796h-4.336c0-3.483-1.188-6.283-3.566-8.398c-2.378-2.116-5.571-3.174-9.58-3.174
			c-3.894,0-6.993,0.87-9.301,2.609c-2.308,1.739-3.462,4.009-3.462,6.811c0,2.592,1.037,4.705,3.112,6.339
			c2.074,1.635,5.396,3.076,9.965,4.325c4.568,1.249,8.03,2.544,10.385,3.884c2.354,1.341,4.126,2.943,5.314,4.808
			c1.188,1.865,1.783,4.068,1.783,6.609c0,4.009-1.603,7.226-4.808,9.649c-3.205,2.425-7.43,3.637-12.675,3.637
			c-3.59,0-6.883-0.642-9.878-1.923c-2.995-1.282-5.268-3.077-6.817-5.385c-1.551-2.308-2.325-4.953-2.325-7.937h4.301
			c0,3.59,1.34,6.422,4.021,8.496c2.681,2.075,6.247,3.111,10.699,3.111c3.963,0,7.145-0.874,9.546-2.622
			C618.297,169.818,619.498,167.499,619.498,164.608z"/>
		<path class="st0" d="M656.562,172.336c-2.518,3.66-6.538,5.489-12.062,5.489c-4.033,0-7.099-1.171-9.196-3.514
			s-3.17-5.81-3.217-10.402v-24.615h4.161v24.091c0,7.203,2.913,10.804,8.741,10.804c6.06,0,9.894-2.505,11.502-7.517v-27.378h4.196
			v37.832h-4.056L656.562,172.336z"/>
		<path class="st0" d="M685.347,174.294c2.913,0,5.355-0.822,7.325-2.465c1.97-1.644,3.036-3.771,3.199-6.381h4.021
			c-0.116,2.308-0.839,4.411-2.167,6.311c-1.329,1.9-3.095,3.386-5.298,4.458c-2.202,1.072-4.562,1.608-7.08,1.608
			c-4.965,0-8.898-1.725-11.801-5.175c-2.902-3.449-4.353-8.088-4.353-13.916v-1.259c0-3.729,0.652-7.028,1.958-9.895
			c1.305-2.867,3.176-5.081,5.611-6.643c2.436-1.562,5.285-2.343,8.549-2.343c4.149,0,7.57,1.236,10.263,3.707
			c2.691,2.471,4.131,5.723,4.317,9.755h-4.021c-0.187-2.96-1.253-5.35-3.199-7.167c-1.946-1.818-4.4-2.728-7.36-2.728
			c-3.776,0-6.708,1.364-8.794,4.091c-2.086,2.728-3.129,6.551-3.129,11.469v1.224c0,4.825,1.043,8.59,3.129,11.294
			S681.547,174.294,685.347,174.294z"/>
		<path class="st0" d="M722.17,174.294c2.913,0,5.355-0.822,7.325-2.465c1.97-1.644,3.036-3.771,3.199-6.381h4.021
			c-0.116,2.308-0.839,4.411-2.167,6.311c-1.329,1.9-3.095,3.386-5.298,4.458c-2.202,1.072-4.562,1.608-7.08,1.608
			c-4.965,0-8.898-1.725-11.801-5.175c-2.902-3.449-4.353-8.088-4.353-13.916v-1.259c0-3.729,0.652-7.028,1.958-9.895
			c1.305-2.867,3.176-5.081,5.611-6.643c2.436-1.562,5.285-2.343,8.549-2.343c4.149,0,7.57,1.236,10.263,3.707
			c2.691,2.471,4.131,5.723,4.317,9.755h-4.021c-0.187-2.96-1.253-5.35-3.199-7.167c-1.946-1.818-4.4-2.728-7.36-2.728
			c-3.776,0-6.708,1.364-8.794,4.091c-2.086,2.728-3.129,6.551-3.129,11.469v1.224c0,4.825,1.043,8.59,3.129,11.294
			S718.371,174.294,722.17,174.294z"/>
		<path class="st0" d="M759.7,177.825c-3.217,0-6.125-0.792-8.724-2.378c-2.6-1.585-4.621-3.793-6.065-6.625
			c-1.445-2.833-2.168-6.009-2.168-9.528v-1.503c0-3.636,0.705-6.911,2.115-9.825c1.409-2.914,3.374-5.204,5.891-6.871
			c2.518-1.666,5.245-2.5,8.183-2.5c4.592,0,8.233,1.568,10.926,4.703s4.039,7.418,4.039,12.849v2.343h-26.993v0.804
			c0,4.289,1.229,7.861,3.688,10.717s5.554,4.283,9.283,4.283c2.238,0,4.214-0.407,5.927-1.224c1.713-0.815,3.27-2.121,4.668-3.916
			l2.622,1.993C770.014,175.6,765.55,177.825,759.7,177.825z M758.931,142.161c-3.147,0-5.799,1.154-7.955,3.461
			c-2.156,2.308-3.468,5.408-3.934,9.301h22.692v-0.455c-0.117-3.636-1.154-6.596-3.112-8.881
			C764.665,143.304,762.1,142.161,758.931,142.161z"/>
		<path class="st0" d="M804.089,167.511c0-2.074-0.833-3.741-2.5-5c-1.666-1.259-4.178-2.243-7.534-2.955
			c-3.357-0.711-5.962-1.526-7.815-2.447c-1.853-0.921-3.229-2.045-4.125-3.375c-0.898-1.329-1.347-2.937-1.347-4.825
			c0-2.984,1.247-5.449,3.741-7.395s5.688-2.92,9.58-2.92c4.219,0,7.605,1.043,10.157,3.129c2.553,2.086,3.829,4.808,3.829,8.165
			h-4.196c0-2.214-0.926-4.056-2.779-5.524c-1.854-1.469-4.19-2.203-7.011-2.203c-2.75,0-4.959,0.612-6.625,1.836
			c-1.667,1.224-2.5,2.814-2.5,4.772c0,1.888,0.693,3.351,2.08,4.388c1.387,1.038,3.916,1.987,7.587,2.85
			c3.672,0.863,6.422,1.783,8.252,2.762s3.188,2.156,4.073,3.531c0.886,1.376,1.329,3.042,1.329,5c0,3.194-1.288,5.746-3.864,7.657
			c-2.575,1.912-5.938,2.867-10.087,2.867c-4.405,0-7.978-1.066-10.717-3.199s-4.108-4.831-4.108-8.095h4.196
			c0.162,2.448,1.194,4.354,3.094,5.717c1.899,1.364,4.411,2.046,7.535,2.046c2.914,0,5.268-0.641,7.062-1.923
			S804.089,169.469,804.089,167.511z"/>
		<path class="st0" d="M839.804,167.511c0-2.074-0.833-3.741-2.5-5c-1.666-1.259-4.178-2.243-7.534-2.955
			c-3.357-0.711-5.962-1.526-7.815-2.447c-1.853-0.921-3.229-2.045-4.125-3.375c-0.898-1.329-1.347-2.937-1.347-4.825
			c0-2.984,1.247-5.449,3.741-7.395s5.688-2.92,9.58-2.92c4.219,0,7.605,1.043,10.157,3.129c2.552,2.086,3.828,4.808,3.828,8.165
			h-4.195c0-2.214-0.926-4.056-2.779-5.524c-1.854-1.469-4.19-2.203-7.011-2.203c-2.75,0-4.959,0.612-6.625,1.836
			c-1.667,1.224-2.5,2.814-2.5,4.772c0,1.888,0.693,3.351,2.08,4.388c1.387,1.038,3.916,1.987,7.587,2.85
			c3.672,0.863,6.422,1.783,8.252,2.762s3.188,2.156,4.072,3.531c0.886,1.376,1.329,3.042,1.329,5c0,3.194-1.288,5.746-3.863,7.657
			c-2.575,1.912-5.938,2.867-10.087,2.867c-4.405,0-7.978-1.066-10.717-3.199s-4.108-4.831-4.108-8.095h4.196
			c0.162,2.448,1.194,4.354,3.094,5.717c1.899,1.364,4.411,2.046,7.535,2.046c2.914,0,5.268-0.641,7.062-1.923
			S839.804,169.469,839.804,167.511z"/>
	</g>
	<g>
		<g>
			<g>
				<g>
					<path class="st0" d="M409.642,96.429V33.558h11.028V86.72h30.122v9.709H409.642z"/>
				</g>
				<g>
					<path class="st0" d="M516.316,96.429l-4.618-12.065h-29.786l-4.619,12.065h-12.065l24.696-62.871h13.761l24.696,62.871H516.316
						z M496.804,42.89l-11.782,31.765h23.564L496.804,42.89z"/>
				</g>
				<g>
					<path class="st0" d="M668.982,96.429l-12.253-46.376l-12.159,46.376h-11.783l-18.004-62.871h12.348l12.254,48.45l13.007-48.45
						h8.766l13.007,48.45l12.159-48.45h12.348l-17.909,62.871H668.982z"/>
				</g>
				<g>
					<path class="st0" d="M720.36,96.429V33.558h11.028v62.871H720.36z"/>
				</g>
				<g>
					<path class="st0" d="M803.944,96.429l-32.802-45.81v45.81h-11.028V33.558h11.311l32.142,44.585V33.558h11.028v62.871H803.944z"
						/>
				</g>
				<g>
					<path class="st0" d="M840.912,96.429V33.558h23.376c19.606,0,32.896,13.008,32.896,31.482c0,18.476-13.29,31.389-32.896,31.389
						H840.912z M851.94,86.72h12.348c13.667,0,21.585-9.803,21.585-21.68c0-12.159-7.541-21.773-21.585-21.773H851.94V86.72z"/>
				</g>
				<g>
					<path class="st0" d="M358.026,32.521c-17.96,0-32.52,14.56-32.52,32.52c0,17.96,14.56,32.52,32.52,32.52
						c17.96,0,32.52-14.56,32.52-32.52C390.546,47.081,375.986,32.521,358.026,32.521z M358.026,86.58
						c-11.896,0-21.539-9.643-21.539-21.539s9.643-21.539,21.539-21.539s21.539,9.643,21.539,21.539S369.921,86.58,358.026,86.58z"
						/>
				</g>
				<g>
					<path class="st0" d="M588.674,76.699L588.674,76.699l-0.092-0.148l-0.057-0.091l-2.941-4.727l-0.009,0l-0.581-0.93
						c6.179-2.3,11.436-8.063,11.436-17.544c0-11.594-8.107-19.7-20.549-19.7h-27.618v62.871h11.028V72.958h4.046h6.888h4.046
						l13.95,23.471h12.725L588.674,76.699z M559.293,63.249V43.267h15.081c6.221,0,10.746,3.959,10.746,9.992
						c0,6.033-4.524,9.991-10.746,9.991H559.293z"/>
				</g>
				<g>
					<path class="st0" d="M287.373,58.631c-7.447-1.886-13.856-3.488-13.856-8.389c0-4.713,4.147-7.824,10.651-7.824
						c6.231,0,12.527,2.048,17.339,6.401l6.931-7.128l0.238-0.31c-5.844-5.656-13.762-8.766-23.565-8.766
						c-13.762,0-22.905,8.012-22.905,18.381c0,13.29,12.065,16.306,22.34,18.852c7.635,1.979,14.327,3.676,14.327,9.332
						c0,4.148-3.582,8.577-12.631,8.577c-8.015,0-14.369-3.391-18.714-7.502l-7.205,7.41c5.562,5.885,13.919,9.895,25.448,9.895
						c16.967,0,24.318-8.955,24.318-19.418C310.089,64.475,297.741,61.27,287.373,58.631z"/>
				</g>
				<g>
					<path class="st0" d="M940.862,58.631c-7.447-1.886-13.856-3.488-13.856-8.389c0-4.713,4.147-7.824,10.651-7.824
						c6.231,0,12.527,2.048,17.339,6.401l6.93-7.128l0.239-0.31c-5.844-5.656-13.762-8.766-23.565-8.766
						c-13.762,0-22.905,8.012-22.905,18.381c0,13.29,12.065,16.306,22.34,18.852c7.635,1.979,14.327,3.676,14.327,9.332
						c0,4.148-3.582,8.577-12.631,8.577c-8.015,0-14.369-3.391-18.714-7.502l-7.205,7.41c5.562,5.885,13.919,9.895,25.448,9.895
						c16.966,0,24.318-8.955,24.318-19.418C963.579,64.475,951.231,61.27,940.862,58.631z"/>
				</g>
			</g>
		</g>
		<g>
			<g>
				<g>
					<g>
						<path class="st0" d="M975.398,38.883h-1.356v2.336h-0.765v-5.775h1.912c0.65,0,1.151,0.148,1.501,0.444
							c0.351,0.296,0.526,0.727,0.526,1.293c0,0.36-0.097,0.673-0.292,0.94c-0.194,0.267-0.465,0.467-0.811,0.599l1.356,2.451v0.048
							h-0.817L975.398,38.883z M974.041,38.26h1.17c0.378,0,0.679-0.098,0.902-0.294c0.223-0.196,0.335-0.458,0.335-0.787
							c0-0.358-0.107-0.632-0.319-0.822c-0.213-0.191-0.52-0.287-0.922-0.29h-1.166V38.26z"/>
					</g>
				</g>
				<g>
					<path class="st0" d="M975.034,43.422c-2.738,0-4.966-2.228-4.966-4.967c0-2.738,2.228-4.966,4.966-4.966
						c2.738,0,4.966,2.228,4.966,4.966C980,41.194,977.772,43.422,975.034,43.422z M975.034,34.196c-2.349,0-4.26,1.911-4.26,4.26
						c0,2.349,1.911,4.261,4.26,4.261s4.26-1.911,4.26-4.261C979.294,36.107,977.383,34.196,975.034,34.196z"/>
				</g>
			</g>
		</g>
		<g>
			<path class="st0" d="M940.862,58.631c-7.447-1.886-13.856-3.488-13.856-8.389c0-4.713,4.147-7.824,10.651-7.824
				c6.231,0,12.527,2.048,17.339,6.401l6.93-7.128l0.239-0.31c-5.844-5.656-13.762-8.766-23.565-8.766
				c-13.762,0-22.905,8.012-22.905,18.381c0,13.29,12.065,16.306,22.34,18.852c7.635,1.979,14.327,3.676,14.327,9.332
				c0,4.148-3.582,8.577-12.631,8.577c-8.015,0-14.369-3.391-18.714-7.502l-7.205,7.41c5.562,5.885,13.919,9.895,25.448,9.895
				c16.966,0,24.318-8.955,24.318-19.418C963.579,64.475,951.231,61.27,940.862,58.631z"/>
		</g>
		<g>
			<g>
				<g>
					<g>
						<path class="st0" d="M975.398,38.883h-1.356v2.336h-0.765v-5.775h1.912c0.65,0,1.151,0.148,1.501,0.444
							c0.351,0.296,0.526,0.727,0.526,1.293c0,0.36-0.097,0.673-0.292,0.94c-0.194,0.267-0.465,0.467-0.811,0.599l1.356,2.451v0.048
							h-0.817L975.398,38.883z M974.041,38.26h1.17c0.378,0,0.679-0.098,0.902-0.294c0.223-0.196,0.335-0.458,0.335-0.787
							c0-0.358-0.107-0.632-0.319-0.822c-0.213-0.191-0.52-0.287-0.922-0.29h-1.166V38.26z"/>
					</g>
				</g>
				<g>
					<path class="st0" d="M975.034,43.422c-2.738,0-4.966-2.228-4.966-4.967c0-2.738,2.228-4.966,4.966-4.966
						c2.738,0,4.966,2.228,4.966,4.966C980,41.194,977.772,43.422,975.034,43.422z M975.034,34.196c-2.349,0-4.26,1.911-4.26,4.26
						c0,2.349,1.911,4.261,4.26,4.261s4.26-1.911,4.26-4.261C979.294,36.107,977.383,34.196,975.034,34.196z"/>
				</g>
			</g>
		</g>
	</g>
	<g>
		<g>
			<g>
				<g>
					<g>
						<path class="st0" d="M112.745,94.791c0.57-0.153,1.123-0.305,1.692-0.469c12.49-3.522,24.64-8.4,36.713-13.453
							c11.82-4.946,23.509-10.885,33.78-19.244c10.54-8.574,19.017-19.681,23.697-33.456c0.659-1.917,2.006-4.682,2.136-6.785
							c-16.412,22.442-81.517,24.758-81.517,24.758l15.364-14.095C82.847,32.165,39.747,58.381,20,72.401
							c25.271,2.711,48.147,13.414,66.057,29.532C94.869,99.204,103.864,97.233,112.745,94.791z"/>
					</g>
					<g>
						<path class="st0" d="M214.849,92.587c0,0-60.073-4.594-122.474,15.499c8.279,8.649,15.257,18.542,20.605,29.39
							C145.789,119.213,191.284,95.88,214.849,92.587z"/>
					</g>
					<g>
						<path class="st0" d="M117.092,146.852c3.81,9.797,6.365,20.219,7.425,31.075l57.186-58.815L117.092,146.852z"/>
					</g>
				</g>
			</g>
		</g>
	</g>
	<g>
		<g>
			<g>
				<g>
					<path class="st0" d="M147.408,170.852h-2.409v6.686h-0.983v-6.686h-2.404v-0.808h5.796V170.852z"/>
				</g>
				<g>
					<path class="st0" d="M149.796,170.044l2.45,6.115l2.45-6.115h1.282v7.494h-0.988v-2.918l0.093-3.15l-2.46,6.068h-0.757
						l-2.455-6.053l0.098,3.135v2.918h-0.988v-7.494H149.796z"/>
				</g>
			</g>
		</g>
	</g>
	<g>
		<path class="st0" d="M117.092,146.852c3.81,9.797,6.365,20.219,7.425,31.075l57.186-58.815L117.092,146.852z"/>
	</g>
</g>
</svg>
