<?xml version="1.0" encoding="UTF-8"?>
<svg version="1.1" xmlns="http://www.w3.org/2000/svg" width="500" height="500">
<path d="M0 0 C1.8458257 -0.00542866 3.69164707 -0.01255548 5.53746033 -0.02124023 C10.52303496 -0.03938804 15.5082764 -0.03244149 20.49385643 -0.01972389 C25.72707347 -0.00955179 30.9602632 -0.01900122 36.19348145 -0.02526855 C44.97946256 -0.03253273 53.76530891 -0.02298957 62.55126953 -0.00390625 C72.68915054 0.01786007 82.8267097 0.01080783 92.96458292 -0.01121187 C101.69019771 -0.02940095 110.41571596 -0.03190706 119.14134359 -0.0214572 C124.34339258 -0.01524154 129.5452906 -0.01433339 134.74732971 -0.02760315 C139.63948594 -0.03921218 144.53122977 -0.03104406 149.42334175 -0.00802612 C151.21188741 -0.00276593 153.00046816 -0.00420637 154.78899956 -0.01307678 C163.39622284 -0.05180877 171.24558099 -0.03519826 179.2755661 3.52191925 C183.61425949 5.39962408 188.29477211 6.21253811 192.88867188 7.26757812 C229.37500425 16.11120649 262.78725959 33.54114073 291.57617188 57.51757812 C292.10178711 57.95295898 292.62740234 58.38833984 293.16894531 58.83691406 C305.5071365 69.09175979 316.68862364 79.84258278 326.57617188 92.51757812 C327.36507813 93.50113281 328.15398437 94.4846875 328.96679688 95.49804688 C360.4950756 135.12378649 381.51402077 187.18315573 381.77929688 238.24804688 C381.78631119 239.15273712 381.7933255 240.05742737 381.80055237 240.98953247 C381.81797237 243.89476548 381.82440509 246.7997948 381.82617188 249.70507812 C381.82684662 250.69655853 381.82752136 251.68803894 381.82821655 252.70956421 C381.81286437 266.87905762 381.41373751 280.59507349 378.57617188 294.51757812 C378.23233507 296.37303079 377.88858897 298.22850027 377.54492188 300.08398438 C371.2495328 332.54167355 358.141228 365.6824465 338.57617188 392.51757812 C338.14224121 393.11844238 337.70831055 393.71930664 337.26123047 394.33837891 C329.96198151 404.41209367 322.39370508 414.70004492 313.57617188 423.51757812 C313.48482667 425.01956387 313.46154407 426.52576355 313.46606445 428.03051758 C313.46548538 428.99274734 313.46490631 429.95497711 313.46430969 430.94636536 C313.46641953 431.99724838 313.46852936 433.04813141 313.47070312 434.13085938 C313.45723183 436.35157212 313.44220595 438.57227588 313.42578125 440.79296875 C313.40306887 444.29726974 313.38856613 447.80056797 313.40112305 451.30493164 C313.44171766 466.7341771 313.4053553 477.80332463 302.95117188 489.89257812 C295.96500529 496.35275919 286.95089449 500.63299017 277.41387844 500.6517992 C275.83935458 500.65848597 275.83935458 500.65848597 274.23302215 500.66530782 C272.50499102 500.66503128 272.50499102 500.66503128 270.74205017 500.66474915 C269.51724443 500.66842583 268.2924387 500.67210252 267.03051764 500.67589062 C263.62890456 500.6850107 260.22733971 500.68962568 256.825719 500.69227993 C253.15750704 500.69618624 249.48930901 500.70576441 245.82110596 500.7144928 C236.96094818 500.73424885 228.10078928 500.74432271 219.24061498 500.75322059 C215.06647676 500.75760523 210.89233981 500.76297162 206.71820259 500.76820946 C192.83913785 500.78522151 178.96007389 500.7997149 165.08100033 500.8069582 C161.47986284 500.80886804 157.87872536 500.81078838 154.27758789 500.81274414 C152.93504645 500.81346975 152.93504645 500.81346975 151.56538296 500.81421002 C137.07184335 500.82250741 122.57838634 500.8478395 108.08488279 500.88032482 C93.19904803 500.91341699 78.31325522 500.93140894 63.42738348 500.93460244 C55.07184162 500.93676563 46.7164202 500.94548616 38.36091423 500.97106361 C31.24374509 500.99280018 24.12672565 501.00080657 17.00952708 500.99109683 C13.380767 500.98656053 9.75231559 500.98839875 6.1235981 501.00785828 C2.18199812 501.02881228 -1.75917973 501.01847745 -5.70082092 501.00532532 C-6.83722663 501.01629456 -7.97363233 501.02726381 -9.14447457 501.03856546 C-21.36726293 500.94035512 -30.43180475 497.02789634 -39.29492188 488.77539062 C-49.53029376 478.16582234 -49.86071746 467.29633693 -49.68164062 453.34179688 C-49.6237259 450.17464649 -49.54857569 447.01012099 -49.44140625 443.84423828 C-48.54250699 430.05097077 -48.54250699 430.05097077 -54.11593628 418.01435852 C-56.43864337 415.69558257 -58.90006503 413.61696435 -61.42382812 411.51757812 C-63.27587891 409.39306641 -63.27587891 409.39306641 -64.73632812 407.44335938 C-65.18540527 406.84869873 -65.63448242 406.25403809 -66.09716797 405.64135742 C-66.75386475 404.74477417 -66.75386475 404.74477417 -67.42382812 403.83007812 C-67.91963379 403.1569458 -68.41543945 402.48381348 -68.92626953 401.7902832 C-70.44183194 399.7105386 -71.93751106 397.61830585 -73.42382812 395.51757812 C-74.10396973 394.55803223 -74.10396973 394.55803223 -74.79785156 393.57910156 C-93.64620632 366.60764286 -106.06790262 336.46171148 -113.42382812 304.51757812 C-113.67471191 303.43742432 -113.67471191 303.43742432 -113.93066406 302.33544922 C-117.82966745 285.2175666 -118.80447449 268.31046002 -118.73632812 250.83007812 C-118.73450531 249.85857819 -118.7326825 248.88707825 -118.73080444 247.88613892 C-118.6865244 233.8727298 -118.22032112 220.28620997 -115.42382812 206.51757812 C-115.09139328 204.69733929 -114.75937922 202.87702356 -114.42773438 201.05664062 C-106.54031931 159.8317984 -86.68351358 113.2950695 -55.69000244 83.87158203 C-51.13701903 79.33065655 -49.630428 76.17645534 -49.60653687 69.75311279 C-49.63647736 68.8039801 -49.66641785 67.85484741 -49.69726562 66.87695312 C-49.69683258 65.87351868 -49.69639954 64.87008423 -49.69595337 63.83624268 C-49.69728561 60.64548528 -49.74376553 57.45782755 -49.79882812 54.26757812 C-50.22894738 23.5935297 -50.22894738 23.5935297 -39.29492188 12.25976562 C-27.35841207 1.1456041 -15.65923081 -0.07766366 0 0 Z " fill="#E34650" transform="translate(118.423828125,-0.517578125)"/>
<path d="M0 0 C34.92236959 7.67796778 68.099335 20.58659445 97 42 C97.88123535 42.64799561 97.88123535 42.64799561 98.78027344 43.30908203 C105.38969208 48.19486797 111.6843493 53.34609024 117.734375 58.91796875 C119.80892036 60.8244044 121.92265931 62.6676561 124.0625 64.5 C132.23352053 71.65374488 139.28455737 79.47786469 146 88 C146.79277344 88.98742187 147.58554687 89.97484375 148.40234375 90.9921875 C179.81977543 130.79752748 200.93721825 182.54418042 201.203125 233.73046875 C201.21013931 234.635159 201.21715363 235.53984924 201.22438049 236.47195435 C201.2418005 239.37718735 201.24823321 242.28221668 201.25 245.1875 C201.25067474 246.17898041 201.25134949 247.17046082 201.25204468 248.19198608 C201.23669249 262.3614795 200.83756564 276.07749536 198 290 C197.6561632 291.85545267 197.3124171 293.71092214 196.96875 295.56640625 C190.67336093 328.02409542 177.56505613 361.16486837 158 388 C157.56606934 388.60086426 157.13213867 389.20172852 156.68505859 389.82080078 C151.18085865 397.41716318 145.46486681 404.80053192 139.375 411.9375 C138.86614258 412.53481934 138.35728516 413.13213867 137.83300781 413.74755859 C134.25853678 417.87073161 134.25853678 417.87073161 132 419 C131.99864347 418.41517792 131.99728694 417.83035584 131.99588931 417.22781187 C131.91521564 382.556145 131.82425137 347.88452074 131.71994839 313.21291682 C131.70742972 309.04860167 131.69499691 304.88428627 131.68261719 300.7199707 C131.68015119 299.89094059 131.6776852 299.06191048 131.67514448 298.20775824 C131.63543538 284.78934035 131.60267986 271.37091406 131.57250018 257.95247174 C131.54137136 244.18094193 131.50275583 230.40944774 131.45720994 216.63795799 C131.42934769 208.14221299 131.40730484 199.64649401 131.39273749 191.15071564 C131.38218442 185.3225511 131.36435036 179.49443697 131.34083296 173.66631044 C131.32748424 170.30524578 131.31838596 166.94431378 131.31578636 163.58321381 C131.31245858 159.93412644 131.29696653 156.28528324 131.2784729 152.63624573 C131.281375 151.05304365 131.281375 151.05304365 131.28433573 149.43785769 C131.1490278 131.56165308 123.14817587 121.52668673 110.75976562 109.25805664 C109.63626585 108.13076463 108.51362484 107.00261619 107.39176941 105.87368774 C104.36997755 102.8380477 101.33591253 99.81496822 98.29891777 96.79454732 C95.11014545 93.61971961 91.93163517 90.43464495 88.75158691 87.25108337 C83.41575461 81.91255772 78.07193414 76.58213325 72.72314453 71.2565918 C66.5487802 65.10887935 60.38699271 58.94877833 54.23180819 52.78186709 C48.29234942 46.83161566 42.34442291 40.88989975 36.39250183 34.95211601 C33.86683933 32.43219556 31.34409818 29.90940364 28.82368469 27.38423347 C25.85592313 24.41168609 22.88077918 21.44672639 19.8998661 18.48736954 C18.81011756 17.40316539 17.72287608 16.31643436 16.63840294 15.22695351 C9.08129401 7.60427932 9.08129401 7.60427932 0 2 C0 1.34 0 0.68 0 0 Z " fill="#000000" transform="translate(299,4)"/>
<path d="M0 0 C0.33 0 0.66 0 1 0 C1 114.18 1 228.36 1 346 C-4.93200779 341.05666017 -9.32092866 336.05122823 -14 330 C-14.52158691 329.33162109 -15.04317383 328.66324219 -15.58056641 327.97460938 C-43.58640371 291.86416289 -61.18822297 249.31449647 -67 204 C-67.13099342 202.99218979 -67.13099342 202.99218979 -67.26463318 201.96401978 C-67.94055995 196.38546354 -68.17394817 190.88598719 -68.203125 185.26953125 C-68.21013931 184.364841 -68.21715363 183.46015076 -68.22438049 182.52804565 C-68.2418005 179.62281265 -68.24823321 176.71778332 -68.25 173.8125 C-68.25067474 172.82101959 -68.25134949 171.82953918 -68.25204468 170.80801392 C-68.2366899 156.63612705 -67.82842533 142.9258518 -65 129 C-64.66756516 127.17976116 -64.33555109 125.35944544 -64.00390625 123.5390625 C-55.20292498 77.53931971 -32.5266945 33.7851678 0 0 Z " fill="#000000" transform="translate(68,77)"/>
<path d="M0 0 C52.36807818 0 52.36807818 0 66 9 C66.86625 9.556875 67.7325 10.11375 68.625 10.6875 C77.6612011 19.48590633 82.05176617 29.57664037 82.24169922 42.04370117 C82.28628671 56.24481726 80.24852369 65.79772319 70.625 76.6875 C49.16390645 95.59370146 31.45828229 90 0 90 C0 60.3 0 30.6 0 0 Z " fill="#FEFDFD" transform="translate(215,242)"/>
<path d="M0 0 C53.37408313 0 53.37408313 0 63.72265625 9.59765625 C70.42049995 16.82211174 71.59285035 23.87236346 71.34375 33.59765625 C70.51145651 41.83547023 66.31189733 48.68410849 60 54 C51.38588857 58.98061249 43.94741444 60.15638528 34.1875 60.0625 C31.155625 60.041875 28.12375 60.02125 25 60 C25 69.9 25 79.8 25 90 C16.75 90 8.5 90 0 90 C0 60.3 0 30.6 0 0 Z " fill="#FEFDFD" transform="translate(134,242)"/>
<path d="M0 0 C0.66 0 1.32 0 2 0 C3.42018127 1.43894958 3.42018127 1.43894958 5.08032227 3.44702148 C9.07651874 8.14313389 13.35062459 12.49491038 17.71484375 16.84765625 C18.52941544 17.66318466 19.34398712 18.47871307 20.1832428 19.31895447 C21.89559193 21.03198008 23.60918842 22.74375965 25.32397461 24.4543457 C27.93002015 27.05503552 30.53068522 29.66101956 33.13085938 32.26757812 C34.80436699 33.94042486 36.47818482 35.61296134 38.15234375 37.28515625 C39.30427467 38.44012352 39.30427467 38.44012352 40.47947693 39.61842346 C43.88574725 43.01013677 47.31370199 46.32060489 50.95727539 49.45727539 C55.70363939 53.54963112 60.10695985 57.96340463 64.53125 62.3984375 C65.84603333 63.71178574 65.84603333 63.71178574 67.18737793 65.05166626 C69.02393355 66.8875455 70.8592435 68.72467164 72.69335938 70.56298828 C74.57699975 72.4502334 76.46191165 74.33606586 78.34960938 76.21923828 C81.07949332 78.94298235 83.80593553 81.67012213 86.53125 84.3984375 C87.38110474 85.24626801 88.23095947 86.09409851 89.10656738 86.96762085 C90.2690802 88.13486191 90.2690802 88.13486191 91.45507812 89.32568359 C92.14154419 90.01294525 92.82801025 90.70020691 93.53527832 91.40829468 C95 93 95 93 95 94 C84.28181018 94.06955903 73.5636742 94.12284132 62.84530449 94.15543652 C57.86814263 94.17108183 52.89113538 94.19229949 47.9140625 94.22631836 C43.10948291 94.25895211 38.30505191 94.27686155 33.50037003 94.28463173 C31.66877021 94.29016801 29.83717838 94.30097907 28.00564194 94.31719017 C25.43701454 94.33901789 22.86899843 94.3419647 20.30029297 94.34057617 C19.54575333 94.351362 18.79121368 94.36214783 18.0138092 94.3732605 C12.56701576 94.34147191 8.42844662 93.2150202 4.35546875 89.5 C0.28622686 84.27395021 -0.14410247 80.56148997 -0.11352539 74.13208008 C-0.11367142 73.33184921 -0.11381744 72.53161835 -0.1139679 71.70713806 C-0.11327105 69.06124158 -0.10548929 66.41541544 -0.09765625 63.76953125 C-0.09579126 61.93535907 -0.09436774 60.1011864 -0.09336853 58.26701355 C-0.08954972 53.43863551 -0.07972484 48.61028754 -0.06866455 43.78192139 C-0.05843677 38.85526944 -0.05386798 33.92861263 -0.04882812 29.00195312 C-0.03810203 19.33462221 -0.02103321 9.6673136 0 0 Z " fill="#FEFDFD" transform="translate(305,32)"/>
<path d="M0 0 C20.46 0 40.92 0 62 0 C62 6.6 62 13.2 62 20 C50.12 20 38.24 20 26 20 C26 25.28 26 30.56 26 36 C34.58 36 43.16 36 52 36 C52 42.27 52 48.54 52 55 C43.42 55 34.84 55 26 55 C26 66.55 26 78.1 26 90 C17.42 90 8.84 90 0 90 C0 60.3 0 30.6 0 0 Z " fill="#FEF9FA" transform="translate(308,242)"/>
<path d="M0 0 C19.62337662 0 19.62337662 0 25.03125 4.8046875 C31.11250465 11.40932882 32.47981894 16.7932493 32.30859375 25.70703125 C31.69821838 32.22027727 29.4633039 36.96287292 24.6875 41.4375 C16.86435127 47.3706023 10.15843046 46 0 46 C0 30.82 0 15.64 0 0 Z " fill="#E44751" transform="translate(240,264)"/>
<path d="M0 0 C14.01243339 -0.57193606 14.01243339 -0.57193606 19 4 C20.64965169 5.64965169 20.24949498 7.5476355 20.3125 9.8125 C20.27132368 14.61640446 20.27132368 14.61640446 18.1875 17.5625 C12.66089176 21.19427113 6.37436673 20.06311254 0 20 C0 13.4 0 6.8 0 0 Z " fill="#E44C55" transform="translate(159,262)"/>
<path d="M0 0 C2.31 0 4.62 0 7 0 C8.32 2.97 9.64 5.94 11 9 C13.6465335 6.3534665 14.59941997 3.43778736 16 0 C18.31 0 20.62 0 23 0 C23 6.27 23 12.54 23 19 C21.02 19 19.04 19 17 19 C16.505 16.525 16.505 16.525 16 14 C15.34 15.65 14.68 17.3 14 19 C12.35 19 10.7 19 9 19 C8.34 17.02 7.68 15.04 7 13 C6.67 14.98 6.34 16.96 6 19 C4.02 19 2.04 19 0 19 C0 12.73 0 6.46 0 0 Z " fill="#FBF1F1" transform="translate(138,357)"/>
<path d="M0 0 C1.98 0 3.96 0 6 0 C6 5.28 6 10.56 6 16 C-6.50308476 16.37137876 -6.50308476 16.37137876 -8.85546875 14.61328125 C-11.18738122 11.32631931 -11.32093553 9.01169416 -11 5 C-9.9375 2.625 -9.9375 2.625 -8 1 C-4.375 0.8125 -4.375 0.8125 -1 1 C-0.67 0.67 -0.34 0.34 0 0 Z " fill="#FAEEEF" transform="translate(174,360)"/>
<path d="M0 0 C1.98 0 3.96 0 6 0 C6.33 2.64 6.66 5.28 7 8 C7.66 7.01 8.32 6.02 9 5 C12.625 4.8125 12.625 4.8125 16 5 C15.319375 5.9075 14.63875 6.815 13.9375 7.75 C11.79522334 10.68292566 11.79522334 10.68292566 12.0625 13.1875 C13.10465027 15.20232385 14.37022067 16.44108064 16 18 C16 18.66 16 19.32 16 20 C13.1875 20.25 13.1875 20.25 10 20 C8.125 18 8.125 18 7 16 C6.67 17.32 6.34 18.64 6 20 C4.02 20 2.04 20 0 20 C0 13.4 0 6.8 0 0 Z " fill="#FBEFF0" transform="translate(182,356)"/>
<path d="M0 0 C2.5 1.75 2.5 1.75 4 4 C4 5.32 4 6.64 4 8 C0.7 8 -2.6 8 -6 8 C-5.67 8.66 -5.34 9.32 -5 10 C-2.36 10 0.28 10 3 10 C1.125 13.875 1.125 13.875 0 15 C-7.12881806 15.70119522 -7.12881806 15.70119522 -10.5625 12.9375 C-12.43625505 9.10852228 -12.12962701 7.06665724 -11 3 C-8.72378896 -1.15073778 -4.21857976 -0.77241601 0 0 Z " fill="#FAEDEE" transform="translate(211,361)"/>
<path d="M0 0 C3.33333333 0 6.66666667 0 10 0 C10 1.65 10 3.3 10 5 C9.360625 5.165 8.72125 5.33 8.0625 5.5 C5.83880759 6.781786 5.83880759 6.781786 5.51171875 8.9140625 C5.2724022 10.93575155 5.13106972 12.96841939 5 15 C3.35 15 1.7 15 0 15 C0 10.05 0 5.1 0 0 Z " fill="#FCFAFA" transform="translate(217,361)"/>
<path d="M0 0 C2.0625 0.4375 2.0625 0.4375 4 1 C3.67 2.65 3.34 4.3 3 6 C1.68 6 0.36 6 -1 6 C-1.042721 4.33388095 -1.04063832 2.66617115 -1 1 C-0.67 0.67 -0.34 0.34 0 0 Z " fill="#E6545E" transform="translate(170,365)"/>
<path d="M0 0 C3.3 0 6.6 0 10 0 C9.67 0.99 9.34 1.98 9 3 C6.36 3 3.72 3 1 3 C0.67 2.01 0.34 1.02 0 0 Z " fill="#EC8289" transform="translate(205,369)"/>
</svg>
