<svg xmlns="http://www.w3.org/2000/svg" width="800" height="800" viewBox="0 0 32 32"><path d="M32 16.77v-2.933c0-2.482-2.482-3.835-4.512-3.835a6.75 6.75 0 0 0-3.836 1.579 5.07 5.07 0 0 0-3.61-1.58 5.94 5.94 0 0 0-3.835 1.58 3.82 3.82 0 0 0-3.384-1.58 3.49 3.49 0 0 0-3.341 1.822l-2.976 6.752L3.2 11.001a1.67 1.67 0 0 0-2.188-.866 1.67 1.67 0 0 0-.86 2.235l4.097 8.912s.677 1.58 2.03 1.58a1.91 1.91 0 0 0 2.031-1.128c.312-.47 2.681-5.45 4.108-8.47a.568.568 0 0 1 1.081.244v7.487a1.846 1.846 0 0 0 1.685 1.863 1.805 1.805 0 0 0 1.925-1.801v-6.205a1.918 1.918 0 0 1 3.835 0v6.205a1.805 1.805 0 0 0 3.61 0v-6.205a1.918 1.918 0 0 1 3.836 0v6.205a1.805 1.805 0 0 0 3.61 0Z"/><path d="M0 0h32v32H0z" data-name="&lt;Transparent Rectangle&gt;" style="fill:none"/></svg>