<svg width="40" height="40" viewBox="0 0 40 40" fill="none" xmlns="http://www.w3.org/2000/svg">
<path d="M40 20.4739V16.8078C40 13.7055 36.8977 12.0143 34.3603 12.0143C32.5945 12.1526 30.917 12.8431 29.5655 13.988C28.9833 13.3743 28.284 12.8834 27.5091 12.5442C26.7341 12.205 25.8991 12.0244 25.0532 12.0131C23.27 12.074 21.5683 12.7751 20.2597 13.988C19.7826 13.3243 19.1432 12.7941 18.4026 12.4484C17.662 12.1026 16.845 11.9527 16.0299 12.0131C15.1881 11.9478 14.3454 12.1282 13.6042 12.5325C12.8629 12.9367 12.2549 13.5474 11.8538 14.2904L8.13402 22.73L4.00172 13.263C3.781 12.7581 3.36964 12.361 2.85732 12.1583C2.345 11.9555 1.77329 11.9635 1.26685 12.1805C1.01025 12.2902 0.778249 12.4503 0.58457 12.6512C0.390891 12.8521 0.239465 13.0898 0.139247 13.3503C0.0390284 13.6107 -0.0079476 13.8886 0.00109657 14.1676C0.0101407 14.4465 0.0750215 14.7207 0.191902 14.9742L5.31291 26.1136C5.31291 26.1136 6.15912 28.0885 7.85029 28.0885C8.36958 28.1653 8.8997 28.0688 9.35861 27.8139C9.81752 27.559 10.1796 27.16 10.3889 26.6786C10.7789 26.0911 13.74 19.8664 15.5237 16.0916C15.5929 15.946 15.7095 15.8284 15.8544 15.7579C15.9994 15.6874 16.164 15.6684 16.3212 15.7038C16.4784 15.7393 16.6189 15.8272 16.7195 15.9531C16.8201 16.079 16.8749 16.2354 16.8749 16.3966V25.7549C16.8673 26.3372 17.0802 26.9008 17.4708 27.3327C17.8614 27.7646 18.4009 28.0328 18.981 28.0835C19.2892 28.1041 19.5984 28.0611 19.8893 27.9573C20.1803 27.8534 20.4468 27.6909 20.6724 27.4799C20.898 27.2688 21.0778 27.0137 21.2008 26.7303C21.3237 26.4469 21.3871 26.1413 21.3871 25.8324V18.0765C21.4014 17.4503 21.6602 16.8546 22.1082 16.4168C22.5561 15.979 23.1576 15.7339 23.7839 15.7339C24.4102 15.7339 25.0117 15.979 25.4596 16.4168C25.9076 16.8546 26.1664 17.4503 26.1807 18.0765V25.8324C26.1807 26.4308 26.4184 27.0046 26.8415 27.4277C27.2646 27.8508 27.8384 28.0885 28.4368 28.0885C29.0352 28.0885 29.609 27.8508 30.0321 27.4277C30.4552 27.0046 30.6929 26.4308 30.6929 25.8324V18.0765C30.6929 17.4407 30.9455 16.8309 31.3951 16.3813C31.8447 15.9317 32.4545 15.6791 33.0903 15.6791C33.7262 15.6791 34.3359 15.9317 34.7855 16.3813C35.2351 16.8309 35.4877 17.4407 35.4877 18.0765V25.8324C35.4877 26.4308 35.7254 27.0046 36.1485 27.4277C36.5716 27.8508 37.1455 28.0885 37.7439 28.0885C38.3422 28.0885 38.9161 27.8508 39.3392 27.4277C39.7623 27.0046 40 26.4308 40 25.8324V20.4739Z" fill="white"/>
</svg>
