<svg width="40" height="40" viewBox="0 0 40 40" fill="none" xmlns="http://www.w3.org/2000/svg">
<path d="M7.88786 21.411C7.71986 21.309 7.50586 21.427 7.50586 21.623V26.903C7.50586 29.151 13.1039 30.985 20.0059 30.985C26.9079 30.985 32.5059 29.151 32.5059 26.903V21.623C32.5059 21.427 32.2919 21.309 32.1239 21.411C29.3719 23.091 24.6819 23.875 20.0059 23.875C15.3299 23.875 10.6399 23.089 7.88786 21.411Z" fill="#F4F6FA"/>
<path d="M7.88791 30.339C7.71991 30.237 7.50591 30.355 7.50591 30.551V35.831C7.50591 38.079 13.1039 39.913 20.0059 39.913C26.9079 39.913 32.5059 38.079 32.5059 35.831V30.551C32.5059 30.355 32.2919 30.237 32.1239 30.339C29.3719 32.019 24.6819 32.803 20.0059 32.803C15.3299 32.803 10.6399 32.019 7.88791 30.339ZM21.9019 16.965C21.2859 17.155 20.6479 17.251 20.0059 17.251C19.3559 17.251 18.7139 17.155 18.0979 16.967L7.92991 13.843C7.80991 13.807 7.67791 13.863 7.62791 13.977C7.54591 14.165 7.50391 14.355 7.50391 14.549V17.975C7.50391 20.223 13.1019 22.057 20.0039 22.057C26.9059 22.057 32.5039 20.223 32.5039 17.975V14.549C32.5039 14.353 32.4619 14.161 32.3799 13.973C32.3299 13.859 32.1979 13.803 32.0779 13.839L21.9019 16.965Z" fill="#F4F6FA"/>
<path d="M38.896 6.57498L21.462 1.21898C20.5092 0.927008 19.4908 0.927008 18.538 1.21898L1.104 6.57498C-0.368 7.02698 -0.368 8.97298 1.104 9.42498L4.144 10.359C3.478 11.183 3.068 12.189 3.026 13.291C2.424 13.635 2 14.257 2 15.001C2 15.675 2.356 16.241 2.866 16.605L1.27 23.785C1.132 24.409 1.606 25.001 2.246 25.001H5.752C6.392 25.001 6.868 24.409 6.728 23.785L5.132 16.605C5.644 16.243 5.998 15.675 5.998 15.001C5.998 14.277 5.594 13.673 5.02 13.321C5.068 12.383 5.548 11.553 6.314 11.025L18.538 14.781C19.104 14.955 20.19 15.171 21.462 14.781L38.896 9.42498C40.368 8.97298 40.368 7.02898 38.896 6.57498Z" fill="#FF6D5A"/>
</svg>
