<svg xmlns="http://www.w3.org/2000/svg" width="200" height="200" fill="none"><g clip-path="url(#a)"><path fill="#717172" d="M39.44 104.77c-.84-.51-1.91.08-1.91 1.06v26.4c0 11.24 27.99 20.41 62.5 20.41s62.5-9.17 62.5-20.41v-26.4c0-.98-1.07-1.57-1.91-1.06-13.76 8.4-37.21 12.32-60.59 12.32s-46.83-3.93-60.59-12.32"/><path fill="#717172" d="M39.44 149.41c-.84-.51-1.91.08-1.91 1.06v26.4c0 11.24 27.99 20.41 62.5 20.41s62.5-9.17 62.5-20.41v-26.4c0-.98-1.07-1.57-1.91-1.06-13.76 8.4-37.21 12.32-60.59 12.32s-46.83-3.92-60.59-12.32M109.51 82.54c-3.08.95-6.27 1.43-9.48 1.43-3.25 0-6.46-.48-9.54-1.42L39.65 66.93c-.6-.18-1.26.1-1.51.67-.41.94-.62 1.89-.62 2.86v17.13c0 11.24 27.99 20.41 62.5 20.41s62.5-9.17 62.5-20.41V70.46c0-.98-.21-1.94-.62-2.88-.25-.57-.91-.85-1.51-.67z"/><path fill="#FF6D5A" d="M194.48 30.59 107.31 3.81a24.95 24.95 0 0 0-14.62 0L5.52 30.59c-7.36 2.26-7.36 11.99 0 14.25l15.2 4.67c-3.33 4.12-5.38 9.15-5.59 14.66C12.12 65.89 10 69 10 72.72c0 3.37 1.78 6.2 4.33 8.02l-7.98 35.9c-.69 3.12 1.68 6.08 4.88 6.08h17.53c3.2 0 5.58-2.96 4.88-6.08l-7.98-35.9c2.56-1.81 4.33-4.65 4.33-8.02 0-3.62-2.02-6.64-4.89-8.4.24-4.69 2.64-8.84 6.47-11.48l61.12 18.78c2.83.87 8.26 1.95 14.62 0l87.17-26.78c7.36-2.26 7.36-11.98 0-14.25"/></g><defs><clipPath id="a"><path fill="#fff" d="M0 0h200v200H0z"/></clipPath></defs></svg>