<svg xmlns="http://www.w3.org/2000/svg" viewBox="0 0 80 80"><defs><linearGradient id="a" x1="0%" x2="100%" y1="100%" y2="0%"><stop offset="0%" stop-color="#B0084D"/><stop offset="100%" stop-color="#FF4F8B"/></linearGradient></defs><g fill="none" fill-rule="evenodd"><path fill="url(#a)" d="M0 0h80v80H0z"/><path fill="#FFF" d="M40 22c-9.941 0-18 8.059-18 18s8.059 18 18 18 18-8.059 18-18-8.059-18-18-18zm0 34c-8.837 0-16-7.163-16-16s7.163-16 16-16 16 7.163 16 16-7.163 16-16 16z"/><circle cx="40" cy="40" r="6" fill="#FFF"/><path fill="#FFF" d="M40 28v4M40 48v4M28 40h4M48 40h4"/><path fill="#FFF" d="M32.93 32.93l2.83 2.83M44.24 44.24l2.83 2.83M47.07 32.93l-2.83 2.83M35.76 44.24l-2.83 2.83"/></g></svg>
