<svg xmlns="http://www.w3.org/2000/svg" width="600" height="191"><circle cx="527.5" cy="118.4" r="72.4" fill="#888"/><path d="M527.5 161.1c23.6 0 42.7-19.1 42.7-42.7s-19.1-42.7-42.7-42.7-42.7 19.1-42.7 42.7 19.1 42.7 42.7 42.7z" fill="#fff"/><circle cx="374" cy="118.4" r="72.4" fill="#888"/><path d="M374 161.1c23.6 0 42.7-19.1 42.7-42.7S397.6 75.7 374 75.7s-42.7 19.1-42.7 42.7 19.1 42.7 42.7 42.7z" fill="#fff"/><path d="M294.9 117.8v.6c0 40-32.4 72.4-72.4 72.4s-72.4-32.4-72.4-72.4S182.5 46 222.5 46c16.4 0 31.5 5.5 43.7 14.6V14.4A14.34 14.34 0 0 1 280.6 0c7.9 0 14.4 6.5 14.4 14.4v102.7c0 .2 0 .5-.1.7z" fill="#888"/><circle cx="222.5" cy="118.4" r="42.7" fill="#fff"/><circle cx="72.4" cy="118.2" r="72.4" fill="#9c5789"/><circle cx="71.7" cy="118.5" r="42.7" fill="#fff"/></svg>