<?xml version="1.0" encoding="UTF-8"?>
<svg version="1.1" xmlns="http://www.w3.org/2000/svg" width="300" height="300">
<path d="M0 0 C15.84734851 12.57333033 25.97590451 28.1237386 31.6015625 47.46484375 C31.80910156 48.13 32.01664063 48.79515625 32.23046875 49.48046875 C32.77677917 52.40179181 32.69373646 55.24744736 32.6640625 58.21484375 C32.65503906 59.3853125 32.64601562 60.55578125 32.63671875 61.76171875 C32.61931641 63.09976563 32.61931641 63.09976563 32.6015625 64.46484375 C33.19582031 64.490625 33.79007813 64.51640625 34.40234375 64.54296875 C47.68614432 65.4519691 58.32791252 70.67561898 67.4140625 80.33984375 C70.96797693 84.48092665 73.66125915 88.36909758 75.6015625 93.46484375 C75.89804687 94.17640625 76.19453125 94.88796875 76.5 95.62109375 C80.89032304 107.70455166 79.43045833 120.78413627 74.6015625 132.46484375 C73.390158 134.93676374 72.10644669 137.15377161 70.6015625 139.46484375 C69.9415625 139.46484375 69.2815625 139.46484375 68.6015625 139.46484375 C68.35277344 140.04363281 68.10398437 140.62242187 67.84765625 141.21875 C62.90917354 150.12040379 52.80949521 154.39553285 43.6015625 157.46484375 C40.66385453 157.58731708 37.74877963 157.65344396 34.81005859 157.67358398 C33.91033829 157.68336777 33.01061798 157.69315155 32.08363342 157.70323181 C29.09743722 157.73320506 26.11128645 157.7545907 23.125 157.7734375 C22.10087635 157.78000933 21.0767527 157.78658115 20.021595 157.79335213 C14.58797844 157.82597286 9.15438152 157.85040298 3.72070312 157.86987305 C-0.75062213 157.88759424 -5.22130577 157.92226198 -9.69238281 157.97241211 C-15.11002668 158.03310015 -20.52708173 158.063417 -25.94504929 158.07304573 C-27.9964724 158.0815291 -30.04788287 158.10016747 -32.09910965 158.12978935 C-46.79016765 158.33031134 -61.57250364 157.54484118 -73.3984375 147.71484375 C-76.37099373 144.7688282 -77.31220126 143.16705317 -77.8359375 138.90234375 C-77.78531382 133.33373881 -74.6948892 129.71468099 -71.3984375 125.46484375 C-70.6559375 124.45421875 -69.9134375 123.44359375 -69.1484375 122.40234375 C-68.5709375 121.76296875 -67.9934375 121.12359375 -67.3984375 120.46484375 C-66.7384375 120.46484375 -66.0784375 120.46484375 -65.3984375 120.46484375 C-64.68254054 106.57083389 -64.68254054 106.57083389 -68.4609375 93.43359375 C-69.74523985 90.73655881 -69.53227332 88.40923184 -69.3984375 85.46484375 C-65.97469723 86.06590038 -64.14753407 87.28614065 -61.5234375 89.52734375 C-51.66546799 97.39102008 -39.59519538 105.13242941 -26.5234375 104.46484375 C-22.1827486 103.75173057 -20.10741364 101.97057757 -17.3984375 98.46484375 C-14.19481314 93.98980711 -13.28482547 89.44656966 -12.2109375 84.15234375 C-12.03369141 83.31638672 -11.85644531 82.48042969 -11.67382812 81.61914062 C-11.24046127 79.56943252 -10.81831818 77.51735693 -10.3984375 75.46484375 C-9.4084375 75.46484375 -8.4184375 75.46484375 -7.3984375 75.46484375 C-5.8125685 78.63658175 -6.01977305 82.09998197 -5.8359375 85.58984375 C-5.79275391 86.34394531 -5.74957031 87.09804687 -5.70507812 87.875 C-5.5989543 89.73806263 -5.49818749 91.60142899 -5.3984375 93.46484375 C-0.24227027 87.53183675 3.57203929 81.4436486 4.6015625 73.46484375 C5.5915625 73.46484375 6.5815625 73.46484375 7.6015625 73.46484375 C7.90500565 87.84467727 7.19960811 99.39425883 0.6015625 112.46484375 C0.0653125 113.53863281 -0.4709375 114.61242187 -1.0234375 115.71875 C-2.06246672 117.79431077 -3.10866002 119.86631054 -4.1640625 121.93359375 C-6.67436437 127.08130139 -7.08413877 131.81244141 -6.3984375 137.46484375 C-4.20716934 140.56284356 -2.98787414 141.26836487 0.6015625 142.46484375 C3.44567337 142.58615131 6.2644421 142.65303026 9.109375 142.66796875 C10.36945877 142.67651886 10.36945877 142.67651886 11.65499878 142.6852417 C13.43535098 142.69468873 15.21572065 142.7012245 16.99609375 142.70507812 C19.69563198 142.71473313 22.39439207 142.74573766 25.09375 142.77734375 C26.82812051 142.78387939 28.56249643 142.78912765 30.296875 142.79296875 C31.49269699 142.81148895 31.49269699 142.81148895 32.712677 142.8303833 C43.57806419 142.78805966 51.45554161 138.45641263 59.6015625 131.46484375 C64.95195403 125.93037912 67.63468443 118.67008931 68.0390625 111.02734375 C67.66469929 102.41698997 63.71020045 95.59495398 57.8828125 89.44140625 C54.18291965 86.23567717 50.1388665 84.23567243 45.6015625 82.46484375 C44.76625 82.09488281 43.9309375 81.72492188 43.0703125 81.34375 C37.80606602 80.00990376 32.63192781 80.25707608 27.2265625 80.33984375 C25.55013672 80.35337891 25.55013672 80.35337891 23.83984375 80.3671875 C21.09352788 80.39066029 18.34765778 80.42349647 15.6015625 80.46484375 C15.56289063 78.61246094 15.56289063 78.61246094 15.5234375 76.72265625 C15.07774816 61.82834024 13.67256176 46.84621686 6.6015625 33.46484375 C6.32957031 32.84222656 6.05757812 32.21960938 5.77734375 31.578125 C-0.26450139 18.10016277 -11.06408139 6.79363279 -24.3984375 0.46484375 C-43.86767764 -6.35047554 -62.67680952 -5.79439224 -81.5859375 2.58984375 C-92.47334547 8.38446419 -100.39011104 17.65884152 -105.3984375 28.71484375 C-105.74583984 29.46757568 -106.09324219 30.22030762 -106.45117188 30.99584961 C-108.81446269 36.13090811 -111.13763368 41.283835 -113.3984375 46.46484375 C-115.01298828 46.50351563 -115.01298828 46.50351563 -116.66015625 46.54296875 C-133.37383765 47.11784402 -149.96179638 51.24606293 -162.42578125 63.14453125 C-171.35051675 73.64214093 -173.30071837 87.10340788 -172.3984375 100.46484375 C-171.49506396 109.52402629 -168.82943775 117.19927587 -163.0859375 124.33984375 C-158.38720478 128.05512079 -154.14498155 130.89203089 -147.9609375 130.58984375 C-138.58715234 128.94701542 -131.93562598 121.73019933 -126.3984375 114.46484375 C-124.2199346 111.22071172 -122.30737756 107.87219912 -120.3984375 104.46484375 C-119.55539063 103.15 -119.55539063 103.15 -118.6953125 101.80859375 C-114.54435887 95.05844486 -112.72823042 89.35948536 -114.3984375 81.46484375 C-115.74776997 78.39477164 -117.2018828 75.48907774 -118.8190918 72.55786133 C-121.94624112 66.80239642 -122.79055063 61.82710227 -122.2109375 55.37890625 C-120.93817928 52.38058159 -119.3688283 51.7054889 -116.3984375 50.46484375 C-114.52252046 50.51320251 -112.64347373 50.57064948 -110.77661133 50.76098633 C-105.42387392 51.2892378 -101.76185069 51.46158142 -97.3046875 48.203125 C-94.81376569 45.39333518 -92.61124186 42.49569038 -90.3984375 39.46484375 C-88.76586413 37.76476735 -87.10136674 36.09444111 -85.3984375 34.46484375 C-84.810625 33.89121094 -84.2228125 33.31757812 -83.6171875 32.7265625 C-75.66153809 25.43991089 -66.06846354 18.79284943 -55.3984375 16.46484375 C-54.66882813 16.28953125 -53.93921875 16.11421875 -53.1875 15.93359375 C-42.13490576 14.02417548 -29.52104468 18.28174333 -20.3984375 24.46484375 C-20.3984375 25.12484375 -20.3984375 25.78484375 -20.3984375 26.46484375 C-19.7384375 26.46484375 -19.0784375 26.46484375 -18.3984375 26.46484375 C-18.3984375 27.45484375 -18.3984375 28.44484375 -18.3984375 29.46484375 C-21.6582723 28.87681751 -24.60827343 28.04311011 -27.7109375 26.90234375 C-40.01269379 23.22826795 -51.94083935 24.97147477 -63.3984375 30.46484375 C-65.87966824 31.91666546 -68.21851404 33.42750719 -70.53125 35.1328125 C-72.3984375 36.46484375 -72.3984375 36.46484375 -74.515625 37.390625 C-76.90388594 38.75322201 -77.28703254 39.98451318 -78.3984375 42.46484375 C-80.05858065 44.67700494 -81.79957835 46.80941524 -83.546875 48.953125 C-92.86656533 61.59565851 -102.4510465 79.74050677 -101.84765625 95.63671875 C-100.62797807 103.31538834 -96.34674786 107.89986138 -90.3984375 112.46484375 C-90.3984375 113.12484375 -90.3984375 113.78484375 -90.3984375 114.46484375 C-98.51785833 114.17119381 -104.4425967 113.42068455 -110.3984375 107.46484375 C-112.3880258 111.43517773 -114.37359932 115.40681477 -116.328125 119.39453125 C-129.72025635 146.63801106 -129.72025635 146.63801106 -141.4375 151.80078125 C-146.66639296 153.57152189 -150.426861 152.66108774 -155.2734375 150.40234375 C-167.46721811 143.80661697 -177.21496967 134.45118308 -182.3984375 121.46484375 C-182.79160156 120.49546875 -183.18476563 119.52609375 -183.58984375 118.52734375 C-189.59864183 101.1081103 -187.73742394 82.30630148 -180.1640625 65.76953125 C-171.38133194 48.94546946 -157.20774492 37.58488066 -139.3984375 31.46484375 C-134.41980421 30.24558662 -129.49463239 30.36291985 -124.3984375 30.46484375 C-124.12 29.73523438 -123.8415625 29.005625 -123.5546875 28.25390625 C-119.72673162 19.02025592 -113.62038438 11.29711724 -106.3984375 4.46484375 C-105.7384375 4.46484375 -105.0784375 4.46484375 -104.3984375 4.46484375 C-103.9034375 2.97984375 -103.9034375 2.97984375 -103.3984375 1.46484375 C-72.88353506 -22.83310064 -30.969947 -23.56023188 0 0 Z M-9.3984375 106.46484375 C-11.7084375 107.78484375 -14.0184375 109.10484375 -16.3984375 110.46484375 C-15.4084375 110.79484375 -14.4184375 111.12484375 -13.3984375 111.46484375 C-13.3984375 114.10484375 -13.3984375 116.74484375 -13.3984375 119.46484375 C-11.23522583 116.22002624 -9.7669784 113.11428616 -8.3984375 109.46484375 C-8.7284375 108.47484375 -9.0584375 107.48484375 -9.3984375 106.46484375 Z M-24.0234375 112.46484375 C-25.02632812 112.65046875 -26.02921875 112.83609375 -27.0625 113.02734375 C-28.21878906 113.24390625 -28.21878906 113.24390625 -29.3984375 113.46484375 C-29.33852344 115.42403343 -29.24976612 117.38235904 -29.1484375 119.33984375 C-29.10203125 120.43039063 -29.055625 121.5209375 -29.0078125 122.64453125 C-28.70117562 125.56752615 -28.70117562 125.56752615 -26.48046875 126.8828125 C-24.40290184 127.65557449 -24.40290184 127.65557449 -22.3359375 126.90234375 C-19.13474654 124.52726659 -17.68119375 122.08525459 -16.9921875 118.13671875 C-16.74044729 115.91301357 -16.53953568 113.69808737 -16.3984375 111.46484375 C-19.02097341 111.46484375 -21.44541445 111.98521155 -24.0234375 112.46484375 Z M-14.3984375 119.46484375 C-13.3984375 121.46484375 -13.3984375 121.46484375 -13.3984375 121.46484375 Z " fill="#4199D4" transform="translate(203.3984375,77.53515625)"/>
<path d="M0 0 C1.59468098 1.59468098 1.28538976 3.22826282 1.375 5.4375 C1.30490095 11.57116671 -0.77633366 15.87804738 -4 21 C-4.43441406 21.72058594 -4.86882812 22.44117188 -5.31640625 23.18359375 C-7.32423863 26.02659287 -8.83642246 27.68944378 -12.25390625 28.6015625 C-20.30571846 29.08038701 -26.4765408 25.39895095 -32.9375 21 C-36.43900156 17.60460455 -37.94774379 15.46317391 -38.125 10.5 C-36.62281759 5.8265436 -34.2417685 4.22943344 -30 2 C-21.4739057 -1.8923474 -8.70173684 -4.35086842 0 0 Z " fill="#4199D4" transform="translate(204,118)"/>
<path d="M0 0 C0.7425 0.515625 1.485 1.03125 2.25 1.5625 C5.43762365 3.68758244 7.51512223 4.0645163 11.25 4.5625 C10.92 5.5525 10.59 6.5425 10.25 7.5625 C7.92615122 8.55255947 5.7112089 9.37139175 3.3125 10.125 C-1.63240703 11.5851661 -1.63240703 11.5851661 -5.75 14.5625 C-6.74 14.5625 -7.73 14.5625 -8.75 14.5625 C-8.9975 15.201875 -9.245 15.84125 -9.5 16.5 C-10.75 18.5625 -10.75 18.5625 -12.828125 19.19140625 C-13.46234375 19.31386719 -14.0965625 19.43632812 -14.75 19.5625 C-15.14149906 17.16833268 -15.51351777 14.77372464 -15.875 12.375 C-15.98714844 11.70146484 -16.09929687 11.02792969 -16.21484375 10.33398438 C-16.82813971 6.14312866 -16.86361496 3.28384831 -14.75 -0.4375 C-9.87574367 -3.50131827 -4.93215053 -2.57816959 0 0 Z " fill="#4199D4" transform="translate(148.75,118.4375)"/>
</svg>
