
<svg xmlns="http://www.w3.org/2000/svg" version="1.1" viewBox="0.00 0.00 311.00 320.00">
<g stroke-width="2.00" fill="none" stroke-linecap="butt">
<path stroke="#7e916f" vector-effect="non-scaling-stroke" d="   M 76.37 0.51   L 76.38 76.98"/>
<path stroke="#1375eb" vector-effect="non-scaling-stroke" d="   M 76.38 76.98   L 0.00 76.96"/>
<path stroke="#f3801d" vector-effect="non-scaling-stroke" d="   M 235.08 1.09   Q 234.92 1.15 234.81 1.22   Q 234.64 1.31 234.64 1.50   L 234.62 77.01"/>
<path stroke="#7eb426" vector-effect="non-scaling-stroke" d="   M 234.62 77.01   Q 234.60 77.01 234.57 77.01"/>
<path stroke="#91a080" vector-effect="non-scaling-stroke" d="   M 76.41 77.01   Q 76.40 77.00 76.38 76.98"/>
<path stroke="#75783e" vector-effect="non-scaling-stroke" d="   M 310.53 76.77   L 234.62 77.01"/>
<path stroke="#138495" vector-effect="non-scaling-stroke" d="   M 76.43 182.69   L 0.00 182.67"/>
<path stroke="#00983a" vector-effect="non-scaling-stroke" d="   M 76.44 259.13   L 76.43 220.85"/>
</g>
<path fill="#0066da" d="   M 76.37 0.51   L 76.38 76.98   L 0.00 76.96   L 0.00 20.77   Q 0.85 14.81 3.53 10.76   Q 10.14 0.74 22.75 0.67   Q 49.41 0.53 76.37 0.51   Z"/>
<path fill="#fbbc04" d="   M 76.37 0.51   L 233.79 0.53   A 1.61 1.57 -26.7 0 1 234.71 0.82   L 235.08 1.09   Q 234.92 1.15 234.81 1.22   Q 234.64 1.31 234.64 1.50   L 234.62 77.01   Q 234.60 77.01 234.57 77.01   L 76.41 77.01   Q 76.40 77.00 76.38 76.98   L 76.37 0.51   Z"/>
<path fill="#ea4335" d="   M 235.08 1.09   L 310.53 76.77   L 234.62 77.01   L 234.64 1.50   Q 234.64 1.31 234.81 1.22   Q 234.92 1.15 235.08 1.09   Z"/>
<path fill="#2684fc" d="   M 0.00 76.96   L 76.38 76.98   Q 76.40 77.00 76.41 77.01   L 76.43 182.69   L 0.00 182.67   L 0.00 76.96   Z"/>
<path fill="#00ac47" d="   M 310.53 76.77   L 311.00 77.11   L 311.00 239.01   Q 308.34 253.54 295.94 257.78   Q 291.52 259.30 282.91 259.28   Q 227.02 259.19 169.99 259.11   Q 161.71 259.10 153.19 259.23   Q 152.72 259.24 152.39 259.57   Q 124.49 287.34 96.39 315.59   C 93.52 318.48 90.27 320.09 86.15 319.48   Q 80.39 318.63 77.66 313.54   Q 76.51 311.38 76.49 305.66   Q 76.42 282.47 76.44 259.13   L 76.43 220.85   L 114.21 183.07   A 1.79 1.77 22.3 0 1 115.47 182.55   L 233.77 182.59   A 0.83 0.83 0.0 0 0 234.60 181.76   L 234.57 77.01   Q 234.60 77.01 234.62 77.01   L 310.53 76.77   Z"/>
<path fill="#00832d" d="   M 76.43 182.69   L 76.43 220.85   L 76.44 259.13   Q 52.47 259.27 28.91 259.22   Q 19.09 259.20 14.76 257.68   Q 2.62 253.44 0.00 238.88   L 0.00 182.67   L 76.43 182.69   Z"/>
</svg>
