<?xml version="1.0" encoding="utf-8"?>
<!-- Generator: Adobe Illustrator 25.2.0, SVG Export Plug-In . SVG Version: 6.00 Build 0)  -->
<svg version="1.1" id="katman_1" xmlns="http://www.w3.org/2000/svg" xmlns:xlink="http://www.w3.org/1999/xlink" x="0px" y="0px"
	 viewBox="0 0 560 400" style="enable-background:new 0 0 560 400;" xml:space="preserve">
<style type="text/css">
	.st0{fill:#00AC47;}
	.st1{fill:#5BB974;}
	.st2{fill:#00832D;}
</style>
<g transform="matrix(.540027 0 0 .540027 150.556 65)">
	<path class="st0" d="M108.8,269.7V107.2h-71c-20.9,0-37.8,17-37.8,37.9V481c0,16.9,20.4,25.3,32.3,13.4l78.1-78.1h222.4
		c20.9,0,37.8-16.9,37.8-37.8v-71H146.7C125.8,307.5,108.8,290.6,108.8,269.7L108.8,269.7z"/>
	<path class="st1" d="M441.6,0H146.7c-20.9,0-37.8,16.9-37.8,37.8v69.4h223.9c20.9,0,37.8,16.9,37.8,37.8v162.4h71
		c20.9,0,37.8-16.9,37.8-37.8V37.8C479.4,16.9,462.5,0,441.6,0L441.6,0z"/>
	<path class="st2" d="M332.8,107.2h-224v162.4c0,20.9,16.9,37.8,37.8,37.8h223.9V145.1C370.6,124.2,353.7,107.2,332.8,107.2
		L332.8,107.2z"/>
</g>
</svg>
