<svg id="Layer_1" data-name="Layer 1" xmlns="http://www.w3.org/2000/svg" viewBox="0 0 479.4 499.98"><defs><style>.cls-1{fill:#00ac47;}.cls-2{fill:#5bb974;}.cls-3{fill:#00832d;}</style></defs><title>google-chat</title><path class="cls-1" d="M121.24,275.69V113.19h-71a37.86,37.86,0,0,0-37.8,37.9V487c0,16.9,20.4,25.3,32.3,13.4l78.1-78.1h222.4a37.77,37.77,0,0,0,37.8-37.8v-71H159.14A37.86,37.86,0,0,1,121.24,275.69Z" transform="translate(-12.44 -5.99)"/><path class="cls-2" d="M454,6H159.14a37.77,37.77,0,0,0-37.8,37.8v69.4h223.9A37.77,37.77,0,0,1,383,151v162.4h71a37.77,37.77,0,0,0,37.8-37.8V43.79A37.77,37.77,0,0,0,454,6Z" transform="translate(-12.44 -5.99)"/><path class="cls-3" d="M345.24,113.19h-224v162.4a37.77,37.77,0,0,0,37.8,37.8h223.9V151.09A37.71,37.71,0,0,0,345.24,113.19Z" transform="translate(-12.44 -5.99)"/></svg>