<svg xmlns="http://www.w3.org/2000/svg" data-name="Layer 1" viewBox="0 0 479.4 499.98"><path d="M121.24 275.69v-162.5h-71a37.86 37.86 0 0 0-37.8 37.9V487c0 16.9 20.4 25.3 32.3 13.4l78.1-78.1h222.4a37.77 37.77 0 0 0 37.8-37.8v-71h-223.9a37.86 37.86 0 0 1-37.9-37.81" style="fill:#00ac47" transform="translate(-12.44 -5.99)"/><path d="M454 6H159.14a37.77 37.77 0 0 0-37.8 37.8v69.4h223.9A37.77 37.77 0 0 1 383 151v162.4h71a37.77 37.77 0 0 0 37.8-37.8V43.79A37.77 37.77 0 0 0 454 6" style="fill:#5bb974" transform="translate(-12.44 -5.99)"/><path d="M345.24 113.19h-224v162.4a37.77 37.77 0 0 0 37.8 37.8h223.9v-162.3a37.71 37.71 0 0 0-37.7-37.9" style="fill:#00832d" transform="translate(-12.44 -5.99)"/></svg>