<svg width="40" height="40" viewBox="0 0 40 40" fill="none" xmlns="http://www.w3.org/2000/svg">
<path d="M14.6768 20C14.6768 17.3764 16.8061 15.2471 19.4297 15.2471C22.0532 15.2471 24.1825 17.3764 24.1825 20C24.1825 22.6236 22.0532 24.7529 19.4297 24.7529C16.8061 24.7909 14.6768 22.6236 14.6768 20ZM19.4297 0C10.076 0 2.24335 6.38783 0.0380228 15.057C0.0380228 15.1331 0 15.1711 0 15.2471C0 15.7795 0.418251 16.1977 0.95057 16.1977H9.01141C9.39164 16.1977 9.73384 15.9696 9.88593 15.6274C11.5589 12.0152 15.1711 9.5057 19.4297 9.5057C25.2091 9.5057 29.924 14.2205 29.924 20C29.924 25.7795 25.2091 30.4943 19.4297 30.4943C15.2091 30.4943 11.5589 27.9848 9.88593 24.3726C9.73384 24.0304 9.39164 23.8023 9.01141 23.8023H0.95057C0.418251 23.8023 0 24.2205 0 24.7529C0 24.8289 0 24.8669 0.0380228 24.943C2.24335 33.6122 10.076 40 19.4297 40C30.4943 40 39.4677 31.0266 39.4677 19.962C39.4677 8.93536 30.4943 0 19.4297 0Z" fill="white"/>
</svg>
