<svg width="256" height="237" viewBox="0 0 256 237" fill="none" xmlns="http://www.w3.org/2000/svg">
<path d="M255.998 191.504V221.271C255.998 229.643 249.176 236.155 241.114 236.155H92.2772C83.9052 236.155 77.3936 229.643 77.3936 221.271V191.504C77.3936 183.442 83.9052 176.62 92.2772 176.62H241.114C249.176 176.62 255.998 183.442 255.998 191.504ZM241.114 166.698H92.2772H91.9672C89.4866 166.698 85.1455 167.628 82.6649 168.868L112.432 123.907C114.913 120.186 120.494 117.086 124.835 117.086H208.246C212.587 117.086 218.168 120.186 220.649 123.907L250.416 168.868C247.936 167.628 243.595 166.698 241.114 166.698ZM226.23 196.465C220.649 196.465 216.308 201.116 216.308 206.388C216.308 211.969 220.649 216.31 226.23 216.31C231.502 216.31 236.153 211.969 236.153 206.388C236.153 201.116 231.502 196.465 226.23 196.465ZM196.463 196.465C190.882 196.465 186.541 201.116 186.541 206.388C186.541 211.969 190.882 216.31 196.463 216.31C201.734 216.31 206.386 211.969 206.386 206.388C206.386 201.116 201.734 196.465 196.463 196.465Z" fill="#EA4B71"/>
<path fill-rule="evenodd" clip-rule="evenodd" d="M96.1238 62.0154C90.6975 62.0154 86.8215 58.1394 86.8215 52.7131V0H9.30231C3.87596 0 0 4.26356 0 9.30231V189.147C0 194.573 3.87596 198.449 9.30231 198.449H64.5023V191.503C64.5023 184.906 64.6316 180.563 65.7414 173.138C67.4789 168.38 69.0688 166.006 71.1008 162.971C71.3651 162.576 71.6368 162.171 71.9173 161.747L80.4646 148.837H41.8604C39.1472 148.837 37.2092 146.899 37.2092 144.186V141.085C37.2092 138.759 39.1472 136.434 41.8604 136.434H88.6763L96.888 124.031H41.8604C39.1472 124.031 37.2092 122.093 37.2092 119.38V116.279C37.2092 113.953 39.1472 111.628 41.8604 111.628H106.246C108.004 110.088 109.886 108.814 111.713 107.806C115.251 105.854 119.882 104.186 124.843 104.186H148.837V62.0154H96.1238ZM106.977 86.8215C109.302 86.8215 111.628 89.1471 111.628 91.4727V94.5735C111.628 97.2866 109.302 99.2246 106.977 99.2246H41.8604C39.1472 99.2246 37.2092 97.2866 37.2092 94.5735V91.4727C37.2092 89.1471 39.1472 86.8215 41.8604 86.8215H106.977ZM148.837 49.6123V47.2867C148.837 44.9612 147.674 42.6356 146.124 40.6976L108.139 2.71317C106.201 1.16279 103.876 0 101.55 0H99.2246V49.6123H148.837Z" fill="#EA4B71"/>
</svg>
