<?xml version="1.0" standalone="no"?>
<!DOCTYPE svg PUBLIC "-//W3C//DTD SVG 20010904//EN"
 "http://www.w3.org/TR/2001/REC-SVG-20010904/DTD/svg10.dtd">
<svg version="1.0" xmlns="http://www.w3.org/2000/svg"
 width="270.000000pt" height="270.000000pt" viewBox="0 0 270.000000 270.000000"
 preserveAspectRatio="xMidYMid meet">
<metadata>
Created by potrace 1.14, written by Peter Selinger 2001-2017
</metadata>
<g transform="translate(0.000000,270.000000) scale(0.100000,-0.100000)"
fill="#000000" stroke="none">
<path d="M185 2691 c-86 -21 -158 -93 -175 -175 -7 -35 -10 -415 -8 -1196 3
-1276 -2 -1180 73 -1253 20 -20 54 -42 74 -49 53 -19 2349 -19 2402 0 20 7 54
29 74 49 75 73 70 -23 73 1253 2 817 -1 1161 -9 1200 -9 46 -19 63 -64 106
-42 41 -63 54 -104 63 -59 13 -2284 14 -2336 2z m786 -547 l314 -255 3 255 2
256 60 0 60 0 2 -255 3 -256 315 257 315 257 3 -292 2 -291 135 0 135 0 0
-450 0 -450 -135 0 -135 0 -2 -296 -3 -295 -312 275 c-172 152 -315 276 -318
276 -3 0 -5 -133 -5 -295 l0 -295 -60 0 -60 0 0 295 c0 162 -2 295 -5 295 -3
0 -146 -124 -318 -276 l-312 -276 -3 296 -2 296 -135 0 -135 0 0 450 0 450
135 0 135 0 0 290 c0 160 2 290 4 290 2 0 145 -115 317 -256z"/>
<path d="M780 1981 l0 -161 215 0 216 0 -203 151 c-112 84 -209 156 -215 162
-10 7 -13 -24 -13 -152z"/>
<path d="M1706 1982 l-210 -157 209 -3 c114 -1 210 -1 212 1 2 2 2 74 1 160
l-3 156 -209 -157z"/>
<path d="M510 1370 l0 -330 70 0 70 0 0 88 0 88 38 35 c20 20 146 127 280 239
133 111 242 204 242 206 0 2 -157 4 -350 4 l-350 0 0 -330z"/>
<path d="M1490 1696 c0 -2 126 -102 280 -223 l280 -218 0 -107 0 -108 70 0 70
0 0 330 0 330 -350 0 c-192 0 -350 -2 -350 -4z"/>
<path d="M1028 1392 l-247 -217 0 -283 c-1 -233 1 -282 12 -275 8 4 122 104
255 222 l242 214 0 278 c0 154 -3 279 -7 279 -5 0 -119 -98 -255 -218z"/>
<path d="M1410 1332 l0 -279 242 -214 c133 -118 247 -218 255 -222 11 -7 13
42 12 275 l0 283 -245 215 c-135 118 -249 217 -254 218 -6 2 -10 -101 -10
-276z"/>
</g>
</svg>
