<svg width="40" height="40" viewBox="0 0 40 40" fill="none" xmlns="http://www.w3.org/2000/svg">
<path d="M18.8876 0.0738984C24.0316 -0.349618 27.726 1.01566 31.7012 4.98846C35.993 9.27767 38.8463 14.8361 39.6152 20.757C40.4708 27.3415 39.294 32.2551 35.6697 35.8525C32.204 39.2924 27.1419 40.427 20.3797 39.8617L20.0998 39.8371C14.3415 39.3077 10.2686 37.4197 6.32233 33.4231C2.10711 29.154 -0.114094 24.307 0.00451503 19.2196C0.0625282 16.729 0.768046 14.6063 2.12867 12.5236C3.02068 11.1582 3.92657 10.0931 5.82149 8.1397L6.45389 7.49193L7.151 6.78535C11.6418 2.27128 14.5984 0.427042 18.8876 0.0738984ZM31.3955 5.29432C27.5099 1.411 23.9401 0.0917898 18.9231 0.504853C14.695 0.852966 11.7913 2.7001 7.24706 7.30271L6.91832 7.63625C4.70426 9.88704 3.66669 11.0378 2.75271 12.3687L2.61972 12.5649L2.49068 12.7601C1.17261 14.7777 0.492873 16.8228 0.43681 19.2296C0.321143 24.1909 2.49228 28.9286 6.63002 33.1192C10.5663 37.1058 14.6102 38.9456 20.4158 39.4308L20.7038 39.4539C27.2071 39.954 32.0556 38.8304 35.365 35.5456C38.8812 32.0556 40.0261 27.2751 39.1864 20.8127C38.4301 14.9891 35.6215 9.51773 31.3955 5.29432ZM26.0141 14.549V16.6614H21.5278V28.7681H19.2931V16.6614H14.8068V14.549H26.0141Z" fill="#262627"/>
</svg>
