<svg xmlns="http://www.w3.org/2000/svg" width="2500" height="2500" xmlns:v="https://vecta.io/nano"><path vector-effect="non-scaling-stroke" d="M0 0h2500v2500H0z" fill="#fff" visibility="hidden"/><path vector-effect="non-scaling-stroke" d="M.032 922.622h2501.179v655.138H.032zm0 0" fill="#d40000"/><path vector-effect="non-scaling-stroke" d="M106.903 1022.35h361.67v46.987l-291.096 356.616h298.21v51.854H99.789v-46.987l291.096-356.616H106.903zm613.392 60.715l-84.49 226.699h169.291zm-35.194-60.715h70.637l175.469 455.458h-64.771l-41.87-116.813H616.96l-41.933 116.813H509.32zm375.274 237.931v166.858h99.902c33.509 0 58.344-6.864 74.506-20.592s24.211-34.757 24.211-62.962c0-28.454-8.05-49.483-24.211-63.024-16.162-13.478-40.997-20.28-74.506-20.28zm0-187.325v137.28h92.227c30.451 0 53.102-5.678 68.016-16.91 14.914-11.294 22.339-28.517 22.339-51.667 0-22.963-7.488-40.186-22.339-51.542-14.914-11.357-37.565-17.098-68.016-17.098h-92.227zM998.1 1022.35h159.12c47.486 0 84.115 9.734 109.762 29.266 25.709 19.531 38.501 47.299 38.501 83.304 0 27.83-6.552 50.045-19.718 66.518s-32.51 26.77-57.97 30.826c30.638 6.49 54.413 20.03 71.386 40.685s25.459 46.426 25.459 77.314c0 40.685-13.978 72.072-41.933 94.286-27.955 22.152-67.766 33.259-119.309 33.259H998.1zm488.717 237.931v166.858h99.965c33.509 0 58.344-6.864 74.443-20.592 16.162-13.728 24.211-34.757 24.211-62.962 0-28.454-8.05-49.483-24.211-63.024-16.162-13.478-40.997-20.28-74.443-20.28zm0-187.325v137.28h92.227c30.451 0 53.102-5.678 68.016-16.91 14.914-11.294 22.339-28.517 22.339-51.667 0-22.963-7.426-40.186-22.339-51.542s-37.565-17.098-68.016-17.098h-92.227zm-62.275-50.606h159.12c47.486 0 84.115 9.734 109.762 29.266 25.709 19.531 38.563 47.299 38.563 83.304 0 27.83-6.552 50.045-19.718 66.518s-32.51 26.77-57.97 30.826c30.638 6.49 54.413 20.03 71.386 40.685s25.459 46.426 25.459 77.314c0 40.685-13.978 72.072-41.933 94.286-27.955 22.152-67.766 33.259-119.309 33.259h-165.36zm606.778 0h68.515l108.264 163.55 109.325-163.55h66.206l-142.522 213.346 160.243 242.112h-68.515l-126.11-190.57-127.358 190.57h-66.206l160.618-240.365zm-180.398 0h62.275v455.458h-62.275zm0 0" fill="#fff"/></svg>