<svg xmlns="http://www.w3.org/2000/svg" xmlns:xlink="http://www.w3.org/1999/xlink" fill="#fff" fill-rule="evenodd" stroke="#000" stroke-linecap="round" stroke-linejoin="round" viewBox="0 0 65 65"><use xlink:href="#a" x=".5" y=".5"/><symbol id="a" overflow="visible"><g fill="#e31e26" fill-rule="nonzero" stroke="none"><path d="M31.953 0C14.337 0 0 14.337 0 31.953s14.337 31.953 31.953 31.953C49.663 64 64 49.663 64 31.953S49.663 0 31.953 0m0 55.567c-12.931 0-23.52-10.589-23.52-23.614 0-12.931 10.589-23.52 23.52-23.52 13.025 0 23.614 10.589 23.614 23.52 0 13.025-10.589 23.614-23.614 23.614"/><use xlink:href="#b"/><use xlink:href="#b" y="15.93"/><path d="M17.335 39.918a6.64 6.64 0 0 1 6.653-6.653 6.653 6.653 0 1 1 0 13.306 6.64 6.64 0 0 1-6.653-6.653m0-15.93a6.64 6.64 0 0 1 6.653-6.653 6.64 6.64 0 0 1 6.653 6.653 6.64 6.64 0 0 1-6.653 6.653 6.64 6.64 0 0 1-6.653-6.653"/></g></symbol><defs><path id="b" d="M33.265 23.988a6.64 6.64 0 1 1 13.306 0 6.64 6.64 0 1 1-13.306 0"/></defs></svg>