<svg width="40" height="40" viewBox="0 0 40 40" fill="none" xmlns="http://www.w3.org/2000/svg">
<circle cx="19.9896" cy="19.9749" r="18.7752" fill="white"/>
<path d="M27.0432 17.2098C27.0432 17.7243 26.8388 18.2177 26.475 18.5816C26.1112 18.9454 25.6177 19.1498 25.1032 19.1498C24.5887 19.1498 24.0952 18.9454 23.7314 18.5816C23.3676 18.2177 23.1632 17.7243 23.1632 17.2098C23.1632 16.6952 23.3676 16.2018 23.7314 15.838C24.0952 15.4741 24.5887 15.2697 25.1032 15.2697C25.6177 15.2697 26.1112 15.4741 26.475 15.838C26.8388 16.2018 27.0432 16.6952 27.0432 17.2098ZM16.5631 17.2098C16.5631 17.4646 16.5129 17.717 16.4154 17.9525C16.3178 18.188 16.1749 18.4019 15.9946 18.5822C15.8144 18.7624 15.6004 18.9053 15.365 19.0029C15.1295 19.1004 14.8771 19.1506 14.6222 19.1506C14.3674 19.1506 14.115 19.1004 13.8795 19.0029C13.644 18.9053 13.4301 18.7624 13.2498 18.5822C13.0696 18.4019 12.9267 18.188 12.8291 17.9525C12.7316 17.717 12.6814 17.4646 12.6814 17.2098C12.6814 16.695 12.8859 16.2014 13.2498 15.8374C13.6138 15.4734 14.1075 15.2689 14.6222 15.2689C15.137 15.2689 15.6306 15.4734 15.9946 15.8374C16.3586 16.2014 16.5631 16.695 16.5631 17.2098ZM16.3298 39.7433C8.47634 38.11 2.61794 32.6483 0.526256 25.0065C-0.175419 22.4448 -0.175419 17.5231 0.526256 14.9614C2.47461 7.848 7.848 2.47461 14.9597 0.526256C17.5231 -0.175419 22.4432 -0.175419 25.0065 0.526256C32.1183 2.47461 37.4933 7.848 39.44 14.9597C39.84 16.4164 39.93 17.3431 39.93 19.9831C39.93 22.6232 39.84 23.5498 39.4417 25.0065C37.4917 32.1249 32.0433 37.5666 25.0065 39.4233C22.6882 40.035 18.4798 40.19 16.3298 39.7433ZM27.3965 24.2182C22.3182 21.9715 20.6398 21.3231 19.8965 21.3231C19.1531 21.3231 17.5081 21.9565 12.5964 24.1298C9.11135 25.6732 6.21632 27.0632 6.16298 27.1132H33.9349L27.3965 24.2182ZM10.9414 23.6165C13.6431 22.4015 16.0414 21.3048 16.2681 21.1765C16.6981 20.9348 16.8298 21.0265 7.45966 15.0397C6.52632 14.4431 5.75464 13.8764 5.75131 13.9564V25.9399C7.483 25.1691 9.21302 24.3947 10.9414 23.6165ZM34.4049 19.9598V14.0281C34.4049 13.8447 31.6116 15.6831 28.5782 17.5614C23.5782 20.6515 23.1098 20.9948 23.5715 21.2031C25.8132 22.2215 34.2716 25.9732 34.4049 25.9899V19.9598ZM20.7898 20.1431C21.6981 20.3515 21.8615 20.3165 22.8332 19.7048C23.4148 19.3381 23.9248 19.0065 23.9682 18.9681C24.0115 18.9281 23.8848 18.6664 23.6898 18.3848C23.4932 18.1048 23.3315 17.5514 23.3315 17.1531V16.4331L22.3832 16.7831C21.1731 17.2281 18.5831 17.2331 17.3831 16.7914L16.4564 16.4498L16.4781 17.2031C16.4898 17.6364 16.3314 18.1414 16.1031 18.3948C15.7164 18.8214 15.7364 18.8548 16.8531 19.6048C17.9198 20.3248 18.0614 20.3631 18.9031 20.1498C19.5223 19.9949 20.17 19.9938 20.7898 20.1465V20.1431ZM13.7397 15.7264C13.5647 15.5381 8.78968 14.1364 8.68468 14.2414C8.63467 14.2914 9.52469 14.9314 10.6614 15.6647L12.7281 16.9981L13.2947 16.4248C13.6047 16.1114 13.8064 15.7964 13.7414 15.7248L13.7397 15.7264ZM30.0066 15.1047C30.7949 14.5947 31.3399 14.1797 31.2199 14.1797C30.9616 14.1797 26.4249 15.5197 26.1749 15.6697C26.0799 15.7264 26.2299 16.0514 26.5082 16.3914L27.0149 17.0081L27.7982 16.5198C28.2266 16.2498 29.2216 15.6131 30.0082 15.1031L30.0066 15.1047ZM27.2799 14.1797C30.7966 13.1964 33.7249 12.343 33.7866 12.2814H5.94798C6.25965 12.593 18.9131 15.9398 19.8198 15.9514C20.5031 15.9598 23.1765 15.3247 27.2799 14.1797Z" fill="black"/>
</svg>
