<?xml version="1.0" ?><!DOCTYPE svg  PUBLIC '-//W3C//DTD SVG 1.1//EN'  'http://www.w3.org/Graphics/SVG/1.1/DTD/svg11.dtd'><svg enable-background="new 0 0 128 128" id="Social_Icons" version="1.1" viewBox="0 0 128 128" xml:space="preserve" xmlns="http://www.w3.org/2000/svg" xmlns:xlink="http://www.w3.org/1999/xlink"><g id="_x33__stroke"><g id="Bitly_1_"><rect clip-rule="evenodd" fill="none" fill-rule="evenodd" height="128" width="128"/><path clip-rule="evenodd" d="M63.708,0C28.443,0,0,28.306,0,65.322    c0,19.193,10.266,37.736,24.703,48.877c2.78,2.145,6.091,1.949,7.989,0.109c1.599-1.55,1.467-5.282-1.507-7.897    C19.644,96.262,11.665,80.897,11.665,65.55c0-27.564,24.474-50.756,52.044-50.756c33.558,0,51.503,27.252,51.503,50.351    c0,14.114-6.902,31.155-19.361,42.025c0.019-0.049,2.588-5.101,2.588-14.94c0-16.748-10.612-25.821-22.926-25.821    c-8.914,0-14.251,3.187-17.883,6.158c0-6.822,0.228-19.563,0.228-19.563c0-8.409-2.946-15.14-13.213-15.287    c-5.943-0.084-10.353,2.641-13.103,8.803c-0.991,2.311-0.626,4.822,1.333,5.96c1.621,0.941,4.287,0.243,5.606-1.517    c0.881-1.1,1.375-1.335,2.141-1.252c1.261,0.136,1.309,2.168,1.359,3.468c0.038,0.998,1.008,15.494,0.477,52.746    c0,10.275,8.059,22.077,27.355,22.077c8.307,0,14.686-2.322,23.953-7.587C107.871,112.398,128,94.62,128,64.55    C128,26.977,97.572,0,63.708,0z M69.76,113.602c-7.183,0.126-12.422-2.183-12.743-8.461c-0.12-2.356-0.082-4.865,0.033-6.378    c0.695-9.174,7.11-15.774,13.443-17.041c7.876-1.576,13.123,2.026,13.123,12.337C83.615,101.027,81.681,113.393,69.76,113.602z" fill="#DD5A2B" fill-rule="evenodd" id="Bitly"/></g></g></svg>