<svg xmlns="http://www.w3.org/2000/svg" width="256" height="324" preserveAspectRatio="xMidYMid"><g fill="#509EE3"><ellipse cx="19.394" cy="82.757" rx="19.394" ry="19.704"/><ellipse cx="19.394" cy="137.928" rx="19.394" ry="19.704"/><ellipse cx="73.697" cy="82.757" opacity=".2" rx="19.394" ry="19.704"/><ellipse cx="73.697" cy="138.464" rx="19.394" ry="19.704"/><ellipse cx="128" cy="82.757" opacity=".2" rx="19.394" ry="19.704"/><ellipse cx="128" cy="19.704" opacity=".2" rx="19.394" ry="19.704"/><ellipse cx="128" cy="138.464" opacity=".2" rx="19.394" ry="19.704"/><ellipse cx="182.303" cy="82.757" opacity=".2" rx="19.394" ry="19.704"/><ellipse cx="236.606" cy="82.757" rx="19.394" ry="19.704"/><ellipse cx="182.303" cy="138.464" rx="19.394" ry="19.704"/><ellipse cx="236.606" cy="138.464" rx="19.394" ry="19.704"/><ellipse cx="19.394" cy="193.099" rx="19.394" ry="19.704"/><ellipse cx="73.697" cy="193.635" opacity=".2" rx="19.394" ry="19.704"/><ellipse cx="128" cy="193.635" rx="19.394" ry="19.704"/><ellipse cx="182.303" cy="193.635" opacity=".2" rx="19.394" ry="19.704"/><ellipse cx="236.606" cy="193.635" rx="19.394" ry="19.704"/><ellipse cx="19.394" cy="248.27" rx="19.394" ry="19.704"/><ellipse cx="73.697" cy="248.806" opacity=".2" rx="19.394" ry="19.704"/><ellipse cx="128" cy="248.806" opacity=".2" rx="19.394" ry="19.704"/><ellipse cx="128" cy="303.977" opacity=".2" rx="19.394" ry="19.704"/><ellipse cx="182.303" cy="248.806" opacity=".2" rx="19.394" ry="19.704"/><ellipse cx="236.606" cy="248.806" rx="19.394" ry="19.704"/></g></svg>