<svg version="1.1" id="Layer_1" xmlns="http://www.w3.org/2000/svg" xmlns:xlink="http://www.w3.org/1999/xlink" x="0px" y="0px"
	 width="2cm" height="0.5cm" viewBox="0 0 3750 291" enable-background="new 0 0 3750 291" xml:space="preserve">
<path fill="#FEFEFE" opacity="1.000000" stroke="none" 
	d="
M2402.000000,292.000000 
	C2353.976807,292.000000 2305.953369,292.000000 2257.404785,291.699432 
	C2256.826416,291.201538 2256.773193,291.004211 2256.771973,290.353760 
	C2256.823730,194.018433 2256.823730,98.136192 2256.823730,2.045493 
	C2242.007324,2.045493 2227.757568,2.045493 2212.999512,2.045493 
	C2212.999512,4.187019 2212.999512,6.137312 2212.999512,8.087605 
	C2212.999756,92.699936 2212.995850,177.312256 2213.005127,261.924591 
	C2213.006104,271.582916 2213.081299,281.241211 2213.072510,291.172546 
	C2213.015381,291.630371 2213.007568,291.815186 2213.000000,292.000000 
	C2100.976562,292.000000 1988.953247,292.000000 1876.489014,291.740967 
	C1876.020874,291.310577 1875.993652,291.139282 1876.050049,290.507904 
	C1876.133545,253.791824 1876.133545,217.535873 1876.133545,181.000885 
	C1878.814819,181.000885 1880.797485,181.000870 1882.780273,181.000885 
	C1944.267822,181.001083 2005.757935,181.337708 2067.241943,180.866531 
	C2100.414795,180.612335 2124.882080,164.686172 2140.819824,135.781982 
	C2149.125732,120.718704 2150.209473,104.221626 2150.104248,87.348030 
	C2149.806641,39.595013 2113.325684,2.861802 2065.550049,2.844502 
	C1990.565186,2.817351 1915.580200,2.836826 1840.595337,2.836557 
	C1838.816895,2.836550 1837.038574,2.836556 1835.199951,2.836556 
	C1835.199951,17.760181 1835.199951,32.133614 1835.199951,46.842812 
	C1837.528564,46.842812 1839.504272,46.842812 1841.479858,46.842808 
	C1916.298096,46.842659 1991.116333,46.830070 2065.934570,46.851269 
	C2084.237305,46.856457 2100.211670,57.851974 2104.192871,75.217453 
	C2106.335693,84.564323 2106.624512,94.888054 2105.197266,104.387535 
	C2102.144775,124.704521 2085.801270,137.134399 2064.386719,137.144287 
	C1994.734131,137.176453 1925.081543,137.152817 1855.428955,137.162140 
	C1842.015259,137.163940 1832.283691,146.074707 1832.235962,159.336487 
	C1832.077881,203.158264 1832.240601,246.981186 1832.200317,291.100464 
	C1832.080200,291.598145 1832.040161,291.799072 1832.000000,292.000000 
	C1820.643311,292.000000 1809.286621,292.000000 1797.585449,291.812439 
	C1797.241089,291.624878 1797.136841,291.191315 1797.211060,290.797882 
	C1797.067505,289.776855 1796.893677,289.129761 1796.625488,288.524475 
	C1756.357178,197.637222 1716.088257,106.750198 1675.797607,15.872798 
	C1671.578369,6.356012 1664.273804,1.733257 1653.759399,1.797361 
	C1632.095215,1.929443 1610.427124,2.034085 1588.765625,1.758658 
	C1576.927124,1.608131 1569.535645,6.886305 1564.868042,17.622547 
	C1531.268555,94.906227 1497.464722,172.100967 1463.772339,249.344299 
	C1457.736694,263.181610 1451.917847,277.113495 1445.941162,291.251343 
	C1445.922241,291.667328 1445.961060,291.833649 1446.000000,292.000000 
	C1408.643311,292.000000 1371.286621,292.000000 1333.520996,291.805664 
	C1333.112061,291.611359 1333.141357,291.207947 1333.587402,291.188660 
	C1339.149048,290.588196 1344.373169,290.484314 1349.363403,289.350952 
	C1391.945801,279.679657 1418.782959,241.159027 1413.937866,196.941727 
	C1409.497070,156.415100 1373.095093,124.849525 1330.760742,124.839424 
	C1284.764771,124.828461 1238.768555,124.872688 1192.772827,124.774025 
	C1188.821533,124.765549 1184.741089,124.342728 1180.943604,123.300194 
	C1161.323120,117.913612 1149.313232,99.501976 1152.081787,79.482635 
	C1154.715210,60.442387 1171.670166,46.015450 1191.561523,46.009060 
	C1261.222168,45.986683 1330.882690,46.000072 1400.543335,45.999874 
	C1402.492798,45.999866 1404.442261,45.999870 1406.522339,45.999870 
	C1406.522339,31.090576 1406.522339,16.702957 1406.522339,2.000028 
	C1404.895874,2.000028 1403.583374,2.000031 1402.270996,2.000028 
	C1331.777100,1.999861 1261.283203,1.951439 1190.789551,2.086763 
	C1184.843506,2.098177 1178.739258,2.692961 1172.981567,4.119099 
	C1140.647949,12.127838 1119.002563,32.179276 1110.654419,64.350555 
	C1102.263794,96.685303 1111.186523,124.988663 1135.947754,147.701172 
	C1153.035034,163.374786 1173.767334,169.019974 1196.619751,168.907532 
	C1241.781372,168.685287 1286.945190,168.761246 1332.107544,168.873642 
	C1357.500000,168.936844 1376.083740,193.840118 1369.236084,218.308319 
	C1364.153687,236.468475 1348.929443,247.527756 1328.802124,247.534454 
	C1256.974976,247.558380 1185.147949,247.544235 1113.320801,247.544495 
	C1111.367798,247.544495 1109.414673,247.544495 1107.125000,247.544495 
	C1107.125000,262.310730 1107.125000,276.604523 1107.075439,291.171661 
	C1107.017212,291.630005 1107.008667,291.815002 1107.000000,292.000000 
	C1063.643311,292.000000 1020.286682,292.000000 976.448730,291.765869 
	C975.967407,291.531738 976.055603,291.070679 976.480957,291.042114 
	C979.538025,290.650452 982.192566,290.406250 984.797913,289.906189 
	C1017.439758,283.641479 1043.528931,253.650955 1043.887939,220.370743 
	C1044.414551,171.567139 1044.545776,122.747299 1043.903198,73.946770 
	C1043.382080,34.368225 1010.344666,2.236225 970.833069,2.064603 
	C911.861450,1.808454 852.887756,1.965563 793.915039,2.027258 
	C782.237366,2.039475 771.089417,4.825356 760.873596,10.425077 
	C734.085449,25.108757 720.622925,48.209171 720.446533,78.456184 
	C720.169922,125.917381 720.154053,173.393127 721.044312,220.843628 
	C721.658020,253.553146 745.219482,281.331207 777.049377,289.089264 
	C782.605957,290.443604 788.345154,291.048828 794.000000,292.000000 
	C754.976685,292.000000 715.953369,292.000000 676.535767,291.776794 
	C676.141479,291.553558 676.082397,291.088959 676.234680,290.634949 
	C676.386963,276.093842 676.386963,262.006744 676.386963,247.543991 
	C673.720825,247.543991 671.748047,247.543991 669.775208,247.543991 
	C628.445435,247.544022 587.115723,247.554474 545.785950,247.540482 
	C516.788818,247.530655 487.789490,247.694824 458.795197,247.391953 
	C436.609711,247.160217 417.328217,232.357880 414.506531,211.569855 
	C412.628723,197.735550 414.150208,183.439850 414.150208,168.730301 
	C495.046967,168.730301 576.416565,168.730301 657.763000,168.730301 
	C657.763000,153.836746 657.763000,139.558899 657.763000,124.666443 
	C576.166016,124.666443 494.804016,124.666443 413.162323,124.666443 
	C413.162323,113.567276 413.160095,103.083061 413.162750,92.598846 
	C413.169525,65.826225 433.059296,46.002403 459.929657,46.000977 
	C530.090210,45.997250 600.250732,45.999729 670.411316,45.999737 
	C672.347656,45.999737 674.283936,45.999741 676.232788,45.999741 
	C676.232788,31.052299 676.232788,16.769550 676.232788,2.253591 
	C674.730774,2.160863 673.429688,2.010459 672.128601,2.010255 
	C600.634827,1.999031 529.140869,1.926465 457.647552,2.118376 
	C450.733582,2.136935 443.651062,3.118387 436.940735,4.815260 
	C396.405060,15.065690 369.164368,50.370121 369.158905,92.146614 
	C369.155304,119.810875 369.092163,147.475357 369.188660,175.139282 
	C369.231049,187.290924 368.957275,199.494431 369.947052,211.582672 
	C373.149414,250.692978 404.778961,284.100830 443.599457,290.122040 
	C446.103180,290.510345 448.534821,291.363220 451.000000,292.000000 
	C315.976685,292.000000 180.953354,292.000000 45.503311,291.742035 
	C45.038277,291.314484 44.999954,291.144867 45.045918,290.514771 
	C45.130199,215.028641 45.130199,140.002975 45.130199,64.977325 
	C47.188377,65.676117 48.138126,66.794823 49.137711,67.867088 
	C117.601395,141.308548 186.053223,214.761108 254.630127,288.096710 
	C256.300171,289.882629 259.344604,291.249817 261.783051,291.306458 
	C275.106842,291.616211 288.441620,291.464478 301.772522,291.439911 
	C303.207458,291.437286 304.641968,291.231720 306.454987,291.090912 
	C306.454987,289.082275 306.455017,287.446442 306.455017,285.810638 
	C306.455078,192.827103 306.457214,99.843575 306.437622,6.860045 
	C306.437286,5.215341 306.175232,3.570692 306.041016,1.693958 
	C306.046692,1.461900 306.000000,1.000000 306.000000,1.000000 
	C1100.356567,1.000000 1894.713257,1.000000 2689.529053,1.259488 
	C2689.999023,1.691676 2690.009766,1.864376 2689.943848,2.497857 
	C2689.857666,97.803650 2689.847168,192.648666 2689.848877,287.493683 
	C2689.848877,288.649994 2690.007080,289.806274 2690.036621,291.219116 
	C2689.988037,291.650482 2689.993896,291.825256 2690.000000,292.000000 
	C2669.310059,292.000000 2648.620117,292.000000 2627.454590,291.722534 
	C2626.945312,291.263031 2626.911621,291.080963 2626.931396,290.439636 
	C2626.984619,275.903839 2626.984619,261.827393 2626.984619,247.544434 
	C2624.073975,247.544434 2621.913330,247.544449 2619.752930,247.544449 
	C2550.258057,247.544418 2480.763428,247.566711 2411.268555,247.533264 
	C2383.891113,247.520081 2364.155518,228.651566 2363.497314,201.789352 
	C2363.252686,191.796127 2363.444824,181.791794 2363.481934,171.792694 
	C2363.485352,170.877777 2363.811279,169.964066 2364.066650,168.638763 
	C2445.550781,168.638763 2526.802002,168.638763 2608.214355,168.638763 
	C2608.214355,153.901611 2608.214355,139.637634 2608.214355,124.746017 
	C2526.614258,124.746017 2445.252686,124.746017 2363.486572,124.746017 
	C2363.486572,112.817299 2362.951904,101.481361 2363.593506,90.212395 
	C2365.098145,63.788696 2384.346924,46.000370 2410.727539,45.999889 
	C2480.722412,45.998608 2550.717041,45.999474 2620.711914,45.999481 
	C2622.665283,45.999481 2624.618896,45.999477 2626.735840,45.999477 
	C2626.735840,31.148685 2626.735840,16.755013 2626.735840,2.000518 
	C2624.677734,2.000518 2622.879395,2.000518 2621.080811,2.000518 
	C2551.419434,2.000520 2481.758057,1.984030 2412.096680,2.036383 
	C2407.281250,2.040002 2402.440674,2.331496 2397.654785,2.869805 
	C2353.889893,7.792363 2319.840820,46.019928 2319.838379,90.136894 
	C2319.836426,127.634071 2319.799561,165.131348 2319.885254,202.628342 
	C2319.896240,207.435349 2320.273682,212.280869 2320.954834,217.040787 
	C2326.575684,256.307861 2362.350342,288.949310 2402.020996,291.295227 
	C2402.096680,291.525330 2402.000000,292.000000 2402.000000,292.000000 
z"/>
<path fill="#FFFFFF" opacity="1.000000" stroke="none" 
	d="
M3443.000000,292.000000 
	C3375.975830,292.000000 3308.951904,292.000000 3241.395020,291.535278 
	C3240.908203,289.073456 3240.994141,287.076385 3240.994385,285.079315 
	C3241.001221,208.088821 3241.000000,131.098328 3241.000000,54.107841 
	C3241.000000,52.155708 3241.000000,50.203579 3241.000000,47.699352 
	C3287.699707,47.699352 3333.901855,47.699352 3380.271729,47.699352 
	C3380.271729,32.211899 3380.271729,17.285114 3380.271729,2.244705 
	C3272.752441,2.244705 3165.507812,2.244705 3058.240234,2.244705 
	C3058.240234,17.519949 3058.240234,32.545815 3058.240234,48.079285 
	C3104.691406,48.079285 3150.740479,48.079285 3197.000000,48.079285 
	C3197.000000,129.728622 3197.000000,210.864304 3197.000000,292.000000 
	C3042.975830,292.000000 2888.951904,292.000000 2734.360840,291.725159 
	C2733.733887,291.263977 2733.674072,291.077637 2733.710938,290.438965 
	C2733.807617,215.094498 2733.807617,140.202393 2733.807617,65.310295 
	C2734.323975,65.001595 2734.840332,64.692894 2735.356445,64.384193 
	C2735.666748,65.145340 2735.790527,66.080063 2736.314209,66.642677 
	C2755.714111,87.484589 2775.166504,108.277580 2794.580078,129.107025 
	C2843.963623,182.092529 2893.306885,235.115616 2942.808838,287.989990 
	C2944.570068,289.870758 2947.806152,291.177612 2950.423584,291.301849 
	C2959.069824,291.712341 2967.747559,291.456757 2976.413330,291.456818 
	C2982.500732,291.456848 2988.588135,291.456818 2994.681641,291.456818 
	C2994.681641,194.553604 2994.681641,98.323174 2994.681641,2.216693 
	C2979.973633,2.216693 2965.586914,2.216693 2950.833496,2.216693 
	C2950.833496,78.812737 2950.833496,155.030090 2950.833496,232.021912 
	C2949.372559,230.548676 2948.447754,229.664368 2947.576416,228.729752 
	C2920.781494,199.984772 2893.999023,171.228516 2867.200684,142.486923 
	C2823.487793,95.604668 2779.765381,48.731377 2736.041260,1.640324 
	C2736.035400,1.426447 2736.000000,1.000000 2736.000000,1.000000 
	C3074.213867,1.000000 3412.427979,1.000000 3751.000000,1.000000 
	C3751.000000,66.690308 3751.000000,132.381271 3750.670410,198.306610 
	C3745.482910,156.274704 3710.259033,124.834816 3667.765137,124.835297 
	C3622.775635,124.835800 3577.786377,124.855598 3532.796875,124.800514 
	C3528.816650,124.795639 3524.806641,124.526154 3520.862305,123.993790 
	C3500.029785,121.181969 3484.452148,99.283371 3488.510742,78.665810 
	C3492.484863,58.475410 3508.143066,45.870235 3529.522705,45.858795 
	C3598.673096,45.821796 3667.823730,45.844639 3736.974121,45.844429 
	C3738.901855,45.844425 3740.829834,45.844429 3742.742676,45.844429 
	C3742.742676,30.888052 3742.742676,16.628393 3742.742676,1.997458 
	C3740.692383,1.997458 3738.895752,1.997450 3737.098877,1.997459 
	C3667.281982,1.997806 3597.465088,1.983308 3527.648193,2.035753 
	C3523.502930,2.038867 3519.327881,2.352301 3515.218018,2.904384 
	C3468.624756,9.163291 3435.991943,55.219482 3445.540527,101.151070 
	C3453.877197,141.252029 3487.353516,168.543365 3528.223877,168.547073 
	C3573.879883,168.551193 3619.535645,168.529373 3665.191650,168.581818 
	C3668.671143,168.585815 3672.232910,168.702393 3675.615479,169.426620 
	C3695.238037,173.627884 3708.968750,192.317825 3706.833008,211.639908 
	C3704.558350,232.220215 3687.968262,247.145523 3667.265869,247.150085 
	C3594.616211,247.166107 3521.966797,247.156723 3449.317139,247.156998 
	C3447.386230,247.156998 3445.455322,247.157013 3443.175781,247.157013 
	C3443.175781,262.144592 3443.175781,276.446655 3443.118652,291.059723 
	C3443.041260,291.580475 3443.020752,291.790253 3443.000000,292.000000 
z"/>
<path fill="#FFFFFF" opacity="1.000000" stroke="none" 
	d="
M962.000000,292.000000 
	C909.312439,292.000000 856.624878,292.000000 803.463745,291.530945 
	C802.990173,276.638855 802.990173,262.215851 802.990173,247.317429 
	C799.959412,247.317429 797.491516,247.368378 795.026184,247.309250 
	C777.864380,246.897766 764.832031,234.315674 764.759521,217.216690 
	C764.560242,170.223694 764.569214,123.228844 764.753357,76.235733 
	C764.820740,59.034431 778.310913,46.029945 795.466980,46.018616 
	C853.292725,45.980434 911.118469,45.985283 968.944214,46.014839 
	C986.849060,46.023991 1000.096619,59.336567 1000.111572,77.350784 
	C1000.149841,123.511368 1000.133972,169.672028 1000.096802,215.832611 
	C1000.094849,218.312714 999.988892,220.858444 999.440613,223.261673 
	C995.997681,238.352203 984.181396,247.492813 967.679199,247.166183 
	C962.385010,247.061386 961.110840,248.877777 961.255005,253.646652 
	C961.632324,266.127380 961.712524,278.617065 961.911133,291.329590 
	C961.911133,291.555969 962.000000,292.000000 962.000000,292.000000 
M938.123047,163.486649 
	C943.447388,152.598419 943.500427,141.649139 938.136536,130.815842 
	C935.999146,126.499023 932.830933,123.083336 927.444031,123.004036 
	C921.999939,122.923889 918.853088,126.431015 916.655823,130.667038 
	C911.348938,140.897736 911.206909,151.554047 915.795837,161.986206 
	C920.897888,173.584839 930.346863,174.368011 938.123047,163.486649 
M848.539551,131.149002 
	C845.774597,126.579842 842.621277,122.400719 836.489990,123.054832 
	C830.587524,123.684525 827.648987,128.059219 825.639648,132.956116 
	C821.590576,142.823792 821.640076,152.795273 826.193237,162.488632 
	C828.447998,167.289078 831.573792,171.339325 837.809998,171.160126 
	C843.789001,170.988327 846.710571,166.826263 848.836731,162.305695 
	C853.563110,152.256851 853.157654,141.992584 848.539551,131.149002 
z"/>
<path fill="#505050" opacity="1.000000" stroke="none" 
	d="
M451.416656,292.000000 
	C448.534821,291.363220 446.103180,290.510345 443.599457,290.122040 
	C404.778961,284.100830 373.149414,250.692978 369.947052,211.582672 
	C368.957275,199.494431 369.231049,187.290924 369.188660,175.139282 
	C369.092163,147.475357 369.155304,119.810875 369.158905,92.146614 
	C369.164368,50.370121 396.405060,15.065690 436.940735,4.815260 
	C443.651062,3.118387 450.733582,2.136935 457.647552,2.118376 
	C529.140869,1.926465 600.634827,1.999031 672.128601,2.010255 
	C673.429688,2.010459 674.730774,2.160863 676.232788,2.253591 
	C676.232788,16.769550 676.232788,31.052299 676.232788,45.999741 
	C674.283936,45.999741 672.347656,45.999737 670.411316,45.999737 
	C600.250732,45.999729 530.090210,45.997250 459.929657,46.000977 
	C433.059296,46.002403 413.169525,65.826225 413.162750,92.598846 
	C413.160095,103.083061 413.162323,113.567276 413.162323,124.666443 
	C494.804016,124.666443 576.166016,124.666443 657.763000,124.666443 
	C657.763000,139.558899 657.763000,153.836746 657.763000,168.730301 
	C576.416565,168.730301 495.046967,168.730301 414.150208,168.730301 
	C414.150208,183.439850 412.628723,197.735550 414.506531,211.569855 
	C417.328217,232.357880 436.609711,247.160217 458.795197,247.391953 
	C487.789490,247.694824 516.788818,247.530655 545.785950,247.540482 
	C587.115723,247.554474 628.445435,247.544022 669.775208,247.543991 
	C671.748047,247.543991 673.720825,247.543991 676.386963,247.543991 
	C676.386963,262.006744 676.386963,276.093842 675.761047,290.603577 
	C603.610291,291.018311 532.085388,291.004242 460.560547,291.044220 
	C459.040192,291.045074 457.520172,291.667542 456.000000,292.000000 
	C454.611115,292.000000 453.222198,292.000000 451.416656,292.000000 
z"/>
<path fill="#505050" opacity="1.000000" stroke="none" 
	d="
M3443.175781,290.748718 
	C3443.175781,276.446655 3443.175781,262.144592 3443.175781,247.157013 
	C3445.455322,247.157013 3447.386230,247.156998 3449.317139,247.156998 
	C3521.966797,247.156723 3594.616211,247.166107 3667.265869,247.150085 
	C3687.968262,247.145523 3704.558350,232.220215 3706.833008,211.639908 
	C3708.968750,192.317825 3695.238037,173.627884 3675.615479,169.426620 
	C3672.232910,168.702393 3668.671143,168.585815 3665.191650,168.581818 
	C3619.535645,168.529373 3573.879883,168.551193 3528.223877,168.547073 
	C3487.353516,168.543365 3453.877197,141.252029 3445.540527,101.151070 
	C3435.991943,55.219482 3468.624756,9.163291 3515.218018,2.904384 
	C3519.327881,2.352301 3523.502930,2.038867 3527.648193,2.035753 
	C3597.465088,1.983308 3667.281982,1.997806 3737.098877,1.997459 
	C3738.895752,1.997450 3740.692383,1.997458 3742.742676,1.997458 
	C3742.742676,16.628393 3742.742676,30.888052 3742.742676,45.844429 
	C3740.829834,45.844429 3738.901855,45.844425 3736.974121,45.844429 
	C3667.823730,45.844639 3598.673096,45.821796 3529.522705,45.858795 
	C3508.143066,45.870235 3492.484863,58.475410 3488.510742,78.665810 
	C3484.452148,99.283371 3500.029785,121.181969 3520.862305,123.993790 
	C3524.806641,124.526154 3528.816650,124.795639 3532.796875,124.800514 
	C3577.786377,124.855598 3622.775635,124.835800 3667.765137,124.835297 
	C3710.259033,124.834816 3745.482910,156.274704 3750.670410,198.770477 
	C3751.000000,205.021149 3751.000000,211.042297 3750.671875,217.746094 
	C3743.632812,259.898804 3713.277588,288.108063 3671.588867,291.110352 
	C3597.300293,291.026733 3523.479492,291.017151 3449.658447,290.992645 
	C3447.497559,290.991943 3445.336670,290.833588 3443.175781,290.748718 
z"/>
<path fill="#A54DFE" opacity="1.000000" stroke="none" 
	d="
M961.911133,291.103180 
	C961.712524,278.617065 961.632324,266.127380 961.255005,253.646652 
	C961.110840,248.877777 962.385010,247.061386 967.679199,247.166183 
	C984.181396,247.492813 995.997681,238.352203 999.440613,223.261673 
	C999.988892,220.858444 1000.094849,218.312714 1000.096802,215.832611 
	C1000.133972,169.672028 1000.149841,123.511368 1000.111572,77.350784 
	C1000.096619,59.336567 986.849060,46.023991 968.944214,46.014839 
	C911.118469,45.985283 853.292725,45.980434 795.466980,46.018616 
	C778.310913,46.029945 764.820740,59.034431 764.753357,76.235733 
	C764.569214,123.228844 764.560242,170.223694 764.759521,217.216690 
	C764.832031,234.315674 777.864380,246.897766 795.026184,247.309250 
	C797.491516,247.368378 799.959412,247.317429 802.990173,247.317429 
	C802.990173,262.215851 802.990173,276.638855 802.995117,291.530945 
	C800.299988,292.000000 797.599976,292.000000 794.449951,292.000000 
	C788.345154,291.048828 782.605957,290.443604 777.049377,289.089264 
	C745.219482,281.331207 721.658020,253.553146 721.044312,220.843628 
	C720.154053,173.393127 720.169922,125.917381 720.446533,78.456184 
	C720.622925,48.209171 734.085449,25.108757 760.873596,10.425077 
	C771.089417,4.825356 782.237366,2.039475 793.915039,2.027258 
	C852.887756,1.965563 911.861450,1.808454 970.833069,2.064603 
	C1010.344666,2.236225 1043.382080,34.368225 1043.903198,73.946770 
	C1044.545776,122.747299 1044.414551,171.567139 1043.887939,220.370743 
	C1043.528931,253.650955 1017.439758,283.641479 984.797913,289.906189 
	C982.192566,290.406250 979.538025,290.650452 976.014404,290.985840 
	C970.718628,291.006470 966.314880,291.054810 961.911133,291.103180 
z"/>
<path fill="#4F4F4F" opacity="1.000000" stroke="none" 
	d="
M3197.468750,292.000000 
	C3197.000000,210.864304 3197.000000,129.728622 3197.000000,48.079285 
	C3150.740479,48.079285 3104.691406,48.079285 3058.240234,48.079285 
	C3058.240234,32.545815 3058.240234,17.519949 3058.240234,2.244705 
	C3165.507812,2.244705 3272.752441,2.244705 3380.271729,2.244705 
	C3380.271729,17.285114 3380.271729,32.211899 3380.271729,47.699352 
	C3333.901855,47.699352 3287.699707,47.699352 3241.000000,47.699352 
	C3241.000000,50.203579 3241.000000,52.155708 3241.000000,54.107841 
	C3241.000000,131.098328 3241.001221,208.088821 3240.994385,285.079315 
	C3240.994141,287.076385 3240.908203,289.073456 3240.931152,291.535278 
	C3226.645752,292.000000 3212.291748,292.000000 3197.468750,292.000000 
z"/>
<path fill="#FEFEFE" opacity="1.000000" stroke="none" 
	d="
M48.000000,1.000000 
	C119.354225,1.000000 190.708450,1.000000 262.508392,1.231166 
	C262.954102,1.462332 262.965607,1.926792 262.796326,2.375065 
	C262.627045,78.817032 262.627045,154.810730 262.627045,230.804428 
	C262.114349,231.004517 261.601624,231.204620 261.088928,231.404724 
	C260.310913,230.338745 259.633240,229.179367 258.740356,228.220352 
	C228.564133,195.808044 198.365768,163.416336 168.174118,131.018372 
	C128.108597,88.024971 88.046013,45.028816 47.981350,1.775295 
	C47.987026,1.344495 47.993511,1.172248 48.000000,1.000000 
z"/>
<path fill="#FEFEFE" opacity="1.000000" stroke="none" 
	d="
M1750.000000,292.000000 
	C1664.645752,292.000000 1579.291504,292.000000 1493.548584,291.804688 
	C1493.159790,291.609406 1493.133667,291.188202 1493.396973,290.947327 
	C1505.769043,262.988739 1517.891846,235.277039 1529.962646,207.542725 
	C1531.006226,205.144836 1531.895386,203.371521 1535.191895,203.377823 
	C1592.515259,203.487579 1649.838623,203.475067 1707.161987,203.402344 
	C1709.937012,203.398819 1711.340210,204.340378 1712.355469,206.886108 
	C1714.324463,211.822418 1716.627319,216.625778 1718.799072,221.480957 
	C1729.176147,244.679947 1739.555664,267.877838 1749.931152,291.308472 
	C1749.928101,291.540833 1750.000000,292.000000 1750.000000,292.000000 
z"/>
<path fill="#FDFDFD" opacity="1.000000" stroke="none" 
	d="
M3672.056152,291.182281 
	C3713.277588,288.108063 3743.632812,259.898804 3750.671875,218.214386 
	C3751.000000,242.595901 3751.000000,267.191803 3751.000000,292.000000 
	C3724.979492,292.000000 3698.958496,292.000000 3672.485840,291.795776 
	C3672.034424,291.591583 3672.056152,291.182281 3672.056152,291.182281 
z"/>
<path fill="#A7A7A7" opacity="1.000000" stroke="none" 
	d="
M2.000000,292.000000 
	C1.666668,290.502747 1.042330,289.005676 1.041584,287.508240 
	C0.995305,194.648254 1.000000,101.788239 1.000000,8.928228 
	C1.000000,6.931257 1.000000,4.934286 1.284454,2.499347 
	C1.758796,2.079345 1.948684,2.097312 2.086491,2.573285 
	C2.022377,84.647400 2.004895,166.263504 2.003439,247.879608 
	C2.003184,262.202759 2.070098,276.525879 2.081651,291.136963 
	C2.038208,291.616577 2.019104,291.808289 2.000000,292.000000 
z"/>
<path fill="#D3D3D3" opacity="1.000000" stroke="none" 
	d="
M3671.588867,291.110352 
	C3672.056152,291.182281 3672.034424,291.591583 3672.017090,291.795776 
	C3595.979248,292.000000 3519.958252,292.000000 3443.468750,292.000000 
	C3443.020752,291.790253 3443.041260,291.580475 3443.118652,291.059723 
	C3445.336670,290.833588 3447.497559,290.991943 3449.658447,290.992645 
	C3523.479492,291.017151 3597.300293,291.026733 3671.588867,291.110352 
z"/>
<path fill="#A7A7A7" opacity="1.000000" stroke="none" 
	d="
M1333.141357,291.207947 
	C1333.141357,291.207947 1333.112061,291.611359 1333.056030,291.805664 
	C1257.979126,292.000000 1182.958130,292.000000 1107.468628,292.000000 
	C1107.008667,291.815002 1107.017212,291.630005 1107.534424,291.209656 
	C1181.085205,290.983734 1254.127686,290.991516 1327.170044,291.011078 
	C1329.160522,291.011597 1331.150879,291.139465 1333.141357,291.207947 
z"/>
<path fill="#A8A8A8" opacity="1.000000" stroke="none" 
	d="
M2626.878174,290.898926 
	C2626.911621,291.080963 2626.945312,291.263031 2626.989258,291.722534 
	C2552.312500,292.000000 2477.625000,292.000000 2402.468750,292.000000 
	C2402.000000,292.000000 2402.096680,291.525330 2402.487793,291.216400 
	C2439.131348,290.940308 2475.383545,291.000610 2511.635742,290.998474 
	C2550.049805,290.996185 2588.464111,290.934601 2626.878174,290.898926 
z"/>
<path fill="#A7A7A7" opacity="1.000000" stroke="none" 
	d="
M456.468658,292.000000 
	C457.520172,291.667542 459.040192,291.045074 460.560547,291.044220 
	C532.085388,291.004242 603.610291,291.018311 675.608765,291.057587 
	C676.082397,291.088959 676.141479,291.553558 676.070740,291.776794 
	C602.979126,292.000000 529.958191,292.000000 456.468658,292.000000 
z"/>
<path fill="#A8A8A8" opacity="1.000000" stroke="none" 
	d="
M1493.133667,291.188202 
	C1493.133667,291.188202 1493.159790,291.609406 1493.079834,291.804688 
	C1477.645752,292.000000 1462.291504,292.000000 1446.468628,292.000000 
	C1445.961060,291.833649 1445.922241,291.667328 1446.409912,291.253815 
	C1462.335449,291.067169 1477.734497,291.127686 1493.133667,291.188202 
z"/>
<path fill="#A7A7A7" opacity="1.000000" stroke="none" 
	d="
M1750.468628,292.000000 
	C1750.000000,292.000000 1749.928101,291.540833 1750.403809,291.282349 
	C1766.298584,291.079651 1781.717773,291.135498 1797.136841,291.191315 
	C1797.136841,291.191315 1797.241089,291.624878 1797.120605,291.812439 
	C1781.645752,292.000000 1766.291504,292.000000 1750.468628,292.000000 
z"/>
<path fill="#D3D3D3" opacity="1.000000" stroke="none" 
	d="
M2.138572,2.115278 
	C1.948684,2.097312 1.758796,2.079345 1.284454,2.030689 
	C1.987724,1.666667 2.974201,1.047308 3.963361,1.042992 
	C18.329592,0.980306 32.696178,1.000000 47.531342,1.000000 
	C47.993511,1.172248 47.987026,1.344495 47.513908,1.768353 
	C32.077713,2.051735 17.108143,2.083507 2.138572,2.115278 
z"/>
<path fill="#D3D3D3" opacity="1.000000" stroke="none" 
	d="
M2735.531250,1.000000 
	C2736.000000,1.000000 2736.035400,1.426447 2735.572754,1.698588 
	C2720.080078,1.992844 2705.050293,2.014961 2690.020508,2.037077 
	C2690.009766,1.864376 2689.999023,1.691676 2689.994141,1.259488 
	C2705.020752,1.000000 2720.041748,1.000000 2735.531250,1.000000 
z"/>
<path fill="#A7A7A7" opacity="1.000000" stroke="none" 
	d="
M1875.966553,290.968018 
	C1875.993652,291.139282 1876.020874,291.310577 1876.024170,291.740967 
	C1861.645752,292.000000 1847.291504,292.000000 1832.468628,292.000000 
	C1832.040161,291.799072 1832.080200,291.598145 1832.648193,291.146881 
	C1847.439453,290.920380 1861.703003,290.944183 1875.966553,290.968018 
z"/>
<path fill="#A7A7A7" opacity="1.000000" stroke="none" 
	d="
M2213.468750,292.000000 
	C2213.007568,291.815186 2213.015381,291.630371 2213.531738,291.212158 
	C2228.267090,290.921448 2242.493652,290.864166 2256.720215,290.806885 
	C2256.773193,291.004211 2256.826416,291.201538 2256.939941,291.699432 
	C2242.645752,292.000000 2228.291748,292.000000 2213.468750,292.000000 
z"/>
<path fill="#7E7E7E" opacity="1.000000" stroke="none" 
	d="
M2733.614502,290.891327 
	C2733.674072,291.077637 2733.733887,291.263977 2733.896973,291.725159 
	C2719.645752,292.000000 2705.291748,292.000000 2690.468750,292.000000 
	C2689.993896,291.825256 2689.988037,291.650482 2690.499023,291.211456 
	C2705.215576,290.928589 2719.415039,290.909973 2733.614502,290.891327 
z"/>
<path fill="#D3D3D3" opacity="1.000000" stroke="none" 
	d="
M262.965607,1.926792 
	C262.965607,1.926792 262.954102,1.462332 262.977051,1.231166 
	C277.020905,1.000000 291.041779,1.000000 305.531342,1.000000 
	C306.000000,1.000000 306.046692,1.461900 305.570770,1.723399 
	C291.051758,1.965530 277.008698,1.946161 262.965607,1.926792 
z"/>
<path fill="#919191" opacity="1.000000" stroke="none" 
	d="
M2.468657,292.000000 
	C2.019104,291.808289 2.038208,291.616577 2.538894,291.192902 
	C17.000862,290.965698 30.981249,290.970490 44.961636,290.975281 
	C44.999954,291.144867 45.038277,291.314484 45.038300,291.742035 
	C30.979105,292.000000 16.958210,292.000000 2.468657,292.000000 
z"/>
<path fill="#D3AAFE" opacity="1.000000" stroke="none" 
	d="
M961.911133,291.329590 
	C966.314880,291.054810 970.718628,291.006470 975.588989,291.014404 
	C976.055603,291.070679 975.967407,291.531738 975.983704,291.765869 
	C971.643127,292.000000 967.286194,292.000000 962.464661,292.000000 
	C962.000000,292.000000 961.911133,291.555969 961.911133,291.329590 
z"/>
<path fill="#4F4F4F" opacity="1.000000" stroke="none" 
	d="
M2626.931396,290.439606 
	C2588.464111,290.934601 2550.049805,290.996185 2511.635742,290.998474 
	C2475.383545,291.000610 2439.131348,290.940308 2402.412109,290.986328 
	C2362.350342,288.949310 2326.575684,256.307861 2320.954834,217.040787 
	C2320.273682,212.280869 2319.896240,207.435349 2319.885254,202.628342 
	C2319.799561,165.131348 2319.836426,127.634071 2319.838379,90.136894 
	C2319.840820,46.019928 2353.889893,7.792363 2397.654785,2.869805 
	C2402.440674,2.331496 2407.281250,2.040002 2412.096680,2.036383 
	C2481.758057,1.984030 2551.419434,2.000520 2621.080811,2.000518 
	C2622.879395,2.000518 2624.677734,2.000518 2626.735840,2.000518 
	C2626.735840,16.755013 2626.735840,31.148685 2626.735840,45.999477 
	C2624.618896,45.999477 2622.665283,45.999481 2620.711914,45.999481 
	C2550.717041,45.999474 2480.722412,45.998608 2410.727539,45.999889 
	C2384.346924,46.000370 2365.098145,63.788696 2363.593506,90.212395 
	C2362.951904,101.481361 2363.486572,112.817299 2363.486572,124.746017 
	C2445.252686,124.746017 2526.614258,124.746017 2608.214355,124.746017 
	C2608.214355,139.637634 2608.214355,153.901611 2608.214355,168.638763 
	C2526.802002,168.638763 2445.550781,168.638763 2364.066650,168.638763 
	C2363.811279,169.964066 2363.485352,170.877777 2363.481934,171.792694 
	C2363.444824,181.791794 2363.252686,191.796127 2363.497314,201.789352 
	C2364.155518,228.651566 2383.891113,247.520081 2411.268555,247.533264 
	C2480.763428,247.566711 2550.258057,247.544418 2619.752930,247.544449 
	C2621.913330,247.544449 2624.073975,247.544434 2626.984619,247.544434 
	C2626.984619,261.827393 2626.984619,275.903839 2626.931396,290.439606 
z"/>
<path fill="#505050" opacity="1.000000" stroke="none" 
	d="
M1333.587402,291.188660 
	C1331.150879,291.139465 1329.160522,291.011597 1327.170044,291.011078 
	C1254.127686,290.991516 1181.085205,290.983734 1107.583984,290.936340 
	C1107.125000,276.604523 1107.125000,262.310730 1107.125000,247.544495 
	C1109.414673,247.544495 1111.367798,247.544495 1113.320801,247.544495 
	C1185.147949,247.544235 1256.974976,247.558380 1328.802124,247.534454 
	C1348.929443,247.527756 1364.153687,236.468475 1369.236084,218.308319 
	C1376.083740,193.840118 1357.500000,168.936844 1332.107544,168.873642 
	C1286.945190,168.761246 1241.781372,168.685287 1196.619751,168.907532 
	C1173.767334,169.019974 1153.035034,163.374786 1135.947754,147.701172 
	C1111.186523,124.988663 1102.263794,96.685303 1110.654419,64.350555 
	C1119.002563,32.179276 1140.647949,12.127838 1172.981567,4.119099 
	C1178.739258,2.692961 1184.843506,2.098177 1190.789551,2.086763 
	C1261.283203,1.951439 1331.777100,1.999861 1402.270996,2.000028 
	C1403.583374,2.000031 1404.895874,2.000028 1406.522339,2.000028 
	C1406.522339,16.702957 1406.522339,31.090576 1406.522339,45.999870 
	C1404.442261,45.999870 1402.492798,45.999866 1400.543335,45.999874 
	C1330.882690,46.000072 1261.222168,45.986683 1191.561523,46.009060 
	C1171.670166,46.015450 1154.715210,60.442387 1152.081787,79.482635 
	C1149.313232,99.501976 1161.323120,117.913612 1180.943604,123.300194 
	C1184.741089,124.342728 1188.821533,124.765549 1192.772827,124.774025 
	C1238.768555,124.872688 1284.764771,124.828461 1330.760742,124.839424 
	C1373.095093,124.849525 1409.497070,156.415100 1413.937866,196.941727 
	C1418.782959,241.159027 1391.945801,279.679657 1349.363403,289.350952 
	C1344.373169,290.484314 1339.149048,290.588196 1333.587402,291.188660 
z"/>
<path fill="#4F4F4F" opacity="1.000000" stroke="none" 
	d="
M2733.710938,290.438965 
	C2719.415039,290.909973 2705.215576,290.928589 2690.553711,290.954895 
	C2690.007080,289.806274 2689.848877,288.649994 2689.848877,287.493683 
	C2689.847168,192.648666 2689.857666,97.803650 2689.943848,2.497857 
	C2705.050293,2.014961 2720.080078,1.992844 2735.578613,1.912464 
	C2779.765381,48.731377 2823.487793,95.604668 2867.200684,142.486923 
	C2893.999023,171.228516 2920.781494,199.984772 2947.576416,228.729752 
	C2948.447754,229.664368 2949.372559,230.548676 2950.833496,232.021912 
	C2950.833496,155.030090 2950.833496,78.812737 2950.833496,2.216693 
	C2965.586914,2.216693 2979.973633,2.216693 2994.681641,2.216693 
	C2994.681641,98.323174 2994.681641,194.553604 2994.681641,291.456818 
	C2988.588135,291.456818 2982.500732,291.456848 2976.413330,291.456818 
	C2967.747559,291.456757 2959.069824,291.712341 2950.423584,291.301849 
	C2947.806152,291.177612 2944.570068,289.870758 2942.808838,287.989990 
	C2893.306885,235.115616 2843.963623,182.092529 2794.580078,129.107025 
	C2775.166504,108.277580 2755.714111,87.484589 2736.314209,66.642677 
	C2735.790527,66.080063 2735.666748,65.145340 2735.356445,64.384193 
	C2734.840332,64.692894 2734.323975,65.001595 2733.807617,65.310295 
	C2733.807617,140.202393 2733.807617,215.094498 2733.710938,290.438965 
z"/>
<path fill="#4F4F4F" opacity="1.000000" stroke="none" 
	d="
M45.045918,290.514771 
	C30.981249,290.970490 17.000862,290.965698 2.563233,290.904968 
	C2.070098,276.525879 2.003184,262.202759 2.003439,247.879608 
	C2.004895,166.263504 2.022377,84.647400 2.086491,2.573285 
	C17.108143,2.083507 32.077713,2.051735 47.514725,2.026906 
	C88.046013,45.028816 128.108597,88.024971 168.174118,131.018372 
	C198.365768,163.416336 228.564133,195.808044 258.740356,228.220352 
	C259.633240,229.179367 260.310913,230.338745 261.088928,231.404724 
	C261.601624,231.204620 262.114349,231.004517 262.627045,230.804428 
	C262.627045,154.810730 262.627045,78.817032 262.796326,2.375065 
	C277.008698,1.946161 291.051758,1.965530 305.565063,1.955458 
	C306.175232,3.570692 306.437286,5.215341 306.437622,6.860045 
	C306.457214,99.843575 306.455078,192.827103 306.455017,285.810638 
	C306.455017,287.446442 306.454987,289.082275 306.454987,291.090912 
	C304.641968,291.231720 303.207458,291.437286 301.772522,291.439911 
	C288.441620,291.464478 275.106842,291.616211 261.783051,291.306458 
	C259.344604,291.249817 256.300171,289.882629 254.630127,288.096710 
	C186.053223,214.761108 117.601395,141.308548 49.137711,67.867088 
	C48.138126,66.794823 47.188377,65.676117 45.130199,64.977325 
	C45.130199,140.002975 45.130199,215.028641 45.045918,290.514771 
z"/>
<path fill="#505050" opacity="1.000000" stroke="none" 
	d="
M1797.211060,290.797882 
	C1781.717773,291.135498 1766.298584,291.079651 1750.406860,291.049988 
	C1739.555664,267.877838 1729.176147,244.679947 1718.799072,221.480957 
	C1716.627319,216.625778 1714.324463,211.822418 1712.355469,206.886108 
	C1711.340210,204.340378 1709.937012,203.398819 1707.161987,203.402344 
	C1649.838623,203.475067 1592.515259,203.487579 1535.191895,203.377823 
	C1531.895386,203.371521 1531.006226,205.144836 1529.962646,207.542725 
	C1517.891846,235.277039 1505.769043,262.988739 1493.396973,290.947327 
	C1477.734497,291.127686 1462.335449,291.067169 1446.467529,291.004181 
	C1451.917847,277.113495 1457.736694,263.181610 1463.772339,249.344299 
	C1497.464722,172.100967 1531.268555,94.906227 1564.868042,17.622547 
	C1569.535645,6.886305 1576.927124,1.608131 1588.765625,1.758658 
	C1610.427124,2.034085 1632.095215,1.929443 1653.759399,1.797361 
	C1664.273804,1.733257 1671.578369,6.356012 1675.797607,15.872798 
	C1716.088257,106.750198 1756.357178,197.637222 1796.625488,288.524475 
	C1796.893677,289.129761 1797.067505,289.776855 1797.211060,290.797882 
M1607.499878,159.548691 
	C1635.219971,159.548691 1662.940063,159.548691 1690.716064,159.548691 
	C1690.642822,158.554230 1690.704468,158.202606 1690.584473,157.931488 
	C1674.576294,121.787537 1658.535400,85.658028 1642.571167,49.494720 
	C1641.280518,46.571175 1639.278198,45.758904 1636.286011,45.795235 
	C1626.628662,45.912491 1616.954590,46.156208 1607.316406,45.711960 
	C1602.064819,45.469902 1599.718506,47.533848 1597.752197,52.157310 
	C1588.002075,75.084557 1577.910400,97.866600 1567.940186,120.700241 
	C1562.382935,133.427475 1556.827637,146.155518 1550.980957,159.548386 
	C1569.973755,159.548386 1588.236816,159.548386 1607.499878,159.548691 
z"/>
<path fill="#505050" opacity="1.000000" stroke="none" 
	d="
M1876.050049,290.507904 
	C1861.703003,290.944183 1847.439453,290.920380 1832.728027,290.850098 
	C1832.240601,246.981186 1832.077881,203.158264 1832.235962,159.336487 
	C1832.283691,146.074707 1842.015259,137.163940 1855.428955,137.162140 
	C1925.081543,137.152817 1994.734131,137.176453 2064.386719,137.144287 
	C2085.801270,137.134399 2102.144775,124.704521 2105.197266,104.387535 
	C2106.624512,94.888054 2106.335693,84.564323 2104.192871,75.217453 
	C2100.211670,57.851974 2084.237305,46.856457 2065.934570,46.851269 
	C1991.116333,46.830070 1916.298096,46.842659 1841.479858,46.842808 
	C1839.504272,46.842812 1837.528564,46.842812 1835.199951,46.842812 
	C1835.199951,32.133614 1835.199951,17.760181 1835.199951,2.836556 
	C1837.038574,2.836556 1838.816895,2.836550 1840.595337,2.836557 
	C1915.580200,2.836826 1990.565186,2.817351 2065.550049,2.844502 
	C2113.325684,2.861802 2149.806641,39.595013 2150.104248,87.348030 
	C2150.209473,104.221626 2149.125732,120.718704 2140.819824,135.781982 
	C2124.882080,164.686172 2100.414795,180.612335 2067.241943,180.866531 
	C2005.757935,181.337708 1944.267822,181.001083 1882.780273,181.000885 
	C1880.797485,181.000870 1878.814819,181.000885 1876.133545,181.000885 
	C1876.133545,217.535873 1876.133545,253.791824 1876.050049,290.507904 
z"/>
<path fill="#505050" opacity="1.000000" stroke="none" 
	d="
M2256.771973,290.353760 
	C2242.493652,290.864166 2228.267090,290.921448 2213.581299,290.939148 
	C2213.081299,281.241211 2213.006104,271.582916 2213.005127,261.924591 
	C2212.995850,177.312256 2212.999756,92.699936 2212.999512,8.087605 
	C2212.999512,6.137312 2212.999512,4.187019 2212.999512,2.045493 
	C2227.757568,2.045493 2242.007324,2.045493 2256.823730,2.045493 
	C2256.823730,98.136192 2256.823730,194.018433 2256.771973,290.353760 
z"/>
<path fill="#A64EFD" opacity="1.000000" stroke="none" 
	d="
M937.967773,163.825195 
	C930.346863,174.368011 920.897888,173.584839 915.795837,161.986206 
	C911.206909,151.554047 911.348938,140.897736 916.655823,130.667038 
	C918.853088,126.431015 921.999939,122.923889 927.444031,123.004036 
	C932.830933,123.083336 935.999146,126.499023 938.136536,130.815842 
	C943.500427,141.649139 943.447388,152.598419 937.967773,163.825195 
z"/>
<path fill="#A64EFE" opacity="1.000000" stroke="none" 
	d="
M848.717163,131.485321 
	C853.157654,141.992584 853.563110,152.256851 848.836731,162.305695 
	C846.710571,166.826263 843.789001,170.988327 837.809998,171.160126 
	C831.573792,171.339325 828.447998,167.289078 826.193237,162.488632 
	C821.640076,152.795273 821.590576,142.823792 825.639648,132.956116 
	C827.648987,128.059219 830.587524,123.684525 836.489990,123.054832 
	C842.621277,122.400719 845.774597,126.579842 848.717163,131.485321 
z"/>
<path fill="#FDFDFD" opacity="1.000000" stroke="none" 
	d="
M1606.999756,159.548538 
	C1588.236816,159.548386 1569.973755,159.548386 1550.980957,159.548386 
	C1556.827637,146.155518 1562.382935,133.427475 1567.940186,120.700241 
	C1577.910400,97.866600 1588.002075,75.084557 1597.752197,52.157310 
	C1599.718506,47.533848 1602.064819,45.469902 1607.316406,45.711960 
	C1616.954590,46.156208 1626.628662,45.912491 1636.286011,45.795235 
	C1639.278198,45.758904 1641.280518,46.571175 1642.571167,49.494720 
	C1658.535400,85.658028 1674.576294,121.787537 1690.584473,157.931488 
	C1690.704468,158.202606 1690.642822,158.554230 1690.716064,159.548691 
	C1662.940063,159.548691 1635.219971,159.548691 1606.999756,159.548538 
z"/>
</svg>