<svg version="1.1" id="Layer_1" xmlns="http://www.w3.org/2000/svg" xmlns:xlink="http://www.w3.org/1999/xlink" x="0px" y="0px"
	 width="0.5cm" height="0.5cm" viewBox="0 0 258 235" enable-background="new 0 0 258 235" xml:space="preserve">
<path fill="#060709" opacity="1.000000" stroke="none" 
	d="
M151.000000,236.000000 
	C100.666672,236.000000 50.833340,236.000000 1.000007,236.000000 
	C1.000005,157.666672 1.000005,79.333351 1.000002,1.000017 
	C86.999992,1.000011 172.999985,1.000011 259.000000,1.000006 
	C259.000000,79.333321 259.000000,157.666641 259.000000,235.999969 
	C223.166672,236.000000 187.333328,236.000000 151.000000,236.000000 
M198.058731,215.786285 
	C220.440231,208.847061 233.998306,187.793381 233.497803,165.883331 
	C232.797913,135.245178 233.357285,104.579208 233.291916,73.925323 
	C233.232635,46.124794 211.330795,24.309605 183.478500,24.281708 
	C144.661148,24.242828 105.843704,24.245777 67.026344,24.279961 
	C39.141636,24.304516 17.041819,46.462093 17.007830,74.421890 
	C16.969957,105.575714 16.910513,136.729996 17.037901,167.883347 
	C17.098085,182.601379 22.630371,195.132217 33.563435,205.031204 
	C44.458672,214.895935 57.459122,218.608810 71.889084,217.816666 
	C71.889084,207.858322 71.889084,198.401901 71.889084,188.843140 
	C70.849808,188.777664 70.034195,188.703690 69.217072,188.678162 
	C54.291683,188.212173 46.336468,180.029770 46.327442,165.067169 
	C46.309456,135.246109 46.302555,105.425034 46.315586,75.603973 
	C46.321369,62.376469 54.895267,53.790257 68.167244,53.738087 
	C79.995537,53.691589 91.824150,53.725742 103.652626,53.725746 
	C130.141739,53.725754 156.630966,53.681786 183.119934,53.747635 
	C194.949127,53.777039 203.945557,62.206150 203.972000,73.357307 
	C204.047440,105.177399 204.037079,136.997849 203.977188,168.817993 
	C203.959991,177.961288 197.005875,186.209457 187.992004,187.934402 
	C184.925629,188.521210 181.779022,188.688721 178.635361,189.051712 
	C178.635361,198.728180 178.635361,208.273407 178.635361,218.630554 
	C185.158585,217.700806 191.211319,216.838135 198.058731,215.786285 
M91.218918,106.521606 
	C84.088120,111.602257 84.422714,127.389587 88.543770,133.239990 
	C92.477646,138.824661 98.452003,139.044724 101.823586,133.223648 
	C106.318810,125.462585 106.334969,117.335838 101.864639,109.561661 
	C99.738503,105.864166 96.453186,103.575974 91.218918,106.521606 
M145.717651,119.658142 
	C146.955521,124.524498 147.402557,129.799576 149.648407,134.144974 
	C152.005844,138.706253 157.511566,138.470490 160.944717,134.629395 
	C166.476547,128.440247 166.513397,114.444618 161.014435,108.151993 
	C157.445786,104.068283 152.703766,103.812614 149.728058,108.289818 
	C147.718750,111.313004 147.064133,115.236565 145.717651,119.658142 
z"/>
<path fill="#FCFDFD" opacity="1.000000" stroke="none" 
	d="
M197.661377,215.880859 
	C191.211319,216.838135 185.158585,217.700806 178.635361,218.630554 
	C178.635361,208.273407 178.635361,198.728180 178.635361,189.051712 
	C181.779022,188.688721 184.925629,188.521210 187.992004,187.934402 
	C197.005875,186.209457 203.959991,177.961288 203.977188,168.817993 
	C204.037079,136.997849 204.047440,105.177399 203.972000,73.357307 
	C203.945557,62.206150 194.949127,53.777039 183.119934,53.747635 
	C156.630966,53.681786 130.141739,53.725754 103.652626,53.725746 
	C91.824150,53.725742 79.995537,53.691589 68.167244,53.738087 
	C54.895267,53.790257 46.321369,62.376469 46.315586,75.603973 
	C46.302555,105.425034 46.309456,135.246109 46.327442,165.067169 
	C46.336468,180.029770 54.291683,188.212173 69.217072,188.678162 
	C70.034195,188.703690 70.849808,188.777664 71.889084,188.843140 
	C71.889084,198.401901 71.889084,207.858322 71.889084,217.816666 
	C57.459122,218.608810 44.458672,214.895935 33.563435,205.031204 
	C22.630371,195.132217 17.098085,182.601379 17.037901,167.883347 
	C16.910513,136.729996 16.969957,105.575714 17.007830,74.421890 
	C17.041819,46.462093 39.141636,24.304516 67.026344,24.279961 
	C105.843704,24.245777 144.661148,24.242828 183.478500,24.281708 
	C211.330795,24.309605 233.232635,46.124794 233.291916,73.925323 
	C233.357285,104.579208 232.797913,135.245178 233.497803,165.883331 
	C233.998306,187.793381 220.440231,208.847061 197.661377,215.880859 
z"/>
<path fill="#FBFBFB" opacity="1.000000" stroke="none" 
	d="
M91.534233,106.313126 
	C96.453186,103.575974 99.738503,105.864166 101.864639,109.561661 
	C106.334969,117.335838 106.318810,125.462585 101.823586,133.223648 
	C98.452003,139.044724 92.477646,138.824661 88.543770,133.239990 
	C84.422714,127.389587 84.088120,111.602257 91.534233,106.313126 
z"/>
<path fill="#FBFBFB" opacity="1.000000" stroke="none" 
	d="
M145.760590,119.207764 
	C147.064133,115.236565 147.718750,111.313004 149.728058,108.289818 
	C152.703766,103.812614 157.445786,104.068283 161.014435,108.151993 
	C166.513397,114.444618 166.476547,128.440247 160.944717,134.629395 
	C157.511566,138.470490 152.005844,138.706253 149.648407,134.144974 
	C147.402557,129.799576 146.955521,124.524498 145.760590,119.207764 
z"/>
</svg>