<svg xmlns="http://www.w3.org/2000/svg" width="30" height="32" viewBox="0 0 66.728 66.728">
  <g transform="translate(-2.463 305.289)">
    <g transform="translate(2.463 -305.289)">
      <g transform="translate(34.054 26.297)">
        <path fill="var(--color-text-dark, #13285a)" d="M-50.339-25.169a7.72,7.72,0,0,0-7.72-7.72,7.721,7.721,0,0,0-7.72,7.72,7.721,7.721,0,0,0,7.72,7.72,7.722,7.722,0,0,0,7.72-7.72" transform="translate(65.78 32.889)"/>
      </g>
      <g>
        <path fill="var(--color-text-dark, #13285a)" d="M-136.2-153.48a13.068,13.068,0,0,1-13.066-13.066A13.066,13.066,0,0,1-136.2-179.611a13.066,13.066,0,0,1,13.066,13.066A13.068,13.068,0,0,1-136.2-153.48m-15.447-24.238a2.717,2.717,0,0,1-2.7,2.741c-.059,0-.118,0-.174,0a2.724,2.724,0,0,1-2.872-2.561,1.678,1.678,0,0,1,0-.177,2.764,2.764,0,0,1,2.781-2.741h.093v0a2.779,2.779,0,0,1,2.872,2.685Zm-.428,20.783a2.388,2.388,0,0,1-2.443,2.328,2.39,2.39,0,0,1-2.443-2.328v-13.758a2.445,2.445,0,0,1,2.573-2.313,2.445,2.445,0,0,1,2.313,2.313Zm39.365-21.849c-1.85-8.055-5.165-16.75-11.349-20.085-6.224-3.309-15.316-1.257-22.946,1.9a59.166,59.166,0,0,0-19.787,13.087c-5.907,5.731-11.337,13.032-11.181,20.187.23,7.171,6.081,14.174,12.46,19.076,6.444,4.923,13.432,7.686,21.171,9.434l0,0c7.754,1.679,16.26,2.35,22.108-1.3,5.876-3.607,9.086-11.526,10.462-19.2a55.374,55.374,0,0,0-.941-23.1" transform="translate(177.977 200.557)"/>
      </g>
    </g>
  </g>
</svg>