<svg width="457" height="459" viewBox="0 0 457 459" fill="none" xmlns="http://www.w3.org/2000/svg">
<path d="M240.768 0.381599C269.861 2.3816 300.021 9.7616 326.288 22.2416C399.248 58.5216 448.608 129.522 455.658 211.012C459.124 265.312 445.961 314.452 416.168 358.432C347.238 460.192 208.188 489.922 104.918 422.422C74.5244 402.342 50.101 376.602 31.6477 345.202C17.3077 320.948 7.76436 294.642 3.0177 266.282C0.904364 252.875 -0.098979 239.188 0.00768762 225.222C1.36102 225.148 2.05103 226.005 2.07769 227.792C2.09769 230.038 2.14435 231.865 2.21768 233.272C2.47768 238.882 1.79769 244.242 2.56769 249.892C2.60769 250.192 2.73101 250.452 2.93768 250.672C3.68435 251.485 4.1177 252.438 4.2377 253.532C4.27103 253.865 4.45101 253.998 4.77768 253.932C8.77768 253.102 8.84769 250.372 10.8577 248.262C12.3177 246.742 24.1377 235.802 24.2677 243.582C24.2712 243.845 24.3375 244.103 24.4611 244.335C24.5848 244.567 24.7621 244.767 24.9783 244.916C25.1946 245.066 25.4435 245.162 25.7043 245.196C25.9651 245.23 26.2303 245.201 26.4777 245.112L29.3477 244.092C29.721 243.958 30.0344 244.042 30.2877 244.342C31.861 246.202 33.8377 246.675 36.2177 245.762C36.6377 245.602 36.7344 245.325 36.5077 244.932L35.9477 243.942C35.781 243.662 35.8144 243.405 36.0477 243.172C38.1277 241.102 41.3977 243.662 44.2177 240.512C44.4777 240.218 44.7877 239.995 45.1477 239.842C45.7477 239.575 46.371 239.465 47.0177 239.512C47.3575 239.531 47.6969 239.455 47.9977 239.292C48.7777 238.858 49.201 238.195 49.2677 237.302C49.2739 237.204 49.3 237.107 49.3446 237.018C49.3893 236.929 49.4515 236.848 49.5277 236.782C50.2343 236.142 51.0577 235.752 51.9977 235.612C52.3443 235.558 52.681 235.465 53.0077 235.332C54.4744 234.732 55.5843 233.772 56.3377 232.452C56.5243 232.125 56.7877 231.892 57.1277 231.752C58.6877 231.105 59.6677 229.982 60.0677 228.382C60.1088 228.224 60.1836 228.077 60.287 227.95C60.3904 227.822 60.5201 227.717 60.6677 227.642C61.7744 227.102 62.3344 226.085 62.3477 224.592C62.3544 223.765 62.831 223.418 63.7777 223.552C63.7936 223.55 63.8094 223.555 63.8216 223.566C63.8338 223.576 63.8414 223.591 63.8427 223.607C63.844 223.623 63.839 223.638 63.8286 223.651C63.8183 223.663 63.8036 223.67 63.7877 223.672C63.7077 223.705 63.6244 223.732 63.5377 223.752C63.5272 223.756 63.5178 223.762 63.5103 223.77C63.5027 223.778 63.4973 223.788 63.4944 223.799C63.4914 223.81 63.4911 223.821 63.4934 223.832C63.4957 223.843 63.5006 223.853 63.5077 223.862L63.9077 224.482C63.9241 224.506 63.9464 224.527 63.9726 224.541C63.9987 224.555 64.028 224.562 64.0577 224.562C64.0874 224.562 64.1166 224.555 64.1428 224.541C64.169 224.527 64.1913 224.506 64.2077 224.482L64.7777 223.602C65.0643 223.155 64.9444 222.905 64.4177 222.852C63.2777 222.732 62.6544 222.008 62.5477 220.682C62.5077 220.255 62.691 219.972 63.0977 219.832L64.6177 219.312C64.7977 219.252 64.931 219.302 65.0177 219.462L65.1777 219.762C65.4577 220.295 65.6344 220.262 65.7077 219.662C66.1077 216.422 66.2077 213.165 66.0077 209.892C65.8877 207.992 67.1077 206.022 67.2577 203.862C67.4577 200.932 68.7277 198.742 69.0877 195.922C69.4377 193.132 70.3777 190.262 70.7377 187.692C71.3577 183.272 72.4677 178.962 74.0677 174.762C74.3277 174.075 74.3944 173.045 74.2677 171.672C74.2344 171.312 74.3077 170.972 74.4877 170.652L78.7977 162.852C78.8598 162.739 78.8957 162.614 78.9026 162.486C78.9095 162.358 78.8873 162.23 78.8377 162.112C76.8477 157.292 79.9077 155.562 82.2477 152.442C82.4343 152.188 82.6743 152.005 82.9677 151.892C84.9677 151.102 84.0877 149.202 84.7877 147.932C85.3344 146.945 86.1177 146.188 87.1377 145.662C87.4044 145.522 87.5377 145.302 87.5377 145.002C87.5377 144.922 87.5477 144.832 87.5677 144.732C87.661 144.245 87.751 143.932 87.8377 143.792L92.4077 136.182C92.489 136.049 92.6055 135.94 92.7447 135.868C92.8838 135.796 93.0404 135.762 93.1977 135.772L94.3577 135.832C47.6277 205.772 66.6977 312.062 141.438 354.912C165.788 369.102 197.418 376.472 225.038 368.772C254.008 360.712 279.508 338.872 295.278 313.372C312.358 285.745 321.384 255.268 322.358 221.942C325.118 157.532 297.868 91.362 229.068 76.972C209.868 72.952 190.668 75.062 171.528 79.582C171.201 79.595 170.924 79.552 170.698 79.452C170.411 79.332 170.374 79.158 170.588 78.932C170.894 78.612 171.214 78.405 171.548 78.312C182.358 75.372 194.228 74.492 205.358 73.442C209.544 73.042 215.181 73.428 222.268 74.602C240.134 77.562 255.918 83.445 269.618 92.252C269.891 92.425 270.191 92.512 270.518 92.512H271.088C271.548 92.512 271.874 92.715 272.068 93.122C272.881 94.788 274.264 95.645 276.218 95.692C276.476 95.684 276.722 95.581 276.909 95.403C277.096 95.226 277.212 94.985 277.233 94.728C277.254 94.47 277.179 94.214 277.023 94.008C276.867 93.802 276.641 93.661 276.388 93.612C275.954 93.545 275.611 93.315 275.358 92.922C275.178 92.648 275.251 92.518 275.578 92.532C276.438 92.572 277.014 92.918 277.308 93.572C277.434 93.845 277.638 94.025 277.918 94.112C281.318 95.185 284.468 96.742 287.368 98.782C287.648 98.982 287.958 99.112 288.298 99.172C289.331 99.365 289.908 99.978 290.028 101.012C290.068 101.345 290.251 101.552 290.578 101.632C293.558 102.312 296.378 99.412 297.738 97.172C298.798 95.422 300.018 94.822 301.768 94.152C302.016 94.053 302.231 93.887 302.388 93.672C303.374 92.292 304.694 91.418 306.348 91.052C306.502 91.015 306.644 90.938 306.758 90.829C306.872 90.72 306.955 90.583 306.998 90.432C307.464 88.865 308.491 87.898 310.078 87.532C310.218 87.501 310.35 87.437 310.462 87.345C310.575 87.253 310.666 87.135 310.728 87.002L312.388 83.342C312.442 83.22 312.527 83.114 312.634 83.035C312.741 82.956 312.866 82.907 312.998 82.892L316.238 82.542C316.611 82.502 316.901 82.325 317.108 82.012C318.508 79.882 322.888 79.632 321.968 76.802C321.933 76.699 321.929 76.59 321.955 76.485C321.98 76.38 322.035 76.284 322.113 76.209C322.191 76.133 322.289 76.08 322.396 76.056C322.502 76.031 322.614 76.037 322.718 76.072C324.678 76.745 326.178 76.202 327.218 74.442C327.278 74.335 327.414 74.265 327.628 74.232C327.934 74.185 328.141 74.018 328.248 73.732C328.908 72.045 330.178 71.315 332.058 71.542C332.192 71.558 332.327 71.523 332.438 71.446C332.548 71.369 332.627 71.253 332.658 71.122C332.964 69.768 333.798 69.038 335.158 68.932C335.571 68.905 335.908 68.728 336.168 68.402C338.361 65.722 340.914 63.5016 343.828 61.7416C344.094 61.5749 344.281 61.3449 344.388 61.0516C344.754 59.9783 345.518 59.4516 346.678 59.4716C347.038 59.4783 347.351 59.3616 347.618 59.1216C349.098 57.7816 350.798 56.7316 352.718 55.9716C353.038 55.8383 353.338 55.8749 353.618 56.0816C356.428 58.1116 359.658 58.5216 362.578 60.4416C366.358 62.9116 368.528 57.7916 364.448 55.4316C364.286 55.3362 364.156 55.1966 364.073 55.0298C363.989 54.8629 363.956 54.676 363.978 54.4916L364.328 51.7316C364.361 51.4849 364.501 51.3783 364.748 51.4116L365.748 51.5416C366.214 51.6083 366.281 51.4783 365.948 51.1516L360.818 46.1716C360.591 45.9516 360.488 45.6849 360.508 45.3716C360.514 45.2316 360.498 45.0883 360.458 44.9416C360.398 44.6883 360.214 44.4483 359.908 44.2216C354.501 40.2349 348.871 36.5883 343.018 33.2816C340.998 32.1416 338.548 30.2616 336.008 29.1316C334.718 28.5716 332.888 28.9316 332.158 26.9416C332.038 26.6149 331.821 26.3716 331.508 26.2116C320.994 20.7583 310.078 16.2882 298.758 12.8016C296.108 11.9816 295.238 11.5316 291.748 11.4016C288.828 11.2916 285.558 9.0416 281.838 9.0316C276.438 9.0182 271.261 7.9049 266.308 5.6916C264.528 4.9016 260.738 4.0816 258.898 4.0016C252.798 3.7416 246.988 3.2216 240.768 3.6116C228.601 4.3783 216.441 4.1749 204.288 3.0016C203.974 2.9683 203.671 3.0649 203.378 3.2916C203.126 3.4921 202.816 3.6014 202.498 3.6016C192.724 3.6549 183.151 5.0516 173.778 7.7916C173.064 7.9983 172.404 8.1049 171.798 8.1116C169.998 8.1316 169.358 7.8649 169.878 7.3116C184.778 3.4183 201.537 1.0269 216.564 0.300201L221.951 0.0632019L227.401 0L234.052 0.0789986L240.768 0.381599Z" fill="url(#paint0_linear_302_178)"/>
<path d="M171.528 79.583C139.678 87.913 112.328 108.373 94.3578 135.833L93.1978 135.773C93.0405 135.763 92.8839 135.797 92.7448 135.869C92.6056 135.941 92.4891 136.049 92.4078 136.183L87.8378 143.793C87.7511 143.933 87.6611 144.246 87.5678 144.733C87.5478 144.833 87.5378 144.923 87.5378 145.003C87.5378 145.303 87.4045 145.523 87.1378 145.663C86.1178 146.189 85.3345 146.946 84.7878 147.933C84.0878 149.203 84.9678 151.103 82.9678 151.893C82.6745 152.006 82.4345 152.189 82.2478 152.443C79.9078 155.562 76.8478 157.293 78.8378 162.113C78.8874 162.231 78.9096 162.359 78.9027 162.487C78.8958 162.615 78.8599 162.74 78.7978 162.853L74.4878 170.653C74.3078 170.973 74.2345 171.313 74.2678 171.673C74.3945 173.046 74.3278 174.076 74.0678 174.763C72.4678 178.963 71.3578 183.273 70.7378 187.693C70.3778 190.263 69.4378 193.133 69.0878 195.923C68.7278 198.743 67.4578 200.933 67.2578 203.863C67.1078 206.023 65.8878 207.993 66.0078 209.893C66.2078 213.166 66.1078 216.423 65.7078 219.663C65.6345 220.263 65.4578 220.296 65.1778 219.763L65.0178 219.463C64.9312 219.303 64.7978 219.253 64.6178 219.312L63.0978 219.833C62.6911 219.973 62.5078 220.256 62.5478 220.683C62.6545 222.009 63.2778 222.733 64.4178 222.853C64.9445 222.906 65.0645 223.156 64.7778 223.603L64.2078 224.483C64.1914 224.507 64.1691 224.528 64.1429 224.542C64.1168 224.556 64.0875 224.563 64.0578 224.563C64.0281 224.563 63.9989 224.556 63.9727 224.542C63.9465 224.528 63.9242 224.507 63.9078 224.483L63.5078 223.863C63.5008 223.854 63.4959 223.844 63.4935 223.833C63.4912 223.822 63.4915 223.811 63.4945 223.8C63.4974 223.789 63.5029 223.779 63.5104 223.771C63.5179 223.763 63.5273 223.756 63.5378 223.753C63.6245 223.732 63.7078 223.706 63.7878 223.673C63.8037 223.671 63.8185 223.664 63.8288 223.651C63.8391 223.639 63.8441 223.623 63.8428 223.608C63.8415 223.592 63.8339 223.577 63.8217 223.567C63.8095 223.556 63.7937 223.551 63.7778 223.553C62.8311 223.419 62.3545 223.766 62.3478 224.592C62.3345 226.086 61.7745 227.103 60.6678 227.643C60.5202 227.718 60.3905 227.823 60.2871 227.95C60.1837 228.078 60.109 228.225 60.0678 228.383C59.6678 229.983 58.6878 231.106 57.1278 231.753C56.7878 231.893 56.5245 232.126 56.3378 232.453C55.5845 233.773 54.4745 234.733 53.0078 235.333C52.6811 235.466 52.3445 235.559 51.9978 235.612C51.0578 235.752 50.2345 236.143 49.5278 236.783C49.4516 236.849 49.3894 236.929 49.3448 237.019C49.3001 237.108 49.274 237.204 49.2678 237.302C49.2012 238.196 48.7778 238.859 47.9978 239.293C47.697 239.456 47.3576 239.532 47.0178 239.513C46.3712 239.466 45.7478 239.576 45.1478 239.843C44.7878 239.996 44.4778 240.219 44.2178 240.513C41.3978 243.663 38.1278 241.102 36.0478 243.172C35.8145 243.406 35.7811 243.663 35.9478 243.943L36.5078 244.932C36.7345 245.326 36.6378 245.603 36.2178 245.763C33.8378 246.676 31.8611 246.203 30.2878 244.343C30.0345 244.043 29.7211 243.959 29.3478 244.093L26.4778 245.112C26.2304 245.202 25.9653 245.231 25.7044 245.197C25.4436 245.163 25.1947 245.067 24.9785 244.917C24.7622 244.767 24.5849 244.568 24.4613 244.336C24.3377 244.104 24.2713 243.846 24.2678 243.583C24.1378 235.803 12.3178 246.743 10.8578 248.263C8.84782 250.373 8.7778 253.102 4.7778 253.932C4.45113 253.999 4.27116 253.866 4.23782 253.533C4.11782 252.439 3.68447 251.486 2.93781 250.672C2.73114 250.452 2.60781 250.193 2.56781 249.893C1.79781 244.243 2.4778 238.883 2.2178 233.273C2.14447 231.866 2.09782 230.039 2.07782 227.793C2.05115 226.006 1.36115 225.149 0.0078125 225.223C0.721146 195.409 6.71449 166.762 17.9878 139.283C44.6978 75.143 97.9178 28.5625 164.048 8.8225C166.114 8.2092 168.058 7.7058 169.878 7.3125C169.358 7.8658 169.998 8.1325 171.798 8.1125C172.404 8.1059 173.064 7.9992 173.778 7.7925C183.151 5.0525 192.724 3.6558 202.498 3.6025C202.816 3.6023 203.126 3.4931 203.378 3.2925C203.671 3.0658 203.974 2.9692 204.288 3.0025C216.441 4.1758 228.601 4.3792 240.768 3.6125C246.988 3.2225 252.798 3.7425 258.898 4.0025C260.738 4.0825 264.528 4.9025 266.308 5.6925C271.261 7.9058 276.438 9.0192 281.838 9.0325C285.558 9.0425 288.828 11.2925 291.748 11.4025C295.238 11.5325 296.108 11.9825 298.758 12.8025C310.078 16.2892 320.994 20.7592 331.508 26.2125C331.821 26.3725 332.038 26.6158 332.158 26.9425C332.888 28.9325 334.718 28.5725 336.008 29.1325C338.548 30.2625 340.998 32.1425 343.018 33.2825C348.871 36.5892 354.501 40.2358 359.908 44.2225C360.214 44.4492 360.398 44.6892 360.458 44.9425C360.498 45.0892 360.514 45.2325 360.508 45.3725C360.488 45.6858 360.591 45.9525 360.818 46.1725L365.948 51.1525C366.281 51.4792 366.215 51.6092 365.748 51.5425L364.748 51.4125C364.501 51.3792 364.361 51.4858 364.328 51.7325L363.978 54.4925C363.956 54.6769 363.99 54.8638 364.073 55.0307C364.156 55.1975 364.286 55.3371 364.448 55.4325C368.528 57.7925 366.358 62.9125 362.578 60.4425C359.658 58.5225 356.428 58.1125 353.618 56.0825C353.338 55.8759 353.038 55.8392 352.718 55.9725C350.798 56.7325 349.098 57.7825 347.618 59.1225C347.351 59.3625 347.038 59.4792 346.678 59.4725C345.518 59.4525 344.754 59.9792 344.388 61.0525C344.281 61.3459 344.094 61.5759 343.828 61.7425C340.914 63.5025 338.361 65.723 336.168 68.403C335.908 68.729 335.571 68.906 335.158 68.933C333.798 69.039 332.964 69.769 332.658 71.122C332.627 71.254 332.549 71.369 332.438 71.447C332.327 71.524 332.192 71.558 332.058 71.543C330.178 71.316 328.908 72.046 328.248 73.733C328.141 74.019 327.935 74.186 327.628 74.233C327.414 74.266 327.278 74.336 327.218 74.443C326.178 76.203 324.678 76.746 322.718 76.073C322.614 76.038 322.502 76.032 322.396 76.057C322.289 76.081 322.191 76.134 322.113 76.21C322.035 76.285 321.98 76.381 321.955 76.486C321.929 76.59 321.934 76.7 321.968 76.803C322.888 79.633 318.508 79.883 317.108 82.013C316.901 82.326 316.611 82.503 316.238 82.543L312.998 82.893C312.867 82.908 312.741 82.957 312.634 83.036C312.527 83.115 312.442 83.22 312.388 83.342L310.728 87.003C310.666 87.136 310.575 87.254 310.462 87.345C310.35 87.437 310.218 87.501 310.078 87.533C308.491 87.899 307.465 88.866 306.998 90.433C306.955 90.584 306.873 90.721 306.758 90.83C306.644 90.939 306.502 91.016 306.348 91.053C304.694 91.419 303.374 92.293 302.388 93.673C302.231 93.888 302.016 94.054 301.768 94.153C300.018 94.823 298.798 95.423 297.738 97.173C296.378 99.413 293.558 102.313 290.578 101.633C290.251 101.553 290.068 101.346 290.028 101.013C289.908 99.979 289.331 99.366 288.298 99.173C287.958 99.113 287.648 98.982 287.368 98.783C284.468 96.743 281.318 95.186 277.918 94.113C277.638 94.026 277.435 93.846 277.308 93.573C277.014 92.919 276.438 92.573 275.578 92.533C275.251 92.519 275.178 92.649 275.358 92.923C275.611 93.316 275.954 93.546 276.388 93.613C276.641 93.662 276.868 93.803 277.023 94.009C277.179 94.215 277.254 94.471 277.233 94.729C277.212 94.986 277.097 95.226 276.909 95.404C276.722 95.582 276.476 95.685 276.218 95.693C274.264 95.646 272.881 94.789 272.068 93.122C271.875 92.716 271.548 92.513 271.088 92.513H270.518C270.191 92.513 269.891 92.426 269.618 92.253C255.918 83.446 240.134 77.563 222.268 74.603C215.181 73.429 209.544 73.043 205.358 73.443C194.228 74.493 182.358 75.372 171.548 78.312C171.214 78.406 170.894 78.613 170.588 78.933C170.374 79.159 170.411 79.333 170.698 79.453C170.924 79.553 171.201 79.596 171.528 79.583Z" fill="url(#paint1_linear_302_178)"/>
<defs>
<linearGradient id="paint0_linear_302_178" x1="423" y1="147.5" x2="139" y2="459" gradientUnits="userSpaceOnUse">
<stop stop-color="#B40FAD"/>
<stop offset="1" stop-color="#4446ED"/>
</linearGradient>
<linearGradient id="paint1_linear_302_178" x1="339.964" y1="83.693" x2="200.136" y2="308.989" gradientUnits="userSpaceOnUse">
<stop stop-color="#B40FAD"/>
<stop offset="1" stop-color="#4446ED"/>
</linearGradient>
</defs>
</svg>
