<svg width="26" height="30">
  <g fill="#101330" transform="translate(-33, 10)">
    <path fill-rule="evenodd" clip-rule="evenodd" d="M 48.002,6.918 V 6.842 c 0.558,-0.28 1.116,-0.762 1.116,-1.716 0,-1.372 -1.13,-2.198 -2.69,-2.198 -1.598,0 -2.74,0.877 -2.74,2.224 0,0.915 0.533,1.41 1.116,1.69 v 0.076 a 2.16,2.16 0 0 0 -1.42,2.059 c 0,1.385 1.141,2.351 3.032,2.351 1.89,0 2.994,-0.966 2.994,-2.351 A 2.16,2.16 0 0 0 48.002,6.918 m -1.587,-2.82 c 0.635,0 1.104,0.406 1.104,1.092 0,0.686 -0.482,1.093 -1.103,1.093 -0.622,0 -1.142,-0.407 -1.142,-1.093 0,-0.699 0.495,-1.093 1.142,-1.093 m 0,6.01 c -0.735,0 -1.332,-0.47 -1.332,-1.27 0,-0.725 0.495,-1.272 1.32,-1.272 0.812,0 1.307,0.534 1.307,1.297 0,0.775 -0.571,1.245 -1.294,1.245" />
    <path d="m 51.367,11.2 h 1.624 V 7.758 c 0,-1.131 0.685,-1.627 1.46,-1.627 0.76,0 1.357,0.509 1.357,1.55 v 3.52 h 1.624 V 7.35 c 0,-1.664 -0.964,-2.63 -2.474,-2.63 -0.952,0 -1.485,0.381 -1.865,0.877 h -0.102 l -0.14,-0.75 h -1.484 z m -14.376,0 H 35.367 V 4.848 h 1.485 l 0.14,0.75 h 0.1 c 0.381,-0.496 0.914,-0.877 1.866,-0.877 1.51,0 2.474,0.966 2.474,2.63 v 3.85 H 39.808 V 7.68 c 0,-1.041 -0.596,-1.55 -1.358,-1.55 -0.774,0 -1.459,0.496 -1.459,1.627 z" />
  </g>
</svg>
