<svg xmlns="http://www.w3.org/2000/svg" xmlns:xlink="http://www.w3.org/1999/xlink" width="1833" zoomAndPan="magnify" viewBox="0 0 1374.75 445.499982" height="594" preserveAspectRatio="xMidYMid meet" version="1.0"><defs><g/><clipPath id="6ed86eb72e"><rect x="0" width="1228" y="0" height="307"/></clipPath><clipPath id="85dae733f0"><rect x="0" width="291" y="0" height="89"/></clipPath></defs><g transform="matrix(1, 0, 0, 1, 83, 67)"><g clip-path="url(#6ed86eb72e)"><g fill="#000000" fill-opacity="1"><g transform="translate(11.75862, 224.968252)"><g><path d="M 69.855469 -179.457031 L 97.390625 -179.457031 L 169.015625 5.578125 L 117.703125 5.578125 L 105.917969 -26.90625 L 111.160156 -28.808594 L 111.160156 -23.234375 L 52.265625 -23.234375 L 52.265625 -28.808594 L 57.523438 -26.949219 L 46.007812 5.578125 L -5.589844 5.578125 L 66.035156 -179.457031 Z M 69.855469 -168.300781 L 69.855469 -173.878906 L 75.058594 -171.863281 L 7.75 2.011719 L 2.550781 0 L 2.550781 -5.578125 L 42.066406 -5.578125 L 42.066406 0 L 36.808594 -1.859375 L 48.324219 -34.386719 L 115.070312 -34.386719 L 126.855469 -1.902344 L 121.613281 0 L 121.613281 -5.578125 L 160.875 -5.578125 L 160.875 0 L 155.675781 2.011719 L 88.367188 -171.863281 L 93.566406 -173.878906 L 93.566406 -168.300781 Z M 94.429688 -59.066406 L 76.585938 -109.292969 L 81.839844 -111.160156 L 87.085938 -109.269531 L 68.984375 -59.042969 L 63.738281 -60.933594 L 63.738281 -66.511719 L 99.6875 -66.511719 L 99.6875 -60.933594 Z M 107.585938 -55.355469 L 55.800781 -55.355469 L 81.878906 -127.710938 L 104.941406 -62.800781 Z M 107.585938 -55.355469 "/></g></g></g><g fill="#000000" fill-opacity="1"><g transform="translate(200.166817, 224.968252)"><g><path d="M 19.121094 -176.394531 L 86.683594 -176.394531 C 100.152344 -176.394531 112.613281 -174.09375 124.074219 -169.492188 C 135.535156 -164.890625 145.472656 -158.558594 153.894531 -150.5 C 162.34375 -142.414062 168.972656 -132.800781 173.773438 -121.652344 C 178.582031 -110.496094 180.984375 -98.414062 180.984375 -85.410156 C 180.984375 -72.398438 178.578125 -60.355469 173.765625 -49.277344 C 168.96875 -38.234375 162.351562 -28.628906 153.917969 -20.46875 C 145.492188 -12.3125 135.542969 -5.929688 124.074219 -1.324219 C 112.613281 3.277344 100.152344 5.578125 86.683594 5.578125 L 13.542969 5.578125 L 13.542969 -176.394531 Z M 19.121094 -165.242188 L 19.121094 -170.820312 L 24.699219 -170.820312 L 24.699219 0 L 19.121094 0 L 19.121094 -5.578125 L 86.683594 -5.578125 C 98.714844 -5.578125 109.789062 -7.609375 119.917969 -11.675781 C 130.035156 -15.738281 138.78125 -21.339844 146.160156 -28.484375 C 153.535156 -35.617188 159.328125 -44.03125 163.535156 -53.722656 C 167.734375 -63.382812 169.832031 -73.945312 169.832031 -85.410156 C 169.832031 -96.878906 167.730469 -107.488281 163.53125 -117.238281 C 159.324219 -127 153.542969 -135.398438 146.183594 -142.441406 C 138.800781 -149.507812 130.042969 -155.074219 119.917969 -159.140625 C 109.789062 -163.207031 98.714844 -165.242188 86.683594 -165.242188 Z M 86.9375 -40.507812 C 93.316406 -40.507812 99.125 -41.628906 104.375 -43.878906 C 109.648438 -46.140625 114.238281 -49.257812 118.140625 -53.238281 C 122.042969 -57.214844 125.085938 -61.917969 127.273438 -67.351562 C 129.46875 -72.800781 130.566406 -78.820312 130.566406 -85.410156 C 130.566406 -91.996094 129.46875 -98.015625 127.273438 -103.46875 C 125.085938 -108.898438 122.042969 -113.605469 118.140625 -117.578125 C 114.238281 -121.558594 109.648438 -124.679688 104.375 -126.941406 C 99.125 -129.1875 93.316406 -130.3125 86.9375 -130.3125 L 56.34375 -130.3125 L 56.34375 -135.890625 L 61.921875 -135.890625 L 61.921875 -34.929688 L 56.34375 -34.929688 L 56.34375 -40.507812 Z M 86.9375 -29.351562 L 50.765625 -29.351562 L 50.765625 -141.46875 L 86.9375 -141.46875 C 94.839844 -141.46875 102.117188 -140.042969 108.769531 -137.191406 C 115.390625 -134.355469 121.171875 -130.421875 126.105469 -125.390625 C 131.042969 -120.359375 134.882812 -114.441406 137.621094 -107.632812 C 140.355469 -100.847656 141.722656 -93.4375 141.722656 -85.410156 C 141.722656 -77.378906 140.355469 -69.972656 137.621094 -63.183594 C 134.878906 -56.378906 131.042969 -50.460938 126.105469 -45.425781 C 121.171875 -40.398438 115.390625 -36.464844 108.769531 -33.625 C 102.117188 -30.777344 94.839844 -29.351562 86.9375 -29.351562 Z M 86.9375 -29.351562 "/></g></g></g><g fill="#000000" fill-opacity="1"><g transform="translate(409.480778, 224.968252)"><g><path d="M 19.121094 -176.394531 L 122.347656 -176.394531 L 122.347656 -130.3125 L 56.34375 -130.3125 L 56.34375 -135.890625 L 61.921875 -135.890625 L 61.921875 -104.53125 L 56.34375 -104.53125 L 56.34375 -110.109375 L 106.027344 -110.109375 L 106.027344 -64.023438 L 56.34375 -64.023438 L 56.34375 -69.601562 L 61.921875 -69.601562 L 61.921875 -34.929688 L 56.34375 -34.929688 L 56.34375 -40.507812 L 123.621094 -40.507812 L 123.621094 5.578125 L 13.542969 5.578125 L 13.542969 -176.394531 Z M 19.121094 -165.242188 L 19.121094 -170.820312 L 24.699219 -170.820312 L 24.699219 0 L 19.121094 0 L 19.121094 -5.578125 L 118.042969 -5.578125 L 118.042969 0 L 112.464844 0 L 112.464844 -34.929688 L 118.042969 -34.929688 L 118.042969 -29.351562 L 50.765625 -29.351562 L 50.765625 -75.179688 L 100.453125 -75.179688 L 100.453125 -69.601562 L 94.875 -69.601562 L 94.875 -104.53125 L 100.453125 -104.53125 L 100.453125 -98.953125 L 50.765625 -98.953125 L 50.765625 -141.46875 L 116.769531 -141.46875 L 116.769531 -135.890625 L 111.191406 -135.890625 L 111.191406 -170.820312 L 116.769531 -170.820312 L 116.769531 -165.242188 Z M 19.121094 -165.242188 "/></g></g></g><g fill="#000000" fill-opacity="1"><g transform="translate(565.255558, 224.968252)"><g><path d="M 97.648438 9.148438 C 84.171875 9.148438 71.660156 6.800781 60.109375 2.109375 C 48.535156 -2.59375 38.527344 -9.164062 30.09375 -17.601562 C 21.65625 -26.035156 15.085938 -36.042969 10.386719 -47.617188 C 5.691406 -59.167969 3.347656 -71.679688 3.347656 -85.15625 C 3.347656 -98.640625 5.738281 -111.164062 10.527344 -122.726562 C 15.308594 -134.277344 21.910156 -144.308594 30.328125 -152.816406 C 38.753906 -161.332031 48.707031 -167.988281 60.1875 -172.777344 C 71.667969 -177.570312 84.070312 -179.964844 97.390625 -179.964844 C 111.445312 -179.964844 124.527344 -177.253906 136.640625 -171.832031 C 148.769531 -166.398438 159.269531 -158.617188 168.132812 -148.488281 L 171.621094 -144.5 L 137.546875 -111.429688 L 133.6875 -115.953125 C 129.253906 -121.152344 124.023438 -125.238281 117.996094 -128.210938 C 112.0625 -131.140625 105.53125 -132.609375 98.414062 -132.609375 C 91.871094 -132.609375 85.890625 -131.441406 80.476562 -129.109375 C 75.046875 -126.773438 70.335938 -123.535156 66.351562 -119.398438 C 62.375 -115.273438 59.289062 -110.332031 57.09375 -104.582031 C 54.875 -98.765625 53.761719 -92.457031 53.761719 -85.664062 C 53.761719 -78.722656 54.910156 -72.351562 57.199219 -66.550781 C 59.484375 -60.761719 62.632812 -55.746094 66.640625 -51.511719 C 70.605469 -47.320312 75.371094 -44.0625 80.9375 -41.730469 C 86.535156 -39.382812 92.699219 -38.210938 99.433594 -38.210938 C 106.710938 -38.210938 113.359375 -39.714844 119.375 -42.722656 C 125.464844 -45.769531 130.640625 -49.875 134.898438 -55.046875 L 138.707031 -59.671875 L 172.859375 -27.195312 L 169.476562 -23.175781 C 160.78125 -12.851562 150.320312 -4.882812 138.089844 0.734375 C 125.878906 6.34375 112.398438 9.148438 97.648438 9.148438 Z M 97.648438 -2.007812 C 110.773438 -2.007812 122.699219 -4.472656 133.433594 -9.402344 C 144.152344 -14.324219 153.320312 -21.3125 160.945312 -30.363281 L 165.210938 -26.769531 L 161.367188 -22.730469 L 135.363281 -47.460938 L 139.203125 -51.5 L 143.511719 -47.957031 C 138.25 -41.566406 131.867188 -36.496094 124.363281 -32.746094 C 116.777344 -28.953125 108.46875 -27.058594 99.433594 -27.058594 C 91.207031 -27.058594 83.605469 -28.519531 76.625 -31.441406 C 69.613281 -34.378906 63.585938 -38.511719 58.539062 -43.84375 C 53.542969 -49.125 49.636719 -55.328125 46.824219 -62.457031 C 44.011719 -69.570312 42.609375 -77.308594 42.609375 -85.664062 C 42.609375 -93.828125 43.964844 -101.460938 46.671875 -108.558594 C 49.40625 -115.726562 53.289062 -121.921875 58.320312 -127.140625 C 63.34375 -132.351562 69.257812 -136.425781 76.066406 -139.355469 C 82.886719 -142.292969 90.335938 -143.761719 98.414062 -143.761719 C 107.269531 -143.761719 115.441406 -141.914062 122.933594 -138.214844 C 130.335938 -134.5625 136.746094 -129.554688 142.171875 -123.191406 L 137.929688 -119.574219 L 134.046875 -123.574219 L 160.050781 -148.816406 L 163.933594 -144.8125 L 159.738281 -141.140625 C 151.945312 -150.046875 142.726562 -156.882812 132.082031 -161.648438 C 121.417969 -166.425781 109.855469 -168.8125 97.390625 -168.8125 C 85.558594 -168.8125 74.589844 -166.703125 64.484375 -162.484375 C 54.378906 -158.269531 45.636719 -152.429688 38.257812 -144.96875 C 30.867188 -137.5 25.058594 -128.664062 20.832031 -118.460938 C 16.613281 -108.265625 14.5 -97.164062 14.5 -85.15625 C 14.5 -73.132812 16.574219 -62.019531 20.71875 -51.816406 C 24.855469 -41.632812 30.609375 -32.859375 37.980469 -25.488281 C 45.351562 -18.117188 54.128906 -12.363281 64.308594 -8.226562 C 74.511719 -4.082031 85.625 -2.007812 97.648438 -2.007812 Z M 97.648438 -2.007812 "/></g></g></g><g fill="#000000" fill-opacity="1"><g transform="translate(760.547405, 224.968252)"><g><path d="M 97.136719 9.148438 C 83.796875 9.148438 71.421875 6.703125 60.011719 1.8125 C 48.636719 -3.0625 38.742188 -9.753906 30.328125 -18.257812 C 21.914062 -26.761719 15.316406 -36.742188 10.53125 -48.207031 C 5.742188 -59.6875 3.347656 -72.085938 3.347656 -85.410156 C 3.347656 -98.726562 5.738281 -111.164062 10.527344 -122.726562 C 15.308594 -134.277344 21.910156 -144.308594 30.328125 -152.816406 C 38.75 -161.328125 48.65625 -167.980469 60.046875 -172.773438 C 71.445312 -177.566406 83.808594 -179.964844 97.136719 -179.964844 C 110.289062 -179.964844 122.605469 -177.570312 134.085938 -172.777344 C 145.566406 -167.988281 155.519531 -161.332031 163.949219 -152.816406 C 172.363281 -144.308594 178.964844 -134.277344 183.75 -122.726562 C 188.535156 -111.164062 190.929688 -98.726562 190.929688 -85.410156 C 190.929688 -72.085938 188.535156 -59.6875 183.742188 -48.207031 C 178.960938 -36.742188 172.359375 -26.761719 163.949219 -18.257812 C 155.53125 -9.75 145.585938 -3.058594 134.121094 1.816406 C 122.628906 6.703125 110.304688 9.148438 97.136719 9.148438 Z M 97.136719 -2.007812 C 108.789062 -2.007812 119.660156 -4.152344 129.757812 -8.445312 C 139.875 -12.75 148.628906 -18.636719 156.019531 -26.105469 C 163.414062 -33.578125 169.222656 -42.375 173.449219 -52.5 C 177.664062 -62.605469 179.773438 -73.578125 179.773438 -85.410156 C 179.773438 -97.246094 177.664062 -108.265625 173.441406 -118.460938 C 169.21875 -128.664062 163.410156 -137.5 156.019531 -144.96875 C 148.640625 -152.429688 139.894531 -158.269531 129.789062 -162.484375 C 119.683594 -166.703125 108.800781 -168.8125 97.136719 -168.8125 C 85.308594 -168.8125 74.386719 -166.703125 64.371094 -162.492188 C 54.34375 -158.273438 45.640625 -152.433594 38.257812 -144.96875 C 30.867188 -137.5 25.058594 -128.664062 20.832031 -118.460938 C 16.613281 -108.265625 14.5 -97.246094 14.5 -85.410156 C 14.5 -73.578125 16.609375 -62.605469 20.828125 -52.5 C 25.050781 -42.375 30.863281 -33.578125 38.257812 -26.105469 C 45.648438 -18.632812 54.367188 -12.742188 64.40625 -8.441406 C 74.414062 -4.152344 85.324219 -2.007812 97.136719 -2.007812 Z M 97.136719 -38.210938 C 103.488281 -38.210938 109.28125 -39.371094 114.511719 -41.683594 C 119.742188 -44.003906 124.261719 -47.25 128.070312 -51.433594 C 131.929688 -55.671875 134.96875 -60.691406 137.179688 -66.492188 C 139.402344 -72.308594 140.511719 -78.617188 140.511719 -85.410156 C 140.511719 -92.203125 139.402344 -98.507812 137.179688 -104.328125 C 134.972656 -110.113281 131.949219 -115.078125 128.105469 -119.222656 C 124.273438 -123.351562 119.722656 -126.621094 114.449219 -129.035156 C 109.238281 -131.417969 103.464844 -132.609375 97.136719 -132.609375 C 90.808594 -132.609375 85.039062 -131.417969 79.824219 -129.035156 C 74.550781 -126.621094 70 -123.351562 66.171875 -119.222656 C 62.328125 -115.078125 59.300781 -110.113281 57.09375 -104.328125 C 54.875 -98.507812 53.761719 -92.203125 53.761719 -85.410156 C 53.761719 -78.617188 54.875 -72.308594 57.09375 -66.492188 C 59.300781 -60.707031 62.328125 -55.742188 66.171875 -51.597656 C 70 -47.464844 74.550781 -44.195312 79.824219 -41.785156 C 85.039062 -39.402344 90.808594 -38.210938 97.136719 -38.210938 Z M 97.136719 -27.058594 C 89.1875 -27.058594 81.871094 -28.585938 75.1875 -31.640625 C 68.5625 -34.667969 62.832031 -38.792969 57.992188 -44.011719 C 53.167969 -49.214844 49.394531 -55.382812 46.671875 -62.515625 C 43.964844 -69.613281 42.609375 -77.246094 42.609375 -85.410156 C 42.609375 -93.574219 43.964844 -101.203125 46.671875 -108.304688 C 49.394531 -115.4375 53.167969 -121.605469 57.992188 -126.808594 C 62.832031 -132.027344 68.5625 -136.148438 75.1875 -139.179688 C 81.871094 -142.234375 89.1875 -143.761719 97.136719 -143.761719 C 105.085938 -143.761719 112.402344 -142.234375 119.085938 -139.179688 C 125.710938 -136.148438 131.445312 -132.027344 136.285156 -126.808594 C 141.109375 -121.605469 144.882812 -115.4375 147.601562 -108.304688 C 150.3125 -101.203125 151.664062 -93.574219 151.664062 -85.410156 C 151.664062 -77.246094 150.3125 -69.613281 147.601562 -62.515625 C 144.886719 -55.398438 141.125 -49.199219 136.316406 -43.921875 C 131.457031 -38.582031 125.691406 -34.4375 119.027344 -31.484375 C 112.359375 -28.535156 105.0625 -27.058594 97.136719 -27.058594 Z M 97.136719 -27.058594 "/></g></g></g><g fill="#000000" fill-opacity="1"><g transform="translate(979.804368, 224.968252)"><g><path d="M 19.121094 -179.457031 L 41.007812 -179.457031 L 113.050781 -84.707031 L 108.609375 -81.332031 L 104.152344 -84.683594 L 175.429688 -179.457031 L 202.910156 -179.457031 L 202.910156 5.578125 L 154.535156 5.578125 L 154.535156 -95.097656 L 160.109375 -95.097656 L 164.554688 -91.730469 L 118.265625 -30.625 L 97.933594 -30.625 L 51.898438 -91.476562 L 56.34375 -94.84375 L 61.921875 -94.84375 L 61.921875 5.578125 L 13.542969 5.578125 L 13.542969 -179.457031 Z M 19.121094 -168.300781 L 19.121094 -173.878906 L 24.699219 -173.878906 L 24.699219 0 L 19.121094 0 L 19.121094 -5.578125 L 56.34375 -5.578125 L 56.34375 0 L 50.765625 0 L 50.765625 -111.460938 L 105.15625 -39.566406 L 100.707031 -36.203125 L 100.707031 -41.78125 L 115.492188 -41.78125 L 115.492188 -36.203125 L 111.046875 -39.570312 L 165.6875 -111.695312 L 165.6875 0 L 160.109375 0 L 160.109375 -5.578125 L 197.335938 -5.578125 L 197.335938 0 L 191.757812 0 L 191.757812 -173.878906 L 197.335938 -173.878906 L 197.335938 -168.300781 L 178.210938 -168.300781 L 178.210938 -173.878906 L 182.671875 -170.527344 L 108.632812 -72.082031 L 33.804688 -170.503906 L 38.242188 -173.878906 L 38.242188 -168.300781 Z M 19.121094 -168.300781 "/></g></g></g><g fill="#ffffff" fill-opacity="1"><g transform="translate(11.75862, 224.968252)"><g><path d="M 69.859375 -173.875 L 93.5625 -173.875 L 160.875 0 L 121.609375 0 L 111.15625 -28.8125 L 52.265625 -28.8125 L 42.0625 0 L 2.546875 0 Z M 99.6875 -60.9375 L 81.84375 -111.15625 L 63.734375 -60.9375 Z M 99.6875 -60.9375 "/></g></g></g><g fill="#ffffff" fill-opacity="1"><g transform="translate(200.166817, 224.968252)"><g><path d="M 19.125 -170.8125 L 86.6875 -170.8125 C 99.4375 -170.8125 111.207031 -168.644531 122 -164.3125 C 132.789062 -159.976562 142.132812 -154.03125 150.03125 -146.46875 C 157.9375 -138.90625 164.140625 -129.894531 168.640625 -119.4375 C 173.148438 -108.988281 175.40625 -97.644531 175.40625 -85.40625 C 175.40625 -73.164062 173.148438 -61.863281 168.640625 -51.5 C 164.140625 -41.132812 157.9375 -32.125 150.03125 -24.46875 C 142.132812 -16.820312 132.789062 -10.832031 122 -6.5 C 111.207031 -2.164062 99.4375 0 86.6875 0 L 19.125 0 Z M 86.9375 -34.921875 C 94.070312 -34.921875 100.613281 -36.195312 106.5625 -38.75 C 112.519531 -41.300781 117.707031 -44.828125 122.125 -49.328125 C 126.539062 -53.835938 129.976562 -59.148438 132.4375 -65.265625 C 134.90625 -71.390625 136.140625 -78.101562 136.140625 -85.40625 C 136.140625 -92.71875 134.90625 -99.429688 132.4375 -105.546875 C 129.976562 -111.671875 126.539062 -116.984375 122.125 -121.484375 C 117.707031 -125.984375 112.519531 -129.507812 106.5625 -132.0625 C 100.613281 -134.613281 94.070312 -135.890625 86.9375 -135.890625 L 56.34375 -135.890625 L 56.34375 -34.921875 Z M 86.9375 -34.921875 "/></g></g></g><g fill="#ffffff" fill-opacity="1"><g transform="translate(409.480778, 224.968252)"><g><path d="M 19.125 -170.8125 L 116.765625 -170.8125 L 116.765625 -135.890625 L 56.34375 -135.890625 L 56.34375 -104.53125 L 100.453125 -104.53125 L 100.453125 -69.609375 L 56.34375 -69.609375 L 56.34375 -34.921875 L 118.046875 -34.921875 L 118.046875 0 L 19.125 0 Z M 19.125 -170.8125 "/></g></g></g><g fill="#ffffff" fill-opacity="1"><g transform="translate(565.255558, 224.968252)"><g><path d="M 97.640625 3.5625 C 84.898438 3.5625 73.085938 1.351562 62.203125 -3.0625 C 51.328125 -7.476562 41.9375 -13.640625 34.03125 -21.546875 C 26.132812 -29.453125 19.972656 -38.84375 15.546875 -49.71875 C 11.128906 -60.59375 8.921875 -72.40625 8.921875 -85.15625 C 8.921875 -97.90625 11.171875 -109.71875 15.671875 -120.59375 C 20.179688 -131.46875 26.382812 -140.898438 34.28125 -148.890625 C 42.1875 -156.878906 51.535156 -163.125 62.328125 -167.625 C 73.128906 -172.132812 84.816406 -174.390625 97.390625 -174.390625 C 110.648438 -174.390625 122.972656 -171.835938 134.359375 -166.734375 C 145.742188 -161.640625 155.601562 -154.332031 163.9375 -144.8125 L 137.921875 -119.578125 C 132.992188 -125.347656 127.171875 -129.890625 120.453125 -133.203125 C 113.742188 -136.523438 106.394531 -138.1875 98.40625 -138.1875 C 91.101562 -138.1875 84.390625 -136.867188 78.265625 -134.234375 C 72.148438 -131.597656 66.835938 -127.941406 62.328125 -123.265625 C 57.828125 -118.597656 54.34375 -113.03125 51.875 -106.5625 C 49.414062 -100.101562 48.1875 -93.140625 48.1875 -85.671875 C 48.1875 -78.015625 49.457031 -70.957031 52 -64.5 C 54.550781 -58.039062 58.078125 -52.429688 62.578125 -47.671875 C 67.085938 -42.910156 72.488281 -39.210938 78.78125 -36.578125 C 85.070312 -33.953125 91.957031 -32.640625 99.4375 -32.640625 C 107.59375 -32.640625 115.066406 -34.335938 121.859375 -37.734375 C 128.660156 -41.128906 134.441406 -45.71875 139.203125 -51.5 L 165.203125 -26.765625 C 157.046875 -17.078125 147.226562 -9.597656 135.75 -4.328125 C 124.28125 0.929688 111.578125 3.5625 97.640625 3.5625 Z M 97.640625 3.5625 "/></g></g></g><g fill="#ffffff" fill-opacity="1"><g transform="translate(760.547405, 224.968252)"><g><path d="M 97.140625 3.5625 C 84.554688 3.5625 72.910156 1.269531 62.203125 -3.3125 C 51.492188 -7.90625 42.1875 -14.191406 34.28125 -22.171875 C 26.382812 -30.160156 20.179688 -39.550781 15.671875 -50.34375 C 11.171875 -61.144531 8.921875 -72.832031 8.921875 -85.40625 C 8.921875 -97.988281 11.171875 -109.71875 15.671875 -120.59375 C 20.179688 -131.46875 26.382812 -140.898438 34.28125 -148.890625 C 42.1875 -156.878906 51.492188 -163.125 62.203125 -167.625 C 72.910156 -172.132812 84.554688 -174.390625 97.140625 -174.390625 C 109.546875 -174.390625 121.144531 -172.132812 131.9375 -167.625 C 142.726562 -163.125 152.078125 -156.878906 159.984375 -148.890625 C 167.890625 -140.898438 174.09375 -131.46875 178.59375 -120.59375 C 183.09375 -109.71875 185.34375 -97.988281 185.34375 -85.40625 C 185.34375 -72.832031 183.09375 -61.144531 178.59375 -50.34375 C 174.09375 -39.550781 167.890625 -30.160156 159.984375 -22.171875 C 152.078125 -14.191406 142.726562 -7.90625 131.9375 -3.3125 C 121.144531 1.269531 109.546875 3.5625 97.140625 3.5625 Z M 97.140625 -32.640625 C 104.273438 -32.640625 110.816406 -33.953125 116.765625 -36.578125 C 122.710938 -39.210938 127.851562 -42.910156 132.1875 -47.671875 C 136.519531 -52.429688 139.921875 -58.039062 142.390625 -64.5 C 144.859375 -70.957031 146.09375 -77.925781 146.09375 -85.40625 C 146.09375 -92.882812 144.859375 -99.851562 142.390625 -106.3125 C 139.921875 -112.769531 136.519531 -118.335938 132.1875 -123.015625 C 127.851562 -127.691406 122.710938 -131.390625 116.765625 -134.109375 C 110.816406 -136.828125 104.273438 -138.1875 97.140625 -138.1875 C 89.992188 -138.1875 83.445312 -136.828125 77.5 -134.109375 C 71.550781 -131.390625 66.410156 -127.691406 62.078125 -123.015625 C 57.742188 -118.335938 54.34375 -112.769531 51.875 -106.3125 C 49.414062 -99.851562 48.1875 -92.882812 48.1875 -85.40625 C 48.1875 -77.925781 49.414062 -70.957031 51.875 -64.5 C 54.34375 -58.039062 57.742188 -52.472656 62.078125 -47.796875 C 66.410156 -43.128906 71.550781 -39.4375 77.5 -36.71875 C 83.445312 -34 89.992188 -32.640625 97.140625 -32.640625 Z M 97.140625 -32.640625 "/></g></g></g><g fill="#ffffff" fill-opacity="1"><g transform="translate(979.804368, 224.968252)"><g><path d="M 19.125 -173.875 L 38.25 -173.875 L 108.609375 -81.328125 L 178.21875 -173.875 L 197.328125 -173.875 L 197.328125 0 L 160.109375 0 L 160.109375 -95.09375 L 115.5 -36.203125 L 100.703125 -36.203125 L 56.34375 -94.84375 L 56.34375 0 L 19.125 0 Z M 19.125 -173.875 "/></g></g></g></g></g><g transform="matrix(1, 0, 0, 1, 568, 330)"><g clip-path="url(#85dae733f0)"><g fill="#000000" fill-opacity="1"><g transform="translate(3.47312, 66.316592)"><g><path d="M 3.355469 0 L 3.355469 -46.492188 L 10.929688 -46.492188 L 35.371094 -9.730469 L 34.199219 -8.953125 L 32.789062 -8.953125 L 32.789062 -46.492188 L 41.015625 -46.492188 L 41.015625 1.410156 L 33.441406 1.410156 L 9.003906 -35.351562 L 10.175781 -36.128906 L 11.585938 -36.128906 L 11.585938 1.410156 L 3.355469 1.410156 Z M 6.175781 0 L 4.765625 0 L 4.765625 -1.410156 L 10.175781 -1.410156 L 10.175781 0 L 8.765625 0 L 8.765625 -40.796875 L 35.371094 -0.78125 L 34.199219 0 L 34.199219 -1.410156 L 39.609375 -1.410156 L 39.609375 0 L 38.199219 0 L 38.199219 -45.082031 L 39.609375 -45.082031 L 39.609375 -43.671875 L 34.199219 -43.671875 L 34.199219 -45.082031 L 35.609375 -45.082031 L 35.609375 -4.285156 L 9.003906 -44.300781 L 10.175781 -45.082031 L 10.175781 -43.671875 L 4.765625 -43.671875 L 4.765625 -45.082031 L 6.175781 -45.082031 Z M 6.175781 0 "/></g></g></g><g fill="#000000" fill-opacity="1"><g transform="translate(99.381661, 66.316592)"><g><path d="M 19.644531 2.183594 C 16.472656 2.183594 13.613281 1.589844 11.0625 0.410156 C 8.472656 -0.792969 6.425781 -2.476562 4.925781 -4.640625 C 3.40625 -6.835938 2.648438 -9.367188 2.648438 -12.238281 C 2.648438 -15.292969 3.542969 -18.039062 5.335938 -20.476562 C 7.140625 -22.929688 9.53125 -24.566406 12.507812 -25.382812 L 12.878906 -24.023438 L 12.433594 -22.683594 C 9.707031 -23.59375 7.585938 -25.070312 6.078125 -27.113281 C 4.566406 -29.164062 3.808594 -31.421875 3.808594 -33.875 C 3.808594 -36.339844 4.460938 -38.597656 5.765625 -40.652344 C 7.066406 -42.699219 8.90625 -44.316406 11.285156 -45.503906 C 13.628906 -46.679688 16.414062 -47.265625 19.644531 -47.265625 C 22.871094 -47.265625 25.65625 -46.679688 28 -45.503906 C 30.382812 -44.316406 32.222656 -42.699219 33.519531 -40.652344 C 34.824219 -38.597656 35.480469 -36.339844 35.480469 -33.875 C 35.480469 -31.464844 34.722656 -29.226562 33.210938 -27.152344 C 31.703125 -25.085938 29.582031 -23.597656 26.851562 -22.683594 L 26.40625 -24.023438 L 26.777344 -25.382812 C 29.753906 -24.566406 32.144531 -22.929688 33.949219 -20.476562 C 35.742188 -18.039062 36.636719 -15.292969 36.636719 -12.238281 C 36.636719 -9.367188 35.878906 -6.835938 34.359375 -4.640625 C 32.859375 -2.476562 30.816406 -0.792969 28.222656 0.410156 C 25.671875 1.589844 22.8125 2.183594 19.644531 2.183594 Z M 19.644531 -0.636719 C 22.398438 -0.636719 24.863281 -1.140625 27.035156 -2.148438 C 29.164062 -3.136719 30.832031 -4.5 32.039062 -6.246094 C 33.226562 -7.957031 33.820312 -9.953125 33.820312 -12.238281 C 33.820312 -14.675781 33.105469 -16.867188 31.679688 -18.808594 C 30.261719 -20.734375 28.378906 -22.019531 26.03125 -22.664062 L 21.554688 -23.890625 L 25.960938 -25.359375 C 28.121094 -26.082031 29.78125 -27.230469 30.933594 -28.8125 C 32.085938 -30.390625 32.660156 -32.078125 32.660156 -33.875 C 32.660156 -35.792969 32.152344 -37.546875 31.140625 -39.140625 C 30.121094 -40.746094 28.65625 -42.027344 26.742188 -42.984375 C 24.792969 -43.957031 22.425781 -44.445312 19.644531 -44.445312 C 16.859375 -44.445312 14.492188 -43.957031 12.542969 -42.984375 C 10.632812 -42.027344 9.164062 -40.746094 8.144531 -39.140625 C 7.132812 -37.546875 6.625 -35.792969 6.625 -33.875 C 6.625 -32.039062 7.199219 -30.34375 8.347656 -28.789062 C 9.5 -27.222656 11.160156 -26.082031 13.328125 -25.359375 L 17.730469 -23.890625 L 13.253906 -22.664062 C 10.90625 -22.019531 9.023438 -20.734375 7.609375 -18.808594 C 6.179688 -16.867188 5.46875 -14.675781 5.46875 -12.238281 C 5.46875 -9.953125 6.058594 -7.957031 7.246094 -6.246094 C 8.453125 -4.5 10.121094 -3.136719 12.25 -2.148438 C 14.421875 -1.140625 16.886719 -0.636719 19.644531 -0.636719 Z M 19.644531 -27.363281 C 22.039062 -27.363281 23.910156 -27.945312 25.257812 -29.113281 C 26.542969 -30.226562 27.183594 -31.707031 27.183594 -33.554688 C 27.183594 -35.640625 26.566406 -37.183594 25.324219 -38.191406 C 23.996094 -39.269531 22.101562 -39.808594 19.644531 -39.808594 C 17.1875 -39.808594 15.308594 -39.269531 14 -38.195312 C 12.777344 -37.191406 12.164062 -35.644531 12.164062 -33.554688 C 12.164062 -31.703125 12.800781 -30.222656 14.070312 -29.105469 C 15.390625 -27.945312 17.25 -27.363281 19.644531 -27.363281 Z M 19.644531 -24.546875 C 16.539062 -24.546875 14.0625 -25.359375 12.207031 -26.988281 C 10.300781 -28.664062 9.347656 -30.851562 9.347656 -33.554688 C 9.347656 -36.53125 10.300781 -38.804688 12.210938 -40.375 C 14.039062 -41.875 16.515625 -42.628906 19.644531 -42.628906 C 22.765625 -42.628906 25.253906 -41.878906 27.101562 -40.378906 C 29.035156 -38.8125 30.003906 -36.535156 30.003906 -33.554688 C 30.003906 -30.847656 29.039062 -28.660156 27.101562 -26.984375 C 25.226562 -25.359375 22.742188 -24.546875 19.644531 -24.546875 Z M 19.644531 -5.402344 C 22.667969 -5.402344 24.890625 -6.0625 26.316406 -7.378906 C 27.710938 -8.667969 28.410156 -10.394531 28.410156 -12.558594 C 28.410156 -15.03125 27.660156 -16.878906 26.160156 -18.097656 C 24.574219 -19.390625 22.398438 -20.035156 19.644531 -20.035156 C 16.886719 -20.035156 14.714844 -19.390625 13.125 -18.097656 C 11.625 -16.878906 10.875 -15.03125 10.875 -12.558594 C 10.875 -10.394531 11.574219 -8.667969 12.96875 -7.378906 C 14.394531 -6.0625 16.617188 -5.402344 19.644531 -5.402344 Z M 19.644531 -2.582031 C 15.882812 -2.582031 13.019531 -3.492188 11.054688 -5.308594 C 9.058594 -7.15625 8.058594 -9.570312 8.058594 -12.558594 C 8.058594 -15.925781 9.152344 -18.5 11.347656 -20.285156 C 13.453125 -22 16.21875 -22.855469 19.644531 -22.855469 C 23.070312 -22.855469 25.832031 -22 27.9375 -20.285156 C 30.132812 -18.5 31.226562 -15.925781 31.226562 -12.558594 C 31.226562 -9.570312 30.230469 -7.15625 28.230469 -5.308594 C 26.265625 -3.492188 23.402344 -2.582031 19.644531 -2.582031 Z M 19.644531 -2.582031 "/></g></g></g><g fill="#000000" fill-opacity="1"><g transform="translate(190.203687, 66.316592)"><g><path d="M 3.355469 0 L 3.355469 -46.492188 L 10.929688 -46.492188 L 35.371094 -9.730469 L 34.199219 -8.953125 L 32.789062 -8.953125 L 32.789062 -46.492188 L 41.015625 -46.492188 L 41.015625 1.410156 L 33.441406 1.410156 L 9.003906 -35.351562 L 10.175781 -36.128906 L 11.585938 -36.128906 L 11.585938 1.410156 L 3.355469 1.410156 Z M 6.175781 0 L 4.765625 0 L 4.765625 -1.410156 L 10.175781 -1.410156 L 10.175781 0 L 8.765625 0 L 8.765625 -40.796875 L 35.371094 -0.78125 L 34.199219 0 L 34.199219 -1.410156 L 39.609375 -1.410156 L 39.609375 0 L 38.199219 0 L 38.199219 -45.082031 L 39.609375 -45.082031 L 39.609375 -43.671875 L 34.199219 -43.671875 L 34.199219 -45.082031 L 35.609375 -45.082031 L 35.609375 -4.285156 L 9.003906 -44.300781 L 10.175781 -45.082031 L 10.175781 -43.671875 L 4.765625 -43.671875 L 4.765625 -45.082031 L 6.175781 -45.082031 Z M 6.175781 0 "/></g></g></g><g fill="#ffffff" fill-opacity="1"><g transform="translate(3.47312, 66.316592)"><g><path d="M 4.765625 0 L 4.765625 -45.078125 L 10.171875 -45.078125 L 34.203125 -8.953125 L 34.203125 -45.078125 L 39.609375 -45.078125 L 39.609375 0 L 34.203125 0 L 10.171875 -36.125 L 10.171875 0 Z M 4.765625 0 "/></g></g></g><g fill="#ffffff" fill-opacity="1"><g transform="translate(99.381661, 66.316592)"><g><path d="M 19.640625 0.765625 C 16.679688 0.765625 14.019531 0.21875 11.65625 -0.875 C 9.289062 -1.96875 7.429688 -3.488281 6.078125 -5.4375 C 4.734375 -7.394531 4.0625 -9.660156 4.0625 -12.234375 C 4.0625 -14.984375 4.863281 -17.453125 6.46875 -19.640625 C 8.082031 -21.828125 10.21875 -23.289062 12.875 -24.03125 C 10.425781 -24.84375 8.535156 -26.148438 7.203125 -27.953125 C 5.878906 -29.753906 5.21875 -31.726562 5.21875 -33.875 C 5.21875 -36.0625 5.796875 -38.066406 6.953125 -39.890625 C 8.109375 -41.722656 9.757812 -43.175781 11.90625 -44.25 C 14.0625 -45.320312 16.640625 -45.859375 19.640625 -45.859375 C 22.648438 -45.859375 25.226562 -45.320312 27.375 -44.25 C 29.519531 -43.175781 31.171875 -41.722656 32.328125 -39.890625 C 33.492188 -38.066406 34.078125 -36.0625 34.078125 -33.875 C 34.078125 -31.769531 33.410156 -29.804688 32.078125 -27.984375 C 30.742188 -26.160156 28.851562 -24.84375 26.40625 -24.03125 C 29.070312 -23.289062 31.207031 -21.828125 32.8125 -19.640625 C 34.425781 -17.453125 35.234375 -14.984375 35.234375 -12.234375 C 35.234375 -9.660156 34.554688 -7.394531 33.203125 -5.4375 C 31.847656 -3.488281 29.988281 -1.96875 27.625 -0.875 C 25.269531 0.21875 22.609375 0.765625 19.640625 0.765625 Z M 19.640625 -25.953125 C 22.390625 -25.953125 24.566406 -26.648438 26.171875 -28.046875 C 27.785156 -29.441406 28.59375 -31.28125 28.59375 -33.5625 C 28.59375 -36.09375 27.796875 -38 26.203125 -39.28125 C 24.617188 -40.570312 22.429688 -41.21875 19.640625 -41.21875 C 16.847656 -41.21875 14.664062 -40.570312 13.09375 -39.28125 C 11.53125 -38 10.75 -36.09375 10.75 -33.5625 C 10.75 -31.28125 11.539062 -29.441406 13.125 -28.046875 C 14.71875 -26.648438 16.890625 -25.953125 19.640625 -25.953125 Z M 19.640625 -4 C 23.035156 -4 25.578125 -4.78125 27.265625 -6.34375 C 28.960938 -7.90625 29.8125 -9.976562 29.8125 -12.5625 C 29.8125 -15.476562 28.890625 -17.6875 27.046875 -19.1875 C 25.203125 -20.695312 22.734375 -21.453125 19.640625 -21.453125 C 16.546875 -21.453125 14.078125 -20.695312 12.234375 -19.1875 C 10.390625 -17.6875 9.46875 -15.476562 9.46875 -12.5625 C 9.46875 -9.976562 10.316406 -7.90625 12.015625 -6.34375 C 13.710938 -4.78125 16.253906 -4 19.640625 -4 Z M 19.640625 -4 "/></g></g></g><g fill="#ffffff" fill-opacity="1"><g transform="translate(190.203687, 66.316592)"><g><path d="M 4.765625 0 L 4.765625 -45.078125 L 10.171875 -45.078125 L 34.203125 -8.953125 L 34.203125 -45.078125 L 39.609375 -45.078125 L 39.609375 0 L 34.203125 0 L 10.171875 -36.125 L 10.171875 0 Z M 4.765625 0 "/></g></g></g></g></g></svg>