<svg xmlns="http://www.w3.org/2000/svg" xmlns:xlink="http://www.w3.org/1999/xlink" width="100" zoomAndPan="magnify" viewBox="0 0 375 374.999991" height="100" preserveAspectRatio="xMidYMid meet" version="1.0"><defs><g/><clipPath id="de91d5893c"><path d="M 116 94.65625 L 188 94.65625 L 188 119 L 116 119 Z M 116 94.65625 " clip-rule="nonzero"/></clipPath><clipPath id="0a091425bf"><path d="M 112 236 L 142 236 L 142 244.65625 L 112 244.65625 Z M 112 236 " clip-rule="nonzero"/></clipPath><clipPath id="55dd1b215b"><path d="M 184 109 L 209.523438 109 L 209.523438 142 L 184 142 Z M 184 109 " clip-rule="nonzero"/></clipPath><clipPath id="69731afd67"><path d="M 65.523438 138 L 74 138 L 74 193 L 65.523438 193 Z M 65.523438 138 " clip-rule="nonzero"/></clipPath></defs><path fill="#ffffff" d="M 101.902344 230.707031 C 101.265625 230.320312 100.453125 230.425781 99.957031 230.917969 C 90.210938 224.597656 81.980469 216.015625 76.152344 205.984375 L 79.71875 203.933594 L 79.542969 203.617188 C 73.539062 193.160156 70.359375 181.1875 70.359375 169.074219 C 70.359375 168.296875 70.394531 167.484375 70.394531 166.707031 C 71.101562 166.566406 71.667969 165.964844 71.703125 165.222656 C 71.738281 164.339844 71.066406 163.597656 70.183594 163.527344 C 69.300781 163.457031 68.558594 164.164062 68.488281 165.046875 C 68.453125 165.824219 68.949219 166.496094 69.652344 166.671875 C 69.617188 167.484375 69.617188 168.261719 69.617188 169.074219 C 69.617188 181.222656 72.761719 193.160156 78.730469 203.6875 L 75.164062 205.734375 L 75.339844 206.054688 C 81.238281 216.332031 89.609375 225.125 99.535156 231.554688 C 99.289062 232.261719 99.535156 233.039062 100.207031 233.460938 C 100.949219 233.921875 101.9375 233.675781 102.394531 232.933594 C 102.855469 232.15625 102.644531 231.167969 101.902344 230.707031 Z M 101.902344 230.707031 " fill-opacity="1" fill-rule="nonzero"/><g clip-path="url(#de91d5893c)"><path fill="#ffffff" d="M 118.996094 99.738281 C 119.703125 99.527344 120.160156 98.855469 120.125 98.117188 C 126.519531 96.347656 133.160156 95.429688 139.835938 95.429688 C 148.242188 95.429688 156.507812 96.84375 164.347656 99.597656 L 162.933594 103.484375 L 163.253906 103.589844 C 171.234375 106.449219 178.546875 110.6875 184.972656 116.234375 C 184.621094 116.871094 184.761719 117.683594 185.328125 118.175781 C 186 118.777344 186.988281 118.707031 187.585938 118.035156 C 188.1875 117.363281 188.117188 116.375 187.445312 115.777344 C 186.882812 115.28125 186.035156 115.246094 185.433594 115.667969 C 179.003906 110.160156 171.730469 105.921875 163.816406 103.023438 L 165.230469 99.140625 L 164.914062 99.035156 C 156.894531 96.136719 148.453125 94.6875 139.835938 94.6875 C 133.054688 94.6875 126.378906 95.609375 119.914062 97.375 C 119.5625 96.738281 118.785156 96.386719 118.078125 96.632812 C 117.230469 96.878906 116.769531 97.761719 117.019531 98.609375 C 117.265625 99.492188 118.148438 99.988281 118.996094 99.738281 Z M 118.996094 99.738281 " fill-opacity="1" fill-rule="nonzero"/></g><path fill="#ffffff" d="M 75.410156 132.625 C 76.152344 133.082031 77.140625 132.835938 77.601562 132.058594 C 77.988281 131.421875 77.847656 130.609375 77.355469 130.117188 C 81.414062 123.617188 86.394531 117.859375 92.257812 112.878906 L 94.449219 115.492188 C 83.605469 124.710938 75.90625 136.71875 72.160156 150.320312 C 71.421875 150.285156 70.75 150.777344 70.574219 151.519531 C 70.359375 152.367188 70.890625 153.25 71.738281 153.460938 C 72.585938 153.675781 73.46875 153.144531 73.679688 152.296875 C 73.855469 151.554688 73.503906 150.847656 72.867188 150.496094 C 76.613281 136.898438 84.3125 124.921875 95.191406 115.777344 L 95.472656 115.5625 L 92.363281 111.855469 L 92.082031 112.066406 C 86.078125 117.117188 80.921875 123.050781 76.753906 129.691406 C 76.046875 129.445312 75.269531 129.726562 74.882812 130.398438 C 74.421875 131.210938 74.667969 132.164062 75.410156 132.625 Z M 75.410156 132.625 " fill-opacity="1" fill-rule="nonzero"/><path fill="#ffffff" d="M 139.835938 107.085938 C 128.957031 107.085938 118.289062 109.949219 108.929688 115.351562 C 108.433594 114.820312 107.585938 114.679688 106.953125 115.070312 C 106.210938 115.527344 105.964844 116.515625 106.421875 117.257812 C 106.882812 118 107.871094 118.246094 108.613281 117.789062 C 109.246094 117.398438 109.496094 116.625 109.28125 115.953125 C 118.535156 110.617188 129.097656 107.792969 139.835938 107.792969 C 146.898438 107.792969 153.855469 108.992188 160.460938 111.359375 L 160.78125 111.464844 L 162.441406 106.910156 L 162.121094 106.804688 C 154.988281 104.261719 147.5 102.953125 139.871094 102.953125 C 138.492188 102.953125 137.117188 102.988281 135.773438 103.09375 C 135.5625 102.390625 134.890625 101.894531 134.113281 101.964844 C 133.230469 102.035156 132.59375 102.8125 132.664062 103.695312 C 132.734375 104.578125 133.511719 105.214844 134.394531 105.144531 C 135.136719 105.074219 135.738281 104.507812 135.84375 103.800781 C 137.1875 103.730469 138.5625 103.660156 139.90625 103.660156 C 147.359375 103.660156 154.632812 104.898438 161.59375 107.335938 L 160.425781 110.546875 C 153.785156 108.289062 146.863281 107.085938 139.835938 107.085938 Z M 139.835938 107.085938 " fill-opacity="1" fill-rule="nonzero"/><path fill="#ffffff" d="M 73.503906 180.660156 C 73.644531 181.542969 74.492188 182.105469 75.339844 181.964844 C 76.1875 181.824219 76.789062 180.976562 76.648438 180.128906 C 76.507812 179.386719 75.90625 178.855469 75.164062 178.820312 C 74.667969 175.609375 74.421875 172.324219 74.421875 169.074219 C 74.421875 161.480469 75.695312 154.0625 78.238281 147 L 82.121094 148.410156 L 82.226562 148.09375 C 85.6875 138.664062 91.445312 130.152344 98.96875 123.441406 C 99.535156 123.863281 100.347656 123.863281 100.949219 123.371094 C 101.617188 122.804688 101.6875 121.78125 101.125 121.109375 C 100.558594 120.4375 99.535156 120.367188 98.863281 120.933594 C 98.261719 121.425781 98.15625 122.273438 98.511719 122.910156 C 90.988281 129.621094 85.195312 138.097656 81.699219 147.527344 L 77.8125 146.117188 L 77.707031 146.433594 C 75.058594 153.675781 73.714844 161.304688 73.714844 169.109375 C 73.714844 172.429688 73.964844 175.714844 74.457031 178.964844 C 73.820312 179.210938 73.398438 179.917969 73.503906 180.660156 Z M 73.503906 180.660156 " fill-opacity="1" fill-rule="nonzero"/><path fill="#ffffff" d="M 99.957031 215.554688 L 97.308594 218.699219 C 89.292969 211.8125 83.039062 203.085938 79.121094 193.339844 C 79.71875 192.949219 79.96875 192.171875 79.71875 191.464844 C 79.402344 190.652344 78.484375 190.230469 77.671875 190.511719 C 76.859375 190.832031 76.433594 191.75 76.71875 192.5625 C 77 193.269531 77.707031 193.691406 78.449219 193.585938 C 82.441406 203.546875 88.867188 212.480469 97.097656 219.476562 L 97.378906 219.6875 L 100.027344 216.542969 C 108.433594 223.609375 118.5 228.234375 129.238281 230.105469 C 129.273438 230.847656 129.839844 231.484375 130.617188 231.589844 C 131.5 231.730469 132.3125 231.132812 132.417969 230.246094 C 132.558594 229.363281 131.957031 228.550781 131.074219 228.445312 C 130.332031 228.339844 129.628906 228.765625 129.378906 229.4375 C 118.644531 227.597656 108.578125 222.902344 100.242188 215.800781 Z M 99.957031 215.554688 " fill-opacity="1" fill-rule="nonzero"/><path fill="#ffffff" d="M 174.058594 127.679688 C 164.523438 119.800781 152.585938 115.421875 140.1875 115.351562 L 140.1875 111.21875 L 139.835938 111.21875 C 118.785156 111.21875 99.605469 122.523438 89.363281 140.816406 C 88.65625 140.605469 87.878906 140.921875 87.527344 141.59375 C 87.101562 142.371094 87.421875 143.324219 88.195312 143.75 C 88.972656 144.171875 89.925781 143.855469 90.351562 143.078125 C 90.703125 142.40625 90.527344 141.628906 90 141.136719 C 100.066406 123.15625 118.855469 112.03125 139.515625 111.890625 L 139.515625 116.058594 L 139.871094 116.058594 C 152.230469 116.058594 164.171875 120.367188 173.636719 128.207031 C 173.320312 128.84375 173.425781 129.65625 173.988281 130.152344 C 174.660156 130.714844 175.648438 130.679688 176.25 130.007812 C 176.816406 129.339844 176.78125 128.347656 176.109375 127.75 C 175.507812 127.253906 174.660156 127.21875 174.058594 127.679688 Z M 174.058594 127.679688 " fill-opacity="1" fill-rule="nonzero"/><path fill="#ffffff" d="M 87.632812 149.117188 C 87.949219 148.304688 87.527344 147.386719 86.714844 147.070312 C 85.902344 146.75 84.984375 147.175781 84.664062 147.988281 C 84.382812 148.695312 84.664062 149.507812 85.300781 149.894531 C 83.144531 156.003906 82.050781 162.433594 82.050781 168.96875 L 82.050781 169.320312 L 86.890625 169.285156 L 86.890625 168.933594 C 86.925781 157.59375 90.421875 146.890625 97.097656 137.816406 C 97.769531 138.097656 98.546875 137.921875 99.003906 137.355469 C 99.535156 136.648438 99.429688 135.660156 98.722656 135.132812 C 98.015625 134.601562 97.027344 134.707031 96.496094 135.414062 C 96.039062 136.015625 96.074219 136.863281 96.53125 137.425781 C 89.855469 146.539062 86.289062 157.277344 86.21875 168.613281 L 82.792969 168.613281 C 82.828125 162.257812 83.921875 156.074219 86.007812 150.140625 C 86.644531 150.210938 87.347656 149.789062 87.632812 149.117188 Z M 87.632812 149.117188 " fill-opacity="1" fill-rule="nonzero"/><path fill="#ffffff" d="M 152.230469 210.785156 C 151.527344 211 151.066406 211.667969 151.101562 212.375 C 147.429688 213.328125 143.648438 213.824219 139.835938 213.824219 C 131.851562 213.824219 124.011719 211.703125 117.160156 207.679688 L 116.839844 207.5 L 114.792969 211.070312 C 108.117188 207.078125 102.464844 201.53125 98.371094 194.964844 C 98.898438 194.46875 99.003906 193.65625 98.652344 193.019531 C 98.191406 192.242188 97.238281 191.996094 96.460938 192.457031 C 95.683594 192.914062 95.4375 193.867188 95.898438 194.644531 C 96.285156 195.316406 97.0625 195.597656 97.769531 195.351562 C 102.007812 202.132812 107.871094 207.820312 114.757812 211.882812 L 115.074219 212.058594 L 117.125 208.492188 C 124.011719 212.480469 131.851562 214.566406 139.835938 214.566406 C 143.71875 214.566406 147.570312 214.070312 151.277344 213.117188 C 151.632812 213.753906 152.410156 214.105469 153.152344 213.894531 C 154 213.648438 154.457031 212.765625 154.210938 211.917969 C 153.964844 211 153.078125 210.539062 152.230469 210.785156 Z M 152.230469 210.785156 " fill-opacity="1" fill-rule="nonzero"/><path fill="#ffffff" d="M 104.054688 149.011719 C 103.277344 148.625 102.324219 148.90625 101.902344 149.71875 C 101.546875 150.390625 101.761719 151.238281 102.324219 151.695312 C 99.78125 157.136719 98.511719 163 98.511719 169.074219 C 98.511719 171.296875 98.6875 173.558594 99.039062 175.75 L 94.976562 176.457031 L 95.050781 176.808594 C 96.285156 184.085938 99.324219 190.972656 103.84375 196.835938 C 103.382812 197.398438 103.382812 198.246094 103.84375 198.847656 C 104.410156 199.519531 105.398438 199.625 106.105469 199.058594 C 106.8125 198.496094 106.882812 197.507812 106.316406 196.800781 C 105.855469 196.234375 105.042969 196.058594 104.410156 196.375 C 100.027344 190.6875 97.0625 184.050781 95.828125 177.019531 L 99.886719 176.3125 L 99.816406 175.960938 C 99.429688 173.699219 99.21875 171.371094 99.21875 169.074219 C 99.21875 163.105469 100.488281 157.347656 102.960938 151.980469 C 103.667969 152.15625 104.410156 151.835938 104.726562 151.167969 C 105.152344 150.355469 104.832031 149.398438 104.054688 149.011719 Z M 104.054688 149.011719 " fill-opacity="1" fill-rule="nonzero"/><path fill="#ffffff" d="M 134.785156 207.183594 C 135.667969 207.289062 136.445312 206.6875 136.585938 205.804688 C 136.726562 204.921875 136.089844 204.144531 135.207031 204.003906 C 134.464844 203.898438 133.796875 204.324219 133.511719 204.992188 C 131.289062 204.605469 129.097656 204.003906 126.976562 203.226562 L 126.660156 203.085938 L 125.246094 206.972656 C 123.199219 206.195312 121.222656 205.242188 119.3125 204.109375 C 113.203125 200.542969 108.152344 195.421875 104.621094 189.3125 C 105.152344 188.851562 105.328125 188.039062 104.972656 187.371094 C 104.550781 186.59375 103.597656 186.308594 102.820312 186.699219 C 102.042969 187.085938 101.761719 188.074219 102.148438 188.851562 C 102.5 189.523438 103.277344 189.839844 103.984375 189.628906 C 107.585938 195.847656 112.710938 201.039062 118.960938 204.675781 C 121.007812 205.878906 123.128906 206.902344 125.355469 207.714844 L 125.671875 207.855469 L 127.085938 203.96875 C 129.132812 204.710938 131.253906 205.277344 133.40625 205.664062 C 133.476562 206.441406 134.042969 207.078125 134.785156 207.183594 Z M 134.785156 207.183594 " fill-opacity="1" fill-rule="nonzero"/><path fill="#ffffff" d="M 155.164062 133.789062 C 154.457031 133.472656 153.644531 133.71875 153.222656 134.320312 C 148.949219 132.660156 144.460938 131.847656 139.835938 131.847656 C 137.785156 131.847656 135.738281 132.023438 133.726562 132.339844 L 133.019531 128.277344 L 132.664062 128.347656 C 123.585938 129.9375 115.253906 134.601562 109.070312 141.488281 C 108.398438 141.136719 107.585938 141.277344 107.09375 141.878906 C 106.527344 142.546875 106.632812 143.574219 107.304688 144.136719 C 107.976562 144.703125 109 144.597656 109.566406 143.925781 C 110.023438 143.359375 110.058594 142.546875 109.636719 141.984375 C 115.640625 135.308594 123.660156 130.785156 132.453125 129.160156 L 133.160156 133.222656 L 133.511719 133.152344 C 135.597656 132.800781 137.714844 132.585938 139.871094 132.585938 C 144.390625 132.585938 148.804688 133.398438 153.007812 135.023438 C 152.902344 135.730469 153.257812 136.4375 153.925781 136.753906 C 154.738281 137.109375 155.660156 136.71875 156.011719 135.941406 C 156.328125 135.058594 155.976562 134.140625 155.164062 133.789062 Z M 155.164062 133.789062 " fill-opacity="1" fill-rule="nonzero"/><g clip-path="url(#0a091425bf)"><path fill="#ffffff" d="M 139.835938 241.445312 C 139.09375 241.445312 138.457031 241.972656 138.28125 242.679688 C 130.617188 242.539062 123.09375 241.195312 115.886719 238.726562 C 115.957031 238.019531 115.570312 237.3125 114.863281 237.03125 C 114.050781 236.710938 113.132812 237.136719 112.816406 237.984375 C 112.496094 238.796875 112.921875 239.714844 113.769531 240.03125 C 114.476562 240.277344 115.289062 239.996094 115.675781 239.394531 C 122.953125 241.867188 130.546875 243.210938 138.28125 243.351562 C 138.421875 244.058594 139.058594 244.625 139.835938 244.625 C 140.71875 244.625 141.425781 243.917969 141.425781 243.035156 C 141.425781 242.152344 140.71875 241.445312 139.835938 241.445312 Z M 139.835938 241.445312 " fill-opacity="1" fill-rule="nonzero"/></g><g clip-path="url(#55dd1b215b)"><path fill="#ffffff" d="M 185.398438 112.808594 C 185.964844 113.269531 186.777344 113.269531 187.375 112.84375 C 195.605469 119.800781 202.28125 128.597656 206.765625 138.34375 C 206.203125 138.769531 205.953125 139.546875 206.273438 140.253906 C 206.625 141.066406 207.578125 141.417969 208.355469 141.066406 C 209.167969 140.710938 209.523438 139.757812 209.167969 138.980469 C 208.851562 138.273438 208.109375 137.921875 207.402344 138.0625 C 202.882812 128.207031 196.136719 119.34375 187.835938 112.3125 C 188.1875 111.644531 188.011719 110.832031 187.410156 110.335938 C 186.738281 109.769531 185.714844 109.878906 185.1875 110.582031 C 184.65625 111.289062 184.726562 112.277344 185.398438 112.808594 Z M 185.398438 112.808594 " fill-opacity="1" fill-rule="nonzero"/></g><g clip-path="url(#69731afd67)"><path fill="#ffffff" d="M 71.03125 140.921875 C 67.359375 149.859375 65.523438 159.324219 65.523438 169.074219 C 65.523438 175.925781 66.441406 182.707031 68.277344 189.207031 C 67.640625 189.558594 67.289062 190.335938 67.535156 191.078125 C 67.78125 191.925781 68.664062 192.386719 69.511719 192.136719 C 70.359375 191.890625 70.820312 191.007812 70.574219 190.160156 C 70.359375 189.453125 69.6875 188.992188 68.949219 189.03125 C 67.144531 182.566406 66.191406 175.855469 66.191406 169.074219 C 66.191406 159.394531 68.027344 150.035156 71.667969 141.207031 C 72.375 141.347656 73.117188 140.957031 73.398438 140.289062 C 73.75 139.476562 73.363281 138.558594 72.585938 138.203125 C 71.773438 137.851562 70.855469 138.238281 70.5 139.015625 C 70.183594 139.6875 70.429688 140.5 71.03125 140.921875 Z M 71.03125 140.921875 " fill-opacity="1" fill-rule="nonzero"/></g><path fill="#ffffff" d="M 143.507812 237.207031 C 142.765625 237.242188 142.167969 237.804688 142.023438 238.511719 C 138.527344 238.617188 134.996094 238.476562 131.535156 238.054688 C 131.464844 237.347656 130.933594 236.746094 130.191406 236.640625 C 129.308594 236.535156 128.496094 237.136719 128.390625 237.984375 C 128.285156 238.867188 128.886719 239.679688 129.734375 239.785156 C 130.476562 239.890625 131.179688 239.429688 131.464844 238.761719 C 134.960938 239.183594 138.527344 239.324219 142.058594 239.21875 C 142.238281 239.925781 142.90625 240.421875 143.683594 240.386719 C 144.566406 240.347656 145.238281 239.574219 145.203125 238.726562 C 145.167969 237.878906 144.390625 237.171875 143.507812 237.207031 Z M 143.507812 237.207031 " fill-opacity="1" fill-rule="nonzero"/><path fill="#ffffff" d="M 202.175781 136.753906 C 200.515625 133.542969 198.574219 130.433594 196.417969 127.5 C 196.875 126.9375 196.949219 126.089844 196.453125 125.488281 C 195.921875 124.78125 194.898438 124.675781 194.226562 125.207031 C 193.523438 125.734375 193.414062 126.761719 193.945312 127.429688 C 194.40625 128.03125 195.179688 128.207031 195.851562 127.925781 C 197.972656 130.820312 199.878906 133.894531 201.539062 137.074219 C 200.972656 137.53125 200.796875 138.308594 201.117188 139.015625 C 201.503906 139.792969 202.457031 140.144531 203.234375 139.757812 C 204.011719 139.371094 204.363281 138.414062 203.976562 137.636719 C 203.660156 136.898438 202.882812 136.578125 202.175781 136.753906 Z M 202.175781 136.753906 " fill-opacity="1" fill-rule="nonzero"/><path fill="#ffffff" d="M 111.71875 106.839844 C 112.390625 106.523438 112.746094 105.816406 112.636719 105.109375 C 121.257812 101.4375 130.371094 99.597656 139.835938 99.597656 C 141.175781 99.597656 142.554688 99.632812 143.898438 99.703125 C 144.003906 100.410156 144.601562 100.976562 145.34375 101.046875 C 146.226562 101.117188 147.003906 100.445312 147.074219 99.597656 C 147.144531 98.75 146.476562 97.9375 145.628906 97.867188 C 144.851562 97.796875 144.179688 98.292969 143.96875 99 C 142.589844 98.929688 141.210938 98.890625 139.835938 98.890625 C 130.296875 98.890625 121.042969 100.765625 112.355469 104.472656 C 111.933594 103.871094 111.121094 103.660156 110.414062 103.980469 C 109.601562 104.332031 109.246094 105.285156 109.601562 106.097656 C 109.988281 106.839844 110.941406 107.191406 111.71875 106.839844 Z M 111.71875 106.839844 " fill-opacity="1" fill-rule="nonzero"/><path fill="#ffffff" d="M 92.328125 218.0625 C 91.695312 217.460938 90.703125 217.460938 90.070312 218.097656 C 89.46875 218.734375 89.46875 219.722656 90.105469 220.359375 C 90.667969 220.886719 91.480469 220.957031 92.117188 220.535156 C 100.101562 227.953125 109.742188 233.425781 120.160156 236.464844 C 120.125 237.207031 120.585938 237.878906 121.328125 238.089844 C 122.175781 238.300781 123.058594 237.804688 123.269531 236.957031 C 123.480469 236.109375 122.988281 235.226562 122.140625 235.015625 C 121.433594 234.839844 120.691406 235.15625 120.339844 235.792969 C 110.023438 232.789062 100.488281 227.351562 92.578125 220.039062 C 92.964844 219.40625 92.859375 218.59375 92.328125 218.0625 Z M 92.328125 218.0625 " fill-opacity="1" fill-rule="nonzero"/><path fill="#ffffff" d="M 139.835938 236.359375 C 140.71875 236.359375 141.425781 235.652344 141.425781 234.769531 C 141.425781 233.886719 140.71875 233.179688 139.835938 233.179688 C 139.09375 233.179688 138.457031 233.710938 138.28125 234.414062 C 130.546875 234.238281 123.023438 232.71875 115.886719 229.929688 C 115.992188 229.222656 115.640625 228.480469 114.933594 228.199219 C 114.121094 227.847656 113.203125 228.234375 112.851562 229.046875 C 112.496094 229.859375 112.886719 230.777344 113.699219 231.132812 C 114.40625 231.414062 115.21875 231.167969 115.605469 230.566406 C 122.8125 233.390625 130.441406 234.945312 138.246094 235.121094 C 138.421875 235.828125 139.058594 236.359375 139.835938 236.359375 Z M 139.835938 236.359375 " fill-opacity="1" fill-rule="nonzero"/><path fill="#ffffff" d="M 195.675781 133.753906 C 190.625 125.769531 183.84375 118.882812 175.933594 113.726562 C 176.179688 113.019531 175.933594 112.242188 175.261719 111.820312 C 174.519531 111.359375 173.53125 111.574219 173.070312 112.347656 C 172.613281 113.125 172.824219 114.082031 173.601562 114.539062 C 174.238281 114.929688 175.050781 114.820312 175.542969 114.328125 C 183.382812 119.449219 190.09375 126.265625 195.074219 134.140625 C 194.582031 134.636719 194.441406 135.449219 194.828125 136.085938 C 195.289062 136.828125 196.277344 137.074219 197.019531 136.613281 C 197.761719 136.15625 198.007812 135.167969 197.546875 134.425781 C 197.195312 133.753906 196.382812 133.507812 195.675781 133.753906 Z M 195.675781 133.753906 " fill-opacity="1" fill-rule="nonzero"/><path fill="#ffffff" d="M 123.09375 103.835938 C 122.351562 104.015625 121.855469 104.71875 121.890625 105.460938 C 110.90625 108.570312 100.949219 114.433594 92.859375 122.59375 C 92.222656 122.203125 91.410156 122.308594 90.882812 122.839844 C 90.28125 123.476562 90.316406 124.5 90.953125 125.101562 C 91.585938 125.699219 92.613281 125.664062 93.210938 125.03125 C 93.742188 124.5 93.777344 123.6875 93.390625 123.085938 C 101.371094 115.035156 111.226562 109.207031 122.105469 106.132812 C 122.457031 106.769531 123.164062 107.121094 123.90625 106.910156 C 124.753906 106.699219 125.28125 105.816406 125.070312 104.96875 C 124.789062 104.121094 123.941406 103.625 123.09375 103.835938 Z M 123.09375 103.835938 " fill-opacity="1" fill-rule="nonzero"/><path fill="#ffffff" d="M 80.214844 162.222656 C 80.320312 161.339844 79.683594 160.5625 78.800781 160.457031 C 77.917969 160.347656 77.140625 160.984375 77.035156 161.867188 C 76.964844 162.644531 77.425781 163.316406 78.128906 163.5625 C 77.953125 165.398438 77.882812 167.238281 77.882812 169.074219 C 77.882812 181.578125 81.558594 193.550781 88.515625 203.792969 C 88.019531 204.324219 87.949219 205.171875 88.410156 205.804688 C 88.902344 206.511719 89.925781 206.6875 90.632812 206.160156 C 91.339844 205.664062 91.515625 204.640625 90.988281 203.933594 C 90.5625 203.335938 89.75 203.121094 89.078125 203.40625 C 82.191406 193.269531 78.554688 181.4375 78.554688 169.074219 C 78.554688 167.273438 78.625 165.4375 78.800781 163.632812 C 79.542969 163.527344 80.144531 162.964844 80.214844 162.222656 Z M 80.214844 162.222656 " fill-opacity="1" fill-rule="nonzero"/><path fill="#ffffff" d="M 101.371094 211.28125 C 92.082031 202.839844 85.832031 191.574219 83.640625 179.28125 C 84.3125 179 84.734375 178.328125 84.59375 177.585938 C 84.453125 176.703125 83.640625 176.101562 82.792969 176.242188 C 81.910156 176.386719 81.308594 177.195312 81.449219 178.042969 C 81.558594 178.785156 82.191406 179.351562 82.933594 179.386719 C 85.195312 191.820312 91.515625 203.226562 100.914062 211.8125 C 100.558594 212.445312 100.699219 213.292969 101.265625 213.789062 C 101.9375 214.355469 102.925781 214.285156 103.527344 213.613281 C 104.089844 212.941406 104.019531 211.953125 103.347656 211.351562 C 102.785156 210.890625 101.972656 210.855469 101.371094 211.28125 Z M 101.371094 211.28125 " fill-opacity="1" fill-rule="nonzero"/><path fill="#ffffff" d="M 171.164062 122.769531 C 171.90625 123.261719 172.894531 123.085938 173.390625 122.34375 C 173.882812 121.601562 173.707031 120.613281 172.964844 120.121094 C 172.328125 119.695312 171.480469 119.765625 170.953125 120.296875 C 167.667969 118.210938 164.207031 116.445312 160.601562 115.070312 C 160.710938 114.328125 160.285156 113.621094 159.542969 113.339844 C 158.730469 113.054688 157.8125 113.480469 157.496094 114.292969 C 157.210938 115.105469 157.636719 116.023438 158.449219 116.339844 C 159.15625 116.585938 159.933594 116.304688 160.320312 115.703125 C 163.886719 117.082031 167.3125 118.8125 170.5625 120.898438 C 170.316406 121.566406 170.527344 122.34375 171.164062 122.769531 Z M 171.164062 122.769531 " fill-opacity="1" fill-rule="nonzero"/><path fill="#ffffff" d="M 131.394531 114.75 C 130.617188 114.855469 130.085938 115.492188 130.050781 116.234375 C 120.480469 118 111.683594 122.273438 104.339844 128.738281 C 103.738281 128.3125 102.890625 128.347656 102.324219 128.878906 C 101.6875 129.480469 101.652344 130.503906 102.253906 131.140625 C 102.855469 131.777344 103.878906 131.8125 104.515625 131.210938 C 105.042969 130.714844 105.152344 129.902344 104.796875 129.269531 C 112.003906 122.910156 120.726562 118.671875 130.15625 116.90625 C 130.441406 117.578125 131.109375 117.964844 131.851562 117.859375 C 132.734375 117.71875 133.335938 116.90625 133.195312 116.058594 C 133.054688 115.210938 132.242188 114.609375 131.394531 114.75 Z M 131.394531 114.75 " fill-opacity="1" fill-rule="nonzero"/><path fill="#ffffff" d="M 98.582031 202.34375 C 94.90625 197.789062 92.011719 192.703125 90.035156 187.226562 C 90.632812 186.839844 90.953125 186.097656 90.703125 185.390625 C 90.421875 184.542969 89.539062 184.121094 88.691406 184.367188 C 87.84375 184.613281 87.421875 185.53125 87.667969 186.378906 C 87.914062 187.121094 88.621094 187.546875 89.363281 187.476562 C 91.375 193.019531 94.308594 198.175781 98.050781 202.804688 C 97.59375 203.40625 97.59375 204.21875 98.121094 204.816406 C 98.6875 205.488281 99.710938 205.558594 100.382812 204.992188 C 101.054688 204.429688 101.125 203.40625 100.558594 202.734375 C 100.027344 202.167969 99.21875 202.027344 98.582031 202.34375 Z M 98.582031 202.34375 " fill-opacity="1" fill-rule="nonzero"/><path fill="#ffffff" d="M 108.472656 210.222656 C 107.765625 209.691406 106.777344 209.832031 106.246094 210.503906 C 105.714844 211.210938 105.855469 212.199219 106.527344 212.730469 C 107.128906 213.1875 107.976562 213.152344 108.542969 212.660156 C 114.441406 216.898438 121.222656 219.933594 128.285156 221.488281 C 128.285156 222.230469 128.816406 222.867188 129.59375 223.007812 C 130.441406 223.183594 131.289062 222.617188 131.464844 221.734375 C 131.640625 220.886719 131.074219 220.039062 130.191406 219.863281 C 129.449219 219.722656 128.746094 220.109375 128.460938 220.78125 C 121.503906 219.261719 114.828125 216.261719 109 212.09375 C 109.246094 211.457031 109.035156 210.679688 108.472656 210.222656 Z M 108.472656 210.222656 " fill-opacity="1" fill-rule="nonzero"/><path fill="#ffffff" d="M 160.425781 126.089844 C 161.203125 126.476562 162.15625 126.125 162.546875 125.347656 C 162.933594 124.570312 162.582031 123.617188 161.804688 123.226562 C 161.097656 122.910156 160.285156 123.121094 159.863281 123.6875 C 153.539062 120.898438 146.828125 119.484375 139.871094 119.484375 C 135.03125 119.484375 130.296875 120.191406 125.707031 121.53125 C 125.355469 120.898438 124.542969 120.578125 123.835938 120.828125 C 122.988281 121.109375 122.5625 121.992188 122.8125 122.839844 C 123.09375 123.6875 123.976562 124.109375 124.824219 123.863281 C 125.53125 123.617188 125.953125 122.945312 125.917969 122.238281 C 130.441406 120.898438 135.101562 120.226562 139.871094 120.226562 C 146.757812 120.226562 153.363281 121.601562 159.578125 124.359375 C 159.402344 125.03125 159.71875 125.769531 160.425781 126.089844 Z M 160.425781 126.089844 " fill-opacity="1" fill-rule="nonzero"/><path fill="#ffffff" d="M 96.675781 142.195312 C 96.214844 142.9375 96.425781 143.925781 97.167969 144.386719 C 97.910156 144.84375 98.898438 144.632812 99.359375 143.890625 C 99.746094 143.253906 99.640625 142.441406 99.144531 141.949219 C 103.207031 135.871094 108.613281 130.75 114.863281 127.007812 C 115.359375 127.539062 116.136719 127.679688 116.804688 127.324219 C 117.582031 126.902344 117.867188 125.914062 117.441406 125.171875 C 117.019531 124.429688 116.027344 124.109375 115.289062 124.535156 C 114.617188 124.921875 114.332031 125.699219 114.546875 126.40625 C 108.1875 130.1875 102.714844 135.378906 98.582031 141.558594 C 97.875 141.3125 97.097656 141.558594 96.675781 142.195312 Z M 96.675781 142.195312 " fill-opacity="1" fill-rule="nonzero"/><path fill="#ffffff" d="M 92.472656 183.695312 C 91.835938 184.085938 91.515625 184.863281 91.765625 185.566406 C 92.046875 186.414062 92.964844 186.839844 93.777344 186.558594 C 94.625 186.273438 95.050781 185.355469 94.765625 184.542969 C 94.519531 183.835938 93.847656 183.414062 93.105469 183.484375 C 91.660156 178.820312 90.953125 173.984375 90.953125 169.039062 C 90.953125 163.316406 91.941406 157.699219 93.847656 152.367188 C 94.554688 152.472656 95.261719 152.085938 95.542969 151.378906 C 95.863281 150.566406 95.472656 149.648438 94.660156 149.292969 C 93.847656 148.976562 92.929688 149.363281 92.578125 150.175781 C 92.292969 150.882812 92.578125 151.695312 93.175781 152.085938 C 91.199219 157.488281 90.210938 163.175781 90.210938 168.96875 C 90.246094 174.054688 90.988281 179 92.472656 183.695312 Z M 92.472656 183.695312 " fill-opacity="1" fill-rule="nonzero"/><path fill="#ffffff" d="M 146.757812 216.191406 C 146.015625 216.296875 145.484375 216.898438 145.414062 217.601562 C 141.742188 218.027344 137.964844 218.027344 134.253906 217.601562 C 134.183594 216.898438 133.652344 216.296875 132.914062 216.191406 C 132.027344 216.050781 131.21875 216.648438 131.109375 217.53125 C 131.003906 218.414062 131.570312 219.226562 132.453125 219.335938 C 133.230469 219.441406 133.9375 218.980469 134.183594 218.308594 C 137.925781 218.734375 141.777344 218.734375 145.523438 218.308594 C 145.769531 219.015625 146.476562 219.441406 147.253906 219.335938 C 148.136719 219.191406 148.734375 218.378906 148.59375 217.53125 C 148.453125 216.648438 147.640625 216.050781 146.757812 216.191406 Z M 146.757812 216.191406 " fill-opacity="1" fill-rule="nonzero"/><path fill="#ffffff" d="M 171.199219 136.15625 C 165.582031 130.785156 158.730469 126.972656 151.242188 125.03125 C 151.242188 124.289062 150.75 123.617188 150.007812 123.441406 C 149.160156 123.261719 148.3125 123.792969 148.101562 124.640625 C 147.921875 125.488281 148.453125 126.335938 149.300781 126.546875 C 150.042969 126.726562 150.75 126.335938 151.066406 125.699219 C 158.449219 127.609375 165.160156 131.351562 170.703125 136.648438 C 170.316406 137.25 170.386719 138.0625 170.917969 138.59375 C 171.515625 139.226562 172.542969 139.226562 173.175781 138.628906 C 173.8125 138.027344 173.8125 137.003906 173.210938 136.367188 C 172.648438 135.835938 171.835938 135.765625 171.199219 136.15625 Z M 171.199219 136.15625 " fill-opacity="1" fill-rule="nonzero"/><path fill="#ffffff" d="M 139.835938 124.324219 C 140.542969 124.324219 141.28125 124.359375 141.988281 124.394531 C 142.09375 125.101562 142.695312 125.664062 143.4375 125.734375 C 144.320312 125.804688 145.097656 125.171875 145.167969 124.289062 C 145.238281 123.40625 144.601562 122.628906 143.71875 122.558594 C 142.941406 122.484375 142.273438 122.980469 142.058594 123.6875 C 141.320312 123.652344 140.578125 123.617188 139.871094 123.617188 C 129.839844 123.617188 120.339844 126.832031 112.390625 132.871094 C 105.117188 138.414062 99.570312 146.152344 96.710938 154.804688 C 95.96875 154.734375 95.261719 155.191406 95.050781 155.933594 C 94.800781 156.78125 95.296875 157.664062 96.144531 157.914062 C 96.992188 158.160156 97.875 157.664062 98.121094 156.816406 C 98.332031 156.109375 98.015625 155.371094 97.378906 155.015625 C 103.347656 136.863281 120.621094 124.324219 139.835938 124.324219 Z M 139.835938 124.324219 " fill-opacity="1" fill-rule="nonzero"/><path fill="#ffffff" d="M 162.722656 133.152344 C 162.085938 132.730469 161.238281 132.871094 160.710938 133.398438 C 158.871094 132.339844 156.964844 131.386719 154.988281 130.609375 C 155.09375 129.867188 154.667969 129.160156 153.925781 128.878906 C 153.078125 128.597656 152.195312 129.019531 151.878906 129.867188 C 151.597656 130.714844 152.019531 131.597656 152.867188 131.917969 C 153.574219 132.164062 154.316406 131.882812 154.703125 131.28125 C 156.648438 132.058594 158.519531 132.976562 160.320312 134 C 160.109375 134.671875 160.355469 135.449219 160.957031 135.835938 C 161.699219 136.296875 162.6875 136.085938 163.144531 135.34375 C 163.605469 134.601562 163.464844 133.613281 162.722656 133.152344 Z M 162.722656 133.152344 " fill-opacity="1" fill-rule="nonzero"/><path fill="#ffffff" d="M 103.03125 163.492188 C 102.289062 163.5625 101.6875 164.128906 101.582031 164.90625 C 101.476562 165.789062 102.113281 166.566406 102.996094 166.671875 C 103.878906 166.777344 104.65625 166.140625 104.761719 165.257812 C 104.832031 164.515625 104.410156 163.847656 103.738281 163.597656 C 105.292969 153.285156 111.296875 144.03125 120.089844 138.34375 C 120.585938 138.839844 121.398438 138.980469 122.035156 138.59375 C 122.777344 138.132812 123.058594 137.179688 122.597656 136.402344 C 122.140625 135.660156 121.1875 135.378906 120.410156 135.835938 C 119.738281 136.226562 119.457031 137.039062 119.703125 137.746094 C 110.730469 143.535156 104.621094 152.96875 103.03125 163.492188 Z M 103.03125 163.492188 " fill-opacity="1" fill-rule="nonzero"/><path fill="#ffffff" d="M 105.152344 175.359375 C 105.007812 174.476562 104.160156 173.914062 103.3125 174.089844 C 102.429688 174.230469 101.867188 175.078125 102.042969 175.925781 C 102.183594 176.667969 102.820312 177.234375 103.5625 177.234375 C 105.363281 185.214844 109.742188 192.347656 116.066406 197.613281 C 115.746094 198.285156 115.921875 199.09375 116.523438 199.589844 C 117.230469 200.121094 118.21875 199.980469 118.75 199.308594 C 119.277344 198.601562 119.136719 197.613281 118.464844 197.082031 C 117.867188 196.625 117.054688 196.660156 116.523438 197.117188 C 110.34375 191.960938 106.035156 184.933594 104.269531 177.125 C 104.867188 176.808594 105.257812 176.101562 105.152344 175.359375 Z M 105.152344 175.359375 " fill-opacity="1" fill-rule="nonzero"/><g fill="#ffffff" fill-opacity="1"><g transform="translate(117.147558, 183.906317)"><g><path d="M 4.90625 0 L 4.90625 -32.75 L 8.59375 -32.75 L 8.59375 -17.9375 L 25.125 -17.9375 L 25.125 -32.75 L 28.8125 -32.75 L 28.8125 0 L 25.125 0 L 25.125 -14.859375 L 8.59375 -14.859375 L 8.59375 0 Z M 4.90625 0 "/></g></g></g><g fill="#ffffff" fill-opacity="1"><g transform="translate(150.866142, 183.906317)"><g><path d="M 12.546875 0.328125 C 10.773438 0.328125 9.238281 0.015625 7.9375 -0.609375 C 6.632812 -1.234375 5.550781 -2.09375 4.6875 -3.1875 C 3.820312 -4.289062 3.175781 -5.546875 2.75 -6.953125 C 2.320312 -8.367188 2.109375 -9.867188 2.109375 -11.453125 C 2.109375 -13.015625 2.316406 -14.515625 2.734375 -15.953125 C 3.148438 -17.390625 3.773438 -18.671875 4.609375 -19.796875 C 5.441406 -20.921875 6.488281 -21.816406 7.75 -22.484375 C 9.007812 -23.148438 10.484375 -23.484375 12.171875 -23.484375 C 13.671875 -23.484375 14.972656 -23.265625 16.078125 -22.828125 C 17.179688 -22.398438 18.109375 -21.804688 18.859375 -21.046875 C 19.617188 -20.285156 20.226562 -19.421875 20.6875 -18.453125 C 21.15625 -17.492188 21.488281 -16.476562 21.6875 -15.40625 C 21.894531 -14.332031 22 -13.257812 22 -12.1875 C 22 -11.894531 21.984375 -11.578125 21.953125 -11.234375 C 21.929688 -10.898438 21.90625 -10.625 21.875 -10.40625 L 5.75 -10.40625 C 5.75 -9.375 5.882812 -8.394531 6.15625 -7.46875 C 6.4375 -6.539062 6.859375 -5.71875 7.421875 -5 C 7.992188 -4.289062 8.703125 -3.734375 9.546875 -3.328125 C 10.398438 -2.921875 11.390625 -2.71875 12.515625 -2.71875 C 13.847656 -2.71875 15.039062 -2.890625 16.09375 -3.234375 C 17.15625 -3.578125 18.132812 -4.226562 19.03125 -5.1875 L 21.390625 -3.296875 C 20.140625 -2.023438 18.816406 -1.101562 17.421875 -0.53125 C 16.023438 0.0390625 14.398438 0.328125 12.546875 0.328125 Z M 5.75 -13.234375 L 18.6875 -13.234375 C 18.664062 -14.160156 18.535156 -15.0625 18.296875 -15.9375 C 18.054688 -16.820312 17.679688 -17.613281 17.171875 -18.3125 C 16.660156 -19.019531 15.992188 -19.582031 15.171875 -20 C 14.359375 -20.414062 13.359375 -20.625 12.171875 -20.625 C 11.097656 -20.625 10.171875 -20.425781 9.390625 -20.03125 C 8.617188 -19.644531 7.96875 -19.109375 7.4375 -18.421875 C 6.914062 -17.734375 6.515625 -16.941406 6.234375 -16.046875 C 5.953125 -15.160156 5.789062 -14.222656 5.75 -13.234375 Z M 5.75 -13.234375 "/></g></g></g><g fill="#ffffff" fill-opacity="1"><g transform="translate(174.92105, 183.906317)"><g><path d="M 3.9375 10.15625 L 3.9375 -23.15625 L 7.421875 -23.15625 L 7.421875 -20 C 8.171875 -21.113281 9.148438 -22 10.359375 -22.65625 C 11.566406 -23.3125 12.941406 -23.640625 14.484375 -23.640625 C 16.046875 -23.640625 17.410156 -23.328125 18.578125 -22.703125 C 19.753906 -22.078125 20.738281 -21.210938 21.53125 -20.109375 C 22.332031 -19.003906 22.929688 -17.71875 23.328125 -16.25 C 23.734375 -14.789062 23.9375 -13.238281 23.9375 -11.59375 C 23.9375 -9.945312 23.734375 -8.398438 23.328125 -6.953125 C 22.929688 -5.503906 22.335938 -4.222656 21.546875 -3.109375 C 20.765625 -1.992188 19.785156 -1.117188 18.609375 -0.484375 C 17.429688 0.148438 16.066406 0.46875 14.515625 0.46875 C 13.015625 0.46875 11.648438 0.15625 10.421875 -0.46875 C 9.203125 -1.09375 8.203125 -1.988281 7.421875 -3.15625 L 7.421875 10.15625 Z M 13.765625 -2.453125 C 14.921875 -2.453125 15.921875 -2.703125 16.765625 -3.203125 C 17.609375 -3.710938 18.300781 -4.394531 18.84375 -5.25 C 19.394531 -6.101562 19.800781 -7.078125 20.0625 -8.171875 C 20.332031 -9.273438 20.46875 -10.414062 20.46875 -11.59375 C 20.46875 -12.757812 20.332031 -13.890625 20.0625 -14.984375 C 19.800781 -16.078125 19.394531 -17.054688 18.84375 -17.921875 C 18.300781 -18.785156 17.609375 -19.46875 16.765625 -19.96875 C 15.921875 -20.46875 14.921875 -20.71875 13.765625 -20.71875 C 12.585938 -20.71875 11.578125 -20.46875 10.734375 -19.96875 C 9.898438 -19.46875 9.210938 -18.785156 8.671875 -17.921875 C 8.128906 -17.054688 7.726562 -16.078125 7.46875 -14.984375 C 7.21875 -13.890625 7.09375 -12.757812 7.09375 -11.59375 C 7.09375 -10.414062 7.21875 -9.273438 7.46875 -8.171875 C 7.726562 -7.078125 8.128906 -6.101562 8.671875 -5.25 C 9.210938 -4.394531 9.898438 -3.710938 10.734375 -3.203125 C 11.578125 -2.703125 12.585938 -2.453125 13.765625 -2.453125 Z M 13.765625 -2.453125 "/></g></g></g><g fill="#ffffff" fill-opacity="1"><g transform="translate(201.084817, 183.906317)"><g><path d="M 10.34375 0.46875 C 8.976562 0.46875 7.878906 0.191406 7.046875 -0.359375 C 6.222656 -0.910156 5.628906 -1.679688 5.265625 -2.671875 C 4.910156 -3.671875 4.734375 -4.828125 4.734375 -6.140625 L 4.734375 -20.328125 L 1.015625 -20.328125 L 1.015625 -23.15625 L 4.75 -23.15625 L 4.75 -28.375 L 8.1875 -31.609375 L 8.1875 -23.15625 L 14.046875 -23.15625 L 14.046875 -20.328125 L 8.1875 -20.328125 L 8.1875 -6.125 C 8.1875 -4.851562 8.460938 -3.910156 9.015625 -3.296875 C 9.566406 -2.691406 10.269531 -2.390625 11.125 -2.390625 C 11.507812 -2.390625 11.898438 -2.441406 12.296875 -2.546875 C 12.703125 -2.660156 13.082031 -2.800781 13.4375 -2.96875 L 13.4375 0 C 13.195312 0.101562 12.796875 0.207031 12.234375 0.3125 C 11.679688 0.414062 11.050781 0.46875 10.34375 0.46875 Z M 10.34375 0.46875 "/></g></g></g><g fill="#ffffff" fill-opacity="1"><g transform="translate(216.68111, 183.906317)"><g><path d="M 9.296875 0.46875 C 7.835938 0.46875 6.546875 0.191406 5.421875 -0.359375 C 4.296875 -0.910156 3.40625 -1.695312 2.75 -2.71875 C 2.101562 -3.75 1.78125 -4.988281 1.78125 -6.4375 C 1.78125 -8.757812 2.65625 -10.472656 4.40625 -11.578125 C 6.164062 -12.679688 8.691406 -13.234375 11.984375 -13.234375 L 17.265625 -13.234375 C 17.265625 -14.679688 17.082031 -15.960938 16.71875 -17.078125 C 16.351562 -18.191406 15.757812 -19.0625 14.9375 -19.6875 C 14.113281 -20.3125 13 -20.625 11.59375 -20.625 C 10.488281 -20.625 9.523438 -20.441406 8.703125 -20.078125 C 7.878906 -19.722656 7.175781 -19.273438 6.59375 -18.734375 C 6.007812 -18.203125 5.535156 -17.664062 5.171875 -17.125 L 2.640625 -19.09375 C 3.691406 -20.53125 4.929688 -21.644531 6.359375 -22.4375 C 7.785156 -23.238281 9.457031 -23.640625 11.375 -23.640625 C 13.34375 -23.640625 15 -23.242188 16.34375 -22.453125 C 17.6875 -21.671875 18.703125 -20.570312 19.390625 -19.15625 C 20.085938 -17.738281 20.4375 -16.085938 20.4375 -14.203125 L 20.4375 0 L 17.5 0 L 17.4375 -4.46875 C 16.875 -3.3125 16.160156 -2.367188 15.296875 -1.640625 C 14.441406 -0.921875 13.5 -0.390625 12.46875 -0.046875 C 11.445312 0.296875 10.390625 0.46875 9.296875 0.46875 Z M 9.6875 -2.453125 C 10.875 -2.453125 11.9375 -2.695312 12.875 -3.1875 C 13.8125 -3.6875 14.609375 -4.335938 15.265625 -5.140625 C 15.921875 -5.941406 16.414062 -6.820312 16.75 -7.78125 C 17.09375 -8.738281 17.265625 -9.679688 17.265625 -10.609375 L 12.3125 -10.609375 C 10.019531 -10.609375 8.285156 -10.285156 7.109375 -9.640625 C 5.941406 -8.992188 5.359375 -7.894531 5.359375 -6.34375 C 5.359375 -5.4375 5.550781 -4.691406 5.9375 -4.109375 C 6.320312 -3.535156 6.84375 -3.113281 7.5 -2.84375 C 8.15625 -2.582031 8.882812 -2.453125 9.6875 -2.453125 Z M 9.6875 -2.453125 "/></g></g></g><g fill="#ffffff" fill-opacity="1"><g transform="translate(240.434752, 183.906317)"><g><path d="M 10.3125 0.46875 C 8.863281 0.46875 7.550781 0.207031 6.375 -0.3125 C 5.195312 -0.84375 4.207031 -1.546875 3.40625 -2.421875 C 2.601562 -3.296875 2.023438 -4.242188 1.671875 -5.265625 L 4.59375 -6.765625 C 4.863281 -5.953125 5.25 -5.210938 5.75 -4.546875 C 6.257812 -3.878906 6.894531 -3.347656 7.65625 -2.953125 C 8.425781 -2.554688 9.328125 -2.359375 10.359375 -2.359375 C 11.671875 -2.359375 12.753906 -2.679688 13.609375 -3.328125 C 14.472656 -3.984375 14.90625 -4.9375 14.90625 -6.1875 C 14.90625 -6.957031 14.726562 -7.601562 14.375 -8.125 C 14.03125 -8.65625 13.5625 -9.09375 12.96875 -9.4375 C 12.382812 -9.789062 11.726562 -10.09375 11 -10.34375 C 10.28125 -10.601562 9.53125 -10.851562 8.75 -11.09375 C 7.96875 -11.332031 7.210938 -11.601562 6.484375 -11.90625 C 5.765625 -12.21875 5.109375 -12.597656 4.515625 -13.046875 C 3.929688 -13.492188 3.460938 -14.050781 3.109375 -14.71875 C 2.765625 -15.394531 2.59375 -16.226562 2.59375 -17.21875 C 2.59375 -18.613281 2.929688 -19.789062 3.609375 -20.75 C 4.296875 -21.707031 5.191406 -22.425781 6.296875 -22.90625 C 7.410156 -23.394531 8.625 -23.640625 9.9375 -23.640625 C 11.726562 -23.640625 13.265625 -23.210938 14.546875 -22.359375 C 15.835938 -21.515625 16.835938 -20.40625 17.546875 -19.03125 L 15 -17.5625 C 14.5 -18.570312 13.820312 -19.367188 12.96875 -19.953125 C 12.113281 -20.546875 11.066406 -20.84375 9.828125 -20.84375 C 8.578125 -20.84375 7.585938 -20.546875 6.859375 -19.953125 C 6.128906 -19.367188 5.765625 -18.597656 5.765625 -17.640625 C 5.765625 -16.972656 5.9375 -16.421875 6.28125 -15.984375 C 6.632812 -15.546875 7.109375 -15.171875 7.703125 -14.859375 C 8.296875 -14.546875 8.960938 -14.273438 9.703125 -14.046875 C 10.453125 -13.816406 11.222656 -13.570312 12.015625 -13.3125 C 12.816406 -13.0625 13.585938 -12.769531 14.328125 -12.4375 C 15.066406 -12.101562 15.734375 -11.6875 16.328125 -11.1875 C 16.921875 -10.6875 17.390625 -10.0625 17.734375 -9.3125 C 18.085938 -8.570312 18.265625 -7.671875 18.265625 -6.609375 C 18.265625 -5.421875 18.039062 -4.378906 17.59375 -3.484375 C 17.144531 -2.597656 16.539062 -1.859375 15.78125 -1.265625 C 15.03125 -0.679688 14.179688 -0.25 13.234375 0.03125 C 12.296875 0.320312 11.320312 0.46875 10.3125 0.46875 Z M 10.3125 0.46875 "/></g></g></g><g fill="#ffffff" fill-opacity="1"><g transform="translate(260.550031, 183.906317)"><g><path d="M 10.34375 0.46875 C 8.976562 0.46875 7.878906 0.191406 7.046875 -0.359375 C 6.222656 -0.910156 5.628906 -1.679688 5.265625 -2.671875 C 4.910156 -3.671875 4.734375 -4.828125 4.734375 -6.140625 L 4.734375 -20.328125 L 1.015625 -20.328125 L 1.015625 -23.15625 L 4.75 -23.15625 L 4.75 -28.375 L 8.1875 -31.609375 L 8.1875 -23.15625 L 14.046875 -23.15625 L 14.046875 -20.328125 L 8.1875 -20.328125 L 8.1875 -6.125 C 8.1875 -4.851562 8.460938 -3.910156 9.015625 -3.296875 C 9.566406 -2.691406 10.269531 -2.390625 11.125 -2.390625 C 11.507812 -2.390625 11.898438 -2.441406 12.296875 -2.546875 C 12.703125 -2.660156 13.082031 -2.800781 13.4375 -2.96875 L 13.4375 0 C 13.195312 0.101562 12.796875 0.207031 12.234375 0.3125 C 11.679688 0.414062 11.050781 0.46875 10.34375 0.46875 Z M 10.34375 0.46875 "/></g></g></g><g fill="#ffffff" fill-opacity="1"><g transform="translate(276.146324, 183.906317)"><g><path d="M 9.296875 0.46875 C 7.835938 0.46875 6.546875 0.191406 5.421875 -0.359375 C 4.296875 -0.910156 3.40625 -1.695312 2.75 -2.71875 C 2.101562 -3.75 1.78125 -4.988281 1.78125 -6.4375 C 1.78125 -8.757812 2.65625 -10.472656 4.40625 -11.578125 C 6.164062 -12.679688 8.691406 -13.234375 11.984375 -13.234375 L 17.265625 -13.234375 C 17.265625 -14.679688 17.082031 -15.960938 16.71875 -17.078125 C 16.351562 -18.191406 15.757812 -19.0625 14.9375 -19.6875 C 14.113281 -20.3125 13 -20.625 11.59375 -20.625 C 10.488281 -20.625 9.523438 -20.441406 8.703125 -20.078125 C 7.878906 -19.722656 7.175781 -19.273438 6.59375 -18.734375 C 6.007812 -18.203125 5.535156 -17.664062 5.171875 -17.125 L 2.640625 -19.09375 C 3.691406 -20.53125 4.929688 -21.644531 6.359375 -22.4375 C 7.785156 -23.238281 9.457031 -23.640625 11.375 -23.640625 C 13.34375 -23.640625 15 -23.242188 16.34375 -22.453125 C 17.6875 -21.671875 18.703125 -20.570312 19.390625 -19.15625 C 20.085938 -17.738281 20.4375 -16.085938 20.4375 -14.203125 L 20.4375 0 L 17.5 0 L 17.4375 -4.46875 C 16.875 -3.3125 16.160156 -2.367188 15.296875 -1.640625 C 14.441406 -0.921875 13.5 -0.390625 12.46875 -0.046875 C 11.445312 0.296875 10.390625 0.46875 9.296875 0.46875 Z M 9.6875 -2.453125 C 10.875 -2.453125 11.9375 -2.695312 12.875 -3.1875 C 13.8125 -3.6875 14.609375 -4.335938 15.265625 -5.140625 C 15.921875 -5.941406 16.414062 -6.820312 16.75 -7.78125 C 17.09375 -8.738281 17.265625 -9.679688 17.265625 -10.609375 L 12.3125 -10.609375 C 10.019531 -10.609375 8.285156 -10.285156 7.109375 -9.640625 C 5.941406 -8.992188 5.359375 -7.894531 5.359375 -6.34375 C 5.359375 -5.4375 5.550781 -4.691406 5.9375 -4.109375 C 6.320312 -3.535156 6.84375 -3.113281 7.5 -2.84375 C 8.15625 -2.582031 8.882812 -2.453125 9.6875 -2.453125 Z M 9.6875 -2.453125 "/></g></g></g><g fill="#ffffff" fill-opacity="1"><g transform="translate(299.899965, 183.906317)"><g><path d="M 12.1875 0.46875 C 10.519531 0.46875 9.054688 0.144531 7.796875 -0.5 C 6.535156 -1.15625 5.488281 -2.046875 4.65625 -3.171875 C 3.820312 -4.304688 3.191406 -5.585938 2.765625 -7.015625 C 2.335938 -8.453125 2.125 -9.960938 2.125 -11.546875 C 2.125 -13.109375 2.332031 -14.609375 2.75 -16.046875 C 3.175781 -17.492188 3.804688 -18.785156 4.640625 -19.921875 C 5.472656 -21.066406 6.515625 -21.972656 7.765625 -22.640625 C 9.015625 -23.304688 10.472656 -23.640625 12.140625 -23.640625 C 14.242188 -23.640625 16.070312 -23.085938 17.625 -21.984375 C 19.175781 -20.890625 20.351562 -19.382812 21.15625 -17.46875 L 17.890625 -16.078125 C 17.660156 -17.023438 17.269531 -17.84375 16.71875 -18.53125 C 16.175781 -19.21875 15.507812 -19.753906 14.71875 -20.140625 C 13.925781 -20.523438 13.066406 -20.71875 12.140625 -20.71875 C 10.941406 -20.71875 9.925781 -20.4375 9.09375 -19.875 C 8.269531 -19.320312 7.601562 -18.59375 7.09375 -17.6875 C 6.59375 -16.789062 6.226562 -15.804688 6 -14.734375 C 5.78125 -13.660156 5.671875 -12.597656 5.671875 -11.546875 C 5.671875 -10.472656 5.78125 -9.40625 6 -8.34375 C 6.226562 -7.28125 6.585938 -6.300781 7.078125 -5.40625 C 7.578125 -4.519531 8.242188 -3.804688 9.078125 -3.265625 C 9.921875 -2.722656 10.941406 -2.453125 12.140625 -2.453125 C 13.085938 -2.453125 13.953125 -2.632812 14.734375 -3 C 15.515625 -3.375 16.175781 -3.898438 16.71875 -4.578125 C 17.269531 -5.265625 17.660156 -6.066406 17.890625 -6.984375 L 20.90625 -5.671875 C 20.226562 -3.753906 19.128906 -2.25 17.609375 -1.15625 C 16.097656 -0.0703125 14.289062 0.46875 12.1875 0.46875 Z M 12.1875 0.46875 "/></g></g></g><g fill="#ffffff" fill-opacity="1"><g transform="translate(322.471719, 183.906317)"><g><path d="M 3.9375 0 L 3.9375 -32.75 L 7.4375 -32.75 L 7.4375 -10.6875 L 17.75 -23.15625 L 22.09375 -23.15625 L 14.53125 -14.65625 L 23.59375 0 L 19.5 0 L 12.40625 -12.28125 L 7.4375 -6.796875 L 7.4375 0 Z M 3.9375 0 "/></g></g></g></svg>