<svg width="1038" height="342" viewBox="0 0 1038 342" fill="none" xmlns="http://www.w3.org/2000/svg">
<path d="M346.96 149.937V183.646H329.876V151.217C329.876 147.946 330.445 145.386 331.584 143.537C332.865 141.545 334.93 139.625 337.777 137.776C341.479 135.358 346.533 133.296 352.939 131.589C359.346 129.74 366.464 128.816 374.295 128.816C385.684 128.816 391.379 131.66 391.379 137.35C391.379 138.772 391.165 140.123 390.738 141.403C390.311 142.541 389.742 143.537 389.03 144.39C387.606 144.106 385.755 143.821 383.478 143.537C381.2 143.252 378.922 143.11 376.644 143.11C370.095 143.11 364.329 143.821 359.346 145.243C354.363 146.523 350.234 148.088 346.96 149.937ZM329.876 173.832L346.96 176.392V229.728C346.248 230.013 345.18 230.297 343.757 230.582C342.333 231.008 340.767 231.222 339.058 231.222C336.069 231.222 333.791 230.653 332.225 229.515C330.659 228.235 329.876 226.244 329.876 223.541V173.832ZM401.381 100.441C401.381 97.4539 402.449 94.9649 404.584 92.9736C406.72 90.8402 409.354 89.7734 412.486 89.7734C415.76 89.7734 418.394 90.8402 420.387 92.9736C422.381 94.9649 423.377 97.4539 423.377 100.441C423.377 103.428 422.381 105.988 420.387 108.121C418.394 110.112 415.76 111.108 412.486 111.108C409.354 111.108 406.72 110.112 404.584 108.121C402.449 105.988 401.381 103.428 401.381 100.441ZM403.944 173.832H421.028V229.728C420.316 230.013 419.248 230.297 417.825 230.582C416.401 231.008 414.835 231.222 413.127 231.222C410.137 231.222 407.859 230.653 406.293 229.515C404.727 228.235 403.944 226.244 403.944 223.541V173.832ZM421.028 182.152H403.944V132.016C404.656 131.731 405.723 131.447 407.147 131.163C408.713 130.736 410.35 130.523 412.059 130.523C415.049 130.523 417.255 131.163 418.679 132.443C420.245 133.58 421.028 135.572 421.028 138.416V182.152ZM486.847 227.168C478.59 227.168 470.973 225.604 463.997 222.475C457.021 219.203 451.397 213.941 447.126 206.687C442.855 199.433 440.72 189.833 440.72 177.885C440.72 167.076 442.784 158.044 446.913 150.79C451.184 143.537 457.021 138.061 464.424 134.363C471.827 130.665 480.298 128.816 489.837 128.816C496.386 128.816 502.365 129.669 507.775 131.376C513.328 132.94 517.955 134.932 521.656 137.35C523.792 138.772 525.5 140.408 526.782 142.257C528.205 143.963 528.917 146.097 528.917 148.657V214.581H511.833V148.87C509.413 147.306 506.352 145.955 502.65 144.817C499.091 143.537 494.82 142.897 489.837 142.897C480.298 142.897 472.61 145.812 466.773 151.644C460.936 157.475 458.017 166.151 458.017 177.672C458.017 190.473 460.936 199.575 466.773 204.98C472.753 210.385 480.085 213.087 488.769 213.087C495.033 213.087 500.088 212.021 503.932 209.887C507.775 207.754 510.836 205.407 513.114 202.847L513.969 217.994C511.833 220.27 508.416 222.403 503.718 224.395C499.162 226.244 493.539 227.168 486.847 227.168ZM511.833 233.355V210.954H528.917V234.422C528.917 243.809 526.853 251.347 522.724 257.037C518.738 262.726 513.186 266.851 506.067 269.411C499.091 271.971 491.189 273.251 482.363 273.251C475.244 273.251 469.122 272.469 463.997 270.904C458.872 269.34 455.384 268.06 453.533 267.064C449.262 264.646 447.126 261.588 447.126 257.89C447.126 255.899 447.553 254.192 448.408 252.77C449.404 251.49 450.614 250.494 452.038 249.783C455.028 252.059 459.228 254.121 464.638 255.97C470.19 257.961 476.098 258.957 482.363 258.957C491.901 258.957 499.162 256.894 504.145 252.77C509.27 248.645 511.833 242.174 511.833 233.355ZM550.51 100.441C550.51 97.4539 551.578 94.9649 553.713 92.9736C555.849 90.8402 558.483 89.7734 561.615 89.7734C564.889 89.7734 567.523 90.8402 569.516 92.9736C571.51 94.9649 572.506 97.4539 572.506 100.441C572.506 103.428 571.51 105.988 569.516 108.121C567.523 110.112 564.889 111.108 561.615 111.108C558.483 111.108 555.849 110.112 553.713 108.121C551.578 105.988 550.51 103.428 550.51 100.441ZM553.073 173.832H570.157V229.728C569.445 230.013 568.377 230.297 566.954 230.582C565.53 231.008 563.964 231.222 562.256 231.222C559.266 231.222 556.988 230.653 555.422 229.515C553.856 228.235 553.073 226.244 553.073 223.541V173.832ZM570.157 182.152H553.073V132.016C553.785 131.731 554.852 131.447 556.276 131.163C557.842 130.736 559.479 130.523 561.188 130.523C564.178 130.523 566.384 131.163 567.808 132.443C569.374 133.58 570.157 135.572 570.157 138.416V182.152ZM680.395 165.085V186.846H663.31V165.938C663.31 157.973 661.033 152.142 656.477 148.444C652.063 144.746 646.084 142.897 638.539 142.897C632.844 142.897 627.79 143.608 623.377 145.03C618.963 146.452 615.19 148.088 612.058 149.937V186.846H594.974V150.79C594.974 147.804 595.543 145.386 596.682 143.537C597.964 141.545 600.099 139.625 603.089 137.776C606.791 135.643 611.702 133.652 617.824 131.803C623.946 129.811 630.851 128.816 638.539 128.816C651.494 128.816 661.673 131.803 669.076 137.776C676.622 143.608 680.395 152.71 680.395 165.085ZM594.974 175.112H612.058V229.728C611.346 230.013 610.279 230.297 608.855 230.582C607.431 231.008 605.865 231.222 604.157 231.222C601.167 231.222 598.889 230.653 597.323 229.515C595.757 228.235 594.974 226.244 594.974 223.541V175.112ZM663.31 175.112H680.395V229.728C679.683 230.013 678.544 230.297 676.978 230.582C675.554 231.008 674.059 231.222 672.493 231.222C669.361 231.222 667.012 230.653 665.446 229.515C664.022 228.235 663.31 226.244 663.31 223.541V175.112ZM739.083 219.061C745.063 219.061 749.974 218.492 753.818 217.354C757.805 216.074 760.652 214.865 762.361 213.727V182.792L735.88 185.566C728.477 186.135 722.995 187.77 719.436 190.473C715.877 193.175 714.097 197.086 714.097 202.207C714.097 207.469 716.162 211.594 720.29 214.581C724.562 217.568 730.826 219.061 739.083 219.061ZM738.87 128.816C751.256 128.816 761.079 131.589 768.34 137.136C775.601 142.683 779.231 151.43 779.231 163.378V213.941C779.231 217.07 778.591 219.488 777.309 221.195C776.17 222.759 774.391 224.253 771.97 225.675C768.554 227.524 763.998 229.231 758.303 230.795C752.608 232.36 746.202 233.142 739.083 233.142C725.7 233.142 715.308 230.511 707.904 225.248C700.644 219.986 697.013 212.376 697.013 202.42C697.013 193.175 700.074 186.135 706.196 181.299C712.46 176.321 721.073 173.334 732.036 172.338L762.361 169.351V163.378C762.361 156.266 760.225 151.075 755.954 147.804C751.683 144.532 745.917 142.897 738.656 142.897C732.819 142.897 727.195 143.75 721.785 145.457C716.518 147.163 711.819 149.084 707.691 151.217C706.552 150.221 705.484 149.084 704.487 147.804C703.633 146.381 703.206 144.959 703.206 143.537C703.206 139.839 705.27 136.994 709.399 135.003C713.243 133.012 717.657 131.518 722.64 130.523C727.765 129.385 733.175 128.816 738.87 128.816ZM803.576 173.832L820.661 176.392V229.728C819.949 230.013 818.881 230.297 817.457 230.582C816.034 231.008 814.468 231.222 812.759 231.222C809.769 231.222 807.492 230.653 805.925 229.515C804.359 228.235 803.576 226.244 803.576 223.541V173.832ZM820.661 184.499L803.576 182.152V91.9069C804.288 91.6224 805.356 91.338 806.78 91.0535C808.346 90.6268 809.912 90.4135 811.478 90.4135C814.61 90.4135 816.888 91.0535 818.312 92.3336C819.878 93.4714 820.661 95.3915 820.661 98.0939V184.499ZM927.716 113.882H926.862C924.726 119.855 922.163 126.967 919.174 135.216C916.326 143.465 913.336 151.999 910.204 160.818C907.215 169.494 904.367 177.601 901.662 185.139L900.594 188.339C899.74 190.899 898.672 194.1 897.391 197.94C896.11 201.78 894.757 205.834 893.334 210.101C891.91 214.225 890.557 218.137 889.276 221.835C887.995 225.39 886.998 228.306 886.286 230.582C885.29 231.008 884.222 231.293 883.083 231.435C882.086 231.72 880.805 231.862 879.239 231.862C876.961 231.862 874.897 231.293 873.046 230.155C871.338 228.875 870.483 226.884 870.483 224.181C870.483 222.901 870.697 221.621 871.124 220.341C871.551 218.919 872.049 217.425 872.619 215.861C874.327 211.025 876.392 205.122 878.812 198.153C881.375 191.184 884.151 183.575 887.141 175.325C890.13 167.076 893.262 158.613 896.537 149.937C899.811 141.261 903.015 132.798 906.147 124.549C909.279 116.299 912.198 108.761 914.903 101.934C916.041 101.365 917.75 100.796 920.028 100.227C922.306 99.6585 924.655 99.374 927.075 99.374C929.922 99.374 932.627 99.8007 935.19 100.654C937.895 101.507 939.604 102.93 940.315 104.921C943.732 113.17 947.363 122.558 951.207 133.083C955.193 143.466 959.179 154.346 963.166 165.725C967.152 176.961 970.925 187.913 974.484 198.58C978.186 209.247 981.46 218.919 984.307 227.595C983.311 228.875 981.958 229.871 980.25 230.582C978.684 231.435 976.904 231.862 974.911 231.862C972.206 231.862 970.142 231.293 968.718 230.155C967.294 228.875 966.084 226.813 965.088 223.968L953.342 189.193L951.634 183.219C948.786 174.543 945.797 165.796 942.664 156.977C939.675 148.159 936.827 139.981 934.122 132.443C931.56 124.904 929.424 118.717 927.716 113.882ZM892.266 195.593L897.818 181.299H957.4L960.817 195.593H892.266ZM1001.13 152.71H1018.43V229.728C1017.72 230.013 1016.65 230.297 1015.23 230.582C1013.8 231.008 1012.24 231.222 1010.53 231.222C1007.4 231.222 1005.05 230.582 1003.48 229.302C1001.92 228.022 1001.13 226.03 1001.13 223.328V152.71ZM1018.43 167.005H1001.13V100.867C1001.84 100.583 1002.91 100.299 1004.34 100.014C1005.9 99.5873 1007.54 99.374 1009.25 99.374C1012.38 99.374 1014.66 100.014 1016.08 101.294C1017.65 102.432 1018.43 104.423 1018.43 107.268V167.005Z" fill="black"/>
<path d="M155.809 22.8744C174.636 24.1674 194.153 28.9386 211.151 37.0069C258.366 60.4621 290.309 106.364 294.871 159.048C297.114 194.153 288.596 225.922 269.316 254.355C224.709 320.143 134.725 339.364 67.8958 295.725C48.2271 282.743 32.422 266.102 20.4802 245.802C11.2004 230.121 5.02457 213.115 1.95285 194.78C0.585243 186.112 -0.0640525 177.263 0.0049749 168.234C0.88076 168.186 1.32729 168.741 1.34454 169.896C1.35748 171.348 1.38768 172.529 1.43513 173.439C1.60339 177.066 1.16334 180.531 1.66163 184.184C1.68752 184.378 1.76732 184.546 1.90107 184.688C2.38426 185.213 2.6647 185.83 2.74235 186.537C2.76392 186.752 2.88039 186.838 3.09179 186.795C5.68032 186.259 5.72562 184.494 7.02637 183.13C7.97118 182.147 15.6203 175.074 15.7044 180.104C15.7067 180.274 15.7496 180.441 15.8296 180.591C15.9096 180.741 16.0244 180.87 16.1643 180.967C16.3042 181.064 16.4653 181.126 16.6341 181.148C16.8029 181.17 16.9745 181.151 17.1346 181.093L18.9918 180.434C19.2334 180.347 19.4362 180.402 19.6001 180.595C20.6183 181.798 21.8975 182.104 23.4376 181.514C23.7094 181.41 23.772 181.231 23.6253 180.977L23.2629 180.337C23.155 180.156 23.1766 179.99 23.3276 179.839C24.6737 178.501 26.7898 180.156 28.6147 178.119C28.783 177.929 28.9836 177.785 29.2165 177.686C29.6048 177.514 30.0082 177.442 30.4267 177.473C30.6466 177.485 30.8662 177.436 31.0609 177.331C31.5656 177.05 31.8395 176.621 31.8827 176.044C31.8867 175.981 31.9036 175.918 31.9325 175.861C31.9614 175.803 32.0017 175.751 32.051 175.708C32.5082 175.294 33.0411 175.042 33.6494 174.952C33.8737 174.917 34.0916 174.856 34.303 174.77C35.2521 174.383 35.9704 173.762 36.4579 172.909C36.5787 172.697 36.7491 172.547 36.9692 172.456C37.9787 172.038 38.6129 171.312 38.8717 170.277C38.8983 170.175 38.9467 170.08 39.0137 169.998C39.0806 169.915 39.1645 169.847 39.26 169.799C39.9762 169.45 40.3386 168.792 40.3472 167.827C40.3515 167.292 40.66 167.068 41.2726 167.155C41.2829 167.153 41.2931 167.157 41.301 167.164C41.3089 167.17 41.3138 167.18 41.3147 167.19C41.3155 167.201 41.3123 167.21 41.3055 167.219C41.2989 167.226 41.2894 167.231 41.2791 167.232C41.2273 167.254 41.1734 167.271 41.1173 167.284C41.1105 167.287 41.1044 167.29 41.0996 167.296C41.0946 167.301 41.0911 167.307 41.0893 167.314C41.0873 167.321 41.0871 167.329 41.0886 167.336C41.0901 167.343 41.0933 167.349 41.0979 167.355L41.3567 167.756C41.3673 167.771 41.3818 167.785 41.3987 167.794C41.4156 167.803 41.4346 167.808 41.4538 167.808C41.473 167.808 41.4919 167.803 41.5089 167.794C41.5258 167.785 41.5403 167.771 41.5509 167.756L41.9197 167.187C42.1052 166.898 42.0276 166.736 41.6868 166.702C40.949 166.625 40.5457 166.156 40.4766 165.299C40.4507 165.023 40.5694 164.84 40.8325 164.75L41.8162 164.414C41.9327 164.375 42.0189 164.407 42.075 164.51L42.1786 164.704C42.3598 165.049 42.4741 165.028 42.5216 164.64C42.7804 162.545 42.8451 160.439 42.7157 158.323C42.638 157.095 43.4275 155.821 43.5246 154.425C43.654 152.531 44.4759 151.115 44.7089 149.292C44.9354 147.488 45.5437 145.633 45.7766 143.971C46.1779 141.114 46.8962 138.327 47.9316 135.612C48.0998 135.168 48.143 134.502 48.061 133.614C48.0395 133.381 48.0869 133.162 48.2034 132.955L50.9925 127.912C51.0327 127.839 51.0559 127.758 51.0604 127.675C51.0649 127.593 51.0505 127.51 51.0184 127.434C49.7306 124.317 51.7108 123.199 53.2251 121.182C53.3459 121.018 53.5012 120.899 53.6911 120.826C54.9853 120.316 54.4159 119.087 54.8688 118.266C55.2226 117.628 55.7295 117.139 56.3896 116.799C56.5622 116.708 56.6485 116.566 56.6485 116.372C56.6485 116.32 56.6549 116.262 56.6679 116.197C56.7283 115.882 56.7865 115.68 56.8426 115.59L59.8 110.67C59.8526 110.584 59.928 110.513 60.0181 110.467C60.1081 110.42 60.2094 110.398 60.3112 110.405L61.0619 110.443C30.8214 155.66 43.1622 224.377 91.5291 252.079C107.287 261.253 127.756 266.018 145.629 261.04C164.377 255.829 180.879 241.709 191.084 225.224C202.137 207.363 207.978 187.659 208.608 166.114C210.394 124.473 192.76 81.6935 148.237 72.3903C135.812 69.7914 123.387 71.1555 111.001 74.0777C110.79 74.0861 110.61 74.0583 110.464 73.9936C110.278 73.9161 110.254 73.8036 110.393 73.6574C110.591 73.4506 110.798 73.3167 111.014 73.2566C118.01 71.3559 125.691 70.787 132.894 70.1081C135.603 69.8495 139.251 70.0991 143.837 70.8581C155.398 72.7717 165.613 76.5751 174.478 82.2689C174.655 82.3807 174.849 82.437 175.061 82.437H175.43C175.727 82.437 175.938 82.5682 176.064 82.8313C176.59 83.9084 177.485 84.4625 178.75 84.4928C178.917 84.4877 179.076 84.4211 179.197 84.306C179.318 84.1916 179.393 84.0358 179.406 83.8696C179.42 83.7028 179.371 83.5373 179.27 83.4041C179.17 83.2709 179.023 83.1798 178.86 83.1481C178.579 83.1048 178.357 82.9561 178.193 82.702C178.077 82.5249 178.124 82.4408 178.335 82.4499C178.892 82.4757 179.265 82.6994 179.455 83.1223C179.536 83.2987 179.668 83.4151 179.85 83.4714C182.05 84.1651 184.088 85.1717 185.965 86.4905C186.146 86.6198 186.347 86.7039 186.567 86.7427C187.235 86.8674 187.609 87.2637 187.686 87.9322C187.712 88.1475 187.831 88.2813 188.042 88.3331C189.971 88.7727 191.796 86.8978 192.676 85.4497C193.362 84.3183 194.151 83.9304 195.284 83.4972C195.444 83.4332 195.583 83.3259 195.685 83.1869C196.323 82.2947 197.177 81.7297 198.248 81.4931C198.347 81.4691 198.439 81.4194 198.513 81.3489C198.587 81.2784 198.64 81.1899 198.668 81.0922C198.97 80.0792 199.634 79.454 200.661 79.2174C200.752 79.1973 200.837 79.156 200.91 79.0965C200.983 79.037 201.042 78.9607 201.082 78.8747L202.156 76.5085C202.191 76.4297 202.246 76.3611 202.316 76.3101C202.385 76.259 202.466 76.2273 202.551 76.2176L204.648 75.9913C204.889 75.9655 205.077 75.851 205.211 75.6487C206.117 74.2716 208.951 74.11 208.356 72.2804C208.333 72.2138 208.331 72.1433 208.347 72.0755C208.364 72.0076 208.399 71.9455 208.45 71.897C208.5 71.8479 208.564 71.8136 208.633 71.7981C208.701 71.7819 208.774 71.7858 208.841 71.8084C210.11 72.2435 211.08 71.8925 211.753 70.7547C211.792 70.6855 211.88 70.6402 212.019 70.6189C212.217 70.5885 212.351 70.4805 212.42 70.2956C212.847 69.205 213.669 68.733 214.885 68.8798C214.972 68.8901 215.059 68.8675 215.131 68.8177C215.202 68.7679 215.254 68.693 215.274 68.6083C215.472 67.7329 216.011 67.2609 216.892 67.1924C217.159 67.175 217.377 67.0605 217.545 66.8498C218.964 65.1171 220.616 63.6817 222.502 62.5438C222.674 62.436 222.795 62.2873 222.865 62.0977C223.101 61.4038 223.596 61.0633 224.346 61.0762C224.579 61.0806 224.782 61.0051 224.955 60.85C225.913 59.9837 227.013 59.3048 228.255 58.8135C228.462 58.7273 228.656 58.751 228.838 58.8846C230.656 60.197 232.746 60.4621 234.636 61.7034C237.082 63.3002 238.486 59.9901 235.846 58.4644C235.741 58.4027 235.657 58.3124 235.603 58.2046C235.549 58.0967 235.528 57.9759 235.542 57.8567L235.768 56.0723C235.79 55.9128 235.88 55.8439 236.04 55.8654L236.687 55.9495C236.989 55.9926 237.032 55.9086 236.817 55.6973L233.497 52.4778C233.35 52.3355 233.283 52.1631 233.296 51.9606C233.3 51.87 233.29 51.7774 233.264 51.6826C233.225 51.5188 233.106 51.3636 232.908 51.2171C229.409 48.6397 225.766 46.2821 221.978 44.1443C220.671 43.4073 219.085 42.1919 217.442 41.4613C216.607 41.0993 215.423 41.332 214.95 40.0455C214.872 39.8343 214.732 39.677 214.529 39.5736C207.726 36.048 200.661 33.1581 193.336 30.904C191.621 30.3738 191.058 30.0829 188.8 29.9989C186.91 29.9277 184.794 28.4731 182.386 28.4666C178.892 28.458 175.542 27.7382 172.336 26.3073C171.185 25.7966 168.732 25.2665 167.541 25.2147C163.594 25.0466 159.834 24.7105 155.809 24.9626C147.935 25.4583 140.066 25.3268 132.201 24.5682C131.998 24.5467 131.802 24.6092 131.612 24.7557C131.449 24.8853 131.249 24.956 131.043 24.9561C124.718 24.9906 118.523 25.8936 112.457 27.665C111.995 27.7986 111.568 27.8675 111.176 27.8719C110.011 27.8848 109.597 27.7124 109.934 27.3547C119.576 24.8376 130.421 23.2916 140.146 22.8218L143.632 22.6685L147.159 22.6277L151.463 22.6788L155.809 22.8744Z" fill="url(#paint0_linear_302_172)"/>
<path d="M111.001 74.0783C90.3901 79.4637 72.6911 92.6912 61.062 110.444L60.3113 110.405C60.2095 110.399 60.1082 110.421 60.0182 110.467C59.9281 110.514 59.8527 110.584 59.8001 110.67L56.8427 115.59C56.7866 115.681 56.7283 115.883 56.668 116.198C56.655 116.263 56.6485 116.321 56.6485 116.373C56.6485 116.567 56.5623 116.709 56.3897 116.799C55.7296 117.139 55.2227 117.629 54.8689 118.267C54.4159 119.088 54.9854 120.316 53.6911 120.827C53.5013 120.9 53.346 121.018 53.2252 121.183C51.7109 123.199 49.7307 124.318 51.0185 127.434C51.0506 127.511 51.065 127.593 51.0605 127.676C51.056 127.759 51.0328 127.84 50.9926 127.913L48.2035 132.955C48.087 133.162 48.0395 133.382 48.0611 133.615C48.1431 134.502 48.0999 135.168 47.9317 135.612C46.8963 138.328 46.1779 141.114 45.7767 143.972C45.5437 145.633 44.9354 147.489 44.7089 149.292C44.476 151.116 43.6541 152.531 43.5247 154.426C43.4276 155.822 42.6381 157.096 42.7158 158.324C42.8452 160.44 42.7805 162.546 42.5216 164.64C42.4742 165.028 42.3599 165.05 42.1787 164.705L42.0751 164.511C42.0191 164.408 41.9327 164.375 41.8163 164.414L40.8326 164.75C40.5694 164.841 40.4508 165.024 40.4767 165.3C40.5458 166.157 40.9491 166.625 41.6868 166.703C42.0277 166.737 42.1053 166.899 41.9198 167.188L41.5509 167.757C41.5403 167.772 41.5259 167.786 41.5089 167.795C41.4921 167.804 41.4731 167.808 41.4539 167.808C41.4347 167.808 41.4158 167.804 41.3988 167.795C41.3818 167.786 41.3674 167.772 41.3568 167.757L41.098 167.356C41.0934 167.35 41.0902 167.343 41.0887 167.336C41.0872 167.329 41.0874 167.322 41.0893 167.315C41.0912 167.308 41.0948 167.301 41.0996 167.296C41.1045 167.291 41.1106 167.287 41.1174 167.285C41.1735 167.271 41.2274 167.254 41.2791 167.233C41.2894 167.232 41.299 167.227 41.3057 167.219C41.3123 167.211 41.3156 167.201 41.3147 167.191C41.3139 167.181 41.309 167.171 41.3011 167.164C41.2932 167.157 41.283 167.154 41.2727 167.155C40.66 167.069 40.3516 167.293 40.3473 167.827C40.3387 168.793 39.9763 169.45 39.2601 169.8C39.1646 169.848 39.0806 169.916 39.0137 169.998C38.9468 170.081 38.8985 170.176 38.8718 170.278C38.613 171.312 37.9788 172.038 36.9692 172.457C36.7492 172.547 36.5788 172.698 36.458 172.909C35.9705 173.763 35.2522 174.383 34.3031 174.771C34.0916 174.857 33.8738 174.917 33.6495 174.952C33.0412 175.042 32.5084 175.295 32.051 175.709C32.0017 175.751 31.9615 175.803 31.9326 175.861C31.9037 175.919 31.8868 175.981 31.8828 176.044C31.8397 176.622 31.5657 177.051 31.0609 177.331C30.8663 177.437 30.6466 177.486 30.4267 177.474C30.0083 177.443 29.6049 177.514 29.2166 177.687C28.9836 177.786 28.783 177.93 28.6148 178.12C26.7899 180.157 24.6737 178.501 23.3277 179.839C23.1767 179.99 23.1551 180.157 23.263 180.338L23.6254 180.977C23.7721 181.232 23.7095 181.411 23.4377 181.514C21.8975 182.104 20.6184 181.799 19.6002 180.596C19.4363 180.402 19.2335 180.348 18.9919 180.435L17.1346 181.093C16.9745 181.151 16.803 181.17 16.6342 181.148C16.4654 181.126 16.3043 181.064 16.1644 180.967C16.0244 180.87 15.9097 180.742 15.8297 180.592C15.7497 180.442 15.7067 180.275 15.7045 180.105C15.6204 175.075 7.97125 182.148 7.02644 183.13C5.72572 184.495 5.68041 186.259 3.09188 186.795C2.88048 186.839 2.76402 186.753 2.74244 186.538C2.66478 185.83 2.38435 185.214 1.90116 184.688C1.76742 184.546 1.68761 184.378 1.66172 184.184C1.16343 180.531 1.60347 177.066 1.43522 173.439C1.38777 172.53 1.35758 171.349 1.34463 169.897C1.32738 168.741 0.880854 168.187 0.00506592 168.235C0.466687 148.96 4.34517 130.44 11.6405 112.675C28.9254 71.2079 63.3658 41.0934 106.161 28.3315C107.498 27.935 108.756 27.6095 109.934 27.3553C109.597 27.713 110.011 27.8854 111.176 27.8725C111.568 27.8682 111.995 27.7992 112.457 27.6656C118.523 25.8942 124.718 24.9912 131.043 24.9567C131.249 24.9566 131.449 24.886 131.612 24.7563C131.802 24.6098 131.998 24.5473 132.201 24.5688C140.066 25.3274 147.935 25.4589 155.809 24.9632C159.834 24.7111 163.594 25.0472 167.541 25.2153C168.732 25.2671 171.185 25.7972 172.336 26.3079C175.542 27.7388 178.892 28.4587 182.386 28.4672C184.794 28.4737 186.91 29.9283 188.8 29.9995C191.058 30.0835 191.621 30.3744 193.336 30.9046C200.661 33.1587 207.726 36.0486 214.529 39.5742C214.732 39.6776 214.872 39.8349 214.95 40.0461C215.423 41.3327 216.607 41.0999 217.442 41.462C219.085 42.1925 220.671 43.4079 221.978 44.1449C225.766 46.2827 229.409 48.6403 232.908 51.2177C233.106 51.3642 233.225 51.5194 233.264 51.6832C233.29 51.778 233.3 51.8706 233.296 51.9612C233.283 52.1637 233.35 52.3361 233.497 52.4784L236.817 55.6979C237.032 55.9092 236.99 55.9932 236.687 55.9501L236.04 55.866C235.88 55.8445 235.79 55.9134 235.768 56.0729L235.542 57.8573C235.528 57.9765 235.55 58.0973 235.603 58.2052C235.657 58.3131 235.741 58.4033 235.846 58.465C238.486 59.9907 237.082 63.3008 234.636 61.704C232.746 60.4627 230.656 60.1976 228.838 58.8852C228.656 58.7516 228.462 58.7279 228.255 58.8141C227.013 59.3054 225.913 59.9843 224.955 60.8506C224.782 61.0057 224.579 61.0812 224.346 61.0769C223.596 61.0639 223.101 61.4044 222.865 62.0983C222.795 62.288 222.674 62.4367 222.502 62.5444C220.616 63.6823 218.964 65.1178 217.545 66.8504C217.377 67.0612 217.159 67.1756 216.892 67.1931C216.011 67.2616 215.472 67.7336 215.274 68.6083C215.254 68.6936 215.203 68.768 215.131 68.8184C215.059 68.8682 214.972 68.8902 214.885 68.8805C213.669 68.7337 212.847 69.2057 212.42 70.2963C212.351 70.4812 212.217 70.5892 212.019 70.6196C211.88 70.6409 211.792 70.6861 211.753 70.7553C211.08 71.8932 210.11 72.2442 208.841 71.8091C208.774 71.7865 208.701 71.7826 208.633 71.7988C208.564 71.8143 208.5 71.8486 208.45 71.8977C208.399 71.9462 208.364 72.0082 208.347 72.0761C208.331 72.1434 208.334 72.2145 208.356 72.2811C208.951 74.1107 206.117 74.2723 205.211 75.6493C205.077 75.8517 204.889 75.9661 204.648 75.992L202.551 76.2183C202.466 76.228 202.385 76.2596 202.316 76.3107C202.246 76.3618 202.191 76.4297 202.156 76.5086L201.082 78.8754C201.042 78.9614 200.983 79.0377 200.91 79.0965C200.837 79.156 200.752 79.1974 200.661 79.218C199.634 79.4547 198.97 80.0798 198.668 81.0929C198.64 81.1905 198.587 81.2791 198.513 81.3496C198.439 81.42 198.347 81.4698 198.248 81.4937C197.177 81.7304 196.323 82.2954 195.685 83.1876C195.583 83.3266 195.444 83.4339 195.284 83.4979C194.151 83.931 193.362 84.319 192.676 85.4503C191.796 86.8985 189.971 88.7734 188.042 88.3337C187.831 88.282 187.712 88.1482 187.686 87.9329C187.609 87.2644 187.235 86.8681 186.567 86.7433C186.347 86.7045 186.146 86.6199 185.965 86.4912C184.088 85.1723 182.05 84.1657 179.85 83.472C179.668 83.4158 179.537 83.2994 179.455 83.1229C179.265 82.7001 178.892 82.4764 178.335 82.4506C178.124 82.4415 178.077 82.5255 178.193 82.7027C178.357 82.9568 178.579 83.1055 178.86 83.1488C179.023 83.1805 179.17 83.2716 179.271 83.4048C179.371 83.538 179.42 83.7035 179.406 83.8703C179.393 84.0364 179.318 84.1916 179.197 84.3067C179.076 84.4217 178.917 84.4883 178.75 84.4935C177.485 84.4631 176.59 83.9091 176.064 82.8313C175.939 82.5689 175.727 82.4376 175.43 82.4376H175.061C174.849 82.4376 174.655 82.3814 174.478 82.2695C165.613 76.5758 155.398 72.7724 143.837 70.8588C139.251 70.0998 135.603 69.8502 132.894 70.1088C125.691 70.7876 118.01 71.3559 111.014 73.2566C110.798 73.3174 110.591 73.4512 110.393 73.6581C110.255 73.8042 110.278 73.9167 110.464 73.9943C110.61 74.059 110.79 74.0868 111.001 74.0783Z" fill="url(#paint1_linear_302_172)"/>
<defs>
<linearGradient id="paint0_linear_302_172" x1="273.737" y1="117.987" x2="90.1466" y2="319.55" gradientUnits="userSpaceOnUse">
<stop stop-color="#B40FAD"/>
<stop offset="1" stop-color="#4446ED"/>
</linearGradient>
<linearGradient id="paint1_linear_302_172" x1="220.002" y1="76.7355" x2="129.642" y2="222.469" gradientUnits="userSpaceOnUse">
<stop stop-color="#B40FAD"/>
<stop offset="1" stop-color="#4446ED"/>
</linearGradient>
</defs>
</svg>
