<svg width="30" height="30" xmlns="http://www.w3.org/2000/svg" xmlns:xlink="http://www.w3.org/1999/xlink" version="1.1">
<g transform=" translate(5.555555555555555, 15.586557600233288) translate(0, 10)">                        
<g fill="#004AAC">
<path xmlns="http://www.w3.org/2000/svg" d="M80,40c-2.586,0-5.055,0.496-7.324,1.39l-8.038-8.038c3.178-3.541,5.113-8.22,5.113-13.352c0-11.046-8.954-20-20-20  s-20,8.954-20,20c0,5.068,1.889,9.693,4.997,13.218l-7.964,7.964C24.665,40.418,22.381,40,20,40C8.954,40,0,48.954,0,60  s8.954,19.938,20,19.938c10.155,0,18.537-7.438,19.823-17.438h20.354c1.286,10,9.668,17.438,19.823,17.438  c11.046,0,20-8.923,20-19.969S91.046,40,80,40z M49.75,5c8.271,0,15,6.729,15,15s-6.729,15-15,15s-15-6.729-15-15S41.479,5,49.75,5z   M38.5,36.536C41.705,38.721,45.578,40,49.75,40c4.108,0,7.925-1.24,11.101-3.364l7.273,7.21C63.797,47.046,60.81,52.5,60.145,57.5  h-20.29c-0.687-6-3.855-10.778-8.417-13.965L38.5,36.536z M20,75c-8.271,0-15-6.729-15-15s6.729-15,15-15s15,6.729,15,15  S28.271,75,20,75z M80,75c-8.271,0-15-6.729-15-15s6.729-15,15-15s15,6.729,15,15S88.271,75,80,75z"/></g>        
</g></svg>