<svg width="40" height="40" viewBox="0 0 40 40" fill="none" xmlns="http://www.w3.org/2000/svg">
<path d="M36.8445 30.3684C34.668 30.3139 32.9815 30.5319 31.5665 31.1304C31.1585 31.2934 30.5055 31.2939 30.451 31.8104C30.669 32.0284 30.696 32.3819 30.8865 32.6809C31.213 33.2249 31.784 33.9594 32.301 34.3404C32.872 34.7754 33.4435 35.2109 34.042 35.5919C35.103 36.2449 36.3 36.6259 37.334 37.2784C37.9325 37.6589 38.531 38.1489 39.1295 38.5569C39.429 38.7744 39.619 39.1279 40 39.2644V39.1829C39.8095 38.9379 39.755 38.5844 39.565 38.3124C39.293 38.0404 39.021 37.7954 38.749 37.5234C37.96 36.4624 36.9805 35.5374 35.9195 34.7759C35.049 34.1774 33.1445 33.3614 32.791 32.3544L32.7365 32.2999C33.335 32.2454 34.0425 32.0279 34.6135 31.8644C35.5385 31.6194 36.382 31.6739 37.334 31.4294C37.7728 31.3147 38.2084 31.1877 38.64 31.0484V30.8039C38.1505 30.3139 37.7965 29.6614 37.28 29.1989C35.8925 28.0014 34.369 26.8319 32.791 25.8529C31.9475 25.3089 30.8595 24.9549 29.9615 24.4924C29.635 24.3289 29.091 24.2474 28.9005 23.9754C28.4105 23.3769 28.1385 22.5879 27.785 21.8804C26.9965 20.3839 26.2345 18.7249 25.554 17.1469C25.0645 16.0859 24.765 15.0249 24.1665 14.0454C21.3645 9.42041 18.3175 6.61842 13.6381 3.87043C12.6316 3.29943 11.4346 3.05443 10.1561 2.75493L8.11557 2.64593C7.68057 2.45543 7.24507 1.93843 6.86407 1.69393C5.31357 0.714932 1.31458 -1.40656 0.171582 1.39543C-0.562917 3.16343 1.26008 4.90442 1.88558 5.80242C2.34808 6.42792 2.94658 7.13542 3.27308 7.84292C3.46358 8.30492 3.51757 8.79492 3.70807 9.28491C4.14357 10.4819 4.55157 11.8149 5.12257 12.9304C5.42207 13.5014 5.74807 14.1004 6.12907 14.6169C6.34657 14.9159 6.72757 15.0524 6.80907 15.5419C6.42807 16.0859 6.40107 16.9024 6.18307 17.5824C5.20357 20.6564 5.58457 24.4654 6.97207 26.7234C7.40707 27.4034 8.44106 28.8999 9.82856 28.3284C11.0526 27.8389 10.7806 26.2879 11.1346 24.9279C11.2166 24.6014 11.1621 24.3839 11.3251 24.1664V24.2209L12.4406 26.4789C13.2841 27.8119 14.7531 29.1994 15.977 30.1244C16.63 30.6139 17.147 31.4574 17.963 31.7569V31.6749H17.9085C17.745 31.4299 17.5005 31.3214 17.283 31.1309C16.7935 30.6414 16.249 30.0429 15.8685 29.4984C14.7261 27.9749 13.7191 26.2884 12.8216 24.5469C12.3866 23.7034 12.0056 22.7784 11.6516 21.9354C11.4881 21.6089 11.4881 21.1194 11.2161 20.9559C10.8081 21.5544 10.2096 22.0714 9.91006 22.8059C9.39356 23.9759 9.33906 25.4174 9.14856 26.9139C9.04006 26.9414 9.09406 26.9139 9.03956 26.9684C8.16907 26.7504 7.86957 25.8529 7.54307 25.0914C6.72707 23.1599 6.59107 20.0584 7.29857 17.8279C7.48907 17.2564 8.30507 15.4609 7.97857 14.9169C7.81557 14.3999 7.27107 14.1009 6.97207 13.6929C6.61857 13.1759 6.23757 12.5229 5.99257 11.9519C5.33957 10.4284 5.01307 8.74192 4.30607 7.21792C3.97957 6.51042 3.40858 5.77592 2.94558 5.12342C2.43008 4.38792 1.85858 3.87093 1.45058 3.00043C1.31458 2.70143 1.12408 2.21143 1.34158 1.88493C1.39608 1.66743 1.50458 1.58593 1.72258 1.53143C2.07608 1.23193 3.08308 1.61293 3.43658 1.77593C4.44307 2.18393 5.28657 2.56493 6.13007 3.13643C6.51107 3.40843 6.91907 3.92543 7.40857 4.06143H7.98007C8.85056 4.25192 9.83006 4.11592 10.6461 4.36042C12.0881 4.82292 13.3936 5.50292 14.5636 6.23742C18.1275 8.49542 21.0655 11.7059 23.0515 15.5414C23.378 16.1669 23.514 16.7384 23.813 17.3914C24.3845 18.7244 25.0915 20.0849 25.663 21.3904C26.234 22.6689 26.7785 23.9749 27.5945 25.0359C28.0025 25.6069 29.635 25.9064 30.3695 26.2059C30.9135 26.4504 31.757 26.6684 32.2465 26.9674C33.1715 27.5384 34.0965 28.1914 34.967 28.8174C35.4025 29.1439 36.7625 29.8239 36.844 30.3679L36.8445 30.3684ZM9.09506 6.72742C8.71888 6.72376 8.34385 6.76948 7.97957 6.86342V6.91792H8.03407C8.25207 7.35292 8.63256 7.65242 8.90456 8.03342L9.53056 9.33941L9.58506 9.28491C9.96606 9.01291 10.1566 8.57742 10.1566 7.92442C9.99306 7.73392 9.96606 7.54342 9.83006 7.35292C9.66706 7.08092 9.31306 6.94492 9.09556 6.72692L9.09506 6.72742Z" fill="white"/>
</svg>
