<svg viewBox="0 0 25 28" fill="none" xmlns="http://www.w3.org/2000/svg">
<g clip-path="url(#clip0_6061_2)">
<path d="M19.294 3.934C19.6043 3.62344 19.9727 3.37708 20.3783 3.20899C20.7838 3.0409 21.2185 2.95439 21.6575 2.95439C22.0965 2.95439 22.5312 3.0409 22.9367 3.20899C23.3423 3.37708 23.7107 3.62344 24.021 3.934C24.6478 4.56108 24.9999 5.41139 24.9999 6.298C24.9999 7.18461 24.6478 8.03492 24.021 8.662L12.204 20.482C11.8937 20.7924 11.5254 21.0386 11.1199 21.2066C10.7145 21.3746 10.2799 21.4611 9.841 21.4611C9.40212 21.4611 8.96754 21.3746 8.56209 21.2066C8.15664 21.0386 7.78826 20.7924 7.478 20.482C6.85153 19.855 6.49963 19.0049 6.49963 18.1185C6.49963 17.2321 6.85153 16.382 7.478 15.755L19.294 3.934Z" fill="#FF6100"/>
<path d="M9.25 0.98C9.8824 0.38009 10.7241 0.0508301 11.5957 0.0623659C12.4673 0.0739016 13.2999 0.425321 13.9162 1.04176C14.5325 1.65819 14.8838 2.49092 14.8951 3.36253C14.9065 4.23413 14.577 5.07572 13.977 5.708L5.706 13.982C5.39565 14.2924 5.02719 14.5387 4.62166 14.7067C4.21612 14.8747 3.78146 14.9612 3.3425 14.9612C2.90354 14.9612 2.46888 14.8747 2.06334 14.7067C1.65781 14.5387 1.28935 14.2924 0.979 13.982C0.351918 13.3549 -0.000369849 12.5044 -0.000369849 11.6175C-0.000369849 10.7306 0.351918 9.88012 0.979 9.253L9.25 0.98Z" fill="#0099FF"/>
<path d="M18.704 17.527C19.3371 16.931 20.1775 16.6051 21.0469 16.6183C21.9163 16.6316 22.7464 16.9829 23.3611 17.5979C23.9758 18.2128 24.3268 19.0431 24.3397 19.9125C24.3525 20.7819 24.0262 21.6221 23.43 22.255L18.704 26.984C18.3936 27.2944 18.025 27.5406 17.6194 27.7085C17.2138 27.8765 16.7791 27.9629 16.3401 27.9628C15.9012 27.9628 15.4665 27.8763 15.0609 27.7083C14.6554 27.5402 14.2869 27.2939 13.9765 26.9835C13.6661 26.6731 13.4199 26.3045 13.252 25.8989C13.084 25.4933 12.9976 25.0586 12.9977 24.6196C12.9977 24.1807 13.0842 23.746 13.2522 23.3404C13.4203 22.9349 13.6666 22.5664 13.977 22.256L18.704 17.527Z" fill="#FFB629"/>
<path d="M1.671 28H6.338C7.083 28 7.456 27.1 6.929 26.573L1.426 21.07C0.9 20.542 0 20.915 0 21.659V26.329C0 27.251 0.748 28 1.671 28Z" fill="white"/>
</g>
<defs>
<clipPath id="clip0_6061_2">
<rect width="25" height="28" fill="white"/>
</clipPath>
</defs>
</svg>
