<svg width="195" height="195" xmlns="http://www.w3.org/2000/svg">

 <g>
  <title>background</title>
  <rect fill="none" id="canvas_background" height="197" width="197" y="-1" x="-1"/>
 </g>
 <g>
  <title>Layer 1</title>
  <g fill="none" id="svg_1" class="mark">
   <polygon stroke="#619E73" fill="#4e878c" id="svg_2" points="140.60000610351562,126.91817474365234 140.60000610351562,126.91817474365234 140.60000610351562,162.91819763183594 171.89999389648438,144.8181915283203 171.8000030517578,108.71817779541016 140.60000610351562,90.71817779541016 " class="st0"/>
   <polygon stroke="#619E73" fill="#4e878c" id="svg_3" points="65.80000305175781,170.0181884765625 97,188.0181884765625 128.1999969482422,170.0181884765625 128.1999969482422,134.11819458007812 " class="st0"/>
   <polygon stroke="#619E73" fill="#4e878c" id="svg_4" points="171.8000030517578,94.31817626953125 171.8000030517578,58.418182373046875 140.60000610351562,40.418182373046875 109.5,58.31818389892578 " class="st0"/>
   <polygon stroke="#619E73" fill="#4e878c" id="svg_5" points="65.80000305175781,83.61817932128906 65.80000305175781,119.61817932128906 97,137.61819458007812 128.1999969482422,119.71817779541016 128.1999969482422,83.61817932128906 97,65.61817932128906 " class="st0"/>
   <polygon stroke="#619E73" fill="#4e878c" id="svg_6" points="22.100000381469727,108.81817626953125 22.100000381469727,144.8181915283203 53.29999923706055,162.8181915283203 84.5,144.8181915283203 " class="st0"/>
   <polygon stroke="#619E73" fill="#4e878c" id="svg_7" points="53.29999923706055,40.418182373046875 22.100000381469727,58.418182373046875 22.100000381469727,94.41817474365234 53.29999923706055,112.41817474365234 " class="st0"/>
   <polygon stroke="#619E73" fill="#4e878c" id="svg_8" points="97,51.21818542480469 97,51.21818542480469 128.1999969482422,33.21818161010742 97,15.218181610107422 65.80000305175781,33.21818161010742 65.80000305175781,69.21817779541016 " class="st0"/>
  </g>
 </g>
</svg>