<svg width="40" height="40" viewBox="0 0 40 40" fill="none" xmlns="http://www.w3.org/2000/svg">
<path d="M2.76563 3.2189C0 6.164 0 10.776 0 20C0 29.2241 0 33.8359 2.76563 36.781C2.91194 36.9369 3.0631 37.0882 3.2189 37.2343C6.164 40 10.776 40 20 40C29.2241 40 33.8359 40 36.781 37.2343C36.9369 37.0882 37.0882 36.9369 37.2343 36.781C40 33.8359 40 29.2241 40 20C40 10.776 40 6.164 37.2343 3.2189C37.0882 3.0631 36.9369 2.91194 36.781 2.76563C33.8359 0 29.2241 0 20 0C10.776 0 6.164 0 3.2189 2.76563C3.0631 2.91194 2.91194 3.0631 2.76563 3.2189Z" fill="#171717"/>
<path d="M24.1904 21.2729C24.5424 20.9218 25.1055 20.899 25.4849 21.2202L30.0706 25.1031C31.9918 26.7298 30.632 29.8535 28.1282 29.5649L19.1089 28.5249C18.3148 28.4333 17.9776 27.468 18.5429 26.9043C18.7492 26.6986 19.0385 26.598 19.3285 26.6314L28.3478 27.6714C28.9737 27.7437 29.3137 26.9627 28.8333 26.5559L24.2478 22.6731C23.822 22.3127 23.7955 21.6665 24.1904 21.2729Z" fill="white"/>
<path fill-rule="evenodd" clip-rule="evenodd" d="M9.7959 27.0451V11.8735C9.7959 9.63868 12.4806 8.49197 14.103 10.0338L12.7842 11.4136C12.3786 11.0281 11.7074 11.3148 11.7074 11.8735V27.0451C11.7074 27.6137 12.3989 27.8959 12.7988 27.4908L28.9065 11.1679C29.4014 10.6663 28.833 9.85356 28.19 10.1433L17.8097 14.8197C17.2186 15.086 16.5245 14.9683 16.0549 14.522L12.7842 11.4136L14.103 10.0338L17.2183 12.9946L27.4028 8.40625C29.9751 7.24744 32.2488 10.4986 30.269 12.5047L14.1612 28.8276C12.5617 30.4486 9.7959 29.3192 9.7959 27.0451Z" fill="white"/>
</svg>
