<svg version="1.0" xmlns="http://www.w3.org/2000/svg" width="226.667" height="226.667" viewBox="-30 -25 220 220"><path fill="#662482" d="M106.5 25.5c-30.2 14-56 25.4-57.2 25.4-1.7.1-6.1-5-20-22.9C11.5 5.1 8.7 2.4 5.1 4.7c-1.4.9-1.6 8.9-1.9 79.3-.1 57 .1 78.6.9 79.6 3.5 4.3 3.3 4.6 85.2-77.4C145.1 30.4 168 6.8 168 5.3c0-2.6-2.5-5.3-4.8-5.2-.9 0-26.4 11.5-56.7 25.4z"/><path fill="#e61b73" d="M69.4 125.2c-13.3 13.4-24.4 25.1-24.7 26-.3.9.2 2.6 1.1 3.8 1.6 1.8 6.7 2.6 59.9 8.5 32 3.5 58.9 6.2 59.7 5.9 1.9-.7 2.9-3.8 2.1-6.2-.3-.9-15.9-15.2-34.6-31.7-24.1-21.2-34.8-30.1-36.7-30.3-2.3-.2-5.9 3-26.8 24z"/></svg>