<?xml version="1.0" standalone="no"?>
<!DOCTYPE svg PUBLIC "-//W3C//DTD SVG 20010904//EN"
 "http://www.w3.org/TR/2001/REC-SVG-20010904/DTD/svg10.dtd">
<svg version="1.0" xmlns="http://www.w3.org/2000/svg"
 width="170.000000pt" height="170.000000pt" viewBox="-30 -25 220.000000 220.000000"
 preserveAspectRatio="xMidYMid meet">

<g transform="translate(0.000000,170.000000) scale(0.100000,-0.100000)"
fill="#000000" stroke="none">
<path fill="#662482" d="M1065 1445 c-302 -140 -560 -254 -572 -254 -17 -1 -61 50 -200 229
-178 229 -206 256 -242 233 -14 -9 -16 -89 -19 -793 -1 -570 1 -786 9 -796 35
-43 33 -46 852 774 558 558 787 794 787 809 0 26 -25 53 -48 52 -9 0 -264
-115 -567 -254z"/>
<path fill="#e61b73" d="M694 448 c-133 -134 -244 -251 -247 -260 -3 -9 2 -26 11 -38 16 -18
67 -26 599 -85 320 -35 589 -62 597 -59 19 7 29 38 21 62 -3 9 -159 152 -346
317 -241 212 -348 301 -367 303 -23 2 -59 -30 -268 -240z"/>
</g>
</svg>
