<?xml version="1.0" encoding="UTF-8"?>
<svg width="341px" height="85px" viewBox="0 0 341 85" version="1.1"
    xmlns="http://www.w3.org/2000/svg"
    xmlns:xlink="http://www.w3.org/1999/xlink">
    <g id="Page-1" stroke="none" stroke-width="1" fill="none" fill-rule="evenodd">
        <g id="logo_color" fill="#065085">
            <path d="M49.826,69.048 L36.675,75.606 L23.525,69.048 C22.054,68.315 20.325,69.384 20.325,71.028 L20.325,82.784 C20.325,84.428 22.054,85.498 23.525,84.764 L36.675,78.205 L49.826,84.764 C51.297,85.498 53.026,84.428 53.026,82.784 L53.026,71.028 C53.026,69.384 51.297,68.315 49.826,69.048" id="Fill-3"></path>
            <path d="M36.201,7.955 L31.792,22.028 C31.318,23.541 32.01,25.32 33.072,25.32 L40.667,25.32 C41.729,25.32 42.42,23.541 41.946,22.028 L37.537,7.955 L36.201,7.955" id="Fill-5"></path>
            <path d="M43.484,7.068 C43.484,10.721 40.523,13.682 36.869,13.682 C33.216,13.682 30.255,10.721 30.255,7.068 C30.255,3.415 33.216,0.453 36.869,0.453 C40.523,0.453 43.484,3.415 43.484,7.068" id="Fill-6"></path>
            <path d="M66.227,54.076 C66.227,55.281 65.25,56.261 64.049,56.261 L9.302,56.261 C8.101,56.261 7.125,55.281 7.125,54.076 L7.125,28.737 C7.125,27.532 8.101,26.552 9.302,26.552 L64.049,26.552 C65.25,26.552 66.227,27.532 66.227,28.737 L66.227,54.076 L66.227,54.076 Z M72.817,28.737 C72.817,23.898 68.884,19.961 64.049,19.961 L9.302,19.961 C4.466,19.961 0.533,23.898 0.533,28.737 L0.533,54.076 C0.533,58.916 4.466,62.853 9.302,62.853 L64.049,62.853 C68.884,62.853 72.817,58.916 72.817,54.076 L72.817,28.737 L72.817,28.737 Z" id="Fill-7"></path>
            <path d="M28.692,46.62 C27.142,46.62 25.885,45.363 25.885,43.813 C25.885,42.24 24.606,40.96 23.033,40.96 C21.46,40.96 20.18,42.24 20.18,43.813 C20.18,45.363 18.924,46.62 17.373,46.62 C15.823,46.62 14.567,45.363 14.567,43.813 C14.567,39.145 18.365,35.347 23.033,35.347 C27.701,35.347 31.499,39.145 31.499,43.813 C31.499,45.363 30.243,46.62 28.692,46.62" id="Fill-8"></path>
            <path d="M55.978,46.62 C54.427,46.62 53.171,45.363 53.171,43.813 C53.171,42.24 51.891,40.96 50.318,40.96 C48.746,40.96 47.466,42.24 47.466,43.813 C47.466,45.363 46.209,46.62 44.659,46.62 C43.108,46.62 41.852,45.363 41.852,43.813 C41.852,39.145 45.65,35.347 50.318,35.347 C54.986,35.347 58.784,39.145 58.784,43.813 C58.784,45.363 57.528,46.62 55.978,46.62" id="Fill-9"></path>
            <path d="M102.884003,30.6879854 C106.108003,30.6879854 107.968003,31.6799854 109.642003,33.2919854 C110.138003,33.7879854 110.634003,33.8499854 110.944003,33.8499854 C111.936003,33.8499854 112.742003,33.0439854 112.742003,32.0519854 C112.742003,31.4939854 112.494003,31.1219854 112.308003,30.8739854 C110.386003,28.3319854 107.100003,26.9059854 102.884003,26.9059854 C97.6140031,26.9059854 93.3980031,29.2619854 93.3980031,34.4079854 C93.3980031,44.5759854 109.704003,42.0339854 109.704003,48.4199854 C109.704003,51.6439854 106.666003,52.8219854 103.132003,52.8219854 C99.6600031,52.8219854 97.1800031,51.7059854 95.2580031,49.7839854 C94.7620031,49.2879854 94.2660031,49.1639854 93.8940031,49.1639854 C92.9020031,49.1639854 92.0960031,49.9699854 92.0960031,50.9619854 C92.0960031,51.3959854 92.2200031,51.7059854 92.5300031,52.1399854 C94.1420031,54.1859854 98.0480031,56.6039854 103.132003,56.6039854 C109.022003,56.6039854 113.672003,54.0619854 113.672003,48.4199854 C113.672003,38.4999854 97.3660031,40.9179854 97.3660031,34.4079854 C97.3660031,31.5559854 100.094003,30.6879854 102.884003,30.6879854 Z M120.032003,27.2159854 C118.916003,27.2159854 118.048003,28.0839854 118.048003,29.1999854 L118.048003,45.3819854 C118.048003,51.2719854 120.032003,56.6659854 129.580003,56.6659854 C139.190003,56.6659854 141.112003,51.2719854 141.112003,45.3819854 L141.112003,29.1999854 C141.112003,28.0839854 140.244003,27.2159854 139.190003,27.2159854 C138.074003,27.2159854 137.144003,28.0839854 137.144003,29.1999854 L137.144003,45.3819854 C137.144003,49.4119854 135.842003,52.8839854 129.580003,52.8839854 C123.318003,52.8839854 122.016003,49.4119854 122.016003,45.3819854 L122.016003,29.1999854 C122.016003,28.0839854 121.086003,27.2159854 120.032003,27.2159854 Z M148.836003,27.2159854 C149.890003,27.2159854 150.820003,28.0839854 150.820003,29.1999854 L150.820003,31.1839854 C151.998003,29.0759854 155.098003,26.8439854 159.252003,26.8439854 C167.312003,26.8439854 172.210003,31.5559854 172.210003,41.7239854 C172.210003,51.8919854 167.312003,56.6659854 159.252003,56.6659854 C155.098003,56.6659854 152.122003,54.4339854 150.820003,52.3259854 L150.820003,66.3379854 C150.820003,67.3919854 149.890003,68.3219854 148.836003,68.3219854 C147.782003,68.3219854 146.852003,67.3919854 146.852003,66.3379854 L146.852003,29.1999854 C146.852003,28.0839854 147.782003,27.2159854 148.836003,27.2159854 Z M150.696003,41.7239854 C150.696003,49.7219854 154.416003,53.0699854 159.252003,53.0699854 C164.956003,53.0699854 168.180003,49.4739854 168.180003,41.7239854 C168.180003,33.9739854 164.832003,30.4399854 159.128003,30.4399854 C154.540003,30.4399854 150.696003,33.6639854 150.696003,41.7239854 Z M178.694003,27.2159854 C179.748003,27.2159854 180.678003,28.0839854 180.678003,29.1999854 L180.678003,31.1839854 C181.856003,29.0759854 184.956003,26.8439854 189.110003,26.8439854 C197.170003,26.8439854 202.068003,31.5559854 202.068003,41.7239854 C202.068003,51.8919854 197.170003,56.6659854 189.110003,56.6659854 C184.956003,56.6659854 181.980003,54.4339854 180.678003,52.3259854 L180.678003,66.3379854 C180.678003,67.3919854 179.748003,68.3219854 178.694003,68.3219854 C177.640003,68.3219854 176.710003,67.3919854 176.710003,66.3379854 L176.710003,29.1999854 C176.710003,28.0839854 177.640003,27.2159854 178.694003,27.2159854 Z M180.554003,41.7239854 C180.554003,49.7219854 184.274003,53.0699854 189.110003,53.0699854 C194.814003,53.0699854 198.038003,49.4739854 198.038003,41.7239854 C198.038003,33.9739854 194.690003,30.4399854 188.986003,30.4399854 C184.398003,30.4399854 180.554003,33.6639854 180.554003,41.7239854 Z M217.728003,26.8439854 C225.788003,26.8439854 230.748003,31.5559854 230.748003,41.7239854 C230.748003,51.8919854 225.788003,56.6659854 217.728003,56.6659854 C209.730003,56.6659854 204.708003,51.8919854 204.708003,41.7239854 C204.708003,31.5559854 209.730003,26.8439854 217.728003,26.8439854 Z M217.728003,53.0699854 C223.432003,53.0699854 226.718003,49.6599854 226.718003,41.7239854 C226.718003,33.9119854 223.432003,30.4399854 217.728003,30.4399854 C212.024003,30.4399854 208.738003,33.9119854 208.738003,41.7239854 C208.738003,49.6599854 212.024003,53.0699854 217.728003,53.0699854 Z M239.216003,29.1999854 C239.216003,28.0839854 238.348003,27.2159854 237.232003,27.2159854 C236.116003,27.2159854 235.248003,28.0839854 235.248003,29.1999854 L235.248003,54.3719854 C235.248003,55.4879854 236.116003,56.3559854 237.232003,56.3559854 C238.348003,56.3559854 239.216003,55.4879854 239.216003,54.3719854 L239.216003,40.4839854 C239.216003,34.7799854 242.130003,30.8119854 247.834003,30.8119854 C248.888003,30.8119854 249.756003,29.9439854 249.756003,28.8899854 C249.756003,27.8359854 248.888003,26.9679854 247.834003,26.9679854 C243.556003,26.9679854 240.456003,29.0759854 239.216003,31.9279854 L239.216003,29.1999854 Z M256.696003,27.7119854 L254.278003,27.7119854 C253.224003,27.7119854 252.418003,28.5179854 252.418003,29.5719854 C252.418003,30.6259854 253.224003,31.4319854 254.278003,31.4319854 L256.696003,31.4319854 L256.696003,48.5439854 C256.696003,53.0699854 259.362003,56.3559854 264.260003,56.3559854 C265.314003,56.3559854 266.182003,55.5499854 266.182003,54.4959854 C266.182003,53.4419854 265.314003,52.6359854 264.260003,52.6359854 C262.152003,52.6359854 260.664003,51.2099854 260.664003,48.5439854 L260.664003,31.4319854 L264.694003,31.4319854 C265.748003,31.4319854 266.554003,30.6259854 266.554003,29.5719854 C266.554003,28.5179854 265.748003,27.7119854 264.694003,27.7119854 L260.664003,27.7119854 L260.664003,21.2019854 C260.664003,20.1479854 259.796003,19.2179854 258.680003,19.2179854 C257.626003,19.2179854 256.696003,20.1479854 256.696003,21.2019854 L256.696003,27.7119854 Z M277.320003,30.5639854 C278.250003,29.0139854 281.164003,26.8439854 284.636003,26.8439854 C292.758003,26.8439854 297.222003,31.6179854 297.222003,41.7239854 C297.222003,51.8299854 292.696003,56.6659854 284.636003,56.6659854 C281.536003,56.6659854 278.808003,55.6739854 277.320003,53.9999854 L277.320003,64.9739854 C277.320003,66.8339854 275.832003,68.3219854 273.972003,68.3219854 C272.112003,68.3219854 270.624003,66.8339854 270.624003,64.9739854 L270.624003,30.5639854 C270.624003,28.7039854 272.112003,27.2159854 273.972003,27.2159854 C275.832003,27.2159854 277.320003,28.7039854 277.320003,30.5639854 Z M290.402003,41.7859854 C290.402003,35.6479854 288.108003,32.5479854 283.768003,32.5479854 C279.428003,32.5479854 277.134003,35.6479854 277.134003,41.7859854 C277.134003,47.8619854 279.428003,50.9619854 283.768003,50.9619854 C288.108003,50.9619854 290.402003,47.8619854 290.402003,41.7859854 Z M312.780003,32.7959854 C310.052003,32.7959854 308.130003,34.0359854 306.580003,35.1519854 C305.960003,35.5859854 305.464003,35.7719854 304.720003,35.7719854 C303.108003,35.7719854 301.806003,34.4699854 301.806003,32.8579854 C301.806003,32.1759854 302.054003,31.4319854 302.612003,30.8119854 C304.348003,28.8899854 307.448003,26.8439854 312.780003,26.8439854 C320.468003,26.8439854 325.056003,30.6259854 325.056003,37.1979854 L325.056003,53.0699854 C325.056003,54.8679854 323.568003,56.3559854 321.770003,56.3559854 C319.972003,56.3559854 318.484003,54.8679854 318.484003,53.0699854 C316.810003,55.7359854 314.082003,56.6659854 310.362003,56.6659854 C304.286003,56.6659854 300.256003,52.8839854 300.256003,47.3039854 C300.256003,41.5379854 304.906003,38.5619854 310.300003,38.5619854 L318.422003,38.5619854 L318.422003,37.4459854 C318.422003,34.6559854 316.376003,32.7959854 312.780003,32.7959854 Z M312.098003,51.0859854 C315.384003,51.0859854 318.422003,48.9779854 318.422003,45.5059854 L318.422003,43.7699854 L311.168003,43.7699854 C308.440003,43.7699854 306.952003,45.0719854 306.952003,47.3039854 C306.952003,49.6599854 308.626003,51.0859854 312.098003,51.0859854 Z M332.904003,11.7159854 C331.044003,11.7159854 329.556003,13.2039854 329.556003,15.0639854 L329.556003,48.4199854 C329.556003,53.6279854 332.594003,56.3559854 337.430003,56.3559854 C339.166003,56.3559854 340.530003,54.9919854 340.530003,53.2559854 C340.530003,51.5199854 339.166003,50.1559854 337.430003,50.1559854 C336.996003,50.1559854 336.252003,49.7839854 336.252003,49.0399854 L336.252003,15.0639854 C336.252003,13.2039854 334.764003,11.7159854 332.904003,11.7159854 Z" id="supportpal"></path>
        </g>
    </g>
</svg>