<?xml version="1.0" encoding="utf-8"?>
<!-- Generator: Adobe Illustrator 24.3.0, SVG Export Plug-In . SVG Version: 6.00 Build 0)  -->
<svg version="1.2" baseProfile="tiny" xmlns="http://www.w3.org/2000/svg" xmlns:xlink="http://www.w3.org/1999/xlink" x="0px"
	 y="0px" viewBox="0 0 320 320" overflow="visible" xml:space="preserve">
<g id="black_bg" display="none">
</g>
<g id="logos">
	<g>
		<path fill="#FFFFFF" d="M7.1,133.9v46.7c73.8,0.1,134,59.3,135,132.4h45.5C186.5,214.6,106.1,134.8,7.1,133.9z"/>
		<path fill="#FFFFFF" d="M7.1,37.3v46.7c127.4,0.1,231.1,102.5,232.1,228.9h45.5C283.7,161.4,159.7,38.3,7.1,37.3z"/>
		<path fill="#FFFFFF" d="M312.9,193.5V97.6c-11.8-16.1-25.9-33.4-40.4-47.8c-16-15.9-34.1-30.1-52.3-42.7H119
			C207.3,38.9,278.1,107.2,312.9,193.5z"/>
		<path fill="#660066" d="M7.1,180.6v117.1c0,8.4,6.8,15.3,15.3,15.3H142C141,239.8,80.9,180.7,7.1,180.6z"/>
		<path fill="#660066" d="M7.1,84.1v49.8c99,0.9,179.4,80.7,180.4,179.1h51.7C238.2,186.6,134.5,84.2,7.1,84.1z"/>
		<path fill="#660066" d="M312.9,297.6V193.5C278.1,107.2,207.3,38.9,119,7.1H22.4c-8.4,0-15.3,6.8-15.3,15.3v15
			c152.6,0.9,276.6,124,277.6,275.6h13C306.1,312.9,312.9,306.1,312.9,297.6z"/>
		<path fill="#660066" d="M272.6,49.8c14.5,14.4,28.6,31.7,40.4,47.8V22.4c0-8.4-6.8-15.3-15.3-15.3h-77.3
			C238.4,19.7,256.6,33.9,272.6,49.8z"/>
	</g>
</g>
</svg>
