<svg xmlns="http://www.w3.org/2000/svg" xmlns:xlink="http://www.w3.org/1999/xlink" viewBox="0 0 65 65" fill="#fff" fill-rule="evenodd" stroke="#000" stroke-linecap="round" stroke-linejoin="round"><use xlink:href="#a" x=".5" y=".5"/><symbol id="a" overflow="visible"><g stroke="none" fill-rule="nonzero"><path d="M0 32C0 14.272 14.272 0 32 0s32 14.272 32 32-14.272 32-32 32S0 49.728 0 32z"/><path d="M3.137 32A28.8 28.8 0 0132 3.137 28.8 28.8 0 0160.862 32 28.8 28.8 0 0132 60.862 28.8 28.8 0 013.137 32z" fill="#4a8cff"/><path d="M40.784 28.254l8.157-5.961c.712-.58 1.255-.445 1.255.627v18.177c0 1.205-.678 1.067-1.255.627l-8.157-5.961zm-27.608-5.289v13.553a5.55 5.55 0 005.575 5.522h19.765a1.01 1.01 0 001.013-1.004V27.483a5.55 5.55 0 00-5.575-5.522H14.189a1.01 1.01 0 00-1.013 1.004z"/></g></symbol></svg>