<svg xmlns="http://www.w3.org/2000/svg" xmlns:xlink="http://www.w3.org/1999/xlink" fill="#fff" fill-rule="evenodd" stroke="#000" stroke-linecap="round" stroke-linejoin="round" viewBox="0 0 65 65"><use xlink:href="#a" x=".5" y=".5"/><symbol id="a" overflow="visible"><g fill-rule="nonzero" stroke="none"><path d="M0 32C0 14.272 14.272 0 32 0s32 14.272 32 32-14.272 32-32 32S0 49.728 0 32"/><path fill="#4a8cff" d="M3.137 32A28.8 28.8 0 0 1 32 3.137 28.8 28.8 0 0 1 60.862 32 28.8 28.8 0 0 1 32 60.862 28.8 28.8 0 0 1 3.137 32"/><path d="m40.784 28.254 8.157-5.961c.712-.58 1.255-.445 1.255.627v18.177c0 1.205-.678 1.067-1.255.627l-8.157-5.961zm-27.608-5.289v13.553a5.55 5.55 0 0 0 5.575 5.522h19.765a1.01 1.01 0 0 0 1.013-1.004V27.483a5.55 5.55 0 0 0-5.575-5.522H14.189a1.01 1.01 0 0 0-1.013 1.004"/></g></symbol></svg>