<svg width="40" height="40" viewBox="0 0 40 40" fill="none" xmlns="http://www.w3.org/2000/svg">
<path d="M19.99 39.9749C14.6896 39.9736 9.60658 37.8677 5.85817 34.1203C2.10976 30.3728 0.00266268 25.2903 0 19.99C0.00133147 14.6887 2.10784 9.60495 5.85639 5.85639C9.60495 2.10784 14.6887 0.00133147 19.99 0L34.9774 0C36.3095 0 37.587 0.529165 38.5289 1.47109C39.4708 2.41301 40 3.69052 40 5.0226V19.99C39.9987 22.6162 39.48 25.2164 38.4736 27.6421C37.4673 30.0678 35.9929 32.2715 34.1347 34.1274C32.2766 35.9832 30.071 37.4548 27.644 38.4581C25.217 39.4615 22.6162 39.9769 19.99 39.9749Z" fill="#20A849"/>
<path d="M19.9649 9.995C18.8762 9.989 17.7972 10.199 16.7902 10.6129C15.7833 11.0267 14.8684 11.6362 14.0986 12.406C13.3288 13.1758 12.7193 14.0907 12.3055 15.0976C11.8916 16.1046 11.6816 17.1836 11.6876 18.2722V23.7971C11.6876 24.5315 11.979 25.236 12.4979 25.7558C13.0167 26.2756 13.7206 26.5683 14.4551 26.5696H16.7605V20.0904H13.5611V18.2722C13.5611 17.426 13.7277 16.5881 14.0516 15.8062C14.3754 15.0244 14.8501 14.314 15.4485 13.7157C16.0468 13.1173 16.7572 12.6426 17.539 12.3188C18.3209 11.9949 19.1588 11.8282 20.0051 11.8282C20.8513 11.8282 21.6892 11.9949 22.4711 12.3188C23.2529 12.6426 23.9633 13.1173 24.5616 13.7157C25.16 14.314 25.6347 15.0244 25.9585 15.8062C26.2824 16.5881 26.4491 17.426 26.449 18.2722V20.0904H23.2396V26.5545H25.3993V26.7002C25.3915 27.3558 25.1276 27.9823 24.664 28.446C24.2003 28.9096 23.5738 29.1735 22.9182 29.1813H20.4069C20.302 29.1826 20.2019 29.2249 20.1277 29.299C20.0536 29.3731 20.0114 29.4733 20.0101 29.5781C20.0114 29.683 20.0536 29.7831 20.1277 29.8573C20.2019 29.9314 20.302 29.9736 20.4069 29.9749H22.8177C23.2534 29.9762 23.6851 29.8914 24.0878 29.7253C24.4906 29.5592 24.8566 29.315 25.1647 29.0069C25.4728 28.6989 25.7169 28.3329 25.883 27.9301C26.0491 27.5273 26.134 27.0957 26.1326 26.66V26.4842C26.7184 26.3242 27.2358 25.9769 27.6058 25.4954C27.9758 25.0138 28.1781 24.4245 28.1818 23.8172V18.2923C28.1945 17.206 27.9912 16.1279 27.5837 15.1208C27.1762 14.1137 26.5728 13.1975 25.8083 12.4256C25.0438 11.6536 24.1336 11.0412 23.1304 10.624C22.1273 10.2067 21.0513 9.99293 19.9649 9.995Z" fill="white"/>
</svg>
