<svg xmlns="http://www.w3.org/2000/svg" width="48" height="48" fill="none"><defs><linearGradient id="a" x1=".762" x2=".33" y1="-.17" y2=".656"><stop offset=".18" stop-color="#0052CC"/><stop offset="1" stop-color="#2684FF"/></linearGradient></defs><path fill="#2684FF" fill-rule="evenodd" stroke="null" d="M1.721 3.873a1.47 1.47 0 0 1 1.129-.509l42.772.007a1.466 1.466 0 0 1 1.466 1.7l-6.222 38.193a1.466 1.466 0 0 1-1.465 1.231H9.555a1.99 1.99 0 0 1-1.95-1.663L1.386 5.064c-.07-.427.053-.863.336-1.191zm17.8 26.787h9.526l2.308-13.475H16.941z" clip-rule="evenodd"/><path fill="url(#a)" stroke="null" d="M44.418 18.437h-12.64l-2.12 12.383h-8.755L10.567 43.09c.327.283.745.44 1.178.444H39.18a1.35 1.35 0 0 0 1.347-1.132l3.892-23.965z"/></svg>