<?xml version="1.0" encoding="UTF-8" standalone="no"?> <svg width="48" height="48" viewBox="0 0 48 48" fill="none" xmlns="http://www.w3.org/2000/svg">
<path d="M0 24C0 10.7452 10.7452 0 24 0C37.2548 0 48 10.7452 48 24C48 37.2548 37.2548 48 24 48C10.7452 48 0 37.2548 0 24Z" fill="white"/>
<path fill-rule="evenodd" clip-rule="evenodd" d="M12.5473 13.9577C12.692 13.7899 12.9034 13.6946 13.125 13.6975L35.0138 13.7012C35.2353 13.6983 35.4468 13.7936 35.5915 13.9614C35.7362 14.1293 35.7992 14.3525 35.7638 14.5712L32.58 34.1162C32.5206 34.483 32.2015 34.751 31.83 34.7462H16.5563C16.0612 34.7421 15.6406 34.3832 15.5588 33.895L12.375 14.5675C12.3395 14.3487 12.4026 14.1255 12.5473 13.9577ZM21.6563 27.6662H26.5313L27.7125 20.77H20.3363L21.6563 27.6662Z" fill="#2684FF"/>
<path d="M34.7513 20.7699H27.7125L26.5313 27.6661H21.6563L15.9 34.4986C16.0824 34.6564 16.3151 34.7441 16.5563 34.7461H31.8338C32.2053 34.7509 32.5243 34.4829 32.5838 34.1161L34.7513 20.7699Z" fill="url(#paint0_linear)"/>
<defs>
<linearGradient id="paint0_linear" x1="30.256" y1="18.389" x2="22.1251" y2="29.9338" gradientUnits="userSpaceOnUse">
<stop offset="0.18" stop-color="#0052CC"/>
<stop offset="1" stop-color="#2684FF"/>
</linearGradient>
</defs>
</svg>
