<svg width="48.00000000000001" height="48.00000000000001" xmlns="http://www.w3.org/2000/svg" fill="none">
 <defs>
  <linearGradient y2="0.65568" x2="0.33022" y1="-0.17035" x1="0.76154" id="paint0_linear">
   <stop stop-color="#0052CC" offset="0.18"/>
   <stop stop-color="#2684FF" offset="1"/>
  </linearGradient>
 </defs>
 <g>
  <title>Layer 1</title>
  <path stroke="null" id="svg_2" fill="#2684FF" d="m1.72096,3.87271c0.28276,-0.32789 0.69585,-0.51412 1.12887,-0.50845l42.7725,0.00723c0.43283,-0.00567 0.84612,0.18056 1.12887,0.50845c0.28276,0.32809 0.40586,0.76424 0.33669,1.1916l-6.2214,38.19252c-0.11607,0.71676 -0.73962,1.24045 -1.46556,1.23107l-29.84606,0c-0.96747,-0.00801 -1.78935,-0.70933 -1.9492,-1.66331l-6.2214,-37.76751c-0.06937,-0.42755 0.05393,-0.8637 0.33669,-1.1916zm17.79973,26.78753l9.52615,0l2.30816,-13.47574l-14.4137,0l2.57939,13.47574z" clip-rule="evenodd" fill-rule="evenodd"/>
  <path stroke="null" id="svg_3" fill="url(#paint0_linear)" d="m44.41794,18.43657l-12.63956,0l-2.12108,12.3835l-8.75403,0l-10.33658,12.26911c0.32754,0.28336 0.74539,0.44084 1.17852,0.44444l27.43379,0c0.6671,0.00862 1.23993,-0.47263 1.34677,-1.13129l3.89218,-23.96575z"/>
 </g>
</svg>