<svg width="33" height="31" viewBox="0 0 33 31" fill="none" xmlns="http://www.w3.org/2000/svg">
<path fill-rule="evenodd" clip-rule="evenodd" d="M29.4867 6.90108L29.5259 6.96107L29.5648 7.02106L29.6031 7.08135L29.6414 7.14163L29.6794 7.20222L29.7171 7.2628L29.7545 7.32368L29.7916 7.38486L29.8281 7.44603L29.8646 7.50721L29.9008 7.56869L29.9367 7.63016L29.9724 7.69193L30.0077 7.7537L30.0427 7.81577L30.0775 7.87814L30.1119 7.9402L30.146 8.00287L30.1799 8.06553L30.2134 8.12819L30.2467 8.19115L30.2796 8.25411L30.3123 8.31736L30.3447 8.38062L30.3767 8.44388L30.4085 8.50743L30.44 8.57128L30.4714 8.63513L30.5023 8.69898L30.5329 8.76313L30.5632 8.82727L30.5931 8.89172L30.6228 8.95616L30.6522 9.02061L30.6813 9.08535L30.7101 9.15009L30.7386 9.21513L30.7668 9.28017L30.7947 9.3455L30.8223 9.41084L30.8496 9.47617L30.8764 9.5418L30.9031 9.60744L30.9295 9.67336L30.9556 9.73899L30.9814 9.80522L31.007 9.87115L31.0319 9.93738L31.0569 10.0039L31.0815 10.0704L31.1058 10.1369L31.1296 10.2035L31.1533 10.2703L31.1768 10.3371L31.1997 10.4042L31.2225 10.471L31.2448 10.5385L31.267 10.6056L31.2887 10.673L31.3104 10.7404L31.3315 10.8081L31.3525 10.8758L31.373 10.9435L31.3932 11.0112L31.4131 11.0793L31.433 11.1473L31.4523 11.2153L31.4713 11.2836L31.49 11.3519L31.5084 11.4202L31.5265 11.4888L31.5443 11.5574L31.5618 11.626L31.5791 11.6946L31.5957 11.7635L31.6123 11.8324L31.6286 11.9013L31.6444 11.9702L31.6601 12.0394L31.6752 12.1086L31.6904 12.1781L31.7049 12.2473L31.7192 12.3168L31.7334 12.3863L31.7471 12.4557L31.7605 12.5252L31.7735 12.595L31.7863 12.6648L31.7987 12.7346L31.8109 12.8044L31.8228 12.8745L31.8341 12.9446L31.8454 13.0147L31.856 13.0847L31.8667 13.1548L31.8768 13.2252L31.8869 13.2956L31.8964 13.366L31.9056 13.4364L31.9145 13.5067L31.9231 13.5774L31.9314 13.6481L31.9395 13.7185L31.9472 13.7892L31.9546 13.8599L31.9614 13.9308L31.9683 14.0018L31.9745 14.0725L31.9804 14.1435L31.9864 14.2144L31.9917 14.2854L31.9968 14.3564L32.0015 14.4277L32.006 14.4989L32.0101 14.5699L32.0137 14.6412L32.0172 14.7125L32.0202 14.7837L32.0232 14.855L32.0256 14.9263L32.0276 14.9979L32.0294 15.0691L32.0309 15.1407L32.0321 15.2123L32.033 15.2836L32.0336 15.3551V15.4276L32.0333 15.5271L32.0324 15.6272L32.0309 15.7269L32.0285 15.8267L32.0256 15.9265L32.0223 16.026L32.0181 16.1255L32.0134 16.2247L32.008 16.3239L32.0021 16.4228L31.9956 16.5214L31.9884 16.62L31.9804 16.7186L31.9721 16.8169L31.9629 16.9149L31.9534 17.0129L31.943 17.1106L31.9323 17.2083L31.9208 17.3057L31.9089 17.4031L31.8961 17.5002L31.8828 17.597L31.8691 17.6938L31.8546 17.7903L31.8394 17.8866L31.824 17.9828L31.8077 18.0787L31.7907 18.1743L31.7735 18.27L31.7554 18.3653L31.737 18.4606L31.7177 18.5557L31.6981 18.6504L31.6779 18.7448L31.6568 18.8393L31.6355 18.9334L31.6135 19.0273L31.5909 19.1208L31.5678 19.2144L31.544 19.3076L31.5197 19.4006L31.495 19.4935L31.4695 19.5859L31.4437 19.6782L31.4173 19.7703L31.3902 19.8624L31.3626 19.9541L31.3344 20.0453L31.3056 20.1365L31.2765 20.2276L31.2469 20.3182L31.2166 20.4085L31.1857 20.4988L31.1542 20.5888L31.1225 20.6785L31.0898 20.7678L31.0569 20.8569L31.0233 20.946L30.9895 21.0345L30.9547 21.123L30.9197 21.2109L30.8841 21.2988L30.8479 21.3864L30.8113 21.4738L30.7742 21.5608L30.7365 21.6478L30.6985 21.7342L30.6596 21.8203L30.6205 21.9065L30.581 21.992L30.5406 22.0772L30.4999 22.1624L30.4587 22.2474L30.4171 22.3317L30.3749 22.4161L30.3322 22.4998L30.2891 22.5836L30.2455 22.667L30.2013 22.7499L30.1567 22.8327L30.1116 22.915L30.0659 22.9972L30.0199 23.0789L29.9733 23.1603L29.9264 23.2417L29.8789 23.3224L29.8308 23.4032L29.7824 23.4834L29.7334 23.5633L29.6841 23.6429L29.6342 23.7222L29.5841 23.8012L29.5333 23.8799L29.4819 23.958L29.4303 24.0361L29.3783 24.1136L29.3258 24.1911L29.2726 24.268L29.2192 24.3446L29.1652 24.421L29.1108 24.497L29.0562 24.5724L29.001 24.6479L28.9452 24.7227L28.8891 24.7972L28.8327 24.8715L28.7757 24.9454L28.7181 25.0191L28.6602 25.0921L28.602 25.1649L28.5432 25.2374L28.4841 25.3095L28.4248 25.3811L28.3648 25.4527L28.3042 25.5236L28.2434 25.5943L28.1822 25.6644L28.1208 25.7345L28.0587 25.804L27.9961 25.8729L27.9334 25.9418L27.8699 26.0101L27.8064 26.0781L27.7422 26.1458L27.6778 26.2129L27.6131 26.2797L27.5478 26.3463L27.4822 26.4125L27.416 26.4781L27.3495 26.5435L27.2827 26.6082L27.2156 26.6726L27.1479 26.7368L27.0799 26.8003L27.0116 26.8636L26.9428 26.9266L26.8736 26.9892L26.8044 27.0513L26.7344 27.1128L26.6643 27.1739L26.5936 27.2348L26.5227 27.2954L26.4511 27.3554L26.3796 27.4148L26.3075 27.4739L26.235 27.5327L26.1623 27.5909L26.0892 27.6488L26.0156 27.7064L25.9417 27.7634L25.8675 27.8199L25.793 27.876L25.7182 27.9318L25.6427 27.9871L25.5673 28.0417L25.4913 28.0961L25.415 28.1501L25.3385 28.2036L25.2616 28.2567L25.1844 28.3093L25.1066 28.3613L25.0285 28.4132L24.9504 28.4643L24.8718 28.5151L24.7928 28.5653L24.7135 28.6152L24.634 28.6648L24.5541 28.7135L24.474 28.7619L24.3935 28.81L24.3125 28.8575L24.2311 28.9044L24.1498 28.9511L24.0681 28.9971L23.9859 29.0428L23.9037 29.088L23.8208 29.1325L23.738 29.1768L23.6546 29.2204L23.5709 29.2635L23.4871 29.3062L23.4028 29.3484L23.3185 29.39L23.2336 29.4313L23.1484 29.472L23.0632 29.5123L22.9777 29.5518L22.8916 29.591L22.8055 29.6299L22.7191 29.668L22.6324 29.7057L22.5452 29.7428L22.4579 29.7793L22.3706 29.8156L22.2824 29.8512L22.1945 29.8862L22.1061 29.921L22.0176 29.9548L21.9285 29.9884L21.8395 30.0214L21.7501 30.054L21.6605 30.0858L21.5705 30.1173L21.4803 30.1482L21.39 30.1785L21.2992 30.2082L21.2083 30.2373L21.1172 30.2661L21.026 30.2943L20.9343 30.3219L20.8426 30.3489L20.7502 30.3754L20.6579 30.4012L20.5656 30.4267L20.4727 30.4514L20.3797 30.4757L20.2865 30.4995L20.193 30.5227L20.0995 30.5452L20.0057 30.5672L19.9116 30.5886L19.8172 30.6097L19.7228 30.6299L19.6281 30.6495L19.5331 30.6688L19.4378 30.6872L19.3425 30.7053L19.2469 30.7225L19.1513 30.7394L19.0554 30.7558L18.9592 30.7712L18.863 30.7864L18.7665 30.8009L18.6697 30.8146L18.573 30.8279L18.4759 30.8407L18.3785 30.8526L18.2811 30.8642L18.1835 30.8752L18.0858 30.8853L17.9878 30.8948L17.8899 30.904L17.7916 30.9123L17.693 30.9203L17.5945 30.9274L17.4959 30.934L17.397 30.9399L17.2979 30.9453L17.1987 30.95L17.0993 30.9542L16.9998 30.9577L16.9004 30.9604L16.8003 30.9628L16.7006 30.9643L16.6005 30.9652L16.5002 30.9654L16.4001 30.9652L16.3001 30.9643L16.2 30.9628L16.1003 30.9604L16.0005 30.9577L15.9011 30.9542L15.8016 30.95L15.7025 30.9453L15.6036 30.9399L15.5045 30.934L15.4059 30.9274L15.3073 30.9203L15.2088 30.9123L15.1105 30.904L15.0125 30.8948L14.9146 30.8853L14.8169 30.8752L14.7192 30.8642L14.6219 30.8526L14.5248 30.8407L14.4277 30.8279L14.3309 30.8146L14.2341 30.8009L14.1377 30.7864L14.0412 30.7712L13.9453 30.7558L13.8494 30.7394L13.7535 30.7225L13.6579 30.7053L13.5626 30.6872L13.4676 30.6688L13.3726 30.6495L13.2779 30.6299L13.1835 30.6097L13.0891 30.5886L12.995 30.5672L12.9012 30.5452L12.8074 30.5227L12.7138 30.4995L12.6209 30.4757L12.5277 30.4514L12.4351 30.4267L12.3425 30.4012L12.2501 30.3754L12.1581 30.3489L12.0664 30.3219L11.9746 30.2943L11.8832 30.2661L11.792 30.2373L11.7012 30.2082L11.6107 30.1785L11.5201 30.1482L11.4299 30.1173L11.3402 30.0858L11.2505 30.054L11.1609 30.0214L11.0718 29.9884L10.9831 29.9548L10.8943 29.921L10.8061 29.8862L10.718 29.8512L10.6301 29.8156L10.5425 29.7793L10.4552 29.7428L10.3682 29.7057L10.2815 29.668L10.1952 29.6299L10.1088 29.591L10.023 29.5518L9.93717 29.5123L9.85197 29.472L9.76706 29.4313L9.68215 29.39L9.59755 29.3484L9.51353 29.3062L9.42951 29.2635L9.34609 29.2204L9.26267 29.1768L9.17955 29.1325L9.09702 29.088L9.01448 29.0428L8.93255 28.9971L8.85061 28.9511L8.76927 28.9044L8.68792 28.8575L8.60717 28.81L8.52672 28.7619L8.44656 28.7135L8.3667 28.6648L8.28684 28.6152L8.20758 28.5653L8.12861 28.5151L8.05023 28.4643L7.97186 28.4132L7.89378 28.3613L7.8163 28.3093L7.73911 28.2567L7.66222 28.2036L7.58533 28.1501L7.50903 28.0961L7.43303 28.0417L7.35762 27.9871L7.28251 27.9318L7.20741 27.876L7.13289 27.8199L7.05867 27.7634L6.98475 27.7064L6.91142 27.6488L6.83809 27.5909L6.76536 27.5327L6.69292 27.4739L6.62078 27.4148L6.54923 27.3554L6.47798 27.2954L6.40673 27.2348L6.33637 27.1739L6.26601 27.1128L6.19625 27.0513L6.12678 26.9892L6.05761 26.9266L5.98873 26.8636L5.92045 26.8003L5.85247 26.7368L5.78508 26.6726L5.71769 26.6082L5.65089 26.5435L5.58439 26.4781L5.51848 26.4125L5.45287 26.3463L5.38756 26.2797L5.32255 26.2129L5.25812 26.1458L5.194 26.0781L5.13047 26.0101L5.06723 25.9418L5.0043 25.8729L4.94195 25.804L4.87991 25.7342L4.81816 25.6644L4.757 25.5943L4.69614 25.5236L4.63587 25.4527L4.57591 25.3811L4.51623 25.3095L4.45716 25.2374L4.39837 25.1649L4.34019 25.0921L4.2823 25.0191L4.225 24.9454L4.168 24.8715L4.1113 24.7972L4.05519 24.7227L3.99967 24.6479L3.94445 24.5724L3.88953 24.497L3.8352 24.421L3.78117 24.3446L3.72773 24.268L3.67489 24.1911L3.62205 24.1136L3.57009 24.0361L3.51844 23.958L3.46708 23.8799L3.41631 23.8012L3.36614 23.7222L3.31627 23.6429L3.26698 23.5633L3.218 23.4834L3.16961 23.4032L3.12152 23.3224L3.07431 23.2417L3.02711 23.1606L2.9805 23.0789L2.93448 22.9972L2.88906 22.915L2.84394 22.8327L2.79911 22.7499L2.75517 22.6667L2.71153 22.5836L2.66819 22.4998L2.62544 22.4161L2.58328 22.3317L2.54172 22.2474L2.50045 22.1624L2.45978 22.0772L2.4197 21.992L2.37992 21.9065L2.34073 21.8203L2.30214 21.7342L2.26384 21.6478L2.22614 21.5608L2.18903 21.4738L2.15252 21.3864L2.1163 21.2988L2.08067 21.2112L2.04564 21.123L2.0112 21.0345L1.97706 20.946L1.94352 20.8569L1.91056 20.7678L1.8782 20.6785L1.84614 20.5888L1.81497 20.4988L1.78409 20.4085L1.75381 20.3182L1.72383 20.2276L1.69473 20.1365L1.66594 20.0453L1.63803 19.9541L1.61042 19.8624L1.58341 19.7706L1.55669 19.6782L1.53086 19.5859L1.50562 19.4935L1.48069 19.4006L1.45634 19.3076L1.43259 19.2144L1.40944 19.1208L1.38687 19.0273L1.36491 18.9334L1.34353 18.8393L1.32275 18.7448L1.30256 18.6504L1.28267 18.5554L1.26367 18.4606L1.24497 18.3653L1.22716 18.27L1.20964 18.1743L1.19272 18.0787L1.17669 17.9828L1.16095 17.8866L1.14581 17.7903L1.13156 17.6938L1.11761 17.597L1.10425 17.5002L1.09178 17.4031L1.07961 17.3057L1.06803 17.2083L1.05734 17.1106L1.04695 17.0129L1.03745 16.9149L1.02825 16.8169L1.01994 16.7186L1.01222 16.62L1.00509 16.5214L0.998266 16.4228L0.992328 16.3239L0.986984 16.2247L0.982234 16.1255L0.978375 16.026L0.974812 15.9265L0.971844 15.8267L0.969766 15.7269L0.968281 15.6272L0.967094 15.5271L0.966797 15.427L0.967094 15.3364L0.967984 15.2464L0.969172 15.1565L0.970953 15.0665L0.973328 14.9768L0.976 14.8871L0.979563 14.7974L0.983422 14.708L0.987578 14.6186L0.992625 14.5295L0.997969 14.4404L1.00361 14.3513L1.01014 14.2626L1.01697 14.1738L1.02439 14.085L1.03211 13.9965L1.04072 13.908L1.04933 13.8198L1.05883 13.7316L1.06862 13.6437L1.07902 13.5557L1.0897 13.4681L1.10098 13.3805L1.11286 13.2929L1.12533 13.2056L1.13809 13.1186L1.15116 13.0316L1.16511 12.9446L1.17936 12.8579L1.19391 12.7711L1.20905 12.6847L1.22478 12.5986L1.24081 12.5122L1.25744 12.4263L1.27466 12.3405L1.29217 12.2547L1.31028 12.1692L1.32869 12.0839L1.34769 11.9987L1.36698 11.9138L1.38717 11.8288L1.40736 11.7442L1.42814 11.6595L1.44952 11.5752L1.47119 11.4912L1.49345 11.4071L1.51602 11.3234L1.53917 11.2396L1.56292 11.1562L1.58697 11.073L1.61131 10.9899L1.63625 10.907L1.66178 10.8242L1.68761 10.7416L1.71373 10.6593L1.74045 10.5774L1.76777 10.4951L1.79537 10.4134L1.82328 10.3321L1.85178 10.2507L1.88087 10.1693L1.91027 10.0885L1.93995 10.0078L1.97023 9.92698L2.00081 9.8468L2.03198 9.76661L2.06345 9.68673L2.09552 9.60684L2.12787 9.52725L2.16083 9.44796L2.19408 9.36896L2.22762 9.28997L2.26177 9.21156L2.2962 9.13286L2.33123 9.05476L2.36656 8.97666L2.40219 8.89914L2.43841 8.82133L2.47492 8.74412L2.51203 8.66691L2.54944 8.59029L2.58744 8.51367L2.62544 8.43705L2.66433 8.36102L2.70322 8.28499L2.7427 8.20956L2.78248 8.13383L2.82286 8.0587L2.86353 7.98386L2.9045 7.90902L2.94606 7.83448L2.98792 7.76053L3.03008 7.68658L3.07283 7.61264L3.11587 7.53928L3.15922 7.46593L3.20316 7.39317L3.24739 7.32041L3.29192 7.24795L3.33705 7.17578L3.38247 7.10362L3.42819 7.03205L3.4742 6.96077L3.52081 6.8895L3.56772 6.81852L3.61492 6.74814L3.66272 6.67775L3.71081 6.60767L3.7592 6.53788L3.80789 6.46838L3.85717 6.39919L3.90645 6.32999L3.95662 6.26139L4.0068 6.19309L4.05756 6.12478L4.10833 6.05707L4.15969 5.98936L4.21164 5.92224L4.26359 5.85513L4.31614 5.7886L4.36898 5.72208L4.42212 5.65585L4.47556 5.59022L4.52959 5.52459L4.58362 5.45926L4.63825 5.39451L4.69317 5.32977L4.74839 5.26533L4.8042 5.20148L4.86002 5.13763L4.91642 5.07408L4.97312 5.01112L5.03012 4.94816L5.08742 4.88579L5.14531 4.82343L5.2032 4.76166L5.26169 4.70018L5.32047 4.63871L5.37955 4.57783L5.43892 4.51724L5.49859 4.45696L5.55856 4.39697L5.61912 4.33728L5.67969 4.27788L5.74084 4.21908L5.8023 4.16028L5.86405 4.10177L5.92609 4.04386L5.98844 3.98625L6.05108 3.92893L6.11402 3.87191L6.17725 3.81519L6.24108 3.75876L6.30491 3.70263L6.36933 3.6471L6.43375 3.59186L6.49876 3.53692L6.56378 3.48228L6.62939 3.42793L6.6953 3.37388L6.7615 3.32042L6.8277 3.26697L6.8945 3.21411L6.96159 3.16154L7.02898 3.10957L7.09667 3.0576L7.16466 3.00622L7.23294 2.95514L7.30152 2.90436L7.37039 2.85387L7.43926 2.80398L7.50873 2.75439L7.5785 2.70509L7.64856 2.65609L7.71892 2.60768L7.78958 2.55927L7.86053 2.51146L7.93148 2.46424L8.00303 2.41702L8.07487 2.37039L8.14672 2.32407L8.21916 2.27833L8.29189 2.23289L8.36462 2.18775L8.43766 2.14291L8.51128 2.09866L8.58491 2.05471L8.65883 2.01105L8.73305 1.96799L8.80756 1.92523L8.88237 1.88276L8.95748 1.84059L9.03289 1.79901L9.1083 1.75803L9.1843 1.71704L9.2603 1.67666L9.33659 1.63686L9.41319 1.59707L9.49008 1.55816L9.56726 1.51926L9.64475 1.48095L9.72223 1.44293L9.80031 1.40552L9.87839 1.36839L9.95676 1.33187L10.0354 1.29534L10.1144 1.2597L10.1934 1.22406L10.2729 1.18932L10.3525 1.15457L10.4324 1.12042L10.5125 1.08686L10.5927 1.0536L10.6734 1.02063L10.7542 0.988262L10.8352 0.956189L10.9166 0.924709L10.9979 0.893526L11.0798 0.862938L11.1618 0.832646L11.244 0.802948L11.3262 0.773547L11.4091 0.744741L11.4919 0.716231L11.575 0.688315L11.6582 0.660696L11.7419 0.633671L11.8256 0.606943L11.9096 0.580809L11.9936 0.554972L12.0782 0.529729L12.1628 0.50508L12.2475 0.480728L12.3327 0.456673L12.4179 0.433508L12.5031 0.410344L12.5889 0.388071L12.6747 0.365798L12.7607 0.344415L12.8468 0.32333L12.9332 0.302838L13.0199 0.282644L13.1066 0.263044L13.1936 0.24374L13.2809 0.225031L13.3682 0.206915L13.4557 0.189096L13.5436 0.171871L13.6315 0.155241L13.7197 0.138907L13.8081 0.123167L13.8966 0.107724L13.9851 0.0931725L14.0738 0.0786207L14.1629 0.0649597L14.2475 0.0521896L14.3781 0.0382317L14.5096 0.034668L14.6409 0.0414985L14.7712 0.0590202L14.8997 0.087233L15.0256 0.125246L15.1479 0.173653L15.2661 0.231564L15.3789 0.298681L15.4864 0.375004L15.587 0.459346L15.6805 0.551706L15.7666 0.65149L15.8441 0.757511L15.913 0.869471L15.9726 0.986777L16.0225 1.10854L16.0626 1.23386L16.0923 1.36186L16.1119 1.49194L16.1208 1.6232L16.119 1.75476L16.1065 1.88573L16.084 2.01521L16.0507 2.14261L16.0074 2.26675L15.9545 2.38732L15.8919 2.50285L15.82 2.61302L15.7396 2.71726L15.6511 2.81467L15.5552 2.90436L15.4522 2.98633L15.343 3.05968L15.2284 3.12383L15.1087 3.17877L14.9852 3.22361L14.8585 3.25865L14.7293 3.2833L14.6542 3.29459L14.5836 3.30558L14.5132 3.31686L14.4428 3.32844L14.3731 3.34062L14.303 3.35309L14.2332 3.36586L14.1638 3.37923L14.0943 3.39289L14.0251 3.40685L13.956 3.4214L13.8871 3.43595L13.8182 3.45139L13.7496 3.46683L13.6811 3.48257L13.6128 3.49891L13.5445 3.51554L13.4768 3.53276L13.4088 3.54999L13.3411 3.56781L13.2737 3.58592L13.2064 3.60434L13.1393 3.62334L13.0725 3.64235L13.0057 3.66195L12.9389 3.68214L12.8727 3.70234L12.8062 3.72283L12.7403 3.74391L12.6744 3.7653L12.6085 3.78727L12.5428 3.80925L12.4775 3.83152L12.4122 3.85439L12.3472 3.87755L12.2825 3.90102L12.2178 3.92477L12.1533 3.94913L12.0889 3.97377L12.0248 3.99842L11.961 4.02367L11.8971 4.04921L11.8336 4.07534L11.7704 4.10148L11.7071 4.1282L11.6442 4.15493L11.5813 4.18225L11.5186 4.20987L11.4563 4.23779L11.3939 4.266L11.3319 4.29481L11.2701 4.32361L11.2084 4.35301L11.1469 4.38242L11.0858 4.41241L11.0246 4.4427L10.9638 4.47329L10.9032 4.50418L10.8429 4.53536L10.7827 4.56684L10.7227 4.59862L10.6627 4.63099L10.6031 4.66336L10.5437 4.69632L10.4846 4.72929L10.4255 4.76284L10.3667 4.7964L10.308 4.83055L10.2498 4.865L10.1916 4.89975L10.1337 4.93479L10.0758 4.97013L10.0185 5.00547L9.96122 5.04141L9.90392 5.07764L9.84722 5.11417L9.79051 5.15099L9.73411 5.18811L9.678 5.22553L9.62189 5.26325L9.56608 5.30156L9.51056 5.33987L9.45534 5.37848L9.40042 5.41738L9.3455 5.45658L9.29087 5.49608L9.23655 5.53588L9.18252 5.57597L9.12848 5.61606L9.07475 5.65675L9.02131 5.69773L8.96817 5.73901L8.91503 5.78058L8.86248 5.82216L8.80994 5.86433L8.75769 5.9068L8.70573 5.94927L8.65408 5.99203L8.60242 6.03539L8.55106 6.07875L8.5 6.12241L8.44923 6.16636L8.39877 6.2109L8.34859 6.25515L8.29842 6.3L8.24884 6.34514L8.19926 6.39058L8.14998 6.43601L8.1007 6.48205L8.05202 6.52808L8.00362 6.57441L7.95523 6.62103L7.90744 6.66795L7.85964 6.71517L7.81214 6.76269L7.76494 6.81021L7.71803 6.85802L7.67112 6.90643L7.62481 6.95483L7.5788 7.00354L7.53278 7.05224L7.48706 7.10154L7.44194 7.15084L7.39681 7.20043L7.35198 7.25062L7.30745 7.30051L7.26322 7.351L7.21898 7.40178L7.17534 7.45257L7.132 7.50365L7.08895 7.55502L7.04591 7.6064L7.00345 7.65837L6.961 7.71034L6.91914 7.76261L6.87728 7.81518L6.83572 7.86774L6.79475 7.9209L6.75378 7.97406L6.71311 8.02752L6.67273 8.08127L6.63266 8.13502L6.59317 8.18907L6.55369 8.24342L6.5145 8.29776L6.47561 8.35241L6.43701 8.40765L6.39872 8.46259L6.36072 8.51812L6.32302 8.57366L6.28561 8.62949L6.2488 8.68532L6.21198 8.74175L6.17547 8.79817L6.13925 8.8546L6.10333 8.91162L6.068 8.96864L6.03267 9.02595L5.99764 9.08327L5.9632 9.14088L5.92877 9.19879L5.89462 9.25671L5.86108 9.31521L5.82753 9.37342L5.79458 9.43222L5.76192 9.49102L5.72927 9.54982L5.6972 9.60922L5.66544 9.66861L5.63397 9.72801L5.6028 9.788L5.57192 9.84799L5.54134 9.90798L5.51136 9.96826L5.48137 10.0288L5.45198 10.0894L5.42259 10.1503L5.3938 10.2115L5.3653 10.2727L5.33709 10.3338L5.30919 10.3956L5.28158 10.4574L5.25427 10.5192L5.22725 10.5812L5.20083 10.6436L5.17441 10.706L5.14858 10.7686L5.12305 10.8313L5.09781 10.8942L5.07287 10.9572L5.04853 11.0205L5.02419 11.084L5.00044 11.1476L4.97698 11.2111L4.95383 11.275L4.93097 11.3391L4.90841 11.4033L4.88614 11.4677L4.86447 11.5321L4.84309 11.5969L4.82202 11.6616L4.80123 11.7267L4.78075 11.7917L4.76086 11.8567L4.74127 11.9224L4.72197 11.9877L4.70297 12.0536L4.68427 12.1193L4.66616 12.1852L4.64805 12.2514L4.63053 12.3176L4.61361 12.3842L4.59669 12.4507L4.58036 12.5172L4.56433 12.584L4.54859 12.6509L4.53316 12.718L4.51831 12.7854L4.50377 12.8525L4.48952 12.9199L4.47556 12.9876L4.4622 13.0553L4.44884 13.1231L4.43637 13.1911L4.42391 13.2594L4.41173 13.3274L4.40016 13.3957L4.38917 13.4643L4.37819 13.5329L4.3678 13.6015L4.3577 13.6704L4.34791 13.7393L4.3387 13.8085L4.3298 13.8777L4.32119 13.9469L4.31287 14.0164L4.30516 14.0859L4.29773 14.1553L4.29091 14.2251L4.28408 14.2949L4.27784 14.365L4.2722 14.4351L4.26686 14.5052L4.26181 14.5756L4.25706 14.646L4.25291 14.7163L4.24905 14.787L4.24548 14.8577L4.24252 14.9284L4.23984 14.9994L4.23747 15.0703L4.23569 15.1413L4.2342 15.2126L4.23331 15.2839L4.23272 15.3554L4.23242 15.4264L4.23272 15.5063L4.23361 15.5856L4.2348 15.6649L4.23658 15.7439L4.23866 15.8229L4.24162 15.9019L4.24489 15.9806L4.24845 16.059L4.25261 16.1374L4.25736 16.2158L4.2627 16.2939L4.26834 16.372L4.27458 16.4498L4.28111 16.5276L4.28823 16.6051L4.29595 16.6823L4.30397 16.7595L4.31258 16.8368L4.32178 16.9137L4.33128 16.9906L4.34108 17.0672L4.35177 17.1438L4.36275 17.2202L4.37403 17.2962L4.38591 17.3722L4.39808 17.4482L4.41114 17.524L4.4242 17.5994L4.43786 17.6748L4.45211 17.75L4.46695 17.8251L4.4818 17.8999L4.49753 17.9748L4.51356 18.0493L4.52989 18.1236L4.54681 18.1978L4.56403 18.2717L4.58184 18.3457L4.60025 18.4193L4.61895 18.4927L4.63795 18.5661L4.65755 18.6394L4.67744 18.7122L4.69792 18.7852L4.719 18.8577L4.74008 18.9301L4.76205 19.0023L4.78402 19.0745L4.80658 19.1463L4.82973 19.2179L4.85319 19.2895L4.87723 19.3608L4.90128 19.4317L4.92622 19.5027L4.95116 19.5734L4.97698 19.6438L5.00281 19.7142L5.02923 19.7843L5.05625 19.854L5.08327 19.9238L5.11087 19.9933L5.13908 20.0625L5.16758 20.1317L5.19637 20.2006L5.22577 20.2692L5.25545 20.3375L5.28544 20.4058L5.31602 20.4738L5.34689 20.5415L5.37836 20.6093L5.41012 20.6767L5.44219 20.7438L5.47455 20.8106L5.5075 20.8774L5.54075 20.9437L5.57459 21.0099L5.60844 21.0761L5.64287 21.1417L5.67791 21.2074L5.71294 21.2727L5.74856 21.3377L5.78478 21.4025L5.821 21.4672L5.85781 21.5314L5.89492 21.5955L5.93233 21.6594L5.97033 21.7232L6.00863 21.7865L6.04722 21.8497L6.08611 21.9124L6.12559 21.9751L6.16537 22.0374L6.20545 22.0998L6.24583 22.1616L6.2868 22.223L6.32776 22.2845L6.36933 22.3457L6.41119 22.4066L6.45364 22.4671L6.49609 22.5274L6.53914 22.5874L6.58248 22.6471L6.62612 22.7068L6.67036 22.7659L6.71459 22.825L6.75942 22.8835L6.80425 22.942L6.84967 23.0002L6.89569 23.0581L6.9417 23.1157L6.98802 23.1728L7.03492 23.2301L7.08183 23.2868L7.12933 23.3432L7.17712 23.3994L7.22522 23.4552L7.27361 23.5107L7.3223 23.566L7.37158 23.6209L7.42086 23.6758L7.47073 23.7302L7.52061 23.7842L7.57108 23.838L7.62155 23.8914L7.67261 23.9446L7.72397 23.9975L7.77562 24.05L7.82758 24.1023L7.87983 24.1543L7.93237 24.2059L7.98522 24.2573L8.03836 24.3084L8.0918 24.3592L8.14583 24.4094L8.19986 24.4596L8.25419 24.5092L8.30881 24.5588L8.36373 24.6078L8.41895 24.6565L8.47477 24.7049L8.53058 24.7533L8.58669 24.8008L8.64309 24.8483L8.6998 24.8955L8.7568 24.9422L8.81409 24.9888L8.87169 25.0348L8.92958 25.0805L8.98747 25.126L9.04595 25.1711L9.10473 25.2157L9.16352 25.2602L9.22289 25.3042L9.28226 25.3478L9.34223 25.3912L9.4022 25.4342L9.46247 25.4767L9.52303 25.5192L9.58389 25.5611L9.64475 25.6026L9.7062 25.6439L9.76766 25.6846L9.8297 25.7253L9.89175 25.7654L9.95409 25.8052L10.0167 25.8444L10.0797 25.8833L10.1426 25.9222L10.2061 25.9602L10.2697 25.9982L10.3335 26.0356L10.3976 26.0727L10.462 26.1096L10.5265 26.1461L10.5915 26.182L10.6565 26.2177L10.7218 26.253L10.7871 26.2878L10.853 26.3222L10.9189 26.3564L10.9851 26.3899L11.0516 26.4235L11.1184 26.4561L11.1852 26.4888L11.2523 26.5209L11.3197 26.5527L11.3871 26.5838L11.4551 26.6147L11.5228 26.6453L11.5911 26.6753L11.6596 26.7053L11.7282 26.7344L11.7971 26.7632L11.866 26.7917L11.9351 26.8199L12.0049 26.8476L12.0744 26.8749L12.1441 26.9016L12.2142 26.928L12.2846 26.9542L12.3552 26.9797L12.4259 27.005L12.4968 27.0296L12.5678 27.054L12.639 27.0777L12.7103 27.1012L12.7821 27.1243L12.854 27.1469L12.9258 27.1692L12.998 27.1909L13.0707 27.2122L13.1431 27.233L13.2159 27.2535L13.2889 27.2734L13.3619 27.293L13.4352 27.3123L13.5086 27.331L13.5822 27.3492L13.6561 27.367L13.7303 27.3845L13.8046 27.4011L13.8788 27.4178L13.9533 27.4338L14.0281 27.4492L14.1029 27.4644L14.1777 27.4789L14.2531 27.4932L14.3282 27.5068L14.404 27.5202L14.4797 27.533L14.5554 27.5452L14.6314 27.557L14.7077 27.5686L14.784 27.5796L14.8602 27.59L14.9368 27.6001L15.0137 27.6096L15.0906 27.6185L15.1678 27.6271L15.245 27.6351L15.3225 27.6429L15.4 27.65L15.4777 27.6568L15.5552 27.6628L15.6333 27.6687L15.7117 27.6738L15.7898 27.6785L15.8681 27.6827L15.9468 27.6865L16.0252 27.6898L16.1042 27.6925L16.1831 27.6948L16.2621 27.6966L16.3414 27.6978L16.4209 27.6984L16.5002 27.6987L16.5797 27.6984L16.659 27.6978L16.7383 27.6966L16.8172 27.6948L16.8962 27.6925L16.9752 27.6898L17.0539 27.6865L17.1322 27.6827L17.2109 27.6785L17.289 27.6738L17.3671 27.6687L17.4451 27.6628L17.5229 27.6568L17.6004 27.65L17.6782 27.6429L17.7554 27.6351L17.8329 27.6271L17.9097 27.6185L17.9866 27.6096L18.0635 27.6001L18.1401 27.59L18.2167 27.5796L18.293 27.5686L18.369 27.557L18.445 27.5452L18.521 27.533L18.5967 27.5202L18.6721 27.5068L18.7475 27.4932L18.8226 27.4789L18.8977 27.4644L18.9726 27.4492L19.0471 27.4338L19.1219 27.4178L19.1961 27.4011L19.2703 27.3842L19.3442 27.367L19.4182 27.3492L19.4918 27.331L19.5654 27.3123L19.6385 27.293L19.7118 27.2734L19.7848 27.2535L19.8572 27.233L19.93 27.2122L20.0024 27.1909L20.0746 27.1692L20.1467 27.1469L20.2185 27.1243L20.2901 27.1012L20.3616 27.0777L20.4329 27.054L20.5038 27.0296L20.5748 27.005L20.6455 26.9797L20.7158 26.9542L20.7862 26.928L20.8562 26.9016L20.926 26.8749L20.9958 26.8476L21.0652 26.8199L21.1344 26.7917L21.2036 26.7632L21.2725 26.7344L21.341 26.7053L21.4093 26.6753L21.4776 26.6453L21.5456 26.6147L21.6133 26.5838L21.681 26.5527L21.7483 26.5209L21.8154 26.4888L21.8822 26.4561L21.9487 26.4235L22.0152 26.3899L22.0814 26.3564L22.1476 26.3222L22.2132 26.2878L22.2789 26.253L22.3442 26.2177L22.4092 26.182L22.4739 26.1461L22.5386 26.1096L22.6027 26.0727L22.6669 26.0356L22.7307 25.9982L22.7945 25.9602L22.8578 25.9222L22.921 25.8833L22.9836 25.8444L23.0463 25.8052L23.1086 25.7654L23.1707 25.7253L23.2327 25.6846L23.2942 25.6439L23.3556 25.6026L23.4168 25.5611L23.4776 25.5192L23.5382 25.4767L23.5985 25.4342L23.6584 25.3912L23.7181 25.3478L23.7778 25.3042L23.8369 25.2602L23.8959 25.2157L23.9544 25.1711L24.0129 25.126L24.0711 25.0805L24.129 25.0348L24.1866 24.9888L24.2436 24.9422L24.3006 24.8955L24.3576 24.8483L24.414 24.8008L24.4701 24.7533L24.5259 24.7049L24.5814 24.6565L24.6366 24.6078L24.6919 24.5588L24.7465 24.5092L24.8008 24.4596L24.8548 24.4094L24.9086 24.3592L24.962 24.3084L25.0152 24.2573L25.068 24.2059L25.1205 24.1543L25.1728 24.1023L25.2247 24.05L25.2764 23.9975L25.3278 23.9446L25.3788 23.8914L25.4296 23.838L25.4798 23.7842L25.5299 23.7302L25.5795 23.6758L25.6291 23.6209L25.6781 23.566L25.7268 23.5107L25.7752 23.4552L25.8232 23.3994L25.871 23.3432L25.9185 23.2868L25.9657 23.2301L26.0124 23.1728L26.059 23.1157L26.105 23.0581L26.1507 23.0002L26.1961 22.942L26.2412 22.8835L26.2858 22.825L26.3303 22.7659L26.3742 22.7068L26.4179 22.6471L26.4612 22.5874L26.5043 22.5274L26.5467 22.4671L26.5892 22.4066L26.631 22.3457L26.6726 22.2845L26.7139 22.223L26.7545 22.1616L26.7952 22.0998L26.8353 22.0374L26.8751 21.9751L26.9143 21.9124L26.9532 21.8497L26.992 21.7865L27.03 21.7232L27.068 21.6594L27.1054 21.5955L27.1426 21.5314L27.1794 21.4672L27.2159 21.4025L27.2518 21.3377L27.2874 21.2727L27.3228 21.2074L27.3575 21.1417L27.3919 21.0761L27.4261 21.0099L27.4596 20.9437L27.4929 20.8774L27.5258 20.8106L27.5585 20.7438L27.5905 20.6767L27.6223 20.6093L27.6535 20.5415L27.6844 20.4738L27.7149 20.4058L27.7449 20.3375L27.7746 20.2692L27.804 20.2006L27.8328 20.1317L27.8613 20.0625L27.8895 19.9933L27.9171 19.9238L27.9444 19.854L27.9711 19.7843L27.9976 19.7142L28.0237 19.6438L28.0492 19.5734L28.0744 19.5027L28.0991 19.4317L28.1234 19.3608L28.1472 19.2895L28.1706 19.2179L28.1938 19.1463L28.2164 19.0745L28.2386 19.0023L28.2603 18.9301L28.2817 18.8577L28.3024 18.7852L28.3229 18.7122L28.3428 18.6394L28.3624 18.5661L28.3817 18.493L28.4004 18.4193L28.4185 18.3457L28.4363 18.2717L28.4536 18.1978L28.4705 18.1236L28.4871 18.0493L28.5031 17.9748L28.5186 17.8999L28.5337 17.8251L28.5483 17.75L28.5625 17.6748L28.5762 17.5994L28.5895 17.524L28.6023 17.4482L28.6145 17.3722L28.6263 17.2962L28.6379 17.2202L28.6489 17.1438L28.6593 17.0672L28.6694 16.9906L28.6789 16.9137L28.6878 16.8368L28.6964 16.7598L28.7044 16.6823L28.7121 16.6051L28.7193 16.5273L28.7261 16.4498L28.732 16.372L28.738 16.2939L28.743 16.2158L28.7478 16.1374L28.7519 16.059L28.7558 15.9806L28.759 15.9019L28.7617 15.8229L28.7641 15.7439L28.7656 15.6649L28.7671 15.5856L28.7677 15.5063L28.768 15.4261V15.3703L28.7674 15.3139L28.7668 15.2571L28.7659 15.201L28.7647 15.1443L28.7632 15.0879L28.7617 15.0317L28.7596 14.9753L28.7576 14.9189L28.7549 14.8624L28.7522 14.8063L28.7492 14.7502L28.746 14.6938L28.7427 14.6376L28.7389 14.5815L28.735 14.5254L28.7305 14.4692L28.7261 14.4131L28.7213 14.3573L28.7163 14.3012L28.711 14.2453L28.7056 14.1895L28.6997 14.1337L28.6937 14.0775L28.6872 14.022L28.6807 13.9662L28.6738 13.9103L28.667 13.8548L28.6596 13.7993L28.6522 13.7437L28.6442 13.6879L28.6361 13.6327L28.6278 13.5771L28.6192 13.5216L28.6103 13.4664L28.6014 13.4111L28.5919 13.3559L28.5824 13.3006L28.5726 13.2454L28.5625 13.1905L28.5521 13.1352L28.5417 13.0803L28.5307 13.0253L28.5198 12.9704L28.5085 12.9158L28.4969 12.8608L28.485 12.8062L28.4729 12.7515L28.4607 12.6969L28.4482 12.6425L28.4352 12.5879L28.4221 12.5336L28.4087 12.4792L28.3954 12.4249L28.3814 12.3708L28.3675 12.3168L28.3532 12.2627L28.3387 12.2087L28.3238 12.1546L28.3087 12.1009L28.2935 12.0468L28.2781 11.9934L28.2624 11.9396L28.2463 11.8858L28.23 11.8324L28.2134 11.7789L28.1968 11.7258L28.1798 11.6723L28.1626 11.6192L28.1451 11.566L28.1273 11.5128L28.1095 11.46L28.0914 11.4071L28.0727 11.3543L28.0543 11.3017L28.0353 11.2488L28.016 11.1963L27.9967 11.144L27.9771 11.0914L27.9572 11.0392L27.937 10.9869L27.9165 10.9349L27.896 10.8827L27.8752 10.831L27.8542 10.779L27.8328 10.7273L27.8111 10.6754L27.7894 10.624L27.7675 10.5723L27.7452 10.5212L27.7227 10.4699L27.7087 10.4387L22.8028 15.3688H15.3341L11.3078 19.3967L11.2111 19.4858L11.1077 19.5669L10.9979 19.6393L10.8827 19.7029L10.7628 19.7569L10.639 19.8012L10.5119 19.835L10.3828 19.8588L10.2519 19.8722L10.1203 19.8745L9.98912 19.8668L9.85909 19.8481L9.73055 19.8193L9.60526 19.7801L9.48325 19.7311L9.36539 19.6723L9.25287 19.6043L9.1463 19.5274L9.04625 19.4421L8.95303 19.3492L8.86783 19.2491L8.79123 19.1422L8.72295 19.0296L8.66447 18.912L8.61519 18.79L8.576 18.6644L8.5472 18.5361L8.5288 18.4057L8.52078 18.2744L8.52345 18.1429L8.53681 18.0122L8.56026 17.8827L8.59441 17.7556L8.63864 17.6318L8.69237 17.5118L8.75591 17.3966L8.82834 17.287L8.90969 17.1833L8.99875 17.0865L13.9815 12.102H21.4458L28.2196 5.29503L28.4423 5.3173L29.4867 6.90108Z" fill="#FB5F66"/>
</svg>
