<svg id="Layer_1" data-name="Layer 1" xmlns="http://www.w3.org/2000/svg" viewBox="0 0 360 360"><title>milvus-icon-black</title><path d="M169.11689,299.04939c-27.78535-.02915-51.298-8.31411-72.45031-23.69338a122.33707,122.33707,0,0,1-14.00922-12.00616q-16.556-16.35613-33.14895-32.67482Q35.31712,216.704,21.10726,202.7519c-4.27753-4.20375-8.581-8.38131-12.83638-12.60737-5.78529-5.74539-5.692-12.21736.17135-17.91294,4.35916-4.23447,8.6808-8.50759,13.01531-12.76743q21.09033-20.727,42.18351-41.45112c7.82349-7.66748,15.53733-15.458,23.59542-22.87264A117.61725,117.61725,0,0,1,142.926,66.46075,112.79714,112.79714,0,0,1,167.7708,63.678c27.822.22006,53.14231,8.0315,75.21837,25.35039a117.49179,117.49179,0,0,1,33.56725,40.74071,111.30862,111.30862,0,0,1,11.18191,37.59258c3.75648,35.37535-6.093,66.46091-30.10087,92.86236a114.32952,114.32952,0,0,1-57.75872,34.79075A132.31853,132.31853,0,0,1,169.11689,299.04939Zm5.35425-31.43461a85.592,85.592,0,0,0,8.90555-.52289c1.86733-.18941,3.736-.42361,5.58158-.7604,22.43092-4.09372,40.60221-15.4505,54.49679-33.26538,13.51833-17.33245,18.827-37.40452,17.16875-59.24969a82.75341,82.75341,0,0,0-9.27492-31.89563c-9.21938-17.8418-23.47591-30.41362-41.44061-38.92072-16.12138-7.6342-33.07061-9.547-50.63693-6.8248a85.52038,85.52038,0,0,0-47.48221,23.39486c-12.62025,12.19885-25.1024,24.54066-37.63746,36.82758-6.28192,6.15757-12.51006,12.37048-18.83189,18.48667-4.04633,3.91467-4.21333,8.6494-.20763,12.6018q11.8256,11.66819,23.69873,23.28819c10.60865,10.42576,21.17268,20.89736,31.83058,31.27252C128.07334,259.01635,148.957,267.6,174.47114,267.61478Z"/><path d="M357.01654,180.71583a12.11267,12.11267,0,0,1-3.67773,9.07927q-16.50428,16.58232-33.07758,33.09591c-1.20808,1.20715-2.42168,1.44863-3.67166.79033-1.35017-.71105-1.82827-1.79263-1.442-3.56058a187.7592,187.7592,0,0,0,3.66284-23.911,178.77219,178.77219,0,0,0,.42091-21.92036,170.04764,170.04764,0,0,0-3.96975-31.1,3.757,3.757,0,0,1,.24665-3.12677,2.86044,2.86044,0,0,1,4.014-.76856,9.243,9.243,0,0,1,1.2578,1.10625q15.99768,15.98621,31.98832,31.97946C355.28369,174.89374,357.02471,177.76063,357.01654,180.71583Z"/><path d="M232.52066,181.32156a58.91788,58.91788,0,0,1-59.06395,59.10475c-34.72229-.0744-59.571-28.74548-58.99573-60.0188a59.03419,59.03419,0,0,1,118.05968.91405Z"/></svg>