<svg id="Layer_1" data-name="Layer 1" xmlns="http://www.w3.org/2000/svg" viewBox="0 0 360 360"><defs><style>.cls-1{fill:#fff;}</style></defs><title>milvus-icon-white</title><path class="cls-1" d="M168.50983,63.3293c31.95671.507,59.93559,11.11286,83.27686,33.18535,18.7006,17.68407,30.22667,39.32512,34.81328,64.64452A105.32115,105.32115,0,0,1,288.30948,182.05c-.56967,28.47039-9.94153,53.66667-28.65343,75.19713-18.13667,20.86872-40.90888,34.11493-68.05469,39.10222-36.61066,6.7263-69.82614-1.44613-99.22656-24.47337-6.10735-4.78341-11.40667-10.44927-16.92918-15.86568q-17.83359-17.49069-35.625-35.0246Q23.68152,205.12557,7.53535,189.27287c-4.99811-4.92643-5.00166-11.76177-.00618-16.68775q16.58239-16.35193,33.222-32.64579c10.415-10.22513,20.7782-20.50417,31.27381-30.64606,6.968-6.73308,13.5621-13.8667,21.20515-19.88878a119.68976,119.68976,0,0,1,51.34517-23.68667,121.162,121.162,0,0,1,23.93459-2.38869Zm92.371,117.69085a91.99822,91.99822,0,0,0-1.48906-15.09071c-4.6589-24.42132-17.48944-43.49544-38.23938-56.98664-20.01283-13.01188-42.00792-17.05568-65.46628-12.61428a85.61952,85.61952,0,0,0-44.01862,22.6468c-8.21582,7.84726-16.269,15.86505-24.38163,23.82013q-16.31332,15.99666-32.59837,32.0219c-3.75,3.69749-3.73394,8.52908-.01266,12.20989,5.32758,5.2695,10.69285,10.50085,16.03635,15.75429q19.54138,19.21189,39.08246,38.424,28.33431,27.75336,67.98,25.94035a83.03279,83.03279,0,0,0,39.17421-11.52729c28.23729-16.81519,42.66039-41.87957,43.93305-74.59841Zm58.23612-.07522a171.37566,171.37566,0,0,0-4.09075-38.11425,11.73723,11.73723,0,0,1-.20111-1.1565,2.63478,2.63478,0,0,1,1.27481-2.74752,2.67092,2.67092,0,0,1,3.16194.02147,9.13711,9.13711,0,0,1,1.18864,1.0856q16.15512,16.14834,32.305,32.30226c5.30658,5.3075,5.2967,12.06515-.02255,17.38455q-16.09957,16.10016-32.1997,32.19985c-.277.27695-.54682.56179-.83445.82717a2.73085,2.73085,0,0,1-3.50192.44023,2.6834,2.6834,0,0,1-1.351-3.11577c1.13192-5.20587,2.10232-10.43969,2.798-15.72573a164.22388,164.22388,0,0,0,1.46944-18.85586c.0238-1.5147.00355-3.03034.00355-4.54551Z"/><path class="cls-1" d="M232.20625,180.965a70.48931,70.48931,0,1,0-.00015,0Z"/></svg>