<svg width="120" height="120" viewBox="0 0 120 120" fill="none" xmlns="http://www.w3.org/2000/svg">
<rect width="120" height="120" fill="#4FC4F9"/>
<path d="M78.2391 38.7921C66.5587 27.0693 47.618 27.0693 35.9376 38.7921L16.8464 57.9521C15.7179 59.086 15.7179 60.9116 16.8464 62.0455L35.9376 81.2055C47.618 92.9283 66.5587 92.9283 78.2391 81.2247C89.9383 69.5212 89.9383 50.5149 78.2391 38.7921ZM73.7249 75.5939C65.148 84.2035 51.2293 84.2035 42.6524 75.5939L28.602 61.5074C27.7745 60.681 27.7745 59.3358 28.602 58.4902L42.6336 44.4229C51.2105 35.8133 65.1292 35.8133 73.7061 44.4229C82.3018 53.0324 82.3018 66.9844 73.7249 75.5939Z" fill="white"/>
<path d="M103.256 57.9713L94.8488 49.381C94.341 48.8621 93.4946 49.3426 93.6639 50.0536C95.1122 56.6069 95.1122 63.4484 93.6639 70.0016C93.5134 70.7126 94.3598 71.1739 94.8488 70.6742L103.256 62.0839C104.366 60.9308 104.366 59.1052 103.256 57.9713Z" fill="white"/>
<path d="M58.2839 75.075C66.4176 75.075 73.0113 68.338 73.0113 60.0275C73.0113 51.7171 66.4176 44.9801 58.2839 44.9801C50.1501 44.9801 43.5564 51.7171 43.5564 60.0275C43.5564 68.338 50.1501 75.075 58.2839 75.075Z" fill="white"/>
</svg>
