<svg xmlns="http://www.w3.org/2000/svg" width="512" height="512" fill="none"><path fill="#F92" fill-rule="evenodd" d="M132 91c-15.464 0-28 12.536-28 28v317c0 15.464 12.536 28 28 28h248c15.464 0 28-12.536 28-28V119c0-15.464-12.536-28-28-28h-6a6 6 0 0 1-6-6V49a6 6 0 0 1 6-6h6c41.974 0 76 34.026 76 76v317c0 41.974-34.026 76-76 76H132c-41.974 0-76-34.026-76-76V119c0-41.974 34.026-76 76-76h6a6 6 0 0 1 6 6v36a6 6 0 0 1-6 6z" clip-rule="evenodd"/><path fill="#F92" fill-rule="evenodd" d="M256 0c-27.232 0-50.227 18.142-57.558 43H182a6 6 0 0 0-6 6v70a6 6 0 0 0 6 6h148a6 6 0 0 0 6-6V49a6 6 0 0 0-6-6h-16.442C306.227 18.142 283.232 0 256 0m0 40a19.9 19.9 0 0 0-10.541 3C239.781 46.528 236 52.823 236 60c0 11.046 8.954 20 20 20s20-8.954 20-20c0-7.177-3.781-13.472-9.459-17A19.9 19.9 0 0 0 256 40m101 179c0 6.627-5.373 12-12 12H233c-6.627 0-12-5.373-12-12v-24c0-6.627 5.373-12 12-12h112c6.627 0 12 5.373 12 12z" clip-rule="evenodd"/><path fill="#F92" d="M197 207c0 13.255-10.745 24-24 24s-24-10.745-24-24 10.745-24 24-24 24 10.745 24 24"/><path fill="#F92" fill-rule="evenodd" d="M357 395c0 6.627-5.373 12-12 12H233c-6.627 0-12-5.373-12-12v-24c0-6.627 5.373-12 12-12h112c6.627 0 12 5.373 12 12z" clip-rule="evenodd"/><path fill="#F92" d="M197 383c0 13.255-10.745 24-24 24s-24-10.745-24-24 10.745-24 24-24 24 10.745 24 24"/><path fill="#F92" fill-rule="evenodd" d="M357 307c0 6.627-5.373 12-12 12H233c-6.627 0-12-5.373-12-12v-24c0-6.627 5.373-12 12-12h112c6.627 0 12 5.373 12 12z" clip-rule="evenodd"/><path fill="#F92" d="M197 295c0 13.255-10.745 24-24 24s-24-10.745-24-24 10.745-24 24-24 24 10.745 24 24"/></svg>