<svg width="512" height="512" viewBox="0 0 512 512" fill="none" xmlns="http://www.w3.org/2000/svg">
<g clip-path="url(#clip0_1142_3440)">
<rect width="100" height="100" rx="16" fill="#FF9922"/>
<rect y="148" width="100" height="364" rx="16" fill="#FF9922"/>
<rect x="148" width="364" height="100" rx="16" fill="#FF9922"/>
<path d="M385.242 151.995C390.012 146.663 398.357 146.663 403.127 151.995L461.288 216.998C468.205 224.728 462.718 237 452.346 237H418V346C418 385.764 385.764 418 346 418H238V452.346C238 462.718 225.728 468.205 217.998 461.288L152.995 403.127C147.663 398.357 147.663 390.012 152.995 385.242L217.998 327.081C225.728 320.164 238 325.651 238 336.024V370H346C359.255 370 370 359.255 370 346V237H336.023C325.651 237 320.164 224.728 327.081 216.998L385.242 151.995Z" fill="#FF9922"/>
</g>
<defs>
<clipPath id="clip0_1142_3440">
<rect width="512" height="512" fill="white"/>
</clipPath>
</defs>
</svg>
