<svg xmlns="http://www.w3.org/2000/svg" width="60" height="60"><defs><radialGradient id="a" cx="50%" cy="55%" r="72.507%" fx="50%" fy="55%" gradientTransform="matrix(.92404 0 0 1 .038 0)"><stop offset="0%" stop-color="#FFB900"/><stop offset="60%" stop-color="#F95D8F"/><stop offset="99.91%" stop-color="#F95353"/></radialGradient></defs><path fill="url(#a)" fill-rule="evenodd" d="M45.594 28.5c-6.994.003-12.664 5.673-12.667 12.667.003 6.995 5.673 12.664 12.667 12.668 6.995-.004 12.664-5.673 12.667-12.668-.003-6.994-5.672-12.664-12.667-12.667m-32.927.001C5.673 28.505.003 34.174 0 41.17c.003 6.994 5.673 12.664 12.667 12.667 6.995-.003 12.664-5.673 12.668-12.667-.004-6.995-5.673-12.664-12.668-12.668zM41.79 12.667c-.002 6.995-5.671 12.665-12.666 12.67-6.995-.004-12.664-5.674-12.667-12.67C16.46 5.673 22.13.003 29.123 0c6.994.004 12.663 5.673 12.666 12.667z" transform="translate(.732 2.732)"/></svg>