<?xml version="1.0" encoding="UTF-8"?>
<svg width="60px" height="60px" viewBox="0 0 60 60" version="1.1" xmlns="http://www.w3.org/2000/svg" xmlns:xlink="http://www.w3.org/1999/xlink">
    <title>asana_node_icon</title>
    <defs>
        <radialGradient cx="50%" cy="55%" fx="50%" fy="55%" r="72.5074481%" gradientTransform="translate(0.500000,0.550000),scale(0.924043,1.000000),translate(-0.500000,-0.550000)" id="radialGradient-1">
            <stop stop-color="#FFB900" offset="0%"></stop>
            <stop stop-color="#F95D8F" offset="60%"></stop>
            <stop stop-color="#F95353" offset="99.91%"></stop>
        </radialGradient>
    </defs>
    <g id="asana_node_icon" stroke="none" stroke-width="1" fill="none" fill-rule="evenodd" stroke-linecap="round" stroke-linejoin="round">
        <g id="asana" transform="translate(0.000000, 2.000000)" fill="url(#radialGradient-1)">
            <g id="Group" transform="translate(0.731707, 0.731707)">
                <path d="M45.5941463,28.5 C38.5995187,28.50323 32.9300593,34.1726894 32.9268293,41.1673171 C32.9300593,48.1619448 38.5995187,53.8314041 45.5941463,53.8346341 C52.588774,53.8314041 58.2582334,48.1619448 58.2614634,41.1673171 C58.2582334,34.1726894 52.588774,28.50323 45.5941463,28.5 L45.5941463,28.5 Z M12.6673171,28.5014634 C5.67268939,28.5046934 0.00323002946,34.1741528 -1.40700459e-15,41.1687805 C0.00323002946,48.1634082 5.67268939,53.8328675 12.6673171,53.8360976 C19.6619448,53.8328675 25.3314041,48.1634082 25.3346341,41.1687805 C25.3314041,34.1741528 19.6619448,28.5046934 12.6673171,28.5014634 L12.6673171,28.5014634 Z M41.7892683,12.6673171 C41.7868464,19.6619451 36.118042,25.3320595 29.1234146,25.3360976 C22.1282158,25.3328669 16.4585201,19.6625162 16.4560976,12.6673171 C16.4593276,5.67268939 22.128787,0.00323002946 29.1234146,-1.40700459e-15 C36.1174708,0.0040373938 41.7860389,5.67326048 41.7892683,12.6673171 L41.7892683,12.6673171 Z" id="Shape"></path>
            </g>
        </g>
    </g>
</svg>