<?xml version="1.0" encoding="UTF-8"?>
<svg width="60px" height="60px" viewBox="0 0 60 60" version="1.1" xmlns="http://www.w3.org/2000/svg" xmlns:xlink="http://www.w3.org/1999/xlink">
    <title>telegram_node_icon</title>
    <defs>
        <linearGradient x1="50%" y1="0%" x2="50%" y2="99.258%" id="linearGradient-1">
            <stop stop-color="#2AABEE" offset="0%"></stop>
            <stop stop-color="#229ED9" offset="100%"></stop>
        </linearGradient>
    </defs>
    <g id="telegram_node_icon" stroke="none" stroke-width="1" fill="none" fill-rule="evenodd">
        <g id="telegram-icon" fill-rule="nonzero">
            <g id="t_logo">
                <circle id="Oval" fill="url(#linearGradient-1)" cx="30" cy="30" r="30"></circle>
                <path d="M13.5797051,29.6833241 C22.3253144,25.8730011 28.1570903,23.361003 31.0750329,22.1473297 C39.4063521,18.6820458 41.1375289,18.0800889 42.2658856,18.0598073 C42.5140573,18.0558402 43.0689503,18.1173446 43.4283868,18.4090024 C43.7318878,18.6552726 43.8153931,18.9879486 43.855353,19.2214397 C43.895313,19.4549309 43.9450727,19.9868297 43.9055175,20.4024399 C43.4540404,25.1461492 41.5005062,36.6578805 40.5066589,41.970916 C40.0861248,44.2190605 39.2580802,44.9728519 38.4564371,45.0466204 C36.7142811,45.2069363 35.3913669,43.8952821 33.7040036,42.7891942 C31.0636132,41.0583849 29.5719606,39.9809509 27.0090045,38.2920008 C24.0470652,36.3401268 25.9671671,35.2673429 27.6551677,33.5141138 C28.0969254,33.0552854 35.7729048,26.0733887 35.9214736,25.4400213 C35.9400546,25.3608081 35.9572987,25.0655389 35.7818844,24.9096259 C35.6064701,24.7537129 35.3475737,24.8070291 35.1607469,24.8494319 C34.8959255,24.9095366 30.6778676,27.6975165 22.5065732,33.2133713 C21.3092915,34.0355174 20.2248309,34.4360945 19.2531915,34.4151028 C18.1820369,34.391961 16.1215652,33.8094557 14.5898164,33.3115445 C12.711064,32.7008362 11.2178691,32.3779502 11.3478928,31.3407786 C11.4156172,30.8005553 12.1595546,30.2480706 13.5797051,29.6833241 Z" id="Path" fill="#FFFFFF"></path>
            </g>
        </g>
    </g>
</svg>