<svg xmlns="http://www.w3.org/2000/svg" xmlns:xlink="http://www.w3.org/1999/xlink" viewBox="0 0 66 66" fill="#fff" fill-rule="evenodd" stroke="#000" stroke-linecap="round" stroke-linejoin="round"><use xlink:href="#a" x=".5" y=".5"/><symbol id="a" overflow="visible"><g stroke="none" fill-rule="nonzero"><path d="M0 32c0 17.673 14.327 32 32 32s32-14.327 32-32S49.673 0 32 0 0 14.327 0 32" fill="#37aee2"/><path d="M21.661 34.338l3.797 10.508s.475.983.983.983 8.068-7.864 8.068-7.864l8.407-16.237-21.119 9.898z" fill="#c8daea"/><path d="M26.695 37.034l-.729 7.746s-.305 2.373 2.068 0l4.644-4.203" fill="#a9c6d8"/><path d="M21.73 34.712l-7.809-2.545s-.932-.378-.633-1.237c.062-.177.186-.328.559-.588 1.731-1.206 32.028-12.096 32.028-12.096s.856-.288 1.361-.097c.231.088.378.187.503.548.045.132.071.411.068.689-.003.201-.027.386-.045.678-.184 2.978-5.706 25.198-5.706 25.198s-.33 1.3-1.514 1.345c-.432.016-.956-.071-1.582-.61-2.323-1.998-10.352-7.394-12.126-8.58a.34.34 0 01-.146-.239c-.025-.125.108-.28.108-.28s13.98-12.427 14.352-13.731c.029-.101-.079-.151-.226-.107-.929.342-17.025 10.506-18.801 11.629-.104.066-.395.023-.395.023"/></g></symbol></svg>