<svg xmlns="http://www.w3.org/2000/svg" width="58" height="16" fill="none"><path fill="#EA4B71" fill-rule="evenodd" d="M27.2 6.4A3.2 3.2 0 0 1 24.1 4h-3.667a1.6 1.6 0 0 0-1.578 1.337l-.132.79A3.2 3.2 0 0 1 17.683 8a3.2 3.2 0 0 1 1.04 1.874l.132.789A1.6 1.6 0 0 0 20.433 12h.468a3.201 3.201 0 0 1 6.299.8 3.2 3.2 0 0 1-6.3.8h-.467a3.2 3.2 0 0 1-3.156-2.674l-.132-.789A1.6 1.6 0 0 0 15.567 8.8h-1.268a3.201 3.201 0 0 1-6.198 0H6.299A3.201 3.201 0 0 1 0 8a3.2 3.2 0 0 1 6.3-.8h1.8a3.201 3.201 0 0 1 6.2 0h1.267a1.6 1.6 0 0 0 1.578-1.337l.132-.79A3.2 3.2 0 0 1 20.433 2.4h3.668a3.201 3.201 0 0 1 6.299.8 3.2 3.2 0 0 1-3.2 3.2m0-1.6a1.6 1.6 0 1 0 0-3.2 1.6 1.6 0 0 0 0 3.2m-24 4.8a1.6 1.6 0 1 0 0-3.2 1.6 1.6 0 0 0 0 3.2M12.8 8a1.6 1.6 0 1 1-3.2 0 1.6 1.6 0 0 1 3.2 0m12.8 4.8a1.6 1.6 0 1 1-3.2 0 1.6 1.6 0 0 1 3.2 0" clip-rule="evenodd"/><path fill="#101330" fill-rule="evenodd" d="M48.002 6.918v-.076c.558-.28 1.116-.762 1.116-1.716 0-1.372-1.13-2.198-2.69-2.198-1.598 0-2.74.877-2.74 2.224 0 .915.533 1.41 1.116 1.69v.076a2.16 2.16 0 0 0-1.42 2.059c0 1.385 1.141 2.351 3.032 2.351 1.89 0 2.994-.966 2.994-2.351a2.16 2.16 0 0 0-1.408-2.059m-1.587-2.82c.635 0 1.104.406 1.104 1.092s-.482 1.093-1.103 1.093c-.622 0-1.142-.407-1.142-1.093 0-.699.495-1.093 1.142-1.093m0 6.01c-.735 0-1.332-.47-1.332-1.27 0-.725.495-1.272 1.32-1.272.812 0 1.307.534 1.307 1.297 0 .775-.571 1.245-1.294 1.245" clip-rule="evenodd"/><path fill="#101330" d="M51.367 11.2h1.624V7.758c0-1.131.685-1.627 1.46-1.627.76 0 1.357.509 1.357 1.55v3.52h1.624V7.35c0-1.664-.964-2.63-2.474-2.63-.952 0-1.485.381-1.865.877h-.102l-.14-.75h-1.484zm-14.376 0h-1.624V4.848h1.485l.14.75h.1c.381-.496.914-.877 1.866-.877 1.51 0 2.474.966 2.474 2.63v3.85h-1.624V7.68c0-1.041-.596-1.55-1.358-1.55-.774 0-1.459.496-1.459 1.627z"/></svg>