<svg width="252" height="73" viewBox="0 0 252 73" fill="none" xmlns="http://www.w3.org/2000/svg">
<path d="M53.2553 49.159H57.373C57.5623 50.6474 58.2062 52.0444 59.2196 53.1653C60.3306 54.3743 61.7304 55.292 63.2925 55.8353C65.1591 56.4975 67.1329 56.8193 69.1169 56.785C72.416 56.785 75.0372 56.2323 76.9805 55.1269C78.9237 54.0216 79.8909 52.5062 79.8822 50.5809C79.9124 49.9104 79.7598 49.244 79.4403 48.651C79.1207 48.0579 78.6458 47.5596 78.0646 47.2078C76.8547 46.4311 74.7304 45.8706 71.6915 45.5264L65.3843 44.748C61.387 44.2982 58.5091 43.3624 56.7505 41.9404C54.9919 40.5185 54.1126 38.601 54.1126 36.1879C54.0782 34.3641 54.6994 32.5869 55.8668 31.1697C57.0328 29.7477 58.6753 28.6562 60.7944 27.8951C62.9135 27.134 65.3755 26.7534 68.1805 26.7534C71.0399 26.7534 73.5662 27.1772 75.7591 28.0248C77.9521 28.8725 79.7054 30.0496 81.0191 31.5563C82.3059 33.0493 83.0486 34.9224 83.1294 36.8781H79.0117C78.8596 35.548 78.2759 34.3015 77.3471 33.3233C76.3016 32.2571 75.0092 31.4558 73.5802 30.988C71.8188 30.3986 69.9668 30.1142 68.1066 30.1473C65.0959 30.1473 62.6937 30.6715 60.8999 31.7198C59.1061 32.768 58.2084 34.2289 58.2066 36.1023C58.1806 36.7597 58.3306 37.4124 58.6417 37.9948C58.9529 38.5773 59.4141 39.0691 59.9793 39.4209C61.1646 40.1976 63.187 40.7581 66.0464 41.1023L72.2666 41.8808C75.1296 42.2544 77.4219 42.7647 79.1435 43.4117C80.8652 44.0586 82.0962 44.9348 82.8366 46.0401C83.5805 47.1455 83.9533 48.5458 83.9551 50.241C83.9938 52.1687 83.3336 54.047 82.0927 55.5395C80.8494 57.0306 79.1145 58.1801 76.8881 58.9879C74.6618 59.7957 72.0406 60.1979 69.0246 60.1945C66.0174 60.1945 63.3531 59.7274 61.0318 58.7933C58.7105 57.8592 56.8639 56.5618 55.4922 54.9012C54.1301 53.2782 53.3446 51.2618 53.2553 49.159Z" fill="black"/>
<path d="M89.1756 26.4524H93.1535V59.6288H89.1756V26.4524ZM103.367 34.8101C105.673 34.8101 107.629 35.2624 109.237 36.1671C110.843 37.0724 112.127 38.441 112.917 40.0878C113.762 41.7986 114.186 43.8744 114.188 46.3151V59.6288H110.157V46.9612C110.157 44.0603 109.479 41.8695 108.121 40.3888C106.763 38.908 104.785 38.1685 102.186 38.1703C100.52 38.1341 98.8768 38.5517 97.4374 39.3768C96.0823 40.1729 94.9846 41.3309 94.272 42.7162C93.4986 44.2628 93.1149 45.9698 93.1535 47.693L91.5312 46.572C91.737 44.1503 92.3648 42.0684 93.4146 40.3265C94.4056 38.633 95.8344 37.2275 97.5561 36.2527C99.3293 35.2744 101.335 34.7766 103.367 34.8101Z" fill="black"/>
<path d="M145.418 47.522C144.847 49.891 143.845 52.1388 142.461 54.1567C141.217 55.9753 139.57 57.4925 137.644 58.5938C135.745 59.6615 133.59 60.2123 131.403 60.1895C129.147 60.2319 126.922 59.6733 124.964 58.573C123.109 57.5103 121.586 55.9675 120.561 54.1126C119.495 52.2185 118.962 50.0216 118.962 47.522C118.962 44.9947 119.495 42.7823 120.561 40.8846C121.587 39.0311 123.11 37.4894 124.964 36.4269C126.922 35.3266 129.147 34.768 131.403 34.8103C133.591 34.79 135.745 35.3435 137.644 36.4139C139.572 37.5166 141.226 39.03 142.482 40.8431C143.883 42.8657 144.879 45.1324 145.418 47.522ZM123.078 47.522C123.043 49.2147 123.442 50.8888 124.238 52.3897C124.967 53.7522 126.062 54.8919 127.404 55.685C128.812 56.4931 130.419 56.9034 132.049 56.8708C133.738 56.8865 135.403 56.4784 136.887 55.685C138.411 54.8552 139.752 53.735 140.831 52.3897C142.02 50.9191 142.973 49.2774 143.656 47.522C142.98 45.7497 142.027 44.0923 140.831 42.6101C139.751 41.2648 138.41 40.1438 136.887 39.3122C135.402 38.5208 133.738 38.1137 132.049 38.129C130.42 38.0968 128.813 38.5062 127.404 39.3122C126.063 40.1071 124.968 41.2475 124.238 42.6101C123.438 44.1256 123.039 45.8148 123.078 47.522ZM143.84 59.6291L142.965 50.4515L144.065 47.522L142.97 44.5484L143.84 35.376H147.958L146.776 47.5272L147.958 59.6342L143.84 59.6291Z" fill="black"/>
<path d="M152.865 35.3758H156.851L158.251 43.6479V59.6341H154.265V42.9006L152.865 35.3758ZM171.393 35.2902V38.8658C170.757 38.6777 170.104 38.5483 169.444 38.4791C168.724 38.3932 168 38.3499 167.276 38.3494C165.643 38.3187 164.032 38.7202 162.612 39.5118C161.235 40.3061 160.124 41.4785 159.415 42.885C158.639 44.364 158.251 46.1085 158.251 48.1186L157.114 46.5618C157.155 44.9626 157.443 43.3789 157.969 41.8653C158.438 40.5012 159.166 39.2369 160.114 38.1392C161.026 37.098 162.154 36.2602 163.422 35.682C164.798 35.0758 166.293 34.7746 167.8 34.7998C168.452 34.8008 169.104 34.8442 169.75 34.9295C170.308 34.9965 170.858 35.1155 171.393 35.285V35.2902Z" fill="black"/>
<path d="M175.205 35.3758H179.191V44.5949L178.972 45.3293V49.2499L179.191 50.5006V66.7437H175.205V35.3758ZM177.35 47.527C177.888 45.141 178.877 42.8755 180.264 40.8481C181.512 39.0254 183.168 37.5084 185.105 36.4137C187.045 35.3629 189.224 34.8135 191.439 34.8172C193.653 34.8208 195.831 35.3773 197.767 36.4345C199.62 37.4971 201.142 39.0388 202.167 40.8922C203.233 42.7951 203.765 45.0075 203.765 47.5296C203.765 50.0275 203.233 52.2244 202.167 54.1202C201.143 55.975 199.621 57.5177 197.767 58.5806C195.835 59.6374 193.661 60.1938 191.45 60.1974C189.24 60.201 187.064 59.6518 185.129 58.6014C183.198 57.4974 181.544 55.9811 180.288 54.1644C178.893 52.1517 177.896 49.8981 177.35 47.5218V47.527ZM199.69 47.527C199.728 45.8198 199.329 44.1306 198.529 42.6152C197.794 41.2461 196.687 40.1045 195.332 39.3172C193.916 38.5133 192.303 38.1042 190.668 38.134C188.986 38.1238 187.329 38.5307 185.849 39.3172C184.319 40.1406 182.977 41.2629 181.905 42.6152C180.721 44.1015 179.776 45.7582 179.104 47.527C179.783 49.2789 180.728 50.92 181.905 52.3947C182.977 53.747 184.319 54.8685 185.849 55.6901C187.328 56.4786 188.986 56.8865 190.668 56.8759C192.304 56.9063 193.916 56.4963 195.332 55.6901C196.688 54.9045 197.795 53.7636 198.529 52.3947C199.326 50.8922 199.726 49.2163 199.69 47.5218V47.527Z" fill="black"/>
<path d="M221.943 60.1892C219.11 60.1892 216.606 59.6504 214.43 58.5727C212.341 57.5723 210.569 56.0301 209.305 54.1123C208.062 52.2182 207.441 50.0066 207.443 47.4776C207.443 44.9797 208.026 42.782 209.194 40.8843C210.362 38.9905 212.037 37.4485 214.035 36.4266C216.094 35.3489 218.481 34.8101 221.196 34.8101C223.854 34.8101 226.168 35.3844 228.139 36.533C230.112 37.683 231.709 39.3651 232.74 41.3799C233.835 43.4557 234.383 45.8775 234.383 48.6452H210.466V45.4952H232.716L230.342 46.9612C230.304 45.2986 229.851 43.6708 229.023 42.2206C228.27 40.931 227.168 39.872 225.839 39.1614C224.38 38.4171 222.753 38.0468 221.109 38.0846C219.359 38.044 217.627 38.4366 216.071 39.2263C214.671 39.9596 213.515 41.0739 212.742 42.436C211.924 43.9325 211.517 45.6129 211.56 47.3115C211.515 49.0951 211.977 50.8556 212.895 52.3946C213.802 53.846 215.119 55.0064 216.686 55.7341C218.321 56.5246 220.249 56.9199 222.468 56.9199C224.505 56.9215 226.527 56.5783 228.445 55.9053C230.324 55.265 232.09 54.3425 233.682 53.1704V56.2841C232.05 57.5458 230.204 58.5123 228.229 59.1384C226.206 59.8241 224.083 60.1791 221.943 60.1892Z" fill="black"/>
<path d="M241.403 31.707C240.626 31.7365 239.869 31.4665 239.292 30.9545C239.025 30.7197 238.812 30.4307 238.668 30.1073C238.525 29.7839 238.454 29.4339 238.461 29.0811C238.451 28.7214 238.52 28.3638 238.663 28.0327C238.807 27.7017 239.021 27.4052 239.292 27.1636C239.869 26.6507 240.626 26.3797 241.403 26.4085C242.191 26.3768 242.961 26.6475 243.55 27.1636C243.821 27.4051 244.036 27.7015 244.18 28.0325C244.324 28.3635 244.394 28.7212 244.384 29.0811C244.39 29.434 244.319 29.7842 244.175 30.1076C244.031 30.4309 243.818 30.7199 243.55 30.9545C242.96 31.4696 242.191 31.7394 241.403 31.707ZM239.432 35.2851L241.403 35.6354L243.418 35.2903V59.6342H239.419L239.432 35.2851Z" fill="black"/>
<path d="M57.3519 16.93C57.3519 16.93 56.2071 16.7665 56.2572 17.6461C56.3073 18.5257 56.6634 19.7219 57.0644 20.0255C57.4653 20.3291 58.6155 20.4977 58.6128 19.6674C58.6102 18.8371 58.5706 17.1531 57.3519 16.93Z" fill="url(#paint0_linear_207_23)"/>
<path d="M10.5876 27.4283C10.1312 26.1076 9.47703 24.0993 9.3293 23.0432C9.09981 21.38 9.50077 21.3151 10.1207 21.2269H10.1523C10.7538 21.2139 11.0334 22.9731 11.4897 24.7661C11.686 25.5196 11.9738 26.247 12.347 26.9327C11.7376 27.0053 11.1437 27.1726 10.5876 27.4283Z" fill="url(#paint1_linear_207_23)"/>
<path d="M38.5491 12.4668C38.0822 10.199 37.2776 7.48488 35.9323 5.85019C36.2479 5.79272 36.5696 5.77441 36.8899 5.7957C37.8527 5.92025 39.9023 6.21605 41.4402 8.01161C42.9781 9.80718 44.3419 13.6682 44.5899 16.006C44.6136 16.2369 44.6373 16.4497 44.6558 16.6521C43.5133 17.1124 42.403 17.6463 41.3321 18.2505C40.62 18.6504 39.9337 19.0933 39.2772 19.5764C39.2849 17.1881 39.0409 14.8055 38.5491 12.4668Z" fill="url(#paint2_linear_207_23)"/>
<path d="M56.3337 18.2791C56.4141 18.7559 56.5633 19.219 56.7769 19.6543C56.5553 19.7438 56.3198 19.7956 56.0805 19.8074C55.9529 19.8112 55.8257 19.791 55.7059 19.7477C55.0754 19.5116 55.363 18.4892 55.363 18.4892L56.3337 18.2791Z" fill="url(#paint3_linear_207_23)"/>
<path d="M19.8202 35.9597C19.6197 34.5611 17.9736 28.9539 15.0535 27.999C14.3923 27.7767 13.6973 27.667 12.9986 27.6747C11.1863 27.7084 9.95445 28.6088 9.62735 29.1252C8.89138 30.2824 8.88611 31.9275 9.16309 33.858C9.46117 35.913 10.7458 38.9722 12.1993 40.9831C12.6015 40.91 13.0091 40.8692 13.418 40.8612C13.9946 40.8519 14.5705 40.905 15.1353 41.0195C15.4518 39.2369 16.8684 37.4958 18.7993 36.6421C19.1406 36.5038 19.4937 36.3952 19.8544 36.3178C19.8492 36.1984 19.8386 36.0791 19.8202 35.9597ZM12.719 40.0464C11.429 39.0993 10.8962 36.9327 10.8962 36.9327C11.371 37.5165 11.9039 38.9437 13.513 39.2498C14.6235 39.4522 13.6818 40.7496 12.719 40.0464Z" fill="url(#paint4_linear_207_23)"/>
<path d="M17.0028 46.3154C15.8368 45.4332 15.1906 43.9801 15.0745 41.9847C15.0745 41.9251 15.0745 41.8628 15.0745 41.8005C14.5366 41.6846 13.9869 41.6306 13.4364 41.6396C12.5838 41.6475 11.7422 41.8286 10.9641 42.1715C10.1861 42.5144 9.48847 43.0118 8.91503 43.6324C7.06851 45.607 5.39082 48.8219 4.58098 51.3284C3.77115 53.8349 3.6287 58.7286 3.96108 60.3555C4.29345 61.9824 5.39609 63.5003 6.49609 63.9129C7.24978 64.126 8.03436 64.2137 8.81743 64.1724C10.0124 64.1516 11.297 63.9389 11.9697 63.4588C13.1726 62.5948 15.5625 54.6964 16.4541 52.3014C17.1268 50.5147 17.5569 48.6486 17.7335 46.7513C17.4761 46.6297 17.2314 46.4837 17.0028 46.3154ZM9.61671 63.355C7.20041 63.5574 5.94477 62.7453 5.01887 61.0016C4.46899 60.0318 4.24986 58.9141 4.39369 57.8127C4.39369 57.8127 4.67858 60.0623 6.07403 61.2896C6.92343 62.0395 8.15004 62.2497 9.93326 62.0136C10.8512 61.8942 11.5002 63.1968 9.61935 63.355H9.61671Z" fill="url(#paint5_linear_207_23)"/>
<path d="M19.712 47.4024C19.3016 47.3197 18.8971 47.2105 18.5012 47.0754C18.3051 48.9567 17.8673 50.806 17.1981 52.5789C16.995 53.1264 16.7048 53.9826 16.3698 54.9738C15.8159 56.6111 15.1274 58.6506 14.4626 60.3579C13.761 62.1561 13.2914 63.0668 12.9353 63.565C14.4521 63.8738 16.3646 63.6377 18.4986 60.8821C20.5324 58.2666 22.3789 52.3324 22.6533 49.8492C22.7298 49.1642 22.7746 48.4091 22.8036 47.6982C21.7659 47.6964 20.7307 47.5973 19.712 47.4024ZM16.2828 62.2106C15.9796 62.5787 15.5599 62.8363 15.0905 62.9423C14.6156 63.0539 14.2516 63.0798 14.3466 62.6335C14.3888 62.4285 14.4758 62.1898 15.3384 61.7954C16.201 61.401 16.5202 61.8862 16.2907 62.2106H16.2828Z" fill="url(#paint6_linear_207_23)"/>
<path d="M28.913 36.2607C28.6492 36.2607 28.3617 36.2607 28.0583 36.2607C25.059 36.3126 20.4085 36.7797 19.1238 37.3453C17.1427 38.2301 15.7631 40.184 15.8634 41.9406C15.9531 43.4975 16.391 44.8753 17.4857 45.7004C18.5804 46.5255 20.7857 46.9641 23.3734 46.9173H23.7375C24.3564 46.8875 24.973 46.8217 25.584 46.7201C25.5523 46.1753 25.5365 45.6252 25.5444 45.0595C25.5734 42.06 27.813 40.5109 29.1504 39.5872L29.219 39.5379C29.3475 39.4511 29.4824 39.3739 29.6226 39.307C29.1719 38.3516 28.9302 37.3138 28.913 36.2607ZM21.5454 46.3621C19.4087 46.1908 18.0555 45.6693 17.3248 44.8493C16.5941 44.0294 17.5886 43.3288 17.9526 44.0476C18.9286 45.9936 23.5344 46.305 23.5344 46.305C22.8759 46.4004 22.2084 46.4196 21.5454 46.3621Z" fill="url(#paint7_linear_207_23)"/>
<path d="M43.656 58.6664C43.0018 55.589 39.8153 51.1235 38.4805 47.6725C37.1457 44.2215 36.8635 40.3397 33.8404 39.7455C33.2294 39.654 32.6119 39.6115 31.9939 39.6184C31.1709 39.634 30.2555 39.7585 29.6647 40.1659C28.3668 41.0663 26.3515 42.4129 26.3251 45.0596C26.2987 47.7062 26.668 50.9782 28.752 56.0327C30.8359 61.0873 33.5186 64.0764 36.0088 64.8056C36.9013 65.0552 37.8273 65.1689 38.7548 65.1429C40.3376 65.1143 41.7462 64.7537 42.2632 64.4579C43.2973 63.8585 44.3129 61.7464 43.656 58.6664ZM42.6325 63.0775C42.4069 63.4856 42.0414 63.8019 41.6011 63.9701C39.8917 64.5925 38.0208 64.6409 36.2805 64.1076C35.0618 63.6717 33.7903 62.9763 34.0673 62.5507C34.6714 61.6426 35.2412 63.0567 36.903 63.4797C38.032 63.7677 39.1795 64.0738 40.7543 63.7521C42.1709 63.4693 42.7697 62.8439 42.6325 63.0723V63.0775Z" fill="url(#paint8_linear_207_23)"/>
<path d="M49.1535 56.5983C48.3252 52.5894 46.9904 50.1945 45.3602 46.759C43.73 43.3236 41.6302 41.0895 40.0844 40.4408C39.4106 40.1509 38.7011 39.9485 37.9741 39.8389L37.6813 40.1943C37.4321 40.4959 37.1377 40.7583 36.8082 40.9728C36.8715 41.0688 36.9321 41.1648 36.9902 41.266C37.6022 42.3039 37.9899 43.6012 38.4041 44.9505C38.6521 45.7627 38.9079 46.6034 39.2166 47.4051C39.7626 48.8193 40.6595 50.4643 41.5273 52.0549C42.7566 54.3046 44.0254 56.632 44.429 58.5184C44.7573 59.9061 44.7301 61.3523 44.3499 62.7271C44.1698 63.3481 43.8688 63.9289 43.4636 64.437C44.4434 64.527 45.4315 64.4156 46.3652 64.1101C48.2038 63.56 49.9818 60.6072 49.1535 56.5983ZM46.5367 63.4899C45.5871 63.9077 44.5029 63.9726 44.6295 63.4355C44.8511 62.4884 45.3154 62.7063 46.1489 62.7245C47.3518 62.7504 48.4676 61.2118 48.4676 61.2118C48.4676 61.2118 47.7211 62.9684 46.5367 63.4899Z" fill="url(#paint9_linear_207_23)"/>
<path d="M40.4828 28.3207C39.372 28.1119 38.3519 27.5762 37.5574 26.7847C37.0336 26.2486 36.6687 25.582 36.5022 24.8568C36.501 24.8412 36.501 24.8256 36.5022 24.8101C35.9178 25.0594 35.292 25.2018 34.6557 25.2304H34.3286C34.0648 25.2304 33.801 25.2304 33.5372 25.2045C32.7324 25.9342 32.0933 26.8228 31.6617 27.8122C31.2132 28.9098 29.8442 32.2466 29.7255 35.1553C29.649 37.0469 29.9602 38.1782 30.3797 39.0215C30.9085 38.8965 31.4502 38.8321 31.9941 38.8295C32.6632 38.821 33.3319 38.8661 33.9936 38.9644H34.0173C34.9332 39.1393 35.7601 39.6184 36.3598 40.3214C36.6369 40.1471 36.8844 39.9308 37.0931 39.6805C38.6758 37.7812 39.4672 36.5305 40.2322 32.5346C40.522 31.1492 40.6064 29.7299 40.4828 28.3207ZM31.0629 37.9706C29.5276 35.7988 31.1104 31.5512 31.1104 31.5512C30.6224 37.3972 32.0626 36.5565 32.0732 37.7552C32.0746 37.8748 32.034 37.9912 31.9582 38.0847C31.8825 38.1782 31.7762 38.2431 31.6574 38.2685C31.5386 38.2938 31.4145 38.278 31.3062 38.2237C31.1979 38.1694 31.1119 38.08 31.0629 37.9706Z" fill="url(#paint10_linear_207_23)"/>
<path d="M37.7841 12.6199C36.9638 8.62655 35.6738 6.04738 34.1254 5.35458C33.3245 5.04489 32.472 4.88474 31.6115 4.88234C31.0066 4.88053 30.4106 5.02487 29.8757 5.30269C24.4443 8.27626 27.1218 17.7575 28.0741 19.937C28.5779 21.0891 30.0815 24.5375 34.2942 24.4623H34.5949C35.2266 24.4397 35.8454 24.2802 36.4072 23.9952C36.4335 23.3621 36.7184 22.6978 37.4992 21.3849C37.7632 20.9695 38.0846 20.5923 38.4542 20.264C38.5834 18.5878 38.3882 15.5623 37.7841 12.6199ZM35.046 23.6008C33.4633 23.9615 31.8199 23.3128 30.588 22.332C28.9367 21.0164 28.0187 18.0247 28.0187 18.0247C28.0187 18.0247 29.4299 20.4456 30.2002 21.1047C31.325 22.0528 32.7687 22.5543 34.2494 22.511C36.3465 22.3553 35.6474 23.4633 35.046 23.6008Z" fill="url(#paint11_linear_207_23)"/>
<path d="M56.3679 20.1709C56.2754 20.1857 56.182 20.1944 56.0883 20.1968C55.9085 20.2018 55.7294 20.1727 55.5607 20.1112C54.7984 19.8258 54.8379 18.8917 54.9804 18.3857C55 18.318 55.0377 18.2567 55.0897 18.2083C55.1417 18.1599 55.206 18.1262 55.2758 18.1107L55.5238 18.0562C55.1149 17.4775 54.4001 16.7069 53.4135 16.4993C52.4645 16.336 51.5011 16.2682 50.5382 16.2969C49.0927 16.3082 47.6554 16.5106 46.2648 16.8989C43.8564 17.6203 39.2665 19.9348 38.1797 21.7563C37.0929 23.5778 37.1245 23.9255 37.2749 24.6806C37.4252 25.4356 38.1902 27.104 40.9073 27.5996C42.116 27.761 43.3364 27.8209 44.5555 27.7787C47.3912 27.7268 50.9814 27.3272 52.8358 26.1699C55.3154 24.6131 55.8509 23.5752 56.1701 22.8616C56.4658 21.9955 56.5339 21.0699 56.3679 20.1709ZM40.224 26.7045C37.9555 25.7833 37.4384 24.4055 38.2404 24.2758C39.1003 24.1357 38.7125 25.363 40.6698 26.227C42.6984 27.1196 48.5835 26.938 48.5835 26.938C48.5835 26.938 43.1996 27.911 40.224 26.7045Z" fill="url(#paint12_linear_207_23)"/>
<defs>
<linearGradient id="paint0_linear_207_23" x1="56.5342" y1="19.5091" x2="58.3762" y2="17.6365" gradientUnits="userSpaceOnUse">
<stop stop-color="#5BEBDC"/>
<stop offset="0.17" stop-color="#48B8D1"/>
<stop offset="0.38" stop-color="#3280C4"/>
<stop offset="0.58" stop-color="#2154BA"/>
<stop offset="0.75" stop-color="#1534B3"/>
<stop offset="0.9" stop-color="#0E21AF"/>
<stop offset="1" stop-color="#0B1AAD"/>
</linearGradient>
<linearGradient id="paint1_linear_207_23" x1="9.113" y1="25.9753" x2="12.068" y2="22.9711" gradientUnits="userSpaceOnUse">
<stop stop-color="#5BEBDC"/>
<stop offset="0.17" stop-color="#48B8D1"/>
<stop offset="0.38" stop-color="#3280C4"/>
<stop offset="0.58" stop-color="#2154BA"/>
<stop offset="0.75" stop-color="#1534B3"/>
<stop offset="0.9" stop-color="#0E21AF"/>
<stop offset="1" stop-color="#0B1AAD"/>
</linearGradient>
<linearGradient id="paint2_linear_207_23" x1="35.5577" y1="15.9204" x2="42.4251" y2="8.93885" gradientUnits="userSpaceOnUse">
<stop stop-color="#5BEBDC"/>
<stop offset="0.17" stop-color="#48B8D1"/>
<stop offset="0.38" stop-color="#3280C4"/>
<stop offset="0.58" stop-color="#2154BA"/>
<stop offset="0.75" stop-color="#1534B3"/>
<stop offset="0.9" stop-color="#0E21AF"/>
<stop offset="1" stop-color="#0B1AAD"/>
</linearGradient>
<linearGradient id="paint3_linear_207_23" x1="55.5081" y1="19.6257" x2="56.5873" y2="18.5259" gradientUnits="userSpaceOnUse">
<stop stop-color="#5BEBDC"/>
<stop offset="0.17" stop-color="#48B8D1"/>
<stop offset="0.38" stop-color="#3280C4"/>
<stop offset="0.58" stop-color="#2154BA"/>
<stop offset="0.75" stop-color="#1534B3"/>
<stop offset="0.9" stop-color="#0E21AF"/>
<stop offset="1" stop-color="#0B1AAD"/>
</linearGradient>
<linearGradient id="paint4_linear_207_23" x1="9.27388" y1="38.103" x2="17.4229" y2="29.8185" gradientUnits="userSpaceOnUse">
<stop stop-color="#5BEBDC"/>
<stop offset="0.17" stop-color="#48B8D1"/>
<stop offset="0.38" stop-color="#3280C4"/>
<stop offset="0.58" stop-color="#2154BA"/>
<stop offset="0.75" stop-color="#1534B3"/>
<stop offset="0.9" stop-color="#0E21AF"/>
<stop offset="1" stop-color="#0B1AAD"/>
</linearGradient>
<linearGradient id="paint5_linear_207_23" x1="3.04309" y1="60.8278" x2="18.4693" y2="45.145" gradientUnits="userSpaceOnUse">
<stop stop-color="#5BEBDC"/>
<stop offset="0.17" stop-color="#48B8D1"/>
<stop offset="0.38" stop-color="#3280C4"/>
<stop offset="0.58" stop-color="#2154BA"/>
<stop offset="0.75" stop-color="#1534B3"/>
<stop offset="0.9" stop-color="#0E21AF"/>
<stop offset="1" stop-color="#0B1AAD"/>
</linearGradient>
<linearGradient id="paint6_linear_207_23" x1="10.8804" y1="61.5437" x2="23.6682" y2="48.5459" gradientUnits="userSpaceOnUse">
<stop stop-color="#5BEBDC"/>
<stop offset="0.17" stop-color="#48B8D1"/>
<stop offset="0.38" stop-color="#3280C4"/>
<stop offset="0.58" stop-color="#2154BA"/>
<stop offset="0.75" stop-color="#1534B3"/>
<stop offset="0.9" stop-color="#0E21AF"/>
<stop offset="1" stop-color="#0B1AAD"/>
</linearGradient>
<linearGradient id="paint7_linear_207_23" x1="17.8972" y1="46.1441" x2="28.254" y2="35.6151" gradientUnits="userSpaceOnUse">
<stop stop-color="#5BEBDC"/>
<stop offset="0.17" stop-color="#48B8D1"/>
<stop offset="0.38" stop-color="#3280C4"/>
<stop offset="0.58" stop-color="#2154BA"/>
<stop offset="0.75" stop-color="#1534B3"/>
<stop offset="0.9" stop-color="#0E21AF"/>
<stop offset="1" stop-color="#0B1AAD"/>
</linearGradient>
<linearGradient id="paint8_linear_207_23" x1="29.0368" y1="58.9882" x2="41.4094" y2="46.4072" gradientUnits="userSpaceOnUse">
<stop stop-color="#5BEBDC"/>
<stop offset="0.17" stop-color="#48B8D1"/>
<stop offset="0.38" stop-color="#3280C4"/>
<stop offset="0.58" stop-color="#2154BA"/>
<stop offset="0.75" stop-color="#1534B3"/>
<stop offset="0.9" stop-color="#0E21AF"/>
<stop offset="1" stop-color="#0B1AAD"/>
</linearGradient>
<linearGradient id="paint9_linear_207_23" x1="36.5998" y1="57.6725" x2="47.1823" y2="46.914" gradientUnits="userSpaceOnUse">
<stop stop-color="#5BEBDC"/>
<stop offset="0.17" stop-color="#48B8D1"/>
<stop offset="0.38" stop-color="#3280C4"/>
<stop offset="0.58" stop-color="#2154BA"/>
<stop offset="0.75" stop-color="#1534B3"/>
<stop offset="0.9" stop-color="#0E21AF"/>
<stop offset="1" stop-color="#0B1AAD"/>
</linearGradient>
<linearGradient id="paint10_linear_207_23" x1="29.4854" y1="38.1782" x2="39.8215" y2="27.6703" gradientUnits="userSpaceOnUse">
<stop stop-color="#5BEBDC"/>
<stop offset="0.17" stop-color="#48B8D1"/>
<stop offset="0.38" stop-color="#3280C4"/>
<stop offset="0.58" stop-color="#2154BA"/>
<stop offset="0.75" stop-color="#1534B3"/>
<stop offset="0.9" stop-color="#0E21AF"/>
<stop offset="1" stop-color="#0B1AAD"/>
</linearGradient>
<linearGradient id="paint11_linear_207_23" x1="27.3144" y1="20.2251" x2="38.216" y2="9.14215" gradientUnits="userSpaceOnUse">
<stop stop-color="#5BEBDC"/>
<stop offset="0.17" stop-color="#48B8D1"/>
<stop offset="0.38" stop-color="#3280C4"/>
<stop offset="0.58" stop-color="#2154BA"/>
<stop offset="0.75" stop-color="#1534B3"/>
<stop offset="0.9" stop-color="#0E21AF"/>
<stop offset="1" stop-color="#0B1AAD"/>
</linearGradient>
<linearGradient id="paint12_linear_207_23" x1="40.749" y1="28.827" x2="53.4563" y2="15.9083" gradientUnits="userSpaceOnUse">
<stop stop-color="#5BEBDC"/>
<stop offset="0.17" stop-color="#48B8D1"/>
<stop offset="0.38" stop-color="#3280C4"/>
<stop offset="0.58" stop-color="#2154BA"/>
<stop offset="0.75" stop-color="#1534B3"/>
<stop offset="0.9" stop-color="#0E21AF"/>
<stop offset="1" stop-color="#0B1AAD"/>
</linearGradient>
</defs>
</svg>
