<svg width="40" height="40" viewBox="0 0 40 40" fill="none" xmlns="http://www.w3.org/2000/svg">
<path d="M24.3512 15.0502H24.2509L20.4641 15C20.2885 15 20.1882 15.0502 20.113 15.1755L20.0879 15.2257L18.7336 17.6082L18.3324 18.3354C18.3073 18.3605 18.3073 18.4107 18.3073 18.4608C18.3073 18.5611 18.3825 18.6113 18.508 18.6113H19.3857C19.5361 18.6364 19.6364 18.7618 19.5612 18.8872C19.5612 18.9122 19.5361 18.9373 19.5361 18.9373L18.1819 21.1944C18.1819 21.1944 18.1318 21.2445 18.1318 21.2696C18.0816 21.395 18.1568 21.4953 18.2822 21.5204H19.1851C19.3355 21.5455 19.4108 21.6708 19.3355 21.8213L19.3104 21.8966L18.2321 24.1285C18.2321 24.1285 18.207 24.1787 18.207 24.2038C18.1819 24.2539 18.207 24.279 18.2321 24.3041C18.2822 24.3292 18.3073 24.3292 18.3575 24.3041C18.3825 24.3041 18.4327 24.2539 18.4327 24.2539L22.4202 21.2947L22.4704 21.2445C22.5205 21.1944 22.5456 21.1191 22.5205 21.0439C22.4704 20.9937 22.3951 20.9436 22.3199 20.9436H21.6929C21.5173 20.9436 21.4421 20.8182 21.5173 20.6928C21.5173 20.6677 21.5424 20.6427 21.5675 20.6175L23.2728 18.6865L23.348 18.6113C23.4233 18.4859 23.348 18.3605 23.1976 18.3354H22.2446C22.0691 18.3103 21.9938 18.185 22.0691 18.0596C22.0691 18.0345 22.1192 17.9843 22.1192 17.9843L24.4264 15.3511C24.4417 15.3511 24.4477 15.3418 24.4557 15.3288C24.4608 15.3205 24.4668 15.3107 24.4766 15.3009C24.5518 15.2006 24.4766 15.0752 24.3512 15.0502Z" fill="black"/>
<path fill-rule="evenodd" clip-rule="evenodd" d="M0 15.0501H4.06269C6.92163 15.0501 9.02821 16.7053 9.02821 19.6645C9.02821 22.6238 6.89657 24.304 4.06269 24.304H0V15.0501ZM6.24448 19.6646C6.24448 18.4107 5.54228 17.4828 4.06267 17.4828H2.7586V21.8464H4.06267C5.44196 21.8464 6.24448 20.8182 6.24448 19.6646Z" fill="black"/>
<path fill-rule="evenodd" clip-rule="evenodd" d="M13.4421 21.4702L14.6459 24.279V24.304H17.7305L16.1005 21.0438C16.8277 20.6677 17.7305 19.8401 17.7305 18.2351C17.7305 16.4796 16.602 15.0501 14.4954 15.0501H9.68036V24.279H12.4139V21.4702H13.4421ZM14.069 17.4828C14.5455 17.4828 14.9718 17.7586 14.9718 18.3856C14.9718 19.0376 14.5455 19.3135 14.069 19.3135H12.4138V17.4828H14.069Z" fill="black"/>
<path d="M24.8527 24.279V15.0501H31.7242V17.4827H27.5863V18.7116H31.6239V21.1442H27.5863V24.279H24.8527Z" fill="black"/>
<path d="M34.8338 24.279V17.4827H32.4012V15.0501H40V17.4827H37.5924V24.279H34.8338Z" fill="black"/>
</svg>
