<svg width="40" height="40" viewBox="0 0 40 40" fill="none" xmlns="http://www.w3.org/2000/svg">
<path fill-rule="evenodd" clip-rule="evenodd" d="M7.58276 6.97679C8.82047 7.98238 9.28479 7.90566 11.6091 7.75057L33.5206 6.43488C33.9853 6.43488 33.5989 5.97127 33.4439 5.89423L29.8049 3.26348C29.1076 2.72213 28.1786 2.10217 26.3982 2.25726L5.18115 3.80476C4.40736 3.88148 4.25282 4.26837 4.56096 4.57847L7.58276 6.97679ZM8.89829 12.0833V35.1381C8.89829 36.3771 9.51746 36.8407 10.911 36.764L34.9919 35.3706C36.3862 35.2939 36.5415 34.4417 36.5415 33.4352V10.5351C36.5415 9.53019 36.1549 8.98829 35.3014 9.06564L10.1367 10.5351C9.20799 10.6131 8.89821 11.0777 8.89821 12.0833H8.89829ZM32.6708 13.32C32.8252 14.017 32.6708 14.7133 31.9725 14.7917L30.8123 15.0229V32.0434C29.8049 32.5848 28.8759 32.8944 28.1018 32.8944C26.8625 32.8944 26.5521 32.5072 25.6237 31.3474L18.0343 19.4329V30.9605L20.4359 31.5024C20.4359 31.5024 20.4359 32.8944 18.4983 32.8944L13.1568 33.2042C13.0016 32.8944 13.1568 32.1214 13.6986 31.9665L15.0925 31.5802V16.3385L13.1572 16.1834C13.0019 15.4864 13.3885 14.4814 14.4733 14.4035L20.2035 14.0172L28.1018 26.0868V15.4097L26.0881 15.1786C25.9335 14.3265 26.5521 13.7078 27.3265 13.6311L32.6708 13.32ZM3.39973 1.71598L25.4688 0.0907457C28.179 -0.141688 28.8763 0.0140245 30.5796 1.25135L37.6243 6.20276C38.7867 7.05421 39.1742 7.28602 39.1742 8.21419V35.3706C39.1742 37.0726 38.5542 38.0791 36.3865 38.2331L10.7577 39.7807C9.13049 39.8583 8.35607 39.6264 7.50392 38.5426L2.31608 31.8117C1.38658 30.5726 1 29.6457 1 28.5613V4.42283C1 3.03105 1.62019 1.87005 3.39973 1.71598V1.71598Z" fill="black"/>
</svg>
