<svg xmlns="http://www.w3.org/2000/svg" xml:space="preserve" viewBox="140 210 140 140"><path fill="#CA2317" d="m230.5 250 41.7-12.8-24.7 15.7z"/><path fill="#E84F83" d="m255.9 281.2-8.4-28.3 24.7-15.7-7.4 25.4z"/><path fill="#CA2317" d="m284.4 229.5-4.6 7.7-15 25.4 7.4-25.4z"/><path fill="#E54011" d="m285.9 234.5-11.6 11.9 5.5-9.2zm-52.9 7.6 34.1-3.4-23.7 7.3z"/><path fill="#CA2317" d="m234.3 261.4 13.2-8.5 8.4 28.3-4.4 9z"/><path fill="#B7DFF2" d="m214.6 295-6.3-77 43.2 72.2z"/><path fill="#E54011" d="m196.7 314.7 17.9-19.7 36.9-4.8z"/><path fill="#FFCE33" d="m109.7 353.4 87-38.7 17.9-19.7-28.4-2.9z"/><path fill="#D6B12D" d="m113 321.8 44.7-6.8 13.9-11.2-6.8-3z"/><path fill="#FFDE85" d="m129.1 285.3 42.5 18.5 14.6-11.7z"/><path fill="#009EC6" d="m205.1 245.9-5.4.9-13.5 45.3 14.6-9.2z"/><path fill="#5EAFCE" d="m213 275.1-12.2 7.8 7.5-64.9z"/><path fill="#045972" d="m166.9 252 38.2-6.1 1.7-15.1z"/><path fill="#5A8591" d="m162.8 216.6 33.2 20 10.8-5.8.3-2.1z"/><path fill="#009EC6" d="m169.3 194.8 30.2 31.8 7.6 2.1 1.2-10.7z"/><path fill="#F39804" d="m186.2 292.1 26.8-17 1.6 19.9z"/></svg>