<?xml version="1.0" encoding="utf-8"?>
<!-- Generator: Adobe Illustrator 18.1.0, SVG Export Plug-In . SVG Version: 6.00 Build 0)  -->
<!DOCTYPE svg PUBLIC "-//W3C//DTD SVG 1.1//EN" "http://www.w3.org/Graphics/SVG/1.1/DTD/svg11.dtd">
<svg version="1.1" id="Ebene_1"
	xmlns="http://www.w3.org/2000/svg"
	xmlns:xlink="http://www.w3.org/1999/xlink" x="0px" y="0px" viewBox="0 0 841.9 595.3" enable-background="new 0 0 841.9 595.3" xml:space="preserve">
	<g>
		<g>
			<path fill="#444A4F" d="M307.3,302.7l31.1-44.9c1.2-1.7,2.5-2.9,2.5-2.9v-0.2c0,0-1.7,0.3-3.4,0.3h-22.3v9.4h-7.4V248h43.5v5.6
			l-31.1,44.9c-1.2,1.7-2.5,2.9-2.5,2.9v0.2c0,0,1.7-0.3,3.4-0.3h23.6v-9.7h7.4v16.7h-44.8V302.7z"/>
			<path fill="#444A4F" d="M381.3,281.7h2.7v-1.6c0-6.8-3.9-9.2-9.2-9.2c-6.8,0-12.4,4.2-12.4,4.2l-3.3-5.9c0,0,6.3-5.1,16.4-5.1
			c11,0,16.8,5.7,16.8,16.7V300c0,1.3,0.7,1.9,1.9,1.9h4.4v6.4h-8.6c-3.8,0-5.4-1.9-5.4-4.7V303c0-1.7,0.3-2.8,0.3-2.8h-0.2
			c0,0-3.8,9.1-14.3,9.1c-7.2,0-14.4-4.2-14.4-13.1C356.1,282.7,374.1,281.7,381.3,281.7z M372.3,302.9c7.3,0,11.9-7.5,11.9-14v-1.8
			H382c-3.9,0-17.5,0.2-17.5,8.5C364.5,299.4,367.3,302.9,372.3,302.9z"/>
			<path fill="#444A4F" d="M404.8,301.9h6.8v-28.6c0-1.2-0.7-1.8-1.9-1.8h-5.3v-6.4h9.7c3.7,0,5.5,1.6,5.5,4.8v2.2
			c0,1.4-0.3,2.5-0.3,2.5h0.2c2.1-5.1,8.4-10.5,15.4-10.5c6.9,0,11.2,3.2,12.6,10.2h0.2c2.4-5.4,8.4-10.2,15.5-10.2
			c9.6,0,14.1,5.6,14.1,16.6v21.3h6.8v6.4H469v-25.9c0-6.1-1.1-10.9-7.6-10.9c-8.1,0-12.7,8.3-12.7,16.8v13.5h6.8v6.4h-15v-25.9
			c0-5.6-0.9-10.9-7.5-10.9c-8.2,0-13,8.7-13,17.2v13.2h6.8v6.4h-21.9V301.9z"/>
			<path fill="#444A4F" d="M490.3,301.9h6.8v-28.6c0-1.2-0.7-1.8-1.9-1.8h-5.3v-6.4h9.7c3.7,0,5.5,1.6,5.5,4.8v2.2
			c0,1.4-0.3,2.5-0.3,2.5h0.2c2.1-5.1,8.4-10.5,15.4-10.5c6.9,0,11.2,3.2,12.6,10.2h0.2c2.4-5.4,8.4-10.2,15.5-10.2
			c9.6,0,14.1,5.6,14.1,16.6v21.3h6.8v6.4h-15.1v-25.9c0-6.1-1.1-10.9-7.6-10.9c-8.1,0-12.7,8.3-12.7,16.8v13.5h6.8v6.4h-15v-25.9
			c0-5.6-0.9-10.9-7.5-10.9c-8.2,0-13,8.7-13,17.2v13.2h6.8v6.4h-21.9V301.9z"/>
			<path fill="#444A4F" d="M599.7,281.7h2.7v-1.6c0-6.8-3.9-9.2-9.2-9.2c-6.8,0-12.4,4.2-12.4,4.2l-3.3-5.9c0,0,6.3-5.1,16.4-5.1
			c11,0,16.8,5.7,16.8,16.7V300c0,1.3,0.7,1.9,1.9,1.9h4.4v6.4h-8.6c-3.8,0-5.4-1.9-5.4-4.7V303c0-1.7,0.3-2.8,0.3-2.8h-0.2
			c0,0-3.8,9.1-14.3,9.1c-7.2,0-14.4-4.2-14.4-13.1C574.4,282.7,592.5,281.7,599.7,281.7z M590.6,302.9c7.3,0,11.9-7.5,11.9-14v-1.8
			h-2.1c-3.9,0-17.5,0.2-17.5,8.5C582.8,299.4,585.6,302.9,590.6,302.9z"/>
			<path fill="#444A4F" d="M640.6,264c9.8,0,13.3,7.3,13.3,7.3h0.2c0,0-0.3-1.4-0.3-3.2v-13.7h-7.2V248h15.5v52
			c0,1.3,0.7,1.9,1.9,1.9h4.4v6.4h-8.6c-3.8,0-5.4-1.9-5.4-4.7V303c0-1.5,0.3-2.3,0.3-2.3h-0.2c0,0-3.5,8.6-14.6,8.6
			c-11.6,0-18.9-9.2-18.9-22.6C620.9,272.9,629,264,640.6,264z M641.6,302.1c6.4,0,12.5-4.6,12.5-15.4c0-7.9-4-15.5-12.2-15.5
			c-6.9,0-12.5,5.6-12.5,15.4C629.4,296.1,634.4,302.1,641.6,302.1z"/>
		</g>
		<g>
			<polygon fill="#CA2317" points="230.5,250 272.2,237.2 247.5,252.9 		"/>
			<polygon fill="#E84F83" points="255.9,281.2 247.5,252.9 272.2,237.2 264.8,262.6 		"/>
			<polygon fill="#CA2317" points="284.4,229.5 279.8,237.2 264.8,262.6 272.2,237.2 		"/>
			<polygon fill="#E54011" points="285.9,234.5 274.3,246.4 279.8,237.2 		"/>
			<polygon fill="#E54011" points="233,242.1 267.1,238.7 243.4,246 		"/>
			<polygon fill="#CA2317" points="234.3,261.4 247.5,252.9 255.9,281.2 251.5,290.2 		"/>
			<polygon fill="#B7DFF2" points="214.6,295 208.3,218 251.5,290.2 		"/>
			<polygon fill="#E54011" points="196.7,314.7 214.6,295 251.5,290.2 		"/>
			<polygon fill="#FFCE33" points="109.7,353.4 196.7,314.7 214.6,295 186.2,292.1 		"/>
			<polygon fill="#D6B12D" points="113,321.8 157.7,315 171.6,303.8 164.8,300.8 		"/>
			<polygon fill="#FFDE85" points="129.1,285.3 171.6,303.8 186.2,292.1 		"/>
			<polygon fill="#009EC6" points="205.1,245.9 199.7,246.8 186.2,292.1 200.8,282.9 		"/>
			<polygon fill="#5EAFCE" points="213,275.1 200.8,282.9 208.3,218 		"/>
			<polygon fill="#045972" points="166.9,252 205.1,245.9 206.8,230.8 		"/>
			<polygon fill="#5A8591" points="162.8,216.6 196,236.6 206.8,230.8 207.1,228.7 		"/>
			<polygon fill="#009EC6" points="169.3,194.8 199.5,226.6 207.1,228.7 208.3,218 		"/>
			<polygon fill="#F39804" points="186.2,292.1 213,275.1 214.6,295 		"/>
		</g>
	</g>
</svg>
