<svg width="251" height="153" viewBox="0 0 251 153" fill="none" xmlns="http://www.w3.org/2000/svg">
<g clip-path="url(#clip0_0_57)">
<path d="M218.229 42.8952L250.313 31.1926V0L211.473 30.0801C209.03 31.9414 207.528 33.792 207.528 36.5839C207.528 41.4083 212.219 45.1309 218.219 42.8952H218.229ZM207.528 151.149H228.164V52.7365H207.528V151.149ZM113.893 151.149H134.529V113.271H186.124V94.701H134.529C134.15 79.2866 144.657 70.0015 159.11 70.0015C166.991 70.0015 173.747 72.7828 178.817 76.3128L191.951 61.6471C182.384 54.5871 172.06 50.8752 159.672 50.8752C132.464 50.8752 113.893 68.6965 113.893 94.701V151.149ZM21.0144 91.5454C24.0195 78.1741 34.7104 70.0015 49.5308 70.0015C64.3511 70.0015 74.4907 78.1741 76.3608 91.5454H21.0144ZM97.5698 99.8998C97.5698 77.2435 81.0523 50.8752 49.5308 50.8752C21.771 50.8752 0 71.4884 0 101.194C0 130.9 21.9548 153 51.6063 153C69.9938 153 84.8141 144.271 94.5754 131.467L80.1335 119.764C72.9989 129.049 63.2485 133.874 51.0441 133.874C34.905 133.874 24.0195 124.77 21.0252 110.105H87.3977C93.7755 110.105 97.5914 107.131 97.5914 99.8891" fill="#F37021"/>
</g>
<defs>
<clipPath id="clip0_0_57">
<rect width="251" height="153" fill="white"/>
</clipPath>
</defs>
</svg>
