<?xml version="1.0" encoding="UTF-8"?>
<svg width="60px" height="60px" viewBox="0 0 60 60" version="1.1" xmlns="http://www.w3.org/2000/svg" xmlns:xlink="http://www.w3.org/1999/xlink">
    <title>slack_node_icon</title>
    <g id="slack_node_icon" stroke="none" stroke-width="1" fill="none" fill-rule="evenodd">
        <g id="slack-new-logo" fill-rule="nonzero">
            <path d="M21.8603963,-8.8817842e-16 C18.5645307,0.00245028207 15.897145,2.69285999 15.8995793,6.00809163 C15.897145,9.32332327 18.5669666,12.013733 21.8628323,12.0161833 L27.8260853,12.0161833 L27.8260853,6.01054191 C27.8285196,2.69531027 25.1586979,0.00490056413 21.8603963,-8.8817842e-16 C21.8628323,-8.8817842e-16 21.8628323,-8.8817842e-16 21.8603963,-8.8817842e-16 M21.8603963,16.0248447 L5.96326465,16.0248447 C2.66739901,16.027295 -0.00242267245,18.7177047 6.63903411e-06,22.0329363 C-0.00485864114,25.348168 2.66496304,28.0385777 5.96082868,28.0434783 L21.8603963,28.0434783 C25.1562619,28.041028 27.8260836,25.3506183 27.8236493,22.0353866 C27.8260836,18.7177047 25.1562619,16.027295 21.8603963,16.0248447 Z" id="Shape" fill="#36C5F0"></path>
            <path d="M59.782607,22.0329363 C59.7850415,18.7177047 57.1149861,16.027295 53.8188319,16.0248447 C50.5226777,16.027295 47.8526223,18.7177047 47.8550568,22.0329363 L47.8550568,28.0434783 L53.8188319,28.0434783 C57.1149861,28.041028 59.7850415,25.3506183 59.782607,22.0329363 Z M43.8816474,22.0329363 L43.8816474,6.00809163 C43.8840819,2.69531027 41.2164627,0.00490056413 37.9203085,1.77635684e-15 C34.6241543,0.00245028207 31.9540989,2.69285999 31.9565284,6.00809163 L31.9565284,22.0329363 C31.9516627,25.348168 34.6217181,28.0385777 37.9178723,28.0434783 C41.2140265,28.041028 43.8840819,25.3506183 43.8816474,22.0329363 Z" id="Shape" fill="#2EB67D"></path>
            <path d="M37.9197764,60 C41.2156421,59.9975499 43.8854637,57.3073753 43.8830294,53.9924333 C43.8854637,50.6774913 41.2156421,47.9873166 37.9197764,47.9848666 L31.9565234,47.9848666 L31.9565234,53.9924333 C31.9540891,57.3049252 34.6239108,59.9950999 37.9197764,60 Z M37.9197764,43.9741053 L53.819344,43.9741053 C57.1152097,43.9716552 59.7850314,41.2814805 59.7826021,37.9665385 C59.7874673,34.6515965 57.1176457,31.9614219 53.82178,31.9565217 L37.9222124,31.9565217 C34.6263468,31.9589718 31.9565251,34.6491465 31.9589594,37.9640885 C31.9565251,41.2814805 34.6239108,43.9716552 37.9197764,43.9741053 L37.9197764,43.9741053 Z" id="Shape" fill="#ECB22E"></path>
            <path d="M1.66349315e-06,37.9646134 C-0.0024328527,41.279845 2.66762257,43.9702547 5.96377676,43.972705 C9.25993095,43.9702547 11.9299864,41.279845 11.9275519,37.9646134 L11.9275519,31.9565217 L5.96377676,31.9565217 C2.66762257,31.958972 -0.0024328527,34.6493817 1.66349315e-06,37.9646134 Z M15.9009563,37.9646134 L15.9009563,53.9894581 C15.8960906,57.3046897 18.566146,59.9950994 21.8623002,60 C25.1584544,59.9975497 27.8285098,57.30714 27.8260803,53.9919084 L27.8260803,37.9695139 C27.830946,34.6542823 25.1608906,31.9638726 21.8647364,31.958972 C18.566146,31.958972 15.8985268,34.6493817 15.9009563,37.9646134 C15.9009563,37.9646134 15.9009563,37.9670637 15.9009563,37.9646134" id="Shape" fill="#E01E5A"></path>
        </g>
    </g>
</svg>