<svg xmlns="http://www.w3.org/2000/svg" viewBox="0 0 40 40"><path fill="#0004F5" fill-rule="evenodd" d="M40 20C40 8.953 31.047 0 20 0S0 8.953 0 20s8.953 20 20 20 20-8.953 20-20M20 36.946c-1.115 0-2.862-.979-4.5-4.247-.704-1.407-1.304-3.156-1.747-5.014H26.19c-.386 1.855-.986 3.605-1.69 5.014-1.638 3.268-3.385 4.247-4.5 4.247M12.906 20c0 1.61.103 3.164.294 4.63h13.6a36 36 0 0 0 .294-4.63c0-1.61-.103-3.164-.294-4.63H13.2a36 36 0 0 0-.294 4.63M20 3.054c1.115 0 2.862.977 4.5 4.246.707 1.414 1.307 3.107 1.692 5.015H13.75c.443-1.91 1.044-3.602 1.75-5.014 1.638-3.27 3.385-4.247 4.5-4.247M30.148 20c0-1.59-.094-3.138-.325-4.63h6.481c.421 1.472.642 3.026.642 4.63s-.22 3.158-.642 4.63h-6.481c.231-1.492.325-3.04.325-4.63M26.277 4.255c1.36 2.105 2.434 4.877 3.1 8.06h5.728a16.98 16.98 0 0 0-8.828-8.06m-15.654 8.06h-5.73c1.858-3.647 5-6.532 8.83-8.06-1.36 2.105-2.434 4.877-3.1 8.06M3.054 20c0 1.603.223 3.157.64 4.63h6.428a40 40 0 0 1-.27-4.63c0-1.594.094-3.142.27-4.63H3.695a17 17 0 0 0-.64 4.63m23.223 15.743c1.36-2.104 2.434-4.875 3.1-8.058h5.728a16.96 16.96 0 0 1-8.828 8.058m-12.554 0a17 17 0 0 1-8.83-8.058h5.73c.666 3.183 1.74 5.954 3.1 8.058" clip-rule="evenodd"/></svg>