<?xml version="1.0" encoding="UTF-8" standalone="no"?>
<!DOCTYPE svg PUBLIC "-//W3C//DTD SVG 1.1//EN" "http://www.w3.org/Graphics/SVG/1.1/DTD/svg11.dtd">
<svg width="100%" height="100%" viewBox="0 0 60 60" version="1.1" xmlns="http://www.w3.org/2000/svg" xmlns:xlink="http://www.w3.org/1999/xlink" xml:space="preserve" xmlns:serif="http://www.serif.com/" style="fill-rule:evenodd;clip-rule:evenodd;stroke-linejoin:round;stroke-miterlimit:2;">
    <g transform="matrix(1.81184,0,0,1.8024,-1.24034,-1.00134)">
        <g id="prefix__Price">
            <g>
                <g id="prefix__Pricing-04">
                    <g id="prefix__Header">
                        <g id="prefix__sevdesk-logo">
                            <path id="prefix__Shape" d="M1.5,0.6C2,0.5 2.6,0.6 3.2,0.6L32.5,0.6C33,0.6 33.5,0.9 33.7,1.4C33.8,2 33.8,2.5 33.8,3.1L33.8,32.6C33.8,33.1 33.5,33.7 33,33.8C32.5,33.9 32,33.8 31.6,33.8L2.1,33.8C1.4,33.9 0.8,33.2 0.9,32.6C0.7,22.3 0.7,12.1 0.7,1.8C0.6,1.3 1,0.8 1.5,0.6Z" style="fill:rgb(216,15,22);fill-rule:nonzero;"/>
                            <path id="prefix__Shape_2_" d="M23,7.9L26.5,7.9L26.5,27.3L23.1,27.3C23,20.8 23,14.3 23,7.9ZM15.5,14.3L15.5,27.4L19,27.4L19,14.3L15.5,14.3ZM8.1,20.8L8.1,27.3L11.6,27.3L11.6,20.8L8.1,20.8Z" style="fill:white;fill-rule:nonzero;"/>
                        </g>
                    </g>
                </g>
            </g>
        </g>
    </g>
</svg>
