<svg xmlns="http://www.w3.org/2000/svg" width="60" height="60"><g fill="none" fill-rule="evenodd" stroke-linecap="round" stroke-linejoin="round"><path fill="#E24329" d="m30.5 56.967 10.863-33.203H19.637z"/><path fill="#FC6D26" d="M30.5 56.967 19.637 23.764H4.41z"/><path fill="#FCA326" d="M4.41 23.764 1.11 33.86c-.3.92.03 1.928.817 2.496L30.5 56.967z"/><path fill="#E24329" d="M4.41 23.764h15.226L13.093 3.781c-.336-1.029-1.802-1.029-2.139 0z"/><path fill="#FC6D26" d="m30.5 56.967 10.863-33.203H56.59z"/><path fill="#FCA326" d="m56.59 23.764 3.3 10.086a2.22 2.22 0 0 1-.817 2.497L30.5 56.967z"/><path fill="#E24329" d="M56.59 23.764H41.362l6.544-19.992c.336-1.03 1.802-1.03 2.139 0l6.543 19.992z"/></g></svg>