<svg width="60" height="60" xmlns="http://www.w3.org/2000/svg"><g fill="none" fill-rule="evenodd" stroke-linecap="round" stroke-linejoin="round"><path fill="#E24329" d="M30.5 56.967l10.863-33.203H19.637z"/><path fill="#FC6D26" d="M30.5 56.967L19.637 23.764H4.41z"/><path d="M4.41 23.764L1.11 33.86c-.3.92.03 1.928.817 2.496L30.5 56.967 4.41 23.764z" fill="#FCA326"/><path d="M4.41 23.764h15.226L13.093 3.781c-.336-1.029-1.802-1.029-2.139 0L4.411 23.764z" fill="#E24329"/><path fill="#FC6D26" d="M30.5 56.967l10.863-33.203H56.59z"/><path d="M56.59 23.764l3.3 10.086a2.224 2.224 0 01-.817 2.497L30.5 56.967l26.09-33.203z" fill="#FCA326"/><path d="M56.59 23.764H41.362l6.544-19.992c.336-1.03 1.802-1.03 2.139 0l6.543 19.992z" fill="#E24329"/></g></svg>