<svg width="28" height="28" viewBox="0 0 28 28" fill="none" xmlns="http://www.w3.org/2000/svg">
  <path d="M4.1101 17.5712H0.7739C0.3513 17.5712 0 17.9226 0 18.3451V27.371C0 27.7936 0.3513 28.145 0.7739 28.145H12.6905C13.3518 28.145 13.7031 27.3086 13.2758 26.777L4.6441 17.7511C4.5024 17.6303 4.3309 17.5712 4.1101 17.5712Z" fill="#01D9C1"/>
  <path d="M21.8977 0.2108L9.9168 12.3108C9.6278 12.5998 9.5916 13.1009 9.8806 13.3899L23.2063 27.7601C23.348 27.9018 23.5688 27.9709 23.7896 27.9709H27.0856C27.5081 27.9709 27.8594 27.6196 27.8594 27.197V0.7746C27.8594 0.352 27.5081 0 27.0856 0H22.4579C22.2371 0 22.0163 0.0703 21.8977 0.2108Z" fill="#01D9C1"/>
  <path d="M0 0.7746V10.1818C0 10.6044 0.3513 10.9557 0.7739 10.9557H1.8971C2.1179 10.9557 2.3387 10.8854 2.4573 10.7449L11.7016 1.3347C12.1925 0.8438 11.8412 0 11.3877 0H0.7739C0.3513 0 0 0.352 0 0.7746Z" fill="#01D9C1"/>
</svg>

