<svg xmlns="http://www.w3.org/2000/svg" xmlns:xlink="http://www.w3.org/1999/xlink" viewBox="0 0 65.006 55.006" fill="#fff" fill-rule="evenodd" stroke="#000" stroke-linecap="round" stroke-linejoin="round"><use xlink:href="#A" x=".503" y=".503"/><symbol id="A" overflow="visible"><g stroke="none"><path d="M50.667 5.333h3.723a1.6 1.6 0 0 1 1.6 1.6V46.38a1.6 1.6 0 0 1-1.6 1.6h-3.723zm8 5.333h3.723a1.6 1.6 0 0 1 1.6 1.6v28.78a1.6 1.6 0 0 1-1.6 1.61h-3.723zM0 1.6C0 .714.714 0 1.6 0h44.8c.886 0 1.6.714 1.6 1.6v50.133c0 .886-.714 1.6-1.6 1.6H1.6c-.886 0-1.6-.714-1.6-1.6z" fill="#21b573" fill-rule="nonzero"/><path d="M11.2 8.533h24.624c.227 0 .428.143.503.357s.007.452-.17.593L11.533 29.182c-.16.128-.379.153-.564.064s-.302-.276-.302-.481V9.056c0-.295.239-.533.533-.533zm-.533 32.024v-8.252c0-.164.075-.319.204-.42l7.173-5.63c.094-.074.21-.114.329-.114h13.036c.234 0 .44.152.509.375s-.015.466-.208.598L11.502 40.996c-.163.112-.375.124-.55.032s-.285-.274-.285-.472zm.228 3.095l7.467-5.203c.163-.114.376-.127.552-.035s.287.274.287.473v5.42c0 .295-.239.533-.533.533H11.17c-.136 0-.267-.054-.364-.15s-.151-.228-.15-.364v-.236c0-.175.085-.338.228-.438z" fill-rule="nonzero"/></g></symbol></svg>