<svg xmlns="http://www.w3.org/2000/svg" xmlns:xlink="http://www.w3.org/1999/xlink" fill="#fff" fill-rule="evenodd" stroke="#000" stroke-linecap="round" stroke-linejoin="round" viewBox="0 0 65.006 55.006"><use xlink:href="#a" x=".503" y=".503"/><symbol id="a" overflow="visible"><g fill-rule="nonzero" stroke="none"><path fill="#21b573" d="M50.667 5.333h3.723a1.6 1.6 0 0 1 1.6 1.6V46.38a1.6 1.6 0 0 1-1.6 1.6h-3.723zm8 5.333h3.723a1.6 1.6 0 0 1 1.6 1.6v28.78a1.6 1.6 0 0 1-1.6 1.61h-3.723zM0 1.6C0 .714.714 0 1.6 0h44.8c.886 0 1.6.714 1.6 1.6v50.133c0 .886-.714 1.6-1.6 1.6H1.6c-.886 0-1.6-.714-1.6-1.6z"/><path d="M11.2 8.533h24.624a.532.532 0 0 1 .333.95L11.533 29.182a.533.533 0 0 1-.866-.417V9.056c0-.295.239-.533.533-.533zm-.533 32.024v-8.252c0-.164.075-.319.204-.42l7.173-5.63a.53.53 0 0 1 .329-.114h13.036a.532.532 0 0 1 .301.973L11.502 40.996a.533.533 0 0 1-.835-.44zm.228 3.095 7.467-5.203a.533.533 0 0 1 .839.438v5.42a.533.533 0 0 1-.533.533H11.17a.51.51 0 0 1-.514-.514v-.236c0-.175.085-.338.228-.438z"/></g></symbol></svg>