<svg xmlns="http://www.w3.org/2000/svg" xmlns:xlink="http://www.w3.org/1999/xlink" fill="#fff" fill-rule="evenodd" stroke="#000" stroke-linecap="round" stroke-linejoin="round" viewBox="0 -30 100 100"><use xlink:href="#a" x=".5" y=".5"/><defs><linearGradient id="b" x1="50%" x2="50%" y1="1.43%" y2="96.98%"><stop offset=".562%" stop-color="#ffe513"/><stop offset="100%" stop-color="#fdb924"/></linearGradient><linearGradient id="c" x1="4.51%" x2="95.67%" y1="13.49%" y2="87.06%"><stop offset=".562%" stop-color="#008cd2"/><stop offset="100%" stop-color="#00649d"/></linearGradient><linearGradient id="d" x1="50%" x2="50%" y1="27.78%" y2="97.53%"><stop offset="0%" stop-color="#26a146"/><stop offset="100%" stop-color="#008a52"/></linearGradient><linearGradient id="e" x1="43.73%" x2="57.54%" y1="8.21%" y2="93.2%"><stop offset="0%" stop-color="#d92231"/><stop offset="100%" stop-color="#ba2234"/></linearGradient></defs><symbol id="a" overflow="visible"><g fill-rule="nonzero" stroke="none"><path fill="#e79225" d="M102.964 7.581v24.414l-3.379 3.298V11.402z"/><path fill="#fff16d" d="m80.822 7.601-3.499 3.801.181.241 21.94-.08.201-.161 3.318-3.821z"/><path fill="url(#b)" d="M77.323 11.402h22.322v23.911H77.323z"/><path d="M96.246 20.009a8.8 8.8 0 0 0-1.971-2.976c-.825-.845-1.749-1.488-2.795-1.91-1.026-.422-2.132-.643-3.338-.643s-2.333.221-3.358.643c-1.046.422-1.971 1.066-2.795 1.91-.865.865-1.508 1.87-1.951 2.976s-.644 2.313-.644 3.64a9.8 9.8 0 0 0 .664 3.62 8.95 8.95 0 0 0 1.951 3.017c.804.825 1.73 1.448 2.755 1.87s2.172.644 3.399.644c1.186 0 2.293-.221 3.318-.644s1.971-1.046 2.795-1.87c.865-.885 1.528-1.89 1.971-2.996s.664-2.333.664-3.62c0-1.347-.221-2.554-.664-3.66zm-4.605 7.883c-.865 1.026-2.011 1.549-3.499 1.549s-2.655-.523-3.519-1.549-1.287-2.453-1.287-4.263c0-1.85.442-3.278 1.287-4.324.865-1.046 2.011-1.549 3.519-1.549 1.488 0 2.634.523 3.499 1.549.845 1.046 1.287 2.474 1.287 4.324 0 1.81-.422 3.238-1.287 4.263"/><path fill="#009ada" d="M75.131 5.591v.121l2.856 21.94-1.669 4.625-.221-.161-2.936-21.035.06-.281 1.83-5.088z"/><path fill="#91c9ed" d="m53.151 8.648 21.98-3.057-1.85 5.269-.261.282-20.552 3.017.101-3.761z"/><path fill="url(#c)" d="m73.281 10.859 3.037 21.417-21.659 3.037-2.916-20.693 1.267-.985z"/><path d="M69.601 14.962c-.101-.664-.322-1.166-.684-1.508a1.6 1.6 0 0 0-1.086-.402c-.1 0-.221 0-.342.02-.563.081-.985.342-1.247.764-.201.302-.281.684-.281 1.126 0 .161.02.342.04.523l.784 5.57-6.234.925-.784-5.57c-.1-.644-.322-1.146-.684-1.488a1.52 1.52 0 0 0-1.066-.422c-.101 0-.201 0-.302.02-.583.081-1.026.342-1.307.764-.201.302-.282.684-.282 1.126 0 .161.02.342.04.543l2.132 14.499c.1.664.322 1.166.724 1.508.302.261.664.382 1.106.382.121 0 .241 0 .362-.02.543-.081.945-.342 1.207-.764.181-.302.261-.664.261-1.086 0-.161-.02-.342-.04-.523l-.865-5.731 6.234-.925.865 5.731c.1.664.322 1.166.704 1.488a1.6 1.6 0 0 0 1.086.402c.101 0 .221 0 .342-.02.563-.081.985-.342 1.247-.764.181-.302.282-.664.282-1.106 0-.161-.02-.342-.04-.523z"/><path fill="#66bf6b" d="m32.578 0-7.823 18.582 1.066 8.165.06-.02 8.788-19.768-.04-.422-1.89-6.274z"/><path fill="#98d0a0" d="m32.578 0 2.071 6.958 19.346 8.667.06-.04-1.649-6.516z"/><path fill="url(#d)" d="m34.609 6.817 19.446 8.768-8.788 19.929-19.446-8.768z"/><path d="M48.164 17.194c-.422-1.126-1.005-2.091-1.77-2.896a8.2 8.2 0 0 0-2.775-1.911 8.3 8.3 0 0 0-3.278-.684h-.06c-1.126 0-2.232.261-3.318.744a8.9 8.9 0 0 0-2.976 2.091c-.845.885-1.528 1.971-2.051 3.218a10.8 10.8 0 0 0-.865 3.7v.422a9.2 9.2 0 0 0 .563 3.197c.402 1.106.985 2.051 1.75 2.856s1.709 1.448 2.836 1.91a8.1 8.1 0 0 0 3.258.684h.02c1.106 0 2.212-.241 3.298-.704a9 9 0 0 0 2.996-2.111c.845-.885 1.548-1.951 2.071-3.198s.804-2.474.865-3.7v-.362a8.7 8.7 0 0 0-.563-3.258zm-3.881 5.792c-.724 1.73-1.709 2.916-2.896 3.56-.644.342-1.307.523-1.971.523-.583 0-1.206-.141-1.83-.402-1.367-.583-2.212-1.508-2.574-2.835a5.3 5.3 0 0 1-.181-1.388c0-.965.241-2.031.724-3.177.744-1.77 1.73-2.976 2.916-3.64a3.97 3.97 0 0 1 1.971-.523c.603 0 1.207.141 1.85.402 1.347.583 2.192 1.508 2.554 2.835.121.422.181.885.181 1.367 0 1.006-.241 2.091-.744 3.278"/><path fill="#760d16" d="m23.207 3.157 3.177 21.276-1.448 7.481-.201-.261-3.097-20.552v-.402l1.367-7.179z"/><path fill="#ef463e" d="m0 14.157 1.508-7.521 21.699-3.479-1.468 7.662v.503L.261 14.358z"/><path fill="url(#e)" d="m21.739 10.819 3.197 21.095-21.477 3.358L0 14.157z"/><path d="M19.427 28.556c-.161-.201-.402-.342-.684-.442s-.623-.141-1.046-.141c-.382 0-.824.04-1.307.121l-5.671.965c.06-.443.282-1.006.664-1.709.422-.784 1.066-1.73 1.89-2.815l.664-.865.463-.583c1.307-1.709 2.091-3.097 2.413-4.183a8.7 8.7 0 0 0 .322-1.87c.02-.181.02-.342.02-.503a7.4 7.4 0 0 0-.121-1.327c-.06-.402-.161-.724-.302-.985s-.302-.463-.503-.583c-.221-.141-.563-.201-.985-.201q-.513 0-1.267.121L7.421 14.68c-.784.141-1.388.362-1.75.724a1.38 1.38 0 0 0-.442 1.046 2 2 0 0 0 .02.342c.101.563.382.965.845 1.166.282.121.603.181 1.005.181.261 0 .563-.02.885-.08l5.47-.965c0 .101.02.201.02.282a2.9 2.9 0 0 1-.181 1.005c-.161.463-.563 1.106-1.227 1.931l-.845 1.046c-1.488 1.79-2.534 3.318-3.177 4.585a10 10 0 0 0-.945 2.594 7.2 7.2 0 0 0-.161 1.428c0 .322.02.643.081.945.08.442.181.804.322 1.086s.342.503.563.623.523.161.965.161q.814 0 2.232-.241l5.953-1.026c1.046-.181 1.79-.442 2.212-.784a1.39 1.39 0 0 0 .523-1.106c0-.121-.02-.241-.04-.362a1.33 1.33 0 0 0-.322-.704z"/></g></symbol></svg>