<svg xmlns="http://www.w3.org/2000/svg" xmlns:xlink="http://www.w3.org/1999/xlink" viewBox="0 -30 100 100" fill="#fff" fill-rule="evenodd" stroke="#000" stroke-linecap="round" stroke-linejoin="round"><use xlink:href="#E" x=".5" y=".5"/><defs><linearGradient x1="50.00%" y1="1.43%" x2="50.00%" y2="96.98%" id="A"><stop stop-color="#ffe513" offset=".5618%"/><stop stop-color="#fdb924" offset="100%"/></linearGradient><linearGradient x1="4.51%" y1="13.49%" x2="95.67%" y2="87.06%" id="B"><stop stop-color="#008cd2" offset=".5618%"/><stop stop-color="#00649d" offset="100%"/></linearGradient><linearGradient x1="50.00%" y1="27.78%" x2="50.00%" y2="97.53%" id="C"><stop stop-color="#26a146" offset="0%"/><stop stop-color="#008a52" offset="100%"/></linearGradient><linearGradient x1="43.73%" y1="8.21%" x2="57.54%" y2="93.20%" id="D"><stop stop-color="#d92231" offset="0%"/><stop stop-color="#ba2234" offset="100%"/></linearGradient></defs><symbol id="E" overflow="visible"><g stroke="none" fill-rule="nonzero"><path d="M102.964 7.581v24.414l-3.379 3.298V11.402z" fill="#e79225"/><path d="M80.822 7.601l-3.499 3.801.181.241 21.94-.08.201-.161 3.318-3.821z" fill="#fff16d"/><path d="M77.323 11.402h22.322v23.911H77.323z" fill="url(#A)"/><path d="M96.246 20.009a8.84 8.84 0 0 0-1.971-2.976c-.825-.845-1.749-1.488-2.795-1.91-1.026-.422-2.132-.643-3.338-.643s-2.333.221-3.358.643c-1.046.422-1.971 1.066-2.795 1.91-.865.865-1.508 1.87-1.951 2.976s-.644 2.313-.644 3.64c0 1.287.221 2.494.664 3.62a8.95 8.95 0 0 0 1.951 3.017c.804.825 1.73 1.448 2.755 1.87s2.172.644 3.399.644c1.186 0 2.293-.221 3.318-.644s1.971-1.046 2.795-1.87c.865-.885 1.528-1.89 1.971-2.996s.664-2.333.664-3.62c0-1.347-.221-2.554-.664-3.66zm-4.605 7.883c-.865 1.026-2.011 1.549-3.499 1.549s-2.655-.523-3.519-1.549-1.287-2.453-1.287-4.263c0-1.85.442-3.278 1.287-4.324.865-1.046 2.011-1.549 3.519-1.549 1.488 0 2.634.523 3.499 1.549.845 1.046 1.287 2.474 1.287 4.324 0 1.81-.422 3.238-1.287 4.263z"/><path d="M75.131 5.591v.121l2.856 21.94-1.669 4.625-.221-.161-2.936-21.035.06-.281 1.83-5.088z" fill="#009ada"/><path d="M53.151 8.648l21.98-3.057-1.85 5.269-.261.282-20.552 3.017.101-3.761z" fill="#91c9ed"/><path d="M73.281 10.859l3.037 21.417-21.659 3.037-2.916-20.693 1.267-.985z" fill="url(#B)"/><path d="M69.601 14.962c-.101-.664-.322-1.166-.684-1.508a1.61 1.61 0 0 0-1.086-.402c-.1 0-.221 0-.342.02-.563.081-.985.342-1.247.764-.201.302-.281.684-.281 1.126 0 .161.02.342.04.523l.784 5.57-6.234.925-.784-5.57c-.1-.644-.322-1.146-.684-1.488a1.52 1.52 0 0 0-1.066-.422c-.101 0-.201 0-.302.02-.583.081-1.026.342-1.307.764-.201.302-.282.684-.282 1.126 0 .161.02.342.04.543l2.132 14.499c.1.664.322 1.166.724 1.508.302.261.664.382 1.106.382.121 0 .241 0 .362-.02.543-.081.945-.342 1.207-.764.181-.302.261-.664.261-1.086 0-.161-.02-.342-.04-.523l-.865-5.731 6.234-.925.865 5.731c.1.664.322 1.166.704 1.488a1.61 1.61 0 0 0 1.086.402c.101 0 .221 0 .342-.02.563-.081.985-.342 1.247-.764.181-.302.282-.664.282-1.106 0-.161-.02-.342-.04-.523z"/><path d="M32.578 0l-7.823 18.582 1.066 8.165.06-.02 8.788-19.768-.04-.422-1.89-6.274z" fill="#66bf6b"/><path d="M32.578 0l2.071 6.958 19.346 8.667.06-.04-1.649-6.516z" fill="#98d0a0"/><path d="M34.609 6.817l19.446 8.768-8.788 19.929-19.446-8.768z" fill="url(#C)"/><path d="M48.164 17.194c-.422-1.126-1.005-2.091-1.77-2.896a8.24 8.24 0 0 0-2.775-1.911c-1.086-.463-2.172-.684-3.278-.684h-.06c-1.126 0-2.232.261-3.318.744-1.146.503-2.132 1.187-2.976 2.091-.845.885-1.528 1.971-2.051 3.218-.523 1.227-.804 2.474-.865 3.7v.422a9.24 9.24 0 0 0 .563 3.197c.402 1.106.985 2.051 1.75 2.856s1.709 1.448 2.836 1.91a8.1 8.1 0 0 0 3.258.684h.02c1.106 0 2.212-.241 3.298-.704 1.146-.503 2.152-1.207 2.996-2.111.845-.885 1.548-1.951 2.071-3.198s.804-2.474.865-3.7v-.362c.02-1.106-.161-2.192-.563-3.258zm-3.881 5.792c-.724 1.73-1.709 2.916-2.896 3.56-.644.342-1.307.523-1.971.523-.583 0-1.206-.141-1.83-.402-1.367-.583-2.212-1.508-2.574-2.835a5.25 5.25 0 0 1-.181-1.388c0-.965.241-2.031.724-3.177.744-1.77 1.73-2.976 2.916-3.64.644-.362 1.307-.523 1.971-.523.603 0 1.207.141 1.85.402 1.347.583 2.192 1.508 2.554 2.835.121.422.181.885.181 1.367 0 1.006-.241 2.091-.744 3.278z"/><path d="M23.207 3.157l3.177 21.276-1.448 7.481-.201-.261-3.097-20.552v-.402l1.367-7.179z" fill="#760d16"/><path d="M0 14.157l1.508-7.521 21.699-3.479-1.468 7.662v.503L.261 14.358z" fill="#ef463e"/><path d="M21.739 10.819l3.197 21.095-21.477 3.358L0 14.157z" fill="url(#D)"/><path d="M19.427 28.556c-.161-.201-.402-.342-.684-.442s-.623-.141-1.046-.141c-.382 0-.824.04-1.307.121l-5.671.965c.06-.443.282-1.006.664-1.709.422-.784 1.066-1.73 1.89-2.815l.664-.865.463-.583c1.307-1.709 2.091-3.097 2.413-4.183.181-.623.282-1.247.322-1.87.02-.181.02-.342.02-.503a7.4 7.4 0 0 0-.121-1.327c-.06-.402-.161-.724-.302-.985s-.302-.463-.503-.583c-.221-.141-.563-.201-.985-.201-.342 0-.764.04-1.267.121L7.421 14.68c-.784.141-1.388.362-1.75.724-.302.281-.442.643-.442 1.046a2.07 2.07 0 0 0 .02.342c.101.563.382.965.845 1.166.282.121.603.181 1.005.181.261 0 .563-.02.885-.08l5.47-.965c0 .101.02.201.02.282a2.87 2.87 0 0 1-.181 1.005c-.161.463-.563 1.106-1.227 1.931l-.845 1.046c-1.488 1.79-2.534 3.318-3.177 4.585-.462.885-.764 1.729-.945 2.594a7.23 7.23 0 0 0-.161 1.428c0 .322.02.643.081.945.08.442.181.804.322 1.086s.342.503.563.623.523.161.965.161c.543 0 1.287-.08 2.232-.241l5.953-1.026c1.046-.181 1.79-.442 2.212-.784a1.39 1.39 0 0 0 .523-1.106c0-.121-.02-.241-.04-.362-.04-.261-.141-.503-.322-.704z"/></g></symbol></svg>
