<svg width="40" height="40" viewBox="0 0 40 40" fill="none" xmlns="http://www.w3.org/2000/svg">
<rect width="40" height="40" rx="8" fill="#76B900"/>
<path d="M20 10C14.477 10 10 14.477 10 20C10 25.523 14.477 30 20 30C25.523 30 30 25.523 30 20C30 14.477 25.523 10 20 10ZM20 27C16.134 27 13 23.866 13 20C13 16.134 16.134 13 20 13C23.866 13 27 16.134 27 20C27 23.866 23.866 27 20 27Z" fill="white"/>
<path d="M20 15C17.239 15 15 17.239 15 20C15 22.761 17.239 25 20 25C22.761 25 25 22.761 25 20C25 17.239 22.761 15 20 15Z" fill="white"/>
<path d="M20 18C18.895 18 18 18.895 18 20C18 21.105 18.895 22 20 22C21.105 22 22 21.105 22 20C22 18.895 21.105 18 20 18Z" fill="white"/>
</svg>
