<svg version="1.1" id="Layer_1" xmlns="http://www.w3.org/2000/svg" xmlns:xlink="http://www.w3.org/1999/xlink" x="0px" y="0px"
	 width="100%" viewBox="0 0 100 100" enable-background="new 0 0 100 100" xml:space="preserve">
<path fill="#FCFDFE" opacity="1.000000" stroke="none" 
	d="
M1.000000,40.000000 
	C1.000000,26.666670 1.000000,13.833341 1.000000,1.000009 
	C34.333321,1.000006 67.666641,1.000006 100.999969,1.000003 
	C100.999985,34.333309 100.999985,67.666618 100.999992,100.999954 
	C67.666702,100.999969 34.333401,100.999969 1.000051,100.999985 
	C1.000000,80.833336 1.000000,60.666668 1.000000,40.000000 
M56.342152,79.856544 
	C56.416695,79.755081 56.576164,79.600754 56.551460,79.561066 
	C56.427353,79.361687 56.255119,79.192284 55.871872,78.708153 
	C55.871872,78.708153 55.825962,78.330833 55.888264,77.596443 
	C52.990768,75.031036 50.093273,72.465637 47.060024,69.912842 
	C47.060024,69.912842 47.071457,69.776993 46.881878,69.407219 
	C46.710537,69.176880 46.488350,69.017349 46.084850,68.943497 
	C46.084850,68.943497 46.094414,68.812538 46.046864,68.075928 
	C45.719753,65.110214 44.173763,63.606754 41.014313,63.968826 
	C41.014313,63.968826 41.043636,63.893284 40.854927,63.472050 
	C40.668468,63.206036 40.415897,63.041512 39.551445,62.949245 
	C39.371334,62.976639 39.191219,63.004028 38.430969,63.485252 
	C37.591259,65.471100 38.568901,69.065277 33.988548,67.987144 
	C33.988548,60.453205 34.097500,52.822067 33.888351,45.199665 
	C33.850601,43.823826 32.505470,42.483860 30.858742,41.145607 
	C25.592796,41.113838 20.326849,41.082069 14.561807,41.166157 
	C14.383913,41.443581 14.206018,41.721008 14.011209,42.010822 
	C14.011209,42.010822 14.016043,42.031284 13.350185,42.100113 
	C13.551612,43.066898 13.753038,44.033688 14.100863,45.661514 
	C14.048918,46.107040 13.996973,46.552567 13.163200,47.187229 
	C12.805600,47.704609 12.140025,48.219582 12.135962,48.739723 
	C12.057961,58.724815 12.012261,68.711044 12.130646,78.695023 
	C12.139736,79.461586 13.419478,80.213074 14.295739,81.222038 
	C14.295739,81.222038 14.234410,81.528603 14.094855,82.309334 
	C14.727715,83.207085 15.360576,84.104828 16.000229,85.000000 
	C16.000229,85.000000 15.996693,85.006866 15.993590,85.778748 
	C17.356329,86.488068 18.719067,87.197395 20.014751,87.947319 
	C20.014751,87.947319 20.085136,87.894737 20.196407,88.706543 
	C23.813059,89.135567 27.461128,90.078613 31.038198,89.859993 
	C35.253784,89.602341 37.950970,90.635780 39.057484,95.093918 
	C39.057484,95.093918 39.089653,95.327156 39.415409,95.710762 
	C39.914547,95.420097 40.413685,95.129433 40.942421,94.924103 
	C40.942421,94.924103 40.853294,94.909485 41.388828,94.737000 
	C41.560795,94.417747 41.732761,94.098495 42.049744,93.364334 
	C42.224728,93.104965 42.467045,92.952873 43.329781,92.750832 
	C43.522972,92.434059 43.716164,92.117287 44.078381,91.377296 
	C44.272602,91.117874 44.530922,90.971817 45.374317,90.781433 
	C45.559982,90.481857 45.745651,90.182281 45.967567,89.969330 
	C45.967567,89.969330 45.882526,89.929504 46.393181,89.777649 
	C46.576927,89.485680 46.760670,89.193710 46.980812,88.980988 
	C46.980812,88.980988 46.901855,88.943939 47.404305,88.781731 
	C47.584702,88.490906 47.765099,88.200081 47.986225,87.986771 
	C47.986225,87.986771 47.909054,87.945404 48.410160,87.779388 
	C48.588284,87.487106 48.766403,87.194832 48.981487,86.981895 
	C48.981487,86.981895 48.902760,86.943649 49.401962,86.793945 
	C49.591736,86.514305 49.781509,86.234665 49.999725,86.000023 
	C49.999725,86.000023 49.955135,85.970917 50.436172,85.801178 
	C50.616291,85.522461 50.796413,85.243744 50.999897,85.000633 
	C50.999897,85.000633 50.964821,84.976318 51.444157,84.804276 
	C51.622726,84.525146 51.801292,84.246017 52.000446,84.000610 
	C52.000446,84.000610 51.966919,83.979713 52.439915,83.816826 
	C52.738331,83.627174 52.924778,83.359520 52.998280,82.997673 
	C52.998280,82.997673 53.014507,82.999603 53.473083,82.818932 
	C53.760830,82.622520 53.936222,82.352989 53.998989,81.998474 
	C53.998989,81.998474 54.010979,81.999657 54.470005,81.835312 
	C54.758747,81.649422 54.942703,81.389389 55.001148,81.000862 
	C55.001148,81.000862 55.055511,81.021576 55.502796,80.817581 
	C55.783443,80.609367 55.941902,80.331467 56.000000,79.999084 
	C56.000000,79.999084 55.980946,79.978828 56.342152,79.856544 
M83.792610,74.553474 
	C83.506020,74.378578 83.219437,74.203690 82.330154,73.749649 
	C77.509598,68.918091 72.689049,64.086540 67.974190,58.669743 
	C67.986580,58.471893 67.998970,58.274048 68.633064,57.731182 
	C70.006996,57.140465 71.414268,56.616371 72.749527,55.948349 
	C82.255402,51.192638 87.795181,40.970177 86.880081,29.939856 
	C86.012741,19.485085 79.573471,11.017166 69.573326,7.384721 
	C67.486588,6.906941 65.403961,6.036073 63.312447,6.014162 
	C47.902836,5.852726 32.491268,5.887896 17.080799,5.787498 
	C14.648829,5.771653 13.664152,6.604994 14.188372,9.809835 
	C14.246139,10.864590 14.303905,11.919343 14.166074,13.865684 
	C14.166074,16.940559 14.166074,20.015434 14.166074,23.464367 
	C27.939100,23.464367 41.037994,23.296091 54.126980,23.581732 
	C57.432713,23.653872 60.706802,25.175972 64.113243,26.490248 
	C64.255493,26.802832 64.494995,26.992832 64.933739,27.678656 
	C65.247124,28.200132 65.560501,28.721611 65.871696,30.063934 
	C66.093353,38.420185 63.490086,41.128178 55.144154,41.150440 
	C49.834629,41.164604 44.524952,41.122162 38.583084,41.393425 
	C38.600075,42.917725 38.617069,44.442020 38.773949,46.800953 
	C38.734898,48.207970 38.695847,49.614983 38.261871,51.442989 
	C38.442402,52.291374 38.622932,53.139759 39.197235,54.558720 
	C42.474628,57.837509 45.752018,61.116299 49.136856,64.662971 
	C49.251396,64.831139 49.408417,64.935242 50.189449,65.316208 
	C51.106960,66.281273 52.024471,67.246346 52.979454,68.894409 
	C54.112740,69.656372 55.246025,70.418335 57.083809,71.281853 
	C59.036179,73.238594 60.988548,75.195343 62.974560,77.739182 
	C63.341492,78.151611 63.708420,78.564041 64.561981,79.069267 
	C64.561981,79.069267 65.014648,79.270546 65.620361,79.750023 
	C68.404305,79.612282 71.188248,79.474533 74.775322,79.194504 
	C75.858444,79.242683 76.941559,79.290863 78.493385,79.744911 
	C79.655106,79.605751 80.816818,79.466599 82.649651,79.205605 
	C83.100616,79.246895 83.551575,79.288177 84.189651,79.602257 
	C84.189651,79.602257 84.649017,79.667915 84.649017,79.667915 
	C84.649017,79.667915 84.991638,79.338608 85.667900,79.196655 
	C86.127235,79.161545 86.586563,79.126442 87.129219,79.390137 
	C87.232895,79.429077 87.336563,79.468010 87.440239,79.506950 
	C87.326424,79.353760 87.212608,79.200577 87.032654,78.415886 
	C86.351974,77.621208 85.671288,76.826538 84.804436,75.557060 
	C84.525017,75.377304 84.245605,75.197556 84.000183,74.998688 
	C84.000183,74.998688 83.981941,75.033066 83.792610,74.553474 
z"/>
<path fill="#204EA0" opacity="1.000000" stroke="none" 
	d="
M52.941978,68.211418 
	C52.024471,67.246346 51.106960,66.281273 49.876068,64.990334 
	C49.443668,64.458466 49.265907,64.368675 49.029408,64.395088 
	C45.752018,61.116299 42.474628,57.837509 39.036957,53.900703 
	C38.803387,52.502457 38.730091,51.762230 38.656796,51.021999 
	C38.695847,49.614983 38.734898,48.207970 38.811371,45.987579 
	C38.970978,43.817837 39.093159,42.461468 39.215343,41.105103 
	C44.524952,41.122162 49.834629,41.164604 55.144154,41.150440 
	C63.490086,41.128178 66.093353,38.420185 65.893456,29.320015 
	C65.554054,28.070814 65.192902,27.565533 64.831749,27.060249 
	C64.494995,26.992832 64.255493,26.802832 64.002037,25.897587 
	C61.489597,24.205877 59.114182,22.229012 56.682728,22.157495 
	C45.258533,21.821476 33.815838,21.855364 22.386402,22.086342 
	C17.933350,22.176331 15.299969,21.296261 15.895684,16.127100 
	C16.008516,15.148030 14.904318,14.028707 14.361671,12.974097 
	C14.303905,11.919343 14.246139,10.864590 14.635098,9.343140 
	C17.400620,8.251493 19.724218,7.070996 22.037441,7.090989 
	C38.072849,7.229580 54.106098,7.617848 70.140038,7.925975 
	C79.573471,11.017166 86.012741,19.485085 86.880081,29.939856 
	C87.795181,40.970177 82.255402,51.192638 72.749527,55.948349 
	C71.414268,56.616371 70.006996,57.140465 68.033409,57.907314 
	C67.578667,58.473957 67.723579,58.864471 67.868492,59.254982 
	C72.689049,64.086540 77.509598,68.918091 82.716827,74.136986 
	C83.396309,74.693909 83.689125,74.863487 83.981941,75.033066 
	C83.981941,75.033066 84.000183,74.998688 83.996872,75.224548 
	C83.993553,75.450409 84.043358,75.881004 83.948639,76.284592 
	C82.391357,77.126945 80.939392,77.897293 79.464340,77.944359 
	C74.360443,78.107231 69.248505,78.018318 64.005074,77.789383 
	C63.560646,77.419708 63.250782,77.285896 62.940918,77.152084 
	C60.988548,75.195343 59.036179,73.238594 56.830021,70.929970 
	C55.364815,69.789200 54.153397,69.000313 52.941978,68.211418 
z"/>
<path fill="#0CB6EC" opacity="1.000000" stroke="none" 
	d="
M55.825966,78.330833 
	C55.825962,78.330833 55.871872,78.708153 55.922646,79.097679 
	C55.973415,79.487206 55.980946,79.978828 55.980946,79.978828 
	C55.980946,79.978828 56.000000,79.999084 55.752335,80.076889 
	C55.354950,80.443649 55.205231,80.732613 55.055511,81.021576 
	C55.055511,81.021576 55.001148,81.000862 54.764702,81.086594 
	C54.355831,81.448105 54.183407,81.723885 54.010979,81.999657 
	C54.010979,81.999657 53.998989,81.998474 53.748322,82.061920 
	C53.336601,82.416771 53.175552,82.708183 53.014503,82.999603 
	C53.014507,82.999603 52.998280,82.997673 52.745087,83.063187 
	C52.316902,83.412369 52.141911,83.696037 51.966919,83.979713 
	C51.966919,83.979713 52.000446,84.000610 51.737137,84.050812 
	C51.304161,84.392784 51.134491,84.684547 50.964821,84.976318 
	C50.964821,84.976318 50.999897,85.000633 50.733696,85.047745 
	C50.296711,85.386879 50.125923,85.678894 49.955135,85.970917 
	C49.955135,85.970917 49.999725,86.000023 49.728676,86.042297 
	C49.272671,86.370934 49.087715,86.657295 48.902760,86.943649 
	C48.902760,86.943649 48.981487,86.981895 48.707397,87.017784 
	C48.258556,87.350922 48.083805,87.648163 47.909058,87.945404 
	C47.909054,87.945404 47.986225,87.986771 47.709938,88.022682 
	C47.256386,88.353706 47.079121,88.648827 46.901855,88.943939 
	C46.901855,88.943939 46.980812,88.980988 46.703926,89.013397 
	C46.245537,89.340370 46.064030,89.634941 45.882526,89.929504 
	C45.882526,89.929504 45.967567,89.969330 45.690769,90.004883 
	C45.227093,90.340004 45.040215,90.639565 44.853333,90.939125 
	C44.530922,90.971817 44.272602,91.117874 43.730858,91.685905 
	C43.181122,92.299034 42.978909,92.603546 42.776695,92.908066 
	C42.467045,92.952873 42.224728,93.104965 41.720779,93.673859 
	C41.212307,94.292091 41.032799,94.600784 40.853294,94.909485 
	C40.853294,94.909485 40.942421,94.924103 40.614376,94.926369 
	C39.887440,95.061478 39.488548,95.194321 39.089653,95.327156 
	C39.089653,95.327156 39.057484,95.093918 39.012917,94.590492 
	C38.968346,92.300171 38.968346,90.513275 38.968346,87.894737 
	C32.311481,87.894737 26.198309,87.894737 20.085136,87.894737 
	C20.085136,87.894737 20.014751,87.947319 19.863243,87.671257 
	C18.473387,86.599083 17.235041,85.802979 15.996693,85.006866 
	C15.996693,85.006866 16.000229,85.000000 15.954683,84.675812 
	C15.350895,83.410622 14.792653,82.469612 14.234411,81.528603 
	C14.234410,81.528603 14.295739,81.222038 14.256255,80.633102 
	C14.126190,69.028801 14.035609,58.013447 13.945028,46.998093 
	C13.996973,46.552567 14.048918,46.107040 14.135422,44.969063 
	C14.118669,43.528168 14.067356,42.779724 14.016043,42.031284 
	C14.016043,42.031284 14.011209,42.010822 14.227438,41.889397 
	C14.698760,41.571194 14.904506,41.331970 15.060904,41.050301 
	C20.326849,41.082069 25.592796,41.113838 31.418377,41.585445 
	C31.978014,51.261139 31.978014,60.496998 31.978014,69.798431 
	C34.798126,69.798431 36.684448,69.798431 39.011105,69.798431 
	C39.011105,67.290161 39.011105,65.160789 39.011105,63.031422 
	C39.191219,63.004028 39.371334,62.976639 39.883362,63.198418 
	C40.418854,63.730930 40.694977,63.879494 41.043636,63.893284 
	C41.043636,63.893284 41.014313,63.968826 41.153488,64.265640 
	C42.893250,65.979149 44.493832,67.395844 46.094414,68.812538 
	C46.094414,68.812538 46.084850,68.943497 46.194382,69.158737 
	C46.476345,69.667130 46.732193,69.801468 47.071457,69.776993 
	C47.071457,69.776993 47.060024,69.912842 47.226509,70.220474 
	C50.203979,73.129005 53.014973,75.729919 55.825966,78.330833 
z"/>
<path fill="#325490" opacity="1.000000" stroke="none" 
	d="
M14.263872,13.419890 
	C14.904318,14.028707 16.008516,15.148030 15.895684,16.127100 
	C15.299969,21.296261 17.933350,22.176331 22.386402,22.086342 
	C33.815838,21.855364 45.258533,21.821476 56.682728,22.157495 
	C59.114182,22.229012 61.489597,24.205877 63.943130,25.668350 
	C60.706802,25.175972 57.432713,23.653872 54.126980,23.581732 
	C41.037994,23.296091 27.939100,23.464367 14.166074,23.464367 
	C14.166074,20.015434 14.166074,16.940559 14.263872,13.419890 
z"/>
<path fill="#DCFAFD" opacity="1.000000" stroke="none" 
	d="
M38.721039,63.258339 
	C39.011105,65.160789 39.011105,67.290161 39.011105,69.798431 
	C36.684448,69.798431 34.798126,69.798431 31.978014,69.798431 
	C31.978014,60.496998 31.978014,51.261139 31.870972,41.576309 
	C32.505470,42.483860 33.850601,43.823826 33.888351,45.199665 
	C34.097500,52.822067 33.988548,60.453205 33.988548,67.987144 
	C38.568901,69.065277 37.591259,65.471100 38.721039,63.258339 
z"/>
<path fill="#DCFAFD" opacity="1.000000" stroke="none" 
	d="
M13.554114,47.092659 
	C14.035609,58.013447 14.126190,69.028801 14.162691,80.507866 
	C13.419478,80.213074 12.139736,79.461586 12.130646,78.695023 
	C12.012261,68.711044 12.057961,58.724815 12.135962,48.739723 
	C12.140025,48.219582 12.805600,47.704609 13.554114,47.092659 
z"/>
<path fill="#325490" opacity="1.000000" stroke="none" 
	d="
M69.856682,7.655348 
	C54.106098,7.617848 38.072849,7.229580 22.037441,7.090989 
	C19.724218,7.070996 17.400620,8.251493 14.721972,8.954647 
	C13.664152,6.604994 14.648829,5.771653 17.080799,5.787498 
	C32.491268,5.887896 47.902836,5.852726 63.312447,6.014162 
	C65.403961,6.036073 67.486588,6.906941 69.856682,7.655348 
z"/>
<path fill="#DCFAFD" opacity="1.000000" stroke="none" 
	d="
M20.140772,88.300644 
	C26.198309,87.894737 32.311481,87.894737 38.968346,87.894737 
	C38.968346,90.513275 38.968346,92.300171 38.918083,94.520737 
	C37.950970,90.635780 35.253784,89.602341 31.038198,89.859993 
	C27.461128,90.078613 23.813059,89.135567 20.140772,88.300644 
z"/>
<path fill="#2B4C8A" opacity="1.000000" stroke="none" 
	d="
M64.139633,78.025238 
	C69.248505,78.018318 74.360443,78.107231 79.464340,77.944359 
	C80.939392,77.897293 82.391357,77.126945 84.184113,76.330673 
	C84.514320,75.973167 84.990608,76.031860 84.990608,76.031860 
	C85.671288,76.826538 86.351974,77.621208 87.027588,78.712662 
	C87.022530,79.009438 87.045898,79.091331 87.045898,79.091339 
	C86.586563,79.126442 86.127235,79.161545 85.083290,79.177177 
	C84.333298,79.214958 84.167923,79.272209 84.002541,79.329468 
	C83.551575,79.288177 83.100616,79.246895 81.925735,79.167786 
	C80.142776,79.199654 79.083725,79.269348 78.024681,79.339043 
	C76.941559,79.290863 75.858444,79.242683 73.936050,79.162933 
	C70.402733,79.177757 67.708687,79.224152 65.014648,79.270546 
	C65.014648,79.270546 64.561981,79.069267 64.288391,78.781921 
	C64.014801,78.494583 64.139633,78.025246 64.139633,78.025238 
z"/>
<path fill="#DCFAFD" opacity="1.000000" stroke="none" 
	d="
M55.857117,77.963638 
	C53.014973,75.729919 50.203979,73.129005 47.294380,70.214165 
	C50.093273,72.465637 52.990768,75.031036 55.857117,77.963638 
z"/>
<path fill="#DCFAFD" opacity="1.000000" stroke="none" 
	d="
M46.070641,68.444229 
	C44.493832,67.395844 42.893250,65.979149 41.192329,64.254097 
	C44.173763,63.606754 45.719753,65.110214 46.070641,68.444229 
z"/>
<path fill="#DEECF9" opacity="1.000000" stroke="none" 
	d="
M65.317505,79.510284 
	C67.708687,79.224152 70.402733,79.177757 73.534485,79.234070 
	C71.188248,79.474533 68.404305,79.612282 65.317505,79.510284 
z"/>
<path fill="#DCFAFD" opacity="1.000000" stroke="none" 
	d="
M52.960716,68.552917 
	C54.153397,69.000313 55.364815,69.789200 56.477772,70.879196 
	C55.246025,70.418335 54.112740,69.656372 52.960716,68.552917 
z"/>
<path fill="#DCFAFD" opacity="1.000000" stroke="none" 
	d="
M15.995142,85.392807 
	C17.235041,85.802979 18.473387,86.599083 19.896770,87.650955 
	C18.719067,87.197395 17.356329,86.488068 15.995142,85.392807 
z"/>
<path fill="#DCFAFD" opacity="1.000000" stroke="none" 
	d="
M13.683114,42.065697 
	C14.067356,42.779724 14.118669,43.528168 14.062223,44.638542 
	C13.753038,44.033688 13.551612,43.066898 13.683114,42.065697 
z"/>
<path fill="#DCE8F6" opacity="1.000000" stroke="none" 
	d="
M38.899216,41.249264 
	C39.093159,42.461468 38.970978,43.817837 38.741425,45.570259 
	C38.617069,44.442020 38.600075,42.917725 38.899216,41.249264 
z"/>
<path fill="#DCFAFD" opacity="1.000000" stroke="none" 
	d="
M14.164634,81.918968 
	C14.792653,82.469612 15.350895,83.410622 15.951286,84.677109 
	C15.360576,84.104828 14.727715,83.207085 14.164634,81.918968 
z"/>
<path fill="#DEECF9" opacity="1.000000" stroke="none" 
	d="
M78.259033,79.541977 
	C79.083725,79.269348 80.142776,79.199654 81.590179,79.228699 
	C80.816818,79.466599 79.655106,79.605751 78.259033,79.541977 
z"/>
<path fill="#DCE8F6" opacity="1.000000" stroke="none" 
	d="
M38.459335,51.232494 
	C38.730091,51.762230 38.803387,52.502457 38.840073,53.615417 
	C38.622932,53.139759 38.442402,52.291374 38.459335,51.232494 
z"/>
<path fill="#DCFAFD" opacity="1.000000" stroke="none" 
	d="
M39.252533,95.518959 
	C39.488548,95.194321 39.887440,95.061478 40.599575,94.883698 
	C40.413685,95.129433 39.914547,95.420097 39.252533,95.518959 
z"/>
<path fill="#DEECF9" opacity="1.000000" stroke="none" 
	d="
M64.005074,77.789383 
	C64.139633,78.025246 64.014801,78.494583 64.045074,78.735527 
	C63.708420,78.564041 63.341492,78.151611 62.957741,77.445633 
	C63.250782,77.285896 63.560646,77.419708 64.005074,77.789383 
z"/>
<path fill="#325490" opacity="1.000000" stroke="none" 
	d="
M64.882744,27.369453 
	C65.192902,27.565533 65.554054,28.070814 65.894547,28.909592 
	C65.560501,28.721611 65.247124,28.200132 64.882744,27.369453 
z"/>
<path fill="#DCFAFD" opacity="1.000000" stroke="none" 
	d="
M51.204491,84.890297 
	C51.134491,84.684547 51.304161,84.392784 51.726845,84.033951 
	C51.801292,84.246017 51.622726,84.525146 51.204491,84.890297 
z"/>
<path fill="#DCFAFD" opacity="1.000000" stroke="none" 
	d="
M41.121063,94.823242 
	C41.032799,94.600784 41.212307,94.292091 41.648270,93.881317 
	C41.732761,94.098495 41.560795,94.417747 41.121063,94.823242 
z"/>
<path fill="#DCFAFD" opacity="1.000000" stroke="none" 
	d="
M43.053238,92.829453 
	C42.978909,92.603546 43.181122,92.299034 43.646343,91.897514 
	C43.716164,92.117287 43.522972,92.434059 43.053238,92.829453 
z"/>
<path fill="#DCFAFD" opacity="1.000000" stroke="none" 
	d="
M45.113827,90.860275 
	C45.040215,90.639565 45.227093,90.340004 45.672646,89.961571 
	C45.745651,90.182281 45.559982,90.481857 45.113827,90.860275 
z"/>
<path fill="#DCFAFD" opacity="1.000000" stroke="none" 
	d="
M46.137856,89.853577 
	C46.064030,89.634941 46.245537,89.340370 46.685730,88.973770 
	C46.760670,89.193710 46.576927,89.485680 46.137856,89.853577 
z"/>
<path fill="#DCFAFD" opacity="1.000000" stroke="none" 
	d="
M47.153080,88.862839 
	C47.079121,88.648827 47.256386,88.353706 47.689575,87.983925 
	C47.765099,88.200081 47.584702,88.490906 47.153080,88.862839 
z"/>
<path fill="#DCFAFD" opacity="1.000000" stroke="none" 
	d="
M14.811356,41.108231 
	C14.904506,41.331970 14.698760,41.571194 14.235895,41.883202 
	C14.206018,41.721008 14.383913,41.443581 14.811356,41.108231 
z"/>
<path fill="#DCFAFD" opacity="1.000000" stroke="none" 
	d="
M48.159607,87.862396 
	C48.083805,87.648163 48.258556,87.350922 48.688911,86.978119 
	C48.766403,87.194832 48.588284,87.487106 48.159607,87.862396 
z"/>
<path fill="#DCFAFD" opacity="1.000000" stroke="none" 
	d="
M49.152359,86.868797 
	C49.087715,86.657295 49.272671,86.370934 49.714455,86.019806 
	C49.781509,86.234665 49.591736,86.514305 49.152359,86.868797 
z"/>
<path fill="#DCFAFD" opacity="1.000000" stroke="none" 
	d="
M50.195656,85.886047 
	C50.125923,85.678894 50.296711,85.386879 50.722015,85.029938 
	C50.796413,85.243744 50.616291,85.522461 50.195656,85.886047 
z"/>
<path fill="#DEECF9" opacity="1.000000" stroke="none" 
	d="
M67.921341,58.962364 
	C67.723579,58.864471 67.578667,58.473957 67.722565,58.079823 
	C67.998970,58.274048 67.986580,58.471893 67.921341,58.962364 
z"/>
<path fill="#DEECF9" opacity="1.000000" stroke="none" 
	d="
M84.897522,75.794464 
	C84.990608,76.031860 84.514320,75.973167 84.278839,75.927086 
	C84.043358,75.881004 83.993553,75.450409 83.979874,75.234100 
	C84.245605,75.197556 84.525017,75.377304 84.897522,75.794464 
z"/>
<path fill="#DCFAFD" opacity="1.000000" stroke="none" 
	d="
M52.203415,83.898270 
	C52.141911,83.696037 52.316902,83.412369 52.745579,83.071274 
	C52.924778,83.359520 52.738331,83.627174 52.203415,83.898270 
z"/>
<path fill="#DCFAFD" opacity="1.000000" stroke="none" 
	d="
M53.243793,82.909271 
	C53.175552,82.708183 53.336601,82.416771 53.748455,82.067841 
	C53.936222,82.352989 53.760830,82.622520 53.243793,82.909271 
z"/>
<path fill="#DCFAFD" opacity="1.000000" stroke="none" 
	d="
M40.949280,63.682667 
	C40.694977,63.879494 40.418854,63.730930 40.156242,63.213036 
	C40.415897,63.041512 40.668468,63.206036 40.949280,63.682667 
z"/>
<path fill="#DCFAFD" opacity="1.000000" stroke="none" 
	d="
M54.240494,81.917480 
	C54.183407,81.723885 54.355831,81.448105 54.775063,81.113777 
	C54.942703,81.389389 54.758747,81.649422 54.240494,81.917480 
z"/>
<path fill="#DCFAFD" opacity="1.000000" stroke="none" 
	d="
M55.279152,80.919579 
	C55.205231,80.732613 55.354950,80.443649 55.741421,80.069283 
	C55.941902,80.331467 55.783443,80.609367 55.279152,80.919579 
z"/>
<path fill="#DEECF9" opacity="1.000000" stroke="none" 
	d="
M87.060661,79.028412 
	C87.212608,79.200577 87.326424,79.353760 87.440239,79.506950 
	C87.336563,79.468010 87.232895,79.429077 87.087555,79.240738 
	C87.045898,79.091331 87.022530,79.009438 87.060661,79.028412 
z"/>
<path fill="#DCFAFD" opacity="1.000000" stroke="none" 
	d="
M49.083130,64.529030 
	C49.265907,64.368675 49.443668,64.458466 49.585304,64.819870 
	C49.408417,64.935242 49.251396,64.831139 49.083130,64.529030 
z"/>
<path fill="#DEECF9" opacity="1.000000" stroke="none" 
	d="
M84.096100,79.465866 
	C84.167923,79.272209 84.333298,79.214958 84.745163,79.248154 
	C84.991638,79.338608 84.649017,79.667915 84.649017,79.667915 
	C84.649017,79.667915 84.189651,79.602257 84.096100,79.465866 
z"/>
<path fill="#DCFAFD" opacity="1.000000" stroke="none" 
	d="
M46.976669,69.592102 
	C46.732193,69.801468 46.476345,69.667130 46.259613,69.151306 
	C46.488350,69.017349 46.710537,69.176880 46.976669,69.592102 
z"/>
<path fill="#DEECF9" opacity="1.000000" stroke="none" 
	d="
M83.887276,74.793274 
	C83.689125,74.863487 83.396309,74.693909 83.018173,74.276558 
	C83.219437,74.203690 83.506020,74.378578 83.887276,74.793274 
z"/>
<path fill="#DCFAFD" opacity="1.000000" stroke="none" 
	d="
M56.161549,79.917686 
	C55.980946,79.978828 55.973415,79.487206 56.036602,79.249771 
	C56.255119,79.192284 56.427353,79.361687 56.551460,79.561066 
	C56.576164,79.600754 56.416695,79.755081 56.161549,79.917686 
z"/>
</svg>