<svg xmlns="http://www.w3.org/2000/svg" viewBox="0 0 80 80"><defs><linearGradient id="a" x1="0%" x2="100%" y1="100%" y2="0%"><stop offset="0%" stop-color="#B0084D"/><stop offset="100%" stop-color="#FF4F8B"/></linearGradient></defs><g fill="none" fill-rule="evenodd"><path fill="url(#a)" d="M0 0h80v80H0z"/><path fill="#FFF" d="M40 20l-15 8v10c0 9.3 6.4 18 15 20 8.6-2 15-10.7 15-20V28l-15-8zm0 3.2l12 6.4v8.4c0 7.9-5.4 15.3-12 17.2-6.6-1.9-12-9.3-12-17.2v-8.4l12-6.4z"/><path fill="#FFF" d="M35 37l-3 3 6 6 12-12-3-3-9 9-3-3z"/></g></svg>
