<svg width="40" height="40" viewBox="0 0 40 40" fill="none" xmlns="http://www.w3.org/2000/svg">
<path d="M27.4219 22.155C25.8642 22.155 24.4678 22.8451 23.5115 23.9316L21.061 22.1969C21.3211 21.4807 21.4705 20.7117 21.4705 19.9067C21.4705 19.1158 21.3263 18.3597 21.0748 17.6541L23.5197 15.9377C24.4759 17.0187 25.8688 17.7051 27.4219 17.7051C30.297 17.7051 32.6364 15.3661 32.6364 12.4906C32.6364 9.6152 30.297 7.27619 27.4219 7.27619C24.5469 7.27619 22.2075 9.6152 22.2075 12.4906C22.2075 13.0053 22.2852 13.5016 22.4248 13.9716L19.9782 15.6888C18.9562 14.4209 17.4846 13.5357 15.808 13.2654V10.3168C18.17 9.82066 19.9497 7.72205 19.9497 5.21444C19.9497 2.33901 17.6103 0 14.7353 0C11.8602 0 9.52081 2.33901 9.52081 5.21444C9.52081 7.68847 11.2544 9.76119 13.5692 10.2927V13.2797C10.4101 13.8342 8 16.5911 8 19.9067C8 23.2385 10.434 26.0056 13.6158 26.5412V29.6953C11.2774 30.2093 9.52081 32.2947 9.52081 34.7856C9.52081 37.661 11.8602 40 14.7353 40C17.6103 40 19.9497 37.661 19.9497 34.7856C19.9497 32.2947 18.1931 30.2093 15.8547 29.6953V26.5411C17.4652 26.2699 18.9222 25.4225 19.9543 24.1568L22.4211 25.9028C22.2842 26.3686 22.2075 26.86 22.2075 27.3694C22.2075 30.2449 24.5469 32.5839 27.4219 32.5839C30.297 32.5839 32.6364 30.2449 32.6364 27.3694C32.6364 24.494 30.297 22.155 27.4219 22.155ZM27.4219 9.96242C28.8161 9.96242 29.95 11.0968 29.95 12.4906C29.95 13.8844 28.8161 15.0187 27.4219 15.0187C26.0277 15.0187 24.8938 13.8844 24.8938 12.4906C24.8938 11.0968 26.0277 9.96242 27.4219 9.96242ZM12.207 5.21444C12.207 3.82065 13.3411 2.68632 14.7353 2.68632C16.1294 2.68632 17.2634 3.82065 17.2634 5.21444C17.2634 6.60822 16.1294 7.74255 14.7353 7.74255C13.3411 7.74255 12.207 6.60822 12.207 5.21444ZM17.2634 34.7856C17.2634 36.1793 16.1294 37.3137 14.7353 37.3137C13.3411 37.3137 12.207 36.1793 12.207 34.7856C12.207 33.3918 13.3411 32.2574 14.7353 32.2574C16.1294 32.2574 17.2634 33.3918 17.2634 34.7856ZM14.7351 23.4326C12.7906 23.4326 11.2088 21.8511 11.2088 19.9067C11.2088 17.9623 12.7906 16.3805 14.7351 16.3805C16.6794 16.3805 18.2612 17.9623 18.2612 19.9067C18.2612 21.8511 16.6794 23.4326 14.7351 23.4326ZM27.4219 29.8977C26.0277 29.8977 24.8938 28.7632 24.8938 27.3694C24.8938 25.9757 26.0277 24.8413 27.4219 24.8413C28.8161 24.8413 29.95 25.9757 29.95 27.3694C29.95 28.7632 28.8161 29.8977 27.4219 29.8977Z" fill="white"/>
</svg>
