<svg xmlns="http://www.w3.org/2000/svg" width="64" height="64" preserveAspectRatio="xMidYMid" viewBox="0 0 32 32"><path d="M21.538 17.724a4.16 4.16 0 0 0-3.128 1.42l-1.96-1.388a5.4 5.4 0 0 0 .328-1.832 5.4 5.4 0 0 0-.317-1.802l1.956-1.373a4.16 4.16 0 0 0 3.122 1.414 4.18 4.18 0 0 0 4.172-4.172 4.18 4.18 0 0 0-4.172-4.172 4.18 4.18 0 0 0-4.172 4.172c0 .412.062.8.174 1.185l-1.957 1.374a5.4 5.4 0 0 0-3.336-1.94V8.25a4.18 4.18 0 0 0 3.313-4.082A4.18 4.18 0 0 0 11.388 0a4.18 4.18 0 0 0-4.172 4.172 4.18 4.18 0 0 0 3.24 4.063v2.4A5.37 5.37 0 0 0 6 15.925c0 2.665 1.947 4.88 4.493 5.308v2.523a4.17 4.17 0 0 0-3.276 4.072A4.18 4.18 0 0 0 11.388 32a4.18 4.18 0 0 0 4.172-4.172 4.18 4.18 0 0 0-3.276-4.072v-2.523a5.4 5.4 0 0 0 3.28-1.907l1.973 1.397a4.2 4.2 0 0 0-.171 1.173 4.18 4.18 0 0 0 4.172 4.172 4.18 4.18 0 0 0 4.172-4.172 4.18 4.18 0 0 0-4.172-4.172m0-9.754c1.115 0 2.022.908 2.022 2.023s-.907 2.022-2.022 2.022-2.022-.907-2.022-2.022.907-2.023 2.022-2.023M9.366 4.172a2.024 2.024 0 0 1 4.045 0c0 1.115-.907 2.022-2.022 2.022s-2.023-.907-2.023-2.022M13.41 27.83c0 1.115-.907 2.022-2.022 2.022s-2.023-.907-2.023-2.022.907-2.022 2.023-2.022 2.022.907 2.022 2.022m-2.023-9.082c-1.556 0-2.82-1.265-2.82-2.82s1.265-2.82 2.82-2.82 2.82 1.265 2.82 2.82-1.265 2.82-2.82 2.82m10.15 5.172c-1.115 0-2.022-.908-2.022-2.023s.907-2.022 2.022-2.022 2.022.907 2.022 2.022-.907 2.023-2.022 2.023"/></svg>