<svg xmlns="http://www.w3.org/2000/svg" xmlns:xlink="http://www.w3.org/1999/xlink" width="500" zoomAndPan="magnify" viewBox="0 0 375 374.999991" height="500" preserveAspectRatio="xMidYMid meet" version="1.0"><defs><clipPath id="953f8693f7"><path d="M 65.617188 24 L 258 24 L 258 345 L 65.617188 345 Z M 65.617188 24 " clip-rule="nonzero"/></clipPath><clipPath id="ff95fcf073"><path d="M 150 0 L 309.367188 0 L 309.367188 374.25 L 150 374.25 Z M 150 0 " clip-rule="nonzero"/></clipPath><clipPath id="c0747a0bb9"><path d="M 165 153 L 311 153 L 311 375 L 165 375 Z M 165 153 " clip-rule="nonzero"/></clipPath><clipPath id="4c493f8843"><path d="M 165.121094 156.222656 L 274.855469 139.511719 L 310.980469 376.777344 L 201.246094 393.488281 Z M 165.121094 156.222656 " clip-rule="nonzero"/></clipPath><clipPath id="6a8d9ec193"><path d="M 275.121094 139.472656 L 165.386719 156.179688 L 201.511719 393.445312 L 311.246094 376.738281 Z M 275.121094 139.472656 " clip-rule="nonzero"/></clipPath></defs><rect x="-37.5" width="450" fill="#ffffff" y="-37.499999" height="449.999989" fill-opacity="1"/><rect x="-37.5" width="450" fill="#ffffff" y="-37.499999" height="449.999989" fill-opacity="1"/><g clip-path="url(#953f8693f7)"><path fill="#0b0b5f" d="M 92.582031 24.996094 L 92.582031 313.09375 C 92.582031 313.09375 174.144531 290.605469 257.230469 344.390625 C 151.839844 302.027344 65.59375 341.726562 65.59375 341.726562 L 65.59375 40.382812 L 92.582031 24.996094 " fill-opacity="1" fill-rule="nonzero"/></g><path fill="#0b0b5f" d="M 148.269531 271.902344 L 135.4375 270.046875 L 135.4375 2.761719 L 107.199219 18.953125 L 107.199219 297.695312 C 107.199219 297.695312 187.894531 279.804688 274.109375 346.5 C 223.917969 283.578125 149.136719 272.027344 148.269531 271.902344 " fill-opacity="1" fill-rule="nonzero"/><g clip-path="url(#ff95fcf073)"><path fill="#0b0b5f" d="M 309.335938 374.1875 L 309.335938 97.160156 C 309.335938 97.160156 277.546875 17.195312 150.410156 0.0625 L 150.410156 257.09375 C 150.410156 257.09375 259.148438 272.804688 309.335938 374.1875 " fill-opacity="1" fill-rule="nonzero"/></g><g clip-path="url(#c0747a0bb9)"><g clip-path="url(#4c493f8843)"><g clip-path="url(#6a8d9ec193)"><path fill="#ffffff" d="M 228.316406 252.984375 C 226.269531 252.542969 224.230469 252.125 222.203125 251.726562 C 222.203125 251.726562 222.40625 251.851562 222.78125 252.066406 C 223.160156 252.277344 223.710938 252.582031 224.410156 252.9375 C 225.109375 253.296875 225.957031 253.707031 226.921875 254.136719 C 227.167969 254.246094 227.417969 254.355469 227.671875 254.464844 C 227.925781 254.578125 228.1875 254.691406 228.453125 254.804688 C 228.988281 255.035156 229.550781 255.261719 230.132812 255.484375 C 231.304688 255.933594 232.570312 256.367188 233.902344 256.746094 C 234.070312 256.792969 234.234375 256.839844 234.402344 256.882812 C 234.570312 256.929688 234.738281 256.976562 234.90625 257.023438 C 235.242188 257.113281 235.582031 257.199219 235.929688 257.28125 C 236.617188 257.445312 237.316406 257.589844 238.03125 257.714844 C 239.453125 257.957031 240.914062 258.105469 242.382812 258.121094 C 243.851562 258.136719 245.335938 258.011719 246.785156 257.710938 C 246.53125 257.636719 246.277344 257.558594 246.015625 257.484375 L 245.242188 257.265625 L 243.695312 256.835938 C 242.664062 256.550781 241.636719 256.265625 240.609375 255.992188 C 239.585938 255.714844 238.566406 255.441406 237.539062 255.175781 C 236.507812 254.914062 235.480469 254.660156 234.453125 254.410156 C 233.429688 254.160156 232.40625 253.917969 231.382812 253.675781 L 229.855469 253.320312 C 229.601562 253.261719 229.34375 253.207031 229.085938 253.152344 Z M 165.847656 158.148438 C 165.886719 157.996094 165.96875 157.847656 166.089844 157.710938 C 166.214844 157.574219 166.382812 157.453125 166.59375 157.359375 C 167.832031 156.8125 169.117188 156.339844 170.4375 155.9375 L 170.683594 155.859375 C 170.769531 155.835938 170.855469 155.8125 170.941406 155.785156 L 171.464844 155.648438 L 171.988281 155.507812 C 172.078125 155.484375 172.164062 155.464844 172.25 155.441406 L 172.507812 155.378906 C 172.847656 155.296875 173.195312 155.214844 173.542969 155.136719 C 173.882812 155.0625 174.222656 154.992188 174.566406 154.921875 C 177.300781 154.371094 180.003906 154.046875 182.683594 153.914062 C 185.367188 153.785156 188.03125 153.839844 190.664062 154.054688 C 191.320312 154.109375 191.980469 154.167969 192.636719 154.238281 C 193.285156 154.316406 193.933594 154.402344 194.585938 154.488281 C 195.246094 154.574219 195.875 154.6875 196.519531 154.796875 L 197.488281 154.964844 L 197.96875 155.054688 L 198.445312 155.152344 C 198.445312 155.152344 198.71875 155.195312 199.234375 155.316406 C 199.492188 155.375 199.8125 155.457031 200.1875 155.558594 C 200.378906 155.609375 200.578125 155.667969 200.796875 155.726562 C 201.007812 155.792969 201.230469 155.867188 201.46875 155.949219 C 202.414062 156.269531 203.585938 156.691406 204.863281 157.296875 C 205.1875 157.449219 205.519531 157.605469 205.863281 157.773438 C 206.035156 157.859375 206.207031 157.945312 206.382812 158.035156 C 206.554688 158.125 206.726562 158.222656 206.902344 158.316406 C 207.605469 158.703125 208.34375 159.132812 209.105469 159.601562 C 209.851562 160.085938 210.621094 160.613281 211.410156 161.1875 C 211.8125 161.472656 212.195312 161.78125 212.585938 162.09375 C 212.980469 162.410156 213.378906 162.742188 213.777344 163.082031 C 213.976562 163.253906 214.175781 163.425781 214.378906 163.601562 C 214.574219 163.78125 214.769531 163.964844 214.964844 164.152344 C 215.355469 164.523438 215.753906 164.910156 216.148438 165.304688 C 216.34375 165.503906 216.542969 165.707031 216.738281 165.910156 C 216.789062 165.964844 216.839844 166.015625 216.886719 166.066406 C 216.9375 166.117188 216.984375 166.171875 217.03125 166.222656 C 217.125 166.328125 217.222656 166.4375 217.316406 166.542969 C 217.699219 166.972656 218.082031 167.414062 218.464844 167.867188 C 219.242188 168.773438 219.957031 169.753906 220.675781 170.777344 C 220.855469 171.035156 221.035156 171.296875 221.214844 171.558594 C 221.300781 171.691406 221.394531 171.820312 221.476562 171.957031 C 221.5625 172.089844 221.644531 172.226562 221.730469 172.363281 C 222.070312 172.910156 222.402344 173.46875 222.730469 174.039062 C 222.890625 174.324219 223.054688 174.609375 223.21875 174.902344 C 223.296875 175.050781 223.378906 175.195312 223.457031 175.34375 C 223.53125 175.496094 223.605469 175.644531 223.683594 175.796875 C 223.984375 176.398438 224.277344 177.015625 224.566406 177.644531 C 224.710938 177.957031 224.851562 178.273438 224.992188 178.597656 C 225.0625 178.757812 225.132812 178.917969 225.199219 179.082031 C 225.261719 179.242188 225.328125 179.410156 225.394531 179.574219 C 225.652344 180.234375 225.898438 180.90625 226.140625 181.59375 C 226.140625 181.59375 226.242188 181.355469 226.28125 180.761719 C 226.300781 180.464844 226.308594 180.074219 226.273438 179.582031 C 226.257812 179.332031 226.230469 179.058594 226.191406 178.757812 C 226.171875 178.605469 226.148438 178.445312 226.121094 178.28125 C 226.109375 178.195312 226.09375 178.113281 226.082031 178.023438 C 226.066406 177.9375 226.046875 177.851562 226.03125 177.761719 C 225.882812 177.042969 225.667969 176.199219 225.363281 175.210938 C 225.210938 174.71875 225.035156 174.191406 224.832031 173.625 C 224.617188 173.066406 224.375 172.46875 224.101562 171.828125 C 223.824219 171.191406 223.515625 170.511719 223.171875 169.789062 C 222.8125 169.078125 222.414062 168.320312 221.96875 167.519531 C 221.75 167.121094 221.515625 166.710938 221.273438 166.285156 C 221.023438 165.867188 220.753906 165.441406 220.472656 165 C 220.195312 164.558594 219.90625 164.105469 219.597656 163.644531 C 219.445312 163.410156 219.292969 163.175781 219.132812 162.9375 C 218.964844 162.703125 218.792969 162.464844 218.625 162.222656 L 219.273438 162.546875 C 219.378906 162.597656 219.484375 162.65625 219.589844 162.710938 L 219.90625 162.878906 L 221.164062 163.554688 L 222.425781 164.242188 C 222.636719 164.355469 222.839844 164.472656 223.042969 164.59375 L 223.652344 164.953125 L 224.875 165.675781 L 225.484375 166.039062 L 225.789062 166.226562 C 225.890625 166.285156 225.992188 166.347656 226.089844 166.410156 C 226.878906 166.910156 227.664062 167.417969 228.449219 167.933594 L 229.039062 168.320312 L 229.332031 168.515625 L 229.617188 168.714844 L 230.757812 169.507812 L 231.894531 170.316406 C 232.269531 170.585938 232.65625 170.855469 233.015625 171.132812 C 233.75 171.683594 234.480469 172.242188 235.207031 172.804688 L 235.75 173.230469 L 236.023438 173.441406 L 236.285156 173.65625 L 237.339844 174.523438 C 242.957031 179.15625 247.988281 184.199219 252.484375 189.441406 C 252.578125 189.550781 252.667969 189.660156 252.757812 189.769531 L 253.023438 190.097656 C 253.199219 190.316406 253.375 190.535156 253.546875 190.761719 C 253.890625 191.207031 254.226562 191.65625 254.550781 192.113281 C 254.875 192.570312 255.191406 193.035156 255.496094 193.503906 C 255.574219 193.617188 255.644531 193.738281 255.714844 193.855469 L 255.929688 194.210938 C 256.070312 194.445312 256.210938 194.6875 256.347656 194.925781 C 256.890625 195.886719 257.398438 196.863281 257.859375 197.851562 L 258.027344 198.222656 C 258.085938 198.347656 258.136719 198.472656 258.1875 198.597656 C 258.292969 198.847656 258.394531 199.097656 258.492188 199.351562 C 258.691406 199.855469 258.878906 200.359375 259.054688 200.867188 C 259.230469 201.378906 259.394531 201.886719 259.546875 202.398438 C 259.625 202.65625 259.699219 202.914062 259.769531 203.171875 C 259.804688 203.296875 259.839844 203.425781 259.875 203.554688 L 259.964844 203.941406 C 260.207031 204.976562 260.402344 206.015625 260.546875 207.058594 C 260.621094 207.582031 260.683594 208.101562 260.734375 208.621094 C 260.761719 208.882812 260.78125 209.140625 260.800781 209.402344 C 260.820312 209.664062 260.828125 209.925781 260.839844 210.1875 C 260.875 211.230469 260.863281 212.273438 260.800781 213.308594 C 260.761719 213.9375 260.71875 214.554688 260.664062 215.15625 C 260.636719 215.457031 260.609375 215.753906 260.578125 216.050781 C 260.570312 216.121094 260.5625 216.195312 260.554688 216.269531 C 260.542969 216.339844 260.535156 216.410156 260.527344 216.484375 C 260.507812 216.628906 260.488281 216.773438 260.46875 216.917969 C 260.308594 218.054688 260.113281 219.117188 259.878906 220.078125 C 259.410156 221.996094 258.789062 223.496094 257.992188 224.363281 C 257.992188 224.363281 258.222656 224.265625 258.636719 223.902344 C 259.054688 223.539062 259.660156 222.90625 260.414062 221.828125 C 261.164062 220.746094 262.0625 219.214844 263.050781 217.039062 C 263.296875 216.496094 263.550781 215.910156 263.808594 215.28125 C 264.0625 214.648438 264.332031 213.976562 264.582031 213.253906 C 265.089844 211.816406 265.609375 210.183594 266.125 208.332031 C 271.191406 216.636719 275.316406 225.046875 278.691406 233.277344 C 282.070312 241.511719 284.699219 249.570312 286.796875 257.238281 C 286.972656 257.882812 287.132812 258.527344 287.277344 259.179688 C 287.417969 259.828125 287.550781 260.480469 287.644531 261.136719 C 287.847656 262.445312 287.980469 263.761719 288.046875 265.078125 C 288.078125 265.738281 288.09375 266.394531 288.089844 267.050781 C 288.089844 267.378906 288.085938 267.707031 288.074219 268.035156 C 288.070312 268.203125 288.066406 268.363281 288.058594 268.527344 L 288.027344 269.019531 C 287.9375 270.332031 287.78125 271.636719 287.554688 272.929688 C 287.375 273.945312 287.183594 274.933594 286.972656 275.867188 C 286.871094 276.335938 286.761719 276.792969 286.648438 277.230469 C 286.53125 277.671875 286.410156 278.09375 286.285156 278.5 C 285.78125 280.125 285.21875 281.445312 284.597656 282.28125 C 284.597656 282.28125 285.277344 281.492188 286.375 280.003906 C 286.921875 279.261719 287.574219 278.339844 288.296875 277.253906 C 288.476562 276.980469 288.664062 276.699219 288.851562 276.40625 C 289.035156 276.113281 289.226562 275.8125 289.417969 275.5 C 289.804688 274.871094 290.203125 274.207031 290.609375 273.5 C 291.023438 275.503906 291.359375 277.46875 291.6875 279.382812 C 291.851562 280.339844 292.007812 281.285156 292.164062 282.214844 C 292.238281 282.683594 292.3125 283.144531 292.386719 283.605469 C 292.453125 284.066406 292.519531 284.523438 292.585938 284.980469 C 292.847656 286.796875 293.085938 288.566406 293.308594 290.277344 C 293.363281 290.703125 293.417969 291.128906 293.472656 291.550781 C 293.484375 291.65625 293.5 291.761719 293.511719 291.863281 C 293.523438 291.96875 293.535156 292.074219 293.546875 292.179688 C 293.570312 292.390625 293.59375 292.597656 293.617188 292.804688 C 293.707031 293.632812 293.796875 294.449219 293.878906 295.25 C 294.046875 296.851562 294.195312 298.390625 294.332031 299.871094 C 294.351562 300.054688 294.367188 300.238281 294.382812 300.421875 C 294.398438 300.605469 294.410156 300.789062 294.425781 300.96875 C 294.453125 301.332031 294.480469 301.691406 294.507812 302.046875 C 294.558594 302.753906 294.605469 303.449219 294.65625 304.125 C 294.746094 305.480469 294.828125 306.769531 294.898438 307.988281 C 294.914062 308.292969 294.929688 308.59375 294.949219 308.890625 C 294.964844 309.183594 294.980469 309.476562 294.992188 309.765625 C 295.011719 310.339844 295.035156 310.898438 295.054688 311.441406 C 295.058594 311.53125 295.074219 311.621094 295.101562 311.707031 L 297.003906 317.597656 L 297.160156 318.089844 L 297.617188 319.566406 L 298.832031 323.503906 L 299.441406 325.472656 L 299.746094 326.453125 L 299.898438 326.945312 L 300.042969 327.441406 L 302.375 335.332031 C 302.574219 335.988281 302.753906 336.648438 302.941406 337.304688 L 304.617188 343.234375 C 304.863281 344.003906 305.105469 344.777344 305.335938 345.558594 C 305.5625 346.34375 305.785156 347.132812 306 347.929688 C 306.59375 350.121094 307.125 352.289062 307.59375 354.425781 C 307.652344 354.695312 307.710938 354.960938 307.769531 355.226562 C 307.820312 355.492188 307.875 355.757812 307.929688 356.023438 C 308.03125 356.558594 308.132812 357.085938 308.230469 357.613281 C 308.425781 358.664062 308.605469 359.707031 308.769531 360.738281 C 308.933594 361.769531 309.082031 362.789062 309.21875 363.796875 C 309.285156 364.300781 309.347656 364.800781 309.40625 365.300781 C 309.46875 365.796875 309.515625 366.292969 309.566406 366.785156 C 309.753906 368.75 309.886719 370.660156 309.964844 372.507812 C 309.988281 373.050781 310.242188 375.066406 310.121094 375.996094 C 309.996094 376.925781 309.492188 376.773438 307.992188 373.003906 C 307.988281 372.988281 307.980469 372.976562 307.972656 372.960938 C 307.941406 372.902344 307.917969 372.835938 307.902344 372.773438 L 306.3125 366.527344 L 304.65625 360.296875 L 303.824219 357.179688 L 303.617188 356.402344 L 302.972656 354.070312 L 301.242188 347.851562 L 301.023438 347.074219 C 300.953125 346.816406 300.878906 346.554688 300.804688 346.296875 L 300.351562 344.746094 L 298.550781 338.542969 L 298.324219 337.769531 C 298.25 337.511719 298.175781 337.253906 298.097656 336.996094 L 297.625 335.449219 L 295.75 329.261719 C 295.441406 328.230469 295.109375 327.203125 294.785156 326.175781 L 293.804688 323.089844 L 292.828125 320.007812 C 292.667969 319.492188 292.492188 318.980469 292.324219 318.46875 L 291.816406 316.929688 L 290.796875 313.855469 L 290.289062 312.320312 L 290.035156 311.550781 L 289.90625 311.164062 L 289.773438 310.78125 L 287.65625 304.652344 L 287.125 303.121094 L 286.578125 301.59375 L 284.375 295.484375 C 284.285156 295.230469 284.183594 294.976562 284.089844 294.722656 L 283.804688 293.960938 L 283.230469 292.441406 L 282.085938 289.398438 L 281.511719 287.878906 C 281.316406 287.371094 281.117188 286.867188 280.917969 286.363281 L 278.53125 280.304688 L 276.054688 274.273438 C 272.695312 266.246094 269.117188 258.285156 265.25 250.425781 C 264.304688 248.453125 263.285156 246.503906 262.292969 244.546875 L 261.546875 243.082031 L 261.453125 242.898438 L 261.355469 242.71875 L 261.160156 242.351562 L 260.773438 241.625 L 259.21875 238.714844 L 258.832031 237.988281 C 258.703125 237.746094 258.574219 237.503906 258.4375 237.261719 L 257.632812 235.816406 L 256.023438 232.929688 L 255.820312 232.570312 L 255.71875 232.386719 L 255.617188 232.210938 L 255.199219 231.492188 L 254.363281 230.0625 L 253.527344 228.628906 L 253.109375 227.914062 L 252.898438 227.554688 C 252.828125 227.4375 252.753906 227.316406 252.683594 227.199219 L 250.949219 224.363281 L 250.082031 222.941406 C 249.789062 222.472656 249.484375 222.003906 249.1875 221.535156 L 247.390625 218.726562 L 247.164062 218.375 L 246.933594 218.027344 L 246.46875 217.332031 L 245.535156 215.941406 L 244.605469 214.550781 L 244.371094 214.203125 C 244.292969 214.085938 244.210938 213.972656 244.132812 213.859375 L 243.648438 213.171875 L 241.71875 210.421875 C 241.636719 210.308594 241.558594 210.195312 241.472656 210.082031 L 240.722656 209.0625 L 239.726562 207.707031 L 238.722656 206.351562 L 237.691406 205.011719 L 236.652344 203.671875 L 236.136719 203.003906 C 236.050781 202.894531 235.964844 202.777344 235.875 202.667969 L 235.605469 202.339844 L 233.464844 199.703125 L 233.195312 199.371094 C 233.105469 199.261719 233.011719 199.15625 232.917969 199.046875 L 230.421875 196.128906 C 230.328125 196.023438 230.230469 195.914062 230.136719 195.808594 L 228.988281 194.53125 C 225.925781 191.136719 222.699219 187.835938 219.25 184.695312 L 219.476562 184.90625 C 219.554688 184.976562 219.628906 185.046875 219.699219 185.117188 L 220.140625 185.546875 L 221.019531 186.40625 L 221.894531 187.269531 L 222.117188 187.480469 L 222.226562 187.589844 L 222.332031 187.699219 L 222.757812 188.140625 L 224.453125 189.898438 L 224.878906 190.339844 L 225.289062 190.785156 L 226.109375 191.683594 L 226.929688 192.578125 L 227.339844 193.027344 C 227.40625 193.101562 227.476562 193.175781 227.542969 193.253906 L 227.742188 193.480469 L 229.324219 195.304688 L 230.117188 196.21875 C 230.375 196.527344 230.628906 196.839844 230.882812 197.148438 L 232.414062 199.003906 C 236.445312 203.976562 240.15625 209.121094 243.617188 214.371094 C 247.082031 219.621094 250.296875 224.980469 253.328125 230.40625 L 254.460938 232.441406 L 254.746094 232.953125 L 255.019531 233.464844 L 255.566406 234.492188 L 256.660156 236.542969 L 257.207031 237.570312 L 257.480469 238.082031 L 257.746094 238.597656 L 259.847656 242.730469 L 260.113281 243.246094 L 260.242188 243.507812 L 260.371094 243.765625 L 260.875 244.804688 L 261.886719 246.886719 L 262.898438 248.964844 C 262.984375 249.140625 263.066406 249.3125 263.144531 249.488281 L 263.390625 250.011719 L 263.875 251.058594 C 264.523438 252.453125 265.175781 253.847656 265.816406 255.246094 L 267.6875 259.457031 L 268.15625 260.507812 C 268.308594 260.859375 268.46875 261.207031 268.617188 261.5625 L 269.515625 263.679688 L 270.414062 265.792969 L 270.863281 266.851562 L 271.089844 267.378906 L 271.308594 267.910156 L 273.035156 272.164062 L 273.898438 274.289062 L 274.726562 276.425781 L 276.382812 280.695312 L 276.59375 281.230469 C 276.660156 281.410156 276.726562 281.589844 276.792969 281.765625 L 277.191406 282.839844 L 277.984375 284.984375 L 278.78125 287.128906 C 279.046875 287.84375 279.316406 288.558594 279.566406 289.277344 L 281.09375 293.582031 L 281.855469 295.734375 C 281.984375 296.09375 282.105469 296.453125 282.226562 296.8125 L 282.59375 297.894531 L 284.058594 302.214844 L 284.425781 303.296875 L 284.605469 303.835938 L 284.785156 304.378906 L 285.484375 306.546875 L 286.890625 310.882812 L 287.242188 311.964844 L 287.578125 313.050781 L 288.25 315.226562 C 288.539062 316.152344 287.4375 316.917969 286.640625 316.351562 C 285.417969 315.484375 284.214844 314.617188 283.035156 313.757812 C 282.4375 313.328125 281.847656 312.898438 281.257812 312.472656 C 280.667969 312.046875 280.085938 311.621094 279.503906 311.199219 C 278.347656 310.351562 277.207031 309.503906 276.085938 308.664062 C 275.527344 308.242188 274.972656 307.824219 274.421875 307.40625 C 273.863281 306.992188 273.3125 306.574219 272.761719 306.164062 C 271.664062 305.335938 270.585938 304.511719 269.523438 303.691406 C 268.996094 303.277344 268.472656 302.871094 267.949219 302.460938 C 267.425781 302.054688 266.914062 301.644531 266.394531 301.242188 C 264.316406 299.625 262.316406 298.023438 260.382812 296.433594 C 252.601562 290.101562 245.765625 284.0625 239.742188 278.28125 C 241.636719 278.574219 243.367188 278.808594 244.941406 278.992188 C 246.507812 279.1875 247.917969 279.328125 249.183594 279.429688 C 251.71875 279.628906 253.683594 279.65625 255.175781 279.597656 C 256.664062 279.542969 257.679688 279.398438 258.324219 279.269531 C 258.964844 279.136719 259.234375 279.019531 259.234375 279.019531 C 256.308594 279.78125 253.042969 279.398438 249.792969 278.421875 C 249.386719 278.300781 248.980469 278.171875 248.574219 278.03125 C 248.371094 277.960938 248.167969 277.890625 247.96875 277.816406 C 247.765625 277.742188 247.558594 277.671875 247.355469 277.59375 C 246.539062 277.289062 245.730469 276.957031 244.933594 276.601562 C 243.335938 275.894531 241.785156 275.101562 240.320312 274.289062 C 239.953125 274.085938 239.585938 273.882812 239.226562 273.683594 C 238.867188 273.484375 238.511719 273.28125 238.164062 273.078125 C 237.472656 272.675781 236.804688 272.273438 236.167969 271.878906 C 235.53125 271.484375 234.929688 271.101562 234.363281 270.730469 C 233.792969 270.363281 233.257812 270.011719 232.761719 269.6875 C 230.785156 268.386719 229.480469 267.441406 229.191406 267.28125 C 229.15625 267.265625 229.117188 267.273438 229.089844 267.296875 C 229.054688 267.328125 228.996094 267.328125 228.96875 267.296875 C 223.855469 261.742188 219.5 256.4375 215.765625 251.339844 C 212.027344 246.242188 208.90625 241.355469 206.257812 236.636719 C 206.09375 236.339844 205.929688 236.039062 205.769531 235.742188 C 205.605469 235.453125 205.441406 235.164062 205.285156 234.875 C 204.964844 234.292969 204.652344 233.710938 204.351562 233.125 C 204.28125 232.980469 204.207031 232.832031 204.128906 232.6875 L 204.019531 232.464844 L 203.90625 232.253906 C 203.753906 231.96875 203.609375 231.683594 203.460938 231.394531 C 203.171875 230.824219 202.886719 230.25 202.613281 229.671875 C 202.542969 229.527344 202.476562 229.382812 202.40625 229.242188 C 202.339844 229.101562 202.269531 228.957031 202.199219 228.816406 C 202.0625 228.539062 201.925781 228.257812 201.792969 227.976562 C 201.527344 227.410156 201.269531 226.84375 201.015625 226.273438 C 200.953125 226.128906 200.890625 225.992188 200.824219 225.855469 C 200.761719 225.714844 200.699219 225.578125 200.636719 225.441406 C 200.507812 225.164062 200.386719 224.882812 200.261719 224.605469 C 200.140625 224.328125 200.019531 224.046875 199.902344 223.765625 C 199.84375 223.625 199.785156 223.488281 199.726562 223.347656 C 199.664062 223.207031 199.609375 223.0625 199.550781 222.929688 C 197.667969 218.507812 196.097656 214.210938 194.660156 210 C 195.285156 210.066406 195.894531 210.132812 196.492188 210.195312 C 197.09375 210.277344 197.679688 210.359375 198.257812 210.4375 C 198.550781 210.476562 198.835938 210.515625 199.121094 210.550781 C 199.265625 210.570312 199.40625 210.589844 199.550781 210.609375 C 199.621094 210.621094 199.691406 210.628906 199.761719 210.640625 C 199.832031 210.648438 199.902344 210.660156 199.96875 210.671875 C 200.53125 210.761719 201.078125 210.851562 201.613281 210.933594 C 202.15625 211.019531 202.683594 211.101562 203.203125 211.183594 C 203.265625 211.195312 203.332031 211.203125 203.394531 211.214844 C 203.460938 211.226562 203.523438 211.238281 203.585938 211.25 C 203.714844 211.273438 203.839844 211.296875 203.96875 211.316406 C 204.21875 211.363281 204.46875 211.40625 204.714844 211.453125 C 205.214844 211.539062 205.695312 211.621094 206.167969 211.707031 C 206.40625 211.746094 206.640625 211.785156 206.871094 211.828125 C 206.988281 211.847656 207.105469 211.863281 207.21875 211.886719 C 207.332031 211.90625 207.445312 211.929688 207.558594 211.949219 C 208.457031 212.121094 209.3125 212.277344 210.132812 212.421875 C 210.539062 212.496094 210.941406 212.566406 211.328125 212.632812 C 211.523438 212.664062 211.707031 212.703125 211.894531 212.738281 C 212.082031 212.773438 212.265625 212.808594 212.449219 212.839844 C 213.175781 212.976562 213.859375 213.09375 214.503906 213.203125 C 214.828125 213.253906 215.144531 213.304688 215.445312 213.355469 C 215.59375 213.378906 215.746094 213.402344 215.890625 213.425781 C 216.039062 213.445312 216.179688 213.46875 216.320312 213.492188 C 218.554688 213.859375 220.160156 214.027344 221.195312 214.089844 C 221.328125 214.097656 221.449219 214.105469 221.558594 214.109375 C 221.671875 214.117188 221.773438 214.121094 221.867188 214.125 C 222.054688 214.132812 222.210938 214.136719 222.332031 214.136719 C 222.578125 214.140625 222.695312 214.128906 222.695312 214.128906 C 222.488281 214.105469 222.28125 214.070312 222.070312 214.035156 C 221.96875 214.015625 221.863281 213.996094 221.757812 213.976562 C 221.648438 213.953125 221.542969 213.933594 221.433594 213.914062 C 220.996094 213.824219 220.554688 213.71875 220.101562 213.597656 C 219.195312 213.351562 218.257812 213.042969 217.296875 212.675781 C 217.179688 212.632812 217.058594 212.585938 216.933594 212.542969 C 216.8125 212.496094 216.691406 212.453125 216.566406 212.40625 C 216.320312 212.3125 216.074219 212.214844 215.824219 212.117188 C 215.328125 211.917969 214.828125 211.710938 214.324219 211.488281 C 213.324219 211.042969 212.277344 210.597656 211.246094 210.113281 C 210.988281 209.992188 210.730469 209.867188 210.46875 209.742188 C 210.339844 209.679688 210.210938 209.617188 210.082031 209.554688 L 209.691406 209.367188 C 209.167969 209.125 208.640625 208.878906 208.121094 208.628906 C 207.863281 208.5 207.601562 208.375 207.339844 208.246094 L 206.953125 208.054688 L 206.761719 207.957031 C 206.695312 207.921875 206.628906 207.894531 206.566406 207.863281 C 206.039062 207.617188 205.519531 207.371094 205.007812 207.117188 C 204.753906 206.992188 204.496094 206.867188 204.242188 206.742188 C 204.113281 206.679688 203.988281 206.617188 203.859375 206.550781 C 203.734375 206.488281 203.605469 206.433594 203.476562 206.371094 C 202.96875 206.132812 202.464844 205.894531 201.96875 205.65625 C 201.722656 205.535156 201.476562 205.414062 201.234375 205.296875 L 201.046875 205.207031 L 200.867188 205.121094 C 200.742188 205.066406 200.621094 205.011719 200.496094 204.953125 C 200.011719 204.734375 199.535156 204.511719 199.070312 204.292969 C 198.453125 203.988281 197.84375 203.699219 197.273438 203.359375 C 196.988281 203.1875 196.710938 203.011719 196.4375 202.824219 L 196.238281 202.683594 L 196.035156 202.550781 C 195.898438 202.457031 195.765625 202.367188 195.636719 202.269531 C 195.375 202.078125 195.121094 201.882812 194.875 201.675781 C 194.75 201.570312 194.628906 201.464844 194.507812 201.355469 L 194.148438 201.035156 C 193.675781 200.613281 193.226562 200.15625 192.808594 199.664062 C 191.117188 197.75 189.808594 195.460938 188.832031 192.777344 C 188.636719 192.246094 188.441406 191.71875 188.25 191.195312 C 188.050781 190.671875 187.851562 190.15625 187.65625 189.644531 C 187.554688 189.382812 187.453125 189.121094 187.355469 188.863281 C 187.253906 188.609375 187.148438 188.355469 187.046875 188.101562 C 186.839844 187.59375 186.632812 187.082031 186.421875 186.574219 C 186.207031 186.070312 185.992188 185.574219 185.78125 185.078125 C 185.722656 184.953125 185.671875 184.828125 185.617188 184.707031 C 185.5625 184.582031 185.507812 184.453125 185.453125 184.332031 C 185.339844 184.089844 185.230469 183.847656 185.117188 183.605469 C 185.007812 183.359375 184.894531 183.113281 184.785156 182.871094 C 184.726562 182.75 184.667969 182.628906 184.613281 182.503906 L 184.441406 182.144531 C 184.207031 181.667969 183.976562 181.191406 183.746094 180.71875 C 183.511719 180.238281 183.273438 179.785156 183.03125 179.324219 C 182.90625 179.09375 182.785156 178.863281 182.667969 178.632812 C 182.605469 178.519531 182.542969 178.402344 182.480469 178.289062 C 182.421875 178.171875 182.359375 178.0625 182.296875 177.953125 C 182.050781 177.503906 181.796875 177.058594 181.546875 176.617188 C 181.484375 176.503906 181.421875 176.394531 181.359375 176.285156 C 181.292969 176.175781 181.230469 176.066406 181.167969 175.960938 C 181.035156 175.746094 180.90625 175.527344 180.78125 175.316406 C 180.648438 175.101562 180.519531 174.886719 180.390625 174.675781 C 180.324219 174.570312 180.261719 174.460938 180.195312 174.355469 C 180.128906 174.253906 180.0625 174.152344 179.996094 174.046875 C 179.734375 173.636719 179.46875 173.226562 179.203125 172.820312 C 179.070312 172.613281 178.933594 172.421875 178.796875 172.222656 C 178.664062 172.027344 178.527344 171.832031 178.390625 171.636719 C 178.257812 171.441406 178.121094 171.246094 177.984375 171.054688 C 177.851562 170.863281 177.710938 170.679688 177.574219 170.492188 C 177.300781 170.121094 177.023438 169.75 176.75 169.386719 C 176.472656 169.03125 176.195312 168.683594 175.914062 168.335938 C 175.777344 168.164062 175.640625 167.992188 175.503906 167.824219 C 175.359375 167.660156 175.21875 167.492188 175.082031 167.328125 C 174.804688 167.003906 174.527344 166.683594 174.25 166.371094 C 173.691406 165.757812 173.144531 165.15625 172.589844 164.609375 C 172.453125 164.472656 172.320312 164.335938 172.183594 164.199219 C 172.050781 164.066406 171.914062 163.933594 171.777344 163.804688 C 171.503906 163.546875 171.238281 163.300781 170.972656 163.054688 C 168.910156 161.136719 167.203125 159.789062 166.171875 158.992188 C 165.875 158.765625 165.773438 158.457031 165.847656 158.148438 " fill-opacity="1" fill-rule="nonzero"/></g></g></g></svg>