<svg xmlns="http://www.w3.org/2000/svg" width="60" height="60"><g fill="none" fill-rule="evenodd" stroke-linecap="round" stroke-linejoin="round"><path fill="#A41E11" d="M57.656 43.99c-3.201 1.683-19.787 8.561-23.318 10.417s-5.494 1.838-8.283.494c-2.79-1.343-20.449-8.535-23.629-10.067C.834 44.066.002 43.422.002 42.811v-6.117s22.98-5.045 26.69-6.388 4.995-1.39 8.154-.225c3.16 1.165 22.035 4.603 25.154 5.756v6.032c0 .605-.72 1.283-2.35 2.124z"/><path fill="#D82C20" d="M57.656 37.872c-3.201 1.685-19.787 8.56-23.318 10.417s-5.494 1.838-8.283.494c-2.79-1.343-20.449-8.534-23.63-10.068s-3.243-2.588-.122-3.82l24.388-9.52c3.71-1.34 4.994-1.39 8.153-.225s19.643 7.78 22.747 8.951c3.103 1.17 3.24 2.086.037 3.786z"/><path fill="#A41E11" d="M57.656 34.015c-3.201 1.683-19.787 8.561-23.318 10.417s-5.494 1.838-8.283.495c-2.79-1.344-20.449-8.536-23.629-10.067C.834 34.092.002 33.447.002 32.836V26.72s22.98-5.045 26.69-6.387c3.711-1.343 4.995-1.39 8.154-.225 3.16 1.165 22.035 4.602 25.154 5.756v6.032c0 .605-.72 1.283-2.35 2.123z"/><path fill="#D82C20" d="M57.656 27.898c-3.201 1.685-19.787 8.561-23.318 10.417s-5.494 1.838-8.283.495c-2.79-1.344-20.449-8.534-23.63-10.067-3.18-1.534-3.243-2.588-.122-3.82l24.388-9.52c3.71-1.343 4.994-1.39 8.153-.225 3.16 1.166 19.644 7.785 22.765 8.935s3.24 2.085.038 3.785z"/><path fill="#A41E11" d="M57.656 23.671c-3.201 1.683-19.787 8.561-23.318 10.419s-5.494 1.838-8.283.495c-2.79-1.344-20.449-8.535-23.629-10.069-1.592-.765-2.424-1.411-2.424-2.02v-6.11s22.98-5.045 26.69-6.388 4.995-1.39 8.154-.225c3.16 1.165 22.035 4.591 25.154 5.745v6.032c0 .605-.72 1.283-2.35 2.123z"/><path fill="#D82C20" d="M57.656 17.553c-3.201 1.685-19.787 8.561-23.318 10.417s-5.494 1.838-8.283.495c-2.79-1.344-20.449-8.534-23.63-10.068s-3.243-2.587-.122-3.82l24.388-9.52c3.71-1.343 4.994-1.39 8.153-.226 3.16 1.165 19.643 7.785 22.765 8.936s3.24 2.085.038 3.785z"/><path fill="#FFF" d="m31.497 15.032-1.88-3.153-6.002-.545 4.48-1.63L26.75 7.2l4.192 1.653 3.955-1.305-1.07 2.586 4.032 1.524-5.198.546zm-10.014 6.275 13.903-2.153-4.2 6.211zm-11.17-5.167c0-1.61 3.314-2.906 7.431-2.906 4.118 0 7.432 1.296 7.432 2.906s-3.314 2.905-7.432 2.905c-4.117 0-7.431-1.295-7.431-2.905"/><path fill="#7A0C00" d="m52.233 15.714-8.224 3.276-.007-6.556z"/><path fill="#AD2115" d="m44.01 18.991-.89.353-8.217-3.276 9.094-3.63z"/></g></svg>