<svg xmlns="http://www.w3.org/2000/svg" xmlns:xlink="http://www.w3.org/1999/xlink" viewBox="0 0 66 59" fill="#fff" fill-rule="evenodd" stroke="#000" stroke-linecap="round" stroke-linejoin="round"><use xlink:href="#A" x=".5" y=".5"/><symbol id="A" overflow="visible"><path d="M32.196 0A32.27 32.27 0 0 0 2.312 20.275 32.27 32.27 0 0 0 9.95 55.571c2.27 2.167 5.782 2.349 8.264.43 8.15-6.045 19.295-6.045 27.445 0 2.507 1.985 6.098 1.8 8.389-.43A32.27 32.27 0 0 0 32.196 0m-.18 48.275a15.63 15.63 0 0 1-16.133-16.026c-.196-5.857 2.816-11.355 7.858-14.341s11.311-2.987 16.353 0 8.055 8.485 7.858 14.341c.115 4.284-1.537 8.428-4.568 11.458s-7.174 4.682-11.458 4.568" stroke="none" fill="#81b5a1"/></symbol></svg>