<svg xmlns="http://www.w3.org/2000/svg" xmlns:xlink="http://www.w3.org/1999/xlink" fill="#fff" fill-rule="evenodd" stroke="#000" stroke-linecap="round" stroke-linejoin="round" viewBox="0 0 66 59"><use xlink:href="#a" x=".5" y=".5"/><symbol id="a" overflow="visible"><path fill="#81b5a1" stroke="none" d="M32.196 0A32.27 32.27 0 0 0 2.312 20.275 32.27 32.27 0 0 0 9.95 55.571a6.346 6.346 0 0 0 8.264.43 23.03 23.03 0 0 1 27.445 0 6.364 6.364 0 0 0 8.389-.43A32.27 32.27 0 0 0 32.196 0m-.18 48.275a15.63 15.63 0 0 1-16.133-16.026 16.043 16.043 0 1 1 32.069 0c.115 4.284-1.537 8.428-4.568 11.458s-7.174 4.682-11.458 4.568"/></symbol></svg>