<?xml version="1.0" standalone="no"?>
<!DOCTYPE svg PUBLIC "-//W3C//DTD SVG 20010904//EN"
 "http://www.w3.org/TR/2001/REC-SVG-20010904/DTD/svg10.dtd">
<svg version="1.0" xmlns="http://www.w3.org/2000/svg"
 width="364.000000pt" height="364.000000pt" viewBox="0 0 364.000000 364.000000"
 preserveAspectRatio="xMidYMid meet">

<g transform="translate(0.000000,364.000000) scale(0.100000,-0.100000)"
fill="#ff2564" stroke="none">
<path d="M1620 3625 c-215 -26 -398 -80 -585 -171 -386 -188 -678 -482 -856
-859 -133 -284 -197 -628 -170 -912 15 -159 37 -268 90 -444 39 -128 167 -375
264 -504 63 -85 246 -271 342 -347 116 -93 277 -184 460 -263 109 -47 348
-100 519 -116 104 -10 162 -10 267 0 604 54 1107 362 1422 871 191 310 291
723 258 1072 -13 148 -47 314 -91 447 -151 458 -507 859 -940 1058 -52 24
-102 48 -110 52 -19 10 -198 65 -260 80 -204 48 -409 61 -610 36z m585 -783
c160 -44 330 -143 420 -244 25 -29 66 -93 90 -143 95 -196 77 -380 -49 -506
-70 -70 -106 -83 -226 -84 -92 0 -111 3 -153 24 -69 36 -139 114 -166 186 -34
89 -31 174 10 316 65 224 39 339 -91 404 -42 22 -149 25 -202 6 -81 -27 -176
-132 -234 -256 -66 -143 -101 -343 -91 -529 11 -220 63 -371 172 -507 154
-190 412 -266 693 -203 117 26 232 88 345 187 55 48 72 58 92 53 14 -4 25 -12
25 -19 0 -19 -85 -180 -137 -262 -117 -180 -302 -347 -468 -420 -167 -74 -397
-99 -607 -65 -199 32 -403 136 -548 280 -294 295 -372 774 -191 1174 137 303
433 538 776 616 119 27 427 22 540 -8z"/>
</g>
</svg>
