<svg width="40" height="40" viewBox="0 0 40 40" fill="none" xmlns="http://www.w3.org/2000/svg">
<circle cx="20.0499" cy="20.0499" r="15.5118" fill="white"/>
<path d="M17.79 0.136905C15.4247 0.422938 13.4114 1.01701 11.3542 2.01812C7.10772 4.08636 3.89535 7.32073 1.93713 11.4682C0.473957 14.5926 -0.230124 18.377 0.0669105 21.5014C0.23193 23.2506 0.473957 24.4497 1.05702 26.3859C1.48607 27.7941 2.89424 30.5114 3.96136 31.9306C4.65444 32.8657 6.66767 34.9119 7.72379 35.748C8.99994 36.7711 10.7711 37.7722 12.7844 38.6413C13.9835 39.1584 16.6128 39.7415 18.494 39.9175C19.6382 40.0275 20.2762 40.0275 21.4314 39.9175C28.0761 39.3234 33.6098 35.935 37.0752 30.3354C39.1764 26.925 40.2765 22.3815 39.9135 18.542C39.7705 16.9138 39.3964 15.0876 38.9124 13.6245C37.2512 8.58588 33.3347 4.17437 28.5712 1.98512C27.9991 1.72109 27.4491 1.45706 27.3611 1.41305C27.152 1.30304 25.1828 0.697969 24.5007 0.53295C22.2565 0.00488941 20.0012 -0.138127 17.79 0.136905ZM24.2257 8.7509C25.9859 9.23495 27.8561 10.3241 28.8462 11.4352C29.1213 11.7542 29.5723 12.4583 29.8363 13.0084C30.8815 15.1646 30.6834 17.1889 29.2973 18.575C28.5272 19.3451 28.1311 19.4881 26.811 19.4991C25.7989 19.4991 25.5899 19.4661 25.1278 19.2351C24.3687 18.8391 23.5986 17.981 23.3016 17.1889C22.9275 16.2098 22.9605 15.2746 23.4116 13.7125C24.1267 11.2482 23.8407 9.98304 22.4105 9.26796C21.9484 9.02593 20.7713 8.99293 20.1882 9.20195C19.2971 9.49898 18.252 10.6541 17.6139 12.0183C16.8878 13.5915 16.5028 15.7917 16.6128 17.8379C16.7338 20.2582 17.3059 21.9194 18.505 23.4156C20.1992 25.5058 23.0376 26.3419 26.1289 25.6488C27.4161 25.3628 28.6812 24.6807 29.9244 23.5916C30.5294 23.0635 30.7164 22.9535 30.9365 23.0085C31.0905 23.0525 31.2115 23.1406 31.2115 23.2176C31.2115 23.4266 30.2764 25.1978 29.7043 26.0999C28.4172 28.0801 26.3819 29.9173 24.5557 30.7204C22.7185 31.5345 20.1882 31.8096 17.878 31.4355C15.6887 31.0835 13.4445 29.9393 11.8493 28.3552C8.6149 25.1098 7.7568 19.8402 9.74803 15.4397C11.2552 12.1063 14.5116 9.52099 18.285 8.66289C19.5942 8.36585 22.9826 8.42086 24.2257 8.7509Z" fill="#FF2564"/>
</svg>
