<svg id="svg" version="1.1" xmlns="http://www.w3.org/2000/svg" xmlns:xlink="http://www.w3.org/1999/xlink" width="400" height="210" viewBox="0, 0, 400,210"><g id="svgg"><path id="path0" d="M153.992 68.600 C 150.261 68.973,145.269 70.085,142.542 71.151 C 142.080 71.331,141.513 71.550,141.282 71.637 C 131.223 75.412,120.782 85.294,116.862 94.748 C 110.005 111.284,113.931 129.472,126.357 138.737 C 139.660 148.656,162.884 148.348,177.836 138.055 C 184.585 133.410,190.509 126.549,192.974 120.525 C 193.266 119.809,193.597 119.034,193.707 118.803 C 196.657 112.638,197.030 100.197,194.494 92.565 C 190.729 81.235,181.810 72.756,170.693 69.939 C 164.567 68.386,159.878 68.010,153.992 68.600 M256.029 68.596 C 250.357 69.321,243.420 72.307,238.605 76.094 C 237.863 76.679,237.077 76.817,237.082 76.363 C 237.083 76.249,237.215 75.006,237.374 73.600 C 237.534 72.195,237.606 70.895,237.536 70.712 C 237.383 70.312,219.432 70.195,218.696 70.589 C 218.432 70.730,218.261 71.128,218.175 71.797 C 218.105 72.345,217.956 73.379,217.843 74.095 C 217.731 74.810,217.502 76.464,217.335 77.771 C 217.168 79.078,216.880 81.092,216.696 82.248 C 216.512 83.403,216.229 85.294,216.067 86.450 C 215.314 91.814,214.164 99.657,213.757 102.206 C 213.194 105.728,212.820 108.292,212.608 110.084 C 212.492 111.066,212.260 112.768,212.093 113.866 C 211.393 118.473,211.108 120.393,210.818 122.479 C 210.649 123.692,210.320 125.961,210.086 127.521 C 209.852 129.081,209.512 131.350,209.332 132.563 C 209.151 133.776,208.869 135.667,208.704 136.765 C 207.873 142.297,207.751 143.522,207.999 143.822 C 208.367 144.265,226.506 144.262,226.949 143.819 C 227.123 143.645,227.351 142.658,227.496 141.456 C 227.632 140.320,227.880 138.445,228.048 137.290 C 228.827 131.907,229.013 130.609,229.808 125.000 C 231.088 115.961,231.274 114.797,232.460 108.403 C 233.488 102.862,234.703 98.769,236.078 96.218 C 243.137 83.124,261.517 80.950,263.253 93.005 C 263.504 94.745,262.992 100.480,261.982 107.248 C 261.741 108.866,261.446 110.939,261.327 111.856 C 261.209 112.772,261.071 113.587,261.022 113.667 C 260.973 113.746,260.843 114.556,260.734 115.467 C 260.447 117.849,259.254 126.032,258.286 132.248 C 257.122 139.726,256.663 143.741,256.952 143.924 C 257.306 144.148,275.419 144.179,275.767 143.957 C 276.056 143.772,276.510 141.395,277.098 136.975 C 277.507 133.907,277.613 133.159,278.161 129.517 C 278.405 127.900,278.684 125.968,279.498 120.273 C 280.008 116.707,280.256 115.058,281.000 110.294 C 282.575 100.193,283.537 91.126,283.309 88.511 C 282.133 74.983,270.795 66.706,256.029 68.596 M161.870 86.017 C 166.702 86.886,170.545 89.116,173.406 92.713 C 181.500 102.887,175.476 122.058,162.548 127.266 C 157.774 129.189,148.461 129.786,145.762 128.342 C 145.566 128.237,145.243 128.151,145.044 128.151 C 143.195 128.151,137.960 124.328,136.144 121.651 C 128.691 110.663,135.225 91.929,148.161 87.196 C 151.985 85.797,157.842 85.293,161.870 86.017 " stroke="none" fill="#27b3e2" fill-rule="evenodd"></path><path id="path1" d="M94.958 105.042 L 94.958 210.084 200.315 210.084 L 305.672 210.084 305.672 105.042 L 305.672 0.000 200.315 0.000 L 94.958 0.000 94.958 105.042 M268.172 67.834 C 274.188 69.065,279.244 72.143,282.795 76.738 C 287.958 83.418,288.763 90.463,286.235 106.828 C 286.074 107.868,285.748 110.089,285.509 111.765 C 284.883 116.170,283.675 124.457,283.199 127.626 C 282.973 129.128,282.502 132.390,282.152 134.874 C 280.254 148.342,279.882 148.728,268.765 148.736 C 259.817 148.742,258.247 148.280,256.531 145.136 C 255.739 143.684,255.707 142.738,256.311 138.655 C 256.542 137.096,257.066 133.550,257.475 130.777 C 257.885 128.004,258.297 125.215,258.391 124.580 C 258.485 123.944,258.671 122.668,258.803 121.744 C 258.936 120.819,259.142 119.401,259.261 118.592 C 259.379 117.784,259.614 116.129,259.782 114.916 C 259.950 113.703,260.218 111.859,260.379 110.819 C 261.955 100.635,262.228 96.371,261.458 94.013 C 259.733 88.735,251.486 88.285,245.199 93.126 C 239.206 97.741,237.353 103.263,234.147 126.050 C 233.960 127.379,233.675 129.317,233.513 130.357 C 233.352 131.397,233.060 133.477,232.864 134.979 C 231.603 144.676,230.881 146.425,227.564 147.827 L 226.155 148.422 219.118 148.414 C 210.249 148.404,209.429 148.174,207.772 145.239 C 206.841 143.589,206.873 143.017,208.524 131.828 C 208.694 130.672,208.928 128.971,209.043 128.046 C 209.158 127.122,209.336 126.082,209.439 125.735 C 209.542 125.389,209.683 124.538,209.753 123.845 C 209.822 123.151,209.968 122.111,210.076 121.534 C 210.185 120.956,210.470 119.112,210.711 117.437 C 210.951 115.762,211.286 113.622,211.456 112.682 C 211.626 111.743,211.767 110.608,211.770 110.161 C 211.772 109.714,211.868 108.971,211.981 108.508 C 212.094 108.046,212.327 106.581,212.498 105.252 C 213.114 100.454,213.740 96.155,214.197 93.592 C 214.361 92.668,214.496 91.638,214.496 91.302 C 214.496 90.967,214.629 89.975,214.792 89.097 C 214.956 88.218,215.203 86.602,215.343 85.504 C 215.482 84.407,215.729 82.610,215.891 81.513 C 216.053 80.415,216.279 78.761,216.394 77.836 C 216.508 76.912,216.656 76.014,216.721 75.840 C 216.786 75.667,216.969 74.816,217.127 73.950 C 217.637 71.159,218.078 70.099,218.803 69.928 C 221.676 69.250,223.445 69.119,229.832 69.107 C 237.322 69.094,237.424 69.109,240.086 70.670 C 242.312 71.975,244.274 72.017,245.903 70.795 C 246.132 70.624,249.234 69.340,250.420 68.926 C 255.111 67.288,263.100 66.797,268.172 67.834 M166.702 67.663 C 179.433 69.178,190.627 76.876,196.162 87.922 C 200.767 97.114,201.505 109.348,198.074 119.622 C 192.748 135.571,177.238 147.572,159.034 149.829 C 128.695 153.591,108.354 134.010,112.834 105.357 C 113.397 101.752,114.922 96.357,115.561 95.704 C 115.668 95.594,115.756 95.372,115.756 95.210 C 115.756 94.826,117.731 90.910,118.511 89.748 C 118.845 89.251,119.118 88.798,119.118 88.741 C 119.118 88.637,119.972 87.377,120.173 87.185 C 120.234 87.127,120.798 86.418,121.428 85.609 C 123.252 83.266,124.373 82.080,126.913 79.807 C 129.472 77.516,129.981 77.101,130.227 77.101 C 130.356 77.101,130.462 77.011,130.462 76.902 C 130.462 76.793,130.695 76.580,130.980 76.430 C 131.265 76.279,132.187 75.671,133.029 75.078 C 135.612 73.259,141.784 70.268,143.908 69.806 C 144.196 69.743,144.537 69.609,144.665 69.509 C 144.793 69.408,145.313 69.235,145.821 69.122 C 146.328 69.010,147.813 68.679,149.120 68.386 C 153.180 67.477,162.066 67.111,166.702 67.663 M156.092 90.123 C 139.606 92.311,131.099 114.059,142.778 124.161 C 147.643 128.368,156.977 129.003,163.971 125.603 C 173.664 120.889,178.636 107.528,174.123 98.319 C 171.265 92.489,163.807 89.099,156.092 90.123 " stroke="none" fill="#eff4fa" fill-rule="evenodd"></path><path id="path2" d="M226.326 70.325 C 228.269 70.360,231.389 70.360,233.259 70.325 C 235.129 70.290,233.540 70.262,229.727 70.262 C 225.914 70.262,224.384 70.291,226.326 70.325 M237.387 73.441 C 237.222 74.934,237.086 76.249,237.084 76.363 C 237.074 76.901,237.905 76.598,239.416 75.514 C 240.326 74.861,241.331 74.192,241.649 74.028 C 242.556 73.559,242.325 73.505,241.334 73.955 C 239.834 74.636,238.210 73.670,237.916 71.922 C 237.842 71.477,237.759 71.026,237.733 70.920 C 237.707 70.814,237.552 71.948,237.387 73.441 M272.130 71.073 C 274.833 72.824,275.792 73.541,277.035 74.742 C 280.965 78.539,282.791 82.546,283.309 88.511 C 283.431 89.914,283.365 90.987,282.776 97.164 C 282.565 99.372,281.661 106.052,281.000 110.294 C 280.256 115.058,280.008 116.707,279.498 120.273 C 278.684 125.968,278.405 127.900,278.161 129.517 C 277.613 133.159,277.507 133.907,277.098 136.975 C 276.510 141.395,276.056 143.772,275.767 143.957 C 275.634 144.042,271.602 144.126,266.807 144.143 C 262.012 144.161,258.313 144.217,258.587 144.269 C 258.861 144.321,259.523 144.628,260.058 144.951 C 261.830 146.022,262.309 146.091,268.067 146.102 C 278.192 146.123,277.742 146.663,279.952 131.828 C 280.709 126.744,281.512 121.355,281.737 119.853 C 281.962 118.351,282.379 115.420,282.665 113.340 C 282.950 111.261,283.517 107.148,283.925 104.202 C 286.165 88.006,284.888 81.803,277.938 75.133 C 276.171 73.436,272.446 70.769,271.904 70.811 C 271.816 70.817,271.918 70.936,272.130 71.073 M177.959 72.767 C 178.007 72.810,178.803 73.298,179.727 73.852 C 188.110 78.878,193.441 86.564,195.606 96.744 C 196.921 102.924,195.959 114.097,193.707 118.803 C 193.597 119.034,193.266 119.809,192.974 120.525 C 190.509 126.549,184.585 133.410,177.836 138.055 C 164.069 147.532,142.638 148.647,129.097 140.590 C 124.000 137.557,119.032 132.079,116.800 127.031 C 116.553 126.472,116.304 126.063,116.246 126.121 C 115.706 126.661,120.395 133.751,123.147 136.555 C 130.783 144.332,139.255 147.569,151.996 147.577 C 167.346 147.586,179.596 142.145,188.854 131.206 C 203.968 113.347,199.637 85.310,179.983 73.772 C 178.425 72.857,177.598 72.447,177.959 72.767 M250.914 85.306 C 243.867 86.224,237.313 91.869,234.785 99.198 C 233.834 101.954,233.164 104.607,232.460 108.403 C 231.274 114.797,231.088 115.961,229.808 125.000 C 229.013 130.609,228.827 131.907,228.048 137.290 C 227.880 138.445,227.632 140.320,227.496 141.456 C 227.145 144.378,228.090 144.114,217.895 144.142 C 213.079 144.155,209.328 144.209,209.559 144.260 C 209.790 144.312,210.679 144.702,211.535 145.129 L 213.091 145.903 218.993 145.903 C 229.673 145.903,228.641 147.690,232.034 123.319 C 234.648 104.539,236.632 98.242,241.534 93.163 C 248.756 85.678,260.672 85.065,262.833 92.067 C 263.177 93.183,263.226 93.255,263.154 92.542 C 262.760 88.628,259.610 85.886,254.837 85.302 C 252.881 85.062,252.780 85.063,250.914 85.306 M152.626 86.023 C 134.984 89.096,126.332 112.843,138.637 124.419 C 140.339 126.020,144.052 128.165,145.083 128.143 C 145.303 128.138,144.916 127.891,144.223 127.593 C 132.968 122.762,131.716 106.653,141.688 94.974 C 151.606 83.358,172.063 85.497,176.168 98.579 C 176.376 99.242,176.583 99.748,176.628 99.703 C 176.791 99.539,175.851 96.859,175.122 95.413 C 171.433 88.086,162.408 84.320,152.626 86.023 M263.293 94.538 C 263.293 95.058,263.333 95.270,263.384 95.011 C 263.434 94.751,263.434 94.325,263.384 94.065 C 263.333 93.805,263.293 94.018,263.293 94.538 M176.966 103.992 C 176.966 105.089,177.002 105.538,177.045 104.989 C 177.088 104.441,177.088 103.543,177.045 102.994 C 177.002 102.445,176.966 102.894,176.966 103.992 M113.528 111.765 C 113.528 113.325,113.561 113.963,113.601 113.183 C 113.642 112.403,113.642 111.127,113.601 110.347 C 113.561 109.567,113.528 110.205,113.528 111.765 M145.798 128.361 C 145.972 128.473,146.255 128.565,146.429 128.565 C 146.709 128.565,146.709 128.542,146.429 128.361 C 146.255 128.249,145.972 128.158,145.798 128.158 C 145.518 128.158,145.518 128.180,145.798 128.361 M151.103 129.146 C 151.652 129.189,152.550 129.189,153.099 129.146 C 153.648 129.103,153.199 129.067,152.101 129.067 C 151.003 129.067,150.554 129.103,151.103 129.146 " stroke="none" fill="#99a4aa" fill-rule="evenodd"></path><path id="path3" d="M155.095 68.422 C 155.297 68.475,155.628 68.475,155.830 68.422 C 156.032 68.369,155.867 68.326,155.462 68.326 C 155.058 68.326,154.892 68.369,155.095 68.422 M161.925 68.426 C 162.186 68.476,162.564 68.474,162.765 68.422 C 162.966 68.369,162.752 68.328,162.290 68.330 C 161.828 68.333,161.663 68.376,161.925 68.426 M262.447 68.422 C 262.650 68.475,262.981 68.475,263.183 68.422 C 263.385 68.369,263.220 68.326,262.815 68.326 C 262.411 68.326,262.245 68.369,262.447 68.422 M270.588 70.239 C 270.877 70.402,271.350 70.598,271.639 70.675 L 272.164 70.814 271.639 70.517 C 271.350 70.354,270.877 70.158,270.588 70.082 L 270.063 69.943 270.588 70.239 M221.799 70.317 C 222.060 70.367,222.438 70.365,222.639 70.312 C 222.840 70.260,222.626 70.219,222.164 70.221 C 221.702 70.223,221.537 70.266,221.799 70.317 M272.269 70.871 C 272.269 70.911,273.077 71.437,274.064 72.040 C 276.269 73.388,279.599 76.537,281.070 78.665 C 285.214 84.658,285.846 90.314,283.925 104.202 C 283.517 107.148,282.950 111.261,282.665 113.340 C 282.379 115.420,281.962 118.351,281.737 119.853 C 281.512 121.355,280.709 126.744,279.952 131.828 C 277.742 146.663,278.192 146.123,268.067 146.102 C 262.323 146.091,261.827 146.020,260.082 144.966 C 259.560 144.651,258.757 144.334,258.296 144.262 C 257.835 144.190,257.600 144.187,257.773 144.255 C 257.946 144.323,258.466 144.740,258.929 145.183 C 260.517 146.705,260.679 146.735,267.836 146.810 C 278.400 146.921,278.635 146.717,280.151 136.159 C 280.560 133.314,281.267 128.529,281.724 125.525 C 287.226 89.294,287.167 85.001,281.066 77.417 C 279.008 74.859,272.269 69.844,272.269 70.871 M237.826 71.429 C 237.838 72.229,238.261 72.983,239.103 73.711 C 240.021 74.503,240.150 74.510,241.492 73.838 C 242.069 73.548,242.353 73.372,242.122 73.447 C 241.056 73.793,240.831 73.743,239.706 72.912 C 239.070 72.443,238.385 71.799,238.184 71.481 L 237.817 70.903 237.826 71.429 M177.101 72.229 C 192.921 80.121,200.497 96.214,197.047 114.601 C 192.798 137.249,165.840 152.407,140.431 146.434 C 129.341 143.827,119.801 135.599,115.831 125.217 C 115.454 124.231,115.141 123.534,115.136 123.669 C 115.130 123.803,115.447 124.749,115.840 125.770 C 120.401 137.629,129.916 145.421,142.605 147.688 C 172.170 152.969,198.709 133.274,198.738 106.032 C 198.753 90.944,190.728 78.294,177.167 72.029 C 174.732 70.904,174.692 71.027,177.101 72.229 M251.439 87.488 C 245.132 88.870,239.493 93.821,236.949 100.207 C 235.068 104.930,233.694 111.389,232.034 123.319 C 228.641 147.690,229.673 145.903,218.993 145.903 L 213.091 145.903 211.535 145.130 C 210.679 144.705,209.648 144.302,209.244 144.236 C 208.713 144.149,208.625 144.168,208.929 144.304 C 209.160 144.407,209.585 144.748,209.874 145.060 C 211.287 146.590,213.295 146.921,220.420 146.801 C 230.057 146.637,229.548 147.511,232.463 126.155 C 235.354 104.986,237.150 98.900,242.002 93.832 C 249.091 86.427,260.351 86.002,262.753 93.050 C 263.332 94.749,263.386 94.119,262.828 92.168 C 261.720 88.293,256.867 86.298,251.439 87.488 M156.303 87.538 C 148.524 88.338,142.148 92.680,138.312 99.790 C 131.696 112.054,134.985 124.554,145.778 128.167 C 147.431 128.721,147.844 128.648,146.324 128.071 C 133.404 123.169,132.090 105.051,143.844 93.885 C 154.332 83.921,173.702 87.855,176.538 100.525 C 176.629 100.931,176.633 100.931,176.656 100.509 C 176.688 99.943,175.839 97.457,175.149 96.095 C 172.129 90.137,164.539 86.691,156.303 87.538 M263.085 96.534 C 263.087 97.111,263.128 97.323,263.176 97.003 C 263.224 96.684,263.223 96.211,263.173 95.953 C 263.123 95.695,263.084 95.956,263.085 96.534 M150.371 128.934 C 150.749 128.981,151.316 128.980,151.632 128.932 C 151.948 128.884,151.639 128.845,150.945 128.847 C 150.252 128.848,149.994 128.887,150.371 128.934 " stroke="none" fill="#b4b4bb" fill-rule="evenodd"></path><path id="path4" d="M257.634 67.450 C 255.483 67.628,252.231 68.293,250.420 68.926 C 249.234 69.340,246.132 70.624,245.903 70.795 C 244.274 72.017,242.312 71.975,240.086 70.670 C 237.424 69.109,237.322 69.094,229.832 69.107 C 223.445 69.119,221.676 69.250,218.803 69.928 C 218.078 70.099,217.637 71.159,217.127 73.950 C 216.969 74.816,216.786 75.667,216.721 75.840 C 216.656 76.014,216.508 76.912,216.394 77.836 C 216.279 78.761,216.053 80.415,215.891 81.513 C 215.729 82.610,215.482 84.407,215.343 85.504 C 215.203 86.602,214.956 88.218,214.792 89.097 C 214.629 89.975,214.496 90.967,214.496 91.302 C 214.496 91.638,214.361 92.668,214.197 93.592 C 213.740 96.155,213.114 100.454,212.498 105.252 C 212.327 106.581,212.094 108.046,211.981 108.508 C 211.868 108.971,211.772 109.714,211.770 110.161 C 211.767 110.608,211.626 111.743,211.456 112.682 C 211.286 113.622,210.951 115.762,210.711 117.437 C 210.470 119.112,210.185 120.956,210.076 121.534 C 209.968 122.111,209.822 123.151,209.753 123.845 C 209.683 124.538,209.542 125.389,209.439 125.735 C 209.336 126.082,209.158 127.122,209.043 128.046 C 208.928 128.971,208.694 130.672,208.524 131.828 C 206.873 143.017,206.841 143.589,207.772 145.239 C 209.429 148.174,210.249 148.404,219.118 148.414 L 226.155 148.422 227.564 147.827 C 230.881 146.425,231.603 144.676,232.864 134.979 C 233.060 133.477,233.352 131.397,233.513 130.357 C 233.675 129.317,233.960 127.379,234.147 126.050 C 237.353 103.263,239.206 97.741,245.199 93.126 C 251.486 88.285,259.733 88.735,261.458 94.013 C 262.228 96.371,261.955 100.635,260.379 110.819 C 260.218 111.859,259.950 113.703,259.782 114.916 C 259.614 116.129,259.379 117.784,259.261 118.592 C 259.142 119.401,258.936 120.819,258.803 121.744 C 258.671 122.668,258.485 123.944,258.391 124.580 C 258.297 125.215,257.885 128.004,257.475 130.777 C 257.066 133.550,256.542 137.096,256.311 138.655 C 255.487 144.218,256.147 146.357,259.127 147.788 C 262.503 149.410,275.529 149.117,278.076 147.363 C 280.444 145.732,280.757 144.773,282.152 134.874 C 282.502 132.390,282.973 129.128,283.199 127.626 C 283.675 124.457,284.883 116.170,285.509 111.765 C 285.748 110.089,286.074 107.868,286.235 106.828 C 288.763 90.463,287.958 83.418,282.795 76.738 C 277.271 69.591,268.937 66.515,257.634 67.450 M153.217 67.673 C 152.271 67.773,150.428 68.093,149.120 68.386 C 147.813 68.679,146.328 69.010,145.821 69.122 C 145.313 69.235,144.793 69.408,144.665 69.509 C 144.537 69.609,144.196 69.743,143.908 69.806 C 141.784 70.268,135.612 73.259,133.029 75.078 C 132.187 75.671,131.265 76.279,130.980 76.430 C 130.695 76.580,130.462 76.793,130.462 76.902 C 130.462 77.011,130.356 77.101,130.227 77.101 C 129.981 77.101,129.472 77.516,126.913 79.807 C 124.373 82.080,123.252 83.266,121.428 85.609 C 120.798 86.418,120.234 87.127,120.173 87.185 C 119.972 87.377,119.118 88.637,119.118 88.741 C 119.118 88.798,118.845 89.251,118.511 89.748 C 117.731 90.910,115.756 94.826,115.756 95.210 C 115.756 95.372,115.668 95.594,115.561 95.704 C 114.145 97.150,112.188 107.260,112.188 113.130 C 112.188 137.721,131.933 153.189,159.034 149.829 C 177.238 147.572,192.748 135.571,198.074 119.622 C 200.117 113.504,200.825 104.625,199.714 99.055 C 195.278 76.809,177.903 65.083,153.217 67.673 M164.706 68.584 C 184.949 71.079,198.758 86.274,198.738 106.032 C 198.709 133.274,172.170 152.969,142.605 147.688 C 121.650 143.944,109.674 124.582,114.408 102.101 C 118.881 80.864,141.586 65.734,164.706 68.584 M264.724 68.578 C 273.742 69.948,280.912 75.061,284.063 82.370 C 286.807 88.734,286.527 93.896,281.724 125.525 C 281.267 128.529,280.560 133.314,280.151 136.159 C 278.635 146.717,278.400 146.921,267.836 146.810 C 260.679 146.735,260.517 146.705,258.929 145.183 C 258.466 144.740,257.805 144.289,257.458 144.179 C 256.491 143.874,256.483 144.036,258.003 133.613 C 258.230 132.054,258.552 129.832,258.718 128.676 C 258.884 127.521,259.356 124.307,259.768 121.534 C 260.179 118.761,260.611 115.735,260.728 114.811 C 260.845 113.887,260.981 112.988,261.030 112.815 C 261.538 111.019,263.036 98.363,263.080 95.483 C 263.220 86.382,250.117 85.355,242.002 93.832 C 237.150 98.900,235.354 104.986,232.463 126.155 C 229.548 147.511,230.057 146.637,220.420 146.801 C 213.302 146.921,211.295 146.591,209.874 145.065 C 209.585 144.755,209.040 144.372,208.663 144.214 C 207.592 143.765,207.592 143.780,208.708 136.239 C 208.879 135.084,209.162 133.146,209.336 131.933 C 209.511 130.720,209.847 128.451,210.084 126.891 C 210.320 125.331,210.607 123.346,210.720 122.479 C 210.833 121.612,211.016 120.383,211.127 119.748 C 211.452 117.889,212.348 111.749,213.029 106.723 C 213.458 103.554,213.699 101.922,214.379 97.584 C 214.560 96.429,215.093 92.789,215.564 89.496 C 216.034 86.203,216.560 82.563,216.733 81.408 C 216.905 80.252,217.175 78.409,217.332 77.311 C 217.992 72.699,218.312 70.892,218.504 70.698 C 218.865 70.336,221.787 70.198,229.478 70.183 C 237.467 70.167,237.596 70.183,238.021 71.208 C 238.301 71.883,240.607 73.739,241.166 73.739 C 241.348 73.739,242.827 73.090,244.452 72.296 C 251.746 68.734,258.092 67.570,264.724 68.578 M155.777 88.468 C 144.260 90.128,135.912 99.977,135.851 111.975 C 135.787 124.606,145.901 131.537,159.469 128.160 C 170.541 125.404,178.475 113.213,176.702 101.681 C 175.334 92.784,166.135 86.975,155.777 88.468 M164.233 90.642 C 174.723 93.410,178.912 104.643,173.527 115.566 C 170.415 121.878,165.688 125.776,159.244 127.345 C 157.441 127.784,150.489 127.717,148.739 127.244 C 137.255 124.137,133.919 110.836,141.677 99.087 C 146.598 91.636,155.446 88.323,164.233 90.642 " stroke="none" fill="#bfc5ca" fill-rule="evenodd"></path></g></svg>