<svg xmlns="http://www.w3.org/2000/svg" viewBox="0 0 494.17 193.14">
    <defs>
        <style>.cls-1{fill:#e30c34;}.cls-2{fill:#fff;}.cls-3{fill:#172d72;}</style>
    </defs>
    <g id="图层_2" data-name="图层 2">
        <g id="Layer_2" data-name="Layer 2">
            <polygon class="cls-1" points="0 48.28 0 144.85 83.63 193.14 167.26 144.85 167.26 48.28 83.63 0 0 48.28"/>
            <polygon class="cls-2"
                     points="83.58 32.24 28.04 64.31 28.04 96.37 55.82 80.33 55.82 144.89 83.58 160.9 83.58 160.9 83.58 64.3 111.35 48.27 83.58 32.24"/>
            <polygon class="cls-2" points="111.51 80.49 111.51 144.85 139.39 128.76 139.39 64.38 111.51 80.49"/>
            <path class="cls-3" d="M244.15,144.65H224.33V64.86H195.14V48.35h77.15V64.86H244.15Z"/>
            <path class="cls-3" d="M299.63,64.86h-18.5V48.35h18.5Zm0,79.79h-18.5V73.32h18.5Z"/>
            <path class="cls-3"
                  d="M320,48.35h37.65c14.8,0,23.91,3.3,30.39,11.1,7.66,9.11,11.75,22.19,11.75,37s-4.09,28-11.75,37c-6.48,7.8-15.72,11.23-30.39,11.23H320Zm37.65,79.79c14.93,0,22.33-10.44,22.33-31.57s-7.4-31.71-22.33-31.71H339.79v63.28Z"/>
            <path class="cls-3"
                  d="M460.35,144.65H417V48.35H460c25.36,0,31.44,16.51,31.44,25.36,0,8.19-3.7,13.74-13.21,19.82,10.83,6.34,16,13.87,16,23.38C494.17,128.4,487.43,144.65,460.35,144.65Zm-23.51-58h21.53c9.12,0,14-3.83,14-10.83s-4.88-11-14-11H436.84Zm0,41.48h23.64c9.65,0,14.67-4.36,14.67-12.42s-5-12.55-14.67-12.55H436.84Z"/>
        </g>
    </g>
</svg>
