<svg width="40" height="40" viewBox="0 0 40 40" fill="none" xmlns="http://www.w3.org/2000/svg">
<path fill-rule="evenodd" clip-rule="evenodd" d="M20.0165 0C8.94791 0 0 9.01388 0 20.1653C0 29.0792 5.73324 36.6246 13.6868 39.2952C14.6812 39.496 15.0454 38.8613 15.0454 38.3274C15.0454 37.8599 15.0126 36.2575 15.0126 34.5879C9.4445 35.79 8.28498 32.1841 8.28498 32.1841C7.39015 29.847 6.06429 29.2463 6.06429 29.2463C4.24185 28.011 6.19704 28.011 6.19704 28.011C8.21861 28.1446 9.27938 30.081 9.27938 30.081C11.0686 33.1522 13.9518 32.2844 15.1118 31.7502C15.2773 30.4481 15.8079 29.5467 16.3713 29.046C11.9303 28.5785 7.25781 26.8425 7.25781 19.0967C7.25781 16.8932 8.05267 15.0905 9.31216 13.6884C9.11344 13.1877 8.41732 11.1174 9.51128 8.34644C9.51128 8.34644 11.2014 7.81217 15.0122 10.4164C16.6438 9.97495 18.3263 9.7504 20.0165 9.74851C21.7067 9.74851 23.4295 9.98246 25.0205 10.4164C28.8317 7.81217 30.5218 8.34644 30.5218 8.34644C31.6158 11.1174 30.9192 13.1877 30.7205 13.6884C32.0132 15.0905 32.7753 16.8932 32.7753 19.0967C32.7753 26.8425 28.1028 28.5449 23.6287 29.046C24.358 29.6802 24.9873 30.882 24.9873 32.7851C24.9873 35.4893 24.9545 37.6596 24.9545 38.327C24.9545 38.8613 25.3192 39.496 26.3132 39.2956C34.2667 36.6242 39.9999 29.0792 39.9999 20.1653C40.0327 9.01388 31.052 0 20.0165 0Z" fill="#24292F"/>
</svg>
