<svg width="40" height="40" viewBox="0 0 40 40" fill="none" xmlns="http://www.w3.org/2000/svg">
<path d="M26.9531 13.1978C29.5276 13.1978 30.5729 16.3264 30.5729 18.9009V26.7394C30.5729 32.5499 25.8626 37.2603 20.052 37.2603C14.2416 37.2603 9.53125 32.5499 9.53125 26.7394V18.9009C9.53125 16.3264 10.5766 13.1978 13.151 13.1978H26.9531Z" fill="#F4A026"/>
<path d="M24.1406 15.802H15.9635C14.4822 15.802 13.2812 14.6011 13.2812 13.1198C13.2812 9.99883 15.8113 7.46875 18.9323 7.46875H21.1719C24.2928 7.46875 26.8229 9.99883 26.8229 13.1198C26.8229 14.6011 25.622 15.802 24.1406 15.802Z" fill="#CA463D"/>
<path d="M38.9584 22.8594H31.5625V18.901C31.5625 18.8216 31.587 18.742 31.5852 18.6623C35.3437 18.2703 37.5 15.7973 37.5 11.7395V10.802C37.5 10.2267 37.0335 9.76039 36.4584 9.76039C35.8832 9.76039 35.4167 10.2267 35.4167 10.802V11.7395C35.4167 14.7395 34.0882 16.3349 31.3632 16.5963C30.8891 14.485 29.7323 12.6603 27.8056 12.2448C27.513 10.0151 26.1327 8.12844 24.2029 7.14891C25.0092 6.32852 25.5209 5.20461 25.5209 3.96609V3.04164C25.5209 2.46633 25.0545 2 24.4793 2C23.9041 2 23.4375 2.46633 23.4375 3.04164V3.96609C23.4375 5.32313 22.3075 6.40102 20.9505 6.40102H19.1537C17.7967 6.40102 16.6667 5.32313 16.6667 3.96609V3.04164C16.6667 2.46633 16.2002 2 15.6251 2C15.0499 2 14.5834 2.46633 14.5834 3.04164V3.96609C14.5834 5.20461 15.095 6.32852 15.9014 7.14898C13.9716 8.12844 12.5848 10.0152 12.2921 12.2448C10.3628 12.6608 9.20891 14.4898 8.73594 16.6048C5.94227 16.3736 4.58336 14.7765 4.58336 11.7395V10.802C4.58336 10.2267 4.11687 9.76039 3.54172 9.76039C2.96656 9.76039 2.5 10.2267 2.5 10.802V11.7395C2.5 15.8345 4.64367 18.3152 8.4668 18.6723C8.46508 18.7485 8.4375 18.8248 8.4375 18.901V22.8594H1.04164C0.466484 22.8594 0 23.3257 0 23.901C0 24.4763 0.466484 24.9427 1.04164 24.9427H8.4375V26.7395C8.4375 27.5698 8.55227 28.3796 8.71937 29.1608C4.73898 29.4305 2.5 31.9302 2.5 36.1145V37.052C2.5 37.6273 2.96648 38.0937 3.54164 38.0937C4.1168 38.0937 4.58328 37.6273 4.58328 37.052V36.1145C4.58328 32.8493 6.15758 31.248 9.39305 31.2201C11.147 35.377 15.2642 38.302 20.052 38.302C24.8392 38.302 28.956 35.3777 30.7102 31.2216C33.8758 31.2829 35.4166 32.8844 35.4166 36.1145V37.052C35.4166 37.6273 35.883 38.0937 36.4582 38.0937C37.0334 38.0937 37.5 37.6273 37.5 37.052V36.1145C37.5 31.9661 35.2482 29.4729 31.3313 29.1676C31.4993 28.3844 31.5625 27.5722 31.5625 26.7395V24.9427H38.9584C39.5336 24.9427 40 24.4763 40 23.901C40 23.3257 39.5335 22.8594 38.9584 22.8594ZM18.9323 8.48438H21.1719C23.7134 8.48438 25.7813 10.5522 25.7813 13.0938C25.7813 13.9984 25.0453 14.7344 24.1406 14.7344H15.9635C15.0588 14.7344 14.3229 13.9984 14.3229 13.0938C14.3229 10.5522 16.3907 8.48438 18.9323 8.48438ZM10.5209 26.7395V18.901C10.5209 17.2766 11.0637 14.9533 12.4336 14.367C12.9513 15.802 14.3523 16.8177 15.9636 16.8177H18.9584V36.1552C14.2448 35.6113 10.5209 31.5964 10.5209 26.7395ZM21.0416 36.1672V16.8177H24.1406C25.7519 16.8177 27.1009 15.802 27.6185 14.367C28.9884 14.9533 29.4791 17.2765 29.4791 18.901V26.7395C29.4791 31.6323 25.8052 35.6708 21.0416 36.1672Z" fill="black"/>
</svg>
