<svg width="33" height="36" viewBox="0 0 33 36" fill="none" xmlns="http://www.w3.org/2000/svg">
<path d="M32.4412 23.5477L30.456 6.12693C30.0245 2.34222 26.5971 -0.386199 22.8133 0.0447851L7.72123 1.76699C5.77926 1.98896 4.11521 3.00122 3.01476 4.44618L1.27735 6.69524C0.325356 8.0357 -0.155389 9.71731 0.0448492 11.4758L2.02997 28.8965C2.43131 32.417 5.42453 35.0236 8.88554 35.0236C9.14534 35.0236 9.40772 35.0089 9.67269 34.9787L24.7648 33.2565C26.598 33.0475 28.2388 32.1363 29.3867 30.6922C29.4756 30.5807 29.5602 30.4676 29.6413 30.3519L30.9955 28.6193L30.992 28.6167C32.0864 27.2339 32.6561 25.4349 32.4412 23.5477ZM30.7443 24.7344C30.6796 25.5679 30.4138 26.3547 29.9908 27.0413C29.6646 27.5734 29.2425 28.0449 28.7471 28.4284C28.0238 28.9915 27.1418 29.3681 26.1673 29.4795L11.0752 31.2017C10.8767 31.2242 10.6799 31.2354 10.4849 31.2354C7.88953 31.2346 5.64375 29.28 5.3434 26.6397L3.35828 9.21982C3.25212 8.29135 3.3997 7.39138 3.74494 6.58987C3.99438 6.01033 4.34738 5.48261 4.78325 5.03176C5.32268 4.47123 5.98986 4.02988 6.74507 3.75781C7.11533 3.62394 7.50804 3.53066 7.91629 3.48402L23.0093 1.76095C25.8471 1.43706 28.4174 3.48402 28.7411 6.32299L30.7262 23.7429C30.7642 24.078 30.7694 24.4096 30.7443 24.7344Z" fill="#002835"/>
<path d="M25.6436 22.6716L24.0814 22.8495L24.3135 24.8869C24.3636 25.3257 24.0486 25.7221 23.611 25.7722C23.1725 25.8223 22.7764 25.5071 22.7263 25.0683L22.4941 23.0309L20.9328 23.2088C20.4831 23.2606 20.0766 22.9367 20.0248 22.4867C19.9739 22.0367 20.2967 21.6299 20.7472 21.5781L22.3077 21.4002L22.066 19.2772C22.016 18.8385 22.331 18.442 22.7695 18.392C23.2079 18.3419 23.6041 18.6571 23.6541 19.0959L23.8958 21.2188L25.4571 21.0409C25.9077 20.9899 26.3133 21.313 26.3651 21.763C26.416 22.2138 26.0932 22.6197 25.6436 22.6716Z" fill="#002835"/>
<path d="M12.9141 15.5854L10.7702 15.8298C9.0647 16.025 7.53616 14.7986 7.35577 13.0902L7.00967 9.82714C6.82928 8.11875 8.06524 6.57706 9.76985 6.38272L11.9138 6.13743C13.6184 5.9431 15.1478 7.16955 15.3282 8.87708L15.6734 12.141C15.8547 13.8485 14.6187 15.3911 12.9141 15.5854Z" fill="#002835"/>
<path d="M14.2572 27.3727L12.1132 27.6171C10.4077 27.8114 8.87921 26.585 8.69882 24.8775L8.35358 21.6135C8.17233 19.906 9.40828 18.3635 11.1129 18.1691L13.2568 17.9247C14.9623 17.7295 16.4909 18.9568 16.6712 20.6643L17.0165 23.9282C17.1977 25.6358 15.9618 27.1775 14.2572 27.3727Z" fill="#002835"/>
<path d="M23.5814 14.2457L21.4374 14.4901C19.732 14.6845 18.2034 13.458 18.023 11.7505L17.6778 8.48659C17.4965 6.77907 18.7325 5.2365 20.4371 5.04217L22.581 4.79775C24.2865 4.60255 25.8151 5.82986 25.9955 7.53739L26.3407 10.8013C26.5219 12.5088 25.286 14.0505 23.5814 14.2457Z" fill="#002835"/>
</svg>
