<svg xmlns="http://www.w3.org/2000/svg" width="100" height="100" fill="none"><path fill="url(#a)" d="M100 0H0v100h100z"/><path fill="#fff" d="M18.347 83.333a1.68 1.68 0 0 1-1.48-2.466l5.6-10.907a20.83 20.83 0 0 1-2.987-10.773A21.267 21.267 0 0 1 53.52 42.32l-1.6 2.133a18.507 18.507 0 0 0-26.813 24.72 1.33 1.33 0 0 1 .066 1.334l-4.586 8.933 9.173-4.56a1.33 1.33 0 0 1 1.333.067 18.666 18.666 0 0 0 25.214-5.614l2.213 1.48A21.333 21.333 0 0 1 30.307 77.6l-11.2 5.56a1.75 1.75 0 0 1-.76.173m34.32-29.16H50V62h2.667zm-4-5.453H46v18.667h2.667zm-4 4H42v10.667h2.667zm-4-4H38v18.667h2.667zm-4 2.667H34V64.72h2.667zm-4-1.334H30v16h2.667zm-4 4H26v9.334h2.667zM83.333 68.72V47.387h-2.666v20h-20v2.666H82a1.334 1.334 0 0 0 1.333-1.386zm-.4-38.32-13.44-13.333a1.25 1.25 0 0 0-.826-.374h-24a1.333 1.333 0 0 0-1.334 1.334V35.36H46v-16h21.333v12a1.186 1.186 0 0 0 1.227 1.333h12.107v6.667h2.666v-8a1.34 1.34 0 0 0-.4-1.013zM70 30.053v-8.866L78.747 30zm5.333 5.334H62v2.666h13.333zM74 40.72H56.667v2.667H74zM62 27.387H51.333v2.666H62zm-2.667 8h-8v2.666h8zm-2.666 14.666H54v16h2.667zm4 2.667H58v10.667h2.667z"/><defs><linearGradient id="a" x1="-20.707" x2="120.72" y1="120.707" y2="-20.72" gradientUnits="userSpaceOnUse"><stop stop-color="#055F4E"/><stop offset="1" stop-color="#56C0A7"/></linearGradient></defs></svg>