<?xml version="1.0" standalone="no"?>
<!DOCTYPE svg PUBLIC "-//W3C//DTD SVG 20010904//EN"
 "http://www.w3.org/TR/2001/REC-SVG-20010904/DTD/svg10.dtd">
<svg version="1.0" xmlns="http://www.w3.org/2000/svg"
 width="400.000000pt" height="400.000000pt" viewBox="0 0 400.000000 400.000000"
 preserveAspectRatio="xMidYMid meet">

<g transform="translate(0.000000,400.000000) scale(0.100000,-0.100000)"
fill="#000000" stroke="none">
<path d="M1040 2573 c0 -628 1 -680 18 -706 12 -20 237 -156 780 -472 419
-245 765 -445 767 -445 10 0 5 160 -6 183 -6 12 -19 29 -30 35 -26 16 -271
160 -469 275 -85 50 -229 134 -320 187 -91 53 -256 150 -367 214 l-202 118 -1
591 c0 543 -2 592 -17 610 -17 18 -133 87 -146 87 -4 0 -7 -305 -7 -677z"/>
<path d="M1423 2966 l-28 -24 0 -430 c0 -491 -9 -443 97 -506 33 -20 61 -36
64 -36 2 0 4 176 4 390 0 215 3 390 8 390 4 0 279 -160 612 -354 l605 -354 3
-593 c2 -544 4 -594 19 -612 17 -18 133 -87 146 -87 4 0 7 305 7 678 0 522 -3
683 -13 702 -16 32 -1429 859 -1469 860 -15 0 -40 -11 -55 -24z"/>
<path d="M1740 2168 c0 -197 4 -280 13 -297 6 -14 44 -44 82 -67 l70 -43 3
281 c2 228 0 285 -12 303 -11 16 -96 70 -148 93 -5 2 -8 -119 -8 -270z"/>
<path d="M2090 1962 c0 -322 -5 -303 100 -366 34 -20 63 -36 66 -36 2 0 4 128
4 285 l0 284 -32 26 c-18 14 -57 39 -85 56 l-53 29 0 -278z"/>
<path d="M2440 1754 c0 -167 4 -283 10 -294 9 -17 136 -100 153 -100 11 0 8
549 -3 570 -9 17 -138 100 -154 100 -3 0 -6 -124 -6 -276z"/>
</g>
</svg>
