<svg width="40" height="40" viewBox="0 0 40 40" fill="none" xmlns="http://www.w3.org/2000/svg">
<rect x="3" y="2" width="35" height="36" fill="white"/>
<path d="M34.6667 21.9919C34.6629 22.343 34.5208 22.6785 34.2711 22.9254C34.0215 23.1724 33.6845 23.3109 33.3334 23.3109C32.9822 23.3109 32.6452 23.1724 32.3956 22.9254C32.146 22.6785 32.0038 22.343 32 21.9919V10C32.0038 9.64887 32.146 9.31341 32.3956 9.06646C32.6452 8.81951 32.9822 8.681 33.3334 8.681C33.6845 8.681 34.0215 8.81951 34.2711 9.06646C34.5208 9.31341 34.6629 9.64887 34.6667 10V21.9919ZM34.2014 30.3377C33.9953 30.5141 29.0561 34.6587 20 34.6587C10.9441 34.6587 6.005 30.5139 5.79891 30.3375C5.53046 30.1073 5.36443 29.7799 5.33733 29.4273C5.31023 29.0748 5.42427 28.7259 5.65437 28.4573C5.88399 28.1893 6.21056 28.0232 6.56245 27.9956C6.91435 27.968 7.26282 28.0811 7.53141 28.3102C7.60969 28.3758 12.0203 31.9919 20.0002 31.9919C28.0802 31.9919 32.4225 28.3497 32.4655 28.313C33.0234 27.8338 33.8667 27.8981 34.3456 28.4575C34.5758 28.726 34.6899 29.0749 34.6629 29.4274C34.6358 29.78 34.4698 30.1074 34.2014 30.3377ZM5.33328 10C5.33708 9.64887 5.47923 9.31341 5.72887 9.06646C5.97852 8.81951 6.31549 8.681 6.66664 8.681C7.01779 8.681 7.35477 8.81951 7.60441 9.06646C7.85405 9.31341 7.9962 9.64887 8 10V21.9919C7.9962 22.343 7.85405 22.6785 7.60441 22.9254C7.35477 23.1724 7.01779 23.3109 6.66664 23.3109C6.31549 23.3109 5.97852 23.1724 5.72887 22.9254C5.47923 22.6785 5.33708 22.343 5.33328 21.9919V10ZM12.0002 7.33328C12.0055 6.98321 12.1483 6.64929 12.3978 6.40362C12.6473 6.15796 12.9833 6.02026 13.3334 6.02026C13.6836 6.02026 14.0196 6.15796 14.2691 6.40362C14.5185 6.64929 14.6614 6.98321 14.6667 7.33328V25.1459C14.6614 25.496 14.5185 25.8299 14.2691 26.0756C14.0196 26.3213 13.6836 26.459 13.3334 26.459C12.9833 26.459 12.6473 26.3213 12.3978 26.0756C12.1483 25.8299 12.0055 25.496 12.0002 25.1459V7.33328ZM18.6667 6.65859C18.6667 6.4835 18.7012 6.31012 18.7682 6.14834C18.8352 5.98657 18.9334 5.83959 19.0572 5.71578C19.181 5.59196 19.328 5.49376 19.4898 5.42676C19.6515 5.35976 19.8249 5.32529 20 5.32531C20.1751 5.32527 20.3485 5.35973 20.5103 5.42672C20.6721 5.4937 20.8191 5.59191 20.9429 5.71572C21.0667 5.83953 21.165 5.98653 21.232 6.14831C21.299 6.31009 21.3335 6.48349 21.3334 6.65859V25.9919C21.3296 26.343 21.1875 26.6785 20.9378 26.9254C20.6882 27.1724 20.3512 27.3109 20.0001 27.3109C19.6489 27.3109 19.312 27.1724 19.0623 26.9254C18.8127 26.6785 18.6705 26.343 18.6667 25.9919V6.65859ZM25.3334 7.33328C25.3388 6.98321 25.4816 6.64929 25.7311 6.40362C25.9805 6.15796 26.3166 6.02026 26.6667 6.02026C27.0168 6.02026 27.3529 6.15796 27.6024 6.40362C27.8518 6.64929 27.9946 6.98321 28 7.33328V25.1459C27.9946 25.496 27.8518 25.8299 27.6024 26.0756C27.3529 26.3213 27.0168 26.459 26.6667 26.459C26.3166 26.459 25.9805 26.3213 25.7311 26.0756C25.4816 25.8299 25.3388 25.496 25.3334 25.1459V7.33328ZM35 0H5C2.23859 0 0 2.23859 0 5V35C0 37.7613 2.23859 40 5 40H35C37.7614 40 40 37.7613 40 35V5C40 2.23859 37.7614 0 35 0Z" fill="#0057FF"/>
</svg>
