<svg xmlns="http://www.w3.org/2000/svg" width="200" height="136" fill="none" viewBox="2 25 102 16"><path fill="#0C1724" d="M12.928 21.802a5 5 0 0 1-.509 2.236 5.1 5.1 0 0 1-1.423 1.736q-.918.718-2.176 1.113-1.26.396-2.761.396c-1.197 0-2.271-.16-3.213-.49C1.903 26.472.952 25.924 0 25.17l1.574-2.557q1.128.948 2.044 1.387a4.2 4.2 0 0 0 1.866.434c.782 0 1.404-.198 1.885-.604.48-.405.706-.943.706-1.632 0-.292-.047-.566-.132-.82-.084-.255-.245-.52-.47-.793a6.4 6.4 0 0 0-.952-.877 47 47 0 0 0-1.555-1.17c-.48-.34-.961-.698-1.423-1.057a11.5 11.5 0 0 1-1.263-1.17 5.3 5.3 0 0 1-.914-1.396 4.3 4.3 0 0 1-.348-1.755c0-.754.16-1.453.47-2.075A4.8 4.8 0 0 1 2.78 9.49c.546-.444 1.196-.783 1.97-1.029a8.1 8.1 0 0 1 2.496-.368 9.9 9.9 0 0 1 2.752.378 9.3 9.3 0 0 1 2.468 1.113l-1.422 2.302c-.971-.68-1.998-1.029-3.072-1.029-.65 0-1.197.17-1.621.51s-.64.764-.64 1.283c0 .49.188.934.565 1.32.377.397 1.027.935 1.95 1.652a42 42 0 0 1 2.309 1.792c.612.51 1.093 1 1.45 1.453.359.453.595.906.736 1.377.141.481.207.99.207 1.557m16.16-4.311q0 1.06-.226 2.292a7.9 7.9 0 0 1-.754 2.274c-.358.698-.82 1.273-1.394 1.717-.575.452-1.31.679-2.186.679-1.47 0-2.63-.585-3.477-1.764-.848-1.17-1.272-2.783-1.272-4.83 0-2.104.424-3.765 1.29-5 .858-1.236 2.026-1.85 3.496-1.85 1.395 0 2.497.585 3.308 1.736.81 1.16 1.215 2.746 1.215 4.746m5.107-.18c0-1.368-.197-2.613-.584-3.726-.396-1.123-.942-2.085-1.668-2.896a7.7 7.7 0 0 0-2.563-1.887q-1.484-.68-3.279-.68c-1.319 0-2.478.255-3.477.746-.999.5-1.931 1.283-2.78 2.358l-.028-2.67h-4.702V36h4.693V24.406c.462.537.904.99 1.338 1.358.424.368.857.67 1.3.896.443.227.905.397 1.395.491s1.017.142 1.573.142a8.3 8.3 0 0 0 3.487-.746 8.2 8.2 0 0 0 2.789-2.104 10.2 10.2 0 0 0 1.837-3.16c.453-1.207.67-2.538.67-3.972m2.092 9.538h4.825V0h-4.825zm25.404.01V8.537h-4.824v9.858q0 1.317-.113 2.038a5.4 5.4 0 0 1-.368 1.302c-.678 1.51-1.932 2.273-3.75 2.273-1.423 0-2.412-.509-2.978-1.537a3.9 3.9 0 0 1-.462-1.321c-.084-.49-.131-1.198-.131-2.132V8.538H44.24v10.405c0 .708.01 1.312.019 1.793a12.6 12.6 0 0 0 .264 2.311c.056.293.15.576.273.84.443 1.122 1.15 1.971 2.139 2.547.99.575 2.205.858 3.637.858 1.291 0 2.431-.226 3.411-.679s1.932-1.189 2.855-2.217l.01 2.453zm20.787-.01V16.462c0-.707-.01-1.311-.019-1.811-.01-.5-.038-.934-.094-1.302a9 9 0 0 0-.18-.962q-.113-.425-.254-.821c-.442-1.094-1.15-1.943-2.139-2.538s-2.205-.896-3.646-.896c-1.291 0-2.431.226-3.411.68-.98.452-1.932 1.197-2.855 2.216l-.01-2.453h-4.853V26.86h4.863v-9.87c0-.85.028-1.52.094-1.991.056-.472.179-.915.349-1.34a3.4 3.4 0 0 1 1.45-1.66c.65-.377 1.423-.566 2.328-.566 1.423 0 2.412.51 2.978 1.538.216.386.367.83.452 1.311s.132 1.198.132 2.123V26.84zm19.957-1.207-7.35-9.142 6.21-6.66-3.656-1.576-6.464 7.5h-.509V0h-4.862v26.85h4.862v-9.727l7.275 10.094zm18.79-6.566v-2.991l-14.615-7.34v3.293l11.326 5.519-11.326 5.594v3.217zM108.023 4c-.895 0-1.621.736-1.621 1.642 0 .924.726 1.65 1.621 1.65.905 0 1.621-.726 1.621-1.65A1.62 1.62 0 0 0 108.023 4m.01.255c.725 0 1.309.622 1.309 1.396s-.584 1.396-1.309 1.387c-.735 0-1.32-.613-1.32-1.396 0-.765.585-1.387 1.32-1.387m-.311 1.556h.197c.236 0 .349.085.396.321.038.245.085.406.123.462h.311c-.029-.056-.076-.17-.113-.452-.038-.274-.142-.416-.311-.444V5.68c.198-.056.358-.207.358-.443 0-.17-.057-.302-.17-.378-.113-.084-.292-.141-.565-.141a2.6 2.6 0 0 0-.518.047v1.83h.292zm0-.849a1 1 0 0 1 .207-.019c.33 0 .443.16.443.321 0 .227-.208.311-.443.311h-.207z"/></svg>