<?xml version="1.0" encoding="UTF-8" standalone="no"?>
<!DOCTYPE svg PUBLIC "-//W3C//DTD SVG 1.1//EN" "http://www.w3.org/Graphics/SVG/1.1/DTD/svg11.dtd">
<svg width="100%" height="100%" viewBox="0 0 1437 1437" version="1.1" xmlns="http://www.w3.org/2000/svg" xmlns:xlink="http://www.w3.org/1999/xlink" xml:space="preserve" xmlns:serif="http://www.serif.com/" style="fill-rule:evenodd;clip-rule:evenodd;stroke-linejoin:round;stroke-miterlimit:2;">
    <g transform="matrix(1.04396,0,0,1.04396,-31.5684,-31.5686)">
        <g transform="matrix(4.16667,0,0,4.16667,86.5142,1339.74)">
            <path d="M0,-94.814L-3.629,-94.814C-3.629,-94.814 -13.506,-94.814 -13.506,-84.937L-13.506,-9.877C-13.506,-9.877 -13.506,0 -3.629,0L71.431,0C71.431,0 81.308,0 81.308,-9.877L81.308,-13.335L11.863,-13.335C0,-13.335 0,-25.198 0,-25.198L0,-94.814Z" style="fill:rgb(19,53,67);fill-rule:nonzero;"/>
        </g>
        <g transform="matrix(4.16667,0,0,4.16667,1406.05,985.835)">
            <path d="M0,75.06L0,0C0,-9.877 -9.877,-9.877 -9.877,-9.877L-13.506,-9.877L-13.506,59.739C-13.506,59.739 -13.506,71.602 -25.369,71.602L-94.814,71.602L-94.814,75.06C-94.814,84.937 -84.937,84.937 -84.937,84.937L-9.877,84.937C0,84.937 0,75.06 0,75.06" style="fill:rgb(19,53,67);fill-rule:nonzero;"/>
        </g>
        <g transform="matrix(4.16667,0,0,4.16667,1406.05,137.716)">
            <path d="M0,75.06L0,0C0,0 0,-9.877 -9.877,-9.877L-84.937,-9.877C-84.937,-9.877 -94.814,-9.877 -94.814,0L-94.814,3.506L-25.369,3.506C-13.506,3.506 -13.506,15.369 -13.506,15.369L-13.506,84.937L-9.877,84.937C-9.877,84.937 0,84.937 0,75.06" style="fill:rgb(235,105,11);fill-rule:nonzero;"/>
        </g>
        <g transform="matrix(4.16667,0,0,4.16667,425.298,436.015)">
            <path d="M0,-68.124L0,-71.592C0,-81.469 -9.877,-81.469 -9.877,-81.469L-84.937,-81.469C-94.814,-81.469 -94.814,-71.592 -94.814,-71.592L-94.814,3.468C-94.814,13.345 -84.937,13.345 -84.937,13.345L-81.308,13.345L-81.308,-56.261C-81.308,-56.261 -81.308,-68.124 -69.445,-68.124L0,-68.124Z" style="fill:rgb(96,98,98);fill-rule:nonzero;"/>
        </g>
        <g transform="matrix(4.16667,0,0,4.16667,776.598,660.228)">
            <path d="M0,-114.191C0,-114.191 -16.174,-123.547 -32.417,-114.308L-103.226,-74.026C-103.226,-74.026 -119.468,-64.786 -104.166,-54.063L-28.976,-1.368C-28.976,-1.368 -13.673,9.356 1.676,-1.3L74.27,-51.696C74.27,-51.696 89.62,-62.352 73.445,-71.708L0,-114.191Z" style="fill:rgb(235,105,11);fill-rule:nonzero;"/>
        </g>
        <g transform="matrix(4.16667,0,0,4.16667,309.386,1255.76)">
            <path d="M0,-187.879C0,-187.879 -15.05,-198.954 -15.05,-180.269L-15.05,-86.082C-15.05,-86.082 -15.05,-67.396 0,-56.32L76.528,-0.001C76.528,-0.001 91.578,11.075 91.578,-7.611L91.578,-101.798C91.578,-101.798 91.578,-120.483 76.528,-131.559L0,-187.879Z" style="fill:rgb(235,105,11);fill-rule:nonzero;"/>
        </g>
        <g transform="matrix(4.16667,0,0,4.16667,1126.88,1255.79)">
            <path d="M0,-187.893C0,-187.893 15.057,-198.958 15.057,-180.273L15.057,-86.089C15.057,-86.089 15.057,-67.404 0,-56.338L-76.661,-0C-76.661,-0 -91.718,11.065 -91.718,-7.621L-91.718,-101.805C-91.718,-101.805 -91.718,-120.49 -76.661,-131.556L0,-187.893Z" style="fill:rgb(235,105,11);fill-rule:nonzero;"/>
        </g>
    </g>
</svg>
