<svg width="1080" height="1080" viewBox="0 0 1080 1080" fill="none" xmlns="http://www.w3.org/2000/svg">
<mask id="mask0_80_36" style="mask-type:luminance" maskUnits="userSpaceOnUse" x="90" y="766" width="226" height="226">
<path d="M315.391 766.176H90V991.567H315.391V766.176Z" fill="white"/>
</mask>
<g mask="url(#mask0_80_36)">
<path fill-rule="evenodd" clip-rule="evenodd" d="M202.584 766.176C264.46 766.176 314.721 786.28 314.721 811.075C314.721 835.871 264.46 855.975 202.584 855.975C140.707 855.975 90.4468 835.871 90.4468 811.075C90.4468 786.28 140.707 766.176 202.584 766.176ZM90.4468 916.288V950.688C110.328 1011.22 307.573 999.608 314.721 947.561V913.16C304.892 970.122 106.307 974.366 90.4468 916.288ZM90 826.489V860.219C109.881 919.415 308.019 911.373 315.391 860.666V827.159C305.562 882.78 105.637 883.227 90 826.489ZM90 870.048V904.448C109.881 964.984 308.019 956.943 315.391 904.895V870.494C305.562 927.457 105.637 928.127 90 870.048Z" fill="#2773F4"/>
</g>
<path fill-rule="evenodd" clip-rule="evenodd" d="M657.831 157.684H382.849C258.426 157.684 157.458 258.652 157.458 383.074V540.781H110.995C102.507 540.781 98.0392 550.61 103.4 557.088L194.986 666.991C199.007 671.682 206.155 671.682 210.176 666.991L301.762 557.088C307.123 550.61 302.656 540.781 294.167 540.781H247.704V383.074C247.704 308.465 308.24 247.929 382.849 247.929H657.831V157.684Z" fill="white"/>
<path fill-rule="evenodd" clip-rule="evenodd" d="M423.51 923.88H698.491C822.914 923.88 923.882 822.912 923.882 698.489V542.123H970.345C978.834 542.123 983.301 532.294 977.94 525.816L886.354 415.913C882.333 411.222 875.185 411.222 871.164 415.913L779.578 525.816C774.217 532.294 778.685 542.123 787.173 542.123H833.636V698.489C833.636 773.098 773.1 833.634 698.491 833.634H423.51V923.88Z" fill="white"/>
<path fill-rule="evenodd" clip-rule="evenodd" d="M884.564 90H925.89V139.59H884.564V90ZM869.598 139.59V90H828.273V139.59H869.598ZM828.273 154.78H869.598V196.106H828.273V154.78ZM828.273 211.072H869.598V252.398H828.273V211.072ZM813.083 252.398V211.072H763.492V252.398H813.083ZM763.492 267.587H813.083V316.284H778.682C770.417 316.284 763.492 309.583 763.492 301.095V267.587ZM828.273 267.587H869.598V316.284H828.273V267.587ZM884.564 267.587V316.284H925.89V267.587H884.564ZM941.08 267.587V316.284H974.81C983.075 316.284 990 309.583 990 301.095V267.364H941.08V267.587ZM989.777 252.398H941.08V211.072H989.777V252.398ZM925.89 252.398H884.564V211.072H925.89V252.398ZM813.083 154.78V196.106H763.492V154.78H813.083ZM884.564 195.882H925.89V154.557H884.564V195.882ZM941.08 195.882H989.777V154.557H941.08V195.882ZM813.083 139.59V90H778.682C770.417 90 763.492 96.7014 763.492 105.19V139.59H813.083ZM989.777 139.59V105.19C989.777 96.9248 983.075 90 974.587 90H940.856V139.59H989.777Z" fill="#0079E0"/>
</svg>
