<svg xmlns="http://www.w3.org/2000/svg" width="80" height="80" stroke="none" stroke-linecap="round" stroke-linejoin="round" fill="#fff" fill-rule="evenodd"><path d="M60.4801 20.96L55.2 15.6801 38.0801 32.96 55.2 50.2401l5.2801-4.96L48.8 33.4401z" fill="#900"/><path d="M19.5199 35.52L31.2 47.2 19.5199 59.0401 24.8 64.32l17.1199-17.2799L24.8 29.76z" fill="#00991a"/><path d="M40 0C17.7602 0 0 18.24 0 40c0 22.24 18.2398 40 40 40s40-18.24 40-40S62.2398 0 40 0zm0 5.2801C59.2 5.2801 74.7199 20.8 74.7199 40S59.0398 74.7199 40 74.7199 5.2801 59.04 5.2801 40 20.8 5.2801 40 5.2801z" fill="#59b4d9"/></svg>
