<svg width="40" height="40" viewBox="0 0 40 40" fill="none" xmlns="http://www.w3.org/2000/svg">
<path d="M15.5935 16H14.1114V24.1582H15.5935V16Z" fill="#FAFAFA"/>
<path d="M4.01413 24.3075C1.72452 24.3075 0 22.4954 0 20.2583C0 18.0137 1.63644 16.1867 4.01413 16.1867C5.27604 16.1867 6.14941 16.5744 6.83181 17.4618L5.73124 18.3791C5.26864 17.8869 4.71095 17.6408 4.01413 17.6408C2.46577 17.6408 1.61422 18.8265 1.61422 20.2583C1.61422 21.6901 2.54644 22.8534 4.01413 22.8534C4.70354 22.8534 5.29085 22.6073 5.75306 22.1151L6.83922 23.0696C6.18604 23.9198 5.29085 24.3075 4.01413 24.3075Z" fill="#FAFAFA"/>
<path fill-rule="evenodd" clip-rule="evenodd" d="M11.5794 18.3489H13.0619V24.1655H11.5794V23.3155C11.2711 23.9195 10.7575 24.3222 9.77421 24.3222C8.20402 24.3222 6.94912 22.9575 6.94912 21.2796C6.94912 19.6018 8.20402 18.2371 9.77421 18.2371C10.7505 18.2371 11.2711 18.6398 11.5794 19.2438V18.3489ZM11.6234 21.2796C11.6234 20.3698 10.9999 19.6167 10.0166 19.6167C9.06998 19.6167 8.45344 20.3773 8.45344 21.2796C8.45344 22.1595 9.06998 22.9426 10.0166 22.9426C10.9925 22.9426 11.6234 22.182 11.6234 21.2796Z" fill="#FAFAFA"/>
<path d="M16.2541 23.3901C16.2541 22.9129 16.6356 22.5102 17.1567 22.5102C17.6777 22.5102 18.0445 22.9129 18.0445 23.3901C18.0445 23.8824 17.6703 24.285 17.1567 24.285C16.643 24.285 16.2541 23.8824 16.2541 23.3901Z" fill="#FAFAFA"/>
<path d="M21.3396 24.3222C22.3302 24.3222 23.1666 23.8971 23.7169 23.226L22.6015 22.2341C22.308 22.6369 21.9117 22.9351 21.3396 22.9351C20.3929 22.9351 19.7764 22.1745 19.7764 21.2722C19.7764 20.3698 20.3929 19.6092 21.3396 19.6092C21.8676 19.6092 22.2422 19.8777 22.5282 20.2356L23.6728 19.2737C23.1225 18.6398 22.2932 18.2371 21.3396 18.2371C19.571 18.2371 18.2721 19.6018 18.2721 21.2796C18.2721 22.9575 19.571 24.3222 21.3396 24.3222Z" fill="#FAFAFA"/>
<path fill-rule="evenodd" clip-rule="evenodd" d="M23.8416 21.2796C23.8416 19.6018 25.1405 18.2371 26.9091 18.2371C28.6772 18.2371 29.9762 19.6018 29.9762 21.2796C29.9762 22.9575 28.6772 24.3222 26.9091 24.3222C25.1405 24.3147 23.8416 22.9575 23.8416 21.2796ZM28.4719 21.2796C28.4719 20.3698 27.8553 19.6167 26.9091 19.6167C25.9624 19.6092 25.3459 20.3698 25.3459 21.2796C25.3459 22.182 25.9624 22.9426 26.9091 22.9426C27.8553 22.9426 28.4719 22.182 28.4719 21.2796Z" fill="#FAFAFA"/>
<path d="M40 24.1582V20.6086C40 19.1395 39.0534 18.2148 37.8353 18.2074C36.8374 18.2074 36.2869 18.5952 35.9128 19.2887C35.5385 18.6101 34.8561 18.2074 34.0416 18.2074C33.183 18.2074 32.6251 18.5206 32.3168 19.147V18.3416H30.8347V24.1582H32.3168V20.974C32.3168 19.8629 32.8967 19.5348 33.5571 19.5348C34.2543 19.5348 34.7314 19.9673 34.7314 20.974V24.1582H36.2137V20.974C36.2137 19.8629 36.6833 19.5348 37.3437 19.5348C38.0481 19.5348 38.5177 19.9673 38.5177 20.974V24.1582H40Z" fill="#FAFAFA"/>
</svg>
