<svg width="40" height="40" viewBox="0 0 40 40" fill="none" xmlns="http://www.w3.org/2000/svg">
<path d="M15.5936 16H14.1115V24.1582H15.5936V16Z" fill="#292929"/>
<path d="M4.01415 24.3076C1.72452 24.3076 0 22.4955 0 20.2583C0 18.0137 1.63645 16.1867 4.01415 16.1867C5.27607 16.1867 6.14944 16.5745 6.83184 17.4619L5.73127 18.3791C5.26867 17.8869 4.71097 17.6408 4.01415 17.6408C2.46578 17.6408 1.61423 18.8265 1.61423 20.2583C1.61423 21.6901 2.54645 22.8534 4.01415 22.8534C4.70357 22.8534 5.29088 22.6074 5.75309 22.1151L6.83925 23.0697C6.18607 23.9198 5.29088 24.3076 4.01415 24.3076Z" fill="#292929"/>
<path fill-rule="evenodd" clip-rule="evenodd" d="M11.5794 18.349H13.062V24.1656H11.5794V23.3155C11.2712 23.9195 10.7575 24.3222 9.77425 24.3222C8.20406 24.3222 6.94915 22.9575 6.94915 21.2797C6.94915 19.6018 8.20406 18.2371 9.77425 18.2371C10.7505 18.2371 11.2712 18.6398 11.5794 19.2438V18.349ZM11.6235 21.2797C11.6235 20.3699 10.9999 19.6167 10.0167 19.6167C9.07002 19.6167 8.45348 20.3773 8.45348 21.2797C8.45348 22.1596 9.07002 22.9426 10.0167 22.9426C10.9925 22.9426 11.6235 22.182 11.6235 21.2797Z" fill="#292929"/>
<path d="M16.2542 23.3902C16.2542 22.913 16.6357 22.5102 17.1568 22.5102C17.6778 22.5102 18.0446 22.913 18.0446 23.3902C18.0446 23.8824 17.6704 24.285 17.1568 24.285C16.6431 24.285 16.2542 23.8824 16.2542 23.3902Z" fill="#292929"/>
<path d="M21.3397 24.3222C22.3303 24.3222 23.1667 23.8971 23.717 23.226L22.6016 22.2342C22.3081 22.6369 21.9118 22.9352 21.3397 22.9352C20.393 22.9352 19.7765 22.1745 19.7765 21.2722C19.7765 20.3699 20.393 19.6092 21.3397 19.6092C21.8677 19.6092 22.2423 19.8777 22.5283 20.2357L23.6729 19.2737C23.1227 18.6398 22.2933 18.2371 21.3397 18.2371C19.5711 18.2371 18.2722 19.6018 18.2722 21.2797C18.2722 22.9575 19.5711 24.3222 21.3397 24.3222Z" fill="#292929"/>
<path fill-rule="evenodd" clip-rule="evenodd" d="M23.8417 21.2797C23.8417 19.6018 25.1406 18.2371 26.9092 18.2371C28.6774 18.2371 29.9763 19.6018 29.9763 21.2797C29.9763 22.9575 28.6774 24.3222 26.9092 24.3222C25.1406 24.3147 23.8417 22.9575 23.8417 21.2797ZM28.472 21.2797C28.472 20.3699 27.8555 19.6167 26.9092 19.6167C25.9626 19.6092 25.346 20.3699 25.346 21.2797C25.346 22.182 25.9626 22.9426 26.9092 22.9426C27.8555 22.9426 28.472 22.182 28.472 21.2797Z" fill="#292929"/>
<path d="M40 24.1582V20.6086C40 19.1396 39.0538 18.2148 37.8355 18.2074C36.8374 18.2074 36.2871 18.5952 35.913 19.2887C35.5384 18.6101 34.856 18.2074 34.0415 18.2074C33.183 18.2074 32.6253 18.5206 32.317 19.147V18.3416H30.8349V24.1582H32.317V20.974C32.317 19.8629 32.8969 19.5348 33.5575 19.5348C34.2543 19.5348 34.7313 19.9673 34.7313 20.974V24.1582H36.2138V20.974C36.2138 19.8629 36.6835 19.5348 37.344 19.5348C38.0483 19.5348 38.5179 19.9673 38.5179 20.974V24.1582H40Z" fill="#292929"/>
</svg>
