<svg width="40" height="40" viewBox="0 0 40 40" fill="none" xmlns="http://www.w3.org/2000/svg">
<path d="M13.7619 2C13.2437 2 12.8236 2.42009 12.8236 2.93831V15.2526C13.3199 15.4643 13.7851 15.772 14.191 16.1757L21.2283 23.1739C22.0548 23.9958 22.5195 25.1132 22.5195 26.2788C22.5195 27.4443 22.0548 28.5618 21.2283 29.3837L14.191 36.3819C13.785 36.7856 13.3199 37.0932 12.8236 37.305V37.3527C12.8236 37.8709 13.2437 38.291 13.7619 38.291H39.0617C39.5799 38.291 40 37.8709 40 37.3527L40 15.794H27.1443C26.6261 15.794 26.206 15.3739 26.206 14.8557V2H13.7619Z" fill="#3A42E9"/>
<path d="M28.8645 2C28.7781 2 28.7081 2.07002 28.7081 2.15639V12.8227C28.7081 13.0818 28.9182 13.2919 29.1773 13.2919H39.8436C39.93 13.2919 40 13.2219 40 13.1355L40 12.6263C40 12.3778 39.9014 12.1395 39.726 11.9636L30.061 2.27561C29.885 2.09916 29.646 2 29.3967 2H28.8645Z" fill="#3A42E9"/>
<path d="M9.77268 34.6003C9.04186 33.8654 9.04517 32.6772 9.78007 31.9464L13.6315 28.1163L0.938311 28.1163C0.420096 28.1163 -2.26519e-08 27.6962 0 27.178L8.20297e-08 25.3014C1.04682e-07 24.7832 0.420095 24.3631 0.938311 24.3631H13.5529L9.78007 20.6112C9.04517 19.8804 9.04186 18.6922 9.77268 17.9573C10.5035 17.2224 11.6917 17.2191 12.4266 17.9499L19.4639 24.9481C19.8181 25.3004 20.0173 25.7793 20.0173 26.2788C20.0173 26.7783 19.8181 27.2572 19.4639 27.6095L12.4266 34.6077C11.6917 35.3385 10.5035 35.3352 9.77268 34.6003Z" fill="#3A42E9"/>
</svg>
