<svg width="512" height="512" viewBox="0 0 512 512" fill="none" xmlns="http://www.w3.org/2000/svg">
<g clip-path="url(#clip0_1142_1948)">
<path fill-rule="evenodd" clip-rule="evenodd" d="M164 36C164 29.3726 169.373 24 176 24H335.146V188.411C335.146 195.039 340.519 200.411 347.146 200.411H511.558L511.558 476.123C511.558 482.75 506.185 488.123 499.558 488.123H176C169.373 488.123 164 482.75 164 476.123V475.514C170.347 472.805 176.296 468.871 181.487 463.708L271.488 374.208C282.057 363.697 288 349.406 288 334.5C288 319.594 282.057 305.303 271.488 294.792L181.488 205.292C176.296 200.129 170.347 196.194 164 193.486V36ZM367.146 26C367.146 24.8954 368.042 24 369.146 24H375.953C379.141 24 382.197 25.2682 384.448 27.5248L508.053 151.424C510.297 153.673 511.558 156.721 511.558 159.899L511.558 166.411C511.558 167.516 510.662 168.411 509.558 168.411H373.146C369.833 168.411 367.146 165.725 367.146 162.411V26Z" fill="#2244FF"/>
<path fill-rule="evenodd" clip-rule="evenodd" d="M125.077 406.982C115.678 416.329 115.636 431.525 124.982 440.923C134.329 450.322 149.525 450.364 158.923 441.018L248.923 351.518C253.453 347.013 256 340.888 256 334.5C256 328.112 253.453 321.987 248.923 317.482L158.923 227.982C149.525 218.636 134.329 218.678 124.982 228.077C115.636 237.475 115.678 252.671 125.077 262.018L173.327 310L12 310C5.37257 310 -4.12516e-06 315.373 -4.41485e-06 322L-5.46392e-06 346C-5.75362e-06 352.627 5.37258 358 12 358L174.333 358L125.077 406.982Z" fill="#2244FF"/>
</g>
<defs>
<clipPath id="clip0_1142_1948">
<rect width="512" height="512" fill="white"/>
</clipPath>
</defs>
</svg>
