<svg xmlns="http://www.w3.org/2000/svg" xmlns:xlink="http://www.w3.org/1999/xlink" fill="#fff" fill-rule="evenodd" stroke="#000" stroke-linecap="round" stroke-linejoin="round" viewBox="0 0 62.883 69.883"><use xlink:href="#a" x="2.442" y="2.442"/><symbol id="a" overflow="visible"><path fill="#f8761f" fill-rule="nonzero" stroke="none" d="M55.504 30.401a16.26 16.26 0 0 0-5.904-5.864c-1.865-1.084-3.794-1.773-5.972-2.07v-7.798a5.71 5.71 0 0 0 3.525-5.357 5.86 5.86 0 0 0-5.859-5.889 5.91 5.91 0 0 0-5.908 5.889c0 2.393 1.27 4.434 3.452 5.357v7.754a17 17 0 0 0-5.195 1.631L12.769 8.247c.146-.552.273-1.123.273-1.724A6.52 6.52 0 0 0 6.519 0 6.52 6.52 0 0 0 0 6.524a6.523 6.523 0 0 0 6.524 6.524 6.47 6.47 0 0 0 3.35-.952l1.367 1.035 18.726 13.501c-.991.908-1.914 1.943-2.651 3.105-1.494 2.368-2.407 4.971-2.407 7.813v.586a16.4 16.4 0 0 0 1.025 5.645C26.5 45.324 27.33 46.73 28.361 48l-6.221 6.235a5.01 5.01 0 0 0-5.298 1.162c-.947.942-1.48 2.227-1.475 3.565s.527 2.612 1.479 3.564 2.227 1.48 3.565 1.48a5 5 0 0 0 3.565-1.48 5.05 5.05 0 0 0 1.475-3.564 5 5 0 0 0-.234-1.514l6.426-6.426a16 16 0 0 0 2.856 1.563 16.7 16.7 0 0 0 6.685 1.406h.439a15.76 15.76 0 0 0 7.627-1.929 15.77 15.77 0 0 0 5.977-5.63c1.499-2.393 2.319-5.044 2.319-7.959v-.146c0-2.866-.664-5.508-2.051-7.93zm-7.847 13.487c-1.743 1.938-3.75 3.135-6.016 3.135h-.43c-1.294 0-2.564-.356-3.799-1.011a8.8 8.8 0 0 1-3.33-3.032c-.898-1.27-1.387-2.656-1.387-4.126v-.439c0-1.445.278-2.817.977-4.111.747-1.465 1.758-2.515 3.101-3.389a7.6 7.6 0 0 1 4.297-1.294h.147c1.416 0 2.769.278 4.038.928a8.56 8.56 0 0 1 3.174 2.886 9.2 9.2 0 0 1 1.421 4.053l.034.913c0 1.987-.762 3.828-2.28 5.498z"/></symbol></svg>