<?xml version="1.0" encoding="UTF-8"?>
<svg width="60px" height="60px" viewBox="0 0 60 60" version="1.1" xmlns="http://www.w3.org/2000/svg" xmlns:xlink="http://www.w3.org/1999/xlink">
    <title>hubspot_node_icon</title>
    <g id="hubspot_node_icon" stroke="none" stroke-width="1" fill="none" fill-rule="evenodd" stroke-linecap="round" stroke-linejoin="round">
        <g id="hubspot-icon" transform="translate(4.000000, 1.000000)" fill="#F8761F" fill-rule="nonzero">
            <g id="A">
                <path d="M50.7191724,27.5938462 C49.4160526,25.3848148 47.5568239,23.5505112 45.3241379,22.2711385 C43.6199138,21.2872 41.8572069,20.6618 39.8669655,20.3922154 L39.8669655,13.3140308 C41.8407586,12.5016462 43.1182414,10.5746154 43.0880862,8.45152308 C43.0951365,7.03641816 42.5342082,5.67685592 41.5294159,4.67366139 C40.5246235,3.67046685 39.158806,3.10634724 37.7341724,3.10612308 C34.7597403,3.10710428 32.3460516,5.49696778 32.3354828,8.45152308 C32.3354828,10.6236308 33.496,12.4762308 35.4898966,13.3140308 L35.4898966,20.3522769 C33.8377586,20.5900923 32.2349655,21.0893231 30.7427414,21.8318154 L11.6691379,7.48573846 C11.8025517,6.98469231 11.9186034,6.4664 11.9186034,5.92087692 C11.9176897,2.65046154 9.24941379,0 5.95793103,0 C4.37715598,0 2.86117871,0.62401607 1.74374477,1.7346706 C0.626310833,2.84532514 -0.000969800649,4.35156365 -1.12284025e-06,5.92178462 C-1.12284025e-06,9.19310769 2.66827586,11.8435692 5.96158621,11.8435692 C7.04231978,11.838865 8.1010809,11.5399959 9.0227931,10.9794462 L10.2719483,11.9189077 L27.3836379,24.1727538 C26.4789828,24.9969385 25.6346379,25.9364 24.9620862,26.9911385 C23.5968793,29.1405538 22.7625862,31.5023692 22.7625862,34.0829385 L22.7625862,34.6148462 C22.7689828,36.3639692 23.086069,38.0985692 23.6992241,39.7387692 C24.216431,41.1393385 24.9748793,42.4164615 25.917,43.5692308 L20.2332069,49.2286923 C18.5518276,48.6078308 16.663931,49.0199231 15.391931,50.2834308 C14.526569,51.1384769 14.0395172,52.3048615 14.0440862,53.5193538 C14.0486552,54.7338462 14.5256552,55.8902462 15.3965,56.7543692 C16.2673448,57.6184923 17.4315172,58.0977626 18.6541724,58.0977626 C19.8771111,58.1001362 21.0501742,57.6163936 21.9118448,56.7543692 C22.7726379,55.8902462 23.2642586,54.7329385 23.2596897,53.5193538 C23.2594712,53.0531139 23.1873592,52.5896578 23.0458621,52.1451077 L28.9178966,46.3122769 C29.7372995,46.8716183 30.6117057,47.3469587 31.5276897,47.731 C33.4536449,48.569968 35.5333852,49.004462 37.6363966,49.0072154 L38.0384655,49.0072154 C40.4732889,49.0181886 42.8711639,48.4157736 45.0079655,47.2562769 C47.2508881,46.0617868 49.1353479,44.2985818 50.4697069,42.1459692 C51.8403966,39.9738615 52.5897069,37.5675692 52.5897069,34.9207385 L52.5897069,34.7882154 C52.5897069,32.1867692 51.9829483,29.7886462 50.716431,27.5902154 L50.7191724,27.5938462 Z M43.5486379,39.8358923 C41.9558966,41.595 40.1219138,42.6815077 38.0512586,42.6815077 L37.6583276,42.6815077 C36.4758793,42.6815077 35.3153621,42.3583692 34.1859138,41.7647385 C32.9482124,41.125415 31.8994808,40.1769089 31.1429828,39.0126154 C30.3223966,37.8598462 29.8755517,36.6017846 29.8755517,35.2674769 L29.8755517,34.8680923 C29.8755517,33.5564769 30.1295862,32.3111231 30.7683276,31.1374769 C31.450931,29.8077077 32.3747759,28.8546308 33.6010862,28.0604 C34.7610852,27.2852134 36.1296153,26.8758453 37.5276552,26.8858462 L37.6619828,26.8858462 C38.9559138,26.8858462 40.1931897,27.1381846 41.3518793,27.7281846 C42.5270172,28.3426923 43.5248793,29.2440308 44.2522586,30.3477846 C44.9718556,31.4548355 45.4168671,32.7156307 45.5507586,34.0266615 L45.5818276,34.8553846 C45.5818276,36.6589692 44.8855172,38.3300308 43.4983793,39.8458769 L43.5486379,39.8358923 Z" id="Shape"></path>
            </g>
        </g>
    </g>
</svg>