<svg class="svg-icon" style="width: 1em; height: 1em;vertical-align: middle;fill: currentColor;overflow: hidden;" viewBox="0 0 1024 1024" version="1.1" xmlns="http://www.w3.org/2000/svg"><path d="M206.9 564.6c17.7 0 32-14.3 32-32V188.8c0-16.4 13.3-29.6 29.6-29.6h467.4c16.4 0 29.6 13.3 29.6 29.6v345.3c0 3.9 0.7 7.8 2.1 11.4 12.6 33.2 61.9 24.1 61.9-11.4V188.8c0-51.7-41.9-93.6-93.6-93.6H268.5c-51.7 0-93.6 41.9-93.6 93.6v343.8c0 17.7 14.3 32 32 32z"  /><path d="M671.4 294c0-17.7-14.3-32-32-32H363.1c-17.7 0-32 14.3-32 32s14.3 32 32 32h276.3c17.6 0 32-14.3 32-32zM639.4 412.7H363.1c-17.7 0-32 14.3-32 32s14.3 32 32 32h276.3c17.7 0 32-14.3 32-32s-14.4-32-32-32zM40.9 645.5h-1.8c-16.2 0-29.4 13.2-29.4 29.4v261.4c0 16.2 13.2 29.4 29.4 29.4h160.2c16.2 0 29.4-13.2 29.4-29.4s-13.2-29.4-29.4-29.4h-129v-232c0-16.2-13.1-29.4-29.4-29.4zM502.2 805.6c0-51.1-12.7-90.1-37.5-117-26.2-28.7-64.1-43.1-114.7-43.1h-84.4c-16.2 0-29.4 13.2-29.4 29.4v261.4c0 16.2 13.2 29.4 29.4 29.4H350c50.6 0 88.6-14.4 114.7-43.1 24.9-27.3 37.5-66.3 37.5-117z m-81.1 77c-17.4 17.1-49.6 24.7-76.7 24.7h-47.3v-205h47.3c34.5 0 60.8 8 76.7 24.3 15.5 15.9 23.3 35.5 23.3 71.4 0 44.4-9.4 71-23.3 84.6zM585.5 664.7l-97.2 261.4c-7.2 19.2 7.1 39.7 27.6 39.7h2.4c12.5 0 23.6-7.9 27.7-19.6l21.4-60.7h109.4l21.4 60.7c4.2 11.8 15.3 19.6 27.7 19.6h1.4c20.5 0 34.7-20.5 27.6-39.7l-97.2-261.4c-4.3-11.5-15.3-19.2-27.6-19.2H613c-12.2 0-23.2 7.6-27.5 19.2z m0.1 169.5l35.3-100.6h1.3l35 100.6h-71.6zM896.3 645.5h-99.7c-16.2 0-29.4 13.2-29.4 29.4v261.4c0 16.2 13.2 29.4 29.4 29.4h2.2c16.2 0 29.4-13.2 29.4-29.4v-93.5h67.2c75.9 0 113.9-33.2 113.9-99.1 0-65.5-38-98.2-113-98.2z m45.8 131.9c-10.5 8.1-27 12.6-49.7 12.6h-64.2v-90.6h64.2c22.2 0 38.8 4 49.3 12.6 10.5 8.1 16.1 17.9 16.1 31.8 0 16.7-5.2 25.1-15.7 33.6z"  /></svg>
