<svg width="40" height="40" viewBox="0 0 40 40" fill="none" xmlns="http://www.w3.org/2000/svg">
<path d="M7.70312 21.3359C8.39453 21.3359 8.95312 20.7773 8.95312 20.0859V6.65625C8.95312 6.01563 9.47266 5.5 10.1094 5.5H28.3672C29.0078 5.5 29.5234 6.01953 29.5234 6.65625V20.1445C29.5234 20.2969 29.5508 20.4492 29.6055 20.5898C30.0977 21.8867 32.0234 21.5312 32.0234 20.1445V6.65625C32.0234 4.63672 30.3867 3 28.3672 3H10.1094C8.08984 3 6.45312 4.63672 6.45312 6.65625V20.0859C6.45312 20.7773 7.01172 21.3359 7.70312 21.3359Z" fill="black"/>
<path d="M25.8477 10.7656C25.8477 10.0742 25.2891 9.51562 24.5977 9.51562H13.8047C13.1133 9.51562 12.5547 10.0742 12.5547 10.7656C12.5547 11.457 13.1133 12.0156 13.8047 12.0156H24.5977C25.2852 12.0156 25.8477 11.457 25.8477 10.7656ZM24.5977 15.4023H13.8047C13.1133 15.4023 12.5547 15.9609 12.5547 16.6523C12.5547 17.3438 13.1133 17.9023 13.8047 17.9023H24.5977C25.2891 17.9023 25.8477 17.3438 25.8477 16.6523C25.8477 15.9609 25.2852 15.4023 24.5977 15.4023ZM1.21875 24.4961H1.14844C0.515625 24.4961 0 25.0117 0 25.6445V35.8555C0 36.4883 0.515625 37.0039 1.14844 37.0039H7.40625C8.03906 37.0039 8.55469 36.4883 8.55469 35.8555C8.55469 35.2227 8.03906 34.707 7.40625 34.707H2.36719V25.6445C2.36719 25.0117 1.85547 24.4961 1.21875 24.4961ZM19.2383 30.75C19.2383 28.7539 18.7422 27.2305 17.7734 26.1797C16.75 25.0586 15.2695 24.4961 13.293 24.4961H9.99609C9.36328 24.4961 8.84766 25.0117 8.84766 25.6445V35.8555C8.84766 36.4883 9.36328 37.0039 9.99609 37.0039H13.293C15.2695 37.0039 16.7539 36.4414 17.7734 35.3203C18.7461 34.2539 19.2383 32.7305 19.2383 30.75ZM16.0703 33.7578C15.3906 34.4258 14.1328 34.7227 13.0742 34.7227H11.2266V26.7148H13.0742C14.4219 26.7148 15.4492 27.0273 16.0703 27.6641C16.6758 28.2852 16.9805 29.0508 16.9805 30.4531C16.9805 32.1875 16.6133 33.2266 16.0703 33.7578ZM22.4922 25.2461L18.6953 35.457C18.4141 36.207 18.9727 37.0078 19.7734 37.0078H19.8672C20.3555 37.0078 20.7891 36.6992 20.9492 36.2422L21.7852 33.8711H26.0586L26.8945 36.2422C27.0586 36.7031 27.4922 37.0078 27.9766 37.0078H28.0312C28.832 37.0078 29.3867 36.207 29.1094 35.457L25.3125 25.2461C25.1445 24.7969 24.7148 24.4961 24.2344 24.4961H23.5664C23.0898 24.4961 22.6602 24.793 22.4922 25.2461ZM22.4961 31.8672L23.875 27.9375H23.9258L25.293 31.8672H22.4961ZM34.6328 24.4961H30.7383C30.1055 24.4961 29.5898 25.0117 29.5898 25.6445V35.8555C29.5898 36.4883 30.1055 37.0039 30.7383 37.0039H30.8242C31.457 37.0039 31.9727 36.4883 31.9727 35.8555V32.2031H34.5977C37.5625 32.2031 39.0469 30.9063 39.0469 28.332C39.0469 25.7734 37.5625 24.4961 34.6328 24.4961ZM36.4219 29.6484C36.0117 29.9648 35.3672 30.1406 34.4805 30.1406H31.9727V26.6016H34.4805C35.3477 26.6016 35.9961 26.7578 36.4062 27.0938C36.8164 27.4102 37.0352 27.793 37.0352 28.3359C37.0352 28.9883 36.832 29.3164 36.4219 29.6484Z" fill="black"/>
</svg>
