<svg xmlns="http://www.w3.org/2000/svg" width="560" height="560" viewBox="0 0 560 560">
  <g fill="none" transform="matrix(1 0 0 -1 .21 449.962)">
    <polygon fill="#4285F4" points="157.603 284.995 157.603 195.606 172.957 195.606 188.101 195.606 187.47 284.995 187.049 374.385 172.326 374.385 157.603 374.385"/>
    <polygon fill="#4285F4" points="216.495 284.995 216.495 195.606 232.27 195.606 248.045 195.606 248.045 284.995 248.045 374.385 232.27 374.385 216.495 374.385"/>
    <path fill="#3D464D" d="M162.584038 130.224892C161.953052 128.962921 155.432864 123.704705 148.492019 118.656817L135.661972 109.192029 135.661972 97.6239534C135.451643 91.3140943 135.8723 86.2662069 136.503286 86.2662069 140.920188 86.2662069 182.985915 119.918789 181.513615 122.232404 179.410329 125.807991 163.846009 132.328179 162.584038 130.224892zM298.246009 130.435221C298.035681 129.804235 297.825352 127.069963 297.825352 124.125362 297.404695 118.867146 297.404695 118.867146 320.540845 117.815503 339.260094 116.974188 343.676995 116.132874 343.676995 113.60893 343.676995 110.874658 339.260094 110.454 315.703286 110.454L287.939906 110.454 287.939906 98.465268 287.939906 86.2662069 295.301408 86.2662069C301.821596 86.2662069 302.662911 86.8971929 302.662911 91.5244229L302.662911 96.7826389 323.695775 96.7826389 344.728638 96.7826389 344.728638 88.3694933 344.728638 79.9563478 353.141784 79.9563478 361.55493 79.9563478 361.55493 88.3694933 361.55493 96.7826389 382.798122 96.7826389 404.041315 96.7826389 403.2 91.5244229C402.148357 86.6868642 402.779343 86.2662069 410.140845 86.2662069L418.343662 86.2662069 418.343662 97.8342821 418.343662 109.402357 389.949296 109.402357C363.02723 109.402357 361.55493 109.612686 361.55493 113.60893 361.55493 117.605174 363.02723 117.815503 384.901408 117.815503L408.037559 117.815503 407.406573 124.125362 406.775587 130.64555 352.510798 131.066207C322.85446 131.276536 298.456338 131.066207 298.246009 130.435221z"/>
    <path fill="#4285F4" d="M45.0774634 322.433788C24.6755876 316.123929 7.00798197 298.456323 1.74976601 278.89576-1.40516357 267.117356.27746554 240.405623 4.90469559 231.782149 10.7938975 220.424403 22.9929585 208.225342 34.350705 202.546468 52.4389658 193.292008 72.8408458 193.502337 95.1356815 202.967126 97.8699538 204.229097 98.7112684 203.387783 98.7112684 199.18121 98.7112684 182.354923 87.7741792 165.949296 73.2615031 161.742723L65.0586862 159.218779 65.0586862 144.706103 65.0586862 130.403756 73.0511745 130.403756C92.1910806 130.403756 118.902818 152.277934 125.002348 173.100469 127.526292 181.723937 128.157278 197.498581 128.157278 254.918295L128.157278 326.009375 113.434273 326.009375C100.183569 326.009375 98.7112684 325.588718 98.7112684 321.802802 98.7112684 316.754915 98.5009397 316.754915 83.9882637 321.802802 70.1065735 326.640361 59.379813 326.85069 45.0774634 322.433788zM79.5713623 290.043178C97.6596252 279.947403 103.338498 256.390596 91.5600946 240.826281 84.1985923 231.151163 75.9957754 227.154919 64.007043 227.154919 48.0220644 227.154919 36.2436627 235.778393 31.406104 250.922051 22.5723012 278.89576 54.1215949 304.555854 79.5713623 290.043178zM275.807982 285.626276C276.438968 248.187779 276.859625 244.191539 281.486855 233.885435 287.796714 220.003745 304.623005 204.229097 318.715024 199.18121 349.843663 188.244121 384.968545 202.546468 399.481221 232.413135 404.31878 242.298581 404.739437 245.453511 405.370423 284.574633L406.211738 326.009375 390.226761 326.009375 374.241785 326.009375 374.241785 287.939891C374.241785 253.025337 373.821128 249.029093 369.824883 242.719238 362.884038 231.361492 352.998592 226.523933 338.696245 227.575576 325.024883 228.62722 317.663381 232.833792 311.353522 244.191539 307.357278 251.13238 306.93662 255.338952 306.93662 288.991535L306.93662 326.009375 290.951644 326.009375 274.966667 326.009375 275.807982 285.626276zM474.568545 323.064774C455.638968 317.806558 436.499062 299.928624 430.820189 282.261018 429.347888 278.054445 427.875588 256.811253 427.45493 235.147407L426.403287 195.605623 442.388264 195.605623 458.37324 195.605623 458.37324 212.431914 458.37324 229.258205 507.80047 229.258205 557.2277 229.258205 557.2277 249.870408C557.2277 277.633788 553.652113 288.991535 540.401409 303.504211 523.575118 322.013131 497.704696 329.584962 474.568545 323.064774L474.568545 323.064774zM506.32817 291.515478C516.423944 286.257262 523.785447 276.582145 525.047419 267.327685L526.30939 258.704211 492.025822 258.704211 457.742254 258.704211 459.004226 266.276042C460.686855 275.951159 469.520658 287.729563 478.144132 291.515478 486.767606 295.091065 499.176996 295.301394 506.32817 291.515478L506.32817 291.515478z"/>
    <path fill="#3D464D" d="M227.996244 126.859634C224.630986 125.177005 221.265728 123.284047 220.84507 122.86339 218.110798 120.549775 260.176526 86.2662069 265.64507 86.2662069 266.276056 86.2662069 266.907042 91.3140943 266.907042 97.6239534 266.907042 108.140385 266.276056 109.402357 260.176526 113.819259 256.39061 116.553531 250.080751 121.180761 246.294836 124.546019 238.512676 131.276536 236.619718 131.486864 227.996244 126.859634zM178.148357 98.2549393C171.41784 93.4173807 159.218779 85.635221 151.015962 81.007991L136.082629 72.5948454 135.661972 60.6061131C135.661972 53.8755966 135.8723 48.407052 136.503286 48.407052 137.134272 48.6173807 139.868545 49.8793525 142.813146 51.5619816 145.757746 53.2446107 148.702347 54.5065825 149.753991 54.7169112 150.595305 54.7169112 151.226291 42.5178501 151.226291 27.3741882L151.226291.0314651643 200.653521.0314651643 250.080751.0314651643 250.080751 27.3741882C250.080751 42.5178501 250.501408 54.7169112 250.922066 54.7169112 251.342723 54.7169112 255.128638 53.2446107 259.335211 51.5619816L266.907042 48.407052 266.907042 60.3957844 266.907042 72.5948454 252.604695 79.9563478C244.822535 83.9525919 232.623474 91.7347515 225.4723 97.2032962 213.693897 106.247428 211.380282 107.299071 201.284507 107.299071 191.399061 107.299071 188.664789 106.247428 178.148357 98.2549393zM213.693897 82.0596342C220.003756 76.3807609 227.785915 70.0709018 231.361502 67.9676154 234.726761 66.0746577 237.461033 63.550714 237.461033 62.7093994 237.461033 61.8680849 220.84507 61.0267703 200.653521 61.0267703 180.461972 61.0267703 163.846009 61.6577562 163.846009 62.7093994 163.846009 63.550714 167.421596 66.2849863 171.838498 69.0192586 176.04507 71.7535309 183.82723 77.8530614 189.085446 82.9009487 194.343662 87.9488361 199.391549 92.1554088 200.443192 92.3657375 201.284507 92.3657375 207.384038 87.9488361 213.693897 82.0596342zM225.892958 30.5291177L225.892958 15.8061131 201.284507 15.1751271 176.465728 14.5441412 176.465728 30.5291177 176.465728 46.5140943 201.284507 45.8831084 225.892958 45.2521224 225.892958 30.5291177zM308.97277 85.2145638C308.97277 79.7460192 309.183099 79.7460192 323.275117 80.3770051 336.105164 81.007991 337.367136 81.4286483 337.998122 85.8455497 338.629108 90.2624511 337.998122 90.4727797 323.906103 90.4727797 309.393427 90.4727797 308.97277 90.2624511 308.97277 85.2145638zM367.864789 85.2145638C367.864789 80.1666764 368.285446 79.9563478 381.53615 79.9563478 394.786854 79.9563478 395.207512 80.1666764 395.207512 85.2145638 395.207512 90.2624511 394.786854 90.4727797 381.53615 90.4727797 368.285446 90.4727797 367.864789 90.2624511 367.864789 85.2145638zM294.249765 61.237099L294.249765 46.5140943 303.293897 45.8831084 312.1277 45.2521224 312.758685 29.0568173C313.179343 15.3854558 312.758685 12.6511835 310.024413 12.6511835 307.500469 12.6511835 306.869484 15.5957844 306.869484 27.3741882L306.869484 42.0971929 300.559624 42.0971929 294.249765 42.0971929 294.249765 21.064329 294.249765.0314651643 319.489202.0314651643 344.728638.0314651643 344.728638 6.34132432C344.728638 12.4408548 344.307981 12.6511835 335.053521 12.6511835 326.430047 12.6511835 325.588732 13.0718408 326.219718 17.4887422 326.640376 21.2746577 328.323005 22.3263008 335.894836 22.7469581 343.676995 23.377944 344.728638 24.00893 344.728638 28.4258314 344.728638 32.8427328 343.676995 33.4737187 335.894836 34.1047046 327.902347 34.7356905 326.850704 35.3666764 326.850704 39.9939065 326.850704 44.6211365 327.902347 45.2521224 335.894836 45.8831084L344.728638 46.5140943 344.728638 61.237099 344.728638 75.749775 319.489202 75.749775 294.249765 75.749775 294.249765 61.237099zM327.902347 59.9751271C327.902347 55.3478971 327.061033 54.7169112 319.489202 54.7169112 311.917371 54.7169112 311.076056 55.3478971 311.076056 59.9751271 311.076056 64.8126858 311.917371 65.2333431 319.489202 65.2333431 327.061033 65.2333431 327.902347 64.8126858 327.902347 59.9751271zM359.030986 69.2295872C352.721127 63.9713713 351.038498 61.237099 351.038498 55.5582257L351.038498 48.6173807 357.138028 52.1929675C362.185915 55.1375685 363.658216 55.1375685 366.602817 52.8239534 371.861033 48.407052 370.80939 46.5140943 360.503286 42.0971929 352.300469 38.521606 351.038498 37.2596342 351.038498 31.5807609 351.038498 26.7432023 351.879812 25.2709018 354.614085 25.6915591 357.558685 26.322545 357.979343 24.4295872 357.558685 13.2821694L357.138028.0314651643 384.69108.0314651643 412.45446.0314651643 411.613146 13.7028267C410.98216 25.6915591 411.402817 27.3741882 414.768075 27.3741882 417.502347 27.3741882 418.343662 29.0568173 418.343662 34.7356905 418.343662 40.2042351 417.502347 42.0971929 414.768075 42.0971929 409.720188 42.0971929 397.310798 46.9347515 397.310798 48.8277093 397.310798 49.6690238 398.152113 50.5103384 399.203756 50.5103384 401.096714 50.5103384 418.343662 71.9638595 418.343662 74.2774746 418.343662 75.1187891 406.775587 75.749775 392.683568 75.749775 367.023474 75.5394464 366.813146 75.5394464 359.030986 69.2295872zM393.104225 63.550714C393.104225 62.4990708 391.211268 59.9751271 388.687324 57.8718408 384.69108 54.0859253 384.060094 54.0859253 378.801878 57.2408548 369.547418 62.9197281 370.599061 65.2333431 382.377465 65.2333431 388.266667 65.2333431 393.104225 64.3920285 393.104225 63.550714zM393.314554 34.7356905L400.465728 31.7910896 385.742723 31.7910896C371.861033 31.7910896 371.440376 32.0014182 376.277934 34.7356905 383.008451 38.521606 384.69108 38.521606 393.314554 34.7356905zM391.000939 14.7544699C391.000939 9.07559662 390.369953 8.4446107 384.69108 8.4446107 379.012207 8.4446107 378.381221 9.07559662 378.381221 14.7544699 378.381221 20.4333431 379.012207 21.064329 384.69108 21.064329 390.369953 21.064329 391.000939 20.4333431 391.000939 14.7544699z"/>
  </g>
</svg>
