<svg id="Layer_1" data-name="Layer 1" xmlns="http://www.w3.org/2000/svg" viewBox="0 0 276 276"><defs><style>.cls-3{fill:#fff}.cls-4{fill:#8bc53f}.cls-6{fill:#58595b}</style></defs><g id="Coin_Gecko_AI" data-name="Coin Gecko AI"><path d="M276 137.39A138 138 0 11137.39 0 138 138 0 01276 137.39z" fill="#8dc63f"/><path d="M265.65 137.44a127.63 127.63 0 11-128.21-127 127.65 127.65 0 01128.21 127z" fill="#f9e988"/><path class="cls-3" d="M140.35 18.66a70.18 70.18 0 0124.53 0 74.75 74.75 0 0123.43 7.85c7.28 4 13.57 9.43 19.83 14.52s12.49 10.3 18.42 16a93.32 93.32 0 0115.71 19 108.28 108.28 0 0111 22.17c5.33 15.66 7.18 32.53 4.52 48.62H257c-2.67-15.95-6.29-31.15-12-45.61A177.51 177.51 0 00235.56 80a209.1 209.1 0 00-12.42-20 72.31 72.31 0 00-16.64-16.8c-6.48-4.62-13.93-7.61-21.14-10.45S171 27 163.48 24.84s-15.16-3.78-23.14-5.35z"/><path class="cls-4" d="M202.74 92.39c-9.26-2.68-18.86-6.48-28.58-10.32-.56-2.44-2.72-5.48-7.09-9.19-6.35-5.51-18.28-5.37-28.59-2.93-11.38-2.68-22.62-3.63-33.41-1-88.25 24.31-38.21 83.62-70.61 143.24 4.61 9.78 54.3 66.84 126.2 51.53 0 0-24.59-59.09 30.9-87.45 45.01-23.09 77.53-65.81 11.18-83.88z"/><path class="cls-3" d="M213.64 131.2a5.35 5.35 0 11-5.38-5.32 5.36 5.36 0 015.38 5.32z"/><path d="M138.48 69.91c6.43.46 29.68 8 35.68 12.12-5-14.5-21.83-16.43-35.68-12.12z" fill="#009345"/><path class="cls-3" d="M144.6 106.58a24.68 24.68 0 11-24.69-24.67 24.68 24.68 0 0124.68 24.66z"/><path class="cls-6" d="M137.28 106.8a17.36 17.36 0 11-17.36-17.36 17.36 17.36 0 0117.36 17.36z"/><path class="cls-4" d="M233.63 142.08c-20 14.09-42.74 24.78-75 24.78-15.1 0-18.16-16-28.14-8.18-5.15 4.06-23.31 13.14-37.72 12.45S55 162 48.49 131.23C45.91 162 44.59 184.65 33 210.62c23 36.83 77.84 65.24 127.62 53-5.31-37.35 27.38-73.93 45.72-92.62 7-7.09 20.3-18.66 27.29-28.91z"/><path class="cls-6" d="M232.85 143c-6.21 5.66-13.6 9.85-21.12 13.55a134.9 134.9 0 01-23.7 8.63c-8.16 2.11-16.67 3.7-25.29 2.92s-17.43-3.71-23.14-10.17l.27-.31c7 4.54 15.08 6.14 23.12 6.37a108.27 108.27 0 0024.3-2 132.71 132.71 0 0023.61-7.3c7.63-3.15 15.18-6.8 21.68-12z"/></g></svg>