<svg xmlns="http://www.w3.org/2000/svg" id="Layer_1" data-name="Layer 1" viewBox="0 0 276 276"><defs><style>.cls-3{fill:#fff}.cls-4{fill:#8bc53f}.cls-6{fill:#58595b}</style></defs><g id="Coin_Gecko_AI" data-name="Coin Gecko AI"><path fill="#8dc63f" d="M276 137.39A138 138 0 1 1 137.39 0 138 138 0 0 1 276 137.39"/><path fill="#f9e988" d="M265.65 137.44a127.63 127.63 0 1 1-128.21-127 127.65 127.65 0 0 1 128.21 127"/><path d="M140.35 18.66a70.2 70.2 0 0 1 24.53 0 74.8 74.8 0 0 1 23.43 7.85c7.28 4 13.57 9.43 19.83 14.52s12.49 10.3 18.42 16a93.3 93.3 0 0 1 15.71 19 108.3 108.3 0 0 1 11 22.17c5.33 15.66 7.18 32.53 4.52 48.62H257c-2.67-15.95-6.29-31.15-12-45.61A177.5 177.5 0 0 0 235.56 80a209 209 0 0 0-12.42-20 72.3 72.3 0 0 0-16.64-16.8c-6.48-4.62-13.93-7.61-21.14-10.45S171 27 163.48 24.84s-15.16-3.78-23.14-5.35z" class="cls-3"/><path d="M202.74 92.39c-9.26-2.68-18.86-6.48-28.58-10.32-.56-2.44-2.72-5.48-7.09-9.19-6.35-5.51-18.28-5.37-28.59-2.93-11.38-2.68-22.62-3.63-33.41-1-88.25 24.31-38.21 83.62-70.61 143.24 4.61 9.78 54.3 66.84 126.2 51.53 0 0-24.59-59.09 30.9-87.45 45.01-23.09 77.53-65.81 11.18-83.88" class="cls-4"/><path d="M213.64 131.2a5.35 5.35 0 1 1-5.38-5.32 5.36 5.36 0 0 1 5.38 5.32" class="cls-3"/><path fill="#009345" d="M138.48 69.91c6.43.46 29.68 8 35.68 12.12-5-14.5-21.83-16.43-35.68-12.12"/><path d="M144.6 106.58a24.68 24.68 0 1 1-24.69-24.67 24.68 24.68 0 0 1 24.68 24.66z" class="cls-3"/><path d="M137.28 106.8a17.36 17.36 0 1 1-17.36-17.36 17.36 17.36 0 0 1 17.36 17.36" class="cls-6"/><path d="M233.63 142.08c-20 14.09-42.74 24.78-75 24.78-15.1 0-18.16-16-28.14-8.18-5.15 4.06-23.31 13.14-37.72 12.45S55 162 48.49 131.23C45.91 162 44.59 184.65 33 210.62c23 36.83 77.84 65.24 127.62 53-5.31-37.35 27.38-73.93 45.72-92.62 7-7.09 20.3-18.66 27.29-28.91z" class="cls-4"/><path d="M232.85 143c-6.21 5.66-13.6 9.85-21.12 13.55a135 135 0 0 1-23.7 8.63c-8.16 2.11-16.67 3.7-25.29 2.92s-17.43-3.71-23.14-10.17l.27-.31c7 4.54 15.08 6.14 23.12 6.37a108.3 108.3 0 0 0 24.3-2 132.7 132.7 0 0 0 23.61-7.3c7.63-3.15 15.18-6.8 21.68-12z" class="cls-6"/></g></svg>