<svg xmlns="http://www.w3.org/2000/svg" viewBox="0 0 80 80"><defs><linearGradient id="a" x1="0%" x2="100%" y1="100%" y2="0%"><stop offset="0%" stop-color="#1B660F"/><stop offset="100%" stop-color="#6CAE3E"/></linearGradient></defs><g fill="none" fill-rule="evenodd"><path fill="url(#a)" d="M0 0h80v80H0z"/><path fill="#FFF" d="M40 18c-8.837 0-16 3.582-16 8v28c0 4.418 7.163 8 16 8s16-3.582 16-8V26c0-4.418-7.163-8-16-8zm0 42c-7.732 0-14-2.686-14-6v-6.764C29.14 49.665 34.336 51 40 51s10.86-1.335 14-3.764V54c0 3.314-6.268 6-14 6zm0-11c-7.732 0-14-2.686-14-6v-6.764C29.14 38.665 34.336 40 40 40s10.86-1.335 14-3.764V43c0 3.314-6.268 6-14 6zm0-11c-7.732 0-14-2.686-14-6v-6.764C29.14 27.665 34.336 29 40 29s10.86-1.335 14-3.764V32c0 3.314-6.268 6-14 6zm0-18c7.732 0 14 2.686 14 6s-6.268 6-14 6-14-2.686-14-6 6.268-6 14-6z"/><path fill="#FFF" d="M46 24h-2v2h2v-2zm-4 0h-2v2h2v-2zm-4 0h-2v2h2v-2z"/></g></svg>
