<?xml version="1.0" standalone="no"?>
<!DOCTYPE svg PUBLIC "-//W3C//DTD SVG 20010904//EN"
 "http://www.w3.org/TR/2001/REC-SVG-20010904/DTD/svg10.dtd">
<svg version="1.0" xmlns="http://www.w3.org/2000/svg"
 width="224.000000pt" height="224.000000pt" viewBox="0 0 224.000000 224.000000"
 preserveAspectRatio="xMidYMid meet">

<g transform="translate(0.000000,224.000000) scale(0.100000,-0.100000)"
fill="#000000" stroke="none">
<path d="M0 1120 l0 -1120 1120 0 1120 0 0 1120 0 1120 -1120 0 -1120 0 0
-1120z m1368 317 c176 -176 282 -290 282 -302 0 -27 -565 -587 -588 -583 -32
6 -22 35 43 121 35 47 98 133 139 190 l74 104 -157 -64 c-86 -35 -193 -80
-239 -99 -89 -38 -117 -40 -117 -10 0 20 52 54 298 193 64 37 117 70 117 75 0
4 -19 8 -42 8 -131 1 -702 40 -710 48 -6 6 -8 17 -5 25 7 19 48 23 452 45
l320 17 -75 44 c-309 180 -361 213 -358 229 7 36 24 31 405 -129 51 -22 95
-39 98 -39 8 0 -72 115 -184 267 -82 111 -94 143 -54 143 11 0 139 -121 301
-283z"/>
</g>
</svg>
