<svg xmlns="http://www.w3.org/2000/svg" viewBox="0 0 80 80"><defs><linearGradient id="a" x1="0%" x2="100%" y1="100%" y2="0%"><stop offset="0%" stop-color="#B0084D"/><stop offset="100%" stop-color="#FF4F8B"/></linearGradient></defs><g fill="none" fill-rule="evenodd"><path fill="url(#a)" d="M0 0h80v80H0z"/><path fill="#FFF" d="M40 20l-14 8v14c0 8.66 6.02 16.75 14 18.71 7.98-1.96 14-10.05 14-18.71V28l-14-8zm0 4.83L50 30v12c0 6.83-4.75 13.2-10 14.75-5.25-1.55-10-7.92-10-14.75V30l10-5.17z"/><path fill="#FFF" d="M40 28c-4.42 0-8 3.58-8 8s3.58 8 8 8 8-3.58 8-8-3.58-8-8-8zm0 14c-3.31 0-6-2.69-6-6s2.69-6 6-6 6 2.69 6 6-2.69 6-6 6z"/><circle cx="40" cy="36" r="3" fill="#FFF"/></g></svg>
