<svg width="40" height="40" viewBox="0 0 40 40" fill="none" xmlns="http://www.w3.org/2000/svg">
<path d="M34 0H6C2.68629 0 0 2.68629 0 6V34C0 37.3137 2.68629 40 6 40H34C37.3137 40 40 37.3137 40 34V6C40 2.68629 37.3137 0 34 0Z" fill="#006984"/>
<path d="M29.0627 24.1405C29.0627 24.1405 29.4533 23.5937 29.5315 23.2812L29.6096 23.0468L29.1408 23.1249C29.0627 23.203 28.7502 24.1405 27.6565 25.1562C27.0315 25.703 26.3283 25.8593 25.7033 25.7812C25.2346 25.7812 24.9221 25.4687 24.6877 24.9218C24.5315 24.3749 24.4533 23.7499 24.6096 22.9687C24.9221 21.4843 25.3127 20.703 25.8596 20.703C26.4846 21.2499 25.6252 23.4374 24.9221 23.9843L24.6877 24.2187H25.0002C25.7815 23.9843 26.4065 23.7499 27.0315 23.3593C27.5783 22.9687 27.969 22.578 28.1252 22.1874C28.2033 21.7187 28.0471 21.328 27.6565 21.0155C27.2658 20.703 26.719 20.5468 26.094 20.4687C25.469 20.4687 24.844 20.5468 24.2971 20.8593C25.0783 19.3749 25.9377 17.8905 26.4065 16.4062C26.7971 15.078 26.719 14.0624 26.0158 13.4374C25.7815 13.203 25.469 13.0468 25.0002 12.9687C24.0627 12.7343 23.1252 12.4218 23.8283 13.4374C23.9846 13.5937 24.0627 13.828 24.0627 13.9843C24.4533 16.4062 23.5158 18.3593 22.6565 20.1562C21.7971 21.8749 20.6252 24.3749 18.9846 25.3124L18.9065 25.078C18.8283 24.6874 18.9065 24.3749 18.9846 23.9843L19.5315 21.0155L20.1565 18.1249L20.3908 16.953C20.469 16.6405 20.3908 16.4843 20.3127 16.328L18.9846 15.5468C18.3596 15.1562 18.3596 15.1562 18.1252 15.7812L17.2658 18.203C16.4547 20.2649 15.5154 22.2741 14.4533 24.2187C13.9846 24.9999 13.594 25.3905 13.2815 25.3905C12.969 25.1562 13.1252 24.6874 13.2033 24.453C13.2815 23.5155 13.594 22.4999 13.7502 21.7187L14.4533 19.2187L15.0002 17.1093L15.469 15.6249C15.469 15.3905 15.3127 15.1562 15.0783 14.9999L13.9065 14.2968C13.5158 14.0624 13.3596 14.1405 12.969 14.2187C10.9051 14.9975 8.9175 15.9652 7.03146 17.1093C6.17208 17.7343 5.62521 18.203 5.39083 18.6718C5.07833 19.2968 5.15646 19.8437 5.46896 20.3905C5.62521 20.703 5.85958 21.0155 6.17208 21.2499C7.34396 22.0312 6.95333 21.5624 7.10958 20.6249C7.10958 20.3124 7.26583 19.9999 7.42208 19.6874C7.81271 19.0624 8.43771 18.2812 9.53146 17.4218C10.6252 16.6405 11.7971 15.9374 13.0471 15.3905L12.344 18.203L11.6408 21.1718C11.4065 22.2655 11.0158 23.2812 11.0158 24.3749C11.1721 25.3124 11.9533 26.0155 12.8908 26.0155C13.5158 26.0155 14.0627 25.6249 14.6096 24.8437C15.727 22.9004 16.6682 20.861 17.4221 18.7499L16.9533 21.2499L16.6408 23.4374C16.5627 24.0624 16.6408 24.6874 16.9533 25.1562C17.344 25.703 17.969 25.9374 18.594 26.0155C19.219 26.0155 20.0002 25.4687 21.094 24.453L21.7971 23.5937C21.7971 24.3749 22.0315 24.9218 22.5783 25.3905C23.2815 25.8593 24.0627 26.1718 25.0002 26.1718C26.4846 26.0937 28.2815 25.3124 29.0627 24.1405Z" fill="white"/>
</svg>
