<svg xmlns="http://www.w3.org/2000/svg" width="60" height="60"><g fill="none" fill-rule="evenodd" stroke-linecap="round" stroke-linejoin="round"><path fill="#FF3D57" d="M8.184 47.393A7.2 7.2 0 0 1 1.9 43.674a7.22 7.22 0 0 1 .196-7.307l12.945-20.73a7.18 7.18 0 0 1 6.356-3.376 7.2 7.2 0 0 1 6.097 3.824 7.21 7.21 0 0 1-.258 7.2l-12.95 20.727a7.19 7.19 0 0 1-6.103 3.379z"/><path fill="#FFCB00" d="M30.494 47.393a7.2 7.2 0 0 1-6.295-3.713 7.21 7.21 0 0 1 .194-7.313l12.954-20.73a7.17 7.17 0 0 1 6.411-3.634A7.19 7.19 0 0 1 50 15.923a7.21 7.21 0 0 1-.476 7.36l-12.93 20.73a7.19 7.19 0 0 1-6.102 3.378l.003.002z"/><path fill="#00D647" d="M45.591 40.357c0-3.895 3.214-7.034 7.205-7.034S60 36.46 60 40.357s-3.214 7.034-7.204 7.034c-3.991 0-7.205-3.137-7.205-7.034"/></g></svg>