<svg xmlns="http://www.w3.org/2000/svg" class="w-full -translate-y-0.5" viewBox="1 1 30 29"><g fill="none" fill-rule="evenodd" transform="translate(0 1)"><path stroke="currentColor" stroke-linecap="square" stroke-width="1.77" d="m14.58 5.24.7-3.89"/><path stroke="#7D7D87" stroke-linecap="square" stroke-linejoin="round" stroke-width="1.77" d="M17.8 3.86 15.36.88l-3.32 1.94"/><path stroke="currentColor" stroke-linecap="square" stroke-width="1.77" d="m11.66 21.84.68-3.89"/><path stroke="currentColor" stroke-linecap="square" stroke-linejoin="round" stroke-width="1.77" d="m14.88 20.45-2.46-2.97-3.31 1.95"/><path stroke="currentColor" stroke-linecap="square" stroke-width="1.77" d="m13.07 13.82.68-3.89"/><path stroke="currentColor" stroke-linecap="square" stroke-linejoin="round" stroke-width="1.77" d="m16.29 12.43-2.45-2.96-3.31 1.94"/><circle cx="10.77" cy="26.85" r="1.63" fill="currentColor" fill-rule="nonzero"/><g stroke="currentColor" stroke-linecap="square"><path stroke-width="1.68" d="m6.15 21.5-2.99 2.08"/><path stroke-linejoin="round" stroke-width="1.68" d="M6.33 24.87 2.8 23.83l.26-3.67"/><path stroke-width="1.68" d="m17.01 23.45 2.08 3"/><path stroke-linejoin="round" stroke-width="1.68" d="m15.67 26.55 3.67.25 1.04-3.51"/><path stroke-width="1.72" d="m20.42 17.36 3.66.66"/><path stroke-linejoin="round" stroke-width="1.72" d="m21.68 20.57 2.84-2.47-1.79-3.29"/><path stroke-width="1.72" d="m19.35 10.1 3.26-1.8"/><path stroke-linejoin="round" stroke-width="1.72" d="M19.53 6.65 23 8.09l-.65 3.69"/><path stroke-width="1.72" d="M4.97 14.64 1.3 14"/><path stroke-linejoin="round" stroke-width="1.72" d="M2.68 17.22.86 13.93l2.81-2.48"/><path stroke-width="1.72" d="M8.45 8.17 6 5.37"/><path stroke-linejoin="round" stroke-width="1.72" d="m9.46 4.88-3.75.16-.66 3.69"/></g></g></svg>