<svg xmlns="http://www.w3.org/2000/svg" width="1600" height="1600" fill="none"><path fill="#7D7D87" d="M1250.12 576.498c-.11 89.997-36 176.267-99.79 239.83l-.01-.007-226.282 225.489c-7.841 7.82-20.58 7.84-27.927-.44-55.015-61.995-85.587-142.175-85.49-225.478.106-89.997 36-176.267 99.787-239.83l.007.007 206.745-206.014c18.63-18.569 49.12-18.702 64.92 2.324a339.1 339.1 0 0 1 68.04 204.119M440.552 817.702c-63.787-63.563-99.682-149.833-99.787-239.83-.087-74.03 24.048-145.594 68.035-204.119 15.803-21.026 46.294-20.893 64.928-2.324l206.741 206.016.006-.007c63.787 63.564 99.681 149.833 99.787 239.831.097 83.302-30.475 163.483-85.49 225.471-7.347 8.28-20.086 8.26-27.927.45L440.558 817.696zm701.268 403.488c-16.63 20.39-47.04 20.21-65.63 1.59l-127.698-127.84c-7.836-7.85-7.821-20.56.033-28.39l212.095-211.345c7.84-7.813 20.62-7.859 27.54.784 36.81 45.996 51.29 109.566 40.34 179.551-10.01 64.06-40.65 129.19-86.68 185.65m-627.124 2.97c-18.594 18.61-49.002 18.79-65.626-1.6-46.036-56.46-76.672-121.58-86.687-185.64-10.943-69.992 3.531-133.562 40.342-179.558 6.916-8.642 19.703-8.597 27.544-.784l212.092 211.352c7.854 7.82 7.868 20.54.033 28.38z"/></svg>