<svg width="40" height="40" viewBox="0 0 40 40" fill="none" xmlns="http://www.w3.org/2000/svg">
<path fill-rule="evenodd" clip-rule="evenodd" d="M34.4938 19.275C34.4938 27.2 28.2128 33.6245 20.4649 33.6245C12.717 33.6245 6.43604 27.2 6.43604 19.275C6.43604 11.3499 12.717 4.92528 20.4649 4.92528C28.2128 4.92528 34.4938 11.3499 34.4938 19.275Z" fill="#D33833"/>
<path d="M7.00806 22.829C7.00806 22.829 5.99246 7.86483 19.781 7.43723L18.8191 5.83392L11.337 8.34582L9.19921 10.8042L7.32872 14.385L6.25977 18.5536L6.58043 21.3326" fill="#EF3D3A"/>
<path d="M10.8561 9.48594C8.39475 12.0044 6.87161 15.4817 6.87161 19.3285C6.87161 23.1745 8.39475 26.6522 10.8561 29.1702C13.3187 31.6882 16.7125 33.242 20.4645 33.242C24.2166 33.242 27.6107 31.6882 30.073 29.1702C32.5343 26.6522 34.0577 23.1745 34.0577 19.3285C34.0577 15.4817 32.5343 12.0044 30.073 9.48594C27.6107 6.96843 24.2166 5.41466 20.4645 5.41434C16.7125 5.41466 13.3187 6.96843 10.8561 9.48594ZM10.2331 29.7793C7.61721 27.1041 6 23.4068 6 19.3285C6 15.2495 7.61721 11.5526 10.2331 8.87717C12.8484 6.20125 16.4686 4.54263 20.4645 4.54311C24.4605 4.54263 28.0811 6.20125 30.6959 8.87717C33.312 11.5526 34.9294 15.2498 34.9291 19.3285C34.9294 23.4068 33.312 27.1041 30.6959 29.7793C28.0811 32.4551 24.4605 34.1135 20.4645 34.1135C16.4686 34.1135 12.8484 32.4551 10.2331 29.7793Z" fill="#231F20"/>
<path fill-rule="evenodd" clip-rule="evenodd" d="M26.3697 19.3544L24.2318 19.675L21.3458 19.9957L19.4752 20.0491L17.6582 19.9957L16.2686 19.5681L15.0394 18.232L14.0774 15.5064L13.8636 14.9185L12.581 14.491L11.8328 13.2618L11.2983 11.4982L11.8863 9.94824L13.2757 9.46724L14.398 10.0018L14.9326 11.1775L15.5739 11.0706L15.7876 10.8034L15.5739 9.57418L15.5204 8.02427L15.841 5.88658L15.8285 4.6655L16.803 3.10756L18.5132 1.87831L21.5061 0.595663L24.8196 1.07665L27.7055 3.16095L29.0417 5.29865L29.8968 6.84856L30.1105 10.6965L29.4692 14.0101L28.2935 16.9494L27.1711 18.4993" fill="#F0D6B7"/>
<path fill-rule="evenodd" clip-rule="evenodd" d="M24.5535 28.6L16.911 28.9207V30.2033L17.5523 34.6926L17.2317 35.0668L11.8874 33.2496L11.5132 32.6083L10.9788 26.5692L9.74973 22.935L9.48242 22.08L13.7578 19.1406L15.094 18.6061L16.2697 20.0491L17.2851 20.9577L18.4609 21.3317L18.9953 21.4921L19.6366 24.2711L20.1176 24.859L21.3469 24.4314L20.4917 26.0883L25.1413 28.2793L24.5535 28.6Z" fill="#335061"/>
<path fill-rule="evenodd" clip-rule="evenodd" d="M11.8872 9.9486L13.2766 9.46761L14.399 10.0022L14.9335 11.1779L15.5748 11.0709L15.7352 10.4296L15.4145 9.2005L15.7352 6.261L15.4679 4.65769L16.4298 3.53537L18.5141 1.87867L17.9262 1.07702L14.9869 2.52L13.7576 3.48198L13.0629 4.97835L11.994 6.42133L11.6733 8.13157L11.8872 9.9486Z" fill="#6D6B6D"/>
<path fill-rule="evenodd" clip-rule="evenodd" d="M14.0782 4.9248C14.0782 4.9248 14.8799 2.94744 18.0865 1.98545C21.2931 1.02347 18.2468 1.29058 18.2468 1.29058L14.7731 2.62678L13.4369 3.96281L12.8491 5.03174L14.0782 4.9248Z" fill="#DCD9D8"/>
<path fill-rule="evenodd" clip-rule="evenodd" d="M12.475 9.57431C12.475 9.57431 11.3527 5.83316 15.6282 5.29877L15.4679 4.65745L12.5285 5.35232L11.6733 8.13134L11.8872 9.94836L12.475 9.57431Z" fill="#DCD9D8"/>
<path fill-rule="evenodd" clip-rule="evenodd" d="M14.1846 14.5444L14.8843 13.8664C14.8843 13.8664 15.2002 13.9031 15.2535 14.2771C15.3069 14.6514 15.4672 18.0183 17.7653 19.8355C17.9749 20.0013 16.0552 19.5681 16.0552 19.5681L14.3449 16.896" fill="#F7E4CD"/>
<path fill-rule="evenodd" clip-rule="evenodd" d="M24.0193 13.5292C24.0193 13.5292 24.1438 11.9092 24.5801 12.0338C25.0163 12.1583 25.0163 12.5946 25.0163 12.5946C25.0163 12.5946 23.9569 13.28 24.0193 13.5292Z" fill="#F7E4CD"/>
<path d="M28.4538 7.59684C28.4538 7.59684 27.5729 7.78282 27.4918 8.55882C27.4107 9.33498 28.4538 8.71915 28.6141 8.66576" fill="#F7E4CD"/>
<path d="M21.9879 7.65047C21.9879 7.65047 20.812 7.81081 20.812 8.55891C20.812 9.30717 22.1482 9.25378 22.5223 8.93312" fill="#F7E4CD"/>
<path fill-rule="evenodd" clip-rule="evenodd" d="M14.7193 11.1243C14.7193 11.1243 12.6884 9.89506 12.4747 11.0709C12.2609 12.2466 11.7798 13.1018 12.7954 14.3309L12.1006 14.1172L11.4593 12.4605L11.2456 10.8572L12.4747 9.5744L13.8643 9.68134L14.6659 10.3227L14.7193 11.1243Z" fill="#F7E4CD"/>
<path fill-rule="evenodd" clip-rule="evenodd" d="M15.6818 7.7572C15.6818 7.7572 16.5903 3.05422 21.1865 2.14563C24.9705 1.39768 26.9583 2.30596 27.7066 3.161C27.7066 3.161 24.3396 -0.847107 21.133 0.381989C17.9264 1.61124 15.575 3.85587 15.6283 5.29869C15.7193 7.75624 15.6818 7.7572 15.6818 7.7572Z" fill="#F7E4CD"/>
<path fill-rule="evenodd" clip-rule="evenodd" d="M28.0804 3.69547C28.0804 3.69547 26.5306 3.64208 26.4771 5.03166C26.4771 5.03166 26.4769 5.24539 26.5838 5.45911C26.5838 5.45911 27.8132 4.06952 28.5613 4.81778" fill="#F7E4CD"/>
<path fill-rule="evenodd" clip-rule="evenodd" d="M21.2938 5.60407C21.2938 5.60407 21.027 3.47119 19.2086 4.71119C18.0329 5.51284 18.1398 6.63516 18.3535 6.84888C18.5673 7.06276 18.5092 7.49325 18.6719 7.19776C18.8345 6.90227 18.781 5.94029 19.3689 5.67317C19.9568 5.4059 20.9206 5.10737 21.2938 5.60407Z" fill="#F7E4CD"/>
<path fill-rule="evenodd" clip-rule="evenodd" d="M16.2697 20.0491L11.2461 22.2937C11.2461 22.2937 13.3304 30.5775 12.2614 33.1428L11.5132 32.8757L11.4597 29.7225L10.0704 23.7369L9.48242 22.08L14.7198 18.5529L16.2697 20.0491Z" fill="#49728B"/>
<path fill-rule="evenodd" clip-rule="evenodd" d="M16.7854 24.6309L17.4981 25.5005V28.7072H16.6429C16.6429 28.7072 16.5361 26.4625 16.5361 26.1952C16.5361 25.928 16.6429 24.966 16.6429 24.966" fill="#49728B"/>
<path fill-rule="evenodd" clip-rule="evenodd" d="M16.8034 29.1884L14.3984 29.2952L15.0933 29.7762L16.8034 30.0435" fill="#49728B"/>
<path fill-rule="evenodd" clip-rule="evenodd" d="M25.0337 28.6537L27.0111 28.6003L27.492 33.5172L25.4611 33.7843L25.0337 28.6537Z" fill="#335061"/>
<path fill-rule="evenodd" clip-rule="evenodd" d="M25.5684 28.6536L28.5613 28.4932C28.5613 28.4932 29.7903 25.3935 29.7903 25.2332C29.7903 25.0729 30.8593 20.744 30.8593 20.744L28.4543 18.2322L27.9733 17.8046L26.6907 19.0873V24.0575L25.5684 28.6536Z" fill="#335061"/>
<path fill-rule="evenodd" clip-rule="evenodd" d="M26.9041 28.2796L25.0337 28.6537L25.3008 30.1502C25.9955 30.4709 27.1714 29.6157 27.1714 29.6157" fill="#49728B"/>
<path fill-rule="evenodd" clip-rule="evenodd" d="M26.958 18.9272L30.699 21.7062L30.8059 20.4235L27.9734 17.8048L26.958 18.9272Z" fill="#49728B"/>
<path fill-rule="evenodd" clip-rule="evenodd" d="M18.658 39.1826L17.5515 34.6927L17.0012 31.3798L16.9102 28.9208L21.9181 28.6542L25.0337 28.6537L24.7504 34.2658L25.2314 38.5947L25.178 39.3964L21.1164 39.717L18.658 39.1826Z" fill="white"/>
<path fill-rule="evenodd" clip-rule="evenodd" d="M24.3393 28.6002C24.3393 28.6002 24.0722 34.1584 24.8739 38.1131C24.8739 38.1131 23.2706 39.1286 20.9189 39.3958L25.4083 39.2354L25.9427 38.9148L25.3013 30.1501L25.141 28.2794" fill="#DCD9D8"/>
<path fill-rule="evenodd" clip-rule="evenodd" d="M27.5838 33.09L29.6681 32.5021L33.6228 32.2883L34.2107 30.4713L33.1418 27.3181L31.9127 27.1577L30.2025 27.6921L28.5616 28.4933L27.6906 28.3335L27.0117 28.6002" fill="white"/>
<path fill-rule="evenodd" clip-rule="evenodd" d="M27.5459 32.0205C27.5459 32.0205 28.9353 31.3793 29.1492 31.4327L28.5614 28.4932L29.2561 28.2261C29.2561 28.2261 29.7371 31.0051 29.7371 31.3258C29.7371 31.3258 32.7299 31.4861 32.9971 31.4861C32.9971 31.4861 33.6385 30.2569 33.4781 28.9742L34.0661 30.6844L34.1195 31.6464L33.2644 32.9291L32.3024 33.1428L30.6991 33.0894L30.1647 32.3947L28.2942 32.6618L27.7062 32.8757" fill="#DCD9D8"/>
<path d="M25.4455 28.2266L24.2698 25.2337L23.0405 23.47C23.0405 23.47 23.3076 22.7218 23.6819 22.7218C24.0561 22.7218 24.9111 22.7218 24.9111 22.7218L26.0868 23.1494L25.98 25.1267L25.4455 28.2266Z" fill="white"/>
<path fill-rule="evenodd" clip-rule="evenodd" d="M25.6753 27.2108C25.6753 27.2108 24.1788 24.325 24.1788 23.8974C24.1788 23.8974 24.4459 23.2561 24.8201 23.4164C25.1943 23.5768 25.996 24.0042 25.996 24.0042V22.9888L24.1788 22.6146L22.9497 22.7749L25.034 27.6918L25.4614 27.7454" fill="#DCD9D8"/>
<path d="M19.1387 20.1569L17.6582 19.9959L16.2686 19.5683V20.0493L16.9475 20.798L19.0852 21.76" fill="white"/>
<path fill-rule="evenodd" clip-rule="evenodd" d="M16.7502 20.3172C16.7502 20.3172 18.407 21.0121 18.9414 20.8517L18.9946 21.4924L17.4985 21.1724L16.5898 20.5311L16.7502 20.3172Z" fill="#DCD9D8"/>
<path fill-rule="evenodd" clip-rule="evenodd" d="M27.5775 22.9039C26.6707 22.8773 25.8514 22.7696 25.1341 22.5672C25.1828 22.2732 25.0916 21.9846 25.1649 21.7728C25.3648 21.6288 25.6999 21.6311 26.0021 21.5972C25.7408 21.4688 25.3736 21.418 25.072 21.4922C25.065 21.2881 24.9734 21.1616 24.918 21.0019C25.4278 20.82 26.6314 19.6269 27.3085 20.022C27.6311 20.2099 27.7682 21.2831 27.7932 21.805C27.814 22.2379 27.7539 22.6747 27.5775 22.9039Z" fill="#D33833"/>
<path d="M27.5775 22.9039C26.6707 22.8773 25.8514 22.7696 25.1341 22.5672C25.1828 22.2732 25.0916 21.9846 25.1649 21.7728C25.3648 21.6288 25.6999 21.6311 26.0021 21.5972C25.7408 21.4688 25.3736 21.418 25.072 21.4922C25.065 21.2881 24.9734 21.1616 24.918 21.0019C25.4278 20.82 26.6314 19.6269 27.3085 20.022C27.6311 20.2099 27.7682 21.2831 27.7932 21.805C27.814 22.2379 27.7539 22.6747 27.5775 22.9039Z" stroke="#D33833" stroke-width="0.246909"/>
<path fill-rule="evenodd" clip-rule="evenodd" d="M23.2408 21.4215C23.2384 21.4901 23.2355 21.5592 23.2328 21.6285C22.9496 21.8145 22.4925 21.8122 22.1818 21.9685C22.6399 21.9886 23.0004 22.0989 23.3124 22.2544C23.3056 22.4272 23.299 22.5999 23.2922 22.7728C22.7733 23.128 22.2992 23.6571 21.6881 23.9903C21.3992 24.1479 20.3852 24.5534 20.0778 24.4817C19.9039 24.4413 19.8883 24.2255 19.8187 24.0221C19.6706 23.5864 19.3296 22.893 19.2999 22.2373C19.262 21.409 19.1784 20.0208 20.071 20.1914C20.7911 20.3288 21.6286 20.6606 22.1861 20.9652C22.5268 21.1515 22.7239 21.3817 23.2408 21.4215Z" fill="#D33833"/>
<path d="M23.2408 21.4215C23.2384 21.4901 23.2355 21.5592 23.2328 21.6285C22.9496 21.8145 22.4925 21.8122 22.1818 21.9685C22.6399 21.9886 23.0004 22.0989 23.3124 22.2544C23.3056 22.4272 23.299 22.5999 23.2922 22.7728C22.7733 23.128 22.2992 23.6571 21.6881 23.9903C21.3992 24.1479 20.3852 24.5534 20.0778 24.4817C19.9039 24.4413 19.8883 24.2255 19.8187 24.0221C19.6706 23.5864 19.3296 22.893 19.2999 22.2373C19.262 21.409 19.1784 20.0208 20.071 20.1914C20.7911 20.3288 21.6286 20.6606 22.1861 20.9652C22.5268 21.1515 22.7239 21.3817 23.2408 21.4215Z" stroke="#D33833" stroke-width="0.246909"/>
<path fill-rule="evenodd" clip-rule="evenodd" d="M23.7569 22.4099C23.6777 21.9587 23.5862 21.83 23.6216 21.4364C24.8249 20.6341 25.0508 22.8144 23.7569 22.4099Z" fill="#D33833"/>
<path d="M23.7569 22.4099C23.6777 21.9587 23.5862 21.83 23.6216 21.4364C24.8249 20.6341 25.0508 22.8144 23.7569 22.4099Z" stroke="#D33833" stroke-width="0.246909"/>
<path fill-rule="evenodd" clip-rule="evenodd" d="M25.4988 22.7754C25.4988 22.7754 25.1245 22.2408 25.3918 22.0805C25.6591 21.9202 25.9264 22.0807 26.0867 21.8134C26.247 21.5461 26.0867 21.3858 26.1401 21.0651C26.1935 20.7445 26.4609 20.6909 26.728 20.6375C26.9951 20.5842 27.7435 20.4772 27.8503 20.7445L27.5297 19.7825L26.8883 19.5688L24.8574 20.7445L24.7505 21.3324V22.5081" fill="#EF3D3A"/>
<path fill-rule="evenodd" clip-rule="evenodd" d="M19.8872 24.5391C19.823 23.705 19.7551 22.8721 19.6795 22.0388C19.5664 20.7947 19.9783 21.0118 21.0568 21.0118C21.2215 21.0118 22.071 21.2082 22.1318 21.3324C22.4233 21.9277 21.6444 21.7955 22.4675 22.2444C23.1624 22.6233 24.3899 22.0143 24.1092 21.1721C23.952 20.9848 23.2905 21.1137 23.0534 20.9908C22.6359 20.7743 22.2184 20.5579 21.8008 20.3414C21.2696 20.0658 20.0419 19.664 19.4756 20.0491C18.0405 21.0251 19.5661 23.4635 20.078 24.4816" fill="#EF3D3A"/>
<path fill-rule="evenodd" clip-rule="evenodd" d="M21.2936 5.60358C19.837 5.26432 19.1132 6.21316 18.6716 7.19727C18.2774 7.10171 18.4343 6.56556 18.5338 6.29236C18.7946 5.57536 19.8453 4.62091 20.7038 4.7503C21.0733 4.80593 21.5732 5.14375 21.2936 5.60358Z" fill="#231F20"/>
<path fill-rule="evenodd" clip-rule="evenodd" d="M28.3912 7.26277C28.4142 7.26373 28.4374 7.26453 28.4603 7.2655C28.7895 7.94931 29.0744 8.67368 29.4897 9.27733C29.2115 9.92522 27.3832 10.4986 27.4115 9.33521C27.8068 9.16237 28.4894 9.29994 28.8398 9.07916C28.6372 8.52297 28.3447 8.04951 28.3912 7.26277Z" fill="#231F20"/>
<path fill-rule="evenodd" clip-rule="evenodd" d="M22.0391 7.28064C22.3515 7.85318 22.4531 8.45474 22.8971 8.88748C23.097 9.08228 23.4858 9.31973 23.2931 9.86148C23.248 9.98927 22.9189 10.2742 22.7289 10.3301C22.0348 10.535 20.4175 10.3725 20.9652 9.50715C21.5392 9.53393 22.3107 9.87992 22.7398 9.46322C22.4103 8.93653 21.8229 7.89455 22.0391 7.28064Z" fill="#231F20"/>
<path fill-rule="evenodd" clip-rule="evenodd" d="M28.1303 13.0996C27.0853 13.7709 25.92 14.5009 24.2076 14.3316C23.8418 14.0135 23.7023 13.3056 24.0577 12.8381C24.2428 13.1562 24.1265 13.7412 24.6421 13.8292C25.6137 13.9955 26.7446 13.2349 27.4434 12.9691C27.8768 12.2384 27.4061 11.9697 27.0157 11.4995C26.2164 10.536 25.1443 9.3419 25.1833 7.89956C25.5063 7.66532 25.5342 8.2571 25.5806 8.36484C25.9979 9.34158 27.0482 10.5907 27.8148 11.4267C28.003 11.6325 28.3129 11.8301 28.3474 11.9662C28.4468 12.362 28.0888 12.8363 28.1303 13.0996Z" fill="#231F20"/>
<path fill-rule="evenodd" clip-rule="evenodd" d="M14.3534 12.393C14.0258 12.206 13.9479 11.3826 13.5633 11.3592C13.0138 11.3258 13.114 12.4274 13.1162 13.0717C12.7379 12.7282 12.6713 11.6708 12.9492 11.1278C12.6325 10.9723 12.4911 11.2994 12.3154 11.4146C12.5412 9.77445 14.7148 10.6539 14.3534 12.393Z" fill="#231F20"/>
<path fill-rule="evenodd" clip-rule="evenodd" d="M28.796 13.7824C28.3095 14.7083 27.6214 15.728 26.194 15.7577C26.1649 15.4587 26.1427 15.0037 26.1956 14.8236C27.2868 14.7187 27.9605 14.1634 28.796 13.7824Z" fill="#231F20"/>
<path fill-rule="evenodd" clip-rule="evenodd" d="M21.957 14.3826C22.8675 14.8614 24.5407 14.9129 25.7781 14.8766C25.8445 15.1477 25.8429 15.4827 25.8454 15.8133C24.2548 15.8926 22.3741 15.499 21.957 14.3826Z" fill="#231F20"/>
<path fill-rule="evenodd" clip-rule="evenodd" d="M21.784 15.2753C22.4136 16.856 24.5774 16.6741 26.4022 16.6305C26.3218 16.8357 26.1477 17.0781 25.9313 17.1658C25.3465 17.4037 23.7338 17.5843 22.922 17.1531C22.4072 16.8794 22.0764 16.2611 21.7944 15.8985C21.6582 15.7235 20.9799 15.2763 21.784 15.2753Z" fill="#231F20"/>
<path fill-rule="evenodd" clip-rule="evenodd" d="M28.0547 23.9948C27.3158 25.2602 26.6089 26.5598 25.7324 27.6759C26.0999 26.5954 26.2572 24.787 26.3127 23.4083C27.0814 23.0486 27.7398 23.4893 28.0547 23.9948Z" fill="#81B0C4"/>
<path fill-rule="evenodd" clip-rule="evenodd" d="M32.0302 28.5426C31.2031 28.7082 30.6219 29.5121 29.8149 29.4605C30.2584 28.8353 31.0355 28.5718 32.0302 28.5426Z" fill="#231F20"/>
<path fill-rule="evenodd" clip-rule="evenodd" d="M32.3945 29.8373C31.7203 29.9085 30.9284 30.0176 30.2446 29.9614C30.5683 29.4669 31.8156 29.6375 32.3945 29.8373Z" fill="#231F20"/>
<path fill-rule="evenodd" clip-rule="evenodd" d="M32.6287 30.9532C31.871 30.9696 30.9292 30.9545 30.209 30.894C30.635 30.4365 32.1373 30.7243 32.6287 30.9532Z" fill="#231F20"/>
<path fill-rule="evenodd" clip-rule="evenodd" d="M26.6292 34.0075C26.7379 34.9591 27.1152 35.9232 27.0679 36.9654C26.6489 37.1067 26.4083 37.2302 25.847 37.2295C25.8074 36.3438 25.6889 34.9898 25.7243 34.1455C26.0004 34.1638 26.4075 33.9483 26.6292 34.0075Z" fill="#DCD9D8"/>
<path fill-rule="evenodd" clip-rule="evenodd" d="M25.407 19.9827C25.0265 20.2311 24.7025 20.5412 24.3371 20.8064C23.5268 20.8464 23.0846 20.7502 22.4893 20.285C22.499 20.2476 22.5588 20.2643 22.5611 20.2184C23.4285 20.605 24.5311 20.061 25.407 19.9827Z" fill="#F0D6B7"/>
<path fill-rule="evenodd" clip-rule="evenodd" d="M20.8535 25.8955C21.0918 24.8628 22.0256 24.328 22.8736 23.7593C23.7488 24.8701 24.2811 26.2986 24.8673 27.6771C23.4824 27.2596 22.0673 26.5822 20.8535 25.8955Z" fill="#81B0C4"/>
<path fill-rule="evenodd" clip-rule="evenodd" d="M25.7242 34.1453C25.6888 34.9896 25.8073 36.3436 25.8469 37.2293C26.4082 37.2301 26.6489 37.1065 27.0678 36.9652C27.1151 35.9231 26.7378 34.9589 26.6291 34.0073C26.4074 33.9481 26.0003 34.1636 25.7242 34.1453ZM16.9839 29.3436C17.3541 32.7463 17.8902 35.6067 18.8735 38.6199C21.0558 39.2825 23.6866 39.3402 25.6155 38.7423C25.2614 37.0417 25.4161 34.9712 25.2091 33.1564C25.0531 31.7924 25.1326 30.4199 24.9187 29.0282C22.5814 28.542 19.2777 28.9145 16.9839 29.3436ZM25.4714 29.0496C25.4517 30.511 25.5368 31.9525 25.6484 33.4157C26.2096 33.3315 26.5903 33.2752 27.1117 33.1609C26.9424 31.7523 26.9633 30.1672 26.6184 28.9211C26.2198 28.9249 25.8689 28.9165 25.4714 29.0496ZM28.3181 28.814C28.0518 28.753 27.7417 28.8116 27.4872 28.8166C27.6068 30.0079 27.897 31.3224 27.9992 32.5728C28.3995 32.5853 28.6134 32.3965 28.9427 32.333C28.9603 31.2353 28.8468 29.7231 28.3181 28.814ZM32.6284 32.7522C33.4629 32.5495 33.9877 31.5274 33.7542 30.4778C33.5976 29.7723 33.3186 28.4439 33.0201 27.9926C32.7995 27.6588 32.2013 27.2218 31.7236 27.5277C30.9467 28.0252 29.5779 28.1696 29.0113 28.7719C29.2954 29.7178 29.3836 31.0171 29.5008 32.2157C30.4715 32.2762 31.6658 31.9486 32.473 32.2963C31.9095 32.4788 31.1782 32.4803 30.6913 32.7463C31.0892 32.9385 32.0209 32.8997 32.6284 32.7522ZM24.8679 27.6771C24.2817 26.2986 23.7494 24.8701 22.8742 23.7593C22.0262 24.328 21.0924 24.8628 20.8541 25.8955C22.0679 26.5822 23.483 27.2596 24.8679 27.6771ZM26.3128 23.4083C26.2573 24.787 26.1 26.5954 25.7326 27.6759C26.6091 26.5598 27.316 25.2601 28.0548 23.9948C27.7399 23.4893 27.0816 23.0485 26.3128 23.4083ZM24.6749 22.8263C24.3428 22.7906 24.061 23.2081 23.6292 23.0275C23.5303 23.1369 23.4403 23.2554 23.3395 23.3621C24.2931 24.5114 24.7265 26.1419 25.4631 27.4925C25.8583 26.1952 25.8127 24.7738 25.8998 23.3578C25.3568 23.3923 25.0555 22.8667 24.6749 22.8263ZM23.6217 21.4362C23.5862 21.8299 23.6778 21.9586 23.757 22.4098C25.0508 22.8143 24.8249 20.6339 23.6217 21.4362ZM22.1869 20.9652C21.6293 20.6606 20.7918 20.3288 20.0717 20.1914C19.1791 20.0207 19.2627 21.409 19.3006 22.2373C19.3303 22.893 19.6714 23.5864 19.8195 24.0221C19.889 24.2255 19.9047 24.4413 20.0786 24.4817C20.386 24.5534 21.3999 24.1479 21.6888 23.9903C22.2999 23.6571 22.774 23.128 23.293 22.7728C23.2997 22.5999 23.3063 22.4272 23.3132 22.2544C23.0012 22.0989 22.6406 21.9886 22.1825 21.9685C22.4932 21.8122 22.9503 21.8145 23.2335 21.6285C23.2362 21.5592 23.2391 21.4901 23.2415 21.4215C22.7246 21.3817 22.5276 21.1515 22.1869 20.9652ZM16.8617 19.9979C16.399 20.4677 18.1595 21.108 18.72 21.1425C18.7169 20.8453 18.8894 20.565 18.8547 20.3518C18.1889 20.2349 17.314 20.312 16.8617 19.9979ZM22.5617 20.2185C22.5595 20.2644 22.4997 20.2477 22.4899 20.2851C23.0852 20.7503 23.5274 20.8465 24.3377 20.8065C24.7031 20.5413 25.0271 20.2312 25.4076 19.9828C24.5317 20.0611 23.4291 20.6051 22.5617 20.2185ZM27.7936 21.805C27.7686 21.2831 27.6315 20.2099 27.3089 20.022C26.6319 19.6267 25.4283 20.8199 24.9184 21.0019C24.9739 21.1616 25.0654 21.2881 25.0725 21.4922C25.3741 21.418 25.7412 21.4688 26.0026 21.5972C25.7003 21.631 25.3653 21.6288 25.1653 21.7728C25.092 21.9846 25.1833 22.2732 25.1345 22.5672C25.8519 22.7696 26.6711 22.8773 27.578 22.9039C27.7543 22.6746 27.8145 22.2379 27.7936 21.805ZM16.0827 20.4523C15.9374 20.3487 14.9544 19.0698 14.8198 19.1228C13.0411 19.8243 11.378 21.0372 9.89181 22.1843C11.3088 25.2249 11.8808 28.95 11.9819 32.5404C13.6051 33.2996 15.0308 34.394 17.2335 34.5083C16.9786 32.7049 16.746 31.096 16.6013 29.3981C16.0478 29.1648 15.2538 29.4087 14.7359 29.3258C14.7315 28.7016 15.5269 29.0524 15.5931 28.6327C15.6431 28.3152 15.1555 28.2912 15.3142 27.7913C15.7191 27.9385 15.9318 28.2636 16.3636 28.3856C16.7582 27.5224 16.3581 25.9951 16.4149 25.2736C16.4257 25.1381 16.4826 24.5231 16.786 24.631C17.0546 24.7265 16.7707 26.2667 16.8001 26.9495C16.8269 27.5787 16.7241 28.1874 16.9789 28.5824C19.1074 28.2926 21.2703 28.1054 23.5732 28.0422C23.0666 27.8248 22.4647 27.6191 21.8048 27.2471C21.4471 27.0454 20.3195 26.6258 20.2162 26.2861C20.0515 25.7446 20.6484 25.4562 20.7505 24.9921C19.6761 25.578 19.4664 24.4304 19.2123 23.6174C18.982 22.881 18.8509 22.3309 18.7944 21.9062C17.8689 21.4649 16.8793 21.0181 16.0827 20.4523ZM26.8536 19.2775C28.3355 18.5589 28.6026 21.9632 28.0218 23.0599C28.1116 23.387 28.4204 23.5122 28.5464 23.8062C27.7194 25.2877 26.8009 26.6705 25.957 28.1346C26.5847 27.7438 27.4813 28.0647 28.2199 27.7722C28.4899 27.6654 28.6854 27.0473 28.8898 26.5529C29.4521 25.1925 30.0424 23.4774 30.305 22.1792C30.3644 21.8834 30.526 21.2389 30.4897 20.9756C30.4251 20.5042 29.7856 20.1547 29.4603 19.8632C28.8609 19.3248 28.4835 18.8511 27.8584 18.3476C27.6049 18.7218 27.0609 18.9732 26.8536 19.2775ZM12.6935 6.13556C11.9874 6.91252 12.1352 8.36832 12.2207 9.40406C13.4971 8.60112 15.1912 9.46755 15.1752 10.8332C15.7846 10.8171 15.4029 10.0722 15.2926 9.59229C14.9324 8.02489 15.8995 6.32202 15.3365 4.88867C14.2433 4.97156 13.3452 5.41808 12.6935 6.13556ZM17.7461 1.6261C16.1475 2.07919 14.0987 3.24079 13.4418 4.67687C13.9505 4.60296 14.3036 4.34643 14.8054 4.31468C14.995 4.30234 15.2435 4.39421 15.4614 4.34002C15.8958 4.23227 16.2623 3.25842 16.59 2.89608C16.9094 2.54222 17.2933 2.39104 17.5561 2.06845C17.7249 1.987 17.9744 1.99261 17.984 1.73913C17.9108 1.66089 17.8338 1.60125 17.7461 1.6261ZM26.0678 2.05225C24.4086 1.11608 21.6 0.411911 19.835 1.29181C18.4108 2.00191 16.4857 3.17682 15.8294 4.66565C16.4425 6.10237 15.6477 7.41885 15.597 8.87753C15.5701 9.6537 15.9625 10.3313 15.9925 11.1762C15.7827 11.5224 15.1417 11.565 14.698 11.5413C14.5486 10.7938 14.2871 9.95367 13.5174 9.86934C12.4283 9.75022 11.632 10.6516 11.5825 11.5935C11.5239 12.7013 12.4333 14.5372 13.7222 14.4097C14.2201 14.3605 14.3424 13.8614 14.8849 13.8665C15.179 14.4532 14.4314 14.6374 14.3545 15.057C14.3344 15.1654 14.4165 15.589 14.4642 15.7876C14.6983 16.7549 15.2202 18.0068 15.7339 18.7432C16.3858 19.6773 17.6667 19.818 19.0448 19.9096C19.2909 19.3794 20.1976 19.423 20.7884 19.5617C20.0803 19.2812 19.4221 18.6014 18.8766 17.9997C18.25 17.3093 17.6152 16.5688 17.5832 15.6664C18.7673 17.3092 19.7456 18.7438 21.8988 19.4664C23.528 20.0128 25.4308 19.216 26.6827 18.3369C27.2022 17.9715 27.5122 17.3917 27.8815 16.861C29.2631 14.8737 29.9077 12.0372 29.766 9.28782C29.7076 8.15396 29.7102 7.02395 29.3297 6.2611C28.9321 5.46345 27.5873 4.74982 26.8001 5.47131C26.6542 4.69563 27.4547 4.21592 28.395 4.49506C27.7245 3.62975 27.0208 2.59 26.0678 2.05225ZM29.1592 27.6358C30.4558 26.9912 32.8783 25.9008 33.6912 27.6382C33.9912 28.2785 34.3431 29.3611 34.4985 30.0221C34.718 30.9548 34.2606 32.915 33.3019 33.2279C32.4552 33.5043 31.4673 33.4875 30.4474 33.2826C30.3273 33.1827 30.1936 33.0086 30.1001 32.8271C29.3719 32.7989 28.69 32.8662 28.1148 33.1656C28.1693 33.7041 27.805 33.7905 27.4635 33.9015C27.2103 34.9053 27.97 36.2162 27.7882 37.1315C27.6585 37.7836 26.8562 37.8844 26.2665 38.0064C26.2472 38.3688 26.2923 38.6713 26.3325 38.9779C26.1977 39.4747 25.5929 39.7575 25.0199 39.8268C23.1346 40.0535 20.272 40.1554 18.4585 39.5033C17.9525 38.262 17.5539 36.7523 17.1324 35.335C15.3637 35.5239 13.9333 34.5718 12.5847 33.9481C12.1178 33.7317 11.472 33.6124 11.2975 33.2408C11.1284 32.881 11.1976 32.1914 11.1557 31.54C11.0489 29.8762 10.9575 28.2715 10.5181 26.5679C10.3208 25.8035 9.97698 25.129 9.73711 24.3924C9.5154 23.7097 9.12805 22.8661 9.02702 22.1853C8.87722 21.1763 9.8273 21.1202 10.4348 20.683C11.3739 20.0069 12.1111 19.633 13.1282 19.0228C13.4294 18.8421 14.3379 18.3847 14.4412 18.174C14.6466 17.7563 14.0886 17.1674 13.9394 16.84C13.7034 16.3223 13.5803 15.8825 13.5465 15.3717C12.6933 15.2369 12.0466 14.7291 11.6559 14.1566C11.0096 13.209 10.5614 11.456 11.1206 10.1225C11.1644 10.0175 11.3831 9.81098 11.4154 9.64969C11.479 9.33207 11.2956 8.90976 11.2842 8.57194C11.2255 6.83877 11.5775 5.34545 12.7443 4.82277C13.2179 2.93584 14.9132 2.30846 16.5105 1.37069C17.1075 1.02021 17.7657 0.796223 18.4454 0.546108C20.8837 -0.351265 24.6248 -0.182274 26.6485 1.34824C27.5066 1.99726 28.8783 3.36761 29.3689 4.35973C30.6647 6.97906 30.5726 11.3566 29.6663 14.5428C29.5444 14.9706 29.3677 15.5994 29.121 16.1133C28.949 16.4721 28.4143 17.19 28.4792 17.5069C28.5461 17.8344 29.6983 18.7093 29.9454 18.9476C30.3903 19.3768 31.2356 19.9464 31.3041 20.488C31.3777 21.0644 31.0501 21.8529 30.8842 22.4091C30.3294 24.2653 29.7881 25.981 29.1592 27.6358Z" fill="#231F20"/>
<path fill-rule="evenodd" clip-rule="evenodd" d="M20.508 14.7872C20.5783 14.6935 20.9651 14.5513 21.5062 14.8119C21.5062 14.8119 20.8649 14.9188 20.9182 15.988L20.651 15.9345C20.651 15.9345 20.3748 14.965 20.508 14.7872Z" fill="#F7E4CD"/>
<path fill-rule="evenodd" clip-rule="evenodd" d="M25.1944 23.9776C25.1944 24.1399 25.0627 24.2715 24.9003 24.2715C24.7381 24.2715 24.6064 24.1399 24.6064 23.9776C24.6064 23.8154 24.7381 23.6836 24.9003 23.6836C25.0627 23.6836 25.1944 23.8154 25.1944 23.9776Z" fill="#1D1919"/>
<path fill-rule="evenodd" clip-rule="evenodd" d="M25.4883 25.3404C25.4883 25.5027 25.3567 25.6343 25.1943 25.6343C25.032 25.6343 24.9004 25.5027 24.9004 25.3404C24.9004 25.1782 25.032 25.0464 25.1943 25.0464C25.3567 25.0464 25.4883 25.1782 25.4883 25.3404Z" fill="#1D1919"/>
</svg>
