<?xml version="1.0" encoding="UTF-8" standalone="no"?>
<svg width="256px" height="417px" viewBox="0 0 256 417" version="1.1" xmlns="http://www.w3.org/2000/svg" xmlns:xlink="http://www.w3.org/1999/xlink" preserveAspectRatio="xMidYMid">
	<g>
		<path d="M250.741085,169.277519 C250.741085,238.734884 195.671318,295.094574 127.702326,295.094574 C59.7333333,295.094574 4.66356589,238.734884 4.66356589,169.277519 C4.66356589,99.820155 59.7333333,43.4604651 127.702326,43.4604651 C195.671318,43.4604651 250.741085,99.820155 250.741085,169.277519" fill="#D33833"></path>
		<path d="M9.72403101,200.434109 C9.72403101,200.434109 0.79379845,69.2589147 121.748837,65.4883721 L113.314729,51.3984496 L47.7271318,73.4263566 L28.9736434,94.9581395 L12.6015504,126.313178 L3.2744186,162.827907 L6.05271318,187.237209" fill="#EF3D3A"></path>
		<path d="M43.4604651,83.448062 C21.9286822,105.575194 8.53333333,136.037209 8.53333333,169.773643 L8.53333333,169.773643 C8.53333333,203.510078 21.9286822,233.972093 43.4604651,256.099225 L43.4604651,256.099225 C65.0914729,278.226357 94.7596899,291.820155 127.702326,291.820155 L127.702326,291.820155 C160.644961,291.820155 190.313178,278.226357 211.944186,256.099225 L211.944186,256.099225 C233.475969,233.972093 246.871318,203.510078 246.871318,169.773643 L246.871318,169.773643 C246.871318,136.037209 233.475969,105.575194 211.944186,83.448062 L211.944186,83.448062 C190.313178,61.420155 160.644961,47.7271318 127.702326,47.7271318 L127.702326,47.7271318 C94.8589147,47.7271318 65.0914729,61.3209302 43.4604651,83.448062 L43.4604651,83.448062 L43.4604651,83.448062 Z M38.0031008,261.35814 C15.0821705,237.941085 0.893023256,205.494574 0.893023256,169.773643 L0.893023256,169.773643 C0.893023256,134.052713 15.0821705,101.606202 38.0031008,78.0899225 L38.0031008,78.0899225 C60.924031,54.6728682 92.675969,40.0868217 127.702326,40.0868217 L127.702326,40.0868217 C162.728682,40.0868217 194.48062,54.6728682 217.40155,78.0899225 L217.40155,78.0899225 C240.322481,101.506977 254.511628,133.953488 254.511628,169.773643 L254.511628,169.773643 C254.511628,205.494574 240.322481,237.941085 217.40155,261.35814 L217.40155,261.35814 C194.48062,284.874419 162.728682,299.36124 127.702326,299.36124 L127.702326,299.36124 C92.675969,299.36124 60.924031,284.874419 38.0031008,261.35814 L38.0031008,261.35814 L38.0031008,261.35814 Z" fill="#231F20"></path>
		<path d="M179.497674,169.972093 L160.744186,172.750388 L135.44186,175.627907 L119.069767,176.024806 L103.094574,175.528682 L90.8899225,171.75814 L80.0744186,160.049612 L71.6403101,136.136434 L69.7550388,130.976744 L58.5426357,127.206202 L51.9937984,116.390698 L47.3302326,100.911628 L52.4899225,87.3178295 L64.6945736,83.0511628 L74.5178295,87.7147287 L79.1813953,98.0341085 L84.8372093,97.1410853 L86.7224806,94.7596899 L84.8372093,83.944186 L84.3410853,70.3503876 L87.1193798,51.5968992 L87.020155,40.8806202 L95.5534884,27.1875969 L110.536434,16.372093 L136.731783,5.15968992 L165.804651,9.42635659 L191.106977,27.6837209 L202.815504,46.4372093 L210.356589,60.0310078 L212.24186,93.7674419 L206.586047,122.84031 L196.266667,148.63876 L186.542636,162.431008" fill="#F0D6B7"></path>
		<path d="M163.621705,251.03876 L96.6449612,253.817054 L96.6449612,265.029457 L102.300775,304.421705 L99.5224806,307.696124 L52.6883721,291.72093 L49.4139535,286.065116 L44.7503876,233.07907 L33.7364341,201.327132 L31.3550388,193.786047 L68.8620155,167.987597 L80.5705426,163.324031 L90.8899225,176.024806 L99.820155,183.962791 L110.139535,187.237209 L114.803101,188.626357 L120.458915,213.035659 L124.725581,218.195349 L135.541085,214.424806 L128,229.010853 L168.682171,248.260465 L163.621705,251.03876" fill="#335061"></path>
		<path d="M52.4899225,87.5162791 L64.6945736,83.2496124 L74.5178295,87.9131783 L79.1813953,98.2325581 L84.8372093,97.3395349 L86.2263566,91.6837209 L83.448062,80.8682171 L86.2263566,55.0697674 L83.8449612,40.979845 L92.2790698,31.1565891 L110.536434,16.6697674 L105.376744,9.6248062 L79.5782946,22.3255814 L68.7627907,30.7596899 L62.7100775,43.8573643 L53.3829457,56.5581395 L50.6046512,71.5410853 L52.4899225,87.5162791" fill="#6D6B6D"></path>
		<path d="M71.7395349,43.4604651 C71.7395349,43.4604651 78.7844961,26.096124 106.865116,17.6620155 C134.945736,9.22790698 108.254264,11.6093023 108.254264,11.6093023 L77.7922481,23.3178295 L66.0837209,35.0263566 L60.924031,44.3534884 L71.7395349,43.4604651" fill="#DCD9D8"></path>
		<path d="M57.6496124,84.2418605 C57.6496124,84.2418605 47.8263566,51.3984496 85.3333333,46.7348837 L83.944186,41.0790698 L58.1457364,47.1317829 L50.6046512,71.5410853 L52.4899225,87.5162791 L57.6496124,84.2418605" fill="#DCD9D8"></path>
		<path d="M72.6325581,127.80155 L78.7844961,121.848062 C78.7844961,121.848062 81.5627907,122.145736 82.0589147,125.420155 C82.5550388,128.694574 83.944186,158.263566 104.086822,174.139535 C105.972093,175.627907 89.103876,171.75814 89.103876,171.75814 L74.1209302,148.341085" fill="#F7E4CD"></path>
		<path d="M158.858915,118.871318 C158.858915,118.871318 159.950388,104.682171 163.820155,105.773643 C167.689922,106.865116 167.689922,110.734884 167.689922,110.734884 C167.689922,110.734884 158.362791,116.688372 158.858915,118.871318" fill="#F7E4CD"></path>
		<path d="M197.755039,66.8775194 C197.755039,66.8775194 190.015504,68.4651163 189.32093,75.3116279 C188.626357,82.1581395 197.755039,76.7007752 199.144186,76.2046512" fill="#F7E4CD"></path>
		<path d="M141.097674,67.3736434 C141.097674,67.3736434 130.778295,68.7627907 130.778295,75.3116279 C130.778295,81.8604651 142.486822,81.3643411 145.76124,78.5860465" fill="#F7E4CD"></path>
		<path d="M77.3953488,97.8356589 C77.3953488,97.8356589 59.6341085,87.020155 57.7488372,97.3395349 C55.8635659,107.658915 51.696124,115.100775 60.5271318,125.916279 L54.4744186,124.031008 L48.8186047,109.544186 L46.9333333,95.4542636 L57.7488372,84.2418605 L69.9534884,85.1348837 L76.9984496,90.7906977 L77.3953488,97.8356589" fill="#F7E4CD"></path>
		<path d="M85.8294574,68.2666667 C85.8294574,68.2666667 93.7674419,26.9891473 134.052713,19.0511628 C167.193798,12.5023256 184.657364,20.4403101 191.206202,27.9813953 C191.206202,27.9813953 161.637209,-7.14418605 133.556589,3.57209302 C105.475969,14.3875969 84.8372093,34.0341085 85.3333333,46.6356589 C86.1271318,68.2666667 85.8294574,68.2666667 85.8294574,68.2666667" fill="#F7E4CD"></path>
		<path d="M194.48062,32.6449612 C194.48062,32.6449612 180.886822,32.1488372 180.390698,44.3534884 C180.390698,44.3534884 180.390698,46.2387597 181.283721,48.124031 C181.283721,48.124031 192.099225,35.9193798 198.648062,42.4682171" fill="#F7E4CD"></path>
		<path d="M135.044961,49.4139535 C135.044961,49.4139535 132.663566,30.7596899 116.787597,41.5751938 C106.468217,48.620155 107.460465,58.4434109 109.246512,60.3286822 C111.131783,62.2139535 110.635659,65.9844961 112.024806,63.4046512 C113.413953,60.8248062 113.017054,52.3906977 118.176744,50.0093023 C123.237209,47.627907 131.770543,45.048062 135.044961,49.4139535" fill="#F7E4CD"></path>
		<path d="M90.9891473,176.024806 L46.9333333,195.671318 C46.9333333,195.671318 65.1906977,268.303876 55.8635659,290.827907 L49.3147287,288.446512 L48.8186047,260.762791 L36.6139535,208.372093 L31.4542636,193.885271 L77.3953488,162.927132 L90.9891473,176.024806" fill="#49728B"></path>
		<path d="M95.4542636,216.210853 L101.705426,223.851163 L101.705426,251.931783 L94.2635659,251.931783 C94.2635659,251.931783 93.3705426,232.285271 93.3705426,229.903876 C93.3705426,227.522481 94.2635659,219.088372 94.2635659,219.088372" fill="#49728B"></path>
		<path d="M95.6527132,256.19845 L74.5178295,257.091473 L80.5705426,261.35814 L95.5534884,263.739535" fill="#49728B"></path>
		<path d="M167.789147,251.534884 L185.153488,251.03876 L189.420155,294.102326 L171.658915,296.483721 L167.789147,251.534884" fill="#335061"></path>
		<path d="M172.452713,251.534884 L198.648062,250.145736 C198.648062,250.145736 209.463566,222.95814 209.463566,221.568992 C209.463566,220.179845 218.790698,182.176744 218.790698,182.176744 L197.655814,160.148837 L193.389147,156.378295 L182.176744,167.590698 L182.176744,211.150388 L172.452713,251.534884" fill="#335061"></path>
		<path d="M184.16124,248.260465 L167.789147,251.534884 L170.170543,264.632558 C176.223256,267.410853 186.542636,259.968992 186.542636,259.968992" fill="#49728B"></path>
		<path d="M184.657364,166.20155 L217.500775,190.610853 L218.393798,179.39845 L193.587597,156.477519 L184.657364,166.20155" fill="#49728B"></path>
		<path d="M111.925581,343.813953 L102.20155,304.421705 L97.3395349,275.348837 L96.5457364,253.817054 L140.502326,251.435659 L167.789147,251.435659 L165.308527,300.651163 L169.575194,338.654264 L169.07907,345.699225 L133.457364,348.477519 L111.925581,343.813953" fill="#FFFFFF"></path>
		<path d="M161.736434,251.03876 C161.736434,251.03876 159.355039,299.75814 166.4,334.486822 C166.4,334.486822 152.310078,343.417054 131.770543,345.699225 L171.162791,344.310078 L175.826357,341.531783 L170.170543,264.731783 L168.682171,248.260465" fill="#DCD9D8"></path>
		<path d="M190.114729,290.431008 L208.372093,285.271318 L243.00155,283.386047 L248.16124,267.410853 L238.834109,239.727132 L228.018605,238.337984 L213.035659,243.00155 L198.747287,250.046512 L191.106977,248.657364 L185.153488,251.03876" fill="#FFFFFF"></path>
		<path d="M189.817054,281.004651 C189.817054,281.004651 202.021705,275.348837 203.906977,275.844961 L198.747287,250.046512 L204.8,247.665116 C204.8,247.665116 209.066667,272.074419 209.066667,274.852713 C209.066667,274.852713 235.262016,276.24186 237.643411,276.24186 C237.643411,276.24186 243.299225,265.426357 241.910078,254.213953 L247.069767,269.196899 L247.565891,277.631008 L240.024806,288.843411 L231.590698,290.728682 L217.500775,290.232558 L212.837209,284.179845 L196.465116,286.56124 L191.305426,288.446512" fill="#DCD9D8"></path>
		<path d="M171.36124,247.764341 L161.04186,221.568992 L150.226357,206.089922 C150.226357,206.089922 152.607752,199.541085 155.882171,199.541085 L166.697674,199.541085 L177.017054,203.311628 L176.124031,220.675969 L171.36124,247.764341" fill="#FFFFFF"></path>
		<path d="M173.444961,238.834109 C173.444961,238.834109 160.347287,213.531783 160.347287,209.76124 C160.347287,209.76124 162.728682,204.105426 166.003101,205.494574 C169.277519,206.883721 176.322481,210.654264 176.322481,210.654264 L176.322481,201.724031 L160.347287,198.449612 L149.531783,199.83876 L167.789147,243.100775 L171.55969,243.596899" fill="#DCD9D8"></path>
		<path d="M116.093023,177.017054 L103.094574,175.627907 L90.8899225,171.857364 L90.8899225,176.124031 L96.8434109,182.672868 L115.596899,191.106977" fill="#FFFFFF"></path>
		<path d="M95.1565891,178.406202 C95.1565891,178.406202 109.643411,184.458915 114.406202,183.069767 L114.902326,188.725581 L101.804651,185.947287 L93.8666667,180.291473 L95.1565891,178.406202" fill="#DCD9D8"></path>
		<path d="M190.114729,201.128682 C182.176744,200.930233 174.933333,199.937984 168.682171,198.151938 C169.07907,195.572093 168.285271,193.091473 168.979845,191.206202 C170.765891,189.916279 173.643411,189.916279 176.322481,189.618605 C174.04031,188.527132 170.765891,188.031008 168.186047,188.725581 C168.086822,186.939535 167.293023,185.848062 166.796899,184.458915 C171.262016,182.871318 181.779845,172.452713 187.733333,175.826357 C190.610853,177.513178 191.80155,186.84031 192,191.503876 C192.19845,195.274419 191.603101,199.044961 190.114729,201.128682" fill="#D33833"></path>
		<path d="M190.114729,201.128682 C182.176744,200.930233 174.933333,199.937984 168.682171,198.151938 C169.07907,195.572093 168.285271,193.091473 168.979845,191.206202 C170.765891,189.916279 173.643411,189.916279 176.322481,189.618605 C174.04031,188.527132 170.765891,188.031008 168.186047,188.725581 C168.086822,186.939535 167.293023,185.848062 166.796899,184.458915 C171.262016,182.871318 181.779845,172.452713 187.733333,175.826357 C190.610853,177.513178 191.80155,186.84031 192,191.503876 C192.19845,195.274419 191.603101,199.044961 190.114729,201.128682 L190.114729,201.128682 Z" stroke="#D33833" stroke-width="2"></path>
		<path d="M152.111628,188.130233 C152.111628,188.725581 152.111628,189.32093 152.012403,189.916279 C149.531783,191.503876 145.562791,191.503876 142.784496,192.893023 C146.753488,193.091473 149.928682,194.083721 152.706977,195.373643 C152.607752,196.862016 152.607752,198.449612 152.508527,199.937984 C147.944186,203.013953 143.776744,207.677519 138.418605,210.654264 C135.83876,212.043411 127.007752,215.615504 124.328682,214.92093 C122.84031,214.524031 122.64186,212.63876 122.046512,210.852713 C120.756589,207.082171 117.779845,200.930233 117.482171,195.175194 C117.184496,187.931783 116.390698,175.727132 124.229457,177.215504 C130.579845,178.406202 137.922481,181.283721 142.784496,183.962791 C145.860465,185.748837 147.547287,187.733333 152.111628,188.130233" fill="#D33833"></path>
		<path d="M152.111628,188.130233 C152.111628,188.725581 152.111628,189.32093 152.012403,189.916279 C149.531783,191.503876 145.562791,191.503876 142.784496,192.893023 C146.753488,193.091473 149.928682,194.083721 152.706977,195.373643 C152.607752,196.862016 152.607752,198.449612 152.508527,199.937984 C147.944186,203.013953 143.776744,207.677519 138.418605,210.654264 C135.83876,212.043411 127.007752,215.615504 124.328682,214.92093 C122.84031,214.524031 122.64186,212.63876 122.046512,210.852713 C120.756589,207.082171 117.779845,200.930233 117.482171,195.175194 C117.184496,187.931783 116.390698,175.727132 124.229457,177.215504 C130.579845,178.406202 137.922481,181.283721 142.784496,183.962791 C145.860465,185.748837 147.547287,187.733333 152.111628,188.130233 L152.111628,188.130233 Z" stroke="#D33833" stroke-width="2"></path>
		<path d="M156.576744,196.762791 C155.882171,192.793798 155.088372,191.702326 155.386047,188.229457 C166.003101,181.184496 167.888372,200.334884 156.576744,196.762791" fill="#D33833"></path>
		<path d="M156.576744,196.762791 C155.882171,192.793798 155.088372,191.702326 155.386047,188.229457 C166.003101,181.184496 167.888372,200.334884 156.576744,196.762791 L156.576744,196.762791 Z" stroke="#D33833" stroke-width="2"></path>
		<path d="M171.857364,199.937984 C171.857364,199.937984 168.582946,195.274419 170.964341,193.885271 C173.345736,192.496124 175.627907,193.885271 177.017054,191.503876 C178.406202,189.122481 177.017054,187.733333 177.513178,184.955039 C178.009302,182.176744 180.291473,181.68062 182.672868,181.184496 C185.054264,180.688372 191.603101,179.795349 192.496124,182.077519 L189.717829,173.643411 L184.062016,171.75814 L166.300775,182.077519 L165.407752,187.237209 L165.407752,197.556589" fill="#EF3D3A"></path>
		<path d="M122.64186,215.417054 C122.046512,208.074419 121.451163,200.831008 120.855814,193.488372 C119.863566,182.573643 123.435659,184.458915 132.96124,184.458915 C134.449612,184.458915 141.891473,186.145736 142.387597,187.237209 C144.967442,192.496124 138.12093,191.305426 145.364341,195.274419 C151.417054,198.548837 162.232558,193.289922 159.751938,185.848062 C158.362791,184.16124 152.607752,185.351938 150.524031,184.260465 C146.852713,182.375194 143.181395,180.489922 139.510078,178.604651 C134.846512,176.223256 124.130233,172.651163 119.168992,176.024806 C106.567442,184.55814 119.962791,205.990698 124.427907,214.92093" fill="#EF3D3A"></path>
		<path d="M135.044961,49.4139535 C122.244961,46.4372093 115.894574,54.772093 112.024806,63.4046512 C108.551938,62.6108527 109.941085,57.848062 110.834109,55.4666667 C113.116279,49.2155039 122.344186,40.7813953 129.885271,41.972093 C133.060465,42.3689922 137.426357,45.3457364 135.044961,49.4139535" fill="#231F20"></path>
		<path d="M197.258915,63.9007752 L197.854264,63.9007752 C200.731783,69.8542636 203.212403,76.2046512 206.883721,81.5627907 C204.403101,87.3178295 188.427907,92.2790698 188.626357,82.1581395 C192.099225,80.6697674 198.052713,81.8604651 201.128682,79.875969 C199.342636,75.0139535 196.862016,70.8465116 197.258915,63.9007752" fill="#231F20"></path>
		<path d="M141.494574,64.0992248 C144.272868,69.1596899 145.165891,74.4186047 149.035659,78.1891473 C150.821705,79.875969 154.195349,81.9596899 152.508527,86.7224806 C152.111628,87.8139535 149.234109,90.2945736 147.547287,90.7906977 C141.494574,92.5767442 127.305426,91.1875969 132.068217,83.5472868 C137.128682,83.7457364 143.875969,86.8217054 147.646512,83.1503876 C144.768992,78.5860465 139.609302,69.4573643 141.494574,64.0992248" fill="#231F20"></path>
		<path d="M194.976744,115.100775 C185.848062,120.955039 175.627907,127.404651 160.545736,125.916279 C157.370543,123.137984 156.08062,116.886822 159.255814,112.818605 C160.843411,115.596899 159.851163,120.756589 164.415504,121.550388 C172.948837,123.03876 182.871318,116.291473 189.023256,114.009302 C192.793798,107.55969 188.725581,105.277519 185.252713,101.110078 C178.207752,92.675969 168.88062,82.1581395 169.178295,69.5565891 C172.055814,67.4728682 172.254264,72.7317829 172.651163,73.6248062 C176.322481,82.1581395 185.550388,93.172093 192.19845,100.514729 C193.885271,102.300775 196.564341,104.086822 196.862016,105.277519 C197.755039,108.651163 194.579845,112.818605 194.976744,115.100775" fill="#231F20"></path>
		<path d="M74.1209302,108.948837 C71.2434109,107.262016 70.5488372,100.117829 67.1751938,99.9193798 C62.3131783,99.6217054 63.2062016,109.246512 63.2062016,114.902326 C59.9317829,111.925581 59.3364341,102.59845 61.7178295,97.8356589 C58.9395349,96.4465116 57.7488372,99.324031 56.1612403,100.316279 C58.2449612,85.9286822 77.296124,93.6682171 74.1209302,108.948837" fill="#231F20"></path>
		<path d="M200.731783,121.153488 C196.465116,129.289922 190.412403,138.220155 177.910078,138.517829 C177.612403,135.937984 177.413953,131.869767 177.910078,130.282171 C187.534884,129.289922 193.488372,124.427907 200.731783,121.153488" fill="#231F20"></path>
		<path d="M140.8,126.412403 C148.737984,130.579845 163.423256,131.075969 174.337984,130.778295 C174.933333,133.15969 174.933333,136.136434 174.933333,139.013953 C160.942636,139.609302 144.471318,136.136434 140.8,126.412403" fill="#231F20"></path>
		<path d="M139.311628,134.151938 C144.868217,148.043411 163.820155,146.455814 179.795349,146.058915 C179.100775,147.844961 177.612403,150.027907 175.627907,150.722481 C170.468217,152.806202 156.378295,154.393798 149.234109,150.623256 C144.768992,148.24186 141.792248,142.784496 139.311628,139.609302 C138.220155,138.12093 132.266667,134.251163 139.311628,134.151938" fill="#231F20"></path>
		<path d="M194.282171,210.654264 C187.832558,221.767442 181.581395,233.178295 173.941085,242.902326 C177.116279,233.475969 178.505426,217.6 179.00155,205.494574 C185.748837,202.31938 191.503876,206.189147 194.282171,210.654264" fill="#81B0C4"></path>
		<path d="M229.110078,250.542636 C221.866667,252.031008 216.806202,259.075969 209.662016,258.579845 C213.631008,253.122481 220.378295,250.741085 229.110078,250.542636" fill="#231F20"></path>
		<path d="M232.285271,261.854264 C226.331783,262.449612 219.386047,263.44186 213.432558,262.945736 C216.310078,258.579845 227.224806,260.167442 232.285271,261.854264" fill="#231F20"></path>
		<path d="M234.368992,271.677519 C227.72093,271.776744 219.485271,271.677519 213.134884,271.181395 C216.905426,267.113178 230.102326,269.693023 234.368992,271.677519" fill="#231F20"></path>
		<path d="M181.779845,298.468217 C182.772093,306.803101 186.046512,315.237209 185.649612,324.365891 C181.978295,325.556589 179.894574,326.648062 174.933333,326.648062 C174.635659,318.908527 173.544186,307.00155 173.84186,299.55969 C176.223256,299.75814 179.795349,297.872868 181.779845,298.468217" fill="#DCD9D8"></path>
		<path d="M171.063566,175.429457 C167.689922,177.612403 164.911628,180.291473 161.637209,182.672868 C154.493023,183.069767 150.623256,182.176744 145.463566,178.108527 C145.562791,177.810853 146.058915,177.910078 146.058915,177.513178 C153.699225,180.886822 163.423256,176.124031 171.063566,175.429457" fill="#F0D6B7"></path>
		<path d="M131.175194,227.324031 C133.258915,218.294574 141.494574,213.531783 148.936434,208.570543 C156.576744,218.294574 161.24031,230.796899 166.4,242.902326 C154.195349,239.231008 141.792248,233.376744 131.175194,227.324031" fill="#81B0C4"></path>
		<path d="M173.84186,299.658915 C173.544186,307.100775 174.536434,318.908527 174.933333,326.747287 C179.894574,326.747287 181.978295,325.655814 185.649612,324.465116 C186.046512,315.336434 182.772093,306.902326 181.779845,298.567442 C179.795349,297.872868 176.223256,299.75814 173.84186,299.658915 L173.84186,299.658915 Z M97.2403101,257.587597 C100.514729,287.454264 105.178295,312.458915 113.810853,338.951938 C132.96124,344.806202 155.981395,345.302326 172.948837,340.043411 C169.872868,325.15969 171.162791,307.00155 169.376744,291.026357 C167.987597,279.020155 168.682171,267.013953 166.796899,254.809302 C146.257364,250.542636 117.283721,253.817054 97.2403101,257.587597 L97.2403101,257.587597 Z M171.658915,255.007752 C171.460465,267.807752 172.254264,280.508527 173.246512,293.308527 C178.207752,292.613953 181.482171,292.117829 186.046512,291.026357 C184.55814,278.722481 184.756589,264.731783 181.68062,253.817054 C178.207752,253.916279 175.131783,253.817054 171.658915,255.007752 L171.658915,255.007752 Z M196.564341,252.924031 C194.182946,252.427907 191.503876,252.924031 189.32093,252.924031 C190.412403,263.342636 192.893023,274.852713 193.786047,285.866667 C197.258915,285.965891 199.144186,284.27907 202.021705,283.782946 C202.220155,274.15814 201.227907,260.862016 196.564341,252.924031 L196.564341,252.924031 L196.564341,252.924031 Z M234.368992,287.454264 C241.711628,285.668217 246.275969,276.737984 244.192248,267.510078 C242.803101,261.35814 240.421705,249.649612 237.742636,245.68062 C235.857364,242.803101 230.59845,238.933333 226.331783,241.612403 C219.485271,245.978295 207.47907,247.268217 202.517829,252.527132 C204.99845,260.862016 205.792248,272.173643 206.784496,282.691473 C215.317829,283.187597 225.736434,280.310078 232.88062,283.386047 C227.91938,284.973643 221.568992,284.973643 217.302326,287.355039 C220.874419,289.04186 229.010853,288.744186 234.368992,287.454264 L234.368992,287.454264 L234.368992,287.454264 Z M166.300775,242.902326 C161.141085,230.796899 156.477519,218.294574 148.837209,208.570543 C141.395349,213.531783 133.258915,218.294574 131.075969,227.324031 C141.792248,233.376744 154.195349,239.231008 166.300775,242.902326 L166.300775,242.902326 Z M179.00155,205.494574 C178.505426,217.6 177.116279,233.475969 173.941085,242.902326 C181.581395,233.07907 187.832558,221.767442 194.282171,210.654264 C191.503876,206.189147 185.748837,202.31938 179.00155,205.494574 L179.00155,205.494574 Z M164.613953,200.434109 C161.736434,200.136434 159.255814,203.807752 155.485271,202.220155 C154.592248,203.212403 153.79845,204.204651 152.905426,205.196899 C161.24031,215.317829 165.110078,229.606202 171.55969,241.413953 C175.032558,230.003101 174.635659,217.6 175.429457,205.196899 C170.666667,205.395349 167.987597,200.731783 164.613953,200.434109 L164.613953,200.434109 Z M155.386047,188.229457 C155.088372,191.702326 155.882171,192.793798 156.576744,196.762791 C167.888372,200.334884 166.003101,181.184496 155.386047,188.229457 L155.386047,188.229457 Z M142.784496,184.062016 C137.922481,181.382946 130.579845,178.505426 124.229457,177.314729 C116.390698,175.826357 117.184496,188.031008 117.482171,195.274419 C117.779845,201.029457 120.756589,207.082171 122.046512,210.951938 C122.64186,212.737984 122.84031,214.623256 124.328682,215.020155 C127.007752,215.615504 135.937984,212.142636 138.418605,210.753488 C143.776744,207.875969 147.944186,203.212403 152.508527,200.037209 C152.607752,198.548837 152.607752,196.96124 152.706977,195.472868 C149.928682,194.083721 146.852713,193.190698 142.784496,192.992248 C145.463566,191.603101 149.531783,191.603101 152.012403,190.015504 C152.012403,189.420155 152.012403,188.824806 152.111628,188.229457 C147.547287,187.733333 145.860465,185.748837 142.784496,184.062016 L142.784496,184.062016 Z M96.1488372,175.627907 C92.0806202,179.795349 107.55969,185.351938 112.421705,185.649612 C112.421705,183.069767 113.910078,180.589147 113.612403,178.703876 C107.75814,177.711628 100.117829,178.406202 96.1488372,175.627907 L96.1488372,175.627907 Z M146.15814,177.513178 C146.15814,177.910078 145.662016,177.810853 145.562791,178.108527 C150.821705,182.176744 154.691473,183.069767 161.736434,182.672868 C164.911628,180.390698 167.789147,177.612403 171.162791,175.429457 C163.423256,176.124031 153.699225,180.886822 146.15814,177.513178 L146.15814,177.513178 Z M192,191.404651 C191.80155,186.84031 190.610853,177.413953 187.733333,175.727132 C181.779845,172.254264 171.262016,182.772093 166.796899,184.35969 C167.293023,185.748837 168.086822,186.84031 168.186047,188.626357 C170.865116,187.931783 174.04031,188.427907 176.322481,189.51938 C173.643411,189.817054 170.765891,189.817054 168.979845,191.106977 C168.384496,192.992248 169.178295,195.472868 168.682171,198.052713 C174.933333,199.83876 182.176744,200.731783 190.114729,201.029457 C191.603101,199.044961 192.19845,195.274419 192,191.404651 L192,191.404651 Z M89.3023256,179.596899 C88.0124031,178.703876 79.379845,167.491473 78.1891473,167.987597 C62.6108527,174.139535 48.0248062,184.756589 35.0263566,194.877519 C47.4294574,221.568992 52.4899225,254.213953 53.3829457,285.668217 C67.572093,292.316279 80.0744186,301.941085 99.4232558,302.933333 C97.1410853,287.156589 95.1565891,272.967442 93.8666667,258.083721 C89.0046512,256 82.0589147,258.182946 77.4945736,257.488372 C77.4945736,252.031008 84.4403101,255.106977 85.0356589,251.435659 C85.4325581,248.657364 81.1658915,248.458915 82.5550388,244.093023 C86.1271318,245.382946 88.0124031,248.260465 91.7829457,249.351938 C95.255814,241.810853 91.7829457,228.415504 92.2790698,222.065116 C92.3782946,220.874419 92.8744186,215.516279 95.5534884,216.409302 C97.9348837,217.203101 95.4542636,230.796899 95.6527132,236.750388 C95.8511628,242.306977 94.9581395,247.565891 97.2403101,251.03876 C115.894574,248.458915 134.846512,246.871318 155.088372,246.275969 C150.623256,244.390698 145.364341,242.604651 139.609302,239.330233 C136.434109,237.544186 126.610853,233.872868 125.717829,230.896124 C124.229457,226.133333 129.488372,223.652713 130.381395,219.584496 C120.955039,224.744186 119.168992,214.623256 116.886822,207.578295 C114.902326,201.128682 113.711628,196.266667 113.215504,192.595349 C104.979845,188.427907 96.248062,184.55814 89.3023256,179.596899 L89.3023256,179.596899 L89.3023256,179.596899 Z M183.764341,169.277519 C196.762791,163.026357 199.144186,192.793798 193.984496,202.418605 C194.778295,205.296124 197.457364,206.387597 198.548837,208.967442 C191.305426,221.965891 183.268217,234.071318 175.826357,246.871318 C181.283721,243.39845 189.221705,246.275969 195.671318,243.696124 C198.052713,242.803101 199.739535,237.345736 201.525581,232.979845 C206.486822,221.072868 211.646512,205.990698 213.928682,194.67907 C214.424806,192.099225 215.913178,186.443411 215.516279,184.16124 C214.92093,179.993798 209.364341,176.917829 206.486822,174.437209 C201.227907,169.674419 197.953488,165.606202 192.396899,161.141085 C190.313178,164.415504 185.550388,166.59845 183.764341,169.277519 L183.764341,169.277519 L183.764341,169.277519 Z M59.6341085,54.0775194 C53.4821705,60.924031 54.772093,73.6248062 55.4666667,82.7534884 C66.6790698,75.7085271 81.4635659,83.3488372 81.3643411,95.255814 C86.7224806,95.1565891 83.3488372,88.6077519 82.3565891,84.3410853 C79.1813953,70.5488372 87.7147287,55.6651163 82.7534884,43.0635659 C73.1286822,43.8573643 65.2899225,47.7271318 59.6341085,54.0775194 L59.6341085,54.0775194 L59.6341085,54.0775194 Z M103.888372,14.4868217 C89.8976744,18.455814 71.9379845,28.675969 66.1829457,41.2775194 C70.648062,40.5829457 73.724031,38.4 78.0899225,38.1023256 C79.7767442,38.0031008 81.9596899,38.7968992 83.8449612,38.3007752 C87.6155039,37.3085271 90.8899225,28.7751938 93.7674419,25.6 C96.5457364,22.524031 99.9193798,21.1348837 102.20155,18.3565891 C103.689922,17.6620155 105.872868,17.6620155 105.972093,15.4790698 C105.376744,14.7844961 104.682171,14.2883721 103.888372,14.4868217 L103.888372,14.4868217 Z M176.818605,18.2573643 C162.232558,10.0217054 137.624806,3.86976744 122.145736,11.6093023 C109.643411,17.8604651 92.7751938,28.179845 87.020155,41.1782946 C92.3782946,53.779845 85.4325581,65.2899225 84.9364341,78.0899225 C84.7379845,84.9364341 88.1116279,90.7906977 88.4093023,98.2325581 C86.524031,101.308527 80.9674419,101.606202 77.0976744,101.407752 C75.8077519,94.8589147 73.5255814,87.5162791 66.7782946,86.7224806 C57.2527132,85.6310078 50.2077519,93.5689922 49.8108527,101.804651 C49.3147287,111.528682 57.2527132,127.603101 68.5643411,126.511628 C72.9302326,126.114729 74.0217054,121.748837 78.7844961,121.748837 C81.3643411,126.908527 74.8155039,128.496124 74.1209302,132.167442 C73.9224806,133.15969 74.6170543,136.831008 75.1131783,138.617054 C77.1968992,147.051163 81.7612403,158.065116 86.2263566,164.514729 C91.9813953,172.750388 103.193798,173.941085 115.299225,174.734884 C117.482171,170.071318 125.420155,170.468217 130.579845,171.658915 C124.328682,169.178295 118.573643,163.224806 113.810853,157.965891 C108.353488,151.913178 102.796899,145.463566 102.499225,137.525581 C112.917829,151.913178 121.451163,164.514729 140.303876,170.865116 C154.592248,175.627907 171.262016,168.682171 182.275969,160.942636 C186.84031,157.767442 189.51938,152.607752 192.793798,148.043411 C204.899225,130.579845 210.555039,105.773643 209.364341,81.6620155 C208.868217,71.7395349 208.868217,61.8170543 205.494574,55.1689922 C202.021705,48.2232558 190.213953,41.8728682 183.268217,48.2232558 C181.978295,41.3767442 189.023256,37.2093023 197.258915,39.6899225 C191.404651,32.0496124 185.252713,23.020155 176.818605,18.2573643 L176.818605,18.2573643 L176.818605,18.2573643 Z M204.006202,242.604651 C215.417054,236.948837 236.651163,227.423256 243.696124,242.604651 C246.375194,248.260465 249.451163,257.686822 250.741085,263.541085 C252.626357,271.677519 248.657364,288.942636 240.223256,291.621705 C232.781395,294.003101 224.148837,293.903876 215.218605,292.117829 C214.127132,291.224806 213.035659,289.736434 212.142636,288.148837 C205.792248,287.950388 199.739535,288.446512 194.778295,291.125581 C195.274419,295.888372 192.099225,296.582946 189.023256,297.575194 C186.84031,306.406202 193.488372,317.916279 191.900775,325.854264 C190.809302,331.609302 183.764341,332.502326 178.604651,333.494574 C178.406202,336.669767 178.803101,339.348837 179.2,342.027907 C178.009302,346.393798 172.750388,348.874419 167.689922,349.469767 C151.11938,351.454264 126.015504,352.347287 110.139535,346.592248 C105.674419,335.677519 102.20155,322.48062 98.5302326,310.077519 C83.0511628,311.764341 70.4496124,303.429457 58.6418605,297.872868 C54.5736434,295.987597 48.9178295,294.896124 47.3302326,291.621705 C45.8418605,288.446512 46.4372093,282.393798 46.0403101,276.737984 C45.1472868,262.151938 44.2542636,248.062016 40.4837209,233.178295 C38.7968992,226.431008 35.7209302,220.576744 33.6372093,214.127132 C31.6527132,208.173643 28.2790698,200.731783 27.3860465,194.778295 C26.096124,185.947287 34.4310078,185.451163 39.6899225,181.581395 C47.9255814,175.627907 54.3751938,172.353488 63.3054264,166.995349 C65.9844961,165.407752 73.9224806,161.43876 74.8155039,159.553488 C76.6015504,155.882171 71.7395349,150.722481 70.4496124,147.844961 C68.3658915,143.28062 67.2744186,139.410853 66.9767442,134.945736 C59.5348837,133.755039 53.779845,129.289922 50.4062016,124.328682 C44.7503876,115.993798 40.7813953,100.613953 45.7426357,89.0046512 C46.1395349,88.1116279 48.0248062,86.2263566 48.3224806,84.8372093 C48.9178295,82.0589147 47.2310078,78.3875969 47.1317829,75.4108527 C46.6356589,60.2294574 49.7116279,47.1317829 59.9317829,42.5674419 C64.0992248,25.9968992 78.9829457,20.5395349 92.9736434,12.303876 C98.2325581,9.22790698 103.987597,7.24341085 109.941085,5.06046512 C131.274419,-2.77829457 164.117829,-1.28992248 181.87907,12.1054264 C189.420155,17.7612403 201.426357,29.7674419 205.693023,38.4992248 C217.103876,61.420155 216.210853,99.820155 208.272868,127.80155 C207.181395,131.572093 205.693023,137.029457 203.510078,141.593798 C202.021705,144.768992 197.35814,151.020155 197.854264,153.79845 C198.449612,156.675969 208.570543,164.316279 210.753488,166.4 C214.623256,170.170543 222.065116,175.131783 222.660465,179.894574 C223.355039,184.955039 220.477519,191.900775 218.989147,196.762791 C214.226357,213.035659 209.463566,228.018605 204.006202,242.604651 L204.006202,242.604651 Z" fill="#231F20"></path>
		<path d="M128.099225,129.885271 C128.694574,129.091473 132.068217,127.80155 136.831008,130.083721 C136.831008,130.083721 131.175194,130.976744 131.671318,140.403101 L129.289922,139.906977 C129.389147,140.006202 126.908527,131.472868 128.099225,129.885271" fill="#F7E4CD"></path>
		<path d="M169.178295,210.455814 C169.178295,211.844961 167.987597,213.035659 166.59845,213.035659 C165.209302,213.035659 164.018605,211.844961 164.018605,210.455814 C164.018605,209.066667 165.209302,207.875969 166.59845,207.875969 C168.086822,207.875969 169.178295,209.066667 169.178295,210.455814" fill="#1D1919"></path>
		<path d="M171.75814,222.462016 C171.75814,223.851163 170.567442,225.04186 169.178295,225.04186 C167.789147,225.04186 166.59845,223.851163 166.59845,222.462016 C166.59845,221.072868 167.789147,219.882171 169.178295,219.882171 C170.666667,219.882171 171.75814,220.973643 171.75814,222.462016" fill="#1D1919"></path>
		<g transform="translate(0.992248, 367.131783)" fill="#231F20">
			<path d="M35.6217054,7.14418605 C34.827907,7.24341085 34.1333333,7.34263566 33.5379845,7.44186047 C32.9426357,7.54108527 32.3472868,7.64031008 31.5534884,7.83875969 C30.6604651,8.0372093 30.1643411,8.43410853 29.9658915,9.02945736 C29.7674419,9.6248062 29.5689922,10.220155 29.5689922,11.0139535 L29.5689922,35.2248062 C29.5689922,37.4077519 29.0728682,39.4914729 28.179845,41.3767442 C27.2868217,43.2620155 26.096124,44.7503876 24.5085271,46.0403101 C22.9209302,47.2310078 21.1348837,48.2232558 19.1503876,48.8186047 C17.1658915,49.4139535 15.0821705,49.8108527 12.8992248,49.8108527 C9.02945736,49.8108527 5.95348837,48.9178295 3.57209302,47.0325581 C1.19069767,45.1472868 0,42.6666667 0,39.3922481 C0,37.5069767 0.496124031,35.9193798 1.5875969,34.6294574 C2.67906977,33.3395349 4.16744186,32.744186 6.05271318,32.744186 C7.83875969,32.744186 9.22790698,33.2403101 10.3193798,34.3317829 C11.4108527,35.4232558 11.9069767,36.7131783 11.9069767,38.2015504 C11.9069767,39.4914729 11.4108527,40.7813953 10.5178295,41.8728682 C9.6248062,42.9643411 8.53333333,44.055814 7.34263566,44.9488372 L7.34263566,45.3457364 C7.54108527,45.7426357 7.9379845,46.1395349 8.53333333,46.4372093 C9.12868217,46.7348837 9.82325581,46.8341085 10.4186047,46.8341085 C12.8992248,46.8341085 14.8837209,45.9410853 16.2728682,44.1550388 C17.6620155,42.3689922 18.3565891,39.6899225 18.3565891,36.1178295 L18.3565891,11.3116279 C18.3565891,10.6170543 18.2573643,9.92248062 18.0589147,9.42635659 C17.8604651,8.93023256 17.2651163,8.53333333 16.372093,8.13643411 C15.7767442,7.83875969 14.9829457,7.64031008 14.0899225,7.44186047 C13.1968992,7.24341085 12.5023256,7.14418605 11.9069767,7.04496124 L11.9069767,4.66356589 L35.324031,4.66356589 L35.324031,7.14418605 L35.6217054,7.14418605 Z"></path>
			<path d="M72.3348837,41.2775194 C71.6403101,42.4682171 70.7472868,43.5596899 69.7550388,44.6511628 C68.7627907,45.7426357 67.572093,46.5364341 66.2821705,47.3302326 C64.8930233,48.124031 63.503876,48.7193798 62.1147287,49.1162791 C60.7255814,49.5131783 59.0387597,49.7116279 57.2527132,49.7116279 C54.1767442,49.7116279 51.5968992,49.3147287 49.3147287,48.4217054 C47.1317829,47.5286822 45.2465116,46.4372093 43.8573643,44.9488372 C42.3689922,43.4604651 41.3767442,41.7736434 40.5829457,39.7891473 C39.8883721,37.8046512 39.4914729,35.6217054 39.4914729,33.3395349 C39.4914729,31.255814 39.8883721,29.172093 40.6821705,27.2868217 C41.475969,25.4015504 42.5674419,23.6155039 43.9565891,22.1271318 C45.3457364,20.6387597 47.1317829,19.448062 49.3147287,18.5550388 C51.4976744,17.6620155 53.8790698,17.1658915 56.4589147,17.1658915 C59.3364341,17.1658915 61.7178295,17.5627907 63.6031008,18.2573643 C65.4883721,18.951938 66.9767442,19.944186 68.1674419,21.1348837 C69.3581395,22.3255814 70.151938,23.7147287 70.7472868,25.3023256 C71.2434109,26.8899225 71.5410853,28.5767442 71.5410853,30.3627907 L71.5410853,32.3472868 L50.6046512,32.3472868 C50.6046512,36.6139535 51.3984496,39.7891473 53.0852713,41.972093 C54.6728682,44.1550388 57.351938,45.2465116 60.8248062,45.2465116 C62.8093023,45.2465116 64.496124,44.7503876 66.0837209,43.6589147 C67.6713178,42.5674419 68.9612403,41.2775194 70.0527132,39.5906977 L72.3348837,41.2775194 L72.3348837,41.2775194 Z M60.5271318,29.4697674 C60.5271318,28.2790698 60.427907,26.9891473 60.3286822,25.6992248 C60.2294574,24.4093023 60.0310078,23.3178295 59.6341085,22.524031 C59.2372093,21.5317829 58.8403101,20.8372093 58.1457364,20.3410853 C57.5503876,19.8449612 56.7565891,19.6465116 55.8635659,19.6465116 C54.275969,19.6465116 52.9860465,20.4403101 52.0930233,22.027907 C51.1007752,23.6155039 50.6046512,26.1953488 50.5054264,29.6682171 L60.5271318,29.4697674 L60.5271318,29.4697674 Z"></path>
			<path d="M116.093023,48.620155 L97.4387597,48.620155 L97.4387597,46.3379845 C97.8356589,46.3379845 98.3317829,46.2387597 98.827907,46.1395349 C99.4232558,46.0403101 99.820155,45.9410853 100.117829,45.8418605 C100.514729,45.6434109 100.812403,45.2465116 101.010853,44.8496124 C101.209302,44.4527132 101.308527,43.7581395 101.308527,42.9643411 L101.308527,28.4775194 C101.308527,26.3937984 100.911628,24.8062016 100.117829,23.7147287 C99.324031,22.6232558 98.2325581,22.1271318 96.6449612,22.1271318 C95.8511628,22.1271318 95.0573643,22.2263566 94.3627907,22.524031 C93.6682171,22.7224806 92.9736434,23.1193798 92.2790698,23.6155039 C91.6837209,24.0124031 91.1875969,24.4093023 90.7906977,24.9054264 C90.3937984,25.3023256 90.096124,25.6992248 89.8976744,26.096124 L89.8976744,42.6666667 C89.8976744,43.3612403 89.9968992,43.9565891 90.1953488,44.4527132 C90.3937984,44.9488372 90.7906977,45.3457364 91.1875969,45.544186 C91.4852713,45.7426357 91.8821705,45.9410853 92.3782946,46.0403101 C92.8744186,46.1395349 93.3705426,46.2387597 93.8666667,46.3379845 L93.8666667,48.620155 L75.0139535,48.620155 L75.0139535,46.3379845 C75.5100775,46.3379845 76.0062016,46.2387597 76.6015504,46.1395349 C77.0976744,46.0403101 77.5937984,45.9410853 77.9906977,45.8418605 C78.6852713,45.6434109 79.0821705,45.2465116 79.379845,44.7503876 C79.5782946,44.2542636 79.7767442,43.6589147 79.7767442,42.8651163 L79.7767442,24.8062016 C79.7767442,24.2108527 79.5782946,23.5162791 79.2806202,22.9209302 C78.9829457,22.3255814 78.4868217,21.8294574 77.9906977,21.4325581 C77.5937984,21.2341085 77.1968992,20.9364341 76.6015504,20.8372093 C76.0062016,20.6387597 75.4108527,20.5395349 74.7162791,20.5395349 L74.7162791,18.2573643 L89.5007752,17.4635659 L89.9968992,17.9596899 L89.9968992,22.4248062 L90.096124,22.4248062 C90.6914729,21.9286822 91.3860465,21.3333333 92.179845,20.5395349 C92.9736434,19.8449612 93.7674419,19.2496124 94.4620155,18.7534884 C95.255814,18.2573643 96.248062,17.8604651 97.4387597,17.4635659 C98.6294574,17.0666667 100.018605,16.9674419 101.407752,16.9674419 C104.781395,16.9674419 107.262016,17.9596899 108.948837,19.8449612 C110.635659,21.7302326 111.429457,24.3100775 111.429457,27.4852713 L111.429457,42.6666667 C111.429457,43.4604651 111.528682,44.055814 111.727132,44.4527132 C111.925581,44.9488372 112.421705,45.2465116 113.017054,45.544186 C113.314729,45.6434109 113.711628,45.8418605 114.207752,45.9410853 C114.703876,46.0403101 115.2,46.1395349 115.894574,46.2387597 L115.894574,48.620155 L116.093023,48.620155 Z"></path>
			<path d="M158.75969,48.620155 L144.173643,48.620155 C142.387597,45.4449612 140.700775,42.7658915 139.212403,40.5829457 C137.724031,38.4 136.334884,36.3162791 135.044961,34.5302326 L133.258915,36.1178295 L133.258915,42.8651163 C133.258915,43.5596899 133.35814,44.2542636 133.556589,44.6511628 C133.755039,45.1472868 134.151938,45.4449612 134.846512,45.7426357 C135.243411,45.9410853 135.64031,46.0403101 136.136434,46.1395349 C136.632558,46.2387597 137.128682,46.3379845 137.624806,46.3379845 L137.624806,48.620155 L118.375194,48.620155 L118.375194,46.3379845 C118.871318,46.3379845 119.367442,46.2387597 119.962791,46.1395349 C120.458915,46.0403101 120.955039,45.9410853 121.351938,45.8418605 C122.046512,45.6434109 122.443411,45.2465116 122.741085,44.7503876 C122.939535,44.2542636 123.137984,43.6589147 123.137984,42.8651163 L123.137984,8.33488372 C123.137984,7.64031008 122.939535,6.94573643 122.64186,6.25116279 C122.344186,5.55658915 121.947287,4.96124031 121.351938,4.56434109 C120.955039,4.36589147 120.35969,4.06821705 119.565891,3.96899225 C118.772093,3.77054264 118.077519,3.67131783 117.382946,3.67131783 L117.382946,1.38914729 L132.762791,0.595348837 L133.258915,1.09147287 L133.258915,33.0418605 C134.747287,31.6527132 136.533333,30.0651163 138.418605,28.2790698 C140.303876,26.4930233 141.891473,25.0046512 142.982946,23.8139535 C143.677519,23.1193798 144.074419,22.6232558 144.074419,22.2263566 C144.173643,21.8294574 144.173643,21.6310078 144.173643,21.5317829 C144.173643,21.1348837 143.875969,20.8372093 143.181395,20.6387597 C142.486822,20.4403101 141.593798,20.1426357 140.204651,19.944186 L140.204651,17.7612403 L155.882171,17.7612403 L155.882171,19.944186 C153.79845,20.5395349 152.210853,21.0356589 151.11938,21.5317829 C150.027907,22.027907 148.837209,22.7224806 147.547287,23.5162791 C146.654264,24.1116279 145.860465,24.7069767 145.066667,25.3023256 C144.272868,25.8976744 143.379845,26.6914729 142.288372,27.5844961 C144.272868,30.5612403 146.15814,33.2403101 147.844961,35.7209302 C149.531783,38.2015504 151.317829,40.8806202 153.203101,43.6589147 C153.79845,44.6511628 154.592248,45.2465116 155.584496,45.6434109 C156.576744,45.9410853 157.469767,46.1395349 158.462016,46.2387597 L158.462016,48.620155 L158.75969,48.620155 Z"></path>
			<path d="M178.604651,48.620155 L159.057364,48.620155 L159.057364,46.3379845 C159.553488,46.3379845 160.148837,46.2387597 160.644961,46.1395349 C161.141085,46.0403101 161.637209,45.9410853 161.934884,45.8418605 C162.629457,45.6434109 163.026357,45.2465116 163.324031,44.7503876 C163.621705,44.2542636 163.72093,43.6589147 163.72093,42.8651163 L163.72093,24.8062016 C163.72093,24.1116279 163.522481,23.4170543 163.224806,22.9209302 C162.927132,22.3255814 162.530233,21.9286822 162.034109,21.6310078 C161.637209,21.4325581 161.141085,21.1348837 160.347287,20.9364341 C159.553488,20.7379845 158.858915,20.5395349 158.263566,20.5395349 L158.263566,18.2573643 L173.444961,17.4635659 L173.941085,17.9596899 L173.941085,42.5674419 C173.941085,43.2620155 174.139535,43.8573643 174.437209,44.4527132 C174.734884,44.9488372 175.231008,45.3457364 175.727132,45.544186 C176.124031,45.7426357 176.620155,45.9410853 177.116279,46.0403101 C177.612403,46.1395349 178.108527,46.2387597 178.703876,46.3379845 L178.703876,48.620155 L178.604651,48.620155 Z M174.139535,6.4496124 C174.139535,8.0372093 173.544186,9.32713178 172.353488,10.4186047 C171.162791,11.5100775 169.674419,12.1054264 168.086822,12.1054264 C166.4,12.1054264 165.010853,11.5100775 163.72093,10.4186047 C162.530233,9.32713178 161.934884,7.9379845 161.934884,6.4496124 C161.934884,4.8620155 162.530233,3.57209302 163.72093,2.38139535 C164.911628,1.28992248 166.4,0.694573643 168.086822,0.694573643 C169.773643,0.694573643 171.162791,1.28992248 172.353488,2.38139535 C173.544186,3.47286822 174.139535,4.8620155 174.139535,6.4496124 L174.139535,6.4496124 Z"></path>
			<path d="M222.362791,48.620155 L203.708527,48.620155 L203.708527,46.3379845 C204.105426,46.3379845 204.60155,46.2387597 205.097674,46.1395349 C205.693023,46.0403101 206.089922,45.9410853 206.387597,45.8418605 C206.784496,45.6434109 207.082171,45.2465116 207.28062,44.8496124 C207.47907,44.4527132 207.578295,43.7581395 207.578295,42.9643411 L207.578295,28.4775194 C207.578295,26.3937984 207.181395,24.8062016 206.387597,23.7147287 C205.593798,22.6232558 204.502326,22.1271318 202.914729,22.1271318 C202.12093,22.1271318 201.327132,22.2263566 200.632558,22.524031 C199.937984,22.8217054 199.243411,23.1193798 198.548837,23.6155039 C197.953488,24.0124031 197.457364,24.4093023 197.060465,24.9054264 C196.663566,25.3023256 196.365891,25.6992248 196.167442,26.096124 L196.167442,42.6666667 C196.167442,43.3612403 196.266667,43.9565891 196.465116,44.4527132 C196.663566,44.9488372 197.060465,45.3457364 197.457364,45.544186 C197.755039,45.7426357 198.151938,45.9410853 198.648062,46.0403101 C199.144186,46.1395349 199.64031,46.2387597 200.136434,46.3379845 L200.136434,48.620155 L181.283721,48.620155 L181.283721,46.3379845 C181.779845,46.3379845 182.275969,46.2387597 182.871318,46.1395349 C183.367442,46.0403101 183.863566,45.9410853 184.260465,45.8418605 C184.955039,45.6434109 185.351938,45.2465116 185.649612,44.7503876 C185.848062,44.2542636 186.046512,43.6589147 186.046512,42.8651163 L186.046512,24.8062016 C186.046512,24.2108527 185.848062,23.5162791 185.550388,22.9209302 C185.252713,22.3255814 184.756589,21.8294574 184.260465,21.4325581 C183.863566,21.2341085 183.466667,20.9364341 182.871318,20.8372093 C182.275969,20.6387597 181.68062,20.5395349 180.986047,20.5395349 L180.986047,18.2573643 L195.770543,17.4635659 L196.266667,17.9596899 L196.266667,22.4248062 L196.365891,22.4248062 C196.96124,21.9286822 197.655814,21.3333333 198.449612,20.5395349 C199.243411,19.8449612 200.037209,19.2496124 200.731783,18.7534884 C201.525581,18.2573643 202.517829,17.8604651 203.708527,17.4635659 C204.899225,17.0666667 206.288372,16.9674419 207.677519,16.9674419 C211.051163,16.9674419 213.531783,17.9596899 215.218605,19.8449612 C216.905426,21.7302326 217.699225,24.3100775 217.699225,27.4852713 L217.699225,42.6666667 C217.699225,43.4604651 217.79845,44.055814 217.996899,44.4527132 C218.195349,44.9488372 218.691473,45.2465116 219.286822,45.544186 C219.584496,45.6434109 219.981395,45.8418605 220.477519,45.9410853 C220.973643,46.0403101 221.469767,46.1395349 222.164341,46.2387597 L222.164341,48.620155 L222.362791,48.620155 Z"></path>
			<path d="M239.528682,49.7116279 C237.544186,49.7116279 235.55969,49.4139535 233.674419,48.8186047 C231.789147,48.2232558 230.300775,47.627907 229.209302,46.9333333 L228.316279,49.0170543 L225.934884,49.0170543 L225.537984,37.5069767 L227.820155,37.5069767 C228.117829,38.4 228.613953,39.4914729 229.407752,40.6821705 C230.102326,41.8728682 230.995349,42.8651163 231.888372,43.8573643 C232.88062,44.7503876 233.972093,45.544186 235.262016,46.2387597 C236.551938,46.8341085 237.84186,47.2310078 239.231008,47.2310078 C241.116279,47.2310078 242.505426,46.8341085 243.39845,46.1395349 C244.291473,45.4449612 244.787597,44.2542636 244.787597,42.7658915 C244.787597,41.972093 244.589147,41.2775194 244.192248,40.6821705 C243.795349,40.1860465 243.2,39.6899225 242.505426,39.2930233 C241.711628,38.896124 240.818605,38.4992248 239.826357,38.2015504 C238.834109,37.903876 237.643411,37.6062016 236.254264,37.1100775 C234.865116,36.7131783 233.674419,36.3162791 232.682171,35.820155 C231.689922,35.4232558 230.59845,34.7286822 229.606202,33.8356589 C228.713178,33.0418605 227.91938,32.0496124 227.423256,30.9581395 C226.827907,29.8666667 226.629457,28.4775194 226.629457,26.8899225 C226.629457,24.0124031 227.820155,21.6310078 230.300775,19.8449612 C232.781395,18.0589147 235.956589,17.1658915 239.925581,17.1658915 C241.810853,17.1658915 243.497674,17.3643411 245.085271,17.7612403 C246.672868,18.1581395 247.962791,18.5550388 249.054264,19.0511628 L249.748837,17.2651163 L252.130233,17.2651163 L252.626357,27.7829457 L250.443411,27.7829457 C249.748837,25.6 248.458915,23.8139535 246.772093,22.2263566 C244.986047,20.6387597 243.100775,19.8449612 241.116279,19.8449612 C239.528682,19.8449612 238.23876,20.1426357 237.345736,20.8372093 C236.452713,21.5317829 235.956589,22.4248062 235.956589,23.6155039 C235.956589,25.2031008 236.651163,26.2945736 237.941085,26.9891473 C239.231008,27.6837209 241.116279,28.3782946 243.497674,28.9736434 C247.168992,29.9658915 249.848062,31.255814 251.634109,32.8434109 C253.32093,34.5302326 254.213953,36.6139535 254.213953,39.0945736 C254.213953,42.4682171 252.924031,45.1472868 250.244961,46.9333333 C247.268217,48.7193798 243.795349,49.7116279 239.528682,49.7116279 L239.528682,49.7116279 Z"></path>
		</g>
	</g>
</svg>
