<svg width="40" height="40" viewBox="0 0 40 40" fill="none" xmlns="http://www.w3.org/2000/svg">
<path d="M36.0695 22.8833C35.7637 22.8708 35.4562 22.875 35.1481 22.8791C34.9938 22.8812 34.8395 22.8833 34.6851 22.8833C33.7496 22.8833 33.2794 22.8833 33.0481 22.6482C32.8143 22.4106 32.8247 21.9329 32.8455 20.9723C32.9259 18.7621 32.5278 16.5607 31.6785 14.5187C30.8293 12.4767 29.5488 10.6422 27.9248 9.14089V9.12208L27.5863 8.82112C25.8948 7.33741 23.8985 6.24252 21.7381 5.61359C19.5777 4.98466 17.3057 4.83697 15.0821 5.18091C12.8585 5.52486 10.7373 6.35207 8.86792 7.60433C6.9985 8.85655 5.42634 10.5034 4.26211 12.4288L4.23578 12.4702C4.20945 12.5154 4.1827 12.5605 4.15595 12.6057C4.10245 12.6959 4.04893 12.7862 3.99878 12.8765C2.50056 15.5261 1.82607 18.5621 2.06137 21.5967C2.0668 21.6876 2.0825 21.7864 2.0986 21.8876C2.17176 22.3476 2.25303 22.8586 1.41431 22.9172C0.530251 22.9774 -0.131855 23.4175 0.0223855 24.422C0.176626 25.4264 0.947828 25.5506 1.80932 25.5506C2.69978 25.533 3.59192 25.5389 4.4835 25.5447C4.92894 25.5476 5.37468 25.5506 5.81957 25.5506C6.67729 25.5506 7.29426 25.8967 7.32435 26.8033C7.35068 27.6234 6.82777 28.0786 6.01895 28.0899C5.01451 28.0899 4.35993 28.5526 4.43893 29.5646C4.51793 30.5765 5.34556 30.6932 6.19952 30.6706C8.59589 30.6518 10.9923 30.648 13.3924 30.6706C14.2765 30.6706 14.931 31.0468 14.8784 32.0738C14.8295 33.0105 14.2238 33.3077 13.3736 33.304H8.94575C8.00903 33.304 7.09111 33.3529 7.08735 34.583C7.08359 35.8132 8.01279 35.8546 8.94575 35.8508H30.3852C31.2655 35.8508 31.9953 35.689 32.0216 34.6395C32.0517 33.5109 31.2692 33.2851 30.3513 33.3077H22.6054C21.7364 33.3077 21.1608 32.9315 21.1345 32.0287C21.1082 31.1258 21.7063 30.7345 22.549 30.6743C22.7322 30.6593 22.9171 30.6643 23.1015 30.6693C23.1934 30.6718 23.2852 30.6743 23.3766 30.6743C24.2193 30.6743 25.0056 30.5803 25.0733 29.5157C25.1485 28.3871 24.3961 28.12 23.4632 28.1162C22.613 28.0711 22.1201 27.5745 22.1201 26.8221C22.1201 25.9681 22.6807 25.5054 23.5798 25.5317H36.0319C36.9385 25.5317 37.5893 25.2458 37.6194 24.2339C37.6495 23.2219 36.9347 22.9209 36.0695 22.8833Z" fill="#EB6D4A"/>
<path d="M38.8105 28.1072V28.1096C39.4743 28.1503 40 28.7015 40 29.3755C40 30.0495 39.4743 30.6007 38.8105 30.6415V30.6439H35.4034V30.6373C34.7641 30.5721 34.2653 30.0321 34.2653 29.3755C34.2653 28.719 34.7641 28.179 35.4034 28.1138V28.1072H38.8105Z" fill="#EB6D4A"/>
<path d="M31.3378 28.1096V28.1072H27.9307V28.1138C27.2911 28.1787 26.792 28.7188 26.792 29.3755C26.792 30.0322 27.2911 30.5724 27.9307 30.6373V30.6439H31.3378V30.6414C32.0013 30.6005 32.5268 30.0494 32.5268 29.3755C32.5268 28.7017 32.0013 28.1506 31.3378 28.1096Z" fill="#EB6D4A"/>
</svg>
