<svg xmlns="http://www.w3.org/2000/svg" width="30" height="32" viewBox="0 0 66.728 66.728" class="_logo_7qhnk_123">
<path />
<path fill="var(--color-io--icon--color, #13285a)" d="M49.495 34.017a7.72 7.72 0 0 0-7.72-7.72 7.72 7.72 0 0 0-7.72 7.72 7.72 7.72 0 0 0 7.72 7.72 7.72 7.72 0 0 0 7.72-7.72"></path><path fill="var(--color-io--icon--color, #13285a)" d="M41.777 47.077a13.07 13.07 0 0 1-13.066-13.066 13.066 13.066 0 0 1 13.066-13.065 13.066 13.066 0 0 1 13.066 13.066 13.07 13.07 0 0 1-13.066 13.065M26.33 22.839a2.717 2.717 0 0 1-2.7 2.741h-.174a2.724 2.724 0 0 1-2.872-2.561 2 2 0 0 1 0-.177 2.764 2.764 0 0 1 2.781-2.741h.093a2.78 2.78 0 0 1 2.872 2.685Zm-.428 20.783a2.39 2.39 0 0 1-2.443 2.328 2.39 2.39 0 0 1-2.443-2.328V29.864a2.445 2.445 0 0 1 2.573-2.313 2.445 2.445 0 0 1 2.313 2.313Zm39.365-21.849c-1.85-8.055-5.165-16.75-11.349-20.085-6.224-3.309-15.316-1.257-22.946 1.9a59.2 59.2 0 0 0-19.787 13.087C5.278 22.406-.152 29.707.004 36.862c.23 7.171 6.081 14.174 12.46 19.076 6.444 4.923 13.432 7.686 21.171 9.434 7.754 1.679 16.26 2.35 22.108-1.3 5.876-3.607 9.086-11.526 10.462-19.2a55.4 55.4 0 0 0-.941-23.1"></path></svg>