<svg id="Icon_Figure" xmlns="http://www.w3.org/2000/svg" width="21.6" height="27" viewBox="0 0 125 156.5">
  <defs>
    <style>
      .st0 {
        fill: var(--color-incortex--icon--color, #8c8c8c);
      }
    </style>
  </defs>
  <polygon class="st0" points="18.6 127.5 35.3 127.5 35.3 76.9 18.6 52.3 18.6 127.5"/>
  <path class="st0" d="M26.8,37.9c5.7,0,10.3-4.6,10.3-10.3s-4.6-10.3-10.3-10.3-10.3,4.6-10.3,10.3,4.8,10.3,10.3,10.3Z"/>
  <polygon class="st0" points="56.9 51 56.9 127.8 73.6 127.8 73.6 75.3 57.1 51 56.9 51"/>
  <path class="st0" d="M100.6,49.1c-12,0-21.9,6.3-27,12.4l5.1,7.5c3.9-3,8.9-5.1,14.5-5.1,9.4,0,15.4,4,15.4,15.9v48h16.7v-54.1c0-15.7-8.3-24.6-24.8-24.6Z"/>
</svg>