<svg id="Icon_Cortex" xmlns="http://www.w3.org/2000/svg" width="81" height="27" viewBox="125 0 470 156.5">
  <defs>
    <style>
      .st1 {
        fill: var(--color-incortex--logo--fill--color, #232959);
      }
    </style>
  </defs>
  <path class="st1" d="M142.3,89.3c0,23.4,16.4,40.4,39.7,40.4s24-6.4,29.4-13.7l-11-10.2c-4.3,5.9-10.2,9.1-17.7,9.1-14,0-23.2-10.7-23.2-25.6s1.9-12.7,5.3-17.1l-9.3-13.8c-8.4,7.2-13.3,18.1-13.3,30.9Z"/>
  <path class="st1" d="M200.5,73l11-10.2c-5.4-7.3-14.5-13.7-29.4-13.7s-14.6,1.9-20.5,5.2l8.8,13c3.5-2.2,7.7-3.4,12.4-3.4,7.5,0,13.4,3,17.7,9.1h0Z"/>
  <path class="st1" d="M300.3,89.3c0-21.9-15-40.2-39.6-40.2s-39.4,18.3-39.4,40.2,15.1,40.4,39.4,40.4,13.5-1.6,18.9-4.3l-8.7-12.9c-2.9,1.5-6.3,2.4-10.2,2.4-14.1,0-22.1-11.9-22.1-25.6s8-25.4,22.1-25.4,22.3,11.9,22.3,25.4-2.2,13.9-6.4,18.6l9.1,13.5c9.3-7.4,14.6-19.1,14.6-32.1Z"/>
  <path class="st1" d="M405.9,114.9c-4.8,0-7.3-3.8-7.3-9.1v-40.2h15.6v-14.6h-15.6c0,.1-16.6-21-16.6-21v21h-12.7v14.6h12.7v44.4c0,12.7,6.8,19.7,19.7,19.7s12.7-2.1,15.7-4.9l-4-12.6c-1.3,1.4-4.3,2.7-7.5,2.7h0Z"/>
  <path class="st1" d="M463.5,49.1c-8.5,0-16.1,2.5-22.3,6.8l8,11.9c3.4-3,8.1-5,14.2-5,15.1,0,21.3,11.3,21.6,20.4h-43.2c.3-3.1,1.2-6.3,2.7-9.3l-8.9-13.2c-7,7.3-11.1,17.4-11.1,28.6,0,24.3,17.2,40.4,40.2,40.4s23.5-3.8,31.2-11.1l-7.6-11c-5.4,5.4-14.3,8.4-21.8,8.4-14.5,0-23.2-9.6-24.5-21.1h59.3v-4c0-24.2-14.8-41.8-37.8-41.8Z"/>
  <polygon class="st1" points="579.5 50.8 560.7 50.8 547.2 70 556.6 83 579.5 50.8"/>
  <polygon class="st1" points="524.2 50.8 505.4 50.8 532 88.2 503.7 127.7 522.5 127.7 542.4 99.4 562.5 127.7 579.5 127.7 542.4 76.9 524.2 50.8"/>
  <path class="st1" d="M317.1,127.8h16.7v-52.3s.2-.2.3-.3l-17-23.6v76.2h0Z"/>
  <path class="st1" d="M334.2,61.9l5.7,7.9c4.2-2.7,9.4-4.5,13.7-4.5s3.8.1,5.3.5v-16.5c-9.8,0-18.9,5.5-24.6,12.6h0Z"/>
</svg>
