<svg width="31" height="16" viewBox="0 0 31 16" fill="none" xmlns="http://www.w3.org/2000/svg">
<g clip-path="url(#clip0_265_3090)">
<path fill-rule="evenodd" clip-rule="evenodd" d="M27.2 6.39994C26.4903 6.4003 25.8006 6.16472 25.2394 5.73026C24.6783 5.2958 24.2774 4.68711 24.1 3.99994H20.433C20.0543 4 19.6879 4.13438 19.3989 4.3792C19.11 4.62401 18.9173 4.96338 18.855 5.33694L18.723 6.12694C18.6018 6.85222 18.2346 7.51364 17.683 7.99994C18.2348 8.48649 18.6021 9.1483 18.723 9.87394L18.855 10.6629C18.9173 11.0365 19.11 11.3759 19.3989 11.6207C19.6879 11.8655 20.0543 11.9999 20.433 11.9999H20.901C21.0968 11.2468 21.5603 10.5908 22.2047 10.1546C22.8491 9.71839 23.6303 9.53187 24.4023 9.62991C25.1743 9.72795 25.8841 10.1038 26.399 10.6873C26.9139 11.2707 27.1987 12.0218 27.2 12.7999C27.2015 13.5799 26.9182 14.3336 26.4031 14.9193C25.8881 15.505 25.1769 15.8825 24.4031 15.9807C23.6294 16.079 22.8464 15.8913 22.2013 15.4529C21.5562 15.0145 21.0935 14.3555 20.9 13.5999H20.433C19.6756 13.5998 18.9428 13.3311 18.3649 12.8414C17.787 12.3518 17.4015 11.6731 17.277 10.9259L17.145 10.1369C17.0828 9.76338 16.89 9.42401 16.6011 9.1792C16.3121 8.93438 15.9457 8.8 15.567 8.79994H14.299C14.1214 9.48674 13.7206 10.0951 13.1596 10.5294C12.5987 10.9637 11.9094 11.1993 11.2 11.1993C10.4906 11.1993 9.80129 10.9637 9.24036 10.5294C8.67943 10.0951 8.27866 9.48674 8.10101 8.79994H6.29901C6.1032 9.55307 5.63975 10.2091 4.99533 10.6453C4.35091 11.0815 3.56967 11.268 2.7977 11.17C2.02573 11.0719 1.31592 10.696 0.800999 10.1126C0.286083 9.52914 0.00133389 8.77811 6.20563e-06 7.99994C-0.00152906 7.21998 0.281849 6.46631 0.796882 5.88058C1.31191 5.29485 2.02314 4.91739 2.79689 4.81913C3.57064 4.72088 4.35363 4.9086 4.99871 5.34702C5.6438 5.78543 6.10655 6.44435 6.30001 7.19994H8.10001C8.27697 6.51226 8.67758 5.90293 9.23878 5.46787C9.79998 5.0328 10.4899 4.79669 11.2 4.79669C11.9101 4.79669 12.6 5.0328 13.1612 5.46787C13.7224 5.90293 14.123 6.51226 14.3 7.19994H15.567C15.9457 7.19988 16.3121 7.0655 16.6011 6.82068C16.89 6.57587 17.0828 6.2365 17.145 5.86294L17.277 5.07294C17.4017 4.326 17.7873 3.6475 18.3652 3.15807C18.943 2.66865 19.6757 2.40001 20.433 2.39994H24.101C24.2968 1.64681 24.7603 0.990799 25.4047 0.554594C26.0491 0.11839 26.8303 -0.0681329 27.6023 0.0299103C28.3743 0.127953 29.0841 0.503848 29.599 1.08729C30.1139 1.67074 30.3987 2.42177 30.4 3.19994C30.4 4.04863 30.0629 4.86257 29.4627 5.46268C28.8626 6.0628 28.0487 6.39994 27.2 6.39994ZM27.2 4.79994C27.6244 4.79994 28.0313 4.63137 28.3314 4.33131C28.6314 4.03125 28.8 3.62429 28.8 3.19994C28.8 2.77559 28.6314 2.36863 28.3314 2.06857C28.0313 1.76851 27.6244 1.59994 27.2 1.59994C26.7757 1.59994 26.3687 1.76851 26.0686 2.06857C25.7686 2.36863 25.6 2.77559 25.6 3.19994C25.6 3.62429 25.7686 4.03125 26.0686 4.33131C26.3687 4.63137 26.7757 4.79994 27.2 4.79994ZM3.20001 9.59994C3.62435 9.59994 4.03132 9.43137 4.33138 9.13131C4.63144 8.83125 4.80001 8.42429 4.80001 7.99994C4.80001 7.57559 4.63144 7.16863 4.33138 6.86857C4.03132 6.56851 3.62435 6.39994 3.20001 6.39994C2.77566 6.39994 2.36869 6.56851 2.06864 6.86857C1.76858 7.16863 1.60001 7.57559 1.60001 7.99994C1.60001 8.42429 1.76858 8.83125 2.06864 9.13131C2.36869 9.43137 2.77566 9.59994 3.20001 9.59994ZM12.8 7.99994C12.8 8.21006 12.7586 8.41811 12.6782 8.61223C12.5978 8.80636 12.48 8.98274 12.3314 9.13131C12.1828 9.27989 12.0064 9.39774 11.8123 9.47815C11.6182 9.55856 11.4101 9.59994 11.2 9.59994C10.9899 9.59994 10.7818 9.55856 10.5877 9.47815C10.3936 9.39774 10.2172 9.27989 10.0686 9.13131C9.92006 8.98274 9.80221 8.80636 9.7218 8.61223C9.64139 8.41811 9.60001 8.21006 9.60001 7.99994C9.60001 7.57559 9.76858 7.16863 10.0686 6.86857C10.3687 6.56851 10.7757 6.39994 11.2 6.39994C11.6244 6.39994 12.0313 6.56851 12.3314 6.86857C12.6314 7.16863 12.8 7.57559 12.8 7.99994ZM25.6 12.7999C25.6 13.0101 25.5586 13.2181 25.4782 13.4122C25.3978 13.6064 25.28 13.7827 25.1314 13.9313C24.9828 14.0799 24.8064 14.1977 24.6123 14.2781C24.4182 14.3586 24.2101 14.3999 24 14.3999C23.7899 14.3999 23.5818 14.3586 23.3877 14.2781C23.1936 14.1977 23.0172 14.0799 22.8686 13.9313C22.7201 13.7827 22.6022 13.6064 22.5218 13.4122C22.4414 13.2181 22.4 13.0101 22.4 12.7999C22.4 12.3756 22.5686 11.9686 22.8686 11.6686C23.1687 11.3685 23.5757 11.1999 24 11.1999C24.4244 11.1999 24.8313 11.3685 25.1314 11.6686C25.4314 11.9686 25.6 12.3756 25.6 12.7999Z" fill="#EA4B71"/>
</g>
<defs>
<clipPath id="clip0_265_3090">
<rect width="31" height="16" fill="white"/>
</clipPath>
</defs>
</svg>
