<svg id="Group_25248" data-name="Group 25248" xmlns="http://www.w3.org/2000/svg" width="595.016"
	height="158.938" viewBox="0 0 595.016 158.938">
	<g id="Group_25250" data-name="Group 25250">
		<path id="Path_35968" data-name="Path 35968"
			d="M15.291,230.877H15.08L4.748,210.5H.192v26.552H2.157v-21.6h.3l11.018,21.6h.913l10.885-21.747h.153v21.747h4.48V210.5H25.43Zm20.531-13.549v19.724h4.04v-20.89H38.681Zm3.63-10.634a2.382,2.382,0,0,0-.744-.437,2.487,2.487,0,0,0-.9-.159,2.444,2.444,0,0,0-.9.159,2.484,2.484,0,0,0-.735.437,2.3,2.3,0,0,0-.505.647,1.758,1.758,0,0,0,0,1.587,2.22,2.22,0,0,0,.505.647,2.391,2.391,0,0,0,.735.438,2.5,2.5,0,0,0,.9.164,2.54,2.54,0,0,0,.9-.164,2.3,2.3,0,0,0,.744-.438,2.1,2.1,0,0,0,.5-.647,1.744,1.744,0,0,0,0-1.587,2.169,2.169,0,0,0-.5-.647M60.46,217.973a5.134,5.134,0,0,0-1.639-1.322,4.319,4.319,0,0,0-2.012-.488,8.771,8.771,0,0,0-4.08,1.038,13.675,13.675,0,0,0-3.85,3.117v-3.736H44.82v20.471h4.058V221.879a13.732,13.732,0,0,1,1.43-1.206,12.374,12.374,0,0,1,1.489-.938,7.936,7.936,0,0,1,1.465-.6,4.96,4.96,0,0,1,1.374-.207,2.972,2.972,0,0,1,2.346,1.045,4.548,4.548,0,0,1,.916,3.072v14.007h4.078v-14.7a7,7,0,0,0-.408-2.409,6.546,6.546,0,0,0-1.107-1.974m10.011-11.278a2.508,2.508,0,0,0-1.653-.6,2.446,2.446,0,0,0-1.628.6,2.239,2.239,0,0,0-.507.647,1.744,1.744,0,0,0,0,1.587,2.16,2.16,0,0,0,.507.647,2.353,2.353,0,0,0,.732.438,2.493,2.493,0,0,0,.9.164,2.567,2.567,0,0,0,.909-.164,2.424,2.424,0,0,0,.744-.438,2.215,2.215,0,0,0,.5-.647,1.712,1.712,0,0,0,0-1.587,2.3,2.3,0,0,0-.5-.647m-3.633,10.634v19.724h4.039v-20.89H69.693Zm21.5,10.053a9.107,9.107,0,0,0-1.906-1.286q-1.065-.554-2.19-1.039c-.748-.328-1.482-.644-2.194-.954a13.065,13.065,0,0,1-1.908-1.02,5.359,5.359,0,0,1-1.352-1.239,2.624,2.624,0,0,1-.513-1.6,2.035,2.035,0,0,1,.287-1.047,2.74,2.74,0,0,1,.794-.871,4.253,4.253,0,0,1,1.245-.588,5.508,5.508,0,0,1,1.582-.219,5.577,5.577,0,0,1,3.08.932,8.759,8.759,0,0,1,2.6,2.841l1.486-1.336a13.349,13.349,0,0,0-1.76-1.944,7.7,7.7,0,0,0-1.7-1.153,6.277,6.277,0,0,0-1.741-.552,11.992,11.992,0,0,0-1.908-.143,8.932,8.932,0,0,0-2.811.426,6.808,6.808,0,0,0-2.21,1.2,5.54,5.54,0,0,0-1.453,1.81,5.069,5.069,0,0,0-.522,2.285,5.2,5.2,0,0,0,.466,2.281,5.82,5.82,0,0,0,1.238,1.695,9.32,9.32,0,0,0,1.765,1.3c.661.374,1.328.72,2.011,1.047s1.351.638,2.012.943a10.212,10.212,0,0,1,1.764,1.02,5.115,5.115,0,0,1,1.24,1.257,2.863,2.863,0,0,1,.465,1.631,2.384,2.384,0,0,1-.286,1.126,3.155,3.155,0,0,1-.791.975,4.083,4.083,0,0,1-1.211.672,4.461,4.461,0,0,1-1.543.259,5.9,5.9,0,0,1-1.631-.219,5.406,5.406,0,0,1-1.448-.687,8.341,8.341,0,0,1-1.382-1.2,17.634,17.634,0,0,1-1.428-1.785L74.825,233.7a10.406,10.406,0,0,0,1.875,1.949,8.724,8.724,0,0,0,1.929,1.149,7.672,7.672,0,0,0,1.906.553,11.875,11.875,0,0,0,1.839.146,11.161,11.161,0,0,0,3.442-.482,6.968,6.968,0,0,0,2.449-1.3,5.246,5.246,0,0,0,1.458-1.964,6.059,6.059,0,0,0,.488-2.43,4.635,4.635,0,0,0-.517-2.243,5.984,5.984,0,0,0-1.354-1.693m14.88,7.2a2.349,2.349,0,0,1-1.248.336,2.167,2.167,0,0,1-.865-.172,2.121,2.121,0,0,1-.7-.465,2.1,2.1,0,0,1-.472-.7,2.151,2.151,0,0,1-.17-.856V218.3h4.593v-1.715H99.76v-7H98.6q-.305,1.564-.707,2.956a8.631,8.631,0,0,1-1.1,2.449,5.221,5.221,0,0,1-1.812,1.679,5.726,5.726,0,0,1-2.821.62V218.3H95.7v14.432a7.418,7.418,0,0,0,.239,1.944,4.216,4.216,0,0,0,.733,1.511,3.373,3.373,0,0,0,1.247.967,4.3,4.3,0,0,0,1.784.346,6.308,6.308,0,0,0,3.337-.824,6.155,6.155,0,0,0,2.174-2.232l-1.011-.684a3.7,3.7,0,0,1-.984.827M119.8,216.9a3.578,3.578,0,0,0-1-.537,3.84,3.84,0,0,0-1.238-.2,4,4,0,0,0-1.612.342,6.969,6.969,0,0,0-1.536.936,10.646,10.646,0,0,0-1.429,1.374,17.346,17.346,0,0,0-1.276,1.636v-3.869H107.67v20.471h4.041V222.873q.418-.69.84-1.268a9.307,9.307,0,0,1,.828-1.012,3.9,3.9,0,0,1,.818-.667,1.59,1.59,0,0,1,.812-.238,2.2,2.2,0,0,1,.856.143c.23.095.456.206.679.322a4.875,4.875,0,0,0,.744.328,3.465,3.465,0,0,0,1.1.14,2.643,2.643,0,0,0,1.726-.506,1.817,1.817,0,0,0,.618-1.493,1.885,1.885,0,0,0-.25-.943,2.483,2.483,0,0,0-.675-.783m14.023,14.479L125.915,216.6h-4.632l10.485,19.5-1.375,3.072c-.165.364-.346.765-.553,1.2a6.964,6.964,0,0,1-.706,1.189,4.075,4.075,0,0,1-.894.905,1.829,1.829,0,0,1-1.125.364,2.462,2.462,0,0,1-.932-.142,5.623,5.623,0,0,1-.651-.324,4.013,4.013,0,0,0-.676-.325,2.942,2.942,0,0,0-1.019-.141,2.551,2.551,0,0,0-1,.188,2.464,2.464,0,0,0-.76.495,2.182,2.182,0,0,0-.489.716,2.124,2.124,0,0,0-.172.831,1.855,1.855,0,0,0,.259.954,2.433,2.433,0,0,0,.706.75,3.321,3.321,0,0,0,1.046.485,4.574,4.574,0,0,0,1.269.172,6.016,6.016,0,0,0,1.979-.35,7.391,7.391,0,0,0,1.975-1.07,9.538,9.538,0,0,0,1.821-1.817,12.442,12.442,0,0,0,1.525-2.612L142.443,216.6H140.27Zm40.32-12.288a10.639,10.639,0,0,0-3.427-2.141,11.553,11.553,0,0,0-4.314-.783,10.831,10.831,0,0,0-4.336.859,10.479,10.479,0,0,0-3.43,2.334,10.623,10.623,0,0,0-2.252,3.468,11.2,11.2,0,0,0-.81,4.259,10.192,10.192,0,0,0,.81,4.053,10.083,10.083,0,0,0,2.252,3.3,10.45,10.45,0,0,0,3.43,2.232,11.235,11.235,0,0,0,4.336.824,10.3,10.3,0,0,0,4.314-.889,10.715,10.715,0,0,0,3.427-2.418A11.194,11.194,0,0,0,176.4,230.6a11.85,11.85,0,0,0,.81-4.379,9.66,9.66,0,0,0-.81-3.934,9.855,9.855,0,0,0-2.257-3.206m-1.908,12.191a8.006,8.006,0,0,1-1.135,2.434,5.882,5.882,0,0,1-1.732,1.657,4.113,4.113,0,0,1-2.2.622,5.372,5.372,0,0,1-2.975-.851,7.116,7.116,0,0,1-2.21-2.307,11.717,11.717,0,0,1-1.372-3.419,17.78,17.78,0,0,1-.48-4.2,9.53,9.53,0,0,1,.44-2.914,8.639,8.639,0,0,1,1.171-2.4,5.907,5.907,0,0,1,1.689-1.621,3.7,3.7,0,0,1,1.984-.592,6.381,6.381,0,0,1,3.372.829,6.488,6.488,0,0,1,2.232,2.28,10.641,10.641,0,0,1,1.236,3.38,21.345,21.345,0,0,1,.383,4.166,10.547,10.547,0,0,1-.4,2.935m23.18-24.16a6.017,6.017,0,0,0-1.782-.745,9.667,9.667,0,0,0-2.41-.274,7.094,7.094,0,0,0-2.974.627,7.552,7.552,0,0,0-2.422,1.726,8.2,8.2,0,0,0-1.631,2.572,8.311,8.311,0,0,0-.6,3.152v2.405h-4.287V218.3H183.6v18.756h4.08V218.3h5.472v-1.715h-5.472v-4.86a5.6,5.6,0,0,1,.208-1.525,4.683,4.683,0,0,1,.584-1.318,3.159,3.159,0,0,1,.9-.921,2,2,0,0,1,1.132-.358,2.237,2.237,0,0,1,1.229.287,1.946,1.946,0,0,1,.661.728,4.2,4.2,0,0,1,.35.94,5.109,5.109,0,0,0,.333.946,1.932,1.932,0,0,0,.6.724,1.892,1.892,0,0,0,1.133.284,2.429,2.429,0,0,0,.8-.131,2,2,0,0,0,.669-.38,1.792,1.792,0,0,0,.629-1.414,2.618,2.618,0,0,0-.379-1.36,3.384,3.384,0,0,0-1.108-1.106M226.68,222.6H213.338V210.5h-4.461v26.552h4.461V224.321H226.68v12.731h4.464V210.5H226.68Zm26.818,8.63a7.843,7.843,0,0,1-1.688,1.6,8.995,8.995,0,0,1-2.216,1.124,7.655,7.655,0,0,1-2.556.429,5.987,5.987,0,0,1-2.913-.726,6.983,6.983,0,0,1-2.289-2,9.675,9.675,0,0,1-1.486-3.041,13.1,13.1,0,0,1-.534-3.824h15.269a8.24,8.24,0,0,0-.668-3.275,8.519,8.519,0,0,0-1.868-2.756,9.054,9.054,0,0,0-2.879-1.9,9.428,9.428,0,0,0-3.7-.7,9.727,9.727,0,0,0-4.126.859,9.29,9.29,0,0,0-3.175,2.378,11,11,0,0,0-2.038,3.628,13.823,13.823,0,0,0-.722,4.555,9.483,9.483,0,0,0,.791,3.86,9.883,9.883,0,0,0,2.152,3.141,10.122,10.122,0,0,0,3.184,2.125,9.741,9.741,0,0,0,3.9.787,8.642,8.642,0,0,0,3.139-.6,10.973,10.973,0,0,0,2.854-1.629,11.608,11.608,0,0,0,2.291-2.411,9.47,9.47,0,0,0,1.42-2.965l-1.164-.512a5.888,5.888,0,0,1-.978,1.858m-13.138-10.258a6.182,6.182,0,0,1,1.087-1.726,5.08,5.08,0,0,1,1.508-1.143,3.961,3.961,0,0,1,1.763-.419,5.156,5.156,0,0,1,2.065.419,5.252,5.252,0,0,1,1.678,1.15,5.459,5.459,0,0,1,1.128,1.739,5.726,5.726,0,0,1,.407,2.164l-10.159-.019a6.786,6.786,0,0,1,.523-2.165m32.55-3.325a6.141,6.141,0,0,0-2.248-1.1,14.345,14.345,0,0,0-6.578-.017,10.08,10.08,0,0,0-2.632,1.009,5.91,5.91,0,0,0-1.793,1.516,3.075,3.075,0,0,0-.667,1.887,2.827,2.827,0,0,0,.154.952,2.314,2.314,0,0,0,.438.76,2.053,2.053,0,0,0,.678.508,2.077,2.077,0,0,0,.866.181,1.964,1.964,0,0,0,1-.228,1.715,1.715,0,0,0,.617-.6,2.361,2.361,0,0,0,.316-.867,5.816,5.816,0,0,0,.086-1.031,5,5,0,0,1,.133-1.133,2.381,2.381,0,0,1,.507-1,2.539,2.539,0,0,1,1.018-.7,4.437,4.437,0,0,1,1.68-.268,5,5,0,0,1,1.647.258,2.861,2.861,0,0,1,1.251.847,4.038,4.038,0,0,1,.794,1.553,8.738,8.738,0,0,1,.272,2.357v1.276c-.915.231-1.849.473-2.81.742s-1.894.573-2.793.915a22.089,22.089,0,0,0-2.566,1.162,10.174,10.174,0,0,0-2.113,1.486,6.509,6.509,0,0,0-1.432,1.9,5.275,5.275,0,0,0-.525,2.375,5.491,5.491,0,0,0,.364,2.02,4.492,4.492,0,0,0,1.049,1.617,4.814,4.814,0,0,0,1.658,1.08,5.731,5.731,0,0,0,2.17.393,8.11,8.11,0,0,0,2.279-.292,8.48,8.48,0,0,0,1.791-.776,11.581,11.581,0,0,0,1.507-1.051c.463-.376.94-.754,1.42-1.124v2.8h4.082V221.593a6.319,6.319,0,0,0-.382-2.229,4.03,4.03,0,0,0-1.241-1.715m-2.46,15.117c-.407.3-.8.594-1.194.87a10.643,10.643,0,0,1-1.157.711,6.657,6.657,0,0,1-1.2.488,4.5,4.5,0,0,1-1.31.181,2.8,2.8,0,0,1-1.247-.3,3.484,3.484,0,0,1-1.061-.8,3.994,3.994,0,0,1-.733-1.181,3.67,3.67,0,0,1-.274-1.419,2.875,2.875,0,0,1,.359-1.392,5.258,5.258,0,0,1,.983-1.26,9.613,9.613,0,0,1,1.44-1.112,17.641,17.641,0,0,1,1.727-.971c.6-.3,1.219-.57,1.849-.814s1.234-.455,1.818-.645Zm9.706-25.508v29.794h4.058V206.1h-1.164Zm17.927,27.325a2.367,2.367,0,0,1-1.249.336,2.234,2.234,0,0,1-1.571-.637,2.18,2.18,0,0,1-.638-1.554V218.3h4.594v-1.715h-4.594v-7H293.46c-.2,1.043-.44,2.027-.7,2.956a8.8,8.8,0,0,1-1.106,2.449,5.238,5.238,0,0,1-1.812,1.679,5.731,5.731,0,0,1-2.821.62V218.3h3.548v14.432a7.6,7.6,0,0,0,.234,1.944,4.274,4.274,0,0,0,.733,1.511,3.344,3.344,0,0,0,1.25.967,4.263,4.263,0,0,0,1.783.346,6.3,6.3,0,0,0,3.336-.824,6.161,6.161,0,0,0,2.175-2.232l-1.011-.684a3.708,3.708,0,0,1-.982.827m21.187-14.636a6.324,6.324,0,0,0-1.1-1.974,5.191,5.191,0,0,0-1.639-1.322,4.3,4.3,0,0,0-2.009-.488,8.766,8.766,0,0,0-4.082,1.038,13.735,13.735,0,0,0-3.851,3.117V206.1h-1.161l-2.9,1.16v29.794h4.057V221.879a14.431,14.431,0,0,1,1.417-1.206,12.292,12.292,0,0,1,1.479-.938,8.027,8.027,0,0,1,1.472-.6,4.942,4.942,0,0,1,1.37-.207,2.99,2.99,0,0,1,2.363,1.045,4.542,4.542,0,0,1,.918,3.072v14.007h4.06v-14.7a7.147,7.147,0,0,0-.4-2.409"
			transform="translate(-0.082 -87.553)" fill="#907f4a" />
		<path id="Path_35969" data-name="Path 35969"
			d="M157.914,127.3H143.492l.153-.888a42.766,42.766,0,0,0,.645-6.661c0-8.848-3.912-19.179-14.941-19.179-3.777,0-7.426,1.7-10.439,3.83a33.547,33.547,0,0,0-8.856,8.938c-2.616,4-4.592,8.472-6.817,12.7q-.336.634-.664,1.262h-.228v-17.06h-4.48V127.3H84.812v-1.7c0-18.034-13.047-24.435-24.217-24.435H43.4v3.808c1.253-.093,15.879-.133,16.618-.133,12.475,0,19.959,8.108,20.027,21.7l0,.763H24.853V98.572c-1.31-.153-3.638-.259-4.653-.259-8.148,0-20.2,5.859-20.2,18.446a13.106,13.106,0,0,0,4.4,10.263,15.772,15.772,0,0,0,10.4,3.586h1.424l2.844-3.043.243-.265H16.037c-6.692,0-11.194-4.325-11.194-10.761a13.811,13.811,0,0,1,5.281-11.326,15.069,15.069,0,0,1,8.691-3.223h1.558v28.618H162.394V79.4h-4.48Zm-18.928-.571-.14.571H106.866l.207-.921c2.792-12.461,13.99-22.128,21.765-22.128,2.5,0,10.68,1.175,10.68,16.3a31.135,31.135,0,0,1-.533,6.176m37.548,3.879h4.478V79.4h-4.478Zm-164.76-39.4a3.406,3.406,0,1,0-3.4-3.405,3.4,3.4,0,0,0,3.4,3.405m203.3.033a3.405,3.405,0,1,0-3.4-3.405,3.405,3.405,0,0,0,3.4,3.405M21.958,91.209A3.406,3.406,0,1,0,18.552,87.8a3.4,3.4,0,0,0,3.407,3.405m239.477,39.4h4.475V79.4h-4.475Zm-58.184-13.485c0,7.682,6.36,13.485,14.793,13.485H228.1V98.572a32.73,32.73,0,0,0-4.362-.259c-11.488,0-20.488,8.261-20.488,18.81M223.623,127.3h-4.262c-7.783,0-11.266-5.406-11.266-10.761,0-9.449,7.158-14.549,13.9-14.549h1.632Zm59.763-42.869a3.405,3.405,0,1,0,3.406,3.406,3.4,3.4,0,0,0-3.406-3.406m33.077,14.9c-11.659,0-20.79,7.945-20.79,18.089,0,9.677,8.5,13.19,14.215,13.19.793,0,1.362-.014,1.688-.041l2.228-2.285.951-.981h-2.97c-5.644,0-11.339-3.214-11.339-10.393,0-6.423,5.942-13.609,13.9-13.609h.755V131.29c0,5.361-1,10.322-8.275,10.322a14.739,14.739,0,0,1-2.3-.234l-.568,3.42a19.686,19.686,0,0,0,4.036.339c3.485,0,11.584-1.165,11.584-11.947v-33.6a22.536,22.536,0,0,0-3.112-.263m-35.313,34.08c0,5.874-2.36,8.27-8.129,8.27a15.236,15.236,0,0,1-2.227-.227l-.563,3.585a23.027,23.027,0,0,0,4.026.321c3.419,0,11.368-1.031,11.368-10.567V103.13H281.15ZM225.256,84.431a3.405,3.405,0,1,0,3.4,3.406,3.4,3.4,0,0,0-3.4-3.406m18,48.979c0,5.874-2.356,8.27-8.132,8.27a15.309,15.309,0,0,1-2.223-.227l-.565,3.585a23.09,23.09,0,0,0,4.034.321c3.413,0,11.358-1.031,11.358-10.567V103.13H243.26Z"
			transform="translate(0 -33.731)" fill="#007443" />
		<g id="Group_25251" data-name="Group 25251">
			<path id="Path_35963" data-name="Path 35963"
				d="M859.72,148.007c-2.468,1.491-4.957,3.137-6.246,4.032-4.019,2.794-8.077,5.741-12.127,8.812-17.892,13.557-35.6,29.45-49.145,44.668H759.9s79.064-68.233,115.36-73.462c32.344-4.66,44.888,18.731,42.222,43.918a33.96,33.96,0,0,0-.192-9.036,32.576,32.576,0,0,0-20.411-25.158,32.878,32.878,0,0,0-14.831-2.019s-9.3.383-22.328,8.246"
				transform="translate(-322.813 -55.846)" fill="#907f4a" fill-rule="evenodd" />
			<path id="Path_35964" data-name="Path 35964"
				d="M682.61,148.007c2.469,1.491,4.955,3.137,6.247,4.032,4.02,2.794,8.079,5.741,12.127,8.812,17.894,13.557,35.607,29.45,49.145,44.668h32.3s-79.062-68.233-115.355-73.462c-32.346-4.66-44.893,18.731-42.222,43.918a33.941,33.941,0,0,1,.189-9.036,32.57,32.57,0,0,1,20.413-25.158,32.871,32.871,0,0,1,14.83-2.019s9.305.383,22.328,8.246"
				transform="translate(-265.295 -55.846)" fill="#907f4a" fill-rule="evenodd" />
			<path id="Path_35965" data-name="Path 35965"
				d="M682.309,181.589l-11.023-11.018-9.674,9.685-9.685-9.685L640.9,181.589l11.025,11.018,9.685-9.681,9.674,9.681Z"
				transform="translate(-272.262 -72.46)" fill="#007443" />
			<path id="Path_35966" data-name="Path 35966"
				d="M842.677,27.1a38.487,38.487,0,0,0-3.058-5.737A39.1,39.1,0,0,0,793.88,5.658C792.9,2.082,792.136,0,792.136,0s-.78,2.082-1.753,5.658A39.065,39.065,0,0,0,741.594,27.1a39.092,39.092,0,0,1,26.7-12.673,39.056,39.056,0,0,0-15.264,30.994,38.663,38.663,0,0,0,.54,6.483,39.174,39.174,0,0,1,18.276-26.93,39.119,39.119,0,0,0,2.064,38.8,39.667,39.667,0,0,0,3.977,5.154,39.1,39.1,0,0,1,8.984-43.816c-.268,2.91-.434,5.972-.434,9.129a109.176,109.176,0,0,0,5.7,34.248,109.3,109.3,0,0,0,5.69-34.248c0-3.157-.155-6.219-.425-9.129a39.106,39.106,0,0,1,8.979,43.816,38.512,38.512,0,0,0,3.973-5.154,39.1,39.1,0,0,0,2.061-38.8A39.108,39.108,0,0,1,830.7,51.906,39.144,39.144,0,0,0,815.97,14.429,39.111,39.111,0,0,1,842.677,27.1"
				transform="translate(-315.037)" fill="#007443" />
			<path id="Path_35967" data-name="Path 35967"
				d="M760.675,147.908s28.118-40.569,77.531,12.056c46.541,49.559,63.993,41.2,77.232,25.46a22.469,22.469,0,0,1-1.9,3.785c-.918,1.44-1.456,2.262-1.645,2.519-6.578,8.833-15.975,14.317-27.538,14.438-14.819.153-33.2-8.735-53.782-31.485-45.8-50.613-69.9-26.772-69.9-26.772"
				transform="translate(-323.143 -56.491)" fill="#007443" fill-rule="evenodd" />
			<rect id="Rectangle_15516" data-name="Rectangle 15516" width="595.016" height="158.938"
				fill="none" />
		</g>
	</g>
</svg>