<svg width="22" height="9" viewBox="0 0 22 9" fill="none" xmlns="http://www.w3.org/2000/svg">
<g clip-path="url(#clip0_265_3092)">
<path fill-rule="evenodd" clip-rule="evenodd" d="M12.635 3.99V3.914C13.193 3.634 13.7511 3.152 13.7511 2.198C13.7511 0.826 12.6211 0 11.0611 0C9.46305 0 8.32105 0.877 8.32105 2.224C8.32105 3.139 8.85405 3.634 9.43705 3.914V3.99C9.01601 4.14349 8.65313 4.42414 8.39871 4.79306C8.14428 5.16198 8.0109 5.6009 8.01705 6.049C8.01705 7.434 9.15805 8.4 11.0491 8.4C12.9391 8.4 14.0431 7.434 14.0431 6.049C14.0501 5.60233 13.9185 5.16447 13.6663 4.79572C13.4141 4.42697 13.0538 4.14547 12.635 3.99ZM11.0481 1.17C11.6831 1.17 12.1521 1.576 12.1521 2.262C12.1521 2.948 11.6701 3.355 11.0491 3.355C10.4271 3.355 9.90705 2.948 9.90705 2.262C9.90705 1.563 10.4021 1.169 11.0491 1.169M11.0491 7.179C10.3141 7.179 9.71705 6.709 9.71705 5.909C9.71705 5.184 10.212 4.637 11.037 4.637C11.849 4.637 12.344 5.171 12.344 5.934C12.344 6.709 11.7721 7.179 11.0491 7.179Z" fill="#101330"/>
<path d="M16 8.27199H17.624V4.82999C17.624 3.69899 18.309 3.20299 19.084 3.20299C19.844 3.20299 20.441 3.71199 20.441 4.75299V8.27299H22.065V4.42199C22.065 2.75799 21.101 1.79199 19.591 1.79199C18.639 1.79199 18.106 2.17299 17.726 2.66899H17.624L17.484 1.91899H16V8.27199ZM1.624 8.27199H0V1.91999H1.485L1.625 2.66999H1.725C2.106 2.17399 2.639 1.79299 3.591 1.79299C5.101 1.79299 6.065 2.75899 6.065 4.42299V8.27299H4.441V4.75199C4.441 3.71099 3.845 3.20199 3.083 3.20199C2.309 3.20199 1.624 3.69799 1.624 4.82899V8.27199Z" fill="#101330"/>
</g>
<defs>
<clipPath id="clip0_265_3092">
<rect width="22" height="9" fill="white"/>
</clipPath>
</defs>
</svg>
