<svg width="26" height="26" viewBox="0 0 26 26" fill="none" xmlns="http://www.w3.org/2000/svg">
<path fill-rule="evenodd" clip-rule="evenodd" d="M15.002 12.99V12.914C15.56 12.634 16.118 12.152 16.118 11.198C16.118 9.826 14.988 9 13.428 9C11.83 9 10.688 9.877 10.688 11.224C10.688 12.139 11.221 12.634 11.804 12.914V12.99C11.383 13.1435 11.0201 13.4241 10.7656 13.7931C10.5112 14.162 10.3778 14.6009 10.384 15.049C10.384 16.434 11.525 17.4 13.416 17.4C15.306 17.4 16.41 16.434 16.41 15.049C16.417 14.6023 16.2854 14.1645 16.0332 13.7957C15.7811 13.427 15.4208 13.1455 15.002 12.99ZM13.415 10.17C14.05 10.17 14.519 10.576 14.519 11.262C14.519 11.948 14.037 12.355 13.416 12.355C12.794 12.355 12.274 11.948 12.274 11.262C12.274 10.563 12.769 10.169 13.416 10.169M13.416 16.179C12.681 16.179 12.084 15.709 12.084 14.909C12.084 14.184 12.579 13.637 13.404 13.637C14.216 13.637 14.711 14.171 14.711 14.934C14.711 15.709 14.139 16.179 13.416 16.179Z" fill="#101330"/>
<path d="M18.3672 17.272H19.9912V13.83C19.9912 12.699 20.6762 12.203 21.4512 12.203C22.2112 12.203 22.8082 12.712 22.8082 13.753V17.273H24.4322V13.422C24.4322 11.758 23.4682 10.792 21.9582 10.792C21.0062 10.792 20.4732 11.173 20.0932 11.669H19.9912L19.8512 10.919H18.3672V17.272ZM3.99119 17.272H2.36719V10.92H3.85219L3.99219 11.67H4.09219C4.47319 11.174 5.00619 10.793 5.95819 10.793C7.46819 10.793 8.43219 11.759 8.43219 13.423V17.273H6.80819V13.752C6.80819 12.711 6.21219 12.202 5.45019 12.202C4.67619 12.202 3.99119 12.698 3.99119 13.829V17.272Z" fill="#101330"/>
</svg>
