<svg xmlns="http://www.w3.org/2000/svg" width="42" height="26" viewBox="0 0 235.808 149.676">
  <g id="Group_25252" data-name="Group 25252" transform="translate(-359.207)">
    <path id="Path_35963" data-name="Path 35963" d="M859.72,148.007c-2.468,1.491-4.957,3.137-6.246,4.032-4.019,2.794-8.077,5.741-12.127,8.812-17.892,13.557-35.6,29.45-49.145,44.668H759.9s79.064-68.233,115.36-73.462c32.344-4.66,44.888,18.731,42.222,43.918a33.96,33.96,0,0,0-.192-9.036,32.576,32.576,0,0,0-20.411-25.158,32.878,32.878,0,0,0-14.831-2.019s-9.3.383-22.328,8.246" transform="translate(-322.813 -55.846)" fill="var(--color--logo--fill-color,#907f4a)" fill-rule="evenodd"/>
    <path id="Path_35964" data-name="Path 35964" d="M682.61,148.007c2.469,1.491,4.955,3.137,6.247,4.032,4.02,2.794,8.079,5.741,12.127,8.812,17.894,13.557,35.607,29.45,49.145,44.668h32.3s-79.062-68.233-115.355-73.462c-32.346-4.66-44.893,18.731-42.222,43.918a33.941,33.941,0,0,1,.189-9.036,32.57,32.57,0,0,1,20.413-25.158,32.871,32.871,0,0,1,14.83-2.019s9.305.383,22.328,8.246" transform="translate(-265.295 -55.846)" fill="var(--color--logo--fill-color,#907f4a)" fill-rule="evenodd"/>
    <path id="Path_35965" data-name="Path 35965" d="M682.309,181.589l-11.023-11.018-9.674,9.685-9.685-9.685L640.9,181.589l11.025,11.018,9.685-9.681,9.674,9.681Z" transform="translate(-272.262 -72.46)" fill="var(--color--logo--fill-color,#007443)"/>
    <path id="Path_35966" data-name="Path 35966" d="M842.677,27.1a38.487,38.487,0,0,0-3.058-5.737A39.1,39.1,0,0,0,793.88,5.658C792.9,2.082,792.136,0,792.136,0s-.78,2.082-1.753,5.658A39.065,39.065,0,0,0,741.594,27.1a39.092,39.092,0,0,1,26.7-12.673,39.056,39.056,0,0,0-15.264,30.994,38.663,38.663,0,0,0,.54,6.483,39.174,39.174,0,0,1,18.276-26.93,39.119,39.119,0,0,0,2.064,38.8,39.667,39.667,0,0,0,3.977,5.154,39.1,39.1,0,0,1,8.984-43.816c-.268,2.91-.434,5.972-.434,9.129a109.176,109.176,0,0,0,5.7,34.248,109.3,109.3,0,0,0,5.69-34.248c0-3.157-.155-6.219-.425-9.129a39.106,39.106,0,0,1,8.979,43.816,38.512,38.512,0,0,0,3.973-5.154,39.1,39.1,0,0,0,2.061-38.8A39.108,39.108,0,0,1,830.7,51.906,39.144,39.144,0,0,0,815.97,14.429,39.111,39.111,0,0,1,842.677,27.1" transform="translate(-315.037)" fill="var(--color--logo--fill-color,#007443)"/>
    <path id="Path_35967" data-name="Path 35967" d="M760.675,147.908s28.118-40.569,77.531,12.056c46.541,49.559,63.993,41.2,77.232,25.46a22.469,22.469,0,0,1-1.9,3.785c-.918,1.44-1.456,2.262-1.645,2.519-6.578,8.833-15.975,14.317-27.538,14.438-14.819.153-33.2-8.735-53.782-31.485-45.8-50.613-69.9-26.772-69.9-26.772" transform="translate(-323.143 -56.491)" fill="var(--color--logo--fill-color,#007443)" fill-rule="evenodd"/>
  </g>
</svg>