<?xml version="1.0" encoding="UTF-8"?>
<svg width="256px" height="189px" viewBox="0 0 256 189" version="1.1" xmlns="http://www.w3.org/2000/svg" xmlns:xlink="http://www.w3.org/1999/xlink" preserveAspectRatio="xMidYMid">
    <defs>
        <linearGradient x1="50%" y1="82.7990841%" x2="50%" y2="-5.78133944%" id="linearGradient-1">
            <stop stop-color="#2684FF" offset="0%"></stop>
            <stop stop-color="#0052CC" offset="82%"></stop>
        </linearGradient>
    </defs>
    <g>
				<circle fill="url(#linearGradient-1)" cx="128" cy="128.433426" r="59.8647801"></circle>
				<path d="M1.61622537,59.2547248 L33.7997412,97.3740064 C34.9893298,98.7728467 36.6899306,99.6365583 38.5211977,99.7719689 C40.3524648,99.9073795 42.1616074,99.3031911 43.544004,98.0945328 C95.6620856,51.3632444 160.200671,51.3632444 212.455996,98.0945328 C213.838393,99.3031911 215.647535,99.9073795 217.478802,99.7719689 C219.310069,99.6365583 221.01067,98.7728467 222.200259,97.3740064 L254.383775,59.2547248 C256.815838,56.3704526 256.463336,52.0637955 253.594627,49.6133944 C178.110901,-16.5377981 78.0263424,-16.5377981 2.40537342,49.6133944 C-0.463335731,52.0637955 -0.815837919,56.3704526 1.61622537,59.2547248 Z" fill="#2684FF"></path>
		</g>
</svg>
