<?xml version="1.0" encoding="UTF-8" standalone="no"?>
<svg
   version="1.2"
   width="1920"
   height="1920"
   viewBox="0 -100 400 400"
   fill="none"
   id="svg1"
   sodipodi:docname="simple-logo.svg"
   inkscape:version="1.3.2 (091e20e, 2023-11-25, custom)"
   xmlns:inkscape="http://www.inkscape.org/namespaces/inkscape"
   xmlns:sodipodi="http://sodipodi.sourceforge.net/DTD/sodipodi-0.dtd"
   xmlns="http://www.w3.org/2000/svg"
   xmlns:svg="http://www.w3.org/2000/svg">
  <defs
     id="defs1" />
  <sodipodi:namedview
     id="namedview1"
     pagecolor="#ffffff"
     bordercolor="#000000"
     borderopacity="0.25"
     inkscape:showpageshadow="2"
     inkscape:pageopacity="0.0"
     inkscape:pagecheckerboard="0"
     inkscape:deskcolor="#d1d1d1"
     inkscape:zoom="0.24483572"
     inkscape:cx="945.53195"
     inkscape:cy="569.7698"
     inkscape:window-width="1920"
     inkscape:window-height="1027"
     inkscape:window-x="-8"
     inkscape:window-y="-3"
     inkscape:window-maximized="1"
     inkscape:current-layer="svg1" />
  <path
     d="m 337.127,157.002 -49.369,-46.7 -41.476,-0.071 V 89.865997 l 41.476,-0.071 49.369,-46.699994 a 24.86,24.86 0 0 0 9.727,1.994 c 6.058,0 12.117,-2.182 16.73,-6.546 9.221,-8.722 9.221,-22.923 0,-31.6519994 -9.227,-8.7279998 -24.232,-8.7219998 -33.46,0 -7.057,6.6769994 -8.693,16.5579994 -4.949,24.7429994 l -44.481,42.07 -34.412,0.058 v -18.267 h 18.934 l 37.554,-35.653 v -66.047999 c 8.933,-3.205 15.306,-11.358 15.306,-20.915 0,-12.342 -10.61,-22.379 -23.657,-22.379 -13.048,0 -23.658,10.037 -23.658,22.379 0,9.447 6.222,17.522 14.991,20.805 v 59.501999 l -27.6,26.205 h -12.315 l -45.988,-49.465 -45.987,49.465 h -12.02 l -27.601,-26.205 v -59.501999 c 8.769,-3.284 14.991,-11.358 14.991,-20.805 0,-12.342 -10.61,-22.379 -23.65699,-22.379 -13.048007,0 -23.658007,10.037 -23.658007,22.379 0,9.557 6.38,17.71 15.306004,20.915 v 66.041999 l 37.553993,35.653 h 18.64 v 18.267 l -34.117,-0.059 -44.467997,-42.057 a 21.3,21.3 0 0 0 1.971,-8.929 c 0,-5.977 -2.464,-11.598 -6.927,-15.8259994 -9.228,-8.7289998 -24.233,-8.7219998 -33.46,0 -9.221,8.7289994 -9.221,22.9229994 0,31.6509994 4.613,4.365 10.671,6.547 16.73,6.547 3.327,0 6.64,-0.68 9.727,-1.994 l 49.368997,46.698994 41.182,0.072 V 110.225 l -41.182,0.071 -49.368997,46.7 c -8.707,-3.711 -19.31,-2.208 -26.457,4.552 -9.221,8.729 -9.221,22.922 0,31.651 4.613,4.365 10.671,6.547 16.73,6.547 6.058,0 12.116,-2.182 16.73,-6.547 4.47,-4.228 6.927,-9.849 6.927,-15.825 0,-3.128 -0.684,-6.146 -1.971,-8.93 L 119.3,126.387 l 34.117,-0.058 v 18.182 h -18.64 l -37.553993,35.653 v 66.042 c -8.933004,3.205 -15.306004,11.358 -15.306004,20.915 0,12.342 10.61,22.379 23.658007,22.379 13.04699,0 23.65699,-10.037 23.65699,-22.379 0,-9.447 -6.229,-17.522 -14.991,-20.805 v -59.501 l 27.601,-26.206 h 12.157 l 45.85,49.309 45.851,-49.309 h 12.452 l 27.6,26.206 v 59.501 c -8.769,3.283 -14.991,11.358 -14.991,20.805 0,12.342 10.61,22.379 23.658,22.379 13.047,0 23.657,-10.037 23.657,-22.379 0,-9.557 -6.38,-17.71 -15.306,-20.915 v -66.042 l -37.554,-35.653 h -18.934 v -18.182 l 34.412,0.058 44.481,42.07 c -3.744,8.185 -2.108,18.06 4.949,24.736 4.614,4.364 10.672,6.546 16.73,6.546 6.058,0 12.117,-2.182 16.73,-6.546 9.221,-8.729 9.221,-22.923 0,-31.652 -7.146,-6.747 -17.743,-8.249 -26.457,-4.539 z m 5.031,-138.726997 c 2.588,-2.448 6.805,-2.448 9.392,0 2.588,2.448 2.588,6.437 0,8.884 -2.587,2.448 -6.804,2.448 -9.392,0 -2.587,-2.454 -2.587,-6.436 0,-8.884 z m -47.739,-91.669999 c 3.662,0 6.64,2.816 6.64,6.28 0,3.464 -2.978,6.281 -6.64,6.281 -3.663,0 -6.64,-2.817 -6.64,-6.28 0,-3.465 2.977,-6.282 6.64,-6.282 z m -188.85099,0 c 3.662,0 6.63999,2.816 6.63999,6.28 0,3.464 -2.97799,6.281 -6.63999,6.281 -3.662,0 -6.640003,-2.817 -6.640003,-6.28 0,-3.465 2.978003,-6.282 6.640003,-6.282 z M 57.828003,27.159003 c -2.588,2.448 -6.804,2.448 -9.392,0 -2.587,-2.447 -2.587,-6.436 0,-8.884 1.294,-1.224 2.998,-1.839 4.696,-1.839 1.698,0 3.402,0.609 4.696,1.839 1.253,1.185 1.944,2.765 1.944,4.442 0,1.677 -0.691,3.251 -1.944,4.442 z m 0,154.656997 c -2.588,2.447 -6.804,2.447 -9.392,0 -2.587,-2.448 -2.587,-6.437 0,-8.885 1.294,-1.223 2.998,-1.839 4.696,-1.839 1.698,0 3.402,0.609 4.696,1.839 1.253,1.185 1.944,2.765 1.944,4.443 0,1.677 -0.691,3.257 -1.944,4.442 z m 47.740007,91.586 c -3.662,0 -6.640003,-2.816 -6.640003,-6.281 0,-3.464 2.978003,-6.281 6.640003,-6.281 3.662,0 6.63999,2.817 6.63999,6.281 0,3.458 -2.97799,6.281 -6.63999,6.281 z m 188.85099,0 c -3.663,0 -6.64,-2.816 -6.64,-6.281 0,-3.464 2.977,-6.281 6.64,-6.281 3.662,0 6.64,2.817 6.64,6.281 0,3.458 -2.978,6.281 -6.64,6.281 z M 170.428,153.901 V 45.951003 l 29.421,-31.645 29.422,31.645 V 153.901 l -29.422,31.644 z m 181.122,27.915 c -2.587,2.447 -6.804,2.447 -9.392,0 -2.587,-2.448 -2.587,-6.437 0,-8.885 2.588,-2.447 6.805,-2.447 9.392,0 2.588,2.448 2.588,6.437 0,8.885 z"
     fill="#64b5f6"
     id="path1" />
</svg>
