<svg xmlns="http://www.w3.org/2000/svg" width="438" height="438" style="shape-rendering:geometricPrecision;text-rendering:geometricPrecision;image-rendering:optimizeQuality;fill-rule:evenodd;clip-rule:evenodd"><path fill="#09a595" d="M199.5-.5h19v22Q92.504 27.319 38 140.5q-35.76 91.255 11.5 177a145.6 145.6 0 0 0-20 11q-25.522-42.567-30-92v-36Q13.954 78.293 122.5 21q36.926-17.101 77-21.5" style="opacity:.999"/><path fill="#ea4c2e" d="M218.5-.5h18q130.095 15.852 184.5 135 14.124 35.394 16.5 73v21q-2.68 52.038-29 97a198 198 0 0 1-20-12q37.113-71.613 17.5-150Q372.673 61.674 270.5 29q-25.88-6.236-52-7.5z" style="opacity:.999"/><path fill="#fefefe" d="M218.5 21.5q26.12 1.264 52 7.5Q372.673 61.674 406 163.5q19.613 78.387-17.5 150-59.03 96.298-173 99-107.855-4.904-166-95-47.26-85.745-11.5-177 54.503-113.181 180.5-119" style="opacity:1"/><path fill="#343434" d="M321.5 72.5q2.588.514 1.5 3A547 547 0 0 0 312.5 95a602 602 0 0 0 11 20.5q-1.834 1.671-4 .5a233 233 0 0 0-18-9.5 725 725 0 0 0-19 9.5q-1.702 1.124-3-.5a578 578 0 0 0 10-20.5 577 577 0 0 0-10-20.5q1.298-1.625 3-.5a161 161 0 0 0 18.5 9.5q10.916-4.578 20.5-11" style="opacity:1"/><path fill="#3b3b3b" d="M226.5 80.5q4.338 3.346 7 8.5 6.556.258 13 1.5l-9 6-2 13a154 154 0 0 0-7-9.5l-12-1a86 86 0 0 1 9-6.5 36.9 36.9 0 0 0 1-12" style="opacity:1"/><path fill="#323232" d="M215.5 188.5a577 577 0 0 1-16.5-28 32.5 32.5 0 0 1-.5-8q5.79-16.4 23-12.5a32 32 0 0 1 7.5 5.5l103 170q2.281 23.718-21.5 21.5-5.103-2.1-8.5-6.5a20572 20572 0 0 0-86.5-142" style="opacity:1"/><path fill="#373737" d="M295.5 149.5q4.662 4.243 8 10 6.947 1.242 14 1.5a184 184 0 0 0-10.5 7.5 86.6 86.6 0 0 1-1.5 13l-7-10a86.6 86.6 0 0 0-13-1.5 86 86 0 0 1 9-6.5 49.9 49.9 0 0 0 1-14" style="opacity:1"/><path fill="#bbb" d="M198.5 152.5a32.5 32.5 0 0 0 .5 8 577 577 0 0 0 16.5 28 22390 22390 0 0 0-86.5 142q-10.027 11.031-23.5 4.5-9.877-8.036-6.5-20.5a19243 19243 0 0 1 99.5-162" style="opacity:1"/><path fill="#333" d="M210.5 257.5q24.901-2.333 29 22-3.077 26.814-30 22.5-19.836-9.978-13.5-31.5 5.677-8.437 14.5-13" style="opacity:1"/><path fill="#f5b915" d="M388.5 313.5a198 198 0 0 0 20 12q-35.346 63.587-102 93.5-39.96 17.038-83 18.5h-11q-110.685-6.214-175.5-96a63.5 63.5 0 0 1-7.5-13 145.6 145.6 0 0 1 20-11q58.145 90.096 166 95 113.97-2.702 173-99" style="opacity:.999"/></svg>