<svg xmlns="http://www.w3.org/2000/svg" width="201" height="40" fill="none"><g clip-path="url(#a)"><mask id="b" width="143" height="40" x="0" y="0" maskUnits="userSpaceOnUse" style="mask-type:luminance"><path fill="#fff" d="M143 0H0v40h143z"/></mask><g mask="url(#b)"><path fill="#EA4B71" fill-rule="evenodd" d="M78.974 8a8 8 0 0 1-15.748 2h-11.17a4 4 0 0 0-3.945 3.342l-.329 1.973a7.98 7.98 0 0 1-2.6 4.685 7.98 7.98 0 0 1 2.6 4.685l.329 1.973A4 4 0 0 0 52.056 30h3.17a8 8 0 1 1 0 4h-3.17a8 8 0 0 1-7.89-6.685l-.33-1.973A4 4 0 0 0 39.891 22h-3.263a8.004 8.004 0 0 1-15.309 0h-4.691a8 8 0 1 1 .172-4h4.348A8.003 8.003 0 0 1 36.8 18h3.09a4 4 0 0 0 3.946-3.342l.33-1.973A8 8 0 0 1 52.055 6h11.17a8 8 0 0 1 15.748 2m-4 0a4 4 0 1 1-8 0 4 4 0 0 1 8 0m-66 15.667a4 4 0 1 0 0-8 4 4 0 0 0 0 8m20 0a4 4 0 1 0 0-8 4 4 0 0 0 0 8m34 12.333a4 4 0 1 0 0-8 4 4 0 0 0 0 8" clip-rule="evenodd"/><path fill="#fff" d="M86.979 30.001h4.176v-8.843c0-2.904 1.763-4.177 3.753-4.177 1.958 0 3.492 1.305 3.492 3.981v9.039h4.176v-9.887c0-4.275-2.48-6.755-6.363-6.755-2.447 0-3.818.979-4.797 2.251h-.26l-.36-1.925h-3.818zm31.584-10.997v-.196c1.436-.718 2.872-1.958 2.872-4.405 0-3.524-2.905-5.645-6.918-5.645-4.112 0-7.049 2.251-7.049 5.71 0 2.35 1.371 3.622 2.872 4.34v.196a5.54 5.54 0 0 0-3.655 5.286c0 3.557 2.937 6.037 7.799 6.037s7.701-2.48 7.701-6.037c0-2.936-1.958-4.666-3.622-5.286m-4.079-7.244c1.632 0 2.839 1.044 2.839 2.806s-1.24 2.807-2.839 2.807-2.937-1.045-2.937-2.807c0-1.795 1.273-2.806 2.937-2.806m0 15.435c-1.893 0-3.426-1.208-3.426-3.264 0-1.86 1.272-3.263 3.393-3.263 2.089 0 3.362 1.37 3.362 3.329 0 1.99-1.469 3.198-3.329 3.198m11.944 2.806h4.177v-8.843c0-2.904 1.762-4.177 3.753-4.177 1.958 0 3.491 1.305 3.491 3.981v9.039h4.177v-9.887c0-4.275-2.48-6.755-6.363-6.755-2.447 0-3.818.979-4.797 2.251h-.261l-.359-1.925h-3.818z"/></g><path fill="#EA4B71" d="M198 12.5h-41a3 3 0 0 0-3 3v13a3 3 0 0 0 3 3h41a3 3 0 0 0 3-3v-13a3 3 0 0 0-3-3"/><path fill="#fff" d="M164.496 21.334c.7.252 1.638.938 1.638 2.45 0 1.722-1.19 2.716-3.164 2.716h-4.004v-9.8h4.032c1.932 0 2.856 1.008 2.856 2.45 0 1.176-.644 1.764-1.358 2.1zm-3.724-3.15v2.534h1.946c.84 0 1.288-.504 1.288-1.274 0-.784-.504-1.26-1.26-1.26zm2.03 6.832c.952 0 1.442-.574 1.442-1.372 0-.826-.532-1.442-1.442-1.442h-2.03v2.814zm8.161-.126h4.9v1.61h-6.706v-9.8h6.566v1.61h-4.76v2.436h4.102v1.568h-4.102zm14.643-8.19v1.652h-2.772V26.5h-1.848v-8.148h-2.772V16.7zm8.189 9.8-.798-2.366h-3.668l-.798 2.366h-1.974l3.5-9.8h2.226l3.486 9.8zm-3.962-3.892h2.66l-1.274-3.78h-.112z"/></g><defs><clipPath id="a"><path fill="#fff" d="M0 0h201v40H0z"/></clipPath></defs></svg>