<svg xmlns="http://www.w3.org/2000/svg" width="230" height="40" fill="none"><mask id="a" width="143" height="40" x="0" y="0" maskUnits="userSpaceOnUse" style="mask-type:luminance"><path fill="#fff" d="M0 0h143v40H0z"/></mask><g mask="url(#a)"><path fill="#EA4B71" fill-rule="evenodd" d="M78.974 8a8 8 0 0 1-15.748 2h-11.17a4 4 0 0 0-3.945 3.342l-.329 1.973a7.98 7.98 0 0 1-2.6 4.685 7.98 7.98 0 0 1 2.6 4.685l.329 1.973A4 4 0 0 0 52.056 30h3.17a8 8 0 1 1 0 4h-3.17a8 8 0 0 1-7.89-6.685l-.33-1.973A4 4 0 0 0 39.891 22h-3.263a8.005 8.005 0 0 1-15.309 0h-4.691a8 8 0 1 1 .172-4h4.348A8.003 8.003 0 0 1 36.8 18h3.09a4 4 0 0 0 3.946-3.342l.33-1.973A8 8 0 0 1 52.055 6h11.17a8 8 0 0 1 15.749 2m-4 0a4 4 0 1 1-8 0 4 4 0 0 1 8 0m-66 15.667a4 4 0 1 0 0-8 4 4 0 0 0 0 8m20 0a4 4 0 1 0 0-8 4 4 0 0 0 0 8m34 12.333a4 4 0 1 0 0-8 4 4 0 0 0 0 8" clip-rule="evenodd"/><path fill="#fff" d="M86.978 30h4.177v-8.842c0-2.904 1.762-4.177 3.753-4.177 1.958 0 3.492 1.305 3.492 3.98v9.04h4.176v-9.887c0-4.275-2.48-6.755-6.363-6.755-2.447 0-3.818.979-4.797 2.25h-.26l-.36-1.924H86.98zm31.585-10.996v-.196c1.436-.718 2.872-1.958 2.872-4.405 0-3.524-2.905-5.645-6.918-5.645-4.112 0-7.049 2.25-7.049 5.71 0 2.35 1.371 3.622 2.872 4.34v.196a5.54 5.54 0 0 0-3.655 5.286c0 3.557 2.937 6.037 7.799 6.037s7.701-2.48 7.701-6.037c0-2.936-1.958-4.666-3.622-5.286m-4.079-7.244c1.632 0 2.839 1.044 2.839 2.806s-1.24 2.807-2.839 2.807-2.937-1.045-2.937-2.807c0-1.794 1.273-2.806 2.937-2.806m0 15.435c-1.893 0-3.426-1.208-3.426-3.263 0-1.86 1.272-3.264 3.393-3.264 2.089 0 3.362 1.37 3.362 3.329 0 1.99-1.469 3.198-3.329 3.198M126.428 30h4.177v-8.843c0-2.904 1.762-4.177 3.753-4.177 1.958 0 3.491 1.305 3.491 3.98V30h4.177v-9.887c0-4.275-2.48-6.755-6.363-6.755-2.447 0-3.818.979-4.797 2.25h-.261l-.359-1.924h-3.818z"/></g><path fill="#EA4B71" d="M214.852 12.5h-56.703A4.15 4.15 0 0 0 154 16.649v10.702a4.15 4.15 0 0 0 4.149 4.149h56.703a4.15 4.15 0 0 0 4.149-4.149V16.649a4.15 4.15 0 0 0-4.149-4.149"/><path fill="#fff" d="m162.985 26.312-2.496-7.624q.061.404.143 1.04.082.63.137 1.4.062.774.062 1.608v3.576h-1.908v-9.477h2.797l2.42 7.583a33 33 0 0 1-.226-1.661 20 20 0 0 1-.116-2.291v-3.63h1.908v9.476zm10.611-9.477v1.64h-1.955v6.189h1.955v1.648h-6.153v-1.648h1.955v-6.188h-1.955v-1.64zm5.477 9.71q-2.018 0-3.084-1.272-1.06-1.28-1.06-3.72 0-1.613.589-2.714.588-1.108 1.586-1.675.997-.568 2.229-.568 1.04 0 1.75.32.711.323 1.265.849l-1.176 1.217a3.5 3.5 0 0 0-.827-.567 2.1 2.1 0 0 0-.903-.185 1.96 1.96 0 0 0-1.135.342q-.492.334-.78 1.074-.286.73-.286 1.92 0 1.238.198 1.97.206.732.615 1.053.41.314 1.04.314.335 0 .629-.075.294-.082.547-.212V22.45h-1.19l-.219-1.573h3.528v4.71a6.8 6.8 0 0 1-1.531.699 5.8 5.8 0 0 1-1.785.259m9.005-.233v-3.993h-2.297v3.993h-2.243v-9.477h2.243v3.638h2.297v-3.638h2.243v9.477zm8.164-7.76v7.76h-2.243v-7.76h-2.66v-1.717h7.672l-.232 1.717zm4.266 7.76v-9.477h2.243v7.706h4.11l-.233 1.77zm12.157-3.555v3.555h-2.242V22.77l-3.09-5.935h2.454l1.798 4.082 1.812-4.082h2.359z"/></svg>