<svg xmlns="http://www.w3.org/2000/svg" width="225" height="225" fill="none"><defs><linearGradient id="a" x1="1.047" x2="-.159" y1=".454" y2=".535"><stop offset="0" stop-color="#2936a3"/><stop offset="1" stop-color="#162286"/></linearGradient><linearGradient id="b" x1="-.192" x2=".958" y1=".675" y2=".156"><stop offset="0" stop-color="#2297f4"/><stop offset="1" stop-color="#31a0f9"/></linearGradient></defs><path fill="url(#a)" stroke="null" d="M211.145 121.39c18.18-18.162 18.18-47.608 0-65.769s-47.656-18.161-65.836 0L112.39 88.505l32.817 32.783.101.101c18.161 18.142 47.594 18.162 65.779.058z"/><path fill="#17da88" stroke="null" d="m46.555 154.275-32.92-32.885c-18.18-18.162-18.18-47.607 0-65.768s47.657-18.162 65.837 0l32.92 32.886z"/><path fill="url(#b)" stroke="null" d="M211.145 121.39c-18.18 18.16-47.656 18.16-65.836 0l-.101-.102-32.816-32.78-65.836 65.767 18.808 18.789c25.972 25.945 68.081 25.945 94.053 0z"/></svg>