<?xml version="1.0" encoding="UTF-8"?>
<svg width="60px" height="60px" viewBox="0 0 60 60" version="1.1" xmlns="http://www.w3.org/2000/svg" xmlns:xlink="http://www.w3.org/1999/xlink">
    <title>mongodb_node_icon</title>
    <g id="mongodb_node_icon" stroke="none" stroke-width="1" fill="none" fill-rule="evenodd" stroke-linecap="round" stroke-linejoin="round">
        <g id="Group" transform="translate(17.000000, 0.000000)">
            <path d="M13.1964828,0.1640625 L14.7866897,3.1715625 C15.1311724,3.7153125 15.5352414,4.21875 15.9970345,4.6753125 C17.3284138,6.0159375 18.5927586,7.4203125 19.7286207,8.9240625 C22.4230345,12.4865625 24.2404138,16.4240625 25.5382759,20.7215625 C26.319113,23.3191031 26.7340563,26.014136 26.7709655,28.7278125 C26.9013103,36.8334375 24.1417241,43.7934375 18.5778621,49.5778125 C17.6728966,50.4946875 16.6953103,51.3365625 15.6544138,52.0940625 C15.1032414,52.0940625 14.8425517,51.6684375 14.6153793,51.2765625 C14.1926897,50.5584375 13.9338621,49.7390625 13.8035172,48.9328125 C13.6173103,47.9521875 13.4795172,46.9715625 13.5428276,45.9590625 L13.5428276,45.5015625 C13.4888276,45.375 13.0028276,0.375 13.1964828,0.1640625 Z" id="Path" fill="#599636"></path>
            <path d="M13.1964828,0.065625 C13.1313103,-0.065625 13.0661379,0.03375 13.0102759,0.0975 C13.041931,0.75375 12.824069,1.33875 12.4591034,1.8975 C12.0866897,2.4525 11.5504138,2.878125 11.0308966,3.335625 C8.14468966,5.851875 5.87296552,8.89125 4.05372414,12.290625 C1.63303448,16.865625 0.385448276,21.759375 0.0316551724,26.930625 C-0.139655172,28.790625 0.607034483,35.3625 1.18986207,37.25625 C2.78006897,42.28875 5.63648276,46.505625 9.33641379,50.165625 C10.2498226,51.0494089 11.2135197,51.8789354 12.2226207,52.65 C12.5149655,52.65 12.5466207,52.3875 12.5950345,52.1925 C12.7231731,51.7752318 12.8208812,51.3490987 12.8873793,50.9175 L13.5391034,46.01625 L13.1964828,0.065625 Z" id="Path" fill="#6CAC48"></path>
            <path d="M14.7866897,54.084375 C14.8518621,53.334375 15.2093793,52.711875 15.5985517,52.09125 C15.2261379,51.928125 14.9170345,51.60375 14.6898621,51.241875 C14.4939754,50.8992461 14.3318248,50.5381535 14.2057241,50.16375 C13.7513793,48.79125 13.6545517,47.35125 13.5242069,45.94875 L13.5242069,45.099375 C13.3622069,45.230625 13.338,46.340625 13.338,46.505625 C13.2430345,47.986875 13.0475172,49.4625 12.7533103,50.9175 C12.6564828,51.50625 12.5913103,52.093125 12.231931,52.61625 C12.231931,52.681875 12.231931,52.7475 12.2635862,52.845 C12.8482759,54.5775 13.0084138,56.341875 13.1071034,58.14 L13.1071034,58.79625 C13.1071034,59.58 13.0754483,59.415 13.7215862,59.6775 C13.9822759,59.775 14.2727586,59.80875 14.5334483,60.00375 C14.7196552,60.00375 14.7606207,59.840625 14.7606207,59.709375 L14.6637931,58.63125 L14.6637931,55.62375 C14.6321379,55.09875 14.7289655,54.5775 14.7941379,54.08625 L14.7866897,54.084375 Z" id="Path" fill="#C2BFBF"></path>
        </g>
    </g>
</svg>