<svg xmlns="http://www.w3.org/2000/svg" viewBox="0 0 75 75"><defs><linearGradient id="a" x1="617.46" x2="723.53" y1="-674.53" y2="-568.46" gradientTransform="rotate(-90 683.5 24.5)" gradientUnits="userSpaceOnUse"><stop offset="0" stop-color="#055f4e"/><stop offset="1" stop-color="#56c0a7"/></linearGradient></defs><path fill="url(#a)" d="M0 0h75v75H0z" data-name="Turquoise Gradient"/><path fill="#fff" d="M44.5 34.2v-9.7a1 1 0 0 0-.29-.71l-11-11a1 1 0 0 0-.71-.29h-19a1 1 0 0 0-1 1v43a1 1 0 0 0 1 1h30a1 1 0 0 0 1-1v-4.44a11.8 11.8 0 0 1-2-2.3v5.74h-28v-41h17v10a1 1 0 0 0 1 1h10v11a11.6 11.6 0 0 1 2-2.3m-11-10.7v-7.59l7.59 7.59zm-10 8h-6v-2h6zm16 0h-14v-2h14zm0 6h-22v-2h22zm15.44 25h-4.88a1 1 0 0 1-.93-.62l-1.21-3a1 1 0 0 1 .09-.94 1 1 0 0 1 .83-.44h7.32a1 1 0 0 1 .83.44 1 1 0 0 1 .09.94l-1.21 3a1 1 0 0 1-.93.62m-4.21-2h3.54l.4-1h-4.34zm11.64-19a10 10 0 0 0-19.87 1.62 10 10 0 0 0 4.28 8.2 4 4 0 0 1 .72.59v3.59a1 1 0 0 0 1 1h8a1 1 0 0 0 1-1v-3.6a4.3 4.3 0 0 1 .71-.57 9.92 9.92 0 0 0 4.29-8.2 10 10 0 0 0-.13-1.65zm-5.32 8.2c-.58.4-1.55 1.07-1.55 2.1v2.7h-2v-7h2v-2h-6v2h2v7h-2v-2.68c0-1-1-1.73-1.58-2.14A8 8 0 1 1 58 37.32a7.9 7.9 0 0 1 2.39 4.47 8 8 0 0 1-3.34 7.91M28.5 25.5h-11v-2h11zm1 18h-12v-2h12zm10 0h-8v-2h8zm-9 6h-13v-2h13z" data-name="Icon Test"/></svg>