<svg width="65" height="65" viewBox="0 0 65 65" fill="none" xmlns="http://www.w3.org/2000/svg">
	<g clip-path="url(#clip0_9708_30263)">
		<path fill-rule="evenodd" clip-rule="evenodd" d="M29.032 61.7648L2.63014 49.4122C0.381098 48.3338 0.381098 46.6672 2.63014 45.6869L11.8219 41.3733L28.9342 49.4122C31.1832 50.4906 34.8013 50.4906 36.9525 49.4122L54.0648 41.3733L63.2566 45.6869C65.5056 46.7653 65.5056 48.4319 63.2566 49.4122L36.8547 61.7648C34.8013 62.7451 31.1832 62.7451 29.032 61.7648Z" fill="#FF6F3D"/>
		<path fill-rule="evenodd" clip-rule="evenodd" d="M28.9464 46.479L2.625 34.1121C0.382811 33.0325 0.382811 31.3639 2.625 30.3824L11.5938 26.162L28.9464 34.3084C31.1886 35.3881 34.7956 35.3881 36.9403 34.3084L54.2929 26.162L63.2617 30.3824C65.5039 31.4621 65.5039 33.1306 63.2617 34.1121L36.9403 46.479C34.6981 47.5586 31.0911 47.5586 28.9464 46.479Z" fill="#95C038"/>
		<path fill-rule="evenodd" clip-rule="evenodd" d="M28.9464 31.3519L2.625 19.163C0.382811 18.0989 0.382811 16.4544 2.625 15.487L28.9464 3.29808C31.1886 2.23397 34.7956 2.23397 36.9403 3.29808L63.2617 15.487C65.5039 16.5511 65.5039 18.1957 63.2617 19.163L36.9403 31.3519C34.6981 32.3193 31.0911 32.3193 28.9464 31.3519Z" fill="#5DC0E8"/>
	</g>
	<defs>
		<clipPath id="clip0_9708_30263">
			<rect width="64" height="64" fill="white" transform="translate(0.943359 0.5)"/>
		</clipPath>
	</defs>
</svg>
