<?xml version="1.0" standalone="no"?>
<!DOCTYPE svg PUBLIC "-//W3C//DTD SVG 20010904//EN"
 "http://www.w3.org/TR/2001/REC-SVG-20010904/DTD/svg10.dtd">
<svg version="1.0" xmlns="http://www.w3.org/2000/svg"
 width="238.000000pt" height="150.000000pt" viewBox="0 0 238.000000 150.000000"
 preserveAspectRatio="xMidYMid meet">

<g transform="translate(0.000000,150.000000) scale(0.100000,-0.100000)"
fill="#000000" stroke="none">
<path d="M1327 1220 c-92 -72 17 -230 122 -176 67 35 78 122 20 170 -39 33
-104 36 -142 6z"/>
<path d="M1665 1209 c-46 -41 -49 -93 -7 -139 22 -26 35 -31 71 -32 38 0 49 4
73 31 60 67 14 171 -76 171 -14 0 -41 -14 -61 -31z"/>
<path d="M782 902 c-29 -11 -64 -30 -78 -43 -30 -28 -67 -96 -60 -108 5 -7 86
-23 129 -26 4 0 13 11 20 24 7 14 27 34 46 44 45 27 115 15 145 -26 36 -49 21
-60 -162 -108 -129 -34 -182 -79 -189 -166 -5 -59 18 -108 65 -139 66 -45 188
-39 265 12 27 17 39 21 41 12 15 -51 13 -49 83 -46 l68 3 -3 190 c-2 105 -5
209 -9 233 -7 56 -39 102 -92 131 -61 33 -194 40 -269 13z m218 -340 c0 -92
-118 -165 -188 -116 -26 18 -30 65 -7 84 16 13 149 58 178 59 12 1 17 -7 17
-27z"/>
<path d="M1795 914 c-59 -15 -88 -28 -116 -51 -30 -26 -75 -101 -65 -110 3 -3
33 -11 68 -19 56 -12 64 -11 73 2 31 49 48 63 85 69 57 10 105 -9 120 -46 19
-44 3 -55 -128 -89 -129 -34 -160 -48 -195 -89 -50 -60 -43 -167 14 -215 66
-56 197 -57 280 -1 33 21 40 23 44 10 3 -8 7 -22 10 -30 4 -13 18 -15 72 -13
l68 3 -4 215 c-4 266 -13 295 -106 342 -39 20 -174 34 -220 22z m174 -365
c-18 -77 -66 -119 -136 -119 -60 0 -99 66 -58 100 18 15 151 58 181 59 20 1
21 -2 13 -40z"/>
<path d="M230 620 l0 -290 79 0 78 0 7 178 c8 187 13 206 61 238 13 8 45 19
72 22 l48 7 3 68 3 67 -31 0 c-39 0 -87 -20 -126 -53 -18 -15 -35 -27 -38 -27
-3 0 -6 18 -6 40 l0 40 -75 0 -75 0 0 -290z"/>
<path d="M1312 623 l3 -288 78 -3 77 -3 0 291 0 290 -80 0 -80 0 2 -287z"/>
</g>
</svg>
