<svg viewBox="0 0 128 128" xmlns="http://www.w3.org/2000/svg"><g clip-rule="evenodd" fill-rule="evenodd"><path fill="none" d="M0 0h128v128H0z"/><path d="M63.708 0C28.443 0 0 28.306 0 65.322c0 19.193 10.266 37.736 24.703 48.877 2.78 2.145 6.091 1.949 7.989.109 1.599-1.55 1.467-5.282-1.507-7.897-11.541-10.149-19.52-25.514-19.52-40.861 0-27.564 24.474-50.756 52.044-50.756 33.558 0 51.503 27.252 51.503 50.351 0 14.114-6.902 31.155-19.361 42.025.019-.049 2.588-5.101 2.588-14.94 0-16.748-10.612-25.821-22.926-25.821-8.914 0-14.251 3.187-17.883 6.158 0-6.822.228-19.563.228-19.563 0-8.409-2.946-15.14-13.213-15.287-5.943-.084-10.353 2.641-13.103 8.803-.991 2.311-.626 4.822 1.333 5.96 1.621.941 4.287.243 5.606-1.517.881-1.1 1.375-1.335 2.141-1.252 1.261.136 1.309 2.168 1.359 3.468.038.998 1.008 15.494.477 52.746 0 10.275 8.059 22.077 27.355 22.077 8.307 0 14.686-2.322 23.953-7.587C107.871 112.398 128 94.62 128 64.55 128 26.977 97.572 0 63.708 0zm6.052 113.602c-7.183.126-12.422-2.183-12.743-8.461-.12-2.356-.082-4.865.033-6.378.695-9.174 7.11-15.774 13.443-17.041 7.876-1.576 13.123 2.026 13.123 12.337-.001 6.968-1.935 19.334-13.856 19.543z" fill="#DD5A2B"/></g></svg>