<svg xmlns="http://www.w3.org/2000/svg" width="1025" height="1032" fill="none"><path fill="url(#a)" d="M341.328 0v344.061h341.333v344.06h341.329V0z"/><path fill="url(#b)" d="M683 343.725H343v344.732h340z"/><path fill="url(#c)" d="M341.333 344.061H0L341.333 0z"/><path fill="url(#d)" d="M682.367 1031.18V687.457h342.003z"/><circle r="1.796" fill="#956FFF" transform="matrix(1 0 0 -1 365.162 314.663)"/><circle r="1.796" fill="#956FFF" transform="matrix(1 0 0 -1 374.502 314.663)"/><circle r="1.796" fill="#956FFF" transform="matrix(1 0 0 -1 383.843 314.663)"/><circle r="1.796" fill="#956FFF" transform="matrix(1 0 0 -1 393.184 314.663)"/><circle r="1.796" fill="#956FFF" transform="matrix(1 0 0 -1 402.525 314.663)"/><circle r="1.796" fill="#956FFF" transform="matrix(1 0 0 -1 411.866 314.663)"/><circle r="1.796" fill="#956FFF" transform="matrix(1 0 0 -1 421.206 314.663)"/><circle r="1.796" fill="#956FFF" transform="matrix(1 0 0 -1 430.546 314.663)"/><circle r="1.796" fill="#956FFF" transform="matrix(1 0 0 -1 439.887 314.663)"/><circle r="1.796" fill="#956FFF" transform="matrix(1 0 0 -1 449.228 314.663)"/><circle r="1.796" fill="#956FFF" transform="matrix(1 0 0 -1 458.569 314.663)"/><circle r="1.796" fill="#956FFF" transform="matrix(1 0 0 -1 365.162 306.041)"/><circle r="1.796" fill="#956FFF" transform="matrix(1 0 0 -1 374.502 306.041)"/><circle r="1.796" fill="#956FFF" transform="matrix(1 0 0 -1 383.843 306.041)"/><circle r="1.796" fill="#956FFF" transform="matrix(1 0 0 -1 393.184 306.041)"/><circle r="1.796" fill="#956FFF" transform="matrix(1 0 0 -1 402.525 306.041)"/><circle r="1.796" fill="#956FFF" transform="matrix(1 0 0 -1 411.866 306.041)"/><circle r="1.796" fill="#956FFF" transform="matrix(1 0 0 -1 421.206 306.041)"/><circle r="1.796" fill="#956FFF" transform="matrix(1 0 0 -1 430.546 306.041)"/><circle r="1.796" fill="#956FFF" transform="matrix(1 0 0 -1 365.162 297.419)"/><circle r="1.796" fill="#956FFF" transform="matrix(1 0 0 -1 374.502 297.419)"/><circle r="1.796" fill="#956FFF" transform="matrix(1 0 0 -1 383.843 297.419)"/><circle r="1.796" fill="#956FFF" transform="matrix(1 0 0 -1 393.184 297.419)"/><circle r="1.796" fill="#956FFF" transform="matrix(1 0 0 -1 402.525 297.419)"/><circle r="1.796" fill="#956FFF" transform="matrix(1 0 0 -1 365.162 288.796)"/><circle r="1.796" fill="#956FFF" transform="matrix(1 0 0 -1 374.502 288.797)"/><circle r="1.796" fill="#956FFF" transform="matrix(1 0 0 -1 383.843 288.797)"/><circle cx="716.162" cy="638.796" r="1.796" fill="#956FFF"/><circle cx="725.502" cy="638.796" r="1.796" fill="#956FFF"/><circle cx="734.843" cy="638.796" r="1.796" fill="#956FFF"/><circle cx="744.184" cy="638.796" r="1.796" fill="#956FFF"/><circle cx="753.525" cy="638.796" r="1.796" fill="#956FFF"/><circle cx="762.866" cy="638.796" r="1.796" fill="#956FFF"/><circle cx="772.206" cy="638.796" r="1.796" fill="#956FFF"/><circle cx="716.162" cy="647.419" r="1.796" fill="#956FFF"/><circle cx="725.502" cy="647.419" r="1.796" fill="#956FFF"/><circle cx="734.843" cy="647.419" r="1.796" fill="#956FFF"/><circle cx="744.184" cy="647.419" r="1.796" fill="#956FFF"/><circle cx="753.525" cy="647.419" r="1.796" fill="#956FFF"/><circle cx="762.866" cy="647.419" r="1.796" fill="#956FFF"/><circle cx="716.162" cy="656.041" r="1.796" fill="#956FFF"/><circle cx="725.502" cy="656.04" r="1.796" fill="#956FFF"/><circle cx="734.843" cy="656.04" r="1.796" fill="#956FFF"/><circle cx="744.184" cy="656.04" r="1.796" fill="#956FFF"/><circle cx="753.525" cy="656.04" r="1.796" fill="#956FFF"/><circle cx="716.162" cy="664.664" r="1.796" fill="#956FFF"/><circle cx="725.502" cy="664.663" r="1.796" fill="#956FFF"/><circle cx="734.843" cy="664.663" r="1.796" fill="#956FFF"/><defs><linearGradient id="a" x1="1072.36" x2="553.031" y1="-51.407" y2="446.945" gradientUnits="userSpaceOnUse"><stop offset=".021" stop-color="#956FFF"/><stop offset="1" stop-color="#1C1B7E"/></linearGradient><linearGradient id="b" x1="634.365" x2="277.177" y1="396.5" y2="712.901" gradientUnits="userSpaceOnUse"><stop stop-color="#956FFF"/><stop offset="1" stop-color="#1A2670"/></linearGradient><linearGradient id="c" x1="170.667" x2="170.667" y1="0" y2="344.061" gradientUnits="userSpaceOnUse"><stop offset=".021" stop-color="#956FFF"/><stop offset="1" stop-color="#1C1B7E"/></linearGradient><linearGradient id="d" x1="1085.18" x2="695.654" y1="556.22" y2="967.042" gradientUnits="userSpaceOnUse"><stop stop-color="#956FFF"/><stop offset=".839" stop-color="#1C1B7E"/></linearGradient></defs></svg>