<svg xmlns="http://www.w3.org/2000/svg" xmlns:xlink="http://www.w3.org/1999/xlink" width="200" height="200">
  <defs>
    <linearGradient x1="107.16039" y1=".55117057" x2="186.13482" y2="65.422938" id="a" gradientTransform="scale(.86223 1.15978)" gradientUnits="userSpaceOnUse">
      <stop stop-color="#4285eb" offset="0%"/>
      <stop stop-color="#120b2a" offset="100%"/>
    </linearGradient>
    <linearGradient x1="120.08176" y1=".55117059" x2="93.352142" y2="186.37035" id="b" gradientTransform="scale(.86223 1.15978)" gradientUnits="userSpaceOnUse" xlink:href="#a">
      <stop stop-color="#6c9de8" offset="0%"/>
      <stop stop-color="#156aec" offset="37.8600687%"/>
      <stop stop-color="#120b2a" offset="100%"/>
    </linearGradient>
    <linearGradient x1="231.54271" y1="41.072541" x2="198.8471" y2="121.54357" id="c" gradientTransform="scale(.79714 1.2545)" gradientUnits="userSpaceOnUse">
      <stop stop-color="#FA816E" offset="0%"/>
      <stop stop-color="#F74A5C" offset="41.472606%"/>
      <stop stop-color="#F51D2C" offset="100%"/>
    </linearGradient>
    <linearGradient x1="109.03096" y1="60.048356" x2="91.249446" y2="131.1186" id="d" gradientTransform="scale(1.00041 .99959)" gradientUnits="userSpaceOnUse">
      <stop stop-color="#FA8E7D" offset="0%"/>
      <stop stop-color="#F74A5C" offset="51.2635191%"/>
      <stop stop-color="#F51D2C" offset="100%"/>
    </linearGradient>
  </defs>
  <g transform="matrix(.95273 -.96174 .95894 .95551 -91.2619922 100.6600442)" stroke-width=".7386958" fill-rule="evenodd" fill="none">
    <g fill-rule="nonzero">
      <path d="M91.588086 4.1765282L4.1799654 91.512773c-4.699206 4.695342-4.699206 12.279107 0 16.974457l87.4081206 87.33624c4.699206 4.69534 12.289214 4.69534 16.988424 0l36.64898-36.61884c4.20848-4.20502 4.20848-11.02271 0-15.22773-4.20849-4.20502-11.03178-4.20502-15.24026 0l-27.7833 27.76045c-1.16963 1.16866-2.944769 1.16866-4.114394 0l-69.801628-69.74423c-1.169625-1.16866-1.169625-2.942345 0-4.111008l69.801628-69.74423c1.169625-1.168663 2.944764-1.168663 4.114394 0l27.7833 27.760449c4.20848 4.205022 11.03177 4.205022 15.24026 0 4.20848-4.205021 4.20848-11.022708 0-15.227729L108.58055 4.0557459c-4.7185-4.59373275-12.311288-4.55654381-16.992464.1207823z" fill="url(#a)"/>
      <path d="M91.588086 4.1765282L4.1799654 91.512773c-4.699206 4.695342-4.699206 12.279107 0 16.974457l87.4081206 87.33624c4.699206 4.69534 12.289214 4.69534 16.988424 0l36.64898-36.61884c4.20848-4.20502 4.20848-11.02271 0-15.22773-4.20849-4.20502-11.03178-4.20502-15.24026 0l-27.7833 27.76045c-1.16963 1.16866-2.944769 1.16866-4.114394 0l-69.801628-69.74423c-1.169625-1.16866-1.169625-2.942345 0-4.111008l69.801628-69.74423c2.912324-2.510698 7.664104-7.596058 14.642114-8.785433 5.18593-.883923 10.85557 1.061575 17.0089 5.836493-4.11389-4.110513-11.16655-11.154912-21.158-21.1331961-4.7185-4.59373275-12.311288-4.55654381-16.992464.1207823z" fill="url(#b)"/>
      <path d="M153.68563 135.85458c4.20848 4.20502 11.03178 4.20502 15.24026 0l27.03409-27.01185c4.6992-4.69535 4.6992-12.279117.00055-16.973911l-27.26975-27.150703c-4.21845-4.20003-11.04391-4.193973-15.25489.01354-4.20848 4.205021-4.20848 11.022708 0 15.227729l18.41814 18.402994c1.16963 1.168664 1.16963 2.942341 0 4.111011l-18.1684 18.15346c-4.20848 4.20502-4.20848 11.02271 0 15.22773z" fill="url(#c)"/>
    </g>
    <ellipse cx="100.51934" cy="100.43668" rx="23.600193" ry="23.580786" fill="url(#d)"/>
  </g>
</svg>