<svg height="512" viewBox="0 0 512 512" width="512" xmlns="http://www.w3.org/2000/svg"><path d="M440.8 140.2V479c0 18.2-14.8 33-33 33H102.9c-18.2 0-33-14.8-33-33V33c0-18.2 14.8-33 33-33h197.6z" fill="#f5b912"/><path d="M323.6 233.5H189.1c-12.5 0-22.6 10.1-22.6 22.6v134.5c0 12.5 10.1 22.6 22.6 22.6h134.5c12.5 0 22.6-10.1 22.6-22.6V256c0-12.4-10.1-22.5-22.6-22.5zm-.7 139.5h-133v-90.5h133z" fill="#fff"/><path d="M319.6 134.4l121.1 98.1v-92.2L372 100.5z" opacity=".19"/><path d="M441.4 140.2H334.2c-18.2 0-33-14.8-33-33V0z" fill="#fadc87"/></svg>