<svg xmlns="http://www.w3.org/2000/svg" viewBox="-60 -60 630 630"><path fill="#f5b912" d="M440.8 140.2V479c0 18.2-14.8 33-33 33H102.9c-18.2 0-33-14.8-33-33V33c0-18.2 14.8-33 33-33h197.6z"/><path fill="#fff" d="M323.6 233.5H189.1c-12.5 0-22.6 10.1-22.6 22.6v134.5c0 12.5 10.1 22.6 22.6 22.6h134.5c12.5 0 22.6-10.1 22.6-22.6V256c0-12.4-10.1-22.5-22.6-22.5m-.7 139.5h-133v-90.5h133z"/><path d="m319.6 134.4 121.1 98.1v-92.2L372 100.5z" opacity=".19"/><path fill="#fadc87" d="M441.4 140.2H334.2c-18.2 0-33-14.8-33-33V0z"/></svg>