<svg xmlns="http://www.w3.org/2000/svg" xmlns:xlink="http://www.w3.org/1999/xlink" fill="#fff" fill-rule="evenodd" stroke="#000" stroke-linecap="round" stroke-linejoin="round" viewBox="-18 0 90 80"><use xlink:href="#a" x=".5" y=".5"/><symbol id="a" overflow="visible"><g stroke="none"><path fill="#548df6" d="m36 0 22 22v53a4.99 4.99 0 0 1-5 5H5a4.99 4.99 0 0 1-5-5V5a4.99 4.99 0 0 1 5-5z"/><path d="M14 40h30v3H14zm0 7h30v3H14zm0 8h30v3H14zm0 7h21v3H14z"/><path fill="#abd0fb" d="m36 0 22 22H41c-2.77 0-5-2.48-5-5.25z"/><path fill="#3e5bb9" d="M40.75 22 58 29.125V22z"/></g></symbol></svg>