<svg width="40" height="40" viewBox="0 0 40 40" fill="none" xmlns="http://www.w3.org/2000/svg">
<path d="M40 19.9564C40 24.9269 38.1538 29.7202 34.8195 33.4064C31.4852 37.0926 26.9006 39.409 21.9551 39.9061V0C26.9018 0.497246 31.4873 2.81456 34.8217 6.5022C38.1562 10.1898 40.0016 14.9848 40 19.9564ZM0 21.9685V39.9128H17.9477C17.4838 35.3111 15.4437 31.0111 12.173 27.7409C8.90223 24.4708 4.60184 22.4316 0 21.9685ZM0 17.9443H17.9477V0.00670706C13.3469 0.46952 9.04729 2.50781 5.77669 5.77658C2.5061 9.04534 0.465392 13.3438 0 17.9443Z" fill="#451735"/>
</svg>
