<svg xmlns="http://www.w3.org/2000/svg" xmlns:xlink="http://www.w3.org/1999/xlink" viewBox="0 0 81 82" fill="#fff" fill-rule="evenodd" stroke="#000" stroke-linecap="round" stroke-linejoin="round"><use xlink:href="#a" x=".5" y=".5"/><symbol id="a" overflow="visible"><g stroke="none" fill-rule="nonzero"><path d="M61.052 18.947H18.947v42.105h42.105V18.947z"/><path d="M61.053 80L80 61.053H61.053V80z" fill="#ea4335"/><path d="M80 18.947H61.053v42.105H80V18.947z" fill="#fbbc04"/><path d="M61.052 61.053H18.947V80h42.105V61.053z" fill="#34a853"/><path d="M0 61.053v12.632A6.314 6.314 0 006.316 80h12.632V61.053H0z" fill="#188038"/><path d="M80 18.947V6.316A6.314 6.314 0 0073.685 0H61.053v18.947H80z" fill="#1967d2"/><path d="M61.053 0H6.316A6.314 6.314 0 000 6.316v54.737h18.947V18.947h42.105V0zM27.584 51.611c-1.574-1.063-2.663-2.616-3.258-4.668l3.653-1.505c.332 1.263.911 2.242 1.737 2.937s1.821 1.037 2.989 1.037c1.195 0 2.221-.363 3.079-1.089s1.29-1.653 1.29-2.774a3.44 3.44 0 00-1.358-2.811c-.905-.727-2.042-1.089-3.4-1.089h-2.111v-3.616H32.1c1.168 0 2.153-.316 2.953-.947s1.2-1.495 1.2-2.595c0-.979-.358-1.758-1.074-2.342s-1.621-.879-2.721-.879c-1.074 0-1.926.284-2.558.858s-1.106 1.301-1.379 2.111l-3.616-1.505c.479-1.358 1.358-2.558 2.647-3.595s2.937-1.558 4.937-1.558c1.479 0 2.811.284 3.989.858s2.105 1.368 2.774 2.379 1 2.153 1 3.416c0 1.289-.311 2.379-.932 3.274s-1.384 1.579-2.289 2.058v.216a6.95 6.95 0 012.937 2.289c.763 1.026 1.147 2.253 1.147 3.684s-.363 2.711-1.089 3.832-1.732 2.005-3.005 2.647c-1.279.642-2.716.968-4.311.968-1.847.005-3.553-.526-5.126-1.589zm22.437-18.126l-4.01 2.9-2.005-3.042 7.195-5.189h2.758v24.479h-3.937V33.484z" fill="#4285f4"/></g></symbol></svg>