<?xml version="1.0" encoding="UTF-8"?>
<svg width="60px" height="60px" viewBox="0 0 60 60" version="1.1" xmlns="http://www.w3.org/2000/svg" xmlns:xlink="http://www.w3.org/1999/xlink">
    <title>google_calendar_node_icon</title>
    <g id="google_calendar_node_icon" stroke="none" stroke-width="1" fill="none" fill-rule="evenodd" stroke-linecap="round" stroke-linejoin="round">
        <g id="Group" transform="translate(1.000000, 2.000000)">
            <rect id="Rectangle" fill="#E6E6E6" x="4.05625" y="0" width="50.8875" height="31.8311688" rx="3"></rect>
            <path d="M29.5,8.14285714 L2.4020375,8.14285714 C1.4801625,8.32792208 -0.4550375,9.43831169 0.0980875,12.0292208 L3.9640625,32.5714286 L55.0359375,32.5714286 L58.90265,12.0292208 C59.455775,9.43831169 57.5198375,8.32792208 56.5987,8.14285714 L29.5,8.14285714 Z" id="Path" fill="#3A5BBC"></path>
            <ellipse id="Oval" fill="#FFFFFF" cx="17.0546875" cy="3.79383117" rx="1.1984375" ry="1.20292208"></ellipse>
            <ellipse id="Oval" fill="#FFFFFF" cx="42.3140625" cy="3.79383117" rx="1.1984375" ry="1.20292208"></ellipse>
            <path d="M29.5,57 L54.390625,57 C55.4046875,56.9074675 56.5109375,56.0746753 56.6953125,54.7792208 L55.03225,32.5714286 L3.96775,32.5714286 L2.3046875,54.7792208 C2.4890625,56.0746753 3.5953125,56.9074675 4.609375,57 L29.5,57 Z" id="Path" fill="#518EF8"></path>
            <path d="M25.1671875,33.0340909 C26.18125,32.7564935 28.6703125,29.9805195 28.6703125,26.8344156 C28.6703125,23.7808442 25.7203125,19.7094156 21.3875,19.7094156 C17.0546875,19.7094156 14.0125,22.0227273 13.5515625,26.8344156 L16.1328125,26.8344156 C16.1328125,24.4285714 18.5296875,22.2077922 21.3875,22.2077922 C23.8765625,22.2077922 26.0890625,24.6136364 26.0890625,26.8344156 C26.0890625,29.7029221 23.5078125,31.7386364 21.3875,31.7386364 L18.80625,31.7386364 L18.80625,34.3295455 L21.3875,34.3295455 C23.5078125,34.3295455 26.0890625,36.3652597 26.0890625,39.2337662 C26.0890625,41.4545455 23.8765625,43.8603896 21.3875,43.8603896 C18.5296875,43.8603896 16.1328125,41.6396104 16.1328125,39.2337662 L13.5515625,39.2337662 C14.0125,44.0454545 17.0546875,46.3587662 21.3875,46.3587662 C25.7203125,46.3587662 28.6703125,42.2873377 28.6703125,39.2337662 C28.6703125,36.0876623 26.0890625,33.3116883 25.1671875,33.0340909 Z M39.825,44.7857143 L42.0375,44.7857143 L42.0375,18.6915584 L33.4640625,23.9659091 L34.7546875,26.0941558 L39.825,22.8555195 L39.825,44.7857143 Z" id="Shape" fill="#FFFFFF"></path>
        </g>
    </g>
</svg>