<svg xmlns="http://www.w3.org/2000/svg" width="48" height="48" class="block h-9 w-auto" version="1.0" viewBox="0 0 512 512"><path fill="#2563eb" d="M38.1 2C29 4.4 23.2 7.7 16 14.6S4.5 28.8 2 38.4C.1 46.1 0 49.3 0 143.6v97.3l3.7-.5c12.8-1.7 19.1-4.3 25.9-10.6 5.7-5.3 9-11.2 11.5-20.5 1.9-6.9 2.2-12.3 2.9-46.8.9-42.2 1.3-45.5 7-60.3 9.8-25.4 30.4-43.9 60.9-54.3 8.6-3 8.4-3.2 12.1 8.8 1.8 6 3.5 11.3 3.7 11.9.2.7-3.5 3.1-8.4 5.4-16.5 8-27.4 22-32.3 41.5-2.8 11-3.9 27.3-4 58.5-.1 28.7-1 36.7-5.3 48.2C73 234.5 64.1 245.7 53 253c-2.3 1.5-4.1 3.1-4.1 3.4 0 .4 2.8 2.5 6.2 4.8 11.3 7.5 20.3 20.9 25 36.8 2 6.9 2.2 10.8 3 46.5.7 33.2 1.1 40.4 2.8 48.5 4.4 20.7 15.8 36.7 31.9 44.8 4.4 2.2 8.5 4.1 9.2 4.4 1 .3.4 3.2-2.5 11.8-2.1 6.3-4.1 11.9-4.5 12.3-.8.9-16.4-4.5-24.5-8.5-9.7-4.9-15.8-9.2-23.4-16.4-8.7-8.2-12.8-13.6-17.9-23.9-8.4-16.8-10.2-28-10.2-64-.1-30.9-1-44.3-3.9-53.5-5-16.1-16.7-25.6-34-27.6l-6.1-.7v97c0 94 .1 97.2 2 104.9 2.5 9.6 6.8 16.9 14 23.8 7.3 7 13.1 10.2 22.5 12.6 7.7 2 11.1 2 217.5 2 207 0 209.8 0 217.6-2 9.6-2.5 16.9-6.8 23.8-14 7-7.3 10.2-13.1 12.6-22.5 1.9-7.6 2-11.1 2-104.8v-96.9l-5.6.7c-18.6 2.3-30.2 12.8-35 31.7-1.2 4.9-1.8 15-2.4 45.3-.5 21.4-1.3 41.2-1.9 44-7.7 35.3-28.6 57.7-66.4 71-4.3 1.5-7.9 2.6-8.1 2.4-1.1-1.3-7.7-23.2-7.3-24.2.3-.7 2.3-1.9 4.4-2.5 10.7-3.2 24.7-16.2 30.7-28.4 7.2-14.6 7.8-18.8 8.6-61.8.9-44.7 1.7-50.4 9.2-65.7 4-8.3 14.6-19.2 23.7-24.5l6.3-3.7-4.9-2.5c-10.7-5.4-20-15-25.8-26.5-6.8-13.4-8.5-27.1-8.5-68.1 0-29.1-.9-37.7-5-50-3-8.9-10-19.8-16.5-25.9-5.2-4.7-18.1-12.1-21.1-12.1-2 0-1.8-1.2 2.3-13.8l3.8-11.3 3.4.6c1.9.4 6.8 2 11 3.6 27.7 11 45.9 28.2 55.1 52.1 5.7 14.9 6.1 18.1 7 60.8.6 30.8 1.1 40.9 2.4 45.8 4.8 18.9 15.6 28.4 35.4 31.1l5.2.8v-97.2c0-93.9-.1-97.4-2-105-2.4-9.4-5.6-15.2-12.6-22.5-6.9-7.2-14.2-11.5-23.8-14-7.8-2-10.5-2-218-1.9C51.1.1 45.3.2 38.1 2M290 231.5V389h-40V256.5c0-72.9-.2-132.5-.5-132.5s-14.1 5-30.7 11.1c-16.7 6.1-34.5 12.6-39.6 14.5l-9.2 3.3.2-18.1.3-18.1 56-21.3c33.4-12.6 57.5-21.2 59.8-21.3l3.7-.1z"/></svg>