<svg version="1.0" xmlns="http://www.w3.org/2000/svg" width="48" height="48" viewBox="0 0 512.000000 512.000000" preserveAspectRatio="xMidYMid meet" class="block h-9 w-auto"><g transform="translate(0.000000,512.000000) scale(0.100000,-0.100000)" fill="#2563eb" stroke="none"><path d="M381 5100 c-91 -24 -149 -57 -221 -126 -72 -69 -115 -142 -140 -238
    -19 -77 -20 -109 -20 -1052 l0 -973 37 5 c128 17 191 43 259 106 57 53 90 112
    115 205 19 69 22 123 29 468 9 422 13 455 70 603 98 254 304 439 609 543 86
    30 84 32 121 -88 18 -60 35 -113 37 -119 2 -7 -35 -31 -84 -54 -165 -80 -274
    -220 -323 -415 -28 -110 -39 -273 -40 -585 -1 -287 -10 -367 -53 -482 -47
    -123 -136 -235 -247 -308 -23 -15 -41 -31 -41 -34 0 -4 28 -25 62 -48 113 -75
    203 -209 250 -368 20 -69 22 -108 30 -465 7 -332 11 -404 28 -485 44 -207 158
    -367 319 -448 44 -22 85 -41 92 -44 10 -3 4 -32 -25 -118 -21 -63 -41 -119
    -45 -123 -8 -9 -164 45 -245 85 -97 49 -158 92 -234 164 -87 82 -128 136 -179
    239 -84 168 -102 280 -102 640 -1 309 -10 443 -39 535 -50 161 -167 256 -340
    276 l-61 7 0 -970 c0 -940 1 -972 20 -1049 25 -96 68 -169 140 -238 73 -70
    131 -102 225 -126 77 -20 111 -20 2175 -20 2070 0 2098 0 2176 20 96 25 169
    68 238 140 70 73 102 131 126 225 19 76 20 111 20 1048 l0 969 -56 -7 c-186
    -23 -302 -128 -350 -317 -12 -49 -18 -150 -24 -453 -5 -214 -13 -412 -19 -440
    -77 -353 -286 -577 -664 -710 -43 -15 -79 -26 -81 -24 -11 13 -77 232 -73 242
    3 7 23 19 44 25 107 32 247 162 307 284 72 146 78 188 86 618 9 447 17 504 92
    657 40 83 146 192 237 245 l63 37 -49 25 c-107 54 -200 150 -258 265 -68 134
    -85 271 -85 681 0 291 -9 377 -50 500 -30 89 -100 198 -165 259 -52 47 -181
    121 -211 121 -20 0 -18 12 23 138 l38 113 34 -6 c19 -4 68 -20 110 -36 277
    -110 459 -282 551 -521 57 -149 61 -181 70 -608 6 -308 11 -409 24 -458 48
    -189 156 -284 354 -311 l52 -8 0 972 c0 939 -1 974 -20 1050 -24 94 -56 152
    -126 225 -69 72 -142 115 -238 140 -78 20 -105 20 -2180 19 -2045 0 -2103 -1
    -2175 -19z m2519 -2295 l0 -1575 -200 0 -200 0 0 1325 c0 729 -2 1325 -5 1325
    -3 0 -141 -50 -307 -111 -167 -61 -345 -126 -396 -145 l-92 -33 2 181 3 181
    560 213 c334 126 575 212 598 213 l37 1 0 -1575z"></path></g></svg>
