<svg width="40" height="40" viewBox="0 0 40 40" fill="none" xmlns="http://www.w3.org/2000/svg">
<path d="M31.1411 5.42383L27.9845 7.16147L26.4214 10.1511L27.9845 13.8085L30.9438 17.0107L34.1459 15.2275L36.1112 11.8357L34.1459 7.63952L31.1411 5.42383Z" fill="#0066DA"/>
<path d="M18.9168 17.648L26.4213 10.1435C28.6294 11.8205 30.2533 14.2258 30.9438 17.003L20.6469 27.3075C19.7211 28.2332 18.2187 28.2332 17.293 27.3075L10.35 20.3645C9.60637 19.6209 9.60637 18.422 10.35 17.686L13.3093 14.7266C14.0529 13.983 15.2518 13.983 15.9879 14.7266L18.9168 17.648ZM39.4423 5.82595L36.4299 2.81353C35.6938 2.07749 34.4873 2.07749 33.7513 2.81353L31.141 5.42379C33.2277 7.16902 34.9274 9.35436 36.1112 11.8356L39.4423 8.50451C40.1859 7.76847 40.1859 6.56198 39.4423 5.82595ZM31.3004 19.9699C31.3004 26.7839 25.7763 32.3004 18.9699 32.3004C12.1635 32.3004 6.63948 26.7839 6.63948 19.9699C6.63948 13.1559 12.1559 7.63948 18.9699 7.63948C21.7699 7.63948 24.3498 8.5728 26.4213 10.1511L31.141 5.43138C27.8479 2.66177 23.6062 1 18.9699 1C8.49094 1 0 9.49094 0 19.9699C0 30.4489 8.49094 38.9399 18.9699 38.9399C29.4489 38.9399 37.9399 30.4489 37.9399 19.9699C37.9399 17.0637 37.2797 14.3017 36.1112 11.8356L30.9438 17.0106C31.1714 17.9591 31.3004 18.9531 31.3004 19.9699Z" fill="#2684FC"/>
</svg>
