<svg xmlns="http://www.w3.org/2000/svg" xmlns:xlink="http://www.w3.org/1999/xlink" width="125" height="125" viewBox="0 0 125 125">
  <defs>
    <linearGradient id="linear-gradient" x1="0.967" y1="1" x2="0.028" y2="1" gradientUnits="objectBoundingBox">
      <stop offset="0" stop-color="#ff8b00"/>
      <stop offset="1" stop-color="#ff1e00"/>
    </linearGradient>
  </defs>
  <g id="Grupo_10731" data-name="Grupo 10731" transform="translate(-868 -1141)">
    <path id="Trazado_11598" data-name="Trazado 11598" d="M62.5,0A62.5,62.5,0,1,1,0,62.5,62.5,62.5,0,0,1,62.5,0Z" transform="translate(868 1141)" fill="url(#linear-gradient)"/>
    <g id="Grupo_10235" data-name="Grupo 10235" transform="translate(884.659 1170.805)">
      <path id="Trazado_11235" data-name="Trazado 11235" d="M922.428,2174.9l6.952.023v-12.548l-6.878-.015a23.941,23.941,0,0,0-2.3-5.608l4.852-4.8-8.868-8.911-4.859,4.8a23.337,23.337,0,0,0-5.631-2.353l.022-6.768H893.039l.037,6.7a24.1,24.1,0,0,0-5.636,2.289l-4.7-4.715-8.964,8.819,4.7,4.719a24.118,24.118,0,0,0-1.361,2.712,23.03,23.03,0,0,0-1,2.866l-6.812-.038v12.537l6.737.041a23.725,23.725,0,0,0,2.3,5.618l-4.959,4.882,8.874,8.908,4.956-4.881a24.53,24.53,0,0,0,2.744,1.361,24.163,24.163,0,0,0,2.892.993v7.085l12.6-.008,0-7.01a23.923,23.923,0,0,0,5.658-2.3l4.956,4.931,8.969-8.8-4.971-4.953a23.668,23.668,0,0,0,2.355-5.578Zm-23.083,10.373a16.6,16.6,0,1,1,16.6-16.6A16.6,16.6,0,0,1,899.345,2185.271Z" transform="translate(-869.31 -2138.719)" fill="#fff" opacity="0.75"/>
      <path id="Trazado_11234" data-name="Trazado 11234" d="M947.246,2172.34a15.477,15.477,0,0,0-18.317-11.2,15.462,15.462,0,0,0-28.08,6.789,17.494,17.494,0,0,0,2.29,34.838h40.212a15.462,15.462,0,0,0,3.895-30.426Z" transform="translate(-867.622 -2137.096)" fill="#fff"/>
    </g>
  </g>
</svg>
