<svg width="60" height="60" xmlns="http://www.w3.org/2000/svg"><g fill="none" fill-rule="evenodd" stroke-linecap="round" stroke-linejoin="round"><path d="M8.184 47.393A7.195 7.195 0 011.9 43.674a7.215 7.215 0 01.196-7.307l12.945-20.73a7.182 7.182 0 016.356-3.376 7.196 7.196 0 016.097 3.824 7.212 7.212 0 01-.258 7.2l-12.95 20.727a7.186 7.186 0 01-6.103 3.379l.001.002z" fill="#FF3D57"/><path d="M30.494 47.393a7.196 7.196 0 01-6.295-3.713 7.212 7.212 0 01.194-7.313l12.954-20.73a7.174 7.174 0 016.411-3.634A7.193 7.193 0 0150 15.923a7.211 7.211 0 01-.476 7.36l-12.93 20.73a7.186 7.186 0 01-6.102 3.378l.003.002z" fill="#FFCB00"/><path d="M45.591 40.357c0-3.895 3.214-7.034 7.205-7.034 3.99 0 7.204 3.137 7.204 7.034s-3.214 7.034-7.204 7.034c-3.991 0-7.205-3.137-7.205-7.034z" fill="#00D647"/></g></svg>