<svg xmlns="http://www.w3.org/2000/svg" width="652.728" height="215.885" xmlns:v="https://vecta.io/nano"><g transform="matrix(.796709 0 0 .796709 61.562988 176.05127)"><path d="M-46.307-161.245h30.303v30.303h-30.303zm121.212 0h30.303v30.303H74.905z" fill="gold"/><path d="M-46.307-130.942h60.606v30.303h-60.606zm90.909 0h60.606v30.303H44.602z" fill="#ffaf00"/><path fill="#ff8205" d="M-46.307-100.639h151.515v30.303H-46.307z"/><path d="M-46.307-70.336h30.303v30.303h-30.303zm60.606 0h30.303v30.303H14.299zm60.606 0h30.303v30.303H74.905z" fill="#fa500f"/><path d="M-76.61-40.033h90.909V-9.73H-76.61zm121.212 0h90.909V-9.73H44.602z" fill="#e10500"/><path d="M196.115-40.032v-90.908h27.471l16.495 62.01 16.309-62.01h27.533v90.908H266.87v-71.561l-18.045 71.561h-17.673l-17.983-71.561v71.561zm104.898-74.785v-16.123h17.425v16.123zm0 74.785v-65.855h17.425v65.855zm28.129-18.789l17.487-2.667c.744 3.391 2.252 5.964 4.526 7.721 4.138 3.633 15.743 3.346 19.72.155 2.467-1.697 3.161-5.744 1.054-7.938-.868-.826-2.812-1.591-5.829-2.295-14.056-3.101-22.965-5.932-26.726-8.495-10.142-6.41-10.337-21.758-1.054-29.207 7.38-7.557 32.93-7.48 41.051-1.426 4.382 2.935 7.399 7.276 9.054 13.022l-16.433 3.038c-1.73-5.891-5.942-7.922-12.402-7.937-4.589 0-7.875.641-9.859 1.922-2.475 1.606-2.728 4.95-.248 6.697 1.57 1.158 6.996 2.791 16.277 4.899s15.761 4.692 19.44 7.751c8.359 7.117 6.777 21.549-2.109 28.525-8.755 8.446-33.934 8.546-43.686 1.054-5.23-3.637-8.65-8.578-10.263-14.82h0zm133.71 18.789h-17.426v-65.855h16.186v9.364c2.769-4.423 5.26-7.338 7.472-8.744 5.761-3.598 13.184-2.252 19.007 1.178l-5.396 15.192c-7.873-5.237-16.142-3.404-18.386 6.45-1.965 5.68-1.379 32.603-1.457 42.415zM507.6-85.796l-15.812-2.853c4.252-14.32 12.917-18.614 28.524-18.727 11.787.156 20.15 1.523 25.394 9.766 1.551 2.832 2.326 8.031 2.326 15.596.054 7.266-.747 27.225.65 33.145.559 2.75 1.602 5.695 3.132 8.837h-17.239c-.519-1.146-1.725-5.403-2.294-7.193-5.777 5.609-12.456 8.677-20.401 8.682-12.356.246-21.898-7.375-21.891-19.472-.046-7.228 3.646-13.55 10.14-16.649 3.203-1.551 7.822-2.904 13.859-4.062 8.144-1.529 13.786-2.956 16.929-4.279v-1.736c0-3.349-.827-5.736-2.48-7.162-2.387-2.445-13.197-3.124-16.619-.31-1.736 1.22-3.143 3.359-4.217 6.418h-.001zm23.316 14.138c-3.173 1.323-17.356 3.61-20.092 5.705-4.515 2.968-4.351 8.993-.682 12.465 4.268 4.145 11.21 3.079 15.936-.435 5.765-4.13 4.689-10.312 4.837-17.735zm33.276 31.626v-90.908h17.426v90.908zm150.639 0h-19.968l-7.937-20.649h-36.339l-7.503 20.649h-19.472l35.408-90.908h19.409l36.4 90.908zm-33.796-35.966l-12.526-33.734-12.277 33.734h24.804zm41.958 35.966v-90.908h18.355v90.908zm-287.899-65.855v13.891h-11.905v26.54l.341 9.395c1.819 4.772 6.759 2.989 11.503 1.396l1.488 13.519c-10.133 4.285-28.813 4.791-30.262-9.859-.401-2.255-.517-7.938-.558-14.449v-26.54h-8v-13.891h8v-13.084l17.487-10.169v23.254h11.905z"/></g></svg>