<?xml version="1.0" encoding="UTF-8"?>
<svg version="1.1"
    xmlns="http://www.w3.org/2000/svg" width="525" height="525">
    <path d="M0 0 C0 48.18 0 96.36 0 146 C-9.9 145.67 -19.8 145.34 -30 145 C-83.01716887 144.20474247 -134.27235613 152.45414046 -184.57080078 169.09216309 C-222.84153354 181.75103503 -261.9487601 190.63470109 -301.94604492 195.73571777 C-303.8784538 195.98436066 -305.80940658 196.24424627 -307.74023438 196.50488281 C-329.45404632 199.33482646 -351.20853831 199.26271955 -373.0625 199.25 C-374.19654329 199.24969976 -374.19654329 199.24969976 -375.35349655 199.24939346 C-379.76535028 199.24707835 -384.17706574 199.23612937 -388.58886337 199.21351814 C-390.60375754 199.20340799 -392.61866723 199.19655907 -394.63357544 199.18980408 C-395.86574799 199.18034256 -397.09792053 199.17088104 -398.36743164 199.16113281 C-399.43514297 199.15430481 -400.50285431 199.14747681 -401.60292053 199.14044189 C-405.74918712 198.96902714 -409.87557294 198.45826967 -414 198 C-414 149.82 -414 101.64 -414 52 C-391.23 52 -368.46 52 -345 52 C-303.02919867 48.06523738 -265.01222915 40.84549895 -225.33227539 27.65472412 C-178.35296774 12.05183514 -129.44839489 2.13808928 -80 -1 C-78.74147217 -1.08459473 -78.74147217 -1.08459473 -77.45751953 -1.17089844 C-15.5460851 -5.18202837 -15.5460851 -5.18202837 0 0 Z " fill="#0181FD" transform="translate(472,166)"/>
    <path d="M0 0 C2 1 2 1 2.77200317 2.7257843 C3.01627045 3.47538925 3.26053772 4.2249942 3.51220703 4.99731445 C3.7923465 5.84522049 4.07248596 6.69312653 4.3611145 7.56672668 C4.65702484 8.48958969 4.95293518 9.4124527 5.2578125 10.36328125 C5.56572723 11.30680954 5.87364197 12.25033783 6.19088745 13.22245789 C6.84169643 15.22288211 7.48873497 17.22453626 8.13232422 19.22729492 C9.11849291 22.29227618 10.11884117 25.35235501 11.12109375 28.41210938 C11.75085637 30.35388914 12.37979 32.29593799 13.0078125 34.23828125 C13.4577507 35.61346672 13.4577507 35.61346672 13.91677856 37.01643372 C14.19061371 37.87379623 14.46444885 38.73115875 14.74658203 39.61450195 C15.11059616 40.74248955 15.11059616 40.74248955 15.48196411 41.89326477 C16 44 16 44 16 48 C-17.70400109 61.00475926 -52.12201367 71.12533267 -88 76 C-89.09731445 76.15098145 -90.19462891 76.30196289 -91.32519531 76.45751953 C-109.94555982 78.89071348 -128.42852238 79.26635482 -147.1875 79.25 C-148.88803528 79.24897278 -148.88803528 79.24897278 -150.6229248 79.2479248 C-181.44050788 79.18649737 -181.44050788 79.18649737 -188 77 C-188 60.83 -188 44.66 -188 28 C-180.41 28.33 -172.82 28.66 -165 29 C-158.85062793 29.13240884 -152.71185301 29.24517011 -146.5625 29.25 C-145.76249573 29.25067474 -144.96249146 29.25134949 -144.13824463 29.25204468 C-96.790596 29.18974054 -46.58832367 21.02230465 -3.20629883 1.28417969 C-1.61918091 0.64851074 -1.61918091 0.64851074 0 0 Z " fill="#FFA006" transform="translate(246,129)"/>
    <path d="M0 0 C5.135625 0.33 10.27125 0.66 15.5625 1 C15.5625 17.5 15.5625 34 15.5625 51 C9.9525 50.67 4.3425 50.34 -1.4375 50 C-5.15686399 49.89800647 -8.85954181 49.81566072 -12.578125 49.796875 C-13.54109497 49.78986069 -14.50406494 49.78284637 -15.49621582 49.77561951 C-18.56002638 49.75835526 -21.62364269 49.75177327 -24.6875 49.75 C-25.74408813 49.74932526 -26.80067627 49.74865051 -27.88928223 49.74795532 C-44.93916584 49.7651771 -61.55625803 50.43665493 -78.4375 53 C-79.56849121 53.16628906 -80.69948242 53.33257812 -81.86474609 53.50390625 C-110.41074038 57.81635188 -140.01261857 64.81115136 -166.41015625 76.76171875 C-169.4375 78 -169.4375 78 -173.4375 78 C-175.43959777 71.95209212 -177.43246933 65.90120133 -179.41894531 59.84814453 C-180.09585737 57.78917666 -180.77488118 55.73090182 -181.45605469 53.67333984 C-182.43459739 50.71631502 -183.40552717 47.75688391 -184.375 44.796875 C-184.68123291 43.87694763 -184.98746582 42.95702026 -185.30297852 42.00921631 C-185.58326904 41.1486261 -185.86355957 40.28803589 -186.15234375 39.40136719 C-186.40105225 38.64635925 -186.64976074 37.89135132 -186.90600586 37.11346436 C-187.4375 35 -187.4375 35 -187.4375 31 C-128.72103504 5.92010291 -63.56226248 -4.18389416 0 0 Z " fill="#07C846" transform="translate(456.4375,322)"/>
</svg>