<svg width="60" height="60" viewBox="0 0 32 32" fill="none" xmlns="http://www.w3.org/2000/svg"><mask id="a" maskUnits="userSpaceOnUse" x="0" y="0" width="32" height="32" fill="#26292C"><path d="M2.737 0h26.526A2.737 2.737 0 0132 2.737v26.526A2.737 2.737 0 0129.263 32H2.737A2.737 2.737 0 010 29.263V2.737A2.737 2.737 0 012.737 0z"/></mask><g mask="url(#a)" fill="#26292C"><path d="M2.737 0h26.526A2.737 2.737 0 0132 2.737v26.526A2.737 2.737 0 0129.263 32H2.737A2.737 2.737 0 010 29.263V2.737A2.737 2.737 0 012.737 0z"/></g><mask id="b" maskUnits="userSpaceOnUse" x="7" y="4" width="18" height="24" fill="#26292C"><path d="M13.335 13.177c0 2.142 1.087 4.454 3.48 4.454 1.773 0 3.567-1.385 3.567-4.486 0-2.719-1.41-4.544-3.509-4.544-1.71 0-3.538 1.202-3.538 4.576zm4.38-8.545c4.29 0 7.174 3.397 7.174 8.454 0 4.977-3.038 8.452-7.381 8.452-2.071 0-3.398-.887-4.091-1.53.005.153.008.324.008.506v6.75H8.982V9.28c0-.262-.084-.344-.343-.344H7.111V4.997h3.728c1.717 0 2.156.874 2.24 1.547.697-.78 2.141-1.912 4.637-1.912z"/></mask><g mask="url(#b)" fill="#26292C"><path d="M13.335 13.177c0 2.142 1.087 4.454 3.48 4.454 1.773 0 3.567-1.385 3.567-4.486 0-2.719-1.41-4.544-3.509-4.544-1.71 0-3.538 1.202-3.538 4.576zm4.38-8.545c4.29 0 7.174 3.397 7.174 8.454 0 4.977-3.038 8.452-7.381 8.452-2.071 0-3.398-.887-4.091-1.53.005.153.008.324.008.506v6.75H8.982V9.28c0-.262-.084-.344-.343-.344H7.111V4.997h3.728c1.717 0 2.156.874 2.24 1.547.697-.78 2.141-1.912 4.637-1.912z" fill="#FFF"/></g></svg>