<svg width="60" height="60" xmlns="http://www.w3.org/2000/svg"><g fill="none" fill-rule="evenodd" stroke-linecap="round" stroke-linejoin="round"><path d="M35.69 1L52 17.225v39.087a3.67 3.67 0 01-1.084 2.61A3.71 3.71 0 0148.293 60H12.707a3.71 3.71 0 01-2.623-1.078A3.67 3.67 0 019 56.312V4.688a3.67 3.67 0 011.084-2.61A3.71 3.71 0 0112.707 1H35.69z" fill="#28B446"/><path d="M35.69 1L52 17.225H39.397c-2.054 0-3.707-1.829-3.707-3.872V1z" fill="#6ACE7C"/><path fill="#219B38" d="M39.211 17.225L52 22.48v-5.255z"/><path d="M20.12 31.975c0-.817.662-1.475 1.483-1.475h17.794c.821 0 1.482.658 1.482 1.475v15.487c0 .818-.661 1.475-1.482 1.475H21.603a1.476 1.476 0 01-1.482-1.474V31.974zm2.225 1.475h6.672v2.212h-6.672V33.45zm0 5.162h6.672v2.213h-6.672v-2.213zm0 5.163h6.672v2.212h-6.672v-2.212zm9.638-10.325h6.672v2.212h-6.672V33.45zm0 5.162h6.672v2.213h-6.672v-2.213zm0 5.163h6.672v2.212h-6.672v-2.212z" fill="#FFF"/><path d="M34.69 0L51 16.225v39.087a3.67 3.67 0 01-1.084 2.61A3.71 3.71 0 0147.293 59H11.707a3.71 3.71 0 01-2.623-1.078A3.67 3.67 0 018 55.312V3.688a3.67 3.67 0 011.084-2.61A3.71 3.71 0 0111.707 0H34.69z" fill="#28B446"/><path d="M34.69 0L51 16.225H38.397c-2.054 0-3.707-1.829-3.707-3.872V0z" fill="#6ACE7C"/><path fill="#219B38" d="M38.211 16.225L51 21.48v-5.255z"/><path d="M19.12 30.975c0-.817.662-1.475 1.483-1.475h17.794c.821 0 1.482.658 1.482 1.475v15.487c0 .818-.661 1.475-1.482 1.475H20.603a1.476 1.476 0 01-1.482-1.474V30.974zm2.225 1.475h6.672v2.212h-6.672V32.45zm0 5.162h6.672v2.213h-6.672v-2.213zm0 5.163h6.672v2.212h-6.672v-2.212zm9.638-10.325h6.672v2.212h-6.672V32.45zm0 5.162h6.672v2.213h-6.672v-2.213zm0 5.163h6.672v2.212h-6.672v-2.212z" fill="#FFF"/></g></svg>