<svg xmlns="http://www.w3.org/2000/svg" width="60" height="60"><g fill="none" fill-rule="evenodd" stroke-linecap="round" stroke-linejoin="round"><path fill="#28B446" d="M35.69 1 52 17.225v39.087a3.67 3.67 0 0 1-1.084 2.61A3.7 3.7 0 0 1 48.293 60H12.707a3.7 3.7 0 0 1-2.623-1.078A3.67 3.67 0 0 1 9 56.312V4.688a3.67 3.67 0 0 1 1.084-2.61A3.7 3.7 0 0 1 12.707 1z"/><path fill="#6ACE7C" d="M35.69 1 52 17.225H39.397c-2.054 0-3.707-1.829-3.707-3.872z"/><path fill="#219B38" d="M39.211 17.225 52 22.48v-5.255z"/><path fill="#FFF" d="M20.12 31.975c0-.817.662-1.475 1.483-1.475h17.794c.821 0 1.482.658 1.482 1.475v15.487c0 .818-.661 1.475-1.482 1.475H21.603a1.476 1.476 0 0 1-1.482-1.474V31.974zm2.225 1.475h6.672v2.212h-6.672zm0 5.162h6.672v2.213h-6.672zm0 5.163h6.672v2.212h-6.672zm9.638-10.325h6.672v2.212h-6.672zm0 5.162h6.672v2.213h-6.672zm0 5.163h6.672v2.212h-6.672z"/><path fill="#28B446" d="M34.69 0 51 16.225v39.087a3.67 3.67 0 0 1-1.084 2.61A3.7 3.7 0 0 1 47.293 59H11.707a3.7 3.7 0 0 1-2.623-1.078A3.67 3.67 0 0 1 8 55.312V3.688a3.67 3.67 0 0 1 1.084-2.61A3.7 3.7 0 0 1 11.707 0z"/><path fill="#6ACE7C" d="M34.69 0 51 16.225H38.397c-2.054 0-3.707-1.829-3.707-3.872z"/><path fill="#219B38" d="M38.211 16.225 51 21.48v-5.255z"/><path fill="#FFF" d="M19.12 30.975c0-.817.662-1.475 1.483-1.475h17.794c.821 0 1.482.658 1.482 1.475v15.487c0 .818-.661 1.475-1.482 1.475H20.603a1.476 1.476 0 0 1-1.482-1.474V30.974zm2.225 1.475h6.672v2.212h-6.672zm0 5.162h6.672v2.213h-6.672zm0 5.163h6.672v2.212h-6.672zm9.638-10.325h6.672v2.212h-6.672zm0 5.162h6.672v2.213h-6.672zm0 5.163h6.672v2.212h-6.672z"/></g></svg>