<?xml version="1.0" encoding="UTF-8"?>
<svg width="60px" height="60px" viewBox="0 0 60 60" version="1.1" xmlns="http://www.w3.org/2000/svg" xmlns:xlink="http://www.w3.org/1999/xlink">
    <title>google_sheets_node_icon</title>
    <g id="google_sheets_node_icon" stroke="none" stroke-width="1" fill="none" fill-rule="evenodd" stroke-linecap="round" stroke-linejoin="round">
        <g id="google-sheets" transform="translate(8.000000, 0.000000)">
            <g id="Group" transform="translate(1.000000, 1.000000)">
                <path d="M26.6896552,-7.41532298e-06 L43.0000075,16.225 L43.0000075,55.3125 C43.0019734,56.2910863 42.6120602,57.2301574 41.916454,57.9221237 C41.2208478,58.6140901 40.2768372,59.0019631 39.2931034,59.0000074 L3.70689655,59.0000074 C2.72316282,59.0019631 1.77915216,58.6140901 1.08354597,57.9221237 C0.387939777,57.2301574 -0.00197339359,56.2910863 -7.45432819e-06,55.3125 L-7.45432819e-06,3.6875 C-0.00197339359,2.70891371 0.387939777,1.76984265 1.08354597,1.07787625 C1.77915216,0.385909859 2.72316282,-0.00196306769 3.70689655,-7.41532298e-06 L26.6896552,-7.41532298e-06 Z" id="Path" fill="#28B446"></path>
                <path d="M26.6896552,0 L43,16.225 L30.3965517,16.225 C28.342931,16.225 26.6896552,14.396 26.6896552,12.353125 L26.6896552,0 Z" id="Path" fill="#6ACE7C"></path>
                <polygon id="Path" fill="#219B38" points="30.2112069 16.225 43 21.4796875 43 16.225"></polygon>
                <path d="M11.1206897,30.975 C11.1206897,30.15785 11.782,29.5 12.6034483,29.5 L30.3965517,29.5 C31.218,29.5 31.8793103,30.15785 31.8793103,30.975 L31.8793103,46.4625 C31.8793103,47.27965 31.218,47.9375 30.3965517,47.9375 L12.6034483,47.9375 C11.782,47.9375 11.1206897,47.27965 11.1206897,46.4625 L11.1206897,30.975 Z M13.3448276,32.45 L20.0172414,32.45 L20.0172414,34.6625 L13.3448276,34.6625 L13.3448276,32.45 Z M13.3448276,37.6125 L20.0172414,37.6125 L20.0172414,39.825 L13.3448276,39.825 L13.3448276,37.6125 Z M13.3448276,42.775 L20.0172414,42.775 L20.0172414,44.9875 L13.3448276,44.9875 L13.3448276,42.775 Z M22.9827586,32.45 L29.6551724,32.45 L29.6551724,34.6625 L22.9827586,34.6625 L22.9827586,32.45 Z M22.9827586,37.6125 L29.6551724,37.6125 L29.6551724,39.825 L22.9827586,39.825 L22.9827586,37.6125 Z M22.9827586,42.775 L29.6551724,42.775 L29.6551724,44.9875 L22.9827586,44.9875 L22.9827586,42.775 Z" id="Shape" fill="#FFFFFF"></path>
            </g>
            <g id="Group">
                <path d="M26.6896552,-7.41532298e-06 L43.0000075,16.225 L43.0000075,55.3125 C43.0019734,56.2910863 42.6120602,57.2301574 41.916454,57.9221237 C41.2208478,58.6140901 40.2768372,59.0019631 39.2931034,59.0000074 L3.70689655,59.0000074 C2.72316282,59.0019631 1.77915216,58.6140901 1.08354597,57.9221237 C0.387939777,57.2301574 -0.00197339359,56.2910863 -7.45432819e-06,55.3125 L-7.45432819e-06,3.6875 C-0.00197339359,2.70891371 0.387939777,1.76984265 1.08354597,1.07787625 C1.77915216,0.385909859 2.72316282,-0.00196306769 3.70689655,-7.41532298e-06 L26.6896552,-7.41532298e-06 Z" id="Path" fill="#28B446"></path>
                <path d="M26.6896552,0 L43,16.225 L30.3965517,16.225 C28.342931,16.225 26.6896552,14.396 26.6896552,12.353125 L26.6896552,0 Z" id="Path" fill="#6ACE7C"></path>
                <polygon id="Path" fill="#219B38" points="30.2112069 16.225 43 21.4796875 43 16.225"></polygon>
                <path d="M11.1206897,30.975 C11.1206897,30.15785 11.782,29.5 12.6034483,29.5 L30.3965517,29.5 C31.218,29.5 31.8793103,30.15785 31.8793103,30.975 L31.8793103,46.4625 C31.8793103,47.27965 31.218,47.9375 30.3965517,47.9375 L12.6034483,47.9375 C11.782,47.9375 11.1206897,47.27965 11.1206897,46.4625 L11.1206897,30.975 Z M13.3448276,32.45 L20.0172414,32.45 L20.0172414,34.6625 L13.3448276,34.6625 L13.3448276,32.45 Z M13.3448276,37.6125 L20.0172414,37.6125 L20.0172414,39.825 L13.3448276,39.825 L13.3448276,37.6125 Z M13.3448276,42.775 L20.0172414,42.775 L20.0172414,44.9875 L13.3448276,44.9875 L13.3448276,42.775 Z M22.9827586,32.45 L29.6551724,32.45 L29.6551724,34.6625 L22.9827586,34.6625 L22.9827586,32.45 Z M22.9827586,37.6125 L29.6551724,37.6125 L29.6551724,39.825 L22.9827586,39.825 L22.9827586,37.6125 Z M22.9827586,42.775 L29.6551724,42.775 L29.6551724,44.9875 L22.9827586,44.9875 L22.9827586,42.775 Z" id="Shape" fill="#FFFFFF"></path>
            </g>
        </g>
    </g>
</svg>